g AbilityDron_05_CorpsePart
v 0.56268793 0.48438978 -0.19556987
v 0.56268793 0.57161045 -0.12002599
v 0.09733915 0.611393 -0.12002599
v 0.09733915 0.51716197 -0.19556987
v 0.64393044 0.438156 -0.19556987
v 0.64393044 0.5174631 -0.12002599
v 0.09733915 0.611393 -0.12002599
v 0.56268793 0.57161045 -0.12002599
v 0.5604945 0.559224 0.18126798
v 0.09733915 0.5970713 0.18126798
v 0.5604945 0.559224 0.18126798
v 0.5604945 0.21087909 0.18126798
v 0.09733915 0.25171542 0.18126798
v 0.09733915 0.5970713 0.18126798
v 0.63844687 0.24513519 0.14802265
v 0.63844687 0.50823784 0.14802265
v 0.64393044 0.5174631 -0.12002599
v 0.63844687 0.50823784 0.14802265
v 0.64393044 0.24513519 -0.1871618
v 0.63844687 0.24513519 0.14802265
v 0.63844687 0.50823784 0.14802265
v 0.64393044 0.438156 -0.19556987
v 0.64393044 0.5174631 -0.12002599
v 0.09733915 0.24582326 -0.1871618
v 0.56122565 0.20707285 -0.1871618
v 0.56268793 0.48438978 -0.19556987
v 0.09733915 0.51716197 -0.19556987
v 0.64393044 0.24513519 -0.1871618
v 0.64393044 0.438156 -0.19556987
v 0.56122565 0.20707285 -0.1871618
v 0.09733915 0.24582326 -0.1871618
v 0.09733915 0.25171542 0.18126798
v 0.5604945 0.21087909 0.18126798
v 0.63844687 0.24513519 0.14802265
v 0.64393044 0.24513519 -0.1871618
v 0.7403763 0.44163966 0.061683655
v 0.77538496 0.42559755 0.033878863
v 0.77538496 0.33407605 0.033878863
v 0.7403763 0.31803405 0.061683655
v 0.7403763 0.5034424 -0.045363784
v 0.77538496 0.47133684 -0.045363784
v 0.7403548 0.44163966 -0.15241116
v 0.77538496 0.42559755 -0.12462789
v 0.7403548 0.31803405 -0.15241116
v 0.77538496 0.33407605 -0.12462789
v 0.7403763 0.2562313 -0.045363784
v 0.77538496 0.28833687 -0.045363784
v 0.7403763 0.5034424 -0.045363784
v 0.7403763 0.44163966 0.061683655
v 0.6322107 0.44163966 0.061683655
v 0.6322107 0.5034424 -0.045363784
v 0.7403548 0.44163966 -0.15241116
v 0.6322322 0.44163966 -0.15241116
v 0.7403548 0.31803405 -0.15241116
v 0.6322322 0.31803405 -0.15241116
v 0.7403763 0.2562313 -0.045363784
v 0.6322107 0.2562313 -0.045363784
v 0.7403763 0.31803405 0.061683655
v 0.7403763 0.2562313 -0.045363784
v 0.6322107 0.2562313 -0.045363784
v 0.6322107 0.31803405 0.061683655
v 0.79787827 0.3798368 -0.045363784
v 0.4468668 0.48232543 0.15922624
v 0.5115942 0.48232543 0.15922624
v 0.505272 0.5461495 0.15922624
v 0.45318905 0.5461495 0.15922624
vt 0.628268 0.86026114
vt 0.629212 0.86026114
vt 0.629212 0.8645092
vt 0.628268 0.8645092
vt 0.628268 0.8593171
vt 0.629212 0.8593171
vt 0.629212 0.8645092
vt 0.629212 0.86026114
vt 0.6320441 0.86026114
vt 0.6320441 0.8645092
vt 0.6320441 0.86026114
vt 0.63511217 0.86026114
vt 0.63511217 0.8645092
vt 0.6320441 0.8645092
vt 0.63511217 0.8593171
vt 0.6320441 0.8593171
vt 0.629212 0.8593171
vt 0.6320441 0.8593171
vt 0.6497445 0.86474526
vt 0.6530486 0.86474526
vt 0.6530486 0.8673413
vt 0.6497445 0.8666333
vt 0.6504525 0.8673413
vt 0.62590796 0.8645092
vt 0.62590796 0.86026114
vt 0.628268 0.86026114
vt 0.628268 0.8645092
vt 0.62590796 0.8593171
vt 0.628268 0.8593171
vt 0.6355842 0.86380124
vt 0.6355842 0.8593171
vt 0.63888824 0.8593171
vt 0.63888824 0.86380124
vt 0.63888824 0.8645092
vt 0.6355842 0.8645092
vt 0.6502165 0.86332923
vt 0.6497445 0.8630932
vt 0.6497445 0.8623852
vt 0.6502165 0.8621492
vt 0.64903647 0.8640372
vt 0.64903647 0.8635652
vt 0.6478565 0.86332923
vt 0.6483284 0.8630932
vt 0.6478565 0.8621492
vt 0.6483284 0.8623852
vt 0.64903647 0.86144114
vt 0.64903647 0.8619132
vt 0.62968403 0.851765
vt 0.6308641 0.851765
vt 0.6308641 0.852709
vt 0.62968403 0.852709
vt 0.62850404 0.851765
vt 0.62850404 0.852709
vt 0.627324 0.851765
vt 0.627324 0.852709
vt 0.626144 0.851765
vt 0.626144 0.852709
vt 0.6318081 0.851765
vt 0.6329881 0.851765
vt 0.6329881 0.852709
vt 0.6318081 0.852709
vt 0.64903647 0.8628572
vt 0.65422857 0.85978913
vt 0.6549366 0.85978913
vt 0.6547006 0.86026114
vt 0.65422857 0.86026114
vn 0.11372465 0.6392107 -0.76057637
vn 0.09019542 0.6392107 -0.7637241
vn 0.05098003 0.6392107 -0.76734006
vn 0.05098003 0.6392107 -0.76734006
vn 0.38038927 0.62352455 -0.6830235
vn 0.38038927 0.62352455 -0.6830235
vn 0.08235234 0.99214923 0.09411676
vn 0.16078311 0.9843061 0.072734654
vn 0.14509696 0.9843061 0.10044095
vn 0.08235234 0.99214923 0.09411676
vn 0.035293877 0.003921509 0.99936926
vn 0.043136954 0.003921509 0.99906147
vn -0.003921509 0.003921509 0.9999846
vn -0.003921509 0.003921509 0.9999846
vn 0.38823235 0.003921509 0.9215532
vn 0.38823235 0.003921509 0.9215532
vn 0.552937 0.82744455 0.097960345
vn 0.552937 0.82744455 0.097960345
vn 0.9999924 -0.0039215684 -0
vn 0.9999924 -0.0039215684 -0
vn 0.9999924 -0.0039215684 -0
vn 0.9999924 -0.0039215684 -0
vn 0.9999924 -0.0039215684 -0
vn -0.003921509 -0.0274508 -0.9996155
vn -0.003921509 -0.0274508 -0.9996155
vn -0.003921509 -0.0274508 -0.9996155
vn -0.003921509 -0.0274508 -0.9996155
vn -0.003921509 -0.035293877 -0.99936926
vn -0.003921509 -0.035293877 -0.99936926
vn -0.011763803 -0.99993086 -0
vn -0.08207506 -0.9966261 -0
vn -0.08207506 -0.9966261 -0
vn -0.027440554 -0.9996234 -0
vn 0.41085276 -0.9117018 -0
vn 0.41085276 -0.9117018 -0
vn 0.6784262 0.36470306 0.63775355
vn 0.79607236 0.30195844 0.5244902
vn 0.79607236 -0.3019585 0.5244901
vn 0.6784262 -0.36470312 0.6377535
vn 0.6784262 0.7333276 -0.044367142
vn 0.79607236 0.5999954 -0.07921094
vn 0.6784262 0.36470306 -0.63775355
vn 0.79607236 0.30195844 -0.5244902
vn 0.6784262 -0.36470312 -0.6377535
vn 0.79607236 -0.3019585 -0.5244901
vn 0.6784262 -0.73332775 -0.0443658
vn 0.79607236 -0.59999543 -0.07921037
vn -0.003921509 0.99999225 -0.00034526698
vn -0.003921509 0.4980353 0.86714786
vn -0.003921509 0.4980353 0.86714786
vn -0.003921509 0.99999225 -0.00034526698
vn -0.003921509 0.4980353 -0.86714786
vn -0.003921509 0.4980353 -0.86714786
vn -0.003921509 -0.49803543 -0.8671478
vn -0.003921509 -0.49803543 -0.8671478
vn -0.003921509 -0.9999924 -0
vn -0.003921509 -0.9999924 -0
vn -0.003921509 -0.49803543 0.8671478
vn -0.003921509 -0.9999924 -0
vn -0.003921509 -0.9999924 -0
vn -0.003921509 -0.49803543 0.8671478
vn 0.9999924 0.003921509 -0
vn -0.003921509 0.003921509 -0.9999846
vn -0.003921509 0.003921509 -0.9999846
vn -0.003921509 0.003921509 -0.9999846
vn -0.003921509 0.003921509 -0.9999846
g AbilityDron_05_CorpsePart_0
f 3/3/3 2/2/2 1/1/1
f 4/4/4 3/3/3 1/1/1
f 2/2/2 6/6/6 5/5/5
f 1/1/1 2/2/2 5/5/5
f 9/9/9 8/8/8 7/7/7
f 10/10/10 9/9/9 7/7/7
f 13/13/13 12/12/12 11/11/11
f 14/14/14 13/13/13 11/11/11
f 11/11/11 12/12/12 15/15/15
f 16/16/16 11/11/11 15/15/15
f 17/17/17 8/8/8 9/9/9
f 18/18/18 17/17/17 9/9/9
f 21/21/21 20/20/20 19/19/19
f 19/19/19 22/22/22 21/21/21
f 22/22/22 23/23/23 21/21/21
f 26/26/26 25/25/25 24/24/24
f 27/27/27 26/26/26 24/24/24
f 28/28/28 25/25/25 26/26/26
f 29/29/29 28/28/28 26/26/26
f 32/32/32 31/31/31 30/30/30
f 33/33/33 32/32/32 30/30/30
f 34/34/34 33/33/33 30/30/30
f 35/35/35 34/34/34 30/30/30
f 38/38/38 37/37/37 36/36/36
f 39/39/39 38/38/38 36/36/36
f 40/40/40 36/36/36 37/37/37
f 41/41/41 40/40/40 37/37/37
f 42/42/42 40/40/40 41/41/41
f 43/43/43 42/42/42 41/41/41
f 44/44/44 42/42/42 43/43/43
f 45/45/45 44/44/44 43/43/43
f 46/46/46 44/44/44 45/45/45
f 47/47/47 46/46/46 45/45/45
f 39/39/39 46/46/46 47/47/47
f 38/38/38 39/39/39 47/47/47
f 50/50/50 49/49/49 48/48/48
f 51/51/51 50/50/50 48/48/48
f 51/51/51 48/48/48 52/52/52
f 53/53/53 51/51/51 52/52/52
f 53/53/53 52/52/52 54/54/54
f 55/55/55 53/53/53 54/54/54
f 55/55/55 54/54/54 56/56/56
f 57/57/57 55/55/55 56/56/56
f 60/60/60 59/59/59 58/58/58
f 61/61/61 60/60/60 58/58/58
f 61/61/61 58/58/58 49/49/49
f 50/50/50 61/61/61 49/49/49
f 41/41/41 37/37/37 62/62/62
f 43/43/43 41/41/41 62/62/62
f 45/45/45 43/43/43 62/62/62
f 47/47/47 45/45/45 62/62/62
f 38/38/38 47/47/47 62/62/62
f 37/37/37 38/38/38 62/62/62
f 65/65/65 64/64/64 63/63/63
f 66/66/66 65/65/65 63/63/63
