g AbilityDron_04_CorpsePart
v 0.025445044 0.78658056 0.17265403
v 0.12645406 0.7427895 0.5537213
v 0.29452989 0.7427895 0.4895172
v 0.12989604 0.78658056 0.12450093
v 0.12645406 0.7427895 0.5537213
v 0.025445044 0.78658056 0.17265403
v 0.11176616 1.0124878 0.11260754
v 0.4571531 1.008262 0.47278452
v 0.11176616 1.0124878 0.11260754
v 0.12918037 1.0124878 0.091989934
v 0.51341695 1.008262 0.411
v 0.4571531 1.008262 0.47278452
v 0.29452989 0.7427895 0.4895172
v 0.51341695 1.008262 0.411
v 0.12918037 1.0124878 0.091989934
v 0.12989604 0.78658056 0.12450093
v 0.15327394 0.78658056 0.096386075
v 0.51321244 0.7427895 0.2597931
v 0.5691014 0.7427895 0.08878654
v 0.18155923 0.78658056 -0.015119195
v 0.51321244 0.7427895 0.2597931
v 0.15327394 0.78658056 0.096386075
v 0.15852207 1.0124878 -0.015562236
v 0.65624046 1.008262 -0.056695104
v 0.15852207 1.0124878 -0.015562236
v 0.15266055 1.0124878 -0.042416155
v 0.6427453 1.008262 -0.13971066
v 0.65624046 1.008262 -0.056695104
v 0.5691014 0.7427895 0.08878654
v 0.6427453 1.008262 -0.13971066
v 0.15266055 1.0124878 -0.042416155
v 0.18155923 0.78658056 -0.015119195
v 0.17443678 0.78658056 -0.0509699
v 0.52820706 0.7427895 -0.22575921
v 0.43046954 0.7427895 -0.37676162
v 0.10559797 0.78658056 -0.1431185
v 0.52820706 0.7427895 -0.22575921
v 0.17443678 0.78658056 -0.0509699
v 0.088388264 1.0124878 -0.13258821
v 0.37004814 1.008262 -0.544667
v 0.088388264 1.0124878 -0.13258821
v 0.06296557 1.0124878 -0.14523143
v 0.29613158 1.008262 -0.58678824
v 0.37004814 1.008262 -0.544667
v 0.43046954 0.7427895 -0.37676162
v 0.29613158 1.008262 -0.58678824
v 0.06296557 1.0124878 -0.14523143
v 0.10559797 0.78658056 -0.1431185
v 0.07325733 0.78658056 -0.16015783
v 0.16029415 0.7427895 -0.542929
v -0.01858455 0.7427895 -0.5620471
v -0.041689873 0.78658056 -0.16465622
v 0.16029415 0.7427895 -0.542929
v 0.07325733 0.78658056 -0.16015783
v -0.046699464 1.0124878 -0.15170634
v -0.18925035 1.008262 -0.62931836
v -0.046699464 1.0124878 -0.15170634
v -0.07338303 1.0124878 -0.14025593
v -0.26943737 1.008262 -0.5987498
v -0.18925035 1.008262 -0.62931836
v -0.01858455 0.7427895 -0.5620471
v -0.26943737 1.008262 -0.5987498
v -0.07338303 1.0124878 -0.14025593
v -0.041689873 0.78658056 -0.16465622
v -0.07525736 0.78658056 -0.15020686
v -0.31776088 0.7427895 -0.4566419
v -0.4451809 0.7427895 -0.32963088
v -0.15111637 0.78658056 -0.06371534
v -0.31776088 0.7427895 -0.4566419
v -0.07525736 0.78658056 -0.15020686
v -0.14658391 1.0124878 -0.058773935
v -0.60705435 1.008262 -0.24794438
v -0.14658391 1.0124878 -0.058773935
v -0.15530807 1.0124878 -0.031170249
v -0.6346581 1.008262 -0.16680318
v -0.60705435 1.008262 -0.24794438
v -0.4451809 0.7427895 -0.32963088
v -0.6346581 1.008262 -0.16680318
v -0.15530807 1.0124878 -0.031170249
v -0.15111637 0.78658056 -0.06371534
v -0.16103327 0.78658056 -0.028546154
v -0.55154026 0.7427895 -0.03082943
v -0.53303564 0.7427895 0.14811742
v -0.14154029 0.78658056 0.08483344
v -0.55154026 0.7427895 -0.03082943
v -0.16103327 0.78658056 -0.028546154
v -0.13724637 1.0124878 0.07733613
v -0.5735892 1.008262 0.31677258
v -0.13724637 1.0124878 0.07733613
v -0.12211543 1.0124878 0.10115707
v -0.5288098 1.008262 0.3889171
v -0.5735892 1.008262 0.31677258
v -0.53303564 0.7427895 0.14811742
v -0.5288098 1.008262 0.3889171
v -0.12211543 1.0124878 0.10115707
v -0.14154029 0.78658056 0.08483344
v -0.11427736 0.78658056 0.12129754
v -0.34536457 0.7427895 0.43812656
v -0.18969339 0.7427895 0.5283327
v -0.011121333 0.78658056 0.17217696
v -0.34536457 0.7427895 0.43812656
v -0.11427736 0.78658056 0.12129754
v -0.017323673 1.0124878 0.15690976
v -0.0796535 1.008262 0.6512884
v -0.017323673 1.0124878 0.15690976
v 0.009939253 1.0124878 0.15834105
v 0.0040436387 1.008262 0.65708184
v -0.0796535 1.008262 0.6512884
v -0.18969339 0.7427895 0.5283327
v 0.0040436387 1.008262 0.65708184
v 0.009939253 1.0124878 0.15834105
v -0.011121333 0.78658056 0.17217696
v 0.17017695 0.7875689 0.16570204
v 0.14448166 1.0302428 0.13877988
v 0.20156339 1.0302428 7.9870224E-05
v 0.2425259 0.7875689 7.9870224E-05
v 0.1381771 1.0302428 -0.13664359
v 0.1661216 0.7875689 -0.16458806
v 0.0015218258 1.0302428 -0.20006391
v 0.0015218258 0.7875689 -0.24099237
v 0.0015218258 0.7875689 -0.24099237
v 0.0015218258 1.0302428 -0.20006391
v -0.13509941 1.0302428 -0.13664359
v -0.16307795 0.7875689 -0.16458806
v -0.20482427 1.0302428 7.9870224E-05
v -0.25454503 0.7875689 7.9870224E-05
v -0.13390666 1.0302428 0.1383369
v -0.1658724 0.7875689 0.16570204
v 0.0015218258 1.0302428 0.20005327
v 0.0015218258 0.7875689 0.2409817
v 0.0015218258 0.7875689 0.2409817
v 0.0015218258 1.0302428 0.20005327
v -1.1742115E-05 1.5771027 1.1742115E-05
v 0.19495213 1.3862281 1.1742115E-05
v 0.13316756 1.3862281 0.13315696
v 0.13316756 1.3862281 -0.13316756
v -1.1742115E-05 1.3862281 -0.19495213
v -0.13315696 1.3862281 -0.13316756
v -0.19494146 1.3862281 1.1742115E-05
v -0.13315696 1.3862281 0.13315696
v -1.1742115E-05 1.3862281 0.19494146
v 0.1878297 1.0280617 0.18781906
v 0.14448166 1.0302428 0.13877988
v 0.0015218258 1.0302428 0.20005327
v -1.1742115E-05 1.0280617 0.27499217
v 0.27496874 1.0280617 1.1742115E-05
v 0.20156339 1.0302428 7.9870224E-05
v 0.1878297 1.0280617 -0.1878297
v 0.1381771 1.0302428 -0.13664359
v -1.1742115E-05 1.0280617 -0.27496874
v 0.0015218258 1.0302428 -0.20006391
v -0.18781906 1.0280617 -0.1878297
v -0.13509941 1.0302428 -0.13664359
v -0.27499217 1.0280617 1.1742115E-05
v -0.20482427 1.0302428 7.9870224E-05
v -0.18781906 1.0280617 0.18781906
v -0.13390666 1.0302428 0.1383369
v 0.27496874 1.0280617 1.1742115E-05
v 0.1878297 1.0280617 0.18781906
v 0.1878297 1.0280617 -0.1878297
v -1.1742115E-05 1.0280617 -0.27496874
v -0.18781906 1.0280617 -0.1878297
v -0.27499217 1.0280617 1.1742115E-05
v -0.18781906 1.0280617 0.18781906
v -1.1742115E-05 1.0280617 0.27499217
vt 0.6411142 0.857331
vt 0.6415904 0.8537591
vt 0.6399236 0.8537591
vt 0.6401617 0.8575691
vt 0.6463529 0.8697134
vt 0.64873415 0.8656653
vt 0.6480198 0.8654272
vt 0.64611477 0.8694753
vt 0.6480198 0.8654272
vt 0.6439717 0.8654272
vt 0.6439717 0.86899906
vt 0.64611477 0.8694753
vt 0.6399236 0.8537591
vt 0.6365898 0.8537591
vt 0.63825667 0.85804534
vt 0.6401617 0.8575691
vt 0.6365898 0.8537591
vt 0.63825667 0.85804534
vt 0.6401617 0.8575691
vt 0.6399236 0.8537591
vt 0.6463529 0.8697134
vt 0.64873415 0.8656653
vt 0.6480198 0.8654272
vt 0.64611477 0.8694753
vt 0.6480198 0.8654272
vt 0.6439717 0.8654272
vt 0.6439717 0.86899906
vt 0.64611477 0.8694753
vt 0.6401617 0.8575691
vt 0.6411142 0.857331
vt 0.6415904 0.8537591
vt 0.6399236 0.8537591
vt 0.6365898 0.8537591
vt 0.63825667 0.85804534
vt 0.6401617 0.8575691
vt 0.6399236 0.8537591
vt 0.6463529 0.8697134
vt 0.64873415 0.8656653
vt 0.6480198 0.8654272
vt 0.64611477 0.8694753
vt 0.6480198 0.8654272
vt 0.6439717 0.8654272
vt 0.6439717 0.86899906
vt 0.64611477 0.8694753
vt 0.6401617 0.8575691
vt 0.6411142 0.857331
vt 0.6415904 0.8537591
vt 0.6399236 0.8537591
vt 0.6365898 0.8537591
vt 0.63825667 0.85804534
vt 0.6401617 0.8575691
vt 0.6399236 0.8537591
vt 0.6439717 0.8654272
vt 0.6439717 0.86899906
vt 0.64611477 0.8694753
vt 0.6480198 0.8654272
vt 0.64611477 0.8694753
vt 0.6463529 0.8697134
vt 0.64873415 0.8656653
vt 0.6480198 0.8654272
vt 0.6401617 0.8575691
vt 0.6411142 0.857331
vt 0.6415904 0.8537591
vt 0.6399236 0.8537591
vt 0.6411142 0.857331
vt 0.6415904 0.8537591
vt 0.6399236 0.8537591
vt 0.6401617 0.8575691
vt 0.6439717 0.8654272
vt 0.6439717 0.86899906
vt 0.64611477 0.8694753
vt 0.6480198 0.8654272
vt 0.64611477 0.8694753
vt 0.6463529 0.8697134
vt 0.64873415 0.8656653
vt 0.6480198 0.8654272
vt 0.6399236 0.8537591
vt 0.6365898 0.8537591
vt 0.63825667 0.85804534
vt 0.6401617 0.8575691
vt 0.6411142 0.857331
vt 0.6415904 0.8537591
vt 0.6399236 0.8537591
vt 0.6401617 0.8575691
vt 0.6439717 0.8654272
vt 0.6439717 0.86899906
vt 0.64611477 0.8694753
vt 0.6480198 0.8654272
vt 0.64611477 0.8694753
vt 0.6463529 0.8697134
vt 0.64873415 0.8656653
vt 0.6480198 0.8654272
vt 0.6399236 0.8537591
vt 0.6365898 0.8537591
vt 0.63825667 0.85804534
vt 0.6401617 0.8575691
vt 0.6411142 0.857331
vt 0.6415904 0.8537591
vt 0.6399236 0.8537591
vt 0.6401617 0.8575691
vt 0.6439717 0.8654272
vt 0.6439717 0.86899906
vt 0.64611477 0.8694753
vt 0.6480198 0.8654272
vt 0.64611477 0.8694753
vt 0.6463529 0.8697134
vt 0.64873415 0.8656653
vt 0.6480198 0.8654272
vt 0.6399236 0.8537591
vt 0.6365898 0.8537591
vt 0.63825667 0.85804534
vt 0.6401617 0.8575691
vt 0.6308748 0.8556641
vt 0.6308748 0.85328287
vt 0.62920797 0.85328287
vt 0.62920797 0.8556641
vt 0.6277792 0.85328287
vt 0.6277792 0.8556641
vt 0.62611234 0.85328287
vt 0.62611234 0.8556641
vt 0.62611234 0.85328287
vt 0.62611234 0.8556641
vt 0.6277792 0.8556641
vt 0.6277792 0.85328287
vt 0.62920797 0.8556641
vt 0.62920797 0.85328287
vt 0.6308748 0.8556641
vt 0.6308748 0.85328287
vt 0.6325417 0.8556641
vt 0.6325417 0.85328287
vt 0.6325417 0.8556641
vt 0.6325417 0.85328287
vt 0.6442098 0.86447465
vt 0.6442098 0.86209345
vt 0.6454004 0.86233157
vt 0.64301914 0.86233157
vt 0.64206666 0.86304593
vt 0.64301914 0.86233157
vt 0.6442098 0.86209345
vt 0.6454004 0.86233157
vt 0.646591 0.86304593
vt 0.65373474 0.853521
vt 0.6534966 0.85399723
vt 0.6546872 0.8549497
vt 0.65540165 0.8547116
vt 0.6518298 0.8537591
vt 0.6520679 0.85423535
vt 0.6506391 0.85518783
vt 0.65135354 0.85542595
vt 0.65087724 0.85709286
vt 0.65135354 0.8568547
vt 0.652306 0.85828346
vt 0.65254414 0.8575691
vt 0.654211 0.85804534
vt 0.65397286 0.8575691
vt 0.65540165 0.8566166
vt 0.6546872 0.85637844
vt 0.6442098 0.8587597
vt 0.6463529 0.8589978
vt 0.6423048 0.8589978
vt 0.6403998 0.8597122
vt 0.6423048 0.8589978
vt 0.6442098 0.8587597
vt 0.6463529 0.8589978
vt 0.6482579 0.8597122
vn -0.04333216 -0.99174374 -0.12069242
vn -0.04333216 -0.99174374 -0.12069242
vn -0.04333216 -0.99174374 -0.12069242
vn -0.04333216 -0.99174374 -0.12069242
vn -0.63144344 0.65496784 0.41508585
vn -0.63144344 0.65496784 0.41508585
vn -0.63144344 0.65496784 0.41508585
vn -0.63144344 0.65496784 0.41508585
vn 0.0037167668 0.99999315 -0
vn 0.0037167668 0.99999315 -0
vn 0.0037167668 0.99999315 -0
vn 0.0037167668 0.99999315 -0
vn 0.68592584 -0.4349984 -0.58333707
vn 0.68592584 -0.4349984 -0.58333707
vn 0.68592584 -0.4349984 -0.58333707
vn 0.68592584 -0.4349984 -0.58333707
vn -0.10606402 -0.99174374 -0.07207443
vn -0.10606402 -0.99174374 -0.07207443
vn -0.10606402 -0.99174374 -0.07207443
vn -0.10606402 -0.99174374 -0.07207443
vn -0.06685656 0.6706508 0.73875415
vn -0.06685656 0.6706508 0.73875415
vn -0.06685656 0.6706508 0.73875415
vn -0.06685656 0.6706508 0.73875415
vn 0.011557542 0.9999332 -0
vn 0.011557542 0.9999332 -0
vn 0.011557542 0.9999332 -0
vn 0.011557542 0.9999332 -0
vn -0.019807637 -0.45852286 -0.8884618
vn -0.019807637 -0.45852286 -0.8884618
vn -0.019807637 -0.45852286 -0.8884618
vn -0.019807637 -0.45852286 -0.8884618
vn -0.09038097 -0.99174374 0.09097048
vn -0.09038097 -0.99174374 0.09097048
vn -0.09038097 -0.99174374 0.09097048
vn -0.09038097 -0.99174374 0.09097048
vn 0.5212547 0.67849225 0.51763093
vn 0.5212547 0.67849225 0.51763093
vn 0.5212547 0.67849225 0.51763093
vn 0.5212547 0.67849225 0.51763093
vn 0.0037167668 0.99999315 -0
vn 0.0037167668 0.99999315 -0
vn 0.0037167668 0.99999315 -0
vn 0.0037167668 0.99999315 -0
vn -0.6941753 -0.48204726 -0.5345569
vn -0.6941753 -0.48204726 -0.5345569
vn -0.6941753 -0.48204726 -0.5345569
vn -0.6941753 -0.48204726 -0.5345569
vn -0.011966169 -0.99174374 0.12767598
vn -0.011966169 -0.99174374 0.12767598
vn -0.011966169 -0.99174374 0.12767598
vn -0.011966169 -0.99174374 0.12767598
vn 0.7251333 0.67849225 -0.11760092
vn 0.7251333 0.67849225 -0.11760092
vn 0.7251333 0.67849225 -0.11760092
vn 0.7251333 0.67849225 -0.11760092
vn -0.004124694 0.9999915 -0
vn -0.004124694 0.9999915 -0
vn -0.004124694 0.9999915 -0
vn -0.004124694 0.9999915 -0
vn -0.8510049 -0.48204726 0.20837739
vn -0.8510049 -0.48204726 0.20837739
vn -0.8510049 -0.48204726 0.20837739
vn -0.8510049 -0.48204726 0.20837739
vn 0.082131624 -0.99174374 0.09848222
vn 0.082131624 -0.99174374 0.09848222
vn 0.082131624 -0.99174374 0.09848222
vn 0.082131624 -0.99174374 0.09848222
vn 0.395791 0.6706508 -0.6273571
vn 0.395791 0.6706508 -0.6273571
vn 0.395791 0.6706508 -0.6273571
vn 0.395791 0.6706508 -0.6273571
vn -0.004124694 0.9999915 -0
vn -0.004124694 0.9999915 -0
vn -0.004124694 0.9999915 -0
vn -0.004124694 0.9999915 -0
vn -0.38051587 -0.46636432 0.7985687
vn -0.38051587 -0.46636432 0.7985687
vn -0.38051587 -0.46636432 0.7985687
vn -0.38051587 -0.46636432 0.7985687
vn 0.113497555 -0.99174374 -0.059687763
vn 0.113497555 -0.99174374 -0.059687763
vn 0.113497555 -0.99174374 -0.059687763
vn 0.113497555 -0.99174374 -0.059687763
vn -0.23936921 0.65496784 -0.7167422
vn -0.23936921 0.65496784 -0.7167422
vn -0.23936921 0.65496784 -0.7167422
vn -0.23936921 0.65496784 -0.7167422
vn -0.004124694 0.9999915 -0
vn -0.004124694 0.9999915 -0
vn -0.004124694 0.9999915 -0
vn -0.004124694 0.9999915 -0
vn 0.380108 -0.44283986 0.8120411
vn 0.380108 -0.44283986 0.8120411
vn 0.380108 -0.44283986 0.8120411
vn 0.380108 -0.44283986 0.8120411
vn 0.050765693 -0.99174374 -0.11775907
vn 0.050765693 -0.99174374 -0.11775907
vn 0.050765693 -0.99174374 -0.11775907
vn 0.050765693 -0.99174374 -0.11775907
vn -0.7255412 0.6471264 -0.2341313
vn -0.7255412 0.6471264 -0.2341313
vn -0.7255412 0.6471264 -0.2341313
vn -0.7255412 0.6471264 -0.2341313
vn -0.004124694 0.9999915 -0
vn -0.004124694 0.9999915 -0
vn -0.004124694 0.9999915 -0
vn -0.004124694 0.9999915 -0
vn 0.8898044 -0.42715693 0.16057722
vn 0.8898044 -0.42715693 0.16057722
vn 0.8898044 -0.42715693 0.16057722
vn 0.8898044 -0.42715693 0.16057722
vn 0.6937673 0.16095442 0.70198333
vn 0.70160884 0.16095442 0.69414604
vn 0.9839022 0.16095442 -0.07765361
vn 0.9839022 0.16095442 -0.07765361
vn 0.70160884 0.16095442 -0.69414604
vn 0.70160884 0.16095442 -0.69414604
vn 0.0037167668 0.16879588 -0.98564404
vn 0.0037167668 0.16879588 -0.98564404
vn 0.0037167668 0.16879588 -0.98564404
vn 0.0037167668 0.16879588 -0.98564404
vn -0.67849225 0.16879588 -0.71495193
vn -0.67849225 0.16879588 -0.71495193
vn -0.9814419 0.19175987 -0
vn -0.9814419 0.19175987 -0
vn -0.67849225 0.16879588 0.71495193
vn -0.68633384 0.16879588 0.7074276
vn -0.004124701 0.16095442 0.98695326
vn -0.004124701 0.16095442 0.98695326
vn -0.004124701 0.16095442 0.98695326
vn -0.004124701 0.16095442 0.98695326
vn 0.0037167668 0.99999315 -0
vn 0.9446948 0.317784 -0.08102481
vn 0.6702429 0.317784 0.6706622
vn 0.6702429 0.317784 -0.6706622
vn 0.0037167668 0.317784 -0.9481558
vn -0.6706508 0.317784 -0.67025435
vn -0.94510275 0.317784 -0.07611894
vn -0.6706508 0.317784 0.67025435
vn 0.0037167668 0.317784 0.9481558
vn -0.019807637 -0.9995852 -0.020906478
vn -0.019807637 -0.9995852 -0.020906478
vn 0.0037167668 -0.9995852 -0.028558193
vn 0.0037167668 -0.9995852 -0.028558193
vn -0.027649105 -0.9995852 0.008056641
vn -0.027649105 -0.9995852 0.008056641
vn -0.019807637 -0.9995852 0.020906478
vn -0.019807637 -0.9995852 0.020906478
vn 0.0037167668 -0.9995852 0.028558193
vn 0.0037167668 -0.9995852 0.028558193
vn 0.019399762 -0.9995852 0.021285087
vn 0.019399762 -0.9995852 0.021285087
vn 0.02724123 -0.9995852 -0.00934456
vn 0.02724123 -0.9995852 -0.00934456
vn 0.019399762 -0.9995852 -0.021285087
vn 0.019399762 -0.9995852 -0.021285087
vn 0.97606075 0.21584481 -0.026766056
vn 0.6937673 0.20800322 0.6895082
vn 0.6937673 0.20800322 -0.6895082
vn 0.0037167668 0.21584481 -0.97642064
vn -0.6941753 0.20800322 -0.68909746
vn -0.97642964 0.21583617 -0
vn -0.6941753 0.20800322 0.68909746
vn 0.0037167668 0.21584481 0.97642064
g AbilityDron_04_CorpsePart_0
f 3/3/3 2/2/2 1/1/1
f 4/4/4 3/3/3 1/1/1
f 7/7/7 6/6/6 5/5/5
f 8/8/8 7/7/7 5/5/5
f 11/11/11 10/10/10 9/9/9
f 12/12/12 11/11/11 9/9/9
f 15/15/15 14/14/14 13/13/13
f 16/16/16 15/15/15 13/13/13
f 19/19/19 18/18/18 17/17/17
f 20/20/20 19/19/19 17/17/17
f 23/23/23 22/22/22 21/21/21
f 24/24/24 23/23/23 21/21/21
f 27/27/27 26/26/26 25/25/25
f 28/28/28 27/27/27 25/25/25
f 31/31/31 30/30/30 29/29/29
f 32/32/32 31/31/31 29/29/29
f 35/35/35 34/34/34 33/33/33
f 36/36/36 35/35/35 33/33/33
f 39/39/39 38/38/38 37/37/37
f 40/40/40 39/39/39 37/37/37
f 43/43/43 42/42/42 41/41/41
f 44/44/44 43/43/43 41/41/41
f 47/47/47 46/46/46 45/45/45
f 48/48/48 47/47/47 45/45/45
f 51/51/51 50/50/50 49/49/49
f 52/52/52 51/51/51 49/49/49
f 55/55/55 54/54/54 53/53/53
f 56/56/56 55/55/55 53/53/53
f 59/59/59 58/58/58 57/57/57
f 60/60/60 59/59/59 57/57/57
f 63/63/63 62/62/62 61/61/61
f 64/64/64 63/63/63 61/61/61
f 67/67/67 66/66/66 65/65/65
f 68/68/68 67/67/67 65/65/65
f 71/71/71 70/70/70 69/69/69
f 72/72/72 71/71/71 69/69/69
f 75/75/75 74/74/74 73/73/73
f 76/76/76 75/75/75 73/73/73
f 79/79/79 78/78/78 77/77/77
f 80/80/80 79/79/79 77/77/77
f 83/83/83 82/82/82 81/81/81
f 84/84/84 83/83/83 81/81/81
f 87/87/87 86/86/86 85/85/85
f 88/88/88 87/87/87 85/85/85
f 91/91/91 90/90/90 89/89/89
f 92/92/92 91/91/91 89/89/89
f 95/95/95 94/94/94 93/93/93
f 96/96/96 95/95/95 93/93/93
f 99/99/99 98/98/98 97/97/97
f 100/100/100 99/99/99 97/97/97
f 103/103/103 102/102/102 101/101/101
f 104/104/104 103/103/103 101/101/101
f 107/107/107 106/106/106 105/105/105
f 108/108/108 107/107/107 105/105/105
f 111/111/111 110/110/110 109/109/109
f 112/112/112 111/111/111 109/109/109
f 115/115/115 114/114/114 113/113/113
f 116/116/116 115/115/115 113/113/113
f 117/117/117 115/115/115 116/116/116
f 118/118/118 117/117/117 116/116/116
f 119/119/119 117/117/117 118/118/118
f 120/120/120 119/119/119 118/118/118
f 123/123/123 122/122/122 121/121/121
f 124/124/124 123/123/123 121/121/121
f 125/125/125 123/123/123 124/124/124
f 126/126/126 125/125/125 124/124/124
f 127/127/127 125/125/125 126/126/126
f 128/128/128 127/127/127 126/126/126
f 129/129/129 127/127/127 128/128/128
f 130/130/130 129/129/129 128/128/128
f 114/114/114 132/132/132 131/131/131
f 113/113/113 114/114/114 131/131/131
f 135/135/135 134/134/134 133/133/133
f 134/134/134 136/136/136 133/133/133
f 136/136/136 137/137/137 133/133/133
f 137/137/137 138/138/138 133/133/133
f 138/138/138 139/139/139 133/133/133
f 139/139/139 140/140/140 133/133/133
f 140/140/140 141/141/141 133/133/133
f 141/141/141 135/135/135 133/133/133
f 144/144/144 143/143/143 142/142/142
f 145/145/145 144/144/144 142/142/142
f 143/143/143 147/147/147 146/146/146
f 142/142/142 143/143/143 146/146/146
f 147/147/147 149/149/149 148/148/148
f 146/146/146 147/147/147 148/148/148
f 149/149/149 151/151/151 150/150/150
f 148/148/148 149/149/149 150/150/150
f 151/151/151 153/153/153 152/152/152
f 150/150/150 151/151/151 152/152/152
f 153/153/153 155/155/155 154/154/154
f 152/152/152 153/153/153 154/154/154
f 155/155/155 157/157/157 156/156/156
f 154/154/154 155/155/155 156/156/156
f 157/157/157 144/144/144 145/145/145
f 156/156/156 157/157/157 145/145/145
f 159/159/159 158/158/158 134/134/134
f 135/135/135 159/159/159 134/134/134
f 158/158/158 160/160/160 136/136/136
f 134/134/134 158/158/158 136/136/136
f 160/160/160 161/161/161 137/137/137
f 136/136/136 160/160/160 137/137/137
f 161/161/161 162/162/162 138/138/138
f 137/137/137 161/161/161 138/138/138
f 162/162/162 163/163/163 139/139/139
f 138/138/138 162/162/162 139/139/139
f 163/163/163 164/164/164 140/140/140
f 139/139/139 163/163/163 140/140/140
f 164/164/164 165/165/165 141/141/141
f 140/140/140 164/164/164 141/141/141
f 141/141/141 165/165/165 159/159/159
f 135/135/135 141/141/141 159/159/159
