g AbilityDron_01_DefaultPart
v 0.3491516 0.71230626 0.25116628
v 0.29637012 0.2639671 0.21319765
v 0.2128876 0.2639671 0.27930027
v 0.25080425 0.71230626 0.32906365
v -0.21288544 0.2639671 0.27930027
v -0.25080204 0.71230626 0.32906365
v 0.3491516 0.71230626 -0.2511685
v 0.29637012 0.2639671 -0.21318246
v 0.25080425 0.71230626 -0.3290485
v 0.2128876 0.2639671 -0.27930242
v -0.25080204 0.71230626 -0.3290485
v -0.21288544 0.2639671 -0.27930242
v -0.3491494 0.71230626 -0.2511685
v -0.29636794 0.2639671 -0.21318246
v -0.3491494 0.71230626 0.25116628
v -0.29636794 0.2639671 0.21319765
v -0.29636794 0.2639671 -0.21318246
v -0.3491494 0.71230626 -0.2511685
v 0.25080425 0.71230626 0.32906365
v 0.17018367 0.78756714 0.16570646
v 0.3491516 0.71230626 0.25116628
v 0.24253057 0.78756714 7.69496E-05
v 0.1661249 0.78756714 -0.16459851
v 0.3491516 0.71230626 -0.2511685
v 0.25080425 0.71230626 -0.3290485
v 0.0015361309 0.78756714 -0.2410042
v -0.16306996 0.78756714 -0.16459851
v -0.25080204 0.71230626 -0.3290485
v -0.3491494 0.71230626 -0.2511685
v -0.25453126 0.78756714 7.69496E-05
v -0.1658799 0.78756714 0.16570646
v -0.3491494 0.71230626 0.25116628
v -0.25080204 0.71230626 0.32906365
v 0.0015361309 0.78756714 0.24100202
v 0.15360165 0.10990688 0.20152432
v -7.56979E-06 0.0052978694 7.56979E-06
v -0.15359944 0.10990688 0.20154166
v 0.21384159 0.10990688 0.15382499
v 0.21384159 0.10990688 -0.15382713
v 0.15360165 0.10990688 -0.20152648
v -0.15359944 0.10990688 -0.20152648
v -0.21383941 0.10990688 -0.15382713
v -0.21383941 0.10990688 0.15382499
v 0.15360165 0.10990688 0.20152432
v 0.21384159 0.10990688 0.15382499
v 0.21384159 0.10990688 -0.15382713
v 0.15360165 0.10990688 -0.20152648
v -0.15359944 0.10990688 -0.20152648
v -0.21383941 0.10990688 -0.15382713
v -0.21383941 0.10990688 0.15382499
v -0.21383941 0.10990688 -0.15382713
v -0.15359944 0.10990688 0.20154166
vt 0.6357229 0.8509182
vt 0.6357229 0.8467845
vt 0.63475025 0.8467845
vt 0.63475025 0.8509182
vt 0.6308597 0.8467845
vt 0.6308597 0.8509182
vt 0.6396134 0.8509182
vt 0.6396134 0.8467845
vt 0.6403429 0.8509182
vt 0.6403429 0.8467845
vt 0.6442334 0.8509182
vt 0.6442334 0.8467845
vt 0.64520603 0.8509182
vt 0.64520603 0.8467845
vt 0.62988704 0.8509182
vt 0.62988704 0.8467845
vt 0.62599653 0.8467845
vt 0.62599653 0.8509182
vt 0.6537166 0.8684256
vt 0.6529871 0.8701277
vt 0.65468925 0.86915505
vt 0.65347344 0.8715866
vt 0.6529871 0.87304556
vt 0.65468925 0.8740182
vt 0.6537166 0.8747477
vt 0.651285 0.87377506
vt 0.64982605 0.87304556
vt 0.6490966 0.8747477
vt 0.648124 0.87377506
vt 0.6490966 0.8715866
vt 0.64982605 0.8701277
vt 0.648124 0.86915505
vt 0.6490966 0.8684256
vt 0.6515282 0.86939824
vt 0.646665 0.8577266
vt 0.64520603 0.8555382
vt 0.6437471 0.8577266
vt 0.6473945 0.8572403
vt 0.6473945 0.85407925
vt 0.646665 0.8535929
vt 0.6437471 0.8535929
vt 0.64301765 0.85407925
vt 0.64301765 0.8572403
vt 0.63475025 0.84508234
vt 0.6357229 0.84508234
vt 0.6396134 0.84508234
vt 0.6403429 0.84508234
vt 0.6442334 0.84508234
vt 0.64520603 0.84508234
vt 0.62988704 0.84508234
vt 0.62599653 0.84508234
vt 0.6308597 0.84508234
vn 0.976742 -0.13170141 0.16920334
vn 0.96123666 -0.20922804 0.17957658
vn 0.12394875 -0.19372272 0.97319484
vn 0.13170141 -0.12394875 0.9835098
vn -0.12413657 -0.19372272 0.9731709
vn -0.13188922 -0.12394875 0.98348457
vn 0.976742 -0.13170141 -0.16920334
vn 0.96123666 -0.20922804 -0.17957658
vn 0.13170141 -0.12394875 -0.9835098
vn 0.12394875 -0.19372272 -0.97319484
vn -0.13188922 -0.12394875 -0.98348457
vn -0.12413657 -0.19372272 -0.9731709
vn -0.9769299 -0.13170141 -0.16811521
vn -0.96142447 -0.20922804 -0.1785682
vn -0.9769299 -0.13170141 0.16811521
vn -0.96142447 -0.20922804 0.1785682
vn -0.96142447 -0.20922804 -0.1785682
vn -0.9769299 -0.13170141 -0.16811521
vn 0.14720672 0.89165056 0.4281232
vn 0.24799138 0.9381665 0.2415448
vn 0.39529204 0.9071559 0.14426522
vn 0.5018386 0.8649613 -0
vn 0.24023873 0.9381665 -0.24925682
vn 0.39529204 0.9071559 -0.14426522
vn 0.14720672 0.89165056 -0.4281232
vn -9.393692E-05 0.8218765 -0.5696657
vn -0.23267388 0.9381665 -0.25633278
vn -0.14739454 0.89165056 -0.4280585
vn -0.38772726 0.9071559 -0.1635108
vn -0.51952255 0.85288715 -0.051767025
vn -0.23267388 0.9381665 0.25633278
vn -0.39547992 0.9071559 0.14374928
vn -0.14739454 0.89165056 0.4280585
vn -9.393692E-05 0.8218765 0.5696657
vn 0.092938066 -0.6123667 0.7850921
vn -9.393692E-05 -1 -0
vn -0.09312594 -0.6123667 0.7850699
vn 0.75966734 -0.6356247 0.13742927
vn 0.75966734 -0.6356247 -0.13742927
vn 0.092938066 -0.6123667 -0.7850921
vn -0.09312594 -0.6123667 -0.7850699
vn -0.75985515 -0.6356247 -0.13638702
vn -0.75985515 -0.6356247 0.13638702
vn 0.092938066 -0.6123667 0.7850921
vn 0.75966734 -0.6356247 0.13742927
vn 0.75966734 -0.6356247 -0.13742927
vn 0.092938066 -0.6123667 -0.7850921
vn -0.09312594 -0.6123667 -0.7850699
vn -0.75985515 -0.6356247 -0.13638702
vn -0.75985515 -0.6356247 0.13638702
vn -0.75985515 -0.6356247 -0.13638702
vn -0.09312594 -0.6123667 0.7850699
g AbilityDron_01_DefaultPart_0
f 3/3/3 2/2/2 1/1/1
f 4/4/4 3/3/3 1/1/1
f 6/6/6 5/5/5 3/3/3
f 4/4/4 6/6/6 3/3/3
f 2/2/2 8/8/8 7/7/7
f 1/1/1 2/2/2 7/7/7
f 8/8/8 10/10/10 9/9/9
f 7/7/7 8/8/8 9/9/9
f 10/10/10 12/12/12 11/11/11
f 9/9/9 10/10/10 11/11/11
f 12/12/12 14/14/14 13/13/13
f 11/11/11 12/12/12 13/13/13
f 17/17/17 16/16/16 15/15/15
f 18/18/18 17/17/17 15/15/15
f 16/16/16 5/5/5 6/6/6
f 15/15/15 16/16/16 6/6/6
f 21/21/21 20/20/20 19/19/19
f 24/24/24 23/23/23 22/22/22
f 25/25/25 23/23/23 24/24/24
f 28/28/28 27/27/27 26/26/26
f 29/29/29 27/27/27 28/28/28
f 32/32/32 31/31/31 30/30/30
f 33/33/33 31/31/31 32/32/32
f 19/19/19 20/20/20 34/34/34
f 37/37/37 36/36/36 35/35/35
f 35/35/35 36/36/36 38/38/38
f 38/38/38 36/36/36 39/39/39
f 39/39/39 36/36/36 40/40/40
f 40/40/40 36/36/36 41/41/41
f 41/41/41 36/36/36 42/42/42
f 42/42/42 36/36/36 43/43/43
f 43/43/43 36/36/36 37/37/37
f 2/2/2 3/3/3 44/44/44
f 45/45/45 2/2/2 44/44/44
f 45/45/45 46/46/46 8/8/8
f 2/2/2 45/45/45 8/8/8
f 10/10/10 8/8/8 46/46/46
f 47/47/47 10/10/10 46/46/46
f 47/47/47 48/48/48 12/12/12
f 10/10/10 47/47/47 12/12/12
f 14/14/14 12/12/12 48/48/48
f 49/49/49 14/14/14 48/48/48
f 51/51/51 50/50/50 16/16/16
f 17/17/17 51/51/51 16/16/16
f 5/5/5 16/16/16 50/50/50
f 52/52/52 5/5/5 50/50/50
f 52/52/52 44/44/44 3/3/3
f 5/5/5 52/52/52 3/3/3
f 31/31/31 33/33/33 34/34/34
f 33/33/33 19/19/19 34/34/34
f 29/29/29 32/32/32 30/30/30
f 27/27/27 29/29/29 30/30/30
f 23/23/23 25/25/25 26/26/26
f 25/25/25 28/28/28 26/26/26
f 20/20/20 21/21/21 22/22/22
f 21/21/21 24/24/24 22/22/22
