g AbilityDron_02_DefaultPart_CorpsePart
v 0.44999543 0.6881614 0.45000196
v 0.38061398 0.7050903 0.38062048
v 0.20597798 0.7050903 0.49729526
v 0.24354395 0.6881614 0.5879587
v 0.5879522 0.6881614 0.24355042
v 0.49728876 0.7050903 0.20598447
v 0.636401 0.6881614 -1.0192394E-05
v 0.5382674 0.7050903 -1.0192394E-05
v 0.5879522 0.6881614 -0.24354395
v 0.49728876 0.7050903 -0.20597798
v 0.44999543 0.6881614 -0.44999543
v 0.38061398 0.7050903 -0.38061398
v 0.24354395 0.6881614 -0.5879522
v 0.20597798 0.7050903 -0.49728876
v 1.0192394E-05 0.6881614 -0.636401
v 1.0192394E-05 0.7050903 -0.5382674
v -0.24352354 0.6881614 -0.5879522
v -0.20598447 0.7050903 -0.49728876
v -0.45000196 0.6881614 -0.44999543
v -0.38062048 0.7050903 -0.38061398
v -0.5879587 0.6881614 -0.24354395
v -0.49729526 0.7050903 -0.20597798
v -0.63638055 0.6881614 -1.0192394E-05
v -0.5382738 0.7050903 -1.0192394E-05
v -0.5879587 0.6881614 0.24352354
v -0.49729526 0.7050903 0.20598447
v -0.45000196 0.6881614 0.45000196
v -0.38062048 0.7050903 0.38062048
v -0.24352354 0.6881614 0.5879587
v -0.20598447 0.7050903 0.49729526
v 1.0192394E-05 0.6881614 0.63638055
v 1.0192394E-05 0.7050903 0.538247
v 1.0192394E-05 0.7050903 -0.5382674
v 1.0192394E-05 1.0441512 -0.63298833
v 0.24222726 1.0441512 -0.5848083
v 0.20597798 0.7050903 -0.49728876
v 0.38061398 0.7050903 -0.38061398
v 0.44757703 1.0441512 -0.44757703
v 0.5848083 1.0441512 -0.24222726
v 0.49728876 0.7050903 -0.20597798
v 0.5382674 0.7050903 -1.0192394E-05
v 0.63298833 1.0441512 -1.0192394E-05
v 0.5848083 1.0441512 0.24223375
v 0.49728876 0.7050903 0.20598447
v 0.38061398 0.7050903 0.38062048
v 0.44757703 1.0441512 0.44758356
v 0.24222726 1.0441512 0.58478785
v 0.20597798 0.7050903 0.49729526
v 1.0192394E-05 0.7050903 0.538247
v 1.0192394E-05 1.0441512 0.6329948
v -0.24223375 1.0441512 0.58478785
v -0.20598447 0.7050903 0.49729526
v -0.38062048 0.7050903 -0.38061398
v -0.44758356 1.0441512 -0.44757703
v -0.24223375 1.0441512 -0.5848083
v -0.20598447 0.7050903 -0.49728876
v -0.5382738 0.7050903 -1.0192394E-05
v -0.63296795 1.0441512 -1.0192394E-05
v -0.58478785 1.0441512 -0.24222726
v -0.49729526 0.7050903 -0.20597798
v -0.38062048 0.7050903 0.38062048
v -0.44758356 1.0441512 0.44758356
v -0.58478785 1.0441512 0.24223375
v -0.49729526 0.7050903 0.20598447
v 1.0192394E-05 1.0441512 0.6329948
v 1.0192394E-05 0.7050903 0.538247
v 1.0192394E-05 0.7050903 -0.5382674
v 1.0192394E-05 1.0441512 -0.63298833
v 1.0192394E-05 1.0122551 0.7168598
v 1.0192394E-05 1.0441512 0.6329948
v 0.24222726 1.0441512 0.58478785
v 0.27431148 1.0122551 0.6622845
v 0.44757703 1.0441512 0.44758356
v 0.5068818 1.0122551 0.5068883
v 0.5848083 1.0441512 0.24223375
v 0.66227794 1.0122551 0.27431798
v 0.63298833 1.0441512 -1.0192394E-05
v 0.7168534 1.0122551 -1.0192394E-05
v 0.5848083 1.0441512 -0.24222726
v 0.66227794 1.0122551 -0.27431148
v 0.44757703 1.0441512 -0.44757703
v 0.5068818 1.0122551 -0.5068818
v 0.24222726 1.0441512 -0.5848083
v 0.27431148 1.0122551 -0.66227794
v 1.0192394E-05 1.0441512 -0.63298833
v 1.0192394E-05 1.0122551 -0.7168534
v -0.24223375 1.0441512 -0.5848083
v -0.27431798 1.0122551 -0.66227794
v -0.44758356 1.0441512 -0.44757703
v -0.5068883 1.0122551 -0.5068818
v -0.58478785 1.0441512 -0.24222726
v -0.6622845 1.0122551 -0.27431148
v -0.63296795 1.0441512 -1.0192394E-05
v -0.7168598 1.0122551 -1.0192394E-05
v -0.58478785 1.0441512 0.24223375
v -0.6622845 1.0122551 0.27431798
v -0.44758356 1.0441512 0.44758356
v -0.5068883 1.0122551 0.5068883
v -0.24223375 1.0441512 0.58478785
v -0.27431798 1.0122551 0.6622845
v 0.24354395 0.6881614 0.5879587
v 0.27431148 1.0122551 0.6622845
v 0.5068818 1.0122551 0.5068883
v 0.44999543 0.6881614 0.45000196
v 0.66227794 1.0122551 0.27431798
v 0.5879522 0.6881614 0.24355042
v 0.7168534 1.0122551 -1.0192394E-05
v 0.636401 0.6881614 -1.0192394E-05
v 0.66227794 1.0122551 -0.27431148
v 0.5879522 0.6881614 -0.24354395
v 0.5068818 1.0122551 -0.5068818
v 0.44999543 0.6881614 -0.44999543
v 0.27431148 1.0122551 -0.66227794
v 0.24354395 0.6881614 -0.5879522
v 1.0192394E-05 1.0122551 -0.7168534
v 1.0192394E-05 0.6881614 -0.636401
v 1.0192394E-05 0.6881614 -0.636401
v 1.0192394E-05 1.0122551 -0.7168534
v -0.27431798 1.0122551 -0.66227794
v -0.24352354 0.6881614 -0.5879522
v -0.5068883 1.0122551 -0.5068818
v -0.45000196 0.6881614 -0.44999543
v -0.6622845 1.0122551 -0.27431148
v -0.5879587 0.6881614 -0.24354395
v -0.7168598 1.0122551 -1.0192394E-05
v -0.63638055 0.6881614 -1.0192394E-05
v -0.6622845 1.0122551 0.27431798
v -0.5879587 0.6881614 0.24352354
v -0.5068883 1.0122551 0.5068883
v -0.45000196 0.6881614 0.45000196
v -0.27431798 1.0122551 0.6622845
v -0.24352354 0.6881614 0.5879587
v 1.0192394E-05 1.0122551 0.7168598
v 1.0192394E-05 0.6881614 0.63638055
v 1.0192394E-05 0.6881614 0.63638055
v 1.0192394E-05 1.0122551 0.7168598
vt 0.6300364 0.86595505
vt 0.6300364 0.8649812
vt 0.6278452 0.8649812
vt 0.6278452 0.86595505
vt 0.6322276 0.86595505
vt 0.6322276 0.8649812
vt 0.63441885 0.86595505
vt 0.63441885 0.8649812
vt 0.63661003 0.86595505
vt 0.63661003 0.8649812
vt 0.63855773 0.86595505
vt 0.63855773 0.8649812
vt 0.6407489 0.86595505
vt 0.6407489 0.8649812
vt 0.64294016 0.86595505
vt 0.64294016 0.8649812
vt 0.6407489 0.8649812
vt 0.6407489 0.86595505
vt 0.63855773 0.8649812
vt 0.63855773 0.86595505
vt 0.63661003 0.8649812
vt 0.63661003 0.86595505
vt 0.63441885 0.8649812
vt 0.63441885 0.86595505
vt 0.6322276 0.8649812
vt 0.6322276 0.86595505
vt 0.6300364 0.8649812
vt 0.6300364 0.86595505
vt 0.6278452 0.8649812
vt 0.6278452 0.86595505
vt 0.6258975 0.8649812
vt 0.6258975 0.86595505
vt 0.6426967 0.8698505
vt 0.6426967 0.8666855
vt 0.6407489 0.8666855
vt 0.6407489 0.8698505
vt 0.63855773 0.8698505
vt 0.63855773 0.8666855
vt 0.63636655 0.8666855
vt 0.63636655 0.8698505
vt 0.63417536 0.8698505
vt 0.63417536 0.8666855
vt 0.6319842 0.8666855
vt 0.6319842 0.8698505
vt 0.6300364 0.8698505
vt 0.6300364 0.8666855
vt 0.6278452 0.8666855
vt 0.6278452 0.8698505
vt 0.62565404 0.8666855
vt 0.62565404 0.8698505
vt 0.6278452 0.8698505
vt 0.6278452 0.8666855
vt 0.63855773 0.8666855
vt 0.63855773 0.8698505
vt 0.6407489 0.8698505
vt 0.6407489 0.8666855
vt 0.63417536 0.8666855
vt 0.63417536 0.8698505
vt 0.63636655 0.8698505
vt 0.63636655 0.8666855
vt 0.6300364 0.8666855
vt 0.6300364 0.8698505
vt 0.6319842 0.8698505
vt 0.6319842 0.8666855
vt 0.62565404 0.8666855
vt 0.62565404 0.8698505
vt 0.6426967 0.8666855
vt 0.6426967 0.8698505
vt 0.65487 0.85183406
vt 0.65487 0.85256445
vt 0.6526788 0.85256445
vt 0.6526788 0.85183406
vt 0.6502441 0.85256445
vt 0.6502441 0.85183406
vt 0.64780945 0.85256445
vt 0.64780945 0.85183406
vt 0.6453748 0.85256445
vt 0.6453748 0.85183406
vt 0.64294016 0.85256445
vt 0.64294016 0.85183406
vt 0.6405055 0.85256445
vt 0.6405055 0.85183406
vt 0.63782734 0.85256445
vt 0.63782734 0.85183406
vt 0.63539267 0.85256445
vt 0.63539267 0.85183406
vt 0.63782734 0.85256445
vt 0.63782734 0.85183406
vt 0.6405055 0.85256445
vt 0.6405055 0.85183406
vt 0.64294016 0.85256445
vt 0.64294016 0.85183406
vt 0.6453748 0.85256445
vt 0.6453748 0.85183406
vt 0.64780945 0.85256445
vt 0.64780945 0.85183406
vt 0.6502441 0.85256445
vt 0.6502441 0.85183406
vt 0.6526788 0.85256445
vt 0.6526788 0.85183406
vt 0.6280887 0.8715548
vt 0.6280887 0.87471986
vt 0.6305234 0.87471986
vt 0.6305234 0.8715548
vt 0.63295805 0.87471986
vt 0.63295805 0.8715548
vt 0.63563615 0.87471986
vt 0.63563615 0.8715548
vt 0.6380708 0.87471986
vt 0.6380708 0.8715548
vt 0.6405055 0.87471986
vt 0.6405055 0.8715548
vt 0.64294016 0.87471986
vt 0.64294016 0.8715548
vt 0.64513135 0.87471986
vt 0.64513135 0.8715548
vt 0.62565404 0.8715548
vt 0.62565404 0.87471986
vt 0.6280887 0.87471986
vt 0.6280887 0.8715548
vt 0.6305234 0.87471986
vt 0.6305234 0.8715548
vt 0.63295805 0.87471986
vt 0.63295805 0.8715548
vt 0.63563615 0.87471986
vt 0.63563615 0.8715548
vt 0.6380708 0.87471986
vt 0.6380708 0.8715548
vt 0.6405055 0.87471986
vt 0.6405055 0.8715548
vt 0.64294016 0.87471986
vt 0.64294016 0.8715548
vt 0.64513135 0.87471986
vt 0.64513135 0.8715548
vt 0.62565404 0.8715548
vt 0.62565404 0.87471986
vn -0.11905056 -0.98544353 -0.12135901
vn -0.11905056 -0.98544353 -0.12135901
vn -0.06535989 -0.98544353 -0.15693666
vn -0.06535989 -0.98544353 -0.15693666
vn -0.15740103 -0.98544353 -0.06423358
vn -0.15740103 -0.98544353 -0.06423358
vn -0.17266022 -0.9849814 -0
vn -0.17266022 -0.9849814 -0
vn -0.15740103 -0.98544353 0.06423358
vn -0.15740103 -0.98544353 0.06423358
vn -0.11905056 -0.98544353 0.12135901
vn -0.11905056 -0.98544353 0.12135901
vn -0.06535989 -0.98544353 0.15693666
vn -0.06535989 -0.98544353 0.15693666
vn 0.0036709905 -0.98544353 0.16996343
vn 0.0036709905 -0.98544353 0.16996343
vn 0.06503183 -0.98544353 0.15707295
vn 0.06503183 -0.98544353 0.15707295
vn 0.1187225 -0.98544353 0.12168004
vn 0.1187225 -0.98544353 0.12168004
vn 0.15707296 -0.98544353 0.06503175
vn 0.15707296 -0.98544353 0.06503175
vn 0.17234206 -0.98503715 -0
vn 0.17234206 -0.98503715 -0
vn 0.15707296 -0.98544353 -0.06503175
vn 0.15707296 -0.98544353 -0.06503175
vn 0.1187225 -0.98544353 -0.12168004
vn 0.1187225 -0.98544353 -0.12168004
vn 0.06503183 -0.98544353 -0.15707295
vn 0.06503183 -0.98544353 -0.15707295
vn 0.0036709905 -0.98544353 -0.16996343
vn 0.0036709905 -0.98544353 -0.16996343
vn 0.0036709905 0.27245253 0.96216226
vn 0.0036709905 0.27245253 0.96216226
vn -0.37216383 0.27245253 0.8872788
vn -0.37216383 0.27245253 0.8872788
vn -0.67896765 0.27245253 0.68174225
vn -0.67896765 0.27245253 0.68174225
vn -0.8860603 0.27245253 0.3750557
vn -0.8860603 0.27245253 0.3750557
vn -0.96221316 0.2722974 -0
vn -0.96221316 0.2722974 -0
vn -0.8860603 0.27245253 -0.3750557
vn -0.8860603 0.27245253 -0.3750557
vn -0.67896765 0.27245253 -0.68174225
vn -0.67896765 0.27245253 -0.68174225
vn -0.37216383 0.27245253 -0.8872788
vn -0.37216383 0.27245253 -0.8872788
vn 0.0036709905 0.27245253 -0.96216226
vn 0.0036709905 0.27245253 -0.96216226
vn 0.3718357 0.27245253 -0.88741636
vn 0.3718357 0.27245253 -0.88741636
vn 0.67863965 0.27245253 0.6820688
vn 0.67863965 0.27245253 0.6820688
vn 0.3718357 0.27245253 0.88741636
vn 0.3718357 0.27245253 0.88741636
vn 0.9621888 0.27238333 -0
vn 0.9621888 0.27238333 -0
vn 0.89340234 0.27245253 0.35721403
vn 0.89340234 0.27245253 0.35721403
vn 0.67863965 0.27245253 -0.6820688
vn 0.67863965 0.27245253 -0.6820688
vn 0.89340234 0.27245253 -0.35721403
vn 0.89340234 0.27245253 -0.35721403
vn 0.0036709905 0.27245253 -0.96216226
vn 0.0036709905 0.27245253 -0.96216226
vn 0.0036709905 0.27245253 0.96216226
vn 0.0036709905 0.27245253 0.96216226
vn 0.0036709905 0.9320809 0.36223155
vn 0.0036709905 0.9320809 0.36223155
vn 0.1340627 0.9320809 0.33652985
vn 0.1340627 0.9320809 0.33652985
vn 0.24911416 0.9320809 0.2629968
vn 0.24911416 0.9320809 0.2629968
vn 0.32581514 0.9320809 0.158334
vn 0.32581514 0.9320809 0.158334
vn 0.3564955 0.9320809 -0.06431287
vn 0.3564955 0.9320809 -0.06431287
vn 0.32581514 0.9320809 -0.158334
vn 0.32581514 0.9320809 -0.158334
vn 0.24911416 0.9320809 -0.2629968
vn 0.24911416 0.9320809 -0.2629968
vn 0.1340627 0.9320809 -0.33652985
vn 0.1340627 0.9320809 -0.33652985
vn 0.0036709905 0.9320809 -0.36223155
vn 0.0036709905 0.9320809 -0.36223155
vn -0.13439077 0.9320809 -0.33639902
vn -0.13439077 0.9320809 -0.33639902
vn -0.24944216 0.9320809 -0.26268566
vn -0.24944216 0.9320809 -0.26268566
vn -0.3261432 0.9320809 -0.1576572
vn -0.3261432 0.9320809 -0.1576572
vn -0.35682362 0.9320809 -0.062466614
vn -0.35682362 0.9320809 -0.062466614
vn -0.3261432 0.9320809 0.1576572
vn -0.3261432 0.9320809 0.1576572
vn -0.24944216 0.9320809 0.26268566
vn -0.24944216 0.9320809 0.26268566
vn -0.13439077 0.9320809 0.33639902
vn -0.13439077 0.9320809 0.33639902
vn 0.3718357 -0.24144405 0.8963498
vn 0.3718357 -0.24144405 0.8963498
vn 0.6863097 -0.24144405 0.686064
vn 0.6863097 -0.24144405 0.686064
vn 0.89340234 -0.24144405 0.37886277
vn 0.89340234 -0.24144405 0.37886277
vn 0.9701033 -0.24144405 -0.02458232
vn 0.9701033 -0.24144405 -0.02458232
vn 0.89340234 -0.24144405 -0.37886277
vn 0.89340234 -0.24144405 -0.37886277
vn 0.6863097 -0.24144405 -0.686064
vn 0.6863097 -0.24144405 -0.686064
vn 0.3718357 -0.24144405 -0.8963498
vn 0.3718357 -0.24144405 -0.8963498
vn 0.0036709905 -0.24144405 -0.9704078
vn 0.0036709905 -0.24144405 -0.9704078
vn 0.0036709905 -0.24144405 -0.9704078
vn 0.0036709905 -0.24144405 -0.9704078
vn -0.37216383 -0.24144405 -0.8962136
vn -0.37216383 -0.24144405 -0.8962136
vn -0.6866378 -0.24144405 -0.6857356
vn -0.6866378 -0.24144405 -0.6857356
vn -0.89373046 -0.24144405 -0.3780881
vn -0.89373046 -0.24144405 -0.3780881
vn -0.9704158 -0.24144016 -0
vn -0.9704158 -0.24144016 -0
vn -0.89373046 -0.24144405 0.3780881
vn -0.89373046 -0.24144405 0.3780881
vn -0.6866378 -0.24144405 0.6857356
vn -0.6866378 -0.24144405 0.6857356
vn -0.37216383 -0.24144405 0.8962136
vn -0.37216383 -0.24144405 0.8962136
vn 0.0036709905 -0.24144405 0.9704078
vn 0.0036709905 -0.24144405 0.9704078
vn 0.0036709905 -0.24144405 0.9704078
vn 0.0036709905 -0.24144405 0.9704078
g AbilityDron_02_DefaultPart_CorpsePart_0
f 3/3/3 2/2/2 1/1/1
f 4/4/4 3/3/3 1/1/1
f 2/2/2 6/6/6 5/5/5
f 1/1/1 2/2/2 5/5/5
f 6/6/6 8/8/8 7/7/7
f 5/5/5 6/6/6 7/7/7
f 8/8/8 10/10/10 9/9/9
f 7/7/7 8/8/8 9/9/9
f 10/10/10 12/12/12 11/11/11
f 9/9/9 10/10/10 11/11/11
f 12/12/12 14/14/14 13/13/13
f 11/11/11 12/12/12 13/13/13
f 14/14/14 16/16/16 15/15/15
f 13/13/13 14/14/14 15/15/15
f 16/16/16 18/18/18 17/17/17
f 15/15/15 16/16/16 17/17/17
f 18/18/18 20/20/20 19/19/19
f 17/17/17 18/18/18 19/19/19
f 20/20/20 22/22/22 21/21/21
f 19/19/19 20/20/20 21/21/21
f 22/22/22 24/24/24 23/23/23
f 21/21/21 22/22/22 23/23/23
f 24/24/24 26/26/26 25/25/25
f 23/23/23 24/24/24 25/25/25
f 26/26/26 28/28/28 27/27/27
f 25/25/25 26/26/26 27/27/27
f 28/28/28 30/30/30 29/29/29
f 27/27/27 28/28/28 29/29/29
f 30/30/30 32/32/32 31/31/31
f 29/29/29 30/30/30 31/31/31
f 32/32/32 3/3/3 4/4/4
f 31/31/31 32/32/32 4/4/4
f 35/35/35 34/34/34 33/33/33
f 36/36/36 35/35/35 33/33/33
f 39/39/39 38/38/38 37/37/37
f 40/40/40 39/39/39 37/37/37
f 43/43/43 42/42/42 41/41/41
f 44/44/44 43/43/43 41/41/41
f 47/47/47 46/46/46 45/45/45
f 48/48/48 47/47/47 45/45/45
f 51/51/51 50/50/50 49/49/49
f 52/52/52 51/51/51 49/49/49
f 55/55/55 54/54/54 53/53/53
f 56/56/56 55/55/55 53/53/53
f 59/59/59 58/58/58 57/57/57
f 60/60/60 59/59/59 57/57/57
f 63/63/63 62/62/62 61/61/61
f 64/64/64 63/63/63 61/61/61
f 63/63/63 64/64/64 57/57/57
f 58/58/58 63/63/63 57/57/57
f 59/59/59 60/60/60 53/53/53
f 54/54/54 59/59/59 53/53/53
f 61/61/61 62/62/62 51/51/51
f 52/52/52 61/61/61 51/51/51
f 66/66/66 65/65/65 47/47/47
f 48/48/48 66/66/66 47/47/47
f 45/45/45 46/46/46 43/43/43
f 44/44/44 45/45/45 43/43/43
f 41/41/41 42/42/42 39/39/39
f 40/40/40 41/41/41 39/39/39
f 37/37/37 38/38/38 35/35/35
f 36/36/36 37/37/37 35/35/35
f 55/55/55 56/56/56 67/67/67
f 68/68/68 55/55/55 67/67/67
f 71/71/71 70/70/70 69/69/69
f 72/72/72 71/71/71 69/69/69
f 73/73/73 71/71/71 72/72/72
f 74/74/74 73/73/73 72/72/72
f 75/75/75 73/73/73 74/74/74
f 76/76/76 75/75/75 74/74/74
f 77/77/77 75/75/75 76/76/76
f 78/78/78 77/77/77 76/76/76
f 79/79/79 77/77/77 78/78/78
f 80/80/80 79/79/79 78/78/78
f 81/81/81 79/79/79 80/80/80
f 82/82/82 81/81/81 80/80/80
f 83/83/83 81/81/81 82/82/82
f 84/84/84 83/83/83 82/82/82
f 85/85/85 83/83/83 84/84/84
f 86/86/86 85/85/85 84/84/84
f 87/87/87 85/85/85 86/86/86
f 88/88/88 87/87/87 86/86/86
f 89/89/89 87/87/87 88/88/88
f 90/90/90 89/89/89 88/88/88
f 91/91/91 89/89/89 90/90/90
f 92/92/92 91/91/91 90/90/90
f 93/93/93 91/91/91 92/92/92
f 94/94/94 93/93/93 92/92/92
f 95/95/95 93/93/93 94/94/94
f 96/96/96 95/95/95 94/94/94
f 97/97/97 95/95/95 96/96/96
f 98/98/98 97/97/97 96/96/96
f 99/99/99 97/97/97 98/98/98
f 100/100/100 99/99/99 98/98/98
f 70/70/70 99/99/99 100/100/100
f 69/69/69 70/70/70 100/100/100
f 103/103/103 102/102/102 101/101/101
f 104/104/104 103/103/103 101/101/101
f 105/105/105 103/103/103 104/104/104
f 106/106/106 105/105/105 104/104/104
f 107/107/107 105/105/105 106/106/106
f 108/108/108 107/107/107 106/106/106
f 109/109/109 107/107/107 108/108/108
f 110/110/110 109/109/109 108/108/108
f 111/111/111 109/109/109 110/110/110
f 112/112/112 111/111/111 110/110/110
f 113/113/113 111/111/111 112/112/112
f 114/114/114 113/113/113 112/112/112
f 115/115/115 113/113/113 114/114/114
f 116/116/116 115/115/115 114/114/114
f 119/119/119 118/118/118 117/117/117
f 120/120/120 119/119/119 117/117/117
f 121/121/121 119/119/119 120/120/120
f 122/122/122 121/121/121 120/120/120
f 123/123/123 121/121/121 122/122/122
f 124/124/124 123/123/123 122/122/122
f 125/125/125 123/123/123 124/124/124
f 126/126/126 125/125/125 124/124/124
f 127/127/127 125/125/125 126/126/126
f 128/128/128 127/127/127 126/126/126
f 129/129/129 127/127/127 128/128/128
f 130/130/130 129/129/129 128/128/128
f 131/131/131 129/129/129 130/130/130
f 132/132/132 131/131/131 130/130/130
f 133/133/133 131/131/131 132/132/132
f 134/134/134 133/133/133 132/132/132
f 102/102/102 136/136/136 135/135/135
f 101/101/101 102/102/102 135/135/135
