g AcidVoidCrackedBulb
v -0.61885333 -0.5022772 0.03197682
v -0.6204591 -1.2527561 0.05028224
v 0.025371194 -0.68322164 -0.96152
v 0.15433538 -0.5910519 1.1155329
v 0.025371194 -0.68322164 -0.96152
v -0.42010808 -0.24590862 -0.9207341
v -0.82232404 -0.24590862 0.05028224
v -0.61885333 -0.5022772 0.03197682
v -0.42010808 -0.24590862 1.0212986
v 0.15433538 -0.5910519 1.1155329
v 0.5429255 -0.24590862 1.4201655
v -0.30362284 0.07904804 -0.8042488
v -0.5994009 -4.7683716E-07 -4.7683716E-07
v -0.30362284 0.07904804 0.9048135
v 0.5509083 0.07904804 1.2587652
v 0.5509083 -0.2384305 1.4197068
v 0.5509083 0.07904804 -1.1582007
v 0.53315336 1.2262375 -1.0267591
v -0.22549188 1.0806653 -0.6968934
v -0.30362284 0.07904804 -0.8042488
v -0.53971314 0.8835716 0.09946394
v -0.5994009 -4.7683716E-07 -4.7683716E-07
v -0.22549188 0.9839537 0.89582133
v -0.30362284 0.07904804 0.9048135
v 0.53315336 1.2262375 1.225687
v 0.5509083 0.07904804 1.2587652
v 0.53315336 1.2262375 -1.0267591
v 0.4844305 1.3787374 -1.1982985
v -0.38973665 1.196233 -0.8181959
v -0.22549188 1.0806653 -0.6968934
v -0.7518089 0.9838619 0.09946394
v -0.53971314 0.8835716 0.09946394
v -0.38973665 1.0995214 1.0171237
v -0.22549188 0.9839537 0.89582133
v 0.4844305 1.3787374 1.3972263
v 0.53315336 1.2262375 1.225687
v 0.4844305 1.3787374 -1.1982985
v 0.37895602 1.7089243 -1.1982985
v -0.495211 1.5264659 -0.8181959
v -0.38973665 1.196233 -0.8181959
v -0.85728335 1.3140948 0.09946394
v -0.7518089 0.9838619 0.09946394
v -0.495211 1.4297082 1.0171237
v -0.38973665 1.0995214 1.0171237
v 0.37895602 1.7089243 1.3972263
v 0.4844305 1.3787374 1.3972263
v 0.37895602 1.7089243 -1.1982985
v 0.36459613 1.753885 -0.8971985
v -0.30674255 1.6362069 -0.6052742
v -0.495211 1.5264659 -0.8181959
v -0.58481157 1.4506288 0.09946394
v -0.85728335 1.3140948 0.09946394
v -0.30674255 1.5394495 0.8042481
v -0.495211 1.4297082 1.0171237
v 0.36459613 1.753885 1.0961723
v 0.37895602 1.7089243 1.3972263
v 0.36459613 1.753885 -0.8971985
v 0.44882888 1.490176 -0.7780523
v -0.14226854 1.398098 -0.52104145
v -0.30674255 1.6362069 -0.6052742
v -0.38712156 1.2231636 0.09946394
v -0.58481157 1.4506288 0.09946394
v -0.14226854 1.3013864 0.7199694
v -0.30674255 1.5394495 0.8042481
v 0.44882888 1.490176 0.977026
v 0.36459613 1.753885 1.0961723
v 0.44882888 1.490176 -0.7780523
v 0.44882888 1.490176 0.09946394
v -0.14226854 1.398098 -0.52104145
v -0.38712156 1.2231636 0.09946394
v -0.14226854 1.3013864 0.7199694
v 0.44882888 1.490176 0.977026
v 0.37707502 -0.24590862 -1.250921
v 0.5509083 -0.24590862 1.4235146
v 0.5509083 -0.5910519 1.2797775
v 0.5509083 -0.08418727 -1.2409654
v 0.5509083 0.07904804 -1.1582007
v 0.5509083 -0.5910519 1.2797775
v 0.37707502 -0.24590862 -1.250921
v 0.025371194 -0.68322164 -0.96152
v 0.15433538 -0.5910519 1.1155329
v -0.6204591 -1.2527561 0.05028224
v 0.15433538 -0.5910519 1.1155329
v 0.025371194 -0.68322164 -0.96152
v 0.37707502 -0.24590862 -1.250921
v 0.5509083 -0.5910519 1.2797775
v 0.5509083 -0.08418727 -1.2409654
v 0.5509083 0.07904804 -1.1582007
v 0.5509083 -0.24590862 1.4235146
v 0.5509083 -0.2384305 1.4197068
v 0.5509083 0.07904804 1.2587652
v 0.53315336 1.2262375 -1.0267591
v 0.53315336 1.2262375 1.225687
v 0.37895602 1.7089243 -1.1982985
v 0.4844305 1.3787374 -1.1982985
v 0.36459613 1.753885 -0.8971985
v 0.44882888 1.490176 -0.7780523
v 0.44882888 1.490176 0.09946394
v 0.44882888 1.490176 0.977026
v 0.4844305 1.3787374 1.3972263
v 0.37895602 1.7089243 1.3972263
v 0.36459613 1.753885 1.0961723
vt 0.96249115 0.31711355
vt 0.96249115 0.31266266
vt 0.963127 0.31711355
vt 0.9618553 0.31711355
vt 0.9078089 0.3400038
vt 0.9078089 0.34063962
vt 0.9071731 0.34063962
vt 0.9071731 0.3400038
vt 0.90653723 0.34063962
vt 0.90653723 0.3400038
vt 0.9059014 0.34063962
vt 0.9078089 0.34063962
vt 0.9071731 0.34063962
vt 0.90653723 0.34063962
vt 0.90653723 0.34063962
vt 0.9059014 0.34063962
vt 0.96249115 0.31647772
vt 0.96249115 0.31711355
vt 0.96249115 0.31711355
vt 0.96249115 0.31647772
vt 0.96249115 0.31711355
vt 0.96249115 0.31647772
vt 0.96249115 0.31711355
vt 0.96249115 0.31647772
vt 0.96249115 0.31711355
vt 0.96249115 0.31647772
vt 0.9078089 0.34254715
vt 0.9078089 0.34254715
vt 0.9078089 0.34254715
vt 0.9078089 0.34254715
vt 0.9071731 0.34254715
vt 0.9071731 0.34254715
vt 0.90653723 0.34254715
vt 0.90653723 0.34254715
vt 0.90653723 0.34254715
vt 0.90653723 0.34254715
vt 0.9078089 0.34254715
vt 0.9078089 0.34318298
vt 0.9078089 0.34318298
vt 0.9078089 0.34254715
vt 0.9071731 0.34318298
vt 0.9071731 0.34254715
vt 0.90653723 0.34318298
vt 0.90653723 0.34254715
vt 0.90653723 0.34318298
vt 0.90653723 0.34254715
vt 0.9078089 0.34318298
vt 0.9078089 0.34318298
vt 0.9071731 0.34318298
vt 0.9078089 0.34318298
vt 0.9071731 0.34318298
vt 0.9071731 0.34318298
vt 0.90653723 0.34318298
vt 0.90653723 0.34318298
vt 0.90653723 0.34318298
vt 0.90653723 0.34318298
vt 0.9078089 0.34318298
vt 0.9078089 0.34318298
vt 0.9071731 0.34318298
vt 0.9071731 0.34318298
vt 0.9071731 0.34318298
vt 0.9071731 0.34318298
vt 0.90653723 0.34318298
vt 0.90653723 0.34318298
vt 0.90653723 0.34318298
vt 0.90653723 0.34318298
vt 0.96249115 0.31902105
vt 0.96249115 0.31902105
vt 0.96249115 0.31902105
vt 0.96249115 0.31902105
vt 0.96249115 0.31902105
vt 0.96249115 0.31902105
vt 0.9078089 0.34063962
vt 0.9059014 0.34063962
vt 0.90653723 0.3400038
vt 0.9078089 0.34063962
vt 0.9078089 0.34063962
vt 0.9071731 0.3342812
vt 0.9071731 0.3342812
vt 0.9071731 0.3342812
vt 0.9071731 0.3342812
vt 0.9071731 0.3368246
vt 0.90653723 0.33746043
vt 0.9071731 0.3342812
vt 0.9071731 0.3342812
vt 0.9071731 0.3342812
vt 0.9071731 0.3342812
vt 0.9071731 0.33746043
vt 0.9071731 0.3342812
vt 0.9071731 0.3342812
vt 0.9071731 0.3342812
vt 0.9071731 0.33491707
vt 0.90653723 0.33809626
vt 0.9071731 0.33491707
vt 0.9071731 0.33491707
vt 0.9071731 0.33491707
vt 0.9071731 0.33746043
vt 0.9071731 0.33746043
vt 0.9071731 0.33491707
vt 0.9071731 0.33491707
vt 0.9071731 0.33491707
vt 0.9071731 0.33491707
vn -0.99773467 0.002786398 0.06721442
vn -0.99773467 0.002786398 0.06721442
vn -0.8410499 -0.012882113 -0.5408041
vn -0.809713 0.01845479 0.5865358
vn -0.61385703 -0.5377761 -0.5779069
vn -0.778376 -0.13039571 -0.6141073
vn -0.95856345 -0.2792462 0.05637098
vn -0.6901586 -0.7236581 -0
vn -0.7627075 -0.20873809 0.61213213
vn -0.5198461 -0.5926158 0.61527765
vn -0.37099564 0.21431077 0.90356696
vn -0.6060227 0.49634337 -0.6215945
vn -0.8332157 0.5511831 -0.044144582
vn -0.6060227 0.5198461 0.6020768
vn -0.34749293 0.42583525 0.8354119
vn -0.34749293 0.42583525 0.8354119
vn -0.39449835 0.11246574 -0.91198826
vn -0.39449835 0.11246574 -0.91198826
vn -0.66869664 0.120299935 -0.73373884
vn -0.70786786 0.120299935 -0.69602513
vn -0.99604833 0.08881267 -0
vn -0.99604833 0.08881267 -0
vn -0.66869664 0.041957617 0.7423506
vn -0.73137057 0.049791813 0.68016016
vn -0.39449835 0.0341233 0.9182629
vn -0.39449835 0.0341233 0.9182629
vn -0.11246574 -0.77280325 -0.6246012
vn -0.11246574 -0.77280325 -0.6246012
vn -0.25348198 -0.8276429 -0.5007535
vn -0.25348198 -0.8276429 -0.5007535
vn -0.41800106 -0.9059853 -0.066826336
vn -0.41800106 -0.9059853 -0.066826336
vn -0.23781347 -0.8433114 0.48194453
vn -0.23781347 -0.8433114 0.48194453
vn -0.041957617 -0.74930054 0.6608996
vn -0.041957617 -0.74930054 0.6608996
vn -0.37099564 -0.122561455 -0.92051125
vn -0.37099564 -0.122561455 -0.92051125
vn -0.67653096 -0.21657228 -0.7038482
vn -0.67653096 -0.21657228 -0.7038482
vn -0.95072925 -0.30274892 -0.06676085
vn -0.95072925 -0.30274892 -0.06676085
vn -0.67653096 -0.21657228 0.7038482
vn -0.67653096 -0.21657228 0.7038482
vn -0.36316133 -0.1147272 0.9246359
vn -0.36316133 -0.1147272 0.9246359
vn -0.2691505 0.94289505 -0.19623181
vn -0.2691505 0.94289505 -0.19623181
vn -0.37882984 0.91939235 -0.10585685
vn -0.37882984 0.91939235 -0.10585685
vn -0.46387756 0.88589936 -0
vn -0.46387756 0.88589936 -0
vn -0.40233254 0.91155803 0.084796615
vn -0.40233254 0.91155803 0.084796615
vn -0.36316133 0.91939235 0.15110116
vn -0.36316133 0.91939235 0.15110116
vn 0.2792462 0.48067498 0.8312479
vn 0.2792462 0.48067498 0.8312479
vn 0.50643915 0.5668516 0.6497682
vn 0.50643915 0.5668516 0.6497682
vn 0.74930054 0.66086245 0.042538308
vn 0.74930054 0.66086245 0.042538308
vn 0.4986049 0.5746858 -0.6489448
vn 0.4986049 0.5746858 -0.6489448
vn 0.22440654 0.45717227 -0.86060166
vn 0.22440654 0.45717227 -0.86060166
vn -0.1514178 0.98846984 -0
vn -0.2691505 0.95856345 0.09334955
vn -0.22974755 0.9732503 -0
vn -0.3004874 0.95072925 0.07629697
vn -0.3004874 0.95072925 -0.07629697
vn -0.3004874 0.95072925 -0.07629697
vn -0.36316133 0.3161559 -0.87644696
vn -0.35532713 -0.3575886 0.8636394
vn -0.35532713 -0.3575886 0.8636394
vn -0.34749293 0.42583525 -0.8354119
vn -0.34749293 0.42583525 -0.8354119
vn 0.4907707 -0.86681414 -0.08818953
vn 0.4907707 -0.86681414 -0.08818953
vn 0.4907707 -0.86681414 -0.08818953
vn 0.4907707 -0.86681414 -0.08818953
vn 0.6544206 -0.7561307 -0
vn 0.6544206 -0.7561307 -0
vn 0.6544206 -0.7561307 -0
vn 0.67879236 -0.7179636 -0.15417282
vn 0.9997855 -0.020712005 -0
vn 0.87464833 -0.4751022 -0.09627154
vn 0.9999436 0.010620035 -0
vn 0.9999962 0.002786398 -0
vn 0.9999962 0.002786398 -0
vn 0.9999436 0.010620035 -0
vn 0.9987627 0.049730398 -0
vn 0.9991209 0.041920893 -0
vn 0.9529908 0.3004874 0.038935073
vn 0.9529908 0.3004874 0.038935073
vn 0.9529908 0.3004874 0.038935073
vn 0.9529908 0.3004874 -0.038935073
vn 0.9529908 0.3004874 -0.038935073
vn 0.9529908 0.3004874 -0.038935073
vn 0.9529908 0.3004874 -0.038935073
vn 0.9529908 0.3004874 -0.038935073
vn 0.9529908 0.3004874 -0.038935073
g AcidVoidCrackedBulb_0
f 3/3/3 2/2/2 1/1/1
f 1/1/1 2/2/2 4/4/4
f 7/7/7 6/6/6 5/5/5
f 8/8/8 7/7/7 5/5/5
f 9/9/9 7/7/7 8/8/8
f 10/10/10 9/9/9 8/8/8
f 11/11/11 9/9/9 10/10/10
f 13/13/13 12/12/12 6/6/6
f 7/7/7 13/13/13 6/6/6
f 14/14/14 13/13/13 7/7/7
f 9/9/9 14/14/14 7/7/7
f 16/16/16 15/15/15 14/14/14
f 14/14/14 11/11/11 16/16/16
f 14/14/14 9/9/9 11/11/11
f 19/19/19 18/18/18 17/17/17
f 20/20/20 19/19/19 17/17/17
f 21/21/21 19/19/19 20/20/20
f 22/22/22 21/21/21 20/20/20
f 23/23/23 21/21/21 22/22/22
f 24/24/24 23/23/23 22/22/22
f 25/25/25 23/23/23 24/24/24
f 26/26/26 25/25/25 24/24/24
f 29/29/29 28/28/28 27/27/27
f 30/30/30 29/29/29 27/27/27
f 31/31/31 29/29/29 30/30/30
f 32/32/32 31/31/31 30/30/30
f 33/33/33 31/31/31 32/32/32
f 34/34/34 33/33/33 32/32/32
f 35/35/35 33/33/33 34/34/34
f 36/36/36 35/35/35 34/34/34
f 39/39/39 38/38/38 37/37/37
f 40/40/40 39/39/39 37/37/37
f 41/41/41 39/39/39 40/40/40
f 42/42/42 41/41/41 40/40/40
f 43/43/43 41/41/41 42/42/42
f 44/44/44 43/43/43 42/42/42
f 45/45/45 43/43/43 44/44/44
f 46/46/46 45/45/45 44/44/44
f 49/49/49 48/48/48 47/47/47
f 50/50/50 49/49/49 47/47/47
f 51/51/51 49/49/49 50/50/50
f 52/52/52 51/51/51 50/50/50
f 53/53/53 51/51/51 52/52/52
f 54/54/54 53/53/53 52/52/52
f 55/55/55 53/53/53 54/54/54
f 56/56/56 55/55/55 54/54/54
f 59/59/59 58/58/58 57/57/57
f 60/60/60 59/59/59 57/57/57
f 61/61/61 59/59/59 60/60/60
f 62/62/62 61/61/61 60/60/60
f 63/63/63 61/61/61 62/62/62
f 64/64/64 63/63/63 62/62/62
f 65/65/65 63/63/63 64/64/64
f 66/66/66 65/65/65 64/64/64
f 69/69/69 68/68/68 67/67/67
f 70/70/70 68/68/68 69/69/69
f 71/71/71 68/68/68 70/70/70
f 72/72/72 68/68/68 71/71/71
f 5/5/5 6/6/6 73/73/73
f 75/75/75 74/74/74 11/11/11
f 10/10/10 75/75/75 11/11/11
f 77/77/77 76/76/76 73/73/73
f 73/73/73 12/12/12 77/77/77
f 73/73/73 6/6/6 12/12/12
f 11/11/11 74/74/74 16/16/16
f 80/80/80 79/79/79 78/78/78
f 81/81/81 80/80/80 78/78/78
f 84/84/84 83/83/83 82/82/82
f 87/87/87 86/86/86 85/85/85
f 88/88/88 86/86/86 87/87/87
f 88/88/88 89/89/89 86/86/86
f 88/88/88 90/90/90 89/89/89
f 88/88/88 91/91/91 90/90/90
f 92/92/92 91/91/91 88/88/88
f 92/92/92 93/93/93 91/91/91
f 96/96/96 95/95/95 94/94/94
f 97/97/97 95/95/95 96/96/96
f 97/97/97 92/92/92 95/95/95
f 97/97/97 93/93/93 92/92/92
f 98/98/98 93/93/93 97/97/97
f 99/99/99 93/93/93 98/98/98
f 99/99/99 100/100/100 93/93/93
f 99/99/99 101/101/101 100/100/100
f 102/102/102 101/101/101 99/99/99
