g AcidTurret_CustomizePart_CorpsePart
v -0.2742679 0.26464927 0.5803251
v -0.26251972 0.2808696 0.6004497
v -1.2516975E-05 0.19554412 0.60037875
v -1.2516975E-05 0.17552602 0.5800767
v -0.37481987 0.16001546 -0.012623072
v -0.2742679 0.26464927 0.5803251
v -1.2516975E-05 0.17552602 0.5800767
v 2.3007393E-05 0.038061142 -0.027246237
v -1.2516975E-05 0.17552602 0.5800767
v 0.2742784 0.26464927 0.5803251
v 0.37390763 0.16122222 -0.012871504
v 2.3007393E-05 0.038061142 -0.027246237
v 0.26249468 0.2808696 0.6004497
v 0.2742784 0.26464927 0.5803251
v 0.4246983 0.5041568 0.6006272
v 0.44372258 0.49794555 0.5809995
v 0.42466277 0.78015137 0.6008401
v 0.4436161 0.7862562 0.58181584
v 0.44372258 0.49794555 0.5809995
v 0.6068845 0.47569144 0.025461078
v 0.4436161 0.7862562 0.58181584
v 0.6075944 0.86657715 0.07295084
v 0.6271511 0.5031985 -0.17656583
v 0.62729305 0.90441287 -0.11132944
v 0.6113566 0.9622667 -0.3554157
v 0.61121464 0.5762434 -0.4430837
v 0.2624237 1.0033677 0.60098207
v 0.2741009 1.0193751 0.5824902
v 0.2741009 1.0193751 0.5824902
v 0.37465298 1.1818981 0.11085749
v 2.3007393E-05 1.1082499 0.58256114
v -1.2516975E-05 1.0885868 0.60094666
v 2.3007393E-05 1.1082499 0.58256114
v 5.8472157E-05 1.3037105 0.12580013
v -0.2623067 1.0031903 0.60076916
v -0.4244393 0.78008044 0.60059166
v -0.4424343 0.7858658 0.581035
v -0.27341604 1.0184168 0.58167386
v -0.37460697 1.1818271 0.11170936
v -0.27341604 1.0184168 0.58167386
v -0.42472327 0.5041568 0.6006272
v -0.4436766 0.49798107 0.58096397
v -0.6072999 0.86643517 0.072915435
v -0.4424343 0.7858658 0.581035
v 0.3868981 1.2278616 -0.05890608
v 5.8472157E-05 1.3525846 -0.038426578
v 2.3007393E-05 1.3932953 -0.2572772
v 0.37788284 1.2743223 -0.28450042
v 2.3007393E-05 1.3833215 -0.45958802
v 0.32159072 1.283586 -0.49025407
v -1.2516975E-05 1.2847571 -0.70481
v 0.18767518 1.2278264 -0.7267803
v 0.5206007 1.0234213 -0.5707525
v 0.52042323 0.7012857 -0.6698848
v 0.3031698 1.0785422 -0.78360474
v 0.3030278 0.8947233 -0.8541296
v -0.62717605 0.9043064 -0.11129397
v -0.38681662 1.2277198 -0.057344377
v -0.61173654 0.9623376 -0.3554157
v -0.37783682 1.2742867 -0.28212237
v -0.5206257 1.0234213 -0.5706815
v -0.32111883 1.2828052 -0.4875566
v -0.18755817 1.2275777 -0.7259994
v -0.4436766 0.49798107 0.58096397
v -0.6072644 0.47554946 0.025532067
v -0.62746 0.5031631 -0.17656583
v -0.6116656 0.5762434 -0.44322568
v -0.52048373 0.7012502 -0.6698848
v -0.30294633 1.0783291 -0.78324986
v -0.30273342 0.89465225 -0.8536327
v -0.38702953 0.17957222 -0.22927308
v -0.37790787 0.26401043 -0.51414096
v -0.32172215 0.44069517 -0.75013477
v -0.18695474 0.74622 -0.9103862
v 2.3007393E-05 0.05442345 -0.24946868
v -1.2516975E-05 0.14457595 -0.54125774
v -1.2516975E-05 0.68943095 -0.9327469
v 2.3007393E-05 0.34195328 -0.7795231
v 0.3867916 0.17985618 -0.2293086
v 2.3007393E-05 0.05442345 -0.24946868
v 0.37795383 0.26393938 -0.5141764
v -1.2516975E-05 0.14457595 -0.54125774
v 0.32176822 0.44065964 -0.7502412
v 2.3007393E-05 0.34195328 -0.7795231
v -1.2516975E-05 0.68943095 -0.9327469
v 0.18721378 0.74611354 -0.91113156
v -1.2516975E-05 0.6421541 0.60584474
v -1.2516975E-05 1.2847571 -0.70481
v -0.18755817 1.2275777 -0.7259994
v 0.18767518 1.2278264 -0.7267803
v -0.30294633 1.0783291 -0.78324986
v 0.3031698 1.0785422 -0.78360474
v -0.30273342 0.89465225 -0.8536327
v -0.18695474 0.74622 -0.9103862
v 0.18721378 0.74611354 -0.91113156
v 0.3030278 0.8947233 -0.8541296
v -1.2516975E-05 0.68943095 -0.9327469
vt 0.93209827 0.7736762
vt 0.93209827 0.7736762
vt 0.93209827 0.7736762
vt 0.93209827 0.7736762
vt 0.10702136 0.34785956
vt 0.12442032 0.25262317
vt 0.085959464 0.24987596
vt 0.057571694 0.3460281
vt 0.5886978 0.24712877
vt 0.54382676 0.2507917
vt 0.5593943 0.34144944
vt 0.60518104 0.3387022
vt 0.93209827 0.77276045
vt 0.93209827 0.77276045
vt 0.93209827 0.77276045
vt 0.93209827 0.77276045
vt 0.93209827 0.77276045
vt 0.93209827 0.77276045
vt 0.49437714 0.2535389
vt 0.49987155 0.34144944
vt 0.44492745 0.2562861
vt 0.44309598 0.34236515
vt 0.4989558 0.3716687
vt 0.44309598 0.37075293
vt 0.4412645 0.40829808
vt 0.49804008 0.41196102
vt 0.93209827 0.77276045
vt 0.93209827 0.77276045
vt 0.3863204 0.2581176
vt 0.38998336 0.34419662
vt 0.93209827 0.77276045
vt 0.93209827 0.77276045
vt 0.32862914 0.25994903
vt 0.3295449 0.34511238
vt 0.93209827 0.77276045
vt 0.93301404 0.77276045
vt 0.93301404 0.77276045
vt 0.93209827 0.77276045
vt 0.27002212 0.3460281
vt 0.2718536 0.25903332
vt 0.93209827 0.77276045
vt 0.93209827 0.77276045
vt 0.21782525 0.34511238
vt 0.21599379 0.25720185
vt 0.38998336 0.3716687
vt 0.3304606 0.3725844
vt 0.3304606 0.40921378
vt 0.38906765 0.40829808
vt 0.33137637 0.4412645
vt 0.3854047 0.4412645
vt 0.33137637 0.47880965
vt 0.3771631 0.4833883
vt 0.43760157 0.44492745
vt 0.49529284 0.45133758
vt 0.43027568 0.48979843
vt 0.48979843 0.4989558
vt 0.21874098 0.37350017
vt 0.27093786 0.37350017
vt 0.22057246 0.41104525
vt 0.27276933 0.40921378
vt 0.22515114 0.44675893
vt 0.277348 0.44218022
vt 0.28650534 0.484304
vt 0.17387 0.25537038
vt 0.1637969 0.3460281
vt 0.16471264 0.37624735
vt 0.16745985 0.41653967
vt 0.17203853 0.45500052
vt 0.23247701 0.4916299
vt 0.18119587 0.501703
vt 0.10702136 0.380826
vt 0.110684305 0.42569703
vt 0.11709444 0.46782082
vt 0.15097663 0.51543903
vt 0.057571694 0.38723618
vt 0.062150367 0.44309598
vt 0.11801018 0.53466946
vt 0.07863359 0.4916299
vt 0.5593943 0.37533164
vt 0.60518104 0.3799103
vt 0.55664706 0.4202026
vt 0.6024338 0.4357701
vt 0.55115265 0.4623264
vt 0.59052926 0.48613548
vt 0.5575628 0.53009075
vt 0.5200177 0.5108603
vt 0.93209827 0.77276045
vt 0.91012067 0.84052485
vt 0.91012067 0.84052485
vt 0.91012067 0.84052485
vt 0.91012067 0.84052485
vt 0.91012067 0.84052485
vt 0.91012067 0.84052485
vt 0.91012067 0.84052485
vt 0.91012067 0.84052485
vt 0.91012067 0.84052485
vt 0.91012067 0.84052485
vn -0.41179276 -0.5781318 0.70440775
vn -0.07662141 -0.102656186 0.9917615
vn 0.0013253689 -0.12604028 0.99202424
vn 0.0013253689 -0.7106414 0.7035532
vn -0.5598917 -0.81197226 0.16499193
vn -0.5520971 -0.7963829 0.24690706
vn 0.0013253689 -0.97566056 0.21928231
vn 0.0013253689 -0.9912499 0.13199182
vn 0.0013253689 -0.97566056 0.21928231
vn 0.5547477 -0.7963829 0.24089271
vn 0.56254244 -0.81197226 0.15571465
vn 0.0013253689 -0.9912499 0.13199182
vn 0.07147747 -0.102656186 0.9921455
vn 0.4144435 -0.5781318 0.7028515
vn 0.11824554 -0.04029876 0.99216634
vn 0.6638733 -0.21957642 0.7148835
vn 0.110450864 0.03764808 0.99316823
vn 0.6560786 0.209131 0.72513795
vn 0.8977137 -0.33649665 0.28439426
vn 0.9133031 -0.34429133 0.21757974
vn 0.9055084 0.2558992 0.3384821
vn 0.9288925 0.2558992 0.26772067
vn 0.94448185 -0.3209073 -0.070516184
vn 0.9600712 0.27928317 0.016254157
vn 0.9366872 0.31825662 -0.14604743
vn 0.92109776 -0.26634455 -0.28397092
vn 0.07147747 0.09221089 0.99317074
vn 0.4066488 0.5520971 0.7278912
vn 0.56254244 0.73916936 0.37037098
vn 0.5781318 0.7469641 0.32834163
vn -0.0064693093 0.6924013 0.7214836
vn 0.0013253689 0.115594864 0.99329555
vn 0.0013253689 0.91844714 0.39554158
vn 0.0013253689 0.9340365 0.35717514
vn -0.068826795 0.09221089 0.99335796
vn -0.115594864 0.03764808 0.9925827
vn -0.67681193 0.21692574 0.70346916
vn -0.4195875 0.56768644 0.70829266
vn -0.57548106 0.7469641 0.33296576
vn -0.56768644 0.73137474 0.37791944
vn -0.115594864 -0.04029876 0.9924786
vn -0.6690173 -0.21957642 0.71007186
vn -0.92624176 0.2558992 0.27675223
vn -0.9106524 0.2558992 0.3243884
vn 0.59372115 0.7781428 0.20491196
vn 0.0013253689 0.9730098 0.2307599
vn 0.0013253689 0.9963939 0.08483773
vn 0.59150535 0.8063011 -0
vn 0.0013253689 0.98080456 -0.19498889
vn 0.523569 0.81711626 -0.24123947
vn 0.0013253689 0.9340365 -0.35717514
vn 0.43782753 0.79373217 -0.4222515
vn 0.81976694 0.38840878 -0.42085722
vn 0.7963829 -0.110450864 -0.5946216
vn 0.6872573 0.44297147 -0.57572013
vn 0.6638733 0.029853344 -0.74724895
vn -0.95742047 0.27928317 0.073123075
vn -0.59886515 0.7781428 0.18935226
vn -0.9418311 0.31825662 -0.10801326
vn -0.58978444 0.8075607 -0
vn -0.81711626 0.38840878 -0.42598075
vn -0.52091837 0.81711626 -0.24691091
vn -0.43517685 0.79373217 -0.42498285
vn -0.9028578 -0.33649665 0.26761508
vn -0.91844714 -0.33649665 0.2079059
vn -0.9418311 -0.3209073 -0.09986314
vn -0.91844714 -0.26634455 -0.29243025
vn -0.79373217 -0.102656186 -0.5995423
vn -0.6846067 0.44297147 -0.5788696
vn -0.6612226 0.029853344 -0.7495955
vn -0.57548106 -0.7963829 -0.18599959
vn -0.5598917 -0.71843606 -0.41276014
vn -0.48194492 -0.4923903 -0.7247626
vn -0.3962034 -0.2819339 -0.8738056
vn 0.0013253689 -0.98345524 -0.18114659
vn 0.0013253689 -0.88991904 -0.45611665
vn 0.0013253689 -0.39885414 -0.91701347
vn 0.0013253689 -0.6326946 -0.7744003
vn 0.5781318 -0.7963829 -0.1775891
vn 0.0013253689 -0.98345524 -0.18114659
vn 0.56254244 -0.71843606 -0.40914014
vn 0.0013253689 -0.88991904 -0.45611665
vn 0.47680092 -0.4923903 -0.72815704
vn 0.0013253689 -0.6326946 -0.7744003
vn 0.0013253689 -0.39885414 -0.91701347
vn 0.39885414 -0.2819339 -0.87259877
vn 0.0013253689 -0.0013253689 0.9999983
vn 0.0013253689 0.35723007 -0.9340155
vn 0.0013253689 0.35723007 -0.9340155
vn 0.0013253689 0.35723007 -0.9340155
vn 0.0013253689 0.35723007 -0.9340155
vn 0.0013253689 0.35723007 -0.9340155
vn 0.0013253689 0.35723007 -0.9340155
vn 0.0013253689 0.35723007 -0.9340155
vn 0.0013253689 0.35723007 -0.9340155
vn 0.0013253689 0.35723007 -0.9340155
vn 0.0013253689 0.3650247 -0.9309969
g AcidTurret_CustomizePart_CorpsePart_0
f 3/3/3 2/2/2 1/1/1
f 4/4/4 3/3/3 1/1/1
f 7/7/7 6/6/6 5/5/5
f 8/8/8 7/7/7 5/5/5
f 11/11/11 10/10/10 9/9/9
f 12/12/12 11/11/11 9/9/9
f 13/13/13 3/3/3 4/4/4
f 14/14/14 13/13/13 4/4/4
f 16/16/16 15/15/15 13/13/13
f 14/14/14 16/16/16 13/13/13
f 18/18/18 17/17/17 15/15/15
f 16/16/16 18/18/18 15/15/15
f 11/11/11 20/20/20 19/19/19
f 10/10/10 11/11/11 19/19/19
f 22/22/22 21/21/21 19/19/19
f 20/20/20 22/22/22 19/19/19
f 22/22/22 20/20/20 23/23/23
f 24/24/24 22/22/22 23/23/23
f 23/23/23 26/26/26 25/25/25
f 24/24/24 23/23/23 25/25/25
f 28/28/28 27/27/27 17/17/17
f 18/18/18 28/28/28 17/17/17
f 30/30/30 29/29/29 21/21/21
f 22/22/22 30/30/30 21/21/21
f 27/27/27 28/28/28 31/31/31
f 32/32/32 27/27/27 31/31/31
f 30/30/30 34/34/34 33/33/33
f 29/29/29 30/30/30 33/33/33
f 37/37/37 36/36/36 35/35/35
f 38/38/38 37/37/37 35/35/35
f 33/33/33 34/34/34 39/39/39
f 40/40/40 33/33/33 39/39/39
f 35/35/35 32/32/32 31/31/31
f 38/38/38 35/35/35 31/31/31
f 42/42/42 41/41/41 36/36/36
f 37/37/37 42/42/42 36/36/36
f 40/40/40 39/39/39 43/43/43
f 44/44/44 40/40/40 43/43/43
f 1/1/1 2/2/2 41/41/41
f 42/42/42 1/1/1 41/41/41
f 22/22/22 24/24/24 45/45/45
f 30/30/30 22/22/22 45/45/45
f 48/48/48 47/47/47 46/46/46
f 45/45/45 48/48/48 46/46/46
f 46/46/46 34/34/34 30/30/30
f 45/45/45 46/46/46 30/30/30
f 50/50/50 49/49/49 47/47/47
f 48/48/48 50/50/50 47/47/47
f 52/52/52 51/51/51 49/49/49
f 50/50/50 52/52/52 49/49/49
f 53/53/53 50/50/50 48/48/48
f 25/25/25 53/53/53 48/48/48
f 45/45/45 24/24/24 25/25/25
f 48/48/48 45/45/45 25/25/25
f 26/26/26 54/54/54 53/53/53
f 25/25/25 26/26/26 53/53/53
f 54/54/54 56/56/56 55/55/55
f 53/53/53 54/54/54 55/55/55
f 50/50/50 53/53/53 55/55/55
f 52/52/52 50/50/50 55/55/55
f 58/58/58 57/57/57 43/43/43
f 39/39/39 58/58/58 43/43/43
f 39/39/39 34/34/34 46/46/46
f 58/58/58 39/39/39 46/46/46
f 60/60/60 59/59/59 57/57/57
f 58/58/58 60/60/60 57/57/57
f 62/62/62 61/61/61 59/59/59
f 60/60/60 62/62/62 59/59/59
f 47/47/47 60/60/60 58/58/58
f 46/46/46 47/47/47 58/58/58
f 49/49/49 62/62/62 60/60/60
f 47/47/47 49/49/49 60/60/60
f 63/63/63 62/62/62 49/49/49
f 51/51/51 63/63/63 49/49/49
f 64/64/64 44/44/44 43/43/43
f 65/65/65 64/64/64 43/43/43
f 65/65/65 43/43/43 57/57/57
f 66/66/66 65/65/65 57/57/57
f 67/67/67 66/66/66 57/57/57
f 59/59/59 67/67/67 57/57/57
f 68/68/68 67/67/67 59/59/59
f 61/61/61 68/68/68 59/59/59
f 68/68/68 61/61/61 69/69/69
f 70/70/70 68/68/68 69/69/69
f 71/71/71 5/5/5 65/65/65
f 66/66/66 71/71/71 65/65/65
f 72/72/72 71/71/71 66/66/66
f 67/67/67 72/72/72 66/66/66
f 68/68/68 73/73/73 72/72/72
f 67/67/67 68/68/68 72/72/72
f 73/73/73 68/68/68 70/70/70
f 74/74/74 73/73/73 70/70/70
f 5/5/5 6/6/6 64/64/64
f 65/65/65 5/5/5 64/64/64
f 72/72/72 76/76/76 75/75/75
f 71/71/71 72/72/72 75/75/75
f 73/73/73 74/74/74 77/77/77
f 78/78/78 73/73/73 77/77/77
f 73/73/73 78/78/78 76/76/76
f 72/72/72 73/73/73 76/76/76
f 79/79/79 11/11/11 12/12/12
f 80/80/80 79/79/79 12/12/12
f 71/71/71 75/75/75 8/8/8
f 5/5/5 71/71/71 8/8/8
f 81/81/81 79/79/79 80/80/80
f 82/82/82 81/81/81 80/80/80
f 83/83/83 81/81/81 82/82/82
f 84/84/84 83/83/83 82/82/82
f 83/83/83 84/84/84 85/85/85
f 86/86/86 83/83/83 85/85/85
f 23/23/23 79/79/79 81/81/81
f 26/26/26 23/23/23 81/81/81
f 83/83/83 54/54/54 26/26/26
f 81/81/81 83/83/83 26/26/26
f 79/79/79 23/23/23 20/20/20
f 11/11/11 79/79/79 20/20/20
f 86/86/86 56/56/56 54/54/54
f 83/83/83 86/86/86 54/54/54
f 69/69/69 61/61/61 62/62/62
f 63/63/63 69/69/69 62/62/62
f 41/41/41 2/2/2 87/87/87
f 2/2/2 3/3/3 87/87/87
f 3/3/3 13/13/13 87/87/87
f 13/13/13 15/15/15 87/87/87
f 15/15/15 17/17/17 87/87/87
f 17/17/17 27/27/27 87/87/87
f 27/27/27 32/32/32 87/87/87
f 32/32/32 35/35/35 87/87/87
f 35/35/35 36/36/36 87/87/87
f 36/36/36 41/41/41 87/87/87
f 90/90/90 89/89/89 88/88/88
f 92/92/92 91/91/91 89/89/89
f 90/90/90 92/92/92 89/89/89
f 95/95/95 94/94/94 93/93/93
f 96/96/96 95/95/95 93/93/93
f 96/96/96 93/93/93 91/91/91
f 92/92/92 96/96/96 91/91/91
f 95/95/95 97/97/97 94/94/94
