g AcidTurret_03
v -0.109948605 -0.044396684 0.25765532
v -0.11402956 0.0061879605 -0.0072578043
v 0.11072615 0.0061879605 -0.0072578043
v 0.10583013 -0.04702176 0.2560308
v -0.110291496 -0.092738494 0.24344507
v -0.109948605 -0.044396684 0.25765532
v 0.10583013 -0.04702176 0.2560308
v 0.10698809 -0.092738494 0.24344507
v 0.10583013 -0.04702176 0.2560308
v 0.11072615 0.0061879605 -0.0072578043
v 0.11055189 -0.087814376 0.0073852614
v 0.10698809 -0.092738494 0.24344507
v -0.11385529 -0.087814376 0.0073852614
v -0.11402956 0.0061879605 -0.0072578043
v -0.109948605 -0.044396684 0.25765532
v -0.110291496 -0.092738494 0.24344507
v 0.11072615 0.0061879605 -0.0072578043
v -0.11402956 0.0061879605 -0.0072578043
v -0.11385529 -0.087814376 0.0073852614
v 0.11055189 -0.087814376 0.0073852614
vt 0.1104593 0.88238525
vt 0.11799028 0.88238525
vt 0.11799028 0.8757956
vt 0.1104593 0.8757956
vt 0.10198694 0.9859363
vt 0.10010419 0.9859363
vt 0.10010419 0.99158454
vt 0.10198694 0.99158454
vt 0.043621805 0.9153333
vt 0.03609082 0.9153333
vt 0.03609082 0.91815746
vt 0.043621805 0.91815746
vt 0.043621805 0.91815746
vt 0.043621805 0.9153333
vt 0.03609082 0.9153333
vt 0.03609082 0.91815746
vt 0.10010419 0.99252594
vt 0.10010419 0.99911547
vt 0.10292831 0.99911547
vt 0.10292831 0.99252594
vn 0.0038881302 0.9841971 0.17703377
vn 0.0038881302 0.9841971 0.17703377
vn 0.0038881302 0.9841971 0.17703377
vn 0.0038881302 0.9841971 0.17703377
vn 0.0038881302 -0.27051425 0.9627081
vn 0.0038881302 -0.27051425 0.9627081
vn 0.0038881302 -0.27051425 0.9627081
vn 0.0038881302 -0.27051425 0.9627081
vn 0.9998153 0.003953874 0.018807894
vn 0.9998153 0.003953874 0.018807894
vn 0.9998153 0.003953874 0.018807894
vn 0.9998153 0.003953874 0.018807894
vn -0.99988097 0.003953874 0.014914014
vn -0.99988097 0.003953874 0.014914014
vn -0.99988097 0.003953874 0.014914014
vn -0.99988097 0.003953874 0.014914014
vn 0.0038881302 -0.15288508 -0.9882363
vn 0.0038881302 -0.15288508 -0.9882363
vn 0.0038881302 -0.15288508 -0.9882363
vn 0.0038881302 -0.15288508 -0.9882363
g AcidTurret_03_0
f 3/3/3 2/2/2 1/1/1
f 4/4/4 3/3/3 1/1/1
f 7/7/7 6/6/6 5/5/5
f 8/8/8 7/7/7 5/5/5
f 11/11/11 10/10/10 9/9/9
f 12/12/12 11/11/11 9/9/9
f 15/15/15 14/14/14 13/13/13
f 16/16/16 15/15/15 13/13/13
f 19/19/19 18/18/18 17/17/17
f 20/20/20 19/19/19 17/17/17
