g AimTriangleMesh
v -8.927983 0.43860316 1.6799057
v -4.7415295 0.43860316 0.17929637
v -4.7415295 0.025113821 0.17929637
v -8.927983 0.025113821 1.6799057
v -8.927983 0.025113821 -1.6799041
v -4.7415295 0.025113821 -0.1792947
v -4.7415295 0.43860316 -0.1792947
v -8.927983 0.43860316 -1.6799041
v -9.242689 0.43860316 -1.4766635
v -9.242689 0.43860316 1.476665
v -9.242689 0.025113821 1.476665
v -9.242689 0.025113821 -1.4766635
v -9.215991 0.43860316 1.5779517
v -9.215991 0.025113821 1.5779517
v -9.142237 0.43860316 1.6558771
v -9.142237 0.025113821 1.6558771
v -9.0382805 0.43860316 1.6927543
v -9.0382805 0.025113821 1.6927543
v -4.646083 0.43860316 0.108879685
v -4.646083 0.025113821 0.108879685
v -4.6100397 0.43860316 8.428097E-05
v -4.6100397 0.025113821 8.428097E-05
v -4.646083 0.43860316 -0.10887802
v -4.646083 0.025113821 -0.10887802
v -9.215991 0.025113821 -1.57795
v -9.215991 0.43860316 -1.57795
v -9.142237 0.025113821 -1.6558757
v -9.142237 0.43860316 -1.6558757
v -9.0382805 0.025113821 -1.6927526
v -9.0382805 0.43860316 -1.6927526
v -9.215991 0.43860316 -1.57795
v -9.142237 0.43860316 -1.6558757
v -9.142237 0.43860316 1.6558771
v -9.242689 0.43860316 -1.4766635
v -9.242689 0.43860316 1.476665
v -9.215991 0.43860316 1.5779517
v -9.0382805 0.43860316 -1.6927526
v -9.0382805 0.43860316 1.6927543
v -8.927983 0.43860316 -1.6799041
v -8.927983 0.43860316 1.6799057
v -4.7415295 0.43860316 -0.1792947
v -4.646083 0.43860316 -0.10887802
v -4.646083 0.43860316 0.108879685
v -4.7415295 0.43860316 0.17929637
v -4.6100397 0.43860316 8.428097E-05
vt 0.4930555 0.4882243
vt 0.5144924 0.49873152
vt 0.5144924 0.49873152
vt 0.4930555 0.4882243
vt 0.4930555 0.51177317
vt 0.5144924 0.50126594
vt 0.5144924 0.50126594
vt 0.4930555 0.51177317
vt 0.4914451 0.5103476
vt 0.4914451 0.4896499
vt 0.4914451 0.4896499
vt 0.4914451 0.5103476
vt 0.4915771 0.48893708
vt 0.4915771 0.48893708
vt 0.4919467 0.48840907
vt 0.4919467 0.48840907
vt 0.4925011 0.48814508
vt 0.4925011 0.48814508
vt 0.5149676 0.49923313
vt 0.5149676 0.49923313
vt 0.5151524 0.49999872
vt 0.5151524 0.49999872
vt 0.5149676 0.5007643
vt 0.5149676 0.5007643
vt 0.4915771 0.51106036
vt 0.4915771 0.51106036
vt 0.4919467 0.5115884
vt 0.4919467 0.5115884
vt 0.4925011 0.5118524
vt 0.4925011 0.5118524
vt 0.4915771 0.51106036
vt 0.4919467 0.5115884
vt 0.4919467 0.48840907
vt 0.4914451 0.5103476
vt 0.4914451 0.4896499
vt 0.4915771 0.48893708
vt 0.4925011 0.5118524
vt 0.4925011 0.48814508
vt 0.4930555 0.51177317
vt 0.4930555 0.4882243
vt 0.5144924 0.50126594
vt 0.5149676 0.5007643
vt 0.5149676 0.49923313
vt 0.5144924 0.49873152
vt 0.5151524 0.49999872
vn 0.3333308 0.003921509 0.9428018
vn 0.3411739 0.003921509 0.939992
vn 0.3411739 0.003921509 0.939992
vn 0.3333308 0.003921509 0.9428018
vn 0.3333308 0.003921509 -0.9428018
vn 0.3411739 0.003921509 -0.939992
vn 0.3411739 0.003921509 -0.939992
vn 0.3333308 0.003921509 -0.9428018
vn -0.99999225 0.003921509 -0.00034492963
vn -0.99999225 0.003921509 -0.00034492963
vn -0.99999225 0.003921509 -0.00034492963
vn -0.99999225 0.003921509 -0.00034492963
vn -0.874503 0.003921509 0.4850042
vn -0.874503 0.003921509 0.4850042
vn -0.5450938 0.003921509 0.8383659
vn -0.5450938 0.003921509 0.8383659
vn -0.11372459 0.003921509 0.9935046
vn -0.11372459 0.003921509 0.9935046
vn 0.80391544 0.003921509 0.5947307
vn 0.80391544 0.003921509 0.5947307
vn 0.9999924 0.003921509 -0
vn 0.9999924 0.003921509 -0
vn 0.80391544 0.003921509 -0.5947307
vn 0.80391544 0.003921509 -0.5947307
vn -0.874503 0.003921509 -0.4850042
vn -0.874503 0.003921509 -0.4850042
vn -0.5450938 0.003921509 -0.8383659
vn -0.5450938 0.003921509 -0.8383659
vn -0.11372459 0.003921509 -0.9935046
vn -0.11372459 0.003921509 -0.9935046
vn -0.003921509 0.99999225 -0.00034526698
vn -0.003921509 0.99999225 -0.00034526698
vn -0.003921509 0.99999225 -0.00034526698
vn -0.003921509 0.99999225 -0.00034526698
vn -0.003921509 0.99999225 -0.00034526698
vn -0.003921509 0.99999225 -0.00034526698
vn -0.003921509 0.99999225 -0.00034526698
vn -0.003921509 0.99999225 -0.00034526698
vn -0.003921509 0.99999225 -0.00034526698
vn -0.003921509 0.99999225 -0.00034526698
vn -0.003921509 0.99999225 -0.00034526698
vn -0.003921509 0.99999225 -0.00034526698
vn -0.003921509 0.99999225 -0.00034526698
vn -0.003921509 0.99999225 -0.00034526698
vn -0.003921509 0.99999225 -0.00034526698
g AimTriangleMesh_0
f 3/3/3 2/2/2 1/1/1
f 4/4/4 3/3/3 1/1/1
f 7/7/7 6/6/6 5/5/5
f 8/8/8 7/7/7 5/5/5
f 11/11/11 10/10/10 9/9/9
f 12/12/12 11/11/11 9/9/9
f 13/13/13 10/10/10 11/11/11
f 14/14/14 13/13/13 11/11/11
f 15/15/15 13/13/13 14/14/14
f 16/16/16 15/15/15 14/14/14
f 17/17/17 15/15/15 16/16/16
f 18/18/18 17/17/17 16/16/16
f 1/1/1 17/17/17 18/18/18
f 4/4/4 1/1/1 18/18/18
f 19/19/19 2/2/2 3/3/3
f 20/20/20 19/19/19 3/3/3
f 21/21/21 19/19/19 20/20/20
f 22/22/22 21/21/21 20/20/20
f 23/23/23 21/21/21 22/22/22
f 24/24/24 23/23/23 22/22/22
f 7/7/7 23/23/23 24/24/24
f 6/6/6 7/7/7 24/24/24
f 25/25/25 12/12/12 9/9/9
f 26/26/26 25/25/25 9/9/9
f 27/27/27 25/25/25 26/26/26
f 28/28/28 27/27/27 26/26/26
f 29/29/29 27/27/27 28/28/28
f 30/30/30 29/29/29 28/28/28
f 5/5/5 29/29/29 30/30/30
f 8/8/8 5/5/5 30/30/30
f 33/33/33 32/32/32 31/31/31
f 31/31/31 34/34/34 33/33/33
f 34/34/34 35/35/35 33/33/33
f 35/35/35 36/36/36 33/33/33
f 33/33/33 38/38/38 37/37/37
f 32/32/32 33/33/33 37/37/37
f 40/40/40 39/39/39 37/37/37
f 38/38/38 40/40/40 37/37/37
f 43/43/43 42/42/42 41/41/41
f 44/44/44 43/43/43 41/41/41
f 44/44/44 41/41/41 39/39/39
f 40/40/40 44/44/44 39/39/39
f 43/43/43 45/45/45 42/42/42
