g AirShassi_01_CorpsePart
v 0.07779214 0.10995847 0.077968806
v 1.052022E-05 0.1099405 0.11041674
v -0.024916261 0.1614205 0.059134424
v 0.060602188 0.1614205 0.023945808
v 0.11202827 0.10975179 -0.00041487813
v -0.0777711 0.10995847 0.077968806
v -0.11201623 0.10975179 -0.00041487813
v -0.061165243 0.1614205 -0.025826901
v -0.080637604 0.109185696 -0.07884349
v 1.5199184E-06 0.10884422 -0.11134535
v 0.025512397 0.1614205 -0.061024517
v 0.080649644 0.109185696 -0.07884349
v 0.07779214 0.10995847 0.077968806
v 0.077154145 -0.14081 0.081365466
v 1.052022E-05 -0.13905776 0.11403805
v 1.052022E-05 0.1099405 0.11041674
v -0.07713312 -0.14081 0.081365466
v -0.0777711 0.10995847 0.077968806
v -0.11111766 -0.14528495 0.0024515986
v -0.11201623 0.10975179 -0.00041487813
v -0.080008596 -0.15012833 -0.076507166
v -0.080637604 0.109185696 -0.07884349
v 1.5199184E-06 -0.15224001 -0.10923368
v 1.5199184E-06 0.10884422 -0.11134535
v 1.5199184E-06 0.10884422 -0.11134535
v 1.5199184E-06 -0.15224001 -0.10923368
v 0.08001165 -0.15012833 -0.076507166
v 0.080649644 0.109185696 -0.07884349
v 0.111129686 -0.14528495 0.0024515986
v 0.11202827 0.10975179 -0.00041487813
v -0.21647689 0.022552997 -0.18723994
v -0.21082479 0.10861957 -0.1650179
v -0.26043573 0.10380316 -0.14453913
v -0.27958462 0.022552997 -0.15469316
v -0.25069508 0.10952714 -0.09231329
v -0.27230605 0.022552997 -0.0846843
v -0.17433318 0.022552997 0.0042397976
v -0.15974915 0.11011124 -0.021118313
v -0.059601694 0.11021009 -0.0037755966
v -0.046437413 0.022552997 0.016703188
v -0.10043347 0.109140754 -0.12641464
v -0.033084422 0.10991353 -0.04981017
v -0.08661321 0.022552997 -0.15204233
v -0.0089663565 0.022552997 -0.048219666
v -0.055809677 0.022552997 0.27194664
v -0.03985077 0.10952714 0.2557002
v 1.9490719E-05 0.10405475 0.28735736
v 1.9490719E-05 0.022552997 0.30930087
v 0.039889768 0.10952714 0.2557002
v 0.055848658 0.022552997 0.27194664
v 0.0877395 0.022552997 0.1480765
v 0.059326187 0.110299945 0.14613557
v 0.026527792 0.11039877 0.05230519
v 0.03748156 0.022552997 0.031961173
v -0.05930516 0.110299945 0.14613557
v -0.026515752 0.11039877 0.05230519
v -0.08770949 0.022552997 0.1480765
v -0.037460536 0.022552997 0.031961173
v 0.2723181 0.022552997 -0.0846843
v 0.25069812 0.10952714 -0.09231329
v 0.26043877 0.10380316 -0.14453913
v 0.27958766 0.022552997 -0.15469316
v 0.21082783 0.10861957 -0.1650179
v 0.21647994 0.022552997 -0.18723994
v 0.08661626 0.022552997 -0.15204233
v 0.10043651 0.109140754 -0.12641464
v 0.033096462 0.10991353 -0.04981017
v 0.008978397 0.022552997 -0.048219666
v 0.15976118 0.11011124 -0.021118313
v 0.059613734 0.11021009 -0.0037755966
v 0.17435423 0.022552997 0.0042397976
v 0.046449453 0.022552997 0.016703188
v 0.08661626 0.022552997 -0.15204233
v 0.08001165 -0.15012833 -0.076507166
v 1.5199184E-06 -0.15224001 -0.10923368
v -0.080008596 -0.15012833 -0.076507166
v 0.111129686 -0.14528495 0.0024515986
v -0.11111766 -0.14528495 0.0024515986
v 0.077154145 -0.14081 0.081365466
v -0.07713312 -0.14081 0.081365466
v 1.052022E-05 -0.13905776 0.11403805
v 0.03748156 0.022552997 0.031961173
v -0.037460536 0.022552997 0.031961173
v -0.08770949 0.022552997 0.1480765
v 0.0877395 0.022552997 0.1480765
v -0.055809677 0.022552997 0.27194664
v 0.055848658 0.022552997 0.27194664
v 1.9490719E-05 0.022552997 0.30930087
v -0.046437413 0.022552997 0.016703188
v -0.0089663565 0.022552997 -0.048219666
v -0.08661321 0.022552997 -0.15204233
v -0.17433318 0.022552997 0.0042397976
v -0.21647689 0.022552997 -0.18723994
v -0.27230605 0.022552997 -0.0846843
v -0.27958462 0.022552997 -0.15469316
v 0.008978397 0.022552997 -0.048219666
v 0.046449453 0.022552997 0.016703188
v 0.17435423 0.022552997 0.0042397976
v 0.08661626 0.022552997 -0.15204233
v 0.2723181 0.022552997 -0.0846843
v 0.21647994 0.022552997 -0.18723994
v 0.27958766 0.022552997 -0.15469316
vt 0.18948336 0.8840825
vt 0.19247088 0.88482934
vt 0.19321775 0.88258874
vt 0.19023024 0.88184184
vt 0.1879896 0.881095
vt 0.19620529 0.8840825
vt 0.19695216 0.881095
vt 0.19471152 0.8796012
vt 0.19620529 0.8773606
vt 0.19247088 0.8766137
vt 0.191724 0.87885433
vt 0.18948336 0.8773606
vt 0.17155822 0.93113595
vt 0.1760395 0.93113595
vt 0.1760395 0.9296422
vt 0.17155822 0.9296422
vt 0.1760395 0.92814845
vt 0.17155822 0.92814845
vt 0.1760395 0.9266547
vt 0.17155822 0.9266547
vt 0.1760395 0.92516094
vt 0.17155822 0.92516094
vt 0.1760395 0.9236672
vt 0.17155822 0.9236672
vt 0.17155822 0.93561727
vt 0.1760395 0.93561727
vt 0.1760395 0.9341235
vt 0.17155822 0.9341235
vt 0.1760395 0.93262976
vt 0.17155822 0.93262976
vt 0.24101813 0.8982732
vt 0.2425119 0.8990201
vt 0.24176502 0.9005139
vt 0.24027124 0.9005139
vt 0.2425119 0.90200764
vt 0.24101813 0.9027545
vt 0.24475253 0.9042483
vt 0.24475253 0.90200764
vt 0.24848694 0.90126073
vt 0.24848694 0.9035014
vt 0.24475253 0.8982732
vt 0.24848694 0.8990201
vt 0.24475253 0.8967795
vt 0.24848694 0.8967795
vt 0.24101813 0.9027545
vt 0.2425119 0.90200764
vt 0.24176502 0.9005139
vt 0.24027124 0.9005139
vt 0.2425119 0.8990201
vt 0.24101813 0.8982732
vt 0.24475253 0.8967795
vt 0.24475253 0.8982732
vt 0.24848694 0.8990201
vt 0.24848694 0.8967795
vt 0.24475253 0.90200764
vt 0.24848694 0.90126073
vt 0.24475253 0.9042483
vt 0.24848694 0.9035014
vt 0.24101813 0.9027545
vt 0.2425119 0.90200764
vt 0.24176502 0.9005139
vt 0.24027124 0.9005139
vt 0.2425119 0.8990201
vt 0.24101813 0.8982732
vt 0.24475253 0.8967795
vt 0.24475253 0.8982732
vt 0.24848694 0.8990201
vt 0.24848694 0.8967795
vt 0.24475253 0.90200764
vt 0.24848694 0.90126073
vt 0.24475253 0.9042483
vt 0.24848694 0.9035014
vt 0.24475253 0.8967795
vt 0.1760395 0.9341235
vt 0.1760395 0.93561727
vt 0.1760395 0.92516094
vt 0.1760395 0.93262976
vt 0.1760395 0.9266547
vt 0.1760395 0.93113595
vt 0.1760395 0.92814845
vt 0.1760395 0.9296422
vt 0.24848694 0.8967795
vt 0.24848694 0.9035014
vt 0.24475253 0.9042483
vt 0.24475253 0.8967795
vt 0.24101813 0.9027545
vt 0.24101813 0.8982732
vt 0.24027124 0.9005139
vt 0.24848694 0.9035014
vt 0.24848694 0.8967795
vt 0.24475253 0.8967795
vt 0.24475253 0.9042483
vt 0.24101813 0.8982732
vt 0.24101813 0.9027545
vt 0.24027124 0.9005139
vt 0.24848694 0.8967795
vt 0.24848694 0.9035014
vt 0.24475253 0.9042483
vt 0.24475253 0.8967795
vt 0.24101813 0.9027545
vt 0.24101813 0.8982732
vt 0.24027124 0.9005139
vn 0.67842627 0.14509654 0.72019774
vn 0.027451098 0.14509654 0.9890366
vn -0.17646885 0.8901887 0.4200272
vn 0.42744792 0.8901887 0.15764642
vn 0.99160045 0.1293388 -0
vn -0.717641 0.14509654 0.68113023
vn -0.9916005 0.12933889 -0
vn -0.4274472 0.8901887 -0.15764831
vn -0.67842567 0.12156737 -0.72454125
vn -0.027450442 0.12156737 -0.99220353
vn 0.1764695 0.88234556 -0.43626237
vn 0.7176417 0.12156737 -0.68571985
vn 0.67842627 0.14509654 0.72019774
vn 0.7097986 0.003921151 0.70439374
vn -0.003921151 0.011764288 0.9999231
vn 0.027451098 0.14509654 0.9890366
vn -0.709798 0.003921151 0.7043944
vn -0.717641 0.14509654 0.68113023
vn -0.99999166 -0.0039218664 0.0011437939
vn -0.9916005 0.12933889 -0
vn -0.6941118 -0.011764944 -0.719771
vn -0.67842567 0.12156737 -0.72454125
vn -0.003921151 -0.011764944 -0.9999231
vn -0.027450442 0.12156737 -0.99220353
vn -0.027450442 0.12156737 -0.99220353
vn -0.003921151 -0.011764944 -0.9999231
vn 0.6941124 -0.011764944 -0.71977043
vn 0.7176417 0.12156737 -0.68571985
vn 0.9999924 -0.0039218664 -0
vn 0.99160045 0.1293388 -0
vn 0.05098033 0.27058578 -0.9613451
vn 0.05098033 0.7490133 -0.6605907
vn -0.8039148 0.40391803 -0.43654466
vn -0.84313023 0.2784288 -0.46000957
vn -0.52940726 0.7490133 0.39838058
vn -0.7803856 0.27058578 0.56372124
vn -0.40391803 0.27058578 0.8738613
vn -0.2784288 0.7411703 0.61085516
vn -0.08235192 0.76469946 0.63910323
vn -0.12941039 0.25489962 0.9582688
vn 0.37254637 0.73332715 -0.5687183
vn 0.5058787 0.75685644 -0.41382974
vn 0.52156484 0.27058578 -0.80916834
vn 0.75685704 0.24705648 -0.60508716
vn -0.8666594 0.27058578 0.41914773
vn -0.6078379 0.7411703 0.28495562
vn -0.003921151 0.3960749 0.91820985
vn -0.003921151 0.2784288 0.96044886
vn 0.60783863 0.7411703 0.28495404
vn 0.8666601 0.27058578 0.41914624
vn 0.960777 0.26274264 -0.08873487
vn 0.6862694 0.72548413 -0.052029453
vn 0.6156817 0.7490133 -0.24477567
vn 0.90587544 0.23921347 -0.34952337
vn -0.6862687 0.72548413 -0.05203919
vn -0.61568105 0.7490133 -0.24477737
vn -0.9607763 0.26274264 -0.08874193
vn -0.90587485 0.23921347 -0.34952497
vn 0.78038627 0.27058578 0.56372035
vn 0.52940786 0.7490133 0.39837968
vn 0.8039155 0.40391803 -0.43654338
vn 0.8431309 0.2784288 -0.4600084
vn -0.050979614 0.7490133 -0.66059077
vn -0.050979614 0.27058578 -0.9613451
vn -0.75685644 0.24705648 -0.60508794
vn -0.37254572 0.73332715 -0.56871873
vn -0.505878 0.75685644 -0.4138306
vn -0.75685644 0.24705648 -0.60508794
vn 0.2784295 0.7411703 0.6108548
vn 0.08235264 0.76469946 0.6391031
vn 0.40391868 0.27058578 0.87386096
vn 0.12941104 0.25489962 0.9582687
vn -0.2784288 0.27058578 -0.92155343
vn -0.003921151 -0.9999924 -0
vn -0.003921151 -0.9999924 -0
vn -0.003921151 -0.9999924 -0
vn -0.003921151 -0.9999924 -0
vn -0.003921151 -0.9999924 -0
vn -0.003921151 -0.9999924 -0
vn -0.003921151 -0.9999924 -0
vn -0.003921151 -0.9999924 -0
vn -0.003921151 -0.9999924 -0
vn -0.003921151 -0.9999924 -0
vn -0.003921151 -0.9999924 -0
vn -0.003921151 -0.9999924 -0
vn -0.003921151 -0.9999924 -0
vn -0.003921151 -0.9999924 -0
vn -0.003921151 -0.9999924 -0
vn -0.003921151 -0.9999924 -0
vn -0.003921151 -0.9999924 -0
vn -0.003921151 -0.9999924 -0
vn -0.003921151 -0.9999924 -0
vn -0.003921151 -0.9999924 -0
vn -0.003921151 -0.9999924 -0
vn -0.003921151 -0.9999924 -0
vn -0.003921151 -0.9999924 -0
vn -0.003921151 -0.9999924 -0
vn -0.003921151 -0.9999924 -0
vn -0.003921151 -0.9999924 -0
vn -0.003921151 -0.9999924 -0
vn -0.003921151 -0.9999924 -0
vn -0.003921151 -0.9999924 -0
g AirShassi_01_CorpsePart_0
f 3/3/3 2/2/2 1/1/1
f 4/4/4 3/3/3 1/1/1
f 1/1/1 5/5/5 4/4/4
f 3/3/3 6/6/6 2/2/2
f 8/8/8 7/7/7 6/6/6
f 3/3/3 8/8/8 6/6/6
f 8/8/8 9/9/9 7/7/7
f 11/11/11 10/10/10 9/9/9
f 8/8/8 11/11/11 9/9/9
f 11/11/11 12/12/12 10/10/10
f 4/4/4 5/5/5 12/12/12
f 11/11/11 4/4/4 12/12/12
f 15/15/15 14/14/14 13/13/13
f 16/16/16 15/15/15 13/13/13
f 17/17/17 15/15/15 16/16/16
f 18/18/18 17/17/17 16/16/16
f 19/19/19 17/17/17 18/18/18
f 20/20/20 19/19/19 18/18/18
f 21/21/21 19/19/19 20/20/20
f 22/22/22 21/21/21 20/20/20
f 23/23/23 21/21/21 22/22/22
f 24/24/24 23/23/23 22/22/22
f 27/27/27 26/26/26 25/25/25
f 28/28/28 27/27/27 25/25/25
f 29/29/29 27/27/27 28/28/28
f 30/30/30 29/29/29 28/28/28
f 14/14/14 29/29/29 30/30/30
f 13/13/13 14/14/14 30/30/30
f 3/3/3 4/4/4 8/8/8
f 8/8/8 4/4/4 11/11/11
f 33/33/33 32/32/32 31/31/31
f 34/34/34 33/33/33 31/31/31
f 35/35/35 33/33/33 34/34/34
f 36/36/36 35/35/35 34/34/34
f 39/39/39 38/38/38 37/37/37
f 40/40/40 39/39/39 37/37/37
f 39/39/39 42/42/42 41/41/41
f 38/38/38 39/39/39 41/41/41
f 43/43/43 41/41/41 42/42/42
f 44/44/44 43/43/43 42/42/42
f 33/33/33 35/35/35 32/32/32
f 37/37/37 38/38/38 35/35/35
f 36/36/36 37/37/37 35/35/35
f 38/38/38 41/41/41 32/32/32
f 35/35/35 38/38/38 32/32/32
f 32/32/32 41/41/41 43/43/43
f 31/31/31 32/32/32 43/43/43
f 47/47/47 46/46/46 45/45/45
f 48/48/48 47/47/47 45/45/45
f 49/49/49 47/47/47 48/48/48
f 50/50/50 49/49/49 48/48/48
f 53/53/53 52/52/52 51/51/51
f 54/54/54 53/53/53 51/51/51
f 53/53/53 56/56/56 55/55/55
f 52/52/52 53/53/53 55/55/55
f 57/57/57 55/55/55 56/56/56
f 58/58/58 57/57/57 56/56/56
f 47/47/47 49/49/49 46/46/46
f 51/51/51 52/52/52 49/49/49
f 50/50/50 51/51/51 49/49/49
f 52/52/52 55/55/55 46/46/46
f 49/49/49 52/52/52 46/46/46
f 46/46/46 55/55/55 57/57/57
f 45/45/45 46/46/46 57/57/57
f 61/61/61 60/60/60 59/59/59
f 62/62/62 61/61/61 59/59/59
f 63/63/63 61/61/61 62/62/62
f 64/64/64 63/63/63 62/62/62
f 67/67/67 66/66/66 65/65/65
f 68/68/68 67/67/67 65/65/65
f 67/67/67 70/70/70 69/69/69
f 66/66/66 67/67/67 69/69/69
f 71/71/71 69/69/69 70/70/70
f 72/72/72 71/71/71 70/70/70
f 61/61/61 63/63/63 60/60/60
f 73/73/73 66/66/66 63/63/63
f 64/64/64 73/73/73 63/63/63
f 66/66/66 69/69/69 60/60/60
f 63/63/63 66/66/66 60/60/60
f 60/60/60 69/69/69 71/71/71
f 59/59/59 60/60/60 71/71/71
f 76/76/76 75/75/75 74/74/74
f 74/74/74 77/77/77 76/76/76
f 77/77/77 78/78/78 76/76/76
f 77/77/77 79/79/79 78/78/78
f 79/79/79 80/80/80 78/78/78
f 79/79/79 81/81/81 80/80/80
f 84/84/84 83/83/83 82/82/82
f 85/85/85 84/84/84 82/82/82
f 86/86/86 84/84/84 85/85/85
f 87/87/87 86/86/86 85/85/85
f 86/86/86 87/87/87 88/88/88
f 91/91/91 90/90/90 89/89/89
f 92/92/92 91/91/91 89/89/89
f 93/93/93 91/91/91 92/92/92
f 94/94/94 93/93/93 92/92/92
f 93/93/93 94/94/94 95/95/95
f 98/98/98 97/97/97 96/96/96
f 99/99/99 98/98/98 96/96/96
f 100/100/100 98/98/98 99/99/99
f 101/101/101 100/100/100 99/99/99
f 100/100/100 101/101/101 102/102/102
