g AirShassi_03
v 0.21357995 0.7335979 0.45624292
v 0.26719505 0.7003046 0.32373512
v 0.22033173 0.80577207 0.28239298
v 0.18547529 0.8283223 0.3742237
v 0.21357995 0.7335979 0.45624292
v 0.21357995 0.9502866 0.40299368
v 0.26719505 0.91832376 0.27015328
v 0.26719505 0.7003046 0.32373512
v -0.18547332 0.8283223 0.3742237
v -0.22032976 0.80577207 0.28239298
v -0.26719308 0.7003046 0.32373512
v -0.21357799 0.7335979 0.45624292
v -0.26719308 0.91832376 0.27015328
v -0.21357799 0.9502866 0.40299368
v -0.21357799 0.7335979 0.45624292
v -0.26719308 0.7003046 0.32373512
v 0.18547529 0.8283223 0.3742237
v 0.22033173 0.80577207 0.28239298
v 0.26719505 0.91832376 0.27015328
v 0.21357995 0.9502866 0.40299368
v -0.21357799 0.9502866 0.40299368
v -0.26719308 0.91832376 0.27015328
v -0.22032976 0.80577207 0.28239298
v -0.18547332 0.8283223 0.3742237
v -0.18547332 0.8283223 0.3742237
v -0.21357799 0.7335979 0.45624292
v 0.21357995 0.7335979 0.45624292
v 0.18547529 0.8283223 0.3742237
v -0.21357799 0.7335979 0.45624292
v -0.21357799 0.9502866 0.40299368
v 0.21357995 0.9502866 0.40299368
v 0.21357995 0.7335979 0.45624292
v -0.21357799 0.9502866 0.40299368
v -0.18547332 0.8283223 0.3742237
v 0.18547529 0.8283223 0.3742237
v 0.21357995 0.9502866 0.40299368
v 0.22848046 1.0898457 -0.3628508
v 0.28242815 0.9471936 -0.3628508
v 0.24411267 0.9347544 -0.4095478
v 0.1960187 1.0453436 -0.4095478
v 0.22848046 1.0898457 -0.3628508
v 0.22848046 1.0898457 -0.45621157
v 0.28242815 0.9471936 -0.45624483
v 0.28242815 0.9471936 -0.3628508
v -0.19601679 1.0453436 -0.4095478
v -0.2441107 0.9347544 -0.4095478
v -0.28242624 0.9471936 -0.3628508
v -0.22847855 1.0898457 -0.3628508
v -0.28242624 0.9471936 -0.45624483
v -0.22847855 1.0898457 -0.45624483
v -0.22847855 1.0898457 -0.3628508
v -0.28242624 0.9471936 -0.3628508
v 0.1960187 1.0453436 -0.4095478
v 0.24411267 0.9347544 -0.4095478
v 0.28242815 0.9471936 -0.45624483
v 0.22848046 1.0898457 -0.45621157
v -0.22847855 1.0898457 -0.45624483
v -0.28242624 0.9471936 -0.45624483
v -0.2441107 0.9347544 -0.4095478
v -0.19601679 1.0453436 -0.4095478
v -0.19601679 1.0453436 -0.4095478
v -0.22847855 1.0898457 -0.3628508
v 0.22848046 1.0898457 -0.3628508
v 0.1960187 1.0453436 -0.4095478
v -0.22847855 1.0898457 -0.3628508
v -0.22847855 1.0898457 -0.45624483
v 0.22848046 1.0898457 -0.45621157
v 0.22848046 1.0898457 -0.3628508
v -0.22847855 1.0898457 -0.45624483
v -0.19601679 1.0453436 -0.4095478
v 0.1960187 1.0453436 -0.4095478
v 0.22848046 1.0898457 -0.45621157
v 0.15461004 -0.7305399 0.14719105
v 0.17177218 -0.7637334 0.072289586
v -0.17177022 -0.7637334 0.072289586
v -0.15460801 -0.7305399 0.14719105
v 0.40668744 -1.0898476 -0.29223984
v 0.3431276 -0.5924445 0.23792434
v 0.33694124 -0.1455633 0.31009853
v 0.40668744 -0.23726106 -0.29223984
v 0.40668744 -1.0898476 -0.29223984
v 0.26829267 -0.814854 0.00959456
v 0.2432146 -0.6063139 0.23569596
v 0.3431276 -0.5924445 0.23792434
v 0.26829267 -0.814854 0.00959456
v 0.22282624 -0.73875517 0.21430969
v 0.2432146 -0.6063139 0.23569596
v 0.33694124 -0.1455633 0.31009853
v 0.1665836 -0.40103328 0.2688229
v 0.12727028 -0.2933374 0.2862178
v -0.12726831 -0.2933374 0.2862178
v -0.33693933 -0.1455633 0.31009853
v 0.3431276 -0.5924445 0.23792434
v 0.12909961 -0.51325244 0.25072944
v 0.2432146 -0.6063139 0.23569596
v -0.2432127 -0.6063139 0.23569596
v -0.1290977 -0.51325244 0.25072944
v 0.12909961 -0.51325244 0.25072944
v 0.09903258 -0.48398364 0.26958787
v 0.12470931 -0.40702003 0.29506505
v 0.1665836 -0.40103328 0.2688229
v 0.097735465 -0.33088797 0.32044232
v 0.12727028 -0.2933374 0.2862178
v -0.0977335 -0.33088797 0.32044232
v -0.12726831 -0.2933374 0.2862178
v -0.1290977 -0.51325244 0.25072944
v -0.099030614 -0.48398364 0.26958787
v -0.12470734 -0.40702003 0.29506505
v 0.20107424 -0.79237026 0.06231165
v 0.1772933 -0.7524583 0.16767919
v 0.22282624 -0.73875517 0.21430969
v 0.26829267 -0.814854 0.00959456
v 0.20107424 -0.79237026 0.06231165
v 0.17177218 -0.7637334 0.072289586
v 0.15461004 -0.7305399 0.14719105
v 0.1772933 -0.7524583 0.16767919
v -0.26829076 -0.814854 0.00959456
v -0.40668547 -1.0898476 -0.29223984
v -0.20107222 -0.79237026 0.06231165
v -0.26829076 -0.814854 0.00959456
v -0.17177022 -0.7637334 0.072289586
v 0.17177218 -0.7637334 0.072289586
v 0.20107424 -0.79237026 0.06231165
v -0.20107222 -0.79237026 0.06231165
v 0.1772933 -0.7524583 0.16767919
v 0.15461004 -0.7305399 0.14719105
v -0.15460801 -0.7305399 0.14719105
v -0.1772914 -0.7524583 0.16767919
v -0.1772914 -0.7524583 0.16767919
v -0.22282434 -0.73875517 0.21430969
v 0.22282624 -0.73875517 0.21430969
v -0.22282434 -0.73875517 0.21430969
v -0.40668547 -1.0898476 -0.29223984
v -0.40668547 -0.23726106 -0.29223984
v -0.33693933 -0.1455633 0.31009853
v -0.3431257 -0.5924445 0.23792434
v -0.3431257 -0.5924445 0.23792434
v -0.2432127 -0.6063139 0.23569596
v -0.26829076 -0.814854 0.00959456
v -0.2432127 -0.6063139 0.23569596
v -0.22282434 -0.73875517 0.21430969
v -0.16658163 -0.40103328 0.2688229
v -0.3431257 -0.5924445 0.23792434
v -0.16658163 -0.40103328 0.2688229
v -0.20107222 -0.79237026 0.06231165
v -0.1772914 -0.7524583 0.16767919
v -0.15460801 -0.7305399 0.14719105
v -0.17177022 -0.7637334 0.072289586
v -0.06400788 -0.5397274 0.2124139
v -0.06400788 -0.49791962 0.27500927
v 0.064009786 -0.49791962 0.27500927
v 0.064009786 -0.5397274 0.2124139
v -0.06400788 -0.49791962 0.27500927
v -0.06400788 -0.43213135 0.2800647
v 0.064009786 -0.43213135 0.2800647
v 0.064009786 -0.49791962 0.27500927
v 0.064009786 -0.5397274 0.2124139
v 0.064009786 -0.49791962 0.27500927
v 0.064009786 -0.43213135 0.2800647
v -0.06400788 -0.43213135 0.2800647
v -0.06400788 -0.49791962 0.27500927
v -0.06400788 -0.5397274 0.2124139
vt 0.24182743 0.93998307
vt 0.24182743 0.9441587
vt 0.246003 0.9441587
vt 0.246003 0.93998307
vt 0.24182743 0.93998307
vt 0.2343114 0.93998307
vt 0.2343114 0.9441587
vt 0.24182743 0.9441587
vt 0.246003 0.9274564
vt 0.246003 0.9241159
vt 0.24182743 0.9241159
vt 0.24182743 0.9274564
vt 0.2343114 0.9241159
vt 0.2343114 0.9274564
vt 0.24182743 0.9274564
vt 0.24182743 0.9241159
vt 0.23180607 0.93998307
vt 0.23180607 0.9441587
vt 0.2343114 0.9441587
vt 0.2343114 0.93998307
vt 0.2343114 0.9274564
vt 0.2343114 0.9241159
vt 0.23180607 0.9241159
vt 0.23180607 0.9274564
vt 0.246003 0.9274564
vt 0.24182743 0.9274564
vt 0.24182743 0.93998307
vt 0.246003 0.93998307
vt 0.24182743 0.9274564
vt 0.2343114 0.9274564
vt 0.2343114 0.93998307
vt 0.24182743 0.93998307
vt 0.2343114 0.9274564
vt 0.23180607 0.9274564
vt 0.23180607 0.93998307
vt 0.2343114 0.93998307
vt 0.16249156 0.87901974
vt 0.16750225 0.87901974
vt 0.16750225 0.8765144
vt 0.16249156 0.8765144
vt 0.16249156 0.87901974
vt 0.16249156 0.8823602
vt 0.16750225 0.8823602
vt 0.16750225 0.87901974
vt 0.14912973 0.8765144
vt 0.14495416 0.8765144
vt 0.14495416 0.87901974
vt 0.14912973 0.87901974
vt 0.14495416 0.8823602
vt 0.14912973 0.8823602
vt 0.14912973 0.87901974
vt 0.14495416 0.87901974
vt 0.16249156 0.8840304
vt 0.16750225 0.8840304
vt 0.16750225 0.8823602
vt 0.16249156 0.8823602
vt 0.14912973 0.8823602
vt 0.14495416 0.8823602
vt 0.14495416 0.8840304
vt 0.14912973 0.8840304
vt 0.14912973 0.8765144
vt 0.14912973 0.87901974
vt 0.16249156 0.87901974
vt 0.16249156 0.8765144
vt 0.14912973 0.87901974
vt 0.14912973 0.8823602
vt 0.16249156 0.8823602
vt 0.16249156 0.87901974
vt 0.14912973 0.8823602
vt 0.14912973 0.8840304
vt 0.16249156 0.8840304
vt 0.16249156 0.8823602
vt 0.17167783 0.9232808
vt 0.17418316 0.9232808
vt 0.17418316 0.91325945
vt 0.17167783 0.91325945
vt 0.24767324 0.9224457
vt 0.2393221 0.91409457
vt 0.23765185 0.9057434
vt 0.24767324 0.9074136
vt 0.20925798 0.9575205
vt 0.2050824 0.9717174
vt 0.20424728 0.9825739
vt 0.20842285 0.98340905
vt 0.2050824 0.9717174
vt 0.20257705 0.9783984
vt 0.20424728 0.9825739
vt 0.20842285 0.9992762
vt 0.20090683 0.99008995
vt 0.20007172 0.99426556
vt 0.19005033 0.99426556
vt 0.18169919 0.9992762
vt 0.20842285 0.98340905
vt 0.20007172 0.9859144
vt 0.20424728 0.9825739
vt 0.18587476 0.9825739
vt 0.19005033 0.9859144
vt 0.20007172 0.9859144
vt 0.19840148 0.9875846
vt 0.1992366 0.99008995
vt 0.20090683 0.99008995
vt 0.19840148 0.9925953
vt 0.20007172 0.99426556
vt 0.19172058 0.9925953
vt 0.19005033 0.99426556
vt 0.19005033 0.9859144
vt 0.19172058 0.9875846
vt 0.19088545 0.99008995
vt 0.20257705 0.97338766
vt 0.20090683 0.97756326
vt 0.20257705 0.9783984
vt 0.2050824 0.9717174
vt 0.20257705 0.97338766
vt 0.20090683 0.9742228
vt 0.20007172 0.97672814
vt 0.20090683 0.97756326
vt 0.18503965 0.9717174
vt 0.18086408 0.9575205
vt 0.187545 0.97338766
vt 0.18503965 0.9717174
vt 0.18921523 0.9742228
vt 0.20090683 0.9742228
vt 0.20257705 0.97338766
vt 0.187545 0.97338766
vt 0.20090683 0.97756326
vt 0.20007172 0.97672814
vt 0.18921523 0.97672814
vt 0.18921523 0.97756326
vt 0.18921523 0.97756326
vt 0.187545 0.9783984
vt 0.20257705 0.9783984
vt 0.187545 0.9783984
vt 0.24767324 0.9224457
vt 0.24767324 0.9074136
vt 0.23765185 0.9057434
vt 0.2393221 0.91409457
vt 0.18169919 0.98340905
vt 0.18587476 0.9825739
vt 0.18503965 0.9717174
vt 0.18587476 0.9825739
vt 0.187545 0.9783984
vt 0.1883801 0.99008995
vt 0.18169919 0.98340905
vt 0.1883801 0.99008995
vt 0.187545 0.97338766
vt 0.18921523 0.97756326
vt 0.18921523 0.97672814
vt 0.18921523 0.9742228
vt 0.16583201 0.95334494
vt 0.16332668 0.95418006
vt 0.16332668 0.9575205
vt 0.16583201 0.9583556
vt 0.16332668 0.95418006
vt 0.16165645 0.95334494
vt 0.16165645 0.9583556
vt 0.16332668 0.9575205
vt 0.16583201 0.9583556
vt 0.16332668 0.9575205
vt 0.16165645 0.9583556
vt 0.16165645 0.95334494
vt 0.16332668 0.95418006
vt 0.16583201 0.95334494
vn -0.85881686 -0.45882004 -0.2278547
vn -0.85881686 -0.45882004 -0.2278547
vn -0.85881686 -0.45882004 -0.2278547
vn -0.85881686 -0.45882004 -0.2278547
vn 0.9294047 0.0901953 0.35787112
vn 0.9294047 0.0901953 0.35787112
vn 0.9294047 0.0901953 0.35787112
vn 0.9294047 0.0901953 0.35787112
vn 0.858817 -0.45882004 -0.2278543
vn 0.858817 -0.45882004 -0.2278543
vn 0.858817 -0.45882004 -0.2278543
vn 0.858817 -0.45882004 -0.2278543
vn -0.9294046 0.0901953 0.35787126
vn -0.9294046 0.0901953 0.35787126
vn -0.9294046 0.0901953 0.35787126
vn -0.9294046 0.0901953 0.35787126
vn -0.85881686 0.30195844 -0.4138293
vn -0.85881686 0.30195844 -0.4138293
vn -0.85881686 0.30195844 -0.4138293
vn -0.85881686 0.30195844 -0.4138293
vn 0.858817 0.30195844 -0.4138291
vn 0.858817 0.30195844 -0.4138291
vn 0.858817 0.30195844 -0.4138291
vn 0.858817 0.30195844 -0.4138291
vn -0.003921509 -0.654897 -0.755708
vn -0.003921509 -0.654897 -0.755708
vn -0.003921509 -0.654897 -0.755708
vn -0.003921509 -0.654897 -0.755708
vn -0.003921509 0.23921382 0.970959
vn -0.003921509 0.23921382 0.970959
vn -0.003921509 0.23921382 0.970959
vn -0.003921509 0.23921382 0.970959
vn -0.003921509 0.23137069 -0.9728578
vn -0.003921509 0.23137069 -0.9728578
vn -0.003921509 0.23137069 -0.9728578
vn -0.003921509 0.23137069 -0.9728578
vn -0.67842615 -0.2705862 0.68302345
vn -0.67842615 -0.2705862 0.68302345
vn -0.67842615 -0.2705862 0.68302345
vn -0.67842615 -0.2705862 0.68302345
vn 0.9345497 0.3558326 -0
vn 0.9345497 0.3558326 -0
vn 0.9345497 0.3558326 -0
vn 0.9345497 0.3558326 -0
vn 0.6784262 -0.2705862 0.6830234
vn 0.6784262 -0.2705862 0.6830234
vn 0.6784262 -0.2705862 0.6830234
vn 0.6784262 -0.2705862 0.6830234
vn -0.9345497 0.35583267 -0
vn -0.9345497 0.35583267 -0
vn -0.9345497 0.35583267 -0
vn -0.9345497 0.35583267 -0
vn -0.67842615 -0.2705862 -0.68302345
vn -0.67842615 -0.2705862 -0.68302345
vn -0.67842615 -0.2705862 -0.68302345
vn -0.67842615 -0.2705862 -0.68302345
vn 0.6784262 -0.2705862 -0.6830234
vn 0.6784262 -0.2705862 -0.6830234
vn 0.6784262 -0.2705862 -0.6830234
vn 0.6784262 -0.2705862 -0.6830234
vn -0.003921509 -0.72548467 0.6882271
vn -0.003921509 -0.72548467 0.6882271
vn -0.003921509 -0.72548467 0.6882271
vn -0.003921509 -0.72548467 0.6882271
vn -0.003921509 0.99999225 -0.00034526698
vn -0.003921509 0.99999225 -0.00034526698
vn -0.003921509 0.99999225 -0.00034526698
vn -0.003921509 0.99999225 -0.00034526698
vn -0.003921509 -0.72548467 -0.6882271
vn -0.003921509 -0.72548467 -0.6882271
vn -0.003921509 -0.72548467 -0.6882271
vn -0.003921509 -0.72548467 -0.6882271
vn -0.003921509 -0.9137185 0.40632877
vn -0.003921509 -0.9137185 0.40632877
vn -0.003921509 -0.9137185 0.40632877
vn -0.003921509 -0.9137185 0.40632877
vn 0.9921493 -0.0039215684 0.12499761
vn 0.9921493 -0.0039215684 0.12499761
vn 0.9921493 -0.0039215684 0.12499761
vn 0.9921493 -0.0039215684 0.12499761
vn 0.0039215684 -0.7411708 0.67130506
vn 0.011764646 -0.73332775 0.6797735
vn 0.066666186 -0.72548467 0.6850019
vn 0.066666186 -0.72548467 0.6850019
vn 0.93724775 -0.19215542 0.29093462
vn 0.93724775 -0.19215542 0.29093462
vn 0.93724775 -0.19215542 0.29093462
vn -0.003921509 -0.16078311 0.986982
vn -0.003921509 -0.16078311 0.986982
vn -0.003921509 -0.16078311 0.986982
vn -0.003921509 -0.16078311 0.986982
vn -0.003921509 -0.16078311 0.986982
vn -0.003921509 -0.16078311 0.986982
vn -0.003921509 -0.16078311 0.986982
vn -0.003921509 -0.16078311 0.986982
vn -0.003921509 -0.16078311 0.986982
vn -0.003921509 -0.16078311 0.986982
vn 0.18431234 -0.46666312 0.86501706
vn 0.066666186 -0.38823235 0.919147
vn 0.16078311 -0.2705862 0.94917434
vn 0.5450939 -0.1294108 0.8283269
vn 0.098038495 0.098038435 0.99034184
vn 0.23921388 0.50587845 0.8287724
vn -0.098038435 0.098038435 0.99034184
vn -0.23921382 0.50587845 0.8287724
vn -0.18431222 -0.46666312 0.86501706
vn -0.066666126 -0.38823235 0.919147
vn -0.16078305 -0.2705862 0.94917434
vn -0.011764526 -0.9215616 0.3880539
vn -0.019607663 -0.9529339 0.30254343
vn -0.019607663 -0.9529339 0.30254343
vn -0.011764526 -0.9215616 0.3880539
vn -0.7019553 -0.70195544 0.12048791
vn -0.7019553 -0.70195544 0.12048791
vn -0.7019553 -0.70195544 0.12048791
vn -0.7019553 -0.70195544 0.12048791
vn -0.011764526 -0.73332775 0.6797735
vn -0.003921509 -0.7411708 0.67130506
vn 0.011764646 -0.9215616 0.3880539
vn 0.011764646 -0.9215616 0.3880539
vn -0.003921509 -0.32548773 0.94553816
vn -0.003921509 -0.32548773 0.94553816
vn -0.003921509 -0.32548773 0.94553816
vn -0.003921509 -0.32548773 0.94553816
vn -0.003921509 -0.6862693 -0.727337
vn -0.003921509 -0.6862693 -0.727337
vn -0.003921509 -0.6862693 -0.727337
vn -0.003921509 -0.6862693 -0.727337
vn 0.019607723 -0.9529339 0.30254343
vn 0.019607723 -0.9529339 0.30254343
vn -0.003921509 -0.16078311 0.986982
vn -0.003921509 -0.16078311 0.986982
vn -0.99214923 -0.0039215684 0.124998085
vn -0.99214923 -0.0039215684 0.124998085
vn -0.99214923 -0.0039215684 0.124998085
vn -0.99214923 -0.0039215684 0.124998085
vn -0.066666126 -0.72548467 0.6850019
vn -0.066666126 -0.72548467 0.6850019
vn -0.93724763 -0.19215542 0.290935
vn -0.93724763 -0.19215542 0.290935
vn -0.93724763 -0.19215542 0.290935
vn -0.003921509 -0.16078311 0.986982
vn -0.003921509 -0.16078311 0.986982
vn -0.5450938 -0.1294108 0.828327
vn 0.70195544 -0.70195544 0.12048692
vn 0.70195544 -0.70195544 0.12048692
vn 0.70195544 -0.70195544 0.12048692
vn 0.70195544 -0.70195544 0.12048692
vn -0.003921509 -0.83528775 0.549799
vn -0.003921509 -0.83528775 0.549799
vn -0.003921509 -0.83528775 0.549799
vn -0.003921509 -0.83528775 0.549799
vn -0.003921509 -0.07450926 0.9972126
vn -0.003921509 -0.07450926 0.9972126
vn -0.003921509 -0.07450926 0.9972126
vn -0.003921509 -0.07450926 0.9972126
vn 0.9999924 0.003921509 -0
vn 0.9999924 0.003921509 -0
vn 0.9999924 0.003921509 -0
vn -0.99999225 0.003921509 -0.00034492963
vn -0.99999225 0.003921509 -0.00034492963
vn -0.99999225 0.003921509 -0.00034492963
g AirShassi_03_0
f 3/3/3 2/2/2 1/1/1
f 4/4/4 3/3/3 1/1/1
f 7/7/7 6/6/6 5/5/5
f 8/8/8 7/7/7 5/5/5
f 11/11/11 10/10/10 9/9/9
f 12/12/12 11/11/11 9/9/9
f 15/15/15 14/14/14 13/13/13
f 16/16/16 15/15/15 13/13/13
f 19/19/19 18/18/18 17/17/17
f 20/20/20 19/19/19 17/17/17
f 23/23/23 22/22/22 21/21/21
f 24/24/24 23/23/23 21/21/21
f 27/27/27 26/26/26 25/25/25
f 28/28/28 27/27/27 25/25/25
f 31/31/31 30/30/30 29/29/29
f 32/32/32 31/31/31 29/29/29
f 35/35/35 34/34/34 33/33/33
f 36/36/36 35/35/35 33/33/33
f 39/39/39 38/38/38 37/37/37
f 40/40/40 39/39/39 37/37/37
f 43/43/43 42/42/42 41/41/41
f 44/44/44 43/43/43 41/41/41
f 47/47/47 46/46/46 45/45/45
f 48/48/48 47/47/47 45/45/45
f 51/51/51 50/50/50 49/49/49
f 52/52/52 51/51/51 49/49/49
f 55/55/55 54/54/54 53/53/53
f 56/56/56 55/55/55 53/53/53
f 59/59/59 58/58/58 57/57/57
f 60/60/60 59/59/59 57/57/57
f 63/63/63 62/62/62 61/61/61
f 64/64/64 63/63/63 61/61/61
f 67/67/67 66/66/66 65/65/65
f 68/68/68 67/67/67 65/65/65
f 71/71/71 70/70/70 69/69/69
f 72/72/72 71/71/71 69/69/69
f 75/75/75 74/74/74 73/73/73
f 76/76/76 75/75/75 73/73/73
f 79/79/79 78/78/78 77/77/77
f 80/80/80 79/79/79 77/77/77
f 83/83/83 82/82/82 81/81/81
f 84/84/84 83/83/83 81/81/81
f 87/87/87 86/86/86 85/85/85
f 90/90/90 89/89/89 88/88/88
f 91/91/91 90/90/90 88/88/88
f 92/92/92 91/91/91 88/88/88
f 89/89/89 94/94/94 93/93/93
f 88/88/88 89/89/89 93/93/93
f 97/97/97 96/96/96 95/95/95
f 94/94/94 97/97/97 95/95/95
f 100/100/100 99/99/99 98/98/98
f 101/101/101 100/100/100 98/98/98
f 102/102/102 100/100/100 101/101/101
f 103/103/103 102/102/102 101/101/101
f 104/104/104 102/102/102 103/103/103
f 105/105/105 104/104/104 103/103/103
f 99/99/99 107/107/107 106/106/106
f 98/98/98 99/99/99 106/106/106
f 108/108/108 107/107/107 99/99/99
f 100/100/100 108/108/108 99/99/99
f 104/104/104 108/108/108 100/100/100
f 102/102/102 104/104/104 100/100/100
f 111/111/111 110/110/110 109/109/109
f 112/112/112 111/111/111 109/109/109
f 115/115/115 114/114/114 113/113/113
f 116/116/116 115/115/115 113/113/113
f 81/81/81 82/82/82 117/117/117
f 118/118/118 81/81/81 117/117/117
f 112/112/112 109/109/109 119/119/119
f 120/120/120 112/112/112 119/119/119
f 123/123/123 122/122/122 121/121/121
f 124/124/124 123/123/123 121/121/121
f 127/127/127 126/126/126 125/125/125
f 128/128/128 127/127/127 125/125/125
f 129/129/129 110/110/110 111/111/111
f 130/130/130 129/129/129 111/111/111
f 132/132/132 131/131/131 95/95/95
f 96/96/96 132/132/132 95/95/95
f 135/135/135 134/134/134 133/133/133
f 136/136/136 135/135/135 133/133/133
f 138/138/138 137/137/137 118/118/118
f 117/117/117 138/138/138 118/118/118
f 141/141/141 140/140/140 139/139/139
f 142/142/142 91/91/91 92/92/92
f 97/97/97 142/142/142 143/143/143
f 142/142/142 92/92/92 143/143/143
f 143/143/143 96/96/96 97/97/97
f 108/108/108 144/144/144 106/106/106
f 107/107/107 108/108/108 106/106/106
f 104/104/104 105/105/105 144/144/144
f 108/108/108 104/104/104 144/144/144
f 130/130/130 120/120/120 119/119/119
f 129/129/129 130/130/130 119/119/119
f 147/147/147 146/146/146 145/145/145
f 148/148/148 147/147/147 145/145/145
f 151/151/151 150/150/150 149/149/149
f 152/152/152 151/151/151 149/149/149
f 155/155/155 154/154/154 153/153/153
f 156/156/156 155/155/155 153/153/153
f 159/159/159 158/158/158 157/157/157
f 162/162/162 161/161/161 160/160/160
f 94/94/94 95/95/95 93/93/93
