g AirShassiPillow_01
v -0.08322224 0.1833806 0.04731378
v -0.10888249 0.17868352 0.059081346
v -0.15065983 0.18912041 -0.027800053
v -0.12499958 0.1938175 -0.039577574
v -0.15065983 0.18912041 -0.027800053
v -0.10888249 0.17868352 0.059081346
v -0.103470385 0.14763105 0.058485508
v -0.15866375 0.16722381 -0.05396676
v -0.15866375 0.16722381 -0.05396676
v -0.103470385 0.14763105 0.058485508
v -0.07781014 0.15231821 0.046708018
v -0.13299358 0.1719209 -0.06574425
v -0.16352966 0.26296312 -0.026370078
v -0.12716442 0.28364825 0.06110716
v -0.10149422 0.28833538 0.04932964
v -0.13784957 0.26766026 -0.038157493
v -0.17862391 0.28183097 -0.051762193
v -0.1325765 0.31470072 0.061702967
v -0.12716442 0.28364825 0.06110716
v -0.16352966 0.26296312 -0.026370078
v -0.1068964 0.3193978 0.049925476
v -0.1325765 0.31470072 0.061702967
v -0.17862391 0.28183097 -0.051762193
v -0.15295374 0.28652805 -0.06353971
v -0.17862391 0.28183097 -0.051762193
v -0.15866375 0.16722381 -0.05396676
v -0.13299358 0.1719209 -0.06574425
v -0.15295374 0.28652805 -0.06353971
v -0.13784957 0.26766026 -0.038157493
v -0.12499958 0.1938175 -0.039577574
v -0.15065983 0.18912041 -0.027800053
v -0.16352966 0.26296312 -0.026370078
v -0.07781014 0.15231821 0.046708018
v -0.103470385 0.14763105 0.058485508
v -0.10888249 0.17868352 0.059081346
v -0.08322224 0.1833806 0.04731378
v -0.1325765 0.31470072 0.061702967
v -0.1068964 0.3193978 0.049925476
v -0.10149422 0.28833538 0.04932964
v -0.12716442 0.28364825 0.06110716
v -0.14381775 0.27783895 0.03277561
v -0.13043153 0.27960658 0.062398106
v -0.112745404 0.17800826 0.060451746
v -0.12612173 0.17624062 0.030819297
v -0.13043153 0.27960658 0.062398106
v -0.092705786 0.28629965 0.056072414
v -0.07501969 0.18469143 0.05411613
v -0.112745404 0.17800826 0.060451746
v -0.11422506 0.28347945 0.008068681
v -0.14381775 0.27783895 0.03277561
v -0.12612173 0.17624062 0.030819297
v -0.09652901 0.18187118 0.0061123967
v -0.13043153 0.27960658 0.062398106
v -0.14381775 0.27783895 0.03277561
v -0.10346046 0.28488952 0.032090396
v -0.092705786 0.28629965 0.056072414
v -0.11422506 0.28347945 0.008068681
v -0.12612173 0.17624062 0.030819297
v -0.112745404 0.17800826 0.060451746
v -0.08576441 0.18329126 0.030124187
v -0.07501969 0.18469143 0.05411613
v -0.09652901 0.18187118 0.0061123967
v -0.05507937 0.15442348 -0.024701774
v -0.10116652 0.14599252 -0.0035598576
v -0.06928983 0.15017325 0.06753215
v -0.023222536 0.15860417 0.046390235
v -0.023222536 0.15860417 0.046390235
v -0.06928983 0.15017325 0.06753215
v -0.09834629 0.31696486 0.070759535
v -0.05226904 0.32539582 0.04961762
v -0.05226904 0.32539582 0.04961762
v -0.09834629 0.31696486 0.070759535
v -0.13020313 0.31278414 -0.00034239888
v -0.084125906 0.3212151 -0.02149424
v -0.084125906 0.3212151 -0.02149424
v -0.13020313 0.31278414 -0.00034239888
v -0.10116652 0.14599252 -0.0035598576
v -0.05507937 0.15442348 -0.024701774
v -0.10116652 0.14599252 -0.0035598576
v -0.13020313 0.31278414 -0.00034239888
v -0.09834629 0.31696486 0.070759535
v -0.06928983 0.15017325 0.06753215
v -0.004185885 -0.20848437 0.03279546
v 0.008534998 -0.19538613 0.06318259
v 0.087938786 -0.27482963 0.06421536
v 0.0752179 -0.2879378 0.033818305
v 0.008534998 -0.19538613 0.06318259
v 0.03738293 -0.16670702 0.05159378
v 0.1167867 -0.24615052 0.052616626
v 0.087938786 -0.27482963 0.06421536
v 0.01690638 -0.18779926 0.0023288727
v -0.004185885 -0.20848437 0.03279546
v 0.0752179 -0.2879378 0.033818305
v 0.09632008 -0.26725268 0.0033616424
v 0.008534998 -0.19538613 0.06318259
v -0.004185885 -0.20848437 0.03279546
v 0.02714464 -0.17724322 0.026976228
v 0.03738293 -0.16670702 0.05159378
v 0.01690638 -0.18779926 0.0023288727
v 0.0752179 -0.2879378 0.033818305
v 0.087938786 -0.27482963 0.06421536
v 0.10655835 -0.25669664 0.028008997
v 0.1167867 -0.24615052 0.052616626
v 0.09632008 -0.26725268 0.0033616424
v 0.14829598 -0.26924872 -0.03339091
v 0.11411542 -0.303042 -0.004721731
v 0.14444298 -0.2717909 0.06824714
v 0.17862354 -0.23799762 0.03957796
v 0.17862354 -0.23799762 0.03957796
v 0.14444298 -0.2717909 0.06824714
v 0.014076203 -0.14136454 0.06654903
v 0.048256755 -0.10757126 0.037879854
v 0.048256755 -0.10757126 0.037879854
v 0.014076203 -0.14136454 0.06654903
v -0.016251355 -0.17261563 -0.0064099133
v 0.01793915 -0.13882235 -0.035089016
v 0.01793915 -0.13882235 -0.035089016
v -0.016251355 -0.17261563 -0.0064099133
v 0.11411542 -0.303042 -0.004721731
v 0.14829598 -0.26924872 -0.03339091
v 0.11411542 -0.303042 -0.004721731
v -0.016251355 -0.17261563 -0.0064099133
v 0.014076203 -0.14136454 0.06654903
v 0.14444298 -0.2717909 0.06824714
v 0.10988505 -0.25315148 0.04628101
v 0.0908484 -0.27196965 0.062269002
v 0.041504055 -0.29813635 -0.02738297
v 0.06055063 -0.27930826 -0.04334119
v 0.041504055 -0.29813635 -0.02738297
v 0.0908484 -0.27196965 0.062269002
v 0.11512832 -0.2962595 0.062566906
v 0.046449423 -0.3253954 -0.05360928
v 0.046449423 -0.3253954 -0.05360928
v 0.11512832 -0.2962595 0.062566906
v 0.13416497 -0.27744132 0.046588838
v 0.06548607 -0.3065673 -0.06958735
v -0.016201705 -0.24039087 -0.028117836
v 0.008813053 -0.18990453 0.06120646
v 0.027859658 -0.17107642 0.045208514
v 0.002834946 -0.22156274 -0.044095904
v -0.043123126 -0.23578313 -0.054791003
v -0.015456915 -0.16561466 0.060878754
v 0.008813053 -0.18990453 0.06120646
v -0.016201705 -0.24039087 -0.028117836
v 0.0035797358 -0.14678656 0.044900686
v -0.015456915 -0.16561466 0.060878754
v -0.043123126 -0.23578313 -0.054791003
v -0.024086475 -0.21695504 -0.07075912
v -0.043123126 -0.23578313 -0.054791003
v 0.046449423 -0.3253954 -0.05360928
v 0.06548607 -0.3065673 -0.06958735
v -0.024086475 -0.21695504 -0.07075912
v 0.002834946 -0.22156274 -0.044095904
v 0.06055063 -0.27930826 -0.04334119
v 0.041504055 -0.29813635 -0.02738297
v -0.016201705 -0.24039087 -0.028117836
v 0.13416497 -0.27744132 0.046588838
v 0.11512832 -0.2962595 0.062566906
v 0.0908484 -0.27196965 0.062269002
v 0.10988505 -0.25315148 0.04628101
v -0.015456915 -0.16561466 0.060878754
v 0.0035797358 -0.14678656 0.044900686
v 0.027859658 -0.17107642 0.045208514
v 0.008813053 -0.18990453 0.06120646
vt 0.24351767 0.96108073
vt 0.24430361 0.96108073
vt 0.24430361 0.9650104
vt 0.24351767 0.9650104
vt 0.24430361 0.9650104
vt 0.24430361 0.96108073
vt 0.24587548 0.96108073
vt 0.24587548 0.9650104
vt 0.24587548 0.9650104
vt 0.24587548 0.96108073
vt 0.24666142 0.96108073
vt 0.24666142 0.9650104
vt 0.24430361 0.96815413
vt 0.24430361 0.9712979
vt 0.24351767 0.9712979
vt 0.24351767 0.96815413
vt 0.24587548 0.96815413
vt 0.24587548 0.9712979
vt 0.24430361 0.9712979
vt 0.24430361 0.96815413
vt 0.24666142 0.9712979
vt 0.24587548 0.9712979
vt 0.24587548 0.96815413
vt 0.24666142 0.96815413
vt 0.24587548 0.96815413
vt 0.24587548 0.9650104
vt 0.24666142 0.9650104
vt 0.24666142 0.96815413
vt 0.24351767 0.96815413
vt 0.24351767 0.9650104
vt 0.24430361 0.9650104
vt 0.24430361 0.96815413
vt 0.24587548 0.9602948
vt 0.24587548 0.96108073
vt 0.24430361 0.96108073
vt 0.24430361 0.9602948
vt 0.24587548 0.9712979
vt 0.24587548 0.97208387
vt 0.24430361 0.97208387
vt 0.24430361 0.9712979
vt 0.17435497 0.9744417
vt 0.17278309 0.9752276
vt 0.17278309 0.97208387
vt 0.17356902 0.9712979
vt 0.17278309 0.9752276
vt 0.17199714 0.9752276
vt 0.17199714 0.9712979
vt 0.17278309 0.97208387
vt 0.1751409 0.9752276
vt 0.17435497 0.9744417
vt 0.17356902 0.9712979
vt 0.17435497 0.9712979
vt 0.17278309 0.9752276
vt 0.17435497 0.9744417
vt 0.17356902 0.97601354
vt 0.17199714 0.9752276
vt 0.1751409 0.9752276
vt 0.17356902 0.9712979
vt 0.17278309 0.97208387
vt 0.17356902 0.970512
vt 0.17199714 0.9712979
vt 0.17435497 0.9712979
vt 0.1790706 0.87698513
vt 0.18064249 0.87698513
vt 0.18064249 0.879343
vt 0.1790706 0.879343
vt 0.18064249 0.88091487
vt 0.18064249 0.879343
vt 0.18614405 0.879343
vt 0.18614405 0.88091487
vt 0.18771595 0.879343
vt 0.18614405 0.879343
vt 0.18614405 0.87698513
vt 0.18771595 0.87698513
vt 0.18614405 0.87541324
vt 0.18614405 0.87698513
vt 0.18064249 0.87698513
vt 0.18064249 0.87541324
vt 0.18064249 0.87698513
vt 0.18614405 0.87698513
vt 0.18614405 0.879343
vt 0.18064249 0.879343
vt 0.17435497 0.9744417
vt 0.17278309 0.9752276
vt 0.17278309 0.97208387
vt 0.17356902 0.9712979
vt 0.17278309 0.9752276
vt 0.17199714 0.9752276
vt 0.17199714 0.9712979
vt 0.17278309 0.97208387
vt 0.1751409 0.9752276
vt 0.17435497 0.9744417
vt 0.17356902 0.9712979
vt 0.17435497 0.9712979
vt 0.17278309 0.9752276
vt 0.17435497 0.9744417
vt 0.17356902 0.97601354
vt 0.17199714 0.9752276
vt 0.1751409 0.9752276
vt 0.17356902 0.9712979
vt 0.17278309 0.97208387
vt 0.17356902 0.970512
vt 0.17199714 0.9712979
vt 0.17435497 0.9712979
vt 0.1790706 0.87698513
vt 0.18064249 0.87698513
vt 0.18064249 0.879343
vt 0.1790706 0.879343
vt 0.18064249 0.88091487
vt 0.18064249 0.879343
vt 0.18614405 0.879343
vt 0.18614405 0.88091487
vt 0.18771595 0.879343
vt 0.18614405 0.879343
vt 0.18614405 0.87698513
vt 0.18771595 0.87698513
vt 0.18614405 0.87541324
vt 0.18614405 0.87698513
vt 0.18064249 0.87698513
vt 0.18064249 0.87541324
vt 0.18064249 0.87698513
vt 0.18614405 0.87698513
vt 0.18614405 0.879343
vt 0.18064249 0.879343
vt 0.24351767 0.96108073
vt 0.24430361 0.96108073
vt 0.24430361 0.9650104
vt 0.24351767 0.9650104
vt 0.24430361 0.9650104
vt 0.24430361 0.96108073
vt 0.24587548 0.96108073
vt 0.24587548 0.9650104
vt 0.24587548 0.9650104
vt 0.24587548 0.96108073
vt 0.24666142 0.96108073
vt 0.24666142 0.9650104
vt 0.24430361 0.96815413
vt 0.24430361 0.9712979
vt 0.24351767 0.9712979
vt 0.24351767 0.96815413
vt 0.24587548 0.96815413
vt 0.24587548 0.9712979
vt 0.24430361 0.9712979
vt 0.24430361 0.96815413
vt 0.24666142 0.9712979
vt 0.24587548 0.9712979
vt 0.24587548 0.96815413
vt 0.24666142 0.96815413
vt 0.24587548 0.96815413
vt 0.24587548 0.9650104
vt 0.24666142 0.9650104
vt 0.24666142 0.96815413
vt 0.24351767 0.96815413
vt 0.24351767 0.9650104
vt 0.24430361 0.9650104
vt 0.24430361 0.96815413
vt 0.24587548 0.9602948
vt 0.24587548 0.96108073
vt 0.24430361 0.96108073
vt 0.24430361 0.9602948
vt 0.24587548 0.9712979
vt 0.24587548 0.97208387
vt 0.24430361 0.97208387
vt 0.24430361 0.9712979
vn -0.10427117 0.9770597 0.18569282
vn -0.10427117 0.9770597 0.18569282
vn -0.10427117 0.9770597 0.18569282
vn -0.10427117 0.9770597 0.18569282
vn -0.89982176 -0.16606152 0.40341586
vn -0.89982176 -0.16606152 0.40341586
vn -0.89982176 -0.16606152 0.40341586
vn -0.89982176 -0.16606152 0.40341586
vn 0.08109981 -0.9770597 -0.19691905
vn 0.08109981 -0.9770597 -0.19691905
vn 0.08109981 -0.9770597 -0.19691905
vn 0.08109981 -0.9770597 -0.19691905
vn 0.23557568 -0.96161216 0.14073431
vn 0.23557568 -0.96161216 0.14073431
vn 0.23557568 -0.96161216 0.14073431
vn 0.23557568 -0.96161216 0.14073431
vn -0.89982176 -0.16606152 0.40341586
vn -0.89982176 -0.16606152 0.40341586
vn -0.89982176 -0.16606152 0.40341586
vn -0.89982176 -0.16606152 0.40341586
vn -0.2510233 0.9538884 -0.1645727
vn -0.2510233 0.9538884 -0.1645727
vn -0.2510233 0.9538884 -0.1645727
vn -0.2510233 0.9538884 -0.1645727
vn -0.4054991 -0.050204635 -0.9127157
vn -0.4054991 -0.050204635 -0.9127157
vn -0.4054991 -0.050204635 -0.9127157
vn -0.4054991 -0.050204635 -0.9127157
vn 0.4054991 0.050204635 0.9127157
vn 0.4054991 0.050204635 0.9127157
vn 0.4054991 0.050204635 0.9127157
vn 0.4054991 0.050204635 0.9127157
vn 0.4054991 0.050204635 0.9127157
vn 0.4054991 0.050204635 0.9127157
vn 0.4054991 0.050204635 0.9127157
vn 0.4054991 0.050204635 0.9127157
vn 0.4054991 0.050204635 0.9127157
vn 0.4054991 0.050204635 0.9127157
vn 0.4054991 0.050204635 0.9127157
vn 0.4054991 0.050204635 0.9127157
vn -0.89209807 -0.16606152 0.42021972
vn -0.89209807 -0.16606152 0.42021972
vn -0.89209807 -0.16606152 0.42021972
vn -0.89209807 -0.16606152 0.42021972
vn 0.16606152 0.011585712 0.9860473
vn 0.16606152 0.011585712 0.9860473
vn 0.16606152 0.011585712 0.9860473
vn 0.16606152 0.011585712 0.9860473
vn -0.62948906 -0.096547425 -0.7709878
vn -0.62948906 -0.096547425 -0.7709878
vn -0.62948906 -0.096547425 -0.7709878
vn -0.62948906 -0.096547425 -0.7709878
vn -0.17378533 0.98478353 -0.00024414062
vn -0.17378533 0.98478353 -0.00024414062
vn -0.17378533 0.98478353 -0.00024414062
vn -0.17378533 0.98478353 -0.00024414062
vn -0.17378533 0.98478353 -0.00024414062
vn 0.17378533 -0.98478353 -0.00024414062
vn 0.17378533 -0.98478353 -0.00024414062
vn 0.17378533 -0.98478353 -0.00024414062
vn 0.17378533 -0.98478353 -0.00024414062
vn 0.17378533 -0.98478353 -0.00024414062
vn 0.17378533 -0.98478353 -0.00024414062
vn 0.17378533 -0.98478353 -0.00024414062
vn 0.17378533 -0.98478353 -0.00024414062
vn 0.17378533 -0.98478353 -0.00024414062
vn 0.4054991 0.050204635 0.9127157
vn 0.4054991 0.050204635 0.9127157
vn 0.4054991 0.050204635 0.9127157
vn 0.4054991 0.050204635 0.9127157
vn -0.17378533 0.98478353 -0.00024414062
vn -0.17378533 0.98478353 -0.00024414062
vn -0.17378533 0.98478353 -0.00024414062
vn -0.17378533 0.98478353 -0.00024414062
vn -0.4054991 -0.050204635 -0.9127157
vn -0.4054991 -0.050204635 -0.9127157
vn -0.4054991 -0.050204635 -0.9127157
vn -0.4054991 -0.050204635 -0.9127157
vn -0.89982176 -0.16606152 0.40341586
vn -0.89982176 -0.16606152 0.40341586
vn -0.89982176 -0.16606152 0.40341586
vn -0.89982176 -0.16606152 0.40341586
vn -0.60631776 -0.6063177 0.5145461
vn -0.60631776 -0.6063177 0.5145461
vn -0.60631776 -0.6063177 0.5145461
vn -0.60631776 -0.6063177 0.5145461
vn 0.18923289 0.19695675 0.9619766
vn 0.18923289 0.19695675 0.9619766
vn 0.18923289 0.19695675 0.9619766
vn 0.18923289 0.19695675 0.9619766
vn -0.50590837 -0.5136322 -0.69299257
vn -0.50590837 -0.5136322 -0.69299257
vn -0.50590837 -0.5136322 -0.69299257
vn -0.50590837 -0.5136322 -0.69299257
vn -0.706727 0.706727 -0.032769457
vn -0.706727 0.706727 -0.032769457
vn -0.706727 0.706727 -0.032769457
vn -0.706727 0.706727 -0.032769457
vn -0.706727 0.706727 -0.032769457
vn 0.706727 -0.706727 0.032769457
vn 0.706727 -0.706727 0.032769457
vn 0.706727 -0.706727 0.032769457
vn 0.706727 -0.706727 0.032769457
vn 0.706727 -0.706727 0.032769457
vn 0.706727 -0.706727 0.032769457
vn 0.706727 -0.706727 0.032769457
vn 0.706727 -0.706727 0.032769457
vn 0.706727 -0.706727 0.032769457
vn 0.35915637 0.36688018 0.8581408
vn 0.35915637 0.36688018 0.8581408
vn 0.35915637 0.36688018 0.8581408
vn 0.35915637 0.36688018 0.8581408
vn -0.706727 0.706727 -0.032769457
vn -0.706727 0.706727 -0.032769457
vn -0.706727 0.706727 -0.032769457
vn -0.706727 0.706727 -0.032769457
vn -0.35915637 -0.36688012 -0.8581409
vn -0.35915637 -0.36688012 -0.8581409
vn -0.35915637 -0.36688012 -0.8581409
vn -0.35915637 -0.36688012 -0.8581409
vn -0.61404145 -0.6063177 0.5053038
vn -0.61404145 -0.6063177 0.5053038
vn -0.61404145 -0.6063177 0.5053038
vn -0.61404145 -0.6063177 0.5053038
vn -0.6372129 0.76079357 0.123097
vn -0.6372129 0.76079357 0.123097
vn -0.6372129 0.76079357 0.123097
vn -0.6372129 0.76079357 0.123097
vn -0.61404145 -0.6063177 0.5053038
vn -0.61404145 -0.6063177 0.5053038
vn -0.61404145 -0.6063177 0.5053038
vn -0.61404145 -0.6063177 0.5053038
vn 0.6140415 -0.7685174 -0.17981683
vn 0.6140415 -0.7685174 -0.17981683
vn 0.6140415 -0.7685174 -0.17981683
vn 0.6140415 -0.7685174 -0.17981683
vn 0.75306976 -0.6372129 0.16384655
vn 0.75306976 -0.6372129 0.16384655
vn 0.75306976 -0.6372129 0.16384655
vn 0.75306976 -0.6372129 0.16384655
vn -0.61404145 -0.6063177 0.5053038
vn -0.61404145 -0.6063177 0.5053038
vn -0.61404145 -0.6063177 0.5053038
vn -0.61404145 -0.6063177 0.5053038
vn -0.7685174 0.61404145 -0.1798169
vn -0.7685174 0.61404145 -0.1798169
vn -0.7685174 0.61404145 -0.1798169
vn -0.7685174 0.61404145 -0.1798169
vn -0.35915637 -0.36688012 -0.8581409
vn -0.35915637 -0.36688012 -0.8581409
vn -0.35915637 -0.36688012 -0.8581409
vn -0.35915637 -0.36688012 -0.8581409
vn 0.35915637 0.36688018 0.8581408
vn 0.35915637 0.36688018 0.8581408
vn 0.35915637 0.36688018 0.8581408
vn 0.35915637 0.36688018 0.8581408
vn 0.35915637 0.36688018 0.8581408
vn 0.35915637 0.36688018 0.8581408
vn 0.35915637 0.36688018 0.8581408
vn 0.35915637 0.36688018 0.8581408
vn 0.35915637 0.36688018 0.8581408
vn 0.35915637 0.36688018 0.8581408
vn 0.35915637 0.36688018 0.8581408
vn 0.35915637 0.36688018 0.8581408
g AirShassiPillow_01_0
f 3/3/3 2/2/2 1/1/1
f 4/4/4 3/3/3 1/1/1
f 7/7/7 6/6/6 5/5/5
f 8/8/8 7/7/7 5/5/5
f 11/11/11 10/10/10 9/9/9
f 12/12/12 11/11/11 9/9/9
f 15/15/15 14/14/14 13/13/13
f 16/16/16 15/15/15 13/13/13
f 19/19/19 18/18/18 17/17/17
f 20/20/20 19/19/19 17/17/17
f 23/23/23 22/22/22 21/21/21
f 24/24/24 23/23/23 21/21/21
f 20/20/20 17/17/17 8/8/8
f 5/5/5 20/20/20 8/8/8
f 27/27/27 26/26/26 25/25/25
f 28/28/28 27/27/27 25/25/25
f 31/31/31 30/30/30 29/29/29
f 32/32/32 31/31/31 29/29/29
f 35/35/35 34/34/34 33/33/33
f 36/36/36 35/35/35 33/33/33
f 39/39/39 38/38/38 37/37/37
f 40/40/40 39/39/39 37/37/37
f 43/43/43 42/42/42 41/41/41
f 44/44/44 43/43/43 41/41/41
f 47/47/47 46/46/46 45/45/45
f 48/48/48 47/47/47 45/45/45
f 51/51/51 50/50/50 49/49/49
f 52/52/52 51/51/51 49/49/49
f 55/55/55 54/54/54 53/53/53
f 55/55/55 53/53/53 56/56/56
f 55/55/55 57/57/57 54/54/54
f 60/60/60 59/59/59 58/58/58
f 60/60/60 61/61/61 59/59/59
f 60/60/60 58/58/58 62/62/62
f 65/65/65 64/64/64 63/63/63
f 66/66/66 65/65/65 63/63/63
f 69/69/69 68/68/68 67/67/67
f 70/70/70 69/69/69 67/67/67
f 73/73/73 72/72/72 71/71/71
f 74/74/74 73/73/73 71/71/71
f 77/77/77 76/76/76 75/75/75
f 78/78/78 77/77/77 75/75/75
f 81/81/81 80/80/80 79/79/79
f 82/82/82 81/81/81 79/79/79
f 85/85/85 84/84/84 83/83/83
f 86/86/86 85/85/85 83/83/83
f 89/89/89 88/88/88 87/87/87
f 90/90/90 89/89/89 87/87/87
f 93/93/93 92/92/92 91/91/91
f 94/94/94 93/93/93 91/91/91
f 97/97/97 96/96/96 95/95/95
f 97/97/97 95/95/95 98/98/98
f 97/97/97 99/99/99 96/96/96
f 102/102/102 101/101/101 100/100/100
f 102/102/102 103/103/103 101/101/101
f 102/102/102 100/100/100 104/104/104
f 107/107/107 106/106/106 105/105/105
f 108/108/108 107/107/107 105/105/105
f 111/111/111 110/110/110 109/109/109
f 112/112/112 111/111/111 109/109/109
f 115/115/115 114/114/114 113/113/113
f 116/116/116 115/115/115 113/113/113
f 119/119/119 118/118/118 117/117/117
f 120/120/120 119/119/119 117/117/117
f 123/123/123 122/122/122 121/121/121
f 124/124/124 123/123/123 121/121/121
f 127/127/127 126/126/126 125/125/125
f 128/128/128 127/127/127 125/125/125
f 131/131/131 130/130/130 129/129/129
f 132/132/132 131/131/131 129/129/129
f 135/135/135 134/134/134 133/133/133
f 136/136/136 135/135/135 133/133/133
f 139/139/139 138/138/138 137/137/137
f 140/140/140 139/139/139 137/137/137
f 143/143/143 142/142/142 141/141/141
f 144/144/144 143/143/143 141/141/141
f 147/147/147 146/146/146 145/145/145
f 148/148/148 147/147/147 145/145/145
f 144/144/144 141/141/141 132/132/132
f 129/129/129 144/144/144 132/132/132
f 151/151/151 150/150/150 149/149/149
f 152/152/152 151/151/151 149/149/149
f 155/155/155 154/154/154 153/153/153
f 156/156/156 155/155/155 153/153/153
f 159/159/159 158/158/158 157/157/157
f 160/160/160 159/159/159 157/157/157
f 163/163/163 162/162/162 161/161/161
f 164/164/164 163/163/163 161/161/161
