g ball
v 0.0028610365 -0.0033889106 0.0072510745
v -1.2759119E-07 -0.0016199085 0.008344
v 0.005483091 0.0017681103 0.006250074
v 0.005483091 -0.0017681108 0.006250074
v -1.2759119E-07 0.001619909 0.008344
v 0.0028610365 0.0033889106 0.0072510745
v 0.0072510745 0.002861037 0.0033889106
v 0.005483091 0.0017681103 0.006250074
v 0.0033889106 0.0072510745 0.002861037
v 0.006250074 0.005483091 0.0017681103
v 0.0028610365 0.0033889106 0.0072510745
v 0.0017681108 0.006250074 0.005483091
v 0.0016199085 0.008344 1.2759119E-07
v 0.0033889106 0.0072510745 0.002861037
v -0.0033889106 0.0072510745 0.002861037
v -0.001619909 0.008344 1.2759119E-07
v 0.0017681108 0.006250074 0.005483091
v -0.0017681103 0.006250074 0.005483091
v -0.006250074 0.005483091 0.0017681103
v -0.0033889106 0.0072510745 0.002861037
v -0.005483091 0.0017681103 0.006250074
v -0.0072510745 0.002861037 0.0033889106
v -0.0017681103 0.006250074 0.005483091
v -0.002861037 0.0033889106 0.0072510745
v -0.005483091 -0.0017681108 0.006250074
v -0.005483091 0.0017681103 0.006250074
v -1.2759119E-07 -0.0016199085 0.008344
v -0.002861037 -0.0033889106 0.0072510745
v -0.002861037 0.0033889106 0.0072510745
v -1.2759119E-07 0.001619909 0.008344
v -0.0072510745 -0.0028610365 0.0033889106
v -0.005483091 -0.0017681108 0.006250074
v -0.0033889106 -0.0072510745 0.002861037
v -0.006250074 -0.005483091 0.0017681103
v -0.002861037 -0.0033889106 0.0072510745
v -0.0017681103 -0.006250074 0.005483091
v -0.001619909 -0.008344 1.2759119E-07
v -0.0033889106 -0.0072510745 0.002861037
v 0.0033889106 -0.0072510745 0.002861037
v 0.0016199085 -0.008344 1.2759119E-07
v -0.0017681103 -0.006250074 0.005483091
v 0.0017681108 -0.006250074 0.005483091
v 0.006250074 -0.005483091 0.0017681103
v 0.0033889106 -0.0072510745 0.002861037
v 0.005483091 -0.0017681108 0.006250074
v 0.0072510745 -0.0028610365 0.0033889106
v 0.0017681108 -0.006250074 0.005483091
v 0.0028610365 -0.0033889106 0.0072510745
v 0.008344 1.2759119E-07 0.001619909
v 0.0072510745 0.002861037 0.0033889106
v 0.0072510745 0.002861037 -0.0033889106
v 0.008344 1.2759119E-07 -0.0016199085
v 0.006250074 0.005483091 0.0017681103
v 0.006250074 0.005483091 -0.0017681108
v 0.0072510745 -0.0028610365 0.0033889106
v 0.008344 1.2759119E-07 0.001619909
v 0.006250074 -0.005483091 -0.0017681108
v 0.006250074 -0.005483091 0.0017681103
v 0.008344 1.2759119E-07 -0.0016199085
v 0.0072510745 -0.0028610365 -0.0033889106
v -0.0033889106 -0.0072510745 -0.0028610365
v -0.001619909 -0.008344 1.2759119E-07
v 0.0017681108 -0.006250074 -0.005483091
v -0.0017681103 -0.006250074 -0.005483091
v 0.0016199085 -0.008344 1.2759119E-07
v 0.0033889106 -0.0072510745 -0.0028610365
v 0.0028610365 -0.0033889106 -0.0072510745
v 0.0017681108 -0.006250074 -0.005483091
v 0.0072510745 -0.0028610365 -0.0033889106
v 0.005483091 -0.0017681108 -0.006250074
v 0.0033889106 -0.0072510745 -0.0028610365
v 0.006250074 -0.005483091 -0.0017681108
v 0.005483091 0.0017681103 -0.006250074
v 0.0072510745 0.002861037 -0.0033889106
v 0.0017681108 0.006250074 -0.005483091
v 0.0028610365 0.0033889106 -0.0072510745
v 0.006250074 0.005483091 -0.0017681108
v 0.0033889106 0.0072510745 -0.0028610365
v 0.005483091 -0.0017681108 -0.006250074
v 0.005483091 0.0017681103 -0.006250074
v -1.2759119E-07 -0.0016199085 -0.008344
v 0.0028610365 -0.0033889106 -0.0072510745
v 0.0028610365 0.0033889106 -0.0072510745
v -1.2759119E-07 0.001619909 -0.008344
v -0.006250074 -0.005483091 -0.0017681108
v -0.0033889106 -0.0072510745 -0.0028610365
v -0.005483091 -0.0017681108 -0.006250074
v -0.0072510745 -0.0028610365 -0.0033889106
v -0.0017681103 -0.006250074 -0.005483091
v -0.002861037 -0.0033889106 -0.0072510745
v -0.005483091 0.0017681103 -0.006250074
v -0.005483091 -0.0017681108 -0.006250074
v -1.2759119E-07 0.001619909 -0.008344
v -0.002861037 0.0033889106 -0.0072510745
v -0.002861037 -0.0033889106 -0.0072510745
v -1.2759119E-07 -0.0016199085 -0.008344
v -0.0017681103 0.006250074 -0.005483091
v 0.0017681108 0.006250074 -0.005483091
v -0.001619909 0.008344 1.2759119E-07
v -0.0033889106 0.0072510745 -0.0028610365
v 0.0033889106 0.0072510745 -0.0028610365
v 0.0016199085 0.008344 1.2759119E-07
v -0.002861037 0.0033889106 -0.0072510745
v -0.0017681103 0.006250074 -0.005483091
v -0.0072510745 0.002861037 -0.0033889106
v -0.005483091 0.0017681103 -0.006250074
v -0.0033889106 0.0072510745 -0.0028610365
v -0.006250074 0.005483091 -0.0017681108
v -0.006250074 -0.005483091 0.0017681103
v -0.006250074 -0.005483091 -0.0017681108
v -0.008344 1.2759119E-07 0.001619909
v -0.0072510745 -0.0028610365 0.0033889106
v -0.0072510745 -0.0028610365 -0.0033889106
v -0.008344 1.2759119E-07 -0.0016199085
v -0.0072510745 0.002861037 0.0033889106
v -0.008344 1.2759119E-07 0.001619909
v -0.006250074 0.005483091 -0.0017681108
v -0.006250074 0.005483091 0.0017681103
v -0.008344 1.2759119E-07 -0.0016199085
v -0.0072510745 0.002861037 -0.0033889106
v 0.0017681108 0.006250074 0.005483091
v 0.0028610365 0.0033889106 0.0072510745
v -0.002861037 0.0033889106 0.0072510745
v -0.0017681103 0.006250074 0.005483091
v -1.2759119E-07 0.001619909 0.008344
v -0.0017681103 -0.006250074 0.005483091
v -0.002861037 -0.0033889106 0.0072510745
v 0.0028610365 -0.0033889106 0.0072510745
v 0.0017681108 -0.006250074 0.005483091
v -1.2759119E-07 -0.0016199085 0.008344
v 0.0072510745 -0.0028610365 0.0033889106
v 0.005483091 -0.0017681108 0.006250074
v 0.0072510745 0.002861037 0.0033889106
v 0.008344 1.2759119E-07 0.001619909
v 0.005483091 0.0017681103 0.006250074
v 0.0016199085 -0.008344 1.2759119E-07
v 0.0033889106 -0.0072510745 0.002861037
v 0.006250074 -0.005483091 -0.0017681108
v 0.0033889106 -0.0072510745 -0.0028610365
v 0.006250074 -0.005483091 0.0017681103
v 0.005483091 -0.0017681108 -0.006250074
v 0.0072510745 -0.0028610365 -0.0033889106
v 0.0072510745 0.002861037 -0.0033889106
v 0.005483091 0.0017681103 -0.006250074
v 0.008344 1.2759119E-07 -0.0016199085
v -0.0017681103 -0.006250074 -0.005483091
v 0.0017681108 -0.006250074 -0.005483091
v -1.2759119E-07 -0.0016199085 -0.008344
v -0.002861037 -0.0033889106 -0.0072510745
v 0.0028610365 -0.0033889106 -0.0072510745
v -0.002861037 0.0033889106 -0.0072510745
v -1.2759119E-07 0.001619909 -0.008344
v 0.0017681108 0.006250074 -0.005483091
v -0.0017681103 0.006250074 -0.005483091
v 0.0028610365 0.0033889106 -0.0072510745
v -0.0072510745 -0.0028610365 -0.0033889106
v -0.005483091 -0.0017681108 -0.006250074
v -0.0072510745 0.002861037 -0.0033889106
v -0.008344 1.2759119E-07 -0.0016199085
v -0.005483091 0.0017681103 -0.006250074
v -0.006250074 0.005483091 0.0017681103
v -0.006250074 0.005483091 -0.0017681108
v -0.001619909 0.008344 1.2759119E-07
v -0.0033889106 0.0072510745 0.002861037
v -0.0033889106 0.0072510745 -0.0028610365
v -0.0072510745 -0.0028610365 0.0033889106
v -0.008344 1.2759119E-07 0.001619909
v -0.005483091 0.0017681103 0.006250074
v -0.005483091 -0.0017681108 0.006250074
v -0.0072510745 0.002861037 0.0033889106
v -0.006250074 -0.005483091 -0.0017681108
v -0.006250074 -0.005483091 0.0017681103
v -0.001619909 -0.008344 1.2759119E-07
v -0.0033889106 -0.0072510745 -0.0028610365
v -0.0033889106 -0.0072510745 0.002861037
v 0.006250074 0.005483091 0.0017681103
v 0.0033889106 0.0072510745 0.002861037
v 0.0033889106 0.0072510745 -0.0028610365
v 0.006250074 0.005483091 -0.0017681108
v 0.0016199085 0.008344 1.2759119E-07
vt 0.39601848 0.86857045
vt 0.39893845 0.87343705
vt 0.40477845 0.8637037
vt 0.39893845 0.8637037
vt 0.40429178 0.87343705
vt 0.40721178 0.86857045
vt 0.41402507 0.86857045
vt 0.41694507 0.8637037
vt 0.40575176 0.8637037
vt 0.40867177 0.86857045
vt 0.41402507 0.8588371
vt 0.40867177 0.85932374
vt 0.39893845 0.8437505
vt 0.39601848 0.84861714
vt 0.40721178 0.84861714
vt 0.40429178 0.8437505
vt 0.3984518 0.8534838
vt 0.40429178 0.8534838
vt 0.38920516 0.8388839
vt 0.38628516 0.8437505
vt 0.39747846 0.8437505
vt 0.3945585 0.8388839
vt 0.3887185 0.84861714
vt 0.3945585 0.84861714
vt 0.3945585 0.8588371
vt 0.3887185 0.8588371
vt 0.39407182 0.86857045
vt 0.3969918 0.8632171
vt 0.38628516 0.8632171
vt 0.38920516 0.86857045
vt 0.3789852 0.86419046
vt 0.3760652 0.8695438
vt 0.3872585 0.86905706
vt 0.3843385 0.86419046
vt 0.3789852 0.8739238
vt 0.3843385 0.8739238
vt 0.38920516 0.8491038
vt 0.38628516 0.85397047
vt 0.39747846 0.85397047
vt 0.3945585 0.8491038
vt 0.3887185 0.85835046
vt 0.3945585 0.85835046
vt 0.3789852 0.83401716
vt 0.3760652 0.8388839
vt 0.3872585 0.8388839
vt 0.3843385 0.83401716
vt 0.3789852 0.8437505
vt 0.38482517 0.8437505
vt 0.41548508 0.86857045
vt 0.41840506 0.87343705
vt 0.4237584 0.86419046
vt 0.4179184 0.86419046
vt 0.4237584 0.87343705
vt 0.42619172 0.86857045
vt 0.3843385 0.8637037
vt 0.3872585 0.8588371
vt 0.3760652 0.8588371
vt 0.3789852 0.8637037
vt 0.3843385 0.85445714
vt 0.37849852 0.85445714
vt 0.39601848 0.83839715
vt 0.39893845 0.84326386
vt 0.40429178 0.83353055
vt 0.39893845 0.83353055
vt 0.40429178 0.84326386
vt 0.40721178 0.83839715
vt 0.39893845 0.85397047
vt 0.39601848 0.8588371
vt 0.40721178 0.8588371
vt 0.40429178 0.85397047
vt 0.39893845 0.8637037
vt 0.40477845 0.8637037
vt 0.41743174 0.83401716
vt 0.4149984 0.8388839
vt 0.42570505 0.8388839
vt 0.42278504 0.83401716
vt 0.41743174 0.8437505
vt 0.42327172 0.84326386
vt 0.4179184 0.8637037
vt 0.4237584 0.8637037
vt 0.41840506 0.85397047
vt 0.41548508 0.8588371
vt 0.42619172 0.8588371
vt 0.42327172 0.85397047
vt 0.43300503 0.86857045
vt 0.435925 0.8637037
vt 0.42521837 0.8637037
vt 0.42813838 0.86857045
vt 0.4334917 0.85932374
vt 0.4276517 0.85932374
vt 0.4179184 0.8534838
vt 0.4237584 0.8534838
vt 0.4179184 0.84423715
vt 0.4149984 0.8491038
vt 0.42619172 0.8491038
vt 0.42327172 0.84423715
vt 0.38482517 0.84423715
vt 0.3789852 0.84423715
vt 0.3843385 0.8534838
vt 0.3872585 0.84861714
vt 0.3760652 0.84861714
vt 0.3789852 0.8534838
vt 0.4081851 0.8388839
vt 0.40526512 0.84423715
vt 0.4164584 0.84423715
vt 0.41353843 0.8388839
vt 0.4081851 0.84861714
vt 0.41402507 0.84861714
vt 0.41402507 0.8588371
vt 0.41694507 0.8534838
vt 0.40575176 0.8534838
vt 0.40867177 0.8588371
vt 0.41402507 0.8491038
vt 0.4081851 0.8491038
vt 0.43300503 0.8588371
vt 0.435925 0.85397047
vt 0.42521837 0.8534838
vt 0.4276517 0.8588371
vt 0.4334917 0.8491038
vt 0.4276517 0.8491038
vt 0.39942512 0.8223372
vt 0.40477845 0.8228239
vt 0.40234512 0.81357723
vt 0.39747846 0.81698394
vt 0.4067251 0.81698394
vt 0.3969918 0.8267172
vt 0.39893845 0.8325572
vt 0.40623844 0.82720387
vt 0.40185845 0.8237972
vt 0.40429178 0.8325572
vt 0.3916385 0.82720387
vt 0.39650515 0.8237972
vt 0.3887185 0.8184439
vt 0.3872585 0.8237972
vt 0.3945585 0.8184439
vt 0.3843385 0.8228239
vt 0.3857985 0.81698394
vt 0.37655187 0.81747055
vt 0.37849852 0.8228239
vt 0.38093185 0.8140639
vt 0.40867177 0.8184439
vt 0.4067251 0.8237972
vt 0.41597176 0.8237972
vt 0.41451174 0.8184439
vt 0.41159177 0.82720387
vt 0.3887185 0.8369372
vt 0.3945585 0.8369372
vt 0.3916385 0.8281772
vt 0.38677183 0.83158386
vt 0.39601848 0.83158386
vt 0.41597176 0.8320705
vt 0.41159177 0.8286638
vt 0.40867177 0.8374238
vt 0.41451174 0.8374238
vt 0.4067251 0.8320705
vt 0.43543836 0.82428384
vt 0.4334917 0.81893057
vt 0.42619172 0.82428384
vt 0.4305717 0.82769054
vt 0.4276517 0.81893057
vt 0.43397835 0.8374238
vt 0.43446502 0.83158386
vt 0.42521837 0.83353055
vt 0.42862505 0.83839715
vt 0.42911172 0.82915056
vt 0.43543836 0.84277713
vt 0.4305717 0.8393705
vt 0.4276517 0.84861714
vt 0.4334917 0.84861714
vt 0.42619172 0.84277713
vt 0.37703854 0.82720387
vt 0.3789852 0.8325572
vt 0.38628516 0.82720387
vt 0.38190517 0.8237972
vt 0.38482517 0.8325572
vt 0.4179184 0.8330438
vt 0.4237584 0.8330438
vt 0.42035174 0.82428384
vt 0.41597176 0.82769054
vt 0.42521837 0.82720387
vn 0.36339962 -0.3790244 0.85104716
vn -0.003782928 -0.08996582 0.9959377
vn 0.5665219 0.26159197 0.78142345
vn 0.6133963 -0.22277653 0.75770414
vn -0.003782928 0.089719236 0.99595994
vn 0.36339962 0.3865903 0.8476371
vn 0.84776807 0.37096554 0.37904334
vn 0.5665219 0.26159197 0.78142345
vn 0.3790244 0.8475216 0.3715476
vn 0.7383946 0.64439934 0.19880356
vn 0.36339962 0.3865903 0.8476371
vn 0.20715171 0.73814803 0.642048
vn 0.089964725 0.995945 -0
vn 0.3790244 0.8475216 0.3715476
vn -0.39440268 0.855334 0.335932
vn -0.1522184 0.9881447 -0.019989736
vn 0.20715171 0.73814803 0.642048
vn -0.20690519 0.73814803 0.6421275
vn -0.73814803 0.63658684 0.2233712
vn -0.39440268 0.855334 0.335932
vn -0.6209621 0.23034233 0.74923193
vn -0.8318967 0.4334646 0.34649137
vn -0.20690519 0.73814803 0.6421275
vn -0.36315304 0.3865903 0.84774274
vn -0.63658684 -0.20715171 0.74286294
vn -0.6209621 0.23034233 0.74923193
vn -0.003782928 -0.08996582 0.9959377
vn -0.36315304 -0.3790244 0.85115236
vn -0.36315304 0.3865903 0.84774274
vn -0.003782928 0.089719236 0.99595994
vn -0.8475216 -0.34777486 0.40094855
vn -0.63658684 -0.20715171 0.74286294
vn -0.34752828 -0.8321433 0.4321592
vn -0.7537728 -0.6133963 0.23573627
vn -0.36315304 -0.3790244 0.85115236
vn -0.20690519 -0.7383946 0.6418439
vn -0.15221174 -0.988348 -0
vn -0.34752828 -0.8321433 0.4321592
vn 0.3790244 -0.84776807 0.3709849
vn 0.18371457 -0.98057884 0.0686591
vn -0.20690519 -0.7383946 0.6418439
vn 0.20715171 -0.7383946 0.6417644
vn 0.7774565 -0.5665219 0.27315617
vn 0.3790244 -0.84776807 0.3709849
vn 0.6133963 -0.22277653 0.75770414
vn 0.84776807 -0.34777486 0.40042716
vn 0.20715171 -0.7383946 0.6417644
vn 0.36339962 -0.3790244 0.85104716
vn 0.98057884 0.003782928 0.19608884
vn 0.84776807 0.37096554 0.37904334
vn 0.84776807 0.37096554 -0.37904334
vn 0.9962036 0.011595309 -0.08627816
vn 0.7383946 0.64439934 0.19880356
vn 0.7383946 0.64439934 -0.19880356
vn 0.84776807 -0.34777486 0.40042716
vn 0.98057884 0.003782928 0.19608884
vn 0.7540194 -0.62120867 -0.21343519
vn 0.7774565 -0.5665219 0.27315617
vn 0.9962036 0.011595309 -0.08627816
vn 0.84776807 -0.371212 -0.37880197
vn -0.39440268 -0.8555805 -0.33530366
vn -0.15221174 -0.988348 -0
vn 0.23058891 -0.7540194 -0.6150476
vn -0.20690519 -0.746207 -0.6327444
vn 0.18371457 -0.98057884 0.0686591
vn 0.3946492 -0.8555805 -0.33501342
vn 0.43371117 -0.34777486 -0.83123237
vn 0.23058891 -0.7540194 -0.6150476
vn 0.84776807 -0.371212 -0.37880197
vn 0.6368334 -0.21496415 -0.74042803
vn 0.3946492 -0.8555805 -0.33501342
vn 0.7540194 -0.62120867 -0.21343519
vn 0.6368334 0.21471757 -0.7404995
vn 0.84776807 0.37096554 -0.37904334
vn 0.23058891 0.7537728 -0.61534977
vn 0.43371117 0.35534066 -0.8280264
vn 0.7383946 0.64439934 -0.19880356
vn 0.38683683 0.8475216 -0.36340666
vn 0.6368334 -0.21496415 -0.74042803
vn 0.6368334 0.21471757 -0.7404995
vn 0.004029453 -0.16027737 -0.9870638
vn 0.43371117 -0.34777486 -0.83123237
vn 0.43371117 0.35534066 -0.8280264
vn -0.003782928 0.16003078 -0.9871048
vn -0.73814803 -0.6368334 -0.22266716
vn -0.39440268 -0.8555805 -0.33530366
vn -0.6209621 -0.23058891 -0.74915606
vn -0.8475216 -0.34777486 -0.40094855
vn -0.20690519 -0.746207 -0.6327444
vn -0.3397159 -0.3946492 -0.85372424
vn -0.5662753 0.26940435 -0.77894384
vn -0.6209621 -0.23058891 -0.74915606
vn -0.003782928 0.16003078 -0.9871048
vn -0.34752828 0.39440268 -0.85068834
vn -0.3397159 -0.3946492 -0.85372424
vn 0.004029453 -0.16027737 -0.9870638
vn -0.20690519 0.73814803 -0.6421275
vn 0.23058891 0.7537728 -0.61534977
vn -0.1522184 0.9881447 -0.019989736
vn -0.3397159 0.8397092 -0.42365265
vn 0.38683683 0.8475216 -0.36340666
vn 0.089964725 0.995945 -0
vn -0.34752828 0.39440268 -0.85068834
vn -0.20690519 0.73814803 -0.6421275
vn -0.8475216 0.37096554 -0.3795941
vn -0.5662753 0.26940435 -0.77894384
vn -0.3397159 0.8397092 -0.42365265
vn -0.7537728 0.6209621 -0.21501784
vn -0.7537728 -0.6133963 0.23573627
vn -0.73814803 -0.6368334 -0.22266716
vn -0.9881447 0.003782928 0.15347883
vn -0.8475216 -0.34777486 0.40094855
vn -0.8475216 -0.34777486 -0.40094855
vn -0.9803323 0.003782928 -0.19731759
vn -0.8318967 0.4334646 0.34649137
vn -0.9881447 0.003782928 0.15347883
vn -0.7537728 0.6209621 -0.21501784
vn -0.73814803 0.63658684 0.2233712
vn -0.9803323 0.003782928 -0.19731759
vn -0.8475216 0.37096554 -0.3795941
vn 0.20715171 0.73814803 0.642048
vn 0.36339962 0.3865903 0.8476371
vn -0.36315304 0.3865903 0.84774274
vn -0.20690519 0.73814803 0.6421275
vn -0.003782928 0.089719236 0.99595994
vn -0.20690519 -0.7383946 0.6418439
vn -0.36315304 -0.3790244 0.85115236
vn 0.36339962 -0.3790244 0.85104716
vn 0.20715171 -0.7383946 0.6417644
vn -0.003782928 -0.08996582 0.9959377
vn 0.84776807 -0.34777486 0.40042716
vn 0.6133963 -0.22277653 0.75770414
vn 0.84776807 0.37096554 0.37904334
vn 0.98057884 0.003782928 0.19608884
vn 0.5665219 0.26159197 0.78142345
vn 0.18371457 -0.98057884 0.0686591
vn 0.3790244 -0.84776807 0.3709849
vn 0.7540194 -0.62120867 -0.21343519
vn 0.3946492 -0.8555805 -0.33501342
vn 0.7774565 -0.5665219 0.27315617
vn 0.6368334 -0.21496415 -0.74042803
vn 0.84776807 -0.371212 -0.37880197
vn 0.84776807 0.37096554 -0.37904334
vn 0.6368334 0.21471757 -0.7404995
vn 0.9962036 0.011595309 -0.08627816
vn -0.20690519 -0.746207 -0.6327444
vn 0.23058891 -0.7540194 -0.6150476
vn 0.004029453 -0.16027737 -0.9870638
vn -0.3397159 -0.3946492 -0.85372424
vn 0.43371117 -0.34777486 -0.83123237
vn -0.34752828 0.39440268 -0.85068834
vn -0.003782928 0.16003078 -0.9871048
vn 0.23058891 0.7537728 -0.61534977
vn -0.20690519 0.73814803 -0.6421275
vn 0.43371117 0.35534066 -0.8280264
vn -0.8475216 -0.34777486 -0.40094855
vn -0.6209621 -0.23058891 -0.74915606
vn -0.8475216 0.37096554 -0.3795941
vn -0.9803323 0.003782928 -0.19731759
vn -0.5662753 0.26940435 -0.77894384
vn -0.73814803 0.63658684 0.2233712
vn -0.7537728 0.6209621 -0.21501784
vn -0.1522184 0.9881447 -0.019989736
vn -0.39440268 0.855334 0.335932
vn -0.3397159 0.8397092 -0.42365265
vn -0.8475216 -0.34777486 0.40094855
vn -0.9881447 0.003782928 0.15347883
vn -0.6209621 0.23034233 0.74923193
vn -0.63658684 -0.20715171 0.74286294
vn -0.8318967 0.4334646 0.34649137
vn -0.73814803 -0.6368334 -0.22266716
vn -0.7537728 -0.6133963 0.23573627
vn -0.15221174 -0.988348 -0
vn -0.39440268 -0.8555805 -0.33530366
vn -0.34752828 -0.8321433 0.4321592
vn 0.7383946 0.64439934 0.19880356
vn 0.3790244 0.8475216 0.3715476
vn 0.38683683 0.8475216 -0.36340666
vn 0.7383946 0.64439934 -0.19880356
vn 0.089964725 0.995945 -0
g ball_0
f 3/3/3 2/2/2 1/1/1
f 4/4/4 3/3/3 1/1/1
f 5/5/5 2/2/2 3/3/3
f 6/6/6 5/5/5 3/3/3
f 9/9/9 8/8/8 7/7/7
f 10/10/10 9/9/9 7/7/7
f 11/11/11 8/8/8 9/9/9
f 12/12/12 11/11/11 9/9/9
f 15/15/15 14/14/14 13/13/13
f 16/16/16 15/15/15 13/13/13
f 17/17/17 14/14/14 15/15/15
f 18/18/18 17/17/17 15/15/15
f 21/21/21 20/20/20 19/19/19
f 22/22/22 21/21/21 19/19/19
f 23/23/23 20/20/20 21/21/21
f 24/24/24 23/23/23 21/21/21
f 27/27/27 26/26/26 25/25/25
f 28/28/28 27/27/27 25/25/25
f 29/29/29 26/26/26 27/27/27
f 30/30/30 29/29/29 27/27/27
f 33/33/33 32/32/32 31/31/31
f 34/34/34 33/33/33 31/31/31
f 35/35/35 32/32/32 33/33/33
f 36/36/36 35/35/35 33/33/33
f 39/39/39 38/38/38 37/37/37
f 40/40/40 39/39/39 37/37/37
f 41/41/41 38/38/38 39/39/39
f 42/42/42 41/41/41 39/39/39
f 45/45/45 44/44/44 43/43/43
f 46/46/46 45/45/45 43/43/43
f 47/47/47 44/44/44 45/45/45
f 48/48/48 47/47/47 45/45/45
f 51/51/51 50/50/50 49/49/49
f 52/52/52 51/51/51 49/49/49
f 53/53/53 50/50/50 51/51/51
f 54/54/54 53/53/53 51/51/51
f 57/57/57 56/56/56 55/55/55
f 58/58/58 57/57/57 55/55/55
f 59/59/59 56/56/56 57/57/57
f 60/60/60 59/59/59 57/57/57
f 63/63/63 62/62/62 61/61/61
f 64/64/64 63/63/63 61/61/61
f 65/65/65 62/62/62 63/63/63
f 66/66/66 65/65/65 63/63/63
f 69/69/69 68/68/68 67/67/67
f 70/70/70 69/69/69 67/67/67
f 71/71/71 68/68/68 69/69/69
f 72/72/72 71/71/71 69/69/69
f 75/75/75 74/74/74 73/73/73
f 76/76/76 75/75/75 73/73/73
f 77/77/77 74/74/74 75/75/75
f 78/78/78 77/77/77 75/75/75
f 81/81/81 80/80/80 79/79/79
f 82/82/82 81/81/81 79/79/79
f 83/83/83 80/80/80 81/81/81
f 84/84/84 83/83/83 81/81/81
f 87/87/87 86/86/86 85/85/85
f 88/88/88 87/87/87 85/85/85
f 89/89/89 86/86/86 87/87/87
f 90/90/90 89/89/89 87/87/87
f 93/93/93 92/92/92 91/91/91
f 94/94/94 93/93/93 91/91/91
f 95/95/95 92/92/92 93/93/93
f 96/96/96 95/95/95 93/93/93
f 99/99/99 98/98/98 97/97/97
f 100/100/100 99/99/99 97/97/97
f 101/101/101 98/98/98 99/99/99
f 102/102/102 101/101/101 99/99/99
f 105/105/105 104/104/104 103/103/103
f 106/106/106 105/105/105 103/103/103
f 107/107/107 104/104/104 105/105/105
f 108/108/108 107/107/107 105/105/105
f 111/111/111 110/110/110 109/109/109
f 112/112/112 111/111/111 109/109/109
f 113/113/113 110/110/110 111/111/111
f 114/114/114 113/113/113 111/111/111
f 117/117/117 116/116/116 115/115/115
f 118/118/118 117/117/117 115/115/115
f 119/119/119 116/116/116 117/117/117
f 120/120/120 119/119/119 117/117/117
f 123/123/123 122/122/122 121/121/121
f 124/124/124 123/123/123 121/121/121
f 123/123/123 125/125/125 122/122/122
f 128/128/128 127/127/127 126/126/126
f 129/129/129 128/128/128 126/126/126
f 128/128/128 130/130/130 127/127/127
f 133/133/133 132/132/132 131/131/131
f 134/134/134 133/133/133 131/131/131
f 133/133/133 135/135/135 132/132/132
f 138/138/138 137/137/137 136/136/136
f 139/139/139 138/138/138 136/136/136
f 138/138/138 140/140/140 137/137/137
f 143/143/143 142/142/142 141/141/141
f 144/144/144 143/143/143 141/141/141
f 143/143/143 145/145/145 142/142/142
f 148/148/148 147/147/147 146/146/146
f 149/149/149 148/148/148 146/146/146
f 148/148/148 150/150/150 147/147/147
f 153/153/153 152/152/152 151/151/151
f 154/154/154 153/153/153 151/151/151
f 153/153/153 155/155/155 152/152/152
f 158/158/158 157/157/157 156/156/156
f 159/159/159 158/158/158 156/156/156
f 158/158/158 160/160/160 157/157/157
f 163/163/163 162/162/162 161/161/161
f 164/164/164 163/163/163 161/161/161
f 163/163/163 165/165/165 162/162/162
f 168/168/168 167/167/167 166/166/166
f 169/169/169 168/168/168 166/166/166
f 168/168/168 170/170/170 167/167/167
f 173/173/173 172/172/172 171/171/171
f 174/174/174 173/173/173 171/171/171
f 173/173/173 175/175/175 172/172/172
f 178/178/178 177/177/177 176/176/176
f 179/179/179 178/178/178 176/176/176
f 178/178/178 180/180/180 177/177/177
