g BarkPiece
v 0.64116 -1.1705397 -0.55836856
v 0.077254176 -1.4768919 -0.9019116
v 0.011044741 -0.86039746 -0.5312451
v 0.5847813 -0.8362944 -0.23460531
v 0.077254176 -0.74740314 -0.9019116
v -0.5485972 -0.99832404 -0.7915822
v -0.57506907 -1.1117921 0.46568716
v -0.4720832 -0.8760911 0.4344777
v -0.7899834 -0.6734357 0.05842197
v -0.4817363 -1.3792951 0.58193886
v -0.20813358 -1.5752585 0.8023015
v -0.08092606 -1.0191107 0.5339695
v -0.07316816 -0.74740314 0.90457666
v 0.5875647 -0.23957992 0.6932157
v 0.08661115 -0.7843573 0.5622772
v 0.90528727 -0.23957992 0.07654369
v 0.002043128 -0.9297457 0.0013325214
v 0.81106615 -0.7240107 -0.504714
v 0.077254176 -0.74740314 -0.9019116
v 0.077254176 -1.4768919 -0.9019116
v 0.64116 -1.1705397 -0.55836856
v 0.077254176 -0.74740314 -0.9019116
v 0.011044741 -0.86039746 -0.5312451
v 0.077254176 -1.4768919 -0.9019116
v -0.7899834 -0.6734357 0.05842197
v -0.6898402 -0.74740314 0.5868541
v -0.57506907 -1.1117921 0.46568716
v 0.002043128 -0.9297457 0.0013325214
v -0.07316816 -0.74740314 0.90457666
v -0.20813358 -1.5752585 0.8023015
v -0.4817363 -1.3792951 0.58193886
v -0.08092606 -1.0191107 0.5339695
v -0.20813358 -1.5752585 0.8023015
v -0.6898402 -0.74740314 0.5868541
v -0.4720832 -0.8760911 0.4344777
v -0.57506907 -1.1117921 0.46568716
v -0.4720832 -0.8760911 0.4344777
v -0.6898402 -0.74740314 0.5868541
v -0.4817363 -1.3792951 0.58193886
v -0.5485972 -0.99832404 -0.7915822
v -0.7899834 -0.6734357 0.05842197
v -0.7392899 -1.9405359 -0.31603467
v -0.7899834 -0.6734357 0.05842197
v 0.002043128 -0.9297457 0.0013325214
v -0.7392899 -1.9405359 -0.31603467
v -0.7392899 -1.9405359 -0.31603467
v 0.47794592 0.65951884 -0.7468109
v 0.077254176 0.6224462 -0.9019116
v -0.58815706 0.2022115 -0.69049144
v -0.8779863 -0.07174659 0.05842197
v -0.8779863 -0.07174659 0.05842197
v -0.6898402 0.6224462 0.5868541
v -0.07316816 0.6224462 0.90457666
v 0.5875647 -0.23957992 0.6932157
v 0.5875647 0.6224462 0.6932157
v 0.90528727 -0.23957992 0.07654369
v 0.90528727 0.6224462 0.07654369
v 0.8361759 0.7444421 -0.40877533
v 0.64116 1.1390933 -0.55836856
v 0.4206196 0.7137064 -0.28873372
v -0.011696339 0.8866919 -0.50311506
v 0.077254176 1.6720856 -0.9019116
v -0.12013066 0.60568655 -0.611727
v -0.089039445 0.40616977 -0.04835415
v -0.58815706 0.2022115 -0.69049144
v -0.8779863 -0.07174659 0.05842197
v -0.4817363 1.4399971 0.58193886
v -0.4720832 0.7510749 0.4344777
v 0.006247759 0.7141801 0.36666906
v -0.20813358 1.9405361 0.8023015
v -0.089039445 0.40616977 -0.04835415
v 0.27469826 0.5169729 0.33403814
v 0.46693075 0.52763283 -0.0046488047
v 0.90528727 0.6224462 0.07654369
v 0.8361759 0.7444421 -0.40877533
v 0.077254176 1.6720856 -0.9019116
v -0.011696339 0.8866919 -0.50311506
v -0.57506907 1.1725534 0.46568716
v -0.4817363 1.4399971 0.58193886
v -0.20813358 1.9405361 0.8023015
v -0.6898402 0.6224462 0.5868541
v -0.57506907 1.1725534 0.46568716
v -0.4720832 0.7510749 0.4344777
v -0.4720832 0.7510749 0.4344777
v -0.4817363 1.4399971 0.58193886
v -0.6898402 0.6224462 0.5868541
v 0.077254176 0.6224462 -0.9019116
v 0.077254176 1.6720856 -0.9019116
v -0.57506907 1.1725534 0.46568716
v 0.64116 1.1390933 -0.55836856
v 0.81106615 -0.7240107 -0.504714
v 0.64116 -1.1705397 -0.55836856
v 0.6981902 1.225912 0.40599215
v 0.81633675 1.0949143 0.20404732
v -0.07316816 0.6224462 0.90457666
v -0.20813358 1.9405361 0.8023015
v 0.006247759 0.7141801 0.36666906
v -0.07316816 0.6224462 0.90457666
v 0.5875647 0.6224462 0.6932157
v 0.6981902 1.225912 0.40599215
v 0.5875647 0.6224462 0.6932157
v 0.81633675 1.0949143 0.20404732
v 0.90528727 0.6224462 0.07654369
vt 0.7446977 0.54787004
vt 0.68732643 0.5690533
vt 0.73851925 0.6220114
vt 0.7852989 0.57787967
vt 0.6952701 0.6220114
vt 0.6952701 0.65996474
vt 0.8435528 0.7394019
vt 0.8514965 0.717336
vt 0.80824745 0.7358713
vt 0.9062199 0.7146881
vt 0.92299 0.6899743
vt 0.87179714 0.6670258
vt 0.90445465 0.62818986
vt 0.8876846 0.56552273
vt 0.86650133 0.63789886
vt 0.8373744 0.5337479
vt 0.80295163 0.65113837
vt 0.27248788 0.8047169
vt 0.18157646 0.7976558
vt 0.17363274 0.87709296
vt 0.24865673 0.8514965
vt 0.6952701 0.6220114
vt 0.73851925 0.6220114
vt 0.68732643 0.5690533
vt 0.6123024 0.8276654
vt 0.55757904 0.82678276
vt 0.5602269 0.8700319
vt 0.80295163 0.65113837
vt 0.4843203 0.8223696
vt 0.49226403 0.9123984
vt 0.5319826 0.89562833
vt 0.87179714 0.6670258
vt 0.92299 0.6899743
vt 0.8629708 0.7420498
vt 0.8514965 0.717336
vt 0.8435528 0.7394019
vt 0.8514965 0.717336
vt 0.8629708 0.7420498
vt 0.9062199 0.7146881
vt 0.11096565 0.8188391
vt 0.020054221 0.77117676
vt 0.0421201 0.9123984
vt 0.80824745 0.7358713
vt 0.80295163 0.65113837
vt 0.7023312 0.7420498
vt 0.7023312 0.7420498
vt 0.24336092 0.65113837
vt 0.19658126 0.65025574
vt 0.11714409 0.68732643
vt 0.026232667 0.7049791
vt 0.6246593 0.7649983
vt 0.57611436 0.671439
vt 0.5002078 0.68114793
vt 0.41547477 0.7641157
vt 0.42518377 0.67320424
vt 0.3404508 0.7579372
vt 0.34927714 0.66526055
vt 0.2980843 0.6467252
vt 0.113613546 0.40047
vt 0.15421477 0.35192505
vt 0.10390456 0.32191545
vt 0.03152848 0.38281727
vt 0.102139294 0.28661004
vt 0.17628065 0.2830795
vt 0.102139294 0.22394295
vt 0.16304111 0.17716329
vt 0.28837532 0.18598963
vt 0.23453456 0.23365194
vt 0.24512619 0.28396213
vt 0.3483945 0.17716329
vt 0.17628065 0.2830795
vt 0.23100403 0.32103282
vt 0.19393335 0.3483945
vt 0.19746388 0.40047
vt 0.15421477 0.4031179
vt 0.20982078 0.5363958
vt 0.10390456 0.32191545
vt 0.6043587 0.615833
vt 0.5178604 0.59023654
vt 0.46225443 0.55757904
vt 0.57611436 0.671439
vt 0.6043587 0.615833
vt 0.5743491 0.6352509
vt 0.5743491 0.6352509
vt 0.5178604 0.59023654
vt 0.57611436 0.671439
vt 0.06418598 0.28484476
vt 0.03152848 0.38281727
vt 0.25395253 0.20187707
vt 0.2751358 0.6017108
vt 0.77912045 0.5372784
vt 0.7446977 0.54787004
vt 0.39782208 0.6043587
vt 0.37134302 0.615833
vt 0.306028 0.29984957
vt 0.3483945 0.17716329
vt 0.24512619 0.28396213
vt 0.306028 0.29984957
vt 0.27954897 0.34751186
vt 0.2654268 0.40664843
vt 0.27954897 0.34751186
vt 0.23983037 0.4084137
vt 0.19746388 0.40047
vn -0.25600463 -0.5884917 0.7669023
vn -0.25600463 -0.5884917 0.7669023
vn -0.0057834983 -0.9325458 0.3610054
vn 0.2287988 -0.7057829 0.67046374
vn 0.33045113 -0.91690695 -0.22379375
vn 0.71360224 -0.52593637 -0.46277723
vn 0.6119499 -0.3617288 -0.70332754
vn 0.017674744 -0.783977 -0.62053823
vn -0.1856299 -0.92472637 -0.33229905
vn 0.23661822 -0.37736762 -0.89532423
vn 0.23661822 -0.37736762 -0.89532423
vn 0.08804941 -0.62758875 -0.77355003
vn 0.85435164 -0.43992287 0.27667874
vn 0.6041305 -0.7526993 0.26166785
vn 0.79961574 -0.58067226 0.15308289
vn 0.557214 -0.7370605 0.38243207
vn 0.651047 -0.7526993 -0.09788517
vn 0.69014406 -0.025494158 -0.72322285
vn 0.095868826 0.0057834983 -0.9953772
vn 0.5024782 -0.033313572 -0.86394787
vn 0.5024782 -0.033313572 -0.86394787
vn -0.9832098 -0.0020359159 -0.18246739
vn -0.9832098 -0.0020359159 -0.18246739
vn -0.9832098 -0.0020359159 -0.18246739
vn -0.9910292 -0.041132987 -0.1271582
vn -0.67825276 -0.04895234 0.7331963
vn -0.9362933 -0.33827055 0.09448751
vn -0.30292112 -0.92472637 -0.23047754
vn -0.2872823 -0.017674744 0.9576829
vn -0.529684 -0.08804941 0.84361255
vn -0.529684 -0.08804941 0.84361255
vn 0.92472637 -0.35390937 0.14010455
vn 0.94036514 -0.29135412 0.1755739
vn 0.52593637 -0.11932707 0.84211165
vn 0.52593637 -0.11932707 0.84211165
vn 0.52593637 -0.11932707 0.84211165
vn -0.6391558 -0.20534056 -0.741158
vn -0.6391558 -0.20534056 -0.741158
vn -0.6391558 -0.20534056 -0.741158
vn -0.7564469 0.013602912 -0.6539136
vn -0.9910292 -0.041132987 -0.1271582
vn -0.95975155 0.04488057 -0.27724123
vn -0.021422327 -0.2835347 0.95872265
vn -0.021422327 -0.2835347 0.95872265
vn -0.021422327 -0.2835347 0.95872265
vn 0.76833814 -0.40864527 -0.49261096
vn 0.52593637 0.021422327 -0.8502541
vn 0.041132987 0.021422327 -0.998924
vn -0.5687811 0.0057834983 -0.8224686
vn -0.9988486 -0.041132987 -0.024688702
vn -0.9988486 -0.041132987 -0.024688702
vn -0.67043334 0.04488057 0.74061114
vn -0.23254639 0.013602912 0.9724902
vn 0.5493946 -0.0020359159 0.8355605
vn 0.62758875 0.0057834983 0.77852356
vn 0.99510103 -0.0020359159 0.09884212
vn 0.9872816 -0.0020359159 0.15896808
vn 0.90908754 0.013602912 -0.416383
vn -0.091797054 0.49840635 0.86206985
vn -0.09961647 0.6391558 0.76259845
vn -0.115255296 0.5375034 0.83534795
vn -0.12307471 0.50622576 0.85357374
vn -0.88937694 0.45148987 -0.07187164
vn -0.5922393 0.7642663 -0.2552442
vn -0.55314225 0.8190022 0.15254179
vn -0.49058694 0.8111828 -0.31828746
vn 0.00985533 0.2951017 -0.955415
vn 0.00985533 0.37329584 -0.92766
vn 0.11932707 0.72516924 -0.6781523
vn 0.00985533 0.2951017 -0.955415
vn -0.052687448 0.99861103 -0
vn -0.27164346 0.9441127 -0.18671092
vn -0.5140452 0.83464104 -0.19781795
vn -0.09961647 0.9284739 0.35778874
vn 0.111507654 0.8033634 0.5849559
vn 0.49465877 0.060519397 -0.8669776
vn -0.96757096 0.13089412 -0.21603967
vn -0.9753904 0.21690756 0.039556526
vn -0.5375034 0.060519397 0.8410871
vn -0.5375034 0.060519397 0.8410871
vn 0.5415752 0.06833881 0.83786994
vn 0.5415752 0.06833881 0.83786994
vn 0.5415752 0.06833881 0.83786994
vn -0.623517 0.15435225 -0.7664215
vn -0.623517 0.15435225 -0.7664215
vn -0.623517 0.15435225 -0.7664215
vn -0.9284739 0.20908815 -0.30695012
vn -0.95193213 0.09961647 -0.28965804
vn 0.4555617 0.17781049 -0.8722654
vn 0.6119499 0.09961647 -0.7845979
vn 0.7526993 -0.5102976 0.41598088
vn 0.783977 -0.3617288 0.504512
vn 0.8778099 0.060519397 0.4751707
vn 0.8856293 0.052699983 0.46139294
vn 0.9794622 0.115255296 0.16543876
vn 0.9794622 0.115255296 0.16543876
vn 0.9794622 0.115255296 0.16543876
vn 0.18944725 0.98189086 -0
vn 0.18944725 0.98189086 -0
vn -0.78772455 0.55314225 -0.2711525
vn -0.7486275 0.38893467 0.5369234
vn -0.60005873 0.5218646 -0.60628945
vn 0.11932707 0.27946287 -0.9527127
g BarkPiece_0
f 3/3/3 2/2/2 1/1/1
f 4/4/4 3/3/3 1/1/1
f 3/3/3 6/6/6 5/5/5
f 9/9/9 8/8/8 7/7/7
f 12/12/12 11/11/11 10/10/10
f 8/8/8 12/12/12 10/10/10
f 15/15/15 14/14/14 13/13/13
f 17/17/17 16/16/16 14/14/14
f 17/17/17 4/4/4 16/16/16
f 20/20/20 19/19/19 18/18/18
f 21/21/21 20/20/20 18/18/18
f 24/24/24 23/23/23 22/22/22
f 17/17/17 3/3/3 4/4/4
f 27/27/27 26/26/26 25/25/25
f 28/28/28 8/8/8 9/9/9
f 30/30/30 29/29/29 26/26/26
f 31/31/31 30/30/30 26/26/26
f 32/32/32 15/15/15 13/13/13
f 33/33/33 32/32/32 13/13/13
f 28/28/28 12/12/12 8/8/8
f 36/36/36 35/35/35 34/34/34
f 39/39/39 38/38/38 37/37/37
f 42/42/42 41/41/41 40/40/40
f 45/45/45 44/44/44 43/43/43
f 46/46/46 6/6/6 17/17/17
f 48/48/48 47/47/47 19/19/19
f 48/48/48 19/19/19 40/40/40
f 49/49/49 48/48/48 40/40/40
f 49/49/49 40/40/40 41/41/41
f 50/50/50 49/49/49 41/41/41
f 51/51/51 25/25/25 26/26/26
f 52/52/52 51/51/51 26/26/26
f 52/52/52 26/26/26 29/29/29
f 53/53/53 52/52/52 29/29/29
f 53/53/53 29/29/29 54/54/54
f 55/55/55 53/53/53 54/54/54
f 55/55/55 54/54/54 56/56/56
f 57/57/57 55/55/55 56/56/56
f 57/57/57 56/56/56 18/18/18
f 58/58/58 57/57/57 18/18/18
f 61/61/61 60/60/60 59/59/59
f 62/62/62 61/61/61 59/59/59
f 65/65/65 64/64/64 63/63/63
f 66/66/66 64/64/64 65/65/65
f 69/69/69 68/68/68 67/67/67
f 70/70/70 69/69/69 67/67/67
f 72/72/72 71/71/71 69/69/69
f 73/73/73 71/71/71 72/72/72
f 75/75/75 60/60/60 74/74/74
f 47/47/47 48/48/48 76/76/76
f 63/63/63 64/64/64 77/77/77
f 75/75/75 59/59/59 60/60/60
f 61/61/61 71/71/71 60/60/60
f 52/52/52 78/78/78 51/51/51
f 66/66/66 68/68/68 64/64/64
f 80/80/80 79/79/79 52/52/52
f 53/53/53 80/80/80 52/52/52
f 69/69/69 71/71/71 68/68/68
f 83/83/83 82/82/82 81/81/81
f 86/86/86 85/85/85 84/84/84
f 77/77/77 88/88/88 87/87/87
f 63/63/63 77/77/77 87/87/87
f 65/65/65 63/63/63 87/87/87
f 66/66/66 89/89/89 68/68/68
f 60/60/60 71/71/71 73/73/73
f 47/47/47 90/90/90 58/58/58
f 47/47/47 58/58/58 18/18/18
f 47/47/47 76/76/76 90/90/90
f 47/47/47 18/18/18 19/19/19
f 3/3/3 17/17/17 6/6/6
f 92/92/92 91/91/91 4/4/4
f 4/4/4 91/91/91 16/16/16
f 94/94/94 93/93/93 55/55/55
f 97/97/97 96/96/96 95/95/95
f 72/72/72 69/69/69 98/98/98
f 99/99/99 72/72/72 98/98/98
f 101/101/101 100/100/100 72/72/72
f 73/73/73 72/72/72 100/100/100
f 102/102/102 73/73/73 100/100/100
f 73/73/73 102/102/102 103/103/103
f 60/60/60 73/73/73 74/74/74
f 57/57/57 94/94/94 55/55/55
f 32/32/32 17/17/17 15/15/15
f 15/15/15 17/17/17 14/14/14
