g Base_mesh
v 6.7127433 0.89271545 0.8249903
v 6.432659 0.92703056 0.79067516
v 6.5238633 1.1553411 0.9633007
v 6.7127433 1.1047726 0.9633007
v 6.157241 1.2022982 0.79067516
v 6.3855524 1.2936525 0.9633007
v 6.1229267 1.4825325 0.8249903
v 6.334984 1.4825325 0.9633007
v 6.157241 1.7626162 0.79067516
v 6.3855524 1.6714125 0.9633007
v 6.432659 2.0378838 0.79067516
v 6.7127433 1.8601418 0.9633007
v 6.5238633 1.8095732 0.9633007
v 6.7127433 2.0721989 0.8249903
v 6.4076757 2.1962118 0.5402403
v 6.7127433 2.2491884 0.56341743
v 6.2311373 1.9639874 0.71677876
v 6.157241 2.0378838 0.51540756
v 6.1229267 2.0721989 0.2353239
v 6.3844986 2.2491884 0.2353239
v 6.7127433 2.3164625 0.2353239
v 6.4076757 2.1962118 -0.06974363
v 6.7127433 2.2491884 -0.09292078
v 6.157241 2.0378838 -0.04491043
v 6.2311373 1.9639874 -0.2462821
v 6.432659 2.0378838 -0.3201785
v 6.7127433 2.0721989 -0.35449266
v 6.4076757 1.7874489 -0.47850657
v 6.7127433 1.810626 -0.5314832
v 6.157241 1.7626162 -0.3201785
v 6.1229267 1.4825325 -0.35449266
v 6.3844986 1.4825325 -0.5314832
v 6.7127433 1.4825325 -0.59875727
v 6.4076757 1.1774654 -0.47850657
v 6.7127433 1.1542883 -0.5314832
v 6.157241 1.2022982 -0.3201785
v 6.2311373 1.000927 -0.2462821
v 6.432659 0.92703056 -0.3201785
v 6.7127433 0.89271545 -0.35449266
v 6.4076757 0.7687025 -0.06974363
v 6.7127433 0.7157259 -0.09292078
v 6.157241 0.92703056 -0.04491043
v 6.1229267 0.89271545 0.2353239
v 6.3844986 0.7157259 0.2353239
v 6.7127433 0.64845085 0.2353239
v 6.4076757 0.7687025 0.5402403
v 6.7127433 0.7157259 0.56341743
v 6.157241 0.92703056 0.51540756
v 6.2311373 1.000927 0.71677876
v 5.998913 1.1774654 0.5402403
v 5.945936 1.1542883 0.2353239
v 5.878662 1.4825325 0.2353239
v 5.945936 1.4825325 0.56341743
v 5.998913 1.1774654 -0.06974363
v 5.945936 1.4825325 -0.09292078
v 5.998913 1.7874489 -0.06974363
v 5.945936 1.810626 0.2353239
v 5.998913 1.7874489 0.5402403
v 6.9014726 1.1553411 0.9633007
v 6.992827 0.92703056 0.79067516
v 7.0397835 1.2936525 0.9633007
v 7.268245 1.2022982 0.79067516
v 7.0905027 1.4825325 0.9633007
v 7.302409 1.4825325 0.8249903
v 7.0397835 1.6714125 0.9633007
v 7.268245 1.7626162 0.79067516
v 6.992827 2.0378838 0.79067516
v 6.9014726 1.8095732 0.9633007
v 7.0178103 2.1962118 0.5402403
v 7.268245 2.0378838 0.51540756
v 7.1941986 1.9639874 0.71677876
v 7.0408373 2.2491884 0.2353239
v 7.302409 2.0721989 0.2353239
v 7.0178103 2.1962118 -0.06974363
v 7.268245 2.0378838 -0.04491043
v 6.992827 2.0378838 -0.3201785
v 7.1941986 1.9639874 -0.2462821
v 7.0178103 1.7874489 -0.47850657
v 7.268245 1.7626162 -0.3201785
v 7.0408373 1.4825325 -0.5314832
v 7.302409 1.4825325 -0.35449266
v 7.0178103 1.1774654 -0.47850657
v 7.268245 1.2022982 -0.3201785
v 6.992827 0.92703056 -0.3201785
v 7.1941986 1.000927 -0.2462821
v 7.0178103 0.7687025 -0.06974363
v 7.268245 0.92703056 -0.04491043
v 7.0408373 0.7157259 0.2353239
v 7.302409 0.89271545 0.2353239
v 7.0178103 0.7687025 0.5402403
v 7.268245 0.92703056 0.51540756
v 7.1941986 1.000927 0.71677876
v 7.4265733 1.1774654 0.5402403
v 7.4793997 1.1542883 0.2353239
v 7.4793997 1.4825325 0.56341743
v 7.546674 1.4825325 0.2353239
v 7.4265733 1.1774654 -0.06974363
v 7.4793997 1.4825325 -0.09292078
v 7.4793997 1.810626 0.2353239
v 7.4265733 1.7874489 -0.06974363
v 7.4265733 1.7874489 0.5402403
vt 0.63771725 0.73599374
vt 0.6478838 0.73124933
vt 0.6521763 0.7423196
vt 0.6440431 0.74503064
vt 0.6635854 0.73057157
vt 0.6624558 0.7419807
vt 0.6754464 0.73283076
vt 0.6754464 0.74243253
vt 0.68730736 0.73057157
vt 0.6884369 0.7419807
vt 0.70300895 0.73124933
vt 0.70696265 0.74503064
vt 0.69871646 0.7423196
vt 0.71317554 0.73599374
vt 0.7080922 0.7195014
vt 0.7195014 0.72221243
vt 0.69600534 0.72684383
vt 0.6972479 0.71825874
vt 0.6976998 0.7076404
vt 0.708883 0.70639783
vt 0.7214217 0.7052682
vt 0.7065108 0.69340724
vt 0.7170162 0.688324
vt 0.6964572 0.697022
vt 0.694085 0.6886629
vt 0.6997331 0.68256295
vt 0.7070756 0.6747686
vt 0.6885499 0.676463
vt 0.6929554 0.6656187
vt 0.6858388 0.6868555
vt 0.6754464 0.6860648
vt 0.6754464 0.6747686
vt 0.6754464 0.66211694
vt 0.66234285 0.676463
vt 0.65793735 0.6656187
vt 0.6650539 0.6868555
vt 0.6568077 0.6886629
vt 0.65115964 0.68256295
vt 0.6438172 0.6747686
vt 0.64449495 0.69340724
vt 0.63387656 0.688324
vt 0.6545485 0.697022
vt 0.653193 0.7076404
vt 0.6420098 0.70639783
vt 0.62947106 0.7052682
vt 0.64291346 0.7195014
vt 0.6313914 0.72221243
vt 0.6536448 0.71825874
vt 0.6548874 0.72684383
vt 0.66437614 0.7197273
vt 0.66415024 0.7085441
vt 0.6754464 0.70899594
vt 0.6754464 0.72096986
vt 0.664828 0.6974739
vt 0.6754464 0.697135
vt 0.6860648 0.6974739
vt 0.6868555 0.7085441
vt 0.6865166 0.7197273
vt 0.6521763 0.7423196
vt 0.6478838 0.73124933
vt 0.6624558 0.7419807
vt 0.6635854 0.73057157
vt 0.6754464 0.74243253
vt 0.6754464 0.73283076
vt 0.6884369 0.7419807
vt 0.68730736 0.73057157
vt 0.70300895 0.73124933
vt 0.69871646 0.7423196
vt 0.7080922 0.7195014
vt 0.6972479 0.71825874
vt 0.69600534 0.72684383
vt 0.708883 0.70639783
vt 0.6976998 0.7076404
vt 0.7065108 0.69340724
vt 0.6964572 0.697022
vt 0.6997331 0.68256295
vt 0.694085 0.6886629
vt 0.6885499 0.676463
vt 0.6858388 0.6868555
vt 0.6754464 0.6747686
vt 0.6754464 0.6860648
vt 0.66234285 0.676463
vt 0.6650539 0.6868555
vt 0.65115964 0.68256295
vt 0.6568077 0.6886629
vt 0.64449495 0.69340724
vt 0.6545485 0.697022
vt 0.6420098 0.70639783
vt 0.653193 0.7076404
vt 0.64291346 0.7195014
vt 0.6536448 0.71825874
vt 0.6548874 0.72684383
vt 0.66437614 0.7197273
vt 0.66415024 0.7085441
vt 0.6754464 0.72096986
vt 0.6754464 0.70899594
vt 0.664828 0.6974739
vt 0.6754464 0.697135
vt 0.6868555 0.7085441
vt 0.6860648 0.6974739
vt 0.6865166 0.7197273
vn -0.003921509 -0.73332775 0.679864
vn -0.2941153 -0.70195544 0.64865613
vn -0.24705684 -0.5137216 0.8216161
vn -0.003921509 -0.552937 0.83321387
vn -0.6941123 -0.3019585 0.6534747
vn -0.4980353 -0.27842927 0.8212417
vn -0.7333276 0.003921509 0.6798641
vn -0.5529369 0.003921509 0.8332139
vn -0.6941123 0.30195844 0.65347475
vn -0.4980353 0.27842915 0.82124174
vn -0.2941153 0.7019553 0.64865625
vn -0.003921509 0.5529369 0.8332139
vn -0.24705684 0.51372147 0.8216162
vn -0.003921509 0.7333276 0.6798641
vn -0.34117377 0.88234615 0.3241385
vn -0.003921509 0.9294046 0.36904156
vn -0.5999954 0.5999954 0.5291608
vn -0.67842615 0.67842615 0.2819147
vn -0.70710677 0.70710677 -0
vn -0.37206578 0.9282064 -0
vn -0.003921509 0.99999225 -0.00034526698
vn -0.34117377 0.88234615 -0.3241385
vn -0.003921509 0.9294046 -0.36904156
vn -0.67842615 0.67842615 -0.2819147
vn -0.5764661 0.5764661 -0.57911456
vn -0.30195844 0.67842615 -0.6697455
vn -0.003921509 0.70979846 -0.7043939
vn -0.34117377 0.34117377 -0.8759001
vn -0.003921509 0.37254608 -0.9280054
vn -0.67842615 0.30195844 -0.6697455
vn -0.70979846 0.003921509 -0.7043939
vn -0.37254608 0.003921509 -0.9280054
vn -0.003921509 0.003921509 -0.9999846
vn -0.34117377 -0.3411739 -0.87590003
vn -0.003921509 -0.3725462 -0.92800534
vn -0.67842615 -0.3019585 -0.66974545
vn -0.5764661 -0.5764662 -0.57911444
vn -0.30195844 -0.6784262 -0.66974545
vn -0.003921509 -0.7097985 -0.70439386
vn -0.34117377 -0.8823462 -0.3241383
vn -0.003921509 -0.9294047 -0.36904138
vn -0.67842615 -0.6784262 -0.28191456
vn -0.70710677 -0.7071068 -0
vn -0.37206572 -0.9282063 -0
vn -0.003921509 -0.9999924 -0
vn -0.34117377 -0.8823462 0.3241383
vn -0.003921509 -0.9294047 0.36904138
vn -0.67842615 -0.6784262 0.28191456
vn -0.5999954 -0.59999543 0.52916074
vn -0.88234615 -0.3411739 0.32413834
vn -0.92820626 -0.37206584 -0
vn -0.99999225 0.003921509 -0.00034492963
vn -0.9294046 0.003921509 0.36904156
vn -0.88234615 -0.3411739 -0.32413834
vn -0.9294046 0.003921509 -0.36904156
vn -0.88234615 0.34117377 -0.32413846
vn -0.9282064 0.37206578 -0
vn -0.88234615 0.34117377 0.32413846
vn 0.24705696 -0.5137216 0.8216161
vn 0.29411542 -0.70195544 0.6486561
vn 0.49803543 -0.27842927 0.8212416
vn 0.69411236 -0.3019585 0.6534746
vn 0.552937 0.003921509 0.83321387
vn 0.73332775 0.003921509 0.679864
vn 0.49803543 0.27842915 0.8212417
vn 0.69411236 0.30195844 0.6534747
vn 0.29411542 0.7019553 0.6486562
vn 0.24705696 0.51372147 0.8216162
vn 0.3411739 0.88234615 0.3241383
vn 0.6784262 0.67842615 0.28191462
vn 0.59999543 0.5999954 0.5291607
vn 0.37206584 0.92820626 -0
vn 0.7071068 0.70710677 -0
vn 0.3411739 0.88234615 -0.3241383
vn 0.6784262 0.67842615 -0.28191462
vn 0.3019585 0.67842615 -0.6697455
vn 0.5764662 0.5764661 -0.57911444
vn 0.3411739 0.34117377 -0.87590003
vn 0.6784262 0.30195844 -0.66974545
vn 0.3725462 0.003921509 -0.92800534
vn 0.7097985 0.003921509 -0.70439386
vn 0.3411739 -0.3411739 -0.8759
vn 0.6784262 -0.3019585 -0.66974545
vn 0.3019585 -0.6784262 -0.66974545
vn 0.5764662 -0.5764662 -0.5791144
vn 0.3411739 -0.8823462 -0.32413813
vn 0.6784262 -0.6784262 -0.28191444
vn 0.37206584 -0.9282063 -0
vn 0.70710677 -0.70710677 -0
vn 0.3411739 -0.8823462 0.32413813
vn 0.6784262 -0.6784262 0.28191444
vn 0.59999543 -0.59999543 0.5291606
vn 0.8823462 -0.3411739 0.32413816
vn 0.9282063 -0.37206584 -0
vn 0.9294047 0.003921509 0.36904138
vn 0.9999924 0.003921509 -0
vn 0.8823462 -0.3411739 -0.32413816
vn 0.9294047 0.003921509 -0.36904138
vn 0.9282063 0.37206572 -0
vn 0.8823462 0.34117377 -0.32413828
vn 0.8823462 0.34117377 0.32413828
g Base_mesh_0
f 3/3/3 2/2/2 1/1/1
f 4/4/4 3/3/3 1/1/1
f 6/6/6 5/5/5 2/2/2
f 7/7/7 5/5/5 6/6/6
f 8/8/8 7/7/7 6/6/6
f 9/9/9 7/7/7 8/8/8
f 10/10/10 9/9/9 8/8/8
f 11/11/11 9/9/9 10/10/10
f 11/11/11 13/13/13 12/12/12
f 14/14/14 11/11/11 12/12/12
f 15/15/15 11/11/11 14/14/14
f 16/16/16 15/15/15 14/14/14
f 18/18/18 17/17/17 11/11/11
f 15/15/15 18/18/18 11/11/11
f 19/19/19 18/18/18 15/15/15
f 20/20/20 19/19/19 15/15/15
f 20/20/20 15/15/15 16/16/16
f 21/21/21 20/20/20 16/16/16
f 22/22/22 20/20/20 21/21/21
f 23/23/23 22/22/22 21/21/21
f 24/24/24 19/19/19 20/20/20
f 22/22/22 24/24/24 20/20/20
f 25/25/25 24/24/24 22/22/22
f 26/26/26 25/25/25 22/22/22
f 26/26/26 22/22/22 23/23/23
f 27/27/27 26/26/26 23/23/23
f 28/28/28 26/26/26 27/27/27
f 29/29/29 28/28/28 27/27/27
f 30/30/30 25/25/25 26/26/26
f 28/28/28 30/30/30 26/26/26
f 31/31/31 30/30/30 28/28/28
f 32/32/32 31/31/31 28/28/28
f 32/32/32 28/28/28 29/29/29
f 33/33/33 32/32/32 29/29/29
f 34/34/34 32/32/32 33/33/33
f 35/35/35 34/34/34 33/33/33
f 36/36/36 31/31/31 32/32/32
f 34/34/34 36/36/36 32/32/32
f 37/37/37 36/36/36 34/34/34
f 38/38/38 37/37/37 34/34/34
f 38/38/38 34/34/34 35/35/35
f 39/39/39 38/38/38 35/35/35
f 40/40/40 38/38/38 39/39/39
f 41/41/41 40/40/40 39/39/39
f 42/42/42 37/37/37 38/38/38
f 40/40/40 42/42/42 38/38/38
f 43/43/43 42/42/42 40/40/40
f 44/44/44 43/43/43 40/40/40
f 44/44/44 40/40/40 41/41/41
f 45/45/45 44/44/44 41/41/41
f 46/46/46 44/44/44 45/45/45
f 47/47/47 46/46/46 45/45/45
f 48/48/48 43/43/43 44/44/44
f 46/46/46 48/48/48 44/44/44
f 49/49/49 48/48/48 46/46/46
f 2/2/2 49/49/49 46/46/46
f 2/2/2 46/46/46 47/47/47
f 1/1/1 2/2/2 47/47/47
f 50/50/50 48/48/48 49/49/49
f 5/5/5 50/50/50 49/49/49
f 51/51/51 43/43/43 48/48/48
f 50/50/50 51/51/51 48/48/48
f 52/52/52 51/51/51 50/50/50
f 53/53/53 52/52/52 50/50/50
f 53/53/53 50/50/50 5/5/5
f 7/7/7 53/53/53 5/5/5
f 54/54/54 42/42/42 43/43/43
f 51/51/51 54/54/54 43/43/43
f 36/36/36 37/37/37 42/42/42
f 54/54/54 36/36/36 42/42/42
f 31/31/31 36/36/36 54/54/54
f 55/55/55 31/31/31 54/54/54
f 55/55/55 54/54/54 51/51/51
f 52/52/52 55/55/55 51/51/51
f 56/56/56 55/55/55 52/52/52
f 57/57/57 56/56/56 52/52/52
f 30/30/30 31/31/31 55/55/55
f 56/56/56 30/30/30 55/55/55
f 25/25/25 30/30/30 56/56/56
f 24/24/24 25/25/25 56/56/56
f 24/24/24 56/56/56 57/57/57
f 19/19/19 24/24/24 57/57/57
f 58/58/58 53/53/53 7/7/7
f 9/9/9 58/58/58 7/7/7
f 57/57/57 52/52/52 53/53/53
f 58/58/58 57/57/57 53/53/53
f 19/19/19 57/57/57 58/58/58
f 18/18/18 19/19/19 58/58/58
f 18/18/18 58/58/58 9/9/9
f 17/17/17 18/18/18 9/9/9
f 10/10/10 13/13/13 11/11/11
f 6/6/6 2/2/2 3/3/3
f 5/5/5 49/49/49 2/2/2
f 17/17/17 9/9/9 11/11/11
f 59/59/59 4/4/4 1/1/1
f 60/60/60 59/59/59 1/1/1
f 62/62/62 61/61/61 60/60/60
f 64/64/64 63/63/63 61/61/61
f 62/62/62 64/64/64 61/61/61
f 66/66/66 65/65/65 63/63/63
f 64/64/64 66/66/66 63/63/63
f 66/66/66 67/67/67 65/65/65
f 67/67/67 14/14/14 12/12/12
f 68/68/68 67/67/67 12/12/12
f 69/69/69 16/16/16 14/14/14
f 67/67/67 69/69/69 14/14/14
f 70/70/70 69/69/69 67/67/67
f 71/71/71 70/70/70 67/67/67
f 73/73/73 72/72/72 69/69/69
f 70/70/70 73/73/73 69/69/69
f 72/72/72 21/21/21 16/16/16
f 69/69/69 72/72/72 16/16/16
f 74/74/74 23/23/23 21/21/21
f 72/72/72 74/74/74 21/21/21
f 75/75/75 74/74/74 72/72/72
f 73/73/73 75/75/75 72/72/72
f 77/77/77 76/76/76 74/74/74
f 75/75/75 77/77/77 74/74/74
f 76/76/76 27/27/27 23/23/23
f 74/74/74 76/76/76 23/23/23
f 78/78/78 29/29/29 27/27/27
f 76/76/76 78/78/78 27/27/27
f 79/79/79 78/78/78 76/76/76
f 77/77/77 79/79/79 76/76/76
f 81/81/81 80/80/80 78/78/78
f 79/79/79 81/81/81 78/78/78
f 80/80/80 33/33/33 29/29/29
f 78/78/78 80/80/80 29/29/29
f 82/82/82 35/35/35 33/33/33
f 80/80/80 82/82/82 33/33/33
f 83/83/83 82/82/82 80/80/80
f 81/81/81 83/83/83 80/80/80
f 85/85/85 84/84/84 82/82/82
f 83/83/83 85/85/85 82/82/82
f 84/84/84 39/39/39 35/35/35
f 82/82/82 84/84/84 35/35/35
f 86/86/86 41/41/41 39/39/39
f 84/84/84 86/86/86 39/39/39
f 87/87/87 86/86/86 84/84/84
f 85/85/85 87/87/87 84/84/84
f 89/89/89 88/88/88 86/86/86
f 87/87/87 89/89/89 86/86/86
f 88/88/88 45/45/45 41/41/41
f 86/86/86 88/88/88 41/41/41
f 90/90/90 47/47/47 45/45/45
f 88/88/88 90/90/90 45/45/45
f 91/91/91 90/90/90 88/88/88
f 89/89/89 91/91/91 88/88/88
f 92/92/92 60/60/60 90/90/90
f 91/91/91 92/92/92 90/90/90
f 60/60/60 1/1/1 47/47/47
f 90/90/90 60/60/60 47/47/47
f 93/93/93 62/62/62 92/92/92
f 91/91/91 93/93/93 92/92/92
f 94/94/94 93/93/93 91/91/91
f 89/89/89 94/94/94 91/91/91
f 96/96/96 95/95/95 93/93/93
f 94/94/94 96/96/96 93/93/93
f 95/95/95 64/64/64 62/62/62
f 93/93/93 95/95/95 62/62/62
f 97/97/97 94/94/94 89/89/89
f 87/87/87 97/97/97 89/89/89
f 83/83/83 97/97/97 87/87/87
f 85/85/85 83/83/83 87/87/87
f 81/81/81 98/98/98 97/97/97
f 83/83/83 81/81/81 97/97/97
f 98/98/98 96/96/96 94/94/94
f 97/97/97 98/98/98 94/94/94
f 100/100/100 99/99/99 96/96/96
f 98/98/98 100/100/100 96/96/96
f 79/79/79 100/100/100 98/98/98
f 81/81/81 79/79/79 98/98/98
f 77/77/77 75/75/75 100/100/100
f 79/79/79 77/77/77 100/100/100
f 75/75/75 73/73/73 99/99/99
f 100/100/100 75/75/75 99/99/99
f 101/101/101 66/66/66 64/64/64
f 95/95/95 101/101/101 64/64/64
f 99/99/99 101/101/101 95/95/95
f 96/96/96 99/99/99 95/95/95
f 73/73/73 70/70/70 101/101/101
f 99/99/99 73/73/73 101/101/101
f 70/70/70 71/71/71 66/66/66
f 101/101/101 70/70/70 66/66/66
f 68/68/68 65/65/65 67/67/67
f 60/60/60 61/61/61 59/59/59
f 92/92/92 62/62/62 60/60/60
f 66/66/66 71/71/71 67/67/67
