g BeakMesh_CorpsePart
v 0.009765863 -0.7859197 0.9748082
v 0.10975832 -0.7665288 0.94316864
v 0.16692924 -0.71249276 0.84989834
v 0.008957863 -0.73262703 0.8501246
v 0.8457407 0.0028705597 -1.03254
v 0.53154314 0.6122303 -0.8873342
v -0.0038077831 0.64881444 -0.8760552
v -0.0019010305 0.13295138 -1.0093354
v 0.006954074 -0.37189126 0.6899233
v 0.31549597 -0.35631388 0.65896237
v 0.38782412 -0.16311568 0.37659824
v 0.004724145 -0.09479499 0.38820052
v 0.46390116 -0.20096028 0.7925981
v 0.30292422 0.08980656 1.0128143
v 0.4188496 0.47141993 0.7409537
v 0.6199334 0.03011489 0.46560264
v 0.4188496 0.47141993 0.7409537
v 0.30292422 0.08980656 1.0128143
v 0.0051443577 0.13731432 1.0566378
v 0.0021710396 0.5528941 0.80397415
v 0.16692924 -0.71249276 0.84989834
v 0.10975832 -0.7665288 0.94316864
v 0.200831 -0.37635118 1.0160785
v 0.3254823 -0.44932568 0.8701619
v 0.200831 -0.37635118 1.0160785
v 0.10975832 -0.7665288 0.94316864
v 0.009765863 -0.7859197 0.9748082
v 0.007956028 -0.3821361 1.0590618
v 0.45129704 0.54672134 0.6275815
v 0.6873169 0.1000514 0.18207502
v 0.45129704 0.54672134 0.6275815
v 0.0006197691 0.614848 0.67722225
v 0.517614 -0.11172974 0.12270653
v 0.003237486 0.00018823147 0.07022178
v 0.008957863 -0.73262703 0.8501246
v 0.16692924 -0.71249276 0.84989834
v 0.31549597 -0.35631388 0.65896237
v 0.006954074 -0.37189126 0.6899233
v 0.31549597 -0.35631388 0.65896237
v 0.16692924 -0.71249276 0.84989834
v 0.3254823 -0.44932568 0.8701619
v 0.46390116 -0.20096028 0.7925981
v 0.38782412 -0.16311568 0.37659824
v 0.6199334 0.03011489 0.46560264
v 0.517614 -0.11172974 0.12270653
v 0.6873169 0.1000514 0.18207502
v 0.6487613 -0.18415481 -1.0589116
v 0.8457407 0.0028705597 -1.03254
v -0.0019010305 0.13295138 -1.0093354
v 0.0005874634 -0.14886332 -1.052868
v -0.14920747 -0.71352696 0.85067403
v -0.09067917 -0.7671752 0.9437182
v -0.84572935 -0.0032697916 -1.0293404
v -0.53806007 0.60835207 -0.8852982
v -0.3776002 -0.16589504 0.3780203
v -0.3020079 -0.3583176 0.66057837
v -0.45219052 -0.20393354 0.7948928
v -0.6113254 0.025881171 0.46780026
v -0.41386116 0.468382 0.74256957
v -0.29247403 0.0878675 1.0143011
v -0.41386116 0.468382 0.74256957
v -0.29247403 0.0878675 1.0143011
v -0.14920747 -0.71352696 0.85067403
v -0.31041062 -0.45139402 0.8717778
v -0.18533921 -0.37761158 1.0170481
v -0.09067917 -0.7671752 0.9437182
v -0.18533921 -0.37761158 1.0170481
v -0.09067917 -0.7671752 0.9437182
v -0.6813266 0.095074415 0.18466043
v -0.44899106 0.54345715 0.6292943
v -0.44899106 0.54345715 0.6292943
v -0.5101371 -0.114961565 0.124387026
v -0.3020079 -0.3583176 0.66057837
v -0.14920747 -0.71352696 0.85067403
v -0.3020079 -0.3583176 0.66057837
v -0.45219052 -0.20393354 0.7948928
v -0.31041062 -0.45139402 0.8717778
v -0.14920747 -0.71352696 0.85067403
v -0.3776002 -0.16589504 0.3780203
v -0.6113254 0.025881171 0.46780026
v -0.5101371 -0.114961565 0.124387026
v -0.6813266 0.095074415 0.18466043
v -0.64668155 -0.18783909 -1.0570048
v -0.84572935 -0.0032697916 -1.0293404
v 0.6081696 -0.26133066 -0.58638716
v 0.001977086 -0.18418711 -0.6411988
v 0.0023972988 -0.16356814 -0.4740491
v 0.5899098 -0.251409 -0.41959292
v 0.5899098 -0.251409 -0.41959292
v 0.7671752 -0.046026826 -0.3847862
v 0.7887314 -0.05895412 -0.5515158
v 0.6081696 -0.26133066 -0.58638716
v 0.7671752 -0.046026826 -0.3847862
v 0.5028446 0.7251824 -0.3774823
v 0.51257235 0.7171029 -0.54560155
v 0.7887314 -0.05895412 -0.5515158
v 0.5028446 0.7251824 -0.3774823
v -0.0016101599 0.7861022 -0.34034866
v -0.0021919012 0.77417684 -0.5083064
v 0.51257235 0.7171029 -0.54560155
v -0.50499845 0.7045311 -0.37906587
v -0.5159867 0.6980351 -0.5472175
v -0.60250247 -0.26504725 -0.5845127
v -0.58349943 -0.25506097 -0.4178154
v -0.60250247 -0.26504725 -0.5845127
v -0.78513265 -0.06490064 -0.5485102
v -0.7627362 -0.051811814 -0.3819422
v -0.58349943 -0.25506097 -0.4178154
v -0.78513265 -0.06490064 -0.5485102
v -0.5159867 0.6980351 -0.5472175
v -0.50499845 0.7045311 -0.37906587
v -0.7627362 -0.051811814 -0.3819422
v 0.6487613 -0.18415481 -1.0589116
v 0.0005874634 -0.14886332 -1.052868
v 0.53154314 0.6122303 -0.8873342
v 0.8457407 0.0028705597 -1.03254
v -0.0038077831 0.64881444 -0.8760552
v 0.53154314 0.6122303 -0.8873342
v 0.8457407 0.0028705597 -1.03254
v 0.6487613 -0.18415481 -1.0589116
v -0.64668155 -0.18783909 -1.0570048
v -0.53806007 0.60835207 -0.8852982
v -0.84572935 -0.0032697916 -1.0293404
v -0.53806007 0.60835207 -0.8852982
v -0.84572935 -0.0032697916 -1.0293404
v -0.64668155 -0.18783909 -1.0570048
vt 0.9191891 0.6908619
vt 0.9191891 0.6922258
vt 0.9194619 0.6938626
vt 0.92082584 0.6908619
vt 0.94019413 0.7470571
vt 0.95001465 0.7470571
vt 0.95001465 0.73805493
vt 0.9410125 0.73805493
vt 0.9202803 0.70586544
vt 0.9156428 0.70613825
vt 0.91427886 0.7115941
vt 0.9202803 0.7115941
vt 0.9096414 0.70013684
vt 0.90691346 0.69522655
vt 0.9003664 0.69659054
vt 0.902276 0.7042287
vt 0.9003664 0.69659054
vt 0.90691346 0.69522655
vt 0.90664065 0.6908619
vt 0.9000936 0.6908619
vt 0.9194619 0.6938626
vt 0.9191891 0.6922258
vt 0.9134605 0.69413537
vt 0.9148244 0.6971361
vt 0.9134605 0.69413537
vt 0.9191891 0.6922258
vt 0.9191891 0.6908619
vt 0.9134605 0.6908619
vt 0.89900243 0.6971361
vt 0.89600176 0.70613825
vt 0.89900243 0.6971361
vt 0.89900243 0.6908619
vt 0.91236925 0.71568596
vt 0.9202803 0.71650434
vt 0.9202803 0.69986403
vt 0.9183707 0.70013684
vt 0.9156428 0.70613825
vt 0.9202803 0.70586544
vt 0.9156428 0.70613825
vt 0.9183707 0.70013684
vt 0.9145516 0.70259196
vt 0.9118237 0.70559263
vt 0.91427886 0.7115941
vt 0.9096414 0.7110485
vt 0.91236925 0.71568596
vt 0.9085502 0.71459484
vt 0.9361022 0.7470571
vt 0.94019413 0.7470571
vt 0.9410125 0.73805493
vt 0.9361022 0.73805493
vt 0.9194619 0.68786114
vt 0.9191891 0.6894979
vt 0.94019413 0.72878003
vt 0.95001465 0.72878003
vt 0.9262817 0.7115941
vt 0.9249177 0.70613825
vt 0.9096414 0.6815869
vt 0.902276 0.67749506
vt 0.9003664 0.6851332
vt 0.90691346 0.6864972
vt 0.9003664 0.6851332
vt 0.90691346 0.6864972
vt 0.9194619 0.68786114
vt 0.9148244 0.68458766
vt 0.9134605 0.68758833
vt 0.9191891 0.6894979
vt 0.9134605 0.68758833
vt 0.9191891 0.6894979
vt 0.89600176 0.6755855
vt 0.89900243 0.68458766
vt 0.89900243 0.68458766
vt 0.92819124 0.71568596
vt 0.9249177 0.70613825
vt 0.92218983 0.70013684
vt 0.9249177 0.70613825
vt 0.9287368 0.70559263
vt 0.92600894 0.70259196
vt 0.92218983 0.70013684
vt 0.9262817 0.7115941
vt 0.9309192 0.7110485
vt 0.92819124 0.71568596
vt 0.93201035 0.71459484
vt 0.9361022 0.72878003
vt 0.94019413 0.72878003
vt 0.9112781 0.72659767
vt 0.9202803 0.72741604
vt 0.9202803 0.7249609
vt 0.9115509 0.72414255
vt 0.9115509 0.72414255
vt 0.90773183 0.7233242
vt 0.907459 0.7260521
vt 0.9112781 0.72659767
vt 0.8869996 0.70995736
vt 0.8842717 0.6982273
vt 0.8818165 0.69850004
vt 0.8839989 0.7102301
vt 0.8842717 0.6982273
vt 0.8842717 0.6908619
vt 0.8820893 0.6908619
vt 0.8818165 0.69850004
vt 0.8842717 0.68322366
vt 0.8818165 0.68322366
vt 0.9292824 0.72659767
vt 0.9290096 0.72414255
vt 0.9292824 0.72659767
vt 0.9333743 0.7260521
vt 0.9328287 0.7233242
vt 0.9290096 0.72414255
vt 0.8839989 0.6714936
vt 0.8818165 0.68322366
vt 0.8842717 0.68322366
vt 0.8869996 0.6717664
vt 0.91045976 0.73369026
vt 0.9202803 0.73369026
vt 0.8769063 0.6993184
vt 0.8769063 0.71077573
vt 0.8769063 0.6908619
vt 0.8769063 0.6993184
vt 0.90636784 0.7334175
vt 0.91045976 0.73369026
vt 0.9301008 0.73369026
vt 0.8769063 0.68213254
vt 0.8769063 0.670948
vt 0.8769063 0.68213254
vt 0.93419266 0.7334175
vt 0.9301008 0.73369026
vn -0.0004963875 -0.90337896 -0.42884287
vn 0.085215926 -0.90337896 -0.4202912
vn 0.085215926 -0.90337896 -0.4202912
vn -0.0004963875 -0.90337896 -0.42884287
vn 0.0072956085 0.24204928 -0.97023654
vn 0.0072956085 0.24204928 -0.97023654
vn -0.0004963875 0.24204928 -0.97026384
vn -0.0004963875 0.24204928 -0.97026384
vn -0.0004963875 -0.7709145 -0.63693845
vn -0.09400076 -0.7709145 -0.62996405
vn -0.14854497 -0.8877949 -0.43560833
vn -0.0004963875 -0.8877949 -0.46023902
vn 0.81766665 0.008288443 0.57563233
vn 0.84104276 0.047248542 0.5389013
vn 0.89558697 0.14075297 0.42203385
vn 0.89558697 0.14075297 0.42203385
vn 0.2176804 0.63165075 0.7440649
vn 0.2098884 0.3277616 0.92115104
vn -0.0004963875 0.3355537 0.94202095
vn -0.0004963875 0.62385875 0.78153694
vn 0.73195434 -0.35793692 0.57976204
vn 0.73195434 -0.35793692 0.57976204
vn 0.7085782 -0.2098884 0.6736941
vn 0.7085782 -0.22547245 0.6686397
vn 0.19430429 -0.069631875 0.97846675
vn 0.25664055 -0.2176804 0.94167453
vn 0.0072956085 -0.22547245 0.97422224
vn -0.0004963875 -0.085215926 0.9963624
vn 0.9345471 0.3121776 0.17078294
vn 0.9345471 0.3433457 0.09346334
vn 0.15534419 0.966708 0.20333177
vn -0.008288443 0.9745001 0.22423382
vn -0.19529718 -0.9735072 0.11892305
vn -0.0004963875 -0.99688333 0.07888841
vn -0.0004963875 -0.43585724 -0.90001565
vn -0.023872554 -0.43585724 -0.89969915
vn -0.023872554 -0.43585724 -0.89969915
vn -0.0004963875 -0.43585724 -0.90001565
vn 0.7709145 -0.5994898 -0.21518092
vn 0.8254587 -0.5059855 -0.25019315
vn 0.8254587 -0.5059855 -0.25019315
vn 0.7475384 -0.6306579 -0.20846336
vn 0.7163703 -0.6929942 -0.081071965
vn 0.7148394 -0.69928867 -0
vn 0.7085782 -0.6774101 0.1975662
vn 0.7085782 -0.6774101 0.1975662
vn -0.0004963875 0.14854497 -0.98890555
vn -0.0004963875 0.14854497 -0.98890555
vn -0.0004963875 0.14854497 -0.98890555
vn -0.0004963875 0.14854497 -0.98890555
vn -0.08620876 -0.90337896 -0.4200887
vn -0.08620876 -0.90337896 -0.4200887
vn -0.008288443 0.24204928 -0.97022855
vn -0.008288443 0.24204928 -0.97022855
vn 0.15534419 -0.8877949 -0.43323013
vn 0.10079998 -0.7709145 -0.6289119
vn -0.8186595 0.0004963875 0.57427907
vn -0.8965798 0.13296086 0.42245242
vn -0.8965798 0.13296086 0.42245242
vn -0.8420356 0.039456546 0.537977
vn -0.21867329 0.62385875 0.75032145
vn -0.20308918 0.3277616 0.9226739
vn -0.71736306 -0.36572897 0.59298617
vn -0.70177907 -0.23326445 0.67312247
vn -0.70177907 -0.2176804 0.6783225
vn -0.71736306 -0.36572897 0.59298617
vn -0.19529718 -0.069631875 0.9782691
vn -0.24984139 -0.2176804 0.94350123
vn -0.9355399 0.3355537 0.11031233
vn -0.943332 0.3043856 0.13218969
vn -0.17192107 0.966708 0.18952249
vn 0.20209634 -0.9735072 0.10696146
vn 0.02287966 -0.43585724 -0.89972496
vn 0.02287966 -0.43585724 -0.89972496
vn -0.7641153 -0.60728186 -0.21756978
vn -0.74073917 -0.63845 -0.20901453
vn -0.8186595 -0.5137775 -0.25657234
vn -0.8186595 -0.5137775 -0.25657234
vn -0.70957106 -0.70078623 -0.07353599
vn -0.7076016 -0.7066115 -0
vn -0.70177907 -0.6852021 0.19494663
vn -0.70177907 -0.6852021 0.19494663
vn -0.0004963875 0.14854497 -0.98890555
vn -0.0004963875 0.14854497 -0.98890555
vn -0.10179275 -0.9890913 -0.10647386
vn -0.0004963875 -0.99688333 -0.07888841
vn 0.0072956085 -0.9735072 0.22853988
vn -0.17971307 -0.9579232 0.2238
vn 0.7163703 -0.654034 0.24300842
vn 0.7163703 -0.654034 0.24300842
vn 0.72416234 -0.6852021 0.07801907
vn 0.72416234 -0.6852021 0.07801907
vn 0.9345471 0.3433457 0.09346334
vn 0.9345471 0.3433457 0.09346334
vn 0.9267551 0.3667218 0.08148703
vn 0.9267551 0.3667218 0.08148703
vn 0.13976014 0.9822921 0.12477688
vn -0.01608044 0.9900841 0.13955237
vn -0.01608044 0.9745001 -0.22381012
vn 0.085215926 0.966708 -0.24127555
vn -0.16412908 0.9745001 0.15300705
vn -0.10958487 0.966708 -0.23122889
vn 0.108591974 -0.9890913 -0.099530056
vn 0.18651229 -0.9579232 0.21816598
vn -0.7153233 -0.69879365 -0
vn -0.71736306 -0.6929942 0.07175866
vn -0.70957106 -0.6618261 0.24185768
vn -0.70957106 -0.6618261 0.24185768
vn -0.9277479 0.3667218 0.06927445
vn -0.9277479 0.3589298 0.10224101
vn -0.9355399 0.3433457 0.082938716
vn -0.9355399 0.3433457 0.082938716
vn -0.08620876 -0.9890913 -0.119442664
vn -0.0004963875 -0.9890913 -0.14730321
vn 0.918963 0.3823058 0.096691474
vn 0.918963 0.3823058 0.096691474
vn -0.008288443 0.951124 -0.30869794
vn 0.069631875 0.951124 -0.30085635
vn 0.7163703 -0.6929942 -0.081071965
vn 0.7163703 -0.6929942 -0.081071965
vn 0.085215926 -0.9890913 -0.12015291
vn -0.9199559 0.3823058 0.08673738
vn -0.9199559 0.3823058 0.08673738
vn -0.09400076 0.951124 -0.2941547
vn -0.70957106 -0.70078623 -0.07353599
vn -0.70957106 -0.70078623 -0.07353599
g BeakMesh_CorpsePart_0
f 3/3/3 2/2/2 1/1/1
f 4/4/4 3/3/3 1/1/1
f 7/7/7 6/6/6 5/5/5
f 8/8/8 7/7/7 5/5/5
f 11/11/11 10/10/10 9/9/9
f 12/12/12 11/11/11 9/9/9
f 15/15/15 14/14/14 13/13/13
f 16/16/16 15/15/15 13/13/13
f 19/19/19 18/18/18 17/17/17
f 20/20/20 19/19/19 17/17/17
f 23/23/23 22/22/22 21/21/21
f 24/24/24 23/23/23 21/21/21
f 27/27/27 26/26/26 25/25/25
f 28/28/28 27/27/27 25/25/25
f 29/29/29 15/15/15 16/16/16
f 30/30/30 29/29/29 16/16/16
f 20/20/20 17/17/17 31/31/31
f 32/32/32 20/20/20 31/31/31
f 33/33/33 11/11/11 12/12/12
f 34/34/34 33/33/33 12/12/12
f 14/14/14 23/23/23 24/24/24
f 13/13/13 14/14/14 24/24/24
f 28/28/28 25/25/25 18/18/18
f 19/19/19 28/28/28 18/18/18
f 37/37/37 36/36/36 35/35/35
f 38/38/38 37/37/37 35/35/35
f 41/41/41 40/40/40 39/39/39
f 42/42/42 41/41/41 39/39/39
f 42/42/42 39/39/39 43/43/43
f 44/44/44 42/42/42 43/43/43
f 44/44/44 43/43/43 45/45/45
f 46/46/46 44/44/44 45/45/45
f 49/49/49 48/48/48 47/47/47
f 50/50/50 49/49/49 47/47/47
f 51/51/51 4/4/4 1/1/1
f 52/52/52 51/51/51 1/1/1
f 7/7/7 8/8/8 53/53/53
f 54/54/54 7/7/7 53/53/53
f 55/55/55 12/12/12 9/9/9
f 56/56/56 55/55/55 9/9/9
f 59/59/59 58/58/58 57/57/57
f 60/60/60 59/59/59 57/57/57
f 19/19/19 20/20/20 61/61/61
f 62/62/62 19/19/19 61/61/61
f 65/65/65 64/64/64 63/63/63
f 66/66/66 65/65/65 63/63/63
f 27/27/27 28/28/28 67/67/67
f 68/68/68 27/27/27 67/67/67
f 70/70/70 69/69/69 58/58/58
f 59/59/59 70/70/70 58/58/58
f 20/20/20 32/32/32 71/71/71
f 61/61/61 20/20/20 71/71/71
f 72/72/72 34/34/34 12/12/12
f 55/55/55 72/72/72 12/12/12
f 60/60/60 57/57/57 64/64/64
f 65/65/65 60/60/60 64/64/64
f 28/28/28 19/19/19 62/62/62
f 67/67/67 28/28/28 62/62/62
f 73/73/73 38/38/38 35/35/35
f 74/74/74 73/73/73 35/35/35
f 77/77/77 76/76/76 75/75/75
f 78/78/78 77/77/77 75/75/75
f 76/76/76 80/80/80 79/79/79
f 75/75/75 76/76/76 79/79/79
f 80/80/80 82/82/82 81/81/81
f 79/79/79 80/80/80 81/81/81
f 49/49/49 50/50/50 83/83/83
f 84/84/84 49/49/49 83/83/83
f 87/87/87 86/86/86 85/85/85
f 88/88/88 87/87/87 85/85/85
f 91/91/91 90/90/90 89/89/89
f 92/92/92 91/91/91 89/89/89
f 95/95/95 94/94/94 93/93/93
f 96/96/96 95/95/95 93/93/93
f 99/99/99 98/98/98 97/97/97
f 100/100/100 99/99/99 97/97/97
f 102/102/102 101/101/101 98/98/98
f 99/99/99 102/102/102 98/98/98
f 104/104/104 103/103/103 86/86/86
f 87/87/87 104/104/104 86/86/86
f 107/107/107 106/106/106 105/105/105
f 108/108/108 107/107/107 105/105/105
f 111/111/111 110/110/110 109/109/109
f 112/112/112 111/111/111 109/109/109
f 32/32/32 31/31/31 97/97/97
f 98/98/98 32/32/32 97/97/97
f 94/94/94 29/29/29 30/30/30
f 93/93/93 94/94/94 30/30/30
f 88/88/88 33/33/33 34/34/34
f 87/87/87 88/88/88 34/34/34
f 86/86/86 114/114/114 113/113/113
f 85/85/85 86/86/86 113/113/113
f 96/96/96 116/116/116 115/115/115
f 95/95/95 96/96/96 115/115/115
f 100/100/100 118/118/118 117/117/117
f 99/99/99 100/100/100 117/117/117
f 46/46/46 45/45/45 89/89/89
f 90/90/90 46/46/46 89/89/89
f 92/92/92 120/120/120 119/119/119
f 91/91/91 92/92/92 119/119/119
f 32/32/32 98/98/98 101/101/101
f 71/71/71 32/32/32 101/101/101
f 111/111/111 112/112/112 69/69/69
f 70/70/70 111/111/111 69/69/69
f 104/104/104 87/87/87 34/34/34
f 72/72/72 104/104/104 34/34/34
f 86/86/86 103/103/103 121/121/121
f 114/114/114 86/86/86 121/121/121
f 109/109/109 110/110/110 122/122/122
f 123/123/123 109/109/109 122/122/122
f 102/102/102 99/99/99 117/117/117
f 124/124/124 102/102/102 117/117/117
f 82/82/82 107/107/107 108/108/108
f 81/81/81 82/82/82 108/108/108
f 105/105/105 106/106/106 125/125/125
f 126/126/126 105/105/105 125/125/125
