g BeakMeshLeft_CorpsePart
v -0.07355046 -1.0353817 0.17739475
v -0.10190678 -1.0569837 0.025198817
v -0.23327422 -1.0510923 0.11663544
v -0.07950139 -1.035471 0.18170917
v 0.3096618 0.26549876 0.38511312
v 0.4681657 0.27897763 0.1725744
v 0.5200581 0.093426585 0.26481438
v -0.22265184 0.8878802 -0.27788365
v 0.14008915 0.6925993 -0.33263254
v 0.18570328 0.67177093 0.34360516
v -0.08964777 0.81349313 0.33247685
v 0.5979562 -0.48658395 -0.20180064
v -0.10190678 -1.0569837 0.025198817
v -0.07355046 -1.0353817 0.17739475
v 0.61203027 -0.4087751 0.11630809
v -0.49529517 0.45536423 -0.4348998
v -0.50936913 0.63386333 -0.41814786
v -0.619462 0.7384813 -0.27193272
v -0.6316912 0.47657943 -0.31763613
v -0.50877404 -3.325939E-05 -0.30963206
v -0.37208045 0.030048847 -0.40077108
v -0.017045975 -0.4232062 -0.2207247
v 0.082662344 -0.41895127 -0.31469035
v -0.17081892 0.17977512 0.56176746
v 0.19034499 -0.29273134 0.3221221
v 0.07108772 -0.32403338 0.26276124
v -0.3209617 0.097146034 0.47925735
v -0.44224226 0.4538765 0.45622706
v -0.32140803 0.5028826 0.5342442
v -0.463755 0.6927184 0.36365986
v -0.35021067 0.6992346 0.46188045
v 0.011221051 -0.5695404 -0.14285636
v -0.23327422 -1.0510923 0.11663544
v -0.10190678 -1.0569837 0.025198817
v 0.11949879 -0.56510687 -0.24798012
v 0.21367282 -0.45602572 0.27882886
v -0.07950139 -1.035471 0.18170917
v -0.23327422 -1.0510923 0.11663544
v 0.077038705 -0.49434996 0.20994651
v 0.14008915 0.6925993 -0.33263254
v -0.49529517 0.45536423 -0.4348998
v -0.37208045 0.030048847 -0.40077108
v 0.4380836 0.2998358 -0.3173386
v -0.3209617 0.097146034 0.47925735
v -0.50877404 -3.325939E-05 -0.30963206
v -0.6316912 0.47657943 -0.31763613
v -0.44224226 0.4538765 0.45622706
v -0.08964777 0.81349313 0.33247685
v 0.18570328 0.67177093 0.34360516
v -0.32140803 0.5028826 0.5342442
v -0.35021067 0.6992346 0.46188045
v 0.63169813 -0.2859472 -0.15636504
v 0.5819481 -0.116969645 -0.26592225
v 0.49554014 -0.34902745 -0.25919765
v 0.61595786 -0.21343476 0.15960133
v 0.61203027 -0.4087751 0.11630809
v 0.21367282 -0.45602572 0.27882886
v 0.19034499 -0.29273134 0.3221221
v 0.07108772 -0.32403338 0.26276124
v 0.077038705 -0.49434996 0.20994651
v 0.011221051 -0.5695404 -0.14285636
v -0.017045975 -0.4232062 -0.2207247
v -0.07355046 -1.0353817 0.17739475
v -0.07950139 -1.035471 0.18170917
v 0.11949879 -0.56510687 -0.24798012
v -0.10190678 -1.0569837 0.025198817
v 0.5979562 -0.48658395 -0.20180064
v -0.23327422 -1.0510923 0.11663544
v -0.38511312 0.8751154 0.19390869
v -0.08964777 0.81349313 0.33247685
v -0.29162347 0.80046046 0.3684504
v -0.38511312 0.8751154 0.19390869
v -0.4622078 0.892998 -0.13279921
v -0.4622078 0.892998 -0.13279921
v -0.38511312 0.8751154 0.19390869
v -0.463755 0.6927184 0.36365986
v -0.619462 0.7384813 -0.27193272
v -0.4622078 0.892998 -0.13279921
v -0.40019882 0.84512246 -0.29987246
v -0.22265184 0.8878802 -0.27788365
v -0.22265184 0.8878802 -0.27788365
v -0.40019882 0.84512246 -0.29987246
v -0.50936913 0.63386333 -0.41814786
v -0.29162347 0.80046046 0.3684504
v 0.5200581 0.093426585 0.26481438
v 0.3096618 0.26549876 0.38511312
v -0.17081892 0.17977512 0.56176746
v 0.4380836 0.2998358 -0.3173386
v 0.4681657 0.27897763 0.1725744
v 0.39133877 0.4208486 0.33348846
v 0.39133877 0.4208486 0.33348846
v 0.3096618 0.26549876 0.38511312
v 0.39133877 0.4208486 0.33348846
v 0.4681657 0.27897763 0.1725744
v 0.6248843 -0.40338945 -0.22917503
v 0.49554014 -0.34902745 -0.25919765
v 0.082662344 -0.41895127 -0.31469035
v 0.5819481 -0.116969645 -0.26592225
v 0.5819481 -0.116969645 -0.26592225
v 0.5200581 0.093426585 0.26481438
v 0.6248843 -0.40338945 -0.22917503
v 0.61595786 -0.21343476 0.15960133
v 0.63169813 -0.2859472 -0.15636504
v 0.6248843 -0.40338945 -0.22917503
v 0.63169813 -0.2859472 -0.15636504
v 0.49554014 -0.34902745 -0.25919765
vt 0.96424335 0.6884003
vt 0.9621559 0.68899673
vt 0.96275234 0.690786
vt 0.96424335 0.68869853
vt 0.94336873 0.7030125
vt 0.945158 0.70659107
vt 0.9475437 0.7042054
vt 0.9356153 0.6669293
vt 0.94098306 0.6699114
vt 0.9454562 0.66066694
vt 0.94098306 0.6591759
vt 0.9567881 0.6770684
vt 0.9621559 0.68899673
vt 0.96424335 0.6884003
vt 0.96066487 0.67438453
vt 0.93680817 0.6797523
vt 0.9350189 0.677963
vt 0.9320368 0.677963
vt 0.9347207 0.6818397
vt 0.9418777 0.6833308
vt 0.9424741 0.68243617
vt 0.95142037 0.68571645
vt 0.95201683 0.6833308
vt 0.94038665 0.69645196
vt 0.94992936 0.69645196
vt 0.94992936 0.6937681
vt 0.94068485 0.6943645
vt 0.9347207 0.6940663
vt 0.9353171 0.69645196
vt 0.9311422 0.69615376
vt 0.9326332 0.69764477
vt 0.95410424 0.68690926
vt 0.96275234 0.690786
vt 0.9621559 0.68899673
vt 0.95440245 0.6842254
vt 0.95261323 0.69585556
vt 0.9621559 0.692277
vt 0.96275234 0.690786
vt 0.95320964 0.6928735
vt 0.94098306 0.6699114
vt 0.93680817 0.6797523
vt 0.9424741 0.68243617
vt 0.9478419 0.67170066
vt 0.94068485 0.6943645
vt 0.9418777 0.6833308
vt 0.9347207 0.6818397
vt 0.9347207 0.6940663
vt 0.9326332 0.7024161
vt 0.93680817 0.7048018
vt 0.9353171 0.69645196
vt 0.9326332 0.69764477
vt 0.9561917 0.67468274
vt 0.95350784 0.67438453
vt 0.95499885 0.6773666
vt 0.95201683 0.7030125
vt 0.95350784 0.7024161
vt 0.95261323 0.69585556
vt 0.94992936 0.69645196
vt 0.94992936 0.6937681
vt 0.95320964 0.6928735
vt 0.95410424 0.68690926
vt 0.95142037 0.68571645
vt 0.9621559 0.6919788
vt 0.9621559 0.692277
vt 0.95440245 0.6842254
vt 0.9621559 0.68899673
vt 0.9567881 0.6770684
vt 0.96275234 0.690786
vt 0.92845833 0.69943404
vt 0.9326332 0.7024161
vt 0.93144035 0.69943404
vt 0.93591356 0.6594741
vt 0.9332297 0.6633508
vt 0.9278619 0.68512005
vt 0.9281601 0.6901896
vt 0.9311422 0.692277
vt 0.93084395 0.68243617
vt 0.93084395 0.67408633
vt 0.9335278 0.67468274
vt 0.9347207 0.67199886
vt 0.9347207 0.67199886
vt 0.9335278 0.67468274
vt 0.9350189 0.677963
vt 0.93144035 0.69943404
vt 0.9475437 0.7042054
vt 0.94336873 0.7030125
vt 0.94038665 0.69645196
vt 0.9478419 0.67170066
vt 0.95171857 0.66573644
vt 0.94992936 0.66245615
vt 0.9418777 0.7056964
vt 0.94336873 0.7030125
vt 0.9418777 0.7056964
vt 0.945158 0.70659107
vt 0.9564899 0.67647195
vt 0.95499885 0.6773666
vt 0.95201683 0.6833308
vt 0.95350784 0.67438453
vt 0.95350784 0.67438453
vt 0.9552971 0.6663329
vt 0.9564899 0.67647195
vt 0.9588756 0.670806
vt 0.9561917 0.67468274
vt 0.9564899 0.67647195
vt 0.9561917 0.67468274
vt 0.95499885 0.6773666
vn 0.04825467 -0.9929671 0.10810992
vn 0.04825467 -0.9929671 0.10810992
vn 0.04825467 -0.9929671 0.10810992
vn 0.04825467 -0.9929671 0.10810992
vn 0.6962806 0.46704304 0.5450359
vn 0.6962806 0.46704304 0.5450359
vn 0.6962806 0.46704304 0.5450359
vn 0.35274875 0.9354955 0.020408755
vn 0.6260127 0.7793447 -0.02701921
vn 0.5791675 0.8105749 -0.086794995
vn 0.39178646 0.9198804 0.017985394
vn 0.774356 -0.6182052 0.13488941
vn 0.6650504 -0.7431258 0.0739734
vn 0.6650504 -0.7431258 0.0739734
vn 0.7977786 -0.59478253 0.0989092
vn -0.62319386 -0.12633008 -0.7717967
vn -0.64661646 0.21720171 -0.731239
vn -0.56854105 0.44362044 -0.69279283
vn -0.64661646 -0.07948482 -0.7586628
vn -0.53731096 -0.39178646 -0.74686027
vn -0.51388824 -0.44643927 -0.73253727
vn -0.46704304 -0.5791675 -0.66815853
vn -0.47485054 -0.5713599 -0.66937643
vn -0.30308473 -0.40740156 0.8614892
vn -0.21720171 -0.5167071 0.82815284
vn -0.22500932 -0.5167071 0.8260657
vn -0.29527712 -0.4152091 0.86047244
vn -0.52950335 -0.0014094114 0.84830666
vn -0.52950335 -0.0014094114 0.84830666
vn -0.55292594 0.51388824 0.65589005
vn -0.57634866 0.44362044 0.68631124
vn -0.63100135 -0.17317533 -0.75620604
vn -0.63100135 -0.118522525 -0.76667446
vn -0.63100135 -0.118522525 -0.76667446
vn -0.63100135 -0.24344319 -0.73659533
vn -0.41239023 -0.063869715 0.9087656
vn -0.42800534 0.076666 0.9005186
vn -0.42800534 0.076666 0.9005186
vn -0.42019784 0.0298208 0.90694237
vn 0.12633008 0.0298208 -0.99153996
vn 0.12633008 0.014205694 -0.99188656
vn 0.12633008 -0.032639563 -0.99145114
vn 0.12633008 -0.040447116 -0.9911633
vn -0.82619 -0.50889957 0.24172573
vn -0.8183824 -0.50889957 0.26696718
vn -0.9511106 -0.17317533 0.25573218
vn -0.9511106 -0.19659793 0.2381972
vn 0.21221304 0.42019784 0.88226944
vn 0.2824809 0.23281682 0.93059164
vn 0.27467334 0.2562394 0.9267664
vn 0.21221304 0.42019784 0.88226944
vn 0.6572429 -0.2668658 -0.7048506
vn 0.6572429 -0.2668658 -0.7048506
vn 0.6572429 -0.2668658 -0.7048506
vn 0.3761714 -0.18879038 0.9071126
vn 0.39178646 -0.2590583 0.88283193
vn 0.39178646 -0.29028845 0.8730613
vn 0.3761714 -0.18879038 0.9071126
vn -0.6934618 -0.67285794 0.25762957
vn -0.9745332 0.18597162 0.12529804
vn -0.9667257 0.22500932 0.121705525
vn -0.70126927 -0.6650504 0.25676718
vn 0.39178646 -0.3449412 0.8529472
vn 0.39178646 -0.3449412 0.8529472
vn 0.16536778 -0.46986187 -0.86711204
vn 0.16536778 -0.53232217 -0.83023286
vn 0.15756023 -0.399594 -0.90305007
vn -0.8730352 0.47485054 0.11102481
vn 0.07167727 0.9901483 0.12028603
vn 0.39178646 0.9198804 0.017985394
vn -0.30308473 0.8105749 0.50110674
vn 0.07167727 0.9901483 0.12028603
vn 0.063869715 0.9979558 0.0022107875
vn -0.7871523 0.56854105 0.2390656
vn -0.7871523 0.56854105 0.2390656
vn -0.9589181 0.123511195 0.2553842
vn -0.9589181 0.1391263 0.24722455
vn 0.063869715 0.9979558 0.0022107875
vn -0.33431482 0.8183824 -0.46742257
vn 0.35274875 0.9354955 0.020408755
vn 0.040447116 0.33431482 -0.9415931
vn 0.07167727 0.44362044 -0.89334387
vn 0.10290742 0.26404703 -0.9590043
vn 0.095099926 0.64661646 0.7568641
vn 0.36836386 -0.18098289 0.91189545
vn 0.3449412 -0.017024517 0.9384699
vn 0.32932615 0.037628293 0.9434661
vn 0.875854 0.47485054 -0.086004235
vn 0.88366157 0.46704304 -0.03182853
vn 0.7977786 0.59977126 -0.061836295
vn 0.29028845 0.19377911 0.9371138
vn 0.78997105 -0.22002059 0.57230824
vn 0.78997105 -0.22002059 0.57230824
vn 0.78997105 -0.22002059 0.57230824
vn 0.15756023 -0.32932615 -0.93097746
vn 0.13413763 -0.118522525 -0.98384935
vn 0.13413763 -0.095099926 -0.9863889
vn 0.13413763 -0.07167727 -0.9883671
vn 0.9539294 0.29527712 -0.053198222
vn 0.9530522 0.30280602 -0
vn 0.9929671 -0.11071497 0.04193406
vn 0.977352 0.19377911 0.085044995
vn 0.99235266 0.12343477 -0
vn 0.3839789 0.46704304 -0.79651177
vn 0.3839789 0.46704304 -0.79651177
vn 0.3839789 0.46704304 -0.79651177
g BeakMeshLeft_CorpsePart_0
f 3/3/3 2/2/2 1/1/1
f 4/4/4 3/3/3 1/1/1
f 7/7/7 6/6/6 5/5/5
f 10/10/10 9/9/9 8/8/8
f 11/11/11 10/10/10 8/8/8
f 14/14/14 13/13/13 12/12/12
f 15/15/15 14/14/14 12/12/12
f 18/18/18 17/17/17 16/16/16
f 19/19/19 18/18/18 16/16/16
f 21/21/21 20/20/20 19/19/19
f 16/16/16 21/21/21 19/19/19
f 23/23/23 22/22/22 20/20/20
f 21/21/21 23/23/23 20/20/20
f 26/26/26 25/25/25 24/24/24
f 27/27/27 26/26/26 24/24/24
f 29/29/29 28/28/28 27/27/27
f 24/24/24 29/29/29 27/27/27
f 31/31/31 30/30/30 28/28/28
f 29/29/29 31/31/31 28/28/28
f 34/34/34 33/33/33 32/32/32
f 35/35/35 34/34/34 32/32/32
f 35/35/35 32/32/32 22/22/22
f 23/23/23 35/35/35 22/22/22
f 38/38/38 37/37/37 36/36/36
f 39/39/39 38/38/38 36/36/36
f 39/39/39 36/36/36 25/25/25
f 26/26/26 39/39/39 25/25/25
f 42/42/42 41/41/41 40/40/40
f 43/43/43 42/42/42 40/40/40
f 46/46/46 45/45/45 44/44/44
f 47/47/47 46/46/46 44/44/44
f 50/50/50 49/49/49 48/48/48
f 51/51/51 50/50/50 48/48/48
f 54/54/54 53/53/53 52/52/52
f 57/57/57 56/56/56 55/55/55
f 58/58/58 57/57/57 55/55/55
f 61/61/61 60/60/60 59/59/59
f 62/62/62 61/61/61 59/59/59
f 64/64/64 63/63/63 56/56/56
f 57/57/57 64/64/64 56/56/56
f 67/67/67 66/66/66 65/65/65
f 60/60/60 61/61/61 68/68/68
f 45/45/45 62/62/62 59/59/59
f 44/44/44 45/45/45 59/59/59
f 71/71/71 70/70/70 69/69/69
f 31/31/31 71/71/71 69/69/69
f 30/30/30 31/31/31 69/69/69
f 8/8/8 73/73/73 72/72/72
f 11/11/11 8/8/8 72/72/72
f 76/76/76 75/75/75 74/74/74
f 77/77/77 76/76/76 74/74/74
f 77/77/77 46/46/46 47/47/47
f 76/76/76 77/77/77 47/47/47
f 80/80/80 79/79/79 78/78/78
f 18/18/18 78/78/78 79/79/79
f 82/82/82 81/81/81 40/40/40
f 18/18/18 79/79/79 17/17/17
f 83/83/83 82/82/82 40/40/40
f 83/83/83 40/40/40 41/41/41
f 84/84/84 51/51/51 48/48/48
f 58/58/58 55/55/55 85/85/85
f 85/85/85 86/86/86 58/58/58
f 86/86/86 87/87/87 58/58/58
f 90/90/90 89/89/89 88/88/88
f 9/9/9 90/90/90 88/88/88
f 86/86/86 91/91/91 49/49/49
f 49/49/49 87/87/87 86/86/86
f 49/49/49 50/50/50 87/87/87
f 94/94/94 93/93/93 92/92/92
f 96/96/96 95/95/95 67/67/67
f 67/67/67 65/65/65 96/96/96
f 65/65/65 97/97/97 96/96/96
f 43/43/43 98/98/98 96/96/96
f 96/96/96 97/97/97 43/43/43
f 97/97/97 42/42/42 43/43/43
f 100/100/100 99/99/99 88/88/88
f 89/89/89 100/100/100 88/88/88
f 15/15/15 12/12/12 101/101/101
f 101/101/101 102/102/102 15/15/15
f 101/101/101 103/103/103 102/102/102
f 106/106/106 105/105/105 104/104/104
f 102/102/102 103/103/103 99/99/99
f 100/100/100 102/102/102 99/99/99
f 9/9/9 10/10/10 90/90/90
