g Bone7
v -0.32197866 0.19859526 -0.42976183
v 0.25488904 0.19859526 -0.42976183
v 0.25488904 0.79824543 -0.42976183
v -0.32197866 0.79824543 -0.42976183
v -0.32197866 0.19859526 -0.42976183
v -0.32197866 0.19859526 -0.47895148
v 0.25488904 0.19859526 -0.47895148
v 0.25488904 0.19859526 -0.42976183
v -0.32197866 0.030835897 -0.46454927
v -0.32197866 0.016414195 -0.29893368
v 0.25488904 0.016414195 -0.29893368
v 0.25488904 0.030835897 -0.46454927
v -0.32197866 0.030835897 -0.46454927
v 0.25488904 0.030835897 -0.46454927
v 0.25488904 0.19859526 -0.47895148
v -0.32197866 0.19859526 -0.47895148
v -0.32197866 0.79824543 -0.42976183
v -0.32197866 0.77867866 -0.26580274
v -0.32197866 0.016414195 -0.29893368
v -0.32197866 0.19859526 -0.42976183
v -0.32197866 0.016414195 -0.29893368
v -0.32197866 0.77867866 -0.26580274
v 0.25488904 0.75548697 -0.28197843
v 0.25488904 0.016414195 -0.29893368
v 0.25488904 0.75548697 -0.28197843
v 0.25488904 0.79824543 -0.42976183
v 0.25488904 0.19859526 -0.42976183
v 0.25488904 0.016414195 -0.29893368
v 0.25488904 0.030835897 -0.46454927
v 0.25488904 0.19859526 -0.47895148
v -0.32197866 0.030835897 -0.46454927
v -0.32197866 0.19859526 -0.47895148
v -0.32197866 0.77867866 -0.26580274
v 0.25488904 0.79824543 -0.42976183
v 0.25488904 0.75548697 -0.28197843
v -0.32197866 0.79824543 -0.42976183
vt 0.39682984 0.9865376
vt 0.39209798 0.9865376
vt 0.39209798 0.99067795
vt 0.39682984 0.99067795
vt 0.3980128 0.9894949
vt 0.3980128 0.9894949
vt 0.3980128 0.987129
vt 0.3980128 0.987129
vt 0.39978725 0.98476315
vt 0.39978725 0.98594606
vt 0.4045191 0.98594606
vt 0.4045191 0.98476315
vt 0.39564687 0.987129
vt 0.39328095 0.987129
vt 0.39328095 0.9877205
vt 0.39564687 0.9877205
vt 0.4045191 0.99659276
vt 0.4045191 0.99600124
vt 0.4015617 0.99600124
vt 0.40215316 0.99659276
vt 0.40037873 0.9865376
vt 0.40037873 0.99067795
vt 0.40392762 0.99067795
vt 0.40392762 0.9865376
vt 0.40097022 0.99600124
vt 0.40097022 0.99659276
vt 0.40333614 0.99659276
vt 0.4045191 0.99600124
vt 0.4045191 0.99659276
vt 0.40333614 0.99659276
vt 0.40097022 0.99659276
vt 0.4015617 0.99659276
vt 0.40097022 0.99600124
vt 0.4045191 0.9971843
vt 0.4045191 0.99659276
vt 0.40097022 0.9971843
vn -0.003921509 0.003921509 -0.9999846
vn -0.003921509 0.003921509 -0.9999846
vn -0.003921509 0.003921509 -0.9999846
vn -0.003921509 0.003921509 -0.9999846
vn -0.003921509 0.99999225 -0.00034526698
vn -0.003921509 0.99999225 -0.00034526698
vn -0.003921509 0.99999225 -0.00034526698
vn -0.003921509 0.99999225 -0.00034526698
vn -0.003921509 -0.9999924 -0
vn -0.003921509 -0.9999924 -0
vn -0.003921509 -0.9999924 -0
vn -0.003921509 -0.9999924 -0
vn -0.003921509 -0.08235234 -0.99659556
vn -0.003921509 -0.08235234 -0.99659556
vn -0.003921509 -0.08235234 -0.99659556
vn -0.003921509 -0.08235234 -0.99659556
vn -0.99999225 0.003921509 -0.00034492963
vn -0.99999225 0.003921509 -0.00034492963
vn -0.99999225 0.003921509 -0.00034492963
vn -0.99999225 0.003921509 -0.00034492963
vn 0.011764646 -0.035293877 0.9993077
vn 0.011764646 -0.035293877 0.9993077
vn 0.011764646 -0.035293877 0.9993077
vn 0.011764646 -0.035293877 0.9993077
vn 0.9999924 0.003921509 -0
vn 0.9999924 0.003921509 -0
vn 0.9999924 0.003921509 -0
vn 0.9999924 0.003921509 -0
vn 0.9999924 0.003921509 -0
vn 0.9999924 0.003921509 -0
vn -0.99999225 0.003921509 -0.00034492963
vn -0.99999225 0.003921509 -0.00034492963
vn 0.0039215684 0.99214923 0.12499809
vn 0.035293877 0.96861994 0.24602786
vn 0.043136954 0.9607769 0.27394688
vn -0.003921509 0.99214923 0.12499809
g Bone7_0
f 3/3/3 2/2/2 1/1/1
f 4/4/4 3/3/3 1/1/1
f 7/7/7 6/6/6 5/5/5
f 8/8/8 7/7/7 5/5/5
f 11/11/11 10/10/10 9/9/9
f 12/12/12 11/11/11 9/9/9
f 15/15/15 14/14/14 13/13/13
f 16/16/16 15/15/15 13/13/13
f 19/19/19 18/18/18 17/17/17
f 20/20/20 19/19/19 17/17/17
f 23/23/23 22/22/22 21/21/21
f 24/24/24 23/23/23 21/21/21
f 27/27/27 26/26/26 25/25/25
f 28/28/28 27/27/27 25/25/25
f 27/27/27 28/28/28 29/29/29
f 30/30/30 27/27/27 29/29/29
f 20/20/20 32/32/32 31/31/31
f 19/19/19 20/20/20 31/31/31
f 35/35/35 34/34/34 33/33/33
f 36/36/36 33/33/33 34/34/34
