g bone6
v 0.04981053 1.629686 -0.79351723
v 0.044162393 1.6301831 -1.0816194
v 0.5239863 1.6301831 -1.0816194
v 0.79351723 1.629686 -0.79351723
v 0.312383 0.4335829 -0.79351723
v 0.04981053 1.629686 -0.79351723
v 0.79351723 1.629686 -0.79351723
v 0.79351723 0.4335829 -0.79351723
v 1.0301985 0.087507844 -0.9275824
v 0.9275824 0.087507844 -1.0301985
v 0.9058933 -1.6212463E-05 -0.9058933
v 0.9275824 0.087507844 -1.0301985
v 1.0301985 0.087507844 -0.9275824
v 1.0840143 0.5690036 -0.98749816
v 0.98749816 0.5690036 -1.0840143
v 0.5257033 -1.6212463E-05 -1.0067924
v 0.52561295 0.08850193 -1.1000099
v 0.9275824 0.087507844 -1.0301985
v 0.98749816 0.5690036 -1.0840143
v 0.54540414 0.5623162 -1.124907
v 0.52561295 0.08850193 -1.1000099
v 0.06250763 1.5416197 -1.1255848
v -0.3382417 0.5623162 -1.124907
v 0.5459012 1.5416197 -1.1255848
v 0.9887182 1.5416197 -1.0849179
v 1.0849179 1.5416197 -0.9887182
v 0.9887182 1.5416197 -1.0849179
v 1.0849179 1.5416197 -0.9887182
v 1.1255848 1.5416197 -0.5459012
v 1.0816194 1.6301831 -0.5239863
v 0.99310124 1.6295956 -0.99310124
v 0.5239863 1.6301831 -1.0816194
v 0.044162393 1.6301831 -1.0816194
v 0.06250763 1.5416197 -1.1255848
v 0.5459012 1.5416197 -1.1255848
v 0.9887182 1.5416197 -1.0849179
v 0.99310124 1.6295956 -0.99310124
v 1.0849179 1.5416197 -0.9887182
v 0.99310124 1.6295956 -0.99310124
v -0.52571607 -1.6212463E-05 -1.0067924
v -0.5255804 0.08850193 -1.1000099
v 1.0816194 1.6301831 -0.5239863
v 0.7934269 1.629686 -0.45024365
v 0.99310124 1.6295956 -0.99310124
v 1.0840143 0.5690036 -0.98749816
v 1.1255848 1.5416197 -0.5459012
v 1.0849179 1.5416197 -0.9887182
v 0.7934269 1.629686 -0.45024365
v 0.7934269 1.0681669 -0.49493206
v 0.79351723 0.4335829 -0.79351723
v 0.79351723 1.629686 -0.79351723
v 0.79351723 0.4335829 -0.79351723
v 0.33411717 0.4335829 -0.490775
v 0.312383 0.4335829 -0.79351723
v -0.5255804 0.08850193 -1.1000099
v 0.9058933 -1.6212463E-05 -0.9058933
v 0.5257033 -1.6212463E-05 -1.0067924
v -0.52571607 -1.6212463E-05 -1.0067924
v 0.117001295 -1.6212463E-05 -0.5459012
v 0.33411717 0.4335829 -0.490775
v 0.79351723 0.4335829 -0.79351723
v 0.9058933 -1.6212463E-05 -0.9058933
v 0.117001295 -1.6212463E-05 -0.5459012
v 1.1255848 1.5416197 -0.5459012
v 0.7934269 1.0681669 -0.49493206
v 0.7934269 1.629686 -0.45024365
v 1.0816194 1.6301831 -0.5239863
v 1.0840143 0.5690036 -0.98749816
v 1.0301985 0.087507844 -0.9275824
v 0.7934269 1.0681669 -0.49493206
v 1.1255848 1.5416197 -0.5459012
v 0.4923113 1.2158779 -1.1149211
v 0.4923113 1.2158779 -1.1844162
v 0.26877904 1.2158779 -1.1844162
v 0.26877904 1.2158779 -1.1149211
v 0.5651954 1.3101798 -1.1149211
v 0.4923113 1.2158779 -1.1149211
v 0.4923113 1.7158998 -1.1149211
v 0.5651954 1.7158998 -1.1149211
v 0.26877904 1.2158779 -1.1149211
v 0.26877904 1.7158998 -1.1149211
v 0.19589496 1.3101798 -1.1149211
v 0.19589496 1.7158998 -1.1149211
v 0.5651954 1.3101798 -1.1149211
v 0.5651954 1.590917 -1.2453262
v 0.5651954 1.3802172 -1.2453262
v 0.5651954 1.3101798 -1.1844162
v 0.5651954 1.7158998 -1.1149211
v 0.19589496 1.590917 -1.2453262
v 0.19589496 1.3802172 -1.2453262
v 0.29900813 1.2859153 -1.2453262
v 0.5651954 1.590917 -1.2453262
v 0.4622178 1.2859153 -1.2453262
v 0.5651954 1.3802172 -1.2453262
v 0.19589496 1.3101798 -1.1149211
v 0.19589496 1.3101798 -1.1844162
v 0.19589496 1.590917 -1.2453262
v 0.19589496 1.7158998 -1.1149211
v 0.19589496 1.3802172 -1.2453262
v 0.5651954 1.590917 -1.2453262
v 0.5651954 1.7158998 -1.1149211
v 0.19589496 1.7158998 -1.1149211
v 0.19589496 1.590917 -1.2453262
v 0.5651954 1.3101798 -1.1149211
v 0.5651954 1.3101798 -1.1844162
v 0.19589496 1.3101798 -1.1844162
v 0.19589496 1.3101798 -1.1149211
v 0.29900813 1.2859153 -1.2453262
v 0.19589496 1.3802172 -1.2453262
v 0.4622178 1.2859153 -1.2453262
v 0.5651954 1.3802172 -1.2453262
v 0.19589496 1.7158998 -1.1149211
v 0.5651954 1.7158998 -1.1149211
v 0.312383 0.4335829 -0.79351723
v 0.06250763 1.5416197 -1.1255848
v 0.04981053 1.629686 -0.79351723
v 0.117001295 -1.6212463E-05 -0.5459012
v -0.52571607 -1.6212463E-05 -1.0067924
v -0.5255804 0.08850193 -1.1000099
v -0.3382417 0.5623162 -1.124907
v 0.044162393 1.6301831 -1.0816194
v 0.33411717 0.4335829 -0.490775
vt 0.38523728 0.7753211
vt 0.38523728 0.7774458
vt 0.38906163 0.7774458
vt 0.39076135 0.7753211
vt 0.40478396 0.7863693
vt 0.40308425 0.79529274
vt 0.40775847 0.79529274
vt 0.40775847 0.7863693
vt 0.43325415 0.75874895
vt 0.43240428 0.7578991
vt 0.43240428 0.75874895
vt 0.422206 0.80081683
vt 0.42093122 0.80081683
vt 0.42093122 0.80421627
vt 0.4217811 0.80421627
vt 0.4294298 0.758324
vt 0.4294298 0.75704926
vt 0.422206 0.80081683
vt 0.4217811 0.80421627
vt 0.42518052 0.80421627
vt 0.42518052 0.80081683
vt 0.42857993 0.81144
vt 0.43112952 0.80421627
vt 0.42518052 0.81144
vt 0.4217811 0.81144
vt 0.42135617 0.81144
vt 0.4217811 0.81144
vt 0.4098831 0.7787206
vt 0.40648368 0.7787206
vt 0.40648368 0.77957046
vt 0.4098831 0.77957046
vt 0.38183787 0.78127015
vt 0.38523728 0.78127015
vt 0.38523728 0.7804203
vt 0.38183787 0.7804203
vt 0.37843844 0.7804203
vt 0.37843844 0.78127015
vt 0.37673873 0.7804203
vt 0.37716365 0.78127015
vt 0.4217811 0.758324
vt 0.4217811 0.75704926
vt 0.39288598 0.7731965
vt 0.39076135 0.7727716
vt 0.39246106 0.77659595
vt 0.42093122 0.80421627
vt 0.41795674 0.81144
vt 0.42135617 0.81144
vt 0.41030803 0.79529274
vt 0.4098831 0.7910435
vt 0.40775847 0.7863693
vt 0.40775847 0.79529274
vt 0.39033642 0.7744713
vt 0.3873619 0.7727716
vt 0.3873619 0.7744713
vt 0.4328292 0.80081683
vt 0.43240428 0.75874895
vt 0.4294298 0.758324
vt 0.4217811 0.758324
vt 0.4264553 0.76172346
vt 0.3992599 0.7863693
vt 0.3992599 0.7863693
vt 0.3992599 0.7863693
vt 0.3992599 0.7863693
vt 0.3992599 0.7863693
vt 0.3992599 0.7863693
vt 0.3992599 0.7863693
vt 0.3992599 0.7863693
vt 0.3992599 0.7863693
vt 0.3992599 0.7863693
vt 0.3992599 0.7863693
vt 0.3992599 0.7863693
vt 0.41668195 0.7511003
vt 0.41668195 0.75152516
vt 0.41838166 0.75152516
vt 0.41838166 0.7511003
vt 0.41243267 0.7578991
vt 0.41158283 0.7574742
vt 0.41158283 0.7608736
vt 0.41243267 0.7608736
vt 0.41030803 0.7574742
vt 0.41030803 0.7608736
vt 0.4094582 0.7578991
vt 0.4094582 0.7608736
vt 0.4145573 0.7532249
vt 0.4158321 0.7553495
vt 0.4158321 0.75364983
vt 0.41540718 0.7532249
vt 0.4145573 0.75619936
vt 0.41880658 0.75492465
vt 0.41880658 0.7532249
vt 0.41795674 0.7528
vt 0.41625702 0.75492465
vt 0.41668195 0.7528
vt 0.41625702 0.7532249
vt 0.42008138 0.7532249
vt 0.41965646 0.7532249
vt 0.41923153 0.7553495
vt 0.42008138 0.75619936
vt 0.41923153 0.75364983
vt 0.41625702 0.75492465
vt 0.41625702 0.75619936
vt 0.41880658 0.75619936
vt 0.41880658 0.75492465
vt 0.4158321 0.75152516
vt 0.4158321 0.75195014
vt 0.41880658 0.75195014
vt 0.41923153 0.75152516
vt 0.41795674 0.752375
vt 0.41880658 0.7528
vt 0.41668195 0.752375
vt 0.4158321 0.7528
vt 0.41880658 0.75619936
vt 0.41243267 0.7608736
vt 0.40010977 0.7863693
vt 0.40010977 0.7863693
vt 0.40010977 0.7863693
vt 0.40010977 0.7863693
vt 0.40010977 0.7863693
vt 0.40010977 0.7863693
vt 0.40010977 0.7863693
vt 0.40010977 0.7863693
vt 0.40010977 0.7863693
vn -0.003921509 0.99999225 -0.00034526698
vn -0.003921509 0.99999225 -0.00034526698
vn 0.0039215684 0.99999225 -0.00034526698
vn -0.003921509 0.99999225 -0.00034526698
vn -0.003921509 0.003921509 0.9999846
vn -0.003921509 0.003921509 0.9999846
vn -0.003921509 0.003921509 0.9999846
vn -0.003921509 0.003921509 0.9999846
vn 0.6862693 -0.22352773 -0.69214875
vn 0.49019235 -0.49803543 -0.7153126
vn 0.16862619 -0.7803862 -0.60213166
vn 0.49019235 -0.49803543 -0.7153126
vn 0.6862693 -0.22352773 -0.69214875
vn 0.7097985 -0.05882311 -0.70194435
vn 0.7097985 -0.05882311 -0.70194435
vn 0.043136954 -0.7411708 -0.66992915
vn 0.035293877 -0.7411708 -0.67038804
vn 0.1294108 -0.09019542 -0.98748046
vn 0.10588157 -0.0274508 -0.9939998
vn 0.035293877 -0.0274508 -0.9989999
vn 0.035293877 -0.066666186 -0.9971509
vn -0.003921509 -0.0039215684 -0.9999846
vn -0.003921509 -0.0274508 -0.9996155
vn 0.035293877 -0.0039215684 -0.99936926
vn 0.09019542 -0.0039215684 -0.99591637
vn 0.7882293 0.20784152 -0.5792206
vn 0.5764662 0.20784152 -0.7902459
vn 0.7882293 0.20784152 -0.5792206
vn 0.7803862 0.6156815 -0.109240994
vn 0.7803862 0.6156815 -0.109240994
vn 0.5137216 0.68626916 -0.51490265
vn 0.05098003 0.5294076 -0.8468345
vn -0.003921509 0.44313383 -0.8964469
vn -0.003921509 0.44313383 -0.8964469
vn 0.066666186 0.5450938 -0.8357203
vn 0.5764662 0.20784152 -0.7902459
vn 0.5137216 0.68626916 -0.51490265
vn 0.7882293 0.20784152 -0.5792206
vn 0.5137216 0.68626916 -0.51490265
vn -0.003921509 -0.72548467 -0.6882271
vn -0.003921509 -0.72548467 -0.6882271
vn -0.003921509 0.99999225 -0.00034526698
vn -0.003921509 0.99999225 -0.00034526698
vn 0.0039215684 0.99999225 -0.00034526698
vn 0.9921493 -0.0039215684 -0.12499761
vn 0.9921493 -0.0039215684 -0.12499761
vn 0.9921493 -0.0039215684 -0.12499761
vn -0.99999225 0.003921509 -0.00034492963
vn -0.99999225 0.003921509 -0.00034492963
vn -0.99999225 0.003921509 -0.00034492963
vn -0.99999225 0.003921509 -0.00034492963
vn -0.003921509 0.99999225 -0.00034526698
vn -0.003921509 0.99999225 -0.00034526698
vn -0.003921509 0.99999225 -0.00034526698
vn -0.003921509 -0.05098003 -0.998692
vn -0.003921509 -0.9999924 -0
vn -0.003921509 -0.9999924 -0
vn -0.003921509 -0.9999924 -0
vn -0.003921509 -0.9999924 -0
vn 0.45882004 -0.22352773 0.85995317
vn 0.52940774 -0.24705696 0.8115974
vn 0.45882004 -0.16862619 0.8723814
vn 0.45882004 -0.22352773 0.85995317
vn 0.25490004 -0.08235234 0.96345425
vn 0.25490004 -0.08235234 0.96345425
vn 0.25490004 -0.08235234 0.96345425
vn 0.25490004 -0.08235234 0.96345425
vn 0.59999543 -0.29411542 0.7439769
vn 0.46666312 -0.019607723 0.8842178
vn 0.6156816 -0.3411739 0.71030736
vn 0.6156816 -0.3411739 0.71030736
vn 0.3019585 -0.9529339 0.02716661
vn 0.27842927 -0.86666006 -0.41397762
vn -0.27842915 -0.86666006 -0.4139777
vn -0.30195844 -0.9529339 0.027167708
vn 0.0039215684 0.003921509 0.9999846
vn -0.003921509 0.003921509 0.9999846
vn -0.003921509 0.003921509 0.9999846
vn 0.0039215684 0.003921509 0.9999846
vn -0.003921509 0.003921509 0.9999846
vn -0.003921509 0.003921509 0.9999846
vn -0.003921509 0.003921509 0.9999846
vn -0.003921509 0.003921509 0.9999846
vn 0.9999924 0.003921509 -0
vn 0.9999924 0.003921509 -0
vn 0.9999924 0.003921509 -0
vn 0.9999924 0.003921509 -0
vn 0.9999924 0.003921509 -0
vn -0.003921509 0.003921509 -0.9999846
vn -0.003921509 0.003921509 -0.9999846
vn -0.003921509 0.003921509 -0.9999846
vn -0.003921509 0.003921509 -0.9999846
vn -0.003921509 0.003921509 -0.9999846
vn -0.003921509 0.003921509 -0.9999846
vn -0.99999225 0.003921509 -0.00034492963
vn -0.99999225 0.003921509 -0.00034492963
vn -0.99999225 0.003921509 -0.00034492963
vn -0.99999225 0.003921509 -0.00034492963
vn -0.99999225 0.003921509 -0.00034492963
vn -0.003921509 0.7254846 -0.68822724
vn -0.003921509 0.7254846 -0.68822724
vn -0.003921509 0.7254846 -0.68822724
vn -0.003921509 0.7254846 -0.68822724
vn 0.7882293 -0.6078385 0.096057005
vn 0.66274005 -0.5686231 -0.48728162
vn -0.66274 -0.5686231 -0.48728168
vn -0.7882292 -0.6078385 0.09605762
vn -0.19999838 -0.6156816 -0.7621921
vn -0.5294076 -0.49019235 -0.69241536
vn 0.1999985 -0.6156816 -0.7621921
vn 0.52940774 -0.49019235 -0.69241524
vn -0.003921509 0.99999225 -0.00034526698
vn -0.003921509 0.99999225 -0.00034526698
vn -0.5607799 0.30195844 0.77093905
vn -0.874503 -0.05098003 0.48233336
vn -0.9764631 -0.21568465 -8.6316744E-05
vn -0.53725076 0.5843092 0.60823053
vn -0.47450614 0.6078384 0.6366918
vn -0.45097685 0.3803892 0.8074181
vn -0.41960454 0.18431222 0.8887975
vn -0.9764631 -0.21568465 -8.6316744E-05
vn -0.8967644 0.4425082 -0
g bone6_0
f 3/3/3 2/2/2 1/1/1
f 4/4/4 3/3/3 1/1/1
f 7/7/7 6/6/6 5/5/5
f 8/8/8 7/7/7 5/5/5
f 11/11/11 10/10/10 9/9/9
f 14/14/14 13/13/13 12/12/12
f 15/15/15 14/14/14 12/12/12
f 10/10/10 11/11/11 16/16/16
f 17/17/17 10/10/10 16/16/16
f 20/20/20 19/19/19 18/18/18
f 21/21/21 20/20/20 18/18/18
f 20/20/20 23/23/23 22/22/22
f 24/24/24 20/20/20 22/22/22
f 24/24/24 25/25/25 19/19/19
f 20/20/20 24/24/24 19/19/19
f 26/26/26 14/14/14 15/15/15
f 27/27/27 26/26/26 15/15/15
f 30/30/30 29/29/29 28/28/28
f 31/31/31 30/30/30 28/28/28
f 34/34/34 33/33/33 32/32/32
f 35/35/35 34/34/34 32/32/32
f 37/37/37 36/36/36 35/35/35
f 32/32/32 37/37/37 35/35/35
f 36/36/36 39/39/39 38/38/38
f 17/17/17 16/16/16 40/40/40
f 41/41/41 17/17/17 40/40/40
f 4/4/4 43/43/43 42/42/42
f 3/3/3 4/4/4 44/44/44
f 44/44/44 4/4/4 42/42/42
f 47/47/47 46/46/46 45/45/45
f 50/50/50 49/49/49 48/48/48
f 51/51/51 50/50/50 48/48/48
f 54/54/54 53/53/53 52/52/52
f 55/55/55 23/23/23 20/20/20
f 21/21/21 55/55/55 20/20/20
f 58/58/58 57/57/57 56/56/56
f 59/59/59 58/58/58 56/56/56
f 62/62/62 61/61/61 60/60/60
f 63/63/63 62/62/62 60/60/60
f 66/66/66 65/65/65 64/64/64
f 67/67/67 66/66/66 64/64/64
f 69/69/69 68/68/68 61/61/61
f 62/62/62 69/69/69 61/61/61
f 71/71/71 70/70/70 61/61/61
f 68/68/68 71/71/71 61/61/61
f 74/74/74 73/73/73 72/72/72
f 75/75/75 74/74/74 72/72/72
f 78/78/78 77/77/77 76/76/76
f 79/79/79 78/78/78 76/76/76
f 80/80/80 77/77/77 78/78/78
f 81/81/81 80/80/80 78/78/78
f 82/82/82 80/80/80 81/81/81
f 83/83/83 82/82/82 81/81/81
f 86/86/86 85/85/85 84/84/84
f 87/87/87 86/86/86 84/84/84
f 85/85/85 88/88/88 84/84/84
f 91/91/91 90/90/90 89/89/89
f 92/92/92 91/91/91 89/89/89
f 94/94/94 93/93/93 91/91/91
f 92/92/92 94/94/94 91/91/91
f 97/97/97 96/96/96 95/95/95
f 98/98/98 97/97/97 95/95/95
f 96/96/96 97/97/97 99/99/99
f 102/102/102 101/101/101 100/100/100
f 103/103/103 102/102/102 100/100/100
f 73/73/73 105/105/105 104/104/104
f 72/72/72 73/73/73 104/104/104
f 75/75/75 107/107/107 106/106/106
f 74/74/74 75/75/75 106/106/106
f 108/108/108 74/74/74 106/106/106
f 109/109/109 108/108/108 106/106/106
f 73/73/73 74/74/74 108/108/108
f 110/110/110 73/73/73 108/108/108
f 105/105/105 73/73/73 110/110/110
f 111/111/111 105/105/105 110/110/110
f 113/113/113 112/112/112 81/81/81
f 78/78/78 113/113/113 81/81/81
f 116/116/116 115/115/115 114/114/114
f 118/118/118 117/117/117 114/114/114
f 120/120/120 119/119/119 114/114/114
f 118/118/118 114/114/114 119/119/119
f 116/116/116 121/121/121 115/115/115
f 120/120/120 114/114/114 115/115/115
f 122/122/122 114/114/114 117/117/117
