g bone8
v -0.5459113 2.2745018 -0.545424
v 0.045844913 2.2478132 -1.0064172
v 0.18866599 2.2745018 -0.545424
v -0.52570736 2.2478132 -1.0064172
v -1.121322 1.7182766 -0.54258364
v -1.0455974 2.0703187 -0.921582
v -1.1002072 2.1537604 -0.5253272
v -1.0772165 1.7174729 -0.9754949
v -0.92501676 2.1906314 -0.9245831
v -1.0069045 2.2473845 -0.52522
v -1.0455974 2.0703187 -0.921582
v -0.9219085 2.070426 -1.0452709
v -0.92501676 2.1906314 -0.9245831
v -0.52570736 2.2478132 -1.0064172
v -0.0013154745 2.1542964 -1.0998269
v 0.045844913 2.2478132 -1.0064172
v -0.52570736 2.1542964 -1.0998269
v -1.0069045 2.2473845 -0.52522
v -1.1002072 2.1537604 -0.5253272
v -0.5425886 1.7188126 -1.1213171
v -0.9219085 2.070426 -1.0452709
v -0.9755 1.71758 -1.0772114
v -0.52570736 2.1542964 -1.0998269
v -1.0772165 1.7174729 -0.9754949
v -0.9219085 2.070426 -1.0452709
v -1.0455974 2.0703187 -0.921582
v -0.9755 1.71758 -1.0772114
v -1.121322 1.7182766 -0.54258364
v -1.0816108 1.6294221 -0.2271446
v -1.0816108 1.62969 -0.5240946
v -1.121322 1.7180086 -0.21535456
v -1.0772165 1.7174729 -0.9754949
v -0.9930779 1.6294757 -0.9931801
v -0.5239924 1.6301724 -1.0816596
v -0.9755 1.71758 -1.0772114
v -0.9930779 1.6294757 -0.9931801
v -0.5425886 1.7188126 -1.1213171
v -1.0816108 1.62969 -0.5240946
v -0.78289235 1.6288327 -0.26272935
v -0.7827853 1.629315 -0.7827803
v -1.0816108 1.6294221 -0.2271446
v -0.9930779 1.6294757 -0.9931801
v -0.5239924 1.6301724 -1.0816596
v -0.7827853 1.629315 -0.7827803
v -0.655988 1.9698347 -0.25067127
v -0.6558808 1.97021 -0.6555543
v -0.78289235 1.6288327 -0.26272935
v -1.1002072 2.1534925 -0.18319964
v -1.121322 1.7180086 -0.21535456
v -0.5459113 2.2742338 -0.23952425
v -1.0069045 2.2470632 -0.18684387
v -1.0069045 2.2470632 -0.18684387
v -1.1002072 2.1534925 -0.18319964
v -0.655988 1.9698347 -0.25067127
v 0.092844605 1.97021 -0.6555543
v -0.6558808 1.97021 -0.6555543
v 0.18362844 1.969942 -0.3505656
v -1.1002072 2.1534925 -0.18319964
v -1.0816108 1.6294221 -0.2271446
v -1.121322 1.7180086 -0.21535456
v -0.655988 1.9698347 -0.25067127
v -0.78289235 1.6288327 -0.26272935
v -1.0069045 2.2470632 -0.18684387
v -0.49081933 2.122356 -1.0923778
v -0.26728964 2.126536 -1.1617787
v -0.26728964 2.122356 -1.0923778
v -0.49081933 2.126536 -1.1617787
v -0.19440532 2.0325365 -1.1674594
v -0.19440532 1.8485037 -1.2376105
v -0.19440532 1.7159187 -1.1149397
v -0.19440532 1.9662977 -1.2324121
v -0.19440532 2.02841 -1.0979513
v -0.19440532 1.7159187 -1.1149397
v -0.56370366 1.8485037 -1.2376105
v -0.56370366 1.7159187 -1.1149397
v -0.19440532 1.8485037 -1.2376105
v -0.56370366 1.7159187 -1.1149397
v -0.56370366 1.8485037 -1.2376105
v -0.56370366 2.02841 -1.0979513
v -0.56370366 1.9662977 -1.2324121
v -0.56370366 2.0325365 -1.1674594
v -0.19440532 1.8485037 -1.2376105
v -0.29740798 2.060297 -1.2267314
v -0.46059382 2.060297 -1.2267314
v -0.19440532 1.9662977 -1.2324121
v -0.56370366 1.8485037 -1.2376105
v -0.56370366 1.9662977 -1.2324121
v -0.19440532 2.0325365 -1.1674594
v -0.19440532 2.02841 -1.0979513
v -0.56370366 2.02841 -1.0979513
v -0.56370366 2.0325365 -1.1674594
v -0.29740798 2.060297 -1.2267314
v -0.19440532 1.9662977 -1.2324121
v -0.46059382 2.060297 -1.2267314
v -0.56370366 1.9662977 -1.2324121
v -0.56370366 2.02841 -1.0979513
v -0.19440532 1.7159187 -1.1149397
v -0.56370366 1.7159187 -1.1149397
v -0.19440532 2.02841 -1.0979513
v -0.26728964 2.122356 -1.0923778
v -0.49081933 2.122356 -1.0923778
v -0.09788716 1.7188126 -1.1213171
v -0.0013154745 2.1542964 -1.0998269
v -0.09788716 1.7188126 -1.1213171
v -0.104478955 1.6301724 -1.0816596
v -0.015624404 1.629315 -0.7827803
v -0.104478955 1.6301724 -1.0816596
v -0.6558808 1.97021 -0.6555543
v -0.015624404 1.629315 -0.7827803
v -0.7827853 1.629315 -0.7827803
v 0.092844605 1.97021 -0.6555543
v 0.25147516 2.274341 -0.33443463
v -0.5459113 2.2742338 -0.23952425
v 0.18362844 1.969942 -0.3505656
v 0.25147516 2.274341 -0.33443463
v 0.18362844 1.969942 -0.3505656
v 0.18866599 2.2745018 -0.545424
v 0.092844605 1.97021 -0.6555543
v 0.25147516 2.274341 -0.33443463
v -0.09788716 1.7188126 -1.1213171
v -0.015624404 1.629315 -0.7827803
v -0.0013154745 2.1542964 -1.0998269
v -0.104478955 1.6301724 -1.0816596
v 0.045844913 2.2478132 -1.0064172
vt 0.4242147 0.7829881
vt 0.42096052 0.7870558
vt 0.4242147 0.7882761
vt 0.42096052 0.7829881
vt 0.39411354 0.7964115
vt 0.3912661 0.7988522
vt 0.39411354 0.79925895
vt 0.39085934 0.7964115
vt 0.42177406 0.78014064
vt 0.42462146 0.7797339
vt 0.4213673 0.7789203
vt 0.42055374 0.78014064
vt 0.42177406 0.78014064
vt 0.42096052 0.7829881
vt 0.42014697 0.786649
vt 0.42096052 0.7870558
vt 0.42014697 0.7829881
vt 0.42462146 0.7797339
vt 0.4242147 0.77851355
vt 0.3871984 0.7964115
vt 0.38963902 0.7988522
vt 0.3900458 0.7964115
vt 0.38679162 0.79925895
vt 0.39085934 0.7964115
vt 0.38963902 0.7988522
vt 0.3912661 0.7988522
vt 0.3900458 0.7964115
vt 0.4213673 0.77688646
vt 0.41933343 0.7772932
vt 0.42096052 0.7772932
vt 0.41933343 0.77688646
vt 0.42380792 0.77688646
vt 0.42380792 0.7772932
vt 0.4282824 0.7772932
vt 0.42584178 0.77688646
vt 0.42584178 0.7772932
vt 0.4282824 0.77688646
vt 0.40997764 0.77322555
vt 0.4079438 0.77119166
vt 0.4079438 0.77485263
vt 0.40997764 0.77119166
vt 0.4091641 0.7764797
vt 0.40590993 0.7772932
vt 0.38679162 0.7825813
vt 0.38353744 0.7850219
vt 0.38679162 0.7850219
vt 0.38313067 0.7825813
vt 0.39655417 0.79925895
vt 0.39655417 0.7964115
vt 0.42665532 0.7829881
vt 0.42665532 0.7797339
vt 0.42665532 0.7797339
vt 0.42665532 0.77851355
vt 0.3977745 0.7679375
vt 0.40306252 0.7646833
vt 0.3977745 0.7646833
vt 0.40387607 0.76712394
vt 0.41648602 0.78624225
vt 0.41648602 0.78624225
vt 0.41648602 0.78624225
vt 0.41648602 0.78624225
vt 0.41648602 0.78624225
vt 0.41648602 0.78624225
vt 0.4120115 0.7557343
vt 0.41038442 0.7553275
vt 0.41038442 0.7557343
vt 0.4120115 0.7553275
vt 0.40875733 0.75410724
vt 0.4091641 0.75248015
vt 0.40835056 0.75166655
vt 0.4091641 0.75329363
vt 0.40835056 0.75410724
vt 0.40957087 0.75166655
vt 0.4124183 0.7528869
vt 0.4124183 0.75166655
vt 0.40957087 0.7528869
vt 0.41363862 0.75166655
vt 0.41282508 0.7528869
vt 0.41363862 0.75410724
vt 0.41282508 0.75370044
vt 0.41323185 0.75410724
vt 0.40957087 0.7528869
vt 0.41038442 0.754514
vt 0.41160476 0.754514
vt 0.40957087 0.75370044
vt 0.4124183 0.7528869
vt 0.4124183 0.75370044
vt 0.40957087 0.7549207
vt 0.40957087 0.7557343
vt 0.41282508 0.7557343
vt 0.41282508 0.7549207
vt 0.41038442 0.7549207
vt 0.40957087 0.754514
vt 0.41160476 0.7549207
vt 0.41282508 0.754514
vt 0.41282508 0.7557343
vt 0.40957087 0.75166655
vt 0.41363862 0.75166655
vt 0.40835056 0.75410724
vt 0.41038442 0.7557343
vt 0.4120115 0.7557343
vt 0.3839442 0.7964115
vt 0.38313067 0.79925895
vt 0.43072307 0.77688646
vt 0.43072307 0.7772932
vt 0.40224898 0.77485263
vt 0.40306252 0.7772932
vt 0.38679162 0.7850219
vt 0.39207965 0.7825813
vt 0.38679162 0.7825813
vt 0.3928932 0.7850219
vt 0.42584178 0.7886829
vt 0.41648602 0.78624225
vt 0.41648602 0.78624225
vt 0.41648602 0.78624225
vt 0.4152657 0.78624225
vt 0.4152657 0.78624225
vt 0.4152657 0.78624225
vt 0.4152657 0.78624225
vt 0.4152657 0.78624225
vt 0.4152657 0.78624225
vt 0.4152657 0.78624225
vt 0.4152657 0.78624225
vt 0.4152657 0.78624225
vn -0.03527213 0.9993777 -0
vn -0.003921509 0.99999225 -0.00034526698
vn -0.003921509 0.99999225 -0.00034526698
vn -0.058721937 0.9982743 -0
vn -0.99214923 0.066666126 -0.10580893
vn -0.99214923 0.074509144 -0.10044047
vn -0.99214923 0.050979972 -0.11419695
vn -0.99214923 0.10588145 -0.06655087
vn -0.10588145 0.9843061 -0.14117599
vn -0.05882299 0.99214923 -0.11036182
vn -0.7176415 0.48234916 -0.5023246
vn -0.4901923 0.4901923 -0.7207101
vn -0.50587845 0.7019553 -0.5013439
vn -0.10588145 0.7019553 -0.70430666
vn -0.003921509 0.70979846 -0.7043939
vn -0.003921509 0.70979846 -0.7043939
vn -0.11372459 0.7019553 -0.70308286
vn -0.7019553 0.7019553 -0.12048865
vn -0.7019553 0.7019553 -0.12048865
vn -0.05882299 0.05882299 -0.9965338
vn -0.12156761 0.08235228 -0.98916095
vn -0.098038435 0.10588145 -0.989534
vn -0.05882299 0.050979972 -0.9969658
vn -0.81960154 -0.31764466 -0.4768178
vn -0.4901923 0.4901923 -0.7207101
vn -0.7176415 0.48234916 -0.5023246
vn -0.466663 -0.32548773 -0.8223645
vn -0.9058753 -0.41960466 -0.05763529
vn -0.91170174 -0.41085276 -0
vn -0.8901892 -0.45097697 -0.064676076
vn -0.91170174 -0.41085276 -0
vn -0.81960154 -0.31764466 -0.4768178
vn -0.4980353 -0.7097985 -0.49814343
vn -0.050979972 -0.4431339 -0.8950047
vn -0.466663 -0.32548773 -0.8223645
vn -0.4980353 -0.7097985 -0.49814343
vn -0.050979972 -0.41960466 -0.90627426
vn -0.003921509 -0.9999924 -0
vn -0.003921509 -0.9999924 -0
vn -0.003921509 -0.9999924 -0
vn -0.003921509 -0.9999924 -0
vn 0.0039215684 -0.9999924 -0
vn 0.0039215684 -0.9999924 -0
vn 0.9371325 -0.34897402 -0
vn 0.9371325 -0.34897402 -0
vn 0.9371325 -0.34897402 -0
vn 0.9371325 -0.34897402 -0
vn -0.998703 0.050914247 -0
vn -0.998703 0.050914247 -0
vn -0.027440555 0.9996234 -0
vn -0.058721937 0.9982743 -0
vn -0.70710677 0.70710677 -0
vn -0.70710677 0.70710677 -0
vn 0.0039215684 -0.9999924 -0
vn 0.0039215684 -0.9999924 -0
vn -0.003921509 -0.9999924 -0
vn 0.0039215684 -0.9999924 -0
vn 0.121567726 -0.08235234 0.9891609
vn 0.121567726 -0.08235234 0.9891609
vn 0.121567726 -0.08235234 0.9891609
vn 0.121567726 -0.08235234 0.9891609
vn 0.121567726 -0.08235234 0.9891609
vn 0.121567726 -0.08235234 0.9891609
vn -0.30195844 0.9529338 0.027172094
vn 0.26274312 0.874503 -0.40768927
vn 0.3019585 0.9529338 0.027170997
vn -0.2862723 0.88234615 -0.37351504
vn 0.9999924 0.003921509 -0
vn 0.9999924 0.003921509 -0
vn 0.9999924 0.003921509 -0
vn 0.9999924 0.003921509 -0
vn 0.9999924 0.003921509 -0
vn -0.003921509 -0.6784262 -0.73465806
vn -0.003921509 -0.6784262 -0.73465806
vn -0.003921509 -0.6784262 -0.73465806
vn -0.003921509 -0.6784262 -0.73465806
vn -0.99999225 0.003921509 -0.00034492963
vn -0.99999225 0.003921509 -0.00034492963
vn -0.99999225 0.003921509 -0.00034492963
vn -0.99999225 0.003921509 -0.00034492963
vn -0.99999225 0.003921509 -0.00034492963
vn -0.003921509 0.050979972 -0.998692
vn -0.003921509 0.050979972 -0.998692
vn 0.0039215684 0.050979972 -0.998692
vn -0.011764526 0.043136835 -0.9989999
vn 0.0039215684 0.050979972 -0.998692
vn 0.011764646 0.043136835 -0.9989999
vn 0.654897 0.6078384 -0.44904616
vn 0.7882293 0.6078384 0.09605778
vn -0.7882292 0.6078384 0.0960584
vn -0.65489686 0.6078384 -0.44904637
vn 0.19215542 0.66274 -0.7237762
vn 0.5137216 0.5999954 -0.6132664
vn -0.22352767 0.64705384 -0.72894216
vn -0.51372147 0.5999954 -0.6132665
vn -0.003921509 -0.05098003 0.998692
vn -0.003921509 -0.05098003 0.998692
vn -0.003921509 -0.05098003 0.998692
vn -0.003921509 -0.05882311 0.99826074
vn -0.003921509 -0.05882311 0.99826074
vn -0.003921509 -0.05882311 0.99826074
vn -0.003921509 0.050979972 -0.998692
vn -0.003921509 0.050979972 -0.998692
vn 0.87450314 -0.25490004 -0.41263813
vn 0.52156466 -0.38038927 -0.76372397
vn -0.003921509 -0.9999924 -0
vn -0.003921509 -0.9999924 -0
vn -0.003921509 -0.34901696 0.9371082
vn -0.003921509 -0.34901696 0.9371082
vn -0.003921509 -0.34901696 0.9371082
vn -0.003921509 -0.34901696 0.9371082
vn -0.003921509 0.99999225 -0.00034526698
vn 0.121567726 -0.08235234 0.9891609
vn 0.121567726 -0.08235234 0.9891609
vn 0.121567726 -0.08235234 0.9891609
vn 0.93724775 -0.19215542 -0.29093462
vn 0.93724775 -0.19215542 -0.29093462
vn 0.93724775 -0.19215542 -0.29093462
vn 0.93724775 -0.19215542 -0.29093462
vn 0.87450314 -0.25490004 -0.41263813
vn 0.93724775 -0.19215542 -0.29093462
vn 0.93724775 -0.19215542 -0.29093462
vn 0.52156466 -0.38038927 -0.76372397
vn 0.93724775 -0.19215542 -0.29093462
g bone8_0
f 3/3/3 2/2/2 1/1/1
f 4/4/4 1/1/1 2/2/2
f 7/7/7 6/6/6 5/5/5
f 8/8/8 5/5/5 6/6/6
f 4/4/4 9/9/9 1/1/1
f 10/10/10 1/1/1 9/9/9
f 13/13/13 12/12/12 11/11/11
f 16/16/16 15/15/15 14/14/14
f 17/17/17 14/14/14 15/15/15
f 12/12/12 13/13/13 17/17/17
f 14/14/14 17/17/17 13/13/13
f 19/19/19 18/18/18 11/11/11
f 13/13/13 11/11/11 18/18/18
f 22/22/22 21/21/21 20/20/20
f 23/23/23 20/20/20 21/21/21
f 26/26/26 25/25/25 24/24/24
f 27/27/27 24/24/24 25/25/25
f 30/30/30 29/29/29 28/28/28
f 31/31/31 28/28/28 29/29/29
f 28/28/28 32/32/32 30/30/30
f 33/33/33 30/30/30 32/32/32
f 36/36/36 35/35/35 34/34/34
f 37/37/37 34/34/34 35/35/35
f 35/35/35 36/36/36 32/32/32
f 40/40/40 39/39/39 38/38/38
f 41/41/41 38/38/38 39/39/39
f 43/43/43 40/40/40 42/42/42
f 42/42/42 40/40/40 38/38/38
f 46/46/46 45/45/45 44/44/44
f 47/47/47 44/44/44 45/45/45
f 7/7/7 5/5/5 48/48/48
f 49/49/49 48/48/48 5/5/5
f 1/1/1 10/10/10 50/50/50
f 51/51/51 50/50/50 10/10/10
f 18/18/18 19/19/19 52/52/52
f 53/53/53 52/52/52 19/19/19
f 56/56/56 55/55/55 54/54/54
f 57/57/57 54/54/54 55/55/55
f 60/60/60 59/59/59 58/58/58
f 62/62/62 61/61/61 59/59/59
f 59/59/59 61/61/61 58/58/58
f 58/58/58 61/61/61 63/63/63
f 66/66/66 65/65/65 64/64/64
f 67/67/67 64/64/64 65/65/65
f 70/70/70 69/69/69 68/68/68
f 71/71/71 68/68/68 69/69/69
f 68/68/68 72/72/72 70/70/70
f 75/75/75 74/74/74 73/73/73
f 76/76/76 73/73/73 74/74/74
f 79/79/79 78/78/78 77/77/77
f 78/78/78 79/79/79 80/80/80
f 81/81/81 80/80/80 79/79/79
f 84/84/84 83/83/83 82/82/82
f 85/85/85 82/82/82 83/83/83
f 87/87/87 84/84/84 86/86/86
f 82/82/82 86/86/86 84/84/84
f 89/89/89 88/88/88 66/66/66
f 65/65/65 66/66/66 88/88/88
f 91/91/91 90/90/90 67/67/67
f 64/64/64 67/67/67 90/90/90
f 65/65/65 88/88/88 92/92/92
f 93/93/93 92/92/92 88/88/88
f 65/65/65 92/92/92 67/67/67
f 94/94/94 67/67/67 92/92/92
f 67/67/67 94/94/94 91/91/91
f 95/95/95 91/91/91 94/94/94
f 98/98/98 97/97/97 96/96/96
f 97/97/97 99/99/99 96/96/96
f 99/99/99 100/100/100 96/96/96
f 100/100/100 101/101/101 96/96/96
f 20/20/20 23/23/23 102/102/102
f 103/103/103 102/102/102 23/23/23
f 37/37/37 104/104/104 34/34/34
f 105/105/105 34/34/34 104/104/104
f 40/40/40 43/43/43 106/106/106
f 107/107/107 106/106/106 43/43/43
f 110/110/110 109/109/109 108/108/108
f 111/111/111 108/108/108 109/109/109
f 1/1/1 50/50/50 3/3/3
f 112/112/112 3/3/3 50/50/50
f 63/63/63 61/61/61 113/113/113
f 61/61/61 114/114/114 113/113/113
f 113/113/113 114/114/114 115/115/115
f 118/118/118 117/117/117 116/116/116
f 119/119/119 116/116/116 117/117/117
f 121/121/121 120/120/120 118/118/118
f 122/122/122 118/118/118 120/120/120
f 121/121/121 123/123/123 120/120/120
f 122/122/122 124/124/124 118/118/118
f 117/117/117 118/118/118 124/124/124
