g BoneL1
v 0.0029295385 0.25220853 0.045658022
v -0.2603379 -0.15493682 0.20550567
v -0.30618632 -0.24683478 0.020340234
v -0.04614806 0.07029733 -0.25377047
v 0.4046721 0.40008205 -0.21863967
v -0.11030322 -0.25583106 0.31571037
v -0.41875315 -0.400086 0.30310798
v 0.25222504 0.056589276 0.19609475
v -0.04614806 0.07029733 -0.25377047
v -0.30618632 -0.24683478 0.020340234
v -0.41875315 -0.400086 0.30310798
v 0.4046721 0.40008205 -0.21863967
v 0.25222504 0.056589276 0.19609475
v -0.11030322 -0.25583106 0.31571037
vt 0.38691077 0.9747789
vt 0.38691077 0.9800486
vt 0.38866735 0.9800486
vt 0.3898384 0.9747789
vt 0.38691077 0.9700947
vt 0.3851542 0.9800486
vt 0.38691077 0.98297626
vt 0.38398314 0.9747789
vt 0.3898384 0.9747789
vt 0.38866735 0.9800486
vt 0.38691077 0.98297626
vt 0.38691077 0.9700947
vt 0.38398314 0.9747789
vt 0.3851542 0.9800486
vn -0.5039697 0.7870844 0.35568616
vn -0.63878626 0.6253045 0.44827038
vn -0.8410111 0.52419215 -0.13387635
vn -0.76012117 0.6118229 -0.21883452
vn -0.23433656 0.9556051 0.17862053
vn -0.2006324 0.4972288 0.84410316
vn -0.6522679 0.6050821 0.45653293
vn -0.07929754 0.57811874 0.8120903
vn 0.60826695 -0.75656515 -0.24004263
vn 0.60826695 -0.75656515 -0.24004263
vn 0.527377 -0.76330596 -0.37314543
vn 0.527377 -0.76330596 -0.37314543
vn 0.42626458 -0.7498243 -0.50602573
vn 0.42626458 -0.7498243 -0.50602573
g BoneL1_0
f 3/3/3 2/2/2 1/1/1
f 4/4/4 3/3/3 1/1/1
f 4/4/4 1/1/1 5/5/5
f 2/2/2 7/7/7 6/6/6
f 3/3/3 7/7/7 2/2/2
f 1/1/1 8/8/8 5/5/5
f 2/2/2 6/6/6 8/8/8
f 1/1/1 2/2/2 8/8/8
f 11/11/11 10/10/10 9/9/9
f 12/12/12 11/11/11 9/9/9
f 11/11/11 12/12/12 13/13/13
f 14/14/14 11/11/11 13/13/13
