g Bone2
v -0.23608077 0.09626889 0.00783515
v -0.22706771 -0.31842285 0.109825015
v 0.053668916 -0.26062253 -0.010574102
v 0.021758318 0.16300935 -0.026356041
v 0.111724675 -0.2229465 0.28067166
v 0.019094527 0.1064679 0.22409374
v -0.10670507 -0.26724547 0.38804382
v -0.2292571 0.04346776 0.2072171
v 0.043287456 0.3235293 0.031736195
v -0.04509157 0.40712816 -0.16629562
v -0.025843024 0.33131993 -0.19231305
v 0.018072844 0.21564627 -0.015755713
v 0.03212148 0.16731513 0.26091224
v 0.08010596 0.23858035 0.538529
v 0.07043612 0.2703632 0.5171276
v 0.06220758 0.27549005 0.27862823
v 0.13462222 0.4227094 0.28240496
v 0.1442191 0.44703 0.10862082
v -0.05082047 0.4128936 0.12969387
v -0.03969103 0.4040447 0.27018076
v -0.12748623 0.21387655 -0.010190964
v -0.06963116 0.30391586 0.033706665
v 0.08154732 0.45763046 -0.50758755
v -0.13035065 0.40705508 -0.17012706
v 0.03715712 0.4537807 -0.5136449
v -0.14115173 0.3342756 -0.1976771
v 0.02513367 0.41156167 -0.52763885
v 0.0068338513 0.46990937 -0.6232247
v 0.085397065 0.41648787 -0.5258691
v -0.061785758 0.18371743 0.30408007
v -0.022741377 0.27882892 0.30681682
v 0.02602768 0.2939723 0.540317
v 0.26914296 0.17904669 0.57246476
v 0.020700097 0.25914252 0.5521398
v 0.053668916 -0.26062253 -0.010574102
v -0.22706771 -0.31842285 0.109825015
v -0.10670507 -0.26724547 0.38804382
v 0.111724675 -0.2229465 0.28067166
v -0.03969103 0.4040447 0.27018076
v -0.05082047 0.4128936 0.12969387
v 0.1442191 0.44703 0.10862082
v 0.13462222 0.4227094 0.28240496
vt 0.7227802 0.90221226
vt 0.72422147 0.90419394
vt 0.72386116 0.9029329
vt 0.7218795 0.903113
vt 0.72350085 0.90221226
vt 0.72205967 0.90275276
vt 0.72404134 0.90275276
vt 0.7224199 0.90203214
vt 0.72007793 0.90203214
vt 0.7222398 0.90275276
vt 0.7222398 0.903113
vt 0.7233207 0.9032932
vt 0.7249421 0.9025726
vt 0.72115886 0.90149164
vt 0.72097874 0.9016718
vt 0.72007793 0.9025726
vt 0.7206184 0.9029329
vt 0.72043824 0.90275276
vt 0.72079855 0.90221226
vt 0.72043824 0.903113
vt 0.72205967 0.90185195
vt 0.72169936 0.9016718
vt 0.72043824 0.903113
vt 0.7227802 0.90149164
vt 0.7245818 0.90185195
vt 0.7229604 0.90185195
vt 0.7245818 0.90221226
vt 0.7198978 0.9032932
vt 0.72043824 0.9032932
vt 0.7251222 0.90203214
vt 0.7249421 0.90203214
vt 0.72368103 0.90221226
vt 0.72007793 0.9040138
vt 0.72386116 0.90149164
vt 0.72386116 0.9029329
vt 0.72422147 0.90419394
vt 0.72404134 0.90275276
vt 0.72350085 0.90221226
vt 0.72043824 0.903113
vt 0.72079855 0.90221226
vt 0.72043824 0.90275276
vt 0.7206184 0.9029329
vn -0.79328483 0.034673154 -0.6078626
vn -0.83926135 -0.15689546 -0.5205999
vn 0.44041705 -0.026628852 -0.8973983
vn 0.66263664 -0.13390726 -0.73687285
vn 0.7699151 0.35650843 0.5292754
vn 0.9155072 0.04999858 0.39918256
vn -0.49443787 0.23390454 0.83714986
vn -0.8009476 0.20325357 0.5631793
vn 0.3178131 0.7319829 -0.6026573
vn 0.49405625 0.8315986 0.25367737
vn 0.6013347 -0.73160136 -0.3211792
vn 0.4174288 -0.26417392 -0.86946267
vn 0.44041705 -0.73160136 0.5203771
vn 0.2794994 -0.95382094 0.11002565
vn 0.8235543 0.54807705 -0.14618438
vn 0.7775778 0.1955908 0.59759265
vn 0.9308327 -0.34080136 0.13192785
vn 0.9461582 -0.27183664 -0.1757543
vn -0.81627315 0.57106525 -0.087078325
vn -0.79328483 0.41781038 0.4428698
vn -0.67068094 -0.011303365 -0.7416598
vn -0.609379 0.7779594 -0.1530894
vn 0.7162758 0.6323672 0.2950605
vn -0.66301817 0.73964566 0.11546096
vn -0.5404143 0.83926135 -0.05993988
vn -0.76263386 -0.53237 -0.36738512
vn -0.5021005 -0.74692684 -0.43588457
vn -0.1189633 -0.11858177 -0.9857921
vn 0.6758889 -0.7370034 -0
vn -0.46378678 -0.37145233 0.8043165
vn -0.5097633 0.44846135 0.7341824
vn -0.5404143 0.8009476 0.25775054
vn 0.501719 0.5863908 0.6359433
vn -0.66301817 -0.5247072 0.5339375
vn 0.23352295 -0.96914643 0.07888123
vn 0.23352295 -0.96914643 0.07888123
vn 0.23352295 -0.96914643 0.07888123
vn 0.23352295 -0.96914643 0.07888123
vn -0.1419515 0.98485345 0.09956628
vn -0.1419515 0.98485345 0.09956628
vn -0.1419515 0.98485345 0.09956628
vn -0.1419515 0.98485345 0.09956628
g Bone2_0
f 3/3/3 2/2/2 1/1/1
f 4/4/4 3/3/3 1/1/1
f 4/4/4 6/6/6 5/5/5
f 3/3/3 4/4/4 5/5/5
f 6/6/6 8/8/8 7/7/7
f 5/5/5 6/6/6 7/7/7
f 11/11/11 10/10/10 9/9/9
f 12/12/12 11/11/11 9/9/9
f 15/15/15 14/14/14 13/13/13
f 16/16/16 15/15/15 13/13/13
f 18/18/18 17/17/17 6/6/6
f 4/4/4 18/18/18 6/6/6
f 20/20/20 19/19/19 1/1/1
f 8/8/8 20/20/20 1/1/1
f 1/1/1 2/2/2 7/7/7
f 8/8/8 1/1/1 7/7/7
f 21/21/21 12/12/12 4/4/4
f 1/1/1 21/21/21 4/4/4
f 1/1/1 19/19/19 22/22/22
f 21/21/21 1/1/1 22/22/22
f 18/18/18 4/4/4 12/12/12
f 9/9/9 18/18/18 12/12/12
f 9/9/9 22/22/22 19/19/19
f 18/18/18 9/9/9 19/19/19
f 24/24/24 10/10/10 23/23/23
f 25/25/25 24/24/24 23/23/23
f 11/11/11 12/12/12 21/21/21
f 26/26/26 11/11/11 21/21/21
f 24/24/24 22/22/22 9/9/9
f 10/10/10 24/24/24 9/9/9
f 24/24/24 26/26/26 21/21/21
f 22/22/22 24/24/24 21/21/21
f 25/25/25 28/28/28 27/27/27
f 25/25/25 27/27/27 26/26/26
f 24/24/24 25/25/25 26/26/26
f 29/29/29 23/23/23 10/10/10
f 11/11/11 29/29/29 10/10/10
f 11/11/11 26/26/26 27/27/27
f 29/29/29 11/11/11 27/27/27
f 29/29/29 28/28/28 23/23/23
f 28/28/28 29/29/29 27/27/27
f 28/28/28 25/25/25 23/23/23
f 6/6/6 17/17/17 16/16/16
f 13/13/13 6/6/6 16/16/16
f 8/8/8 6/6/6 13/13/13
f 30/30/30 8/8/8 13/13/13
f 17/17/17 20/20/20 31/31/31
f 16/16/16 17/17/17 31/31/31
f 20/20/20 8/8/8 30/30/30
f 31/31/31 20/20/20 30/30/30
f 34/34/34 33/33/33 32/32/32
f 34/34/34 32/32/32 31/31/31
f 30/30/30 34/34/34 31/31/31
f 14/14/14 34/34/34 30/30/30
f 13/13/13 14/14/14 30/30/30
f 32/32/32 15/15/15 16/16/16
f 31/31/31 32/32/32 16/16/16
f 14/14/14 33/33/33 34/34/34
f 32/32/32 33/33/33 15/15/15
f 15/15/15 33/33/33 14/14/14
f 37/37/37 36/36/36 35/35/35
f 38/38/38 37/37/37 35/35/35
f 41/41/41 40/40/40 39/39/39
f 42/42/42 41/41/41 39/39/39
