g BoneL2
v -0.0119565725 0.17391843 -0.13668323
v 0.027430415 -0.052296877 0.33715856
v -0.15865898 -0.2153373 0.28646684
v -0.2858277 -0.10091144 -0.18310076
v -0.062248826 0.19377172 -0.7114092
v 0.2059899 -0.2153373 0.25456983
v 0.05227691 -0.1972217 0.59752786
v 0.24969104 -0.10091144 -0.22995764
v -0.2858277 -0.10091144 -0.18310076
v -0.15865898 -0.2153373 0.28646684
v 0.05227691 -0.1972217 0.59752786
v -0.062248826 0.19377172 -0.7114092
v 0.24969104 -0.10091144 -0.22995764
v 0.2059899 -0.2153373 0.25456983
vt 0.38697433 0.97531426
vt 0.38697433 0.9799976
vt 0.3887306 0.9799976
vt 0.3899014 0.97531426
vt 0.38697433 0.97004557
vt 0.38521808 0.9799976
vt 0.38697433 0.98292464
vt 0.38404727 0.97531426
vt 0.3899014 0.97531426
vt 0.3887306 0.9799976
vt 0.38697433 0.98292464
vt 0.38697433 0.97004557
vt 0.38404727 0.97531426
vt 0.38521808 0.9799976
vn 0.02781117 0.96107924 0.27486938
vn 0.035476983 0.9074185 0.41872793
vn -0.677444 0.639115 0.36414513
vn -0.7004415 0.66211236 0.26643762
vn 0.0048137307 0.99940836 0.034054775
vn 0.7330664 0.639115 0.2326924
vn 0.05080861 0.87675524 0.47824544
vn 0.7330664 0.66211236 0.1556308
vn 0.45709693 -0.8403878 -0.2912228
vn 0.45709693 -0.8403878 -0.2912228
vn -0.025849521 -0.9553751 -0.2942623
vn -0.025849521 -0.9553751 -0.2942623
vn -0.5011302 -0.8403878 -0.20643833
vn -0.5011302 -0.8403878 -0.20643833
g BoneL2_0
f 3/3/3 2/2/2 1/1/1
f 4/4/4 3/3/3 1/1/1
f 4/4/4 1/1/1 5/5/5
f 2/2/2 7/7/7 6/6/6
f 3/3/3 7/7/7 2/2/2
f 1/1/1 8/8/8 5/5/5
f 2/2/2 6/6/6 8/8/8
f 1/1/1 2/2/2 8/8/8
f 11/11/11 10/10/10 9/9/9
f 12/12/12 11/11/11 9/9/9
f 11/11/11 12/12/12 13/13/13
f 14/14/14 11/11/11 13/13/13
