g bone7
v 0.09524992 1.7151891 1.1213204
v -0.54259217 1.7151891 1.1213204
v -0.5257143 2.1507037 1.1005954
v 0.09508444 2.1507037 1.1005954
v -1.1001817 2.1528547 0.52608657
v -1.1213204 1.7173401 0.54259217
v -1.1213204 1.718002 -0.21533912
v -1.1001817 2.1534753 -0.18319675
v -0.91191924 2.0574617 1.0651851
v -0.9731842 1.7155613 1.0809046
v -0.9156836 2.206384 0.91613877
v -1.0068985 2.246469 0.5261693
v -0.54590154 2.2735646 0.5463979
v -0.5257143 2.2444005 1.0073535
v -0.91191924 2.0574617 1.0651851
v -1.0648955 2.0592406 0.9122088
v -0.9156836 2.206384 0.91613877
v -1.0809046 1.7156855 0.9731842
v -1.0648955 2.0592406 0.9122088
v -0.91191924 2.0574617 1.0651851
v -0.9731842 1.7155613 1.0809046
v -1.1001817 2.1528547 0.52608657
v -1.0068985 2.246469 0.5261693
v -0.5257143 2.2444005 1.0073535
v -0.5257143 2.1507037 1.1005954
v -1.0648955 2.0592406 0.9122088
v -1.0809046 1.7156855 0.9731842
v -0.5240183 1.6266217 1.0815251
v -0.54259217 1.7151891 1.1213204
v 0.09524992 1.7151891 1.1213204
v 0.09516719 1.6266217 1.0815251
v -1.1213204 1.718002 -0.21533912
v -1.1213204 1.7173401 0.54259217
v -1.0816078 1.6287729 0.52393556
v -1.0816078 1.6294347 -0.2271288
v -0.9731842 1.7155613 1.0809046
v -0.9934956 1.6277386 0.99341285
v -0.9731842 1.7155613 1.0809046
v -0.9934956 1.6277386 0.99341285
v -1.0809046 1.7156855 0.9731842
v -1.0816078 1.6294347 -0.2271288
v -1.0816078 1.6287729 0.52393556
v -0.7830188 1.6279455 0.7829361
v -0.78285336 1.6288556 -0.26270467
v -0.5240183 1.6266217 1.0815251
v -0.9934956 1.6277386 0.99341285
v -0.65610397 1.9689361 0.6563108
v -0.7830188 1.6279455 0.7829361
v 0.094215736 1.6279455 0.78277063
v 0.0937607 1.9690188 0.65614533
v -0.78285336 1.6288556 -0.26270467
v -0.7830188 1.6279455 0.7829361
v -0.65610397 1.9689361 0.6563108
v -0.6559799 1.9698046 -0.2506668
v -1.0068985 2.2470894 -0.18683708
v -0.54590154 2.2742264 -0.239539
v -1.1001817 2.1534753 -0.18319675
v -1.0068985 2.2470894 -0.18683708
v -0.78285336 1.6288556 -0.26270467
v -0.6559799 1.9698046 -0.2506668
v -1.1001817 2.1534753 -0.18319675
v -1.0816078 1.6294347 -0.2271288
v -1.1213204 1.718002 -0.21533912
v -1.0068985 2.2470894 -0.18683708
v -0.54590154 2.2742264 -0.239539
v -0.2907895 1.2630033 1.0320084
v -0.094005376 1.2628793 1.2103014
v 0.09483625 1.2628793 1.2095568
v 0.09508444 1.2630033 1.0320084
v -0.09611511 2.370943 1.2177889
v -0.09611511 2.371481 0.6213554
v 0.09611863 2.371481 0.6213554
v 0.09611863 2.370943 1.2177889
v 0.09491898 1.3160362 1.2646581
v -0.09491545 1.3160362 1.2646581
v -0.10678786 2.076284 1.2803363
v 0.10679139 2.076284 1.2803363
v 0.09450531 2.0622191 0.5610833
v 0.09611863 2.3219228 0.5612488
v -0.09611511 2.3219228 0.5612488
v -0.095618695 2.0622191 0.5610833
v -0.3710834 2.2775772 0.6212727
v -0.38138387 2.2721167 1.1674036
v -0.37459967 2.0618055 1.0327117
v -0.3683118 2.0621777 0.6252854
v -0.09611511 2.3213024 1.2670159
v 0.09611863 2.3213024 1.2670159
v -0.30241373 2.3507972 1.169472
v -0.30729505 2.3412828 0.6213554
v -0.30551627 1.3159535 1.2262692
v -0.34109214 2.0603576 1.2371074
v -0.30038676 2.272034 1.2482766
v -0.30038676 2.272034 1.2482766
v -0.38138387 2.2721167 1.1674036
v -0.30241373 2.3507972 1.169472
v -0.3710834 2.2775772 0.6212727
v -0.30568174 2.2776184 0.5612074
v -0.30729505 2.3412828 0.6213554
v -0.09611511 2.370943 1.2177889
v 0.09611863 2.370943 1.2177889
v 0.09611863 2.3213024 1.2670159
v -0.09611511 2.3213024 1.2670159
v 0.09611863 2.371481 0.6213554
v -0.09611511 2.371481 0.6213554
v -0.09611511 2.3219228 0.5612488
v 0.09611863 2.3219228 0.5612488
v -0.30729505 2.3412828 0.6213554
v -0.3710834 2.2775772 0.6212727
v -0.36007974 1.3159949 1.1716644
v -0.39201525 2.0603988 1.1861843
v -0.34109214 2.0603576 1.2371074
v -0.30551627 1.3159535 1.2262692
v -0.38138387 2.2721167 1.1674036
v -0.30038676 2.272034 1.2482766
v -0.094005376 1.2628793 1.2103014
v -0.09491545 1.3160362 1.2646581
v 0.09491898 1.3160362 1.2646581
v 0.09483625 1.2628793 1.2095568
v -0.30551627 1.3159535 1.2262692
v -0.2907895 1.2629206 1.1609089
v -0.36007974 1.3159949 1.1716644
v -0.30568174 2.2776184 0.5612074
v -0.30228963 2.0622191 0.5610833
v -0.3683118 2.0621777 0.6252854
v -0.30228963 2.0622191 0.5610833
v -0.2907895 1.2629206 1.1609089
v 0.094877616 2.0626328 1.0327117
v -0.37459967 2.0618055 1.0327117
v -0.35970744 1.316119 1.0320498
v 0.09508444 1.316119 1.0320498
v -0.2907895 1.2630033 1.0320084
v -0.35970744 1.316119 1.0320498
v -0.36007974 1.3159949 1.1716644
v -0.35970744 1.316119 1.0320498
v -0.39201525 2.0603988 1.1861843
v -0.2907895 1.2630033 1.0320084
v 0.09508444 1.2630033 1.0320084
v 0.094877616 2.0626328 1.0327117
v 0.09450531 2.0622191 0.5610833
v -0.095618695 2.0622191 0.5610833
v -0.30228963 2.0622191 0.5610833
v -0.3683118 2.0621777 0.6252854
v -0.37459967 2.0618055 1.0327117
v 0.09065816 2.2743092 -0.31528246
v 0.09330566 2.2735646 0.5463979
v 0.09475352 2.2444005 1.0073535
v 0.09475352 2.2444005 1.0073535
v 0.09508444 2.1507037 1.1005954
v 0.0937607 1.9690188 0.65614533
v 0.09065816 1.9699289 -0.3395237
v -0.6559799 1.9698046 -0.2506668
v -0.65610397 1.9689361 0.6563108
v 0.09516719 1.6266217 1.0815251
v 0.094215736 1.6279455 0.78277063
v 0.09065816 1.9699289 -0.3395237
v 0.09065816 2.2743092 -0.31528246
v 0.094877616 2.0626328 1.0327117
v 0.09611863 2.370943 1.2177889
v 0.09611863 2.371481 0.6213554
v 0.09450531 2.0622191 0.5610833
v 0.09508444 1.316119 1.0320498
v 0.09491898 1.3160362 1.2646581
v 0.10679139 2.076284 1.2803363
v 0.09611863 2.3219228 0.5612488
v 0.09611863 2.3213024 1.2670159
v 0.09483625 1.2628793 1.2095568
v 0.09508444 1.2630033 1.0320084
v 0.09065816 1.9699289 -0.3395237
v 0.0937607 1.9690188 0.65614533
v 0.09330566 2.2735646 0.5463979
v 0.09065816 2.2743092 -0.31528246
v 0.094215736 1.6279455 0.78277063
v 0.09524992 1.7151891 1.1213204
v 0.09508444 2.1507037 1.1005954
v 0.09475352 2.2444005 1.0073535
v 0.09516719 1.6266217 1.0815251
vt 0.41365027 0.796502
vt 0.40910238 0.796502
vt 0.40910238 0.79939616
vt 0.41365027 0.79939616
vt 0.40166032 0.79939616
vt 0.40207377 0.796502
vt 0.39628553 0.796502
vt 0.39669898 0.79939616
vt 0.40620825 0.79898274
vt 0.4057948 0.796502
vt 0.43473607 0.7803776
vt 0.43184194 0.7795507
vt 0.4322554 0.78285825
vt 0.43556297 0.78285825
vt 0.43597642 0.77996415
vt 0.43514952 0.77872384
vt 0.43473607 0.7803776
vt 0.4049679 0.796502
vt 0.40455446 0.79856926
vt 0.40620825 0.79898274
vt 0.4057948 0.796502
vt 0.43184194 0.77872384
vt 0.43184194 0.7795507
vt 0.43556297 0.78285825
vt 0.43638986 0.78285825
vt 0.40455446 0.79856926
vt 0.4049679 0.796502
vt 0.43432263 0.7758297
vt 0.43432263 0.7750028
vt 0.4306016 0.7750028
vt 0.43101504 0.7758297
vt 0.41943854 0.77665657
vt 0.41489062 0.77665657
vt 0.41530406 0.77748346
vt 0.41943854 0.77748346
vt 0.43721676 0.7750028
vt 0.43721676 0.7758297
vt 0.41116962 0.77665657
vt 0.41158307 0.77748346
vt 0.4119965 0.77665657
vt 0.40992928 0.7708683
vt 0.40992928 0.7654935
vt 0.40786204 0.7638397
vt 0.40786204 0.7712818
vt 0.4057948 0.7617725
vt 0.40910238 0.76218593
vt 0.4181982 0.7849255
vt 0.4181982 0.78244483
vt 0.41240996 0.78244483
vt 0.4119965 0.7849255
vt 0.3834687 0.78244483
vt 0.37644008 0.78244483
vt 0.37644008 0.7849255
vt 0.3834687 0.7849255
vt 0.4268806 0.7795507
vt 0.42646715 0.78285825
vt 0.4268806 0.77872384
vt 0.4268806 0.7795507
vt 0.4181982 0.78657925
vt 0.4181982 0.78657925
vt 0.4181982 0.78657925
vt 0.4181982 0.78657925
vt 0.4181982 0.78657925
vt 0.4181982 0.78657925
vt 0.4181982 0.78657925
vt 0.3863628 0.7522632
vt 0.38512245 0.753917
vt 0.38512245 0.75515735
vt 0.3863628 0.75515735
vt 0.3793342 0.7518498
vt 0.3793342 0.7563977
vt 0.380988 0.7563977
vt 0.380988 0.7518498
vt 0.3942183 0.75309014
vt 0.39297795 0.75309014
vt 0.3925645 0.75887835
vt 0.3942183 0.75887835
vt 0.3793342 0.757638
vt 0.3793342 0.75970525
vt 0.380988 0.75970525
vt 0.380988 0.757638
vt 0.38512245 0.7601187
vt 0.38925692 0.7601187
vt 0.38801658 0.75846493
vt 0.38512245 0.75846493
vt 0.39297795 0.76053214
vt 0.3942183 0.76053214
vt 0.37809387 0.7522632
vt 0.37768042 0.7563977
vt 0.39132416 0.75309014
vt 0.3909107 0.75887835
vt 0.39132416 0.7601187
vt 0.37768042 0.75143635
vt 0.37726697 0.7522632
vt 0.37809387 0.7522632
vt 0.38305524 0.75929177
vt 0.38222834 0.75929177
vt 0.3826418 0.7601187
vt 0.3793342 0.7518498
vt 0.380988 0.7518498
vt 0.380988 0.75143635
vt 0.3793342 0.75143635
vt 0.3793342 0.7601187
vt 0.380988 0.7601187
vt 0.380988 0.75970525
vt 0.3793342 0.75970525
vt 0.37768042 0.7563977
vt 0.37726697 0.7563977
vt 0.39049727 0.75309014
vt 0.39049727 0.75887835
vt 0.3909107 0.75887835
vt 0.39132416 0.75309014
vt 0.39049727 0.7601187
vt 0.39132416 0.7601187
vt 0.38512245 0.753917
vt 0.384709 0.753917
vt 0.384709 0.75515735
vt 0.38512245 0.75515735
vt 0.38512245 0.7522632
vt 0.3855359 0.7522632
vt 0.3855359 0.7518498
vt 0.38222834 0.75929177
vt 0.3826418 0.757638
vt 0.38305524 0.757638
vt 0.3826418 0.757638
vt 0.3855359 0.7522632
vt 0.40000653 0.7563977
vt 0.40000653 0.7563977
vt 0.40000653 0.7563977
vt 0.40000653 0.7563977
vt 0.3863628 0.7522632
vt 0.3863628 0.7518498
vt 0.38925692 0.75309014
vt 0.38801658 0.75309014
vt 0.38925692 0.75846493
vt 0.40000653 0.7563977
vt 0.40000653 0.7563977
vt 0.40000653 0.7563977
vt 0.40000653 0.7563977
vt 0.40000653 0.7563977
vt 0.40000653 0.7563977
vt 0.40000653 0.7563977
vt 0.40000653 0.7563977
vt 0.4260537 0.7874062
vt 0.4322554 0.7874062
vt 0.43556297 0.7874062
vt 0.43556297 0.7874062
vt 0.43638986 0.7874062
vt 0.40290067 0.7741759
vt 0.40290067 0.7671473
vt 0.39752588 0.7675607
vt 0.39752588 0.7741759
vt 0.40166032 0.7617725
vt 0.40166032 0.7638397
vt 0.4181982 0.78657925
vt 0.4181982 0.78657925
vt 0.3855359 0.7563977
vt 0.3855359 0.7563977
vt 0.3855359 0.7563977
vt 0.3855359 0.7563977
vt 0.3855359 0.7563977
vt 0.3855359 0.7563977
vt 0.3855359 0.7563977
vt 0.3855359 0.7563977
vt 0.3855359 0.7563977
vt 0.3855359 0.7563977
vt 0.3855359 0.7563977
vt 0.41530406 0.78657925
vt 0.41530406 0.78657925
vt 0.41530406 0.78657925
vt 0.41530406 0.78657925
vt 0.41530406 0.78657925
vt 0.41530406 0.78657925
vt 0.41530406 0.78657925
vt 0.41530406 0.78657925
vt 0.41530406 0.78657925
vn -0.003921509 0.050979972 0.998692
vn -0.035293818 0.050979972 0.99807584
vn -0.02745068 0.050979972 0.99832237
vn -0.003921509 0.050979972 0.998692
vn -0.998703 0.050914247 -0
vn -0.998703 0.050914247 -0
vn -0.998703 0.050914247 -0
vn -0.998703 0.050914247 -0
vn -0.098038435 0.05882299 0.99344265
vn -0.098038435 0.05882299 0.99344265
vn -0.0901953 0.99214923 0.08662968
vn -0.06651899 0.9977852 -0
vn -0.027440555 0.9996234 -0
vn -0.027440555 0.9996234 -0
vn -0.4980353 0.47450614 0.72581315
vn -0.7254846 0.47450614 0.4985138
vn -0.4980353 0.70979846 0.4981435
vn -0.8431307 -0.21568465 0.49255532
vn -0.7254846 0.47450614 0.4985138
vn -0.4980353 0.47450614 0.72581315
vn -0.4980353 -0.21568465 0.8399053
vn -0.7019553 0.7019553 0.12048865
vn -0.7019553 0.7019553 0.12048865
vn -0.10588145 0.7019553 0.70430666
vn -0.10588145 0.7019553 0.70430666
vn -0.99214923 0.05882299 0.11036193
vn -0.99214923 0.05882299 0.11036193
vn -0.043136835 -0.48234928 0.8749162
vn -0.05882299 -0.49803543 0.8651593
vn -0.003921509 -0.41176158 0.91128314
vn -0.003921509 -0.41176158 0.91128314
vn -0.91170174 -0.41085276 -0
vn -0.86666 -0.49019235 0.0928005
vn -0.8807224 -0.47363296 -0
vn -0.91170174 -0.41085276 -0
vn -0.4980353 -0.21568465 0.8399053
vn -0.53725076 -0.6470539 0.54100174
vn -0.4980353 -0.21568465 0.8399053
vn -0.53725076 -0.6470539 0.54100174
vn -0.8431307 -0.21568465 0.49255532
vn -0.003921509 -0.9999924 -0
vn -0.003921509 -0.9999924 -0
vn -0.003921509 -0.9999924 -0
vn -0.003921509 -0.9999924 -0
vn -0.003921509 -0.9999924 -0
vn -0.003921509 -0.9999924 -0
vn -0.003921509 -0.34901696 -0.9371082
vn -0.003921509 -0.34901696 -0.9371082
vn -0.003921509 -0.34901696 -0.9371082
vn -0.003921509 -0.34901696 -0.9371082
vn 0.9371325 -0.34897402 -0
vn 0.9371325 -0.34897402 -0
vn 0.9371325 -0.34897402 -0
vn 0.9371325 -0.34897402 -0
vn -0.058721937 0.9982743 -0
vn -0.019604048 0.9998079 -0
vn -0.70710677 0.70710677 -0
vn -0.70710677 0.70710677 -0
vn -0.12156761 0.08235228 -0.98916095
vn -0.12156761 0.08235228 -0.98916095
vn -0.12156761 0.08235228 -0.98916095
vn -0.12156761 0.08235228 -0.98916095
vn -0.12156761 0.08235228 -0.98916095
vn -0.12156761 0.08235228 -0.98916095
vn -0.12156761 0.08235228 -0.98916095
vn 0.0039215684 -0.9999924 -0
vn -0.003921509 -0.9999924 -0
vn -0.003921509 -0.9999924 -0
vn -0.003921509 -0.9999924 -0
vn -0.058721937 0.9982743 -0
vn -0.058721937 0.9982743 -0
vn -0.003921509 0.99999225 -0.00034526698
vn -0.003921509 0.99999225 -0.00034526698
vn -0.003921509 -0.019607723 0.9998001
vn -0.0901953 -0.019607723 0.99573106
vn -0.0901953 -0.0039215684 0.99591637
vn -0.003921509 -0.0039215684 0.9999846
vn -0.003921509 0.003921509 -0.9999846
vn -0.003921509 0.003921509 -0.9999846
vn 0.0039215684 0.003921509 -0.9999846
vn 0.0039215684 0.003921509 -0.9999846
vn -0.9998079 -0.019604107 -0
vn -0.99993086 -0.011763923 -0
vn -0.9998079 -0.019604107 -0
vn -0.9998079 -0.019604107 -0
vn -0.066666126 0.043136835 0.99684244
vn -0.003921509 0.050979972 0.998692
vn -0.12156761 0.99214923 -0.029346678
vn -0.12156761 0.99214923 -0.029346678
vn -0.1764692 -0.019607723 0.98411083
vn -0.16862607 -0.011764646 0.9856099
vn -0.1450969 0.019607663 0.9892231
vn -0.50587845 0.44313383 0.74008065
vn -0.76469994 0.5999954 0.23503104
vn -0.6313677 0.7490138 0.20088115
vn -0.7803861 0.5843092 -0.2226663
vn -0.4980353 0.37254608 -0.7830519
vn -0.6078384 0.76469994 -0.21393114
vn -0.13725376 0.6941123 0.7066608
vn -0.003921509 0.7019553 0.71221024
vn -0.003921509 0.7019553 0.71221024
vn -0.13725376 0.6941123 0.7066608
vn -0.003921509 0.7725431 -0.6349503
vn -0.066666126 0.7490138 -0.65919197
vn -0.074509144 0.7490138 -0.65835154
vn -0.003921509 0.7725431 -0.6349503
vn -0.6078384 0.76469994 -0.21393114
vn -0.7803861 0.5843092 -0.2226663
vn -0.74117076 -0.1999985 0.64083266
vn -0.70979846 -0.0039215684 0.7043939
vn -0.70979846 -0.0039215684 0.7043939
vn -0.62352455 -0.23921388 0.74430764
vn -0.76469994 0.5999954 0.23503104
vn -0.50587845 0.44313383 0.74008065
vn -0.074509144 -0.7411708 0.6671688
vn -0.074509144 -0.73332775 0.6757802
vn 0.0039215684 -0.7176416 0.6964016
vn 0.0039215684 -0.7176416 0.6964016
vn -0.62352455 -0.23921388 0.74430764
vn -0.3803892 -0.83528775 0.3969867
vn -0.74117076 -0.1999985 0.64083266
vn 0.0039215684 0.003921509 -0.9999846
vn 0.0039215684 0.003921509 -0.9999846
vn -0.68626916 -0.019607723 -0.7270833
vn -0.68626916 -0.019607723 -0.7270833
vn 0.0039215684 -0.9999924 -0
vn -0.003921509 0.003921509 -0.9999846
vn -0.003921509 0.003921509 -0.9999846
vn -0.003921509 0.003921509 -0.9999846
vn -0.003921509 0.003921509 -0.9999846
vn -0.6068686 -0.7948023 -0
vn -0.6068686 -0.7948023 -0
vn -0.9996234 -0.027440675 -0
vn -0.9996234 -0.027440675 -0
vn -0.9998079 -0.019604107 -0
vn -0.003921509 0.003921509 -0.9999846
vn -0.003921509 0.003921509 -0.9999846
vn 0.0039215684 -0.9999924 -0
vn 0.0039215684 -0.9999924 -0
vn 0.0039215684 -0.9999924 -0
vn 0.0039215684 -0.9999924 -0
vn 0.0039215684 -0.9999924 -0
vn 0.0039215684 -0.9999924 -0
vn -0.003921509 0.99999225 -0.00034526698
vn -0.003921509 0.99999225 -0.00034526698
vn -0.003921509 0.99999225 -0.00034526698
vn -0.003921509 0.7019553 0.71221024
vn -0.003921509 0.7019553 0.71221024
vn 0.0039215684 -0.9999924 -0
vn 0.0039215684 -0.9999924 -0
vn 0.0039215684 -0.9999924 -0
vn 0.0039215684 -0.9999924 -0
vn -0.003921509 -0.9999924 -0
vn -0.003921509 -0.9999924 -0
vn -0.12156761 0.08235228 -0.98916095
vn -0.12156761 0.08235228 -0.98916095
vn 0.9999924 -0.0039215684 -0
vn 0.9999924 0.003921509 -0
vn 0.9999924 -0.0039215684 -0
vn 0.9999924 -0.0039215684 -0
vn 0.9999924 -0.0039215684 -0
vn 0.9999924 -0.0039215684 -0
vn 0.9999924 -0.0039215684 -0
vn 0.9999924 -0.0039215684 -0
vn 0.9996234 0.027440554 -0
vn 0.9999924 -0.0039215684 -0
vn 0.9999924 -0.0039215684 -0
vn 0.9999924 0.003921509 -0
vn 0.9999924 0.003921509 -0
vn 0.9999924 0.003921509 -0
vn 0.9999924 0.003921509 -0
vn 0.9999924 0.003921509 -0
vn 0.9999924 0.003921509 -0
vn 0.9999924 0.003921509 -0
vn 0.9999924 0.003921509 -0
vn 0.9999924 0.003921509 -0
g bone7_0
f 3/3/3 2/2/2 1/1/1
f 4/4/4 3/3/3 1/1/1
f 7/7/7 6/6/6 5/5/5
f 8/8/8 7/7/7 5/5/5
f 2/2/2 3/3/3 9/9/9
f 10/10/10 2/2/2 9/9/9
f 13/13/13 12/12/12 11/11/11
f 14/14/14 13/13/13 11/11/11
f 17/17/17 16/16/16 15/15/15
f 20/20/20 19/19/19 18/18/18
f 21/21/21 20/20/20 18/18/18
f 17/17/17 23/23/23 22/22/22
f 16/16/16 17/17/17 22/22/22
f 24/24/24 17/17/17 15/15/15
f 25/25/25 24/24/24 15/15/15
f 6/6/6 27/27/27 26/26/26
f 5/5/5 6/6/6 26/26/26
f 30/30/30 29/29/29 28/28/28
f 31/31/31 30/30/30 28/28/28
f 34/34/34 33/33/33 32/32/32
f 35/35/35 34/34/34 32/32/32
f 28/28/28 29/29/29 36/36/36
f 37/37/37 28/28/28 36/36/36
f 40/40/40 39/39/39 38/38/38
f 34/34/34 39/39/39 40/40/40
f 33/33/33 34/34/34 40/40/40
f 43/43/43 42/42/42 41/41/41
f 44/44/44 43/43/43 41/41/41
f 46/46/46 43/43/43 45/45/45
f 42/42/42 43/43/43 46/46/46
f 49/49/49 48/48/48 47/47/47
f 50/50/50 49/49/49 47/47/47
f 53/53/53 52/52/52 51/51/51
f 54/54/54 53/53/53 51/51/51
f 13/13/13 56/56/56 55/55/55
f 12/12/12 13/13/13 55/55/55
f 23/23/23 58/58/58 57/57/57
f 22/22/22 23/23/23 57/57/57
f 61/61/61 60/60/60 59/59/59
f 59/59/59 62/62/62 61/61/61
f 62/62/62 63/63/63 61/61/61
f 60/60/60 61/61/61 64/64/64
f 65/65/65 60/60/60 64/64/64
f 68/68/68 67/67/67 66/66/66
f 69/69/69 68/68/68 66/66/66
f 72/72/72 71/71/71 70/70/70
f 73/73/73 72/72/72 70/70/70
f 76/76/76 75/75/75 74/74/74
f 77/77/77 76/76/76 74/74/74
f 80/80/80 79/79/79 78/78/78
f 81/81/81 80/80/80 78/78/78
f 84/84/84 83/83/83 82/82/82
f 85/85/85 84/84/84 82/82/82
f 86/86/86 76/76/76 77/77/77
f 87/87/87 86/86/86 77/77/77
f 71/71/71 89/89/89 88/88/88
f 70/70/70 71/71/71 88/88/88
f 76/76/76 91/91/91 90/90/90
f 75/75/75 76/76/76 90/90/90
f 76/76/76 86/86/86 92/92/92
f 91/91/91 76/76/76 92/92/92
f 95/95/95 94/94/94 93/93/93
f 98/98/98 97/97/97 96/96/96
f 101/101/101 100/100/100 99/99/99
f 102/102/102 101/101/101 99/99/99
f 105/105/105 104/104/104 103/103/103
f 106/106/106 105/105/105 103/103/103
f 94/94/94 95/95/95 107/107/107
f 108/108/108 94/94/94 107/107/107
f 111/111/111 110/110/110 109/109/109
f 112/112/112 111/111/111 109/109/109
f 105/105/105 97/97/97 98/98/98
f 104/104/104 105/105/105 98/98/98
f 99/99/99 95/95/95 93/93/93
f 102/102/102 99/99/99 93/93/93
f 111/111/111 114/114/114 113/113/113
f 110/110/110 111/111/111 113/113/113
f 117/117/117 116/116/116 115/115/115
f 118/118/118 117/117/117 115/115/115
f 115/115/115 116/116/116 119/119/119
f 120/120/120 115/115/115 119/119/119
f 120/120/120 119/119/119 121/121/121
f 81/81/81 123/123/123 122/122/122
f 80/80/80 81/81/81 122/122/122
f 125/125/125 124/124/124 96/96/96
f 97/97/97 125/125/125 96/96/96
f 67/67/67 126/126/126 66/66/66
f 129/129/129 128/128/128 127/127/127
f 130/130/130 129/129/129 127/127/127
f 132/132/132 131/131/131 120/120/120
f 121/121/121 132/132/132 120/120/120
f 84/84/84 134/134/134 133/133/133
f 135/135/135 84/84/84 133/133/133
f 135/135/135 83/83/83 84/84/84
f 130/130/130 137/137/137 136/136/136
f 129/129/129 130/130/130 136/136/136
f 140/140/140 139/139/139 138/138/138
f 138/138/138 141/141/141 140/140/140
f 138/138/138 142/142/142 141/141/141
f 138/138/138 143/143/143 142/142/142
f 145/145/145 144/144/144 56/56/56
f 13/13/13 145/145/145 56/56/56
f 14/14/14 146/146/146 145/145/145
f 13/13/13 14/14/14 145/145/145
f 148/148/148 147/147/147 24/24/24
f 25/25/25 148/148/148 24/24/24
f 151/151/151 150/150/150 149/149/149
f 152/152/152 151/151/151 149/149/149
f 154/154/154 153/153/153 45/45/45
f 43/43/43 154/154/154 45/45/45
f 65/65/65 156/156/156 155/155/155
f 60/60/60 65/65/65 155/155/155
f 159/159/159 158/158/158 157/157/157
f 160/160/160 159/159/159 157/157/157
f 162/162/162 161/161/161 157/157/157
f 163/163/163 162/162/162 157/157/157
f 159/159/159 160/160/160 164/164/164
f 158/158/158 165/165/165 163/163/163
f 157/157/157 158/158/158 163/163/163
f 161/161/161 162/162/162 166/166/166
f 167/167/167 161/161/161 166/166/166
f 170/170/170 169/169/169 168/168/168
f 171/171/171 170/170/170 168/168/168
f 173/173/173 172/172/172 169/169/169
f 174/174/174 173/173/173 169/169/169
f 175/175/175 174/174/174 169/169/169
f 170/170/170 175/175/175 169/169/169
f 172/172/172 173/173/173 176/176/176
