g bone2
v 0.9275827 0.087481976 1.0302192
v 0.525619 0.0884912 1.0999814
v 0.54538286 0.56231976 1.1249176
v 0.9875051 0.56900585 1.0840021
v 1.0301867 0.087481976 0.92761505
v 1.0840117 0.56900585 0.98749554
v 1.1248851 0.56231976 0.5454153
v 1.0999911 0.0884912 0.5256094
v 1.0848948 1.5415992 0.98871505
v 1.0840117 0.56900585 0.98749554
v 0.9875051 0.56900585 1.0840021
v 0.9886825 1.5415992 1.0848852
v 1.0301867 0.087481976 0.92761505
v 0.9275827 0.087481976 1.0302192
v -0.14723611 0.56231976 1.1249176
v 0.5458875 1.5415992 1.1255904
v 1.0848948 1.5415992 0.98871505
v 1.1256 1.5415992 0.5459199
v 0.9886825 1.5415992 1.0848852
v 0.9928035 1.6296114 0.99308836
v 1.0848948 1.5415992 0.98871505
v 1.1256 1.5415992 0.5459199
v 0.9928035 1.6296114 0.99308836
v 1.0816149 1.6302003 0.5240115
v 0.5257031 1.6212463E-05 1.006797
v 0.525619 0.0884912 1.0999814
v 0.9275827 0.087481976 1.0302192
v 0.9058845 1.6212463E-05 0.90591705
v 1.0301867 0.087481976 0.92761505
v 1.0999911 0.0884912 0.5256094
v 1.0068064 1.6212463E-05 0.5256934
v 0.7931883 1.6296955 0.7935151
v -0.12246823 0.43351805 0.7936833
v 0.7931883 0.43351805 0.7935151
v 0.9886825 1.5415992 1.0848852
v 0.6467674 1.630032 1.0584353
v 0.7931883 1.6296955 0.7935151
v 0.9928035 1.6296114 0.99308836
v -0.5256094 0.0884912 1.0999814
v 0.5458875 1.5415992 1.1255904
v 0.6467674 1.630032 1.0584353
v 0.9928035 1.6296114 0.99308836
v -0.5256934 1.6212463E-05 1.006797
v -0.5256094 0.0884912 1.0999814
v 0.5458875 1.5415992 1.1255904
v -0.12246823 0.43351805 0.7936833
v 0.7931883 1.6296955 0.7935151
v 0.6467674 1.630032 1.0584353
v -0.14723611 0.56231976 1.1249176
v -0.5256934 1.6212463E-05 1.006797
v -0.5256094 0.0884912 1.0999814
v 1.0068064 1.6212463E-05 0.5256934
v -0.31047738 1.6212463E-05 0.48688054
v -0.5256934 1.6212463E-05 1.006797
v 0.9058845 1.6212463E-05 0.90591705
v 0.5257031 1.6212463E-05 1.006797
v -0.31047738 1.6212463E-05 0.48688054
v -0.018434525 0.43351805 0.50105166
v -0.018434525 0.43351805 0.50105166
v 0.7932724 0.43351805 0.5159377
v 0.7931883 0.43351805 0.7935151
v -0.12246823 0.43351805 0.7936833
v 0.7931883 0.43351805 0.7935151
v 0.7932724 0.43351805 0.5159377
v 0.7932724 1.6296955 0.518713
v 0.7931883 1.6296955 0.7935151
v 0.7932724 1.6296955 0.518713
v 1.0816149 1.6302003 0.5240115
v 0.7932724 1.6296955 0.518713
v 0.7932724 0.43351805 0.5159377
v 1.1248851 0.56231976 0.5454153
v 1.1256 1.5415992 0.5459199
v -0.018434525 0.43351805 0.50105166
v -0.31047738 1.6212463E-05 0.48688054
v 1.0068064 1.6212463E-05 0.5256934
v 1.0816149 1.6302003 0.5240115
v 1.0999911 0.0884912 0.5256094
vt 0.40594098 0.8008137
vt 0.4029656 0.8008137
vt 0.4029656 0.8042141
vt 0.40594098 0.8042141
vt 0.40764117 0.8008137
vt 0.40721613 0.8042141
vt 0.41019148 0.8042141
vt 0.41061655 0.8008137
vt 0.40679106 0.81144
vt 0.40721613 0.8042141
vt 0.40594098 0.8042141
vt 0.40636602 0.81144
vt 0.40764117 0.8008137
vt 0.40594098 0.8008137
vt 0.39829004 0.8042141
vt 0.4029656 0.81144
vt 0.40679106 0.81144
vt 0.41019148 0.81144
vt 0.39361447 0.778711
vt 0.39403954 0.77956116
vt 0.39488962 0.778711
vt 0.3987151 0.778711
vt 0.3953147 0.77956116
vt 0.3987151 0.77956116
vt 0.4293188 0.7731854
vt 0.4293188 0.77403545
vt 0.43229416 0.7731854
vt 0.43229416 0.7723353
vt 0.43314427 0.7723353
vt 0.43399435 0.76935995
vt 0.43314427 0.76935995
vt 0.37661242 0.795288
vt 0.38256314 0.78636193
vt 0.37661242 0.78636193
vt 0.40636602 0.81144
vt 0.38978902 0.761709
vt 0.39106417 0.7634092
vt 0.39233932 0.762134
vt 0.3953147 0.8008137
vt 0.38978902 0.778711
vt 0.39063913 0.77956116
vt 0.39318943 0.77956116
vt 0.42166787 0.7731854
vt 0.42166787 0.77403545
vt 0.4012654 0.78636193
vt 0.4012654 0.78636193
vt 0.4012654 0.78636193
vt 0.4012654 0.78636193
vt 0.4012654 0.78636193
vt 0.4012654 0.78636193
vt 0.4012654 0.78636193
vt 0.43314427 0.76935995
vt 0.42336807 0.76935995
vt 0.42166787 0.7731854
vt 0.43229416 0.7723353
vt 0.4293188 0.7731854
vt 0.4012654 0.78636193
vt 0.4012654 0.78636193
vt 0.38511345 0.7659595
vt 0.39021406 0.7659595
vt 0.39021406 0.7642593
vt 0.38426334 0.7642593
vt 0.41826746 0.78636193
vt 0.41656727 0.78636193
vt 0.41656727 0.795288
vt 0.41826746 0.795288
vt 0.39106417 0.7655344
vt 0.39318943 0.7655344
vt 0.41231674 0.78678703
vt 0.41231674 0.78678703
vt 0.41231674 0.78678703
vt 0.41231674 0.78678703
vt 0.41231674 0.78678703
vt 0.41231674 0.78678703
vt 0.41231674 0.78678703
vt 0.41231674 0.78678703
vt 0.41231674 0.78678703
vn 0.1294108 -0.09019542 0.98748046
vn 0.043136954 -0.066666186 0.99684244
vn 0.05098003 -0.0274508 0.99832237
vn 0.10588157 -0.0274508 0.9939998
vn 0.9843062 -0.09019542 0.1516775
vn 0.9921493 -0.0274508 0.122009166
vn 0.9921493 -0.0274508 0.122009166
vn 0.9843062 -0.09019542 0.1516775
vn 0.7882293 0.20784152 0.5792206
vn 0.7097985 -0.05882311 0.70194435
vn 0.7097985 -0.05882311 0.70194435
vn 0.59215236 0.19215536 0.78258026
vn 0.7176416 -0.49803543 0.48677638
vn 0.49019235 -0.49803543 0.7153126
vn -0.003921509 -0.035293877 0.99936926
vn 0.066666186 -0.0039215684 0.9977676
vn 0.9921493 -0.0039215684 0.12499761
vn 0.9921493 -0.0039215684 0.12499761
vn 0.59215236 0.19215536 0.78258026
vn 0.52940774 0.6941123 0.4877864
vn 0.7882293 0.20784152 0.5792206
vn 0.7803862 0.6156815 0.109240994
vn 0.52940774 0.6941123 0.4877864
vn 0.7803862 0.6156815 0.109240994
vn 0.043136954 -0.7411708 0.66992915
vn 0.035293877 -0.7411708 0.67038804
vn 0.49019235 -0.49803543 0.7153126
vn 0.4039185 -0.8196016 0.4063287
vn 0.7176416 -0.49803543 0.48677638
vn 0.6156816 -0.7803862 0.109240584
vn 0.6156816 -0.7803862 0.109240584
vn -0.003921509 0.003921509 -0.9999846
vn -0.003921509 0.003921509 -0.9999846
vn -0.003921509 0.003921509 -0.9999846
vn 0.09019542 -0.0039215684 0.99591637
vn 0.0039215684 0.99999225 -0.00034526698
vn -0.003921509 0.99999225 -0.00034526698
vn -0.003921509 0.99999225 -0.00034526698
vn -0.003921509 -0.05098003 0.998692
vn 0.10588157 0.6313677 0.76822126
vn 0.10588157 0.6313677 0.76822126
vn 0.52940774 0.6941123 0.4877864
vn -0.003921509 -0.72548467 0.6882271
vn -0.003921509 -0.72548467 0.6882271
vn -0.7333276 0.5607799 -0.38439098
vn -0.7725431 0.5607799 -0.2978306
vn -0.7333276 0.5607799 -0.38439098
vn -0.7333276 0.5607799 -0.38439098
vn -0.7803861 0.5607799 -0.2766286
vn -0.76469994 0.5607799 -0.31742698
vn -0.65489686 0.5529369 -0.51514167
vn -0.003921509 -0.9999924 -0
vn -0.003921509 -0.9999924 -0
vn -0.003921509 -0.9999924 -0
vn -0.003921509 -0.9999924 -0
vn -0.003921509 -0.9999924 -0
vn -0.7725431 0.5529369 -0.31215057
vn -0.7725431 0.5529369 -0.31215057
vn -0.003921509 0.99999225 -0.00034526698
vn -0.003921509 0.99999225 -0.00034526698
vn -0.003921509 0.99999225 -0.00034526698
vn -0.003921509 0.99999225 -0.00034526698
vn -0.99999225 0.003921509 -0.00034492963
vn -0.99999225 0.003921509 -0.00034492963
vn -0.99999225 0.003921509 -0.00034492963
vn -0.99999225 0.003921509 -0.00034492963
vn -0.003921509 0.99999225 -0.00034526698
vn -0.003921509 0.99999225 -0.00034526698
vn 0.08235234 -0.0039215684 -0.99659556
vn 0.043136954 0.003921509 -0.99906147
vn 0.08235234 0.003921509 -0.99659556
vn 0.08235234 -0.0039215684 -0.99659556
vn 0.0274508 0.003921509 -0.9996155
vn 0.0274508 0.003921509 -0.9996155
vn 0.035293877 0.003921509 -0.99936926
vn 0.019607723 -0.2313708 -0.972668
vn 0.05882311 0.019607663 -0.99807584
g bone2_0
f 3/3/3 2/2/2 1/1/1
f 4/4/4 3/3/3 1/1/1
f 7/7/7 6/6/6 5/5/5
f 8/8/8 7/7/7 5/5/5
f 11/11/11 10/10/10 9/9/9
f 12/12/12 11/11/11 9/9/9
f 11/11/11 14/14/14 13/13/13
f 10/10/10 11/11/11 13/13/13
f 16/16/16 15/15/15 3/3/3
f 18/18/18 17/17/17 6/6/6
f 7/7/7 18/18/18 6/6/6
f 21/21/21 20/20/20 19/19/19
f 23/23/23 21/21/21 22/22/22
f 24/24/24 23/23/23 22/22/22
f 27/27/27 26/26/26 25/25/25
f 28/28/28 27/27/27 25/25/25
f 31/31/31 30/30/30 29/29/29
f 28/28/28 31/31/31 29/29/29
f 29/29/29 27/27/27 28/28/28
f 34/34/34 33/33/33 32/32/32
f 16/16/16 3/3/3 4/4/4
f 35/35/35 16/16/16 4/4/4
f 38/38/38 37/37/37 36/36/36
f 15/15/15 39/39/39 2/2/2
f 3/3/3 15/15/15 2/2/2
f 41/41/41 40/40/40 19/19/19
f 42/42/42 41/41/41 19/19/19
f 26/26/26 44/44/44 43/43/43
f 25/25/25 26/26/26 43/43/43
f 47/47/47 46/46/46 45/45/45
f 48/48/48 47/47/47 45/45/45
f 50/50/50 49/49/49 46/46/46
f 51/51/51 49/49/49 50/50/50
f 45/45/45 46/46/46 49/49/49
f 54/54/54 53/53/53 52/52/52
f 52/52/52 55/55/55 54/54/54
f 55/55/55 56/56/56 54/54/54
f 46/46/46 58/58/58 57/57/57
f 50/50/50 46/46/46 57/57/57
f 61/61/61 60/60/60 59/59/59
f 62/62/62 61/61/61 59/59/59
f 65/65/65 64/64/64 63/63/63
f 66/66/66 65/65/65 63/63/63
f 68/68/68 67/67/67 37/37/37
f 38/38/38 68/68/68 37/37/37
f 71/71/71 70/70/70 69/69/69
f 72/72/72 71/71/71 69/69/69
f 75/75/75 74/74/74 73/73/73
f 70/70/70 75/75/75 73/73/73
f 69/69/69 76/76/76 72/72/72
f 70/70/70 71/71/71 77/77/77
f 75/75/75 70/70/70 77/77/77
