g Boss1Turret_08
v -0.4523642 -0.116156876 0.19454277
v -0.43877614 0.11314237 0.10157323
v -0.43339217 0.032382846 0.2941141
v 0.26319045 0.7295103 0.2946589
v -0.0013930798 0.5993017 0.44508946
v -0.004725933 0.67474127 0.2989533
v -0.34096742 -0.14935803 1.0043811
v -0.34048676 -0.44403404 1.0043811
v -0.42534828 -0.37804836 0.503544
v -0.4415002 -0.19694841 0.42031682
v -0.42733526 -0.04065323 0.49674988
v -0.44608295 0.06683385 -0.27222782
v -0.40714538 0.27571893 -0.3089862
v -0.4388082 0.20899618 -0.13080257
v 0.0363909 0.2718091 1.0043811
v -0.18669116 0.14759338 1.0043811
v -0.26902103 0.3646505 0.6193954
v 0.0025808811 0.49284017 0.6322143
v 0.2522943 0.5528649 0.6350666
v 0.4369836 0.437302 0.71117914
v 0.24588484 0.33737814 1.0043811
v 0.0076442957 0.7945986 -0.11795157
v 0.280464 0.82978666 -0.108818054
v -0.002546668 0.75527644 0.048342466
v -0.26873255 -0.88843554 1.0043811
v -0.33346832 -0.8577982 0.45508826
v 0.4369836 0.6086595 0.2964536
v -0.27629578 0.44941592 0.42147052
v -0.2827052 0.526554 0.24456882
v -0.28408325 0.6173123 0.027030945
v 0.4381373 0.7133584 -0.14019245
v -0.2863586 0.361606 -0.95772207
v -0.25370228 0.6583971 -0.14304471
v -0.26713014 0.50896 -0.91042006
v -0.13839567 0.7841191 -0.81876445
v 0.08340442 0.8958684 -0.78155744
v 0.29885924 0.9249034 -0.7718791
v 0.44387376 0.8104621 -0.8099835
v 0.13234085 0.81193626 -1.0175545
v 0.32773393 0.8336644 -0.9559915
v -0.063212514 0.7038404 -1.0501148
v -0.2106626 0.48482823 -1.0472305
v -0.26873255 -0.88843554 1.0043811
v -0.34048676 -0.44403404 1.0043811
v -0.27536643 -0.46989626 1.0432225
v -0.20358014 -0.9249055 1.0432225
v -0.34096742 -0.14935803 1.0043811
v -0.18669116 0.14759338 1.0043811
v -0.121570826 0.091638565 1.0432225
v -0.27584708 -0.1887443 1.0432225
v 0.0363909 0.2718091 1.0043811
v 0.24588484 0.33737814 1.0043811
v 0.2734456 0.2743088 1.0501126
v 0.10151124 0.21585429 1.0432225
v 0.24588484 0.33737814 1.0043811
v 0.4369836 0.437302 0.71117914
v 0.45239842 0.35894608 0.7222997
v 0.2734456 0.2743088 1.0501126
v -0.28408325 0.6173123 0.027030945
v -0.4388082 0.20899618 -0.13080257
v -0.35385048 0.254856 -0.12410468
v -0.23581982 0.5661646 -0.0037345886
v -0.002546668 0.75527644 0.048342466
v -0.021166325 0.6713443 0.012481451
v -0.43339217 0.032382846 0.2941141
v -0.43877614 0.11314237 0.10157323
v -0.35606182 0.1456064 0.14932394
v -0.3519597 0.08394718 0.29613316
v -0.0013930798 0.5993017 0.44508946
v -0.27629578 0.44941592 0.42147052
v -0.23223054 0.4020177 0.39323676
v -0.022512317 0.5162668 0.41124737
v -0.43339217 0.032382846 0.2941141
v -0.3519597 0.08394718 0.29613316
v -0.004725933 0.67474127 0.2989533
v -0.0013930798 0.5993017 0.44508946
v -0.022512317 0.5162668 0.41124737
v -0.025140166 0.5737599 0.29981852
v -0.43877614 0.11314237 0.10157323
v -0.2827052 0.526554 0.24456882
v -0.2371018 0.4607607 0.25834918
v -0.35606182 0.1456064 0.14932394
v -0.004725933 0.67474127 0.2989533
v -0.025140166 0.5737599 0.29981852
v -0.4388082 0.20899618 -0.13080257
v -0.40714538 0.27571893 -0.3089862
v -0.32962263 0.30571532 -0.25995368
v -0.35385048 0.254856 -0.12410468
v 0.0076442957 0.7945986 -0.11795157
v -0.002546668 0.75527644 0.048342466
v -0.021166325 0.6713443 0.012481451
v -0.013346672 0.7013407 -0.114298165
v -0.40714538 0.27571893 -0.3089862
v -0.25370228 0.6583971 -0.14304471
v -0.21268165 0.597507 -0.13343048
v -0.32962263 0.30571532 -0.25995368
v 0.0076442957 0.7945986 -0.11795157
v -0.013346672 0.7013407 -0.114298165
v -0.23581982 0.5661646 -0.0037345886
v -0.35385048 0.254856 -0.12410468
v -0.32962263 0.30571532 -0.25995368
v -0.21268165 0.597507 -0.13343048
v -0.021166325 0.6713443 0.012481451
v -0.013346672 0.7013407 -0.114298165
v -0.23223054 0.4020177 0.39323676
v -0.3519597 0.08394718 0.29613316
v -0.35606182 0.1456064 0.14932394
v -0.2371018 0.4607607 0.25834918
v -0.022512317 0.5162668 0.41124737
v -0.025140166 0.5737599 0.29981852
v 0.4369836 0.6086595 0.2964536
v 0.4381373 0.7133584 -0.14019245
v 0.43012542 0.5902002 -0.14019245
v 0.4289717 0.49203897 0.2964536
v 0.4369836 0.437302 0.71117914
v 0.45239842 0.35894608 0.7222997
v 0.44387376 0.8104621 -0.8099835
v 0.43586195 0.69537985 -0.8099835
v 0.32773393 0.8336644 -0.9559915
v 0.13234085 0.81193626 -1.0175545
v 0.14887732 0.7007638 -1.0175545
v 0.31965798 0.71678746 -0.9559915
v -0.063212514 0.7038404 -1.0501148
v -0.021166325 0.6036601 -1.0501148
v -0.2106626 0.48482823 -1.0472305
v -0.1585536 0.4293542 -1.0472305
v -0.42534828 -0.37804836 0.503544
v -0.33346832 -0.8577982 0.45508826
v -0.24504948 -0.88596785 0.45508826
v -0.33689737 -0.40621805 0.503544
v -0.4415002 -0.19694841 0.42031682
v -0.42534828 -0.37804836 0.503544
v -0.33689737 -0.40621805 0.503544
v -0.3531134 -0.2251181 0.42031682
v -0.4523642 -0.116156876 0.19454277
v -0.4415002 -0.19694841 0.42031682
v -0.3531134 -0.2251181 0.42031682
v -0.36397743 -0.14429456 0.19454277
v -0.44608295 0.06683385 -0.27222782
v -0.35769618 0.03866422 -0.27222782
v -0.2863586 0.361606 -0.95772207
v -0.22665429 0.31414378 -0.95772207
v -0.26873255 -0.88843554 1.0043811
v -0.20358014 -0.9249055 1.0432225
v -0.24504948 -0.88596785 0.45508826
v -0.33346832 -0.8577982 0.45508826
vt 0.89994276 0.81047577
vt 0.9028475 0.8141551
vt 0.8987808 0.81376785
vt 0.9026539 0.83332664
vt 0.8993618 0.82809806
vt 0.9020729 0.8282917
vt 0.8848379 0.8162853
vt 0.88232046 0.8112503
vt 0.89161575 0.8079583
vt 0.8951015 0.8102821
vt 0.8945205 0.81376785
vt 0.909819 0.811444
vt 0.91117454 0.81531703
vt 0.90768886 0.8145424
vt 0.88716173 0.8275171
vt 0.8867745 0.82248217
vt 0.8951015 0.8222885
vt 0.8954888 0.8279044
vt 0.89568245 0.8327457
vt 0.893165 0.8362314
vt 0.8877427 0.8317774
vt 0.909819 0.82848537
vt 0.9103999 0.83371395
vt 0.90691423 0.82848537
vt 0.8782538 0.8038916
vt 0.88754904 0.79943764
vt 0.9020729 0.8371997
vt 0.89916813 0.82248217
vt 0.9024602 0.8226758
vt 0.9065269 0.8230631
vt 0.9109809 0.8371997
vt 0.92395556 0.81609166
vt 0.9094317 0.82325673
vt 0.9233746 0.8188028
vt 0.9224063 0.82441866
vt 0.9224063 0.82848537
vt 0.9226 0.8321647
vt 0.9237619 0.8348758
vt 0.927054 0.8282917
vt 0.92627937 0.8321647
vt 0.92686033 0.8238377
vt 0.9260857 0.8186091
vt 0.8782538 0.8038916
vt 0.88232046 0.8112503
vt 0.8807713 0.811444
vt 0.8768982 0.80331063
vt 0.8848379 0.8162853
vt 0.8867745 0.82248217
vt 0.8850316 0.8228694
vt 0.88328874 0.81647897
vt 0.88716173 0.8275171
vt 0.8877427 0.8317774
vt 0.8861935 0.8321647
vt 0.88561255 0.8282917
vt 0.8877427 0.8317774
vt 0.893165 0.8362314
vt 0.8921967 0.8371997
vt 0.8861935 0.8321647
vt 0.91911423 0.86237437
vt 0.91911423 0.87128234
vt 0.91833967 0.8697331
vt 0.9177587 0.86295533
vt 0.9165968 0.85695213
vt 0.91620946 0.858695
vt 0.99483204 0.83139014
vt 0.990378 0.8308092
vt 0.99153996 0.82925993
vt 0.9942511 0.82964724
vt 0.9956066 0.8168663
vt 0.99618757 0.8228694
vt 0.99483204 0.8228694
vt 0.99502563 0.81841546
vt 0.99483204 0.83139014
vt 0.9942511 0.82964724
vt 0.99212086 0.81609166
vt 0.9956066 0.8168663
vt 0.99502563 0.81841546
vt 0.9928955 0.8178345
vt 0.990378 0.8308092
vt 0.990378 0.82209486
vt 0.99192727 0.82248217
vt 0.99153996 0.82925993
vt 0.99212086 0.81609166
vt 0.9928955 0.8178345
vt 0.91911423 0.87128234
vt 0.9150476 0.87166965
vt 0.91562855 0.86992675
vt 0.91833967 0.8697331
vt 0.91291744 0.85772675
vt 0.9165968 0.85695213
vt 0.91620946 0.858695
vt 0.9140793 0.8590823
vt 0.9150476 0.87166965
vt 0.9134984 0.86334264
vt 0.9150476 0.86334264
vt 0.91562855 0.86992675
vt 0.91291744 0.85772675
vt 0.9140793 0.8590823
vt 0.9177587 0.86295533
vt 0.91833967 0.8697331
vt 0.91562855 0.86992675
vt 0.9150476 0.86334264
vt 0.91620946 0.858695
vt 0.9140793 0.8590823
vt 0.99483204 0.8228694
vt 0.9942511 0.82964724
vt 0.99153996 0.82925993
vt 0.99192727 0.82248217
vt 0.99502563 0.81841546
vt 0.9928955 0.8178345
vt 0.9020729 0.8371997
vt 0.9109809 0.8371997
vt 0.9107872 0.8395235
vt 0.90129834 0.83932984
vt 0.893165 0.8362314
vt 0.8921967 0.8371997
vt 0.9237619 0.8348758
vt 0.9245365 0.8366187
vt 0.92627937 0.8321647
vt 0.927054 0.8282917
vt 0.9289905 0.82809806
vt 0.92802227 0.8329393
vt 0.92686033 0.8238377
vt 0.9286032 0.8230631
vt 0.9260857 0.8186091
vt 0.927054 0.8178345
vt 0.89161575 0.8079583
vt 0.88754904 0.79943764
vt 0.8873554 0.79808205
vt 0.8923904 0.8062154
vt 0.8951015 0.8102821
vt 0.89161575 0.8079583
vt 0.8923904 0.8062154
vt 0.89529514 0.80834556
vt 0.89994276 0.81047577
vt 0.8951015 0.8102821
vt 0.89529514 0.80834556
vt 0.89994276 0.80873287
vt 0.909819 0.811444
vt 0.9102063 0.8098948
vt 0.92395556 0.81609166
vt 0.9245365 0.8149297
vt 0.8782538 0.8038916
vt 0.8768982 0.80331063
vt 0.8873554 0.79808205
vt 0.88754904 0.79943764
vn -0.9969792 0.06513888 0.04230193
vn -0.98131794 0.18259782 0.060606252
vn -0.9656568 0.22175068 0.13540143
vn 0.20893174 0.9186732 0.3352418
vn -0.26873428 0.8560285 0.44158474
vn -0.2843954 0.9108427 0.29914013
vn -0.9578262 0.16693658 0.23388284
vn -0.98131794 -0.114964664 0.15426667
vn -0.98131794 -0.091472864 0.1692566
vn -0.98914856 0.010324776 0.14655547
vn -0.9578262 0.18259782 0.22187167
vn -0.98914856 0.10429186 -0.10348099
vn -0.93433446 0.34704024 -0.08113067
vn -0.9801955 0.19803217 -0
vn -0.331379 0.7933838 0.51061743
vn -0.76989204 0.51148254 0.38164365
vn -0.7620614 0.5428049 0.35302305
vn -0.31571776 0.81687564 0.48273855
vn 0.067981124 0.87952036 0.47098035
vn 0.3968659 0.81687564 0.41858292
vn -0.16693658 0.848198 0.5026851
vn -0.30788726 0.9421651 0.13240235
vn 0.23242348 0.9578262 0.16896242
vn -0.26090366 0.92650384 0.2711456
vn -0.97348744 -0.17760938 0.14414269
vn -0.97348744 -0.17760938 0.14414269
vn 0.5143248 0.8012144 0.30581945
vn -0.77772266 0.55846614 0.2885533
vn -0.8012144 0.5506355 0.23421358
vn -0.7933838 0.57412726 0.20228705
vn 0.60829186 0.77772266 0.15851967
vn -0.9656568 0.18259782 -0.18483762
vn -0.7620614 0.6446026 -0.061236486
vn -0.9030121 0.40185434 -0.15192851
vn -0.73073906 0.67592496 -0.09563397
vn -0.29894292 0.954271 -0
vn 0.20893174 0.97348744 0.0931114
vn 0.6161224 0.7855533 0.057438977
vn -0.24524254 0.88735086 -0.3904671
vn 0.052319944 0.9186732 -0.39153817
vn -0.5897885 0.6915862 -0.41696292
vn -0.77772266 0.47232968 -0.41479164
vn -0.5428049 -0.083642304 0.83568347
vn -0.5271438 -0.036658764 0.848985
vn -0.5349744 -0.060150504 0.8427244
vn -0.5428049 -0.083642304 0.83568347
vn -0.4331767 0.13561422 0.89104813
vn -0.31571776 0.2843954 0.9052301
vn -0.30788726 0.2843954 0.9079233
vn -0.44883782 0.10429186 0.88750654
vn -0.19825894 0.40968496 0.8904222
vn -0.1747672 0.48016018 0.85959446
vn -0.1747672 0.48016018 0.85959446
vn -0.19042832 0.4331767 0.88096255
vn 0.71008956 0.44100732 0.5488947
vn 0.71008956 0.44100732 0.5488947
vn 0.71008956 0.44100732 0.5488947
vn 0.71008956 0.44100732 0.5488947
vn -0.14344484 0.40968496 -0.90087837
vn -0.14344484 0.40185434 -0.9043985
vn -0.14344484 0.40185434 -0.9043985
vn -0.14344484 0.40968496 -0.90087837
vn -0.13561422 0.41751546 -0.898493
vn -0.13561422 0.41751546 -0.898493
vn -0.51148254 0.7855533 0.34826958
vn -0.51148254 0.7855533 0.34826958
vn -0.51148254 0.7855533 0.34826958
vn -0.51148254 0.7855533 0.34826958
vn -0.14344484 0.40185434 -0.9043985
vn -0.1747672 0.3783626 -0.90900946
vn -0.18259782 0.3783626 -0.9074689
vn -0.14344484 0.40185434 -0.9043985
vn -0.20608956 0.35487074 -0.9119177
vn -0.20608956 0.35487074 -0.9119177
vn -0.97348744 0.19825894 0.11408594
vn -0.97348744 0.19825894 0.11408594
vn -0.97348744 0.19825894 0.11408594
vn -0.97348744 0.19825894 0.11408594
vn -0.45666844 -0.13062584 0.8799948
vn -0.33920962 -0.036658764 0.93999624
vn -0.37053198 -0.060150504 0.92687
vn -0.45666844 -0.13062584 0.8799948
vn -0.22175068 0.049477756 0.9738473
vn -0.22175068 0.049477756 0.9738473
vn -0.47232968 0.848198 0.23971824
vn -0.47232968 0.848198 0.23971824
vn -0.47232968 0.848198 0.23971824
vn -0.47232968 0.848198 0.23971824
vn -0.97348744 0.22175068 -0.05611458
vn -0.97348744 0.22175068 -0.05611458
vn -0.97348744 0.22175068 -0.05611458
vn -0.97348744 0.22175068 -0.05611458
vn -0.47232968 -0.18543994 0.8616941
vn -0.30788726 -0.060150504 0.9495196
vn -0.35487074 -0.091472864 0.9304297
vn -0.47232968 -0.18543994 0.8616941
vn -0.1277836 0.06513888 0.9896607
vn -0.1277836 0.06513888 0.9896607
vn -0.8012144 0.5976191 0.03011403
vn -0.9257785 0.3780664 -0
vn -0.9257785 0.3780664 -0
vn -0.7855533 0.61328024 0.08242232
vn -0.45666844 0.87952036 0.13378304
vn -0.45666844 0.87952036 0.13378304
vn -0.82470614 0.50365204 0.25728276
vn -0.9421651 0.30005664 0.1493016
vn -0.9421651 0.30005664 0.1493016
vn -0.809045 0.51931316 0.27524537
vn -0.48016018 0.7855533 0.39032328
vn -0.48016018 0.7855533 0.39032328
vn 0.9995846 -0.028821317 -0
vn 0.99769646 -0.06783665 -0
vn 0.99769646 -0.06783665 -0
vn 0.99982136 -0.013166964 -0.013558824
vn 0.9994286 0.033803232 -0
vn 0.9994286 0.033803232 -0
vn 0.9841602 -0.067981124 -0.16372941
vn 0.9919908 -0.067981124 -0.106455736
vn 0.5769695 -0.020997584 -0.8164957
vn 0.24808466 0.025986016 -0.96838975
vn 0.22459292 0.025986016 -0.97410613
vn 0.56130826 -0.020997584 -0.8273404
vn 0.099303484 0.025986016 -0.99471784
vn 0.060150504 0.018155396 -0.9980242
vn -0.1277836 -0.1384564 -0.98209023
vn -0.1747672 -0.18543994 -0.9669894
vn 0.036658764 0.10429186 -0.9938709
vn 0.036658764 0.10429186 -0.9938709
vn 0.036658764 0.10429186 -0.9938709
vn 0.036658764 0.10429186 -0.9938709
vn -0.13561422 -0.4203577 -0.8971668
vn -0.13561422 -0.4203577 -0.8971668
vn -0.13561422 -0.4203577 -0.8971668
vn -0.13561422 -0.4203577 -0.8971668
vn -0.2843954 -0.89802366 -0.3356676
vn -0.29222602 -0.9058543 -0.30664635
vn -0.29222602 -0.9058543 -0.30664635
vn -0.2843954 -0.89802366 -0.3356676
vn -0.36270136 -0.84320956 -0.39679387
vn -0.35487074 -0.84320956 -0.40381235
vn -0.41751546 -0.7492425 -0.51411724
vn -0.41751546 -0.76490366 -0.4905132
vn -0.3861931 -0.92151546 -0.040793408
vn -0.3861931 -0.92151546 -0.040793408
vn -0.3861931 -0.92151546 -0.040793408
vn -0.3861931 -0.92151546 -0.040793408
g Boss1Turret_08_0
f 3/3/3 2/2/2 1/1/1
f 6/6/6 5/5/5 4/4/4
f 9/9/9 8/8/8 7/7/7
f 7/7/7 10/10/10 9/9/9
f 7/7/7 11/11/11 10/10/10
f 14/14/14 13/13/13 12/12/12
f 17/17/17 16/16/16 15/15/15
f 18/18/18 17/17/17 15/15/15
f 17/17/17 11/11/11 7/7/7
f 16/16/16 17/17/17 7/7/7
f 21/21/21 20/20/20 19/19/19
f 15/15/15 21/21/21 19/19/19
f 18/18/18 15/15/15 19/19/19
f 24/24/24 23/23/23 22/22/22
f 9/9/9 26/26/26 25/25/25
f 8/8/8 9/9/9 25/25/25
f 20/20/20 27/27/27 4/4/4
f 19/19/19 20/20/20 4/4/4
f 4/4/4 5/5/5 18/18/18
f 19/19/19 4/4/4 18/18/18
f 5/5/5 28/28/28 17/17/17
f 18/18/18 5/5/5 17/17/17
f 28/28/28 3/3/3 11/11/11
f 17/17/17 28/28/28 11/11/11
f 3/3/3 1/1/1 10/10/10
f 11/11/11 3/3/3 10/10/10
f 1/1/1 2/2/2 14/14/14
f 12/12/12 1/1/1 14/14/14
f 14/14/14 2/2/2 29/29/29
f 30/30/30 14/14/14 29/29/29
f 30/30/30 29/29/29 6/6/6
f 24/24/24 30/30/30 6/6/6
f 24/24/24 6/6/6 4/4/4
f 23/23/23 24/24/24 4/4/4
f 4/4/4 27/27/27 31/31/31
f 23/23/23 4/4/4 31/31/31
f 12/12/12 13/13/13 32/32/32
f 34/34/34 13/13/13 33/33/33
f 35/35/35 34/34/34 33/33/33
f 35/35/35 33/33/33 22/22/22
f 36/36/36 35/35/35 22/22/22
f 22/22/22 23/23/23 37/37/37
f 36/36/36 22/22/22 37/37/37
f 23/23/23 31/31/31 38/38/38
f 37/37/37 23/23/23 38/38/38
f 39/39/39 36/36/36 37/37/37
f 40/40/40 39/39/39 37/37/37
f 41/41/41 35/35/35 36/36/36
f 39/39/39 41/41/41 36/36/36
f 38/38/38 40/40/40 37/37/37
f 34/34/34 35/35/35 41/41/41
f 42/42/42 34/34/34 41/41/41
f 42/42/42 32/32/32 34/34/34
f 45/45/45 44/44/44 43/43/43
f 46/46/46 45/45/45 43/43/43
f 49/49/49 48/48/48 47/47/47
f 50/50/50 49/49/49 47/47/47
f 53/53/53 52/52/52 51/51/51
f 54/54/54 53/53/53 51/51/51
f 54/54/54 51/51/51 48/48/48
f 49/49/49 54/54/54 48/48/48
f 50/50/50 47/47/47 44/44/44
f 45/45/45 50/50/50 44/44/44
f 57/57/57 56/56/56 55/55/55
f 58/58/58 57/57/57 55/55/55
f 61/61/61 60/60/60 59/59/59
f 62/62/62 61/61/61 59/59/59
f 62/62/62 59/59/59 63/63/63
f 64/64/64 62/62/62 63/63/63
f 67/67/67 66/66/66 65/65/65
f 68/68/68 67/67/67 65/65/65
f 71/71/71 70/70/70 69/69/69
f 72/72/72 71/71/71 69/69/69
f 74/74/74 73/73/73 70/70/70
f 71/71/71 74/74/74 70/70/70
f 77/77/77 76/76/76 75/75/75
f 78/78/78 77/77/77 75/75/75
f 81/81/81 80/80/80 79/79/79
f 82/82/82 81/81/81 79/79/79
f 84/84/84 83/83/83 80/80/80
f 81/81/81 84/84/84 80/80/80
f 87/87/87 86/86/86 85/85/85
f 88/88/88 87/87/87 85/85/85
f 91/91/91 90/90/90 89/89/89
f 92/92/92 91/91/91 89/89/89
f 95/95/95 94/94/94 93/93/93
f 96/96/96 95/95/95 93/93/93
f 98/98/98 97/97/97 94/94/94
f 95/95/95 98/98/98 94/94/94
f 101/101/101 100/100/100 99/99/99
f 102/102/102 101/101/101 99/99/99
f 102/102/102 99/99/99 103/103/103
f 104/104/104 102/102/102 103/103/103
f 107/107/107 106/106/106 105/105/105
f 108/108/108 107/107/107 105/105/105
f 108/108/108 105/105/105 109/109/109
f 110/110/110 108/108/108 109/109/109
f 113/113/113 112/112/112 111/111/111
f 114/114/114 113/113/113 111/111/111
f 114/114/114 111/111/111 115/115/115
f 116/116/116 114/114/114 115/115/115
f 118/118/118 117/117/117 112/112/112
f 113/113/113 118/118/118 112/112/112
f 121/121/121 120/120/120 119/119/119
f 122/122/122 121/121/121 119/119/119
f 124/124/124 123/123/123 120/120/120
f 121/121/121 124/124/124 120/120/120
f 122/122/122 119/119/119 117/117/117
f 118/118/118 122/122/122 117/117/117
f 126/126/126 125/125/125 123/123/123
f 124/124/124 126/126/126 123/123/123
f 129/129/129 128/128/128 127/127/127
f 130/130/130 129/129/129 127/127/127
f 133/133/133 132/132/132 131/131/131
f 134/134/134 133/133/133 131/131/131
f 137/137/137 136/136/136 135/135/135
f 138/138/138 137/137/137 135/135/135
f 138/138/138 135/135/135 139/139/139
f 140/140/140 138/138/138 139/139/139
f 140/140/140 139/139/139 141/141/141
f 142/142/142 140/140/140 141/141/141
f 142/142/142 141/141/141 125/125/125
f 126/126/126 142/142/142 125/125/125
f 32/32/32 13/13/13 34/34/34
f 145/145/145 144/144/144 143/143/143
f 146/146/146 145/145/145 143/143/143
