g Boss1Turret_09
v 0.45239842 -0.116156876 0.19454277
v 0.43342632 0.032382846 0.2941141
v 0.43871415 0.11314237 0.10157323
v -0.26322043 0.7295103 0.2946589
v 0.004728079 0.67474127 0.2989533
v 0.0013309717 0.5993017 0.44508946
v 0.4253183 -0.37804836 0.503544
v 0.34045678 -0.44403404 1.0043811
v 0.3409695 -0.14935803 1.0043811
v 0.44153434 -0.19694841 0.42031682
v 0.42730528 -0.04065323 0.49674988
v 0.4461171 0.06683385 -0.27222782
v 0.43884236 0.20899618 -0.13080257
v 0.40714747 0.27571893 -0.3089862
v -0.03645289 0.2718091 1.0043811
v -0.00251472 0.49284017 0.6322143
v 0.268959 0.3646505 0.6193954
v 0.18662918 0.14759338 1.0043811
v -0.25229228 0.5528649 0.6350666
v -0.24588275 0.33737814 1.0043811
v -0.43704557 0.437302 0.71117914
v -0.007642269 0.7945986 -0.11795157
v 0.0025808811 0.75527644 0.048342466
v -0.2804619 0.82978666 -0.108818054
v 0.26873463 -0.88843554 1.0043811
v 0.3334704 -0.8577982 0.45508826
v -0.43704557 0.6086595 0.2964536
v 0.27632987 0.44941592 0.42147052
v 0.28270733 0.526554 0.24456882
v 0.28405333 0.6173123 0.027030945
v -0.43813527 0.7133584 -0.14019245
v 0.28632867 0.361606 -0.95772207
v 0.25373644 0.6583971 -0.14304471
v 0.13839781 0.7841191 -0.81876445
v 0.26716435 0.50896 -0.91042006
v -0.083402395 0.8958684 -0.78155744
v -0.2988571 0.9249034 -0.7718791
v -0.44387174 0.8104621 -0.8099835
v -0.32773185 0.8336644 -0.9559915
v -0.13237083 0.81193626 -1.0175545
v 0.0632146 0.7038404 -1.0501148
v 0.21066475 0.48482823 -1.0472305
v 0.26873463 -0.88843554 1.0043811
v 0.2036143 -0.9249055 1.0432225
v 0.27533644 -0.46989626 1.0432225
v 0.34045678 -0.44403404 1.0043811
v 0.3409695 -0.14935803 1.0043811
v 0.27584916 -0.1887443 1.0432225
v 0.12150884 0.091638565 1.0432225
v 0.18662918 0.14759338 1.0043811
v -0.03645289 0.2718091 1.0043811
v -0.10157323 0.21585429 1.0432225
v -0.27344358 0.2743088 1.0501126
v -0.24588275 0.33737814 1.0043811
v -0.24588275 0.33737814 1.0043811
v -0.27344358 0.2743088 1.0501126
v -0.45242834 0.35894608 0.7222997
v -0.43704557 0.437302 0.71117914
v 0.28405333 0.6173123 0.027030945
v 0.2357899 0.5661646 -0.0037345886
v 0.3537885 0.254856 -0.12410468
v 0.43884236 0.20899618 -0.13080257
v 0.0025808811 0.75527644 0.048342466
v 0.021168351 0.6713443 0.012481451
v 0.43342632 0.032382846 0.2941141
v 0.35199386 0.08394718 0.29613316
v 0.35606384 0.1456064 0.14932394
v 0.43871415 0.11314237 0.10157323
v 0.0013309717 0.5993017 0.44508946
v 0.02254641 0.5162668 0.41124737
v 0.23220062 0.4020177 0.39323676
v 0.27632987 0.44941592 0.42147052
v 0.35199386 0.08394718 0.29613316
v 0.43342632 0.032382846 0.2941141
v 0.004728079 0.67474127 0.2989533
v 0.025110245 0.5737599 0.29981852
v 0.02254641 0.5162668 0.41124737
v 0.0013309717 0.5993017 0.44508946
v 0.43871415 0.11314237 0.10157323
v 0.35606384 0.1456064 0.14932394
v 0.23703974 0.4607607 0.25834918
v 0.28270733 0.526554 0.24456882
v 0.025110245 0.5737599 0.29981852
v 0.004728079 0.67474127 0.2989533
v 0.43884236 0.20899618 -0.13080257
v 0.3537885 0.254856 -0.12410468
v 0.3296247 0.30571532 -0.25995368
v 0.40714747 0.27571893 -0.3089862
v -0.007642269 0.7945986 -0.11795157
v 0.013348818 0.7013407 -0.114298165
v 0.021168351 0.6713443 0.012481451
v 0.0025808811 0.75527644 0.048342466
v 0.40714747 0.27571893 -0.3089862
v 0.3296247 0.30571532 -0.25995368
v 0.21265167 0.597507 -0.13343048
v 0.25373644 0.6583971 -0.14304471
v 0.013348818 0.7013407 -0.114298165
v -0.007642269 0.7945986 -0.11795157
v 0.2357899 0.5661646 -0.0037345886
v 0.21265167 0.597507 -0.13343048
v 0.3296247 0.30571532 -0.25995368
v 0.3537885 0.254856 -0.12410468
v 0.021168351 0.6713443 0.012481451
v 0.013348818 0.7013407 -0.114298165
v 0.23220062 0.4020177 0.39323676
v 0.23703974 0.4607607 0.25834918
v 0.35606384 0.1456064 0.14932394
v 0.35199386 0.08394718 0.29613316
v 0.02254641 0.5162668 0.41124737
v 0.025110245 0.5737599 0.29981852
v -0.43704557 0.6086595 0.2964536
v -0.42896962 0.49203897 0.2964536
v -0.43012333 0.5902002 -0.14019245
v -0.43813527 0.7133584 -0.14019245
v -0.43704557 0.437302 0.71117914
v -0.45242834 0.35894608 0.7222997
v -0.4358598 0.69537985 -0.8099835
v -0.44387174 0.8104621 -0.8099835
v -0.32773185 0.8336644 -0.9559915
v -0.3196559 0.71678746 -0.9559915
v -0.14887524 0.7007638 -1.0175545
v -0.13237083 0.81193626 -1.0175545
v 0.021104217 0.6036601 -1.0501148
v 0.0632146 0.7038404 -1.0501148
v 0.15852356 0.4293542 -1.0472305
v 0.21066475 0.48482823 -1.0472305
v 0.4253183 -0.37804836 0.503544
v 0.33689952 -0.40621805 0.503544
v 0.24501956 -0.88596785 0.45508826
v 0.3334704 -0.8577982 0.45508826
v 0.44153434 -0.19694841 0.42031682
v 0.35308343 -0.2251181 0.42031682
v 0.33689952 -0.40621805 0.503544
v 0.4253183 -0.37804836 0.503544
v 0.45239842 -0.116156876 0.19454277
v 0.3639475 -0.14429456 0.19454277
v 0.35308343 -0.2251181 0.42031682
v 0.44153434 -0.19694841 0.42031682
v 0.4461171 0.06683385 -0.27222782
v 0.35769826 0.03866422 -0.27222782
v 0.28632867 0.361606 -0.95772207
v 0.22665638 0.31414378 -0.95772207
v 0.26873463 -0.88843554 1.0043811
v 0.3334704 -0.8577982 0.45508826
v 0.24501956 -0.88596785 0.45508826
v 0.2036143 -0.9249055 1.0432225
vt 0.89994276 0.8104757
vt 0.8987808 0.8137678
vt 0.9028475 0.8141551
vt 0.9026539 0.8333266
vt 0.9020729 0.82829165
vt 0.8993618 0.828098
vt 0.8916157 0.80795825
vt 0.8823204 0.8112503
vt 0.8848379 0.81628525
vt 0.8951014 0.81028205
vt 0.8945205 0.8137678
vt 0.90981895 0.8114439
vt 0.9076888 0.81454235
vt 0.91117454 0.815317
vt 0.88716173 0.82751703
vt 0.89548874 0.82790434
vt 0.8951014 0.82228845
vt 0.8867744 0.8224821
vt 0.8956824 0.8327456
vt 0.8877427 0.8317774
vt 0.89316493 0.83623135
vt 0.90981895 0.8284853
vt 0.9069142 0.8284853
vt 0.9103999 0.8337139
vt 0.87825376 0.80389154
vt 0.88754904 0.7994376
vt 0.9020729 0.8371996
vt 0.89916813 0.8224821
vt 0.9024602 0.82267576
vt 0.90652686 0.8230631
vt 0.9109809 0.8371996
vt 0.92395556 0.8160916
vt 0.90943164 0.82325673
vt 0.9224063 0.8244186
vt 0.9233746 0.8188027
vt 0.9224063 0.8284853
vt 0.9226 0.83216465
vt 0.92376184 0.8348758
vt 0.92627937 0.83216465
vt 0.9270539 0.82829165
vt 0.92686033 0.82383764
vt 0.9260857 0.81860906
vt 0.87825376 0.80389154
vt 0.87689817 0.8033106
vt 0.8807712 0.8114439
vt 0.8823204 0.8112503
vt 0.8848379 0.81628525
vt 0.8832887 0.8164789
vt 0.8850316 0.8228694
vt 0.8867744 0.8224821
vt 0.88716173 0.82751703
vt 0.8856125 0.82829165
vt 0.88619345 0.83216465
vt 0.8877427 0.8317774
vt 0.8877427 0.8317774
vt 0.88619345 0.83216465
vt 0.89219666 0.8371996
vt 0.89316493 0.83623135
vt 0.91911423 0.8623743
vt 0.9177587 0.8629553
vt 0.9183396 0.8697331
vt 0.91911423 0.8712823
vt 0.9165968 0.8569521
vt 0.91620946 0.858695
vt 0.99483204 0.8313901
vt 0.9942511 0.8296472
vt 0.99153996 0.8292599
vt 0.990378 0.8308091
vt 0.9956066 0.8168662
vt 0.99502563 0.8184154
vt 0.99483204 0.8228694
vt 0.99618757 0.8228694
vt 0.9942511 0.8296472
vt 0.99483204 0.8313901
vt 0.99212086 0.8160916
vt 0.9928955 0.81783444
vt 0.99502563 0.8184154
vt 0.9956066 0.8168662
vt 0.990378 0.8308091
vt 0.99153996 0.8292599
vt 0.99192727 0.8224821
vt 0.990378 0.8220948
vt 0.9928955 0.81783444
vt 0.99212086 0.8160916
vt 0.91911423 0.8712823
vt 0.9183396 0.8697331
vt 0.9156285 0.86992675
vt 0.9150475 0.8716696
vt 0.9129174 0.8577267
vt 0.9140793 0.8590822
vt 0.91620946 0.858695
vt 0.9165968 0.8569521
vt 0.9150475 0.8716696
vt 0.9156285 0.86992675
vt 0.9150475 0.8633426
vt 0.91349834 0.8633426
vt 0.9140793 0.8590822
vt 0.9129174 0.8577267
vt 0.9177587 0.8629553
vt 0.9150475 0.8633426
vt 0.9156285 0.86992675
vt 0.9183396 0.8697331
vt 0.91620946 0.858695
vt 0.9140793 0.8590822
vt 0.99483204 0.8228694
vt 0.99192727 0.8224821
vt 0.99153996 0.8292599
vt 0.9942511 0.8296472
vt 0.99502563 0.8184154
vt 0.9928955 0.81783444
vt 0.9020729 0.8371996
vt 0.9012983 0.8393298
vt 0.9107872 0.83952343
vt 0.9109809 0.8371996
vt 0.89316493 0.83623135
vt 0.89219666 0.8371996
vt 0.92453647 0.83661866
vt 0.92376184 0.8348758
vt 0.92627937 0.83216465
vt 0.9280222 0.83293927
vt 0.9289905 0.828098
vt 0.9270539 0.82829165
vt 0.9286032 0.8230631
vt 0.92686033 0.82383764
vt 0.9270539 0.81783444
vt 0.9260857 0.81860906
vt 0.8916157 0.80795825
vt 0.8923903 0.80621535
vt 0.8873554 0.798082
vt 0.88754904 0.7994376
vt 0.8951014 0.81028205
vt 0.8952951 0.80834556
vt 0.8923903 0.80621535
vt 0.8916157 0.80795825
vt 0.89994276 0.8104757
vt 0.89994276 0.8087328
vt 0.8952951 0.80834556
vt 0.8951014 0.81028205
vt 0.90981895 0.8114439
vt 0.91020626 0.80989474
vt 0.92395556 0.8160916
vt 0.92453647 0.81492966
vt 0.87825376 0.80389154
vt 0.88754904 0.7994376
vt 0.8873554 0.798082
vt 0.87689817 0.8033106
vn 0.9969632 0.067984045 0.037980586
vn 0.9656412 0.22459394 0.13074644
vn 0.9813022 0.18544143 0.051550828
vn -0.20893294 0.9215079 0.32736865
vn 0.28438818 0.9058469 0.3139502
vn 0.26872724 0.8510335 0.45114043
vn 0.9813022 -0.08862585 0.17085513
vn 0.9813022 -0.11211735 0.15644717
vn 0.95781076 0.16194993 0.23742533
vn 0.9891327 0.0053400397 0.14692856
vn 0.95781076 0.18544143 0.21956785
vn 0.9891327 0.10713655 -0.100689024
vn 0.9734717 0.20110244 0.10913595
vn 0.93431926 0.34205133 -0.10024184
vn 0.3313712 0.79622 0.5061885
vn 0.3157102 0.8197115 0.47791225
vn 0.76204836 0.5456442 0.34864697
vn 0.76987886 0.5143222 0.37783486
vn -0.067984045 0.8823555 0.46564683
vn 0.1669308 0.843203 0.5110213
vn -0.39686483 0.811881 0.42819098
vn 0.3078797 0.9449994 0.11039125
vn 0.26089674 0.9215079 0.2876735
vn -0.23242444 0.9528299 0.19517696
vn 0.9734717 -0.1825918 0.13788792
vn 0.9734717 -0.1825918 0.13788792
vn -0.5143222 0.8040505 0.2982876
vn 0.77770936 0.5613052 0.2830275
vn 0.80120087 0.5534747 0.22747068
vn 0.79337037 0.5691357 0.21598141
vn -0.6082881 0.780559 0.14392085
vn 0.9656412 0.17761093 -0.18971406
vn 0.76204836 0.6474406 -0.010147267
vn 0.73072636 0.6709321 -0.126052
vn 0.90299726 0.40469533 -0.14428319
vn 0.3000492 0.9528299 -0.045668654
vn -0.20893294 0.9763214 0.056067362
vn -0.6161186 0.780559 0.10547751
vn -0.052323043 0.9215079 -0.38481876
vn 0.24523574 0.8823555 -0.40163195
vn 0.58977747 0.6944236 -0.41223583
vn 0.77770936 0.47516972 -0.4115603
vn 0.5427945 -0.08862585 0.8351764
vn 0.5427945 -0.08862585 0.8351764
vn 0.534964 -0.06513435 0.8423604
vn 0.5271335 -0.041642904 0.8487615
vn 0.43316758 0.13845855 0.890615
vn 0.44882858 0.10713655 0.8871723
vn 0.3078797 0.28723794 0.9070306
vn 0.3157102 0.27940744 0.9067848
vn 0.1982528 0.41252583 0.8891109
vn 0.1904223 0.43601733 0.87956136
vn 0.1747613 0.47516972 0.8623643
vn 0.1747613 0.47516972 0.8623643
vn -0.7100846 0.43601733 0.55287313
vn -0.7100846 0.43601733 0.55287313
vn -0.7100846 0.43601733 0.55287313
vn -0.7100846 0.43601733 0.55287313
vn 0.1434393 0.41252583 -0.8995819
vn 0.1434393 0.40469533 -0.9031317
vn 0.1434393 0.40469533 -0.9031317
vn 0.1434393 0.40469533 -0.9031317
vn 0.13560879 0.41252583 -0.9007956
vn 0.13560879 0.41252583 -0.9007956
vn 0.5114726 0.7883895 0.34181544
vn 0.5114726 0.7883895 0.34181544
vn 0.5114726 0.7883895 0.34181544
vn 0.5114726 0.7883895 0.34181544
vn 0.1434393 0.40469533 -0.9031317
vn 0.1434393 0.40469533 -0.9031317
vn 0.1825918 0.37337333 -0.9095343
vn 0.1747613 0.38120383 -0.9078227
vn 0.20608324 0.35771233 -0.9108082
vn 0.20608324 0.35771233 -0.9108082
vn 0.9734717 0.20110244 0.10913595
vn 0.9734717 0.20110244 0.10913595
vn 0.9734717 0.20110244 0.10913595
vn 0.9734717 0.20110244 0.10913595
vn 0.45665908 -0.13560879 0.8792455
vn 0.45665908 -0.13560879 0.8792455
vn 0.37052363 -0.057303846 0.9270537
vn 0.3392017 -0.041642904 0.9397915
vn 0.22174424 0.052323043 0.97370005
vn 0.22174424 0.052323043 0.97370005
vn 0.47232008 0.8510335 0.22946842
vn 0.47232008 0.8510335 0.22946842
vn 0.47232008 0.8510335 0.22946842
vn 0.47232008 0.8510335 0.22946842
vn 0.9734717 0.21676344 -0.07325612
vn 0.9734717 0.21676344 -0.07325612
vn 0.9734717 0.21676344 -0.07325612
vn 0.9734717 0.21676344 -0.07325612
vn 0.47232008 -0.1825918 0.86230737
vn 0.47232008 -0.1825918 0.86230737
vn 0.35486263 -0.08862585 0.9307083
vn 0.3078797 -0.057303846 0.94969803
vn 0.12777829 0.067984045 0.98947
vn 0.12777829 0.067984045 0.98947
vn 0.8002123 0.5997168 -0
vn 0.78553987 0.6161186 0.05766269
vn 0.92478055 0.38050097 -0
vn 0.92478055 0.38050097 -0
vn 0.45665908 0.874525 0.1633049
vn 0.45665908 0.874525 0.1633049
vn 0.8246923 0.49866122 0.26686993
vn 0.80903137 0.5221527 0.2698606
vn 0.94214976 0.30289882 0.14354846
vn 0.94214976 0.30289882 0.14354846
vn 0.48015058 0.7883895 0.38457435
vn 0.48015058 0.7883895 0.38457435
vn -0.99942863 -0.03379941 -0
vn -0.9998129 -0.010320902 -0.016359014
vn -0.99788475 -0.06500874 -0
vn -0.99788475 -0.06500874 -0
vn -0.9993283 0.036644273 -0
vn -0.9993283 0.036644273 -0
vn -0.9919824 -0.06513435 -0.108298026
vn -0.9841519 -0.06513435 -0.16493194
vn -0.5769662 -0.025981903 -0.81635463
vn -0.5613052 -0.018151402 -0.82740974
vn -0.22459394 0.028831542 -0.97402585
vn -0.24808544 0.028831542 -0.96830904
vn -0.060153544 0.01317054 -0.99810225
vn -0.09930605 0.028831542 -0.99463916
vn 0.1747613 -0.1904223 -0.96602166
vn 0.12777829 -0.13560879 -0.98248816
vn -0.036662042 0.10713655 -0.9935681
vn -0.036662042 0.10713655 -0.9935681
vn -0.036662042 0.10713655 -0.9935681
vn -0.036662042 0.10713655 -0.9935681
vn 0.13560879 -0.42533714 -0.89481765
vn 0.13560879 -0.42533714 -0.89481765
vn 0.13560879 -0.42533714 -0.89481765
vn 0.13560879 -0.42533714 -0.89481765
vn 0.28438818 -0.89516675 -0.3432198
vn 0.28438818 -0.89516675 -0.3432198
vn 0.28438818 -0.90299726 -0.3220548
vn 0.28438818 -0.90299726 -0.3220548
vn 0.36269313 -0.8481838 -0.38605428
vn 0.35486263 -0.8481838 -0.39326417
vn 0.41750664 -0.75421786 -0.5067975
vn 0.41750664 -0.76204836 -0.49494502
vn 0.3847407 -0.92302465 -0
vn 0.3847407 -0.92302465 -0
vn 0.3847407 -0.92302465 -0
vn 0.3847407 -0.92302465 -0
g Boss1Turret_09_0
f 3/3/3 2/2/2 1/1/1
f 6/6/6 5/5/5 4/4/4
f 9/9/9 8/8/8 7/7/7
f 7/7/7 10/10/10 9/9/9
f 10/10/10 11/11/11 9/9/9
f 14/14/14 13/13/13 12/12/12
f 17/17/17 16/16/16 15/15/15
f 18/18/18 17/17/17 15/15/15
f 17/17/17 18/18/18 9/9/9
f 11/11/11 17/17/17 9/9/9
f 21/21/21 20/20/20 19/19/19
f 15/15/15 16/16/16 19/19/19
f 20/20/20 15/15/15 19/19/19
f 24/24/24 23/23/23 22/22/22
f 7/7/7 8/8/8 25/25/25
f 26/26/26 7/7/7 25/25/25
f 21/21/21 19/19/19 4/4/4
f 27/27/27 21/21/21 4/4/4
f 4/4/4 19/19/19 16/16/16
f 6/6/6 4/4/4 16/16/16
f 6/6/6 16/16/16 17/17/17
f 28/28/28 6/6/6 17/17/17
f 28/28/28 17/17/17 11/11/11
f 2/2/2 28/28/28 11/11/11
f 2/2/2 11/11/11 10/10/10
f 1/1/1 2/2/2 10/10/10
f 1/1/1 12/12/12 13/13/13
f 3/3/3 1/1/1 13/13/13
f 13/13/13 30/30/30 29/29/29
f 3/3/3 13/13/13 29/29/29
f 30/30/30 23/23/23 5/5/5
f 29/29/29 30/30/30 5/5/5
f 23/23/23 24/24/24 4/4/4
f 5/5/5 23/23/23 4/4/4
f 4/4/4 24/24/24 31/31/31
f 27/27/27 4/4/4 31/31/31
f 14/14/14 12/12/12 32/32/32
f 35/35/35 34/34/34 33/33/33
f 14/14/14 35/35/35 33/33/33
f 34/34/34 36/36/36 22/22/22
f 33/33/33 34/34/34 22/22/22
f 22/22/22 36/36/36 37/37/37
f 24/24/24 22/22/22 37/37/37
f 24/24/24 37/37/37 38/38/38
f 31/31/31 24/24/24 38/38/38
f 40/40/40 39/39/39 37/37/37
f 36/36/36 40/40/40 37/37/37
f 41/41/41 40/40/40 36/36/36
f 34/34/34 41/41/41 36/36/36
f 39/39/39 38/38/38 37/37/37
f 35/35/35 42/42/42 41/41/41
f 34/34/34 35/35/35 41/41/41
f 32/32/32 42/42/42 35/35/35
f 45/45/45 44/44/44 43/43/43
f 46/46/46 45/45/45 43/43/43
f 49/49/49 48/48/48 47/47/47
f 50/50/50 49/49/49 47/47/47
f 53/53/53 52/52/52 51/51/51
f 54/54/54 53/53/53 51/51/51
f 52/52/52 49/49/49 50/50/50
f 51/51/51 52/52/52 50/50/50
f 48/48/48 45/45/45 46/46/46
f 47/47/47 48/48/48 46/46/46
f 57/57/57 56/56/56 55/55/55
f 58/58/58 57/57/57 55/55/55
f 61/61/61 60/60/60 59/59/59
f 62/62/62 61/61/61 59/59/59
f 60/60/60 64/64/64 63/63/63
f 59/59/59 60/60/60 63/63/63
f 67/67/67 66/66/66 65/65/65
f 68/68/68 67/67/67 65/65/65
f 71/71/71 70/70/70 69/69/69
f 72/72/72 71/71/71 69/69/69
f 73/73/73 71/71/71 72/72/72
f 74/74/74 73/73/73 72/72/72
f 77/77/77 76/76/76 75/75/75
f 78/78/78 77/77/77 75/75/75
f 81/81/81 80/80/80 79/79/79
f 82/82/82 81/81/81 79/79/79
f 83/83/83 81/81/81 82/82/82
f 84/84/84 83/83/83 82/82/82
f 87/87/87 86/86/86 85/85/85
f 88/88/88 87/87/87 85/85/85
f 91/91/91 90/90/90 89/89/89
f 92/92/92 91/91/91 89/89/89
f 95/95/95 94/94/94 93/93/93
f 96/96/96 95/95/95 93/93/93
f 97/97/97 95/95/95 96/96/96
f 98/98/98 97/97/97 96/96/96
f 101/101/101 100/100/100 99/99/99
f 102/102/102 101/101/101 99/99/99
f 100/100/100 104/104/104 103/103/103
f 99/99/99 100/100/100 103/103/103
f 107/107/107 106/106/106 105/105/105
f 108/108/108 107/107/107 105/105/105
f 106/106/106 110/110/110 109/109/109
f 105/105/105 106/106/106 109/109/109
f 113/113/113 112/112/112 111/111/111
f 114/114/114 113/113/113 111/111/111
f 112/112/112 116/116/116 115/115/115
f 111/111/111 112/112/112 115/115/115
f 117/117/117 113/113/113 114/114/114
f 118/118/118 117/117/117 114/114/114
f 121/121/121 120/120/120 119/119/119
f 122/122/122 121/121/121 119/119/119
f 123/123/123 121/121/121 122/122/122
f 124/124/124 123/123/123 122/122/122
f 120/120/120 117/117/117 118/118/118
f 119/119/119 120/120/120 118/118/118
f 125/125/125 123/123/123 124/124/124
f 126/126/126 125/125/125 124/124/124
f 129/129/129 128/128/128 127/127/127
f 130/130/130 129/129/129 127/127/127
f 133/133/133 132/132/132 131/131/131
f 134/134/134 133/133/133 131/131/131
f 137/137/137 136/136/136 135/135/135
f 138/138/138 137/137/137 135/135/135
f 136/136/136 140/140/140 139/139/139
f 135/135/135 136/136/136 139/139/139
f 140/140/140 142/142/142 141/141/141
f 139/139/139 140/140/140 141/141/141
f 142/142/142 125/125/125 126/126/126
f 141/141/141 142/142/142 126/126/126
f 14/14/14 32/32/32 35/35/35
f 145/145/145 144/144/144 143/143/143
f 146/146/146 145/145/145 143/143/143
