g Boss1Turret_07
v 0.2096557 0.00089648366 0.16151133
v 0.17388868 -0.088821426 0.16110179
v 0.12970322 -0.05532965 0.20977408
v 0.1517368 0.0005506277 0.20977408
v 0.13824908 0.04222423 0.20977408
v 0.18347207 0.07815507 0.16220301
v 0.091551736 0.07001874 0.20977408
v 0.10778795 0.12190369 0.16288558
v 4.529953E-06 0.082732886 0.20977408
v 4.529953E-06 0.1363652 0.16374108
v -0.107788 0.12190369 0.16288558
v -0.09186119 0.0706467 0.20977408
v -0.13891348 0.04270658 0.20977408
v -0.18353581 0.07815507 0.16220301
v -0.15240121 0.0005324185 0.20977408
v -0.20965576 0.00089648366 0.16151133
v -0.12963954 -0.05522044 0.20977408
v -0.17388871 -0.088821426 0.16110179
v -0.09173378 -0.14071546 0.16158414
v -0.07659879 -0.08888513 0.20977408
v 4.529953E-06 -0.09511022 0.20977408
v 4.529953E-06 -0.14725 0.16232133
v 0.076908186 -0.08974062 0.20977408
v 0.09173375 -0.14071546 0.16158414
v 0.18347207 0.07815507 0.16220301
v 0.24969111 0.15719745 -0.20976493
v 0.29821777 0.020381749 -0.20976493
v 0.2096557 0.00089648366 0.16151133
v 0.10778795 0.12190369 0.16288558
v 0.12573518 0.21401513 -0.20976493
v -0.107788 0.12190369 0.16288558
v -0.12573522 0.21401513 -0.20976493
v 4.529953E-06 0.22639251 -0.20976493
v 4.529953E-06 0.1363652 0.16374108
v -0.18353581 0.07815507 0.16220301
v -0.24969113 0.15719745 -0.20976493
v -0.20965576 0.00089648366 0.16151133
v -0.29821783 0.020381749 -0.20976493
v -0.09173378 -0.14071546 0.16158414
v -0.11175603 -0.22061335 -0.20976493
v -0.23162562 -0.13818537 -0.20976493
v -0.17388871 -0.088821426 0.16110179
v 4.529953E-06 -0.14725 0.16232133
v 4.529953E-06 -0.2263925 -0.20976493
v 4.529953E-06 -0.2263925 -0.20976493
v 4.529953E-06 -0.14725 0.16232133
v 0.09173375 -0.14071546 0.16158414
v 0.111756 -0.22061335 -0.20976493
v 0.17388868 -0.088821426 0.16110179
v 0.23162559 -0.13818537 -0.20976493
v 4.529953E-06 -0.006657392 0.20977408
vt 0.92973745 0.8092798
vt 0.9304432 0.8109267
vt 0.9316196 0.81022084
vt 0.93114907 0.8092798
vt 0.9313843 0.80857396
vt 0.93020797 0.8076329
vt 0.93232536 0.8078682
vt 0.93185484 0.8066918
vt 0.9339723 0.8076329
vt 0.9339723 0.80645657
vt 0.9360897 0.8066918
vt 0.9356192 0.8078682
vt 0.93632495 0.80857396
vt 0.9375013 0.8076329
vt 0.9365603 0.8092798
vt 0.93797183 0.8092798
vt 0.93632495 0.81022084
vt 0.93726605 0.8109267
vt 0.9356192 0.81210303
vt 0.9353839 0.8109267
vt 0.9339723 0.8109267
vt 0.9339723 0.8123383
vt 0.9325607 0.8109267
vt 0.93209016 0.81210303
vt 0.9880841 0.7629318
vt 0.9944364 0.76340234
vt 0.9944364 0.7610497
vt 0.9880841 0.7608144
vt 0.9880841 0.7650492
vt 0.9944364 0.76575506
vt 0.9880841 0.7706957
vt 0.9944364 0.7699899
vt 0.9944364 0.76787245
vt 0.9880841 0.76787245
vt 0.9880841 0.77281314
vt 0.9944364 0.77234256
vt 0.9880841 0.77493054
vt 0.9944364 0.7746953
vt 0.9880841 0.7796359
vt 0.9944364 0.7801064
vt 0.9944364 0.7777538
vt 0.9880841 0.77728325
vt 0.9880841 0.7819886
vt 0.9944364 0.7819886
vt 0.9944364 0.75375634
vt 0.9880841 0.75375634
vt 0.9880841 0.75610906
vt 0.9944364 0.7556385
vt 0.9880841 0.7584617
vt 0.9944364 0.7579912
vt 0.9339723 0.8092798
vn 0.96224546 -0.067353666 0.26371798
vn 0.75573194 -0.602759 0.25602898
vn 0.3580023 -0.30446178 0.88268757
vn 0.4574347 -0.03675908 0.8884831
vn 0.3580023 0.29978144 0.8842881
vn 0.72513735 0.6210246 0.29749665
vn 0.14384013 0.45275438 0.87995654
vn 0.2738672 0.9116732 0.30634737
vn -0.0014841557 0.46040297 0.8877088
vn -0.0014841557 0.9499165 0.3125004
vn -0.26918685 0.9116732 0.31046808
vn -0.1468085 0.45275438 0.8794662
vn -0.36097062 0.29978144 0.88308054
vn -0.72810566 0.6210246 0.2901562
vn -0.45275438 -0.03675908 0.89087725
vn -0.95756507 -0.067353666 0.28023675
vn -0.3533219 -0.30446178 0.88457143
vn -0.75870025 -0.602759 0.24709414
vn -0.32272732 -0.9010563 0.28973198
vn -0.15445709 -0.4574347 0.8757263
vn -0.0014841557 -0.472732 0.881205
vn -0.0014841557 -0.96224546 0.27217913
vn 0.15148878 -0.46508336 0.8722091
vn 0.32740772 -0.90870494 0.25895852
vn 0.72513735 0.6210246 0.29749665
vn 0.72513735 0.6439706 0.24388042
vn 0.9698941 -0.044407725 0.2394439
vn 0.96224546 -0.067353666 0.26371798
vn 0.2738672 0.9116732 0.30634737
vn 0.2738672 0.9269705 0.25636393
vn -0.26918685 0.9116732 0.31046808
vn -0.26918685 0.9269705 0.26127416
vn -0.0014841557 0.97286236 0.23137976
vn -0.0014841557 0.9499165 0.3125004
vn -0.72810566 0.6210246 0.2901562
vn -0.7204571 0.6439706 0.257378
vn -0.95756507 -0.067353666 0.28023675
vn -0.97286236 -0.044407725 0.22708315
vn -0.32272732 -0.9010563 0.28973198
vn -0.33037603 -0.9163536 0.22615871
vn -0.76634896 -0.6104077 0.2002791
vn -0.75870025 -0.602759 0.24709414
vn -0.0014841557 -0.96224546 0.27217913
vn -0.0014841557 -0.97754276 0.21073197
vn -0.0014841557 -0.97754276 0.21073197
vn -0.0014841557 -0.96224546 0.27217913
vn 0.32740772 -0.90870494 0.25895852
vn 0.32740772 -0.9163536 0.230435
vn 0.75573194 -0.602759 0.25602898
vn 0.76338065 -0.6104077 0.21131115
vn -0.0014841557 0.0014841557 0.9999978
g Boss1Turret_07_0
f 3/3/3 2/2/2 1/1/1
f 4/4/4 3/3/3 1/1/1
f 6/6/6 5/5/5 4/4/4
f 1/1/1 6/6/6 4/4/4
f 8/8/8 7/7/7 5/5/5
f 6/6/6 8/8/8 5/5/5
f 10/10/10 9/9/9 7/7/7
f 8/8/8 10/10/10 7/7/7
f 9/9/9 10/10/10 11/11/11
f 12/12/12 9/9/9 11/11/11
f 14/14/14 13/13/13 12/12/12
f 11/11/11 14/14/14 12/12/12
f 16/16/16 15/15/15 13/13/13
f 14/14/14 16/16/16 13/13/13
f 18/18/18 17/17/17 15/15/15
f 16/16/16 18/18/18 15/15/15
f 17/17/17 18/18/18 19/19/19
f 20/20/20 17/17/17 19/19/19
f 22/22/22 21/21/21 20/20/20
f 19/19/19 22/22/22 20/20/20
f 24/24/24 23/23/23 21/21/21
f 22/22/22 24/24/24 21/21/21
f 2/2/2 3/3/3 23/23/23
f 24/24/24 2/2/2 23/23/23
f 27/27/27 26/26/26 25/25/25
f 28/28/28 27/27/27 25/25/25
f 26/26/26 30/30/30 29/29/29
f 25/25/25 26/26/26 29/29/29
f 33/33/33 32/32/32 31/31/31
f 34/34/34 33/33/33 31/31/31
f 32/32/32 36/36/36 35/35/35
f 31/31/31 32/32/32 35/35/35
f 36/36/36 38/38/38 37/37/37
f 35/35/35 36/36/36 37/37/37
f 41/41/41 40/40/40 39/39/39
f 42/42/42 41/41/41 39/39/39
f 43/43/43 39/39/39 40/40/40
f 44/44/44 43/43/43 40/40/40
f 47/47/47 46/46/46 45/45/45
f 48/48/48 47/47/47 45/45/45
f 48/48/48 50/50/50 49/49/49
f 47/47/47 48/48/48 49/49/49
f 50/50/50 27/27/27 28/28/28
f 49/49/49 50/50/50 28/28/28
f 38/38/38 41/41/41 42/42/42
f 37/37/37 38/38/38 42/42/42
f 30/30/30 33/33/33 34/34/34
f 29/29/29 30/30/30 34/34/34
f 5/5/5 51/51/51 4/4/4
f 7/7/7 51/51/51 5/5/5
f 12/12/12 51/51/51 9/9/9
f 13/13/13 51/51/51 12/12/12
f 15/15/15 51/51/51 13/13/13
f 20/20/20 51/51/51 17/17/17
f 21/21/21 51/51/51 20/20/20
f 23/23/23 51/51/51 21/21/21
f 3/3/3 51/51/51 23/23/23
f 4/4/4 51/51/51 3/3/3
f 17/17/17 51/51/51 15/15/15
f 9/9/9 51/51/51 7/7/7
