g BulldoserShassi_03_CorpsePart
v 0.68803865 -1.4522444 0.60002196
v 0.68803865 -1.4522444 0.4652704
v 0.55328715 -1.4522444 0.4652704
v 0.55328715 -1.4522444 0.60002196
v 0.68803865 -1.317493 0.60002196
v 0.68803865 -1.317493 0.4652704
v 0.68803865 -1.4522444 0.4652704
v 0.68803865 -1.4522444 0.60002196
v 0.55328715 -1.317493 0.60002196
v 0.55328715 -1.317493 0.4652704
v 0.68803865 -1.317493 0.4652704
v 0.68803865 -1.317493 0.60002196
v 0.55328715 -1.4522444 0.60002196
v 0.55328715 -1.4522444 0.4652704
v 0.55328715 -1.317493 0.4652704
v 0.55328715 -1.317493 0.60002196
v 0.55328715 -1.4522444 0.4652704
v 0.68803865 -1.4522444 0.4652704
v 0.68803865 -1.317493 0.4652704
v 0.55328715 -1.317493 0.4652704
v 0.55328715 -1.4522444 0.60002196
v 0.55328715 -1.317493 0.60002196
v 0.68803865 -1.317493 0.60002196
v 0.68803865 -1.4522444 0.60002196
v 0.05148816 -1.4425782 0.13412607
v 0.09069002 -1.5659758 -0.2730055
v 0.088887215 -1.6640571 -0.27170134
v 0.049915552 -1.4932874 0.1328218
v -0.088902 -1.6640571 -0.27170134
v 0.088887215 -1.6640571 -0.27170134
v 0.09069002 -1.5659758 -0.2730055
v -0.0907048 -1.5659758 -0.2730055
v -0.051464558 -1.4425782 0.13412607
v 0.05148816 -1.4425782 0.13412607
v 0.049915552 -1.4932874 0.1328218
v -0.049930334 -1.4932874 0.1328218
v -0.049930334 -1.4932874 0.1328218
v 0.049915552 -1.4932874 0.1328218
v 0.088887215 -1.6640571 -0.27170134
v -0.088902 -1.6640571 -0.27170134
v -0.051464558 -1.4425782 0.13412607
v -0.049930334 -1.4932874 0.1328218
v -0.088902 -1.6640571 -0.27170134
v -0.0907048 -1.5659758 -0.2730055
v 0.8497175 -1.2522076 -0.12409985
v 0.7587324 -1.2522076 -0.12409985
v 0.7587324 -1.4686233 -0.12421489
v 0.8497175 -1.4686233 -0.12421489
v 0.8497175 -1.2522076 0.109270096
v 0.8497175 -1.4171853 0.10938513
v 0.7587324 -1.4171853 0.10938513
v 0.7587324 -1.2522076 0.109270096
v 0.8497175 -1.4171853 0.10938513
v 0.8497175 -1.4686233 -0.12421489
v 0.7587324 -1.4686233 -0.12421489
v 0.7587324 -1.4171853 0.10938513
v 0.7587324 -1.2522076 0.109270096
v 0.7587324 -1.2522076 -0.12409985
v 0.8497175 -1.2522076 -0.12409985
v 0.8497175 -1.2522076 0.109270096
v 0.8497175 -1.4686233 -0.12421489
v 0.8497175 -1.4171853 0.10938513
v 0.8497175 -1.2522076 0.109270096
v 0.8497175 -1.2522076 -0.12409985
v 0.7587324 -1.2522076 -0.12409985
v 0.7587324 -1.2522076 0.109270096
v 0.7587324 -1.4171853 0.10938513
v 0.7587324 -1.4686233 -0.12421489
v 0.674038 -1.4425782 0.13412607
v 0.7132782 -1.5659758 -0.2730055
v 0.7114754 -1.6640571 -0.27170134
v 0.67250365 -1.4932874 0.1328218
v 0.53368616 -1.6640571 -0.27170134
v 0.7114754 -1.6640571 -0.27170134
v 0.7132782 -1.5659758 -0.2730055
v 0.53188336 -1.5659758 -0.2730055
v 0.5711236 -1.4425782 0.13412607
v 0.674038 -1.4425782 0.13412607
v 0.67250365 -1.4932874 0.1328218
v 0.57265794 -1.4932874 0.1328218
v 0.57265794 -1.4932874 0.1328218
v 0.67250365 -1.4932874 0.1328218
v 0.7114754 -1.6640571 -0.27170134
v 0.53368616 -1.6640571 -0.27170134
v 0.5711236 -1.4425782 0.13412607
v 0.57265794 -1.4932874 0.1328218
v 0.53368616 -1.6640571 -0.27170134
v 0.53188336 -1.5659758 -0.2730055
v -0.5686451 -1.4425782 0.13412607
v -0.52940476 -1.5659758 -0.2730055
v -0.5312077 -1.6640571 -0.27170134
v -0.57017934 -1.4932874 0.1328218
v -0.7090353 -1.6640571 -0.27170134
v -0.5312077 -1.6640571 -0.27170134
v -0.52940476 -1.5659758 -0.2730055
v -0.71083796 -1.5659758 -0.2730055
v -0.67159784 -1.4425782 0.13412607
v -0.5686451 -1.4425782 0.13412607
v -0.57017934 -1.4932874 0.1328218
v -0.6700636 -1.4932874 0.1328218
v -0.6700636 -1.4932874 0.1328218
v -0.57017934 -1.4932874 0.1328218
v -0.5312077 -1.6640571 -0.27170134
v -0.7090353 -1.6640571 -0.27170134
v -0.67159784 -1.4425782 0.13412607
v -0.6700636 -1.4932874 0.1328218
v -0.7090353 -1.6640571 -0.27170134
v -0.71083796 -1.5659758 -0.2730055
v 0.06736839 -1.4522444 0.60002196
v 0.06736839 -1.4522444 0.4652704
v -0.06738317 -1.4522444 0.4652704
v -0.06738317 -1.4522444 0.60002196
v 0.06736839 -1.317493 0.60002196
v 0.06736839 -1.317493 0.4652704
v 0.06736839 -1.4522444 0.4652704
v 0.06736839 -1.4522444 0.60002196
v -0.06738317 -1.317493 0.60002196
v -0.06738317 -1.317493 0.4652704
v 0.06736839 -1.317493 0.4652704
v 0.06736839 -1.317493 0.60002196
v -0.06738317 -1.4522444 0.60002196
v -0.06738317 -1.4522444 0.4652704
v -0.06738317 -1.317493 0.4652704
v -0.06738317 -1.317493 0.60002196
v -0.06738317 -1.4522444 0.4652704
v 0.06736839 -1.4522444 0.4652704
v 0.06736839 -1.317493 0.4652704
v -0.06738317 -1.317493 0.4652704
v -0.06738317 -1.4522444 0.60002196
v -0.06738317 -1.317493 0.60002196
v 0.06736839 -1.317493 0.60002196
v 0.06736839 -1.4522444 0.60002196
v -0.5536088 -1.4522444 0.60002196
v -0.5536088 -1.4522444 0.4652704
v -0.68836033 -1.4522444 0.4652704
v -0.68836033 -1.4522444 0.60002196
v -0.5536088 -1.317493 0.60002196
v -0.5536088 -1.317493 0.4652704
v -0.5536088 -1.4522444 0.4652704
v -0.5536088 -1.4522444 0.60002196
v -0.68836033 -1.317493 0.60002196
v -0.68836033 -1.317493 0.4652704
v -0.5536088 -1.317493 0.4652704
v -0.5536088 -1.317493 0.60002196
v -0.68836033 -1.4522444 0.60002196
v -0.68836033 -1.4522444 0.4652704
v -0.68836033 -1.317493 0.4652704
v -0.68836033 -1.317493 0.60002196
v -0.68836033 -1.4522444 0.4652704
v -0.5536088 -1.4522444 0.4652704
v -0.5536088 -1.317493 0.4652704
v -0.68836033 -1.317493 0.4652704
v -0.68836033 -1.4522444 0.60002196
v -0.68836033 -1.317493 0.60002196
v -0.5536088 -1.317493 0.60002196
v -0.5536088 -1.4522444 0.60002196
v -0.8497323 -1.2522076 -0.12409985
v -0.8497323 -1.4686233 -0.12421489
v -0.7587472 -1.4686233 -0.12421489
v -0.7587472 -1.2522076 -0.12409985
v -0.8497323 -1.2522076 0.109270096
v -0.7587472 -1.2522076 0.109270096
v -0.7587472 -1.4171853 0.10938513
v -0.8497323 -1.4171853 0.10938513
v -0.8497323 -1.4171853 0.10938513
v -0.7587472 -1.4171853 0.10938513
v -0.7587472 -1.4686233 -0.12421489
v -0.8497323 -1.4686233 -0.12421489
v -0.7587472 -1.2522076 0.109270096
v -0.8497323 -1.2522076 0.109270096
v -0.8497323 -1.2522076 -0.12409985
v -0.7587472 -1.2522076 -0.12409985
v -0.8497323 -1.4686233 -0.12421489
v -0.8497323 -1.2522076 -0.12409985
v -0.8497323 -1.2522076 0.109270096
v -0.8497323 -1.4171853 0.10938513
v -0.7587472 -1.2522076 -0.12409985
v -0.7587472 -1.4686233 -0.12421489
v -0.7587472 -1.4171853 0.10938513
v -0.7587472 -1.2522076 0.109270096
v 0.79820275 -1.4275802 0.559209
v -0.7982174 -1.4275802 0.559209
v -0.7982174 -1.3425024 0.559209
v 0.79820275 -1.3425024 0.559209
v 0.79812604 -1.5765243 -0.28075373
v -0.7981409 -1.5765243 -0.28075373
v -0.7982174 -1.4275802 0.559209
v 0.79820275 -1.4275802 0.559209
v -0.7982174 -1.3425024 0.559209
v -0.7981409 -1.3426174 -0.28037024
v 0.79812604 -1.3426174 -0.28037024
v 0.79820275 -1.3425024 0.559209
v -0.7981409 -1.3426174 -0.28037024
v -0.7981409 -1.5765243 -0.28075373
v 0.79812604 -1.5765243 -0.28075373
v 0.79812604 -1.3426174 -0.28037024
v 0.79812604 -1.5765243 -0.28075373
v 0.79820275 -1.4275802 0.559209
v 0.79820275 -1.3425024 0.559209
v 0.79812604 -1.3426174 -0.28037024
v -0.7982174 -1.3425024 0.559209
v -0.7982174 -1.4275802 0.559209
v -0.7981409 -1.5765243 -0.28075373
v -0.7981409 -1.3426174 -0.28037024
vt 0.32194835 0.98980486
vt 0.32194835 0.9864113
vt 0.3185548 0.9864113
vt 0.31787607 0.9904836
vt 0.32194835 0.9938772
vt 0.32602066 0.9938772
vt 0.32602066 0.9904836
vt 0.32194835 0.98980486
vt 0.31787607 0.9938772
vt 0.3185548 0.99727076
vt 0.32194835 0.99727076
vt 0.32194835 0.9938772
vt 0.31787607 0.9904836
vt 0.31448248 0.9904836
vt 0.31448248 0.9938772
vt 0.31787607 0.9938772
vt 0.3185548 0.9993069
vt 0.32194835 0.9993069
vt 0.32194835 0.99727076
vt 0.3185548 0.99727076
vt 0.31787607 0.9904836
vt 0.31787607 0.9938772
vt 0.32194835 0.9938772
vt 0.32194835 0.98980486
vt 0.3321291 0.99659204
vt 0.34366727 0.9986282
vt 0.344346 0.99659204
vt 0.3328078 0.9952346
vt 0.344346 0.991841
vt 0.344346 0.99659204
vt 0.34706086 0.9959133
vt 0.34706086 0.991841
vt 0.33145037 0.99319845
vt 0.33145037 0.9952346
vt 0.3328078 0.9952346
vt 0.3328078 0.99251974
vt 0.3328078 0.99251974
vt 0.3328078 0.9952346
vt 0.344346 0.99659204
vt 0.344346 0.991841
vt 0.3321291 0.9911623
vt 0.3328078 0.99251974
vt 0.344346 0.991841
vt 0.34366727 0.98912615
vt 0.37149462 0.92057586
vt 0.37149462 0.917861
vt 0.3653862 0.917861
vt 0.3653862 0.92057586
vt 0.37149462 0.92668426
vt 0.36674362 0.92668426
vt 0.36674362 0.9287204
vt 0.37149462 0.92939913
vt 0.36674362 0.92668426
vt 0.3653862 0.92057586
vt 0.36267132 0.92057586
vt 0.36402875 0.92668426
vt 0.3742095 0.92668426
vt 0.3742095 0.92057586
vt 0.37149462 0.92057586
vt 0.37149462 0.92668426
vt 0.3653862 0.92057586
vt 0.36674362 0.92668426
vt 0.37149462 0.92668426
vt 0.37149462 0.92057586
vt 0.37149462 0.9355076
vt 0.37149462 0.92939913
vt 0.36674362 0.9287204
vt 0.3653862 0.9355076
vt 0.3321291 0.99659204
vt 0.34366727 0.9986282
vt 0.344346 0.99659204
vt 0.3328078 0.9952346
vt 0.344346 0.991841
vt 0.344346 0.99659204
vt 0.34706086 0.9959133
vt 0.34706086 0.991841
vt 0.33145037 0.99319845
vt 0.33145037 0.9952346
vt 0.3328078 0.9952346
vt 0.3328078 0.99251974
vt 0.3328078 0.99251974
vt 0.3328078 0.9952346
vt 0.344346 0.99659204
vt 0.344346 0.991841
vt 0.3321291 0.9911623
vt 0.3328078 0.99251974
vt 0.344346 0.991841
vt 0.34366727 0.98912615
vt 0.3321291 0.99659204
vt 0.34366727 0.9986282
vt 0.344346 0.99659204
vt 0.3328078 0.9952346
vt 0.344346 0.991841
vt 0.344346 0.99659204
vt 0.34706086 0.9959133
vt 0.34706086 0.991841
vt 0.33145037 0.99319845
vt 0.33145037 0.9952346
vt 0.3328078 0.9952346
vt 0.3328078 0.99251974
vt 0.3328078 0.99251974
vt 0.3328078 0.9952346
vt 0.344346 0.99659204
vt 0.344346 0.991841
vt 0.3321291 0.9911623
vt 0.3328078 0.99251974
vt 0.344346 0.991841
vt 0.34366727 0.98912615
vt 0.32194835 0.9904836
vt 0.32194835 0.9864113
vt 0.3185548 0.9864113
vt 0.31787607 0.9904836
vt 0.32194835 0.9938772
vt 0.32602066 0.9938772
vt 0.32602066 0.9904836
vt 0.32194835 0.9904836
vt 0.31787607 0.9938772
vt 0.3185548 0.99727076
vt 0.32194835 0.99727076
vt 0.32194835 0.9938772
vt 0.31787607 0.9904836
vt 0.31448248 0.9904836
vt 0.31448248 0.9938772
vt 0.31787607 0.9938772
vt 0.3185548 0.9993069
vt 0.32194835 0.9993069
vt 0.32194835 0.99727076
vt 0.3185548 0.99727076
vt 0.31787607 0.9904836
vt 0.31787607 0.9938772
vt 0.32194835 0.9938772
vt 0.32194835 0.9904836
vt 0.32194835 0.9904836
vt 0.32194835 0.9864113
vt 0.3185548 0.9864113
vt 0.31787607 0.9904836
vt 0.32194835 0.9938772
vt 0.32602066 0.9938772
vt 0.32602066 0.9904836
vt 0.32194835 0.9904836
vt 0.31787607 0.9938772
vt 0.3185548 0.99727076
vt 0.32194835 0.99727076
vt 0.32194835 0.9938772
vt 0.31787607 0.9904836
vt 0.31448248 0.9904836
vt 0.31448248 0.9938772
vt 0.31787607 0.9938772
vt 0.3185548 0.9993069
vt 0.32194835 0.9993069
vt 0.32194835 0.99727076
vt 0.3185548 0.99727076
vt 0.31787607 0.9904836
vt 0.31787607 0.9938772
vt 0.32194835 0.9938772
vt 0.32194835 0.9904836
vt 0.37149462 0.92057586
vt 0.3653862 0.92057586
vt 0.3653862 0.917861
vt 0.37149462 0.917861
vt 0.37149462 0.92668426
vt 0.37149462 0.92939913
vt 0.36674362 0.9287204
vt 0.36674362 0.92668426
vt 0.36674362 0.92668426
vt 0.36402875 0.92668426
vt 0.36267132 0.92057586
vt 0.3653862 0.92057586
vt 0.3742095 0.92668426
vt 0.37149462 0.92668426
vt 0.37149462 0.92057586
vt 0.3742095 0.92057586
vt 0.3653862 0.92057586
vt 0.37149462 0.92057586
vt 0.37149462 0.92668426
vt 0.36674362 0.92668426
vt 0.37149462 0.9355076
vt 0.3653862 0.9355076
vt 0.36674362 0.9287204
vt 0.37149462 0.92939913
vt 0.34706086 0.963335
vt 0.30498046 0.963335
vt 0.30498046 0.9660498
vt 0.34706086 0.9660498
vt 0.34706086 0.93754375
vt 0.30498046 0.93754375
vt 0.30498046 0.963335
vt 0.34706086 0.963335
vt 0.30498046 0.9660498
vt 0.30498046 0.977588
vt 0.34706086 0.977588
vt 0.34706086 0.9660498
vt 0.30498046 0.9348289
vt 0.30498046 0.93754375
vt 0.34706086 0.93754375
vt 0.34706086 0.9348289
vt 0.31380376 0.98301774
vt 0.33959496 0.982339
vt 0.33959496 0.9803029
vt 0.31380376 0.9803029
vt 0.33959496 0.9803029
vt 0.33959496 0.982339
vt 0.31380376 0.98301774
vt 0.31380376 0.9803029
vn -0.003921509 -0.9999924 -0
vn -0.003921509 -0.9999924 -0
vn -0.003921509 -0.9999924 -0
vn -0.003921509 -0.9999924 -0
vn 0.9999924 0.003921509 -0
vn 0.9999924 0.003921509 -0
vn 0.9999924 0.003921509 -0
vn 0.9999924 0.003921509 -0
vn -0.003921509 0.99999225 -0.00034526698
vn -0.003921509 0.99999225 -0.00034526698
vn -0.003921509 0.99999225 -0.00034526698
vn -0.003921509 0.99999225 -0.00034526698
vn -0.99999225 0.003921509 -0.00034492963
vn -0.99999225 0.003921509 -0.00034492963
vn -0.99999225 0.003921509 -0.00034492963
vn -0.99999225 0.003921509 -0.00034492963
vn -0.003921509 0.003921509 -0.9999846
vn -0.003921509 0.003921509 -0.9999846
vn -0.003921509 0.003921509 -0.9999846
vn -0.003921509 0.003921509 -0.9999846
vn -0.003921509 0.003921509 0.9999846
vn -0.003921509 0.003921509 0.9999846
vn -0.003921509 0.003921509 0.9999846
vn -0.003921509 0.003921509 0.9999846
vn 0.9921493 -0.019607723 0.123512425
vn 0.9921493 -0.019607723 0.123512425
vn 0.9921493 -0.019607723 0.123512425
vn 0.9921493 -0.019607723 0.123512425
vn -0.003921509 -0.011764646 -0.9999231
vn -0.003921509 -0.011764646 -0.9999231
vn -0.003921509 -0.011764646 -0.9999231
vn -0.003921509 -0.011764646 -0.9999231
vn -0.003921509 -0.0274508 0.9996155
vn -0.003921509 -0.0274508 0.9996155
vn -0.003921509 -0.0274508 0.9996155
vn -0.003921509 -0.0274508 0.9996155
vn -0.003921509 -0.9215616 0.38821238
vn -0.003921509 -0.9215616 0.38821238
vn -0.003921509 -0.9215616 0.38821238
vn -0.003921509 -0.9215616 0.38821238
vn -0.99214923 -0.019607723 0.12351291
vn -0.99214923 -0.019607723 0.12351291
vn -0.99214923 -0.019607723 0.12351291
vn -0.99214923 -0.019607723 0.12351291
vn -0.003921509 0.003921509 -0.9999846
vn -0.003921509 0.003921509 -0.9999846
vn -0.003921509 0.003921509 -0.9999846
vn -0.003921509 0.003921509 -0.9999846
vn -0.003921509 0.003921509 0.9999846
vn -0.003921509 0.003921509 0.9999846
vn -0.003921509 0.003921509 0.9999846
vn -0.003921509 0.003921509 0.9999846
vn -0.003921509 -0.97646314 0.21564874
vn -0.003921509 -0.97646314 0.21564874
vn -0.003921509 -0.97646314 0.21564874
vn -0.003921509 -0.97646314 0.21564874
vn -0.003921509 0.99999225 -0.00034526698
vn -0.003921509 0.99999225 -0.00034526698
vn -0.003921509 0.99999225 -0.00034526698
vn -0.003921509 0.99999225 -0.00034526698
vn 0.9999924 0.003921509 -0
vn 0.9999924 0.003921509 -0
vn 0.9999924 0.003921509 -0
vn 0.9999924 0.003921509 -0
vn -0.99999225 0.003921509 -0.00034492963
vn -0.99999225 0.003921509 -0.00034492963
vn -0.99999225 0.003921509 -0.00034492963
vn -0.99999225 0.003921509 -0.00034492963
vn 0.9921493 -0.019607723 0.123512425
vn 0.9921493 -0.019607723 0.123512425
vn 0.9921493 -0.019607723 0.123512425
vn 0.9921493 -0.019607723 0.123512425
vn -0.003921509 -0.011764646 -0.9999231
vn -0.003921509 -0.011764646 -0.9999231
vn -0.003921509 -0.011764646 -0.9999231
vn -0.003921509 -0.011764646 -0.9999231
vn -0.003921509 -0.0274508 0.9996155
vn -0.003921509 -0.0274508 0.9996155
vn -0.003921509 -0.0274508 0.9996155
vn -0.003921509 -0.0274508 0.9996155
vn -0.003921509 -0.9215616 0.38821238
vn -0.003921509 -0.9215616 0.38821238
vn -0.003921509 -0.9215616 0.38821238
vn -0.003921509 -0.9215616 0.38821238
vn -0.99214923 -0.019607723 0.12351291
vn -0.99214923 -0.019607723 0.12351291
vn -0.99214923 -0.019607723 0.12351291
vn -0.99214923 -0.019607723 0.12351291
vn 0.9921493 -0.019607723 0.123512425
vn 0.9921493 -0.019607723 0.123512425
vn 0.9921493 -0.019607723 0.123512425
vn 0.9921493 -0.019607723 0.123512425
vn -0.003921509 -0.011764646 -0.9999231
vn -0.003921509 -0.011764646 -0.9999231
vn -0.003921509 -0.011764646 -0.9999231
vn -0.003921509 -0.011764646 -0.9999231
vn -0.003921509 -0.0274508 0.9996155
vn -0.003921509 -0.0274508 0.9996155
vn -0.003921509 -0.0274508 0.9996155
vn -0.003921509 -0.0274508 0.9996155
vn -0.003921509 -0.9215616 0.38821238
vn -0.003921509 -0.9215616 0.38821238
vn -0.003921509 -0.9215616 0.38821238
vn -0.003921509 -0.9215616 0.38821238
vn -0.99214923 -0.019607723 0.12351291
vn -0.99214923 -0.019607723 0.12351291
vn -0.99214923 -0.019607723 0.12351291
vn -0.99214923 -0.019607723 0.12351291
vn -0.003921509 -0.9999924 -0
vn -0.003921509 -0.9999924 -0
vn -0.003921509 -0.9999924 -0
vn -0.003921509 -0.9999924 -0
vn 0.9999924 0.003921509 -0
vn 0.9999924 0.003921509 -0
vn 0.9999924 0.003921509 -0
vn 0.9999924 0.003921509 -0
vn -0.003921509 0.99999225 -0.00034526698
vn -0.003921509 0.99999225 -0.00034526698
vn -0.003921509 0.99999225 -0.00034526698
vn -0.003921509 0.99999225 -0.00034526698
vn -0.99999225 0.003921509 -0.00034492963
vn -0.99999225 0.003921509 -0.00034492963
vn -0.99999225 0.003921509 -0.00034492963
vn -0.99999225 0.003921509 -0.00034492963
vn -0.003921509 0.003921509 -0.9999846
vn -0.003921509 0.003921509 -0.9999846
vn -0.003921509 0.003921509 -0.9999846
vn -0.003921509 0.003921509 -0.9999846
vn -0.003921509 0.003921509 0.9999846
vn -0.003921509 0.003921509 0.9999846
vn -0.003921509 0.003921509 0.9999846
vn -0.003921509 0.003921509 0.9999846
vn -0.003921509 -0.9999924 -0
vn -0.003921509 -0.9999924 -0
vn -0.003921509 -0.9999924 -0
vn -0.003921509 -0.9999924 -0
vn 0.9999924 0.003921509 -0
vn 0.9999924 0.003921509 -0
vn 0.9999924 0.003921509 -0
vn 0.9999924 0.003921509 -0
vn -0.003921509 0.99999225 -0.00034526698
vn -0.003921509 0.99999225 -0.00034526698
vn -0.003921509 0.99999225 -0.00034526698
vn -0.003921509 0.99999225 -0.00034526698
vn -0.99999225 0.003921509 -0.00034492963
vn -0.99999225 0.003921509 -0.00034492963
vn -0.99999225 0.003921509 -0.00034492963
vn -0.99999225 0.003921509 -0.00034492963
vn -0.003921509 0.003921509 -0.9999846
vn -0.003921509 0.003921509 -0.9999846
vn -0.003921509 0.003921509 -0.9999846
vn -0.003921509 0.003921509 -0.9999846
vn -0.003921509 0.003921509 0.9999846
vn -0.003921509 0.003921509 0.9999846
vn -0.003921509 0.003921509 0.9999846
vn -0.003921509 0.003921509 0.9999846
vn -0.003921509 0.003921509 -0.9999846
vn -0.003921509 0.003921509 -0.9999846
vn -0.003921509 0.003921509 -0.9999846
vn -0.003921509 0.003921509 -0.9999846
vn -0.003921509 0.003921509 0.9999846
vn -0.003921509 0.003921509 0.9999846
vn -0.003921509 0.003921509 0.9999846
vn -0.003921509 0.003921509 0.9999846
vn -0.003921509 -0.97646314 0.21564874
vn -0.003921509 -0.97646314 0.21564874
vn -0.003921509 -0.97646314 0.21564874
vn -0.003921509 -0.97646314 0.21564874
vn -0.003921509 0.99999225 -0.00034526698
vn -0.003921509 0.99999225 -0.00034526698
vn -0.003921509 0.99999225 -0.00034526698
vn -0.003921509 0.99999225 -0.00034526698
vn -0.99999225 0.003921509 -0.00034492963
vn -0.99999225 0.003921509 -0.00034492963
vn -0.99999225 0.003921509 -0.00034492963
vn -0.99999225 0.003921509 -0.00034492963
vn 0.9999924 0.003921509 -0
vn 0.9999924 0.003921509 -0
vn 0.9999924 0.003921509 -0
vn 0.9999924 0.003921509 -0
vn -0.003921509 0.003921509 0.9999846
vn -0.003921509 0.003921509 0.9999846
vn -0.003921509 0.003921509 0.9999846
vn -0.003921509 0.003921509 0.9999846
vn -0.003921509 -0.9843062 0.17642535
vn -0.003921509 -0.9843062 0.17642535
vn -0.003921509 -0.9843062 0.17642535
vn -0.003921509 -0.9843062 0.17642535
vn -0.003921509 0.99999225 -0.00034526698
vn -0.003921509 0.99999225 -0.00034526698
vn -0.003921509 0.99999225 -0.00034526698
vn -0.003921509 0.99999225 -0.00034526698
vn -0.003921509 0.003921509 -0.9999846
vn -0.003921509 0.003921509 -0.9999846
vn -0.003921509 0.003921509 -0.9999846
vn -0.003921509 0.003921509 -0.9999846
vn 0.9999924 0.003921509 -0
vn 0.9999924 0.003921509 -0
vn 0.9999924 0.003921509 -0
vn 0.9999924 0.003921509 -0
vn -0.99999225 0.003921509 -0.00034492963
vn -0.99999225 0.003921509 -0.00034492963
vn -0.99999225 0.003921509 -0.00034492963
vn -0.99999225 0.003921509 -0.00034492963
g BulldoserShassi_03_CorpsePart_0
f 3/3/3 2/2/2 1/1/1
f 4/4/4 3/3/3 1/1/1
f 7/7/7 6/6/6 5/5/5
f 8/8/8 7/7/7 5/5/5
f 11/11/11 10/10/10 9/9/9
f 12/12/12 11/11/11 9/9/9
f 15/15/15 14/14/14 13/13/13
f 16/16/16 15/15/15 13/13/13
f 19/19/19 18/18/18 17/17/17
f 20/20/20 19/19/19 17/17/17
f 23/23/23 22/22/22 21/21/21
f 24/24/24 23/23/23 21/21/21
f 27/27/27 26/26/26 25/25/25
f 28/28/28 27/27/27 25/25/25
f 31/31/31 30/30/30 29/29/29
f 32/32/32 31/31/31 29/29/29
f 35/35/35 34/34/34 33/33/33
f 36/36/36 35/35/35 33/33/33
f 39/39/39 38/38/38 37/37/37
f 40/40/40 39/39/39 37/37/37
f 43/43/43 42/42/42 41/41/41
f 44/44/44 43/43/43 41/41/41
f 47/47/47 46/46/46 45/45/45
f 48/48/48 47/47/47 45/45/45
f 51/51/51 50/50/50 49/49/49
f 52/52/52 51/51/51 49/49/49
f 55/55/55 54/54/54 53/53/53
f 56/56/56 55/55/55 53/53/53
f 59/59/59 58/58/58 57/57/57
f 60/60/60 59/59/59 57/57/57
f 63/63/63 62/62/62 61/61/61
f 64/64/64 63/63/63 61/61/61
f 67/67/67 66/66/66 65/65/65
f 68/68/68 67/67/67 65/65/65
f 71/71/71 70/70/70 69/69/69
f 72/72/72 71/71/71 69/69/69
f 75/75/75 74/74/74 73/73/73
f 76/76/76 75/75/75 73/73/73
f 79/79/79 78/78/78 77/77/77
f 80/80/80 79/79/79 77/77/77
f 83/83/83 82/82/82 81/81/81
f 84/84/84 83/83/83 81/81/81
f 87/87/87 86/86/86 85/85/85
f 88/88/88 87/87/87 85/85/85
f 91/91/91 90/90/90 89/89/89
f 92/92/92 91/91/91 89/89/89
f 95/95/95 94/94/94 93/93/93
f 96/96/96 95/95/95 93/93/93
f 99/99/99 98/98/98 97/97/97
f 100/100/100 99/99/99 97/97/97
f 103/103/103 102/102/102 101/101/101
f 104/104/104 103/103/103 101/101/101
f 107/107/107 106/106/106 105/105/105
f 108/108/108 107/107/107 105/105/105
f 111/111/111 110/110/110 109/109/109
f 112/112/112 111/111/111 109/109/109
f 115/115/115 114/114/114 113/113/113
f 116/116/116 115/115/115 113/113/113
f 119/119/119 118/118/118 117/117/117
f 120/120/120 119/119/119 117/117/117
f 123/123/123 122/122/122 121/121/121
f 124/124/124 123/123/123 121/121/121
f 127/127/127 126/126/126 125/125/125
f 128/128/128 127/127/127 125/125/125
f 131/131/131 130/130/130 129/129/129
f 132/132/132 131/131/131 129/129/129
f 135/135/135 134/134/134 133/133/133
f 136/136/136 135/135/135 133/133/133
f 139/139/139 138/138/138 137/137/137
f 140/140/140 139/139/139 137/137/137
f 143/143/143 142/142/142 141/141/141
f 144/144/144 143/143/143 141/141/141
f 147/147/147 146/146/146 145/145/145
f 148/148/148 147/147/147 145/145/145
f 151/151/151 150/150/150 149/149/149
f 152/152/152 151/151/151 149/149/149
f 155/155/155 154/154/154 153/153/153
f 156/156/156 155/155/155 153/153/153
f 159/159/159 158/158/158 157/157/157
f 160/160/160 159/159/159 157/157/157
f 163/163/163 162/162/162 161/161/161
f 164/164/164 163/163/163 161/161/161
f 167/167/167 166/166/166 165/165/165
f 168/168/168 167/167/167 165/165/165
f 171/171/171 170/170/170 169/169/169
f 172/172/172 171/171/171 169/169/169
f 175/175/175 174/174/174 173/173/173
f 176/176/176 175/175/175 173/173/173
f 179/179/179 178/178/178 177/177/177
f 180/180/180 179/179/179 177/177/177
f 183/183/183 182/182/182 181/181/181
f 184/184/184 183/183/183 181/181/181
f 187/187/187 186/186/186 185/185/185
f 188/188/188 187/187/187 185/185/185
f 191/191/191 190/190/190 189/189/189
f 192/192/192 191/191/191 189/189/189
f 195/195/195 194/194/194 193/193/193
f 196/196/196 195/195/195 193/193/193
f 199/199/199 198/198/198 197/197/197
f 200/200/200 199/199/199 197/197/197
f 203/203/203 202/202/202 201/201/201
f 204/204/204 203/203/203 201/201/201
