g BulldoserShassi_06_CorpsePart
v 0.109874606 -0.48455936 -0.16004485
v -0.19054163 -0.5459669 -0.16262335
v -0.19054163 -0.5459669 0.16663444
v 0.109874606 -0.48455936 0.16421509
v 0.10984278 0.48726523 0.16421509
v -0.19054163 0.5450437 0.16663444
v -0.19054163 0.5450437 -0.16262335
v 0.10984278 0.48726523 -0.16004485
v 0.109874606 -0.48455936 0.16421509
v 0.10984278 0.48726523 0.16421509
v 0.10984278 0.48726523 -0.16004485
v 0.109874606 -0.48455936 -0.16004485
v -0.19054163 -0.5459669 -0.16262335
v 0.109874606 -0.48455936 -0.16004485
v 0.10984278 0.48726523 -0.16004485
v -0.19054163 0.5450437 -0.16262335
v -0.19054163 -0.5459669 0.16663444
v -0.19054163 0.5450437 0.16663444
v 0.10984278 0.48726523 0.16421509
v 0.109874606 -0.48455936 0.16421509
v 0.1237542 0.7098795 -0.2261638
v 0.1237542 0.87452435 -0.2261638
v -0.13053477 0.8736967 -0.2239036
v -0.13053477 0.7107072 -0.2239036
v 0.1237542 0.87452435 -0.2261638
v 0.1237542 1.0006502 -0.12034798
v -0.13053477 0.99858093 -0.1191383
v -0.13053477 0.8736967 -0.2239036
v 0.1237542 1.029237 0.041781902
v -0.13053477 1.0268812 0.041368127
v 0.1237542 0.94691455 0.18436587
v -0.13053477 0.9453865 0.18255138
v 0.1237542 0.7922019 0.24067998
v -0.13053477 0.7922019 0.23829246
v 0.1237542 0.6374893 0.18436587
v -0.13053477 0.6390492 0.18255138
v 0.1237542 0.55516684 0.041781902
v -0.13053477 0.5575545 0.041368127
v 0.1237542 0.5837537 -0.12034798
v -0.13053477 0.58585477 -0.1191383
v 0.17949533 0.7922019 -1.5974045E-05
v 0.1237542 0.87452435 -0.2261638
v 0.1237542 0.7098795 -0.2261638
v 0.1237542 1.0006502 -0.12034798
v 0.1237542 1.029237 0.041781902
v 0.1237542 0.94691455 0.18436587
v 0.1237542 0.7922019 0.24067998
v 0.1237542 0.6374893 0.18436587
v 0.1237542 0.55516684 0.041781902
v 0.1237542 0.5837537 -0.12034798
v -0.19054163 -0.8628095 -0.28683913
v 0.19054168 -0.8628095 -0.28683913
v 0.19054168 0.8627776 -0.28683913
v -0.19054163 0.8627776 -0.28683913
v 0.19054168 -0.8628095 0.28683913
v -0.19054163 -0.8628095 0.28683913
v -0.19054163 0.8627776 0.28683913
v 0.19054168 0.8627776 0.28683913
v 0.19054168 -1.0431166 0.14848912
v -0.19054163 -1.0431166 0.14848912
v 0.19054168 -1.0431166 -0.14848912
v -0.19054163 -1.0431166 -0.14848912
v -0.19054163 1.0430846 0.14848912
v 0.19054168 1.0430846 0.14848912
v -0.19054163 1.0430846 -0.14848912
v 0.19054168 1.0430846 -0.14848912
v -0.19054163 0.8627776 -0.28683913
v 0.19054168 0.8627776 -0.28683913
v -0.13053477 -0.8737285 -0.2239036
v 0.1237542 -0.8745562 -0.2261638
v 0.1237542 -0.70991135 -0.2261638
v -0.13053477 -0.710739 -0.2239036
v -0.13053477 -0.9986128 -0.1191383
v 0.1237542 -1.000682 -0.12034798
v 0.1237542 -0.8745562 -0.2261638
v -0.13053477 -0.8737285 -0.2239036
v -0.13053477 -1.0269132 0.041368127
v 0.1237542 -1.0292689 0.041781902
v -0.13053477 -0.9454184 0.18255138
v 0.1237542 -0.94694644 0.18436587
v -0.13053477 -0.7922338 0.23829246
v 0.1237542 -0.7922338 0.24067998
v -0.13053477 -0.639081 0.18255138
v 0.1237542 -0.63752115 0.18436587
v -0.13053477 -0.5575545 0.041368127
v 0.1237542 -0.5551987 0.041781902
v -0.13053477 -0.5858866 -0.1191383
v 0.1237542 -0.58378553 -0.12034798
v 0.1237542 -0.70991135 -0.2261638
v 0.1237542 -0.8745562 -0.2261638
v 0.17949533 -0.7922338 -1.5974045E-05
v 0.1237542 -1.000682 -0.12034798
v 0.1237542 -1.0292689 0.041781902
v 0.1237542 -0.94694644 0.18436587
v 0.1237542 -0.7922338 0.24067998
v 0.1237542 -0.63752115 0.18436587
v 0.1237542 -0.5551987 0.041781902
v 0.1237542 -0.58378553 -0.12034798
v 0.058876753 0.86217284 -0.2864253
v 0.058876753 -0.861568 -0.2864253
v 0.058876753 -0.861568 0.28655267
v 0.058876753 0.86217284 0.28655267
v 0.058876753 -1.0426708 -0.14804345
v 0.058876753 -1.0426708 0.14813888
v 0.058876753 1.0427983 0.14785242
v 0.058876753 1.0427983 -0.1477251
v -0.18379283 -0.8617271 -0.2864253
v -0.18379283 0.8620136 -0.2864253
v -0.18379283 0.8620136 0.28655267
v -0.18379283 -0.8617271 0.28655267
v -0.18379283 1.0431166 -0.14804345
v -0.18379283 1.0431166 0.14813888
v -0.18379283 -1.0423844 0.14785242
v -0.18379283 -1.0423844 -0.1477251
vt 0.30044404 0.9195691
vt 0.29419926 0.9195691
vt 0.29419926 0.92670596
vt 0.30044404 0.92670596
vt 0.3209626 0.92670596
vt 0.32631525 0.92670596
vt 0.32631525 0.9195691
vt 0.3209626 0.9195691
vt 0.30044404 0.92670596
vt 0.3209626 0.92670596
vt 0.3209626 0.9195691
vt 0.30044404 0.9195691
vt 0.30044404 0.9142164
vt 0.30044404 0.9195691
vt 0.3209626 0.9195691
vt 0.32007048 0.9142164
vt 0.30044404 0.93205863
vt 0.32007048 0.93205863
vt 0.3209626 0.92670596
vt 0.30044404 0.92670596
vt 0.35843125 0.95792985
vt 0.35843125 0.96149826
vt 0.3628918 0.96149826
vt 0.3628918 0.95792985
vt 0.35843125 0.93205863
vt 0.35843125 0.93562704
vt 0.3628918 0.93562704
vt 0.3628918 0.93205863
vt 0.35843125 0.9383034
vt 0.3628918 0.9383034
vt 0.35843125 0.9418718
vt 0.3628918 0.9418718
vt 0.35843125 0.9454403
vt 0.3628918 0.9454403
vt 0.35843125 0.9481166
vt 0.3628918 0.9481166
vt 0.35843125 0.9516851
vt 0.3628918 0.9516851
vt 0.35843125 0.9552535
vt 0.3628918 0.9552535
vt 0.3557549 0.9160006
vt 0.35753915 0.9097558
vt 0.35307857 0.9097558
vt 0.3611076 0.9124322
vt 0.3619997 0.9177848
vt 0.36021549 0.9213533
vt 0.3557549 0.9231375
vt 0.35129437 0.9213533
vt 0.34861803 0.9177848
vt 0.34951013 0.9124322
vt 0.37448925 0.080092624
vt 0.39233148 0.080092624
vt 0.39233148 0.0783084
vt 0.37448925 0.0783084
vt 0.39233148 0.080092624
vt 0.37448925 0.080092624
vt 0.37448925 0.081876844
vt 0.39233148 0.081876844
vt 0.39233148 0.080092624
vt 0.37448925 0.080092624
vt 0.39233148 0.080092624
vt 0.37448925 0.080092624
vt 0.37448925 0.081876844
vt 0.39233148 0.081876844
vt 0.37448925 0.081876844
vt 0.39233148 0.081876844
vt 0.37448925 0.081876844
vt 0.39233148 0.081876844
vt 0.3628918 0.96149826
vt 0.35843125 0.96149826
vt 0.35843125 0.95792985
vt 0.3628918 0.95792985
vt 0.3628918 0.93562704
vt 0.35843125 0.93562704
vt 0.35843125 0.93205863
vt 0.3628918 0.93205863
vt 0.3628918 0.9383034
vt 0.35843125 0.9383034
vt 0.3628918 0.9418718
vt 0.35843125 0.9418718
vt 0.3628918 0.9454403
vt 0.35843125 0.9454403
vt 0.3628918 0.9481166
vt 0.35843125 0.9481166
vt 0.3628918 0.9516851
vt 0.35843125 0.9516851
vt 0.3628918 0.9552535
vt 0.35843125 0.9552535
vt 0.35307857 0.9097558
vt 0.35753915 0.9097558
vt 0.3557549 0.9160006
vt 0.3611076 0.9124322
vt 0.3619997 0.9177848
vt 0.36021549 0.9213533
vt 0.3557549 0.9231375
vt 0.35129437 0.9213533
vt 0.34861803 0.9177848
vt 0.34951013 0.9124322
vt 0.3619997 0.99093795
vt 0.3619997 0.96952724
vt 0.35843125 0.96952724
vt 0.35843125 0.99093795
vt 0.3619997 0.96952724
vt 0.35843125 0.96952724
vt 0.35843125 0.99093795
vt 0.3619997 0.99093795
vt 0.3619997 0.99093795
vt 0.3619997 0.96952724
vt 0.35843125 0.96952724
vt 0.35843125 0.99093795
vt 0.3619997 0.96952724
vt 0.35843125 0.96952724
vt 0.35843125 0.99093795
vt 0.3619997 0.99093795
vn 0.1999985 -0.97646314 -0.080748565
vn 0.1999985 -0.97646314 -0.080748565
vn 0.1999985 -0.97646314 -0.080748565
vn 0.1999985 -0.97646314 -0.080748565
vn 0.19160227 0.9814727 -0
vn 0.19160227 0.9814727 -0
vn 0.19160227 0.9814727 -0
vn 0.19160227 0.9814727 -0
vn 0.9999924 0.003921509 -0
vn 0.9999924 0.003921509 -0
vn 0.9999924 0.003921509 -0
vn 0.9999924 0.003921509 -0
vn 0.011764646 0.003921509 -0.9999231
vn 0.011764646 0.003921509 -0.9999231
vn 0.011764646 0.003921509 -0.9999231
vn 0.011764646 0.003921509 -0.9999231
vn 0.011764646 0.003921509 0.9999231
vn 0.011764646 0.003921509 0.9999231
vn 0.011764646 0.003921509 0.9999231
vn 0.011764646 0.003921509 0.9999231
vn -0.011764526 -0.3411739 -0.93992656
vn -0.011764526 0.34117377 -0.9399266
vn -0.011764526 0.34117377 -0.9399266
vn -0.011764526 -0.3411739 -0.93992656
vn -0.011764526 0.34117377 -0.9399266
vn -0.011764526 0.86666 -0.49876052
vn -0.011764526 0.86666 -0.49876052
vn -0.011764526 0.34117377 -0.9399266
vn -0.011764526 0.9843061 0.17607702
vn -0.011764526 0.9843061 0.17607702
vn -0.011764526 0.6392107 0.76894164
vn -0.011764526 0.6392107 0.76894164
vn -0.011764526 0.003921509 0.9999231
vn -0.011764526 0.003921509 0.9999231
vn -0.011764526 -0.6392108 0.7689416
vn -0.011764526 -0.6392108 0.7689416
vn -0.011764526 -0.9843062 0.17607634
vn -0.011764526 -0.9843062 0.17607634
vn -0.011764526 -0.86666006 -0.4987604
vn -0.011764526 -0.86666006 -0.4987604
vn 0.9999924 0.003921509 -0
vn 0.97646314 0.074509144 -0.20240588
vn 0.97646314 -0.07450926 -0.20240586
vn 0.97646314 0.19215536 -0.09795954
vn 0.9747855 0.22314364 -0
vn 0.97646314 0.1450969 0.15958273
vn 0.97646314 0.003921509 0.21564874
vn 0.97646314 -0.14509696 0.15958267
vn 0.9747855 -0.2231437 -0
vn 0.97646314 -0.19215542 -0.09795943
vn -0.003921509 -0.07450926 -0.9972126
vn -0.003921509 -0.07450926 -0.9972126
vn -0.003921509 0.074509144 -0.9972126
vn -0.003921509 0.074509144 -0.9972126
vn -0.003921509 -0.07450926 0.9972126
vn -0.003921509 -0.07450926 0.9972126
vn -0.003921509 0.074509144 0.9972126
vn -0.003921509 0.074509144 0.9972126
vn -0.003921509 -0.9215616 0.38821238
vn -0.003921509 -0.9215616 0.38821238
vn -0.003921509 -0.9215616 -0.38821238
vn -0.003921509 -0.9215616 -0.38821238
vn -0.003921509 0.9215615 0.38821262
vn -0.003921509 0.9215615 0.38821262
vn -0.003921509 0.9215615 -0.38821262
vn -0.003921509 0.9215615 -0.38821262
vn -0.003921509 0.074509144 -0.9972126
vn -0.003921509 0.074509144 -0.9972126
vn -0.011764526 -0.3411739 -0.93992656
vn -0.011764526 -0.3411739 -0.93992656
vn -0.011764526 0.34117377 -0.9399266
vn -0.011764526 0.34117377 -0.9399266
vn -0.011764526 -0.86666006 -0.4987604
vn -0.011764526 -0.86666006 -0.4987604
vn -0.011764526 -0.3411739 -0.93992656
vn -0.011764526 -0.3411739 -0.93992656
vn -0.011764526 -0.9843062 0.17607634
vn -0.011764526 -0.9843062 0.17607634
vn -0.011764526 -0.6392108 0.7689416
vn -0.011764526 -0.6392108 0.7689416
vn -0.011764526 0.003921509 0.9999231
vn -0.011764526 0.003921509 0.9999231
vn -0.011764526 0.6392107 0.76894164
vn -0.011764526 0.6392107 0.76894164
vn -0.011764526 0.9843061 0.17607702
vn -0.011764526 0.9843061 0.17607702
vn -0.011764526 0.86666 -0.49876052
vn -0.011764526 0.86666 -0.49876052
vn 0.97646314 0.074509144 -0.20240588
vn 0.97646314 -0.07450926 -0.20240586
vn 0.9999924 0.003921509 -0
vn 0.97646314 -0.19215542 -0.09795943
vn 0.9747855 -0.2231437 -0
vn 0.97646314 -0.14509696 0.15958267
vn 0.97646314 0.003921509 0.21564874
vn 0.97646314 0.1450969 0.15958273
vn 0.9747855 0.22314364 -0
vn 0.97646314 0.19215536 -0.09795954
vn 0.9999924 0.003921509 -0
vn 0.9999924 0.003921509 -0
vn 0.9999924 0.003921509 -0
vn 0.9999924 0.003921509 -0
vn 0.9999924 0.003921509 -0
vn 0.9999924 0.003921509 -0
vn 0.9999924 0.003921509 -0
vn 0.9999924 0.003921509 -0
vn -0.99999225 0.003921509 -0.00034492963
vn -0.99999225 0.003921509 -0.00034492963
vn -0.99999225 0.003921509 -0.00034492963
vn -0.99999225 0.003921509 -0.00034492963
vn -0.99999225 0.003921509 -0.00034492963
vn -0.99999225 0.003921509 -0.00034492963
vn -0.99999225 0.003921509 -0.00034492963
vn -0.99999225 0.003921509 -0.00034492963
g BulldoserShassi_06_CorpsePart_0
f 3/3/3 2/2/2 1/1/1
f 4/4/4 3/3/3 1/1/1
f 7/7/7 6/6/6 5/5/5
f 8/8/8 7/7/7 5/5/5
f 11/11/11 10/10/10 9/9/9
f 12/12/12 11/11/11 9/9/9
f 15/15/15 14/14/14 13/13/13
f 16/16/16 15/15/15 13/13/13
f 19/19/19 18/18/18 17/17/17
f 20/20/20 19/19/19 17/17/17
f 23/23/23 22/22/22 21/21/21
f 24/24/24 23/23/23 21/21/21
f 27/27/27 26/26/26 25/25/25
f 28/28/28 27/27/27 25/25/25
f 30/30/30 29/29/29 26/26/26
f 27/27/27 30/30/30 26/26/26
f 32/32/32 31/31/31 29/29/29
f 30/30/30 32/32/32 29/29/29
f 34/34/34 33/33/33 31/31/31
f 32/32/32 34/34/34 31/31/31
f 36/36/36 35/35/35 33/33/33
f 34/34/34 36/36/36 33/33/33
f 38/38/38 37/37/37 35/35/35
f 36/36/36 38/38/38 35/35/35
f 40/40/40 39/39/39 37/37/37
f 38/38/38 40/40/40 37/37/37
f 24/24/24 21/21/21 39/39/39
f 40/40/40 24/24/24 39/39/39
f 43/43/43 42/42/42 41/41/41
f 44/44/44 41/41/41 42/42/42
f 45/45/45 41/41/41 44/44/44
f 46/46/46 41/41/41 45/45/45
f 47/47/47 41/41/41 46/46/46
f 48/48/48 41/41/41 47/47/47
f 49/49/49 41/41/41 48/48/48
f 50/50/50 41/41/41 49/49/49
f 43/43/43 41/41/41 50/50/50
f 53/53/53 52/52/52 51/51/51
f 54/54/54 53/53/53 51/51/51
f 57/57/57 56/56/56 55/55/55
f 58/58/58 57/57/57 55/55/55
f 59/59/59 55/55/55 56/56/56
f 60/60/60 59/59/59 56/56/56
f 61/61/61 59/59/59 60/60/60
f 62/62/62 61/61/61 60/60/60
f 52/52/52 61/61/61 62/62/62
f 51/51/51 52/52/52 62/62/62
f 64/64/64 63/63/63 57/57/57
f 58/58/58 64/64/64 57/57/57
f 66/66/66 65/65/65 63/63/63
f 64/64/64 66/66/66 63/63/63
f 68/68/68 67/67/67 65/65/65
f 66/66/66 68/68/68 65/65/65
f 71/71/71 70/70/70 69/69/69
f 72/72/72 71/71/71 69/69/69
f 75/75/75 74/74/74 73/73/73
f 76/76/76 75/75/75 73/73/73
f 74/74/74 78/78/78 77/77/77
f 73/73/73 74/74/74 77/77/77
f 78/78/78 80/80/80 79/79/79
f 77/77/77 78/78/78 79/79/79
f 80/80/80 82/82/82 81/81/81
f 79/79/79 80/80/80 81/81/81
f 82/82/82 84/84/84 83/83/83
f 81/81/81 82/82/82 83/83/83
f 84/84/84 86/86/86 85/85/85
f 83/83/83 84/84/84 85/85/85
f 86/86/86 88/88/88 87/87/87
f 85/85/85 86/86/86 87/87/87
f 88/88/88 71/71/71 72/72/72
f 87/87/87 88/88/88 72/72/72
f 91/91/91 90/90/90 89/89/89
f 91/91/91 92/92/92 90/90/90
f 91/91/91 93/93/93 92/92/92
f 91/91/91 94/94/94 93/93/93
f 91/91/91 95/95/95 94/94/94
f 91/91/91 96/96/96 95/95/95
f 91/91/91 97/97/97 96/96/96
f 91/91/91 98/98/98 97/97/97
f 91/91/91 89/89/89 98/98/98
f 101/101/101 100/100/100 99/99/99
f 102/102/102 101/101/101 99/99/99
f 104/104/104 103/103/103 100/100/100
f 101/101/101 104/104/104 100/100/100
f 106/106/106 105/105/105 102/102/102
f 99/99/99 106/106/106 102/102/102
f 109/109/109 108/108/108 107/107/107
f 110/110/110 109/109/109 107/107/107
f 112/112/112 111/111/111 108/108/108
f 109/109/109 112/112/112 108/108/108
f 114/114/114 113/113/113 110/110/110
f 107/107/107 114/114/114 110/110/110
