g BulldoserShassi_02
v -52.75206 118.91507 -41.841877
v -53.386154 118.66708 29.174202
v -69.47096 118.42224 30.188133
v -69.47096 118.42224 -42.909176
v -69.47096 118.42224 -42.909176
v -69.47096 118.42224 30.188133
v -70.04855 102.789474 29.419052
v -70.04855 102.789474 -42.00825
v 52.750286 118.91507 -41.841877
v 69.469185 118.42224 -42.909176
v 69.469185 118.42224 30.188133
v 53.387524 118.66708 29.174202
v 69.469185 118.42224 -42.909176
v 70.04678 102.789474 -42.00825
v 70.04678 102.789474 29.419052
v 69.469185 118.42224 30.188133
v 21.660538 88.80473 91.54518
v 21.660538 109.79596 71.115845
v 21.660538 109.79596 91.54518
v 56.310036 88.80473 91.54518
v 56.310036 109.79596 91.54518
v 56.310036 109.79596 71.115845
v 56.310036 109.79596 91.54518
v 21.660538 109.79596 91.54518
v 21.660538 109.79596 71.115845
v 56.310036 109.79596 71.115845
v 56.310036 109.79596 91.54518
v 56.310036 88.80473 91.54518
v 21.660538 88.80473 91.54518
v 21.660538 109.79596 91.54518
v -52.039474 102.36255 113.02925
v -63.25865 115.436935 113.609985
v 5.8990707 115.436935 113.609985
v -5.3201065 102.36255 113.02925
v -52.039474 87.376434 113.02925
v -65.49057 69.41446 113.17679
v -63.25865 115.436935 113.609985
v -65.49057 69.41446 113.17679
v -65.49057 99.713135 51.45874
v -63.465836 115.377304 51.45874
v -5.3201065 87.376434 113.02925
v 8.130981 69.41446 113.17679
v 8.130981 99.713135 51.45874
v 8.130981 69.41446 113.17679
v 5.8990707 115.436935 113.609985
v 6.1031113 115.377304 51.45874
v -63.465836 115.377304 51.45874
v 6.1031113 115.377304 51.45874
v 5.8990707 115.436935 113.609985
v -63.25865 115.436935 113.609985
v -65.49057 99.713135 51.45874
v 8.130981 99.713135 51.45874
v 6.1031113 115.377304 51.45874
v -63.465836 115.377304 51.45874
v -5.3201065 87.376434 113.02925
v -52.039474 87.376434 113.02925
v -52.039474 102.36255 113.02925
v -5.3201065 102.36255 113.02925
v -84.058395 69.49606 -82.418015
v -84.058395 69.49606 85.40193
v -70.62302 69.49606 85.40193
v -70.62302 69.49606 -82.418015
v -84.058395 73.708755 -82.418015
v -70.62302 81.51572 -82.418015
v -70.62302 81.51572 85.40193
v -84.058395 73.708755 85.40193
v -84.058395 73.708755 85.40193
v -70.62302 81.51572 85.40193
v -70.62302 69.49606 85.40193
v -84.058395 69.49606 85.40193
v -84.058395 73.708755 -82.418015
v -84.058395 73.708755 85.40193
v -84.058395 69.49606 85.40193
v -84.058395 69.49606 -82.418015
v -70.62302 81.51572 -82.418015
v -84.058395 73.708755 -82.418015
v -84.058395 69.49606 -82.418015
v -70.62302 69.49606 -82.418015
v -70.62302 81.51572 85.40193
v -70.62302 81.51572 -82.418015
v -70.62302 69.49606 -82.418015
v -70.62302 69.49606 85.40193
v -86.36879 67.185684 42.801086
v -86.36879 67.185684 54.494263
v -68.315765 67.185684 54.494263
v -68.315765 67.185684 42.801086
v -86.805115 75.29086 42.669235
v -68.96242 84.40056 42.89212
v -68.96242 84.40056 54.40323
v -86.805115 75.29086 54.626114
v -86.805115 75.29086 54.626114
v -68.96242 84.40056 54.40323
v -68.315765 67.185684 54.494263
v -86.36879 67.185684 54.494263
v -86.805115 75.29086 42.669235
v -86.805115 75.29086 54.626114
v -86.36879 67.185684 54.494263
v -86.36879 67.185684 42.801086
v -68.96242 84.40056 42.89212
v -86.805115 75.29086 42.669235
v -86.36879 67.185684 42.801086
v -68.315765 67.185684 42.801086
v -86.36879 67.185684 -53.396942
v -86.36879 67.185684 -41.70376
v -68.315765 67.185684 -41.70376
v -68.315765 67.185684 -53.396942
v -86.805115 75.29086 -53.528786
v -68.96242 84.40056 -53.30591
v -68.96242 84.40056 -41.794792
v -86.805115 75.29086 -41.571915
v -86.805115 75.29086 -41.571915
v -68.96242 84.40056 -41.794792
v -68.315765 67.185684 -41.70376
v -86.36879 67.185684 -41.70376
v -86.805115 75.29086 -53.528786
v -86.805115 75.29086 -41.571915
v -86.36879 67.185684 -41.70376
v -86.36879 67.185684 -53.396942
v -68.96242 84.40056 -53.30591
v -86.805115 75.29086 -53.528786
v -86.36879 67.185684 -53.396942
v -68.315765 67.185684 -53.396942
v 84.05977 69.49606 -82.418015
v 70.624374 69.49606 -82.418015
v 70.624374 69.49606 85.40193
v 84.05977 69.49606 85.40193
v 84.05977 73.708755 -82.418015
v 84.05977 73.708755 85.40193
v 70.624374 81.51572 85.40193
v 70.624374 81.51572 -82.418015
v 84.05977 73.708755 85.40193
v 84.05977 69.49606 85.40193
v 70.624374 69.49606 85.40193
v 70.624374 81.51572 85.40193
v 84.05977 73.708755 -82.418015
v 84.05977 69.49606 -82.418015
v 84.05977 69.49606 85.40193
v 84.05977 73.708755 85.40193
v 70.624374 81.51572 -82.418015
v 70.624374 69.49606 -82.418015
v 84.05977 69.49606 -82.418015
v 84.05977 73.708755 -82.418015
v 70.624374 81.51572 85.40193
v 70.624374 69.49606 85.40193
v 70.624374 69.49606 -82.418015
v 70.624374 81.51572 -82.418015
v 86.370155 67.185684 42.801086
v 68.313995 67.185684 42.801086
v 68.313995 67.185684 54.494263
v 86.370155 67.185684 54.494263
v 86.80649 75.29086 42.669235
v 86.80649 75.29086 54.626114
v 68.96379 84.40056 54.40323
v 68.96379 84.40056 42.89212
v 86.80649 75.29086 54.626114
v 86.370155 67.185684 54.494263
v 68.313995 67.185684 54.494263
v 68.96379 84.40056 54.40323
v 86.80649 75.29086 42.669235
v 86.370155 67.185684 42.801086
v 86.370155 67.185684 54.494263
v 86.80649 75.29086 54.626114
v 68.96379 84.40056 42.89212
v 68.313995 67.185684 42.801086
v 86.370155 67.185684 42.801086
v 86.80649 75.29086 42.669235
v 86.370155 67.185684 -53.396942
v 68.313995 67.185684 -53.396942
v 68.313995 67.185684 -41.70376
v 86.370155 67.185684 -41.70376
v 86.80649 75.29086 -53.528786
v 86.80649 75.29086 -41.571915
v 68.96379 84.40056 -41.794792
v 68.96379 84.40056 -53.30591
v 86.80649 75.29086 -41.571915
v 86.370155 67.185684 -41.70376
v 68.313995 67.185684 -41.70376
v 68.96379 84.40056 -41.794792
v 86.80649 75.29086 -53.528786
v 86.370155 67.185684 -53.396942
v 86.370155 67.185684 -41.70376
v 86.80649 75.29086 -41.571915
v 68.96379 84.40056 -53.30591
v 68.313995 67.185684 -53.396942
v 86.370155 67.185684 -53.396942
v 86.80649 75.29086 -53.528786
vt 0.30493236 0.998263
vt 0.30493236 0.9799789
vt 0.30858916 0.9799789
vt 0.30858916 0.998263
vt 0.30858916 0.998263
vt 0.30858916 0.9799789
vt 0.31224597 0.9799789
vt 0.31224597 0.998263
vt 0.30493236 0.998263
vt 0.30858916 0.998263
vt 0.30858916 0.9799789
vt 0.30493236 0.9799789
vt 0.30858916 0.998263
vt 0.31224597 0.998263
vt 0.31224597 0.9799789
vt 0.30858916 0.9799789
vt 0.3744117 0.9009919
vt 0.36929217 0.89587235
vt 0.36929217 0.9009919
vt 0.3744117 0.9104996
vt 0.36929217 0.9104996
vt 0.36929217 0.91561913
vt 0.36929217 0.9104996
vt 0.36929217 0.9009919
vt 0.36417264 0.9009919
vt 0.36417264 0.9104996
vt 0.36929217 0.9104996
vt 0.3744117 0.9104996
vt 0.3744117 0.9009919
vt 0.36929217 0.9009919
vt 0.28372288 0.9024546
vt 0.28591695 0.90538013
vt 0.26836428 0.90538013
vt 0.269827 0.9024546
vt 0.28372288 0.8980665
vt 0.28737968 0.8892901
vt 0.28591695 0.9061115
vt 0.30127555 0.9061115
vt 0.28957376 0.9207387
vt 0.28591695 0.9207387
vt 0.269827 0.8980665
vt 0.26690155 0.8892901
vt 0.26397613 0.9207387
vt 0.2508116 0.9061115
vt 0.26763293 0.9061115
vt 0.26763293 0.9207387
vt 0.28591695 0.9207387
vt 0.26763293 0.9207387
vt 0.26763293 0.9061115
vt 0.28591695 0.9061115
vt 0.28737968 0.9265896
vt 0.26763293 0.9265896
vt 0.26836428 0.9236641
vt 0.28591695 0.9236641
vt 0.2508116 0.9236641
vt 0.2603193 0.9236641
vt 0.2603193 0.9265896
vt 0.2508116 0.9265896
vt 0.35685903 0.9477991
vt 0.35685903 0.99606895
vt 0.3553963 0.99606895
vt 0.3553963 0.9477991
vt 0.34954542 0.9477991
vt 0.35393357 0.9477991
vt 0.35393357 0.99606895
vt 0.34954542 0.99606895
vt 0.34954542 0.99606895
vt 0.35393357 0.99606895
vt 0.35247084 0.99899435
vt 0.34954542 0.99753165
vt 0.34954542 0.9477991
vt 0.34954542 0.99606895
vt 0.34881404 0.99606895
vt 0.34881404 0.9477991
vt 0.35393357 0.9477991
vt 0.34954542 0.9477991
vt 0.34954542 0.94706774
vt 0.35247084 0.9448736
vt 0.35393357 0.99606895
vt 0.35393357 0.9477991
vt 0.3553963 0.9477991
vt 0.3553963 0.99606895
vt 0.25300568 0.89879787
vt 0.25300568 0.89587235
vt 0.2551998 0.89587235
vt 0.2551998 0.89879787
vt 0.2625134 0.8980665
vt 0.25739387 0.8980665
vt 0.25739387 0.895141
vt 0.2625134 0.895141
vt 0.2625134 0.895141
vt 0.25739387 0.895141
vt 0.2588566 0.89148426
vt 0.26324475 0.89294696
vt 0.2625134 0.8980665
vt 0.2625134 0.895141
vt 0.26397613 0.895141
vt 0.26397613 0.8980665
vt 0.25739387 0.8980665
vt 0.2625134 0.8980665
vt 0.26324475 0.90026057
vt 0.2588566 0.9024546
vt 0.25300568 0.89879787
vt 0.25300568 0.89587235
vt 0.2551998 0.89587235
vt 0.2551998 0.89879787
vt 0.2625134 0.8980665
vt 0.25739387 0.8980665
vt 0.25739387 0.895141
vt 0.2625134 0.895141
vt 0.2625134 0.895141
vt 0.25739387 0.895141
vt 0.2588566 0.89148426
vt 0.26324475 0.89294696
vt 0.2625134 0.8980665
vt 0.2625134 0.895141
vt 0.26397613 0.895141
vt 0.26397613 0.8980665
vt 0.25739387 0.8980665
vt 0.2625134 0.8980665
vt 0.26324475 0.90026057
vt 0.2588566 0.9024546
vt 0.35685903 0.9477991
vt 0.3553963 0.9477991
vt 0.3553963 0.99606895
vt 0.35685903 0.99606895
vt 0.34954542 0.9477991
vt 0.34954542 0.99606895
vt 0.35393357 0.99606895
vt 0.35393357 0.9477991
vt 0.34954542 0.99606895
vt 0.34954542 0.99753165
vt 0.35247084 0.99899435
vt 0.35393357 0.99606895
vt 0.34954542 0.9477991
vt 0.34881404 0.9477991
vt 0.34881404 0.99606895
vt 0.34954542 0.99606895
vt 0.35393357 0.9477991
vt 0.35247084 0.9448736
vt 0.34954542 0.94706774
vt 0.34954542 0.9477991
vt 0.35393357 0.99606895
vt 0.3553963 0.99606895
vt 0.3553963 0.9477991
vt 0.35393357 0.9477991
vt 0.25300568 0.89879787
vt 0.2551998 0.89879787
vt 0.2551998 0.89587235
vt 0.25300568 0.89587235
vt 0.2625134 0.8980665
vt 0.2625134 0.895141
vt 0.25739387 0.895141
vt 0.25739387 0.8980665
vt 0.2625134 0.895141
vt 0.26324475 0.89294696
vt 0.2588566 0.89148426
vt 0.25739387 0.895141
vt 0.2625134 0.8980665
vt 0.26397613 0.8980665
vt 0.26397613 0.895141
vt 0.2625134 0.895141
vt 0.25739387 0.8980665
vt 0.2588566 0.9024546
vt 0.26324475 0.90026057
vt 0.2625134 0.8980665
vt 0.25300568 0.89879787
vt 0.2551998 0.89879787
vt 0.2551998 0.89587235
vt 0.25300568 0.89587235
vt 0.2625134 0.8980665
vt 0.2625134 0.895141
vt 0.25739387 0.895141
vt 0.25739387 0.8980665
vt 0.2625134 0.895141
vt 0.26324475 0.89294696
vt 0.2588566 0.89148426
vt 0.25739387 0.895141
vt 0.2625134 0.8980665
vt 0.26397613 0.8980665
vt 0.26397613 0.895141
vt 0.2625134 0.895141
vt 0.25739387 0.8980665
vt 0.2588566 0.9024546
vt 0.26324475 0.90026057
vt 0.2625134 0.8980665
vn -0.019604048 0.9998079 -0
vn -0.019604048 0.9998079 -0
vn -0.019604048 0.9998079 -0
vn -0.019604048 0.9998079 -0
vn -0.9993777 0.03527213 -0
vn -0.9993777 0.03527213 -0
vn -0.9993777 0.03527213 -0
vn -0.9993777 0.03527213 -0
vn 0.019604107 0.9998079 -0
vn 0.019604107 0.9998079 -0
vn 0.019604107 0.9998079 -0
vn 0.019604107 0.9998079 -0
vn 0.9993777 0.035272125 -0
vn 0.9993777 0.035272125 -0
vn 0.9993777 0.035272125 -0
vn 0.9993777 0.035272125 -0
vn -0.99999225 0.003921509 -0.00034492963
vn -0.99999225 0.003921509 -0.00034492963
vn -0.99999225 0.003921509 -0.00034492963
vn 0.9999924 0.003921509 -0
vn 0.9999924 0.003921509 -0
vn 0.9999924 0.003921509 -0
vn -0.003921509 0.99999225 -0.00034526698
vn -0.003921509 0.99999225 -0.00034526698
vn -0.003921509 0.99999225 -0.00034526698
vn -0.003921509 0.99999225 -0.00034526698
vn -0.003921509 0.003921509 0.9999846
vn -0.003921509 0.003921509 0.9999846
vn -0.003921509 0.003921509 0.9999846
vn -0.003921509 0.003921509 0.9999846
vn 0.0039215684 -0.019607723 0.9998001
vn 0.011764646 -0.035293877 0.9993077
vn -0.011764526 -0.035293877 0.9993077
vn -0.003921509 -0.019607723 0.9998001
vn 0.0039215684 0.003921509 0.9999846
vn 0.0039215684 0.003921509 0.9999846
vn -0.9977852 0.06651899 -0
vn -0.9977852 0.06651899 -0
vn -0.9977852 0.06651899 -0
vn -0.9977852 0.06651899 -0
vn -0.003921509 0.003921509 0.9999846
vn -0.003921509 0.003921509 0.9999846
vn 0.9977852 0.066518985 -0
vn 0.9977852 0.066518985 -0
vn 0.9977852 0.066518985 -0
vn 0.9977852 0.066518985 -0
vn -0.003921509 0.99999225 -0.00034526698
vn -0.003921509 0.99999225 -0.00034526698
vn -0.003921509 0.99999225 -0.00034526698
vn -0.003921509 0.99999225 -0.00034526698
vn -0.003921509 0.003921509 -0.9999846
vn -0.003921509 0.003921509 -0.9999846
vn -0.003921509 0.003921509 -0.9999846
vn -0.003921509 0.003921509 -0.9999846
vn -0.003921509 0.003921509 0.9999846
vn 0.0039215684 0.003921509 0.9999846
vn 0.0039215684 -0.019607723 0.9998001
vn -0.003921509 -0.019607723 0.9998001
vn -0.003921509 -0.9999924 -0
vn -0.003921509 -0.9999924 -0
vn -0.003921509 -0.9999924 -0
vn -0.003921509 -0.9999924 -0
vn -0.5041139 0.8636371 -0
vn -0.5041139 0.8636371 -0
vn -0.5041139 0.8636371 -0
vn -0.5041139 0.8636371 -0
vn -0.003921509 0.003921509 0.9999846
vn -0.003921509 0.003921509 0.9999846
vn -0.003921509 0.003921509 0.9999846
vn -0.003921509 0.003921509 0.9999846
vn -0.99999225 0.003921509 -0.00034492963
vn -0.99999225 0.003921509 -0.00034492963
vn -0.99999225 0.003921509 -0.00034492963
vn -0.99999225 0.003921509 -0.00034492963
vn -0.003921509 0.003921509 -0.9999846
vn -0.003921509 0.003921509 -0.9999846
vn -0.003921509 0.003921509 -0.9999846
vn -0.003921509 0.003921509 -0.9999846
vn 0.9999924 0.003921509 -0
vn 0.9999924 0.003921509 -0
vn 0.9999924 0.003921509 -0
vn 0.9999924 0.003921509 -0
vn -0.003921509 -0.9999924 -0
vn -0.003921509 -0.9999924 -0
vn -0.003921509 -0.9999924 -0
vn -0.003921509 -0.9999924 -0
vn -0.45097685 0.8901892 -0.06467699
vn -0.45097685 0.8901892 -0.06467699
vn -0.45097685 0.8901892 -0.06467699
vn -0.45097685 0.8901892 -0.06467699
vn 0.0039215684 -0.0039215684 0.9999846
vn 0.0039215684 -0.0039215684 0.9999846
vn 0.0039215684 -0.0039215684 0.9999846
vn 0.0039215684 -0.0039215684 0.9999846
vn -0.998703 -0.050914306 -0
vn -0.998703 -0.050914306 -0
vn -0.998703 -0.050914306 -0
vn -0.998703 -0.050914306 -0
vn 0.0039215684 -0.0039215684 -0.9999846
vn 0.0039215684 -0.0039215684 -0.9999846
vn 0.0039215684 -0.0039215684 -0.9999846
vn 0.0039215684 -0.0039215684 -0.9999846
vn -0.003921509 -0.9999924 -0
vn -0.003921509 -0.9999924 -0
vn -0.003921509 -0.9999924 -0
vn -0.003921509 -0.9999924 -0
vn -0.45097685 0.8901892 -0.06467699
vn -0.45097685 0.8901892 -0.06467699
vn -0.45097685 0.8901892 -0.06467699
vn -0.45097685 0.8901892 -0.06467699
vn 0.0039215684 -0.0039215684 0.9999846
vn 0.0039215684 -0.0039215684 0.9999846
vn 0.0039215684 -0.0039215684 0.9999846
vn 0.0039215684 -0.0039215684 0.9999846
vn -0.998703 -0.050914306 -0
vn -0.998703 -0.050914306 -0
vn -0.998703 -0.050914306 -0
vn -0.998703 -0.050914306 -0
vn 0.0039215684 -0.0039215684 -0.9999846
vn 0.0039215684 -0.0039215684 -0.9999846
vn 0.0039215684 -0.0039215684 -0.9999846
vn 0.0039215684 -0.0039215684 -0.9999846
vn -0.003921509 -0.9999924 -0
vn -0.003921509 -0.9999924 -0
vn -0.003921509 -0.9999924 -0
vn -0.003921509 -0.9999924 -0
vn 0.504114 0.8636371 -0
vn 0.504114 0.8636371 -0
vn 0.504114 0.8636371 -0
vn 0.504114 0.8636371 -0
vn -0.003921509 0.003921509 0.9999846
vn -0.003921509 0.003921509 0.9999846
vn -0.003921509 0.003921509 0.9999846
vn -0.003921509 0.003921509 0.9999846
vn 0.9999924 0.003921509 -0
vn 0.9999924 0.003921509 -0
vn 0.9999924 0.003921509 -0
vn 0.9999924 0.003921509 -0
vn -0.003921509 0.003921509 -0.9999846
vn -0.003921509 0.003921509 -0.9999846
vn -0.003921509 0.003921509 -0.9999846
vn -0.003921509 0.003921509 -0.9999846
vn -0.99999225 0.003921509 -0.00034492963
vn -0.99999225 0.003921509 -0.00034492963
vn -0.99999225 0.003921509 -0.00034492963
vn -0.99999225 0.003921509 -0.00034492963
vn -0.003921509 -0.9999924 -0
vn -0.003921509 -0.9999924 -0
vn -0.003921509 -0.9999924 -0
vn -0.003921509 -0.9999924 -0
vn 0.45097697 0.8901892 -0.064676076
vn 0.45097697 0.8901892 -0.064676076
vn 0.45097697 0.8901892 -0.064676076
vn 0.45097697 0.8901892 -0.064676076
vn -0.003921509 -0.0039215684 0.9999846
vn -0.003921509 -0.0039215684 0.9999846
vn -0.003921509 -0.0039215684 0.9999846
vn -0.003921509 -0.0039215684 0.9999846
vn 0.998703 -0.0509143 -0
vn 0.998703 -0.0509143 -0
vn 0.998703 -0.0509143 -0
vn 0.998703 -0.0509143 -0
vn -0.003921509 -0.0039215684 -0.9999846
vn -0.003921509 -0.0039215684 -0.9999846
vn -0.003921509 -0.0039215684 -0.9999846
vn -0.003921509 -0.0039215684 -0.9999846
vn -0.003921509 -0.9999924 -0
vn -0.003921509 -0.9999924 -0
vn -0.003921509 -0.9999924 -0
vn -0.003921509 -0.9999924 -0
vn 0.45097697 0.8901892 -0.064676076
vn 0.45097697 0.8901892 -0.064676076
vn 0.45097697 0.8901892 -0.064676076
vn 0.45097697 0.8901892 -0.064676076
vn -0.003921509 -0.0039215684 0.9999846
vn -0.003921509 -0.0039215684 0.9999846
vn -0.003921509 -0.0039215684 0.9999846
vn -0.003921509 -0.0039215684 0.9999846
vn 0.998703 -0.0509143 -0
vn 0.998703 -0.0509143 -0
vn 0.998703 -0.0509143 -0
vn 0.998703 -0.0509143 -0
vn -0.003921509 -0.0039215684 -0.9999846
vn -0.003921509 -0.0039215684 -0.9999846
vn -0.003921509 -0.0039215684 -0.9999846
vn -0.003921509 -0.0039215684 -0.9999846
g BulldoserShassi_02_0
f 3/3/3 2/2/2 1/1/1
f 4/4/4 3/3/3 1/1/1
f 7/7/7 6/6/6 5/5/5
f 8/8/8 7/7/7 5/5/5
f 11/11/11 10/10/10 9/9/9
f 12/12/12 11/11/11 9/9/9
f 15/15/15 14/14/14 13/13/13
f 16/16/16 15/15/15 13/13/13
f 19/19/19 18/18/18 17/17/17
f 22/22/22 21/21/21 20/20/20
f 25/25/25 24/24/24 23/23/23
f 26/26/26 25/25/25 23/23/23
f 29/29/29 28/28/28 27/27/27
f 30/30/30 29/29/29 27/27/27
f 33/33/33 32/32/32 31/31/31
f 34/34/34 33/33/33 31/31/31
f 32/32/32 36/36/36 35/35/35
f 31/31/31 32/32/32 35/35/35
f 39/39/39 38/38/38 37/37/37
f 40/40/40 39/39/39 37/37/37
f 33/33/33 34/34/34 41/41/41
f 42/42/42 33/33/33 41/41/41
f 45/45/45 44/44/44 43/43/43
f 46/46/46 45/45/45 43/43/43
f 49/49/49 48/48/48 47/47/47
f 50/50/50 49/49/49 47/47/47
f 53/53/53 52/52/52 51/51/51
f 54/54/54 53/53/53 51/51/51
f 57/57/57 56/56/56 55/55/55
f 58/58/58 57/57/57 55/55/55
f 35/35/35 36/36/36 42/42/42
f 41/41/41 35/35/35 42/42/42
f 61/61/61 60/60/60 59/59/59
f 62/62/62 61/61/61 59/59/59
f 65/65/65 64/64/64 63/63/63
f 66/66/66 65/65/65 63/63/63
f 69/69/69 68/68/68 67/67/67
f 70/70/70 69/69/69 67/67/67
f 73/73/73 72/72/72 71/71/71
f 74/74/74 73/73/73 71/71/71
f 77/77/77 76/76/76 75/75/75
f 78/78/78 77/77/77 75/75/75
f 81/81/81 80/80/80 79/79/79
f 82/82/82 81/81/81 79/79/79
f 85/85/85 84/84/84 83/83/83
f 86/86/86 85/85/85 83/83/83
f 89/89/89 88/88/88 87/87/87
f 90/90/90 89/89/89 87/87/87
f 93/93/93 92/92/92 91/91/91
f 94/94/94 93/93/93 91/91/91
f 97/97/97 96/96/96 95/95/95
f 98/98/98 97/97/97 95/95/95
f 101/101/101 100/100/100 99/99/99
f 102/102/102 101/101/101 99/99/99
f 105/105/105 104/104/104 103/103/103
f 106/106/106 105/105/105 103/103/103
f 109/109/109 108/108/108 107/107/107
f 110/110/110 109/109/109 107/107/107
f 113/113/113 112/112/112 111/111/111
f 114/114/114 113/113/113 111/111/111
f 117/117/117 116/116/116 115/115/115
f 118/118/118 117/117/117 115/115/115
f 121/121/121 120/120/120 119/119/119
f 122/122/122 121/121/121 119/119/119
f 125/125/125 124/124/124 123/123/123
f 126/126/126 125/125/125 123/123/123
f 129/129/129 128/128/128 127/127/127
f 130/130/130 129/129/129 127/127/127
f 133/133/133 132/132/132 131/131/131
f 134/134/134 133/133/133 131/131/131
f 137/137/137 136/136/136 135/135/135
f 138/138/138 137/137/137 135/135/135
f 141/141/141 140/140/140 139/139/139
f 142/142/142 141/141/141 139/139/139
f 145/145/145 144/144/144 143/143/143
f 146/146/146 145/145/145 143/143/143
f 149/149/149 148/148/148 147/147/147
f 150/150/150 149/149/149 147/147/147
f 153/153/153 152/152/152 151/151/151
f 154/154/154 153/153/153 151/151/151
f 157/157/157 156/156/156 155/155/155
f 158/158/158 157/157/157 155/155/155
f 161/161/161 160/160/160 159/159/159
f 162/162/162 161/161/161 159/159/159
f 165/165/165 164/164/164 163/163/163
f 166/166/166 165/165/165 163/163/163
f 169/169/169 168/168/168 167/167/167
f 170/170/170 169/169/169 167/167/167
f 173/173/173 172/172/172 171/171/171
f 174/174/174 173/173/173 171/171/171
f 177/177/177 176/176/176 175/175/175
f 178/178/178 177/177/177 175/175/175
f 181/181/181 180/180/180 179/179/179
f 182/182/182 181/181/181 179/179/179
f 185/185/185 184/184/184 183/183/183
f 186/186/186 185/185/185 183/183/183
