g BulldoserShassi_08
v 50.561844 75.08347 -99.7504
v 61.213783 75.08347 -99.7504
v 61.213783 90.17893 -92.54688
v 50.561844 90.17893 -92.54688
v 50.561844 95.06994 -102.804535
v 50.561844 79.97448 -110.00492
v 50.561844 75.08347 -99.7504
v 50.561844 90.17893 -92.54688
v 58.785492 88.144936 -88.11275
v 61.213783 90.17893 -92.54688
v 61.213783 75.08347 -99.7504
v 58.785492 73.04946 -95.31313
v 61.213783 90.17893 -92.54688
v 58.785492 88.144936 -88.11275
v 45.135735 88.144936 -88.11275
v 50.561844 90.17893 -92.54688
v 58.785492 73.04946 -95.31313
v 61.213783 75.08347 -99.7504
v 50.561844 75.08347 -99.7504
v 45.135735 73.04946 -95.31313
v 50.561844 95.06994 -102.804535
v 45.135735 94.328316 -101.074066
v 45.135735 79.23286 -108.27445
v 50.561844 79.97448 -110.00492
v 45.135735 94.328316 -101.074066
v 50.561844 95.06994 -102.804535
v 50.561844 79.97448 -110.00492
v 45.135735 79.23286 -108.27445
v 7.575447 75.08347 -99.7504
v 18.227386 75.08347 -99.7504
v 18.227386 90.17893 -92.54688
v 7.575447 90.17893 -92.54688
v 18.227386 79.97448 -110.00492
v 18.227386 95.06994 -102.804535
v 18.227386 90.17893 -92.54688
v 18.227386 75.08347 -99.7504
v 7.575447 75.08347 -99.7504
v 7.575447 90.17893 -92.54688
v 10.329178 88.63935 -87.98444
v 10.329178 73.54389 -95.18483
v 7.575447 90.17893 -92.54688
v 18.227386 90.17893 -92.54688
v 23.978935 88.63935 -87.98444
v 10.329178 88.63935 -87.98444
v 18.227386 75.08347 -99.7504
v 7.575447 75.08347 -99.7504
v 10.329178 73.54389 -95.18483
v 23.978935 73.54389 -95.18483
v 18.227386 95.06994 -102.804535
v 18.227386 79.97448 -110.00492
v 23.978935 79.72727 -108.14928
v 23.978935 94.82273 -100.9489
v 18.227386 90.17893 -92.54688
v 18.227386 95.06994 -102.804535
v 23.978935 94.82273 -100.9489
v 23.978935 88.63935 -87.98444
v 18.227386 79.97448 -110.00492
v 18.227386 75.08347 -99.7504
v 23.978935 73.54389 -95.18483
v 23.978935 79.72727 -108.14928
v -50.562737 75.08347 -99.7504
v -50.562737 90.17893 -92.54688
v -61.214684 90.17893 -92.54688
v -61.214684 75.08347 -99.7504
v -50.562737 95.06994 -102.804535
v -50.562737 90.17893 -92.54688
v -50.562737 75.08347 -99.7504
v -50.562737 79.97448 -110.00492
v -58.464073 87.819496 -87.67465
v -58.464073 72.72402 -94.87504
v -61.214684 75.08347 -99.7504
v -61.214684 90.17893 -92.54688
v -61.214684 90.17893 -92.54688
v -50.562737 90.17893 -92.54688
v -44.814323 87.819496 -87.67465
v -58.464073 87.819496 -87.67465
v -58.464073 72.72402 -94.87504
v -44.814323 72.72402 -94.87504
v -50.562737 75.08347 -99.7504
v -61.214684 75.08347 -99.7504
v -50.562737 95.06994 -102.804535
v -50.562737 79.97448 -110.00492
v -44.814323 78.9074 -107.839485
v -44.814323 94.00288 -100.6391
v -44.814323 94.00288 -100.6391
v -50.562737 95.06994 -102.804535
v -50.562737 79.97448 -110.00492
v -44.814323 78.9074 -107.839485
v -7.5763397 75.08347 -99.7504
v -7.5763397 90.17893 -92.54688
v -18.225151 90.17893 -92.54688
v -18.225151 75.08347 -99.7504
v -18.225151 79.97448 -110.00492
v -18.225151 75.08347 -99.7504
v -18.225151 90.17893 -92.54688
v -18.225151 95.06994 -102.804535
v -7.5763397 75.08347 -99.7504
v -9.948303 73.05886 -94.82497
v -9.948303 88.15432 -87.62145
v -7.5763397 90.17893 -92.54688
v -7.5763397 90.17893 -92.54688
v -9.948303 88.15432 -87.62145
v -23.59806 88.15432 -87.62145
v -18.225151 90.17893 -92.54688
v -18.225151 75.08347 -99.7504
v -23.59806 73.05886 -94.82497
v -9.948303 73.05886 -94.82497
v -7.5763397 75.08347 -99.7504
v -18.225151 95.06994 -102.804535
v -23.59806 94.3377 -100.58591
v -23.59806 79.24224 -107.786285
v -18.225151 79.97448 -110.00492
v -18.225151 90.17893 -92.54688
v -23.59806 88.15432 -87.62145
v -23.59806 94.3377 -100.58591
v -18.225151 95.06994 -102.804535
v -18.225151 79.97448 -110.00492
v -23.59806 79.24224 -107.786285
v -23.59806 73.05886 -94.82497
v -18.225151 75.08347 -99.7504
vt 0.3660834 0.951512
vt 0.3660834 0.954393
vt 0.3706931 0.954393
vt 0.3706931 0.951512
vt 0.3706931 0.9486309
vt 0.3660834 0.9486309
vt 0.3660834 0.951512
vt 0.3706931 0.951512
vt 0.3706931 0.9549693
vt 0.3706931 0.954393
vt 0.3660834 0.954393
vt 0.3660834 0.9549693
vt 0.3706931 0.954393
vt 0.3718455 0.954393
vt 0.3718455 0.951512
vt 0.3706931 0.951512
vt 0.36550722 0.954393
vt 0.3660834 0.954393
vt 0.3660834 0.951512
vt 0.36550722 0.951512
vt 0.3706931 0.9486309
vt 0.3706931 0.94747853
vt 0.3660834 0.94747853
vt 0.3660834 0.9486309
vt 0.3718455 0.9486309
vt 0.3706931 0.9486309
vt 0.3660834 0.9486309
vt 0.36550722 0.9486309
vt 0.3660834 0.93941164
vt 0.3660834 0.94171643
vt 0.3706931 0.94171643
vt 0.3706931 0.93941164
vt 0.3660834 0.9445975
vt 0.3706931 0.9445975
vt 0.3706931 0.94171643
vt 0.3660834 0.94171643
vt 0.3660834 0.93941164
vt 0.3706931 0.93941164
vt 0.3706931 0.93825924
vt 0.3660834 0.93825924
vt 0.3706931 0.93941164
vt 0.3706931 0.94171643
vt 0.3718455 0.94171643
vt 0.3718455 0.93941164
vt 0.3660834 0.94171643
vt 0.3660834 0.93941164
vt 0.36550722 0.93941164
vt 0.36550722 0.94171643
vt 0.3706931 0.9445975
vt 0.3660834 0.9445975
vt 0.3660834 0.9457499
vt 0.3706931 0.9457499
vt 0.3706931 0.94171643
vt 0.3706931 0.9445975
vt 0.3718455 0.9445975
vt 0.3718455 0.94171643
vt 0.3660834 0.9445975
vt 0.3660834 0.94171643
vt 0.36550722 0.94171643
vt 0.36550722 0.9445975
vt 0.3660834 0.951512
vt 0.3706931 0.951512
vt 0.3706931 0.954393
vt 0.3660834 0.954393
vt 0.3706931 0.9486309
vt 0.3706931 0.951512
vt 0.3660834 0.951512
vt 0.3660834 0.9486309
vt 0.3706931 0.9549693
vt 0.3660834 0.9549693
vt 0.3660834 0.954393
vt 0.3706931 0.954393
vt 0.3706931 0.954393
vt 0.3706931 0.951512
vt 0.3718455 0.951512
vt 0.3718455 0.954393
vt 0.36550722 0.954393
vt 0.36550722 0.951512
vt 0.3660834 0.951512
vt 0.3660834 0.954393
vt 0.3706931 0.9486309
vt 0.3660834 0.9486309
vt 0.3660834 0.94747853
vt 0.3706931 0.94747853
vt 0.3718455 0.9486309
vt 0.3706931 0.9486309
vt 0.3660834 0.9486309
vt 0.36550722 0.9486309
vt 0.3660834 0.93941164
vt 0.3706931 0.93941164
vt 0.3706931 0.94171643
vt 0.3660834 0.94171643
vt 0.3660834 0.9445975
vt 0.3660834 0.94171643
vt 0.3706931 0.94171643
vt 0.3706931 0.9445975
vt 0.3660834 0.93941164
vt 0.3660834 0.93825924
vt 0.3706931 0.93825924
vt 0.3706931 0.93941164
vt 0.3706931 0.93941164
vt 0.3718455 0.93941164
vt 0.3718455 0.94171643
vt 0.3706931 0.94171643
vt 0.3660834 0.94171643
vt 0.36550722 0.94171643
vt 0.36550722 0.93941164
vt 0.3660834 0.93941164
vt 0.3706931 0.9445975
vt 0.3706931 0.9457499
vt 0.3660834 0.9457499
vt 0.3660834 0.9445975
vt 0.3706931 0.94171643
vt 0.3718455 0.94171643
vt 0.3718455 0.9445975
vt 0.3706931 0.9445975
vt 0.3660834 0.9445975
vt 0.36550722 0.9445975
vt 0.36550722 0.94171643
vt 0.3660834 0.94171643
vn -0.003921509 0.42744768 -0.9040316
vn -0.003921509 0.42744768 -0.9040316
vn -0.003921509 0.42744768 -0.9040316
vn -0.003921509 0.42744768 -0.9040316
vn 0.9999924 0.003921509 -0
vn 0.9999924 0.003921509 -0
vn 0.9999924 0.003921509 -0
vn 0.9999924 0.003921509 -0
vn 0.89803237 -0.19215542 0.3957451
vn 0.89803237 -0.19215542 0.3957451
vn 0.89803237 -0.19215542 0.3957451
vn 0.89803237 -0.19215542 0.3957451
vn -0.003921509 0.9058753 0.4235263
vn -0.003921509 0.9058753 0.4235263
vn -0.003921509 0.9058753 0.4235263
vn -0.003921509 0.9058753 0.4235263
vn -0.003921509 -0.90587544 -0.42352602
vn -0.003921509 -0.90587544 -0.42352602
vn -0.003921509 -0.90587544 -0.42352602
vn -0.003921509 -0.90587544 -0.42352602
vn -0.3254876 0.4039184 -0.8549314
vn -0.3254876 0.4039184 -0.8549314
vn -0.3254876 0.4039184 -0.8549314
vn -0.3254876 0.4039184 -0.8549314
vn 0.011764646 0.9058753 0.42338103
vn 0.011764646 0.9058753 0.42338103
vn -0.011764526 -0.90587544 -0.42338073
vn -0.011764526 -0.90587544 -0.42338073
vn -0.003921509 0.42744768 -0.9040316
vn -0.003921509 0.42744768 -0.9040316
vn -0.003921509 0.42744768 -0.9040316
vn -0.003921509 0.42744768 -0.9040316
vn -0.99999225 0.003921509 -0.00034492963
vn -0.99999225 0.003921509 -0.00034492963
vn -0.99999225 0.003921509 -0.00034492963
vn -0.99999225 0.003921509 -0.00034492963
vn -0.86666 -0.21568465 0.4498673
vn -0.86666 -0.21568465 0.4498673
vn -0.86666 -0.21568465 0.4498673
vn -0.86666 -0.21568465 0.4498673
vn -0.003921509 0.9450908 0.3267844
vn -0.003921509 0.9450908 0.3267844
vn -0.003921509 0.9450908 0.3267844
vn -0.003921509 0.9450908 0.3267844
vn -0.003921509 -0.94509083 -0.32678422
vn -0.003921509 -0.94509083 -0.32678422
vn -0.003921509 -0.94509083 -0.32678422
vn -0.003921509 -0.94509083 -0.32678422
vn 0.29411542 0.41176152 -0.8625245
vn 0.29411542 0.41176152 -0.8625245
vn 0.29411542 0.41176152 -0.8625245
vn 0.29411542 0.41176152 -0.8625245
vn -0.098038435 0.8980323 0.42886642
vn -0.098038435 0.8980323 0.42886642
vn -0.098038435 0.8980323 0.42886642
vn -0.098038435 0.8980323 0.42886642
vn 0.098038495 -0.89803237 -0.42886636
vn 0.098038495 -0.89803237 -0.42886636
vn 0.098038495 -0.89803237 -0.42886636
vn 0.098038495 -0.89803237 -0.42886636
vn -0.003921509 0.42744768 -0.9040316
vn -0.003921509 0.42744768 -0.9040316
vn -0.003921509 0.42744768 -0.9040316
vn -0.003921509 0.42744768 -0.9040316
vn -0.99999225 0.003921509 -0.00034492963
vn -0.99999225 0.003921509 -0.00034492963
vn -0.99999225 0.003921509 -0.00034492963
vn -0.99999225 0.003921509 -0.00034492963
vn -0.8901892 -0.19215542 0.41308537
vn -0.8901892 -0.19215542 0.41308537
vn -0.8901892 -0.19215542 0.41308537
vn -0.8901892 -0.19215542 0.41308537
vn -0.003921509 0.8980323 0.439912
vn -0.003921509 0.8980323 0.439912
vn -0.003921509 0.8980323 0.439912
vn -0.003921509 0.8980323 0.439912
vn -0.003921509 -0.89803237 -0.43991193
vn -0.003921509 -0.89803237 -0.43991193
vn -0.003921509 -0.89803237 -0.43991193
vn -0.003921509 -0.89803237 -0.43991193
vn 0.38823235 0.39607537 -0.83210576
vn 0.38823235 0.39607537 -0.83210576
vn 0.38823235 0.39607537 -0.83210576
vn 0.38823235 0.39607537 -0.83210576
vn 0.0039215684 0.9058753 0.4235263
vn 0.0039215684 0.9058753 0.4235263
vn -0.003921509 -0.90587544 -0.42352602
vn -0.003921509 -0.90587544 -0.42352602
vn -0.003921509 0.42744768 -0.9040316
vn -0.003921509 0.42744768 -0.9040316
vn -0.003921509 0.42744768 -0.9040316
vn -0.003921509 0.42744768 -0.9040316
vn 0.9999924 0.003921509 -0
vn 0.9999924 0.003921509 -0
vn 0.9999924 0.003921509 -0
vn 0.9999924 0.003921509 -0
vn 0.9137185 -0.17646927 0.36602876
vn 0.9137185 -0.17646927 0.36602876
vn 0.9137185 -0.17646927 0.36602876
vn 0.9137185 -0.17646927 0.36602876
vn -0.003921509 0.9215615 0.38821262
vn -0.003921509 0.9215615 0.38821262
vn -0.003921509 0.9215615 0.38821262
vn -0.003921509 0.9215615 0.38821262
vn -0.003921509 -0.9215616 -0.38821238
vn -0.003921509 -0.9215616 -0.38821238
vn -0.003921509 -0.9215616 -0.38821238
vn -0.003921509 -0.9215616 -0.38821238
vn -0.39607537 0.39607537 -0.8284012
vn -0.39607537 0.39607537 -0.8284012
vn -0.39607537 0.39607537 -0.8284012
vn -0.39607537 0.39607537 -0.8284012
vn 0.05098003 0.8980323 0.43696567
vn 0.05098003 0.8980323 0.43696567
vn 0.05098003 0.8980323 0.43696567
vn 0.05098003 0.8980323 0.43696567
vn -0.050979972 -0.89803237 -0.4369656
vn -0.050979972 -0.89803237 -0.4369656
vn -0.050979972 -0.89803237 -0.4369656
vn -0.050979972 -0.89803237 -0.4369656
g BulldoserShassi_08_0
f 3/3/3 2/2/2 1/1/1
f 4/4/4 3/3/3 1/1/1
f 7/7/7 6/6/6 5/5/5
f 8/8/8 7/7/7 5/5/5
f 11/11/11 10/10/10 9/9/9
f 12/12/12 11/11/11 9/9/9
f 15/15/15 14/14/14 13/13/13
f 16/16/16 15/15/15 13/13/13
f 19/19/19 18/18/18 17/17/17
f 20/20/20 19/19/19 17/17/17
f 23/23/23 22/22/22 21/21/21
f 24/24/24 23/23/23 21/21/21
f 16/16/16 26/26/26 25/25/25
f 15/15/15 16/16/16 25/25/25
f 20/20/20 28/28/28 27/27/27
f 19/19/19 20/20/20 27/27/27
f 31/31/31 30/30/30 29/29/29
f 32/32/32 31/31/31 29/29/29
f 35/35/35 34/34/34 33/33/33
f 36/36/36 35/35/35 33/33/33
f 39/39/39 38/38/38 37/37/37
f 40/40/40 39/39/39 37/37/37
f 43/43/43 42/42/42 41/41/41
f 44/44/44 43/43/43 41/41/41
f 47/47/47 46/46/46 45/45/45
f 48/48/48 47/47/47 45/45/45
f 51/51/51 50/50/50 49/49/49
f 52/52/52 51/51/51 49/49/49
f 55/55/55 54/54/54 53/53/53
f 56/56/56 55/55/55 53/53/53
f 59/59/59 58/58/58 57/57/57
f 60/60/60 59/59/59 57/57/57
f 63/63/63 62/62/62 61/61/61
f 64/64/64 63/63/63 61/61/61
f 67/67/67 66/66/66 65/65/65
f 68/68/68 67/67/67 65/65/65
f 71/71/71 70/70/70 69/69/69
f 72/72/72 71/71/71 69/69/69
f 75/75/75 74/74/74 73/73/73
f 76/76/76 75/75/75 73/73/73
f 79/79/79 78/78/78 77/77/77
f 80/80/80 79/79/79 77/77/77
f 83/83/83 82/82/82 81/81/81
f 84/84/84 83/83/83 81/81/81
f 74/74/74 75/75/75 85/85/85
f 86/86/86 74/74/74 85/85/85
f 78/78/78 79/79/79 87/87/87
f 88/88/88 78/78/78 87/87/87
f 91/91/91 90/90/90 89/89/89
f 92/92/92 91/91/91 89/89/89
f 95/95/95 94/94/94 93/93/93
f 96/96/96 95/95/95 93/93/93
f 99/99/99 98/98/98 97/97/97
f 100/100/100 99/99/99 97/97/97
f 103/103/103 102/102/102 101/101/101
f 104/104/104 103/103/103 101/101/101
f 107/107/107 106/106/106 105/105/105
f 108/108/108 107/107/107 105/105/105
f 111/111/111 110/110/110 109/109/109
f 112/112/112 111/111/111 109/109/109
f 115/115/115 114/114/114 113/113/113
f 116/116/116 115/115/115 113/113/113
f 119/119/119 118/118/118 117/117/117
f 120/120/120 119/119/119 117/117/117
