g BulldoserShassi_CustomizePart_CorpsePart
v -0.13945532 0.9403646 -0.57050586
v -0.5324967 -1.0005465 -0.5694613
v -0.13945532 -1.0005465 -0.5694613
v -0.5324967 0.9403646 -0.57050586
v -0.13945532 -1.1041646 -0.14818192
v -0.5324967 -1.0005465 -0.5694613
v -0.5324967 -1.1041646 -0.14821559
v -0.13945532 -1.0005465 -0.5694613
v -0.5324967 -1.1041646 -0.14821559
v -0.13777041 -0.9026568 0.045541883
v -0.13945532 -1.1041646 -0.14818192
v -0.5341815 -0.9026568 0.045541883
v -0.5324967 -1.1041646 -0.14821559
v -0.5341815 1.0345476 0.043317914
v -0.5341815 -0.9026568 0.045541883
v -0.5324967 0.9403646 -0.57050586
v -0.5324967 1.1041656 -0.37711906
v -0.5324967 -1.0005465 -0.5694613
v -0.13777041 1.0345476 0.043317914
v -0.5324967 1.1041656 -0.37711906
v -0.13945532 1.1041656 -0.37711906
v -0.5341815 1.0345476 0.043317914
v -0.13945532 0.9403646 -0.57050586
v -0.5324967 1.1041656 -0.37711906
v -0.5324967 0.9403646 -0.57050586
v -0.13945532 1.1041656 -0.37711906
v -0.13777041 -0.9026568 0.045541883
v -0.13945532 -1.0005465 -0.5694613
v -0.13945532 -1.1041646 -0.14818192
v -0.13945532 0.9403646 -0.57050586
v -0.13945532 1.1041656 -0.37711906
v -0.13777041 1.0345476 0.043317914
v -0.13777041 1.0345476 0.043317914
v -0.5341815 -0.9026568 0.045541883
v -0.5341815 1.0345476 0.043317914
v -0.13777041 -0.9026568 0.045541883
v 0.13945442 0.9403646 -0.57050586
v 0.53249574 -1.0005465 -0.5694613
v 0.53249574 0.9403646 -0.57050586
v 0.13945442 -1.0005465 -0.5694613
v 0.13945442 -1.1041646 -0.14818192
v 0.53249574 -1.0005465 -0.5694613
v 0.13945442 -1.0005465 -0.5694613
v 0.53249574 -1.1041646 -0.14821559
v 0.53249574 -1.1041646 -0.14821559
v 0.13776952 -0.9026568 0.045541883
v 0.5341806 -0.9026568 0.045541883
v 0.13945442 -1.1041646 -0.14818192
v 0.53249574 -1.1041646 -0.14821559
v 0.53249574 0.9403646 -0.57050586
v 0.53249574 -1.0005465 -0.5694613
v 0.5341806 1.0345476 0.043317914
v 0.53249574 1.1041656 -0.37711906
v 0.5341806 -0.9026568 0.045541883
v 0.13776952 1.0345476 0.043317914
v 0.53249574 1.1041656 -0.37711906
v 0.5341806 1.0345476 0.043317914
v 0.13945442 1.1041656 -0.37711906
v 0.13945442 0.9403646 -0.57050586
v 0.53249574 1.1041656 -0.37711906
v 0.13945442 1.1041656 -0.37711906
v 0.53249574 0.9403646 -0.57050586
v 0.13776952 -0.9026568 0.045541883
v 0.13945442 1.1041656 -0.37711906
v 0.13776952 1.0345476 0.043317914
v 0.13945442 0.9403646 -0.57050586
v 0.13945442 -1.0005465 -0.5694613
v 0.13945442 -1.1041646 -0.14818192
v 0.5341806 1.0345476 0.043317914
v 0.13776952 -0.9026568 0.045541883
v 0.13776952 1.0345476 0.043317914
v 0.5341806 -0.9026568 0.045541883
v 0.6975771 -1.0811158 0.065187216
v 0.70047504 -0.22558379 0.4092332
v 0.70047504 0.4886906 0.4092332
v 0.6975771 1.0497112 0.06724274
v 0.5338773 -0.22312397 0.5680469
v 0.6947129 -0.23326671 0.5655533
v 0.6947129 -0.5691917 0.5655533
v 0.6932639 0.81949365 0.56434023
v 0.6947129 0.49772143 0.5655533
v 0.6947129 -0.5691917 0.5655533
v 0.6947129 -0.23326671 0.5655533
v 0.52750856 0.48703945 0.5705068
v 0.6932639 0.81949365 0.56434023
v 0.6947129 0.49772143 0.5655533
v 0.6975771 1.0497112 0.06724274
v 0.6932639 0.81949365 0.56434023
v -0.69326484 0.81949365 0.56434023
v -0.6975781 1.0497112 0.06724274
v 0.6975771 -1.0811158 0.065187216
v -0.6975781 -1.0811158 0.065187216
v -0.69471383 -0.5691917 0.5655533
v 0.6947129 -0.5691917 0.5655533
v -0.52750945 0.48703945 0.5705068
v -0.69326484 0.81949365 0.56434023
v -0.5338782 -0.22312397 0.5680469
v -0.69471383 -0.5691917 0.5655533
v -0.69471383 -0.23326671 0.5655533
v -0.69471383 0.49772143 0.5655533
v 0.6975771 1.0497112 0.06724274
v -0.6975781 1.0497112 0.06724274
v -0.6975781 -1.0811158 0.065187216
v 0.6975771 -1.0811158 0.065187216
v -0.6975781 -1.0811158 0.065187216
v -0.6975781 1.0497112 0.06724274
v -0.70047593 0.4886906 0.4092332
v -0.70047593 -0.22558379 0.4092332
v -0.69326484 0.81949365 0.56434023
v -0.69471383 0.49772143 0.5655533
v -0.69471383 -0.5691917 0.5655533
v -0.69471383 -0.23326671 0.5655533
v 0.70047504 -0.22558379 0.4092332
v 0.6947129 -0.23326671 0.5655533
v 0.5338773 -0.22312397 0.5680469
v -0.52750945 0.48703945 0.5705068
v -0.5338782 -0.22312397 0.5680469
v -0.70047593 -0.22558379 0.4092332
v -0.70047593 0.4886906 0.4092332
v 0.70047504 -0.22558379 0.4092332
v 0.5338773 -0.22312397 0.5680469
v 0.52750856 0.48703945 0.5705068
v 0.70047504 0.4886906 0.4092332
v 0.52750856 0.48703945 0.5705068
v 0.6947129 0.49772143 0.5655533
v 0.70047504 0.4886906 0.4092332
v -0.52750945 0.48703945 0.5705068
v -0.70047593 0.4886906 0.4092332
v -0.69471383 0.49772143 0.5655533
v -0.5338782 -0.22312397 0.5680469
v -0.69471383 -0.23326671 0.5655533
v -0.70047593 -0.22558379 0.4092332
vt 0.21071705 0.87051785
vt 0.28137589 0.52199787
vt 0.21071705 0.52199787
vt 0.28137589 0.87051785
vt 0.21071705 0.44370025
vt 0.28137589 0.52199787
vt 0.28137589 0.44370025
vt 0.21071705 0.52199787
vt 0.28137589 0.44370025
vt 0.21071705 0.3940481
vt 0.21071705 0.44370025
vt 0.28137589 0.3940481
vt 0.356809 0.5029009
vt 0.39118356 0.8867503
vt 0.39118356 0.53918517
vt 0.28137589 0.87051785
vt 0.31575045 0.89916337
vt 0.28137589 0.52199787
vt 0.21071705 0.99178374
vt 0.28137589 0.9153958
vt 0.21071705 0.9153958
vt 0.28137589 0.99178374
vt 0.21071705 0.87051785
vt 0.28137589 0.9153958
vt 0.28137589 0.87051785
vt 0.21071705 0.9153958
vt 0.09995454 0.53918517
vt 0.21071705 0.52199787
vt 0.13528396 0.5029009
vt 0.21071705 0.87051785
vt 0.17538764 0.89916337
vt 0.09995454 0.8867503
vt 0.21071705 0.045528136
vt 0.28137589 0.3940481
vt 0.28137589 0.045528136
vt 0.21071705 0.3940481
vt 0.73970354 0.8409175
vt 0.6690447 0.49239758
vt 0.6690447 0.8409175
vt 0.73970354 0.49239758
vt 0.73970354 0.4150548
vt 0.6690447 0.49239758
vt 0.73970354 0.49239758
vt 0.6690447 0.4150548
vt 0.6690447 0.4150548
vt 0.73970354 0.36444777
vt 0.6690447 0.36444777
vt 0.73970354 0.4150548
vt 0.5936116 0.47425544
vt 0.6690447 0.8409175
vt 0.6690447 0.49239758
vt 0.5582822 0.8581048
vt 0.6337153 0.87051785
vt 0.5582822 0.5105397
vt 0.73970354 0.9631382
vt 0.6690447 0.8867503
vt 0.6690447 0.9631382
vt 0.73970354 0.8867503
vt 0.73970354 0.8409175
vt 0.6690447 0.8867503
vt 0.73970354 0.8867503
vt 0.6690447 0.8409175
vt 0.8495112 0.5105397
vt 0.7740781 0.87051785
vt 0.8495112 0.8581048
vt 0.73970354 0.8409175
vt 0.73970354 0.49239758
vt 0.8151366 0.47425544
vt 0.6690447 0.016882658
vt 0.73970354 0.36444777
vt 0.73970354 0.016882658
vt 0.6690447 0.36444777
vt 0.6499477 0.47998452
vt 0.5888373 0.6337153
vt 0.5888373 0.7626199
vt 0.6499477 0.8628791
vt 0.53059155 0.6337153
vt 0.56019187 0.6337153
vt 0.56019187 0.5726049
vt 0.56019187 0.8208657
vt 0.56019187 0.7626199
vt 0.56019187 0.5726049
vt 0.56019187 0.6337153
vt 0.53059155 0.7626199
vt 0.56019187 0.8208657
vt 0.56019187 0.7626199
vt 0.56019187 0.9192152
vt 0.56019187 0.8208657
vt 0.31002137 0.8208657
vt 0.31002137 0.9192152
vt 0.56019187 0.44370025
vt 0.31002137 0.44370025
vt 0.31002137 0.5726049
vt 0.56019187 0.5726049
vt 0.34057656 0.7626199
vt 0.31002137 0.8208657
vt 0.34057656 0.6337153
vt 0.31002137 0.5726049
vt 0.31002137 0.6337153
vt 0.31002137 0.7626199
vt 0.56019187 0.060805723
vt 0.31002137 0.060805723
vt 0.31002137 0.44370025
vt 0.56019187 0.44370025
vt 0.22122039 0.47998452
vt 0.22122039 0.8628791
vt 0.28233075 0.7626199
vt 0.28233075 0.6337153
vt 0.31002137 0.8208657
vt 0.31002137 0.7626199
vt 0.31002137 0.5726049
vt 0.31002137 0.6337153
vt 0.5888373 0.6337153
vt 0.56019187 0.6337153
vt 0.53059155 0.6337153
vt 0.34057656 0.7626199
vt 0.34057656 0.6337153
vt 0.28233075 0.6337153
vt 0.28233075 0.7626199
vt 0.5888373 0.6337153
vt 0.53059155 0.6337153
vt 0.53059155 0.7626199
vt 0.5888373 0.7626199
vt 0.53059155 0.7626199
vt 0.56019187 0.7626199
vt 0.5888373 0.7626199
vt 0.34057656 0.7626199
vt 0.28233075 0.7626199
vt 0.31002137 0.7626199
vt 0.34057656 0.6337153
vt 0.31002137 0.6337153
vt 0.28233075 0.6337153
vn -0.003921509 -0.0039215684 -0.9999846
vn -0.003921509 -0.0039215684 -0.9999846
vn -0.003921509 -0.0039215684 -0.9999846
vn -0.003921509 -0.0039215684 -0.9999846
vn -0.003921509 -0.96862006 -0.24851513
vn -0.003921509 -0.96862006 -0.24851513
vn 0.0039215684 -0.96862006 -0.24851513
vn -0.003921509 -0.96862006 -0.24851513
vn -0.003921509 -0.69411236 0.71985596
vn -0.003921509 -0.69411236 0.71985596
vn -0.003921509 -0.69411236 0.71985596
vn -0.003921509 -0.69411236 0.71985596
vn -0.99999225 -0.0039215684 -0.00034425134
vn -0.99999225 -0.0039215684 -0.00034425134
vn -0.99999225 0.003921509 -0.00034492963
vn -0.99999225 -0.0039215684 -0.00034425134
vn -0.99999225 0.003921509 -0.00034492963
vn -0.99999225 0.003921509 -0.00034492963
vn -0.003921509 0.9843061 0.17642602
vn -0.003921509 0.9843061 0.17642602
vn -0.003921509 0.9843061 0.17642602
vn -0.003921509 0.9843061 0.17642602
vn -0.003921509 0.76469994 -0.6443746
vn -0.003921509 0.76469994 -0.6443746
vn -0.003921509 0.76469994 -0.6443746
vn -0.003921509 0.76469994 -0.6443746
vn 0.9999924 -0.0039215684 -0
vn 0.9999924 -0.0039215684 -0
vn 0.9999924 -0.0039215684 -0
vn 0.9999924 0.003921509 -0
vn 0.9999924 0.003921509 -0
vn 0.9999924 0.003921509 -0
vn -0.003921509 0.003921509 0.9999846
vn -0.003921509 0.003921509 0.9999846
vn -0.003921509 0.003921509 0.9999846
vn -0.003921509 0.003921509 0.9999846
vn -0.003921509 -0.0039215684 -0.9999846
vn -0.003921509 -0.0039215684 -0.9999846
vn -0.003921509 -0.0039215684 -0.9999846
vn -0.003921509 -0.0039215684 -0.9999846
vn -0.003921509 -0.96862006 -0.24851513
vn -0.003921509 -0.96862006 -0.24851513
vn -0.003921509 -0.96862006 -0.24851513
vn -0.003921509 -0.96862006 -0.24851513
vn 0.0039215684 -0.69411236 0.71985596
vn 0.0039215684 -0.69411236 0.71985596
vn -0.003921509 -0.69411236 0.71985596
vn 0.0039215684 -0.69411236 0.71985596
vn 0.9999924 -0.0039215684 -0
vn 0.9999924 -0.0039215684 -0
vn 0.9999924 0.003921509 -0
vn 0.9999924 -0.0039215684 -0
vn 0.9999924 0.003921509 -0
vn 0.9999924 0.003921509 -0
vn -0.003921509 0.9843061 0.17642602
vn -0.003921509 0.9843061 0.17642602
vn -0.003921509 0.9843061 0.17642602
vn -0.003921509 0.9843061 0.17642602
vn -0.003921509 0.76469994 -0.6443746
vn -0.003921509 0.76469994 -0.6443746
vn -0.003921509 0.76469994 -0.6443746
vn -0.003921509 0.76469994 -0.6443746
vn -0.99999225 -0.0039215684 -0.00034425134
vn -0.99999225 0.003921509 -0.00034492963
vn -0.99999225 0.003921509 -0.00034492963
vn -0.99999225 0.003921509 -0.00034492963
vn -0.99999225 -0.0039215684 -0.00034425134
vn -0.99999225 -0.0039215684 -0.00034425134
vn -0.003921509 0.003921509 0.9999846
vn -0.003921509 0.003921509 0.9999846
vn -0.003921509 0.003921509 0.9999846
vn -0.003921509 0.003921509 0.9999846
vn 0.9999924 -0.0039215684 -0
vn 0.9999924 -0.0039215684 -0
vn 0.9999924 0.003921509 -0
vn 0.9999924 0.003921509 -0
vn 0.0039215684 -0.0039215684 0.9999846
vn 0.011764646 0.003921509 0.9999231
vn 0.0039215684 -0.0039215684 0.9999846
vn 0.99993086 0.011763803 -0
vn 0.9999924 0.003921509 -0
vn 0.99993086 -0.011763922 -0
vn 0.9999924 0.003921509 -0
vn 0.0039215684 0.003921509 0.9999846
vn 0.0039215684 0.019607663 0.9998001
vn 0.0274508 0.003921509 0.9996155
vn -0.003921509 0.9058753 0.4235263
vn -0.003921509 0.9058753 0.4235263
vn -0.003921509 0.9058753 0.4235263
vn -0.003921509 0.9058753 0.4235263
vn -0.003921509 -0.70195544 0.71221006
vn -0.003921509 -0.70195544 0.71221006
vn -0.003921509 -0.70195544 0.71221006
vn -0.003921509 -0.70195544 0.71221006
vn -0.003921509 0.003921509 0.9999846
vn -0.003921509 0.019607663 0.9998001
vn -0.003921509 -0.0039215684 0.9999846
vn -0.003921509 -0.0039215684 0.9999846
vn -0.011764526 0.003921509 0.9999231
vn -0.02745068 0.003921509 0.9996155
vn -0.003921509 0.003921509 -0.9999846
vn -0.003921509 0.003921509 -0.9999846
vn -0.003921509 0.003921509 -0.9999846
vn -0.003921509 0.003921509 -0.9999846
vn -0.99999225 -0.0039215684 -0.00034425134
vn -0.99999225 0.003921509 -0.00034492963
vn -0.99999225 0.003921509 -0.00034492963
vn -0.99999225 -0.0039215684 -0.00034425134
vn -0.99993086 0.011763804 -0
vn -0.99999225 0.003921509 -0.00034492963
vn -0.99993086 -0.011763923 -0
vn -0.99999225 0.003921509 -0.00034492963
vn 0.06651905 0.9977852 -0
vn 0.06651905 0.9977852 -0
vn 0.06651905 0.9977852 -0
vn -0.68626916 0.003921509 0.72733706
vn -0.68626916 0.003921509 0.72733706
vn -0.68626916 0.003921509 0.72733706
vn -0.68626916 0.003921509 0.72733706
vn 0.6862693 0.003921509 0.727337
vn 0.6862693 0.003921509 0.727337
vn 0.6862693 0.003921509 0.727337
vn 0.6862693 0.003921509 0.727337
vn 0.066666186 -0.9921493 0.105808415
vn 0.066666186 -0.9921493 0.105808415
vn 0.066666186 -0.9921493 0.105808415
vn -0.066666126 -0.9921493 0.105808415
vn -0.066666126 -0.9921493 0.105808415
vn -0.066666126 -0.9921493 0.105808415
vn -0.06651899 0.9977852 -0
vn -0.06651899 0.9977852 -0
vn -0.06651899 0.9977852 -0
g BulldoserShassi_CustomizePart_CorpsePart_0
f 3/3/3 2/2/2 1/1/1
f 4/4/4 1/1/1 2/2/2
f 7/7/7 6/6/6 5/5/5
f 8/8/8 5/5/5 6/6/6
f 11/11/11 10/10/10 9/9/9
f 12/12/12 9/9/9 10/10/10
f 15/15/15 14/14/14 13/13/13
f 17/17/17 16/16/16 14/14/14
f 14/14/14 16/16/16 13/13/13
f 16/16/16 18/18/18 13/13/13
f 21/21/21 20/20/20 19/19/19
f 22/22/22 19/19/19 20/20/20
f 25/25/25 24/24/24 23/23/23
f 26/26/26 23/23/23 24/24/24
f 29/29/29 28/28/28 27/27/27
f 28/28/28 30/30/30 27/27/27
f 30/30/30 31/31/31 27/27/27
f 31/31/31 32/32/32 27/27/27
f 35/35/35 34/34/34 33/33/33
f 36/36/36 33/33/33 34/34/34
f 39/39/39 38/38/38 37/37/37
f 40/40/40 37/37/37 38/38/38
f 43/43/43 42/42/42 41/41/41
f 44/44/44 41/41/41 42/42/42
f 47/47/47 46/46/46 45/45/45
f 48/48/48 45/45/45 46/46/46
f 51/51/51 50/50/50 49/49/49
f 53/53/53 52/52/52 50/50/50
f 50/50/50 52/52/52 49/49/49
f 52/52/52 54/54/54 49/49/49
f 57/57/57 56/56/56 55/55/55
f 58/58/58 55/55/55 56/56/56
f 61/61/61 60/60/60 59/59/59
f 62/62/62 59/59/59 60/60/60
f 65/65/65 64/64/64 63/63/63
f 64/64/64 66/66/66 63/63/63
f 66/66/66 67/67/67 63/63/63
f 67/67/67 68/68/68 63/63/63
f 71/71/71 70/70/70 69/69/69
f 72/72/72 69/69/69 70/70/70
f 75/75/75 74/74/74 73/73/73
f 76/76/76 75/75/75 73/73/73
f 79/79/79 78/78/78 77/77/77
f 81/81/81 75/75/75 80/80/80
f 82/82/82 73/73/73 74/74/74
f 83/83/83 82/82/82 74/74/74
f 76/76/76 80/80/80 75/75/75
f 86/86/86 85/85/85 84/84/84
f 89/89/89 88/88/88 87/87/87
f 90/90/90 89/89/89 87/87/87
f 93/93/93 92/92/92 91/91/91
f 94/94/94 93/93/93 91/91/91
f 96/96/96 95/95/95 84/84/84
f 85/85/85 96/96/96 84/84/84
f 95/95/95 97/97/97 77/77/77
f 84/84/84 95/95/95 77/77/77
f 99/99/99 98/98/98 97/97/97
f 96/96/96 100/100/100 95/95/95
f 79/79/79 77/77/77 97/97/97
f 98/98/98 79/79/79 97/97/97
f 103/103/103 102/102/102 101/101/101
f 104/104/104 103/103/103 101/101/101
f 107/107/107 106/106/106 105/105/105
f 108/108/108 107/107/107 105/105/105
f 107/107/107 110/110/110 109/109/109
f 105/105/105 111/111/111 108/108/108
f 111/111/111 112/112/112 108/108/108
f 109/109/109 106/106/106 107/107/107
f 115/115/115 114/114/114 113/113/113
f 118/118/118 117/117/117 116/116/116
f 119/119/119 118/118/118 116/116/116
f 122/122/122 121/121/121 120/120/120
f 123/123/123 122/122/122 120/120/120
f 126/126/126 125/125/125 124/124/124
f 129/129/129 128/128/128 127/127/127
f 132/132/132 131/131/131 130/130/130
