g ch_09
v 0.07826263 -0.020575345 0.056185544
v 0.1263313 -0.02262184 0.052027017
v 0.13489392 -0.10870665 0.021190047
v 0.0795151 -0.11345458 0.02261442
v 0.13489392 -0.10870665 0.021190047
v 0.14181116 -0.13782454 0.025569588
v 0.15594853 -0.09843314 -0.062078744
v 0.14547035 -0.07931045 -0.050225317
v 0.14547035 -0.07931045 -0.050225317
v 0.08305967 -0.08905187 -0.059426457
v 0.0832316 0.002902329 -0.088552535
v 0.15192097 -0.0019438267 -0.07881111
v 0.15016097 0.07198468 -0.025577039
v 0.08892092 0.07913929 -0.032093138
v 0.13283923 0.054409146 0.047729313
v 0.08504072 0.060425907 0.05217436
v 0.1263313 -0.02262184 0.052027017
v 0.12530804 -0.025855362 0.06379041
v 0.14181116 -0.13782454 0.025569588
v 0.13489392 -0.10870665 0.021190047
v 0.1263313 -0.02262184 0.052027017
v 0.07826263 -0.020575345 0.056185544
v 0.002017498 -0.098072946 -0.06170219
v -0.0025176108 0.0035981536 -0.09180242
v 0.021786869 0.061653823 0.06690928
v 0.014705926 -0.024209946 0.06976622
v 0.008558184 -0.12971213 0.030661345
v 0.014705926 -0.024209946 0.06976622
v 0.015033364 0.087628275 -0.031340033
v 0.28136745 -0.098130256 -0.031430066
v 0.294105 -0.010989428 -0.055881888
v 0.15915747 0.00035646558 -0.100979
v 0.3046241 0.06844008 0.00050380826
v 0.15485159 0.10054591 -0.03140551
v 0.15192097 -0.0019438267 -0.07881111
v 0.15016097 0.07198468 -0.025577039
v 0.13283923 0.054409146 0.047729313
v 0.13363329 0.07757574 0.058698654
v 0.13363329 0.07757574 0.058698654
v 0.13283923 0.054409146 0.047729313
v 0.2636937 -0.13642472 0.04103309
v 0.3712506 -0.11301255 0.056046367
v 0.37789768 -0.09289116 0.027779847
v 0.263751 -0.030840665 0.06976622
v 0.38817123 -0.03508106 0.084427506
v 0.3712506 -0.11301255 0.056046367
v 0.2636937 -0.13642472 0.04103309
v 0.31384164 0.13265988 0.014109075
v 0.292214 0.11110595 0.08987942
v 0.28700766 0.04703349 0.07734653
v 0.37757844 0.028647572 0.04664874
v 0.3710132 0.018398583 0.077305615
v 0.28700766 0.04703349 0.07734653
v 0.40381482 -0.024742037 0.019037098
v 0.3710132 0.018398583 0.077305615
v 0.38817123 -0.03508106 0.084427506
v 0.28700766 0.04703349 0.07734653
v 0.292214 0.11110595 0.08987942
v 0.31384164 0.13265988 0.014109075
v 0.3046241 0.06844008 0.00050380826
v 0.292214 0.11110595 0.08987942
v -0.052354455 -0.09789285 0.028524756
v -0.05724153 -0.07425964 -0.040475696
v -0.0475083 0.06446165 -0.017792076
v -0.042473853 0.045060664 0.05560431
v 0.002017498 -0.098072946 -0.06170219
v 0.008558184 -0.12971213 0.030661345
v 0.014705926 -0.024209946 0.06976622
v 0.021786869 0.061653823 0.06690928
v 0.015033364 0.087628275 -0.031340033
v -0.0025176108 0.0035981536 -0.09180242
vt 0.020745328 0.073828876
vt 0.021256449 0.07470508
vt 0.022643777 0.07419396
vt 0.02227869 0.07302569
vt 0.030383606 0.092813365
vt 0.03082171 0.09244828
vt 0.029288348 0.09208319
vt 0.029142313 0.09244828
vt 0.023812052 0.07404793
vt 0.023739036 0.07287966
vt 0.025126364 0.07287966
vt 0.025053347 0.07404793
vt 0.02629464 0.074266985
vt 0.026513692 0.073098704
vt 0.027462915 0.07441302
vt 0.02790102 0.07353681
vt 0.027974036 0.085730694
vt 0.027974036 0.08551164
vt 0.026367657 0.08507354
vt 0.026732743 0.085438624
vt 0.02841214 0.07499716
vt 0.028923262 0.074266985
vt 0.023593001 0.07163836
vt 0.02519938 0.07163836
vt 0.02870421 0.07244155
vt 0.029653434 0.07375586
vt 0.021840587 0.07178439
vt 0.020234207 0.07295267
vt 0.02680576 0.07193042
vt 0.029361364 0.09033078
vt 0.02812007 0.09033078
vt 0.027974036 0.09208319
vt 0.026732743 0.08989268
vt 0.026440674 0.09201018
vt 0.027974036 0.09237526
vt 0.026659727 0.09244828
vt 0.028996278 0.08609578
vt 0.029434383 0.085876726
vt 0.025345415 0.092813365
vt 0.0257105 0.093105435
vt 0.03082171 0.09018474
vt 0.029726451 0.088286296
vt 0.02921533 0.08865138
vt 0.02841214 0.08361319
vt 0.028777227 0.08178776
vt 0.027535934 0.08178776
vt 0.02680576 0.083321124
vt 0.026002571 0.09033078
vt 0.024907311 0.08989268
vt 0.029580416 0.08354017
vt 0.027389899 0.088578366
vt 0.027243864 0.08806724
vt 0.025637485 0.088870436
vt 0.028193088 0.08865138
vt 0.029507399 0.08222586
vt 0.028266106 0.087556124
vt 0.025637485 0.088870436
vt 0.024907311 0.08989268
vt 0.026002571 0.09033078
vt 0.026732743 0.08989268
vt 0.030602658 0.08368621
vt 0.019211965 0.08711802
vt 0.019942138 0.08719104
vt 0.02016119 0.08565767
vt 0.019431017 0.08551164
vt 0.020380242 0.087702155
vt 0.018992914 0.087702155
vt 0.018408775 0.086168796
vt 0.018992914 0.08507354
vt 0.020380242 0.08507354
vt 0.021110414 0.08638784
vn 0.1494351 -0.1494351 0.9774141
vn 0.080032885 -0.15714645 0.9843271
vn 0.14172375 -0.9128593 0.38288668
vn 0.18799186 -0.8820139 0.4321001
vn -0.9764229 -0.21112597 -0.044990446
vn -0.5214529 -0.8126117 0.26028654
vn -0.40578258 -0.58127105 -0.7053116
vn -0.914732 -0.19570321 -0.35350484
vn 0.15714645 -0.6738073 -0.7220033
vn 0.1340124 -0.68923 -0.7120412
vn 0.11087835 0.15901911 -0.9810295
vn 0.17256916 0.13588512 -0.9755794
vn 0.15714645 0.914732 -0.3722505
vn 0.1185897 0.9224434 -0.36747065
vn 0.12630105 0.66796863 0.7333935
vn 0.15714645 0.6525459 0.74127513
vn -0.9995569 -0.026053429 -0.014395899
vn -0.71423674 -0.1340124 0.68695456
vn -0.5214529 -0.8126117 0.26028654
vn -0.9764229 -0.21112597 -0.044990446
vn 0.080032885 -0.15714645 0.9843271
vn 0.1494351 -0.1494351 0.9774141
vn -0.18215322 -0.7046527 -0.6857731
vn -0.31324625 0.16673052 -0.93492126
vn -0.027926087 0.6139891 0.7888203
vn -0.0510602 -0.15714645 0.98625445
vn -0.097328305 -0.90514797 0.41380474
vn -0.0510602 -0.15714645 0.98625445
vn -0.13588512 0.9378661 -0.31928432
vn 0.30366224 -0.63525057 -0.71010274
vn 0.44246662 0.11275101 -0.88966876
vn -0.35951436 0.1050396 -0.9272088
vn 0.4270439 0.5908551 -0.68448794
vn -0.4828961 0.73737085 -0.47232997
vn -0.9378661 0.020214736 -0.34640813
vn -0.9687115 0.13588512 -0.20768557
vn -0.9841342 0.097328305 -0.14834788
vn -0.70652544 0.45976198 0.537997
vn -0.70652544 0.45976198 0.537997
vn -0.9841342 0.097328305 -0.14834788
vn 0.06461018 -0.92057073 0.3851948
vn 0.47331205 -0.77405494 0.42049336
vn 0.7277868 -0.55813694 -0.39850917
vn -0.0819056 -0.1494351 0.9853733
vn 0.61211646 -0.09545559 0.7849851
vn 0.47331205 -0.77405494 0.42049336
vn 0.06461018 -0.92057073 0.3851948
vn -0.04334879 0.891598 -0.4507482
vn -0.28240085 0.6448345 0.7102381
vn -0.0047920346 0.20528722 0.97869
vn 0.7100105 0.70419115 -0
vn 0.47331205 0.47518468 0.74173796
vn -0.0047920346 0.20528722 0.97869
vn 0.92057073 0.05877149 -0.38612875
vn 0.47331205 0.47518468 0.74173796
vn 0.61211646 -0.09545559 0.7849851
vn 0.96683884 -0.1494351 0.20710343
vn 0.96683884 -0.1494351 0.20710343
vn 0.96683884 -0.1494351 0.20710343
vn 0.96683884 -0.1494351 0.20710343
vn -0.28240085 0.6448345 0.7102381
vn -0.74508214 -0.54271424 0.3877033
vn -0.82990706 -0.3576417 -0.42819
vn -0.75279355 0.6294118 -0.19272424
vn -0.66796863 0.40578258 0.6238256
vn -0.18215322 -0.7046527 -0.6857731
vn -0.097328305 -0.90514797 0.41380474
vn -0.0510602 -0.15714645 0.98625445
vn -0.027926087 0.6139891 0.7888203
vn -0.13588512 0.9378661 -0.31928432
vn -0.31324625 0.16673052 -0.93492126
g ch_09_0
f 3/3/3 2/2/2 1/1/1
f 4/4/4 3/3/3 1/1/1
f 7/7/7 6/6/6 5/5/5
f 8/8/8 7/7/7 5/5/5
f 9/9/9 3/3/3 4/4/4
f 10/10/10 9/9/9 4/4/4
f 13/13/13 12/12/12 11/11/11
f 14/14/14 13/13/13 11/11/11
f 15/15/15 13/13/13 14/14/14
f 16/16/16 15/15/15 14/14/14
f 12/12/12 9/9/9 10/10/10
f 11/11/11 12/12/12 10/10/10
f 19/19/19 18/18/18 17/17/17
f 20/20/20 19/19/19 17/17/17
f 21/21/21 15/15/15 16/16/16
f 22/22/22 21/21/21 16/16/16
f 11/11/11 10/10/10 23/23/23
f 24/24/24 11/11/11 23/23/23
f 22/22/22 16/16/16 25/25/25
f 26/26/26 22/22/22 25/25/25
f 10/10/10 4/4/4 27/27/27
f 23/23/23 10/10/10 27/27/27
f 4/4/4 1/1/1 28/28/28
f 27/27/27 4/4/4 28/28/28
f 16/16/16 14/14/14 29/29/29
f 25/25/25 16/16/16 29/29/29
f 14/14/14 11/11/11 24/24/24
f 29/29/29 14/14/14 24/24/24
f 31/31/31 30/30/30 7/7/7
f 32/32/32 31/31/31 7/7/7
f 33/33/33 31/31/31 32/32/32
f 34/34/34 33/33/33 32/32/32
f 34/34/34 32/32/32 35/35/35
f 36/36/36 34/34/34 35/35/35
f 32/32/32 7/7/7 8/8/8
f 35/35/35 32/32/32 8/8/8
f 18/18/18 38/38/38 37/37/37
f 17/17/17 18/18/18 37/37/37
f 39/39/39 34/34/34 36/36/36
f 40/40/40 39/39/39 36/36/36
f 43/43/43 42/42/42 41/41/41
f 30/30/30 43/43/43 41/41/41
f 46/46/46 45/45/45 44/44/44
f 47/47/47 46/46/46 44/44/44
f 49/49/49 48/48/48 34/34/34
f 39/39/39 49/49/49 34/34/34
f 44/44/44 50/50/50 38/38/38
f 18/18/18 44/44/44 38/38/38
f 47/47/47 44/44/44 18/18/18
f 19/19/19 47/47/47 18/18/18
f 30/30/30 41/41/41 6/6/6
f 7/7/7 30/30/30 6/6/6
f 52/52/52 51/51/51 33/33/33
f 53/53/53 52/52/52 33/33/33
f 43/43/43 30/30/30 31/31/31
f 54/54/54 43/43/43 31/31/31
f 51/51/51 54/54/54 31/31/31
f 33/33/33 51/51/51 31/31/31
f 45/45/45 55/55/55 50/50/50
f 44/44/44 45/45/45 50/50/50
f 42/42/42 43/43/43 54/54/54
f 56/56/56 42/42/42 54/54/54
f 56/56/56 54/54/54 51/51/51
f 52/52/52 56/56/56 51/51/51
f 59/59/59 58/58/58 57/57/57
f 60/60/60 59/59/59 57/57/57
f 50/50/50 61/61/61 38/38/38
f 34/34/34 48/48/48 33/33/33
f 64/64/64 63/63/63 62/62/62
f 65/65/65 64/64/64 62/62/62
f 62/62/62 63/63/63 66/66/66
f 67/67/67 62/62/62 66/66/66
f 68/68/68 62/62/62 67/67/67
f 64/64/64 65/65/65 69/69/69
f 70/70/70 64/64/64 69/69/69
f 71/71/71 64/64/64 70/70/70
f 66/66/66 63/63/63 71/71/71
f 63/63/63 64/64/64 71/71/71
f 69/69/69 65/65/65 68/68/68
f 65/65/65 62/62/62 68/68/68
