g ch_02
v 0.07539612 -0.02234149 0.12942225
v 0.101136684 -0.02234149 0.18786097
v 0.101136684 -0.14294362 0.1723724
v 0.084480286 -0.13769472 0.102956414
v 0.021075368 -0.02234149 0.14246464
v 0.07539612 -0.02234149 0.12942225
v 0.084480286 -0.13769472 0.102956414
v 0.01481843 -0.12652078 0.10011685
v 0.087455094 -0.17800197 -5.9604645E-06
v 0.013208151 -0.16682804 -5.9604645E-06
v 0.10454172 -0.19125333 0.09393364
v 0.107934475 -0.20433259 -5.9604645E-06
v 0.087455094 -0.17800197 -5.9604645E-06
v 0.067676395 0.09747392 0.09560543
v 0.07381037 0.18535334 0.09393364
v 0.101136684 0.124566674 0.1779778
v 0.24981499 0.22359544 0.10987711
v 0.5021686 0.18203431 0.09384763
v 0.48221782 0.12073141 0.17779338
v 0.24542657 0.1566748 0.2052058
v 0.24981499 -0.23244563 0.10987711
v 0.25420344 -0.24552491 -5.9604645E-06
v 0.24542657 -0.02234149 0.23046696
v 0.24542657 -0.18412364 0.21497834
v 0.53677213 -0.01937896 0.09384763
v 0.5592552 -0.015678942 -5.9604645E-06
v 0.5126173 -0.2143633 -5.9604645E-06
v 0.5021686 -0.20770076 0.09384763
v 0.48221782 -0.021345794 0.18768889
v 0.48221782 -0.15624416 0.17602324
v 0.5021686 -0.20770076 0.09384763
v 0.5126173 -0.2143633 -5.9604645E-06
v 0.48221782 -0.021345794 0.18768889
v 0.48221782 -0.15624416 0.17602324
v 0.06837708 0.21104473 -5.9604645E-06
v 0.25420344 0.24633664 -5.9604645E-06
v 0.5126173 0.208242 -5.9604645E-06
v 0.06644714 0.12616473 -5.9604645E-06
v 0.012163281 0.12857407 -5.9604645E-06
v 0.06644714 0.12616473 -5.9604645E-06
v 0.067676395 0.09747392 0.09560543
v 0.013515472 0.09410578 0.095101476
v 0.48221782 0.12073141 0.17779338
v 0.5021686 0.18203431 0.09384763
v 0.5126173 0.208242 -5.9604645E-06
v 0.07539612 -0.02234149 -0.12942183
v 0.084480286 -0.13769472 -0.102956
v 0.101136684 -0.14294362 -0.17237198
v 0.101136684 -0.02234149 -0.18786058
v 0.084480286 -0.13769472 -0.102956
v 0.07539612 -0.02234149 -0.12942183
v 0.021075368 -0.02234149 -0.14246422
v 0.01481843 -0.12652078 -0.1001164
v 0.10454172 -0.19125333 -0.093933254
v 0.067676395 0.09747392 -0.095605046
v 0.101136684 0.124566674 -0.17797738
v 0.07381037 0.18535334 -0.093933254
v 0.24981499 0.22359544 -0.10987669
v 0.24542657 0.1566748 -0.20520535
v 0.48221782 0.12073141 -0.177793
v 0.5021686 0.18203431 -0.093847215
v 0.24981499 -0.23244563 -0.10987669
v 0.24542657 -0.18412364 -0.21497792
v 0.24542657 -0.02234149 -0.23046654
v 0.53677213 -0.01937896 -0.093847215
v 0.5021686 -0.20770076 -0.093847215
v 0.48221782 -0.15624416 -0.17602286
v 0.48221782 -0.021345794 -0.1876885
v 0.5021686 -0.20770076 -0.093847215
v 0.48221782 -0.021345794 -0.1876885
v 0.48221782 -0.15624416 -0.17602286
v 0.067676395 0.09747392 -0.095605046
v 0.013515472 0.09410578 -0.09510106
v 0.48221782 0.12073141 -0.177793
v 0.5021686 0.18203431 -0.093847215
v -0.042108297 -0.021345794 -0.10643479
v -0.042108297 -0.021345794 0.10643518
v -0.046779454 -0.09918219 0.07479417
v -0.046779454 -0.09918219 -0.074793786
v -0.047750592 0.06563622 0.07104498
v -0.048770845 0.09138912 -5.9604645E-06
v -0.047750592 0.06563622 -0.071044534
v -0.047984123 -0.12928662 6.377697E-06
vt 0.0072392486 0.082997255
vt 0.0072392486 0.084171094
vt 0.009316048 0.08426139
vt 0.010128708 0.083268136
vt 0.0072392486 0.09247829
vt 0.0072392486 0.09148504
vt 0.0049818587 0.09148504
vt 0.0052527455 0.092658885
vt 0.0030856512 0.091936514
vt 0.0034468337 0.09311036
vt 0.010851073 0.08399051
vt 0.012566689 0.083629325
vt 0.012386098 0.082997255
vt 0.0045303805 0.08272637
vt 0.003175947 0.083629325
vt 0.0048012673 0.08426139
vt 0.0026341733 0.086428486
vt 0.0028147644 0.090762675
vt 0.0046206764 0.09040149
vt 0.004440085 0.08651878
vt 0.01130255 0.08651878
vt 0.0131987585 0.086428486
vt 0.0071489527 0.08660907
vt 0.009586934 0.08660907
vt 0.028458713 0.08751203
vt 0.03017433 0.087602325
vt 0.03017433 0.08399051
vt 0.028458713 0.0840808
vt 0.0071489527 0.09040149
vt 0.009496639 0.09040149
vt 0.011212255 0.090762675
vt 0.012837576 0.09103356
vt 0.026743097 0.08751203
vt 0.026923688 0.08507405
vt 0.0016409217 0.082997255
vt 0.00073796575 0.08633819
vt 0.0010991481 0.09103356
vt 0.0026341733 0.081733115
vt 0.011212255 0.09247829
vt 0.011212255 0.09157533
vt 0.009496639 0.09157533
vt 0.009406343 0.09247829
vt 0.026923688 0.090130605
vt 0.028458713 0.09121415
vt 0.03017433 0.09166563
vt 0.0072392486 0.082997255
vt 0.010128708 0.083268136
vt 0.009316048 0.08426139
vt 0.0072392486 0.084171094
vt 0.0049818587 0.09148504
vt 0.0072392486 0.09148504
vt 0.0072392486 0.09247829
vt 0.0052527455 0.092658885
vt 0.010851073 0.08399051
vt 0.0045303805 0.08272637
vt 0.0048012673 0.08426139
vt 0.003175947 0.083629325
vt 0.0026341733 0.086428486
vt 0.004440085 0.08651878
vt 0.0046206764 0.09040149
vt 0.0028147644 0.090762675
vt 0.01130255 0.08651878
vt 0.009586934 0.08660907
vt 0.0071489527 0.08660907
vt 0.028458713 0.08751203
vt 0.028458713 0.0840808
vt 0.009496639 0.09040149
vt 0.0071489527 0.09040149
vt 0.011212255 0.090762675
vt 0.026743097 0.08751203
vt 0.026923688 0.08507405
vt 0.009496639 0.09157533
vt 0.009406343 0.09247829
vt 0.026923688 0.090130605
vt 0.028458713 0.09121415
vt 0.0072392486 0.09247829
vt 0.0072392486 0.09247829
vt 0.0052527455 0.092658885
vt 0.0052527455 0.092658885
vt 0.009406343 0.09247829
vt 0.011212255 0.09247829
vt 0.009406343 0.09247829
vt 0.0034468337 0.09311036
vn -0.9371884 -0.027479827 0.34773955
vn -0.6626893 -0.01179415 0.7488015
vn -0.6626893 -0.40393567 0.63061786
vn -0.9293456 -0.3019789 0.21242756
vn -0.19996226 0.003891468 0.9797959
vn 0.0745368 0.003891468 0.9972107
vn -0.06663418 -0.7098061 0.70123833
vn -0.27839065 -0.6549063 0.7025642
vn -0.16074812 -0.98430514 0.07282433
vn -0.33257958 -0.94307524 -0
vn -0.6234752 -0.7490202 0.22415926
vn -0.6155349 -0.78810966 -0
vn -0.8888595 -0.4581799 -0
vn -0.96071684 0.0509485 0.27281386
vn -0.7254319 0.59210384 0.3509438
vn -0.59210384 0.34897614 0.7263806
vn -0.027420044 0.90581703 0.42278087
vn 0.64706343 0.65484643 0.39049333
vn 0.54510665 0.38034737 0.74712425
vn -0.04310572 0.5136756 0.856901
vn -0.090162635 -0.95293385 0.28946123
vn -0.07427193 -0.997238 -0
vn -0.0509485 0.003891468 0.9986937
vn -0.082319856 -0.5607923 0.82385397
vn 0.945091 -0.01179415 0.32659438
vn 0.9999908 -0.003951311 0.0016569163
vn 0.6784347 -0.73333454 -0.04412196
vn 0.6235349 -0.7176489 0.31013587
vn 0.5607923 0.003891468 0.8279473
vn 0.54510665 -0.43530703 0.716496
vn 0.6235349 -0.7176489 0.31013587
vn 0.6784347 -0.73333454 -0.04412196
vn 0.5607923 0.003891468 0.8279473
vn 0.54510665 -0.43530703 0.716496
vn -0.72255754 0.69131064 -0
vn -0.019574746 0.99980843 -0
vn 0.67059195 0.7411176 -0.032421105
vn -0.99870443 0.050886005 -0
vn -0.26270497 0.96071684 -0.089494444
vn -0.011734366 0.999931 -0.00059802
vn 0.051008284 0.70974624 0.7026083
vn -0.23133361 0.6940607 0.6817364
vn 0.54510665 0.38034737 0.74712425
vn 0.64706343 0.65484643 0.39049333
vn 0.67059195 0.7411176 -0.032421105
vn -0.9371884 -0.027479827 -0.34773955
vn -0.9293456 -0.3019789 -0.21242756
vn -0.6626893 -0.40393567 -0.63061786
vn -0.6626893 -0.01179415 -0.7488015
vn -0.06663418 -0.7098061 -0.70123833
vn 0.0745368 0.003891468 -0.9972107
vn -0.19996226 0.003891468 -0.9797959
vn -0.27839065 -0.6549063 -0.7025642
vn -0.6234752 -0.7490202 -0.22415926
vn -0.96071684 0.0509485 -0.27281386
vn -0.59210384 0.34897614 -0.7263806
vn -0.7254319 0.59210384 -0.3509438
vn -0.027420044 0.90581703 -0.42278087
vn -0.04310572 0.5136756 -0.856901
vn 0.54510665 0.38034737 -0.74712425
vn 0.64706343 0.65484643 -0.39049333
vn -0.090162635 -0.95293385 -0.28946123
vn -0.082319856 -0.5607923 -0.82385397
vn -0.0509485 0.003891468 -0.9986937
vn 0.945091 -0.01179415 -0.32659438
vn 0.6235349 -0.7176489 -0.31013587
vn 0.54510665 -0.43530703 -0.716496
vn 0.5607923 0.003891468 -0.8279473
vn 0.6235349 -0.7176489 -0.31013587
vn 0.5607923 0.003891468 -0.8279473
vn 0.54510665 -0.43530703 -0.716496
vn 0.051008284 0.70974624 -0.7026083
vn -0.23133361 0.6940607 -0.6817364
vn 0.54510665 0.38034737 -0.74712425
vn 0.64706343 0.65484643 -0.39049333
vn -0.8038603 0.003891468 -0.59480536
vn -0.8038603 0.003891468 0.59480536
vn -0.82738876 -0.37256438 0.42026615
vn -0.82738876 -0.37256438 -0.42026615
vn -0.82738876 0.38034737 0.41323566
vn -0.83523154 0.5450468 -0.07288507
vn -0.82738876 0.38034737 -0.41323566
vn -0.8338299 -0.5520215 -0
g ch_02_0
f 3/3/3 2/2/2 1/1/1
f 4/4/4 3/3/3 1/1/1
f 7/7/7 6/6/6 5/5/5
f 8/8/8 7/7/7 5/5/5
f 9/9/9 7/7/7 8/8/8
f 10/10/10 9/9/9 8/8/8
f 12/12/12 11/11/11 4/4/4
f 13/13/13 12/12/12 4/4/4
f 16/16/16 15/15/15 14/14/14
f 19/19/19 18/18/18 17/17/17
f 20/20/20 19/19/19 17/17/17
f 22/22/22 21/21/21 11/11/11
f 12/12/12 22/22/22 11/11/11
f 20/20/20 17/17/17 15/15/15
f 16/16/16 20/20/20 15/15/15
f 24/24/24 23/23/23 2/2/2
f 3/3/3 24/24/24 2/2/2
f 27/27/27 26/26/26 25/25/25
f 28/28/28 27/27/27 25/25/25
f 30/30/30 29/29/29 23/23/23
f 24/24/24 30/30/30 23/23/23
f 32/32/32 31/31/31 21/21/21
f 22/22/22 32/32/32 21/21/21
f 31/31/31 30/30/30 24/24/24
f 21/21/21 31/31/31 24/24/24
f 34/34/34 25/25/25 33/33/33
f 17/17/17 36/36/36 35/35/35
f 15/15/15 17/17/17 35/35/35
f 21/21/21 24/24/24 3/3/3
f 11/11/11 21/21/21 3/3/3
f 18/18/18 37/37/37 36/36/36
f 17/17/17 18/18/18 36/36/36
f 15/15/15 35/35/35 38/38/38
f 14/14/14 15/15/15 38/38/38
f 11/11/11 3/3/3 4/4/4
f 41/41/41 40/40/40 39/39/39
f 42/42/42 41/41/41 39/39/39
f 25/25/25 44/44/44 43/43/43
f 29/29/29 19/19/19 20/20/20
f 23/23/23 29/29/29 20/20/20
f 26/26/26 45/45/45 44/44/44
f 25/25/25 26/26/26 44/44/44
f 23/23/23 20/20/20 16/16/16
f 2/2/2 23/23/23 16/16/16
f 6/6/6 41/41/41 42/42/42
f 5/5/5 6/6/6 42/42/42
f 2/2/2 16/16/16 14/14/14
f 1/1/1 2/2/2 14/14/14
f 48/48/48 47/47/47 46/46/46
f 49/49/49 48/48/48 46/46/46
f 52/52/52 51/51/51 50/50/50
f 53/53/53 52/52/52 50/50/50
f 53/53/53 50/50/50 9/9/9
f 10/10/10 53/53/53 9/9/9
f 12/12/12 13/13/13 47/47/47
f 54/54/54 12/12/12 47/47/47
f 57/57/57 56/56/56 55/55/55
f 60/60/60 59/59/59 58/58/58
f 61/61/61 60/60/60 58/58/58
f 22/22/22 12/12/12 54/54/54
f 62/62/62 22/22/22 54/54/54
f 59/59/59 56/56/56 57/57/57
f 58/58/58 59/59/59 57/57/57
f 63/63/63 48/48/48 49/49/49
f 64/64/64 63/63/63 49/49/49
f 27/27/27 66/66/66 65/65/65
f 26/26/26 27/27/27 65/65/65
f 67/67/67 63/63/63 64/64/64
f 68/68/68 67/67/67 64/64/64
f 32/32/32 22/22/22 62/62/62
f 69/69/69 32/32/32 62/62/62
f 69/69/69 62/62/62 63/63/63
f 67/67/67 69/69/69 63/63/63
f 65/65/65 71/71/71 70/70/70
f 58/58/58 57/57/57 35/35/35
f 36/36/36 58/58/58 35/35/35
f 62/62/62 54/54/54 48/48/48
f 63/63/63 62/62/62 48/48/48
f 61/61/61 58/58/58 36/36/36
f 37/37/37 61/61/61 36/36/36
f 57/57/57 55/55/55 38/38/38
f 35/35/35 57/57/57 38/38/38
f 54/54/54 47/47/47 48/48/48
f 39/39/39 40/40/40 72/72/72
f 73/73/73 39/39/39 72/72/72
f 65/65/65 70/70/70 74/74/74
f 68/68/68 64/64/64 59/59/59
f 60/60/60 68/68/68 59/59/59
f 26/26/26 65/65/65 75/75/75
f 45/45/45 26/26/26 75/75/75
f 64/64/64 49/49/49 56/56/56
f 59/59/59 64/64/64 56/56/56
f 73/73/73 72/72/72 51/51/51
f 52/52/52 73/73/73 51/51/51
f 49/49/49 46/46/46 55/55/55
f 56/56/56 49/49/49 55/55/55
f 78/78/78 77/77/77 76/76/76
f 79/79/79 78/78/78 76/76/76
f 77/77/77 78/78/78 8/8/8
f 5/5/5 77/77/77 8/8/8
f 80/80/80 77/77/77 5/5/5
f 42/42/42 80/80/80 5/5/5
f 81/81/81 80/80/80 42/42/42
f 39/39/39 81/81/81 42/42/42
f 82/82/82 81/81/81 39/39/39
f 73/73/73 82/82/82 39/39/39
f 76/76/76 82/82/82 73/73/73
f 52/52/52 76/76/76 73/73/73
f 79/79/79 76/76/76 52/52/52
f 53/53/53 79/79/79 52/52/52
f 83/83/83 79/79/79 53/53/53
f 10/10/10 83/83/83 53/53/53
f 78/78/78 83/83/83 10/10/10
f 8/8/8 78/78/78 10/10/10
f 76/76/76 77/77/77 80/80/80
f 82/82/82 76/76/76 80/80/80
f 81/81/81 82/82/82 80/80/80
f 83/83/83 78/78/78 79/79/79
f 28/28/28 25/25/25 34/34/34
f 33/33/33 25/25/25 43/43/43
f 66/66/66 71/71/71 65/65/65
f 75/75/75 65/65/65 74/74/74
