g ch_01
v 0.112419546 0.24292144 1.3298653
v 0.23115313 0.17293653 1.322414
v 0.19108807 0.12691045 1.4808401
v 0.09293154 0.18477264 1.4956567
v 0.28463054 0.02792281 1.3135297
v 0.20272356 -0.17383544 1.4139217
v 0.1774178 -0.12706421 1.4974623
v 0.23530866 0.028467327 1.4789486
v 0.11766411 0.028467327 1.5442622
v 1.9580126E-05 0.028467327 1.564266
v 1.9580126E-05 0.195577 1.5049136
v 0.09293154 0.18477264 1.4956567
v 0.106773764 -0.23886237 1.4194242
v 1.9580126E-05 -0.25210273 1.4217169
v 1.9580126E-05 -0.17896537 1.5222235
v 0.09293154 -0.16816099 1.5129666
v 0.09293154 -0.16816099 1.5129666
v 1.9580126E-05 -0.17896537 1.5222235
v 0.28463054 0.02792281 1.3135297
v 0.23530866 0.028467327 1.4789486
v 0.1774178 -0.12706421 1.4974623
v 0.23530866 0.028467327 1.4789486
v 0.19108807 0.12691045 1.4808401
v 1.9580126E-05 0.25598988 1.3317568
v 1.9580126E-05 0.195577 1.5049136
v 0.23665562 -0.20504493 1.2876508
v 0.25729 -0.03079918 0.97810674
v 0.19879729 -0.14451745 1.2469553
v 0.24038127 -0.21091998 1.254034
v 1.9580126E-05 0.27410224 1.0156498
v 0.11471225 0.2607759 1.0087143
v 0.23588184 0.18935803 0.97810674
v 0.29047692 0.037552178 0.97810674
v 0.29047692 0.037552178 0.97810674
v 0.25729 -0.03079918 0.97810674
v 0.24038127 -0.21091998 1.254034
v 0.112276256 -0.2689828 1.3194908
v 0.10413714 -0.20991692 1.2555816
v 0.11359456 -0.30067948 1.2718599
v 0.11359456 -0.30067948 1.2718599
v 1.9580126E-05 -0.3138912 1.2736367
v 1.9580126E-05 -0.28104818 1.3232738
v 1.9580126E-05 -0.22201096 1.2571006
v 1.9580126E-05 -0.3138912 1.2736367
v -0.112409055 0.24292144 1.3298653
v -0.09292105 0.18477264 1.4956567
v -0.19107756 0.12691045 1.4808401
v -0.23114267 0.17293653 1.322414
v -0.28462002 0.02792281 1.3135297
v -0.23529819 0.028467327 1.4789486
v -0.17740732 -0.12706421 1.4974623
v -0.20271304 -0.17383544 1.4139217
v -0.11765364 0.028467327 1.5442622
v -0.09292105 0.18477264 1.4956567
v -0.10676327 -0.23886237 1.4194242
v -0.09292105 -0.16816099 1.5129666
v -0.09292105 -0.16816099 1.5129666
v -0.23529819 0.028467327 1.4789486
v -0.28462002 0.02792281 1.3135297
v -0.17740732 -0.12706421 1.4974623
v -0.23529819 0.028467327 1.4789486
v -0.19107756 0.12691045 1.4808401
v -0.23664513 -0.20504493 1.2876508
v -0.2572795 -0.03079918 0.97810674
v -0.24037078 -0.21091998 1.254034
v -0.19878682 -0.14451745 1.2469553
v -0.11470178 0.2607759 1.0087143
v -0.23587134 0.18935803 0.97810674
v -0.29046646 0.037552178 0.97810674
v -0.29046646 0.037552178 0.97810674
v -0.24037078 -0.21091998 1.254034
v -0.112265766 -0.2689828 1.3194908
v -0.11358407 -0.30067948 1.2718599
v -0.10412666 -0.20991692 1.2555816
v -0.11358407 -0.30067948 1.2718599
v -0.2572795 -0.03079918 0.97810674
v 1.9580126E-05 0.21277234 1.4113424
v 1.9580126E-05 -0.20441443 1.4620972
v 0.13749604 -0.16833295 1.4517514
v 0.14927481 0.17136028 1.40071
v 0.19879729 -0.14451745 1.2469553
v 0.11471225 0.2607759 1.0087143
v 1.9580126E-05 0.27410224 1.0156498
v 0.29047692 0.037552178 0.97810674
v 0.23588184 0.18935803 0.97810674
v 0.10413714 -0.20991692 1.2555816
v -0.14926434 0.17136028 1.40071
v -0.13748553 -0.16833295 1.4517514
v -0.11470178 0.2607759 1.0087143
v -0.19878682 -0.14451745 1.2469553
v -0.29046646 0.037552178 0.97810674
v -0.23587134 0.18935803 0.97810674
v -0.10412666 -0.20991692 1.2555816
v 1.9580126E-05 -0.22201096 1.2571006
v 0.25729 -0.03079918 0.97810674
v -0.2572795 -0.03079918 0.97810674
vt 0.0017011444 0.06510173
vt 0.0024980789 0.063862056
vt 0.0032950137 0.062622376
vt 0.0016125961 0.063862056
vt 0.0137437135 0.06687269
vt 0.009581943 0.06811237
vt 0.010467427 0.06917495
vt 0.01338952 0.06811237
vt 0.016842904 0.069440596
vt 0.015249034 0.069440596
vt 0.015337583 0.07191995
vt 0.016665807 0.07174285
vt 0.00869646 0.06713834
vt 0.007279687 0.068289466
vt 0.007279687 0.069352046
vt 0.00869646 0.068200916
vt 0.016577259 0.06616431
vt 0.015160486 0.06607576
vt 0.005774366 0.064747535
vt 0.0053316248 0.063507855
vt 0.017197097 0.0666956
vt 0.018790966 0.069440596
vt 0.017374193 0.07130011
vt 0.00019582323 0.06510173
vt 0.00019582323 0.063773505
vt 0.010467427 0.065721564
vt 0.014009358 0.062091086
vt 0.01338952 0.06811237
vt 0.010378879 0.06519028
vt 0.00019582323 0.069529146
vt 0.001878241 0.06961769
vt 0.0040034 0.06988334
vt 0.006305656 0.06961769
vt 0.015160486 0.06244528
vt 0.014009358 0.062091086
vt 0.010378879 0.06519028
vt 0.008607912 0.06625286
vt 0.008785008 0.06448189
vt 0.008519364 0.06563302
vt 0.008519364 0.06563302
vt 0.007279687 0.06563302
vt 0.007279687 0.06642995
vt 0.007279687 0.06439334
vt 0.007279687 0.06563302
vt 0.0024980789 0.063862056
vt 0.0016125961 0.062622376
vt 0.003383562 0.063862056
vt 0.0035606585 0.06501318
vt 0.01338952 0.06811237
vt 0.012946779 0.069352046
vt 0.009581943 0.06811237
vt 0.010378879 0.067049794
vt 0.016842904 0.069440596
vt 0.017374193 0.07130011
vt 0.00869646 0.068200916
vt 0.00869646 0.06917495
vt 0.016577259 0.06616431
vt 0.004888883 0.062268183
vt 0.0053316248 0.063507855
vt 0.017197097 0.0666956
vt 0.018790966 0.069440596
vt 0.018171128 0.07085737
vt 0.010467427 0.065721564
vt 0.014009358 0.062091086
vt 0.010378879 0.06519028
vt 0.010378879 0.0641277
vt 0.001878241 0.06961769
vt 0.0040034 0.06988334
vt 0.006305656 0.06961769
vt 0.015160486 0.06244528
vt 0.010378879 0.06519028
vt 0.008607912 0.06625286
vt 0.008519364 0.06563302
vt 0.008785008 0.06448189
vt 0.008519364 0.06563302
vt 0.014009358 0.062091086
vt 0.019499354 0.09007235
vt 0.019499354 0.08537929
vt 0.020827578 0.08582203
vt 0.020916127 0.089629605
vt 0.021358868 0.086087674
vt 0.020561934 0.09060364
vt 0.019499354 0.090780735
vt 0.022244351 0.08812428
vt 0.021713061 0.089806706
vt 0.020473385 0.08537929
vt 0.01808258 0.089629605
vt 0.018171128 0.08582203
vt 0.018348224 0.09060364
vt 0.01755129 0.086087674
vt 0.016665807 0.08812428
vt 0.017197097 0.089806706
vt 0.018525321 0.08537929
vt 0.019499354 0.085202195
vt 0.021978706 0.08732735
vt 0.01702 0.08732735
vn 0.3250847 0.92042065 0.2171308
vn 0.7559199 0.62275267 0.20190172
vn 0.62275267 0.4895854 0.61031574
vn 0.28591788 0.6854197 0.66966474
vn 0.98308754 0.05875027 0.17345686
vn 0.74025315 -0.544419 0.39450383
vn 0.60708594 -0.37208492 0.7021392
vn 0.8029201 0.05091691 0.5939081
vn 0.29375124 0.074416995 0.95298076
vn -0.0039167404 0.06658363 0.9977732
vn -0.0039167404 0.70891976 0.7052783
vn 0.28591788 0.6854197 0.66966474
vn 0.31725132 -0.8420869 0.4361665
vn -0.0039167404 -0.8969205 0.44217452
vn -0.0039167404 -0.5365856 0.84383684
vn 0.2624178 -0.52091885 0.81226873
vn 0.2624178 -0.52091885 0.81226873
vn -0.0039167404 -0.5365856 0.84383684
vn 0.98308754 0.05875027 0.17345686
vn 0.8029201 0.05091691 0.5939081
vn 0.60708594 -0.37208492 0.7021392
vn 0.8029201 0.05091691 0.5939081
vn 0.62275267 0.4895854 0.61031574
vn -0.0039167404 0.98308754 0.1830944
vn -0.0039167404 0.70891976 0.7052783
vn 0.79508674 -0.5287522 0.29708278
vn -0.7637533 -0.52091885 -0.3812145
vn -0.49741876 -0.41125172 -0.76383674
vn -0.3485849 -0.34075147 -0.87314206
vn -0.0039167404 0.99875426 0.04974541
vn 0.34075147 0.93608737 0.087343335
vn 0.77942 0.62275267 0.06843671
vn 0.99875426 0.019583464 -0.045895666
vn 0.99875426 0.019583464 -0.045895666
vn 0.87342036 -0.4269185 -0.23425946
vn 0.87342036 -0.4504186 0.18509455
vn 0.34075147 -0.85775363 0.3848988
vn -0.0039167404 -0.16058397 -0.9870144
vn -0.0039167404 -0.1684174 -0.985708
vn 0.30941796 -0.8185868 0.48391744
vn -0.0039167404 -0.83425355 0.5513671
vn -0.0039167404 -0.90475386 0.42591682
vn -0.0039167404 -0.17625076 -0.9843375
vn -0.0039167404 -0.17625076 -0.9843375
vn -0.3250848 0.92042065 0.21713066
vn -0.28591788 0.6854197 0.66966474
vn -0.62275267 0.4895854 0.61031574
vn -0.75591993 0.62275267 0.20190142
vn -0.98308754 0.05875027 0.17345686
vn -0.8029201 0.05091691 0.5939081
vn -0.60708594 -0.37208492 0.7021392
vn -0.7402532 -0.544419 0.39450368
vn -0.29375124 0.074416995 0.95298076
vn -0.28591788 0.6854197 0.66966474
vn -0.31725132 -0.8420869 0.4361665
vn -0.2624178 -0.52091885 0.81226873
vn -0.2624178 -0.52091885 0.81226873
vn -0.8029201 0.05091691 0.5939081
vn -0.98308754 0.05875027 0.17345686
vn -0.60708594 -0.37208492 0.7021392
vn -0.8029201 0.05091691 0.5939081
vn -0.62275267 0.4895854 0.61031574
vn -0.79508674 -0.5287522 0.29708278
vn 0.76375324 -0.52091885 -0.3812146
vn 0.34858483 -0.34075147 -0.87314206
vn 0.49741876 -0.41125172 -0.76383674
vn -0.34075153 0.93608737 0.08734299
vn -0.77942 0.62275267 0.06843671
vn -0.99875426 0.019583464 -0.045895666
vn -0.99875426 0.019583464 -0.045895666
vn -0.8734205 -0.4504186 0.1850939
vn -0.34075153 -0.85775363 0.38489875
vn 0.003916681 -0.1684174 -0.985708
vn 0.003916681 -0.16058397 -0.9870144
vn -0.30941796 -0.8185868 0.48391744
vn -0.8734205 -0.4269185 -0.23425893
vn -0.0039167404 -0.7245864 -0.6891728
vn -0.0039167404 0.6619195 -0.74956477
vn -0.56791914 0.4504186 -0.6889056
vn -0.5757525 -0.5130855 -0.63659436
vn -0.928254 0.28591788 -0.23789796
vn -0.37208498 -0.9125872 -0.16952081
vn -0.0039167404 -0.98308754 -0.1830944
vn -0.98308754 0.0039167404 -0.18309434
vn -0.79508674 -0.57575244 -0.19064678
vn -0.37208498 0.92042065 -0.11991083
vn 0.57575244 -0.5130855 -0.63659436
vn 0.5679191 0.4504186 -0.68890566
vn 0.37208492 -0.9125872 -0.16952099
vn 0.92825395 0.28591788 -0.2378982
vn 0.98308754 0.0039167404 -0.18309434
vn 0.79508674 -0.57575244 -0.19064678
vn 0.37208492 0.92042065 -0.11991108
vn -0.0039167404 0.9909209 -0.13438916
vn -0.89692056 0.43475187 -0.08077329
vn 0.8969205 0.43475187 -0.08077403
g ch_01_0
f 3/3/3 2/2/2 1/1/1
f 4/4/4 3/3/3 1/1/1
f 7/7/7 6/6/6 5/5/5
f 8/8/8 7/7/7 5/5/5
f 11/11/11 10/10/10 9/9/9
f 12/12/12 11/11/11 9/9/9
f 15/15/15 14/14/14 13/13/13
f 16/16/16 15/15/15 13/13/13
f 10/10/10 18/18/18 17/17/17
f 9/9/9 10/10/10 17/17/17
f 20/20/20 19/19/19 2/2/2
f 3/3/3 20/20/20 2/2/2
f 9/9/9 17/17/17 21/21/21
f 16/16/16 13/13/13 6/6/6
f 7/7/7 16/16/16 6/6/6
f 23/23/23 9/9/9 22/22/22
f 4/4/4 1/1/1 24/24/24
f 25/25/25 4/4/4 24/24/24
f 6/6/6 26/26/26 5/5/5
f 29/29/29 28/28/28 27/27/27
f 1/1/1 31/31/31 30/30/30
f 24/24/24 1/1/1 30/30/30
f 19/19/19 33/33/33 32/32/32
f 2/2/2 19/19/19 32/32/32
f 36/36/36 35/35/35 34/34/34
f 2/2/2 32/32/32 31/31/31
f 1/1/1 2/2/2 31/31/31
f 13/13/13 37/37/37 26/26/26
f 6/6/6 13/13/13 26/26/26
f 38/38/38 28/28/28 29/29/29
f 39/39/39 38/38/38 29/29/29
f 42/42/42 41/41/41 40/40/40
f 37/37/37 42/42/42 40/40/40
f 43/43/43 38/38/38 39/39/39
f 44/44/44 43/43/43 39/39/39
f 26/26/26 36/36/36 5/5/5
f 13/13/13 14/14/14 42/42/42
f 37/37/37 13/13/13 42/42/42
f 47/47/47 46/46/46 45/45/45
f 48/48/48 47/47/47 45/45/45
f 51/51/51 50/50/50 49/49/49
f 52/52/52 51/51/51 49/49/49
f 11/11/11 54/54/54 53/53/53
f 10/10/10 11/11/11 53/53/53
f 15/15/15 56/56/56 55/55/55
f 14/14/14 15/15/15 55/55/55
f 10/10/10 53/53/53 57/57/57
f 18/18/18 10/10/10 57/57/57
f 58/58/58 47/47/47 48/48/48
f 59/59/59 58/58/58 48/48/48
f 53/53/53 61/61/61 60/60/60
f 56/56/56 51/51/51 52/52/52
f 55/55/55 56/56/56 52/52/52
f 53/53/53 62/62/62 61/61/61
f 46/46/46 25/25/25 24/24/24
f 45/45/45 46/46/46 24/24/24
f 63/63/63 52/52/52 49/49/49
f 66/66/66 65/65/65 64/64/64
f 45/45/45 24/24/24 30/30/30
f 67/67/67 45/45/45 30/30/30
f 59/59/59 48/48/48 68/68/68
f 69/69/69 59/59/59 68/68/68
f 71/71/71 49/49/49 70/70/70
f 48/48/48 45/45/45 67/67/67
f 68/68/68 48/48/48 67/67/67
f 55/55/55 52/52/52 63/63/63
f 72/72/72 55/55/55 63/63/63
f 74/74/74 73/73/73 65/65/65
f 66/66/66 74/74/74 65/65/65
f 42/42/42 72/72/72 75/75/75
f 41/41/41 42/42/42 75/75/75
f 73/73/73 74/74/74 43/43/43
f 44/44/44 73/73/73 43/43/43
f 63/63/63 71/71/71 75/75/75
f 72/72/72 63/63/63 75/75/75
f 63/63/63 49/49/49 71/71/71
f 55/55/55 72/72/72 42/42/42
f 14/14/14 55/55/55 42/42/42
f 22/22/22 9/9/9 21/21/21
f 12/12/12 9/9/9 23/23/23
f 57/57/57 53/53/53 60/60/60
f 54/54/54 62/62/62 53/53/53
f 40/40/40 36/36/36 26/26/26
f 37/37/37 40/40/40 26/26/26
f 76/76/76 71/71/71 70/70/70
f 5/5/5 36/36/36 34/34/34
f 79/79/79 78/78/78 77/77/77
f 80/80/80 79/79/79 77/77/77
f 81/81/81 79/79/79 80/80/80
f 83/83/83 82/82/82 80/80/80
f 77/77/77 83/83/83 80/80/80
f 80/80/80 84/84/84 81/81/81
f 82/82/82 85/85/85 80/80/80
f 81/81/81 86/86/86 79/79/79
f 88/88/88 87/87/87 77/77/77
f 78/78/78 88/88/88 77/77/77
f 83/83/83 77/77/77 87/87/87
f 89/89/89 83/83/83 87/87/87
f 91/91/91 87/87/87 90/90/90
f 90/90/90 87/87/87 88/88/88
f 89/89/89 87/87/87 92/92/92
f 93/93/93 88/88/88 78/78/78
f 94/94/94 93/93/93 78/78/78
f 78/78/78 79/79/79 86/86/86
f 94/94/94 78/78/78 86/86/86
f 93/93/93 90/90/90 88/88/88
f 84/84/84 95/95/95 81/81/81
f 96/96/96 91/91/91 90/90/90
f 92/92/92 87/87/87 91/91/91
f 85/85/85 84/84/84 80/80/80
