g ch_00
v 0.38782954 -0.27553576 -1.758337E-06
v 0.38782954 -0.23059264 0.18967146
v 0.46857125 -0.120137066 0.14086574
v 0.46603498 -0.1764701 -1.758337E-06
v 0.4197423 0.17910755 0.21459198
v 0.4104349 0.25481158 0.15631604
v 0.467815 0.14640367 0.14548457
v 0.41919547 -0.121370286 0.23227608
v 0.44927004 0.021684468 0.23227608
v 0.47180557 0.022661746 0.15683955
v -0.0049776733 0.018333822 0.22445786
v 0.008820534 0.17787433 0.20922863
v 0.076194495 0.17034692 0.21076435
v 0.07194799 0.019706637 0.22451603
v 0.25664175 -0.12291765 0.17439568
v 0.3930766 -0.1108762 0.180143
v 0.41919547 -0.121370286 0.23227608
v 0.26160955 -0.13458678 0.22203791
v -0.0009871423 -0.21474677 0.17368597
v -0.0038724244 -0.11904344 0.21172994
v 0.076194495 -0.11058533 0.21129948
v 0.076194495 -0.21474677 0.17368597
v 0.25127834 -0.2288475 0.17886323
v 0.26160955 -0.13458678 0.22203791
v 0.083919615 0.020369798 0.17504716
v 0.08787528 -0.10047516 0.16840404
v 0.076194495 -0.11058533 0.21129948
v 0.07194799 0.019706637 0.22451603
v 0.009460419 0.24193251 0.15052217
v 0.076194495 0.25150746 0.15459418
v 0.2578982 0.18860108 0.21083415
v 0.24878861 0.2638747 0.15537363
v -0.0009871423 -0.27116126 -1.758337E-06
v 0.076194495 -0.27116126 -1.758337E-06
v 0.25127834 -0.2777928 -1.758337E-06
v 0.42077774 0.022219658 0.180143
v 0.3995336 0.16277301 0.17911917
v 0.4197423 0.17910755 0.21459198
v 0.44927004 0.021684468 0.23227608
v 0.2563276 0.17952639 0.17406988
v 0.08787528 0.16468108 0.16813642
v 0.076194495 0.17034692 0.21076435
v 0.2578982 0.18860108 0.21083415
v 0.24878861 0.29064512 -1.758337E-06
v 0.4104349 0.2783128 -1.758337E-06
v -0.0009871423 0.28461856 -1.758337E-06
v 0.076194495 0.28461856 -1.758337E-06
v 0.46789646 0.1874609 -1.758337E-06
v -0.0036979318 -0.14455736 0.15746784
v -0.0038724244 -0.11904344 0.21172994
v -0.0009871423 -0.21474677 0.17368597
v 0.009460419 0.24193251 0.15052217
v 0.013253182 0.17315078 0.1458103
v 0.0013280809 0.23036802 -0.00036242604
v -0.0009871423 0.28461856 -1.758337E-06
v 0.008820534 0.17787433 0.20922863
v -0.005000949 0.012272358 0.1823535
v -0.0049776733 0.018333822 0.22445786
v -0.0009871423 -0.27116126 -1.758337E-06
v -0.0009871423 -0.22743976 -1.3411045E-05
v 0.46857125 -0.120137066 -0.14086929
v 0.38782954 -0.23059264 -0.18966335
v 0.4197423 0.17910755 -0.2145839
v 0.467815 0.14640367 -0.14548808
v 0.4104349 0.25481158 -0.15631959
v 0.41919547 -0.121370286 -0.23226798
v 0.44927004 0.021684468 -0.23226798
v 0.47180557 0.022661746 -0.15684313
v 0.076194495 0.17034692 -0.21075624
v -0.0009871423 0.18107373 -0.21075624
v -0.0051638484 0.019264549 -0.22449629
v 0.07194799 0.019706637 -0.22451955
v 0.25675806 -0.122882724 -0.17437592
v 0.26187712 -0.13448209 -0.22199492
v 0.41919547 -0.121370286 -0.23226798
v 0.39306498 -0.1108762 -0.18014652
v -0.0009871423 -0.21474677 -0.17367789
v 0.076194495 -0.21474677 -0.17367789
v 0.076194495 -0.11058533 -0.2112914
v -0.0016619265 -0.11881074 -0.21139613
v 0.25127834 -0.2288475 -0.17885512
v 0.26187712 -0.13448209 -0.22199492
v 0.076194495 -0.11058533 -0.2112914
v 0.08787528 -0.10047516 -0.16840756
v 0.083919615 0.020369798 -0.17503908
v 0.07194799 0.019706637 -0.22451955
v 0.076194495 0.25150746 -0.1545977
v -0.0009871423 0.24521333 -0.1521545
v 0.2578168 0.1886825 -0.21087259
v 0.24878861 0.2638747 -0.15537721
v 0.42077774 0.022219658 -0.18014652
v 0.44927004 0.021684468 -0.23226798
v 0.4197423 0.17910755 -0.2145839
v 0.3995336 0.16277301 -0.17912272
v 0.076194495 0.17034692 -0.21075624
v 0.08787528 0.16468108 -0.16813996
v 0.2562927 0.17959619 -0.1740967
v 0.2578168 0.1886825 -0.21087259
v -0.0016619265 -0.11881074 -0.21139613
v -0.0024879575 -0.14438283 -0.15733176
v -0.0009871423 -0.21474677 -0.17367789
v 0.0010255873 0.17725766 -0.14762878
v -0.0009871423 0.24521333 -0.1521545
v -0.0009871423 0.18107373 -0.21075624
v -0.0051754713 0.013342708 -0.18243846
v -0.0051638484 0.019264549 -0.22449629
v 0.46603498 -0.1764701 -1.758337E-06
v 0.46857125 -0.120137066 0.14086574
v 0.47180557 0.022661746 0.15683955
v -0.0036979318 -0.14455736 0.15746784
v -0.0009871423 -0.22743976 -1.3411045E-05
v -0.0024879575 -0.14438283 -0.15733176
v 0.3930766 -0.1108762 0.180143
v 0.25664175 -0.12291765 0.17439568
v 0.42077774 0.022219658 0.180143
v 0.25675806 -0.122882724 -0.17437592
v 0.39306498 -0.1108762 -0.18014652
v 0.42077774 0.022219658 -0.18014652
v 0.2562927 0.17959619 -0.1740967
v 0.083919615 0.020369798 -0.17503908
v 0.2563276 0.17952639 0.17406988
v 0.083919615 0.020369798 0.17504716
v 0.08787528 0.16468108 0.16813642
v 0.08787528 -0.10047516 0.16840404
v 0.3995336 0.16277301 0.17911917
v 0.08787528 0.16468108 -0.16813996
v 0.08787528 -0.10047516 -0.16840756
v 0.3995336 0.16277301 -0.17912272
v 0.47180557 0.022661746 -0.15684313
v 0.46789646 0.1874609 -1.758337E-06
v 0.46857125 -0.120137066 -0.14086929
v 0.467815 0.14640367 0.14548457
v 0.467815 0.14640367 -0.14548808
v 0.013253182 0.17315078 0.1458103
v -0.005000949 0.012272358 0.1823535
v -0.0051754713 0.013342708 -0.18243846
v 0.0010255873 0.17725766 -0.14762878
v 0.0013280809 0.23036802 -0.00036242604
vt 0.014182953 0.07913879
vt 0.011042822 0.07833133
vt 0.009786771 0.08057428
vt 0.012837183 0.0816509
vt 0.00485228 0.07860049
vt 0.003416792 0.07860049
vt 0.004672844 0.08039485
vt 0.0092484625 0.07860049
vt 0.0070952307 0.07922851
vt 0.0070952307 0.080664
vt 0.007274667 0.071512766
vt 0.004762562 0.0716922
vt 0.004941998 0.07303797
vt 0.007274667 0.072679095
vt 0.0091587445 0.075998664
vt 0.008799872 0.077882744
vt 0.0092484625 0.07860049
vt 0.009786771 0.0761781
vt 0.01113254 0.07178192
vt 0.009517617 0.07178192
vt 0.0092484625 0.07303797
vt 0.011222258 0.07303797
vt 0.011401694 0.076088384
vt 0.009786771 0.0761781
vt 0.007184949 0.07348656
vt 0.008799872 0.07357628
vt 0.0092484625 0.07303797
vt 0.007274667 0.072679095
vt 0.003416792 0.07160248
vt 0.003237356 0.072858535
vt 0.00440369 0.076088384
vt 0.0029682019 0.075908944
vt 0.014182953 0.071064174
vt 0.014541825 0.07258938
vt 0.014631543 0.076267816
vt 0.0070952307 0.07833133
vt 0.005390588 0.07797246
vt 0.00485228 0.07860049
vt 0.0070952307 0.07922851
vt 0.005121434 0.075998664
vt 0.005390588 0.07357628
vt 0.004941998 0.07303797
vt 0.00440369 0.076088384
vt 7.507624E-06 0.075998664
vt 0.0005458157 0.079497665
vt 0.0007252517 0.07079502
vt 0.00027666165 0.07232022
vt 0.0016224318 0.0816509
vt 0.010235361 0.07124361
vt 0.009517617 0.07178192
vt 0.01113254 0.07178192
vt 0.003416792 0.07160248
vt 0.004134536 0.071064174
vt 0.0009944057 0.07025671
vt 0.0007252517 0.07079502
vt 0.004762562 0.0716922
vt 0.007274667 0.071064174
vt 0.007274667 0.071512766
vt 0.014182953 0.071064174
vt 0.014003517 0.07043615
vt 0.009786771 0.08057428
vt 0.011042822 0.07833133
vt 0.00485228 0.07860049
vt 0.004672844 0.08039485
vt 0.003416792 0.07860049
vt 0.0092484625 0.07860049
vt 0.0070952307 0.07922851
vt 0.0070952307 0.080664
vt 0.004941998 0.07303797
vt 0.004762562 0.0716922
vt 0.007274667 0.071512766
vt 0.007274667 0.072679095
vt 0.0091587445 0.075998664
vt 0.009786771 0.0761781
vt 0.0092484625 0.07860049
vt 0.008799872 0.077882744
vt 0.01113254 0.07178192
vt 0.011222258 0.07303797
vt 0.0092484625 0.07303797
vt 0.009517617 0.07178192
vt 0.011401694 0.076088384
vt 0.009786771 0.0761781
vt 0.0092484625 0.07303797
vt 0.008799872 0.07357628
vt 0.007184949 0.07348656
vt 0.007274667 0.072679095
vt 0.003237356 0.072858535
vt 0.003416792 0.07160248
vt 0.00440369 0.076088384
vt 0.0029682019 0.075908944
vt 0.0070952307 0.07833133
vt 0.0070952307 0.07922851
vt 0.00485228 0.07860049
vt 0.005390588 0.07797246
vt 0.004941998 0.07303797
vt 0.005390588 0.07357628
vt 0.005121434 0.075998664
vt 0.00440369 0.076088384
vt 0.009517617 0.07178192
vt 0.010235361 0.07124361
vt 0.01113254 0.07178192
vt 0.004134536 0.071064174
vt 0.003416792 0.07160248
vt 0.004762562 0.0716922
vt 0.007274667 0.071064174
vt 0.007274667 0.071512766
vt 0.028178964 0.091250725
vt 0.030152759 0.09053298
vt 0.030421913 0.08891806
vt 0.030421913 0.09089185
vt 0.028178964 0.09178904
vt 0.025936013 0.09089185
vt 0.02656404 0.0786902
vt 0.026743475 0.077882744
vt 0.025846295 0.07886964
vt 0.026833193 0.077882744
vt 0.026653757 0.0786902
vt 0.025936013 0.07895936
vt 0.025038833 0.077882744
vt 0.025936013 0.07671641
vt 0.025038833 0.077882744
vt 0.025936013 0.07680613
vt 0.02512855 0.07680613
vt 0.026653757 0.07689585
vt 0.02512855 0.0786902
vt 0.02512855 0.07680613
vt 0.026653757 0.07680613
vt 0.02512855 0.07877992
vt 0.025936013 0.08891806
vt 0.028178964 0.0871237
vt 0.026205167 0.09053298
vt 0.030242477 0.087572284
vt 0.02611545 0.087572284
vt 0.030242477 0.08721341
vt 0.030780785 0.08909749
vt 0.025577141 0.08909749
vt 0.02611545 0.08721341
vt 0.028178964 0.08658539
vn 0.42674178 -0.90437347 -0
vn 0.3647064 -0.7254861 0.5836602
vn 0.9372481 -0.26274693 0.22919434
vn 0.921562 -0.3803925 -0.077620976
vn 0.64705575 0.45096934 0.61477274
vn 0.45882285 0.7725339 0.4389453
vn 0.9450911 0.23920739 0.22267148
vn 0.6784279 -0.34117734 0.65064096
vn 0.91371894 0.0039162636 0.40632787
vn 0.97646326 0.0039162636 0.21564828
vn 0.003926754 -0.003926754 0.99998456
vn -0.027445436 0.38038206 0.92442214
vn -0.035288453 0.4352833 0.8996017
vn 0.003926754 -0.003926754 0.99998456
vn 0.019612849 0.9686098 0.24781115
vn -0.52939975 0.7411617 0.41281372
vn -0.64704525 0.60783005 0.4602989
vn -0.0039162636 0.9686098 0.2485553
vn 0.011769772 -0.717643 0.6963117
vn 0.011769772 -0.2313748 0.9727935
vn -0.019602299 -0.27059 0.9624951
vn -0.035288453 -0.7254861 0.68733156
vn -0.058817506 -0.7568582 0.6509271
vn -0.06666052 -0.37254947 0.9256151
vn 0.96862024 0.0039162636 0.24851461
vn 0.701957 0.63920224 0.3141288
vn 0.717643 0.6235162 0.31018713
vn 0.96862024 0.0039162636 0.24851461
vn -0.058817506 0.83527815 0.5466726
vn -0.058817506 0.83527815 0.5466726
vn -0.011759281 0.592144 0.8057463
vn -0.0039162636 0.8509642 0.5252091
vn -0.0039162636 -0.9999924 -0
vn -0.035266772 -0.99937797 -0
vn -0.035266772 -0.99937797 -0
vn -0.87449336 0.035288453 0.4837521
vn -0.5529288 -0.65489876 0.5151479
vn -0.6235162 -0.5764684 0.5281209
vn -0.87449336 0.035288453 0.4837521
vn 0.003926754 -0.96077716 0.27729368
vn 0.67058486 -0.6784279 0.30008596
vn 0.7411722 -0.5999975 0.30110922
vn -0.0039162636 -0.96077716 0.2772939
vn 0.003926754 0.9999819 -0.004560923
vn 0.5133489 0.85818 -0
vn -0.05871709 0.9982747 -0
vn -0.05871709 0.9982747 -0
vn 0.95100737 0.30916828 -0
vn -0.9998078 -0.019609435 -0
vn -0.99993074 -0.01176917 -0
vn -0.9996233 -0.02744602 -0
vn -0.9987027 -0.05091976 -0
vn -0.99993086 0.011758681 -0
vn -0.99778473 -0.06652458 -0
vn -0.99907064 -0.043102648 -0
vn -0.999071 0.043092184 -0
vn -0.99937797 0.03526714 -0
vn -0.999071 0.043092184 -0
vn -0.9998078 -0.019609435 -0
vn -0.9998078 -0.019609435 -0
vn 0.9372481 -0.26274693 -0.22919434
vn 0.3647064 -0.7254861 -0.5836602
vn 0.64705575 0.45096934 -0.61477274
vn 0.9450911 0.23920739 -0.22267148
vn 0.45882285 0.7725339 -0.4389453
vn 0.6784279 -0.34117734 -0.65064096
vn 0.91371894 0.0039162636 -0.40632787
vn 0.97646326 0.0039162636 -0.21564828
vn -0.011759281 0.4274403 -0.90396714
vn 0.003926754 0.38822508 -0.9215562
vn 0.003926754 -0.003926754 -0.99998456
vn 0.003926754 -0.003926754 -0.99998456
vn 0.019612849 0.9686098 -0.24781115
vn -0.0039162636 0.9686098 -0.2485553
vn -0.64704525 0.60783005 -0.4602989
vn -0.52939975 0.7411617 -0.41281372
vn 0.011769772 -0.7254861 -0.6881362
vn -0.035288453 -0.7254861 -0.68733156
vn -0.019602299 -0.27059 -0.9624951
vn 0.011769772 -0.2313748 -0.9727935
vn -0.058817506 -0.7568582 -0.6509271
vn -0.06666052 -0.37254947 -0.9256151
vn 0.717643 0.6235162 -0.31018713
vn 0.701957 0.63920224 -0.3141288
vn 0.96862024 0.0039162636 -0.24851461
vn 0.96862024 0.0039162636 -0.24851461
vn -0.035288453 0.8431212 -0.53656447
vn -0.019602299 0.8431212 -0.53736615
vn -0.011759281 0.592144 -0.8057463
vn -0.0039162636 0.8509642 -0.5252091
vn -0.87449336 0.035288453 -0.4837521
vn -0.87449336 0.035288453 -0.4837521
vn -0.6235162 -0.5764684 -0.5281209
vn -0.5529288 -0.65489876 -0.5151479
vn 0.7411722 -0.5999975 -0.30110922
vn 0.6784279 -0.6784279 -0.28190643
vn 0.003926754 -0.96077716 -0.27729368
vn -0.0039162636 -0.96077716 -0.2772939
vn -0.9998078 -0.019609435 -0
vn -0.9998078 -0.019609435 -0
vn -0.99993074 -0.01176917 -0
vn -0.99993086 0.011758681 -0
vn -0.9993776 -0.035277553 -0
vn -0.99993086 0.011758681 -0
vn -0.99993086 0.011758681 -0
vn -0.9999819 0.0039162636 0.0045719254
vn 0.921562 -0.3803925 -0.077620976
vn 0.9372481 -0.26274693 0.22919434
vn 0.97646326 0.0039162636 0.21564828
vn -0.9998078 -0.019609435 -0
vn -0.9998078 -0.019609435 -0
vn -0.9998078 -0.019609435 -0
vn -0.04313147 0.011759281 0.9990002
vn -0.027445436 -0.011769772 0.99955404
vn -0.035288453 0.0039162636 0.9993695
vn -0.027445436 -0.011769772 -0.99955404
vn -0.04313147 0.011759281 -0.9990002
vn -0.035288453 0.0039162636 -0.9993695
vn -0.027445436 0.011759281 -0.99955416
vn -0.019602299 -0.003926754 -0.99980015
vn -0.027445436 0.011759281 0.99955416
vn -0.019602299 -0.003926754 0.99980015
vn -0.04313147 0.05097449 0.99776816
vn -0.04313147 -0.058827996 0.9973359
vn -0.035288453 0.0039162636 0.9993695
vn -0.04313147 0.05097449 -0.99776816
vn -0.04313147 -0.058827996 -0.9973359
vn -0.035288453 0.0039162636 -0.9993695
vn 0.97646326 0.0039162636 -0.21564828
vn 0.95100737 0.30916828 -0
vn 0.9372481 -0.26274693 -0.22919434
vn 0.9450911 0.23920739 0.22267148
vn 0.9450911 0.23920739 -0.22267148
vn -0.99993086 0.011758681 -0
vn -0.99937797 0.03526714 -0
vn -0.99993086 0.011758681 -0
vn -0.99993086 0.011758681 -0
vn -0.99778473 -0.06652458 -0
g ch_00_0
f 3/3/3 2/2/2 1/1/1
f 4/4/4 3/3/3 1/1/1
f 7/7/7 6/6/6 5/5/5
f 3/3/3 8/8/8 2/2/2
f 7/7/7 5/5/5 9/9/9
f 10/10/10 7/7/7 9/9/9
f 13/13/13 12/12/12 11/11/11
f 14/14/14 13/13/13 11/11/11
f 17/17/17 16/16/16 15/15/15
f 18/18/18 17/17/17 15/15/15
f 21/21/21 20/20/20 19/19/19
f 22/22/22 21/21/21 19/19/19
f 8/8/8 24/24/24 23/23/23
f 2/2/2 8/8/8 23/23/23
f 27/27/27 26/26/26 25/25/25
f 28/28/28 27/27/27 25/25/25
f 30/30/30 29/29/29 12/12/12
f 13/13/13 30/30/30 12/12/12
f 6/6/6 32/32/32 31/31/31
f 5/5/5 6/6/6 31/31/31
f 22/22/22 19/19/19 33/33/33
f 34/34/34 22/22/22 33/33/33
f 2/2/2 23/23/23 35/35/35
f 1/1/1 2/2/2 35/35/35
f 38/38/38 37/37/37 36/36/36
f 39/39/39 38/38/38 36/36/36
f 42/42/42 41/41/41 40/40/40
f 43/43/43 42/42/42 40/40/40
f 45/45/45 44/44/44 32/32/32
f 6/6/6 45/45/45 32/32/32
f 47/47/47 46/46/46 29/29/29
f 30/30/30 47/47/47 29/29/29
f 48/48/48 45/45/45 6/6/6
f 7/7/7 48/48/48 6/6/6
f 39/39/39 36/36/36 16/16/16
f 17/17/17 39/39/39 16/16/16
f 10/10/10 9/9/9 8/8/8
f 3/3/3 10/10/10 8/8/8
f 28/28/28 25/25/25 41/41/41
f 42/42/42 28/28/28 41/41/41
f 14/14/14 11/11/11 20/20/20
f 21/21/21 14/14/14 20/20/20
f 30/30/30 32/32/32 44/44/44
f 47/47/47 30/30/30 44/44/44
f 30/30/30 13/13/13 31/31/31
f 32/32/32 30/30/30 31/31/31
f 22/22/22 34/34/34 35/35/35
f 23/23/23 22/22/22 35/35/35
f 22/22/22 23/23/23 24/24/24
f 21/21/21 22/22/22 24/24/24
f 18/18/18 15/15/15 26/26/26
f 27/27/27 18/18/18 26/26/26
f 51/51/51 50/50/50 49/49/49
f 54/54/54 53/53/53 52/52/52
f 55/55/55 54/54/54 52/52/52
f 56/56/56 52/52/52 53/53/53
f 57/57/57 49/49/49 50/50/50
f 58/58/58 57/57/57 50/50/50
f 49/49/49 60/60/60 59/59/59
f 51/51/51 49/49/49 59/59/59
f 53/53/53 57/57/57 58/58/58
f 56/56/56 53/53/53 58/58/58
f 43/43/43 40/40/40 37/37/37
f 38/38/38 43/43/43 37/37/37
f 1/1/1 62/62/62 61/61/61
f 4/4/4 1/1/1 61/61/61
f 65/65/65 64/64/64 63/63/63
f 66/66/66 61/61/61 62/62/62
f 64/64/64 68/68/68 67/67/67
f 63/63/63 64/64/64 67/67/67
f 71/71/71 70/70/70 69/69/69
f 72/72/72 71/71/71 69/69/69
f 75/75/75 74/74/74 73/73/73
f 76/76/76 75/75/75 73/73/73
f 79/79/79 78/78/78 77/77/77
f 80/80/80 79/79/79 77/77/77
f 66/66/66 62/62/62 81/81/81
f 82/82/82 66/66/66 81/81/81
f 85/85/85 84/84/84 83/83/83
f 86/86/86 85/85/85 83/83/83
f 87/87/87 69/69/69 70/70/70
f 88/88/88 87/87/87 70/70/70
f 65/65/65 63/63/63 89/89/89
f 90/90/90 65/65/65 89/89/89
f 33/33/33 77/77/77 78/78/78
f 34/34/34 33/33/33 78/78/78
f 35/35/35 81/81/81 62/62/62
f 1/1/1 35/35/35 62/62/62
f 93/93/93 92/92/92 91/91/91
f 94/94/94 93/93/93 91/91/91
f 97/97/97 96/96/96 95/95/95
f 98/98/98 97/97/97 95/95/95
f 65/65/65 90/90/90 44/44/44
f 45/45/45 65/65/65 44/44/44
f 88/88/88 46/46/46 47/47/47
f 87/87/87 88/88/88 47/47/47
f 65/65/65 45/45/45 48/48/48
f 64/64/64 65/65/65 48/48/48
f 92/92/92 75/75/75 76/76/76
f 91/91/91 92/92/92 76/76/76
f 68/68/68 61/61/61 66/66/66
f 67/67/67 68/68/68 66/66/66
f 96/96/96 85/85/85 86/86/86
f 95/95/95 96/96/96 86/86/86
f 80/80/80 71/71/71 72/72/72
f 79/79/79 80/80/80 72/72/72
f 87/87/87 47/47/47 44/44/44
f 90/90/90 87/87/87 44/44/44
f 89/89/89 69/69/69 87/87/87
f 90/90/90 89/89/89 87/87/87
f 78/78/78 81/81/81 35/35/35
f 34/34/34 78/78/78 35/35/35
f 82/82/82 81/81/81 78/78/78
f 79/79/79 82/82/82 78/78/78
f 84/84/84 73/73/73 74/74/74
f 83/83/83 84/84/84 74/74/74
f 101/101/101 100/100/100 99/99/99
f 103/103/103 102/102/102 54/54/54
f 55/55/55 103/103/103 54/54/54
f 104/104/104 102/102/102 103/103/103
f 99/99/99 100/100/100 105/105/105
f 106/106/106 99/99/99 105/105/105
f 59/59/59 60/60/60 100/100/100
f 101/101/101 59/59/59 100/100/100
f 106/106/106 105/105/105 102/102/102
f 104/104/104 106/106/106 102/102/102
f 98/98/98 93/93/93 94/94/94
f 97/97/97 98/98/98 94/94/94
f 109/109/109 108/108/108 107/107/107
f 112/112/112 111/111/111 110/110/110
f 115/115/115 114/114/114 113/113/113
f 118/118/118 117/117/117 116/116/116
f 120/120/120 119/119/119 116/116/116
f 122/122/122 114/114/114 121/121/121
f 123/123/123 122/122/122 121/121/121
f 124/124/124 114/114/114 122/122/122
f 125/125/125 121/121/121 115/115/115
f 121/121/121 114/114/114 115/115/115
f 126/126/126 119/119/119 120/120/120
f 127/127/127 120/120/120 116/116/116
f 128/128/128 118/118/118 119/119/119
f 119/119/119 118/118/118 116/116/116
f 130/130/130 109/109/109 129/129/129
f 131/131/131 129/129/129 107/107/107
f 129/129/129 109/109/109 107/107/107
f 132/132/132 109/109/109 130/130/130
f 133/133/133 130/130/130 129/129/129
f 136/136/136 135/135/135 134/134/134
f 137/137/137 136/136/136 134/134/134
f 112/112/112 110/110/110 135/135/135
f 136/136/136 112/112/112 135/135/135
f 138/138/138 137/137/137 134/134/134
