g ch_05
v 0.12978551 0.15916562 -0.09014325
v 0.12976134 0.16328213 -0.0033507645
v 0.06600021 0.1821003 0.0029004812
v 0.064179614 0.1958031 -0.067345515
v 0.2036002 -0.09964901 0.073186785
v 0.1927733 -0.13933961 -0.00263381
v 0.11689633 -0.16502935 -0.011930108
v 0.1281663 -0.1223823 0.07706964
v 0.21670689 0.12366402 -0.07896188
v 0.22196728 0.15666837 -0.0054210722
v 0.12976134 0.16328213 -0.0033507645
v 0.12978551 0.15916562 -0.09014325
v 0.20211795 -0.007040292 -0.08437534
v 0.21670689 0.12366402 -0.07896188
v 0.12978551 0.15916562 -0.09014325
v 0.12615238 0.0022721589 -0.09491223
v 0.21762525 0.101623535 0.07012561
v 0.13355559 0.12380096 0.078278005
v 0.19027603 -0.13515869 -0.077995196
v 0.12038447 -0.16828386 -0.09920594
v 0.2072414 -0.003157407 0.09279445
v 0.1306072 0.0024251938 0.086535126
v 0.19027603 -0.13515869 -0.077995196
v 0.12038447 -0.16828386 -0.09920594
v 0.0603773 0.13759238 0.07726297
v -0.05421552 0.15309966 0.09433308
v -0.050453484 0.21454075 0.021267563
v 0.046175048 -0.1747204 -0.004583299
v -0.08455342 -0.17062002 0.0109965205
v -0.0686675 -0.11962724 0.080436945
v 0.05498801 -0.11448768 0.08150029
v -0.049889594 0.23530844 -0.04439473
v 0.048793152 0.010497063 0.08430368
v -0.05846089 0.019978642 0.100004315
v 0.11689633 -0.16502935 -0.011930108
v 0.12038447 -0.16828386 -0.09920594
v 0.03173916 -0.18963157 -0.07405594
v 0.13355559 0.12380096 0.078278005
v 0.10078487 0.008692563 -0.117097735
v 0.09695034 -0.17667794 -0.123244256
v 0.061730668 0.20363328 -0.10516718
v 0.1306072 0.0024251938 0.086535126
v 0.1281663 -0.1223823 0.07706964
v -0.05346635 0.24842319 -0.08892682
v -0.097515106 -0.18237334 -0.059064224
v 0.022934258 -0.19128299 -0.11435878
v -0.10311383 -0.1902599 -0.09831175
v 0.09695034 -0.17667794 -0.123244256
v -0.14678398 -0.12143977 -0.012824297
v -0.15587083 -0.13179944 -0.06871499
v -0.118516386 0.19830039 -0.06165816
v -0.11603522 0.18061805 -0.0034474134
v -0.119080305 0.12657213 0.07623991
v -0.12995553 -0.0786477 0.06578356
v -0.10311383 -0.1902599 -0.09831175
v 0.022934258 -0.19128299 -0.11435878
v 0.061730668 0.20363328 -0.10516718
v -0.05346635 0.24842319 -0.08892682
v 0.25754946 -0.110637024 -0.0045591295
v 0.2656938 -0.08077443 0.052491605
v 0.2598373 -0.07929216 -0.04629588
v 0.2656938 -0.08077443 0.052491605
v 0.25754946 -0.110637024 -0.0045591295
v 0.2598373 -0.07929216 -0.04629588
v 0.2598373 -0.07929216 -0.04629588
v 0.27555403 0.0872682 -0.061996505
v 0.2795094 0.11210403 -0.0066616535
v 0.27623877 0.07068145 0.050187647
v -0.119080305 0.12657213 0.07623991
v -0.11603522 0.18061805 -0.0034474134
v -0.118516386 0.19830039 -0.06165816
v -0.118516386 0.19830039 -0.06165816
v -0.15587083 -0.13179944 -0.06871499
v -0.15587083 -0.13179944 -0.06871499
v -0.14678398 -0.12143977 -0.012824297
v -0.12995553 -0.0786477 0.06578356
v 0.27555403 0.0872682 -0.061996505
v 0.27623877 0.07068145 0.050187647
v 0.2795094 0.11210403 -0.0066616535
v 0.27555403 0.0872682 -0.061996505
vt 0.015203908 0.08320506
vt 0.016642686 0.08343223
vt 0.016491236 0.08441666
vt 0.015355359 0.08434093
vt 0.025351074 0.0637437
vt 0.026714126 0.06397088
vt 0.027168475 0.0625321
vt 0.02557825 0.06230493
vt 0.019974591 0.064652406
vt 0.021034742 0.064122334
vt 0.020580392 0.06268355
vt 0.019293064 0.063062176
vt 0.019444514 0.09123191
vt 0.02042894 0.09123191
vt 0.020656116 0.09055039
vt 0.019444514 0.09062612
vt 0.02232207 0.06381943
vt 0.021867719 0.062380653
vt 0.028077178 0.0643495
vt 0.028682977 0.06268355
vt 0.023836572 0.06366798
vt 0.023609396 0.06230493
vt 0.018460087 0.09123191
vt 0.018081462 0.09070185
vt 0.017854288 0.084492385
vt 0.017778562 0.08608261
vt 0.016339784 0.08608261
vt 0.023306496 0.08464384
vt 0.02307932 0.08630979
vt 0.021791993 0.086158335
vt 0.021791993 0.084492385
vt 0.015355359 0.08608261
vt 0.019747416 0.084492385
vt 0.01967169 0.08600688
vt 0.023306496 0.08365941
vt 0.024669547 0.08365941
vt 0.024290923 0.08471955
vt 0.018005738 0.083507955
vt 0.019444514 0.09039894
vt 0.018005738 0.090474665
vt 0.014976733 0.08290216
vt 0.019898865 0.083507955
vt 0.021791993 0.083507955
vt 0.014673833 0.08608261
vt 0.024139471 0.08646123
vt 0.024896722 0.08479528
vt 0.024745272 0.08653696
vt 0.024972448 0.08373514
vt 0.017627113 0.091459095
vt 0.01747566 0.092140615
vt 0.021640543 0.092140615
vt 0.021413367 0.09138337
vt 0.020807566 0.09039894
vt 0.018157188 0.090474665
vt 0.017778562 0.08888444
vt 0.017854288 0.08986887
vt 0.020959016 0.089944586
vt 0.021186192 0.0890359
vt 0.021034742 0.08744566
vt 0.020580392 0.08676414
vt 0.020656116 0.08797574
vt 0.024972448 0.06480385
vt 0.026259774 0.06510676
vt 0.027017027 0.065788284
vt 0.018914439 0.09183772
vt 0.020504666 0.06556111
vt 0.021489093 0.06503104
vt 0.022549246 0.064728126
vt 0.018081462 0.08494674
vt 0.016339784 0.08494674
vt 0.015355359 0.08494674
vt 0.020807566 0.08850582
vt 0.018232914 0.08843009
vt 0.024442371 0.08532536
vt 0.023457944 0.085173905
vt 0.021640543 0.08509819
vt 0.01861154 0.088354364
vt 0.018687263 0.08691558
vt 0.018232914 0.087672845
vt 0.02027749 0.09176199
vn 0.38473856 0.63145584 -0.6732308
vn 0.27013016 0.9370782 0.22116554
vn 0.30833298 0.8912348 0.3326128
vn 0.40766025 0.8988753 0.16073689
vn 0.27013016 -0.5604714 0.78288025
vn 0.40766025 -0.9042966 0.12673132
vn 0.2319274 -0.94249934 0.24063388
vn 0.10967845 -0.59103364 0.7991557
vn 0.36181688 0.5321285 -0.7654592
vn 0.40001965 0.9065159 0.13495633
vn 0.27013016 0.9370782 0.22116554
vn 0.38473856 0.63145584 -0.6732308
vn 0.30069238 -0.040913403 -0.95284325
vn 0.36181688 0.5321285 -0.7654592
vn 0.38473856 0.63145584 -0.6732308
vn 0.445863 0.00492996 -0.8950876
vn 0.30069238 0.50920683 0.80640715
vn 0.11731899 0.5321285 0.83849597
vn 0.4687847 -0.59103364 -0.6564451
vn 0.51462805 -0.7209232 -0.46414196
vn 0.23956794 -0.010351181 0.9708244
vn 0.010351181 0.00492996 0.99993426
vn 0.4687847 -0.59103364 -0.6564451
vn 0.51462805 -0.7209232 -0.46414196
vn 0.17844343 0.50156623 0.84651595
vn -0.11189777 0.49392575 0.8622739
vn -0.11189777 0.8912348 0.43952182
vn 0.079116166 -0.9348588 0.34609196
vn -0.3181929 -0.8508127 0.4181759
vn -0.21886557 -0.50698745 0.8337035
vn 0.040913403 -0.48406583 0.8740746
vn -0.081335485 0.95999986 0.26792684
vn 0.056194544 -0.010351181 0.9983662
vn -0.12717885 -0.025632262 0.99154854
vn 0.2319274 -0.94249934 0.24063388
vn 0.51462805 -0.7209232 -0.46414196
vn 0.10203785 -0.9883427 0.11299096
vn 0.11731899 0.5321285 0.83849597
vn 0.30069238 0.027851641 -0.9533144
vn 0.32361406 -0.5986742 -0.73270947
vn 0.31597352 0.70022076 -0.64019656
vn 0.010351181 0.00492996 0.99993426
vn 0.10967845 -0.59103364 0.7991557
vn -0.19594389 0.84539145 -0.49690974
vn -0.36403626 -0.9042966 0.22299169
vn -0.020211041 -0.7438448 -0.6680467
vn -0.4251607 -0.7132826 -0.557195
vn 0.32361406 -0.5986742 -0.73270947
vn -0.8912348 -0.35417634 0.28330132
vn -0.8912348 -0.27013016 -0.3643216
vn -0.8148292 0.47864455 -0.32703644
vn -0.8148292 0.50920683 0.2770593
vn -0.7460641 0.27234954 0.6076299
vn -0.7689858 -0.20136511 0.6067231
vn -0.4251607 -0.7132826 -0.557195
vn -0.020211041 -0.7438448 -0.6680467
vn 0.31597352 0.70022076 -0.64019656
vn -0.19594389 0.84539145 -0.49690974
vn 0.7438448 -0.6674392 0.034925766
vn 0.774407 -0.40001965 0.49018165
vn 0.81260985 -0.32361406 -0.48470524
vn 0.774407 -0.40001965 0.49018165
vn 0.7438448 -0.6674392 0.034925766
vn 0.81260985 -0.32361406 -0.48470524
vn 0.81260985 -0.32361406 -0.48470524
vn 0.7820476 0.21886557 -0.5835232
vn 0.86536413 0.5011437 -0
vn 0.827891 0.21886557 0.51642466
vn -0.7460641 0.27234954 0.6076299
vn -0.8148292 0.50920683 0.2770593
vn -0.8148292 0.47864455 -0.32703644
vn -0.8148292 0.47864455 -0.32703644
vn -0.8912348 -0.27013016 -0.3643216
vn -0.8912348 -0.27013016 -0.3643216
vn -0.8912348 -0.35417634 0.28330132
vn -0.7689858 -0.20136511 0.6067231
vn 0.7820476 0.21886557 -0.5835232
vn 0.827891 0.21886557 0.51642466
vn 0.86536413 0.5011437 -0
vn 0.7820476 0.21886557 -0.5835232
g ch_05_0
f 3/3/3 2/2/2 1/1/1
f 4/4/4 3/3/3 1/1/1
f 7/7/7 6/6/6 5/5/5
f 8/8/8 7/7/7 5/5/5
f 11/11/11 10/10/10 9/9/9
f 12/12/12 11/11/11 9/9/9
f 15/15/15 14/14/14 13/13/13
f 16/16/16 15/15/15 13/13/13
f 18/18/18 17/17/17 10/10/10
f 11/11/11 18/18/18 10/10/10
f 20/20/20 19/19/19 6/6/6
f 7/7/7 20/20/20 6/6/6
f 8/8/8 5/5/5 21/21/21
f 22/22/22 8/8/8 21/21/21
f 22/22/22 21/21/21 17/17/17
f 18/18/18 22/22/22 17/17/17
f 16/16/16 13/13/13 23/23/23
f 24/24/24 16/16/16 23/23/23
f 27/27/27 26/26/26 25/25/25
f 3/3/3 27/27/27 25/25/25
f 30/30/30 29/29/29 28/28/28
f 31/31/31 30/30/30 28/28/28
f 32/32/32 27/27/27 3/3/3
f 4/4/4 32/32/32 3/3/3
f 33/33/33 25/25/25 26/26/26
f 34/34/34 33/33/33 26/26/26
f 31/31/31 33/33/33 34/34/34
f 30/30/30 31/31/31 34/34/34
f 37/37/37 36/36/36 35/35/35
f 28/28/28 37/37/37 35/35/35
f 25/25/25 38/38/38 2/2/2
f 3/3/3 25/25/25 2/2/2
f 39/39/39 16/16/16 24/24/24
f 40/40/40 39/39/39 24/24/24
f 39/39/39 15/15/15 16/16/16
f 4/4/4 1/1/1 41/41/41
f 33/33/33 42/42/42 38/38/38
f 25/25/25 33/33/33 38/38/38
f 28/28/28 35/35/35 43/43/43
f 31/31/31 28/28/28 43/43/43
f 31/31/31 43/43/43 42/42/42
f 33/33/33 31/31/31 42/42/42
f 32/32/32 4/4/4 41/41/41
f 44/44/44 32/32/32 41/41/41
f 29/29/29 45/45/45 37/37/37
f 28/28/28 29/29/29 37/37/37
f 45/45/45 47/47/47 46/46/46
f 37/37/37 45/45/45 46/46/46
f 46/46/46 48/48/48 36/36/36
f 37/37/37 46/46/46 36/36/36
f 51/51/51 50/50/50 49/49/49
f 52/52/52 51/51/51 49/49/49
f 53/53/53 52/52/52 49/49/49
f 54/54/54 53/53/53 49/49/49
f 57/57/57 56/56/56 55/55/55
f 58/58/58 57/57/57 55/55/55
f 56/56/56 39/39/39 40/40/40
f 61/61/61 60/60/60 59/59/59
f 63/63/63 62/62/62 5/5/5
f 6/6/6 63/63/63 5/5/5
f 64/64/64 63/63/63 6/6/6
f 19/19/19 64/64/64 6/6/6
f 13/13/13 65/65/65 23/23/23
f 67/67/67 66/66/66 9/9/9
f 10/10/10 67/67/67 9/9/9
f 68/68/68 67/67/67 10/10/10
f 17/17/17 68/68/68 10/10/10
f 21/21/21 68/68/68 17/17/17
f 57/57/57 15/15/15 39/39/39
f 57/57/57 39/39/39 56/56/56
f 70/70/70 69/69/69 26/26/26
f 27/27/27 70/70/70 26/26/26
f 32/32/32 70/70/70 27/27/27
f 71/71/71 70/70/70 32/32/32
f 44/44/44 71/71/71 32/32/32
f 73/73/73 72/72/72 58/58/58
f 55/55/55 73/73/73 58/58/58
f 75/75/75 74/74/74 47/47/47
f 45/45/45 75/75/75 47/47/47
f 29/29/29 75/75/75 45/45/45
f 76/76/76 75/75/75 29/29/29
f 30/30/30 76/76/76 29/29/29
f 34/34/34 76/76/76 30/30/30
f 26/26/26 69/69/69 34/34/34
f 69/69/69 76/76/76 34/34/34
f 79/79/79 78/78/78 77/77/77
f 60/60/60 61/61/61 77/77/77
f 78/78/78 60/60/60 77/77/77
f 14/14/14 80/80/80 13/13/13
f 80/80/80 65/65/65 13/13/13
f 5/5/5 62/62/62 21/21/21
f 62/62/62 68/68/68 21/21/21
