g ch_10
v 0.028952792 0.015099525 -0.104854494
v 0.21451928 0.0005479753 -0.089402005
v 0.21455035 0.08690044 -0.029667318
v 0.043069422 0.12639219 -0.048835367
v 0.11526178 -0.1156967 0.033764273
v 0.19549415 -0.10925351 0.030974507
v 0.21262422 -0.09995219 -0.05535312
v 0.019185483 -0.0981317 -0.08577344
v 0.13474669 -0.023770899 0.07644346
v 0.18970335 -0.021571398 0.07205686
v 0.19850138 0.056231588 0.05889088
v 0.13286406 0.07372823 0.07292673
v 0.18970335 -0.021571398 0.07205686
v 0.13474669 -0.023770899 0.07644346
v -0.06540862 -0.09993355 -0.06546216
v -0.053336173 0.015031159 -0.07411729
v 0.10132533 0.0756295 0.08767089
v 0.1136401 -0.02301909 0.08681345
v -0.03173253 0.13452539 -0.026535824
v 0.1136401 -0.02301909 0.08681345
v 0.07166925 -0.11226696 0.047582656
v 0.25412285 -0.022155434 0.06373724
v 0.27266335 -0.005634278 -0.05688159
v 0.27197367 -0.0739806 -0.03031972
v 0.26021188 -0.08559947 0.040045917
v 0.040695935 -0.09132813 0.09020591
v -0.07678518 -0.07348353 0.0042635202
v -0.06836617 0.006786108 -0.0028445125
v 0.07130267 -0.022565514 0.116662145
v -0.07678518 -0.07348353 0.0042635202
v 0.040695935 -0.09132813 0.09020591
v 0.07130267 -0.022565514 0.116662145
v 0.07130267 -0.022565514 0.116662145
v 0.06687258 0.0490987 0.12259585
v -0.052932322 0.09039232 0.03146535
v -0.06836617 0.006786108 -0.0028445125
v 0.27197367 -0.0739806 -0.03031972
v 0.27266335 -0.005634278 -0.05688159
v 0.27196124 0.052149445 -0.013376057
v 0.25705555 0.025637269 0.057896733
v 0.25412285 -0.022155434 0.06373724
v 0.25412285 -0.022155434 0.06373724
v 0.26021188 -0.08559947 0.040045917
v -0.052932322 0.09039232 0.03146535
v 0.06687258 0.0490987 0.12259585
v 0.25705555 0.025637269 0.057896733
vt 0.025242858 0.069053926
vt 0.02518897 0.07164056
vt 0.026805613 0.071909994
vt 0.027021166 0.069107816
vt 0.021255134 0.070508905
vt 0.021847904 0.07180222
vt 0.023626212 0.07164056
vt 0.023626212 0.068946145
vt 0.01963849 0.0723411
vt 0.02023126 0.07298776
vt 0.028745588 0.07244888
vt 0.030038903 0.07088612
vt 0.029661685 0.073742196
vt 0.03041612 0.07352664
vt 0.02346455 0.06765283
vt 0.025242858 0.06770672
vt 0.030308343 0.070562795
vt 0.030631673 0.07347275
vt 0.02718283 0.06786838
vt 0.019476825 0.07223333
vt 0.02103958 0.07002391
vt 0.02545841 0.07331109
vt 0.026266731 0.073580526
vt 0.026105069 0.07309554
vt 0.025727851 0.07298776
vt 0.024326758 0.07341886
vt 0.025027305 0.073688306
vt 0.025296746 0.07341886
vt 0.02427287 0.07309554
vt 0.022979556 0.06727561
vt 0.020662364 0.06991614
vt 0.019261273 0.071909994
vt 0.030847225 0.07341886
vt 0.03041612 0.070508905
vt 0.027829489 0.0673295
vt 0.025296746 0.06700618
vt 0.023680102 0.072879985
vt 0.025135081 0.07266443
vt 0.026536174 0.07309554
vt 0.028152818 0.073688306
vt 0.028530035 0.074388854
vt 0.021147357 0.07395775
vt 0.022171233 0.07314942
vt 0.025296746 0.07293387
vt 0.024434535 0.072826095
vt 0.025404522 0.073634416
vn -0.07922953 0.15981787 -0.9839618
vn 0.31638616 0.12318677 -0.94059813
vn 0.38232213 0.8704609 -0.31004447
vn 0.067294836 0.89243966 -0.44611982
vn 0.11125213 -0.90980977 0.3998364
vn 0.16986185 -0.87317866 0.45684347
vn 0.27975512 -0.748633 -0.60107046
vn -0.07922953 -0.69002324 -0.7194377
vn 0.24312401 -0.21381915 0.94613534
vn 0.11125213 -0.14788318 0.9827276
vn 0.27242887 0.6140434 0.7407653
vn 0.30173373 0.6433483 0.7036048
vn 0.11125213 -0.14788318 0.9827276
vn 0.24312401 -0.21381915 0.94613534
vn -0.6506744 -0.6167611 -0.44297698
vn -0.701958 0.18912274 -0.6866495
vn 0.29440755 0.6506744 0.69996214
vn 0.48488918 -0.24312401 0.8401031
vn -0.48217148 0.85580856 -0.18735626
vn 0.48488918 -0.24312401 0.8401031
vn 0.07462102 -0.90980977 0.40826195
vn 0.62408733 -0.103925884 0.7744123
vn 0.8365476 0.07190329 -0.5431556
vn 0.82922137 -0.47756296 -0.2903886
vn 0.6533922 -0.5654776 0.5033028
vn -0.17447037 -0.5728038 0.8009094
vn -0.8484823 -0.38232213 0.3659338
vn -0.9583755 0.08655572 0.27207443
vn 0.05996859 -0.21381915 0.97503084
vn -0.8484823 -0.38232213 0.3659338
vn -0.17447037 -0.5728038 0.8009094
vn 0.05996859 -0.21381915 0.97503084
vn 0.05996859 -0.21381915 0.97503084
vn -0.03527224 0.27703744 0.9602115
vn -0.7532415 0.43821412 0.4905055
vn -0.9583755 0.08655572 0.27207443
vn 0.82922137 -0.47756296 -0.2903886
vn 0.8365476 0.07190329 -0.5431556
vn 0.82922137 0.54810745 -0.10940824
vn 0.6680446 0.33564717 0.6641215
vn 0.62408733 -0.103925884 0.7744123
vn 0.62408733 -0.103925884 0.7744123
vn 0.6533922 -0.5654776 0.5033028
vn -0.7532415 0.43821412 0.4905055
vn -0.03527224 0.27703744 0.9602115
vn 0.6680446 0.33564717 0.6641215
g ch_10_0
f 3/3/3 2/2/2 1/1/1
f 4/4/4 3/3/3 1/1/1
f 7/7/7 6/6/6 5/5/5
f 8/8/8 7/7/7 5/5/5
f 6/6/6 10/10/10 9/9/9
f 5/5/5 6/6/6 9/9/9
f 11/11/11 3/3/3 4/4/4
f 12/12/12 11/11/11 4/4/4
f 13/13/13 11/11/11 12/12/12
f 14/14/14 13/13/13 12/12/12
f 2/2/2 7/7/7 8/8/8
f 1/1/1 2/2/2 8/8/8
f 1/1/1 8/8/8 15/15/15
f 16/16/16 1/1/1 15/15/15
f 14/14/14 12/12/12 17/17/17
f 18/18/18 14/14/14 17/17/17
f 12/12/12 4/4/4 19/19/19
f 17/17/17 12/12/12 19/19/19
f 5/5/5 9/9/9 20/20/20
f 21/21/21 5/5/5 20/20/20
f 8/8/8 5/5/5 21/21/21
f 15/15/15 8/8/8 21/21/21
f 4/4/4 1/1/1 16/16/16
f 19/19/19 4/4/4 16/16/16
f 24/24/24 23/23/23 22/22/22
f 25/25/25 24/24/24 22/22/22
f 28/28/28 27/27/27 26/26/26
f 29/29/29 28/28/28 26/26/26
f 31/31/31 30/30/30 15/15/15
f 21/21/21 31/31/31 15/15/15
f 32/32/32 31/31/31 21/21/21
f 20/20/20 32/32/32 21/21/21
f 34/34/34 33/33/33 18/18/18
f 17/17/17 34/34/34 18/18/18
f 35/35/35 34/34/34 17/17/17
f 19/19/19 35/35/35 17/17/17
f 36/36/36 35/35/35 19/19/19
f 16/16/16 36/36/36 19/19/19
f 30/30/30 36/36/36 16/16/16
f 15/15/15 30/30/30 16/16/16
f 38/38/38 37/37/37 7/7/7
f 2/2/2 38/38/38 7/7/7
f 39/39/39 38/38/38 2/2/2
f 3/3/3 39/39/39 2/2/2
f 40/40/40 39/39/39 3/3/3
f 11/11/11 40/40/40 3/3/3
f 41/41/41 40/40/40 11/11/11
f 13/13/13 41/41/41 11/11/11
f 43/43/43 42/42/42 10/10/10
f 6/6/6 43/43/43 10/10/10
f 37/37/37 43/43/43 6/6/6
f 7/7/7 37/37/37 6/6/6
f 44/44/44 28/28/28 29/29/29
f 45/45/45 44/44/44 29/29/29
f 22/22/22 23/23/23 39/39/39
f 46/46/46 22/22/22 39/39/39
