g CircleZoneMesh
v 0.06507367 5.90086E-06 0.8060022
v 0.07258606 5.90086E-06 0.89937013
v -0.07259786 5.90086E-06 0.89937013
v -0.06505799 5.90086E-06 0.8060022
v 0.19352674 5.90086E-06 0.7851437
v 0.21589875 5.90086E-06 0.87609
v 0.31694406 5.90086E-06 0.74392205
v 0.35359782 5.90086E-06 0.83010775
v 0.43218863 5.90086E-06 0.6834654
v 0.48216096 5.90086E-06 0.7626341
v 0.5362059 5.90086E-06 0.6052874
v 0.598231 5.90086E-06 0.67543024
v 0.6263542 5.90086E-06 0.5114241
v 0.69880855 5.90086E-06 0.570725
v 0.70029455 5.90086E-06 0.40432495
v 0.7812794 5.90086E-06 0.45124274
v 0.7560731 5.90086E-06 0.28676885
v 0.8435247 5.90086E-06 0.32006544
v 0.7922865 5.90086E-06 0.1617555
v 0.88389325 5.90086E-06 0.18060523
v 0.80797166 5.90086E-06 0.03258699
v 0.9013946 5.90086E-06 0.036494493
v 0.8027158 5.90086E-06 -0.09746212
v 0.8955608 5.90086E-06 -0.10857934
v 0.7766839 5.90086E-06 -0.2249521
v 0.8665295 5.90086E-06 -0.25081885
v 0.7305641 5.90086E-06 -0.34663582
v 0.81504375 5.90086E-06 -0.38656414
v 0.66548455 5.90086E-06 -0.4593487
v 0.7424518 5.90086E-06 -0.51232046
v 0.58317876 5.90086E-06 -0.5601464
v 0.6506249 5.90086E-06 -0.6247582
v 0.48576578 5.90086E-06 -0.6464422
v 0.54195714 5.90086E-06 -0.72104293
v 0.37577713 5.90086E-06 -0.7159797
v 0.41925526 5.90086E-06 -0.7986431
v 0.25607473 5.90086E-06 -0.7669977
v 0.28568387 5.90086E-06 -0.85554993
v 0.129713 5.90086E-06 -0.7981478
v 0.14471018 5.90086E-06 -0.8902774
v -5.90086E-06 5.90086E-06 -0.8086046
v -5.90086E-06 5.90086E-06 -0.9019725
v -0.1297248 5.90086E-06 -0.7981478
v -0.14472204 5.90086E-06 -0.8902774
v -0.256059 5.90086E-06 -0.7669977
v -0.2856682 5.90086E-06 -0.85554993
v -0.375789 5.90086E-06 -0.7159797
v -0.41923958 5.90086E-06 -0.7986431
v -0.48577756 5.90086E-06 -0.6464422
v -0.54194146 5.90086E-06 -0.72104293
v -0.5831906 5.90086E-06 -0.5601464
v -0.65063673 5.90086E-06 -0.6247582
v -0.6654963 5.90086E-06 -0.4593487
v -0.7424361 5.90086E-06 -0.51232046
v -0.73054844 5.90086E-06 -0.34663582
v -0.815028 5.90086E-06 -0.38656414
v -0.7766958 5.90086E-06 -0.2249521
v -0.8665138 5.90086E-06 -0.25081885
v -0.80272764 5.90086E-06 -0.09746212
v -0.8955726 5.90086E-06 -0.10857934
v -0.8079559 5.90086E-06 0.03258699
v -0.90140647 5.90086E-06 0.036494493
v -0.79227084 5.90086E-06 0.1617555
v -0.8839051 5.90086E-06 0.18060523
v -0.756085 5.90086E-06 0.28676885
v -0.843509 5.90086E-06 0.32006544
v -0.7002788 5.90086E-06 0.40432495
v -0.78126365 5.90086E-06 0.45124274
v -0.6263661 5.90086E-06 0.5114241
v -0.6987929 5.90086E-06 0.570725
v -0.53621775 5.90086E-06 0.6052874
v -0.5982153 5.90086E-06 0.67543024
v -0.43217295 5.90086E-06 0.6834654
v -0.4821728 5.90086E-06 0.7626341
v -0.31695586 5.90086E-06 0.74392205
v -0.35360962 5.90086E-06 0.83010775
v -0.19351107 5.90086E-06 0.7851437
v -0.21588308 5.90086E-06 0.87609
v -5.90086E-06 5.90086E-06 -0.00062698126
vt 0.50458467 0.44240913
vt 0.5052127 0.43575194
vt 0.4947873 0.43575194
vt 0.49541536 0.44240913
vt 0.513754 0.4439164
vt 0.5153869 0.43738484
vt 0.5225465 0.4468054
vt 0.5251843 0.4406506
vt 0.5308366 0.45120162
vt 0.53435355 0.4455493
vt 0.5382474 0.45672834
vt 0.54264367 0.45170406
vt 0.54465336 0.46338552
vt 0.54980326 0.4592405
vt 0.54992884 0.47104755
vt 0.5557068 0.46778178
vt 0.5539483 0.47946325
vt 0.56010306 0.4770767
vt 0.55646044 0.48838136
vt 0.562992 0.48699966
vt 0.5575909 0.49755067
vt 0.5642481 0.49729946
vt 0.5572141 0.5068456
vt 0.56387126 0.50759923
vt 0.55533 0.51601493
vt 0.5617359 0.51777345
vt 0.5520642 0.5246818
vt 0.5580933 0.5274452
vt 0.54741675 0.5327207
vt 0.55294347 0.5364889
vt 0.5415132 0.5398803
vt 0.5464119 0.54452777
vt 0.5346048 0.54603505
vt 0.5386242 0.55131054
vt 0.52681714 0.5509337
vt 0.5298317 0.55683726
vt 0.51827586 0.55457634
vt 0.5204112 0.5609823
vt 0.50923216 0.55683726
vt 0.5103626 0.56336886
vt 0.4999372 0.5575909
vt 0.4999372 0.5642481
vt 0.4907679 0.55683726
vt 0.48963743 0.56336886
vt 0.48172417 0.55457634
vt 0.47958884 0.5609823
vt 0.4731829 0.5509337
vt 0.47016832 0.55683726
vt 0.46539524 0.54603505
vt 0.4613758 0.55131054
vt 0.45848686 0.5398803
vt 0.45358816 0.54452777
vt 0.4525833 0.5327207
vt 0.4470566 0.5364889
vt 0.44793585 0.5246818
vt 0.4419067 0.5274452
vt 0.44467005 0.51601493
vt 0.4382641 0.51777345
vt 0.44278595 0.5068456
vt 0.43612877 0.50759923
vt 0.44240913 0.49755067
vt 0.43575194 0.49729946
vt 0.4435396 0.48838136
vt 0.43700802 0.48699966
vt 0.44605175 0.47946325
vt 0.43989697 0.4770767
vt 0.45007116 0.47104755
vt 0.44429323 0.46778178
vt 0.45534667 0.46338552
vt 0.45019677 0.4592405
vt 0.46175262 0.45672834
vt 0.4573564 0.45170406
vt 0.46916345 0.45120162
vt 0.46564645 0.4455493
vt 0.47745353 0.4468054
vt 0.4748158 0.4406506
vt 0.48624602 0.4439164
vt 0.48461312 0.43738484
vt 0.4999372 0.4999372
vn -0 1 -0
vn -0 1 -0
vn -0 1 -0
vn -0 1 -0
vn -0 1 -0
vn -0 1 -0
vn -0 1 -0
vn -0 1 -0
vn -0 1 -0
vn -0 1 -0
vn -0 1 -0
vn -0 1 -0
vn -0 1 -0
vn -0 1 -0
vn -0 1 -0
vn -0 1 -0
vn -0 1 -0
vn -0 1 -0
vn -0 1 -0
vn -0 1 -0
vn -0 1 -0
vn -0 1 -0
vn -0 1 -0
vn -0 1 -0
vn -0 1 -0
vn -0 1 -0
vn -0 1 -0
vn -0 1 -0
vn -0 1 -0
vn -0 1 -0
vn -0 1 -0
vn -0 1 -0
vn -0 1 -0
vn -0 1 -0
vn -0 1 -0
vn -0 1 -0
vn -0 1 -0
vn -0 1 -0
vn -0 1 -0
vn -0 1 -0
vn -0 1 -0
vn -0 1 -0
vn -0 1 -0
vn -0 1 -0
vn -0 1 -0
vn -0 1 -0
vn -0 1 -0
vn -0 1 -0
vn -0 1 -0
vn -0 1 -0
vn -0 1 -0
vn -0 1 -0
vn -0 1 -0
vn -0 1 -0
vn -0 1 -0
vn -0 1 -0
vn -0 1 -0
vn -0 1 -0
vn -0 1 -0
vn -0 1 -0
vn -0 1 -0
vn -0 1 -0
vn -0 1 -0
vn -0 1 -0
vn -0 1 -0
vn -0 1 -0
vn -0 1 -0
vn -0 1 -0
vn -0 1 -0
vn -0 1 -0
vn -0 1 -0
vn -0 1 -0
vn -0 1 -0
vn -0 1 -0
vn -0 1 -0
vn -0 1 -0
vn -0 1 -0
vn -0 1 -0
vn -0 1 -0
g CircleZoneMesh_0
f 3/3/3 2/2/2 1/1/1
f 4/4/4 3/3/3 1/1/1
f 2/2/2 6/6/6 5/5/5
f 1/1/1 2/2/2 5/5/5
f 6/6/6 8/8/8 7/7/7
f 5/5/5 6/6/6 7/7/7
f 8/8/8 10/10/10 9/9/9
f 7/7/7 8/8/8 9/9/9
f 10/10/10 12/12/12 11/11/11
f 9/9/9 10/10/10 11/11/11
f 12/12/12 14/14/14 13/13/13
f 11/11/11 12/12/12 13/13/13
f 14/14/14 16/16/16 15/15/15
f 13/13/13 14/14/14 15/15/15
f 16/16/16 18/18/18 17/17/17
f 15/15/15 16/16/16 17/17/17
f 18/18/18 20/20/20 19/19/19
f 17/17/17 18/18/18 19/19/19
f 20/20/20 22/22/22 21/21/21
f 19/19/19 20/20/20 21/21/21
f 22/22/22 24/24/24 23/23/23
f 21/21/21 22/22/22 23/23/23
f 24/24/24 26/26/26 25/25/25
f 23/23/23 24/24/24 25/25/25
f 26/26/26 28/28/28 27/27/27
f 25/25/25 26/26/26 27/27/27
f 28/28/28 30/30/30 29/29/29
f 27/27/27 28/28/28 29/29/29
f 30/30/30 32/32/32 31/31/31
f 29/29/29 30/30/30 31/31/31
f 32/32/32 34/34/34 33/33/33
f 31/31/31 32/32/32 33/33/33
f 34/34/34 36/36/36 35/35/35
f 33/33/33 34/34/34 35/35/35
f 36/36/36 38/38/38 37/37/37
f 35/35/35 36/36/36 37/37/37
f 38/38/38 40/40/40 39/39/39
f 37/37/37 38/38/38 39/39/39
f 40/40/40 42/42/42 41/41/41
f 39/39/39 40/40/40 41/41/41
f 42/42/42 44/44/44 43/43/43
f 41/41/41 42/42/42 43/43/43
f 44/44/44 46/46/46 45/45/45
f 43/43/43 44/44/44 45/45/45
f 46/46/46 48/48/48 47/47/47
f 45/45/45 46/46/46 47/47/47
f 48/48/48 50/50/50 49/49/49
f 47/47/47 48/48/48 49/49/49
f 50/50/50 52/52/52 51/51/51
f 49/49/49 50/50/50 51/51/51
f 52/52/52 54/54/54 53/53/53
f 51/51/51 52/52/52 53/53/53
f 54/54/54 56/56/56 55/55/55
f 53/53/53 54/54/54 55/55/55
f 56/56/56 58/58/58 57/57/57
f 55/55/55 56/56/56 57/57/57
f 58/58/58 60/60/60 59/59/59
f 57/57/57 58/58/58 59/59/59
f 60/60/60 62/62/62 61/61/61
f 59/59/59 60/60/60 61/61/61
f 62/62/62 64/64/64 63/63/63
f 61/61/61 62/62/62 63/63/63
f 64/64/64 66/66/66 65/65/65
f 63/63/63 64/64/64 65/65/65
f 66/66/66 68/68/68 67/67/67
f 65/65/65 66/66/66 67/67/67
f 68/68/68 70/70/70 69/69/69
f 67/67/67 68/68/68 69/69/69
f 70/70/70 72/72/72 71/71/71
f 69/69/69 70/70/70 71/71/71
f 72/72/72 74/74/74 73/73/73
f 71/71/71 72/72/72 73/73/73
f 74/74/74 76/76/76 75/75/75
f 73/73/73 74/74/74 75/75/75
f 76/76/76 78/78/78 77/77/77
f 75/75/75 76/76/76 77/77/77
f 78/78/78 3/3/3 4/4/4
f 77/77/77 78/78/78 4/4/4
f 1/1/1 79/79/79 4/4/4
f 5/5/5 79/79/79 1/1/1
f 7/7/7 79/79/79 5/5/5
f 9/9/9 79/79/79 7/7/7
f 11/11/11 79/79/79 9/9/9
f 13/13/13 79/79/79 11/11/11
f 15/15/15 79/79/79 13/13/13
f 17/17/17 79/79/79 15/15/15
f 19/19/19 79/79/79 17/17/17
f 21/21/21 79/79/79 19/19/19
f 23/23/23 79/79/79 21/21/21
f 25/25/25 79/79/79 23/23/23
f 27/27/27 79/79/79 25/25/25
f 29/29/29 79/79/79 27/27/27
f 31/31/31 79/79/79 29/29/29
f 33/33/33 79/79/79 31/31/31
f 35/35/35 79/79/79 33/33/33
f 37/37/37 79/79/79 35/35/35
f 39/39/39 79/79/79 37/37/37
f 41/41/41 79/79/79 39/39/39
f 43/43/43 79/79/79 41/41/41
f 45/45/45 79/79/79 43/43/43
f 47/47/47 79/79/79 45/45/45
f 49/49/49 79/79/79 47/47/47
f 51/51/51 79/79/79 49/49/49
f 53/53/53 79/79/79 51/51/51
f 55/55/55 79/79/79 53/53/53
f 57/57/57 79/79/79 55/55/55
f 59/59/59 79/79/79 57/57/57
f 61/61/61 79/79/79 59/59/59
f 63/63/63 79/79/79 61/61/61
f 65/65/65 79/79/79 63/63/63
f 67/67/67 79/79/79 65/65/65
f 69/69/69 79/79/79 67/67/67
f 71/71/71 79/79/79 69/69/69
f 73/73/73 79/79/79 71/71/71
f 75/75/75 79/79/79 73/73/73
f 77/77/77 79/79/79 75/75/75
f 4/4/4 79/79/79 77/77/77
