g CryoTurretMesh5_1
v -27.185005 66.90996 -76.28301
v -27.185005 75.76045 -76.28301
v -31.057648 79.05827 -55.257553
v -31.057648 63.615112 -55.257553
v -31.057648 79.05827 -55.257553
v -27.185005 75.76045 -76.28301
v -24.213112 75.76045 -75.779305
v -26.5924 79.05827 -54.333096
v -26.5924 79.05827 -54.333096
v -24.213112 75.76045 -75.779305
v -24.213112 66.90996 -75.779305
v -26.5924 63.615112 -54.333096
v -26.5924 63.615112 -54.333096
v -24.213112 66.90996 -75.779305
v -27.185005 66.90996 -76.28301
v -31.057648 63.615112 -55.257553
v -26.5924 79.05827 -54.333096
v -26.5924 63.615112 -54.333096
v -31.057648 63.615112 -55.257553
v -31.057648 79.05827 -55.257553
v -27.185005 66.90996 -76.28301
v -24.213112 66.90996 -75.779305
v -24.213112 75.76045 -75.779305
v -27.185005 75.76045 -76.28301
v 4.424301 92.682144 -80.88159
v 7.722122 99.75484 -60.49614
v 7.722122 103.906006 -62.386536
v 4.424301 95.47034 -82.031235
v -4.4232254 95.47034 -82.031235
v -7.7210464 103.906006 -62.386536
v -7.7210464 99.75484 -60.49614
v -4.4232254 92.682144 -80.88159
v 7.722122 103.906006 -62.386536
v -7.7210464 103.906006 -62.386536
v -4.4232254 95.47034 -82.031235
v 4.424301 95.47034 -82.031235
v 7.722122 99.75484 -60.49614
v -7.7210464 99.75484 -60.49614
v -7.7210464 103.906006 -62.386536
v 7.722122 103.906006 -62.386536
v -7.7210464 99.75484 -60.49614
v 7.722122 99.75484 -60.49614
v 4.424301 92.682144 -80.88159
v -4.4232254 92.682144 -80.88159
v -4.4232254 95.47034 -82.031235
v -4.4232254 92.682144 -80.88159
v 4.424301 92.682144 -80.88159
v 4.424301 95.47034 -82.031235
v 24.214184 66.90996 -75.779305
v 26.593475 63.615112 -54.333096
v 31.055756 63.615112 -55.257553
v 27.186077 66.90996 -76.28301
v 27.186077 75.76045 -76.28301
v 31.055756 79.05827 -55.257553
v 26.593475 79.05827 -54.333096
v 24.214184 75.76045 -75.779305
v 31.055756 63.615112 -55.257553
v 31.055756 79.05827 -55.257553
v 27.186077 75.76045 -76.28301
v 27.186077 66.90996 -76.28301
v 26.593475 63.615112 -54.333096
v 26.593475 79.05827 -54.333096
v 31.055756 79.05827 -55.257553
v 31.055756 63.615112 -55.257553
v 26.593475 79.05827 -54.333096
v 26.593475 63.615112 -54.333096
v 24.214184 66.90996 -75.779305
v 24.214184 75.76045 -75.779305
v 27.186077 75.76045 -76.28301
v 24.214184 75.76045 -75.779305
v 24.214184 66.90996 -75.779305
v 27.186077 66.90996 -76.28301
v -25.579056 105.96825 -35.298775
v -25.579056 105.96825 -45.666317
v 0.0005340576 112.14908 -45.666317
v 0.0005340576 112.14908 -35.298775
v 25.577168 105.96825 -35.298775
v 25.577168 105.96825 -45.666317
v 41.38774 84.20796 -45.666317
v 41.38774 84.20796 -35.298775
v 41.38774 57.315765 -45.666317
v 41.38774 57.315765 -35.298775
v 25.577168 35.55548 -45.666317
v 25.577168 35.55548 -35.298775
v -25.579056 105.96825 -45.666317
v -23.152359 102.62895 -46.827812
v 0.0005340576 108.2231 -46.827812
v 0.0005340576 112.14908 -45.666317
v 25.577168 105.96825 -45.666317
v 23.15343 102.62895 -46.827812
v 25.577168 105.96825 -35.298775
v 41.38774 84.20796 -35.298775
v 39.266235 83.52055 -34.14024
v 24.26752 104.16379 -34.14024
v 37.461765 82.93388 -46.827812
v 41.38774 84.20796 -45.666317
v 41.38774 57.315765 -35.298775
v 39.266235 58.003174 -34.14024
v 37.461765 58.58986 -46.827812
v 41.38774 57.315765 -45.666317
v 25.577168 35.55548 -35.298775
v 24.26752 37.359947 -34.14024
v 23.15343 38.894783 -46.827812
v 25.577168 35.55548 -45.666317
v 0.0005340576 29.374657 -35.298775
v 0.0005340576 31.49617 -34.14024
v -25.579056 35.55548 -35.298775
v -24.26941 37.359947 -34.14024
v -41.386665 84.20796 -35.298775
v -41.386665 84.20796 -45.666317
v -41.386665 57.315765 -35.298775
v -41.386665 57.315765 -45.666317
v -25.579056 35.55548 -35.298775
v -25.579056 35.55548 -45.666317
v 0.0005340576 29.374657 -35.298775
v 0.0005340576 29.374657 -45.666317
v -25.579056 105.96825 -35.298775
v 0.0005340576 112.14908 -35.298775
v 0.0005340576 110.02756 -34.14024
v -24.26941 104.16379 -34.14024
v -41.386665 84.20796 -45.666317
v -37.460693 82.93388 -46.827812
v -39.26516 83.52055 -34.14024
v -41.386665 84.20796 -35.298775
v -41.386665 57.315765 -45.666317
v -37.460693 58.58986 -46.827812
v -39.26516 58.003174 -34.14024
v -41.386665 57.315765 -35.298775
v -25.579056 35.55548 -45.666317
v -23.152359 38.894783 -46.827812
v 0.0005340576 29.374657 -45.666317
v 0.0005340576 33.300636 -46.827812
v 4.424301 46.829697 -81.45641
v -4.4232254 46.829697 -81.45641
v -7.7210464 38.86219 -61.616154
v 7.722122 38.86219 -61.616154
v -7.7210464 38.86219 -61.616154
v -4.4232254 46.829697 -81.45641
v -4.4232254 49.641586 -80.371956
v -7.7210464 43.05484 -59.82354
v -7.7210464 43.05484 -59.82354
v -4.4232254 49.641586 -80.371956
v 4.424301 49.641586 -80.371956
v 7.722122 43.05484 -59.82354
v 7.722122 43.05484 -59.82354
v 4.424301 49.641586 -80.371956
v 4.424301 46.829697 -81.45641
v 7.722122 38.86219 -61.616154
v -7.7210464 43.05484 -59.82354
v 7.722122 43.05484 -59.82354
v 7.722122 38.86219 -61.616154
v -7.7210464 38.86219 -61.616154
v 4.424301 46.829697 -81.45641
v 4.424301 49.641586 -80.371956
v -4.4232254 49.641586 -80.371956
v -4.4232254 46.829697 -81.45641
vt 0.04332009 0.4640655
vt 0.040932205 0.4640655
vt 0.03997705 0.470274
vt 0.044275243 0.470274
vt 0.03997705 0.470274
vt 0.040932205 0.4640655
vt 0.040454626 0.4635879
vt 0.039021894 0.47122917
vt 0.01227758 0.4803031
vt 0.011322426 0.47409463
vt 0.008456963 0.47409463
vt 0.007501809 0.4803031
vt 0.0452304 0.47122917
vt 0.043797668 0.4635879
vt 0.04332009 0.4640655
vt 0.044275243 0.470274
vt 0.039021894 0.47122917
vt 0.0452304 0.47122917
vt 0.044275243 0.470274
vt 0.03997705 0.470274
vt 0.04332009 0.4640655
vt 0.043797668 0.4635879
vt 0.040454626 0.4635879
vt 0.040932205 0.4640655
vt 0.042364936 0.48316857
vt 0.041409783 0.49033225
vt 0.041887358 0.48937708
vt 0.04284251 0.48364615
vt 0.0452304 0.48364615
vt 0.046185553 0.48937708
vt 0.046663128 0.49033225
vt 0.045707975 0.48316857
vt 0.041887358 0.48937708
vt 0.046185553 0.48937708
vt 0.0452304 0.48364615
vt 0.04284251 0.48364615
vt 0.041409783 0.49033225
vt 0.046663128 0.49033225
vt 0.046185553 0.48937708
vt 0.041887358 0.48937708
vt 0.0017708838 0.47122917
vt 0.0060690776 0.47122917
vt 0.0051139235 0.46502066
vt 0.002726038 0.46502066
vt 0.0452304 0.48364615
vt 0.045707975 0.48316857
vt 0.042364936 0.48316857
vt 0.04284251 0.48364615
vt 0.043797668 0.4635879
vt 0.0452304 0.47122917
vt 0.044275243 0.470274
vt 0.04332009 0.4640655
vt 0.040932205 0.4640655
vt 0.03997705 0.470274
vt 0.039021894 0.47122917
vt 0.040454626 0.4635879
vt 0.044275243 0.470274
vt 0.03997705 0.470274
vt 0.040932205 0.4640655
vt 0.04332009 0.4640655
vt 0.0452304 0.47122917
vt 0.039021894 0.47122917
vt 0.03997705 0.470274
vt 0.044275243 0.470274
vt 0.01227758 0.4803031
vt 0.007501809 0.4803031
vt 0.008456963 0.47409463
vt 0.011322426 0.47409463
vt 0.040932205 0.4640655
vt 0.040454626 0.4635879
vt 0.043797668 0.4635879
vt 0.04332009 0.4640655
vt 0.055737093 0.46979642
vt 0.055737093 0.46549824
vt 0.051916476 0.46549824
vt 0.051916476 0.46979642
vt 0.055737093 0.46979642
vt 0.055737093 0.46549824
vt 0.06337833 0.46549824
vt 0.06337833 0.46979642
vt 0.071497135 0.46549824
vt 0.071497135 0.46979642
vt 0.07913837 0.46549824
vt 0.07913837 0.46979642
vt 0.055737093 0.46549824
vt 0.055737093 0.4635879
vt 0.051916476 0.4635879
vt 0.051916476 0.46549824
vt 0.055737093 0.46549824
vt 0.055737093 0.4635879
vt 0.055737093 0.46979642
vt 0.06337833 0.46979642
vt 0.06337833 0.47075158
vt 0.055737093 0.47075158
vt 0.06337833 0.4635879
vt 0.06337833 0.46549824
vt 0.071497135 0.46979642
vt 0.071497135 0.47075158
vt 0.071497135 0.4635879
vt 0.071497135 0.46549824
vt 0.07913837 0.46979642
vt 0.07913837 0.47075158
vt 0.07913837 0.4635879
vt 0.07913837 0.46549824
vt 0.08295899 0.46979642
vt 0.08295899 0.47075158
vt 0.07913837 0.46979642
vt 0.07913837 0.47075158
vt 0.06337833 0.46979642
vt 0.06337833 0.46549824
vt 0.071497135 0.46979642
vt 0.071497135 0.46549824
vt 0.07913837 0.46979642
vt 0.07913837 0.46549824
vt 0.08295899 0.46979642
vt 0.08295899 0.46549824
vt 0.055737093 0.46979642
vt 0.051916476 0.46979642
vt 0.051916476 0.47075158
vt 0.055737093 0.47075158
vt 0.06337833 0.46549824
vt 0.06337833 0.4635879
vt 0.06337833 0.47075158
vt 0.06337833 0.46979642
vt 0.071497135 0.46549824
vt 0.071497135 0.4635879
vt 0.071497135 0.47075158
vt 0.071497135 0.46979642
vt 0.07913837 0.46549824
vt 0.07913837 0.4635879
vt 0.08295899 0.46549824
vt 0.08295899 0.4635879
vt 0.0452304 0.47409463
vt 0.04284251 0.47409463
vt 0.041887358 0.4803031
vt 0.046185553 0.4803031
vt 0.041887358 0.4803031
vt 0.04284251 0.47409463
vt 0.042364936 0.47361705
vt 0.040932205 0.4807807
vt 0.0065466547 0.47934797
vt 0.0055915006 0.47313946
vt 0.002726038 0.47313946
vt 0.0017708838 0.47934797
vt 0.047140706 0.4807807
vt 0.045707975 0.47361705
vt 0.0452304 0.47409463
vt 0.046185553 0.4803031
vt 0.040932205 0.4807807
vt 0.047140706 0.4807807
vt 0.046185553 0.4803031
vt 0.041887358 0.4803031
vt 0.0452304 0.47409463
vt 0.045707975 0.47361705
vt 0.042364936 0.47361705
vt 0.04284251 0.47409463
vn -0.9843061 0.003921509 -0.17642602
vn -0.9843061 0.003921509 -0.17642602
vn -0.9843061 0.003921509 -0.17642602
vn -0.9843061 0.003921509 -0.17642602
vn 0.0274508 0.99214923 -0.122009754
vn 0.0274508 0.99214923 -0.122009754
vn 0.0274508 0.99214923 -0.122009754
vn 0.0274508 0.99214923 -0.122009754
vn 0.9921493 0.003921509 0.124997616
vn 0.9921493 0.003921509 0.124997616
vn 0.9921493 0.003921509 0.124997616
vn 0.9921493 0.003921509 0.124997616
vn 0.0274508 -0.9921493 -0.12200926
vn 0.0274508 -0.9921493 -0.12200926
vn 0.0274508 -0.9921493 -0.12200926
vn 0.0274508 -0.9921493 -0.12200926
vn -0.19999838 0.003921509 0.97978836
vn -0.19999838 0.003921509 0.97978836
vn -0.19999838 0.003921509 0.97978836
vn -0.19999838 0.003921509 0.97978836
vn 0.16862619 0.003921509 -0.98567224
vn 0.16862619 0.003921509 -0.98567224
vn 0.16862619 0.003921509 -0.98567224
vn 0.16862619 0.003921509 -0.98567224
vn 0.9921493 -0.05882311 -0.11036134
vn 0.9921493 -0.05882311 -0.11036134
vn 0.9921493 -0.05882311 -0.11036134
vn 0.9921493 -0.05882311 -0.11036134
vn -0.99214923 -0.05882311 -0.110361874
vn -0.99214923 -0.05882311 -0.110361874
vn -0.99214923 -0.05882311 -0.110361874
vn -0.99214923 -0.05882311 -0.110361874
vn -0.003921509 0.9215615 -0.38821262
vn -0.003921509 0.9215615 -0.38821262
vn -0.003921509 0.9215615 -0.38821262
vn -0.003921509 0.9215615 -0.38821262
vn -0.003921509 0.41176152 0.9112832
vn -0.003921509 0.41176152 0.9112832
vn -0.003921509 0.41176152 0.9112832
vn -0.003921509 0.41176152 0.9112832
vn -0.003921509 -0.94509083 0.32678422
vn -0.003921509 -0.94509083 0.32678422
vn -0.003921509 -0.94509083 0.32678422
vn -0.003921509 -0.94509083 0.32678422
vn -0.003921509 -0.38038927 -0.92481816
vn -0.003921509 -0.38038927 -0.92481816
vn -0.003921509 -0.38038927 -0.92481816
vn -0.003921509 -0.38038927 -0.92481816
vn -0.02745068 -0.9921493 -0.12200926
vn -0.02745068 -0.9921493 -0.12200926
vn -0.02745068 -0.9921493 -0.12200926
vn -0.02745068 -0.9921493 -0.12200926
vn -0.02745068 0.99214923 -0.122009754
vn -0.02745068 0.99214923 -0.122009754
vn -0.02745068 0.99214923 -0.122009754
vn -0.02745068 0.99214923 -0.122009754
vn 0.9843062 0.003921509 -0.17642535
vn 0.9843062 0.003921509 -0.17642535
vn 0.9843062 0.003921509 -0.17642535
vn 0.9843062 0.003921509 -0.17642535
vn 0.1999985 0.003921509 0.97978836
vn 0.1999985 0.003921509 0.97978836
vn 0.1999985 0.003921509 0.97978836
vn 0.1999985 0.003921509 0.97978836
vn -0.99214923 0.003921509 0.12499809
vn -0.99214923 0.003921509 0.12499809
vn -0.99214923 0.003921509 0.12499809
vn -0.99214923 0.003921509 0.12499809
vn -0.16862607 0.003921509 -0.9856723
vn -0.16862607 0.003921509 -0.9856723
vn -0.16862607 0.003921509 -0.9856723
vn -0.16862607 0.003921509 -0.9856723
vn -0.5607799 0.82744455 -0.029349724
vn -0.5607799 0.82744455 -0.029349724
vn -0.003921509 0.99999225 -0.00034526698
vn -0.003921509 0.99999225 -0.00034526698
vn 0.56078005 0.82744455 -0.029347694
vn 0.56078005 0.82744455 -0.029347694
vn 0.9510054 0.3091745 -0
vn 0.9510054 0.3091745 -0
vn 0.9510053 -0.30917457 -0
vn 0.9510053 -0.30917457 -0
vn 0.56078005 -0.8274447 -0.029344646
vn 0.56078005 -0.8274447 -0.029344646
vn -0.15293992 0.22352767 -0.9626239
vn -0.15293992 0.22352767 -0.9626239
vn -0.003921509 0.2862723 -0.9581403
vn -0.003921509 0.2862723 -0.9581403
vn 0.15294003 0.22352767 -0.9626239
vn 0.15294003 0.22352767 -0.9626239
vn 0.26274312 0.3803892 0.88671875
vn 0.4352908 0.1450969 0.88852054
vn 0.4352908 0.1450969 0.88852054
vn 0.25490004 0.38823223 0.88560814
vn 0.25490004 0.08235228 -0.96345425
vn 0.25490004 0.08235228 -0.96345425
vn 0.4352908 -0.14509696 0.88852054
vn 0.4352908 -0.14509696 0.88852054
vn 0.25490004 -0.08235234 -0.96345425
vn 0.25490004 -0.08235234 -0.96345425
vn 0.26274312 -0.38038927 0.8867187
vn 0.25490004 -0.38823235 0.8856081
vn 0.15294003 -0.22352773 -0.96262383
vn 0.15294003 -0.22352773 -0.96262383
vn -0.003921509 -0.48234928 0.8759702
vn -0.003921509 -0.48234928 0.8759702
vn -0.262743 -0.38038927 0.88671875
vn -0.25489998 -0.38823235 0.8856081
vn -0.9510054 0.30917454 -0
vn -0.9510054 0.30917454 -0
vn -0.9510053 -0.30917463 -0
vn -0.9510053 -0.30917463 -0
vn -0.5607799 -0.8274447 -0.029346678
vn -0.5607799 -0.8274447 -0.029346678
vn -0.003921509 -0.9999924 -0
vn -0.003921509 -0.9999924 -0
vn -0.262743 0.3803892 0.8867188
vn -0.003921509 0.48234916 0.87597024
vn -0.003921509 0.48234916 0.87597024
vn -0.25489998 0.38823223 0.88560814
vn -0.25489998 0.08235228 -0.96345425
vn -0.25489998 0.08235228 -0.96345425
vn -0.4352907 0.1450969 0.8885206
vn -0.4352907 0.1450969 0.8885206
vn -0.25489998 -0.08235234 -0.96345425
vn -0.25489998 -0.08235234 -0.96345425
vn -0.4352907 -0.14509696 0.8885206
vn -0.4352907 -0.14509696 0.8885206
vn -0.15293992 -0.22352773 -0.9626239
vn -0.15293992 -0.22352773 -0.9626239
vn -0.003921509 -0.28627235 -0.95814025
vn -0.003921509 -0.28627235 -0.95814025
vn -0.003921509 -0.9294047 -0.36904138
vn -0.003921509 -0.9294047 -0.36904138
vn -0.003921509 -0.9294047 -0.36904138
vn -0.003921509 -0.9294047 -0.36904138
vn -0.99214923 0.05882299 -0.11036193
vn -0.99214923 0.05882299 -0.11036193
vn -0.99214923 0.05882299 -0.11036193
vn -0.99214923 0.05882299 -0.11036193
vn -0.003921509 0.9529338 0.30315316
vn -0.003921509 0.9529338 0.30315316
vn -0.003921509 0.9529338 0.30315316
vn -0.003921509 0.9529338 0.30315316
vn 0.9921493 0.05882299 -0.1103614
vn 0.9921493 0.05882299 -0.1103614
vn 0.9921493 0.05882299 -0.1103614
vn 0.9921493 0.05882299 -0.1103614
vn -0.003921509 -0.39607543 0.9182096
vn -0.003921509 -0.39607543 0.9182096
vn -0.003921509 -0.39607543 0.9182096
vn -0.003921509 -0.39607543 0.9182096
vn -0.003921509 0.35685992 -0.9341497
vn -0.003921509 0.35685992 -0.9341497
vn -0.003921509 0.35685992 -0.9341497
vn -0.003921509 0.35685992 -0.9341497
g CryoTurretMesh5_1_0
f 3/3/3 2/2/2 1/1/1
f 4/4/4 3/3/3 1/1/1
f 7/7/7 6/6/6 5/5/5
f 8/8/8 7/7/7 5/5/5
f 11/11/11 10/10/10 9/9/9
f 12/12/12 11/11/11 9/9/9
f 15/15/15 14/14/14 13/13/13
f 16/16/16 15/15/15 13/13/13
f 19/19/19 18/18/18 17/17/17
f 20/20/20 19/19/19 17/17/17
f 23/23/23 22/22/22 21/21/21
f 24/24/24 23/23/23 21/21/21
f 27/27/27 26/26/26 25/25/25
f 28/28/28 27/27/27 25/25/25
f 31/31/31 30/30/30 29/29/29
f 32/32/32 31/31/31 29/29/29
f 35/35/35 34/34/34 33/33/33
f 36/36/36 35/35/35 33/33/33
f 39/39/39 38/38/38 37/37/37
f 40/40/40 39/39/39 37/37/37
f 43/43/43 42/42/42 41/41/41
f 44/44/44 43/43/43 41/41/41
f 47/47/47 46/46/46 45/45/45
f 48/48/48 47/47/47 45/45/45
f 51/51/51 50/50/50 49/49/49
f 52/52/52 51/51/51 49/49/49
f 55/55/55 54/54/54 53/53/53
f 56/56/56 55/55/55 53/53/53
f 59/59/59 58/58/58 57/57/57
f 60/60/60 59/59/59 57/57/57
f 63/63/63 62/62/62 61/61/61
f 64/64/64 63/63/63 61/61/61
f 67/67/67 66/66/66 65/65/65
f 68/68/68 67/67/67 65/65/65
f 71/71/71 70/70/70 69/69/69
f 72/72/72 71/71/71 69/69/69
f 75/75/75 74/74/74 73/73/73
f 76/76/76 75/75/75 73/73/73
f 75/75/75 76/76/76 77/77/77
f 78/78/78 75/75/75 77/77/77
f 79/79/79 78/78/78 77/77/77
f 80/80/80 79/79/79 77/77/77
f 81/81/81 79/79/79 80/80/80
f 82/82/82 81/81/81 80/80/80
f 83/83/83 81/81/81 82/82/82
f 84/84/84 83/83/83 82/82/82
f 87/87/87 86/86/86 85/85/85
f 88/88/88 87/87/87 85/85/85
f 87/87/87 88/88/88 89/89/89
f 90/90/90 87/87/87 89/89/89
f 93/93/93 92/92/92 91/91/91
f 94/94/94 93/93/93 91/91/91
f 95/95/95 90/90/90 89/89/89
f 96/96/96 95/95/95 89/89/89
f 98/98/98 97/97/97 92/92/92
f 93/93/93 98/98/98 92/92/92
f 99/99/99 95/95/95 96/96/96
f 100/100/100 99/99/99 96/96/96
f 102/102/102 101/101/101 97/97/97
f 98/98/98 102/102/102 97/97/97
f 103/103/103 99/99/99 100/100/100
f 104/104/104 103/103/103 100/100/100
f 106/106/106 105/105/105 101/101/101
f 102/102/102 106/106/106 101/101/101
f 106/106/106 108/108/108 107/107/107
f 105/105/105 106/106/106 107/107/107
f 110/110/110 109/109/109 73/73/73
f 74/74/74 110/110/110 73/73/73
f 112/112/112 111/111/111 109/109/109
f 110/110/110 112/112/112 109/109/109
f 114/114/114 113/113/113 111/111/111
f 112/112/112 114/114/114 111/111/111
f 116/116/116 115/115/115 113/113/113
f 114/114/114 116/116/116 113/113/113
f 119/119/119 118/118/118 117/117/117
f 120/120/120 119/119/119 117/117/117
f 122/122/122 121/121/121 85/85/85
f 86/86/86 122/122/122 85/85/85
f 123/123/123 120/120/120 117/117/117
f 124/124/124 123/123/123 117/117/117
f 126/126/126 125/125/125 121/121/121
f 122/122/122 126/126/126 121/121/121
f 127/127/127 123/123/123 124/124/124
f 128/128/128 127/127/127 124/124/124
f 130/130/130 129/129/129 125/125/125
f 126/126/126 130/130/130 125/125/125
f 108/108/108 127/127/127 128/128/128
f 107/107/107 108/108/108 128/128/128
f 132/132/132 131/131/131 129/129/129
f 130/130/130 132/132/132 129/129/129
f 135/135/135 134/134/134 133/133/133
f 136/136/136 135/135/135 133/133/133
f 139/139/139 138/138/138 137/137/137
f 140/140/140 139/139/139 137/137/137
f 143/143/143 142/142/142 141/141/141
f 144/144/144 143/143/143 141/141/141
f 147/147/147 146/146/146 145/145/145
f 148/148/148 147/147/147 145/145/145
f 151/151/151 150/150/150 149/149/149
f 152/152/152 151/151/151 149/149/149
f 155/155/155 154/154/154 153/153/153
f 156/156/156 155/155/155 153/153/153
f 132/132/132 103/103/103 104/104/104
f 131/131/131 132/132/132 104/104/104
f 116/116/116 83/83/83 84/84/84
f 115/115/115 116/116/116 84/84/84
f 119/119/119 94/94/94 91/91/91
f 118/118/118 119/119/119 91/91/91
