g CryoGroundEffectMesh
v -0.4821713 0.17775631 1.0795976
v -0.7570249 0.17775631 -7.9751015E-05
v 7.9751015E-05 0.17775631 0.7570249
v -0.056323707 0.17775631 7.987022E-06
v 0.14721411 0.17775631 0.60986125
v -0.23167443 0.17775631 -0.5254009
v -6.645918E-05 0.17775631 -0.75700885
v 0.3071555 0.17775631 -0.7146405
v 0.75700885 0.17775631 -0.6056055
v 0.75700885 0.17775631 6.645918E-05
v 0.33364666 0.17775631 -0.8366287
v 0.04122007 0.17775631 7.987022E-06
v 0.61469907 0.17775631 0.14240551
v 0.06826681 0.17775631 0.080271065
v -0.1600371 0.17775631 -0.59703827
v 0.5156641 0.17775631 0.24141133
v 0.22168773 0.17775631 0.53538764
v 0.09507966 0.17775631 0.15974468
v -0.4821713 7.987022E-06 1.0795976
v -0.4821713 0.17775631 1.0795976
v 7.9751015E-05 0.17775631 0.7570249
v 7.9751015E-05 7.987022E-06 0.7570249
v -0.7570249 7.987022E-06 -7.9751015E-05
v -0.7570249 0.17775631 -7.9751015E-05
v -0.4821713 0.17775631 1.0795976
v -0.4821713 7.987022E-06 1.0795976
v 7.9751015E-05 7.987022E-06 0.7570249
v 7.9751015E-05 0.17775631 0.7570249
v 0.14721411 0.17775631 0.60986125
v 0.14721411 7.987022E-06 0.60986125
v 0.14721411 7.987022E-06 0.60986125
v 0.14721411 0.17775631 0.60986125
v -0.056323707 0.17775631 7.987022E-06
v -0.056323707 7.987022E-06 7.987022E-06
v -0.23167443 0.17775631 -0.5254009
v -0.23167443 7.987022E-06 -0.5254009
v -0.23167443 7.987022E-06 -0.5254009
v -0.23167443 0.17775631 -0.5254009
v -0.7570249 0.17775631 -7.9751015E-05
v -0.7570249 7.987022E-06 -7.9751015E-05
v 0.75700885 7.987022E-06 6.645918E-05
v 0.75700885 0.17775631 6.645918E-05
v 0.75700885 0.17775631 -0.6056055
v 0.75700885 7.987022E-06 -0.6056055
v 0.75700885 7.987022E-06 -0.6056055
v 0.75700885 0.17775631 -0.6056055
v 0.3071555 0.17775631 -0.7146405
v 0.3071555 7.987022E-06 -0.7146405
v 0.3071555 7.987022E-06 -0.7146405
v 0.3071555 0.17775631 -0.7146405
v 0.33364666 0.17775631 -0.8366287
v 0.33364666 7.987022E-06 -0.8366287
v 0.33364666 7.987022E-06 -0.8366287
v 0.33364666 0.17775631 -0.8366287
v -6.645918E-05 0.17775631 -0.75700885
v -6.645918E-05 7.987022E-06 -0.75700885
v 0.04122007 7.987022E-06 7.987022E-06
v 0.04122007 0.17775631 7.987022E-06
v 0.06826681 0.17775631 0.080271065
v 0.06826681 7.987022E-06 0.080271065
v 0.06826681 7.987022E-06 0.080271065
v 0.06826681 0.17775631 0.080271065
v 0.61469907 0.17775631 0.14240551
v 0.61469907 7.987022E-06 0.14240551
v 0.61469907 7.987022E-06 0.14240551
v 0.61469907 0.17775631 0.14240551
v 0.75700885 0.17775631 6.645918E-05
v 0.75700885 7.987022E-06 6.645918E-05
v -0.1600371 7.987022E-06 -0.59703827
v -0.1600371 0.17775631 -0.59703827
v -6.645918E-05 7.987022E-06 -0.75700885
v -6.645918E-05 0.17775631 -0.75700885
v -0.1600371 0.17775631 -0.59703827
v -0.1600371 7.987022E-06 -0.59703827
v 0.5156641 7.987022E-06 0.24141133
v 0.5156641 0.17775631 0.24141133
v 0.09507966 0.17775631 0.15974468
v 0.09507966 7.987022E-06 0.15974468
v 0.09507966 7.987022E-06 0.15974468
v 0.09507966 0.17775631 0.15974468
v 0.22168773 0.17775631 0.53538764
v 0.22168773 7.987022E-06 0.53538764
v 0.22168773 7.987022E-06 0.53538764
v 0.22168773 0.17775631 0.53538764
v 0.5156641 0.17775631 0.24141133
v 0.5156641 7.987022E-06 0.24141133
vt 0.0799157 0.77202106
vt 0.09177638 0.79225403
vt 0.09177638 0.76992804
vt 0.10224168 0.7817887
vt 0.0959625 0.76992804
vt 0.10782318 0.79225403
vt 0.0959625 0.7929517
vt 0.09945093 0.7880679
vt 0.10433474 0.77969563
vt 0.0959625 0.7713234
vt 0.10154399 0.7894633
vt 0.0854972 0.78109103
vt 0.09177638 0.7713234
vt 0.08479951 0.77969563
vt 0.09107869 0.7929517
vt 0.10293937 0.77760255
vt 0.08479951 0.77760255
vt 0.092474066 0.7936494
vt 0.17968492 0.43434063
vt 0.17968492 0.37852567
vt 0.16642886 0.37852567
vt 0.16642886 0.43434063
vt 0.16433582 0.43434063
vt 0.16433582 0.37852567
vt 0.17968492 0.37852567
vt 0.17968492 0.43434063
vt 0.16642886 0.43434063
vt 0.16642886 0.37852567
vt 0.16154507 0.37852567
vt 0.16154507 0.43434063
vt 0.16154507 0.43434063
vt 0.16154507 0.37852567
vt 0.15526588 0.37852567
vt 0.15526588 0.43434063
vt 0.15038207 0.37852567
vt 0.15038207 0.43434063
vt 0.15038207 0.43434063
vt 0.15038207 0.37852567
vt 0.16433582 0.37852567
vt 0.16433582 0.43434063
vt 0.14131215 0.43434063
vt 0.14131215 0.37852567
vt 0.13363759 0.37852567
vt 0.13363759 0.43434063
vt 0.13363759 0.43434063
vt 0.13363759 0.37852567
vt 0.13991678 0.37852567
vt 0.13991678 0.43434063
vt 0.13991678 0.43434063
vt 0.13991678 0.37852567
vt 0.1385214 0.37852567
vt 0.1385214 0.43434063
vt 0.1385214 0.43434063
vt 0.1385214 0.37852567
vt 0.1441029 0.37852567
vt 0.1441029 0.43434063
vt 0.15387051 0.43434063
vt 0.15387051 0.37852567
vt 0.1545682 0.37852567
vt 0.1545682 0.43434063
vt 0.1545682 0.43434063
vt 0.1545682 0.37852567
vt 0.14549828 0.37852567
vt 0.14619595 0.43434063
vt 0.14619595 0.43434063
vt 0.14549828 0.37852567
vt 0.14131215 0.37852567
vt 0.14131215 0.43434063
vt 0.1489867 0.43434063
vt 0.1489867 0.37852567
vt 0.1441029 0.43434063
vt 0.1441029 0.37852567
vt 0.1489867 0.37852567
vt 0.1489867 0.43434063
vt 0.1489867 0.43434063
vt 0.1489867 0.37852567
vt 0.15526588 0.37852567
vt 0.15526588 0.43434063
vt 0.15526588 0.43434063
vt 0.15526588 0.37852567
vt 0.159452 0.37852567
vt 0.159452 0.43434063
vt 0.159452 0.43434063
vt 0.159452 0.37852567
vt 0.1489867 0.37852567
vt 0.1489867 0.43434063
vn -0.003921509 0.99999225 -0.00034526698
vn -0.003921509 0.99999225 -0.00034526698
vn -0.003921509 0.99999225 -0.00034526698
vn -0.003921509 0.99999225 -0.00034526698
vn -0.003921509 0.99999225 -0.00034526698
vn -0.003921509 0.99999225 -0.00034526698
vn -0.003921509 0.99999225 -0.00034526698
vn -0.003921509 0.99999225 -0.00034526698
vn -0.003921509 0.99999225 -0.00034526698
vn -0.003921509 0.99999225 -0.00034526698
vn -0.003921509 0.99999225 -0.00034526698
vn -0.003921509 0.99999225 -0.00034526698
vn -0.003921509 0.99999225 -0.00034526698
vn -0.003921509 0.99999225 -0.00034526698
vn -0.003921509 0.99999225 -0.00034526698
vn -0.003921509 0.99999225 -0.00034526698
vn -0.003921509 0.99999225 -0.00034526698
vn -0.003921509 0.99999225 -0.00034526698
vn 0.552937 0.003921509 0.83321387
vn 0.552937 0.003921509 0.83321387
vn 0.552937 0.003921509 0.83321387
vn 0.552937 0.003921509 0.83321387
vn -0.96861994 0.003921509 0.2485156
vn -0.96861994 0.003921509 0.2485156
vn -0.96861994 0.003921509 0.2485156
vn -0.96861994 0.003921509 0.2485156
vn 0.7097985 0.003921509 0.70439386
vn 0.7097985 0.003921509 0.70439386
vn 0.7097985 0.003921509 0.70439386
vn 0.7097985 0.003921509 0.70439386
vn 0.94509083 0.003921509 -0.32678422
vn 0.94509083 0.003921509 -0.32678422
vn 0.94509083 0.003921509 -0.32678422
vn 0.94509083 0.003921509 -0.32678422
vn 0.94509083 0.003921509 -0.32678422
vn 0.94509083 0.003921509 -0.32678422
vn -0.70979846 0.003921509 -0.7043939
vn -0.70979846 0.003921509 -0.7043939
vn -0.70979846 0.003921509 -0.7043939
vn -0.70979846 0.003921509 -0.7043939
vn 0.9999924 0.003921509 -0
vn 0.9999924 0.003921509 -0
vn 0.9999924 0.003921509 -0
vn 0.9999924 0.003921509 -0
vn 0.23921388 0.003921509 -0.970959
vn 0.23921388 0.003921509 -0.970959
vn 0.23921388 0.003921509 -0.970959
vn 0.23921388 0.003921509 -0.970959
vn 0.97646314 0.003921509 0.21564874
vn 0.97646314 0.003921509 0.21564874
vn 0.97646314 0.003921509 0.21564874
vn 0.97646314 0.003921509 0.21564874
vn -0.23137069 0.003921509 -0.9728578
vn -0.23137069 0.003921509 -0.9728578
vn -0.23137069 0.003921509 -0.9728578
vn -0.23137069 0.003921509 -0.9728578
vn -0.9450908 0.003921509 0.3267844
vn -0.9450908 0.003921509 0.3267844
vn -0.9450908 0.003921509 0.3267844
vn -0.9450908 0.003921509 0.3267844
vn -0.11372459 0.003921509 0.9935046
vn -0.11372459 0.003921509 0.9935046
vn -0.11372459 0.003921509 0.9935046
vn -0.11372459 0.003921509 0.9935046
vn 0.7097985 0.003921509 0.70439386
vn 0.7097985 0.003921509 0.70439386
vn 0.7097985 0.003921509 0.70439386
vn 0.7097985 0.003921509 0.70439386
vn -0.9450908 0.003921509 0.3267844
vn -0.9450908 0.003921509 0.3267844
vn -0.70979846 0.003921509 -0.7043939
vn -0.70979846 0.003921509 -0.7043939
vn -0.70979846 0.003921509 -0.7043939
vn -0.70979846 0.003921509 -0.7043939
vn 0.19215542 0.003921509 -0.9813567
vn 0.19215542 0.003921509 -0.9813567
vn 0.19215542 0.003921509 -0.9813567
vn 0.19215542 0.003921509 -0.9813567
vn -0.9450908 0.003921509 0.3267844
vn -0.9450908 0.003921509 0.3267844
vn -0.9450908 0.003921509 0.3267844
vn -0.9450908 0.003921509 0.3267844
vn 0.7097985 0.003921509 0.70439386
vn 0.7097985 0.003921509 0.70439386
vn 0.7097985 0.003921509 0.70439386
vn 0.7097985 0.003921509 0.70439386
g CryoGroundEffectMesh_0
f 3/3/3 2/2/2 1/1/1
f 4/4/4 2/2/2 3/3/3
f 5/5/5 4/4/4 3/3/3
f 4/4/4 6/6/6 2/2/2
f 9/9/9 8/8/8 7/7/7
f 10/10/10 9/9/9 7/7/7
f 11/11/11 7/7/7 8/8/8
f 13/13/13 10/10/10 12/12/12
f 14/14/14 13/13/13 12/12/12
f 10/10/10 7/7/7 15/15/15
f 12/12/12 10/10/10 15/15/15
f 18/18/18 17/17/17 16/16/16
f 21/21/21 20/20/20 19/19/19
f 22/22/22 21/21/21 19/19/19
f 25/25/25 24/24/24 23/23/23
f 26/26/26 25/25/25 23/23/23
f 29/29/29 28/28/28 27/27/27
f 30/30/30 29/29/29 27/27/27
f 33/33/33 32/32/32 31/31/31
f 34/34/34 33/33/33 31/31/31
f 35/35/35 33/33/33 34/34/34
f 36/36/36 35/35/35 34/34/34
f 39/39/39 38/38/38 37/37/37
f 40/40/40 39/39/39 37/37/37
f 43/43/43 42/42/42 41/41/41
f 44/44/44 43/43/43 41/41/41
f 47/47/47 46/46/46 45/45/45
f 48/48/48 47/47/47 45/45/45
f 51/51/51 50/50/50 49/49/49
f 52/52/52 51/51/51 49/49/49
f 55/55/55 54/54/54 53/53/53
f 56/56/56 55/55/55 53/53/53
f 59/59/59 58/58/58 57/57/57
f 60/60/60 59/59/59 57/57/57
f 63/63/63 62/62/62 61/61/61
f 64/64/64 63/63/63 61/61/61
f 67/67/67 66/66/66 65/65/65
f 68/68/68 67/67/67 65/65/65
f 58/58/58 70/70/70 69/69/69
f 57/57/57 58/58/58 69/69/69
f 73/73/73 72/72/72 71/71/71
f 74/74/74 73/73/73 71/71/71
f 77/77/77 76/76/76 75/75/75
f 78/78/78 77/77/77 75/75/75
f 81/81/81 80/80/80 79/79/79
f 82/82/82 81/81/81 79/79/79
f 85/85/85 84/84/84 83/83/83
f 86/86/86 85/85/85 83/83/83
