g CryoTurret_CustomizePart_3_CorpsePart
v -0.12611663 1.1298538 0.3084674
v -0.12611663 1.3388143 0.46103764
v -0.12611663 1.0568949 0.69952977
v -0.12611663 0.9908371 0.6925665
v -0.12611663 1.3792572 -0.45814553
v -0.12611663 1.3698382 -0.33044407
v -0.12611663 1.128113 -0.33140773
v -0.12611663 0.97414386 -0.5091577
v -0.12611663 1.1183832 -0.655573
v -0.12611663 1.3610408 -0.17283782
v -0.12611663 1.3539531 0.06879401
v -0.12611663 1.1298538 0.06360263
v -0.12611663 1.128113 -0.17492059
v -0.12611663 0.45196056 -0.5032203
v -0.12611663 0.24903089 -0.5210637
v -0.12611663 0.45115232 -0.6579666
v -0.12611663 1.3470831 0.31325465
v -0.12611663 0.38789225 0.6647445
v -0.12611663 0.3020326 0.54273176
v -0.12611663 0.4196 0.650476
v -0.07777786 1.119782 0.65069366
v -0.07718724 1.1920881 0.5881175
v -0.07718724 1.1879226 0.53965425
v -0.07777786 1.1067569 0.55482423
v 0.07777673 1.1067569 0.55482423
v 0.07777673 1.119782 0.65069366
v -0.07777786 1.119782 0.65069366
v -0.07777786 1.1067569 0.55482423
v -0.12611663 1.0568949 0.69952977
v -0.12611663 1.3388143 0.46103764
v -0.07718724 1.1920881 0.5881175
v -0.07777786 1.119782 0.65069366
v 0.07777673 1.119782 0.65069366
v 0.1261155 1.0568949 0.69952977
v -0.12611663 1.1298538 0.06360263
v -0.12611663 1.3539531 0.06879401
v 0.1261155 1.3539531 0.06879401
v 0.1261155 1.1298538 0.06360263
v -0.12611663 0.9908371 0.6925665
v -0.12611663 1.0568949 0.69952977
v 0.1261155 1.0568949 0.69952977
v 0.1261155 0.9908371 0.6925665
v -0.12611663 0.38789225 0.6647445
v -0.12611663 0.4196 0.650476
v 0.1261155 0.4196 0.650476
v 0.1261155 0.38789225 0.6647756
v 0.1261155 0.24903089 -0.5210637
v -0.12611663 0.24903089 -0.5210637
v -0.12611663 0.3020326 0.54273176
v 0.1261155 0.3020326 0.54273176
v -0.12611663 0.45115232 -0.6579666
v -0.12611663 0.24903089 -0.5210637
v 0.1261155 0.24903089 -0.5210637
v 0.1261155 0.45115232 -0.6579666
v -0.12611663 1.1183832 -0.655573
v -0.12611663 0.45115232 -0.6579666
v 0.1261155 0.45115232 -0.6579666
v 0.1261155 1.1183832 -0.655573
v -0.12611663 1.3792572 -0.45814553
v -0.12611663 1.1183832 -0.655573
v 0.1261155 1.1183832 -0.655573
v 0.1261155 1.3792572 -0.45814553
v -0.12611663 1.3698382 -0.33044407
v -0.12611663 1.3792572 -0.45814553
v 0.1261155 1.3792572 -0.45814553
v 0.1261155 1.3698382 -0.33044407
v 0.1261155 1.3792572 -0.45814553
v 0.1261155 1.128113 -0.33137664
v 0.1261155 1.3698382 -0.33044407
v 0.1261155 1.1183832 -0.655573
v 0.1261155 0.97414386 -0.5091577
v 0.1261155 1.3610408 -0.17283782
v 0.1261155 1.128113 -0.17492059
v 0.1261155 1.1298538 0.06360263
v 0.1261155 1.3539531 0.06879401
v -0.12611663 1.3539531 0.06879401
v -0.12611663 1.3610408 -0.17283782
v 0.1261155 1.3610408 -0.17283782
v 0.1261155 1.3539531 0.06879401
v 0.1261155 0.45196056 -0.5032203
v 0.1261155 0.45115232 -0.6579666
v 0.1261155 0.24903089 -0.5210637
v 0.1261155 1.3470831 0.31325465
v 0.1261155 1.1298538 0.3084674
v 0.1261155 1.3388143 0.46103764
v -0.12611663 1.3388143 0.46103764
v -0.12611663 1.3470831 0.31325465
v 0.1261155 1.3470831 0.31325465
v 0.1261155 1.3388143 0.46103764
v -0.12611663 1.1298538 0.3084674
v -0.12611663 1.1298538 0.06360263
v 0.1261155 1.1298538 0.06360263
v 0.1261155 1.1298538 0.3084674
v -0.12611663 1.3470831 0.31325465
v -0.12611663 1.1298538 0.3084674
v 0.1261155 1.1298538 0.3084674
v 0.1261155 1.3470831 0.31325465
v -0.12611663 1.128113 -0.17492059
v -0.12611663 1.128113 -0.33140773
v 0.1261155 1.128113 -0.33137664
v 0.1261155 1.128113 -0.17492059
v -0.12611663 1.128113 -0.33140773
v -0.12611663 1.3698382 -0.33044407
v 0.1261155 1.3698382 -0.33044407
v 0.1261155 1.128113 -0.33137664
v -0.12611663 1.3610408 -0.17283782
v -0.12611663 1.128113 -0.17492059
v 0.1261155 1.128113 -0.17492059
v 0.1261155 1.3610408 -0.17283782
v -0.12611663 0.3020326 0.54273176
v -0.12611663 0.38789225 0.6647445
v 0.1261155 0.38789225 0.6647756
v 0.1261155 0.3020326 0.54273176
v -0.12611663 0.45196056 -0.5032203
v 0.1261155 0.45196056 -0.5032203
v 0.1261155 0.4196 0.650476
v -0.12611663 0.4196 0.650476
v 0.1261155 0.3020326 0.54273176
v 0.1261155 0.4196 0.650476
v 0.1261155 0.38789225 0.6647756
v 0.07777673 1.119782 0.65069366
v 0.07777673 1.1067569 0.55482423
v 0.07718605 1.1879226 0.53965425
v 0.07718605 1.1920881 0.5881175
v 0.07718605 1.1920881 0.5881175
v 0.1261155 1.3388143 0.46103764
v -0.07718724 1.1879226 0.53965425
v -0.07718724 1.1920881 0.5881175
v 0.07718605 1.1920881 0.5881175
v 0.07718605 1.1879226 0.53965425
v -0.12611663 0.9908371 0.6925665
v 0.1261155 0.9908371 0.6925665
v 0.1261155 0.97414386 -0.5091577
v -0.12611663 0.97414386 -0.5091577
v -0.12611663 0.97414386 -0.5091577
v 0.1261155 0.97414386 -0.5091577
v 0.1261155 0.45196056 -0.5032203
v -0.12611663 0.45196056 -0.5032203
v 0.07777673 1.1067569 0.55482423
v -0.07777786 1.1067569 0.55482423
v -0.07718724 1.1879226 0.53965425
v 0.07718605 1.1879226 0.53965425
v 0.1261155 0.9908371 0.6925665
v 0.1261155 1.0568949 0.69952977
vt 0.25336766 0.39176062
vt 0.20845869 0.3587663
vt 0.26894832 0.30744174
vt 0.2836125 0.30835825
vt 0.19929358 0.5576489
vt 0.2011266 0.53015363
vt 0.25428417 0.53015363
vt 0.28727853 0.5695635
vt 0.2561172 0.6007248
vt 0.20295963 0.49624273
vt 0.20479265 0.44400167
vt 0.25336766 0.4449182
vt 0.25428417 0.49715924
vt 0.40092573 0.568647
vt 0.4449182 0.5723131
vt 0.40092573 0.6016413
vt 0.20662567 0.3908441
vt 0.4174229 0.3147738
vt 0.43575308 0.3422691
vt 0.4100908 0.31843984
vt 0.48341158 0.14613603
vt 0.48341158 0.16996528
vt 0.4843281 0.16813226
vt 0.4843281 0.15438461
vt 0.51548946 0.15438461
vt 0.51640594 0.14613603
vt 0.48341158 0.14613603
vt 0.4843281 0.15438461
vt 0.47241348 0.12963885
vt 0.47241348 0.21120821
vt 0.48341158 0.16996528
vt 0.48341158 0.14613603
vt 0.51640594 0.14613603
vt 0.52740407 0.12963885
vt 0.47241348 0.3422691
vt 0.47241348 0.39176062
vt 0.52740407 0.39176062
vt 0.52740407 0.3422691
vt 0.47241348 0.1149747
vt 0.47241348 0.12963885
vt 0.52740407 0.12963885
vt 0.52740407 0.1149747
vt 0.47241348 0.31843984
vt 0.47241348 0.32577193
vt 0.52740407 0.32577193
vt 0.52740407 0.31843984
vt 0.52740407 0.05448506
vt 0.47241348 0.05448506
vt 0.47241348 0.2854455
vt 0.52740407 0.2854455
vt 0.47241348 0.8271028
vt 0.47241348 0.8802602
vt 0.52740407 0.8802602
vt 0.52740407 0.8271028
vt 0.47241348 0.68229425
vt 0.47241348 0.8271028
vt 0.52740407 0.8271028
vt 0.52740407 0.68229425
vt 0.47241348 0.61080647
vt 0.47241348 0.68229425
vt 0.52740407 0.68229425
vt 0.52740407 0.61080647
vt 0.47241348 0.5823946
vt 0.47241348 0.61080647
vt 0.52740407 0.61080647
vt 0.52740407 0.5823946
vt 0.19929358 0.5576489
vt 0.25428417 0.53015363
vt 0.2011266 0.53015363
vt 0.2561172 0.6007248
vt 0.28727853 0.5695635
vt 0.20295963 0.49624273
vt 0.25428417 0.49715924
vt 0.25336766 0.4449182
vt 0.20479265 0.44400167
vt 0.47241348 0.39176062
vt 0.47241348 0.44400167
vt 0.52740407 0.44400167
vt 0.52740407 0.39176062
vt 0.40092573 0.568647
vt 0.40092573 0.6016413
vt 0.4449182 0.5723131
vt 0.20662567 0.3908441
vt 0.25336766 0.39176062
vt 0.20845869 0.3587663
vt 0.47241348 0.21120821
vt 0.47241348 0.24236955
vt 0.52740407 0.24236955
vt 0.52740407 0.21120821
vt 0.47241348 0.28911152
vt 0.47241348 0.3422691
vt 0.52740407 0.3422691
vt 0.52740407 0.28911152
vt 0.47241348 0.24236955
vt 0.47241348 0.28911152
vt 0.52740407 0.28911152
vt 0.52740407 0.24236955
vt 0.47241348 0.49532622
vt 0.47241348 0.52923703
vt 0.52740407 0.52923703
vt 0.52740407 0.49532622
vt 0.47241348 0.52923703
vt 0.47241348 0.5823946
vt 0.52740407 0.5823946
vt 0.52740407 0.52923703
vt 0.47241348 0.44400167
vt 0.47241348 0.49532622
vt 0.52740407 0.49532622
vt 0.52740407 0.44400167
vt 0.47241348 0.2854455
vt 0.47241348 0.31843984
vt 0.52740407 0.31843984
vt 0.52740407 0.2854455
vt 0.47241348 0.5759791
vt 0.52740407 0.5759791
vt 0.52740407 0.32577193
vt 0.47241348 0.32577193
vt 0.43575308 0.3422691
vt 0.4100908 0.31843984
vt 0.4174229 0.3147738
vt 0.51640594 0.14613603
vt 0.51548946 0.15438461
vt 0.51548946 0.16813226
vt 0.51640594 0.16996528
vt 0.51640594 0.16996528
vt 0.52740407 0.21120821
vt 0.4843281 0.16813226
vt 0.48341158 0.16996528
vt 0.51640594 0.16996528
vt 0.51548946 0.16813226
vt 0.47241348 0.94991505
vt 0.52740407 0.94991505
vt 0.52740407 0.6896262
vt 0.47241348 0.6896262
vt 0.47241348 0.6896262
vt 0.52740407 0.6896262
vt 0.52740407 0.5759791
vt 0.47241348 0.5759791
vt 0.51548946 0.15438461
vt 0.4843281 0.15438461
vt 0.4843281 0.16813226
vt 0.51548946 0.16813226
vt 0.2836125 0.30835825
vt 0.26894832 0.30744174
vn -0.99999225 0.003921509 -0.00034492963
vn -0.99999225 0.003921509 -0.00034492963
vn -0.99999225 0.003921509 -0.00034492963
vn -0.99999225 0.003921509 -0.00034492963
vn -0.99999225 0.003921509 -0.00034492963
vn -0.99999225 0.003921509 -0.00034492963
vn -0.99999225 0.003921509 -0.00034492963
vn -0.99999225 0.003921509 -0.00034492963
vn -0.99999225 0.003921509 -0.00034492963
vn -0.99999225 0.003921509 -0.00034492963
vn -0.99999225 0.003921509 -0.00034492963
vn -0.99999225 0.003921509 -0.00034492963
vn -0.99999225 0.003921509 -0.00034492963
vn -0.99999225 0.003921509 -0.00034492963
vn -0.99999225 0.003921509 -0.00034492963
vn -0.99999225 0.003921509 -0.00034492963
vn -0.99999225 0.003921509 -0.00034492963
vn -0.99999225 0.003921509 -0.00034492963
vn -0.99999225 0.003921509 -0.00034492963
vn -0.99999225 0.003921509 -0.00034492963
vn 0.9999924 -0.0039215684 -0
vn 0.9999924 -0.0039215684 -0
vn 0.9999924 -0.0039215684 -0
vn 0.9999924 -0.0039215684 -0
vn -0.003921509 0.99214923 -0.12499809
vn -0.003921509 0.99214923 -0.12499809
vn -0.003921509 0.99214923 -0.12499809
vn -0.003921509 0.99214923 -0.12499809
vn -0.011764526 0.62352455 0.7817153
vn -0.003921509 0.65489686 0.7557081
vn -0.019607663 0.65489686 0.7554639
vn -0.02745068 0.6313677 0.77499765
vn 0.0274508 0.6313677 0.77499765
vn 0.011764646 0.62352455 0.7817153
vn -0.003921509 -0.019607723 0.9998001
vn -0.003921509 -0.019607723 0.9998001
vn -0.003921509 -0.019607723 0.9998001
vn -0.003921509 -0.019607723 0.9998001
vn -0.003921509 -0.10588157 0.994371
vn -0.003921509 -0.10588157 0.994371
vn -0.003921509 -0.10588157 0.994371
vn -0.003921509 -0.10588157 0.994371
vn -0.003921509 0.41176152 0.9112832
vn -0.003921509 0.41176152 0.9112832
vn -0.003921509 0.41176152 0.9112832
vn -0.003921509 0.41176152 0.9112832
vn -0.003921509 -0.9999924 -0
vn -0.003921509 -0.9999924 -0
vn -0.003921509 -0.9999924 -0
vn -0.003921509 -0.9999924 -0
vn -0.003921509 -0.56078005 -0.82795554
vn -0.003921509 -0.56078005 -0.82795554
vn -0.003921509 -0.56078005 -0.82795554
vn -0.003921509 -0.56078005 -0.82795554
vn -0.003921509 0.003921509 -0.9999846
vn -0.003921509 0.003921509 -0.9999846
vn -0.003921509 0.003921509 -0.9999846
vn -0.003921509 0.003921509 -0.9999846
vn -0.003921509 0.5999954 -0.7999939
vn -0.003921509 0.5999954 -0.7999939
vn -0.003921509 0.5999954 -0.7999939
vn -0.003921509 0.5999954 -0.7999939
vn -0.003921509 0.99999225 -0.00034526698
vn -0.003921509 0.99999225 -0.00034526698
vn -0.003921509 0.99999225 -0.00034526698
vn -0.003921509 0.99999225 -0.00034526698
vn 0.9999924 0.003921509 -0
vn 0.9999924 0.003921509 -0
vn 0.9999924 0.003921509 -0
vn 0.9999924 0.003921509 -0
vn 0.9999924 0.003921509 -0
vn 0.9999924 0.003921509 -0
vn 0.9999924 0.003921509 -0
vn 0.9999924 0.003921509 -0
vn 0.9999924 0.003921509 -0
vn -0.003921509 0.99999225 -0.00034526698
vn -0.003921509 0.99999225 -0.00034526698
vn -0.003921509 0.99999225 -0.00034526698
vn -0.003921509 0.99999225 -0.00034526698
vn 0.9999924 0.003921509 -0
vn 0.9999924 0.003921509 -0
vn 0.9999924 0.003921509 -0
vn 0.9999924 0.003921509 -0
vn 0.9999924 0.003921509 -0
vn 0.9999924 0.003921509 -0
vn -0.003921509 0.99999225 -0.00034526698
vn -0.003921509 0.99999225 -0.00034526698
vn -0.003921509 0.99999225 -0.00034526698
vn -0.003921509 0.99999225 -0.00034526698
vn -0.003921509 0.99999225 -0.00034526698
vn -0.003921509 0.99999225 -0.00034526698
vn -0.003921509 0.99999225 -0.00034526698
vn -0.003921509 0.99999225 -0.00034526698
vn -0.003921509 0.019607663 -0.9998001
vn -0.003921509 0.019607663 -0.9998001
vn -0.003921509 0.019607663 -0.9998001
vn -0.003921509 0.019607663 -0.9998001
vn -0.003921509 0.99999225 -0.00034526698
vn -0.003921509 0.99999225 -0.00034526698
vn -0.003921509 0.99999225 -0.00034526698
vn -0.003921509 0.99999225 -0.00034526698
vn -0.003921509 -0.0039215684 0.9999846
vn -0.003921509 -0.0039215684 0.9999846
vn -0.003921509 -0.0039215684 0.9999846
vn -0.003921509 -0.0039215684 0.9999846
vn -0.003921509 0.011764526 -0.9999231
vn -0.003921509 0.011764526 -0.9999231
vn -0.003921509 0.011764526 -0.9999231
vn -0.003921509 0.011764526 -0.9999231
vn -0.003921509 -0.8196016 0.57292044
vn -0.003921509 -0.8196016 0.57292044
vn -0.003921509 -0.8196016 0.57292044
vn -0.003921509 -0.8196016 0.57292044
vn -0.003921509 0.99999225 -0.00034526698
vn -0.003921509 0.99999225 -0.00034526698
vn -0.003921509 0.99999225 -0.00034526698
vn -0.003921509 0.99999225 -0.00034526698
vn 0.9999924 0.003921509 -0
vn 0.9999924 0.003921509 -0
vn 0.9999924 0.003921509 -0
vn -0.99999225 -0.0039215684 -0.00034425134
vn -0.99999225 -0.0039215684 -0.00034425134
vn -0.99999225 -0.0039215684 -0.00034425134
vn -0.99999225 -0.0039215684 -0.00034425134
vn 0.019607723 0.65489686 0.7554639
vn 0.0039215684 0.65489686 0.7557081
vn -0.003921509 -0.9999924 -0
vn -0.003921509 -0.9999924 -0
vn -0.003921509 -0.9999924 -0
vn -0.003921509 -0.9999924 -0
vn -0.003921509 -0.9999924 -0
vn -0.003921509 -0.9999924 -0
vn -0.003921509 -0.9999924 -0
vn -0.003921509 -0.9999924 -0
vn -0.003921509 0.011764526 0.9999231
vn -0.003921509 0.011764526 0.9999231
vn -0.003921509 0.011764526 0.9999231
vn -0.003921509 0.011764526 0.9999231
vn -0.003921509 0.18431222 0.9828599
vn -0.003921509 0.18431222 0.9828599
vn -0.003921509 0.18431222 0.9828599
vn -0.003921509 0.18431222 0.9828599
vn 0.9999924 0.003921509 -0
vn 0.9999924 0.003921509 -0
g CryoTurret_CustomizePart_3_CorpsePart_0
f 3/3/3 2/2/2 1/1/1
f 4/4/4 3/3/3 1/1/1
f 7/7/7 6/6/6 5/5/5
f 8/8/8 7/7/7 5/5/5
f 9/9/9 8/8/8 5/5/5
f 12/12/12 11/11/11 10/10/10
f 13/13/13 12/12/12 10/10/10
f 16/16/16 15/15/15 14/14/14
f 1/1/1 2/2/2 17/17/17
f 20/20/20 19/19/19 18/18/18
f 23/23/23 22/22/22 21/21/21
f 24/24/24 23/23/23 21/21/21
f 27/27/27 26/26/26 25/25/25
f 28/28/28 27/27/27 25/25/25
f 8/8/8 9/9/9 16/16/16
f 14/14/14 8/8/8 16/16/16
f 19/19/19 20/20/20 14/14/14
f 15/15/15 19/19/19 14/14/14
f 31/31/31 30/30/30 29/29/29
f 32/32/32 31/31/31 29/29/29
f 34/34/34 33/33/33 32/32/32
f 29/29/29 34/34/34 32/32/32
f 37/37/37 36/36/36 35/35/35
f 38/38/38 37/37/37 35/35/35
f 41/41/41 40/40/40 39/39/39
f 42/42/42 41/41/41 39/39/39
f 45/45/45 44/44/44 43/43/43
f 46/46/46 45/45/45 43/43/43
f 49/49/49 48/48/48 47/47/47
f 50/50/50 49/49/49 47/47/47
f 53/53/53 52/52/52 51/51/51
f 54/54/54 53/53/53 51/51/51
f 57/57/57 56/56/56 55/55/55
f 58/58/58 57/57/57 55/55/55
f 61/61/61 60/60/60 59/59/59
f 62/62/62 61/61/61 59/59/59
f 65/65/65 64/64/64 63/63/63
f 66/66/66 65/65/65 63/63/63
f 69/69/69 68/68/68 67/67/67
f 71/71/71 70/70/70 67/67/67
f 68/68/68 71/71/71 67/67/67
f 74/74/74 73/73/73 72/72/72
f 75/75/75 74/74/74 72/72/72
f 78/78/78 77/77/77 76/76/76
f 79/79/79 78/78/78 76/76/76
f 82/82/82 81/81/81 80/80/80
f 71/71/71 68/68/68 73/73/73
f 85/85/85 84/84/84 83/83/83
f 88/88/88 87/87/87 86/86/86
f 89/89/89 88/88/88 86/86/86
f 92/92/92 91/91/91 90/90/90
f 93/93/93 92/92/92 90/90/90
f 96/96/96 95/95/95 94/94/94
f 97/97/97 96/96/96 94/94/94
f 100/100/100 99/99/99 98/98/98
f 101/101/101 100/100/100 98/98/98
f 104/104/104 103/103/103 102/102/102
f 105/105/105 104/104/104 102/102/102
f 108/108/108 107/107/107 106/106/106
f 109/109/109 108/108/108 106/106/106
f 112/112/112 111/111/111 110/110/110
f 113/113/113 112/112/112 110/110/110
f 116/116/116 115/115/115 114/114/114
f 117/117/117 116/116/116 114/114/114
f 118/118/118 82/82/82 80/80/80
f 119/119/119 118/118/118 80/80/80
f 118/118/118 119/119/119 120/120/120
f 123/123/123 122/122/122 121/121/121
f 124/124/124 123/123/123 121/121/121
f 71/71/71 80/80/80 81/81/81
f 70/70/70 71/71/71 81/81/81
f 125/125/125 33/33/33 34/34/34
f 126/126/126 125/125/125 34/34/34
f 129/129/129 128/128/128 127/127/127
f 130/130/130 129/129/129 127/127/127
f 126/126/126 30/30/30 31/31/31
f 125/125/125 126/126/126 31/31/31
f 133/133/133 132/132/132 131/131/131
f 134/134/134 133/133/133 131/131/131
f 137/137/137 136/136/136 135/135/135
f 138/138/138 137/137/137 135/135/135
f 141/141/141 140/140/140 139/139/139
f 142/142/142 141/141/141 139/139/139
f 4/4/4 12/12/12 13/13/13
f 8/8/8 4/4/4 13/13/13
f 4/4/4 1/1/1 12/12/12
f 7/7/7 8/8/8 13/13/13
f 143/143/143 71/71/71 73/73/73
f 74/74/74 143/143/143 73/73/73
f 74/74/74 84/84/84 143/143/143
f 85/85/85 144/144/144 143/143/143
f 84/84/84 85/85/85 143/143/143
