g CryoTurret_CustomizePart_5_CorpsePart
v 0.45986795 0.6499171 -0.7195995
v 0.6567526 0.65042746 -0.71939534
v 0.6692556 0.8364676 -0.77361774
v 0.4540502 0.83656967 -0.7737198
v 0.6231475 0.58604956 -0.05425912
v 0.6615497 0.59566927 -0.08357751
v 0.6501438 0.42460728 -0.02772206
v 0.6234026 0.44892442 -0.0097075105
v 0.45843905 0.7929622 0.1432634
v 0.46481815 0.5370581 -0.26732117
v 0.45986795 0.6499171 -0.7195995
v 0.4540502 0.83656967 -0.7737198
v 0.45234063 0.89849806 -0.72166634
v 0.6230199 0.6708151 0.06240189
v 0.6710418 0.7011796 0.06237638
v 0.6234281 0.44892442 0.13451123
v 0.6525934 0.42437768 0.1527555
v 0.6655302 0.5953376 0.20843226
v 0.6231985 0.58604956 0.17908841
v 0.47788256 0.13494503 -0.00730896
v 0.46869665 0.48564255 0.4255004
v 0.45843905 0.7929622 0.1432634
v 0.67862016 0.79199255 0.14318681
v 0.6606566 0.4853363 0.4255259
v 0.46869665 0.48564255 0.4255004
v 0.47954112 0.1413241 0.5441772
v 0.63789594 0.14198756 0.54438126
v 0.62993485 0.1362719 -0.00697726
v 0.47788256 0.13494503 -0.00730896
v 0.45234063 0.89849806 -0.72166634
v 0.6743589 0.8981918 -0.72161525
v 0.67862016 0.79199255 0.14318681
v 0.45843905 0.7929622 0.1432634
v 0.46869665 0.48564255 0.4255004
v 0.6606566 0.4853363 0.4255259
v 0.63789594 0.14198756 0.54438126
v 0.47954112 0.1413241 0.5441772
v 0.6606566 0.4853363 0.4255259
v 0.67862016 0.79199255 0.14318681
v 0.6710418 0.7011796 0.06237638
v 0.6655302 0.5953376 0.20843226
v 0.6501438 0.42460728 -0.02772206
v 0.62993485 0.1362719 -0.00697726
v 0.6525934 0.42437768 0.1527555
v 0.63789594 0.14198756 0.54438126
v 0.6743589 0.8981918 -0.72161525
v 0.6692556 0.8364676 -0.77361774
v 0.6743589 0.8981918 -0.72161525
v 0.45234063 0.89849806 -0.72166634
v 0.4540502 0.83656967 -0.7737198
v 0.6615497 0.59566927 -0.08357751
v 0.65483886 0.5368284 -0.26818871
v 0.6692556 0.8364676 -0.77361774
v 0.6567526 0.65042746 -0.71939534
v 0.47954112 0.1413241 0.5441772
v 0.6567526 0.65042746 -0.71939534
v 0.45986795 0.6499171 -0.7195995
v 0.46481815 0.5370581 -0.26732117
v 0.65483886 0.5368284 -0.26818871
v 0.47788256 0.13494503 -0.00730896
v 0.62993485 0.1362719 -0.00697726
v 0.6231475 0.58604956 -0.05425912
v 0.6234026 0.44892442 -0.0097075105
v 0.6234281 0.44892442 0.13451123
v 0.6231985 0.58604956 0.17908841
v 0.6230199 0.6708151 0.06240189
vt 0.8114202 0.7652097
vt 0.85433 0.76603484
vt 0.85598034 0.7239502
vt 0.80894464 0.72312504
vt 0.7256006 0.16447255
vt 0.7289014 0.1743748
vt 0.6909427 0.1611718
vt 0.6975442 0.15622066
vt 0.6769145 0.22553648
vt 0.6216269 0.13641614
vt 0.5985216 0.3245591
vt 0.6117246 0.3352865
vt 0.65215886 0.32373387
vt 0.7412792 0.14136727
vt 0.7528318 0.14136727
vt 0.6975442 0.12651388
vt 0.6909427 0.12156276
vt 0.7289014 0.10835974
vt 0.7256006 0.118262
vt 0.687642 0.07535221
vt 0.76438445 0.16942368
vt 0.80894464 0.51682794
vt 0.85680556 0.51765317
vt 0.85515517 0.42688245
vt 0.8130706 0.42688245
vt 0.83782625 0.38067186
vt 0.8039935 0.38067186
vt 0.80234313 0.49949902
vt 0.83535063 0.5003242
vt 0.8081194 0.7057961
vt 0.85598034 0.7066213
vt 0.85680556 0.51765317
vt 0.80894464 0.51682794
vt 0.8130706 0.42688245
vt 0.85515517 0.42688245
vt 0.8526796 0.34766436
vt 0.8188469 0.34766436
vt 0.7049709 0.062149197
vt 0.7718112 0.124038324
vt 0.7528318 0.14136727
vt 0.7289014 0.10835974
vt 0.6909427 0.1611718
vt 0.6290536 0.15622066
vt 0.6909427 0.12156276
vt 0.62987876 0.03656836
vt 0.7957416 0.31135607
vt 0.85598034 0.7239502
vt 0.85598034 0.7066213
vt 0.8081194 0.7057961
vt 0.80894464 0.72312504
vt 0.7289014 0.1743748
vt 0.71569836 0.21398385
vt 0.7825386 0.3229087
vt 0.74210435 0.31135607
vt 0.7627341 0.049771372
vt 0.797392 0.7049709
vt 0.8403018 0.7049709
vt 0.8403018 0.60429794
vt 0.79904234 0.60347277
vt 0.83535063 0.5003242
vt 0.80234313 0.49949902
vt 0.7256006 0.16447255
vt 0.6975442 0.15622066
vt 0.6975442 0.12651388
vt 0.7256006 0.118262
vt 0.7412792 0.14136727
vn 0.0041494966 -0.2785946 -0.9603998
vn 0.0041494966 -0.2785946 -0.9603998
vn 0.0041494966 -0.2785946 -0.9603998
vn 0.0041494966 -0.2785946 -0.9603998
vn 0.62361133 -0.33348364 0.70703435
vn 0.62361133 -0.3491662 0.69942254
vn 0.7098655 0.5290581 0.46496075
vn 0.7098655 0.53689945 0.45588368
vn -0.99953544 -0.027673364 0.0127696395
vn -0.99953544 -0.027673364 0.0127696395
vn -0.99953544 -0.027673364 0.0127696395
vn -0.99953544 -0.027673364 0.0127696395
vn -0.99953544 -0.027673364 0.0127696395
vn 0.560881 -0.82748485 -0.026102504
vn 0.560881 -0.82748485 -0.026102504
vn 0.69418293 0.53689945 -0.4794257
vn 0.69418293 0.52121687 -0.49643025
vn 0.60008746 -0.34132493 -0.7234586
vn 0.60008746 -0.32564235 -0.73065186
vn -0.99953544 -0.027673364 0.0127696395
vn -0.99953544 -0.027673364 0.0127696395
vn 0.0041494966 0.67804265 0.73501086
vn 0.0041494966 0.67804265 0.73501086
vn 0.0041494966 0.67804265 0.73501086
vn 0.0041494966 0.67804265 0.73501086
vn 0.004149489 -0.9999914 -0
vn 0.004149489 -0.9999914 -0
vn 0.004149489 -0.9999914 -0
vn 0.004149489 -0.9999914 -0
vn 0.0041494966 0.9916942 0.12855111
vn 0.0041494966 0.9916942 0.12855111
vn 0.0041494966 0.9916942 0.12855111
vn 0.0041494966 0.9916942 0.12855111
vn -0.0036917925 0.32518458 0.94564337
vn -0.0036917925 0.32518458 0.94564337
vn -0.0036917925 0.32518458 0.94564337
vn -0.0036917925 0.32518458 0.94564337
vn 0.99721986 -0.07451387 -0
vn 0.99721986 -0.07451387 -0
vn 0.99721986 -0.07451387 -0
vn 0.99721986 -0.07451387 -0
vn 0.99721986 -0.07451387 -0
vn 0.99721986 -0.07451387 -0
vn 0.99721986 -0.07451387 -0
vn 0.99721986 -0.07451387 -0
vn 0.99721986 -0.07451387 -0
vn 0.0041494966 0.6466775 -0.76275223
vn 0.0041494966 0.6466775 -0.76275223
vn 0.0041494966 0.6466775 -0.76275223
vn 0.0041494966 0.6466775 -0.76275223
vn 0.99721986 -0.07451387 -0
vn 0.99721986 -0.07451387 -0
vn 0.99721986 -0.07451387 -0
vn 0.99721986 -0.07451387 -0
vn -0.99953544 -0.027673364 0.0127696395
vn -0.0036917925 -0.96862805 -0.24848755
vn -0.0036917925 -0.96862805 -0.24848755
vn 0.0041494966 -0.82748485 -0.5614727
vn 0.0041494966 -0.82748485 -0.5614727
vn 0.0041494966 -0.54519844 -0.8382968
vn 0.0041494966 -0.54519844 -0.8382968
vn 0.9999932 0.0036917925 -0
vn 0.9999932 0.0036917925 -0
vn 0.9999932 0.0036917925 -0
vn 0.9999932 0.0036917925 -0
vn 0.9999932 0.0036917925 -0
g CryoTurret_CustomizePart_5_CorpsePart_0
f 3/3/3 2/2/2 1/1/1
f 4/4/4 3/3/3 1/1/1
f 7/7/7 6/6/6 5/5/5
f 8/8/8 7/7/7 5/5/5
f 11/11/11 10/10/10 9/9/9
f 9/9/9 12/12/12 11/11/11
f 9/9/9 13/13/13 12/12/12
f 6/6/6 15/15/15 14/14/14
f 5/5/5 6/6/6 14/14/14
f 18/18/18 17/17/17 16/16/16
f 19/19/19 18/18/18 16/16/16
f 15/15/15 18/18/18 19/19/19
f 14/14/14 15/15/15 19/19/19
f 9/9/9 10/10/10 20/20/20
f 21/21/21 9/9/9 20/20/20
f 24/24/24 23/23/23 22/22/22
f 25/25/25 24/24/24 22/22/22
f 28/28/28 27/27/27 26/26/26
f 29/29/29 28/28/28 26/26/26
f 17/17/17 7/7/7 8/8/8
f 16/16/16 17/17/17 8/8/8
f 32/32/32 31/31/31 30/30/30
f 33/33/33 32/32/32 30/30/30
f 36/36/36 35/35/35 34/34/34
f 37/37/37 36/36/36 34/34/34
f 40/40/40 39/39/39 38/38/38
f 41/41/41 40/40/40 38/38/38
f 44/44/44 43/43/43 42/42/42
f 43/43/43 38/38/38 45/45/45
f 44/44/44 41/41/41 38/38/38
f 46/46/46 39/39/39 40/40/40
f 49/49/49 48/48/48 47/47/47
f 50/50/50 49/49/49 47/47/47
f 38/38/38 43/43/43 44/44/44
f 52/52/52 51/51/51 42/42/42
f 43/43/43 52/52/52 42/42/42
f 52/52/52 54/54/54 53/53/53
f 51/51/51 52/52/52 53/53/53
f 46/46/46 51/51/51 53/53/53
f 46/46/46 40/40/40 51/51/51
f 20/20/20 55/55/55 21/21/21
f 58/58/58 57/57/57 56/56/56
f 59/59/59 58/58/58 56/56/56
f 59/59/59 61/61/61 60/60/60
f 58/58/58 59/59/59 60/60/60
f 64/64/64 63/63/63 62/62/62
f 62/62/62 65/65/65 64/64/64
f 62/62/62 66/66/66 65/65/65
