g CryoTurretMesh4_1
v -0.00063323975 59.92061 -82.389755
v 6.710083 62.100067 -82.389755
v -0.00063323975 71.3349 -87.06969
v 10.859505 67.80722 -82.389755
v 10.859505 74.862595 -82.389755
v 6.710083 80.57312 -82.389755
v -0.00063323975 82.75258 -82.389755
v -6.7113495 80.57312 -82.389755
v -10.857391 74.862595 -82.389755
v -10.857391 67.80722 -82.389755
v -6.7113495 62.100067 -82.389755
v -9.91127 89.96338 -40.270405
v -9.91127 134.3737 -39.435787
v -9.91127 132.7822 33.229813
v -9.91127 88.37187 32.395195
v 9.910004 134.3737 -39.435787
v 9.910004 89.96338 -40.270405
v 9.910004 88.37187 32.395195
v 9.910004 132.7822 33.229813
v -9.91127 132.7822 33.229813
v -9.91127 134.3737 -39.435787
v 9.910004 134.3737 -39.435787
v 9.910004 132.7822 33.229813
v -7.779114 110.67671 58.109467
v -7.721672 118.78972 56.588913
v 7.7204056 118.78972 56.588913
v 7.7778473 110.67671 58.109467
vt 0.118946806 0.41075814
vt 0.12061669 0.41159308
vt 0.12061669 0.40867078
vt 0.12228657 0.41075814
vt 0.12312151 0.40950572
vt 0.12312151 0.40783587
vt 0.12228657 0.406166
vt 0.12061669 0.40574852
vt 0.118946806 0.406166
vt 0.1176944 0.40783587
vt 0.1176944 0.40950572
vt 0.06425828 0.47797078
vt 0.06425828 0.4829804
vt 0.0721902 0.4829804
vt 0.0721902 0.47797078
vt 0.06425828 0.4859027
vt 0.06425828 0.4913298
vt 0.0721902 0.4913298
vt 0.0721902 0.4859027
vt 0.0721902 0.4829804
vt 0.06425828 0.4829804
vt 0.06425828 0.4859027
vt 0.0721902 0.4859027
vt 0.116859466 0.3965642
vt 0.116859466 0.39948645
vt 0.12228657 0.39948645
vt 0.12228657 0.3965642
vn -0.003921509 -0.38038927 -0.92481816
vn 0.22352773 -0.30980158 -0.92415273
vn -0.003921509 0.003921509 -0.9999846
vn 0.35686004 -0.11372465 -0.92720956
vn 0.35686004 0.11372459 -0.9272096
vn 0.22352773 0.30980146 -0.9241528
vn -0.003921509 0.3803892 -0.9248182
vn -0.22352767 0.30980146 -0.92415285
vn -0.35685992 0.11372459 -0.9272096
vn -0.35685992 -0.11372465 -0.9272096
vn -0.22352767 -0.30980158 -0.9241528
vn -0.99999225 0.003921509 -0.00034492963
vn -0.99999225 0.003921509 -0.00034492963
vn -0.99999225 0.003921509 -0.00034492963
vn -0.99999225 0.003921509 -0.00034492963
vn 0.9999924 0.003921509 -0
vn 0.9999924 0.003921509 -0
vn 0.9999924 0.003921509 -0
vn 0.9999924 0.003921509 -0
vn -0.003921509 0.99999225 -0.00034526698
vn -0.003921509 0.99999225 -0.00034526698
vn -0.003921509 0.99999225 -0.00034526698
vn -0.003921509 0.99999225 -0.00034526698
vn -0.003921509 0.18431222 0.9828599
vn -0.003921509 0.18431222 0.9828599
vn -0.003921509 0.18431222 0.9828599
vn -0.003921509 0.18431222 0.9828599
g CryoTurretMesh4_1_0
f 3/3/3 2/2/2 1/1/1
f 3/3/3 4/4/4 2/2/2
f 3/3/3 5/5/5 4/4/4
f 3/3/3 6/6/6 5/5/5
f 3/3/3 7/7/7 6/6/6
f 3/3/3 8/8/8 7/7/7
f 3/3/3 9/9/9 8/8/8
f 3/3/3 10/10/10 9/9/9
f 3/3/3 11/11/11 10/10/10
f 3/3/3 1/1/1 11/11/11
f 14/14/14 13/13/13 12/12/12
f 15/15/15 14/14/14 12/12/12
f 18/18/18 17/17/17 16/16/16
f 19/19/19 18/18/18 16/16/16
f 22/22/22 21/21/21 20/20/20
f 23/23/23 22/22/22 20/20/20
f 26/26/26 25/25/25 24/24/24
f 27/27/27 26/26/26 24/24/24
