g CryoTurret_DefaultPart_5_CorpsePart
v 0.45986795 0.6499171 -0.7195995
v 0.6567526 0.65042746 -0.71939534
v 0.6692556 0.8364676 -0.77361774
v 0.4540502 0.83656967 -0.7737198
v 0.6231475 0.58604956 -0.05425912
v 0.6615497 0.59566927 -0.08357751
v 0.6501438 0.42460728 -0.02772206
v 0.6234026 0.44892442 -0.0097075105
v 0.45843905 0.7929622 0.1432634
v 0.46481815 0.5370581 -0.26732117
v 0.45986795 0.6499171 -0.7195995
v 0.4540502 0.83656967 -0.7737198
v 0.45234063 0.89849806 -0.72166634
v 0.6230199 0.6708151 0.06240189
v 0.6710418 0.7011796 0.06237638
v 0.6234281 0.44892442 0.13451123
v 0.6525934 0.42437768 0.1527555
v 0.6655302 0.5953376 0.20843226
v 0.6231985 0.58604956 0.17908841
v 0.47788256 0.13494503 -0.00730896
v 0.46869665 0.48564255 0.4255004
v 0.45843905 0.7929622 0.1432634
v 0.67862016 0.79199255 0.14318681
v 0.6606566 0.4853363 0.4255259
v 0.46869665 0.48564255 0.4255004
v 0.47954112 0.1413241 0.5441772
v 0.63789594 0.14198756 0.54438126
v 0.62993485 0.1362719 -0.00697726
v 0.47788256 0.13494503 -0.00730896
v 0.45234063 0.89849806 -0.72166634
v 0.6743589 0.8981918 -0.72161525
v 0.67862016 0.79199255 0.14318681
v 0.45843905 0.7929622 0.1432634
v 0.46869665 0.48564255 0.4255004
v 0.6606566 0.4853363 0.4255259
v 0.63789594 0.14198756 0.54438126
v 0.47954112 0.1413241 0.5441772
v 0.6606566 0.4853363 0.4255259
v 0.67862016 0.79199255 0.14318681
v 0.6710418 0.7011796 0.06237638
v 0.6655302 0.5953376 0.20843226
v 0.6501438 0.42460728 -0.02772206
v 0.62993485 0.1362719 -0.00697726
v 0.6525934 0.42437768 0.1527555
v 0.63789594 0.14198756 0.54438126
v 0.6743589 0.8981918 -0.72161525
v 0.6692556 0.8364676 -0.77361774
v 0.6743589 0.8981918 -0.72161525
v 0.45234063 0.89849806 -0.72166634
v 0.4540502 0.83656967 -0.7737198
v 0.6615497 0.59566927 -0.08357751
v 0.65483886 0.5368284 -0.26818871
v 0.6692556 0.8364676 -0.77361774
v 0.6567526 0.65042746 -0.71939534
v 0.47954112 0.1413241 0.5441772
v 0.6567526 0.65042746 -0.71939534
v 0.45986795 0.6499171 -0.7195995
v 0.46481815 0.5370581 -0.26732117
v 0.65483886 0.5368284 -0.26818871
v 0.47788256 0.13494503 -0.00730896
v 0.62993485 0.1362719 -0.00697726
v 0.6231475 0.58604956 -0.05425912
v 0.6234026 0.44892442 -0.0097075105
v 0.6234281 0.44892442 0.13451123
v 0.6231985 0.58604956 0.17908841
v 0.6230199 0.6708151 0.06240189
vt 0.08495802 0.45562103
vt 0.08495802 0.46139184
vt 0.079187214 0.46139184
vt 0.079187214 0.45562103
vt 0.10493387 0.40102038
vt 0.1062656 0.39924476
vt 0.10804123 0.40590337
vt 0.1062656 0.40501556
vt 0.08806537 0.42321578
vt 0.08318239 0.41522545
vt 0.085845836 0.40545946
vt 0.089841 0.40457165
vt 0.091172725 0.40545946
vt 0.100494795 0.40102038
vt 0.09916307 0.39924476
vt 0.10271433 0.4081229
vt 0.10271433 0.40945464
vt 0.09694353 0.40545946
vt 0.09871916 0.40501556
vt 0.074748136 0.4196645
vt 0.08140676 0.42898658
vt 0.051664934 0.45562103
vt 0.051664934 0.46139184
vt 0.039679423 0.46139184
vt 0.039679423 0.45562103
vt 0.029025633 0.45562103
vt 0.029025633 0.46139184
vt 0.013488861 0.46139184
vt 0.013488861 0.45562103
vt 0.07696768 0.45562103
vt 0.07696768 0.46139184
vt 0.051664934 0.46139184
vt 0.051664934 0.45562103
vt 0.039679423 0.45562103
vt 0.039679423 0.46139184
vt 0.029025633 0.46139184
vt 0.029025633 0.45562103
vt 0.09294836 0.4134498
vt 0.09472399 0.39835694
vt 0.09916307 0.39924476
vt 0.09694353 0.40545946
vt 0.10804123 0.40590337
vt 0.11336812 0.4147815
vt 0.10271433 0.40945464
vt 0.09694353 0.42632312
vt 0.11869501 0.37660545
vt 0.079187214 0.46139184
vt 0.07696768 0.46139184
vt 0.07696768 0.45562103
vt 0.079187214 0.45562103
vt 0.1062656 0.39924476
vt 0.11203639 0.39746913
vt 0.12135846 0.37749326
vt 0.1240219 0.38415188
vt 0.07430423 0.4312061
vt 0.013044952 0.46139184
vt 0.013044952 0.45562103
vt 0.007274151 0.45562103
vt 0.007274151 0.46139184
vt 0.013488861 0.45562103
vt 0.013488861 0.46139184
vt 0.10493387 0.40102038
vt 0.1062656 0.40501556
vt 0.10271433 0.4081229
vt 0.09871916 0.40501556
vt 0.100494795 0.40102038
vn 0.0041494966 -0.2785946 -0.9603998
vn 0.0041494966 -0.2785946 -0.9603998
vn 0.0041494966 -0.2785946 -0.9603998
vn 0.0041494966 -0.2785946 -0.9603998
vn 0.62361133 -0.33348364 0.70703435
vn 0.62361133 -0.3491662 0.69942254
vn 0.7098655 0.5290581 0.46496075
vn 0.7098655 0.53689945 0.45588368
vn -0.99953544 -0.027673364 0.0127696395
vn -0.99953544 -0.027673364 0.0127696395
vn -0.99953544 -0.027673364 0.0127696395
vn -0.99953544 -0.027673364 0.0127696395
vn -0.99953544 -0.027673364 0.0127696395
vn 0.560881 -0.82748485 -0.026102504
vn 0.560881 -0.82748485 -0.026102504
vn 0.69418293 0.53689945 -0.4794257
vn 0.69418293 0.52121687 -0.49643025
vn 0.60008746 -0.34132493 -0.7234586
vn 0.60008746 -0.32564235 -0.73065186
vn -0.99953544 -0.027673364 0.0127696395
vn -0.99953544 -0.027673364 0.0127696395
vn 0.0041494966 0.67804265 0.73501086
vn 0.0041494966 0.67804265 0.73501086
vn 0.0041494966 0.67804265 0.73501086
vn 0.0041494966 0.67804265 0.73501086
vn 0.004149489 -0.9999914 -0
vn 0.004149489 -0.9999914 -0
vn 0.004149489 -0.9999914 -0
vn 0.004149489 -0.9999914 -0
vn 0.0041494966 0.9916942 0.12855111
vn 0.0041494966 0.9916942 0.12855111
vn 0.0041494966 0.9916942 0.12855111
vn 0.0041494966 0.9916942 0.12855111
vn -0.0036917925 0.32518458 0.94564337
vn -0.0036917925 0.32518458 0.94564337
vn -0.0036917925 0.32518458 0.94564337
vn -0.0036917925 0.32518458 0.94564337
vn 0.99721986 -0.07451387 -0
vn 0.99721986 -0.07451387 -0
vn 0.99721986 -0.07451387 -0
vn 0.99721986 -0.07451387 -0
vn 0.99721986 -0.07451387 -0
vn 0.99721986 -0.07451387 -0
vn 0.99721986 -0.07451387 -0
vn 0.99721986 -0.07451387 -0
vn 0.99721986 -0.07451387 -0
vn 0.0041494966 0.6466775 -0.76275223
vn 0.0041494966 0.6466775 -0.76275223
vn 0.0041494966 0.6466775 -0.76275223
vn 0.0041494966 0.6466775 -0.76275223
vn 0.99721986 -0.07451387 -0
vn 0.99721986 -0.07451387 -0
vn 0.99721986 -0.07451387 -0
vn 0.99721986 -0.07451387 -0
vn -0.99953544 -0.027673364 0.0127696395
vn -0.0036917925 -0.96862805 -0.24848755
vn -0.0036917925 -0.96862805 -0.24848755
vn 0.0041494966 -0.82748485 -0.5614727
vn 0.0041494966 -0.82748485 -0.5614727
vn 0.0041494966 -0.54519844 -0.8382968
vn 0.0041494966 -0.54519844 -0.8382968
vn 0.9999932 0.0036917925 -0
vn 0.9999932 0.0036917925 -0
vn 0.9999932 0.0036917925 -0
vn 0.9999932 0.0036917925 -0
vn 0.9999932 0.0036917925 -0
g CryoTurret_DefaultPart_5_CorpsePart_0
f 3/3/3 2/2/2 1/1/1
f 4/4/4 3/3/3 1/1/1
f 7/7/7 6/6/6 5/5/5
f 8/8/8 7/7/7 5/5/5
f 11/11/11 10/10/10 9/9/9
f 9/9/9 12/12/12 11/11/11
f 9/9/9 13/13/13 12/12/12
f 6/6/6 15/15/15 14/14/14
f 5/5/5 6/6/6 14/14/14
f 18/18/18 17/17/17 16/16/16
f 19/19/19 18/18/18 16/16/16
f 15/15/15 18/18/18 19/19/19
f 14/14/14 15/15/15 19/19/19
f 9/9/9 10/10/10 20/20/20
f 21/21/21 9/9/9 20/20/20
f 24/24/24 23/23/23 22/22/22
f 25/25/25 24/24/24 22/22/22
f 28/28/28 27/27/27 26/26/26
f 29/29/29 28/28/28 26/26/26
f 17/17/17 7/7/7 8/8/8
f 16/16/16 17/17/17 8/8/8
f 32/32/32 31/31/31 30/30/30
f 33/33/33 32/32/32 30/30/30
f 36/36/36 35/35/35 34/34/34
f 37/37/37 36/36/36 34/34/34
f 40/40/40 39/39/39 38/38/38
f 41/41/41 40/40/40 38/38/38
f 44/44/44 43/43/43 42/42/42
f 43/43/43 38/38/38 45/45/45
f 44/44/44 41/41/41 38/38/38
f 46/46/46 39/39/39 40/40/40
f 49/49/49 48/48/48 47/47/47
f 50/50/50 49/49/49 47/47/47
f 38/38/38 43/43/43 44/44/44
f 52/52/52 51/51/51 42/42/42
f 43/43/43 52/52/52 42/42/42
f 52/52/52 54/54/54 53/53/53
f 51/51/51 52/52/52 53/53/53
f 46/46/46 51/51/51 53/53/53
f 46/46/46 40/40/40 51/51/51
f 20/20/20 55/55/55 21/21/21
f 58/58/58 57/57/57 56/56/56
f 59/59/59 58/58/58 56/56/56
f 59/59/59 61/61/61 60/60/60
f 58/58/58 59/59/59 60/60/60
f 64/64/64 63/63/63 62/62/62
f 62/62/62 65/65/65 64/64/64
f 62/62/62 66/66/66 65/65/65
