g CryoTurret_CustomizePart_6
v -0.5956062 1.0316494 0.14845014
v -0.59568775 1.0810466 0.20822674
v -0.6996175 0.97920895 0.29229438
v -0.69953597 0.9298117 0.23251778
v -0.69002604 0.32359552 0.6479379
v -0.58892214 0.21656829 0.6776632
v -0.5888134 0.19597256 0.6031327
v -0.6899446 0.30299985 0.5734346
v -0.5888134 0.19597256 0.6031327
v -0.58892214 0.21656829 0.6776632
v -0.31280863 0.215563 0.6790489
v -0.3126999 0.19488573 0.60432816
v -0.6993458 0.62264156 0.4819764
v -0.69953597 0.9298117 0.23251778
v -0.6996175 0.97920895 0.29229438
v -0.69945455 0.6577468 0.5493609
v -0.69002604 0.32359552 0.6479379
v -0.6899446 0.30299985 0.5734346
v -0.30278242 1.0810466 0.20857996
v -0.302701 1.0316494 0.14883053
v -0.30291831 0.62264156 0.4824655
v -0.30297267 0.6577468 0.5498228
v -0.3126999 0.19488573 0.60432816
v -0.31280863 0.215563 0.6790489
v -0.6996175 0.97920895 0.29229438
v -0.59568775 1.0810466 0.20822674
v -0.30278242 1.0810466 0.20857996
v -0.6899446 0.30299985 0.5734346
v -0.5888134 0.19597256 0.6031327
v -0.3126999 0.19488573 0.60432816
v -0.69002604 0.32359552 0.6479379
v -0.31280863 0.215563 0.6790489
v -0.58892214 0.21656829 0.6776632
v -0.302701 1.0316494 0.14883053
v -0.5956062 1.0316494 0.14845014
v -0.69953597 0.9298117 0.23251778
v -0.6993458 0.62264156 0.4819764
v -0.30291831 0.62264156 0.4824655
v -0.30291831 0.62264156 0.4824655
v -0.6993458 0.62264156 0.4819764
v -0.69945455 0.6577468 0.5493609
v -0.30297267 0.6577468 0.5498228
v -0.30297267 0.6577468 0.5498228
v -0.69945455 0.6577468 0.5493609
v -0.30278242 1.0810466 0.20857996
v -0.59568775 1.0810466 0.20822674
v -0.5956062 1.0316494 0.14845014
v -0.302701 1.0316494 0.14883053
v -0.56256604 0.3081895 0.417472
v -0.56308234 0.45168054 0.36160803
v -0.5583546 0.52482533 0.65617085
v -0.5578927 0.3896215 0.6836952
v -0.56256604 0.3081895 0.417472
v -0.5578927 0.3896215 0.6836952
v -0.47792792 0.38978457 0.68301594
v -0.47252083 0.3080808 0.416358
v -0.47792792 0.38978457 0.68301594
v -0.47841692 0.52496123 0.6554916
v -0.47306418 0.45157182 0.36049402
v -0.47252083 0.3080808 0.416358
v -0.47306418 0.45157182 0.36049402
v -0.47841692 0.52496123 0.6554916
v -0.5583546 0.52482533 0.65617085
v -0.56308234 0.45168054 0.36160803
v -0.47252083 0.3080808 0.416358
v -0.47306418 0.45157182 0.36049402
v -0.56308234 0.45168054 0.36160803
v -0.56256604 0.3081895 0.417472
v -0.5583546 0.52482533 0.65617085
v -0.47841692 0.52496123 0.6554916
v -0.47792792 0.38978457 0.68301594
v -0.5578927 0.3896215 0.6836952
v -0.5833521 0.6470957 0.24455464
v -0.58389544 0.7583616 0.1381523
v -0.5791677 0.9001409 0.29832637
v -0.5787058 0.8004497 0.39367008
v -0.5833521 0.6470957 0.24455464
v -0.5787058 0.8004497 0.39367008
v -0.49874103 0.80020523 0.3930179
v -0.49333394 0.6465522 0.24354929
v -0.49874103 0.80020523 0.3930179
v -0.49923003 0.89992344 0.2976743
v -0.4938774 0.7578454 0.13714695
v -0.49333394 0.6465522 0.24354929
v -0.4938774 0.7578454 0.13714695
v -0.49923003 0.89992344 0.2976743
v -0.5791677 0.9001409 0.29832637
v -0.58389544 0.7583616 0.1381523
v -0.49333394 0.6465522 0.24354929
v -0.4938774 0.7578454 0.13714695
v -0.58389544 0.7583616 0.1381523
v -0.5833521 0.6470957 0.24455464
v -0.5791677 0.9001409 0.29832637
v -0.49923003 0.89992344 0.2976743
v -0.49874103 0.80020523 0.3930179
v -0.5787058 0.8004497 0.39367008
v 0.5956054 1.0316494 0.14845014
v 0.69953513 0.9298117 0.23251778
v 0.6996167 0.97920895 0.29229438
v 0.5956869 1.0810466 0.20822674
v 0.69002527 0.32359552 0.6479379
v 0.68994373 0.30299985 0.5734346
v 0.5888126 0.19597256 0.6031327
v 0.5889213 0.21656829 0.6776632
v 0.5888126 0.19597256 0.6031327
v 0.31269908 0.19488573 0.60432816
v 0.31280777 0.215563 0.6790489
v 0.5889213 0.21656829 0.6776632
v 0.69934493 0.62264156 0.4819764
v 0.69945365 0.6577468 0.5493609
v 0.6996167 0.97920895 0.29229438
v 0.69953513 0.9298117 0.23251778
v 0.68994373 0.30299985 0.5734346
v 0.69002527 0.32359552 0.6479379
v 0.3027816 1.0810466 0.20857996
v 0.3029718 0.6577468 0.5498228
v 0.3028903 0.62264156 0.4824655
v 0.3027001 1.0316494 0.14883053
v 0.31269908 0.19488573 0.60432816
v 0.31280777 0.215563 0.6790489
v 0.6996167 0.97920895 0.29229438
v 0.3027816 1.0810466 0.20857996
v 0.5956869 1.0810466 0.20822674
v 0.68994373 0.30299985 0.5734346
v 0.31269908 0.19488573 0.60432816
v 0.5888126 0.19597256 0.6031327
v 0.69002527 0.32359552 0.6479379
v 0.5889213 0.21656829 0.6776632
v 0.31280777 0.215563 0.6790489
v 0.3027001 1.0316494 0.14883053
v 0.69953513 0.9298117 0.23251778
v 0.5956054 1.0316494 0.14845014
v 0.3028903 0.62264156 0.4824655
v 0.69934493 0.62264156 0.4819764
v 0.69934493 0.62264156 0.4819764
v 0.3028903 0.62264156 0.4824655
v 0.69945365 0.6577468 0.5493609
v 0.3029718 0.6577468 0.5498228
v 0.3029718 0.6577468 0.5498228
v 0.69945365 0.6577468 0.5493609
v 0.3027816 1.0810466 0.20857996
v 0.3027001 1.0316494 0.14883053
v 0.5956054 1.0316494 0.14845014
v 0.5956869 1.0810466 0.20822674
v 0.5625652 0.3081895 0.417472
v 0.5578918 0.3896215 0.6836952
v 0.5583537 0.52482533 0.65617085
v 0.5630815 0.45168054 0.36160803
v 0.5625652 0.3081895 0.417472
v 0.47251996 0.3080808 0.416358
v 0.47792703 0.38978457 0.68301594
v 0.5578918 0.3896215 0.6836952
v 0.47792703 0.38978457 0.68301594
v 0.47251996 0.3080808 0.416358
v 0.47306338 0.45157182 0.36049402
v 0.4784161 0.52496123 0.6554916
v 0.47306338 0.45157182 0.36049402
v 0.5630815 0.45168054 0.36160803
v 0.5583537 0.52482533 0.65617085
v 0.4784161 0.52496123 0.6554916
v 0.47251996 0.3080808 0.416358
v 0.5625652 0.3081895 0.417472
v 0.5630815 0.45168054 0.36160803
v 0.47306338 0.45157182 0.36049402
v 0.5583537 0.52482533 0.65617085
v 0.5578918 0.3896215 0.6836952
v 0.47792703 0.38978457 0.68301594
v 0.4784161 0.52496123 0.6554916
v 0.5833784 0.6470957 0.24455464
v 0.5786778 0.8004497 0.39367008
v 0.5791668 0.9001409 0.29832637
v 0.5838946 0.7583616 0.1381523
v 0.5833784 0.6470957 0.24455464
v 0.4933331 0.6465522 0.24354929
v 0.49874014 0.80020523 0.3930179
v 0.5786778 0.8004497 0.39367008
v 0.49874014 0.80020523 0.3930179
v 0.4933331 0.6465522 0.24354929
v 0.49387652 0.7578454 0.13714695
v 0.49922922 0.89992344 0.2976743
v 0.49387652 0.7578454 0.13714695
v 0.5838946 0.7583616 0.1381523
v 0.5791668 0.9001409 0.29832637
v 0.49922922 0.89992344 0.2976743
v 0.4933331 0.6465522 0.24354929
v 0.5833784 0.6470957 0.24455464
v 0.5838946 0.7583616 0.1381523
v 0.49387652 0.7578454 0.13714695
v 0.5791668 0.9001409 0.29832637
v 0.5786778 0.8004497 0.39367008
v 0.49874014 0.80020523 0.3930179
v 0.49922922 0.89992344 0.2976743
vt 0.5914816 0.650105
vt 0.608304 0.650105
vt 0.608304 0.61391145
vt 0.5914816 0.61391145
vt 0.608304 0.45231497
vt 0.608304 0.42019957
vt 0.5914816 0.42019957
vt 0.5914816 0.45231497
vt 0.5914816 0.42019957
vt 0.608304 0.42019957
vt 0.608304 0.36004695
vt 0.5914816 0.36004695
vt 0.5914816 0.52623135
vt 0.5914816 0.61391145
vt 0.608304 0.61391145
vt 0.608304 0.52623135
vt 0.608304 0.45231497
vt 0.5914816 0.45231497
vt 0.608304 0.7133162
vt 0.5914816 0.7133162
vt 0.5914816 0.82954335
vt 0.608304 0.82954335
vt 0.5914816 0.92792857
vt 0.608304 0.92792857
vt 0.5507002 0.8096624
vt 0.5282704 0.8361703
vt 0.46658847 0.8361703
vt 0.31161898 0.6174798
vt 0.25146636 0.6174798
vt 0.22954634 0.6414389
vt 0.5507002 0.6450073
vt 0.46658847 0.61849934
vt 0.5282704 0.61849934
vt 0.22750726 0.799467
vt 0.24993706 0.828014
vt 0.31365806 0.828014
vt 0.31365806 0.713826
vt 0.22750726 0.713826
vt 0.22750726 0.713826
vt 0.31365806 0.713826
vt 0.5507002 0.73625576
vt 0.46658847 0.73625576
vt 0.46658847 0.73625576
vt 0.5507002 0.73625576
vt 0.608304 0.7133162
vt 0.608304 0.650105
vt 0.5914816 0.650105
vt 0.5914816 0.7133162
vt 0.8667564 0.8203675
vt 0.89836204 0.82393587
vt 0.89836204 0.7591953
vt 0.8667564 0.7591953
vt 0.89836204 0.6679469
vt 0.89836204 0.72860926
vt 0.91722345 0.72860926
vt 0.91722345 0.6679469
vt 0.94831926 0.7591953
vt 0.91722345 0.7591953
vt 0.91722345 0.82393587
vt 0.94831926 0.8203675
vt 0.91722345 0.82393587
vt 0.91722345 0.7591953
vt 0.89836204 0.7591953
vt 0.89836204 0.82393587
vt 0.91722345 0.85758054
vt 0.91722345 0.82393587
vt 0.89836204 0.82393587
vt 0.89836204 0.85758054
vt 0.89836204 0.7591953
vt 0.91722345 0.7591953
vt 0.91722345 0.72860926
vt 0.89836204 0.72860926
vt 0.96718067 0.71790415
vt 0.99878633 0.7184139
vt 0.99878633 0.6715152
vt 0.96718067 0.6715152
vt 0.99878633 0.5955598
vt 0.99878633 0.6419487
vt 1.0176477 0.6419487
vt 1.0176477 0.5955598
vt 1.0492533 0.6715152
vt 1.0176477 0.6715152
vt 1.0176477 0.7184139
vt 1.0492533 0.71790415
vt 1.0176477 0.7184139
vt 1.0176477 0.6715152
vt 0.99878633 0.6715152
vt 0.99878633 0.7184139
vt 1.0176477 0.7515488
vt 1.0176477 0.7184139
vt 0.99878633 0.7184139
vt 0.99878633 0.7515488
vt 0.99878633 0.6715152
vt 1.0176477 0.6715152
vt 1.0176477 0.6419487
vt 0.99878633 0.6419487
vt 0.608304 0.650105
vt 0.608304 0.61391145
vt 0.5914816 0.61391145
vt 0.5914816 0.650105
vt 0.5914816 0.45231497
vt 0.608304 0.45231497
vt 0.608304 0.42019957
vt 0.5914816 0.42019957
vt 0.608304 0.42019957
vt 0.608304 0.36004695
vt 0.5914816 0.36004695
vt 0.5914816 0.42019957
vt 0.608304 0.52623135
vt 0.5914816 0.52623135
vt 0.5914816 0.61391145
vt 0.608304 0.61391145
vt 0.608304 0.45231497
vt 0.5914816 0.45231497
vt 0.5914816 0.7133162
vt 0.5914816 0.82954335
vt 0.608304 0.82954335
vt 0.608304 0.7133162
vt 0.608304 0.92792857
vt 0.5914816 0.92792857
vt 0.54968065 0.8106819
vt 0.46556893 0.83718985
vt 0.5272509 0.83718985
vt 0.22954634 0.6414389
vt 0.31161898 0.6174798
vt 0.25146636 0.6174798
vt 0.54968065 0.64602685
vt 0.5272509 0.6195189
vt 0.46556893 0.6195189
vt 0.31365806 0.828014
vt 0.22750726 0.799467
vt 0.24993706 0.828014
vt 0.31365806 0.713826
vt 0.22750726 0.713826
vt 0.22750726 0.713826
vt 0.31365806 0.713826
vt 0.54968065 0.7194334
vt 0.46556893 0.7194334
vt 0.46556893 0.7194334
vt 0.54968065 0.7194334
vt 0.5914816 0.7133162
vt 0.608304 0.7133162
vt 0.608304 0.650105
vt 0.5914816 0.650105
vt 0.94831926 0.8203675
vt 0.94831926 0.7591953
vt 0.91722345 0.7591953
vt 0.91722345 0.82393587
vt 0.91722345 0.6679469
vt 0.89836204 0.6679469
vt 0.89836204 0.72860926
vt 0.94831926 0.7591953
vt 0.8667564 0.7591953
vt 0.8667564 0.8203675
vt 0.89836204 0.82393587
vt 0.89836204 0.7591953
vt 0.89836204 0.82393587
vt 0.91722345 0.82393587
vt 0.91722345 0.7591953
vt 0.89836204 0.7591953
vt 0.89836204 0.85758054
vt 0.91722345 0.85758054
vt 0.91722345 0.82393587
vt 0.89836204 0.82393587
vt 0.91722345 0.7591953
vt 0.94831926 0.7591953
vt 0.89836204 0.72860926
vt 0.89836204 0.7591953
vt 1.0492533 0.71790415
vt 1.0492533 0.6715152
vt 1.0176477 0.6715152
vt 1.0176477 0.7184139
vt 1.0176477 0.5955598
vt 0.99878633 0.5955598
vt 0.99878633 0.6419487
vt 1.0176477 0.6419487
vt 0.96718067 0.6715152
vt 0.96718067 0.71790415
vt 0.99878633 0.7184139
vt 0.99878633 0.6715152
vt 0.99878633 0.7184139
vt 1.0176477 0.7184139
vt 1.0176477 0.6715152
vt 0.99878633 0.6715152
vt 0.99878633 0.7515488
vt 1.0176477 0.7515488
vt 1.0176477 0.7184139
vt 0.99878633 0.7184139
vt 1.0176477 0.6715152
vt 1.0176477 0.6419487
vt 0.99878633 0.6419487
vt 0.99878633 0.6715152
vn -0.7882292 0.47450614 -0.39184007
vn -0.7882292 0.47450614 -0.39184007
vn -0.7882292 0.47450614 -0.39184007
vn -0.7882292 0.47450614 -0.39184007
vn -0.74117076 -0.6470539 0.17884946
vn -0.74117076 -0.6470539 0.17884946
vn -0.74117076 -0.6470539 0.17884946
vn -0.74117076 -0.6470539 0.17884946
vn -0.003921509 -0.960777 0.27729443
vn -0.003921509 -0.960777 0.27729443
vn -0.003921509 -0.960777 0.27729443
vn -0.003921509 -0.960777 0.27729443
vn -0.99999225 -0.0039215684 -0.00034425134
vn -0.99999225 -0.0039215684 -0.00034425134
vn -0.99999225 -0.0039215684 -0.00034425134
vn -0.99999225 -0.0039215684 -0.00034425134
vn -0.9996234 -0.027440675 -0
vn -0.9996234 -0.027440675 -0
vn 0.9999924 0.003921509 -0
vn 0.9999924 0.003921509 -0
vn 0.9999924 0.003921509 -0
vn 0.9999924 0.003921509 -0
vn 0.9998079 -0.019604106 -0
vn 0.9998079 -0.019604106 -0
vn 0.0039215684 0.62352455 0.78179395
vn -0.003921509 0.6392107 0.76902163
vn 0.0039215684 0.62352455 0.78179395
vn 0.0039215684 -0.2705862 -0.96268773
vn 0.0039215684 -0.26274312 -0.9648579
vn 0.0039215684 -0.2705862 -0.96268773
vn 0.0039215684 0.27842915 0.96044874
vn 0.0039215684 0.27842915 0.96044874
vn -0.003921509 0.262743 0.9648579
vn -0.003921509 -0.63136774 -0.77547365
vn 0.0039215684 -0.6392108 -0.7690216
vn -0.003921509 -0.63136774 -0.77547365
vn -0.003921509 -0.63136774 -0.77547365
vn -0.003921509 -0.63136774 -0.77547365
vn 0.0039215684 -0.2705862 -0.96268773
vn 0.0039215684 -0.2705862 -0.96268773
vn 0.0039215684 0.27842915 0.96044874
vn 0.0039215684 0.27842915 0.96044874
vn 0.0039215684 0.62352455 0.78179395
vn 0.0039215684 0.62352455 0.78179395
vn 0.0039215684 0.7725431 -0.6349503
vn 0.0039215684 0.7725431 -0.6349503
vn 0.0039215684 0.7725431 -0.6349503
vn 0.0039215684 0.7725431 -0.6349503
vn -0.99999225 0.003921509 -0.00034492963
vn -0.99999225 0.003921509 -0.00034492963
vn -0.99999225 0.003921509 -0.00034492963
vn -0.99999225 0.003921509 -0.00034492963
vn 0.0039215684 -0.9529339 0.30315277
vn 0.0039215684 -0.9529339 0.30315277
vn 0.0039215684 -0.9529339 0.30315277
vn 0.0039215684 -0.9529339 0.30315277
vn 0.99993086 0.011763803 -0
vn 0.99993086 0.011763803 -0
vn 0.99993086 0.011763803 -0
vn 0.99993086 0.011763803 -0
vn -0.003921509 0.96861994 -0.2485156
vn -0.003921509 0.96861994 -0.2485156
vn -0.003921509 0.96861994 -0.2485156
vn -0.003921509 0.96861994 -0.2485156
vn -0.011764526 -0.36470312 -0.9310495
vn -0.011764526 -0.36470312 -0.9310495
vn -0.011764526 -0.36470312 -0.9310495
vn -0.011764526 -0.36470312 -0.9310495
vn 0.011764646 0.19999838 0.9797256
vn 0.011764646 0.19999838 0.9797256
vn 0.011764646 0.19999838 0.9797256
vn 0.011764646 0.19999838 0.9797256
vn -0.99993086 0.011763804 -0
vn -0.99993086 0.011763804 -0
vn -0.99993086 0.011763804 -0
vn -0.99993086 0.011763804 -0
vn 0.0039215684 -0.69411236 0.71985596
vn 0.0039215684 -0.69411236 0.71985596
vn 0.0039215684 -0.69411236 0.71985596
vn 0.0039215684 -0.69411236 0.71985596
vn 0.9998079 0.019604046 -0
vn 0.9998079 0.019604046 -0
vn 0.9998079 0.019604046 -0
vn 0.9998079 0.019604046 -0
vn -0.003921509 0.7490138 -0.6625428
vn -0.003921509 0.7490138 -0.6625428
vn -0.003921509 0.7490138 -0.6625428
vn -0.003921509 0.7490138 -0.6625428
vn -0.011764526 -0.69411236 -0.71977055
vn -0.011764526 -0.69411236 -0.71977055
vn -0.011764526 -0.69411236 -0.71977055
vn -0.011764526 -0.69411236 -0.71977055
vn 0.011764646 0.6941123 0.7197706
vn 0.011764646 0.6941123 0.7197706
vn 0.011764646 0.6941123 0.7197706
vn 0.011764646 0.6941123 0.7197706
vn 0.7882293 0.47450614 -0.3918399
vn 0.7882293 0.47450614 -0.3918399
vn 0.7882293 0.47450614 -0.3918399
vn 0.7882293 0.47450614 -0.3918399
vn 0.7411708 -0.6470539 0.1788493
vn 0.7411708 -0.6470539 0.1788493
vn 0.7411708 -0.6470539 0.1788493
vn 0.7411708 -0.6470539 0.1788493
vn 0.0039215684 -0.960777 0.27729443
vn -0.8431307 -0.52156466 0.13077052
vn -0.8352877 -0.52156466 0.1739678
vn 0.0039215684 -0.960777 0.27729443
vn 0.9999924 -0.0039215684 -0
vn 0.9999924 -0.0039215684 -0
vn 0.9999924 -0.0039215684 -0
vn 0.9999924 -0.0039215684 -0
vn 0.9996234 -0.027440673 -0
vn 0.9996234 -0.027440673 -0
vn -0.99999225 0.003921509 -0.00034492963
vn -0.99999225 0.003921509 -0.00034492963
vn -0.99999225 0.003921509 -0.00034492963
vn -0.99999225 0.003921509 -0.00034492963
vn -0.8431307 -0.52156466 0.13077052
vn -0.8352877 -0.52156466 0.1739678
vn -0.003921509 0.62352455 0.78179395
vn -0.003921509 0.62352455 0.78179395
vn 0.0039215684 0.6392107 0.76902163
vn -0.003921509 -0.2705862 -0.96268773
vn -0.003921509 -0.2705862 -0.96268773
vn -0.003921509 -0.26274312 -0.9648579
vn -0.003921509 0.27842915 0.96044874
vn 0.0039215684 0.262743 0.9648579
vn -0.003921509 0.27842915 0.96044874
vn 0.0039215684 -0.63136774 -0.77547365
vn 0.0039215684 -0.63136774 -0.77547365
vn -0.003921509 -0.6392108 -0.7690216
vn 0.0039215684 -0.63136774 -0.77547365
vn 0.0039215684 -0.63136774 -0.77547365
vn -0.003921509 -0.2705862 -0.96268773
vn -0.003921509 -0.2705862 -0.96268773
vn -0.003921509 0.27842915 0.96044874
vn -0.003921509 0.27842915 0.96044874
vn -0.003921509 0.62352455 0.78179395
vn -0.003921509 0.62352455 0.78179395
vn -0.003921509 0.7725431 -0.6349503
vn -0.003921509 0.7725431 -0.6349503
vn -0.003921509 0.7725431 -0.6349503
vn -0.003921509 0.7725431 -0.6349503
vn 0.9999924 0.003921509 -0
vn 0.9999924 0.003921509 -0
vn 0.9999924 0.003921509 -0
vn 0.9999924 0.003921509 -0
vn -0.003921509 -0.9529339 0.30315277
vn -0.003921509 -0.9529339 0.30315277
vn -0.003921509 -0.9529339 0.30315277
vn -0.003921509 -0.9529339 0.30315277
vn -0.99993086 0.011763804 -0
vn -0.99993086 0.011763804 -0
vn -0.99993086 0.011763804 -0
vn -0.99993086 0.011763804 -0
vn 0.0039215684 0.96861994 -0.2485156
vn 0.0039215684 0.96861994 -0.2485156
vn 0.0039215684 0.96861994 -0.2485156
vn 0.0039215684 0.96861994 -0.2485156
vn 0.011764646 -0.36470312 -0.9310495
vn 0.011764646 -0.36470312 -0.9310495
vn 0.011764646 -0.36470312 -0.9310495
vn 0.011764646 -0.36470312 -0.9310495
vn -0.011764526 0.19999838 0.9797256
vn -0.011764526 0.19999838 0.9797256
vn -0.011764526 0.19999838 0.9797256
vn -0.011764526 0.19999838 0.9797256
vn 0.99993086 0.011763803 -0
vn 0.99993086 0.011763803 -0
vn 0.99993086 0.011763803 -0
vn 0.99993086 0.011763803 -0
vn -0.003921509 -0.69411236 0.71985596
vn -0.003921509 -0.69411236 0.71985596
vn -0.003921509 -0.69411236 0.71985596
vn -0.003921509 -0.69411236 0.71985596
vn -0.9998079 0.019604048 -0
vn -0.9998079 0.019604048 -0
vn -0.9998079 0.019604048 -0
vn -0.9998079 0.019604048 -0
vn 0.0039215684 0.7490138 -0.6625428
vn 0.0039215684 0.7490138 -0.6625428
vn 0.0039215684 0.7490138 -0.6625428
vn 0.0039215684 0.7490138 -0.6625428
vn 0.011764646 -0.69411236 -0.71977055
vn 0.011764646 -0.69411236 -0.71977055
vn 0.011764646 -0.69411236 -0.71977055
vn 0.011764646 -0.69411236 -0.71977055
vn -0.011764526 0.6941123 0.7197706
vn -0.011764526 0.6941123 0.7197706
vn -0.011764526 0.6941123 0.7197706
vn -0.011764526 0.6941123 0.7197706
g CryoTurret_CustomizePart_6_0
f 3/3/3 2/2/2 1/1/1
f 4/4/4 3/3/3 1/1/1
f 7/7/7 6/6/6 5/5/5
f 8/8/8 7/7/7 5/5/5
f 11/11/11 10/10/10 9/9/9
f 12/12/12 11/11/11 9/9/9
f 15/15/15 14/14/14 13/13/13
f 16/16/16 15/15/15 13/13/13
f 18/18/18 17/17/17 16/16/16
f 13/13/13 18/18/18 16/16/16
f 21/21/21 20/20/20 19/19/19
f 22/22/22 21/21/21 19/19/19
f 22/22/22 24/24/24 23/23/23
f 21/21/21 22/22/22 23/23/23
f 27/27/27 26/26/26 25/25/25
f 30/30/30 29/29/29 28/28/28
f 33/33/33 32/32/32 31/31/31
f 36/36/36 35/35/35 34/34/34
f 37/37/37 36/36/36 34/34/34
f 38/38/38 37/37/37 34/34/34
f 39/39/39 30/30/30 28/28/28
f 40/40/40 39/39/39 28/28/28
f 32/32/32 42/42/42 41/41/41
f 31/31/31 32/32/32 41/41/41
f 25/25/25 44/44/44 43/43/43
f 27/27/27 25/25/25 43/43/43
f 47/47/47 46/46/46 45/45/45
f 48/48/48 47/47/47 45/45/45
f 51/51/51 50/50/50 49/49/49
f 52/52/52 51/51/51 49/49/49
f 55/55/55 54/54/54 53/53/53
f 56/56/56 55/55/55 53/53/53
f 59/59/59 58/58/58 57/57/57
f 60/60/60 59/59/59 57/57/57
f 63/63/63 62/62/62 61/61/61
f 64/64/64 63/63/63 61/61/61
f 67/67/67 66/66/66 65/65/65
f 68/68/68 67/67/67 65/65/65
f 71/71/71 70/70/70 69/69/69
f 72/72/72 71/71/71 69/69/69
f 75/75/75 74/74/74 73/73/73
f 76/76/76 75/75/75 73/73/73
f 79/79/79 78/78/78 77/77/77
f 80/80/80 79/79/79 77/77/77
f 83/83/83 82/82/82 81/81/81
f 84/84/84 83/83/83 81/81/81
f 87/87/87 86/86/86 85/85/85
f 88/88/88 87/87/87 85/85/85
f 91/91/91 90/90/90 89/89/89
f 92/92/92 91/91/91 89/89/89
f 95/95/95 94/94/94 93/93/93
f 96/96/96 95/95/95 93/93/93
f 99/99/99 98/98/98 97/97/97
f 100/100/100 99/99/99 97/97/97
f 103/103/103 102/102/102 101/101/101
f 104/104/104 103/103/103 101/101/101
f 107/107/107 106/106/106 105/105/105
f 108/108/108 107/107/107 105/105/105
f 111/111/111 110/110/110 109/109/109
f 112/112/112 111/111/111 109/109/109
f 113/113/113 109/109/109 110/110/110
f 114/114/114 113/113/113 110/110/110
f 117/117/117 116/116/116 115/115/115
f 118/118/118 117/117/117 115/115/115
f 116/116/116 117/117/117 119/119/119
f 120/120/120 116/116/116 119/119/119
f 123/123/123 122/122/122 121/121/121
f 126/126/126 125/125/125 124/124/124
f 129/129/129 128/128/128 127/127/127
f 132/132/132 131/131/131 130/130/130
f 134/134/134 133/133/133 130/130/130
f 131/131/131 134/134/134 130/130/130
f 136/136/136 135/135/135 124/124/124
f 125/125/125 136/136/136 124/124/124
f 129/129/129 127/127/127 137/137/137
f 138/138/138 129/129/129 137/137/137
f 121/121/121 122/122/122 139/139/139
f 140/140/140 121/121/121 139/139/139
f 143/143/143 142/142/142 141/141/141
f 144/144/144 143/143/143 141/141/141
f 147/147/147 146/146/146 145/145/145
f 148/148/148 147/147/147 145/145/145
f 151/151/151 150/150/150 149/149/149
f 152/152/152 151/151/151 149/149/149
f 155/155/155 154/154/154 153/153/153
f 156/156/156 155/155/155 153/153/153
f 159/159/159 158/158/158 157/157/157
f 160/160/160 159/159/159 157/157/157
f 163/163/163 162/162/162 161/161/161
f 164/164/164 163/163/163 161/161/161
f 167/167/167 166/166/166 165/165/165
f 168/168/168 167/167/167 165/165/165
f 171/171/171 170/170/170 169/169/169
f 172/172/172 171/171/171 169/169/169
f 175/175/175 174/174/174 173/173/173
f 176/176/176 175/175/175 173/173/173
f 179/179/179 178/178/178 177/177/177
f 180/180/180 179/179/179 177/177/177
f 183/183/183 182/182/182 181/181/181
f 184/184/184 183/183/183 181/181/181
f 187/187/187 186/186/186 185/185/185
f 188/188/188 187/187/187 185/185/185
f 191/191/191 190/190/190 189/189/189
f 192/192/192 191/191/191 189/189/189
