g CryoTurretMesh7
v 0.67386985 0.46243072 0.0015537143
v 0.6737467 0.5464355 0.06259775
v 0.6736646 0.5785272 -0.03616017
v 0.67389035 0.46243072 0.12364173
v 0.67356205 0.65028214 0.06259775
v 0.6737057 0.5785272 0.16135561
v 0.67386985 0.46243072 0.0015537143
v 0.6736646 0.5785272 -0.03616017
v 0.6231469 0.58605766 -0.05425793
v 0.6233931 0.4489087 -0.009711206
v 0.6234136 0.4489087 0.13451678
v 0.67389035 0.46243072 0.12364173
v 0.67356205 0.65028214 0.06259775
v 0.62302375 0.67082167 0.062413037
v 0.6231879 0.58605766 0.17908406
v 0.6737057 0.5785272 0.16135561
vt 0.08762645 0.43683362
vt 0.08371476 0.43683362
vt 0.08513719 0.43292195
vt 0.08513719 0.44038972
vt 0.08051429 0.43434438
vt 0.08051429 0.4389673
vt 0.08762645 0.43683362
vt 0.08513719 0.43292195
vt 0.0854928 0.43078828
vt 0.089760095 0.43683362
vt 0.0854928 0.44252336
vt 0.08513719 0.44038972
vt 0.08051429 0.43434438
vt 0.078736246 0.43327755
vt 0.078736246 0.44038972
vt 0.08051429 0.4389673
vn 0.9999888 0.004737735 -0
vn 0.9999888 0.004737735 -0
vn 0.9999888 0.004737735 -0
vn 0.9999888 0.004737735 -0
vn 0.9999888 0.004737735 -0
vn 0.9999888 0.004737735 -0
vn 0.327653 -0.7658044 -0.55334175
vn 0.35787034 0.27669382 -0.8918348
vn 0.35787034 0.29935682 -0.8844853
vn 0.327653 -0.7582501 -0.56364906
vn 0.327653 -0.7582501 0.56364906
vn 0.327653 -0.7658044 0.55334175
vn 0.372979 0.92636657 0.052265484
vn 0.372979 0.92636657 -0.052265484
vn 0.35787034 0.29935682 0.8844853
vn 0.35787034 0.27669382 0.8918348
g CryoTurretMesh7_0
f 3/3/3 2/2/2 1/1/1
f 4/4/4 1/1/1 2/2/2
f 5/5/5 2/2/2 3/3/3
f 6/6/6 4/4/4 2/2/2
f 6/6/6 2/2/2 5/5/5
f 9/9/9 8/8/8 7/7/7
f 10/10/10 9/9/9 7/7/7
f 11/11/11 10/10/10 7/7/7
f 12/12/12 11/11/11 7/7/7
f 14/14/14 13/13/13 8/8/8
f 9/9/9 14/14/14 8/8/8
f 15/15/15 11/11/11 12/12/12
f 16/16/16 15/15/15 12/12/12
f 15/15/15 16/16/16 13/13/13
f 14/14/14 15/15/15 13/13/13
