g CryoTurretBurrel_CorpsePart
v 0.09379786 -0.12910292 0.21054876
v 0.15176278 -0.049308866 0.21054876
v 0.14554787 -0.047293633 0.44737732
v 0.08995199 -0.12381101 0.44737732
v 0.15176278 0.04931456 0.21053338
v 0.14554787 0.047299325 0.44737732
v 0.09379786 0.12910867 0.21054876
v 0.08995199 0.12381673 0.44737732
v 4.827976E-06 0.15958333 0.21054876
v 4.827976E-06 0.15304536 0.44737732
v -0.093803585 0.12910867 0.21053338
v -0.089957714 0.12381673 0.44737732
v -0.1517685 0.04931456 0.21053338
v -0.14555359 0.047299325 0.44737732
v -0.1517685 -0.049308866 0.21053338
v -0.14555359 -0.047293633 0.44737732
v -0.093803585 -0.12910292 0.21053338
v -0.089957714 -0.12381101 0.44737732
v 4.827976E-06 -0.15957758 0.21054876
v 4.827976E-06 -0.1530396 0.44737732
v 4.827976E-06 -0.15957758 0.21054876
v 4.827976E-06 -0.1530396 0.44737732
v 4.827976E-06 -0.0006816983 0.20802587
v 0.15176278 -0.049308866 0.21054876
v 0.09379786 -0.12910292 0.21054876
v 0.15176278 0.04931456 0.21053338
v 0.09379786 0.12910867 0.21054876
v 4.827976E-06 0.15958333 0.21054876
v -0.093803585 0.12910867 0.21053338
v -0.1517685 0.04931456 0.21053338
v -0.1517685 -0.049308866 0.21053338
v -0.093803585 -0.12910292 0.21053338
v 4.827976E-06 -0.15957758 0.21054876
v 4.827976E-06 -0.26521587 -0.50407505
v 4.827976E-06 -0.28695273 0.3919968
v 0.16866922 -0.23215681 0.3919968
v 0.15588555 -0.21455812 -0.50407505
v 0.2729076 -0.08867517 0.3919968
v 0.25223222 -0.08195257 -0.50407505
v 0.2729076 0.08868086 0.3919968
v 0.25223222 0.081958294 -0.50407505
v 0.16866922 0.23214716 0.3919968
v 0.15588555 0.21456385 -0.50407505
v 4.827976E-06 0.28695846 0.3919968
v 4.827976E-06 0.26520622 -0.50407505
v -0.16867495 0.23214716 0.3919968
v -0.1558913 0.21456385 -0.50407505
v -0.27291334 0.08868086 0.3919968
v -0.25223798 0.081958294 -0.50407505
v -0.27291334 -0.08867517 0.3919968
v -0.25223798 -0.08195257 -0.50407505
v -0.16867495 -0.23215681 0.3919968
v -0.1558913 -0.21455812 -0.50407505
v 4.827976E-06 -0.28695273 0.3919968
v 4.827976E-06 -0.26521587 -0.50407505
v 0.094536275 -0.13011822 0.5040654
v 0.16866922 -0.23215681 0.3919968
v 4.827976E-06 -0.28695273 0.3919968
v 4.827976E-06 -0.16083902 0.5040654
v 0.15296268 -0.049693435 0.5040654
v 0.2729076 -0.08867517 0.3919968
v 0.1529473 0.049699187 0.50405
v 0.2729076 0.08868086 0.3919968
v 0.094536275 0.1301086 0.50405
v 0.16866922 0.23214716 0.3919968
v 4.827976E-06 0.16081399 0.50405
v 4.827976E-06 0.28695846 0.3919968
v -0.09452659 0.1301086 0.5040654
v -0.16867495 0.23214716 0.3919968
v -0.15295303 0.049699187 0.5040654
v -0.27291334 0.08868086 0.3919968
v -0.1529684 -0.049693435 0.5040654
v -0.27291334 -0.08867517 0.3919968
v -0.09454197 -0.13011822 0.5040808
v -0.16867495 -0.23215681 0.3919968
v 4.827976E-06 -0.16083902 0.5040654
v 4.827976E-06 -0.28695273 0.3919968
v 4.827976E-06 -0.16083902 0.5040654
v 4.827976E-06 -0.14922452 0.44277763
v 0.087706 -0.120734304 0.44277763
v 0.094536275 -0.13011822 0.5040654
v 0.14191735 -0.04610908 0.44277763
v 0.15296268 -0.049693435 0.5040654
v 0.14191735 0.046114802 0.44277763
v 0.1529473 0.049699187 0.50405
v 0.087706 0.12072468 0.44277763
v 0.094536275 0.1301086 0.50405
v 4.827976E-06 0.14923024 0.44277763
v 4.827976E-06 0.16081399 0.50405
v -0.08771175 0.12072468 0.44277763
v -0.09452659 0.1301086 0.5040654
v -0.14192307 0.046114802 0.44277763
v -0.15295303 0.049699187 0.5040654
v -0.14192307 -0.04610908 0.44277763
v -0.1529684 -0.049693435 0.5040654
v -0.08771175 -0.120734304 0.44277763
v -0.09454197 -0.13011822 0.5040808
v 4.827976E-06 -0.14922452 0.44277763
v 4.827976E-06 -0.16083902 0.5040654
v 0.15588555 -0.21455812 -0.50407505
v 0.25223222 -0.08195257 -0.50407505
v 0.25223222 0.081958294 -0.50407505
v 0.15588555 0.21456385 -0.50407505
v 4.827976E-06 -0.26521587 -0.50407505
v 4.827976E-06 0.26520622 -0.50407505
v -0.1558913 0.21456385 -0.50407505
v -0.1558913 -0.21455812 -0.50407505
v -0.25223798 -0.08195257 -0.50407505
v -0.25223798 0.081958294 -0.50407505
vt 0.1152956 0.49786532
vt 0.11617507 0.49786532
vt 0.11617507 0.49566665
vt 0.1152956 0.49566665
vt 0.117054544 0.49786532
vt 0.117054544 0.49566665
vt 0.11793401 0.49786532
vt 0.11793401 0.49566665
vt 0.118813485 0.49786532
vt 0.118813485 0.49566665
vt 0.11969295 0.49786532
vt 0.11969295 0.49566665
vt 0.120572425 0.49786532
vt 0.120572425 0.49566665
vt 0.12145189 0.49786532
vt 0.12145189 0.49566665
vt 0.122331366 0.49786532
vt 0.122331366 0.49566665
vt 0.12321083 0.49786532
vt 0.12321083 0.49566665
vt 0.11441613 0.49786532
vt 0.11441613 0.49566665
vt 0.118813485 0.41475534
vt 0.120572425 0.4129964
vt 0.118813485 0.41255668
vt 0.12145189 0.41387588
vt 0.12145189 0.41563484
vt 0.120572425 0.41695404
vt 0.118813485 0.41739377
vt 0.11749428 0.41695404
vt 0.1166148 0.41563484
vt 0.1166148 0.41387588
vt 0.11749428 0.4129964
vt 0.09067042 0.49918455
vt 0.09067042 0.47851697
vt 0.08627307 0.47851697
vt 0.08627307 0.49918455
vt 0.082315445 0.47851697
vt 0.082315445 0.49918455
vt 0.07835783 0.47851697
vt 0.07835783 0.49918455
vt 0.07396048 0.47851697
vt 0.07396048 0.49918455
vt 0.07000286 0.47851697
vt 0.07000286 0.49918455
vt 0.06604524 0.47851697
vt 0.06604524 0.49918455
vt 0.061647892 0.47851697
vt 0.061647892 0.49918455
vt 0.05769027 0.47851697
vt 0.05769027 0.49918455
vt 0.05329292 0.47851697
vt 0.05329292 0.49918455
vt 0.0493353 0.47851697
vt 0.0493353 0.49918455
vt 0.08627307 0.4749991
vt 0.08627307 0.47851697
vt 0.09067042 0.47851697
vt 0.09067042 0.4749991
vt 0.082315445 0.4749991
vt 0.082315445 0.47851697
vt 0.07835783 0.4749991
vt 0.07835783 0.47851697
vt 0.07396048 0.4749991
vt 0.07396048 0.47851697
vt 0.07000286 0.4749991
vt 0.07000286 0.47851697
vt 0.06604524 0.4749991
vt 0.06604524 0.47851697
vt 0.061647892 0.4749991
vt 0.061647892 0.47851697
vt 0.05769027 0.4749991
vt 0.05769027 0.47851697
vt 0.05329292 0.4749991
vt 0.05329292 0.47851697
vt 0.0493353 0.4749991
vt 0.0493353 0.47851697
vt 0.09067042 0.4749991
vt 0.09067042 0.47324017
vt 0.08627307 0.47324017
vt 0.08627307 0.4749991
vt 0.082315445 0.47324017
vt 0.082315445 0.4749991
vt 0.07835783 0.47324017
vt 0.07835783 0.4749991
vt 0.07396048 0.47324017
vt 0.07396048 0.4749991
vt 0.07000286 0.47324017
vt 0.07000286 0.4749991
vt 0.06604524 0.47324017
vt 0.06604524 0.4749991
vt 0.061647892 0.47324017
vt 0.061647892 0.4749991
vt 0.05769027 0.47324017
vt 0.05769027 0.4749991
vt 0.05329292 0.47324017
vt 0.05329292 0.4749991
vt 0.0493353 0.47324017
vt 0.0493353 0.4749991
vt 0.08627307 0.49918455
vt 0.082315445 0.49918455
vt 0.07835783 0.49918455
vt 0.07396048 0.49918455
vt 0.0493353 0.49918455
vt 0.07000286 0.49918455
vt 0.06604524 0.49918455
vt 0.05329292 0.49918455
vt 0.05769027 0.49918455
vt 0.061647892 0.49918455
vn -0.5841418 0.8115259 -0.014285877
vn -0.95100534 0.30917466 -0
vn -0.95100534 0.30917466 -0
vn -0.5841418 0.8115259 -0.014285877
vn -0.95100534 -0.3091746 -0
vn -0.95100534 -0.3091746 -0
vn -0.5841418 -0.8115258 -0.01429005
vn -0.5841418 -0.8115258 -0.01429005
vn 0.0039203763 -0.99970573 -0.02393948
vn -0.0039203763 -0.99970573 -0.02393948
vn 0.5841418 -0.8115258 -0.01429005
vn 0.5841418 -0.8115258 -0.01429005
vn 0.95100534 -0.3091746 -0
vn 0.95100534 -0.3091746 -0
vn 0.95100534 0.30917466 -0
vn 0.95100534 0.30917466 -0
vn 0.5841418 0.8115259 -0.014285877
vn 0.5841418 0.8115259 -0.014285877
vn 0.0039203763 0.99970573 -0.02393948
vn -0.0039203763 0.99970573 -0.02393948
vn 0.0039203763 0.99970573 -0.02393948
vn -0.0039203763 0.99970573 -0.02393948
vn -0.011761248 0.011761248 0.99986166
vn -0.011761248 0.011761248 0.99986166
vn -0.011761248 0.011761248 0.99986166
vn -0.01960212 0.0039203763 0.99980015
vn -0.011761248 -0.011761248 0.99986166
vn -0.0039203763 -0.01960206 0.9998002
vn 0.0039203763 -0.01960206 0.9998002
vn 0.011761248 -0.011761248 0.99986166
vn 0.01960206 0.0039203763 0.9998002
vn 0.011761248 0.011761248 0.99986166
vn 0.0039203763 0.01960212 0.99980015
vn -0.0039203763 -0.99970573 -0.02393948
vn -0.0039203763 -0.99970573 -0.02393948
vn 0.5841418 -0.8115258 -0.01429005
vn 0.5841418 -0.8115258 -0.01429005
vn 0.95100534 -0.3091746 -0
vn 0.95100534 -0.3091746 -0
vn 0.95100534 0.30917466 -0
vn 0.95100534 0.30917466 -0
vn 0.5841418 0.8115259 -0.014285877
vn 0.5841418 0.8115259 -0.014285877
vn -0.0039203763 0.99970573 -0.02393948
vn -0.0039203763 0.99970573 -0.02393948
vn -0.5841418 0.8115259 -0.014285877
vn -0.5841418 0.8115259 -0.014285877
vn -0.95100534 0.30917466 -0
vn -0.95100534 0.30917466 -0
vn -0.95100534 -0.3091746 -0
vn -0.95100534 -0.3091746 -0
vn -0.5841418 -0.8115258 -0.01429005
vn -0.5841418 -0.8115258 -0.01429005
vn -0.0039203763 -0.99970573 -0.02393948
vn -0.0039203763 -0.99970573 -0.02393948
vn 0.38812107 -0.5370968 0.7489252
vn 0.38812107 -0.5370968 0.7489252
vn 0.0039203763 -0.6625501 0.74900734
vn 0.0039203763 -0.6625501 0.74900734
vn 0.6311867 -0.20778197 0.74728173
vn 0.6311867 -0.20778197 0.74728173
vn 0.6311867 0.20778197 0.74728173
vn 0.6311867 0.20778197 0.74728173
vn 0.38812107 0.5370968 0.7489252
vn 0.38812107 0.5370968 0.7489252
vn -0.0039203763 0.66255003 0.7490074
vn 0.0039203763 0.66255003 0.7490074
vn -0.38812107 0.5370968 0.7489252
vn -0.38812107 0.5370968 0.7489252
vn -0.6311868 0.20778197 0.7472817
vn -0.6311868 0.20778197 0.7472817
vn -0.6311868 -0.20778197 0.7472817
vn -0.6311868 -0.20778197 0.7472817
vn -0.38812107 -0.5370968 0.7489252
vn -0.38812107 -0.5370968 0.7489252
vn 0.0039203763 -0.6625501 0.74900734
vn 0.0039203763 -0.6625501 0.74900734
vn 0.0039203763 0.9840241 0.17799208
vn 0.0039203763 0.9840241 0.17799208
vn -0.5763009 0.79584414 0.18576695
vn -0.5763009 0.79584414 0.18576695
vn -0.9369791 0.30187196 0.17590751
vn -0.9369791 0.30187196 0.17590751
vn -0.9369791 -0.3018719 0.17590763
vn -0.9369791 -0.3018719 0.17590763
vn -0.5763009 -0.7958442 0.18576664
vn -0.5763009 -0.7958442 0.18576664
vn 0.0039203763 -0.98402405 0.17799242
vn 0.0039203763 -0.98402405 0.17799242
vn 0.576301 -0.7958442 0.18576647
vn 0.576301 -0.7958442 0.18576647
vn 0.9369791 -0.3018719 0.17590763
vn 0.9369791 -0.3018719 0.17590763
vn 0.9369791 0.30187196 0.17590751
vn 0.9369791 0.30187196 0.17590751
vn 0.576301 0.79584414 0.18576679
vn 0.576301 0.79584414 0.18576679
vn 0.0039203763 0.9840241 0.17799208
vn 0.0039203763 0.9840241 0.17799208
vn -0.0039203763 0.0039203763 -0.9999846
vn -0.0039203763 0.0039203763 -0.9999846
vn -0.0039203763 0.0039203763 -0.9999846
vn -0.0039203763 0.0039203763 -0.9999846
vn -0.0039203763 0.0039203763 -0.9999846
vn -0.0039203763 0.0039203763 -0.9999846
vn -0.0039203763 0.0039203763 -0.9999846
vn -0.0039203763 0.0039203763 -0.9999846
vn -0.0039203763 0.0039203763 -0.9999846
vn -0.0039203763 0.0039203763 -0.9999846
g CryoTurretBurrel_CorpsePart_0
f 3/3/3 2/2/2 1/1/1
f 4/4/4 3/3/3 1/1/1
f 6/6/6 5/5/5 2/2/2
f 3/3/3 6/6/6 2/2/2
f 8/8/8 7/7/7 5/5/5
f 6/6/6 8/8/8 5/5/5
f 10/10/10 9/9/9 7/7/7
f 8/8/8 10/10/10 7/7/7
f 12/12/12 11/11/11 9/9/9
f 10/10/10 12/12/12 9/9/9
f 14/14/14 13/13/13 11/11/11
f 12/12/12 14/14/14 11/11/11
f 16/16/16 15/15/15 13/13/13
f 14/14/14 16/16/16 13/13/13
f 18/18/18 17/17/17 15/15/15
f 16/16/16 18/18/18 15/15/15
f 20/20/20 19/19/19 17/17/17
f 18/18/18 20/20/20 17/17/17
f 4/4/4 1/1/1 21/21/21
f 22/22/22 4/4/4 21/21/21
f 25/25/25 24/24/24 23/23/23
f 24/24/24 26/26/26 23/23/23
f 26/26/26 27/27/27 23/23/23
f 27/27/27 28/28/28 23/23/23
f 28/28/28 29/29/29 23/23/23
f 29/29/29 30/30/30 23/23/23
f 30/30/30 31/31/31 23/23/23
f 31/31/31 32/32/32 23/23/23
f 32/32/32 33/33/33 23/23/23
f 33/33/33 25/25/25 23/23/23
f 36/36/36 35/35/35 34/34/34
f 37/37/37 36/36/36 34/34/34
f 37/37/37 39/39/39 38/38/38
f 36/36/36 37/37/37 38/38/38
f 39/39/39 41/41/41 40/40/40
f 38/38/38 39/39/39 40/40/40
f 41/41/41 43/43/43 42/42/42
f 40/40/40 41/41/41 42/42/42
f 43/43/43 45/45/45 44/44/44
f 42/42/42 43/43/43 44/44/44
f 45/45/45 47/47/47 46/46/46
f 44/44/44 45/45/45 46/46/46
f 47/47/47 49/49/49 48/48/48
f 46/46/46 47/47/47 48/48/48
f 49/49/49 51/51/51 50/50/50
f 48/48/48 49/49/49 50/50/50
f 51/51/51 53/53/53 52/52/52
f 50/50/50 51/51/51 52/52/52
f 53/53/53 55/55/55 54/54/54
f 52/52/52 53/53/53 54/54/54
f 58/58/58 57/57/57 56/56/56
f 59/59/59 58/58/58 56/56/56
f 57/57/57 61/61/61 60/60/60
f 56/56/56 57/57/57 60/60/60
f 61/61/61 63/63/63 62/62/62
f 60/60/60 61/61/61 62/62/62
f 63/63/63 65/65/65 64/64/64
f 62/62/62 63/63/63 64/64/64
f 65/65/65 67/67/67 66/66/66
f 64/64/64 65/65/65 66/66/66
f 67/67/67 69/69/69 68/68/68
f 66/66/66 67/67/67 68/68/68
f 69/69/69 71/71/71 70/70/70
f 68/68/68 69/69/69 70/70/70
f 71/71/71 73/73/73 72/72/72
f 70/70/70 71/71/71 72/72/72
f 73/73/73 75/75/75 74/74/74
f 72/72/72 73/73/73 74/74/74
f 75/75/75 77/77/77 76/76/76
f 74/74/74 75/75/75 76/76/76
f 80/80/80 79/79/79 78/78/78
f 81/81/81 80/80/80 78/78/78
f 81/81/81 83/83/83 82/82/82
f 80/80/80 81/81/81 82/82/82
f 83/83/83 85/85/85 84/84/84
f 82/82/82 83/83/83 84/84/84
f 85/85/85 87/87/87 86/86/86
f 84/84/84 85/85/85 86/86/86
f 87/87/87 89/89/89 88/88/88
f 86/86/86 87/87/87 88/88/88
f 89/89/89 91/91/91 90/90/90
f 88/88/88 89/89/89 90/90/90
f 91/91/91 93/93/93 92/92/92
f 90/90/90 91/91/91 92/92/92
f 93/93/93 95/95/95 94/94/94
f 92/92/92 93/93/93 94/94/94
f 95/95/95 97/97/97 96/96/96
f 94/94/94 95/95/95 96/96/96
f 97/97/97 99/99/99 98/98/98
f 96/96/96 97/97/97 98/98/98
f 102/102/102 101/101/101 100/100/100
f 100/100/100 103/103/103 102/102/102
f 100/100/100 104/104/104 103/103/103
f 104/104/104 105/105/105 103/103/103
f 104/104/104 106/106/106 105/105/105
f 104/104/104 107/107/107 106/106/106
f 107/107/107 108/108/108 106/106/106
f 108/108/108 109/109/109 106/106/106
