g CryoTurret_DefaultPart_6
v -0.5956007 1.031642 0.14844656
v -0.59568226 1.081039 0.20822293
v -0.69961154 0.9792018 0.29229015
v -0.6995301 0.9298048 0.23251384
v -0.6900474 0.32359123 0.6479322
v -0.58891666 0.21656442 0.67765737
v -0.5888351 0.19596875 0.6031543
v -0.68993866 0.30299556 0.5734292
v -0.5888351 0.19596875 0.6031543
v -0.58891666 0.21656442 0.67765737
v -0.31280434 0.21555907 0.67907023
v -0.31269562 0.1949091 0.6043227
v -0.69933987 0.62266314 0.48197138
v -0.6995301 0.9298048 0.23251384
v -0.69961154 0.9792018 0.29229015
v -0.6994486 0.65776813 0.5493828
v -0.6900474 0.32359123 0.6479322
v -0.68993866 0.30299556 0.5734292
v -0.30277824 1.081039 0.20857614
v -0.3026967 1.031642 0.14882696
v -0.30291402 0.62266314 0.48248756
v -0.30296838 0.65774095 0.54984474
v -0.31269562 0.1949091 0.6043227
v -0.31280434 0.21555907 0.67907023
v -0.69961154 0.9792018 0.29229015
v -0.59568226 1.081039 0.20822293
v -0.30277824 1.081039 0.20857614
v -0.68993866 0.30299556 0.5734292
v -0.5888351 0.19596875 0.6031543
v -0.31269562 0.1949091 0.6043227
v -0.6900474 0.32359123 0.6479322
v -0.31280434 0.21555907 0.67907023
v -0.58891666 0.21656442 0.67765737
v -0.3026967 1.031642 0.14882696
v -0.5956007 1.031642 0.14844656
v -0.6995301 0.9298048 0.23251384
v -0.69933987 0.62266314 0.48197138
v -0.30291402 0.62266314 0.48248756
v -0.30291402 0.62266314 0.48248756
v -0.69933987 0.62266314 0.48197138
v -0.6994486 0.65776813 0.5493828
v -0.30296838 0.65774095 0.54984474
v -0.30296838 0.65774095 0.54984474
v -0.6994486 0.65776813 0.5493828
v -0.30277824 1.081039 0.20857614
v -0.59568226 1.081039 0.20822293
v -0.5956007 1.031642 0.14844656
v -0.3026967 1.031642 0.14882696
v -0.5625608 0.30818522 0.41746724
v -0.56310415 0.45167565 0.3616035
v -0.55837643 0.5248201 0.656165
v -0.5578873 0.38961697 0.68368936
v -0.5625608 0.30818522 0.41746724
v -0.5578873 0.38961697 0.68368936
v -0.4779501 0.38977993 0.6830101
v -0.472543 0.30807662 0.41635323
v -0.4779501 0.38977993 0.6830101
v -0.4784119 0.52498317 0.6555129
v -0.4730593 0.45156693 0.3604895
v -0.472543 0.30807662 0.41635323
v -0.4730593 0.45156693 0.3604895
v -0.4784119 0.52498317 0.6555129
v -0.55837643 0.5248201 0.656165
v -0.56310415 0.45167565 0.3616035
v -0.472543 0.30807662 0.41635323
v -0.4730593 0.45156693 0.3604895
v -0.56310415 0.45167565 0.3616035
v -0.5625608 0.30818522 0.41746724
v -0.55837643 0.5248201 0.656165
v -0.4784119 0.52498317 0.6555129
v -0.4779501 0.38977993 0.6830101
v -0.5578873 0.38961697 0.68368936
v -0.5833738 0.64708996 0.24455059
v -0.5838901 0.75838256 0.13814873
v -0.57916224 0.90016115 0.29832214
v -0.5787003 0.8004434 0.39366543
v -0.5833738 0.64708996 0.24455059
v -0.5787003 0.8004434 0.39366543
v -0.4987359 0.8001989 0.39301336
v -0.49332893 0.64657366 0.2435453
v -0.4987359 0.8001989 0.39301336
v -0.49922502 0.89991665 0.29767007
v -0.49387228 0.7578392 0.13714337
v -0.49332893 0.64657366 0.2435453
v -0.49387228 0.7578392 0.13714337
v -0.49922502 0.89991665 0.29767007
v -0.57916224 0.90016115 0.29832214
v -0.5838901 0.75838256 0.13814873
v -0.49332893 0.64657366 0.2435453
v -0.49387228 0.7578392 0.13714337
v -0.5838901 0.75838256 0.13814873
v -0.5833738 0.64708996 0.24455059
v -0.57916224 0.90016115 0.29832214
v -0.49922502 0.89991665 0.29767007
v -0.4987359 0.8001989 0.39301336
v -0.5787003 0.8004434 0.39366543
v 0.59560585 1.031642 0.14844656
v 0.69953513 0.9298048 0.23251384
v 0.6996167 0.9792018 0.29229015
v 0.5956873 1.081039 0.20822293
v 0.69002527 0.32359123 0.6479322
v 0.6899438 0.30299556 0.5734292
v 0.58881307 0.19596875 0.6031543
v 0.5889218 0.21656442 0.67765737
v 0.58881307 0.19596875 0.6031543
v 0.31270072 0.1949091 0.6043227
v 0.3128094 0.21555907 0.67907023
v 0.5889218 0.21656442 0.67765737
v 0.69934493 0.62266314 0.48197138
v 0.69945365 0.65776813 0.5493828
v 0.6996167 0.9792018 0.29229015
v 0.69953513 0.9298048 0.23251384
v 0.6899438 0.30299556 0.5734292
v 0.69002527 0.32359123 0.6479322
v 0.30278328 1.081039 0.20857614
v 0.30297348 0.65774095 0.54984474
v 0.30289197 0.62266314 0.48248756
v 0.30270177 1.031642 0.14882696
v 0.31270072 0.1949091 0.6043227
v 0.3128094 0.21555907 0.67907023
v 0.6996167 0.9792018 0.29229015
v 0.30278328 1.081039 0.20857614
v 0.5956873 1.081039 0.20822293
v 0.6899438 0.30299556 0.5734292
v 0.31270072 0.1949091 0.6043227
v 0.58881307 0.19596875 0.6031543
v 0.69002527 0.32359123 0.6479322
v 0.5889218 0.21656442 0.67765737
v 0.3128094 0.21555907 0.67907023
v 0.30270177 1.031642 0.14882696
v 0.69953513 0.9298048 0.23251384
v 0.59560585 1.031642 0.14844656
v 0.30289197 0.62266314 0.48248756
v 0.69934493 0.62266314 0.48197138
v 0.69934493 0.62266314 0.48197138
v 0.30289197 0.62266314 0.48248756
v 0.69945365 0.65776813 0.5493828
v 0.30297348 0.65774095 0.54984474
v 0.30297348 0.65774095 0.54984474
v 0.69945365 0.65776813 0.5493828
v 0.30278328 1.081039 0.20857614
v 0.30270177 1.031642 0.14882696
v 0.59560585 1.031642 0.14844656
v 0.5956873 1.081039 0.20822293
v 0.5625658 0.30818522 0.41746724
v 0.5578924 0.38961697 0.68368936
v 0.5583543 0.5248201 0.656165
v 0.5630821 0.45167565 0.3616035
v 0.5625658 0.30818522 0.41746724
v 0.47252092 0.30807662 0.41635323
v 0.47792798 0.38977993 0.6830101
v 0.5578924 0.38961697 0.68368936
v 0.47792798 0.38977993 0.6830101
v 0.47252092 0.30807662 0.41635323
v 0.47306436 0.45156693 0.3604895
v 0.47841704 0.52498317 0.6555129
v 0.47306436 0.45156693 0.3604895
v 0.5630821 0.45167565 0.3616035
v 0.5583543 0.5248201 0.656165
v 0.47841704 0.52498317 0.6555129
v 0.47252092 0.30807662 0.41635323
v 0.5625658 0.30818522 0.41746724
v 0.5630821 0.45167565 0.3616035
v 0.47306436 0.45156693 0.3604895
v 0.5583543 0.5248201 0.656165
v 0.5578924 0.38961697 0.68368936
v 0.47792798 0.38977993 0.6830101
v 0.47841704 0.52498317 0.6555129
v 0.58337885 0.64708996 0.24455059
v 0.57867825 0.8004434 0.39366543
v 0.57916737 0.90016115 0.29832214
v 0.5838951 0.75838256 0.13814873
v 0.58337885 0.64708996 0.24455059
v 0.49333394 0.64657366 0.2435453
v 0.498741 0.8001989 0.39301336
v 0.57867825 0.8004434 0.39366543
v 0.498741 0.8001989 0.39301336
v 0.49333394 0.64657366 0.2435453
v 0.49387738 0.7578392 0.13714337
v 0.4992301 0.89991665 0.29767007
v 0.49387738 0.7578392 0.13714337
v 0.5838951 0.75838256 0.13814873
v 0.57916737 0.90016115 0.29832214
v 0.4992301 0.89991665 0.29767007
v 0.49333394 0.64657366 0.2435453
v 0.58337885 0.64708996 0.24455059
v 0.5838951 0.75838256 0.13814873
v 0.49387738 0.7578392 0.13714337
v 0.57916737 0.90016115 0.29832214
v 0.57867825 0.8004434 0.39366543
v 0.498741 0.8001989 0.39301336
v 0.4992301 0.89991665 0.29767007
vt 0.04193896 0.43459824
vt 0.04193896 0.43229392
vt 0.036869418 0.43229392
vt 0.036869418 0.43459824
vt 0.014747767 0.43229392
vt 0.01013909 0.43229392
vt 0.01013909 0.43459824
vt 0.014747767 0.43459824
vt 0.01013909 0.43459824
vt 0.01013909 0.43229392
vt 0.0013826031 0.43229392
vt 0.0018434708 0.43459824
vt 0.024886856 0.43459824
vt 0.036869418 0.43459824
vt 0.036869418 0.43229392
vt 0.024886856 0.43229392
vt 0.014747767 0.43229392
vt 0.014747767 0.43459824
vt 0.0013826031 0.4253809
vt 0.0018434708 0.42906785
vt 0.02212165 0.42906785
vt 0.02212165 0.42584175
vt 0.039634623 0.42906785
vt 0.039634623 0.4253809
vt 0.006452148 0.41017225
vt 0.0018434708 0.41432008
vt 0.0013826031 0.4253809
vt 0.088025734 0.37745064
vt 0.085260525 0.379755
vt 0.085721396 0.38574627
vt 0.035486814 0.41063312
vt 0.039634623 0.4253809
vt 0.039634623 0.41432008
vt 0.10646044 0.38574627
vt 0.10646044 0.37929413
vt 0.103695236 0.37745064
vt 0.09493875 0.37745064
vt 0.09539962 0.38574627
vt 0.09539962 0.38574627
vt 0.09493875 0.37745064
vt 0.02212165 0.41017225
vt 0.02212165 0.42584175
vt 0.02212165 0.42584175
vt 0.02212165 0.41017225
vt 0.051156316 0.43229392
vt 0.04193896 0.43229392
vt 0.04193896 0.43459824
vt 0.051156316 0.43459824
vt 0.096782215 0.46870247
vt 0.096782215 0.46455464
vt 0.08894747 0.46455464
vt 0.08894747 0.46870247
vt 0.096782215 0.46870247
vt 0.08894747 0.46870247
vt 0.08894747 0.47146767
vt 0.096782215 0.47146767
vt 0.08894747 0.45764163
vt 0.08894747 0.46178943
vt 0.096782215 0.46178943
vt 0.096782215 0.45764163
vt 0.096782215 0.46178943
vt 0.08894747 0.46178943
vt 0.08894747 0.46455464
vt 0.096782215 0.46455464
vt 0 0
vt 0 0
vt 0 0
vt 0 0
vt 0 0
vt 0 0
vt 0 0
vt 0 0
vt 0.10507784 0.46870247
vt 0.10507784 0.46409377
vt 0.09862569 0.46409377
vt 0.09862569 0.46870247
vt 0.10507784 0.46870247
vt 0.09862569 0.46870247
vt 0.09862569 0.47146767
vt 0.10507784 0.47146767
vt 0.09862569 0.45718077
vt 0.09862569 0.46178943
vt 0.10507784 0.46178943
vt 0.10507784 0.45718077
vt 0.10507784 0.46178943
vt 0.09862569 0.46178943
vt 0.09862569 0.46409377
vt 0.10507784 0.46409377
vt 0 0
vt 0 0
vt 0 0
vt 0 0
vt 0 0
vt 0 0
vt 0 0
vt 0 0
vt 0.04193896 0.43459824
vt 0.036869418 0.43459824
vt 0.036869418 0.43229392
vt 0.04193896 0.43229392
vt 0.014747767 0.43229392
vt 0.014747767 0.43459824
vt 0.01013909 0.43459824
vt 0.01013909 0.43229392
vt 0.01013909 0.43459824
vt 0.0018434708 0.43459824
vt 0.0013826031 0.43229392
vt 0.01013909 0.43229392
vt 0.024886856 0.43459824
vt 0.024886856 0.43229392
vt 0.036869418 0.43229392
vt 0.036869418 0.43459824
vt 0.014747767 0.43459824
vt 0.014747767 0.43229392
vt 0.0013826031 0.4253809
vt 0.02212165 0.42584175
vt 0.02212165 0.42906785
vt 0.0018434708 0.42906785
vt 0.039634623 0.42906785
vt 0.039634623 0.4253809
vt 0.006452148 0.41017225
vt 0.0013826031 0.4253809
vt 0.0018434708 0.41432008
vt 0.088025734 0.37745064
vt 0.085721396 0.38574627
vt 0.085260525 0.379755
vt 0.035486814 0.41063312
vt 0.039634623 0.41432008
vt 0.039634623 0.4253809
vt 0.10646044 0.38574627
vt 0.103695236 0.37745064
vt 0.10646044 0.37929413
vt 0.09539962 0.38574627
vt 0.09493875 0.37745064
vt 0.09493875 0.37745064
vt 0.09539962 0.38574627
vt 0.02212165 0.41017225
vt 0.02212165 0.42584175
vt 0.02212165 0.42584175
vt 0.02212165 0.41017225
vt 0.051156316 0.43229392
vt 0.051156316 0.43459824
vt 0.04193896 0.43459824
vt 0.04193896 0.43229392
vt 0.096782215 0.46870247
vt 0.08894747 0.46870247
vt 0.08894747 0.46455464
vt 0.096782215 0.46455464
vt 0.096782215 0.46870247
vt 0.096782215 0.47146767
vt 0.08894747 0.47146767
vt 0.08894747 0.46870247
vt 0.08894747 0.45764163
vt 0.096782215 0.45764163
vt 0.096782215 0.46178943
vt 0.08894747 0.46178943
vt 0.096782215 0.46178943
vt 0.096782215 0.46455464
vt 0.08894747 0.46455464
vt 0.08894747 0.46178943
vt 0 0
vt 0 0
vt 0 0
vt 0 0
vt 0 0
vt 0 0
vt 0 0
vt 0 0
vt 0.10507784 0.46870247
vt 0.09862569 0.46870247
vt 0.09862569 0.46409377
vt 0.10507784 0.46409377
vt 0.10507784 0.46870247
vt 0.10507784 0.47146767
vt 0.09862569 0.47146767
vt 0.09862569 0.46870247
vt 0.09862569 0.45718077
vt 0.10507784 0.45718077
vt 0.10507784 0.46178943
vt 0.09862569 0.46178943
vt 0.10507784 0.46178943
vt 0.10507784 0.46409377
vt 0.09862569 0.46409377
vt 0.09862569 0.46178943
vt 0 0
vt 0 0
vt 0 0
vt 0 0
vt 0 0
vt 0 0
vt 0 0
vt 0 0
vn -0.7882292 0.47450614 -0.39184007
vn -0.7882292 0.47450614 -0.39184007
vn -0.7882292 0.47450614 -0.39184007
vn -0.7882292 0.47450614 -0.39184007
vn -0.74117076 -0.6470539 0.17884946
vn -0.74117076 -0.6470539 0.17884946
vn -0.74117076 -0.6470539 0.17884946
vn -0.74117076 -0.6470539 0.17884946
vn -0.003921509 -0.960777 0.27729443
vn -0.003921509 -0.960777 0.27729443
vn 0.83528775 -0.52156466 0.17396745
vn 0.8431308 -0.52156466 0.13076961
vn -0.99999225 -0.0039215684 -0.00034425134
vn -0.99999225 -0.0039215684 -0.00034425134
vn -0.99999225 -0.0039215684 -0.00034425134
vn -0.99999225 -0.0039215684 -0.00034425134
vn -0.9996234 -0.027440675 -0
vn -0.9996234 -0.027440675 -0
vn 0.9999924 0.003921509 -0
vn 0.9999924 0.003921509 -0
vn 0.9999924 0.003921509 -0
vn 0.9999924 0.003921509 -0
vn 0.8431308 -0.52156466 0.13076961
vn 0.83528775 -0.52156466 0.17396745
vn 0.0039215684 0.62352455 0.78179395
vn -0.003921509 0.6392107 0.76902163
vn 0.0039215684 0.62352455 0.78179395
vn 0.0039215684 -0.2705862 -0.96268773
vn 0.0039215684 -0.26274312 -0.9648579
vn 0.0039215684 -0.2705862 -0.96268773
vn 0.0039215684 0.27842915 0.96044874
vn 0.0039215684 0.27842915 0.96044874
vn -0.003921509 0.262743 0.9648579
vn -0.003921509 -0.63136774 -0.77547365
vn 0.0039215684 -0.6392108 -0.7690216
vn -0.003921509 -0.63136774 -0.77547365
vn -0.003921509 -0.63136774 -0.77547365
vn -0.003921509 -0.63136774 -0.77547365
vn 0.0039215684 -0.2705862 -0.96268773
vn 0.0039215684 -0.2705862 -0.96268773
vn 0.0039215684 0.27842915 0.96044874
vn 0.0039215684 0.27842915 0.96044874
vn 0.0039215684 0.62352455 0.78179395
vn 0.0039215684 0.62352455 0.78179395
vn 0.0039215684 0.7725431 -0.6349503
vn 0.0039215684 0.7725431 -0.6349503
vn 0.0039215684 0.7725431 -0.6349503
vn 0.0039215684 0.7725431 -0.6349503
vn -0.99999225 0.003921509 -0.00034492963
vn -0.99999225 0.003921509 -0.00034492963
vn -0.99999225 0.003921509 -0.00034492963
vn -0.99999225 0.003921509 -0.00034492963
vn 0.0039215684 -0.9529339 0.30315277
vn 0.0039215684 -0.9529339 0.30315277
vn 0.0039215684 -0.9529339 0.30315277
vn 0.0039215684 -0.9529339 0.30315277
vn 0.99993086 0.011763803 -0
vn 0.99993086 0.011763803 -0
vn 0.99993086 0.011763803 -0
vn 0.99993086 0.011763803 -0
vn -0.003921509 0.96861994 -0.2485156
vn -0.003921509 0.96861994 -0.2485156
vn -0.003921509 0.96861994 -0.2485156
vn -0.003921509 0.96861994 -0.2485156
vn -0.011764526 -0.36470312 -0.9310495
vn -0.011764526 -0.36470312 -0.9310495
vn -0.011764526 -0.36470312 -0.9310495
vn -0.011764526 -0.36470312 -0.9310495
vn 0.011764646 0.19999838 0.9797256
vn 0.011764646 0.19999838 0.9797256
vn 0.011764646 0.19999838 0.9797256
vn 0.011764646 0.19999838 0.9797256
vn -0.99993086 0.011763804 -0
vn -0.99993086 0.011763804 -0
vn -0.99993086 0.011763804 -0
vn -0.99993086 0.011763804 -0
vn 0.0039215684 -0.69411236 0.71985596
vn 0.0039215684 -0.69411236 0.71985596
vn 0.0039215684 -0.69411236 0.71985596
vn 0.0039215684 -0.69411236 0.71985596
vn 0.9998079 0.019604046 -0
vn 0.9998079 0.019604046 -0
vn 0.9998079 0.019604046 -0
vn 0.9998079 0.019604046 -0
vn -0.003921509 0.7490138 -0.6625428
vn -0.003921509 0.7490138 -0.6625428
vn -0.003921509 0.7490138 -0.6625428
vn -0.003921509 0.7490138 -0.6625428
vn -0.011764526 -0.69411236 -0.71977055
vn -0.011764526 -0.69411236 -0.71977055
vn -0.011764526 -0.69411236 -0.71977055
vn -0.011764526 -0.69411236 -0.71977055
vn 0.011764646 0.6941123 0.7197706
vn 0.011764646 0.6941123 0.7197706
vn 0.011764646 0.6941123 0.7197706
vn 0.011764646 0.6941123 0.7197706
vn 0.7882293 0.47450614 -0.3918399
vn 0.7882293 0.47450614 -0.3918399
vn 0.7882293 0.47450614 -0.3918399
vn 0.7882293 0.47450614 -0.3918399
vn 0.7411708 -0.6470539 0.1788493
vn 0.7411708 -0.6470539 0.1788493
vn 0.7411708 -0.6470539 0.1788493
vn 0.7411708 -0.6470539 0.1788493
vn 0.0039215684 -0.960777 0.27729443
vn -0.8431307 -0.52156466 0.13077052
vn -0.8352877 -0.52156466 0.1739678
vn 0.0039215684 -0.960777 0.27729443
vn 0.9999924 -0.0039215684 -0
vn 0.9999924 -0.0039215684 -0
vn 0.9999924 -0.0039215684 -0
vn 0.9999924 -0.0039215684 -0
vn 0.9996234 -0.027440673 -0
vn 0.9996234 -0.027440673 -0
vn -0.99999225 0.003921509 -0.00034492963
vn -0.99999225 0.003921509 -0.00034492963
vn -0.99999225 0.003921509 -0.00034492963
vn -0.99999225 0.003921509 -0.00034492963
vn -0.8431307 -0.52156466 0.13077052
vn -0.8352877 -0.52156466 0.1739678
vn -0.003921509 0.62352455 0.78179395
vn -0.003921509 0.62352455 0.78179395
vn 0.0039215684 0.6392107 0.76902163
vn -0.003921509 -0.2705862 -0.96268773
vn -0.003921509 -0.2705862 -0.96268773
vn -0.003921509 -0.26274312 -0.9648579
vn -0.003921509 0.27842915 0.96044874
vn 0.0039215684 0.262743 0.9648579
vn -0.003921509 0.27842915 0.96044874
vn 0.0039215684 -0.63136774 -0.77547365
vn 0.0039215684 -0.63136774 -0.77547365
vn -0.003921509 -0.6392108 -0.7690216
vn 0.0039215684 -0.63136774 -0.77547365
vn 0.0039215684 -0.63136774 -0.77547365
vn -0.003921509 -0.2705862 -0.96268773
vn -0.003921509 -0.2705862 -0.96268773
vn -0.003921509 0.27842915 0.96044874
vn -0.003921509 0.27842915 0.96044874
vn -0.003921509 0.62352455 0.78179395
vn -0.003921509 0.62352455 0.78179395
vn -0.003921509 0.7725431 -0.6349503
vn -0.003921509 0.7725431 -0.6349503
vn -0.003921509 0.7725431 -0.6349503
vn -0.003921509 0.7725431 -0.6349503
vn 0.9999924 0.003921509 -0
vn 0.9999924 0.003921509 -0
vn 0.9999924 0.003921509 -0
vn 0.9999924 0.003921509 -0
vn -0.003921509 -0.9529339 0.30315277
vn -0.003921509 -0.9529339 0.30315277
vn -0.003921509 -0.9529339 0.30315277
vn -0.003921509 -0.9529339 0.30315277
vn -0.99993086 0.011763804 -0
vn -0.99993086 0.011763804 -0
vn -0.99993086 0.011763804 -0
vn -0.99993086 0.011763804 -0
vn 0.0039215684 0.96861994 -0.2485156
vn 0.0039215684 0.96861994 -0.2485156
vn 0.0039215684 0.96861994 -0.2485156
vn 0.0039215684 0.96861994 -0.2485156
vn 0.011764646 -0.36470312 -0.9310495
vn 0.011764646 -0.36470312 -0.9310495
vn 0.011764646 -0.36470312 -0.9310495
vn 0.011764646 -0.36470312 -0.9310495
vn -0.011764526 0.19999838 0.9797256
vn -0.011764526 0.19999838 0.9797256
vn -0.011764526 0.19999838 0.9797256
vn -0.011764526 0.19999838 0.9797256
vn 0.99993086 0.011763803 -0
vn 0.99993086 0.011763803 -0
vn 0.99993086 0.011763803 -0
vn 0.99993086 0.011763803 -0
vn -0.003921509 -0.69411236 0.71985596
vn -0.003921509 -0.69411236 0.71985596
vn -0.003921509 -0.69411236 0.71985596
vn -0.003921509 -0.69411236 0.71985596
vn -0.9998079 0.019604048 -0
vn -0.9998079 0.019604048 -0
vn -0.9998079 0.019604048 -0
vn -0.9998079 0.019604048 -0
vn 0.0039215684 0.7490138 -0.6625428
vn 0.0039215684 0.7490138 -0.6625428
vn 0.0039215684 0.7490138 -0.6625428
vn 0.0039215684 0.7490138 -0.6625428
vn 0.011764646 -0.69411236 -0.71977055
vn 0.011764646 -0.69411236 -0.71977055
vn 0.011764646 -0.69411236 -0.71977055
vn 0.011764646 -0.69411236 -0.71977055
vn -0.011764526 0.6941123 0.7197706
vn -0.011764526 0.6941123 0.7197706
vn -0.011764526 0.6941123 0.7197706
vn -0.011764526 0.6941123 0.7197706
g CryoTurret_DefaultPart_6_0
f 3/3/3 2/2/2 1/1/1
f 4/4/4 3/3/3 1/1/1
f 7/7/7 6/6/6 5/5/5
f 8/8/8 7/7/7 5/5/5
f 11/11/11 10/10/10 9/9/9
f 12/12/12 11/11/11 9/9/9
f 15/15/15 14/14/14 13/13/13
f 16/16/16 15/15/15 13/13/13
f 18/18/18 17/17/17 16/16/16
f 13/13/13 18/18/18 16/16/16
f 21/21/21 20/20/20 19/19/19
f 22/22/22 21/21/21 19/19/19
f 22/22/22 24/24/24 23/23/23
f 21/21/21 22/22/22 23/23/23
f 27/27/27 26/26/26 25/25/25
f 30/30/30 29/29/29 28/28/28
f 33/33/33 32/32/32 31/31/31
f 36/36/36 35/35/35 34/34/34
f 37/37/37 36/36/36 34/34/34
f 38/38/38 37/37/37 34/34/34
f 39/39/39 30/30/30 28/28/28
f 40/40/40 39/39/39 28/28/28
f 32/32/32 42/42/42 41/41/41
f 31/31/31 32/32/32 41/41/41
f 25/25/25 44/44/44 43/43/43
f 27/27/27 25/25/25 43/43/43
f 47/47/47 46/46/46 45/45/45
f 48/48/48 47/47/47 45/45/45
f 51/51/51 50/50/50 49/49/49
f 52/52/52 51/51/51 49/49/49
f 55/55/55 54/54/54 53/53/53
f 56/56/56 55/55/55 53/53/53
f 59/59/59 58/58/58 57/57/57
f 60/60/60 59/59/59 57/57/57
f 63/63/63 62/62/62 61/61/61
f 64/64/64 63/63/63 61/61/61
f 67/67/67 66/66/66 65/65/65
f 68/68/68 67/67/67 65/65/65
f 71/71/71 70/70/70 69/69/69
f 72/72/72 71/71/71 69/69/69
f 75/75/75 74/74/74 73/73/73
f 76/76/76 75/75/75 73/73/73
f 79/79/79 78/78/78 77/77/77
f 80/80/80 79/79/79 77/77/77
f 83/83/83 82/82/82 81/81/81
f 84/84/84 83/83/83 81/81/81
f 87/87/87 86/86/86 85/85/85
f 88/88/88 87/87/87 85/85/85
f 91/91/91 90/90/90 89/89/89
f 92/92/92 91/91/91 89/89/89
f 95/95/95 94/94/94 93/93/93
f 96/96/96 95/95/95 93/93/93
f 99/99/99 98/98/98 97/97/97
f 100/100/100 99/99/99 97/97/97
f 103/103/103 102/102/102 101/101/101
f 104/104/104 103/103/103 101/101/101
f 107/107/107 106/106/106 105/105/105
f 108/108/108 107/107/107 105/105/105
f 111/111/111 110/110/110 109/109/109
f 112/112/112 111/111/111 109/109/109
f 113/113/113 109/109/109 110/110/110
f 114/114/114 113/113/113 110/110/110
f 117/117/117 116/116/116 115/115/115
f 118/118/118 117/117/117 115/115/115
f 116/116/116 117/117/117 119/119/119
f 120/120/120 116/116/116 119/119/119
f 123/123/123 122/122/122 121/121/121
f 126/126/126 125/125/125 124/124/124
f 129/129/129 128/128/128 127/127/127
f 132/132/132 131/131/131 130/130/130
f 134/134/134 133/133/133 130/130/130
f 131/131/131 134/134/134 130/130/130
f 136/136/136 135/135/135 124/124/124
f 125/125/125 136/136/136 124/124/124
f 129/129/129 127/127/127 137/137/137
f 138/138/138 129/129/129 137/137/137
f 121/121/121 122/122/122 139/139/139
f 140/140/140 121/121/121 139/139/139
f 143/143/143 142/142/142 141/141/141
f 144/144/144 143/143/143 141/141/141
f 147/147/147 146/146/146 145/145/145
f 148/148/148 147/147/147 145/145/145
f 151/151/151 150/150/150 149/149/149
f 152/152/152 151/151/151 149/149/149
f 155/155/155 154/154/154 153/153/153
f 156/156/156 155/155/155 153/153/153
f 159/159/159 158/158/158 157/157/157
f 160/160/160 159/159/159 157/157/157
f 163/163/163 162/162/162 161/161/161
f 164/164/164 163/163/163 161/161/161
f 167/167/167 166/166/166 165/165/165
f 168/168/168 167/167/167 165/165/165
f 171/171/171 170/170/170 169/169/169
f 172/172/172 171/171/171 169/169/169
f 175/175/175 174/174/174 173/173/173
f 176/176/176 175/175/175 173/173/173
f 179/179/179 178/178/178 177/177/177
f 180/180/180 179/179/179 177/177/177
f 183/183/183 182/182/182 181/181/181
f 184/184/184 183/183/183 181/181/181
f 187/187/187 186/186/186 185/185/185
f 188/188/188 187/187/187 185/185/185
f 191/191/191 190/190/190 189/189/189
f 192/192/192 191/191/191 189/189/189
