g CryoTurretMesh5
v 0.23266442 0.23240578 0.075698644
v 0.23266442 -0.016003013 0.075698644
v 0.14379525 -0.016003013 0.19803834
v 0.14379525 0.23240578 0.19803834
v 0.23266442 0.23240578 -0.07548517
v 0.23266442 -0.016003013 -0.07548517
v 0.14379525 0.23240578 -0.19780128
v 0.14379525 -0.016003013 -0.19780128
v -5.066395E-07 0.23240578 -0.24453725
v -5.066395E-07 -0.016003013 -0.24453725
v -0.14379627 0.23240578 -0.19780128
v -0.14379627 -0.016003013 -0.19780128
v -5.066395E-07 -0.016003013 -0.24453725
v -5.066395E-07 0.23240578 -0.24453725
v -0.23266542 0.23240578 -0.07548517
v -0.23266542 -0.016003013 -0.07548517
v -0.23266542 0.23240578 0.075698644
v -0.23266542 -0.016003013 0.075698644
v -0.14379627 0.23240578 0.19803834
v -0.14379627 -0.016003013 0.19803834
v -5.066395E-07 0.23240578 0.24475074
v -5.066395E-07 -0.016003013 0.24475074
v -0.25933802 1.0645659 -0.01461038
v -0.41963297 0.84396267 -0.01461038
v -0.41963297 0.84396267 -0.12349579
v -0.25933802 1.0645659 -0.12349579
v -0.41963297 0.5712653 -0.01461038
v -0.41963297 0.5712653 -0.12349579
v -0.25933802 0.350662 -0.01461038
v -0.25933802 0.350662 -0.12349579
v -5.066395E-07 0.2879933 -0.01461038
v -5.066395E-07 0.2879933 -0.12349579
v 0.25933698 0.350662 -0.01461038
v 0.25933698 0.350662 -0.12349579
v 0.25933698 1.0645659 -0.01461038
v 0.24146873 1.0399705 -0.003988564
v -5.066395E-07 1.0983196 -0.003988564
v -5.066395E-07 1.1272582 -0.01461038
v -0.25933802 1.0645659 -0.01461038
v -0.24146974 1.0399705 -0.003988564
v -0.25933802 1.0645659 -0.12349579
v -0.41963297 0.84396267 -0.12349579
v -0.3935269 0.8354888 -0.1341176
v -0.24321645 1.0423782 -0.1341176
v -0.39069444 0.83456826 -0.003988564
v -0.41963297 0.84396267 -0.01461038
v -0.41963297 0.5712653 -0.12349579
v -0.3935269 0.57976276 -0.1341176
v -0.39069444 0.58068323 -0.003988564
v -0.41963297 0.5712653 -0.01461038
v -0.25933802 0.350662 -0.12349579
v -0.24321645 0.37287337 -0.1341176
v -0.24146974 0.37525737 -0.003988564
v -0.25933802 0.350662 -0.01461038
v -5.066395E-07 0.2879933 -0.12349579
v -5.066395E-07 0.31407577 -0.1341176
v 0.25933698 0.350662 -0.12349579
v 0.24321543 0.37287337 -0.1341176
v 0.25933698 1.0645659 -0.01461038
v -5.066395E-07 1.1272582 -0.01461038
v -5.066395E-07 1.1272582 -0.12349579
v 0.25933698 1.0645659 -0.12349579
v 0.41963196 0.84396267 -0.12349579
v 0.41963196 0.84396267 -0.01461038
v 0.41963196 0.5712653 -0.12349579
v 0.41963196 0.5712653 -0.01461038
v 0.25933698 1.0645659 -0.12349579
v -5.066395E-07 1.1272582 -0.12349579
v -5.066395E-07 1.1011522 -0.1341176
v 0.24321543 1.0423782 -0.1341176
v 0.41963196 0.84396267 -0.01461038
v 0.39069343 0.83456826 -0.003988564
v 0.3935259 0.8354888 -0.1341176
v 0.41963196 0.84396267 -0.12349579
v 0.41963196 0.5712653 -0.01461038
v 0.39069343 0.58068323 -0.003988564
v 0.3935259 0.57976276 -0.1341176
v 0.41963196 0.5712653 -0.12349579
v 0.25933698 0.350662 -0.01461038
v 0.24146873 0.37525737 -0.003988564
v -5.066395E-07 0.2879933 -0.01461038
v -5.066395E-07 0.31690824 -0.003988564
vt 0.03318971 0.49783507
vt 0.03318971 0.49250546
vt 0.028829118 0.49250546
vt 0.028829118 0.49783507
vt 0.037550304 0.49783507
vt 0.037550304 0.49250546
vt 0.041910898 0.49783507
vt 0.041910898 0.49250546
vt 0.046271488 0.49783507
vt 0.046271488 0.49250546
vt 0.0065416456 0.49783507
vt 0.0065416456 0.49250546
vt 0.0021810532 0.49250546
vt 0.0021810532 0.49783507
vt 0.010902238 0.49783507
vt 0.010902238 0.49250546
vt 0.015262831 0.49783507
vt 0.015262831 0.49250546
vt 0.019623423 0.49783507
vt 0.019623423 0.49250546
vt 0.023984015 0.49783507
vt 0.023984015 0.49250546
vt 0.009448707 0.48862937
vt 0.017200872 0.48862937
vt 0.017200872 0.48378426
vt 0.009448707 0.48378426
vt 0.024468526 0.48862937
vt 0.024468526 0.48378426
vt 0.03222069 0.48862937
vt 0.03222069 0.48378426
vt 0.035612263 0.48862937
vt 0.035612263 0.48378426
vt 0.03222069 0.48862937
vt 0.03222069 0.48378426
vt 0.009448707 0.48862937
vt 0.009448707 0.49056742
vt 0.0060571353 0.49056742
vt 0.0060571353 0.48862937
vt 0.009448707 0.48862937
vt 0.009448707 0.49056742
vt 0.009448707 0.48378426
vt 0.017200872 0.48378426
vt 0.017200872 0.48233074
vt 0.009448707 0.48233074
vt 0.017200872 0.49056742
vt 0.017200872 0.48862937
vt 0.024468526 0.48378426
vt 0.024468526 0.48233074
vt 0.024468526 0.49056742
vt 0.024468526 0.48862937
vt 0.03222069 0.48378426
vt 0.03222069 0.48233074
vt 0.03222069 0.49056742
vt 0.03222069 0.48862937
vt 0.035612263 0.48378426
vt 0.035612263 0.48233074
vt 0.03222069 0.48378426
vt 0.03222069 0.48233074
vt 0.009448707 0.48862937
vt 0.0060571353 0.48862937
vt 0.0060571353 0.48378426
vt 0.009448707 0.48378426
vt 0.017200872 0.48378426
vt 0.017200872 0.48862937
vt 0.024468526 0.48378426
vt 0.024468526 0.48862937
vt 0.009448707 0.48378426
vt 0.0060571353 0.48378426
vt 0.0060571353 0.48233074
vt 0.009448707 0.48233074
vt 0.017200872 0.48862937
vt 0.017200872 0.49056742
vt 0.017200872 0.48233074
vt 0.017200872 0.48378426
vt 0.024468526 0.48862937
vt 0.024468526 0.49056742
vt 0.024468526 0.48233074
vt 0.024468526 0.48378426
vt 0.03222069 0.48862937
vt 0.03222069 0.49056742
vt 0.035612263 0.48862937
vt 0.035612263 0.49056742
vn 0.9529339 0.003921509 0.30315277
vn 0.9529339 0.003921509 0.30315277
vn 0.5843093 0.003921509 0.8115216
vn 0.5843093 0.003921509 0.8115216
vn 0.9529339 0.003921509 -0.30315277
vn 0.9529339 0.003921509 -0.30315277
vn 0.5843093 0.003921509 -0.8115216
vn 0.5843093 0.003921509 -0.8115216
vn -0.003921509 0.003921509 -0.9999846
vn -0.003921509 0.003921509 -0.9999846
vn -0.5843092 0.003921509 -0.81152165
vn -0.5843092 0.003921509 -0.81152165
vn -0.003921509 0.003921509 -0.9999846
vn -0.003921509 0.003921509 -0.9999846
vn -0.9529338 0.003921509 -0.30315316
vn -0.9529338 0.003921509 -0.30315316
vn -0.9529338 0.003921509 0.30315316
vn -0.9529338 0.003921509 0.30315316
vn -0.5843092 0.003921509 0.81152165
vn -0.5843092 0.003921509 0.81152165
vn -0.003921509 0.003921509 0.9999846
vn -0.003921509 0.003921509 0.9999846
vn -0.5607799 0.82744455 -0.029349724
vn -0.9510054 0.30917454 -0
vn -0.9510054 0.30917454 -0
vn -0.5607799 0.82744455 -0.029349724
vn -0.9510053 -0.30917463 -0
vn -0.9510053 -0.30917463 -0
vn -0.5607799 -0.8274447 -0.029346678
vn -0.5607799 -0.8274447 -0.029346678
vn -0.003921509 -0.9999924 -0
vn -0.003921509 -0.9999924 -0
vn 0.56078005 -0.8274447 -0.029344646
vn 0.56078005 -0.8274447 -0.029344646
vn 0.18431234 0.27058613 0.94488734
vn 0.18431234 0.27842915 0.94260603
vn -0.003921509 0.34117377 0.9399921
vn -0.003921509 0.34117377 0.9399921
vn -0.18431222 0.27058613 0.94488734
vn -0.18431222 0.27842915 0.94260603
vn -0.20784152 0.2941153 -0.9328977
vn -0.34117377 0.11372459 -0.9330955
vn -0.34117377 0.11372459 -0.9330955
vn -0.19999838 0.30195844 -0.9321061
vn -0.30980146 0.098038435 0.9457333
vn -0.30980146 0.098038435 0.9457333
vn -0.34117377 -0.11372465 -0.93309546
vn -0.34117377 -0.11372465 -0.93309546
vn -0.30980146 -0.098038495 0.9457333
vn -0.30980146 -0.098038495 0.9457333
vn -0.20784152 -0.29411542 -0.9328976
vn -0.19999838 -0.3019585 -0.932106
vn -0.18431222 -0.27842927 0.94260603
vn -0.18431222 -0.2705862 0.94488734
vn -0.003921509 -0.38038927 -0.92481816
vn -0.003921509 -0.38038927 -0.92481816
vn 0.20784158 -0.29411542 -0.9328976
vn 0.1999985 -0.3019585 -0.932106
vn 0.56078005 0.82744455 -0.029347694
vn -0.003921509 0.99999225 -0.00034526698
vn -0.003921509 0.99999225 -0.00034526698
vn 0.56078005 0.82744455 -0.029347694
vn 0.9510054 0.3091745 -0
vn 0.9510054 0.3091745 -0
vn 0.9510053 -0.30917457 -0
vn 0.9510053 -0.30917457 -0
vn 0.20784158 0.2941153 -0.9328977
vn -0.003921509 0.3803892 -0.9248182
vn -0.003921509 0.3803892 -0.9248182
vn 0.1999985 0.30195844 -0.932106
vn 0.30980158 0.098038435 0.9457333
vn 0.30980158 0.098038435 0.9457333
vn 0.3411739 0.11372459 -0.93309546
vn 0.3411739 0.11372459 -0.93309546
vn 0.30980158 -0.098038495 0.9457333
vn 0.30980158 -0.098038495 0.9457333
vn 0.3411739 -0.11372465 -0.9330954
vn 0.3411739 -0.11372465 -0.9330954
vn 0.18431234 -0.2705862 0.9448873
vn 0.18431234 -0.27842927 0.942606
vn -0.003921509 -0.3411739 0.939992
vn -0.003921509 -0.3411739 0.939992
g CryoTurretMesh5_0
f 3/3/3 2/2/2 1/1/1
f 4/4/4 3/3/3 1/1/1
f 2/2/2 6/6/6 5/5/5
f 1/1/1 2/2/2 5/5/5
f 6/6/6 8/8/8 7/7/7
f 5/5/5 6/6/6 7/7/7
f 8/8/8 10/10/10 9/9/9
f 7/7/7 8/8/8 9/9/9
f 13/13/13 12/12/12 11/11/11
f 14/14/14 13/13/13 11/11/11
f 12/12/12 16/16/16 15/15/15
f 11/11/11 12/12/12 15/15/15
f 16/16/16 18/18/18 17/17/17
f 15/15/15 16/16/16 17/17/17
f 18/18/18 20/20/20 19/19/19
f 17/17/17 18/18/18 19/19/19
f 20/20/20 22/22/22 21/21/21
f 19/19/19 20/20/20 21/21/21
f 22/22/22 3/3/3 4/4/4
f 21/21/21 22/22/22 4/4/4
f 25/25/25 24/24/24 23/23/23
f 26/26/26 25/25/25 23/23/23
f 28/28/28 27/27/27 24/24/24
f 25/25/25 28/28/28 24/24/24
f 30/30/30 29/29/29 27/27/27
f 28/28/28 30/30/30 27/27/27
f 32/32/32 31/31/31 29/29/29
f 30/30/30 32/32/32 29/29/29
f 32/32/32 34/34/34 33/33/33
f 31/31/31 32/32/32 33/33/33
f 37/37/37 36/36/36 35/35/35
f 38/38/38 37/37/37 35/35/35
f 37/37/37 38/38/38 39/39/39
f 40/40/40 37/37/37 39/39/39
f 43/43/43 42/42/42 41/41/41
f 44/44/44 43/43/43 41/41/41
f 45/45/45 40/40/40 39/39/39
f 46/46/46 45/45/45 39/39/39
f 48/48/48 47/47/47 42/42/42
f 43/43/43 48/48/48 42/42/42
f 49/49/49 45/45/45 46/46/46
f 50/50/50 49/49/49 46/46/46
f 52/52/52 51/51/51 47/47/47
f 48/48/48 52/52/52 47/47/47
f 53/53/53 49/49/49 50/50/50
f 54/54/54 53/53/53 50/50/50
f 56/56/56 55/55/55 51/51/51
f 52/52/52 56/56/56 51/51/51
f 56/56/56 58/58/58 57/57/57
f 55/55/55 56/56/56 57/57/57
f 61/61/61 60/60/60 59/59/59
f 62/62/62 61/61/61 59/59/59
f 63/63/63 62/62/62 59/59/59
f 64/64/64 63/63/63 59/59/59
f 65/65/65 63/63/63 64/64/64
f 66/66/66 65/65/65 64/64/64
f 34/34/34 65/65/65 66/66/66
f 33/33/33 34/34/34 66/66/66
f 69/69/69 68/68/68 67/67/67
f 70/70/70 69/69/69 67/67/67
f 72/72/72 71/71/71 35/35/35
f 36/36/36 72/72/72 35/35/35
f 73/73/73 70/70/70 67/67/67
f 74/74/74 73/73/73 67/67/67
f 76/76/76 75/75/75 71/71/71
f 72/72/72 76/76/76 71/71/71
f 77/77/77 73/73/73 74/74/74
f 78/78/78 77/77/77 74/74/74
f 80/80/80 79/79/79 75/75/75
f 76/76/76 80/80/80 75/75/75
f 58/58/58 77/77/77 78/78/78
f 57/57/57 58/58/58 78/78/78
f 82/82/82 81/81/81 79/79/79
f 80/80/80 82/82/82 79/79/79
f 82/82/82 53/53/53 54/54/54
f 81/81/81 82/82/82 54/54/54
f 69/69/69 44/44/44 41/41/41
f 68/68/68 69/69/69 41/41/41
f 61/61/61 26/26/26 23/23/23
f 60/60/60 61/61/61 23/23/23
