g DartTurret_06
v -0.03867209 -0.2811862 0.31283092
v -0.025983632 -0.27350432 -0.3025789
v -0.037191153 0.2797721 -0.30692622
v -0.038309038 0.28106195 0.3126685
v -0.037191153 0.2797721 -0.30692622
v -0.025983632 -0.27350432 -0.3025789
v 0.18755142 -0.28112888 -0.31307936
v 0.18733168 0.28093773 -0.3128596
v 0.18755142 -0.28112888 -0.31307936
v -0.025983632 -0.27350432 -0.3025789
v -0.03867209 -0.2811862 0.31283092
v 0.18802916 -0.28143463 0.3130793
v 0.18802916 0.2814346 0.3130793
v -0.038309038 0.28106195 0.3126685
v -0.037191153 0.2797721 -0.30692622
v 0.18733168 0.28093773 -0.3128596
v -0.03867209 -0.2811862 0.31283092
v -0.038309038 0.28106195 0.3126685
v 0.18802916 0.2814346 0.3130793
v 0.18802916 -0.28143463 0.3130793
v 0.18802916 -0.28143463 0.3130793
v 0.18802916 0.2814346 0.3130793
v 0.18733168 0.28093773 -0.3128596
v 0.18755142 -0.28112888 -0.31307936
vt 0.43545437 0.9022262
vt 0.41750163 0.9022262
vt 0.41750163 0.8859565
vt 0.43545437 0.8859565
vt 0.44723588 0.9499132
vt 0.4309662 0.9499132
vt 0.4309662 0.943742
vt 0.44723588 0.943742
vt 0.4309662 0.943742
vt 0.4309662 0.9499132
vt 0.4118914 0.9499132
vt 0.4118914 0.943742
vt 0.39449966 0.943742
vt 0.39449966 0.9499132
vt 0.37598586 0.9499132
vt 0.37598586 0.943742
vt 0.4118914 0.9499132
vt 0.39449966 0.9499132
vt 0.39449966 0.943742
vt 0.4118914 0.943742
vt 0.37598586 0.8960549
vt 0.37598586 0.87978524
vt 0.39393863 0.87978524
vt 0.39393863 0.8960549
vn -0.99993086 -0.011763923 -0
vn -0.99993086 -0.011763923 -0
vn -0.99993086 -0.011763923 -0
vn -0.99993086 -0.011763923 -0
vn -0.035293818 -0.0039215684 -0.99936926
vn -0.035293818 -0.0039215684 -0.99936926
vn -0.035293818 -0.0039215684 -0.99936926
vn -0.035293818 -0.0039215684 -0.99936926
vn -0.019604046 -0.9998079 -0
vn -0.019604046 -0.9998079 -0
vn -0.019604046 -0.9998079 -0
vn -0.019604046 -0.9998079 -0
vn -0.003921509 0.99999225 -0.00034526698
vn -0.003921509 0.99999225 -0.00034526698
vn -0.003921509 0.99999225 -0.00034526698
vn -0.003921509 0.99999225 -0.00034526698
vn -0.003921509 0.003921509 0.9999846
vn -0.003921509 0.003921509 0.9999846
vn -0.003921509 0.003921509 0.9999846
vn -0.003921509 0.003921509 0.9999846
vn 0.9999924 0.003921509 -0
vn 0.9999924 0.003921509 -0
vn 0.9999924 0.003921509 -0
vn 0.9999924 0.003921509 -0
g DartTurret_06_0
f 3/3/3 2/2/2 1/1/1
f 4/4/4 3/3/3 1/1/1
f 7/7/7 6/6/6 5/5/5
f 8/8/8 7/7/7 5/5/5
f 11/11/11 10/10/10 9/9/9
f 12/12/12 11/11/11 9/9/9
f 15/15/15 14/14/14 13/13/13
f 16/16/16 15/15/15 13/13/13
f 19/19/19 18/18/18 17/17/17
f 20/20/20 19/19/19 17/17/17
f 23/23/23 22/22/22 21/21/21
f 24/24/24 23/23/23 21/21/21
