g DartTurret_09_CorpsePart
v -0.18162882 -0.3538187 -0.0957661
v -0.111528456 -0.3538187 -0.16586643
v -0.14068937 0.056317776 -0.21639615
v -0.232149 0.056317776 -0.12493652
v 0.029699773 -0.3567681 0.078828275
v 0.06265682 -0.35788125 0.045271844
v -0.010887653 -0.04018438 3.4570694E-06
v -0.010887653 -0.04018438 3.4570694E-06
v -0.09417462 -0.35788125 0.045271844
v -0.061036795 -0.35788125 0.07841918
v -0.015758902 -0.35779563 0.090559244
v -0.10630518 -0.35788125 3.4570694E-06
v -0.09417462 -0.35788125 -0.045274436
v -0.010887653 -0.04018438 3.4570694E-06
v 0.06265682 -0.35788125 -0.045274436
v 0.029518992 -0.35788125 -0.07842177
v -0.061036795 -0.35788125 -0.07842177
v -0.015758902 -0.35788125 -0.09055233
v 0.029518992 -0.35788125 -0.07842177
v 0.08001065 -0.3538187 -0.16587596
v -0.015758902 -0.3538187 -0.19153565
v -0.015758902 -0.35788125 -0.09055233
v -0.111528456 -0.3538187 -0.16586643
v -0.061036795 -0.35788125 -0.07842177
v 0.074796885 -0.35788125 3.4570694E-06
v 0.074796885 -0.35788125 3.4570694E-06
v 0.074796885 -0.35788125 3.4570694E-06
v 0.17577069 -0.3538187 3.4570694E-06
v 0.15011099 -0.3538187 -0.0957661
v 0.06265682 -0.35788125 -0.045274436
v 0.15011099 -0.3538187 0.095763505
v 0.06265682 -0.35788125 0.045271844
v 0.029699773 -0.3567681 0.078828275
v 0.08001065 -0.3538187 0.16587335
v 0.08001065 -0.3538187 0.16587335
v 0.10918106 0.056317776 0.21639353
v 0.20063119 0.056317776 0.1249339
v 0.15011099 -0.3538187 0.095763505
v -0.061036795 -0.35788125 0.07841918
v -0.111528456 -0.3538187 0.16587335
v -0.015758902 -0.3538187 0.19153303
v -0.015758902 -0.35779563 0.090559244
v 0.08001065 -0.3538187 -0.16587596
v 0.10918106 0.056317776 -0.21639615
v -0.015758902 0.056317776 -0.24986696
v -0.015758902 -0.3538187 -0.19153565
v 0.15011099 -0.3538187 -0.0957661
v 0.20063119 0.056317776 -0.12493652
v 0.17577069 -0.3538187 3.4570694E-06
v 0.23411152 0.056317776 3.4570694E-06
v -0.015758902 -0.3538187 0.19153303
v -0.015758902 0.056317776 0.24987388
v -0.111528456 -0.3538187 0.16587335
v -0.14068937 0.056317776 0.21639353
v -0.09417462 -0.35788125 0.045271844
v -0.18162882 -0.3538187 0.095763505
v -0.10630518 -0.35788125 3.4570694E-06
v -0.2072885 -0.3538187 3.4570694E-06
v -0.18162882 -0.3538187 0.095763505
v -0.232149 0.056317776 0.1249339
v -0.2072885 -0.3538187 3.4570694E-06
v -0.26562935 0.056317776 3.4570694E-06
v -0.26562935 0.056317776 3.4570694E-06
v -0.2072885 -0.3538187 3.4570694E-06
v -0.09417462 -0.35788125 -0.045274436
v -0.18162882 -0.3538187 -0.0957661
v -0.2072885 -0.3538187 3.4570694E-06
v -0.10630518 -0.35788125 3.4570694E-06
v 0.10918106 0.056317776 0.21639353
v 0.10918106 0.056317776 -0.21639615
v 0.20063119 0.056317776 -0.12493652
v 0.20063119 0.056317776 0.1249339
v -0.015758902 0.056317776 -0.24986696
v -0.015758902 0.056317776 0.24987388
v -0.14068937 0.056317776 0.21639353
v -0.14068937 0.056317776 -0.21639615
v -0.232149 0.056317776 0.1249339
v -0.232149 0.056317776 -0.12493652
v 0.23411152 0.056317776 3.4570694E-06
v -0.26562935 0.056317776 3.4570694E-06
vt 0.43948227 0.95473707
vt 0.43948227 0.95858216
vt 0.45156714 0.95858216
vt 0.45156714 0.95473707
vt 0.490019 0.99593544
vt 0.490019 0.9975834
vt 0.498808 0.99593544
vt 0.498808 0.98989296
vt 0.490019 0.9915409
vt 0.490019 0.99318886
vt 0.490019 0.9942875
vt 0.490019 0.9904423
vt 0.490019 0.9887943
vt 0.498808 0.9838506
vt 0.490019 0.9833013
vt 0.490019 0.98494923
vt 0.490019 0.9876957
vt 0.490019 0.98604786
vt 0.43673572 0.9662726
vt 0.43948227 0.9662726
vt 0.43948227 0.9624274
vt 0.43673572 0.9624274
vt 0.43948227 0.95858216
vt 0.43673572 0.95858216
vt 0.490019 0.98220265
vt 0.490019 0.998682
vt 0.43673572 0.9734136
vt 0.4400316 0.9734136
vt 0.43948227 0.9701178
vt 0.43673572 0.9701178
vt 0.4400316 0.9772588
vt 0.43673572 0.9772588
vt 0.43673572 0.981104
vt 0.43948227 0.981104
vt 0.43948227 0.981104
vt 0.45156714 0.981104
vt 0.45156714 0.9772588
vt 0.4400316 0.9772588
vt 0.43673572 0.9887943
vt 0.4400316 0.9887943
vt 0.4400316 0.98494923
vt 0.43673572 0.98494923
vt 0.43948227 0.9662726
vt 0.45156714 0.9662726
vt 0.45156714 0.9624274
vt 0.43948227 0.9624274
vt 0.43948227 0.9701178
vt 0.45156714 0.9701178
vt 0.4400316 0.9734136
vt 0.45156714 0.9734136
vt 0.4400316 0.98494923
vt 0.45156714 0.98494923
vt 0.4400316 0.9887943
vt 0.45156714 0.9887943
vt 0.43673572 0.99263954
vt 0.4400316 0.99263954
vt 0.43673572 0.99648476
vt 0.4400316 0.99648476
vt 0.4400316 0.99263954
vt 0.45156714 0.99263954
vt 0.4400316 0.99648476
vt 0.45156714 0.99648476
vt 0.45156714 0.95089185
vt 0.43948227 0.95089185
vt 0.43673572 0.95473707
vt 0.43948227 0.95473707
vt 0.43948227 0.95089185
vt 0.43673572 0.95089185
vt 0.45101783 0.9953861
vt 0.45101783 0.9953861
vt 0.45101783 0.9953861
vt 0.45101783 0.9953861
vt 0.45101783 0.9953861
vt 0.45101783 0.9953861
vt 0.45101783 0.9953861
vt 0.45101783 0.9953861
vt 0.45101783 0.9953861
vt 0.45101783 0.9953861
vt 0.45101783 0.9953861
vt 0.45101783 0.9953861
vn -0.8588183 -0.13724273 -0.49355403
vn -0.4980402 -0.13724273 -0.85622454
vn -0.4980402 -0.13724273 -0.85622454
vn -0.8588183 -0.13724273 -0.49355403
vn -0.48235428 -0.27057374 -0.83314115
vn -0.84313226 -0.26273072 -0.46914878
vn -0.003931284 -0.9999727 -0.0062578153
vn -0.003931284 -0.9999727 -0.0062578153
vn 0.8274267 -0.2862597 -0.48313606
vn 0.48233473 -0.27841675 -0.83056444
vn 0.011754751 -0.27057374 -0.96262753
vn 0.95836484 -0.28554675 -0
vn 0.8274267 -0.2862597 0.48313606
vn -0.003931284 -0.9999727 -0.0062578153
vn -0.83528924 -0.26273072 0.4829746
vn -0.48235428 -0.27057374 0.83314115
vn 0.48233473 -0.27841675 0.83056444
vn 0.0039117336 -0.27057374 0.9626913
vn 0.019594481 -0.99980795 -0
vn 0.019594481 -0.99980795 -0
vn 0.0039117336 -0.9999727 -0.006267333
vn 0.0039117336 -0.9999727 -0.006267333
vn -0.01961408 -0.9998076 -0
vn -0.01961408 -0.9998076 -0
vn -0.96512675 -0.26178315 -0
vn -0.96512675 -0.26178315 -0
vn 0.043087825 -0.99907124 -0
vn 0.043087825 -0.99907124 -0
vn 0.035262764 -0.9993781 -0
vn 0.035262764 -0.9993781 -0
vn 0.027431149 -0.99962366 -0
vn 0.027431149 -0.99962366 -0
vn 0.019594481 -0.99980795 -0
vn 0.019594481 -0.99980795 -0
vn 0.4980207 -0.13724273 0.85623586
vn 0.4980207 -0.13724273 0.85623586
vn 0.85879874 -0.13724273 0.493588
vn 0.85879874 -0.13724273 0.493588
vn -0.01961408 -0.9998076 -0
vn -0.01961408 -0.9998076 -0
vn 0.0039117336 -0.9999727 0.006267333
vn 0.0039117336 -0.9999727 0.006267333
vn 0.4980207 -0.13724273 -0.85623586
vn 0.4980207 -0.13724273 -0.85623586
vn 0.0039117336 -0.13724273 -0.9905297
vn 0.0039117336 -0.13724273 -0.9905297
vn 0.85879874 -0.13724273 -0.493588
vn 0.85879874 -0.13724273 -0.493588
vn 0.9905673 -0.13702661 -0
vn 0.9905673 -0.13702661 -0
vn 0.0039117336 -0.13724273 0.9905297
vn 0.0039117336 -0.13724273 0.9905297
vn -0.4980402 -0.13724273 0.85622454
vn -0.4980402 -0.13724273 0.85622454
vn -0.035282217 -0.99937737 -0
vn -0.035282217 -0.99937737 -0
vn -0.043107323 -0.9990704 -0
vn -0.043107323 -0.9990704 -0
vn -0.8588183 -0.13724273 0.49355403
vn -0.8588183 -0.13724273 0.49355403
vn -0.99056774 -0.13702397 -0
vn -0.99056774 -0.13702397 -0
vn -0.99056774 -0.13702397 -0
vn -0.99056774 -0.13702397 -0
vn -0.035282217 -0.99937737 -0
vn -0.035282217 -0.99937737 -0
vn -0.043107323 -0.9990704 -0
vn -0.043107323 -0.9990704 -0
vn 0.0039117336 0.99999225 -0.00042286396
vn 0.0039117336 0.99999225 -0.00042286396
vn 0.0039117336 0.99999225 -0.00042286396
vn 0.0039117336 0.99999225 -0.00042286396
vn 0.0039117336 0.99999225 -0.00042286396
vn 0.0039117336 0.99999225 -0.00042286396
vn 0.0039117336 0.99999225 -0.00042286396
vn 0.0039117336 0.99999225 -0.00042286396
vn 0.0039117336 0.99999225 -0.00042286396
vn 0.0039117336 0.99999225 -0.00042286396
vn 0.0039117336 0.99999225 -0.00042286396
vn 0.0039117336 0.99999225 -0.00042286396
g DartTurret_09_CorpsePart_0
f 3/3/3 2/2/2 1/1/1
f 4/4/4 3/3/3 1/1/1
f 7/7/7 6/6/6 5/5/5
f 10/10/10 9/9/9 8/8/8
f 7/7/7 11/11/11 10/10/10
f 9/9/9 12/12/12 8/8/8
f 8/8/8 12/12/12 13/13/13
f 16/16/16 15/15/15 14/14/14
f 13/13/13 17/17/17 8/8/8
f 16/16/16 14/14/14 18/18/18
f 21/21/21 20/20/20 19/19/19
f 22/22/22 21/21/21 19/19/19
f 24/24/24 23/23/23 21/21/21
f 22/22/22 24/24/24 21/21/21
f 14/14/14 17/17/17 18/18/18
f 14/14/14 15/15/15 25/25/25
f 26/26/26 6/6/6 7/7/7
f 29/29/29 28/28/28 27/27/27
f 30/30/30 29/29/29 27/27/27
f 33/33/33 32/32/32 31/31/31
f 34/34/34 33/33/33 31/31/31
f 31/31/31 32/32/32 27/27/27
f 28/28/28 31/31/31 27/27/27
f 37/37/37 36/36/36 35/35/35
f 38/38/38 37/37/37 35/35/35
f 5/5/5 11/11/11 7/7/7
f 41/41/41 40/40/40 39/39/39
f 42/42/42 41/41/41 39/39/39
f 34/34/34 41/41/41 42/42/42
f 33/33/33 34/34/34 42/42/42
f 45/45/45 44/44/44 43/43/43
f 46/46/46 45/45/45 43/43/43
f 3/3/3 45/45/45 46/46/46
f 2/2/2 3/3/3 46/46/46
f 44/44/44 48/48/48 47/47/47
f 43/43/43 44/44/44 47/47/47
f 48/48/48 50/50/50 49/49/49
f 47/47/47 48/48/48 49/49/49
f 19/19/19 20/20/20 29/29/29
f 30/30/30 19/19/19 29/29/29
f 50/50/50 37/37/37 38/38/38
f 49/49/49 50/50/50 38/38/38
f 36/36/36 52/52/52 51/51/51
f 35/35/35 36/36/36 51/51/51
f 52/52/52 54/54/54 53/53/53
f 51/51/51 52/52/52 53/53/53
f 56/56/56 55/55/55 39/39/39
f 40/40/40 56/56/56 39/39/39
f 58/58/58 57/57/57 55/55/55
f 56/56/56 58/58/58 55/55/55
f 54/54/54 60/60/60 59/59/59
f 53/53/53 54/54/54 59/59/59
f 60/60/60 62/62/62 61/61/61
f 59/59/59 60/60/60 61/61/61
f 63/63/63 4/4/4 1/1/1
f 64/64/64 63/63/63 1/1/1
f 67/67/67 66/66/66 65/65/65
f 68/68/68 67/67/67 65/65/65
f 23/23/23 24/24/24 65/65/65
f 66/66/66 23/23/23 65/65/65
f 71/71/71 70/70/70 69/69/69
f 72/72/72 71/71/71 69/69/69
f 75/75/75 74/74/74 73/73/73
f 76/76/76 75/75/75 73/73/73
f 77/77/77 75/75/75 76/76/76
f 78/78/78 77/77/77 76/76/76
f 74/74/74 69/69/69 70/70/70
f 73/73/73 74/74/74 70/70/70
f 71/71/71 72/72/72 79/79/79
f 77/77/77 78/78/78 80/80/80
