g DashFXmesh
v 0.21038413 0.071555495 0.038903236
v 0.41557705 0.14132535 0.15458155
v 0.35355175 0.26879466 0.15458155
v 0.17898774 0.13609254 0.038903236
v 0.25685084 0.3699609 0.15458155
v 0.1300093 0.18730354 0.038903236
v 0.13503277 0.4349165 0.15458155
v 0.06833291 0.22016513 0.038903236
v 2.8252602E-05 0.45731258 0.15458155
v 2.8252602E-05 0.23146784 0.038903236
v -0.135046 0.4349165 0.15458155
v -0.06834614 0.22016513 0.038903236
v -0.25686407 0.3699609 0.15458155
v -0.13002264 0.18730354 0.038903236
v -0.35356498 0.26879466 0.15458155
v -0.17900097 0.13609254 0.038903236
v -0.4155903 0.14132535 0.15458155
v -0.21039736 0.071555495 0.038903236
v -0.43700957 -2.8252602E-05 0.15458155
v -0.22121167 -2.8252602E-05 0.038903236
v 0.22119844 -2.8252602E-05 0.038903236
v 0.4369964 -2.8252602E-05 0.15458155
v 0.6105836 0.20760655 0.34421587
v 0.51939446 0.39486873 0.34421587
v 0.37734318 0.54347837 0.34421587
v 0.19838369 0.6389234 0.34421587
v 2.8252602E-05 0.6717849 0.34421587
v -0.19839704 0.6389234 0.34421587
v -0.37735653 0.54347837 0.34421587
v -0.51940775 0.39486873 0.34421587
v -0.6105969 0.20760655 0.34421587
v -0.6419933 -2.8252602E-05 0.34421587
v 0.64198 -2.8252602E-05 0.34421587
v 0.79051983 0.26879466 0.60320115
v 0.6724694 0.51124465 0.60320115
v 0.48855627 0.7036698 0.60320115
v 0.25685084 0.8272319 0.60320115
v 2.8252602E-05 0.8697915 0.60320115
v -0.25686407 0.8272319 0.60320115
v -0.4885695 0.7036698 0.60320115
v -0.6724827 0.51124465 0.60320115
v -0.79053307 0.26879466 0.60320115
v -0.83120894 -2.8252602E-05 0.60320115
v 0.8311956 -2.8252602E-05 0.60320115
v 0.9509903 0.32335472 0.9250493
v 0.80893904 0.615062 0.9250493
v 0.58776885 0.84655833 0.9250493
v 0.30896878 0.99516773 0.9250493
v 2.8252602E-05 1.0463789 0.9250493
v -0.30898213 0.99516773 0.9250493
v -0.58778214 0.84655833 0.9250493
v -0.80895233 0.615062 0.9250493
v -0.95100355 0.32335472 0.9250493
v -0.99991226 -2.8252602E-05 0.9250493
v 0.9999687 -2.8252602E-05 0.9250493
v 1.0880879 0.3699609 1.3018758
v 0.92552435 0.7036698 1.3018758
v 0.6724694 0.9685159 1.3018758
v 0.35355175 1.1386144 1.3018758
v 2.8252602E-05 1.1971514 1.3018758
v -0.35356498 1.1386144 1.3018758
v -0.6724827 0.9685159 1.3018758
v -0.9255376 0.7036698 1.3018758
v -1.0880315 0.3699609 1.3018758
v -1.1440566 -2.8252602E-05 1.3018758
v 1.1440433 -2.8252602E-05 1.3018758
v 1.1983242 0.4074272 1.7244015
v 1.0193647 0.77497435 1.7244015
v 0.74063444 1.0666819 1.7244015
v 0.38934362 1.2539439 1.7244015
v 2.8252602E-05 1.318481 1.7244015
v -0.38935685 1.2539439 1.7244015
v -0.74057794 1.0666819 1.7244015
v -1.019378 0.77497435 1.7244015
v -1.1983376 0.4074272 1.7244015
v -1.2600138 -2.8252602E-05 1.7244015
v 1.2600007 -2.8252602E-05 1.7244015
v 1.3449105 0.45731258 3.1582403
v 1.1440433 0.8697915 3.1582403
v 0.8311956 1.1971514 3.1582403
v 0.4369964 1.4073677 3.1582403
v 2.8252602E-05 1.4797888 3.1582403
v -0.43700957 1.4073677 3.1582403
v -0.83120894 1.1971514 3.1582403
v -1.1440566 0.8697915 3.1582403
v -1.3449237 0.45731258 3.1582403
v -1.4141355 -2.8252602E-05 3.1582403
v 1.4141221 -2.8252602E-05 3.1582403
v 2.8252602E-05 -2.8252602E-05 -2.8252602E-05
vt 0.43824127 0.053576607
vt 0.3538931 0.10641007
vt 0.3779926 0.1499745
vt 0.450291 0.07582228
vt 0.4169225 0.1851968
vt 0.47068286 0.093433425
vt 0.46790215 0.20836936
vt 0.49663615 0.10455626
vt 0.5244432 0.21671149
vt 0.5253701 0.10919078
vt 0.5819112 0.20929627
vt 0.555031 0.10548316
vt 0.63196397 0.1870506
vt 0.5800574 0.09436034
vt 0.67182076 0.1527552
vt 0.60044926 0.07767608
vt 0.6949933 0.110117674
vt 0.6134259 0.055430416
vt 0.70148164 0.06284563
vt 0.6171335 0.032257844
vt 0.43360674 0.029477138
vt 0.3464779 0.059138026
vt 0.27788708 0.17407396
vt 0.3121825 0.23803025
vt 0.36779666 0.2899368
vt 0.44102198 0.32423222
vt 0.5235163 0.33628196
vt 0.60508376 0.32515913
vt 0.6783091 0.29271755
vt 0.73392326 0.24173787
vt 0.7672917 0.17963538
vt 0.7756339 0.11197148
vt 0.26954496 0.10641007
vt 0.2157846 0.2519338
vt 0.2565683 0.33257434
vt 0.32608604 0.39931136
vt 0.4178494 0.44380268
vt 0.52166253 0.45956004
vt 0.62454873 0.44565648
vt 0.7153852 0.40301895
vt 0.78490293 0.33813578
vt 0.8247597 0.25842214
vt 0.8340287 0.17222016
vt 0.20651557 0.16573183
vt 0.16758564 0.33442816
vt 0.21393079 0.42989916
vt 0.29364443 0.507759
vt 0.39931136 0.5605924
vt 0.5188818 0.5791305
vt 0.6384523 0.56244624
vt 0.74319226 0.51146656
vt 0.821979 0.43453366
vt 0.86739725 0.34091648
vt 0.87666625 0.24173787
vt 0.15831661 0.23432264
vt 0.13514405 0.4169225
vt 0.1851968 0.52258945
vt 0.27139878 0.60971826
vt 0.38633472 0.66718626
vt 0.51610106 0.688505
vt 0.64586747 0.6690401
vt 0.75987655 0.612499
vt 0.84607846 0.52722394
vt 0.89427745 0.42341083
vt 0.90447336 0.3140363
vt 0.12587503 0.30662107
vt 0.117532894 0.49570924
vt 0.16851255 0.6069376
vt 0.25842214 0.6996279
vt 0.3779926 0.7608034
vt 0.5133204 0.7830491
vt 0.6486482 0.7626572
vt 0.7672917 0.70240855
vt 0.8562744 0.612499
vt 0.90725404 0.50219756
vt 0.9165231 0.38633472
vt 0.108263865 0.37891948
vt 0.13514405 0.688505
vt 0.183343 0.7978795
vt 0.26769117 0.88778913
vt 0.37891948 0.9471109
vt 0.50590515 0.9684296
vt 0.6328908 0.9480378
vt 0.7450461 0.8896429
vt 0.8284673 0.80158716
vt 0.87666625 0.6940664
vt 0.8868622 0.5800574
vt 0.124948114 0.57356906
vt 0.52629703 0.02020811
vn 0.3939975 0.1254322 -0.9105123
vn 0.58781445 0.17970091 -0.788785
vn 0.502535 0.35025984 -0.7904281
vn 0.3397287 0.23396963 -0.910957
vn 0.3707394 0.4820555 -0.7938355
vn 0.24669653 0.3192492 -0.91499764
vn 0.19242775 0.5750876 -0.79513884
vn 0.13040632 0.3812706 -0.9152196
vn -0.0013892651 0.5983457 -0.80123687
vn -0.0013892651 0.39677602 -0.9179144
vn -0.19520622 0.5750876 -0.79446125
vn -0.13318485 0.3812706 -0.91481936
vn -0.36576527 0.4820555 -0.7961396
vn -0.24947506 0.3192492 -0.914244
vn -0.50531346 0.35025984 -0.7886548
vn -0.33475453 0.23396963 -0.91279656
vn -0.59059304 0.17970091 -0.7867067
vn -0.39677602 0.1254322 -0.909305
vn -0.613851 0.09442145 -0.78375477
vn -0.41228133 0.0634107 -0.90884715
vn 0.41725552 0.0634107 -0.90657425
vn 0.6188252 0.09442145 -0.7798333
vn 0.72736275 0.22621697 -0.6478961
vn 0.62657785 0.43553942 -0.64630145
vn 0.45601892 0.5983457 -0.6588089
vn 0.23894387 0.7146359 -0.6574203
vn -0.0013892651 0.7533993 -0.65756184
vn -0.2417224 0.7146359 -0.6564037
vn -0.4587974 0.5983457 -0.656877
vn -0.62160367 0.43553942 -0.651087
vn -0.7301412 0.22621697 -0.6447633
vn -0.76115197 0.11767942 -0.63780814
vn 0.7583735 0.11767942 -0.64110935
vn 0.8203949 0.25722772 -0.5106723
vn 0.70410466 0.48980814 -0.5141251
vn 0.51804036 0.6758725 -0.5242428
vn 0.26995456 0.7999154 -0.53596634
vn -0.0013892651 0.84643143 -0.5324959
vn -0.27273303 0.7999154 -0.5345578
vn -0.51306623 0.6758725 -0.52911186
vn -0.6991305 0.48980814 -0.520869
vn -0.8154207 0.25722772 -0.5185779
vn -0.84643143 0.1254322 -0.5175139
vn 0.8514056 0.1254322 -0.5092889
vn 0.87466365 0.27273303 -0.40072456
vn 0.7506208 0.5208189 -0.40659088
vn 0.54905105 0.72238857 -0.4203543
vn 0.2932126 0.86193687 -0.4136317
vn -0.0013892651 0.9084529 -0.41798487
vn -0.29599112 0.86193687 -0.41164804
vn -0.55182964 0.72238857 -0.41669992
vn -0.7533993 0.5208189 -0.40141898
vn -0.8774422 0.27273303 -0.3946035
vn -0.9084529 0.1409375 -0.3935097
vn 0.9056744 0.1409375 -0.39986312
vn 0.9056744 0.2804858 -0.31793335
vn 0.78163147 0.54407686 -0.3050125
vn 0.57230914 0.7533993 -0.32380816
vn 0.30871797 0.9007003 -0.3056669
vn -0.0013892651 0.94721633 -0.32059216
vn -0.30374378 0.9007003 -0.3106102
vn -0.5750876 0.7533993 -0.31884748
vn -0.78441006 0.54407686 -0.29779387
vn -0.9084529 0.2804858 -0.30990475
vn -0.9394637 0.1409375 -0.3123213
vn 0.9444378 0.1409375 -0.29694083
vn 0.9444378 0.29599112 -0.14292127
vn 0.8126422 0.56733495 -0.13320528
vn 0.59556717 0.78441006 -0.1732069
vn 0.31647068 0.9394637 -0.1313556
vn -0.0013892651 0.98597974 -0.16685936
vn -0.3192492 0.9394637 -0.12445043
vn -0.5983457 0.78441006 -0.16335015
vn -0.8154207 0.56733495 -0.11497883
vn -0.94721633 0.29599112 -0.12316855
vn -0.9782271 0.14869016 -0.1447862
vn 0.97544855 0.14869016 -0.16245416
vn 0.95219046 0.29599112 -0.07564761
vn 0.8126422 0.56733495 -0.13320528
vn 0.6033199 0.7921627 -0.092105106
vn 0.31647068 0.9394637 -0.1313556
vn -0.0013892651 0.9937324 -0.11177669
vn -0.3192492 0.9394637 -0.12445043
vn -0.5983457 0.7921627 -0.12025258
vn -0.8154207 0.56733495 -0.11497883
vn -0.94721633 0.29599112 -0.12316855
vn -0.98597974 0.14869016 -0.07573102
vn 0.9832012 0.14869016 -0.10586121
vn -0.0013892651 0.10992676 -0.99393874
g DashFXmesh_0
f 3/3/3 2/2/2 1/1/1
f 4/4/4 3/3/3 1/1/1
f 5/5/5 3/3/3 4/4/4
f 6/6/6 5/5/5 4/4/4
f 7/7/7 5/5/5 6/6/6
f 8/8/8 7/7/7 6/6/6
f 9/9/9 7/7/7 8/8/8
f 10/10/10 9/9/9 8/8/8
f 11/11/11 9/9/9 10/10/10
f 12/12/12 11/11/11 10/10/10
f 13/13/13 11/11/11 12/12/12
f 14/14/14 13/13/13 12/12/12
f 15/15/15 13/13/13 14/14/14
f 16/16/16 15/15/15 14/14/14
f 17/17/17 15/15/15 16/16/16
f 18/18/18 17/17/17 16/16/16
f 19/19/19 17/17/17 18/18/18
f 20/20/20 19/19/19 18/18/18
f 2/2/2 22/22/22 21/21/21
f 1/1/1 2/2/2 21/21/21
f 24/24/24 23/23/23 2/2/2
f 3/3/3 24/24/24 2/2/2
f 25/25/25 24/24/24 3/3/3
f 5/5/5 25/25/25 3/3/3
f 26/26/26 25/25/25 5/5/5
f 7/7/7 26/26/26 5/5/5
f 27/27/27 26/26/26 7/7/7
f 9/9/9 27/27/27 7/7/7
f 28/28/28 27/27/27 9/9/9
f 11/11/11 28/28/28 9/9/9
f 29/29/29 28/28/28 11/11/11
f 13/13/13 29/29/29 11/11/11
f 30/30/30 29/29/29 13/13/13
f 15/15/15 30/30/30 13/13/13
f 31/31/31 30/30/30 15/15/15
f 17/17/17 31/31/31 15/15/15
f 32/32/32 31/31/31 17/17/17
f 19/19/19 32/32/32 17/17/17
f 23/23/23 33/33/33 22/22/22
f 2/2/2 23/23/23 22/22/22
f 35/35/35 34/34/34 23/23/23
f 24/24/24 35/35/35 23/23/23
f 36/36/36 35/35/35 24/24/24
f 25/25/25 36/36/36 24/24/24
f 37/37/37 36/36/36 25/25/25
f 26/26/26 37/37/37 25/25/25
f 38/38/38 37/37/37 26/26/26
f 27/27/27 38/38/38 26/26/26
f 39/39/39 38/38/38 27/27/27
f 28/28/28 39/39/39 27/27/27
f 40/40/40 39/39/39 28/28/28
f 29/29/29 40/40/40 28/28/28
f 41/41/41 40/40/40 29/29/29
f 30/30/30 41/41/41 29/29/29
f 42/42/42 41/41/41 30/30/30
f 31/31/31 42/42/42 30/30/30
f 43/43/43 42/42/42 31/31/31
f 32/32/32 43/43/43 31/31/31
f 34/34/34 44/44/44 33/33/33
f 23/23/23 34/34/34 33/33/33
f 46/46/46 45/45/45 34/34/34
f 35/35/35 46/46/46 34/34/34
f 47/47/47 46/46/46 35/35/35
f 36/36/36 47/47/47 35/35/35
f 48/48/48 47/47/47 36/36/36
f 37/37/37 48/48/48 36/36/36
f 49/49/49 48/48/48 37/37/37
f 38/38/38 49/49/49 37/37/37
f 50/50/50 49/49/49 38/38/38
f 39/39/39 50/50/50 38/38/38
f 51/51/51 50/50/50 39/39/39
f 40/40/40 51/51/51 39/39/39
f 52/52/52 51/51/51 40/40/40
f 41/41/41 52/52/52 40/40/40
f 53/53/53 52/52/52 41/41/41
f 42/42/42 53/53/53 41/41/41
f 54/54/54 53/53/53 42/42/42
f 43/43/43 54/54/54 42/42/42
f 45/45/45 55/55/55 44/44/44
f 34/34/34 45/45/45 44/44/44
f 57/57/57 56/56/56 45/45/45
f 46/46/46 57/57/57 45/45/45
f 58/58/58 57/57/57 46/46/46
f 47/47/47 58/58/58 46/46/46
f 59/59/59 58/58/58 47/47/47
f 48/48/48 59/59/59 47/47/47
f 60/60/60 59/59/59 48/48/48
f 49/49/49 60/60/60 48/48/48
f 61/61/61 60/60/60 49/49/49
f 50/50/50 61/61/61 49/49/49
f 62/62/62 61/61/61 50/50/50
f 51/51/51 62/62/62 50/50/50
f 63/63/63 62/62/62 51/51/51
f 52/52/52 63/63/63 51/51/51
f 64/64/64 63/63/63 52/52/52
f 53/53/53 64/64/64 52/52/52
f 65/65/65 64/64/64 53/53/53
f 54/54/54 65/65/65 53/53/53
f 56/56/56 66/66/66 55/55/55
f 45/45/45 56/56/56 55/55/55
f 68/68/68 67/67/67 56/56/56
f 57/57/57 68/68/68 56/56/56
f 69/69/69 68/68/68 57/57/57
f 58/58/58 69/69/69 57/57/57
f 70/70/70 69/69/69 58/58/58
f 59/59/59 70/70/70 58/58/58
f 71/71/71 70/70/70 59/59/59
f 60/60/60 71/71/71 59/59/59
f 72/72/72 71/71/71 60/60/60
f 61/61/61 72/72/72 60/60/60
f 73/73/73 72/72/72 61/61/61
f 62/62/62 73/73/73 61/61/61
f 74/74/74 73/73/73 62/62/62
f 63/63/63 74/74/74 62/62/62
f 75/75/75 74/74/74 63/63/63
f 64/64/64 75/75/75 63/63/63
f 76/76/76 75/75/75 64/64/64
f 65/65/65 76/76/76 64/64/64
f 67/67/67 77/77/77 66/66/66
f 56/56/56 67/67/67 66/66/66
f 78/78/78 67/67/67 68/68/68
f 79/79/79 78/78/78 68/68/68
f 79/79/79 68/68/68 69/69/69
f 80/80/80 79/79/79 69/69/69
f 80/80/80 69/69/69 70/70/70
f 81/81/81 80/80/80 70/70/70
f 81/81/81 70/70/70 71/71/71
f 82/82/82 81/81/81 71/71/71
f 82/82/82 71/71/71 72/72/72
f 83/83/83 82/82/82 72/72/72
f 83/83/83 72/72/72 73/73/73
f 84/84/84 83/83/83 73/73/73
f 84/84/84 73/73/73 74/74/74
f 85/85/85 84/84/84 74/74/74
f 85/85/85 74/74/74 75/75/75
f 86/86/86 85/85/85 75/75/75
f 86/86/86 75/75/75 76/76/76
f 87/87/87 86/86/86 76/76/76
f 88/88/88 77/77/77 67/67/67
f 78/78/78 88/88/88 67/67/67
f 1/1/1 89/89/89 4/4/4
f 4/4/4 89/89/89 6/6/6
f 6/6/6 89/89/89 8/8/8
f 8/8/8 89/89/89 10/10/10
f 10/10/10 89/89/89 12/12/12
f 12/12/12 89/89/89 14/14/14
f 14/14/14 89/89/89 16/16/16
f 16/16/16 89/89/89 18/18/18
f 18/18/18 89/89/89 20/20/20
f 21/21/21 89/89/89 1/1/1
