g Desert_rock_1
v 1.2500209 1.9999893 -0.23971379
v 1.0000244 1.9999893 -1.2500209
v 1.2500209 1.9999893 -1.0000244
v 0.8645655 1.9999893 1.2499998
v -1.2499998 1.9999893 1.2499998
v -0.68551326 1.9999893 -1.2500209
v -1.2499998 1.9999893 -0.52999085
v 1.2500209 1.7285347E-05 1.2499998
v 0.8645655 1.9999893 1.2499998
v 1.2500209 1.7344272 1.2499998
v -1.2499998 1.9999893 1.2499998
v -1.2499998 1.7285347E-05 1.2499998
v 1.2500209 1.7285347E-05 1.2499998
v 1.2512482 0.8834014 -1.2483472
v 1.2500209 1.7285347E-05 -1.0000244
v 1.2500209 1.9999893 -1.0000244
v 1.2500209 1.9999893 -0.23971379
v 1.2500209 1.7344272 1.2499998
v -1.2499998 1.7285347E-05 -1.2500209
v -0.68551326 1.9999893 -1.2500209
v -1.2499998 1.7593098 -1.2500209
v 1.0000244 1.9999893 -1.2500209
v 1.2512482 0.8834014 -1.2483472
v 1.0000244 1.7285347E-05 -1.2500209
v -1.2499998 1.7285347E-05 -1.2500209
v -1.2499998 1.9999893 1.2499998
v -1.2499998 1.7285347E-05 1.2499998
v -1.2499998 1.9999893 -0.52999085
v -1.2499998 1.7593098 -1.2500209
v -0.68551326 1.9999893 -1.2500209
v -1.2499998 1.9999893 -0.52999085
v -1.2499998 1.7593098 -1.2500209
v 0.8645655 1.9999893 1.2499998
v 1.2500209 1.9999893 -0.23971379
v 1.2500209 1.7344272 1.2499998
v -1.2058697 2.1858826 1.2189245
v -0.28945756 2.063925 0.6404903
v -0.29631984 2.133886 1.3696141
v -1.3262651 2.114973 0.38446856
v -0.48623013 2.0597966 0.39004755
v -0.17955065 0.960727 1.4378457
v -0.28945756 2.063925 0.6404903
v -0.17943907 0.95966697 0.6364734
v -0.29631984 2.133886 1.3696141
v -0.48561645 0.95687723 0.386477
v -1.3262651 2.114973 0.38446856
v -1.4720452 0.9612291 0.386477
v -0.48623013 2.0597966 0.39004755
v -1.4720452 0.9612291 1.1423802
v -1.3226945 2.1188226 1.3642025
v -1.429533 1.3013825 1.4177613
v -1.3262651 2.114973 0.38446856
v -1.4720452 0.9612291 0.386477
v 1.3421307 0.0029184818 -1.3536793
v 1.3732059 0.92954016 -0.53333825
v 1.2916963 0.96418595 -1.2948763
v 1.4703369 0.0025837421 -0.39408553
v 0.011252284 1.7285347E-05 -1.1279516
v 0.2529918 0.7907338 -1.3701375
v 0.011252284 1.0458071 -1.1279516
v 0.2529918 0.0032532215 -1.4665432
v -0.37939155 1.4555314 -1.2275932
v 0.6676256 1.6511881 -1.4182845
v -0.27238572 1.6511881 -1.4182845
v 0.7884117 1.4555314 -1.2275932
v -0.37939155 1.9969208 -1.2275932
v 0.6676256 1.9964187 -1.444785
v 0.7884117 1.9969208 -1.2275932
v -0.27238572 1.9964187 -1.444785
v 0.7884117 1.4555314 -1.2275932
v 0.6676256 1.9964187 -1.444785
v 0.6676256 1.6511881 -1.4182845
v 0.7884117 1.9969208 -1.2275932
v 0.6676256 1.6511881 -1.4182845
v -0.27238572 1.9964187 -1.444785
v -0.27238572 1.6511881 -1.4182845
v 0.6676256 1.9964187 -1.444785
v -0.27238572 1.6511881 -1.4182845
v -0.37939155 1.9969208 -1.2275932
v -0.37939155 1.4555314 -1.2275932
v -0.27238572 1.9964187 -1.444785
v 1.3732059 0.92954016 -0.53333825
v 1.0269153 1.2199287 -1.0548663
v 1.2916963 0.96418595 -1.2948763
v 1.0912416 1.1845019 -0.30370522
v 1.4703369 0.0025837421 -0.39408553
v 1.0912416 1.1845019 -0.30370522
v 1.3732059 0.92954016 -0.53333825
v 1.0912416 1.7285347E-05 -0.16445255
v 0.2529918 0.0032532215 -1.4665432
v 1.2916963 0.96418595 -1.2948763
v 0.2529918 0.7907338 -1.3701375
v 1.3421307 0.0029184818 -1.3536793
v 1.2916963 0.96418595 -1.2948763
v 0.011252284 1.0458071 -1.1279516
v 0.2529918 0.7907338 -1.3701375
v 1.0269153 1.2199287 -1.0548663
v -0.17943907 0.95966697 0.6364734
v -0.48623013 2.0597966 0.39004755
v -0.48561645 0.95687723 0.386477
v -0.48623013 2.0597966 0.39004755
v -0.17943907 0.95966697 0.6364734
v -0.28945756 2.063925 0.6404903
v -1.1293812 0.9578817 1.4378457
v -0.29631984 2.133886 1.3696141
v -0.17955065 0.960727 1.4378457
v -1.3226945 2.1188226 1.3642025
v -1.429533 1.3013825 1.4177613
v -1.1293812 0.9578817 1.4378457
v -1.4720452 0.9612291 1.1423802
v -1.429533 1.3013825 1.4177613
v 1.2512482 0.8834014 -1.2483472
v 1.2500209 1.9999893 -1.0000244
v 1.0000244 1.9999893 -1.2500209
v -1.2058697 2.1858826 1.2189245
v -0.29631984 2.133886 1.3696141
v -1.3226945 2.1188226 1.3642025
v -1.2058697 2.1858826 1.2189245
v -1.3226945 2.1188226 1.3642025
v -1.3262651 2.114973 0.38446856
vt 0.2048299 0.85739344
vt 0.20220566 0.8670157
vt 0.2048299 0.86439145
vt 0.2013309 0.8416479
vt 0.17946216 0.8416479
vt 0.18558541 0.8670157
vt 0.17946216 0.8600177
vt 0.20745416 0.8197792
vt 0.20395516 0.83989847
vt 0.20745416 0.83639944
vt 0.18208641 0.83989847
vt 0.18208641 0.8197792
vt 0.10423366 0.8197792
vt 0.1296014 0.8285267
vt 0.12697716 0.8197792
vt 0.12697716 0.83989847
vt 0.11910441 0.83989847
vt 0.10423366 0.83639944
vt 0.15496916 0.8197792
vt 0.14884591 0.83989847
vt 0.15496916 0.8372742
vt 0.13222566 0.83989847
vt 0.1296014 0.8285267
vt 0.13222566 0.8197792
vt 0.15584391 0.8197792
vt 0.18033691 0.83989847
vt 0.18033691 0.8197792
vt 0.16284192 0.83989847
vt 0.15584391 0.8372742
vt 0.18471065 0.8678904
vt 0.1785874 0.8608924
vt 0.1785874 0.8678904
vt 0.20220566 0.8416479
vt 0.20657942 0.8565187
vt 0.20657942 0.8416479
vt 0.17333892 0.97548467
vt 0.16721566 0.98510695
vt 0.1750884 0.98510695
vt 0.16546616 0.97461
vt 0.16546616 0.9824827
vt 0.1383489 0.9737352
vt 0.14709641 0.98510695
vt 0.14709641 0.9737352
vt 0.13922366 0.98510695
vt 0.15234491 0.9737352
vt 0.16021766 0.98510695
vt 0.16196716 0.9737352
vt 0.15234491 0.98510695
vt 0.12085391 0.9737352
vt 0.12347816 0.98510695
vt 0.12435291 0.9772342
vt 0.113855906 0.98510695
vt 0.113855906 0.9737352
vt 0.20657942 0.97461
vt 0.19870666 0.9833574
vt 0.20657942 0.9842322
vt 0.19783191 0.97461
vt 0.22407441 0.97461
vt 0.2205754 0.9824827
vt 0.22407441 0.98510695
vt 0.21970066 0.97461
vt 0.109482154 0.95711493
vt 0.09723566 0.9597392
vt 0.108607404 0.9597392
vt 0.09548616 0.95711493
vt 0.109482154 0.9667372
vt 0.09723566 0.96411294
vt 0.09548616 0.9667372
vt 0.108607404 0.96411294
vt 0.09461141 0.9579897
vt 0.09723566 0.96411294
vt 0.09723566 0.9597392
vt 0.09461141 0.96411294
vt 0.09723566 0.9597392
vt 0.108607404 0.96411294
vt 0.108607404 0.9597392
vt 0.09723566 0.96411294
vt 0.108607404 0.9597392
vt 0.110356905 0.96411294
vt 0.110356905 0.9579897
vt 0.108607404 0.96411294
vt 0.19783191 0.98510695
vt 0.20308042 0.9894807
vt 0.2048299 0.9859817
vt 0.19520766 0.9886059
vt 0.19608241 0.97461
vt 0.19258341 0.9859817
vt 0.19608241 0.9833574
vt 0.19170865 0.97461
vt 0.2188259 0.97461
vt 0.2083289 0.9842322
vt 0.2188259 0.9824827
vt 0.2083289 0.97461
vt 0.20920366 0.98510695
vt 0.22232491 0.9877312
vt 0.21970066 0.9833574
vt 0.2118279 0.9894807
vt 0.14797115 0.9737352
vt 0.15059541 0.98510695
vt 0.15059541 0.9737352
vt 0.15059541 0.98510695
vt 0.14797115 0.9737352
vt 0.14884591 0.98510695
vt 0.1278519 0.9737352
vt 0.1365994 0.98510695
vt 0.13747415 0.9737352
vt 0.1261024 0.98510695
vt 0.12522766 0.9772342
vt 0.1278519 0.9737352
vt 0.12435291 0.9737352
vt 0.12435291 0.9772342
vt 0.1296014 0.82940143
vt 0.1278519 0.83989847
vt 0.1313509 0.83989847
vt 0.17333892 0.97548467
vt 0.1750884 0.98510695
vt 0.1750884 0.97461
vt 0.17333892 0.97548467
vt 0.1750884 0.97461
vt 0.16546616 0.97461
vn -0.003921509 0.99999225 -0.00034526698
vn -0.003921509 0.99999225 -0.00034526698
vn -0.003921509 0.99999225 -0.00034526698
vn -0.003921509 0.99999225 -0.00034526698
vn -0.003921509 0.99999225 -0.00034526698
vn -0.003921509 0.99999225 -0.00034526698
vn -0.003921509 0.99999225 -0.00034526698
vn -0.003921509 0.003921509 0.9999846
vn -0.003921509 0.003921509 0.9999846
vn -0.003921509 0.003921509 0.9999846
vn -0.003921509 0.003921509 0.9999846
vn -0.003921509 0.003921509 0.9999846
vn 0.9999924 0.003921509 -0
vn 0.9999924 0.003921509 -0
vn 0.9999924 -0.0039215684 -0
vn 0.9999924 0.003921509 -0
vn 0.9999924 0.003921509 -0
vn 0.9999924 0.003921509 -0
vn 0.0039215684 -0.0039215684 -0.9999846
vn -0.003921509 0.003921509 -0.9999846
vn -0.003921509 0.003921509 -0.9999846
vn 0.0039215684 -0.0039215684 -0.9999846
vn 0.0039215684 -0.0039215684 -0.9999846
vn -0.003921509 0.003921509 -0.9999846
vn -0.99999225 0.003921509 -0.00034492963
vn -0.99999225 0.003921509 -0.00034492963
vn -0.99999225 0.003921509 -0.00034492963
vn -0.99999225 0.003921509 -0.00034492963
vn -0.99999225 0.003921509 -0.00034492963
vn -0.37254608 0.88234615 -0.28753206
vn -0.37254608 0.88234615 -0.28753206
vn -0.37254608 0.88234615 -0.28753206
vn 0.56078005 0.8117584 0.16301557
vn 0.56078005 0.8117584 0.16301557
vn 0.56078005 0.8117584 0.16301557
vn 0.07450926 0.99214923 -0.10044035
vn 0.07450926 0.99214923 -0.10044035
vn 0.07450926 0.99214923 -0.10044035
vn 0.07450926 0.99214923 -0.10044035
vn 0.066666186 0.99214923 -0.10580898
vn 0.9921493 0.098038435 -0.077641785
vn 0.9921493 0.098038435 -0.077641785
vn 0.9921493 0.098038435 -0.077641785
vn 0.9921493 0.098038435 -0.077641785
vn -0.003921509 -0.0039215684 -0.9999846
vn -0.003921509 -0.0039215684 -0.9999846
vn -0.003921509 -0.0039215684 -0.9999846
vn 0.0039215684 0.003921509 -0.9999846
vn -0.9916004 0.12933916 -0
vn -0.9916004 0.12933916 -0
vn -0.9916004 0.12933916 -0
vn -0.9916004 0.12933916 -0
vn -0.99214923 0.12156761 -0.02934652
vn 0.9921493 0.074509144 -0.100439884
vn 0.9921493 0.074509144 -0.100439884
vn 0.9921493 0.05882299 -0.1103614
vn 0.9843062 0.08235228 -0.15607493
vn -0.7882292 0.050979972 -0.61326647
vn -0.7333276 0.011764526 -0.6797736
vn -0.70979846 0.003921509 -0.7043939
vn -0.8117584 0.074509144 -0.5792208
vn -0.003921509 -0.69411236 -0.71985596
vn -0.003921509 -0.69411236 -0.71985596
vn -0.003921509 -0.69411236 -0.71985596
vn -0.003921509 -0.69411236 -0.71985596
vn -0.003921509 0.99999225 -0.00034526698
vn -0.003921509 0.99999225 -0.00034526698
vn -0.003921509 0.99999225 -0.00034526698
vn -0.003921509 0.99999225 -0.00034526698
vn 0.858817 -0.011764646 -0.5121474
vn 0.86666006 -0.0039215684 -0.49888372
vn 0.8196016 -0.043136954 -0.57130766
vn 0.87450314 0.003921509 -0.485004
vn -0.003921509 -0.07450926 -0.9972126
vn -0.003921509 -0.07450926 -0.9972126
vn -0.003921509 -0.07450926 -0.9972126
vn -0.003921509 -0.07450926 -0.9972126
vn -0.874503 -0.0039215684 -0.4850042
vn -0.88234615 -0.019607723 -0.4701923
vn -0.874503 0.003921509 -0.4850042
vn -0.8980323 -0.035293877 -0.43851143
vn 0.6626585 0.74892163 -0
vn 0.6705831 0.74117076 -0.031370882
vn 0.6784262 0.7333276 -0.044367142
vn 0.6626585 0.74892163 -0
vn 0.5450939 0.11372459 0.8306259
vn 0.63136774 0.1450969 0.7617884
vn 0.7097985 0.1764692 0.68194187
vn 0.5137216 0.098038435 0.8523371
vn 0.08235234 0.0901953 -0.9925134
vn 0.08235234 0.08235228 -0.99319494
vn 0.05098003 0.12156761 -0.9912731
vn 0.10588157 0.066666126 -0.9921415
vn -0.05882299 0.65489686 -0.7534255
vn -0.05882299 0.65489686 -0.7534255
vn -0.05882299 0.66274 -0.74653566
vn -0.05882299 0.65489686 -0.7534255
vn 0.63136774 0.003921509 -0.77547365
vn 0.63136774 0.003921509 -0.77547365
vn 0.63136774 0.003921509 -0.77547365
vn 0.7803862 0.08235228 -0.6198512
vn 0.7803862 0.08235228 -0.6198512
vn 0.7803862 0.08235228 -0.6198512
vn -0.003921509 0.05882299 0.99826074
vn -0.003921509 0.05882299 0.99826074
vn -0.003921509 0.05882299 0.99826074
vn -0.003921509 0.05882299 0.99826074
vn 0.0039215684 0.066666126 0.9977676
vn -0.5764661 -0.46666312 0.6707551
vn -0.5764661 -0.46666312 0.6707551
vn -0.5764661 -0.46666312 0.6707551
vn 0.70195544 0.15293992 -0.6956062
vn 0.70195544 0.15293992 -0.6956062
vn 0.70195544 0.15293992 -0.6956062
vn -0.011764526 0.91371846 0.40617752
vn -0.011764526 0.91371846 0.40617752
vn -0.011764526 0.91371846 0.40617752
vn -0.4980353 0.86666 -0.029347694
vn -0.4980353 0.86666 -0.029347694
vn -0.4980353 0.86666 -0.029347694
g Desert_rock_1_0
f 3/3/3 2/2/2 1/1/1
f 1/1/1 2/2/2 4/4/4
f 4/4/4 2/2/2 5/5/5
f 2/2/2 6/6/6 5/5/5
f 6/6/6 7/7/7 5/5/5
f 10/10/10 9/9/9 8/8/8
f 9/9/9 11/11/11 8/8/8
f 8/8/8 11/11/11 12/12/12
f 15/15/15 14/14/14 13/13/13
f 14/14/14 16/16/16 13/13/13
f 16/16/16 17/17/17 13/13/13
f 17/17/17 18/18/18 13/13/13
f 21/21/21 20/20/20 19/19/19
f 20/20/20 22/22/22 19/19/19
f 22/22/22 23/23/23 19/19/19
f 19/19/19 23/23/23 24/24/24
f 27/27/27 26/26/26 25/25/25
f 26/26/26 28/28/28 25/25/25
f 28/28/28 29/29/29 25/25/25
f 32/32/32 31/31/31 30/30/30
f 35/35/35 34/34/34 33/33/33
f 38/38/38 37/37/37 36/36/36
f 40/40/40 39/39/39 37/37/37
f 37/37/37 39/39/39 36/36/36
f 43/43/43 42/42/42 41/41/41
f 44/44/44 41/41/41 42/42/42
f 47/47/47 46/46/46 45/45/45
f 48/48/48 45/45/45 46/46/46
f 51/51/51 50/50/50 49/49/49
f 50/50/50 52/52/52 49/49/49
f 49/49/49 52/52/52 53/53/53
f 56/56/56 55/55/55 54/54/54
f 57/57/57 54/54/54 55/55/55
f 60/60/60 59/59/59 58/58/58
f 61/61/61 58/58/58 59/59/59
f 64/64/64 63/63/63 62/62/62
f 65/65/65 62/62/62 63/63/63
f 68/68/68 67/67/67 66/66/66
f 69/69/69 66/66/66 67/67/67
f 72/72/72 71/71/71 70/70/70
f 73/73/73 70/70/70 71/71/71
f 76/76/76 75/75/75 74/74/74
f 77/77/77 74/74/74 75/75/75
f 80/80/80 79/79/79 78/78/78
f 81/81/81 78/78/78 79/79/79
f 84/84/84 83/83/83 82/82/82
f 85/85/85 82/82/82 83/83/83
f 88/88/88 87/87/87 86/86/86
f 89/89/89 86/86/86 87/87/87
f 92/92/92 91/91/91 90/90/90
f 93/93/93 90/90/90 91/91/91
f 96/96/96 95/95/95 94/94/94
f 97/97/97 94/94/94 95/95/95
f 100/100/100 99/99/99 98/98/98
f 103/103/103 102/102/102 101/101/101
f 106/106/106 105/105/105 104/104/104
f 105/105/105 107/107/107 104/104/104
f 107/107/107 108/108/108 104/104/104
f 111/111/111 110/110/110 109/109/109
f 114/114/114 113/113/113 112/112/112
f 117/117/117 116/116/116 115/115/115
f 120/120/120 119/119/119 118/118/118
