g Desert_rock_4
v -0.30157852 1.2519968 -1.2500135
v 2.0925407 1.9999714 -1.2500135
v -0.195503 1.9999714 -1.2500135
v 2.5000322 1.5241313 -1.2500135
v -2.0590868 1.9999714 -0.86264825
v -2.4999633 1.9999714 1.2500236
v -2.4999633 1.9999714 -0.3937533
v -1.6279178 1.9999714 1.2500236
v 2.0925407 1.9999714 -1.2500135
v 2.5000322 1.5241313 -1.2500135
v 2.5000322 1.9999714 -0.3662083
v -2.4999633 5.00679E-06 -1.2500135
v -2.4999633 1.9999714 1.2500236
v -2.4999633 5.00679E-06 1.2500236
v -2.4999633 1.7309942 -1.2500135
v -2.4999633 1.9999714 -0.3937533
v -2.4999633 1.7309942 -1.2500135
v -1.8988681 1.9999714 -1.2500135
v -2.0590868 1.9999714 -0.86264825
v -2.4999633 1.7309942 -1.2500135
v -2.0590868 1.9999714 -0.86264825
v -2.4999633 1.9999714 -0.3937533
v 1.5823679 1.4973755 -0.47133684
v 1.6380103 2.0582972 -1.2709287
v 1.7161462 1.6043191 -1.3092864
v 1.5021797 2.0851321 -0.84189093
v 0.28475738 2.0991807 -0.8396021
v 0.21159363 1.9151268 -1.3358053
v 0.25176668 2.1003647 -1.1657213
v 0.36407733 1.416398 -0.46912694
v 0.17978668 1.5234208 -1.3358053
v 1.5021797 2.0851321 -0.84189093
v 0.25176668 2.1003647 -1.1657213
v 1.6380103 2.0582972 -1.2709287
v 0.28475738 2.0991807 -0.8396021
v 1.6380103 2.0582972 -1.2709287
v 0.17978668 1.5234208 -1.3358053
v 1.7161462 1.6043191 -1.3092864
v 0.21159363 1.9151268 -1.3358053
v 0.28475738 2.0991807 -0.8396021
v 1.5823679 1.4973755 -0.47133684
v 0.36407733 1.416398 -0.46912694
v 1.5021797 2.0851321 -0.84189093
v 2.0491319 0.72540736 1.3322637
v 2.1152713 0.90425205 0.65690017
v 2.5884285 1.1610749 1.3538892
v 1.6755786 5.00679E-06 1.3227928
v 2.5884285 1.1610749 1.3538892
v 2.5893755 5.00679E-06 1.348917
v 2.0491319 0.72540736 1.3322637
v 2.5893755 5.00679E-06 1.348917
v 2.5884285 1.373147 0.8573704
v 2.5893755 5.00679E-06 0.44317055
v 2.5884285 1.1610749 1.3538892
v 2.5893755 5.00679E-06 0.44317055
v 2.1152713 0.90425205 0.65690017
v 1.6755786 5.00679E-06 0.37513685
v 2.5884285 1.373147 0.8573704
v 1.6755786 5.00679E-06 0.37513685
v 2.0491319 0.72540736 1.3322637
v 1.6755786 5.00679E-06 1.3227928
v 2.1152713 0.90425205 0.65690017
v 2.5884285 1.1610749 1.3538892
v 2.1152713 0.90425205 0.65690017
v 2.5884285 1.373147 0.8573704
v -1.5010061 2.0822115 0.598969
v -2.5829926 2.0822115 0.10166073
v -2.1899447 2.0822115 0.10166073
v -1.4104786 2.0822115 1.3091385
v -2.5080137 2.0822115 1.2223997
v -2.5829926 1.2752798 1.2921696
v -1.4104786 2.0822115 1.3091385
v -1.2085879 1.4223962 1.3091385
v -2.5829926 1.9903426 1.2921696
v -1.2085879 1.4223962 1.3091385
v -1.5010061 2.0822115 0.598969
v -1.2085879 1.4223962 0.7916255
v -1.4104786 2.0822115 1.3091385
v -2.1899447 1.367938 -0.056189775
v -2.5829926 2.0822115 0.10166073
v -2.5829926 1.367938 -0.056189775
v -2.1899447 2.0822115 0.10166073
v -2.5829926 1.2752798 1.2921696
v -2.5829926 2.0822115 0.10166073
v -2.5829926 1.9903426 1.2921696
v -2.5829926 1.367938 -0.056189775
v -1.2085879 1.4223962 0.7916255
v -1.5010061 2.0822115 0.598969
v -1.3897214 1.2752798 0.24830389
v -2.1899447 2.0822115 0.10166073
v -1.3897214 1.2752798 0.24830389
v -1.5010061 2.0822115 0.598969
v -2.1899447 1.367938 -0.056189775
v -2.4999633 5.00679E-06 1.2500236
v -0.078772545 1.5155282 1.2500236
v 2.5000322 5.00679E-06 1.2500236
v 2.5000322 5.00679E-06 1.2500236
v 2.5000322 1.5241313 -1.2500135
v 2.5000322 5.00679E-06 -1.2500135
v 2.5000322 1.9999714 1.0291905
v 2.5000322 1.9999714 -0.3662083
v 2.5000322 1.8353333 1.2500236
v -1.6279178 1.9999714 1.2500236
v -0.25730133 1.9999714 1.0914626
v -0.30734015 1.9716372 1.2500236
v 1.2921597 1.9999714 0.86486816
v 0.011754751 1.9999714 0.5687406
v -0.01681614 1.9999714 -0.2883091
v -0.19068861 1.9999714 0.7134106
v -1.8988681 1.9999714 -1.2500135
v -0.27245498 1.9999714 -0.33211255
v 2.5000322 1.9999714 -0.3662083
v 2.5000322 1.9999714 1.0291905
v 2.0925407 1.9999714 -1.2500135
v 2.5000322 1.8353333 1.2500236
v 1.2921597 1.9999714 0.86486816
v 2.5000322 1.9999714 1.0291905
v 1.6380103 2.0582972 -1.2709287
v 0.25176668 2.1003647 -1.1657213
v 0.21159363 1.9151268 -1.3358053
v -2.5080137 2.0822115 1.2223997
v -2.5829926 1.9903426 1.2921696
v -2.5829926 2.0822115 0.10166073
v -2.5829926 1.9903426 1.2921696
v -2.5080137 2.0822115 1.2223997
v -1.4104786 2.0822115 1.3091385
v -2.4999633 5.00679E-06 -1.2500135
v -2.4999633 1.7309942 -1.2500135
v 2.5000322 1.8353333 1.2500236
v -0.0056877136 1.9590883 1.2500236
v -0.0007941723 1.9999714 1.0523946
v 2.5000322 1.8353333 1.2500236
v -0.0056877136 1.9590883 1.2500236
v -0.0007941723 1.9999714 1.0523946
v -0.078772545 1.5155282 1.2500236
v -0.1203661 1.9021044 0.5365391
v -0.1203661 1.9021044 0.5365391
v -0.078772545 1.5155282 1.2500236
v -0.25730133 1.9999714 1.0914626
v -1.6279178 1.9999714 1.2500236
v -0.30734015 1.9716372 1.2500236
v -2.4999633 1.9999714 1.2500236
v -0.25730133 1.9999714 1.0914626
v -0.19068861 1.9999714 0.7134106
v 0.011754751 1.9999714 0.5687406
v -0.0007941723 1.9999714 1.0523946
v -0.1203661 1.9021044 0.5365391
v -0.195503 1.9999714 -1.2500135
v -0.29960537 1.8884501 -1.1706147
v -0.30157852 1.2519968 -1.2500135
v -0.01681614 1.9999714 -0.2883091
v -0.21168256 1.9141798 -0.30748796
v -0.61917377 1.9999714 -1.2500135
v -0.30157852 1.2519968 -1.2500135
v -0.29960537 1.8884501 -1.1706147
v -0.19068861 1.9999714 0.7134106
v -0.21168256 1.9141798 -0.30748796
v -0.1203661 1.9021044 0.5365391
v -0.27245498 1.9999714 -0.33211255
v -0.195503 1.9999714 -1.2500135
v -0.195503 1.9999714 -1.2500135
v -0.29960537 1.8884501 -1.1706147
v -0.29960537 1.8884501 -1.1706147
v -0.27245498 1.9999714 -0.33211255
v -0.61917377 1.9999714 -1.2500135
v -0.29960537 1.8884501 -1.1706147
v -0.61917377 1.9999714 -1.2500135
v 2.5000322 5.00679E-06 -1.2500135
v -1.8988681 1.9999714 -1.2500135
v -0.61917377 1.9999714 -1.2500135
v -0.25730133 1.9999714 1.0914626
v -0.078772545 1.5155282 1.2500236
v -0.30734015 1.9716372 1.2500236
v -0.078772545 1.5155282 1.2500236
v -0.0007941723 1.9999714 1.0523946
v -0.0056877136 1.9590883 1.2500236
v -0.25730133 1.9999714 1.0914626
vt 0.06836003 0.80350447
vt 0.04056448 0.8111722
vt 0.06836003 0.8111722
vt 0.03673061 0.80637985
vt 0.05110762 0.8370508
vt 0.046315283 0.8150061
vt 0.046315283 0.83225846
vt 0.05494149 0.8150061
vt 0.034813676 0.8121307
vt 0.034813676 0.80637985
vt 0.025229003 0.8121307
vt 0.092321716 0.7900859
vt 0.1191588 0.8111722
vt 0.1191588 0.7900859
vt 0.092321716 0.8082968
vt 0.10190639 0.8111722
vt 0.046315283 0.8408847
vt 0.052066088 0.8408847
vt 0.05110762 0.8370508
vt 0.046315283 0.8408847
vt 0.05110762 0.8370508
vt 0.046315283 0.83225846
vt 0.20254545 0.8897665
vt 0.21117166 0.89551735
vt 0.21213013 0.890725
vt 0.20637932 0.8964758
vt 0.23609181 0.89743423
vt 0.230341 0.89455885
vt 0.23225795 0.89743423
vt 0.23992568 0.8888081
vt 0.230341 0.890725
vt 0.21500553 0.90222657
vt 0.2274656 0.89839274
vt 0.2130886 0.89743423
vt 0.2274656 0.90222657
vt 0.21404706 0.89551735
vt 0.22938254 0.890725
vt 0.2130886 0.890725
vt 0.22842407 0.89455885
vt 0.2274656 0.90318507
vt 0.21404706 0.9108528
vt 0.23417488 0.9118113
vt 0.21500553 0.9041435
vt 0.039606012 0.9817794
vt 0.04056448 0.9884887
vt 0.045356818 0.9808209
vt 0.04727375 0.9702778
vt 0.056858424 0.98273784
vt 0.057816893 0.9702778
vt 0.05110762 0.9779455
vt 0.058775358 0.9702778
vt 0.06548463 0.9846548
vt 0.0693185 0.9702778
vt 0.059733827 0.98273784
vt 0.07027697 0.9702778
vt 0.07602777 0.97986245
vt 0.080820106 0.9702778
vt 0.0721939 0.9846548
vt 0.035772145 0.9702778
vt 0.045356818 0.9779455
vt 0.046315283 0.9702778
vt 0.038647547 0.97986245
vt 0.05494149 0.9846548
vt 0.04727375 0.9817794
vt 0.050149154 0.9865717
vt 0.20158699 0.9376899
vt 0.19679466 0.9261883
vt 0.19679466 0.9300221
vt 0.20925473 0.93864834
vt 0.20829625 0.92714673
vt 0.21213013 0.9166036
vt 0.2245902 0.9252298
vt 0.22650714 0.91756207
vt 0.21213013 0.92427135
vt 0.22842407 0.91756207
vt 0.23609181 0.9252298
vt 0.23417488 0.91756207
vt 0.22842407 0.9252298
vt 0.18816845 0.91756207
vt 0.19200231 0.9252298
vt 0.19200231 0.91756207
vt 0.18816845 0.9252298
vt 0.20829625 0.9166036
vt 0.19583619 0.9252298
vt 0.20829625 0.92427135
vt 0.19391926 0.91756207
vt 0.23417488 0.91756207
vt 0.23609181 0.9252298
vt 0.23896721 0.9166036
vt 0.18816845 0.9252298
vt 0.17954224 0.9166036
vt 0.18145917 0.9252298
vt 0.18816845 0.91756207
vt 0.1220342 0.7900859
vt 0.14407896 0.80637985
vt 0.17379144 0.7900859
vt 0.007976592 0.7900859
vt 0.033855207 0.80637985
vt 0.033855207 0.7900859
vt 0.009893526 0.8111722
vt 0.025229003 0.8111722
vt 0.007976592 0.80925524
vt 0.05494149 0.8150061
vt 0.0664431 0.816923
vt 0.0664431 0.8150061
vt 0.085612446 0.81883997
vt 0.06836003 0.82171535
vt 0.067401566 0.8313
vt 0.067401566 0.82075685
vt 0.052066088 0.8408847
vt 0.0664431 0.8313
vt 0.09807252 0.83225846
vt 0.09807252 0.816923
vt 0.09423865 0.8408847
vt 0.09807252 0.8150061
vt 0.085612446 0.81883997
vt 0.09807252 0.816923
vt 0.21404706 0.89551735
vt 0.22842407 0.89743423
vt 0.22842407 0.89455885
vt 0.20829625 0.9252298
vt 0.20925473 0.92427135
vt 0.19583619 0.9252298
vt 0.21213013 0.92427135
vt 0.2130886 0.9252298
vt 0.2245902 0.9252298
vt 0.08848785 0.7900859
vt 0.08848785 0.8082968
vt 0.17379144 0.80925524
vt 0.14407896 0.8111722
vt 0.06836003 0.816923
vt 0.09807252 0.8150061
vt 0.06836003 0.8150061
vt 0.032896742 0.82171535
vt 0.034813676 0.816923
vt 0.027145937 0.82075685
vt 0.01564433 0.8265077
vt 0.007976592 0.8226738
vt 0.009893526 0.82746613
vt 0.13066041 0.8111722
vt 0.14120355 0.8111722
vt 0.1220342 0.8111722
vt 0.009893526 0.82842463
vt 0.013727395 0.82746613
vt 0.027145937 0.82171535
vt 0.031938277 0.82171535
vt 0.027145937 0.82171535
vt 0.007976592 0.8197984
vt 0.0089350585 0.81883997
vt 0.007976592 0.8121307
vt 0.018519733 0.82075685
vt 0.018519733 0.82075685
vt 0.034813676 0.8313
vt 0.042481415 0.8293831
vt 0.035772145 0.8293831
vt 0.013727395 0.82746613
vt 0.025229003 0.82842463
vt 0.01564433 0.82746613
vt 0.025229003 0.82842463
vt 0.0664431 0.8408847
vt 0.007976592 0.8197984
vt 0.0089350585 0.8197984
vt 0.033855207 0.8293831
vt 0.025229003 0.82842463
vt 0.034813676 0.8313
vt 0.033855207 0.8293831
vt 0.0635677 0.8408847
vt 0.03673061 0.7900859
vt 0.08177857 0.8111722
vt 0.07027697 0.8111722
vt 0.009893526 0.82746613
vt 0.007976592 0.8226738
vt 0.007976592 0.82746613
vt 0.034813676 0.816923
vt 0.032896742 0.82171535
vt 0.034813676 0.82075685
vt 0.0664431 0.816923
vn -0.003921509 -0.0039215684 -0.9999846
vn -0.003921509 0.003921509 -0.9999846
vn -0.003921509 0.003921509 -0.9999846
vn -0.003921509 -0.0039215684 -0.9999846
vn 0.0039215684 0.99999225 -0.00034526698
vn -0.003921509 0.99999225 -0.00034526698
vn -0.003921509 0.99999225 -0.00034526698
vn 0.0039215684 0.99999225 -0.00034526698
vn 0.7176416 0.6156815 -0.32546395
vn 0.7176416 0.6156815 -0.32546395
vn 0.7176416 0.6156815 -0.32546395
vn -0.99999225 0.003921509 -0.00034492963
vn -0.99999225 0.003921509 -0.00034492963
vn -0.99999225 0.003921509 -0.00034492963
vn -0.99999225 0.003921509 -0.00034492963
vn -0.99999225 0.003921509 -0.00034492963
vn -0.4039184 0.8980323 -0.17432119
vn -0.4039184 0.8980323 -0.17432119
vn -0.4039184 0.8980323 -0.17432119
vn -0.30195844 0.9058753 -0.29700336
vn -0.30195844 0.9058753 -0.29700336
vn -0.30195844 0.9058753 -0.29700336
vn 0.9529339 0.20784152 0.22072355
vn 0.960777 0.19999838 0.19211513
vn 0.97646314 0.15293992 0.15208267
vn 0.9137185 0.2941153 0.28038302
vn -0.9843061 -0.0274508 0.17432147
vn -0.9843061 0.02745068 0.17432149
vn -0.9843061 0.12156761 0.1279173
vn -0.9843061 0.011764526 0.17607702
vn -0.9764631 0.08235228 0.19934386
vn 0.027440675 0.9996234 -0
vn 0.019604107 0.9998079 -0
vn 0.027440675 0.9996234 -0
vn 0.011763923 0.99993086 -0
vn 0.019607723 0.074509144 -0.9970275
vn 0.035293877 0.019607663 -0.9991846
vn 0.011764646 0.08235228 -0.9965339
vn 0.043136954 -0.0039215684 -0.99906147
vn -0.019607663 0.4901923 0.87139374
vn -0.003921509 0.51372147 0.85794806
vn -0.02745068 0.47450614 0.8798241
vn 0.0039215684 0.53725076 0.8434135
vn -0.62352455 0.76469994 0.16263816
vn -0.62352455 0.76469994 0.16263816
vn -0.62352455 0.76469994 0.16263816
vn -0.02745068 -0.0039215684 0.9996155
vn -0.02745068 -0.0039215684 0.9996155
vn -0.02745068 -0.0039215684 0.9996155
vn -0.050979972 0.011764526 0.9986304
vn 0.9999924 0.003921509 -0
vn 0.9999924 0.003921509 -0
vn 0.9999924 0.003921509 -0
vn 0.9999924 0.003921509 -0
vn 0.08235234 0.27058613 -0.95916694
vn 0.098038495 0.27842915 -0.95544004
vn 0.07450926 0.262743 -0.9619847
vn 0.121567726 0.2862723 -0.9504049
vn -0.8967644 0.4425082 -0
vn -0.8967644 0.4425082 -0
vn -0.88887787 0.4581441 -0
vn -0.9043746 0.42673954 -0
vn -0.7333276 0.62352455 0.27101237
vn -0.7333276 0.62352455 0.27101237
vn -0.7333276 0.62352455 0.27101237
vn -0.003921509 0.99999225 -0.00034526698
vn -0.003921509 0.99999225 -0.00034526698
vn -0.003921509 0.99999225 -0.00034526698
vn -0.003921509 0.99999225 -0.00034526698
vn -0.003921509 0.99999225 -0.00034526698
vn -0.011764526 -0.0039215684 0.9999231
vn -0.011764526 -0.0039215684 0.9999231
vn -0.011764526 -0.0039215684 0.9999231
vn -0.011764526 0.003921509 0.9999231
vn 0.93724775 0.34117377 -0.07188263
vn 0.93724775 0.33333075 -0.10226075
vn 0.9137185 0.4039184 -0.04436664
vn 0.9529339 0.2941153 -0.07357423
vn -0.003921509 0.21568453 -0.9764552
vn -0.003921509 0.21568453 -0.9764552
vn -0.003921509 0.21568453 -0.9764552
vn -0.003921509 0.21568453 -0.9764552
vn -0.99999225 -0.0039215684 -0.00034425134
vn -0.99999225 -0.0039215684 -0.00034425134
vn -0.99999225 0.003921509 -0.00034492963
vn -0.99999225 -0.0039215684 -0.00034425134
vn 0.8823462 0.2862723 -0.37351486
vn 0.8823462 0.2862723 -0.37351486
vn 0.8823462 0.2862723 -0.37351486
vn 0.46666312 0.30980146 -0.8284012
vn 0.4745062 0.3176446 -0.820942
vn 0.5372508 0.39607537 -0.744638
vn 0.3725462 0.19999838 -0.90620637
vn -0.003921509 -0.0039215684 0.9999846
vn -0.003921509 -0.0039215684 0.9999846
vn 0.0039215684 -0.0039215684 0.9999846
vn 0.9999924 0.003921509 -0
vn 0.9999924 0.003921509 -0
vn 0.9999924 0.003921509 -0
vn 0.9999924 0.003921509 -0
vn 0.9999924 0.003921509 -0
vn 0.9999924 0.003921509 -0
vn 0.019607723 0.9843061 0.17537694
vn 0.019607723 0.9843061 0.17537694
vn 0.019607723 0.9843061 0.17537694
vn 0.011763923 0.99993086 -0
vn 0.0039215684 0.99999225 -0.00034526698
vn -0.003921509 0.99999225 -0.00034526698
vn 0.0039215684 0.99999225 -0.00034526698
vn 0.0039215684 0.99999225 -0.00034526698
vn 0.0039215684 0.99999225 -0.00034526698
vn 0.0039215684 0.99999225 -0.00034526698
vn -0.003921509 0.99999225 -0.00034526698
vn 0.0039215684 0.99999225 -0.00034526698
vn -0.08235228 0.79607224 0.5995724
vn -0.08235228 0.79607224 0.5995724
vn -0.08235228 0.79607224 0.5995724
vn -0.035293818 0.67842615 -0.7338204
vn -0.035293818 0.67842615 -0.7338204
vn -0.035293818 0.67842615 -0.7338204
vn -0.756206 0.6543336 -0
vn -0.756206 0.6543336 -0
vn -0.756206 0.6543336 -0
vn -0.05882299 0.6313677 0.77324945
vn -0.05882299 0.6313677 0.77324945
vn -0.05882299 0.6313677 0.77324945
vn 0.0039215684 -0.0039215684 -0.9999846
vn 0.0039215684 -0.0039215684 -0.9999846
vn 0.0039215684 -0.0039215684 0.9999846
vn 0.0039215684 -0.0039215684 0.9999846
vn 0.0274508 0.99214923 0.122009754
vn 0.043136954 0.9607769 0.27394688
vn 0.05098003 0.9764631 0.20957322
vn -0.9607769 0.22352767 0.16414346
vn -0.9607769 0.22352767 0.16414346
vn -0.9607769 0.22352767 0.16414346
vn 0.90587544 0.38823223 0.16930857
vn 0.90587544 0.38823223 0.16930857
vn 0.90587544 0.38823223 0.16930857
vn -0.003921509 0.003921509 0.9999846
vn 0.0039215684 0.003921509 0.9999846
vn -0.003921509 0.003921509 0.9999846
vn 0.90587544 0.38823223 0.16930857
vn 0.9137185 0.36470306 0.17919302
vn -0.59215224 0.8039154 0.055460237
vn -0.59215224 0.8039154 -0.055460237
vn -0.57529944 0.81794286 -0
vn -0.66274 0.098038435 -0.7424043
vn -0.66274 0.098038435 -0.7424043
vn -0.66274 0.098038435 -0.7424043
vn -0.41960454 0.9058753 0.057636324
vn -0.41960454 0.9058753 0.057636324
vn 0.27842927 0.12156761 -0.9527321
vn 0.27842927 0.12156761 -0.9527321
vn 0.27842927 0.12156761 -0.9527321
vn 0.756857 0.64705384 -0.09213503
vn 0.8196016 0.56862307 -0.07014997
vn 0.7411708 0.66274 -0.10696508
vn 0.8274447 0.5607799 -0.02934617
vn -0.003921509 0.99999225 -0.00034526698
vn -0.64705384 0.7568569 0.09213551
vn -0.70979846 0.7019553 0.058693103
vn 0.35686004 0.9215615 -0.15288994
vn 0.35686004 0.9215615 -0.15288994
vn 0.35686004 0.9215615 -0.15288994
vn 0.8274447 0.5529369 -0.097959734
vn -0.003921509 0.99999225 -0.00034526698
vn -0.003921509 -0.0039215684 -0.9999846
vn 0.0039215684 0.003921509 -0.9999846
vn -0.003921509 0.003921509 -0.9999846
vn 0.8431308 0.41960454 0.33624756
vn 0.8431308 0.41960454 0.33624756
vn 0.8431308 0.41960454 0.33624756
vn -0.9843061 0.16078305 0.072734654
vn -0.9843061 0.16078305 0.072734654
vn -0.9843061 0.16078305 0.072734654
vn 0.0039215684 0.99999225 -0.00034526698
g Desert_rock_4_0
f 3/3/3 2/2/2 1/1/1
f 4/4/4 1/1/1 2/2/2
f 7/7/7 6/6/6 5/5/5
f 8/8/8 5/5/5 6/6/6
f 11/11/11 10/10/10 9/9/9
f 14/14/14 13/13/13 12/12/12
f 12/12/12 13/13/13 15/15/15
f 13/13/13 16/16/16 15/15/15
f 19/19/19 18/18/18 17/17/17
f 22/22/22 21/21/21 20/20/20
f 25/25/25 24/24/24 23/23/23
f 26/26/26 23/23/23 24/24/24
f 29/29/29 28/28/28 27/27/27
f 27/27/27 28/28/28 30/30/30
f 28/28/28 31/31/31 30/30/30
f 34/34/34 33/33/33 32/32/32
f 35/35/35 32/32/32 33/33/33
f 38/38/38 37/37/37 36/36/36
f 39/39/39 36/36/36 37/37/37
f 42/42/42 41/41/41 40/40/40
f 43/43/43 40/40/40 41/41/41
f 46/46/46 45/45/45 44/44/44
f 49/49/49 48/48/48 47/47/47
f 50/50/50 47/47/47 48/48/48
f 53/53/53 52/52/52 51/51/51
f 54/54/54 51/51/51 52/52/52
f 57/57/57 56/56/56 55/55/55
f 58/58/58 55/55/55 56/56/56
f 61/61/61 60/60/60 59/59/59
f 62/62/62 59/59/59 60/60/60
f 65/65/65 64/64/64 63/63/63
f 68/68/68 67/67/67 66/66/66
f 66/66/66 67/67/67 69/69/69
f 69/69/69 67/67/67 70/70/70
f 73/73/73 72/72/72 71/71/71
f 74/74/74 71/71/71 72/72/72
f 77/77/77 76/76/76 75/75/75
f 78/78/78 75/75/75 76/76/76
f 81/81/81 80/80/80 79/79/79
f 82/82/82 79/79/79 80/80/80
f 85/85/85 84/84/84 83/83/83
f 86/86/86 83/83/83 84/84/84
f 89/89/89 88/88/88 87/87/87
f 92/92/92 91/91/91 90/90/90
f 93/93/93 90/90/90 91/91/91
f 96/96/96 95/95/95 94/94/94
f 99/99/99 98/98/98 97/97/97
f 101/101/101 100/100/100 98/98/98
f 98/98/98 100/100/100 97/97/97
f 100/100/100 102/102/102 97/97/97
f 105/105/105 104/104/104 103/103/103
f 108/108/108 107/107/107 106/106/106
f 111/111/111 110/110/110 109/109/109
f 5/5/5 109/109/109 110/110/110
f 113/113/113 112/112/112 106/106/106
f 114/114/114 106/106/106 112/112/112
f 117/117/117 116/116/116 115/115/115
f 120/120/120 119/119/119 118/118/118
f 123/123/123 122/122/122 121/121/121
f 126/126/126 125/125/125 124/124/124
f 128/128/128 1/1/1 127/127/127
f 130/130/130 95/95/95 129/129/129
f 96/96/96 129/129/129 95/95/95
f 133/133/133 132/132/132 131/131/131
f 106/106/106 131/131/131 132/132/132
f 107/107/107 131/131/131 106/106/106
f 136/136/136 135/135/135 134/134/134
f 139/139/139 138/138/138 137/137/137
f 141/141/141 140/140/140 95/95/95
f 94/94/94 95/95/95 140/140/140
f 142/142/142 94/94/94 140/140/140
f 137/137/137 144/144/144 143/143/143
f 147/147/147 146/146/146 145/145/145
f 150/150/150 149/149/149 148/148/148
f 152/152/152 147/147/147 151/151/151
f 145/145/145 151/151/151 147/147/147
f 155/155/155 154/154/154 153/153/153
f 158/158/158 157/157/157 156/156/156
f 159/159/159 156/156/156 157/157/157
f 114/114/114 160/160/160 106/106/106
f 108/108/108 106/106/106 160/160/160
f 162/162/162 152/152/152 161/161/161
f 151/151/151 161/161/161 152/152/152
f 165/165/165 164/164/164 163/163/163
f 157/157/157 166/166/166 159/159/159
f 167/167/167 110/110/110 111/111/111
f 168/168/168 1/1/1 4/4/4
f 170/170/170 1/1/1 169/169/169
f 128/128/128 169/169/169 1/1/1
f 168/168/168 127/127/127 1/1/1
f 173/173/173 172/172/172 171/171/171
f 176/176/176 175/175/175 174/174/174
f 8/8/8 177/177/177 5/5/5
f 109/109/109 5/5/5 177/177/177
