g DragonShassisIngame_Mesh_1
v 0.48774457 0.09344971 1.6007726
v -0.48773068 0.09344971 1.6007726
v -0.48773068 0.24198222 1.494134
v 0.48774457 0.24198222 1.494134
v 0.48774457 0.24198222 1.494134
v -0.48773068 0.24198222 1.494134
v -0.48773068 0.30551237 1.3164463
v 0.48774457 0.30551237 1.3164463
v 0.48774457 -0.24196327 1.494134
v -0.48773068 -0.24196327 1.494134
v -0.48773068 -0.09346357 1.6007726
v 0.48774457 -0.09346357 1.6007726
v 0.48774457 -0.09346357 1.6007726
v -0.48773068 -0.09346357 1.6007726
v -0.48773068 0.09344971 1.6007726
v 0.48774457 0.09344971 1.6007726
v 0.48774457 -0.30552626 1.3164463
v -0.48773068 -0.30552626 1.3164463
v -0.48773068 -0.24196327 1.494134
v 0.48774457 -0.24196327 1.494134
v -0.48773068 -0.30552626 -0.26658738
v -0.48773068 -0.30552626 1.3164463
v 0.48774457 -0.30552626 1.3164463
v 0.48774457 -0.30552626 -0.26658738
v 0.48774457 0.24198222 -0.444242
v -0.48773068 0.24198222 -0.444242
v -0.48773068 0.09344971 -0.55088073
v 0.48774457 0.09344971 -0.55088073
v 0.48774457 0.30551237 -0.26658738
v -0.48773068 0.30551237 -0.26658738
v -0.48773068 0.24198222 -0.444242
v 0.48774457 0.24198222 -0.444242
v 0.48774457 -0.09346357 -0.55088073
v -0.48773068 -0.09346357 -0.55088073
v -0.48773068 -0.24196327 -0.444242
v 0.48774457 -0.24196327 -0.444242
v 0.48774457 0.09344971 -0.55088073
v -0.48773068 0.09344971 -0.55088073
v -0.48773068 -0.09346357 -0.55088073
v 0.48774457 -0.09346357 -0.55088073
v 0.48774457 -0.24196327 -0.444242
v -0.48773068 -0.24196327 -0.444242
v -0.48773068 -0.30552626 -0.26658738
v 0.48774457 -0.30552626 -0.26658738
v 0.48774457 0.30551237 1.3164463
v -0.48773068 0.30551237 1.3164463
v -0.48773068 0.30551237 -0.26658738
v 0.48774457 0.30551237 -0.26658738
vt 0.3900927 0.0696809
vt 0.3766116 0.0696809
vt 0.3766116 0.0696809
vt 0.3900927 0.0696809
vt 0.3900927 0.0696809
vt 0.3766116 0.0696809
vt 0.3766116 0.0696809
vt 0.3900927 0.0696809
vt 0.3900927 0.06936739
vt 0.3766116 0.06936739
vt 0.3766116 0.06936739
vt 0.3900927 0.06936739
vt 0.3900927 0.06936739
vt 0.3766116 0.06936739
vt 0.3766116 0.0696809
vt 0.3900927 0.0696809
vt 0.3900927 0.06936739
vt 0.3766116 0.06936739
vt 0.3766116 0.06936739
vt 0.3900927 0.06936739
vt 0.3766116 0.070621446
vt 0.3766116 0.07124847
vt 0.3900927 0.07124847
vt 0.3900927 0.070621446
vt 0.3900927 0.07030793
vt 0.3766116 0.07030793
vt 0.3766116 0.07030793
vt 0.3900927 0.07030793
vt 0.3900927 0.07030793
vt 0.3766116 0.07030793
vt 0.3766116 0.07030793
vt 0.3900927 0.07030793
vt 0.3900927 0.070621446
vt 0.3766116 0.070621446
vt 0.3766116 0.070621446
vt 0.3900927 0.070621446
vt 0.3900927 0.07030793
vt 0.3766116 0.07030793
vt 0.3766116 0.070621446
vt 0.3900927 0.070621446
vt 0.3900927 0.070621446
vt 0.3766116 0.070621446
vt 0.3766116 0.070621446
vt 0.3900927 0.070621446
vt 0.3900927 0.0696809
vt 0.3766116 0.0696809
vt 0.3766116 0.07030793
vt 0.3900927 0.07030793
vn -0.003921509 0.5843092 0.81152165
vn -0.003921509 0.5843092 0.81152165
vn -0.003921509 0.5843092 0.81152165
vn -0.003921509 0.5843092 0.81152165
vn -0.003921509 0.9450908 0.3267844
vn -0.003921509 0.9450908 0.3267844
vn -0.003921509 0.9450908 0.3267844
vn -0.003921509 0.9450908 0.3267844
vn -0.003921509 -0.5843093 0.8115216
vn -0.003921509 -0.5843093 0.8115216
vn -0.003921509 -0.5843093 0.8115216
vn -0.003921509 -0.5843093 0.8115216
vn -0.003921509 0.003921509 0.9999846
vn -0.003921509 0.003921509 0.9999846
vn -0.003921509 0.003921509 0.9999846
vn -0.003921509 0.003921509 0.9999846
vn -0.003921509 -0.94509083 0.32678422
vn -0.003921509 -0.94509083 0.32678422
vn -0.003921509 -0.94509083 0.32678422
vn -0.003921509 -0.94509083 0.32678422
vn -0.003921509 -0.9999924 -0
vn -0.003921509 -0.9999924 -0
vn -0.003921509 -0.9999924 -0
vn -0.003921509 -0.9999924 -0
vn -0.003921509 0.5843092 -0.81152165
vn -0.003921509 0.5843092 -0.81152165
vn -0.003921509 0.5843092 -0.81152165
vn -0.003921509 0.5843092 -0.81152165
vn -0.003921509 0.9450908 -0.3267844
vn -0.003921509 0.9450908 -0.3267844
vn -0.003921509 0.9450908 -0.3267844
vn -0.003921509 0.9450908 -0.3267844
vn -0.003921509 -0.5843093 -0.8115216
vn -0.003921509 -0.5843093 -0.8115216
vn -0.003921509 -0.5843093 -0.8115216
vn -0.003921509 -0.5843093 -0.8115216
vn -0.003921509 0.003921509 -0.9999846
vn -0.003921509 0.003921509 -0.9999846
vn -0.003921509 0.003921509 -0.9999846
vn -0.003921509 0.003921509 -0.9999846
vn -0.003921509 -0.94509083 -0.32678422
vn -0.003921509 -0.94509083 -0.32678422
vn -0.003921509 -0.94509083 -0.32678422
vn -0.003921509 -0.94509083 -0.32678422
vn -0.003921509 0.99999225 -0.00034526698
vn -0.003921509 0.99999225 -0.00034526698
vn -0.003921509 0.99999225 -0.00034526698
vn -0.003921509 0.99999225 -0.00034526698
g DragonShassisIngame_Mesh_1_0
f 3/3/3 2/2/2 1/1/1
f 4/4/4 3/3/3 1/1/1
f 7/7/7 6/6/6 5/5/5
f 8/8/8 7/7/7 5/5/5
f 11/11/11 10/10/10 9/9/9
f 12/12/12 11/11/11 9/9/9
f 15/15/15 14/14/14 13/13/13
f 16/16/16 15/15/15 13/13/13
f 19/19/19 18/18/18 17/17/17
f 20/20/20 19/19/19 17/17/17
f 23/23/23 22/22/22 21/21/21
f 24/24/24 23/23/23 21/21/21
f 27/27/27 26/26/26 25/25/25
f 28/28/28 27/27/27 25/25/25
f 31/31/31 30/30/30 29/29/29
f 32/32/32 31/31/31 29/29/29
f 35/35/35 34/34/34 33/33/33
f 36/36/36 35/35/35 33/33/33
f 39/39/39 38/38/38 37/37/37
f 40/40/40 39/39/39 37/37/37
f 43/43/43 42/42/42 41/41/41
f 44/44/44 43/43/43 41/41/41
f 47/47/47 46/46/46 45/45/45
f 48/48/48 47/47/47 45/45/45
