g DragonShassisIngame_Mesh_5_CorpsePart
v 0.46846375 0.09807986 0.91115785
v 0.41257894 0.12681621 0.86947334
v 0.41257894 0.087635815 0.8108095
v 0.46846375 0.038102925 0.82140625
v 0.41257894 0.02897203 0.7716291
v 0.41257894 -0.040227413 0.75785637
v 0.46846375 -0.06774226 0.80036545
v 0.41257894 -0.109426826 0.7716291
v 0.41257894 -0.16809058 0.8108095
v 0.46846375 -0.15749386 0.8603424
v 0.41257894 -0.20730156 0.86947334
v 0.41257894 -0.22107428 0.93867266
v 0.46846375 -0.17856517 0.9661876
v 0.41257894 -0.20730156 1.0078721
v 0.41257894 -0.16809058 1.066536
v 0.46846375 -0.11858827 1.0559697
v 0.41257894 -0.109426826 1.1057469
v 0.41257894 -0.040227413 1.1195196
v 0.46846375 -0.012712538 1.0770105
v 0.41257894 0.02897203 1.1057469
v 0.41257894 0.087635815 1.066536
v 0.46846375 0.07703906 1.0170336
v 0.41257894 0.12681621 1.0078721
v 0.41257894 0.14058894 0.93867266
v 0.46846375 0.09807986 0.91115785
v 0.46846375 0.038102925 0.82140625
v 0.46846375 -0.06774226 0.80036545
v 0.46846375 -0.15749386 0.8603424
v 0.46846375 -0.17856517 0.9661876
v 0.46846375 -0.11858827 1.0559697
v 0.46846375 -0.012712538 1.0770105
v 0.46846375 0.07703906 1.0170336
v 0.51323265 -0.040227413 0.93867266
v 0.46189806 -0.107289165 0.93867266
v 0.46189806 -0.073758274 0.9967563
v 0.46189806 -0.073758274 0.88061976
v 0.46189806 -0.0066965222 0.88061976
v 0.46189806 0.026834369 0.93867266
v 0.46189806 -0.0066965222 0.9967563
v 0.46846375 0.09807986 1.2770354
v 0.41257894 0.12681621 1.2353507
v 0.41257894 0.087635815 1.176687
v 0.46846375 0.038102925 1.1872838
v 0.41257894 0.02897203 1.137476
v 0.41257894 -0.040227413 1.1237034
v 0.46846375 -0.06774226 1.1662124
v 0.41257894 -0.109426826 1.137476
v 0.41257894 -0.16809058 1.176687
v 0.46846375 -0.15749386 1.2261893
v 0.41257894 -0.20730156 1.2353507
v 0.41257894 -0.22107428 1.3045502
v 0.46846375 -0.17856517 1.3320651
v 0.41257894 -0.20730156 1.3737496
v 0.41257894 -0.16809058 1.4324133
v 0.46846375 -0.11858827 1.4218166
v 0.41257894 -0.109426826 1.4715939
v 0.41257894 -0.040227413 1.4853665
v 0.46846375 -0.012712538 1.4428574
v 0.41257894 0.02897203 1.4715939
v 0.41257894 0.087635815 1.4324133
v 0.46846375 0.07703906 1.3829111
v 0.41257894 0.12681621 1.3737496
v 0.41257894 0.14058894 1.3045502
v 0.46846375 0.09807986 1.2770354
v 0.46846375 0.038102925 1.1872838
v 0.46846375 -0.06774226 1.1662124
v 0.46846375 -0.15749386 1.2261893
v 0.46846375 -0.17856517 1.3320651
v 0.46846375 -0.11858827 1.4218166
v 0.46846375 -0.012712538 1.4428574
v 0.46846375 0.07703906 1.3829111
v 0.5145153 -0.040227413 1.3045502
v 0.46318066 -0.107289165 1.3045502
v 0.46318066 -0.073758274 1.3626032
v 0.46318066 -0.073758274 1.2464666
v 0.46318066 -0.0066965222 1.2464666
v 0.46318066 0.026834369 1.3045502
v 0.46318066 -0.0066965222 1.3626032
v 0.46846375 0.09807986 0.094567955
v 0.41257894 0.12681621 0.052883387
v 0.41257894 0.087635815 -0.005780399
v 0.46846375 0.038102925 0.0048163533
v 0.41257894 0.02897203 -0.044991344
v 0.41257894 -0.040227413 -0.058733523
v 0.46846375 -0.06774226 -0.016254961
v 0.41257894 -0.109426826 -0.044991344
v 0.41257894 -0.16809058 -0.005780399
v 0.46846375 -0.15749386 0.043721974
v 0.41257894 -0.20730156 0.052883387
v 0.41257894 -0.22107428 0.12208283
v 0.46846375 -0.17856517 0.1495977
v 0.41257894 -0.20730156 0.19128227
v 0.41257894 -0.16809058 0.249946
v 0.46846375 -0.11858827 0.2393493
v 0.41257894 -0.109426826 0.28915697
v 0.41257894 -0.040227413 0.30289918
v 0.46846375 -0.012712538 0.26042062
v 0.41257894 0.02897203 0.28915697
v 0.41257894 0.087635815 0.249946
v 0.46846375 0.07703906 0.20044369
v 0.41257894 0.12681621 0.19128227
v 0.41257894 0.14058894 0.12208283
v 0.46846375 0.09807986 0.094567955
v 0.46846375 0.038102925 0.0048163533
v 0.46846375 -0.06774226 -0.016254961
v 0.46846375 -0.15749386 0.043721974
v 0.46846375 -0.17856517 0.1495977
v 0.46846375 -0.11858827 0.2393493
v 0.46846375 -0.012712538 0.26042062
v 0.46846375 0.07703906 0.20044369
v 0.51595056 -0.040227413 0.12208283
v 0.46461594 -0.107289165 0.12208283
v 0.46461594 -0.073758274 0.18016636
v 0.46461594 -0.073758274 0.063999295
v 0.46461594 -0.0066965222 0.063999295
v 0.46461594 0.026834369 0.12208283
v 0.46461594 -0.0066965222 0.18016636
v 0.46846375 0.09807986 -0.27127898
v 0.41257894 0.12681621 -0.31296355
v 0.41257894 0.087635815 -0.3716273
v 0.46846375 0.038102925 -0.36103058
v 0.41257894 0.02897203 -0.41083828
v 0.41257894 -0.040227413 -0.42461097
v 0.46846375 -0.06774226 -0.3821019
v 0.41257894 -0.109426826 -0.41083828
v 0.41257894 -0.16809058 -0.3716273
v 0.46846375 -0.15749386 -0.32212496
v 0.41257894 -0.20730156 -0.31296355
v 0.41257894 -0.22107428 -0.2437641
v 0.46846375 -0.17856517 -0.21624926
v 0.41257894 -0.20730156 -0.17456469
v 0.41257894 -0.16809058 -0.115900904
v 0.46846375 -0.11858827 -0.12649766
v 0.41257894 -0.109426826 -0.076720476
v 0.41257894 -0.040227413 -0.06294778
v 0.46846375 -0.012712538 -0.10545686
v 0.41257894 0.02897203 -0.076720476
v 0.41257894 0.087635815 -0.115900904
v 0.46846375 0.07703906 -0.16540325
v 0.41257894 0.12681621 -0.17456469
v 0.41257894 0.14058894 -0.2437641
v 0.46846375 0.09807986 -0.27127898
v 0.46846375 0.038102925 -0.36103058
v 0.46846375 -0.06774226 -0.3821019
v 0.46846375 -0.15749386 -0.32212496
v 0.46846375 -0.17856517 -0.21624926
v 0.46846375 -0.11858827 -0.12649766
v 0.46846375 -0.012712538 -0.10545686
v 0.46846375 0.07703906 -0.16540325
v 0.51595056 -0.040227413 -0.2437641
v 0.46461594 -0.107289165 -0.2437641
v 0.46461594 -0.073758274 -0.18568057
v 0.46461594 -0.073758274 -0.30184764
v 0.46461594 -0.0066965222 -0.30184764
v 0.46461594 0.026834369 -0.2437641
v 0.46461594 -0.0066965222 -0.18568057
vt 0.778954 0.49043277
vt 0.78133845 0.48941085
vt 0.7806572 0.48668572
vt 0.77827275 0.48702636
vt 0.778954 0.48498255
vt 0.77656955 0.48362
vt 0.775207 0.48566383
vt 0.77418506 0.48327935
vt 0.77145994 0.48396063
vt 0.77180064 0.48634508
vt 0.7697568 0.48566383
vt 0.76839423 0.4880483
vt 0.7704381 0.48941085
vt 0.76805353 0.49043277
vt 0.7687348 0.49281722
vt 0.77111936 0.49281722
vt 0.7704381 0.49486107
vt 0.7728225 0.49622363
vt 0.77418506 0.4941798
vt 0.775207 0.49656427
vt 0.77759147 0.495883
vt 0.7772508 0.4934985
vt 0.7796353 0.4941798
vt 0.7809979 0.49179533
vt 0.778954 0.49043277
vt 0.77827275 0.48702636
vt 0.775207 0.48566383
vt 0.77180064 0.48634508
vt 0.7704381 0.48941085
vt 0.77111936 0.49281722
vt 0.77418506 0.4941798
vt 0.7772508 0.4934985
vt 0.8147211 0.48498255
vt 0.81301796 0.48770764
vt 0.81608367 0.48770764
vt 0.8116554 0.48498255
vt 0.81301796 0.48259807
vt 0.81608367 0.48259807
vt 0.81744623 0.48498255
vt 0.7779321 0.4774885
vt 0.77656955 0.4795323
vt 0.77827275 0.4812355
vt 0.7803166 0.48021358
vt 0.7806572 0.48259807
vt 0.7830417 0.48259807
vt 0.783723 0.48021358
vt 0.78542614 0.4819168
vt 0.78747 0.48021358
vt 0.7861074 0.47816977
vt 0.7884919 0.47782913
vt 0.78883255 0.475104
vt 0.78644806 0.47476336
vt 0.7878106 0.47271952
vt 0.7861074 0.47101635
vt 0.7840636 0.47203827
vt 0.783723 0.4696538
vt 0.78133845 0.4696538
vt 0.7806572 0.47203827
vt 0.778954 0.47033507
vt 0.7769102 0.47203827
vt 0.77827275 0.47408208
vt 0.77588826 0.47442272
vt 0.7755476 0.47714785
vt 0.7779321 0.4774885
vt 0.7803166 0.48021358
vt 0.783723 0.48021358
vt 0.7861074 0.47816977
vt 0.78644806 0.47476336
vt 0.7840636 0.47203827
vt 0.7806572 0.47203827
vt 0.77827275 0.47408208
vt 0.8147211 0.48498255
vt 0.81301796 0.48770764
vt 0.81608367 0.48770764
vt 0.8116554 0.48498255
vt 0.81301796 0.48259807
vt 0.81608367 0.48259807
vt 0.81744623 0.48498255
vt 0.7632846 0.49043277
vt 0.7656691 0.4890702
vt 0.7646472 0.48668572
vt 0.7622627 0.48702636
vt 0.7632846 0.4846419
vt 0.76090014 0.48362
vt 0.7595376 0.4853232
vt 0.758175 0.48327935
vt 0.7557906 0.48396063
vt 0.7561312 0.48634508
vt 0.75374675 0.48566383
vt 0.7527248 0.4880483
vt 0.7547686 0.48941085
vt 0.7523842 0.49043277
vt 0.75306547 0.49315786
vt 0.7554499 0.49281722
vt 0.7547686 0.49486107
vt 0.75715315 0.49622363
vt 0.7585157 0.4941798
vt 0.7595376 0.49656427
vt 0.7622627 0.49554235
vt 0.76192206 0.49315786
vt 0.7639659 0.49383914
vt 0.76532847 0.49179533
vt 0.7632846 0.49043277
vt 0.7622627 0.48702636
vt 0.7595376 0.4853232
vt 0.7561312 0.48634508
vt 0.7547686 0.48941085
vt 0.7554499 0.49281722
vt 0.7585157 0.4941798
vt 0.76192206 0.49315786
vt 0.8147211 0.48498255
vt 0.81301796 0.48770764
vt 0.81608367 0.48770764
vt 0.8116554 0.48498255
vt 0.81301796 0.48259807
vt 0.81608367 0.48259807
vt 0.81744623 0.48498255
vt 0.77077866 0.4757853
vt 0.7728225 0.47476336
vt 0.7721412 0.47237888
vt 0.7697568 0.47271952
vt 0.7704381 0.47033507
vt 0.76839423 0.46931314
vt 0.76669097 0.47101635
vt 0.7656691 0.4689725
vt 0.7632846 0.4696538
vt 0.76362526 0.47203827
vt 0.7612408 0.471357
vt 0.76021886 0.47374144
vt 0.76192206 0.475104
vt 0.7598782 0.47612593
vt 0.7605595 0.47885105
vt 0.762944 0.4785104
vt 0.7622627 0.48055422
vt 0.7646472 0.4819168
vt 0.76600975 0.47987294
vt 0.76703167 0.4819168
vt 0.7697568 0.4812355
vt 0.7690755 0.47885105
vt 0.77145994 0.4795323
vt 0.7728225 0.4774885
vt 0.77077866 0.4757853
vt 0.7697568 0.47271952
vt 0.76669097 0.47101635
vt 0.76362526 0.47203827
vt 0.76192206 0.475104
vt 0.762944 0.4785104
vt 0.76600975 0.47987294
vt 0.7690755 0.47885105
vt 0.8147211 0.48498255
vt 0.81301796 0.48770764
vt 0.81608367 0.48770764
vt 0.8116554 0.48498255
vt 0.81301796 0.48259807
vt 0.81608367 0.48259807
vt 0.81744623 0.48498255
vn 0.6600251 0.73456407 -0.15742452
vn 0.6322721 0.67211974 -0.38534018
vn 0.6322721 0.6096754 -0.4780459
vn 0.6600251 0.41540432 -0.62594414
vn 0.6322721 0.20725667 -0.7465097
vn 0.6322721 0.09624457 -0.76874506
vn 0.6600251 -0.14659429 -0.73680186
vn 0.6322721 -0.382495 -0.673743
vn 0.6322721 -0.47963053 -0.6084296
vn 0.6600251 -0.6253339 -0.41632238
vn 0.6322721 -0.75022244 -0.19338635
vn 0.6322721 -0.7710372 -0.0757206
vn 0.6600251 -0.73634595 0.14886734
vn 0.6322721 -0.6739017 0.38221532
vn 0.6322721 -0.61145735 0.47576457
vn 0.6600251 -0.41718626 0.6247579
vn 0.6322721 -0.20903862 0.7460127
vn 0.6322721 -0.098026514 0.7685199
vn 0.6600251 0.14481235 0.7371541
vn 0.6322721 0.3807131 0.67475146
vn 0.6322721 0.47784865 0.60983
vn 0.6600251 0.62355196 0.41898662
vn 0.6322721 0.7484405 0.20017193
vn 0.6322721 0.7692553 0.09207792
vn 0.99999964 -0.00089097023 -0
vn 0.99999964 -0.00089097023 -0
vn 0.99999964 -0.00089097023 -0
vn 0.99999964 -0.00089097023 -0
vn 0.99999964 -0.00089097023 -0
vn 0.99999964 -0.00089097023 -0
vn 0.99999964 -0.00089097023 -0
vn 0.99999964 -0.00089097023 -0
vn 0.99999964 -0.00089097023 -0
vn 0.791852 -0.6045191 -0.08675842
vn 0.791852 -0.30617416 0.5284201
vn 0.791852 -0.30617416 -0.5284201
vn 0.791852 0.30439222 -0.52944857
vn 0.791852 0.6096754 -0.03558512
vn 0.791852 0.30439222 0.52944857
vn 0.6600251 0.73456407 -0.15742452
vn 0.6322721 0.67211974 -0.38534018
vn 0.6322721 0.6096754 -0.4780459
vn 0.6600251 0.41540432 -0.62594414
vn 0.6322721 0.20725667 -0.7465097
vn 0.6322721 0.09624457 -0.76874506
vn 0.6600251 -0.14659429 -0.73680186
vn 0.6322721 -0.382495 -0.673743
vn 0.6322721 -0.47963053 -0.6084296
vn 0.6600251 -0.6253339 -0.41632238
vn 0.6322721 -0.75022244 -0.19338635
vn 0.6322721 -0.7710372 -0.0757206
vn 0.6600251 -0.73634595 0.14886734
vn 0.6322721 -0.6739017 0.38221532
vn 0.6322721 -0.61145735 0.47576457
vn 0.6600251 -0.41718626 0.6247579
vn 0.6322721 -0.20903862 0.7460127
vn 0.6322721 -0.098026514 0.7685199
vn 0.6600251 0.14481235 0.7371541
vn 0.6322721 0.3807131 0.67475146
vn 0.6322721 0.47784865 0.60983
vn 0.6600251 0.62355196 0.41898662
vn 0.6322721 0.7484405 0.20017193
vn 0.6322721 0.7692553 0.09207792
vn 0.99999964 -0.00089097023 -0
vn 0.99999964 -0.00089097023 -0
vn 0.99999964 -0.00089097023 -0
vn 0.99999964 -0.00089097023 -0
vn 0.99999964 -0.00089097023 -0
vn 0.99999964 -0.00089097023 -0
vn 0.99999964 -0.00089097023 -0
vn 0.99999964 -0.00089097023 -0
vn 0.99999964 -0.00089097023 -0
vn 0.791852 -0.6045191 -0.08675842
vn 0.791852 -0.30617416 0.5284201
vn 0.791852 -0.30617416 -0.5284201
vn 0.791852 0.30439222 -0.52944857
vn 0.791852 0.6096754 -0.03558512
vn 0.791852 0.30439222 0.52944857
vn 0.6600251 0.73456407 -0.15742452
vn 0.6322721 0.67211974 -0.38534018
vn 0.6322721 0.6096754 -0.4780459
vn 0.6600251 0.41540432 -0.62594414
vn 0.6322721 0.20725667 -0.7465097
vn 0.6322721 0.09624457 -0.76874506
vn 0.6600251 -0.14659429 -0.73680186
vn 0.6322721 -0.382495 -0.673743
vn 0.6322721 -0.47963053 -0.6084296
vn 0.6600251 -0.6253339 -0.41632238
vn 0.6322721 -0.75022244 -0.19338635
vn 0.6322721 -0.7710372 -0.0757206
vn 0.6600251 -0.73634595 0.14886734
vn 0.6322721 -0.6739017 0.38221532
vn 0.6322721 -0.61145735 0.47576457
vn 0.6600251 -0.41718626 0.6247579
vn 0.6322721 -0.20903862 0.7460127
vn 0.6322721 -0.098026514 0.7685199
vn 0.6600251 0.14481235 0.7371541
vn 0.6322721 0.3807131 0.67475146
vn 0.6322721 0.47784865 0.60983
vn 0.6600251 0.62355196 0.41898662
vn 0.6322721 0.7484405 0.20017193
vn 0.6322721 0.7692553 0.09207792
vn 0.99999964 -0.00089097023 -0
vn 0.99999964 -0.00089097023 -0
vn 0.99999964 -0.00089097023 -0
vn 0.99999964 -0.00089097023 -0
vn 0.99999964 -0.00089097023 -0
vn 0.99999964 -0.00089097023 -0
vn 0.99999964 -0.00089097023 -0
vn 0.99999964 -0.00089097023 -0
vn 0.99999964 -0.00089097023 -0
vn 0.791852 -0.6045191 -0.08675842
vn 0.791852 -0.30617416 0.5284201
vn 0.791852 -0.30617416 -0.5284201
vn 0.791852 0.30439222 -0.52944857
vn 0.791852 0.6096754 -0.03558512
vn 0.791852 0.30439222 0.52944857
vn 0.6600251 0.73456407 -0.15742452
vn 0.6322721 0.67211974 -0.38534018
vn 0.6322721 0.6096754 -0.4780459
vn 0.6600251 0.41540432 -0.62594414
vn 0.6322721 0.20725667 -0.7465097
vn 0.6322721 0.09624457 -0.76874506
vn 0.6600251 -0.14659429 -0.73680186
vn 0.6322721 -0.382495 -0.673743
vn 0.6322721 -0.47963053 -0.6084296
vn 0.6600251 -0.6253339 -0.41632238
vn 0.6322721 -0.75022244 -0.19338635
vn 0.6322721 -0.7710372 -0.0757206
vn 0.6600251 -0.73634595 0.14886734
vn 0.6322721 -0.6739017 0.38221532
vn 0.6322721 -0.61145735 0.47576457
vn 0.6600251 -0.41718626 0.6247579
vn 0.6322721 -0.20903862 0.7460127
vn 0.6322721 -0.098026514 0.7685199
vn 0.6600251 0.14481235 0.7371541
vn 0.6322721 0.3807131 0.67475146
vn 0.6322721 0.47784865 0.60983
vn 0.6600251 0.62355196 0.41898662
vn 0.6322721 0.7484405 0.20017193
vn 0.6322721 0.7692553 0.09207792
vn 0.99999964 -0.00089097023 -0
vn 0.99999964 -0.00089097023 -0
vn 0.99999964 -0.00089097023 -0
vn 0.99999964 -0.00089097023 -0
vn 0.99999964 -0.00089097023 -0
vn 0.99999964 -0.00089097023 -0
vn 0.99999964 -0.00089097023 -0
vn 0.99999964 -0.00089097023 -0
vn 0.99999964 -0.00089097023 -0
vn 0.791852 -0.6045191 -0.08675842
vn 0.791852 -0.30617416 0.5284201
vn 0.791852 -0.30617416 -0.5284201
vn 0.791852 0.30439222 -0.52944857
vn 0.791852 0.6096754 -0.03558512
vn 0.791852 0.30439222 0.52944857
g DragonShassisIngame_Mesh_5_CorpsePart_0
f 3/3/3 2/2/2 1/1/1
f 4/4/4 3/3/3 1/1/1
f 5/5/5 3/3/3 4/4/4
f 6/6/6 5/5/5 4/4/4
f 7/7/7 6/6/6 4/4/4
f 8/8/8 6/6/6 7/7/7
f 9/9/9 8/8/8 7/7/7
f 10/10/10 9/9/9 7/7/7
f 11/11/11 9/9/9 10/10/10
f 12/12/12 11/11/11 10/10/10
f 13/13/13 12/12/12 10/10/10
f 14/14/14 12/12/12 13/13/13
f 15/15/15 14/14/14 13/13/13
f 16/16/16 15/15/15 13/13/13
f 17/17/17 15/15/15 16/16/16
f 18/18/18 17/17/17 16/16/16
f 19/19/19 18/18/18 16/16/16
f 20/20/20 18/18/18 19/19/19
f 21/21/21 20/20/20 19/19/19
f 22/22/22 21/21/21 19/19/19
f 23/23/23 21/21/21 22/22/22
f 24/24/24 23/23/23 22/22/22
f 1/1/1 24/24/24 22/22/22
f 2/2/2 24/24/24 1/1/1
f 27/27/27 26/26/26 25/25/25
f 29/29/29 28/28/28 27/27/27
f 31/31/31 30/30/30 29/29/29
f 25/25/25 32/32/32 31/31/31
f 27/27/27 25/25/25 31/31/31
f 29/29/29 27/27/27 31/31/31
f 35/35/35 34/34/34 33/33/33
f 34/34/34 36/36/36 33/33/33
f 36/36/36 37/37/37 33/33/33
f 37/37/37 38/38/38 33/33/33
f 38/38/38 39/39/39 33/33/33
f 33/33/33 39/39/39 35/35/35
f 42/42/42 41/41/41 40/40/40
f 43/43/43 42/42/42 40/40/40
f 44/44/44 42/42/42 43/43/43
f 45/45/45 44/44/44 43/43/43
f 46/46/46 45/45/45 43/43/43
f 47/47/47 45/45/45 46/46/46
f 48/48/48 47/47/47 46/46/46
f 49/49/49 48/48/48 46/46/46
f 50/50/50 48/48/48 49/49/49
f 51/51/51 50/50/50 49/49/49
f 52/52/52 51/51/51 49/49/49
f 53/53/53 51/51/51 52/52/52
f 54/54/54 53/53/53 52/52/52
f 55/55/55 54/54/54 52/52/52
f 56/56/56 54/54/54 55/55/55
f 57/57/57 56/56/56 55/55/55
f 58/58/58 57/57/57 55/55/55
f 59/59/59 57/57/57 58/58/58
f 60/60/60 59/59/59 58/58/58
f 61/61/61 60/60/60 58/58/58
f 62/62/62 60/60/60 61/61/61
f 63/63/63 62/62/62 61/61/61
f 40/40/40 63/63/63 61/61/61
f 41/41/41 63/63/63 40/40/40
f 66/66/66 65/65/65 64/64/64
f 68/68/68 67/67/67 66/66/66
f 70/70/70 69/69/69 68/68/68
f 64/64/64 71/71/71 70/70/70
f 66/66/66 64/64/64 70/70/70
f 68/68/68 66/66/66 70/70/70
f 74/74/74 73/73/73 72/72/72
f 73/73/73 75/75/75 72/72/72
f 75/75/75 76/76/76 72/72/72
f 76/76/76 77/77/77 72/72/72
f 77/77/77 78/78/78 72/72/72
f 72/72/72 78/78/78 74/74/74
f 81/81/81 80/80/80 79/79/79
f 82/82/82 81/81/81 79/79/79
f 83/83/83 81/81/81 82/82/82
f 84/84/84 83/83/83 82/82/82
f 85/85/85 84/84/84 82/82/82
f 86/86/86 84/84/84 85/85/85
f 87/87/87 86/86/86 85/85/85
f 88/88/88 87/87/87 85/85/85
f 89/89/89 87/87/87 88/88/88
f 90/90/90 89/89/89 88/88/88
f 91/91/91 90/90/90 88/88/88
f 92/92/92 90/90/90 91/91/91
f 93/93/93 92/92/92 91/91/91
f 94/94/94 93/93/93 91/91/91
f 95/95/95 93/93/93 94/94/94
f 96/96/96 95/95/95 94/94/94
f 97/97/97 96/96/96 94/94/94
f 98/98/98 96/96/96 97/97/97
f 99/99/99 98/98/98 97/97/97
f 100/100/100 99/99/99 97/97/97
f 101/101/101 99/99/99 100/100/100
f 102/102/102 101/101/101 100/100/100
f 79/79/79 102/102/102 100/100/100
f 80/80/80 102/102/102 79/79/79
f 105/105/105 104/104/104 103/103/103
f 107/107/107 106/106/106 105/105/105
f 109/109/109 108/108/108 107/107/107
f 103/103/103 110/110/110 109/109/109
f 105/105/105 103/103/103 109/109/109
f 107/107/107 105/105/105 109/109/109
f 113/113/113 112/112/112 111/111/111
f 112/112/112 114/114/114 111/111/111
f 114/114/114 115/115/115 111/111/111
f 115/115/115 116/116/116 111/111/111
f 116/116/116 117/117/117 111/111/111
f 111/111/111 117/117/117 113/113/113
f 120/120/120 119/119/119 118/118/118
f 121/121/121 120/120/120 118/118/118
f 122/122/122 120/120/120 121/121/121
f 123/123/123 122/122/122 121/121/121
f 124/124/124 123/123/123 121/121/121
f 125/125/125 123/123/123 124/124/124
f 126/126/126 125/125/125 124/124/124
f 127/127/127 126/126/126 124/124/124
f 128/128/128 126/126/126 127/127/127
f 129/129/129 128/128/128 127/127/127
f 130/130/130 129/129/129 127/127/127
f 131/131/131 129/129/129 130/130/130
f 132/132/132 131/131/131 130/130/130
f 133/133/133 132/132/132 130/130/130
f 134/134/134 132/132/132 133/133/133
f 135/135/135 134/134/134 133/133/133
f 136/136/136 135/135/135 133/133/133
f 137/137/137 135/135/135 136/136/136
f 138/138/138 137/137/137 136/136/136
f 139/139/139 138/138/138 136/136/136
f 140/140/140 138/138/138 139/139/139
f 141/141/141 140/140/140 139/139/139
f 118/118/118 141/141/141 139/139/139
f 119/119/119 141/141/141 118/118/118
f 144/144/144 143/143/143 142/142/142
f 146/146/146 145/145/145 144/144/144
f 148/148/148 147/147/147 146/146/146
f 142/142/142 149/149/149 148/148/148
f 144/144/144 142/142/142 148/148/148
f 146/146/146 144/144/144 148/148/148
f 152/152/152 151/151/151 150/150/150
f 151/151/151 153/153/153 150/150/150
f 153/153/153 154/154/154 150/150/150
f 154/154/154 155/155/155 150/150/150
f 155/155/155 156/156/156 150/150/150
f 150/150/150 156/156/156 152/152/152
