g DragonTurret5_CorpsePart
v 0.25313056 0.15819529 0.07926825
v -0.1615952 0.15819529 -0.012993604
v -0.16916779 -0.051276 -0.045293003
v 0.27368468 -0.051276 0.053216785
v -0.49229404 0.15819529 0.25374672
v -0.5222753 -0.051276 0.23950669
v -0.48995385 0.15819529 0.67860603
v -0.5197805 -0.051276 0.6931772
v -0.1563187 0.15819529 0.94165945
v -0.16353807 -0.051276 0.9740691
v -0.1563187 0.15819529 0.94165945
v 0.25734735 0.15819529 0.8448496
v 0.2781885 -0.051276 0.8706802
v -0.16353807 -0.051276 0.9740691
v 0.43959707 0.15819529 0.4610323
v 0.47277954 -0.051276 0.4608557
v 0.25313056 0.15819529 0.07926825
v 0.43959707 0.15819529 0.4610323
v -0.03866771 0.15819529 0.46403483
v 0.27368468 -0.051276 0.053216785
v -0.16916779 -0.051276 -0.045293003
v -0.14117351 -0.051276 0.074300796
v 0.19762772 -0.051276 0.14965132
v -0.1615952 0.15819529 -0.012993604
v -0.5222753 -0.051276 0.23950669
v -0.41133586 -0.051276 0.2921836
v -0.49229404 0.15819529 0.25374672
v -0.5197805 -0.051276 0.6931772
v -0.4094151 -0.051276 0.639264
v -0.48995385 0.15819529 0.67860603
v -0.16353807 -0.051276 0.9740691
v -0.13686845 -0.051276 0.85416627
v -0.1563187 0.15819529 0.94165945
v -0.16353807 -0.051276 0.9740691
v 0.2781885 -0.051276 0.8706802
v 0.20109388 -0.051276 0.7750627
v -0.13686845 -0.051276 0.85416627
v -0.1563187 0.15819529 0.94165945
v -0.03866771 0.15819529 0.46403483
v 0.25734735 0.15819529 0.8448496
v 0.47277954 -0.051276 0.4608557
v 0.34996244 -0.051276 0.46154007
vt 0.69676673 0.41499248
vt 0.69676673 0.42716002
vt 0.70221007 0.42716002
vt 0.70221007 0.41499248
vt 0.69676673 0.43964773
vt 0.70221007 0.43964773
vt 0.69676673 0.45181525
vt 0.70221007 0.45181525
vt 0.69676673 0.46398276
vt 0.70221007 0.46398276
vt 0.69676673 0.37816972
vt 0.69676673 0.39033723
vt 0.70221007 0.39033723
vt 0.70221007 0.37816972
vt 0.69676673 0.40282497
vt 0.70221007 0.40282497
vt 0.69676673 0.41499248
vt 0.69676673 0.40282497
vt 0.69420516 0.43356398
vt 0.70221007 0.41499248
vt 0.70221007 0.42716002
vt 0.7057322 0.42716002
vt 0.7057322 0.41499248
vt 0.69676673 0.42716002
vt 0.70221007 0.43964773
vt 0.7057322 0.43964773
vt 0.69676673 0.43964773
vt 0.70221007 0.45181525
vt 0.7057322 0.45181525
vt 0.69676673 0.45181525
vt 0.70221007 0.46398276
vt 0.7057322 0.46398276
vt 0.69676673 0.46398276
vt 0.70221007 0.37816972
vt 0.70221007 0.39033723
vt 0.7057322 0.39033723
vt 0.7057322 0.37816972
vt 0.69676673 0.37816972
vt 0.69420516 0.38425347
vt 0.69676673 0.39033723
vt 0.70221007 0.40282497
vt 0.7057322 0.40282497
vn 0.6078385 0.15293992 -0.77919304
vn -0.22352767 0.15293992 -0.9626239
vn -0.22352767 0.15293992 -0.9626239
vn 0.6078385 0.15293992 -0.77919304
vn -0.8901892 0.15293992 -0.42915335
vn -0.8901892 0.15293992 -0.42915335
vn -0.8901892 0.15293992 0.42915335
vn -0.8901892 0.15293992 0.42915335
vn -0.21568453 0.15293992 0.9644115
vn -0.21568453 0.15293992 0.9644115
vn -0.21568453 0.15293992 0.9644115
vn 0.62352467 0.15293992 0.7666984
vn 0.62352467 0.15293992 0.7666984
vn -0.21568453 0.15293992 0.9644115
vn 0.9843062 0.15293992 -0.088037856
vn 0.9843062 0.15293992 -0.088037856
vn -0.003921509 0.99999225 -0.00034526698
vn -0.003921509 0.99999225 -0.00034526698
vn -0.003921509 0.99999225 -0.00034526698
vn -0.003921509 -0.9999924 -0
vn -0.003921509 -0.9999924 -0
vn -0.003921509 -0.9999924 -0
vn -0.003921509 -0.9999924 -0
vn -0.003921509 0.99999225 -0.00034526698
vn -0.003921509 -0.9999924 -0
vn -0.003921509 -0.9999924 -0
vn -0.003921509 0.99999225 -0.00034526698
vn -0.003921509 -0.9999924 -0
vn -0.003921509 -0.9999924 -0
vn -0.003921509 0.99999225 -0.00034526698
vn -0.003921509 -0.9999924 -0
vn -0.003921509 -0.9999924 -0
vn -0.003921509 0.99999225 -0.00034526698
vn -0.003921509 -0.9999924 -0
vn -0.003921509 -0.9999924 -0
vn -0.003921509 -0.9999924 -0
vn -0.003921509 -0.9999924 -0
vn -0.003921509 0.99999225 -0.00034526698
vn -0.003921509 0.99999225 -0.00034526698
vn -0.003921509 0.99999225 -0.00034526698
vn -0.003921509 -0.9999924 -0
vn -0.003921509 -0.9999924 -0
g DragonTurret5_CorpsePart_0
f 3/3/3 2/2/2 1/1/1
f 4/4/4 3/3/3 1/1/1
f 6/6/6 5/5/5 2/2/2
f 3/3/3 6/6/6 2/2/2
f 8/8/8 7/7/7 5/5/5
f 6/6/6 8/8/8 5/5/5
f 10/10/10 9/9/9 7/7/7
f 8/8/8 10/10/10 7/7/7
f 13/13/13 12/12/12 11/11/11
f 14/14/14 13/13/13 11/11/11
f 16/16/16 15/15/15 12/12/12
f 13/13/13 16/16/16 12/12/12
f 16/16/16 4/4/4 1/1/1
f 15/15/15 16/16/16 1/1/1
f 19/19/19 18/18/18 17/17/17
f 22/22/22 21/21/21 20/20/20
f 23/23/23 22/22/22 20/20/20
f 24/24/24 19/19/19 17/17/17
f 26/26/26 25/25/25 21/21/21
f 22/22/22 26/26/26 21/21/21
f 27/27/27 19/19/19 24/24/24
f 29/29/29 28/28/28 25/25/25
f 26/26/26 29/29/29 25/25/25
f 30/30/30 19/19/19 27/27/27
f 32/32/32 31/31/31 28/28/28
f 29/29/29 32/32/32 28/28/28
f 33/33/33 19/19/19 30/30/30
f 36/36/36 35/35/35 34/34/34
f 37/37/37 36/36/36 34/34/34
f 40/40/40 39/39/39 38/38/38
f 42/42/42 41/41/41 35/35/35
f 36/36/36 42/42/42 35/35/35
f 18/18/18 19/19/19 40/40/40
f 42/42/42 23/23/23 20/20/20
f 41/41/41 42/42/42 20/20/20
