g DragonShassisIngame_DefaultPart4_CorpsePart
v 0.6398039 -0.61597157 1.0101177
v 0.58132756 -0.61591345 1.0103211
v 0.58039755 -0.5627849 0.95504177
v 0.6379148 -0.56281394 0.9548675
v 0.6399201 -0.7155441 1.0531902
v 0.58138573 -0.715486 1.0533936
v 0.58039755 -0.5627849 0.95504177
v 0.565575 -0.59777766 0.8926128
v 0.64843583 -0.5978358 0.8924384
v 0.6379148 -0.56281394 0.9548675
v 0.5536007 -0.5627558 0.95509994
v 0.5669701 -0.57531136 0.9485897
v 0.5679001 -0.6245454 0.99918973
v 0.5545598 -0.6158844 1.0104083
v 0.5679001 -0.6245454 0.99918973
v 0.5669701 -0.57531136 0.9485897
v 0.56795824 -0.71502095 1.0405184
v 0.554618 -0.7154569 1.0534809
v 0.56795824 -0.71502095 1.0405184
v 0.5669701 -0.57531136 0.9485897
v 0.5669701 -0.57531136 0.9485897
v 0.5536007 -0.5627558 0.95509994
v 0.567377 -0.80465364 1.0397918
v 0.5274433 -0.8512138 1.0527833
v 0.567377 -0.80465364 1.0397918
v 0.6107401 -0.8511847 1.0525217
v 0.6513132 -0.5753695 0.94832814
v 0.6531442 -0.6246326 0.9988991
v 0.6666007 -0.61600065 1.0100305
v 0.6531442 -0.6246326 0.9988991
v 0.6513132 -0.5753695 0.94832814
v 0.66471153 -0.562843 0.9548093
v 0.6532895 -0.71510816 1.0402278
v 0.66671693 -0.7155732 1.053103
v 0.6532895 -0.71510816 1.0402278
v 0.66471153 -0.562843 0.9548093
v 0.6513132 -0.5753695 0.94832814
v 0.6513132 -0.5753695 0.94832814
v 0.6520688 -0.80462456 1.0395012
v 0.6520688 -0.80462456 1.0395012
v 0.6942985 -0.8511847 1.0522602
v 0.49355498 -0.59059894 0.6964904
v 0.727344 -0.590192 0.6965486
v 0.72833216 -0.6044623 0.8912178
v 0.7290297 -0.56301737 0.95129263
v 0.71798545 -0.26435804 0.15166092
v 0.49335152 -0.2646196 0.15163183
v 0.4936131 -0.30690742 0.18191624
v 0.71903175 -0.3066749 0.18191624
v 0.713684 -0.07971585 0.09347522
v 0.48942792 -0.07983208 0.093446136
v 0.71295744 -0.045129955 0.10643762
v 0.49134612 -0.04527527 0.106408596
v 0.7137712 -0.02478528 0.44125235
v 0.49355498 -0.024930596 0.44122326
v 0.49358404 -0.022605538 0.13547236
v 0.7125796 -0.022402048 0.13555956
v 0.71493375 -0.06620121 0.5075469
v 0.49355498 -0.06631744 0.50745964
v 0.7290297 -0.56301737 0.95129263
v 0.73007596 -0.6204474 1.0043631
v 0.49355498 -0.5626977 0.9595176
v 0.49355498 -0.62004054 1.0051478
v 0.4935259 -0.71510816 1.0469124
v 0.7319651 -0.7153988 1.0460405
v 0.49355498 -0.5626977 0.9595176
v 0.49355498 -0.6044623 0.8916538
v 0.732808 -0.81994116 1.0410706
v 0.7301341 -0.75780284 0.46988022
v 0.49343872 -0.7582097 0.4699093
v 0.49343872 -0.7980562 0.5305363
v 0.73123854 -0.79753304 0.5304781
v 0.7205431 -0.35271192 0.3169757
v 0.49343872 -0.35300255 0.3169757
v 0.7197293 -0.33041996 0.22934842
v 0.49343872 -0.33071065 0.22940648
v 0.49343872 -0.35300255 0.3169757
v 0.7205431 -0.35271192 0.3169757
v 0.49358404 -0.022605538 0.13547236
v 0.49343872 -0.33071065 0.22940648
v 0.49335152 -0.2646196 0.15163183
v 0.48942792 -0.07983208 0.093446136
v 0.49355498 -0.6044623 0.8916538
v 0.49355498 -0.5626977 0.9595176
v 0.49355498 -0.62004054 1.0051478
v 0.49343872 -0.7980562 0.5305363
v 0.49343872 -0.7582097 0.4699093
v 0.49355498 -0.59059894 0.6964904
v 0.71798545 -0.26435804 0.15166092
v 0.71903175 -0.3066749 0.18191624
v 0.7197293 -0.33041996 0.22934842
v 0.4935259 -0.71510816 1.0469124
v 0.49346778 -0.7973877 1.0078797
v 0.7330114 -0.79744583 1.0071241
v 0.732808 -0.81994116 1.0410706
v 0.7319651 -0.7153988 1.0460405
v 0.73007596 -0.6204474 1.0043631
v 0.72833216 -0.6044623 0.8912178
v 0.7326336 -0.79747486 0.9020586
v 0.7301341 -0.75780284 0.46988022
v 0.727344 -0.590192 0.6965486
v 0.7205431 -0.35271192 0.3169757
v 0.73123854 -0.79753304 0.5304781
v 0.7137712 -0.02478528 0.44125235
v 0.7125796 -0.022402048 0.13555956
v 0.49343872 -0.35300255 0.3169757
v 0.49355498 -0.06631744 0.50745964
v 0.49355498 -0.024930596 0.44122326
v 0.71493375 -0.06620121 0.5075469
v 0.49134612 -0.04527527 0.106408596
v 0.4936131 -0.30690742 0.18191624
v 0.71295744 -0.045129955 0.10643762
v 0.713684 -0.07971585 0.09347522
v 0.49346778 -0.79753304 0.90263987
v 0.7326336 -0.79747486 0.9020586
v 0.49346778 -0.7973877 1.0078797
v 0.5274433 -0.8512138 1.0527833
v 0.566941 -0.80465364 1.0080832
v 0.567377 -0.80465364 1.0397918
v 0.566941 -0.80465364 1.0080832
v 0.567377 -0.80465364 1.0397918
v 0.6107401 -0.8511847 1.0525217
v 0.65116787 -0.80465364 1.0078508
v 0.6520688 -0.80462456 1.0395012
v 0.65116787 -0.80465364 1.0078508
v 0.6520688 -0.80462456 1.0395012
v 0.6942985 -0.8511847 1.0522602
v 0.7330114 -0.79744583 1.0071241
v 0.49349684 -0.81999934 1.0418844
v 0.49349684 -0.81999934 1.0418844
v 0.732808 -0.81994116 1.0410706
v 0.49349684 -0.81999934 1.0418844
v 0.7290297 -0.56301737 0.95129263
v 0.49346778 -0.79753304 0.90263987
v 0.65116787 -0.80465364 1.0078508
v 0.7330114 -0.79744583 1.0071241
v 0.566941 -0.80465364 1.0080832
v 0.49346778 -0.7973877 1.0078797
vt 0.86948067 0.38787046
vt 0.86755615 0.38787046
vt 0.86755615 0.3902761
vt 0.86948067 0.3902761
vt 0.86948067 0.38450256
vt 0.86755615 0.38450256
vt 0.86755615 0.3902761
vt 0.867075 0.39268175
vt 0.8699618 0.39268175
vt 0.86948067 0.3902761
vt 0.8665939 0.3902761
vt 0.867075 0.3902761
vt 0.867075 0.38787046
vt 0.8665939 0.38787046
vt 0.867075 0.38787046
vt 0.867075 0.3902761
vt 0.867075 0.38450256
vt 0.8665939 0.38450256
vt 0.867075 0.38450256
vt 0.867075 0.3902761
vt 0.867075 0.3902761
vt 0.8665939 0.3902761
vt 0.867075 0.3816158
vt 0.86563164 0.3801724
vt 0.867075 0.3816158
vt 0.8685184 0.3801724
vt 0.8699618 0.3902761
vt 0.8699618 0.38787046
vt 0.8704429 0.38787046
vt 0.8699618 0.38787046
vt 0.8699618 0.3902761
vt 0.8704429 0.3902761
vt 0.8699618 0.38450256
vt 0.8704429 0.38450256
vt 0.8699618 0.38450256
vt 0.8704429 0.3902761
vt 0.8699618 0.3902761
vt 0.8699618 0.3902761
vt 0.8699618 0.3816158
vt 0.8699618 0.3816158
vt 0.8714052 0.3801724
vt 0.8646694 0.3979742
vt 0.87236744 0.3979742
vt 0.87236744 0.39268175
vt 0.87236744 0.3902761
vt 0.87236744 0.43742675
vt 0.8646694 0.43742675
vt 0.8646694 0.4393513
vt 0.87236744 0.4393513
vt 0.87236744 0.43117207
vt 0.8646694 0.43117207
vt 0.87236744 0.43020982
vt 0.8646694 0.43020982
vt 0.87236744 0.41914386
vt 0.8646694 0.41914386
vt 0.8646694 0.42876643
vt 0.87236744 0.42876643
vt 0.87236744 0.41625708
vt 0.8646694 0.41625708
vt 0.87236744 0.3902761
vt 0.87236744 0.38787046
vt 0.8646694 0.3902761
vt 0.8646694 0.38787046
vt 0.8646694 0.38450256
vt 0.87236744 0.38450256
vt 0.8646694 0.3902761
vt 0.8646694 0.39268175
vt 0.87236744 0.38113466
vt 0.87236744 0.45763418
vt 0.8646694 0.45763418
vt 0.8646694 0.46052095
vt 0.87236744 0.46052095
vt 0.87236744 0.44368145
vt 0.8646694 0.44368145
vt 0.87236744 0.4412758
vt 0.8646694 0.4412758
vt 0.8646694 0.44368145
vt 0.87236744 0.44368145
vt 0.82136774 0.4874642
vt 0.8242545 0.47784162
vt 0.82184887 0.48024726
vt 0.81992435 0.4860208
vt 0.8454242 0.46870014
vt 0.8473487 0.47014356
vt 0.8487921 0.468219
vt 0.8338771 0.4629266
vt 0.8319526 0.46436998
vt 0.83965063 0.46918127
vt 0.82184887 0.47976613
vt 0.8228111 0.47880387
vt 0.8242545 0.47784162
vt 0.8497544 0.46533224
vt 0.8487921 0.4629266
vt 0.8487921 0.4629266
vt 0.8497544 0.46244547
vt 0.8497544 0.46533224
vt 0.8487921 0.468219
vt 0.8454242 0.46870014
vt 0.8454242 0.4629266
vt 0.8319526 0.46436998
vt 0.83965063 0.46918127
vt 0.82666016 0.4773605
vt 0.8338771 0.4629266
vt 0.8309903 0.4874642
vt 0.82136774 0.4874642
vt 0.82666016 0.4773605
vt 0.8329148 0.4860208
vt 0.8309903 0.4874642
vt 0.8329148 0.4860208
vt 0.8204055 0.48698306
vt 0.8228111 0.47880387
vt 0.8204055 0.48698306
vt 0.81992435 0.4860208
vt 0.8646694 0.47206807
vt 0.87236744 0.47206807
vt 0.8646694 0.47543597
vt 0.86563164 0.4773605
vt 0.867075 0.47543597
vt 0.867075 0.47687936
vt 0.867075 0.47543597
vt 0.867075 0.47687936
vt 0.8685184 0.4773605
vt 0.8699618 0.47543597
vt 0.8699618 0.47687936
vt 0.8699618 0.47543597
vt 0.8699618 0.47687936
vt 0.8714052 0.4773605
vt 0.87236744 0.47543597
vt 0.8497544 0.46244547
vt 0.8646694 0.38113466
vt 0.87236744 0.47639823
vt 0.8646694 0.47639823
vt 0.8473487 0.47014356
vt 0.8454242 0.4629266
vt 0.8699618 0.47543597
vt 0.87236744 0.47543597
vt 0.867075 0.47543597
vt 0.8646694 0.47543597
vn 0.16861886 0.5372535 0.8263936
vn -0.1607883 0.5372535 0.8279528
vn -0.1607883 0.7098001 0.6858068
vn 0.16077584 0.71764314 0.6775983
vn 0.19999099 0.20000339 0.9591675
vn -0.19216037 0.19216037 0.9623662
vn -0.019613743 0.87450373 -0.48462203
vn -0.019610127 0.9998078 -0
vn 0.011757607 0.99993086 -0
vn 0.027444363 0.87450373 -0.48424172
vn 0.1450898 0.67842805 0.72019744
vn 0.71763074 0.5058814 0.47863355
vn 0.7097877 0.38823605 0.5877705
vn 0.10587466 0.52156746 0.8466156
vn -0.7019571 0.38039303 0.6021274
vn -0.71764314 0.4980384 0.48677108
vn 0.59214234 0.09020102 0.80076915
vn 0.12156069 0.20000339 0.9722251
vn -0.5686257 0.09020102 0.817636
vn -0.5764687 0.76470137 -0.2879508
vn 0.5607702 0.76470137 -0.31744066
vn -0.035299778 0.8588177 -0.51106364
vn 0.48233998 -0.06665951 0.87344414
vn 0.050973475 -0.027444363 0.99832284
vn -0.4509803 -0.06665951 0.8900412
vn -0.0039277077 -0.050973475 0.9986923
vn 0.71763074 0.51372445 0.4702056
vn 0.7097877 0.38823605 0.5877705
vn -0.074514985 0.5372535 0.8401227
vn -0.7019571 0.38039303 0.6021274
vn -0.71764314 0.4901954 0.4946684
vn -0.082358 0.7019571 0.70744145
vn 0.5842993 0.09020102 0.80650985
vn -0.105887055 0.2078464 0.9724134
vn -0.5686257 0.09020102 0.817636
vn 0.00391531 0.8509747 -0.5251921
vn -0.5843117 0.76470137 -0.271683
vn 0.5529272 0.76470137 -0.33091286
vn 0.4744969 -0.06665951 0.8777296
vn -0.45882332 -0.058816493 0.8865787
vn -0.035299778 -0.027444363 0.9989999
vn -0.0039277077 0.4980384 0.8671461
vn 0.00391531 0.4980384 0.86714613
vn 0.058816493 0.9843061 -0.16637947
vn 0.019601345 0.84313166 -0.5373498
vn 0.00391531 -0.36469454 -0.93111897
vn 0.00391531 -0.36469454 -0.93111897
vn 0.00391531 -0.7646889 -0.6443878
vn 0.00391531 -0.7646889 -0.6443878
vn 0.00391531 -0.207834 -0.97815627
vn 0.00391531 -0.207834 -0.97815627
vn -0.0039277077 0.59215474 -0.8058147
vn -0.0039277077 0.5843117 -0.81151974
vn -0.0039277077 0.9921491 0.12499881
vn -0.0039277077 0.9921491 0.12499881
vn -0.0039277077 0.99999213 -0.00054591504
vn -0.0039277077 0.99999213 -0.00054591504
vn -0.0039277077 0.4117651 0.9112816
vn -0.0039277077 0.4117651 0.9112816
vn 0.07450253 0.7019571 0.7083118
vn 0.09018862 0.5294105 0.84355825
vn -0.02745676 0.67058504 0.74132437
vn -0.074514985 0.51372445 0.85471326
vn -0.11373007 0.26274765 0.9581384
vn 0.113717675 0.26274765 0.95813984
vn -0.05882895 0.8588177 -0.50889224
vn -0.082358 0.9843061 -0.1560727
vn 0.30979335 -0.043130457 0.94982517
vn 0.00391531 -0.4352818 -0.9002858
vn 0.00391531 -0.4352818 -0.9002858
vn 0.00391531 -0.9921367 -0.1250977
vn 0.00391531 -0.9921367 -0.1250977
vn 0.00391531 -0.35685152 -0.9341529
vn 0.00391531 -0.35685152 -0.9341529
vn 0.00391531 -0.94507855 -0.32681987
vn 0.00391531 -0.94507855 -0.32681987
vn 0.00391531 -0.9686076 -0.24856381
vn 0.00391531 -0.9686076 -0.24856381
vn -0.99999213 0.0039277077 -0.00055564276
vn -0.99999213 0.0039277077 -0.00055564276
vn -0.99999213 0.0039277077 -0.00055564276
vn -0.99999213 0.0039277077 -0.00055564276
vn -0.99999213 0.0039277077 -0.00055564276
vn -0.99999213 0.0039277077 -0.00055564276
vn -0.99999213 0.0039277077 -0.00055564276
vn -0.99999213 0.0039277077 -0.00055564276
vn -0.99999213 0.0039277077 -0.00055564276
vn -0.99999213 0.0039277077 -0.00055564276
vn 0.9998077 0.01961037 -0
vn 0.9998077 0.01961037 -0
vn 0.9998077 0.01961037 -0
vn -0.99999213 0.0039277077 -0.00055564276
vn -0.99999213 0.0039277077 -0.00055564276
vn 0.9998077 0.01961037 -0
vn 0.99997973 0.0039277077 0.0050104163
vn 0.9998077 0.01961037 -0
vn 0.9998077 0.01961037 -0
vn 0.9998077 0.01961037 -0
vn 0.9998077 0.01961037 -0
vn 0.9998077 0.01961037 -0
vn 0.9998077 0.01961037 -0
vn 0.9998077 0.01961037 -0
vn 0.9998077 0.01961037 -0
vn 0.9998077 0.01961037 -0
vn 0.9998077 0.01961037 -0
vn -0.99999213 0.0039277077 -0.00055564276
vn -0.99999213 0.0039277077 -0.00055564276
vn -0.99999213 0.0039277077 -0.00055564276
vn 0.9998077 0.01961037 -0
vn -0.9993775 0.035278082 -0
vn -0.99993086 -0.011757607 -0
vn 0.9998077 0.01961037 -0
vn 0.9998077 0.01961037 -0
vn -0.0039277077 -0.99997973 -0.0050093466
vn 0.00391531 -0.99997973 -0.0050212312
vn -0.12941611 -0.67841566 -0.7231899
vn -0.011770725 -0.7333168 -0.67978525
vn 0.16861886 -0.7490029 -0.6407514
vn 0.7562064 -0.6543332 -0
vn -0.22353244 -0.772532 -0.5943295
vn -0.7333292 -0.67841566 0.044502623
vn 0.00391531 -0.7646889 -0.6443878
vn 0.21567702 -0.7646889 -0.60723495
vn 0.74115986 -0.67057264 -0.03184936
vn -0.1607883 -0.7568459 -0.63350725
vn -0.7411722 -0.67057264 0.03156173
vn 0.0117583275 -0.72547376 -0.68814933
vn 0.113717675 -0.6862587 -0.71841305
vn -0.99999213 0.0039277077 -0.00055564276
vn -0.34117782 -0.043130457 0.9390087
vn 0.45881087 -0.74115986 -0.49007615
vn -0.5058814 -0.71763074 -0.47863358
vn 0.99997973 0.0039277077 -0.0050104163
vn -0.99999213 0.0039277077 -0.00055564276
vn 0.011757753 -0.99993086 -0
vn 0.09018862 -0.9921367 -0.086779885
vn -0.011770149 -0.99993074 -0
vn -0.09804404 -0.9921367 0.077795476
g DragonShassisIngame_DefaultPart4_CorpsePart_0
f 3/3/3 2/2/2 1/1/1
f 4/4/4 3/3/3 1/1/1
f 2/2/2 6/6/6 5/5/5
f 1/1/1 2/2/2 5/5/5
f 9/9/9 8/8/8 7/7/7
f 10/10/10 9/9/9 7/7/7
f 13/13/13 12/12/12 11/11/11
f 14/14/14 13/13/13 11/11/11
f 16/16/16 15/15/15 2/2/2
f 3/3/3 16/16/16 2/2/2
f 17/17/17 13/13/13 14/14/14
f 18/18/18 17/17/17 14/14/14
f 15/15/15 19/19/19 6/6/6
f 2/2/2 15/15/15 6/6/6
f 8/8/8 20/20/20 7/7/7
f 22/22/22 21/21/21 8/8/8
f 23/23/23 17/17/17 18/18/18
f 24/24/24 23/23/23 18/18/18
f 6/6/6 19/19/19 25/25/25
f 26/26/26 6/6/6 25/25/25
f 28/28/28 27/27/27 4/4/4
f 1/1/1 28/28/28 4/4/4
f 31/31/31 30/30/30 29/29/29
f 32/32/32 31/31/31 29/29/29
f 33/33/33 28/28/28 1/1/1
f 5/5/5 33/33/33 1/1/1
f 30/30/30 35/35/35 34/34/34
f 29/29/29 30/30/30 34/34/34
f 9/9/9 37/37/37 36/36/36
f 10/10/10 38/38/38 9/9/9
f 39/39/39 33/33/33 5/5/5
f 26/26/26 39/39/39 5/5/5
f 34/34/34 35/35/35 40/40/40
f 41/41/41 34/34/34 40/40/40
f 42/42/42 8/8/8 9/9/9
f 43/43/43 42/42/42 9/9/9
f 36/36/36 45/45/45 44/44/44
f 9/9/9 36/36/36 44/44/44
f 48/48/48 47/47/47 46/46/46
f 49/49/49 48/48/48 46/46/46
f 47/47/47 51/51/51 50/50/50
f 46/46/46 47/47/47 50/50/50
f 51/51/51 53/53/53 52/52/52
f 50/50/50 51/51/51 52/52/52
f 56/56/56 55/55/55 54/54/54
f 57/57/57 56/56/56 54/54/54
f 55/55/55 59/59/59 58/58/58
f 54/54/54 55/55/55 58/58/58
f 61/61/61 60/60/60 32/32/32
f 29/29/29 61/61/61 32/32/32
f 14/14/14 11/11/11 62/62/62
f 63/63/63 14/14/14 62/62/62
f 64/64/64 18/18/18 14/14/14
f 63/63/63 64/64/64 14/14/14
f 34/34/34 65/65/65 61/61/61
f 29/29/29 34/34/34 61/61/61
f 67/67/67 66/66/66 22/22/22
f 8/8/8 67/67/67 22/22/22
f 41/41/41 68/68/68 65/65/65
f 9/9/9 44/44/44 43/43/43
f 42/42/42 67/67/67 8/8/8
f 59/59/59 42/42/42 43/43/43
f 58/58/58 59/59/59 43/43/43
f 71/71/71 70/70/70 69/69/69
f 72/72/72 71/71/71 69/69/69
f 70/70/70 74/74/74 73/73/73
f 69/69/69 70/70/70 73/73/73
f 77/77/77 76/76/76 75/75/75
f 78/78/78 77/77/77 75/75/75
f 76/76/76 48/48/48 49/49/49
f 75/75/75 76/76/76 49/49/49
f 53/53/53 56/56/56 57/57/57
f 52/52/52 53/53/53 57/57/57
f 81/81/81 80/80/80 79/79/79
f 82/82/82 81/81/81 79/79/79
f 85/85/85 84/84/84 83/83/83
f 88/88/88 87/87/87 86/86/86
f 91/91/91 90/90/90 89/89/89
f 93/93/93 92/92/92 85/85/85
f 96/96/96 95/95/95 94/94/94
f 99/99/99 98/98/98 97/97/97
f 94/94/94 99/99/99 97/97/97
f 102/102/102 101/101/101 100/100/100
f 103/103/103 101/101/101 98/98/98
f 99/99/99 103/103/103 98/98/98
f 91/91/91 105/105/105 104/104/104
f 102/102/102 91/91/91 104/104/104
f 88/88/88 107/107/107 106/106/106
f 87/87/87 88/88/88 106/106/106
f 79/79/79 80/80/80 106/106/106
f 108/108/108 79/79/79 106/106/106
f 102/102/102 104/104/104 109/109/109
f 107/107/107 108/108/108 106/106/106
f 79/79/79 110/110/110 82/82/82
f 81/81/81 111/111/111 80/80/80
f 105/105/105 113/113/113 112/112/112
f 91/91/91 89/89/89 113/113/113
f 105/105/105 91/91/91 113/113/113
f 114/114/114 71/71/71 72/72/72
f 115/115/115 114/114/114 72/72/72
f 100/100/100 101/101/101 103/103/103
f 102/102/102 109/109/109 101/101/101
f 118/118/118 117/117/117 116/116/116
f 117/117/117 118/118/118 119/119/119
f 122/122/122 121/121/121 120/120/120
f 120/120/120 123/123/123 122/122/122
f 122/122/122 123/123/123 124/124/124
f 127/127/127 126/126/126 125/125/125
f 128/128/128 127/127/127 125/125/125
f 93/93/93 129/129/129 92/92/92
f 97/97/97 96/96/96 94/94/94
f 64/64/64 130/130/130 24/24/24
f 24/24/24 18/18/18 64/64/64
f 6/6/6 26/26/26 5/5/5
f 34/34/34 41/41/41 65/65/65
f 127/127/127 128/128/128 131/131/131
f 117/117/117 132/132/132 116/116/116
f 98/98/98 133/133/133 97/97/97
f 83/83/83 134/134/134 93/93/93
f 85/85/85 83/83/83 93/93/93
f 115/115/115 136/136/136 135/135/135
f 135/135/135 137/137/137 114/114/114
f 115/115/115 135/135/135 114/114/114
f 138/138/138 114/114/114 137/137/137
f 134/134/134 83/83/83 88/88/88
f 86/86/86 134/134/134 88/88/88
