g DragonShassisIngame_Mesh_4
v -0.41968894 0.08353418 1.5693147
v -0.41968894 -0.08353925 1.5693147
v -0.41968894 -0.21552151 1.4869254
v -0.41968894 0.21554828 1.4869254
v -0.41968894 -0.21552151 -0.43706432
v -0.41968894 -0.08353925 -0.51942176
v -0.41968894 0.08353418 -0.51942176
v -0.41968894 0.21554828 -0.43706432
v -0.41968894 -0.27132952 1.3369036
v -0.41968894 0.27132446 1.3369036
v -0.41968894 -0.27132952 -0.28704244
v -0.41968894 0.27132446 -0.28704244
v 0.41969404 0.08353418 1.5693147
v 0.41969404 0.21554828 1.4869254
v 0.41969404 -0.21552151 1.4869254
v 0.41969404 -0.08353925 1.5693147
v 0.41969404 -0.21552151 -0.43706432
v 0.41969404 0.21554828 -0.43706432
v 0.41969404 0.08353418 -0.51942176
v 0.41969404 -0.08353925 -0.51942176
v 0.41969404 0.27132446 1.3369036
v 0.41969404 -0.27132952 1.3369036
v 0.41969404 0.27132446 -0.28704244
v 0.41969404 -0.27132952 -0.28704244
vt 0.77401197 0.38689435
vt 0.77401197 0.38239297
vt 0.7767128 0.37879187
vt 0.7767128 0.39049542
vt 0.8352305 0.37879187
vt 0.8379314 0.38239297
vt 0.8379314 0.38689435
vt 0.8352305 0.39049542
vt 0.7812141 0.37744147
vt 0.7812141 0.39184585
vt 0.8307292 0.37744147
vt 0.8307292 0.39184585
vt 0.77401197 0.38689435
vt 0.7767128 0.39049542
vt 0.7767128 0.37879187
vt 0.77401197 0.38239297
vt 0.8352305 0.37879187
vt 0.8352305 0.39049542
vt 0.8379314 0.38689435
vt 0.8379314 0.38239297
vt 0.7812141 0.39184585
vt 0.7812141 0.37744147
vt 0.8307292 0.39184585
vt 0.8307292 0.37744147
vn -0.99999225 0.003921509 -0.00034492963
vn -0.99999225 0.003921509 -0.00034492963
vn -0.99999225 0.003921509 -0.00034492963
vn -0.99999225 0.003921509 -0.00034492963
vn -0.99999225 0.003921509 -0.00034492963
vn -0.99999225 -0.0039215684 -0.00034425134
vn -0.99999225 -0.0039215684 -0.00034425134
vn -0.99999225 0.003921509 -0.00034492963
vn -0.99999225 0.003921509 -0.00034492963
vn -0.99999225 0.003921509 -0.00034492963
vn -0.99999225 0.003921509 -0.00034492963
vn -0.99999225 0.003921509 -0.00034492963
vn 0.9999924 0.003921509 -0
vn 0.9999924 0.003921509 -0
vn 0.9999924 0.003921509 -0
vn 0.9999924 0.003921509 -0
vn 0.9999924 0.003921509 -0
vn 0.9999924 0.003921509 -0
vn 0.9999924 0.003921509 -0
vn 0.9999924 0.003921509 -0
vn 0.9999924 0.003921509 -0
vn 0.9999924 0.003921509 -0
vn 0.9999924 0.003921509 -0
vn 0.9999924 0.003921509 -0
g DragonShassisIngame_Mesh_4_0
f 3/3/3 2/2/2 1/1/1
f 4/4/4 3/3/3 1/1/1
f 7/7/7 6/6/6 5/5/5
f 8/8/8 7/7/7 5/5/5
f 10/10/10 9/9/9 3/3/3
f 4/4/4 10/10/10 3/3/3
f 12/12/12 11/11/11 9/9/9
f 10/10/10 12/12/12 9/9/9
f 8/8/8 5/5/5 11/11/11
f 12/12/12 8/8/8 11/11/11
f 15/15/15 14/14/14 13/13/13
f 16/16/16 15/15/15 13/13/13
f 19/19/19 18/18/18 17/17/17
f 20/20/20 19/19/19 17/17/17
f 21/21/21 14/14/14 15/15/15
f 22/22/22 21/21/21 15/15/15
f 23/23/23 21/21/21 22/22/22
f 24/24/24 23/23/23 22/22/22
f 18/18/18 23/23/23 24/24/24
f 17/17/17 18/18/18 24/24/24
