g DragonShassisIngame_Mesh_6
v -0.48767343 0.07703176 0.86034024
v -0.43180403 0.08761111 0.8108243
v -0.43180403 0.12681004 0.86949146
v -0.48767343 -0.012732327 0.8003615
v -0.43180403 0.028973013 0.7716253
v -0.43180403 -0.04024443 0.75786924
v -0.48767343 -0.11858401 0.8214036
v -0.43180403 -0.10943273 0.7716253
v -0.43180403 -0.1681 0.8108243
v -0.48767343 -0.17856276 0.9111676
v -0.43180403 -0.20729893 0.86949146
v -0.43180403 -0.22105499 0.9386798
v -0.48767343 -0.15752065 1.0170485
v -0.43180403 -0.20729893 1.0078973
v -0.43180403 -0.1681 1.0665354
v -0.48767343 -0.06775653 1.0770273
v -0.43180403 -0.10943273 1.1057343
v -0.43180403 -0.04024443 1.1195195
v -0.48767343 0.038124293 1.055956
v -0.43180403 0.028973013 1.1057343
v -0.43180403 0.08761111 1.0665354
v -0.48767343 0.09810302 0.9661919
v -0.43180403 0.12681004 1.0078973
v -0.43180403 0.14059529 0.9386798
v -0.48767343 0.09810302 0.9661919
v -0.48767343 -0.012732327 0.8003615
v -0.48767343 0.07703176 0.86034024
v -0.48767343 -0.17856276 0.9111676
v -0.48767343 -0.11858401 0.8214036
v -0.48767343 -0.06775653 1.0770273
v -0.48767343 -0.15752065 1.0170485
v -0.48767343 0.038124293 1.055956
v -0.5324389 -0.04024443 0.9386798
v -0.4812034 -0.0066994727 0.9967642
v -0.4812034 -0.07376024 0.9967642
v -0.4812034 -0.1073052 0.9386798
v -0.4812034 -0.07376024 0.88059545
v -0.4812034 -0.0066994727 0.88059545
v -0.4812034 0.026816338 0.9386798
v -0.48767343 0.07703176 1.2261872
v -0.43180403 0.08761111 1.1766713
v -0.43180403 0.12681004 1.2353384
v -0.48767343 -0.012732327 1.1662085
v -0.43180403 0.028973013 1.1374723
v -0.43180403 -0.04024443 1.1237162
v -0.48767343 -0.11858401 1.1872797
v -0.43180403 -0.10943273 1.1374723
v -0.43180403 -0.1681 1.1766713
v -0.48767343 -0.17856276 1.2770147
v -0.43180403 -0.20729893 1.2353384
v -0.43180403 -0.22105499 1.3045268
v -0.48767343 -0.15752065 1.3828956
v -0.43180403 -0.20729893 1.3737442
v -0.43180403 -0.1681 1.4324116
v -0.48767343 -0.06775653 1.4428743
v -0.43180403 -0.10943273 1.4716104
v -0.43180403 -0.04024443 1.4853665
v -0.48767343 0.038124293 1.421803
v -0.43180403 0.028973013 1.4716104
v -0.43180403 0.08761111 1.4324116
v -0.48767343 0.09810302 1.3320681
v -0.43180403 0.12681004 1.3737442
v -0.43180403 0.14059529 1.3045268
v -0.48767343 0.09810302 1.3320681
v -0.48767343 -0.012732327 1.1662085
v -0.48767343 0.07703176 1.2261872
v -0.48767343 -0.17856276 1.2770147
v -0.48767343 -0.11858401 1.1872797
v -0.48767343 -0.06775653 1.4428743
v -0.48767343 -0.15752065 1.3828956
v -0.48767343 0.038124293 1.421803
v -0.5337212 -0.04024443 1.3045268
v -0.4824566 -0.0066994727 1.3626112
v -0.4824566 -0.07376024 1.3626112
v -0.4824566 -0.1073052 1.3045268
v -0.4824566 -0.07376024 1.2464716
v -0.4824566 -0.0066994727 1.2464716
v -0.4824566 0.026816338 1.3045268
v -0.48767343 0.07703176 0.043719977
v -0.43180403 0.08761111 -0.0057668686
v -0.43180403 0.12681004 0.052871257
v -0.48767343 -0.012732327 -0.016258776
v -0.43180403 0.028973013 -0.044965804
v -0.43180403 -0.04024443 -0.058750987
v -0.48767343 -0.11858401 0.004812479
v -0.43180403 -0.10943273 -0.044965804
v -0.43180403 -0.1681 -0.0057668686
v -0.48767343 -0.17856276 0.09457657
v -0.43180403 -0.20729893 0.052871257
v -0.43180403 -0.22105499 0.1220887
v -0.48767343 -0.15752065 0.20042828
v -0.43180403 -0.20729893 0.191277
v -0.43180403 -0.1681 0.24994424
v -0.48767343 -0.06775653 0.26040706
v -0.43180403 -0.10943273 0.28914317
v -0.43180403 -0.04024443 0.30289927
v -0.48767343 0.038124293 0.23936495
v -0.43180403 0.028973013 0.28914317
v -0.43180403 0.08761111 0.24994424
v -0.48767343 0.09810302 0.14960083
v -0.43180403 0.12681004 0.191277
v -0.43180403 0.14059529 0.1220887
v -0.48767343 0.09810302 0.14960083
v -0.48767343 -0.012732327 -0.016258776
v -0.48767343 0.07703176 0.043719977
v -0.48767343 -0.17856276 0.09457657
v -0.48767343 -0.11858401 0.004812479
v -0.48767343 -0.06775653 0.26040706
v -0.48767343 -0.15752065 0.20042828
v -0.48767343 0.038124293 0.23936495
v -0.53514934 -0.04024443 0.1220887
v -0.4839138 -0.0066994727 0.18017307
v -0.4839138 -0.07376024 0.18017307
v -0.4839138 -0.1073052 0.1220887
v -0.4839138 -0.07376024 0.06400433
v -0.4839138 -0.0066994727 0.06400433
v -0.4839138 0.026816338 0.1220887
v -0.48767343 0.07703176 -0.32212704
v -0.43180403 0.08761111 -0.371643
v -0.43180403 0.12681004 -0.31297576
v -0.48767343 -0.012732327 -0.38210577
v -0.43180403 0.028973013 -0.41084194
v -0.43180403 -0.04024443 -0.424598
v -0.48767343 -0.11858401 -0.3610345
v -0.43180403 -0.10943273 -0.41084194
v -0.43180403 -0.1681 -0.371643
v -0.48767343 -0.17856276 -0.27129957
v -0.43180403 -0.20729893 -0.31297576
v -0.43180403 -0.22105499 -0.2437583
v -0.48767343 -0.15752065 -0.16541871
v -0.43180403 -0.20729893 -0.17457
v -0.43180403 -0.1681 -0.11590275
v -0.48767343 -0.06775653 -0.10543999
v -0.43180403 -0.10943273 -0.07670382
v -0.43180403 -0.04024443 -0.06294775
v -0.48767343 0.038124293 -0.12651125
v -0.43180403 0.028973013 -0.07670382
v -0.43180403 0.08761111 -0.11590275
v -0.48767343 0.09810302 -0.21624619
v -0.43180403 0.12681004 -0.17457
v -0.43180403 0.14059529 -0.2437583
v -0.48767343 0.09810302 -0.21624619
v -0.48767343 -0.012732327 -0.38210577
v -0.48767343 0.07703176 -0.32212704
v -0.48767343 -0.17856276 -0.27129957
v -0.48767343 -0.11858401 -0.3610345
v -0.48767343 -0.06775653 -0.10543999
v -0.48767343 -0.15752065 -0.16541871
v -0.48767343 0.038124293 -0.12651125
v -0.53514934 -0.04024443 -0.2437583
v -0.4839138 -0.0066994727 -0.18570308
v -0.4839138 -0.07376024 -0.18570308
v -0.4839138 -0.1073052 -0.2437583
v -0.4839138 -0.07376024 -0.3018427
v -0.4839138 -0.0066994727 -0.3018427
v -0.4839138 0.026816338 -0.2437583
vt 0.7775909 0.49349365
vt 0.7775909 0.49587816
vt 0.7796347 0.49417493
vt 0.7741844 0.49417493
vt 0.7752063 0.49655944
vt 0.77282184 0.4962188
vt 0.77111864 0.49281234
vt 0.77043736 0.4948562
vt 0.7687341 0.49281234
vt 0.77043736 0.4894059
vt 0.7680528 0.49042785
vt 0.76839346 0.48804334
vt 0.7717999 0.4863401
vt 0.7697561 0.48565882
vt 0.7717999 0.4839556
vt 0.7752063 0.48565882
vt 0.7741844 0.4832743
vt 0.7765689 0.48361495
vt 0.7779315 0.4870214
vt 0.77895343 0.48497754
vt 0.7806567 0.4870214
vt 0.77895343 0.49042785
vt 0.781338 0.4894059
vt 0.7809973 0.4917904
vt 0.77895343 0.49042785
vt 0.7741844 0.49417493
vt 0.7775909 0.49349365
vt 0.77043736 0.4894059
vt 0.77111864 0.49281234
vt 0.7752063 0.48565882
vt 0.7717999 0.4863401
vt 0.7779315 0.4870214
vt 0.8147211 0.48497754
vt 0.8116553 0.48497754
vt 0.81301785 0.4877027
vt 0.81608367 0.4877027
vt 0.81744623 0.48497754
vt 0.81608367 0.48259303
vt 0.81301785 0.48259303
vt 0.780316 0.48020852
vt 0.77827215 0.48123044
vt 0.780316 0.48259303
vt 0.7779315 0.47748336
vt 0.7765689 0.47952724
vt 0.775547 0.47680208
vt 0.77827215 0.47407693
vt 0.7758876 0.47441757
vt 0.7769096 0.47203305
vt 0.7806567 0.47203305
vt 0.77895343 0.47032982
vt 0.781338 0.46964854
vt 0.7840631 0.47203305
vt 0.7840631 0.46964854
vt 0.78610694 0.47101113
vt 0.78644764 0.4747582
vt 0.7878102 0.47271433
vt 0.7888321 0.4754395
vt 0.78610694 0.47816464
vt 0.7884915 0.477824
vt 0.7874695 0.48020852
vt 0.78372246 0.48020852
vt 0.78542566 0.48191175
vt 0.7830412 0.48259303
vt 0.78372246 0.48020852
vt 0.7779315 0.47748336
vt 0.780316 0.48020852
vt 0.7806567 0.47203305
vt 0.77827215 0.47407693
vt 0.78644764 0.4747582
vt 0.7840631 0.47203305
vt 0.78610694 0.47816464
vt 0.8147211 0.48497754
vt 0.8116553 0.48497754
vt 0.81301785 0.4877027
vt 0.81608367 0.4877027
vt 0.81744623 0.48497754
vt 0.81608367 0.48259303
vt 0.81301785 0.48259303
vt 0.7619212 0.493153
vt 0.76226187 0.4955375
vt 0.76396513 0.49417493
vt 0.75851476 0.49417493
vt 0.75953674 0.49655944
vt 0.7571522 0.4962188
vt 0.755449 0.49281234
vt 0.7547677 0.4948562
vt 0.7530645 0.49281234
vt 0.7547677 0.4894059
vt 0.75238323 0.49042785
vt 0.7527238 0.48804334
vt 0.7561303 0.4863401
vt 0.7537458 0.48565882
vt 0.75578964 0.4839556
vt 0.75953674 0.48531818
vt 0.75851476 0.4832743
vt 0.7608993 0.48361495
vt 0.76226187 0.4870214
vt 0.76328385 0.4846369
vt 0.764987 0.48668075
vt 0.76328385 0.49042785
vt 0.7656683 0.48906526
vt 0.7653277 0.4917904
vt 0.76328385 0.49042785
vt 0.75851476 0.49417493
vt 0.7619212 0.493153
vt 0.7547677 0.4894059
vt 0.755449 0.49281234
vt 0.75953674 0.48531818
vt 0.7561303 0.4863401
vt 0.76226187 0.4870214
vt 0.8147211 0.48497754
vt 0.8116553 0.48497754
vt 0.81301785 0.4877027
vt 0.81608367 0.4877027
vt 0.81744623 0.48497754
vt 0.81608367 0.48259303
vt 0.81301785 0.48259303
vt 0.7694154 0.47884595
vt 0.7694154 0.48123044
vt 0.7714593 0.47952724
vt 0.766009 0.47986788
vt 0.7670309 0.4822524
vt 0.7646464 0.48191175
vt 0.76294315 0.47850528
vt 0.76226187 0.48054916
vt 0.76055866 0.47884595
vt 0.7619212 0.47509885
vt 0.7598773 0.4761208
vt 0.760218 0.4737363
vt 0.7636244 0.47203305
vt 0.76123995 0.47135177
vt 0.76328385 0.46964854
vt 0.76669025 0.47101113
vt 0.7656683 0.46896726
vt 0.76839346 0.4693079
vt 0.7697561 0.47271433
vt 0.77043736 0.47032982
vt 0.77214056 0.4723737
vt 0.77077794 0.47578013
vt 0.77282184 0.4747582
vt 0.77282184 0.47748336
vt 0.77077794 0.47578013
vt 0.766009 0.47986788
vt 0.7694154 0.47884595
vt 0.7619212 0.47509885
vt 0.76294315 0.47850528
vt 0.76669025 0.47101113
vt 0.7636244 0.47203305
vt 0.7697561 0.47271433
vt 0.8147211 0.48497754
vt 0.8116553 0.48497754
vt 0.81301785 0.4877027
vt 0.81608367 0.4877027
vt 0.81744623 0.48497754
vt 0.81608367 0.48259303
vt 0.81301785 0.48259303
vn -0.66002536 0.62533414 -0.41632167
vn -0.63227236 0.47963083 -0.6084291
vn -0.63227236 0.7502227 -0.1933845
vn -0.66002536 0.14659464 -0.73680156
vn -0.63227236 0.38249528 -0.67374253
vn -0.63227236 -0.096244216 -0.7687449
vn -0.66002536 -0.41540387 -0.6259442
vn -0.63227236 -0.20725626 -0.74650955
vn -0.63227236 -0.609675 -0.4780461
vn -0.66002536 -0.7345635 -0.15742603
vn -0.63227236 -0.67211926 -0.38534057
vn -0.63227236 -0.7692548 0.09207986
vn -0.66002536 -0.6235515 0.41898695
vn -0.63227236 -0.74844 0.20017283
vn -0.63227236 -0.47784817 0.6098301
vn -0.66002536 -0.14481199 0.737154
vn -0.63227236 -0.38071263 0.67475146
vn -0.63227236 0.09802687 0.7685196
vn -0.66002536 0.4171865 0.6247575
vn -0.63227236 0.20903891 0.74601233
vn -0.63227236 0.6114576 0.47576386
vn -0.66002536 0.7363461 0.14886533
vn -0.63227236 0.6739019 0.3822144
vn -0.63227236 0.77103746 -0.07571588
vn -0.99999964 0.00089132774 -0
vn -0.99999964 0.00089132774 -0
vn -0.99999964 0.00089132774 -0
vn -0.99999964 0.00089132774 -0
vn -0.99999964 0.00089132774 -0
vn -0.99999964 0.00089132774 -0
vn -0.99999964 0.00089132774 -0
vn -0.99999964 0.00089132774 -0
vn -0.99999964 0.00089132774 -0
vn -0.79185224 0.3061744 0.5284196
vn -0.79185224 -0.30439183 0.52944845
vn -0.79185224 -0.609675 -0.035587214
vn -0.79185224 -0.30439183 -0.52944845
vn -0.79185224 0.3061744 -0.5284196
vn -0.79185224 0.60451937 -0.08675464
vn -0.66002536 0.62533414 -0.41632167
vn -0.63227236 0.47963083 -0.6084291
vn -0.63227236 0.7502227 -0.1933845
vn -0.66002536 0.14659464 -0.73680156
vn -0.63227236 0.38249528 -0.67374253
vn -0.63227236 -0.096244216 -0.7687449
vn -0.66002536 -0.41540387 -0.6259442
vn -0.63227236 -0.20725626 -0.74650955
vn -0.63227236 -0.609675 -0.4780461
vn -0.66002536 -0.7345635 -0.15742603
vn -0.63227236 -0.67211926 -0.38534057
vn -0.63227236 -0.7692548 0.09207986
vn -0.66002536 -0.6235515 0.41898695
vn -0.63227236 -0.74844 0.20017283
vn -0.63227236 -0.47784817 0.6098301
vn -0.66002536 -0.14481199 0.737154
vn -0.63227236 -0.38071263 0.67475146
vn -0.63227236 0.09802687 0.7685196
vn -0.66002536 0.4171865 0.6247575
vn -0.63227236 0.20903891 0.74601233
vn -0.63227236 0.6114576 0.47576386
vn -0.66002536 0.7363461 0.14886533
vn -0.63227236 0.6739019 0.3822144
vn -0.63227236 0.77103746 -0.07571588
vn -0.99999964 0.00089132774 -0
vn -0.99999964 0.00089132774 -0
vn -0.99999964 0.00089132774 -0
vn -0.99999964 0.00089132774 -0
vn -0.99999964 0.00089132774 -0
vn -0.99999964 0.00089132774 -0
vn -0.99999964 0.00089132774 -0
vn -0.99999964 0.00089132774 -0
vn -0.99999964 0.00089132774 -0
vn -0.79185224 0.3061744 0.5284196
vn -0.79185224 -0.30439183 0.52944845
vn -0.79185224 -0.609675 -0.035587214
vn -0.79185224 -0.30439183 -0.52944845
vn -0.79185224 0.3061744 -0.5284196
vn -0.79185224 0.60451937 -0.08675464
vn -0.66002536 0.62533414 -0.41632167
vn -0.63227236 0.47963083 -0.6084291
vn -0.63227236 0.7502227 -0.1933845
vn -0.66002536 0.14659464 -0.73680156
vn -0.63227236 0.38249528 -0.67374253
vn -0.63227236 -0.096244216 -0.7687449
vn -0.66002536 -0.41540387 -0.6259442
vn -0.63227236 -0.20725626 -0.74650955
vn -0.63227236 -0.609675 -0.4780461
vn -0.66002536 -0.7345635 -0.15742603
vn -0.63227236 -0.67211926 -0.38534057
vn -0.63227236 -0.7692548 0.09207986
vn -0.66002536 -0.6235515 0.41898695
vn -0.63227236 -0.74844 0.20017283
vn -0.63227236 -0.47784817 0.6098301
vn -0.66002536 -0.14481199 0.737154
vn -0.63227236 -0.38071263 0.67475146
vn -0.63227236 0.09802687 0.7685196
vn -0.66002536 0.4171865 0.6247575
vn -0.63227236 0.20903891 0.74601233
vn -0.63227236 0.6114576 0.47576386
vn -0.66002536 0.7363461 0.14886533
vn -0.63227236 0.6739019 0.3822144
vn -0.63227236 0.77103746 -0.07571588
vn -0.99999964 0.00089132774 -0
vn -0.99999964 0.00089132774 -0
vn -0.99999964 0.00089132774 -0
vn -0.99999964 0.00089132774 -0
vn -0.99999964 0.00089132774 -0
vn -0.99999964 0.00089132774 -0
vn -0.99999964 0.00089132774 -0
vn -0.99999964 0.00089132774 -0
vn -0.99999964 0.00089132774 -0
vn -0.79185224 0.3061744 0.5284196
vn -0.79185224 -0.30439183 0.52944845
vn -0.79185224 -0.609675 -0.035587214
vn -0.79185224 -0.30439183 -0.52944845
vn -0.79185224 0.3061744 -0.5284196
vn -0.79185224 0.60451937 -0.08675464
vn -0.66002536 0.62533414 -0.41632167
vn -0.63227236 0.47963083 -0.6084291
vn -0.63227236 0.7502227 -0.1933845
vn -0.66002536 0.14659464 -0.73680156
vn -0.63227236 0.38249528 -0.67374253
vn -0.63227236 -0.096244216 -0.7687449
vn -0.66002536 -0.41540387 -0.6259442
vn -0.63227236 -0.20725626 -0.74650955
vn -0.63227236 -0.609675 -0.4780461
vn -0.66002536 -0.7345635 -0.15742603
vn -0.63227236 -0.67211926 -0.38534057
vn -0.63227236 -0.7692548 0.09207986
vn -0.66002536 -0.6235515 0.41898695
vn -0.63227236 -0.74844 0.20017283
vn -0.63227236 -0.47784817 0.6098301
vn -0.66002536 -0.14481199 0.737154
vn -0.63227236 -0.38071263 0.67475146
vn -0.63227236 0.09802687 0.7685196
vn -0.66002536 0.4171865 0.6247575
vn -0.63227236 0.20903891 0.74601233
vn -0.63227236 0.6114576 0.47576386
vn -0.66002536 0.7363461 0.14886533
vn -0.63227236 0.6739019 0.3822144
vn -0.63227236 0.77103746 -0.07571588
vn -0.99999964 0.00089132774 -0
vn -0.99999964 0.00089132774 -0
vn -0.99999964 0.00089132774 -0
vn -0.99999964 0.00089132774 -0
vn -0.99999964 0.00089132774 -0
vn -0.99999964 0.00089132774 -0
vn -0.99999964 0.00089132774 -0
vn -0.99999964 0.00089132774 -0
vn -0.99999964 0.00089132774 -0
vn -0.79185224 0.3061744 0.5284196
vn -0.79185224 -0.30439183 0.52944845
vn -0.79185224 -0.609675 -0.035587214
vn -0.79185224 -0.30439183 -0.52944845
vn -0.79185224 0.3061744 -0.5284196
vn -0.79185224 0.60451937 -0.08675464
g DragonShassisIngame_Mesh_6_0
f 3/3/3 2/2/2 1/1/1
f 5/5/5 4/4/4 1/1/1
f 2/2/2 5/5/5 1/1/1
f 5/5/5 6/6/6 4/4/4
f 8/8/8 7/7/7 4/4/4
f 6/6/6 8/8/8 4/4/4
f 8/8/8 9/9/9 7/7/7
f 11/11/11 10/10/10 7/7/7
f 9/9/9 11/11/11 7/7/7
f 11/11/11 12/12/12 10/10/10
f 14/14/14 13/13/13 10/10/10
f 12/12/12 14/14/14 10/10/10
f 14/14/14 15/15/15 13/13/13
f 17/17/17 16/16/16 13/13/13
f 15/15/15 17/17/17 13/13/13
f 17/17/17 18/18/18 16/16/16
f 20/20/20 19/19/19 16/16/16
f 18/18/18 20/20/20 16/16/16
f 20/20/20 21/21/21 19/19/19
f 23/23/23 22/22/22 19/19/19
f 21/21/21 23/23/23 19/19/19
f 23/23/23 24/24/24 22/22/22
f 3/3/3 1/1/1 22/22/22
f 24/24/24 3/3/3 22/22/22
f 27/27/27 26/26/26 25/25/25
f 29/29/29 28/28/28 26/26/26
f 31/31/31 30/30/30 28/28/28
f 32/32/32 25/25/25 30/30/30
f 26/26/26 28/28/28 30/30/30
f 25/25/25 26/26/26 30/30/30
f 35/35/35 34/34/34 33/33/33
f 35/35/35 33/33/33 36/36/36
f 36/36/36 33/33/33 37/37/37
f 37/37/37 33/33/33 38/38/38
f 38/38/38 33/33/33 39/39/39
f 39/39/39 33/33/33 34/34/34
f 42/42/42 41/41/41 40/40/40
f 44/44/44 43/43/43 40/40/40
f 41/41/41 44/44/44 40/40/40
f 44/44/44 45/45/45 43/43/43
f 47/47/47 46/46/46 43/43/43
f 45/45/45 47/47/47 43/43/43
f 47/47/47 48/48/48 46/46/46
f 50/50/50 49/49/49 46/46/46
f 48/48/48 50/50/50 46/46/46
f 50/50/50 51/51/51 49/49/49
f 53/53/53 52/52/52 49/49/49
f 51/51/51 53/53/53 49/49/49
f 53/53/53 54/54/54 52/52/52
f 56/56/56 55/55/55 52/52/52
f 54/54/54 56/56/56 52/52/52
f 56/56/56 57/57/57 55/55/55
f 59/59/59 58/58/58 55/55/55
f 57/57/57 59/59/59 55/55/55
f 59/59/59 60/60/60 58/58/58
f 62/62/62 61/61/61 58/58/58
f 60/60/60 62/62/62 58/58/58
f 62/62/62 63/63/63 61/61/61
f 42/42/42 40/40/40 61/61/61
f 63/63/63 42/42/42 61/61/61
f 66/66/66 65/65/65 64/64/64
f 68/68/68 67/67/67 65/65/65
f 70/70/70 69/69/69 67/67/67
f 71/71/71 64/64/64 69/69/69
f 65/65/65 67/67/67 69/69/69
f 64/64/64 65/65/65 69/69/69
f 74/74/74 73/73/73 72/72/72
f 74/74/74 72/72/72 75/75/75
f 75/75/75 72/72/72 76/76/76
f 76/76/76 72/72/72 77/77/77
f 77/77/77 72/72/72 78/78/78
f 78/78/78 72/72/72 73/73/73
f 81/81/81 80/80/80 79/79/79
f 83/83/83 82/82/82 79/79/79
f 80/80/80 83/83/83 79/79/79
f 83/83/83 84/84/84 82/82/82
f 86/86/86 85/85/85 82/82/82
f 84/84/84 86/86/86 82/82/82
f 86/86/86 87/87/87 85/85/85
f 89/89/89 88/88/88 85/85/85
f 87/87/87 89/89/89 85/85/85
f 89/89/89 90/90/90 88/88/88
f 92/92/92 91/91/91 88/88/88
f 90/90/90 92/92/92 88/88/88
f 92/92/92 93/93/93 91/91/91
f 95/95/95 94/94/94 91/91/91
f 93/93/93 95/95/95 91/91/91
f 95/95/95 96/96/96 94/94/94
f 98/98/98 97/97/97 94/94/94
f 96/96/96 98/98/98 94/94/94
f 98/98/98 99/99/99 97/97/97
f 101/101/101 100/100/100 97/97/97
f 99/99/99 101/101/101 97/97/97
f 101/101/101 102/102/102 100/100/100
f 81/81/81 79/79/79 100/100/100
f 102/102/102 81/81/81 100/100/100
f 105/105/105 104/104/104 103/103/103
f 107/107/107 106/106/106 104/104/104
f 109/109/109 108/108/108 106/106/106
f 110/110/110 103/103/103 108/108/108
f 104/104/104 106/106/106 108/108/108
f 103/103/103 104/104/104 108/108/108
f 113/113/113 112/112/112 111/111/111
f 113/113/113 111/111/111 114/114/114
f 114/114/114 111/111/111 115/115/115
f 115/115/115 111/111/111 116/116/116
f 116/116/116 111/111/111 117/117/117
f 117/117/117 111/111/111 112/112/112
f 120/120/120 119/119/119 118/118/118
f 122/122/122 121/121/121 118/118/118
f 119/119/119 122/122/122 118/118/118
f 122/122/122 123/123/123 121/121/121
f 125/125/125 124/124/124 121/121/121
f 123/123/123 125/125/125 121/121/121
f 125/125/125 126/126/126 124/124/124
f 128/128/128 127/127/127 124/124/124
f 126/126/126 128/128/128 124/124/124
f 128/128/128 129/129/129 127/127/127
f 131/131/131 130/130/130 127/127/127
f 129/129/129 131/131/131 127/127/127
f 131/131/131 132/132/132 130/130/130
f 134/134/134 133/133/133 130/130/130
f 132/132/132 134/134/134 130/130/130
f 134/134/134 135/135/135 133/133/133
f 137/137/137 136/136/136 133/133/133
f 135/135/135 137/137/137 133/133/133
f 137/137/137 138/138/138 136/136/136
f 140/140/140 139/139/139 136/136/136
f 138/138/138 140/140/140 136/136/136
f 140/140/140 141/141/141 139/139/139
f 120/120/120 118/118/118 139/139/139
f 141/141/141 120/120/120 139/139/139
f 144/144/144 143/143/143 142/142/142
f 146/146/146 145/145/145 143/143/143
f 148/148/148 147/147/147 145/145/145
f 149/149/149 142/142/142 147/147/147
f 143/143/143 145/145/145 147/147/147
f 142/142/142 143/143/143 147/147/147
f 152/152/152 151/151/151 150/150/150
f 152/152/152 150/150/150 153/153/153
f 153/153/153 150/150/150 154/154/154
f 154/154/154 150/150/150 155/155/155
f 155/155/155 150/150/150 156/156/156
f 156/156/156 150/150/150 151/151/151
