g DragonShassisIngame_Edge2
v 0.4877427 0.07425359 0.053325385
v -0.4877427 0.07425359 0.053325385
v -0.4877427 -0.07425359 -0.053325325
v 0.4877427 -0.07425359 -0.053325325
v -7.4505806E-06 0.03072998 -0.035478264
v -0.057671756 0.026919454 0.023882896
v -0.057671756 -0.025758386 -0.016842306
v -7.4505806E-06 -0.05210477 -0.037219822
v 0.057671726 -0.025758386 -0.016842306
v 0.057671726 0.026919454 0.023882896
v -7.4505806E-06 0.05326584 0.04424551
vt 0.38983297 0.072846174
vt 0.37642974 0.072846174
vt 0.37642974 0.07753731
vt 0.38983297 0.07753731
vt 0.75507146 0.47762427
vt 0.7564118 0.4749436
vt 0.753061 0.4749436
vt 0.75172067 0.47762427
vt 0.753061 0.4803049
vt 0.7564118 0.4803049
vt 0.7584223 0.47762427
vn -0.00045388937 0.58566964 -0.81054974
vn -0.00045388937 0.58566964 -0.81054974
vn -0.00045388937 0.58566964 -0.81054974
vn -0.00045388937 0.58566964 -0.81054974
vn -0.00045388937 0.60884655 -0.79328793
vn -0.51613903 0.72473085 -0.4564709
vn -0.51613903 0.2553994 -0.81754
vn -0.00045388937 0.023630798 -0.99972063
vn 0.51523125 0.2553994 -0.8181124
vn 0.51523125 0.72473085 -0.4574953
vn -0.00045388937 0.9622936 -0.27201253
g DragonShassisIngame_Edge2_0
f 3/3/3 2/2/2 1/1/1
f 4/4/4 3/3/3 1/1/1
f 7/7/7 6/6/6 5/5/5
f 7/7/7 5/5/5 8/8/8
f 8/8/8 5/5/5 9/9/9
f 9/9/9 5/5/5 10/10/10
f 10/10/10 5/5/5 11/11/11
f 11/11/11 5/5/5 6/6/6
