g DrillTurret_03_CorpsePart
v -0.117712736 -0.26452258 0.25106376
v -0.16966218 -0.19242842 0.24398035
v -0.11143917 -0.029098123 0.3564539
v -0.0603382 -0.18396945 0.34899765
v 0.1513291 0.049038142 0.4212461
v 0.22267763 -0.16021231 0.41616815
v -0.0603382 -0.18396945 0.34899765
v 0.22267763 -0.16021231 0.41616815
v 0.2820062 0.04599136 -0.35699284
v -0.024072587 0.005753368 -0.36729017
v 0.21504141 0.2645107 -0.40489277
v 0.2820062 0.04599136 -0.35699284
v 0.22267763 -0.16021231 0.41616815
v 0.1513291 0.049038142 0.4212461
v -0.06906715 0.15968621 -0.4212451
v 0.21504141 0.2645107 -0.40489277
v 0.1513291 0.049038142 0.4212461
v -0.11143917 -0.029098123 0.3564539
v -0.16966218 -0.19242842 0.24398035
v -0.13169962 -0.018402278 -0.37817886
v -0.06906715 0.15968621 -0.4212451
v -0.11143917 -0.029098123 0.3564539
v -0.117712736 -0.26452258 0.25106376
v -0.080470085 -0.0938389 -0.34681123
v -0.13169962 -0.018402278 -0.37817886
v -0.16966218 -0.19242842 0.24398035
v -0.080470085 -0.0938389 -0.34681123
v -0.117712736 -0.26452258 0.25106376
v -0.0603382 -0.18396945 0.34899765
v -0.024072587 0.005753368 -0.36729017
v -0.06906715 0.15968621 -0.4212451
v -0.13169962 -0.018402278 -0.37817886
v -0.080470085 -0.0938389 -0.34681123
v -0.024072587 0.005753368 -0.36729017
v 0.2820062 0.04599136 -0.35699284
v 0.21504141 0.2645107 -0.40489277
v -0.23061055 0.053936124 0.26483208
v -0.2017883 0.19849724 -0.29910412
v -0.13275373 0.11617005 -0.16422325
v -0.14702344 0.04460296 0.1149745
v -0.03894651 0.10067904 -0.31507078
v -0.04620993 0.06418204 -0.17270795
v -0.06776875 -0.043882072 0.24885261
v -0.060492486 -0.0073850453 0.10648978
v -0.28200716 -0.024071604 0.24221909
v -0.1984201 -0.033417612 0.092374325
v -0.1841504 0.03816232 -0.18682338
v -0.25315922 0.12048954 -0.3217171
v -0.0976066 -0.013825685 -0.19532093
v -0.09031743 0.022671342 -0.33768374
v -0.11913967 -0.1218898 0.2262525
v -0.111863434 -0.08540562 0.08388966
v -0.28200716 -0.024071604 0.24221909
v -0.25315922 0.12048954 -0.3217171
v -0.2017883 0.19849724 -0.29910412
v -0.23061055 0.053936124 0.26483208
v -0.1841504 0.03816232 -0.18682338
v -0.1984201 -0.033417612 0.092374325
v -0.14702344 0.04460296 0.1149745
v -0.13275373 0.11617005 -0.16422325
v -0.25315922 0.12048954 -0.3217171
v -0.09031743 0.022671342 -0.33768374
v -0.03894651 0.10067904 -0.31507078
v -0.2017883 0.19849724 -0.29910412
v -0.0976066 -0.013825685 -0.19532093
v -0.1841504 0.03816232 -0.18682338
v -0.13275373 0.11617005 -0.16422325
v -0.04620993 0.06418204 -0.17270795
v -0.11913967 -0.1218898 0.2262525
v -0.28200716 -0.024071604 0.24221909
v -0.23061055 0.053936124 0.26483208
v -0.06776875 -0.043882072 0.24885261
v -0.1984201 -0.033417612 0.092374325
v -0.111863434 -0.08540562 0.08388966
v -0.060492486 -0.0073850453 0.10648978
v -0.14702344 0.04460296 0.1149745
vt 0.56632113 0.69563985
vt 0.5674233 0.69710934
vt 0.56595373 0.70151794
vt 0.56356573 0.69912994
vt 0.5648516 0.7075798
vt 0.55952454 0.70574284
vt 0.6159178 0.7299901
vt 0.6221633 0.7299901
vt 0.6221633 0.7474408
vt 0.6153667 0.7474408
vt 0.585425 0.70776343
vt 0.5828533 0.71272314
vt 0.56393313 0.71272314
vt 0.5648516 0.7075798
vt 0.58413917 0.70133424
vt 0.585425 0.70776343
vt 0.5648516 0.7075798
vt 0.56595373 0.70151794
vt 0.5674233 0.69710934
vt 0.582486 0.69747674
vt 0.58413917 0.70133424
vt 0.56595373 0.70151794
vt 0.56632113 0.69563985
vt 0.582486 0.69563985
vt 0.582486 0.69747674
vt 0.5674233 0.69710934
vt 0.61279505 0.7474408
vt 0.61279505 0.7299901
vt 0.6159178 0.7299901
vt 0.6153667 0.7474408
vt 0.58413917 0.70133424
vt 0.582486 0.69747674
vt 0.582486 0.69563985
vt 0.5857924 0.6985789
vt 0.59075207 0.7051918
vt 0.585425 0.70776343
vt 0.6155504 0.64273673
vt 0.6155504 0.62932724
vt 0.617571 0.6326337
vt 0.617571 0.6392466
vt 0.6197753 0.62932724
vt 0.6197753 0.6326337
vt 0.6197753 0.64273673
vt 0.6197753 0.6392466
vt 0.6155504 0.62932724
vt 0.617571 0.6326337
vt 0.617571 0.6392466
vt 0.6155504 0.64273673
vt 0.6197753 0.6392466
vt 0.6197753 0.64273673
vt 0.6197753 0.62932724
vt 0.6197753 0.6326337
vt 0.6159178 0.66294277
vt 0.6159178 0.6495333
vt 0.6181221 0.6495333
vt 0.6181221 0.66294277
vt 0.5758731 0.6476964
vt 0.5758731 0.6543093
vt 0.5736688 0.6543093
vt 0.5736688 0.6476964
vt 0.6159178 0.6495333
vt 0.6159178 0.64512473
vt 0.6181221 0.64512473
vt 0.6181221 0.6495333
vt 0.5758731 0.6454921
vt 0.5758731 0.6476964
vt 0.5736688 0.6476964
vt 0.5736688 0.6454921
vt 0.6159178 0.66735137
vt 0.6159178 0.66294277
vt 0.6181221 0.66294277
vt 0.6181221 0.66735137
vt 0.5758731 0.6543093
vt 0.5758731 0.6566973
vt 0.5736688 0.6566973
vt 0.5736688 0.6543093
vn -0.65302664 -0.29508817 0.69748056
vn -0.65302664 -0.29508817 0.69748056
vn -0.28721863 -0.1383133 0.9478264
vn -0.34694237 -0.16070968 0.9240148
vn -0.21256393 -0.108451426 0.9711101
vn -0.21256393 -0.108451426 0.9711101
vn 0.1383133 -0.95951515 -0.24535708
vn 0.1383133 -0.95951515 -0.24535708
vn 0.1383133 -0.95951515 -0.24535708
vn 0.1383133 -0.95951515 -0.24535708
vn 0.93711877 0.31708044 0.14583692
vn 0.93711877 0.31708044 0.14583692
vn 0.93711877 0.31708044 0.14583692
vn 0.93711877 0.31708044 0.14583692
vn -0.33947688 0.91431814 0.22085688
vn -0.33947688 0.91431814 0.22085688
vn -0.33947688 0.91431814 0.22085688
vn -0.33947688 0.91431814 0.22085688
vn -0.9441801 0.32454592 0.056514665
vn -0.9441801 0.32454592 0.056514665
vn -0.9441801 0.32454592 0.056514665
vn -0.9441801 0.32454592 0.056514665
vn -0.7724742 -0.5937071 -0.22537842
vn -0.7724742 -0.5937071 -0.22537842
vn -0.7724742 -0.5937071 -0.22537842
vn -0.7724742 -0.5937071 -0.22537842
vn 0.862464 -0.5041214 -0.044915903
vn 0.862464 -0.5041214 -0.044915903
vn 0.862464 -0.5041214 -0.044915903
vn 0.862464 -0.5041214 -0.044915903
vn 0.108451426 -0.23536444 -0.96583736
vn 0.16070968 -0.2876227 -0.944164
vn 0.16070968 -0.2876227 -0.944164
vn 0.11591685 -0.24282992 -0.9631183
vn 0.100985944 -0.23536444 -0.9666465
vn 0.100985944 -0.23536444 -0.9666465
vn 0.5190523 0.8247325 0.22450174
vn 0.5190523 0.8247325 0.22450174
vn 0.5190523 0.8247325 0.22450174
vn 0.5190523 0.8247325 0.22450174
vn 0.5190523 0.8247325 0.22450174
vn 0.5190523 0.8247325 0.22450174
vn 0.5190523 0.8247325 0.22450174
vn 0.5190523 0.8247325 0.22450174
vn -0.5186482 -0.82513666 -0.22394976
vn -0.5186482 -0.82513666 -0.22394976
vn -0.5186482 -0.82513666 -0.22394976
vn -0.5186482 -0.82513666 -0.22394976
vn -0.5186482 -0.82513666 -0.22394976
vn -0.5186482 -0.82513666 -0.22394976
vn -0.5186482 -0.82513666 -0.22394976
vn -0.5186482 -0.82513666 -0.22394976
vn -0.8471289 0.5261137 0.0746791
vn -0.8471289 0.5261137 0.0746791
vn -0.8471289 0.5261137 0.0746791
vn -0.8471289 0.5261137 0.0746791
vn 0.8400676 -0.5265178 -0.13063452
vn 0.8400676 -0.5265178 -0.13063452
vn 0.8400676 -0.5265178 -0.13063452
vn 0.8400676 -0.5265178 -0.13063452
vn 0.056193113 0.24242574 -0.9685412
vn 0.056193113 0.24242574 -0.9685412
vn 0.056193113 0.24242574 -0.9685412
vn 0.056193113 0.24242574 -0.9685412
vn -0.055788934 -0.24282992 0.96846336
vn -0.055788934 -0.24282992 0.96846336
vn -0.055788934 -0.24282992 0.96846336
vn -0.055788934 -0.24282992 0.96846336
vn -0.055788934 -0.24282992 0.96846336
vn -0.055788934 -0.24282992 0.96846336
vn -0.055788934 -0.24282992 0.96846336
vn -0.055788934 -0.24282992 0.96846336
vn 0.056193113 0.24242574 -0.9685412
vn 0.056193113 0.24242574 -0.9685412
vn 0.056193113 0.24242574 -0.9685412
vn 0.056193113 0.24242574 -0.9685412
g DrillTurret_03_CorpsePart_0
f 3/3/3 2/2/2 1/1/1
f 4/4/4 3/3/3 1/1/1
f 6/6/6 5/5/5 3/3/3
f 4/4/4 6/6/6 3/3/3
f 9/9/9 8/8/8 7/7/7
f 10/10/10 9/9/9 7/7/7
f 13/13/13 12/12/12 11/11/11
f 14/14/14 13/13/13 11/11/11
f 17/17/17 16/16/16 15/15/15
f 18/18/18 17/17/17 15/15/15
f 21/21/21 20/20/20 19/19/19
f 22/22/22 21/21/21 19/19/19
f 25/25/25 24/24/24 23/23/23
f 26/26/26 25/25/25 23/23/23
f 29/29/29 28/28/28 27/27/27
f 30/30/30 29/29/29 27/27/27
f 33/33/33 32/32/32 31/31/31
f 34/34/34 33/33/33 31/31/31
f 36/36/36 35/35/35 34/34/34
f 31/31/31 36/36/36 34/34/34
f 39/39/39 38/38/38 37/37/37
f 40/40/40 39/39/39 37/37/37
f 42/42/42 41/41/41 38/38/38
f 39/39/39 42/42/42 38/38/38
f 40/40/40 37/37/37 43/43/43
f 44/44/44 40/40/40 43/43/43
f 47/47/47 46/46/46 45/45/45
f 48/48/48 47/47/47 45/45/45
f 49/49/49 47/47/47 48/48/48
f 50/50/50 49/49/49 48/48/48
f 46/46/46 52/52/52 51/51/51
f 45/45/45 46/46/46 51/51/51
f 55/55/55 54/54/54 53/53/53
f 56/56/56 55/55/55 53/53/53
f 59/59/59 58/58/58 57/57/57
f 60/60/60 59/59/59 57/57/57
f 63/63/63 62/62/62 61/61/61
f 64/64/64 63/63/63 61/61/61
f 67/67/67 66/66/66 65/65/65
f 68/68/68 67/67/67 65/65/65
f 71/71/71 70/70/70 69/69/69
f 72/72/72 71/71/71 69/69/69
f 75/75/75 74/74/74 73/73/73
f 76/76/76 75/75/75 73/73/73
