g DrillTurret_02_CorpsePart
v 0.11771172 -0.26452258 0.25106376
v 0.060337216 -0.18396945 0.34899765
v 0.111438215 -0.029098123 0.3564539
v 0.16967404 -0.19242842 0.24398035
v -0.22269148 -0.16021231 0.41616815
v -0.15131724 0.049038142 0.4212461
v 0.060337216 -0.18396945 0.34899765
v 0.024071604 0.005753368 -0.36729017
v -0.28199434 0.04599136 -0.35699284
v -0.22269148 -0.16021231 0.41616815
v -0.21505523 0.2645107 -0.40489277
v -0.15131724 0.049038142 0.4212461
v -0.22269148 -0.16021231 0.41616815
v -0.28199434 0.04599136 -0.35699284
v 0.06906617 0.15968621 -0.4212451
v 0.111438215 -0.029098123 0.3564539
v -0.15131724 0.049038142 0.4212461
v -0.21505523 0.2645107 -0.40489277
v 0.16967404 -0.19242842 0.24398035
v 0.111438215 -0.029098123 0.3564539
v 0.06906617 0.15968621 -0.4212451
v 0.13171145 -0.018402278 -0.37817886
v 0.11771172 -0.26452258 0.25106376
v 0.16967404 -0.19242842 0.24398035
v 0.13171145 -0.018402278 -0.37817886
v 0.08046907 -0.0938389 -0.34681123
v 0.08046907 -0.0938389 -0.34681123
v 0.024071604 0.005753368 -0.36729017
v 0.060337216 -0.18396945 0.34899765
v 0.11771172 -0.26452258 0.25106376
v 0.06906617 0.15968621 -0.4212451
v 0.024071604 0.005753368 -0.36729017
v 0.08046907 -0.0938389 -0.34681123
v 0.13171145 -0.018402278 -0.37817886
v -0.21505523 0.2645107 -0.40489277
v -0.28199434 0.04599136 -0.35699284
v 0.23060954 0.053936124 0.26483208
v 0.14702249 0.04460296 0.1149745
v 0.13275278 0.11617005 -0.16422325
v 0.2017873 0.19849724 -0.29910412
v 0.046221793 0.06418204 -0.17270795
v 0.038945526 0.10067904 -0.31507078
v 0.06776777 -0.043882072 0.24885261
v 0.060491502 -0.0073850453 0.10648978
v 0.2820062 -0.024071604 0.24221909
v 0.2531711 0.12048954 -0.3217171
v 0.18413657 0.03816232 -0.18682338
v 0.19841914 -0.033417612 0.092374325
v 0.090316474 0.022671342 -0.33768374
v 0.097605586 -0.013825685 -0.19532093
v 0.11915156 -0.1218898 0.2262525
v 0.111875296 -0.08540562 0.08388966
v 0.2820062 -0.024071604 0.24221909
v 0.23060954 0.053936124 0.26483208
v 0.2017873 0.19849724 -0.29910412
v 0.2531711 0.12048954 -0.3217171
v 0.18413657 0.03816232 -0.18682338
v 0.13275278 0.11617005 -0.16422325
v 0.14702249 0.04460296 0.1149745
v 0.19841914 -0.033417612 0.092374325
v 0.2531711 0.12048954 -0.3217171
v 0.2017873 0.19849724 -0.29910412
v 0.038945526 0.10067904 -0.31507078
v 0.090316474 0.022671342 -0.33768374
v 0.097605586 -0.013825685 -0.19532093
v 0.046221793 0.06418204 -0.17270795
v 0.13275278 0.11617005 -0.16422325
v 0.18413657 0.03816232 -0.18682338
v 0.11915156 -0.1218898 0.2262525
v 0.06776777 -0.043882072 0.24885261
v 0.23060954 0.053936124 0.26483208
v 0.2820062 -0.024071604 0.24221909
v 0.19841914 -0.033417612 0.092374325
v 0.14702249 0.04460296 0.1149745
v 0.060491502 -0.0073850453 0.10648978
v 0.111875296 -0.08540562 0.08388966
vt 0.56632113 0.69563985
vt 0.56356573 0.69912994
vt 0.56595373 0.70151794
vt 0.5674233 0.69710934
vt 0.55952454 0.70574284
vt 0.5648516 0.7075798
vt 0.6159178 0.7299901
vt 0.6153667 0.7474408
vt 0.6221633 0.7474408
vt 0.6221633 0.7299901
vt 0.585425 0.70776343
vt 0.5648516 0.7075798
vt 0.56393313 0.71272314
vt 0.5828533 0.71272314
vt 0.58413917 0.70133424
vt 0.56595373 0.70151794
vt 0.5648516 0.7075798
vt 0.585425 0.70776343
vt 0.5674233 0.69710934
vt 0.56595373 0.70151794
vt 0.58413917 0.70133424
vt 0.582486 0.69747674
vt 0.56632113 0.69563985
vt 0.5674233 0.69710934
vt 0.582486 0.69747674
vt 0.582486 0.69563985
vt 0.61279505 0.7474408
vt 0.6153667 0.7474408
vt 0.6159178 0.7299901
vt 0.61279505 0.7299901
vt 0.58413917 0.70133424
vt 0.5857924 0.6985789
vt 0.582486 0.69563985
vt 0.582486 0.69747674
vt 0.585425 0.70776343
vt 0.59075207 0.7051918
vt 0.6155504 0.64273673
vt 0.617571 0.6392466
vt 0.617571 0.6326337
vt 0.6155504 0.62932724
vt 0.6197753 0.6326337
vt 0.6197753 0.62932724
vt 0.6197753 0.64273673
vt 0.6197753 0.6392466
vt 0.6155504 0.62932724
vt 0.6155504 0.64273673
vt 0.617571 0.6392466
vt 0.617571 0.6326337
vt 0.6197753 0.64273673
vt 0.6197753 0.6392466
vt 0.6197753 0.62932724
vt 0.6197753 0.6326337
vt 0.6159178 0.66294277
vt 0.6181221 0.66294277
vt 0.6181221 0.6495333
vt 0.6159178 0.6495333
vt 0.5758731 0.6476964
vt 0.5736688 0.6476964
vt 0.5736688 0.6543093
vt 0.5758731 0.6543093
vt 0.6159178 0.6495333
vt 0.6181221 0.6495333
vt 0.6181221 0.64512473
vt 0.6159178 0.64512473
vt 0.5758731 0.6454921
vt 0.5736688 0.6454921
vt 0.5736688 0.6476964
vt 0.5758731 0.6476964
vt 0.6159178 0.66735137
vt 0.6181221 0.66735137
vt 0.6181221 0.66294277
vt 0.6159178 0.66294277
vt 0.5758731 0.6543093
vt 0.5736688 0.6543093
vt 0.5736688 0.6566973
vt 0.5758731 0.6566973
vn 0.6474423 -0.2982183 0.70134467
vn 0.34280008 -0.16447294 0.92489827
vn 0.28335768 -0.13475174 0.9495001
vn 0.6474423 -0.2982183 0.70134467
vn 0.21648502 -0.10503054 0.9706198
vn 0.21648502 -0.10503054 0.9706198
vn -0.14016932 -0.9595148 -0.24430293
vn -0.14016932 -0.9595148 -0.24430293
vn -0.14016932 -0.9595148 -0.24430293
vn -0.14016932 -0.9595148 -0.24430293
vn -0.9352111 0.3184964 0.1547262
vn -0.9352111 0.3184964 0.1547262
vn -0.9352111 0.3184964 0.1547262
vn -0.9352111 0.3184964 0.1547262
vn 0.33536977 0.9203506 0.20120105
vn 0.33536977 0.9203506 0.20120105
vn 0.33536977 0.9203506 0.20120105
vn 0.33536977 0.9203506 0.20120105
vn 0.9446542 0.32592672 0.03741898
vn 0.9446542 0.32592672 0.03741898
vn 0.9446542 0.32592672 0.03741898
vn 0.9446542 0.32592672 0.03741898
vn 0.77375734 -0.5954302 -0.2162463
vn 0.77375734 -0.5954302 -0.2162463
vn 0.77375734 -0.5954302 -0.2162463
vn 0.77375734 -0.5954302 -0.2162463
vn -0.8609082 -0.5062666 -0.050310742
vn -0.8609082 -0.5062666 -0.050310742
vn -0.8609082 -0.5062666 -0.050310742
vn -0.8609082 -0.5062666 -0.050310742
vn -0.10301775 -0.23877591 -0.9655948
vn -0.11787838 -0.24620622 -0.9620224
vn -0.16246015 -0.28335768 -0.9451535
vn -0.16246015 -0.28335768 -0.9451535
vn -0.10301775 -0.2313456 -0.9674019
vn -0.10301775 -0.2313456 -0.9674019
vn -0.51911443 0.82375664 0.22791491
vn -0.51911443 0.82375664 0.22791491
vn -0.51911443 0.82375664 0.22791491
vn -0.51911443 0.82375664 0.22791491
vn -0.51911443 0.82375664 0.22791491
vn -0.51911443 0.82375664 0.22791491
vn -0.51911443 0.82375664 0.22791491
vn -0.51911443 0.82375664 0.22791491
vn 0.5136969 -0.8257694 -0.23285256
vn 0.5136969 -0.8257694 -0.23285256
vn 0.5136969 -0.8257694 -0.23285256
vn 0.5136969 -0.8257694 -0.23285256
vn 0.5136969 -0.8257694 -0.23285256
vn 0.5136969 -0.8257694 -0.23285256
vn 0.5136969 -0.8257694 -0.23285256
vn 0.5136969 -0.8257694 -0.23285256
vn 0.84063005 0.52654475 0.1268532
vn 0.84063005 0.52654475 0.1268532
vn 0.84063005 0.52654475 0.1268532
vn 0.84063005 0.52654475 0.1268532
vn -0.8460476 -0.52855754 -0.069501005
vn -0.8460476 -0.52855754 -0.069501005
vn -0.8460476 -0.52855754 -0.069501005
vn -0.8460476 -0.52855754 -0.069501005
vn -0.05100566 0.2441935 -0.9683842
vn -0.05100566 0.2441935 -0.9683842
vn -0.05100566 0.2441935 -0.9683842
vn -0.05100566 0.2441935 -0.9683842
vn 0.05301845 -0.24620622 0.9677663
vn 0.05301845 -0.24620622 0.9677663
vn 0.05301845 -0.24620622 0.9677663
vn 0.05301845 -0.24620622 0.9677663
vn 0.05301845 -0.24620622 0.9677663
vn 0.05301845 -0.24620622 0.9677663
vn 0.05301845 -0.24620622 0.9677663
vn 0.05301845 -0.24620622 0.9677663
vn -0.05100566 0.2441935 -0.9683842
vn -0.05100566 0.2441935 -0.9683842
vn -0.05100566 0.2441935 -0.9683842
vn -0.05100566 0.2441935 -0.9683842
g DrillTurret_02_CorpsePart_0
f 3/3/3 2/2/2 1/1/1
f 4/4/4 3/3/3 1/1/1
f 5/5/5 2/2/2 3/3/3
f 6/6/6 5/5/5 3/3/3
f 9/9/9 8/8/8 7/7/7
f 10/10/10 9/9/9 7/7/7
f 13/13/13 12/12/12 11/11/11
f 14/14/14 13/13/13 11/11/11
f 17/17/17 16/16/16 15/15/15
f 18/18/18 17/17/17 15/15/15
f 21/21/21 20/20/20 19/19/19
f 22/22/22 21/21/21 19/19/19
f 25/25/25 24/24/24 23/23/23
f 26/26/26 25/25/25 23/23/23
f 29/29/29 28/28/28 27/27/27
f 30/30/30 29/29/29 27/27/27
f 33/33/33 32/32/32 31/31/31
f 34/34/34 33/33/33 31/31/31
f 35/35/35 31/31/31 32/32/32
f 36/36/36 35/35/35 32/32/32
f 39/39/39 38/38/38 37/37/37
f 40/40/40 39/39/39 37/37/37
f 41/41/41 39/39/39 40/40/40
f 42/42/42 41/41/41 40/40/40
f 38/38/38 44/44/44 43/43/43
f 37/37/37 38/38/38 43/43/43
f 47/47/47 46/46/46 45/45/45
f 48/48/48 47/47/47 45/45/45
f 50/50/50 49/49/49 46/46/46
f 47/47/47 50/50/50 46/46/46
f 48/48/48 45/45/45 51/51/51
f 52/52/52 48/48/48 51/51/51
f 55/55/55 54/54/54 53/53/53
f 56/56/56 55/55/55 53/53/53
f 59/59/59 58/58/58 57/57/57
f 60/60/60 59/59/59 57/57/57
f 63/63/63 62/62/62 61/61/61
f 64/64/64 63/63/63 61/61/61
f 67/67/67 66/66/66 65/65/65
f 68/68/68 67/67/67 65/65/65
f 71/71/71 70/70/70 69/69/69
f 72/72/72 71/71/71 69/69/69
f 75/75/75 74/74/74 73/73/73
f 76/76/76 75/75/75 73/73/73
