g E1
v 0.08086478 -0.028840706 -0.14002755
v 0.041064948 1.0758575 -0.081307
v -0.01759243 1.0758575 -0.081307
v -0.08086154 -0.028840706 -0.14002755
v -0.04690534 1.0758575 -0.030514821
v -0.16169311 -0.028840706 -1.6242266E-06
v -0.01759243 1.0758575 0.020308927
v -0.08086154 -0.028840706 0.14002432
v 0.041064948 1.0758575 0.020308927
v 0.08086478 -0.028840706 0.14002432
v 0.07040943 1.0758575 -0.030514821
v 0.16169636 -0.028840706 -1.6242266E-06
v 0.041064948 1.0758575 -0.081307
v 0.08086478 -0.028840706 -0.14002755
v -0.01528658 1.9083692 -0.031936258
v 0.025650397 1.9083692 -0.04605572
v 0.0522468 1.9083692 -1.6242266E-06
v -0.033733487 1.9083692 -1.6242266E-06
v -0.027510807 1.9083692 0.046052486
v 0.025650397 1.9083692 0.046052486
v 0.025650397 1.9083692 0.046052486
v 0.0522468 1.9083692 -1.6242266E-06
v -0.027510807 1.9083692 0.046052486
v -0.033733487 1.9083692 -1.6242266E-06
v -0.01528658 1.9083692 -0.031936258
v 0.025650397 1.9083692 -0.04605572
v 0.025650397 1.9083692 -0.04605572
vt 0.5833775 0.9763359
vt 0.5849913 0.9848083
vt 0.58539474 0.9848083
vt 0.5845878 0.9763359
vt 0.58579814 0.9848083
vt 0.58579814 0.9763359
vt 0.5862016 0.9848083
vt 0.5870085 0.9763359
vt 0.5866051 0.9848083
vt 0.58821887 0.9763359
vt 0.58741194 0.9848083
vt 0.5894292 0.9767394
vt 0.5878154 0.9848083
vt 0.59063953 0.9771428
vt 0.5785361 0.9694773
vt 0.57893956 0.9694773
vt 0.57934296 0.9690739
vt 0.5785361 0.9690739
vt 0.5785361 0.96867037
vt 0.57893956 0.96867037
vt 0.5862016 0.9912635
vt 0.5866051 0.9912635
vt 0.58579814 0.9912635
vt 0.58539474 0.9912635
vt 0.5849913 0.9912635
vt 0.5849913 0.9912635
vt 0.5870085 0.9912635
vn 0.49781966 0.06680077 -0.86470413
vn 0.48997772 0.05895883 -0.8697389
vn -0.50595003 0.06680077 -0.85997224
vn -0.50595003 0.07464272 -0.8593271
vn -0.99661535 0.08220606 -0
vn -0.99215096 0.1060105 0.06631906
vn -0.513792 0.08248466 0.85394037
vn -0.4981081 0.121694505 0.8585329
vn 0.5056616 0.07464272 0.85949683
vn 0.48997772 0.11385256 0.8642682
vn 0.9977751 0.06667184 -0
vn 0.99661344 0.08222962 -0
vn 0.48997772 0.05895883 -0.8697389
vn 0.49781966 0.06680077 -0.86470413
vn 0.0037767887 0.9999929 -0
vn 0.0037767887 0.9999929 -0
vn 0.0037767887 0.9999929 -0
vn 0.0037767887 0.9999929 -0
vn 0.0037767887 0.9999929 -0
vn 0.0037767887 0.9999929 -0
vn 0.48997772 -0.019460678 0.8715177
vn 0.99970454 0.019749105 0.014171581
vn -0.54515976 -0.027302623 0.83788747
vn -0.99992913 0.011906401 -0
vn -0.56084377 0.04327494 -0.8267899
vn 0.46645188 0.051116884 -0.8830683
vn 0.46645188 0.051116884 -0.8830683
g E1_0
f 3/3/3 2/2/2 1/1/1
f 4/4/4 3/3/3 1/1/1
f 5/5/5 3/3/3 4/4/4
f 6/6/6 5/5/5 4/4/4
f 7/7/7 5/5/5 6/6/6
f 8/8/8 7/7/7 6/6/6
f 9/9/9 7/7/7 8/8/8
f 10/10/10 9/9/9 8/8/8
f 11/11/11 9/9/9 10/10/10
f 12/12/12 11/11/11 10/10/10
f 13/13/13 11/11/11 12/12/12
f 14/14/14 13/13/13 12/12/12
f 17/17/17 16/16/16 15/15/15
f 15/15/15 18/18/18 17/17/17
f 18/18/18 19/19/19 17/17/17
f 19/19/19 20/20/20 17/17/17
f 22/22/22 21/21/21 9/9/9
f 11/11/11 22/22/22 9/9/9
f 21/21/21 23/23/23 7/7/7
f 9/9/9 21/21/21 7/7/7
f 23/23/23 24/24/24 5/5/5
f 7/7/7 23/23/23 5/5/5
f 24/24/24 25/25/25 3/3/3
f 5/5/5 24/24/24 3/3/3
f 25/25/25 26/26/26 2/2/2
f 3/3/3 25/25/25 2/2/2
f 27/27/27 22/22/22 11/11/11
f 13/13/13 27/27/27 11/11/11
