g E1
v 0.5169482 0.7498044 -0.52532774
v 0.5851853 -0.004706323 -0.44216043
v 0.5088963 -0.004706323 0.60989106
v 0.41825017 0.80687785 0.66505396
v -0.29829347 1.2035807 -0.2949049
v -0.41143048 0.8122003 -0.4887527
v 0.5169482 0.7498044 -0.52532774
v 0.32340068 1.2035807 -0.2736968
v -0.37228972 1.2035807 0.36650318
v -0.54230917 0.8078878 0.5796758
v -0.41143048 0.8122003 -0.4887527
v -0.29829347 1.2035807 -0.2949049
v 0.2736149 1.2035807 0.4133138
v 0.41825017 0.80687785 0.66505396
v -0.54230917 0.8078878 0.5796758
v -0.37228972 1.2035807 0.36650318
v 0.5851853 -0.004706323 -0.44216043
v 0.5169482 0.7498044 -0.52532774
v -0.41143048 0.8122003 -0.4887527
v -0.42122936 -0.004706323 -0.4886981
v -0.42122936 -0.004706323 -0.4886981
v -0.41143048 0.8122003 -0.4887527
v -0.54230917 0.8078878 0.5796758
v -0.5243218 -0.004706323 0.5349668
v -0.54230917 0.8078878 0.5796758
v 0.41825017 0.80687785 0.66505396
v 0.5088963 -0.004706323 0.60989106
v -0.5243218 -0.004706323 0.5349668
v 0.32340068 1.2035807 -0.2736968
v 0.5169482 0.7498044 -0.52532774
v 0.41825017 0.80687785 0.66505396
v 0.2736149 1.2035807 0.4133138
v 0.32340068 1.2035807 -0.2736968
v 0.2736149 1.2035807 0.4133138
v -0.37228972 1.2035807 0.36650318
v -0.29829347 1.2035807 -0.2949049
v 0.5851853 -0.004706323 -0.44216043
v -0.42122936 -0.004706323 -0.4886981
v -0.5243218 -0.004706323 0.5349668
v 0.5088963 -0.004706323 0.60989106
vt 0.5653213 0.75168335
vt 0.5525808 0.75168335
vt 0.5525808 0.7676715
vt 0.5653213 0.7676715
vt 0.57806194 0.7841593
vt 0.57806194 0.78965527
vt 0.5925512 0.79115415
vt 0.592801 0.78390956
vt 0.5623236 0.78390956
vt 0.56207377 0.7899051
vt 0.57806194 0.78965527
vt 0.57806194 0.7841593
vt 0.5478343 0.78390956
vt 0.54883355 0.7899051
vt 0.56207377 0.7899051
vt 0.5623236 0.78390956
vt 0.5925512 0.8031453
vt 0.5925512 0.79115415
vt 0.57806194 0.78965527
vt 0.5778121 0.8031453
vt 0.5778121 0.8031453
vt 0.57806194 0.78965527
vt 0.56207377 0.7899051
vt 0.5625734 0.8031453
vt 0.56207377 0.7899051
vt 0.54883355 0.7899051
vt 0.5475845 0.8031453
vt 0.5625734 0.8031453
vt 0.57381505 0.75168335
vt 0.5653213 0.75168335
vt 0.5653213 0.7676715
vt 0.57381505 0.7676715
vt 0.57706267 0.79115415
vt 0.57681286 0.7836597
vt 0.5695682 0.78390956
vt 0.5700678 0.791404
vt 0.572566 0.7929029
vt 0.56731987 0.7926531
vt 0.56682026 0.7978991
vt 0.57206637 0.7983988
vn 0.9921493 0.10588145 0.06654998
vn 0.9921493 0.10588145 0.06654998
vn 0.9921493 0.10588145 0.06654998
vn 0.9921493 0.10588145 0.06654998
vn 0.011764646 0.466663 -0.8843569
vn 0.011764646 0.466663 -0.8843569
vn 0.011764646 0.466663 -0.8843569
vn 0.011764646 0.466663 -0.8843569
vn -0.93724763 0.33333075 -0.10226192
vn -0.93724763 0.33333075 -0.10226192
vn -0.93724763 0.33333075 -0.10226192
vn -0.93724763 0.33333075 -0.10226192
vn -0.066666126 0.50587845 0.86002475
vn -0.066666126 0.50587845 0.86002475
vn -0.066666126 0.50587845 0.86002475
vn -0.066666126 0.50587845 0.86002475
vn 0.0039215684 -0.05098003 -0.998692
vn 0.0039215684 -0.05098003 -0.998692
vn 0.0039215684 -0.05098003 -0.998692
vn 0.0039215684 -0.05098003 -0.998692
vn -0.99214923 -0.0039215684 -0.124998085
vn -0.99214923 -0.0039215684 -0.124998085
vn -0.99214923 -0.0039215684 -0.124998085
vn -0.99214923 -0.0039215684 -0.124998085
vn -0.08235228 -0.066666186 0.99437106
vn -0.08235228 -0.066666186 0.99437106
vn -0.08235228 -0.066666186 0.99437106
vn -0.08235228 -0.066666186 0.99437106
vn 0.9282063 0.37206572 -0
vn 0.9282063 0.37206572 -0
vn 0.9282063 0.37206572 -0
vn 0.9282063 0.37206572 -0
vn 0.0039215684 0.99999225 -0.00034526698
vn 0.0039215684 0.99999225 -0.00034526698
vn 0.0039215684 0.99999225 -0.00034526698
vn 0.0039215684 0.99999225 -0.00034526698
vn -0.003921509 -0.9999924 -0
vn -0.003921509 -0.9999924 -0
vn -0.003921509 -0.9999924 -0
vn -0.003921509 -0.9999924 -0
g E1_0
f 3/3/3 2/2/2 1/1/1
f 4/4/4 3/3/3 1/1/1
f 7/7/7 6/6/6 5/5/5
f 8/8/8 7/7/7 5/5/5
f 11/11/11 10/10/10 9/9/9
f 12/12/12 11/11/11 9/9/9
f 15/15/15 14/14/14 13/13/13
f 16/16/16 15/15/15 13/13/13
f 19/19/19 18/18/18 17/17/17
f 20/20/20 19/19/19 17/17/17
f 23/23/23 22/22/22 21/21/21
f 24/24/24 23/23/23 21/21/21
f 27/27/27 26/26/26 25/25/25
f 28/28/28 27/27/27 25/25/25
f 31/31/31 30/30/30 29/29/29
f 32/32/32 31/31/31 29/29/29
f 35/35/35 34/34/34 33/33/33
f 36/36/36 35/35/35 33/33/33
f 39/39/39 38/38/38 37/37/37
f 40/40/40 39/39/39 37/37/37
