g E2
v -0.20865814 1.2086166 -0.0052068005
v -0.18427096 1.3681504 0.18427096
v -0.16065963 1.209078 0.16063866
v -0.23811989 1.349404 -0.0034873255
v -0.17902866 1.1166667 0.17902866
v -0.4407663 0.88462144 0.18263535
v -0.23669398 1.1073563 -0.004850324
v -0.3312651 0.88462144 0.3312651
v -0.16124676 0.007877985 0.16124676
v -0.464797 0.6992956 0.19242798
v -0.34913087 0.6992956 0.34913087
v -0.22983705 0.0067875856 -0.006066538
v 0.0034873255 1.349404 0.23811989
v 0.0051858313 1.2086166 0.20863718
v 0.0048293546 1.1073563 0.23669398
v 0.0023759576 0.8750176 0.45183805
v -0.18263535 0.88462144 0.4407663
v -0.19242798 0.6992956 0.464797
v 0.006066538 0.0067875856 0.22983705
v -0.45177513 0.87510145 -0.0024808035
v -0.47559613 0.7027765 -0.0027953417
v -0.16065963 1.349404 -6.4373016E-06
v -0.18427096 1.3681504 0.18427096
v -0.23811989 1.349404 -0.0034873255
v -0.11391926 1.349404 0.11391926
v 6.4373016E-06 1.349404 0.16065963
v 0.0034873255 1.349404 0.23811989
v 0.0026904957 0.70286036 0.47559613
v -0.20865814 1.2086166 -0.0052068005
v -0.1518316 1.3340335 0.1518316
v -0.23811989 1.349404 -0.0034873255
v -0.13226733 1.2025566 0.13230926
v -0.4098577 0.8645539 0.16984414
v -0.16973929 0.86447006 0.40994155
v -0.15229292 1.1019464 0.15227194
v -0.22983705 0.0067875856 -0.006066538
v -0.16124676 0.007877985 0.16124676
v -0.43032363 0.70697033 0.17823182
v 0.0034873255 1.349404 0.23811989
v 0.0051858313 1.2086166 0.20863718
v 0.0023759576 0.8750176 0.45183805
v 0.0048293546 1.1073563 0.23669398
v 0.006066538 0.0067875856 0.22983705
v -0.17816892 0.7070332 0.43038654
v -0.23669398 1.1073563 -0.004850324
v -0.45177513 0.87510145 -0.0024808035
v -0.47559613 0.7027765 -0.0027953417
v -0.23811989 1.349404 -0.0034873255
v -0.11391926 1.349404 0.11391926
v -0.16065963 1.349404 -6.4373016E-06
v -0.1518316 1.3340335 0.1518316
v 0.0034873255 1.349404 0.23811989
v 6.4373016E-06 1.349404 0.16065963
v 0.0026904957 0.70286036 0.47559613
vt 0.48464867 0.8591918
vt 0.4885583 0.86114657
vt 0.4885583 0.8591918
vt 0.48464867 0.86114657
vt 0.4885583 0.8584098
vt 0.48699445 0.8556731
vt 0.48464867 0.8584098
vt 0.4885583 0.8556731
vt 0.4885583 0.8447261
vt 0.48699445 0.8533273
vt 0.4885583 0.8533273
vt 0.48464867 0.8447261
vt 0.492077 0.86114657
vt 0.492077 0.8591918
vt 0.492077 0.8584098
vt 0.492077 0.8556731
vt 0.49012217 0.8556731
vt 0.49012217 0.8533273
vt 0.492077 0.8447261
vt 0.48464867 0.8556731
vt 0.48464867 0.8533273
vt 0.47174686 0.8693568
vt 0.47096494 0.8638833
vt 0.4694011 0.8693568
vt 0.47291976 0.86622906
vt 0.47526553 0.8650562
vt 0.47526553 0.86192846
vt 0.492077 0.8533273
vt 0.48464867 0.8591918
vt 0.48816735 0.86114657
vt 0.48464867 0.86114657
vt 0.48816735 0.8591918
vt 0.48621252 0.8552821
vt 0.49012217 0.8552821
vt 0.48816735 0.8580189
vt 0.48464867 0.8447261
vt 0.48816735 0.8447261
vt 0.48621252 0.8529363
vt 0.492077 0.86114657
vt 0.492077 0.8591918
vt 0.492077 0.8552821
vt 0.492077 0.8580189
vt 0.492077 0.8447261
vt 0.49012217 0.8529363
vt 0.48464867 0.8580189
vt 0.48464867 0.8552821
vt 0.48464867 0.8529363
vt 0.4694011 0.86857486
vt 0.47213784 0.86583817
vt 0.47135592 0.86857486
vt 0.47096494 0.8638833
vt 0.4744836 0.86192846
vt 0.4744836 0.86466527
vt 0.492077 0.8529363
vn -0.9557935 -0.014279604 0.29369184
vn -0.6741594 -0.20985883 0.7081443
vn -0.7132752 -0.022102773 0.7005355
vn -0.94014716 -0.20203567 0.2744174
vn -0.5098728 0.68980575 0.51400167
vn -0.81497645 0.5020497 0.28941235
vn -0.7445679 0.65068984 0.14906849
vn -0.61939716 0.48640335 0.61624587
vn -0.64286673 -0.40543813 0.6498787
vn -0.9088545 -0.26462102 0.3224271
vn -0.6819825 -0.26462102 0.6818178
vn -0.8697387 -0.38196862 0.31249732
vn -0.28300083 -0.1942125 0.9392508
vn -0.28300083 0.0013667345 0.9591187
vn -0.15783012 0.64286673 0.7495412
vn -0.024836302 0.49422646 0.8689784
vn -0.28300083 0.5098728 0.8123671
vn -0.32993984 -0.26462102 0.90615416
vn -0.3064704 -0.38196862 0.87188065
vn -0.8697387 0.48640335 0.08346485
vn -0.9686908 -0.24827012 -0
vn 0.04557228 0.9949094 -0.08988023
vn 0.100334466 0.9870862 -0.124875486
vn 0.0064564347 0.9949094 -0.10056638
vn 0.13162714 0.97926307 -0.15400688
vn 0.092511296 0.9949094 -0.039961576
vn 0.100334466 0.9949094 -0.00939545
vn -0.04830575 -0.24897468 0.9673046
vn 0.87482834 0.017013073 -0.48413426
vn 0.6870723 0.20476913 -0.69713795
vn 0.86700517 0.1891228 -0.46101475
vn 0.7027186 -0.0064564347 -0.7114386
vn 0.72618806 -0.47584665 -0.49620646
vn 0.49931616 -0.46802348 -0.7291347
vn 0.55407834 -0.62448686 -0.55046654
vn 0.87482834 0.33776307 -0.3472629
vn 0.6636027 0.3455863 -0.6634769
vn 0.812243 0.2282387 -0.5368132
vn 0.46802348 0.1891228 -0.8632419
vn 0.48366982 -0.0064564347 -0.87522674
vn 0.23332834 -0.491493 -0.83904266
vn 0.3584991 -0.6166637 -0.70085967
vn 0.34285277 0.33776307 -0.87656605
vn 0.538432 0.2282387 -0.8111708
vn 0.7027186 -0.6166637 -0.3548414
vn 0.8357125 -0.491493 -0.24498825
vn 0.9374137 0.24388504 -0.2485471
vn 0.06121862 -0.9921759 -0.10880869
vn 0.15509665 -0.97652954 -0.14944936
vn -0.0013667345 -0.99999905 -0.00024414062
vn 0.1942125 -0.9608832 -0.19744623
vn 0.06904179 -0.9921759 -0.10402053
vn -0.0013667345 -0.99999905 -0.00024414062
vn 0.24115151 0.24388504 -0.9393434
g E2_0
f 3/3/3 2/2/2 1/1/1
f 4/4/4 1/1/1 2/2/2
f 7/7/7 6/6/6 5/5/5
f 8/8/8 5/5/5 6/6/6
f 11/11/11 10/10/10 9/9/9
f 12/12/12 9/9/9 10/10/10
f 14/14/14 13/13/13 3/3/3
f 2/2/2 3/3/3 13/13/13
f 17/17/17 16/16/16 15/15/15
f 11/11/11 9/9/9 18/18/18
f 19/19/19 18/18/18 9/9/9
f 1/1/1 7/7/7 3/3/3
f 5/5/5 3/3/3 7/7/7
f 3/3/3 5/5/5 14/14/14
f 15/15/15 14/14/14 5/5/5
f 6/6/6 20/20/20 10/10/10
f 21/21/21 10/10/10 20/20/20
f 18/18/18 17/17/17 11/11/11
f 8/8/8 11/11/11 17/17/17
f 24/24/24 23/23/23 22/22/22
f 25/25/25 22/22/22 23/23/23
f 25/25/25 23/23/23 26/26/26
f 27/27/27 26/26/26 23/23/23
f 8/8/8 6/6/6 11/11/11
f 10/10/10 11/11/11 6/6/6
f 16/16/16 17/17/17 28/28/28
f 18/18/18 28/28/28 17/17/17
f 8/8/8 17/17/17 5/5/5
f 15/15/15 5/5/5 17/17/17
f 20/20/20 6/6/6 7/7/7
f 28/28/28 18/18/18 19/19/19
f 21/21/21 12/12/12 10/10/10
f 31/31/31 30/30/30 29/29/29
f 32/32/32 29/29/29 30/30/30
f 35/35/35 34/34/34 33/33/33
f 38/38/38 37/37/37 36/36/36
f 30/30/30 39/39/39 32/32/32
f 40/40/40 32/32/32 39/39/39
f 34/34/34 42/42/42 41/41/41
f 44/44/44 43/43/43 37/37/37
f 29/29/29 32/32/32 45/45/45
f 35/35/35 45/45/45 32/32/32
f 32/32/32 40/40/40 35/35/35
f 42/42/42 35/35/35 40/40/40
f 33/33/33 38/38/38 46/46/46
f 47/47/47 46/46/46 38/38/38
f 33/33/33 34/34/34 38/38/38
f 44/44/44 38/38/38 34/34/34
f 50/50/50 49/49/49 48/48/48
f 51/51/51 48/48/48 49/49/49
f 53/53/53 52/52/52 49/49/49
f 51/51/51 49/49/49 52/52/52
f 41/41/41 54/54/54 34/34/34
f 44/44/44 34/34/34 54/54/54
f 45/45/45 35/35/35 33/33/33
f 35/35/35 42/42/42 34/34/34
f 46/46/46 45/45/45 33/33/33
f 54/54/54 43/43/43 44/44/44
f 38/38/38 44/44/44 37/37/37
f 47/47/47 38/38/38 36/36/36
