g E2
v 0.006533414 3.0818338 0.040101558
v -0.102187335 5.916865 0.008446306
v -0.0388768 5.9175243 0.08937451
v -0.09596935 2.9365587 -0.0786057
v -0.034448832 3.0207844 -0.23132353
v -0.06421986 5.9163938 -0.086990565
v 0.037152365 5.9164877 -0.10159345
v 0.12514648 3.24727 -0.25657237
v 0.1004629 5.917147 -0.020665243
v 0.22199652 3.3886828 -0.13145868
v 0.16452713 3.307189 0.012968481
v 0.062495425 5.9176183 0.07477161
v 0.062495425 5.9176183 0.07477161
v 0.037152365 5.9164877 -0.10159345
v 0.1004629 5.917147 -0.020665243
v -0.102187335 5.916865 0.008446306
v -0.06421986 5.9163938 -0.086990565
v -0.0388768 5.9175243 0.08937451
v 0.12514648 3.24727 -0.25657237
v 0.16452713 3.307189 0.012968481
v 0.22199652 3.3886828 -0.13145868
v 0.006533414 3.0818338 0.040101558
v -0.034448832 3.0207844 -0.23132353
v -0.09596935 2.9365587 -0.0786057
vt 0.43607304 0.90783334
vt 0.43607304 0.9341234
vt 0.43607304 0.9341234
vt 0.43607304 0.90783334
vt 0.43607304 0.90783334
vt 0.43607304 0.9341234
vt 0.43607304 0.9341234
vt 0.43607304 0.90783334
vt 0.43607304 0.9341234
vt 0.43607304 0.90783334
vt 0.43607304 0.90783334
vt 0.43607304 0.9341234
vt 0.43607304 0.9341234
vt 0.43607304 0.9341234
vt 0.43607304 0.9341234
vt 0.43607304 0.9341234
vt 0.43607304 0.9341234
vt 0.43607304 0.9341234
vt 0.43607304 0.90783334
vt 0.43607304 0.90783334
vt 0.43607304 0.90783334
vt 0.43607304 0.90783334
vt 0.43607304 0.90783334
vt 0.43607304 0.90783334
vn -0.5942961 -0.022031128 0.8039445
vn -0.9921782 -0.006427884 0.124664046
vn -0.3836527 -0.022031128 0.9232146
vn -0.9999794 -0.006427881 -0
vn -0.836146 0.016976953 -0.5482442
vn -0.6255026 0.032580137 -0.7795416
vn 0.34189713 0.063786626 -0.93757004
vn -0.00917536 0.055984974 -0.9983895
vn 0.9894308 0.04818344 -0.13676654
vn 0.9816292 0.055984974 -0.18240015
vn 0.43551648 -0.006427884 0.9001578
vn 0.60715187 0.0013737082 0.79458463
vn -0.0013737082 0.99997985 -0.0061955946
vn -0.0013737082 0.99997985 -0.0061955946
vn -0.0013737082 0.99997985 -0.0061955946
vn -0.0013737082 0.99997985 -0.0061955946
vn -0.0013737082 0.99997985 -0.0061955946
vn -0.0013737082 0.99997985 -0.0061955946
vn 0.8237875 -0.56689864 -0
vn 0.8237875 -0.56689864 -0
vn 0.8237875 -0.56689864 -0
vn 0.81759 -0.57580084 -0
vn 0.81759 -0.57580084 -0
vn 0.8139182 -0.58097947 -0
g E2_0
f 3/3/3 2/2/2 1/1/1
f 4/4/4 1/1/1 2/2/2
f 4/4/4 2/2/2 5/5/5
f 6/6/6 5/5/5 2/2/2
f 8/8/8 5/5/5 7/7/7
f 6/6/6 7/7/7 5/5/5
f 10/10/10 8/8/8 9/9/9
f 7/7/7 9/9/9 8/8/8
f 12/12/12 11/11/11 9/9/9
f 10/10/10 9/9/9 11/11/11
f 1/1/1 11/11/11 3/3/3
f 12/12/12 3/3/3 11/11/11
f 15/15/15 14/14/14 13/13/13
f 17/17/17 16/16/16 14/14/14
f 14/14/14 16/16/16 13/13/13
f 13/13/13 16/16/16 18/18/18
f 21/21/21 20/20/20 19/19/19
f 20/20/20 22/22/22 19/19/19
f 19/19/19 22/22/22 23/23/23
f 23/23/23 22/22/22 24/24/24
