g E2
v -1.0192394E-05 1.5713246 1.0192394E-05
v -0.27502525 1.4145224 -0.2569161
v -1.0192394E-05 1.4145224 -0.36333042
v -0.3889684 1.4145224 1.0192394E-05
v -1.0192394E-05 1.5713246 1.0192394E-05
v -0.27502525 1.4145224 0.25690383
v -0.3889684 1.4145224 1.0192394E-05
v -1.0192394E-05 1.4145224 0.36331815
v 0.2750375 1.4145224 0.25690383
v 0.38894808 1.4145224 1.0192394E-05
v 0.2750375 1.4145224 -0.2569161
v 0.38894808 1.4145224 1.0192394E-05
v -0.3938899 1.2126122 -0.36795855
v -1.0192394E-05 1.2126122 -0.5203608
v -0.55704767 1.2126122 1.0192394E-05
v -0.3938899 1.2126122 0.36794633
v -0.55704767 1.2126122 1.0192394E-05
v -1.0192394E-05 1.2126122 0.5203486
v 0.39390215 1.2126122 0.36794633
v 0.55705994 1.2126122 1.0192394E-05
v 0.39390215 1.2126122 -0.36795855
v 0.55705994 1.2126122 1.0192394E-05
v -0.27502525 0.65739983 -0.2569161
v -1.0192394E-05 0.90862244 -0.48734468
v -0.36892408 0.90862244 -0.34462237
v -1.0192394E-05 0.65739983 -0.36333042
v -0.3889684 0.65739983 1.0192394E-05
v -0.5217175 0.90862244 1.0192394E-05
v -0.27502525 0.65739983 0.25690383
v -0.5217175 0.90862244 1.0192394E-05
v -0.36892408 0.90862244 0.3446101
v -0.3889684 0.65739983 1.0192394E-05
v -1.0192394E-05 0.65739983 0.36331815
v -1.0192394E-05 0.90862244 0.4873324
v 0.2750375 0.65739983 0.25690383
v 0.36890376 0.90862244 0.3446101
v 0.38894808 0.65739983 1.0192394E-05
v 0.5217297 0.90862244 1.0192394E-05
v 0.2750375 0.65739983 -0.2569161
v 0.5217297 0.90862244 1.0192394E-05
v 0.36890376 0.90862244 -0.34462237
v 0.38894808 0.65739983 1.0192394E-05
v -1.0192394E-05 0.50059754 1.0192394E-05
v -1.0192394E-05 0.50059754 1.0192394E-05
v 0.40811247 1.3408961 -0.021240115
v 0.3053485 1.4829991 -0.32656616
v 0.28859594 1.3409286 -0.30984622
v 0.43180716 1.4829991 -0.021240115
v -1.0192394E-05 1.4829991 -0.45305744
v -1.0192394E-05 1.3409286 -0.4293627
v -0.30533624 1.4829991 -0.32656616
v -0.2885837 1.3409286 -0.30984622
v -0.4318275 1.4829991 -0.021240115
v -0.4081328 1.3409286 -0.021240115
v -0.30533624 1.4829991 0.28408593
v -0.2885837 1.3409286 0.2673334
v -0.3040325 0.97579545 0.3778544
v -0.14797986 0.95431703 0.51911
v -0.16121238 0.94398516 0.45033997
v -0.31527692 0.9916027 0.43420672
v 0.16751501 0.9093395 0.48782128
v 0.35114086 0.93857485 0.49916345
v 0.34217793 0.9075795 0.41308683
v 0.16269132 0.93864006 0.57712466
v 0.28859594 1.3409286 0.2673334
v 0.3053485 1.4829991 0.28408593
v 0.26014274 1.578886 -0.28139302
v 0.3678934 1.578886 -0.021240115
v -1.0192394E-05 1.578886 -0.38914365
v -0.26013047 1.578886 -0.28139302
v -0.36788112 1.578886 -0.021240115
v -0.26013047 1.578886 0.23888022
v -1.0192394E-05 1.578886 0.34666342
v -1.0192394E-05 1.4829991 0.41044682
v 0.26014274 1.578886 0.23888022
v 0.05526662 1.3387449 0.38251513
v 0.15424988 1.203193 0.5326033
v 0.1321522 1.1418214 0.43153417
v -1.0192394E-05 1.4829991 0.41044682
v 0.28859594 1.3409286 0.2673334
v 0.38663405 1.203193 0.43635786
v 0.3053485 1.4829991 0.28408593
v 0.33559427 1.1397355 0.3445775
v 0.15424988 1.203193 0.5326033
v 0.38663405 1.203193 0.43635786
v -0.30533624 1.4829991 0.28408593
v -0.3177539 1.2479749 0.3683048
v -0.2885837 1.3409286 0.2673334
v -0.3414812 1.283957 0.45438153
v -0.06447804 1.3506737 0.40718758
v -0.13435626 1.283957 0.54016477
v -1.0192394E-05 1.4829991 0.41044682
v -0.14677393 1.2479749 0.43912822
v -0.3414812 1.283957 0.45438153
v -0.13435626 1.283957 0.54016477
v -0.10844523 1.3934677 0.30331546
v 0.05526662 1.3387449 0.38251513
v 0.11761597 1.3934677 0.30331546
v -0.06447804 1.3506737 0.40718758
v -1.0192394E-05 1.4829991 0.41044682
v 0.16751501 0.9093395 0.48782128
v 0.16269132 0.93864006 0.57712466
v 0.35114086 0.93857485 0.49916345
v 0.34217793 0.9075795 0.41308683
v -0.3040325 0.97579545 0.3778544
v -0.31527692 0.9916027 0.43420672
v -0.14797986 0.95431703 0.51911
v -0.16121238 0.94398516 0.45033997
vt 0.4536488 0.9186795
vt 0.44829243 0.922575
vt 0.45121408 0.9240358
vt 0.4458577 0.9186795
vt 0.4741004 0.9186795
vt 0.4750743 0.9250097
vt 0.47945678 0.92452276
vt 0.4716657 0.9240358
vt 0.46923098 0.922575
vt 0.4663093 0.9186795
vt 0.45413575 0.9250097
vt 0.45851824 0.92452276
vt 0.4468316 0.9250097
vt 0.44975325 0.9264705
vt 0.4414752 0.92111415
vt 0.4741004 0.9279313
vt 0.48043066 0.9293922
vt 0.4706918 0.9264705
vt 0.46728322 0.9250097
vt 0.4624138 0.92111415
vt 0.4536488 0.9279313
vt 0.45949212 0.9293922
vt 0.44488382 0.930853
vt 0.44877937 0.9293922
vt 0.44537076 0.9279313
vt 0.4478055 0.9318269
vt 0.44050133 0.9318269
vt 0.43952745 0.9264705
vt 0.47117877 0.9337747
vt 0.47750902 0.9342616
vt 0.47312653 0.930853
vt 0.47312653 0.93718326
vt 0.4682571 0.9318269
vt 0.46971792 0.9293922
vt 0.46533543 0.930853
vt 0.46582237 0.9279313
vt 0.4614399 0.9318269
vt 0.460466 0.9264705
vt 0.4502402 0.9337747
vt 0.45705742 0.9342616
vt 0.452188 0.930853
vt 0.45267493 0.93718326
vt 0.44537076 0.93718326
vt 0.4663093 0.93718326
vt 0.45267493 0.9016364
vt 0.4560835 0.9060189
vt 0.45754436 0.90407115
vt 0.452188 0.9035842
vt 0.45705742 0.9094275
vt 0.45997906 0.9094275
vt 0.45559657 0.9128361
vt 0.45705742 0.9147839
vt 0.45170105 0.9147839
vt 0.452188 0.91673166
vt 0.44731855 0.91332304
vt 0.4468316 0.9157578
vt 0.44098827 0.91673166
vt 0.44050133 0.914297
vt 0.43952745 0.9147839
vt 0.4414752 0.9157578
vt 0.4390405 0.90212333
vt 0.44098827 0.9011495
vt 0.44098827 0.89968866
vt 0.44050133 0.9026103
vt 0.44731855 0.90212333
vt 0.4478055 0.90455806
vt 0.4546227 0.9065058
vt 0.452188 0.90504503
vt 0.45559657 0.9094275
vt 0.4546227 0.91186225
vt 0.45170105 0.91332304
vt 0.44877937 0.91234916
vt 0.44731855 0.90894055
vt 0.44537076 0.90894055
vt 0.44877937 0.9060189
vt 0.44293606 0.9079667
vt 0.44196218 0.90455806
vt 0.4400144 0.905532
vt 0.44537076 0.90894055
vt 0.44731855 0.90212333
vt 0.44390994 0.90212333
vt 0.4478055 0.90455806
vt 0.44439688 0.9001756
vt 0.44196218 0.90455806
vt 0.44390994 0.90212333
vt 0.44731855 0.91332304
vt 0.44439688 0.9157578
vt 0.4468316 0.9157578
vt 0.44390994 0.9147839
vt 0.44293606 0.9099145
vt 0.44293606 0.91234916
vt 0.44537076 0.90894055
vt 0.4414752 0.9113753
vt 0.44390994 0.9147839
vt 0.44293606 0.91234916
vt 0.44098827 0.9104014
vt 0.44293606 0.9079667
vt 0.4414752 0.9069928
vt 0.44293606 0.9099145
vt 0.44537076 0.90894055
vt 0.4390405 0.90212333
vt 0.44050133 0.9026103
vt 0.44098827 0.9011495
vt 0.44098827 0.89968866
vt 0.44098827 0.91673166
vt 0.4414752 0.9157578
vt 0.44050133 0.914297
vt 0.43952745 0.9147839
vn -0.003921509 0.99999225 -0.00034526698
vn -0.42744768 0.79607224 -0.42843613
vn -0.019607663 0.7882292 -0.6150693
vn -0.59812194 0.8014052 -0
vn -0.003921509 0.99999225 -0.00034526698
vn -0.4039184 0.7882292 0.46426785
vn -0.59812194 0.8014052 -0
vn 0.019607723 0.7882292 0.6150693
vn 0.42744774 0.79607224 0.42843598
vn 0.5981219 0.8014051 -0
vn 0.4039185 0.7882292 -0.46426773
vn 0.5981219 0.8014051 -0
vn -0.67842615 0.20784152 -0.7046558
vn -0.003921509 0.19999838 -0.97978836
vn -0.9764631 0.20784152 0.0576349
vn -0.66274 0.20784152 0.71942866
vn -0.9764631 0.20784152 0.0576349
vn 0.0039215684 0.19999838 0.97978836
vn 0.6784262 0.20784152 0.70465577
vn 0.97646314 0.20784152 -0.057633866
vn 0.66274005 0.20784152 -0.7194286
vn 0.97646314 0.20784152 -0.057633866
vn -0.45882 -0.7176416 -0.52390337
vn 0.011764646 -0.25490004 -0.9668959
vn -0.64705384 -0.26274312 -0.7157426
vn 0.019607723 -0.7097985 -0.70413184
vn -0.68329144 -0.7301458 -0
vn -0.9607769 -0.2705862 -0.06075203
vn -0.4901923 -0.72548467 0.4830978
vn -0.9607769 -0.2705862 -0.06075203
vn -0.670583 -0.26274312 0.6937467
vn -0.68329144 -0.7301458 -0
vn -0.019607663 -0.7097985 0.70413184
vn -0.011764526 -0.25490004 0.9668959
vn 0.45882004 -0.7176416 0.5239033
vn 0.6470539 -0.26274312 0.71574247
vn 0.68329144 -0.7301457 -0
vn 0.960777 -0.2705862 0.060751047
vn 0.49019235 -0.72548467 -0.48309773
vn 0.960777 -0.2705862 0.060751047
vn 0.6705831 -0.26274312 -0.69374657
vn 0.68329144 -0.7301457 -0
vn -0.003921509 -0.9999924 -0
vn -0.003921509 -0.9999924 -0
vn 0.9843062 -0.16078311 -0.07273288
vn 0.70195544 0.13725376 -0.6988705
vn 0.69411236 -0.16078311 -0.70168144
vn 0.99056625 0.13703476 -0
vn 0.0039215684 0.13725376 -0.99052817
vn -0.011764526 -0.16078311 -0.98691964
vn -0.6941123 0.13725376 -0.70666087
vn -0.7019553 -0.16078311 -0.6938354
vn -0.9905662 0.13703476 -0
vn -0.9843061 -0.16078311 0.07273452
vn -0.5999954 0.47450614 0.64408815
vn -0.91371846 -0.15294003 0.3764677
vn -0.30980146 -0.9294047 0.20057411
vn -0.47450614 -0.1294108 0.87068754
vn -0.30980146 -0.9294047 0.20057411
vn -0.45097685 -0.20784158 0.8679987
vn 0.1294108 -0.93724775 0.32375836
vn 0.38038927 -0.121567726 0.91680163
vn 0.1294108 -0.93724775 0.32375836
vn 0.38038927 -0.035293877 0.92415273
vn 0.9137185 -0.15294003 0.37646753
vn 0.5764662 0.41960454 0.7011553
vn 0.1294108 0.9843061 -0.11997642
vn 0.4352908 0.8980323 0.06371696
vn 0.011764646 0.8980323 -0.43977216
vn -0.12156761 0.9843061 -0.12791733
vn -0.4352907 0.8980323 -0.063717894
vn -0.12941074 0.9843061 0.11997668
vn -0.011764526 0.8980323 0.43977216
vn 0.05098003 0.59215224 0.8042119
vn 0.121567726 0.9843061 0.12791711
vn -0.8901892 -0.36470312 0.27304736
vn -0.9450908 -0.1999985 0.25846475
vn -0.93724763 -0.15294003 0.3133309
vn -0.8901892 -0.38823235 0.23840904
vn 0.8509739 -0.0274508 -0.5244901
vn 0.8901893 -0.098038495 -0.4449174
vn 0.8509739 -0.035293877 -0.5240208
vn 0.9137185 -0.098038495 -0.39434364
vn 0.34901696 0.39607537 0.84930056
vn 0.35686004 0.38823223 0.8496627
vn -0.9529338 -0.05098003 -0.2988616
vn -0.96861994 -0.05098003 -0.24326205
vn -0.93724763 -0.07450926 -0.34061015
vn -0.96861994 -0.05098003 -0.24326205
vn 0.858817 -0.46666312 0.21132663
vn 0.96862006 -0.2313708 -0.090789296
vn 0.86666006 -0.42744774 0.2572718
vn 0.97646314 -0.19215542 -0.09795943
vn -0.35685992 0.3490169 0.8665092
vn -0.37254608 0.33333075 0.86608315
vn -0.074509144 -0.8823462 -0.46466497
vn 0.05098003 -0.9921493 -0.1141965
vn -0.003921509 -0.8196016 -0.57292044
vn -0.003921509 -0.90587544 0.42352602
vn 0.19215542 -0.11372465 0.9747528
vn -0.998703 -0.050914306 -0
vn -0.9993777 -0.03527219 -0
vn 0.97646314 -0.07450926 -0.20240586
vn 0.9921493 -0.0039215684 -0.12499761
vn -0.9764631 -0.07450926 -0.20240614
vn -0.9843061 -0.07450926 -0.1599684
vn 0.9843062 -0.05098003 -0.16894472
vn 0.9843062 -0.05098003 -0.16894472
g E2_0
f 3/3/3 2/2/2 1/1/1
f 2/2/2 4/4/4 1/1/1
f 7/7/7 6/6/6 5/5/5
f 6/6/6 8/8/8 5/5/5
f 8/8/8 9/9/9 5/5/5
f 9/9/9 10/10/10 5/5/5
f 12/12/12 11/11/11 1/1/1
f 11/11/11 3/3/3 1/1/1
f 2/2/2 3/3/3 13/13/13
f 14/14/14 13/13/13 3/3/3
f 4/4/4 2/2/2 15/15/15
f 13/13/13 15/15/15 2/2/2
f 6/6/6 7/7/7 16/16/16
f 17/17/17 16/16/16 7/7/7
f 8/8/8 6/6/6 18/18/18
f 16/16/16 18/18/18 6/6/6
f 9/9/9 8/8/8 19/19/19
f 18/18/18 19/19/19 8/8/8
f 10/10/10 9/9/9 20/20/20
f 19/19/19 20/20/20 9/9/9
f 11/11/11 12/12/12 21/21/21
f 22/22/22 21/21/21 12/12/12
f 3/3/3 11/11/11 14/14/14
f 21/21/21 14/14/14 11/11/11
f 25/25/25 24/24/24 23/23/23
f 26/26/26 23/23/23 24/24/24
f 28/28/28 25/25/25 27/27/27
f 23/23/23 27/27/27 25/25/25
f 31/31/31 30/30/30 29/29/29
f 32/32/32 29/29/29 30/30/30
f 34/34/34 31/31/31 33/33/33
f 29/29/29 33/33/33 31/31/31
f 36/36/36 34/34/34 35/35/35
f 33/33/33 35/35/35 34/34/34
f 38/38/38 36/36/36 37/37/37
f 35/35/35 37/37/37 36/36/36
f 41/41/41 40/40/40 39/39/39
f 42/42/42 39/39/39 40/40/40
f 24/24/24 41/41/41 26/26/26
f 39/39/39 26/26/26 41/41/41
f 23/23/23 26/26/26 43/43/43
f 27/27/27 23/23/23 43/43/43
f 29/29/29 32/32/32 44/44/44
f 33/33/33 29/29/29 44/44/44
f 35/35/35 33/33/33 44/44/44
f 37/37/37 35/35/35 44/44/44
f 39/39/39 42/42/42 43/43/43
f 26/26/26 39/39/39 43/43/43
f 24/24/24 25/25/25 14/14/14
f 13/13/13 14/14/14 25/25/25
f 25/25/25 28/28/28 13/13/13
f 15/15/15 13/13/13 28/28/28
f 30/30/30 31/31/31 17/17/17
f 16/16/16 17/17/17 31/31/31
f 31/31/31 34/34/34 16/16/16
f 18/18/18 16/16/16 34/34/34
f 34/34/34 36/36/36 18/18/18
f 19/19/19 18/18/18 36/36/36
f 36/36/36 38/38/38 19/19/19
f 20/20/20 19/19/19 38/38/38
f 40/40/40 41/41/41 22/22/22
f 21/21/21 22/22/22 41/41/41
f 41/41/41 24/24/24 21/21/21
f 14/14/14 21/21/21 24/24/24
f 47/47/47 46/46/46 45/45/45
f 48/48/48 45/45/45 46/46/46
f 50/50/50 49/49/49 47/47/47
f 46/46/46 47/47/47 49/49/49
f 52/52/52 51/51/51 50/50/50
f 49/49/49 50/50/50 51/51/51
f 54/54/54 53/53/53 52/52/52
f 51/51/51 52/52/52 53/53/53
f 56/56/56 55/55/55 54/54/54
f 53/53/53 54/54/54 55/55/55
f 59/59/59 58/58/58 57/57/57
f 60/60/60 57/57/57 58/58/58
f 63/63/63 62/62/62 61/61/61
f 64/64/64 61/61/61 62/62/62
f 45/45/45 48/48/48 65/65/65
f 66/66/66 65/65/65 48/48/48
f 46/46/46 67/67/67 48/48/48
f 68/68/68 48/48/48 67/67/67
f 49/49/49 69/69/69 46/46/46
f 67/67/67 46/46/46 69/69/69
f 51/51/51 70/70/70 49/49/49
f 69/69/69 49/49/49 70/70/70
f 53/53/53 71/71/71 51/51/51
f 70/70/70 51/51/51 71/71/71
f 55/55/55 72/72/72 53/53/53
f 71/71/71 53/53/53 72/72/72
f 74/74/74 73/73/73 55/55/55
f 72/72/72 55/55/55 73/73/73
f 66/66/66 75/75/75 74/74/74
f 73/73/73 74/74/74 75/75/75
f 48/48/48 68/68/68 66/66/66
f 75/75/75 66/66/66 68/68/68
f 69/69/69 70/70/70 67/67/67
f 71/71/71 72/72/72 70/70/70
f 73/73/73 75/75/75 72/72/72
f 72/72/72 75/75/75 70/70/70
f 70/70/70 75/75/75 67/67/67
f 67/67/67 75/75/75 68/68/68
f 78/78/78 77/77/77 76/76/76
f 79/79/79 76/76/76 77/77/77
f 82/82/82 81/81/81 80/80/80
f 83/83/83 80/80/80 81/81/81
f 74/74/74 84/84/84 66/66/66
f 85/85/85 66/66/66 84/84/84
f 88/88/88 87/87/87 86/86/86
f 89/89/89 86/86/86 87/87/87
f 92/92/92 91/91/91 90/90/90
f 93/93/93 90/90/90 91/91/91
f 55/55/55 94/94/94 74/74/74
f 95/95/95 74/74/74 94/94/94
f 98/98/98 97/97/97 96/96/96
f 99/99/99 96/96/96 97/97/97
f 97/97/97 100/100/100 99/99/99
f 78/78/78 101/101/101 77/77/77
f 102/102/102 77/77/77 101/101/101
f 81/81/81 103/103/103 83/83/83
f 104/104/104 83/83/83 103/103/103
f 84/84/84 64/64/64 85/85/85
f 62/62/62 85/85/85 64/64/64
f 87/87/87 105/105/105 89/89/89
f 106/106/106 89/89/89 105/105/105
f 91/91/91 107/107/107 93/93/93
f 108/108/108 93/93/93 107/107/107
f 94/94/94 60/60/60 95/95/95
f 58/58/58 95/95/95 60/60/60
