g E2
v -0.17902926 0.9557383 -0.17902738
v -0.33128712 0.75742257 -0.3312852
v -0.18263224 0.75742257 -0.44076067
v -0.16214809 0.0121074915 -0.16214621
v 0.0055799186 0.010570556 -0.23065343
v -0.19243339 0.6101787 -0.4647974
v -0.23841563 0.94135153 0.0044479966
v -0.45154634 0.7447239 0.002533108
v -0.44076255 0.75742257 -0.18263036
v -0.34912565 0.6101787 -0.34912378
v -0.4647993 0.6101787 -0.19243151
v -0.16066155 1.021222 -0.16065967
v 0.004471302 0.94135153 -0.23841372
v 0.005302757 1.0193071 -0.20812845
v -0.20813033 1.0193071 0.0052794516
v 0.0025312304 0.7447239 -0.45154446
v 0.0029595494 0.6130762 -0.47459856
v -0.47460046 0.6130762 0.002961427
v 1.1652708E-05 1.1541044 -0.16065967
v -0.18426993 1.1766042 -0.18426809
v 0.003639847 1.1541044 -0.23702796
v -0.11392346 1.1541044 -0.11392158
v -0.16066155 1.1541044 -1.1652708E-05
v -0.23702982 1.1541044 0.0036417246
v -0.23065534 0.010570556 0.005581796
v 0.003639847 1.1541044 -0.23702796
v -0.18426993 1.1766042 -0.18426809
v -0.23702982 1.1541044 0.0036417246
v -0.16925332 0.7320757 -0.40845975
v -0.40846166 0.7320757 -0.16925141
v -0.15474054 0.930341 -0.15478906
v 0.0055799186 0.010570556 -0.23065343
v -0.16214809 0.0121074915 -0.16214621
v -0.17703876 0.6152935 -0.42750773
v -0.45154634 0.7447239 0.002533108
v -0.23841563 0.94135153 0.0044479966
v -0.42738363 0.615999 -0.17698652
v 0.004471302 0.94135153 -0.23841372
v -0.13171163 1.0127058 -0.13165939
v 0.005302757 1.0193071 -0.20812845
v -0.20813033 1.0193071 0.0052794516
v 0.0025312304 0.7447239 -0.45154446
v 0.0029595494 0.6130762 -0.47459856
v -0.47460046 0.6130762 0.002961427
v -0.15040687 1.1358122 -0.15040502
v 1.1652708E-05 1.1541044 -0.16065967
v 0.003639847 1.1541044 -0.23702796
v -0.11392346 1.1541044 -0.11392158
v -0.16066155 1.1541044 -1.1652708E-05
v -0.23702982 1.1541044 0.0036417246
v -0.23065534 0.010570556 0.005581796
v 0.003639847 1.1541044 -0.23702796
v -0.15040687 1.1358122 -0.15040502
v -0.23702982 1.1541044 0.0036417246
vt 0.45775837 0.85584414
vt 0.45775837 0.8537794
vt 0.4548677 0.8537794
vt 0.45775837 0.84469444
vt 0.45156407 0.84469444
vt 0.4548677 0.85212755
vt 0.46395263 0.85584414
vt 0.46395263 0.8537794
vt 0.46023607 0.8537794
vt 0.45775837 0.85212755
vt 0.46023607 0.85212755
vt 0.45775837 0.85667
vt 0.45156407 0.85584414
vt 0.45156407 0.85667
vt 0.46395263 0.85667
vt 0.45156407 0.8537794
vt 0.45156407 0.85212755
vt 0.46395263 0.85212755
vt 0.4635397 0.8715363
vt 0.45899722 0.87236226
vt 0.4635397 0.874014
vt 0.46106198 0.87029743
vt 0.4598231 0.8678198
vt 0.4573454 0.8678198
vt 0.46395263 0.84469444
vt 0.45156407 0.85832185
vt 0.45775837 0.85832185
vt 0.46395263 0.85832185
vt 0.4548677 0.8537794
vt 0.46023607 0.8537794
vt 0.45775837 0.85584414
vt 0.45239 0.8455204
vt 0.45775837 0.8455204
vt 0.4548677 0.85212755
vt 0.46312672 0.8537794
vt 0.46312672 0.85584414
vt 0.46023607 0.85212755
vt 0.45239 0.85584414
vt 0.45775837 0.85667
vt 0.45239 0.85667
vt 0.46312672 0.85667
vt 0.45239 0.8537794
vt 0.45239 0.85212755
vt 0.46312672 0.85212755
vt 0.45899722 0.87236226
vt 0.46271378 0.87194926
vt 0.46271378 0.874014
vt 0.46023607 0.8711234
vt 0.45941016 0.86864567
vt 0.4573454 0.86864567
vt 0.46312672 0.8455204
vt 0.45239 0.85832185
vt 0.45775837 0.85832185
vt 0.46312672 0.85832185
vn -0.45549232 0.75913006 -0.46502504
vn -0.5878472 0.5567048 -0.58695436
vn -0.25306708 0.5800616 -0.7742646
vn -0.6267751 -0.4554209 -0.63225377
vn -0.291995 -0.43206418 -0.853264
vn -0.32313734 -0.30749482 -0.89500237
vn -0.68127424 0.7279877 -0.07680697
vn -0.8292002 0.5567048 -0.05006788
vn -0.7747012 0.5800616 -0.25172728
vn -0.67348856 -0.30749482 -0.67220545
vn -0.8914849 -0.30749482 -0.33271852
vn -0.7046309 -0.019428253 -0.70930797
vn -0.12071222 0.7279877 -0.6748796
vn -0.27642387 0.011714041 -0.96096444
vn -0.9615552 0.011714041 -0.27436182
vn -0.011714041 0.5567048 -0.8306278
vn -0.042856395 -0.28413808 -0.95782506
vn -0.9537696 -0.28413808 -0.09792371
vn 0.112855256 0.99269754 0.042605862
vn 0.112855256 0.98491186 0.13119577
vn 0.12064072 0.9926962 -0
vn 0.15956879 0.9771263 0.1405773
vn 0.050570607 0.99269754 0.109517954
vn 0.0038571358 0.99269754 0.12056815
vn -0.852557 -0.43206418 -0.29405293
vn -0.27642387 -0.1984967 -0.94031316
vn -0.6890598 -0.21406782 -0.69236666
vn -0.9381984 -0.1984967 -0.28351864
vn 0.4709921 -0.5488479 0.69060296
vn 0.6889884 -0.5488479 0.4733508
vn 0.50992 -0.6889884 0.51505005
vn 0.3308516 0.3776365 0.8648282
vn 0.6500605 0.38542205 0.6548826
vn 0.53327674 0.2686383 0.80215293
vn 0.79020095 -0.56441903 0.23877521
vn 0.6500605 -0.6812028 0.3367255
vn 0.8057721 0.26085275 0.53168327
vn 0.34642273 -0.6812028 0.64494497
vn 0.696774 -0.04278505 0.71601355
vn 0.48656327 -0.0038571358 0.87363684
vn 0.8758424 -0.0116426945 0.48245677
vn 0.23742461 -0.56441903 0.7906078
vn 0.24521017 0.27642387 0.92922646
vn 0.9303415 0.27642387 0.24094519
vn 0.15178317 -0.97705495 0.14941706
vn 0.120640874 -0.99262613 0.011797324
vn 0.120640874 -0.99262613 0.011797324
vn 0.23742461 -0.94591266 0.22108547
vn 0.03499943 -0.99262613 0.116053626
vn 0.0038571358 -0.99262613 0.12115477
vn 0.8602712 0.3776365 0.34252605
vn 0.4709921 0.19856805 0.85949826
vn 0.6889884 0.2063536 0.69477564
vn 0.8680568 0.19078249 0.45834425
g E2_0
f 3/3/3 2/2/2 1/1/1
f 6/6/6 5/5/5 4/4/4
f 9/9/9 8/8/8 7/7/7
f 11/11/11 10/10/10 4/4/4
f 14/14/14 13/13/13 12/12/12
f 1/1/1 12/12/12 13/13/13
f 15/15/15 12/12/12 7/7/7
f 1/1/1 7/7/7 12/12/12
f 17/17/17 6/6/6 16/16/16
f 3/3/3 16/16/16 6/6/6
f 10/10/10 11/11/11 2/2/2
f 9/9/9 2/2/2 11/11/11
f 3/3/3 6/6/6 2/2/2
f 10/10/10 2/2/2 6/6/6
f 9/9/9 11/11/11 8/8/8
f 18/18/18 8/8/8 11/11/11
f 21/21/21 20/20/20 19/19/19
f 22/22/22 19/19/19 20/20/20
f 24/24/24 23/23/23 20/20/20
f 22/22/22 20/20/20 23/23/23
f 10/10/10 6/6/6 4/4/4
f 17/17/17 5/5/5 6/6/6
f 25/25/25 11/11/11 4/4/4
f 18/18/18 11/11/11 25/25/25
f 13/13/13 3/3/3 1/1/1
f 1/1/1 9/9/9 7/7/7
f 16/16/16 3/3/3 13/13/13
f 2/2/2 9/9/9 1/1/1
f 14/14/14 12/12/12 26/26/26
f 27/27/27 26/26/26 12/12/12
f 27/27/27 12/12/12 28/28/28
f 15/15/15 28/28/28 12/12/12
f 31/31/31 30/30/30 29/29/29
f 34/34/34 33/33/33 32/32/32
f 30/30/30 36/36/36 35/35/35
f 33/33/33 34/34/34 37/37/37
f 40/40/40 39/39/39 38/38/38
f 31/31/31 38/38/38 39/39/39
f 39/39/39 41/41/41 31/31/31
f 36/36/36 31/31/31 41/41/41
f 43/43/43 42/42/42 34/34/34
f 29/29/29 34/34/34 42/42/42
f 37/37/37 34/34/34 30/30/30
f 29/29/29 30/30/30 34/34/34
f 30/30/30 35/35/35 37/37/37
f 44/44/44 37/37/37 35/35/35
f 47/47/47 46/46/46 45/45/45
f 48/48/48 45/45/45 46/46/46
f 48/48/48 49/49/49 45/45/45
f 50/50/50 45/45/45 49/49/49
f 43/43/43 34/34/34 32/32/32
f 51/51/51 33/33/33 37/37/37
f 44/44/44 51/51/51 37/37/37
f 38/38/38 31/31/31 29/29/29
f 31/31/31 36/36/36 30/30/30
f 42/42/42 38/38/38 29/29/29
f 53/53/53 39/39/39 52/52/52
f 40/40/40 52/52/52 39/39/39
f 54/54/54 41/41/41 53/53/53
f 39/39/39 53/53/53 41/41/41
