g E2
v 0.3366149 -1.0634973 0.46017492
v 0.3366149 -1.0634973 0.5093651
v -0.24025357 -1.0634973 0.5093651
v -0.24025357 -1.0634973 0.46017492
v 0.48099804 -1.0634973 0.3293643
v 0.53018814 -1.0634973 0.3293643
v 0.5157658 -0.2960835 0.3293643
v -0.24025357 -0.28168768 0.3293643
v 0.3366149 -1.0634973 0.46017492
v -0.24025357 -1.0634973 0.46017492
v -0.24025357 -0.4627775 0.46017492
v 0.3366149 -0.46386647 0.46017492
v 0.3366149 -0.46386647 0.46017492
v 0.3366149 -0.46386647 0.5093651
v 0.3366149 -1.0634973 0.5093651
v 0.3366149 -1.0634973 0.46017492
v -0.24025357 -0.4627775 0.46017492
v -0.24025357 -0.46386647 0.5093651
v 0.3366149 -0.46386647 0.5093651
v 0.3366149 -0.46386647 0.46017492
v 0.5157658 -0.2960835 0.3293643
v 0.50939125 -0.30248457 0.4885682
v -0.24025357 -0.2960835 0.49496925
v -0.24025357 -0.28168768 0.3293643
v 0.3366149 -0.46386647 0.5093651
v -0.24025357 -0.46386647 0.5093651
v -0.24025357 -0.2960835 0.49496925
v 0.50939125 -0.30248457 0.4885682
v 0.50939125 -1.2249058 0.4885682
v -0.24025357 -1.2312803 0.49496925
v -0.24025357 -1.0634973 0.5093651
v 0.3366149 -1.0634973 0.5093651
v 0.50939125 -1.2249058 0.4885682
v 0.3366149 -1.0634973 0.5093651
v 0.3366149 -0.46386647 0.5093651
v 0.50939125 -0.30248457 0.4885682
v 0.5157658 -1.2312803 0.3293643
v 0.50939125 -1.2249058 0.4885682
v 0.53018814 -1.0634973 0.3293643
v 0.53018814 -1.0634973 0.3293643
v 0.50939125 -1.2249058 0.4885682
v 0.50939125 -0.30248457 0.4885682
v 0.5157658 -0.2960835 0.3293643
v -0.24025357 -1.0634973 0.46017492
v -0.24025357 -1.2312803 0.49496925
v 0.50939125 -1.2249058 0.4885682
v 0.48099804 -1.0634973 0.3293643
v -0.24025357 -1.0634973 0.46017492
v -0.24025357 -0.28168768 0.3293643
v -0.24025357 -0.4627775 0.46017492
v 0.48099804 -1.0634973 0.3293643
v 0.50939125 -1.2249058 0.4885682
v 0.5157658 -1.2312803 0.3293643
v 0.48099804 -1.0634973 0.3293643
v 0.5157658 -1.2312803 0.3293643
v 0.53018814 -1.0634973 0.3293643
v -0.24025357 -0.2960835 0.49496925
v -0.24025357 -0.46386647 0.5093651
v -0.24025357 -1.2312803 0.49496925
v -0.24025357 -1.0634973 0.46017492
v -0.24025357 -1.0634973 0.5093651
v 0.48099804 -1.0634973 0.3293643
v -0.24025357 -0.28168768 0.3293643
v -0.24025357 -1.0634973 0.46017492
vt 0.3824251 0.9872192
vt 0.38181788 0.9872192
vt 0.38181788 0.9896481
vt 0.3824251 0.9896481
vt 0.37756732 0.99389863
vt 0.3769601 0.99389863
vt 0.3769601 0.9969348
vt 0.38121065 0.997542
vt 0.38121065 0.98661196
vt 0.37635288 0.98661196
vt 0.37635288 0.9908626
vt 0.38121065 0.9908626
vt 0.3824251 0.9872192
vt 0.38181788 0.9872192
vt 0.38181788 0.9896481
vt 0.3824251 0.9896481
vt 0.3824251 0.9872192
vt 0.38181788 0.9872192
vt 0.38181788 0.9896481
vt 0.3824251 0.9896481
vt 0.38849732 0.992077
vt 0.3897118 0.992077
vt 0.3897118 0.9860048
vt 0.38849732 0.9860048
vt 0.3799962 0.99025536
vt 0.37756732 0.99025536
vt 0.37756732 0.9908626
vt 0.38060343 0.9908626
vt 0.38060343 0.9872192
vt 0.37756732 0.9872192
vt 0.37756732 0.98782647
vt 0.3799962 0.98782647
vt 0.38060343 0.9872192
vt 0.3799962 0.98782647
vt 0.3799962 0.99025536
vt 0.38060343 0.9908626
vt 0.37756732 0.9872192
vt 0.3769601 0.9872192
vt 0.37756732 0.98782647
vt 0.37756732 0.98782647
vt 0.3769601 0.9872192
vt 0.3769601 0.9908626
vt 0.37756732 0.9908626
vt 0.3878901 0.997542
vt 0.38849732 0.997542
vt 0.38849732 0.9969348
vt 0.3878901 0.9963275
vt 0.38728288 0.9945059
vt 0.3854612 0.9945059
vt 0.38606843 0.9945059
vt 0.3878901 0.9963275
vt 0.38849732 0.9969348
vt 0.38849732 0.9969348
vt 0.3878901 0.99511313
vt 0.38849732 0.99511313
vt 0.3878901 0.99511313
vt 0.3854612 0.99511313
vt 0.38606843 0.9945059
vt 0.38849732 0.997542
vt 0.3878901 0.997542
vt 0.3878901 0.997542
vt 0.37756732 0.99389863
vt 0.38121065 0.997542
vt 0.38121065 0.99389863
vn 0.003894627 0.9999925 -0
vn 0.003894627 0.9999925 -0
vn 0.003894627 0.9999925 -0
vn 0.003894627 0.9999925 -0
vn 0.003894627 -0.003894627 -0.99998486
vn 0.003894627 -0.003894627 -0.99998486
vn 0.003894627 -0.003894627 -0.99998486
vn 0.003894627 -0.003894627 -0.99998486
vn 0.003894627 -0.003894627 0.99998486
vn 0.003894627 -0.003894627 0.99998486
vn 0.003894627 -0.003894627 0.99998486
vn 0.003894627 -0.003894627 0.99998486
vn -0.9999925 -0.003894627 -0
vn -0.9999925 -0.003894627 -0
vn -0.9999925 -0.003894627 -0
vn -0.9999925 -0.003894627 -0
vn -0.0039482117 -0.99993885 -0.010329197
vn -0.0039482117 -0.99993885 -0.010329197
vn -0.0039482117 -0.99993885 -0.010329197
vn -0.0039482117 -0.99993885 -0.010329197
vn 0.011736745 0.9999311 -0
vn 0.011736745 0.9999311 -0
vn 0.011736745 0.9999311 -0
vn 0.011736745 0.9999311 -0
vn 0.003894627 0.10590553 0.99436855
vn 0.003894627 0.10590553 0.99436855
vn 0.003894627 0.10590553 0.99436855
vn 0.003894627 0.10590553 0.99436855
vn 0.003894627 -0.10585189 0.99437433
vn 0.003894627 -0.10585189 0.99437433
vn 0.003894627 -0.10585189 0.99437433
vn 0.003894627 -0.10585189 0.99437433
vn 0.121537626 -0.003894627 0.9925792
vn 0.121537626 -0.003894627 0.9925792
vn 0.121537626 -0.003894627 0.9925792
vn 0.121537626 -0.003894627 0.9925792
vn 0.992096 -0.08232331 0.094701596
vn 0.992096 -0.08232331 0.094701596
vn 0.992096 -0.08232331 0.094701596
vn 0.992096 0.01179111 0.12492594
vn 0.992096 0.01179111 0.12492594
vn 0.992096 0.01179111 0.12492594
vn 0.992096 0.01179111 0.12492594
vn -0.07453406 -0.51368105 -0.85473764
vn -0.07453406 -0.51368105 -0.85473764
vn -0.07453406 -0.51368105 -0.85473764
vn -0.07453406 -0.51368105 -0.85473764
vn -0.9999925 -0.003894627 -0
vn -0.9999925 -0.003894627 -0
vn -0.9999925 -0.003894627 -0
vn -0.9764639 -0.19996631 -0.080818824
vn -0.9764639 -0.19996631 -0.080818824
vn -0.9764639 -0.19996631 -0.080818824
vn 0.003894627 -0.003894627 -0.99998486
vn 0.003894627 -0.003894627 -0.99998486
vn 0.003894627 -0.003894627 -0.99998486
vn -0.9999925 -0.003894627 -0
vn -0.9999925 -0.003894627 -0
vn -0.9999925 -0.003894627 -0
vn -0.9999925 -0.003894627 -0
vn -0.9999925 -0.003894627 -0
vn -0.17649138 -0.160752 -0.9710868
vn -0.17649138 -0.160752 -0.9710868
vn -0.17649138 -0.160752 -0.9710868
g E2_0
f 3/3/3 2/2/2 1/1/1
f 4/4/4 3/3/3 1/1/1
f 7/7/7 6/6/6 5/5/5
f 8/8/8 7/7/7 5/5/5
f 11/11/11 10/10/10 9/9/9
f 12/12/12 11/11/11 9/9/9
f 15/15/15 14/14/14 13/13/13
f 16/16/16 15/15/15 13/13/13
f 19/19/19 18/18/18 17/17/17
f 20/20/20 19/19/19 17/17/17
f 23/23/23 22/22/22 21/21/21
f 24/24/24 23/23/23 21/21/21
f 27/27/27 26/26/26 25/25/25
f 28/28/28 27/27/27 25/25/25
f 31/31/31 30/30/30 29/29/29
f 32/32/32 31/31/31 29/29/29
f 35/35/35 34/34/34 33/33/33
f 36/36/36 35/35/35 33/33/33
f 39/39/39 38/38/38 37/37/37
f 42/42/42 41/41/41 40/40/40
f 43/43/43 42/42/42 40/40/40
f 46/46/46 45/45/45 44/44/44
f 47/47/47 46/46/46 44/44/44
f 50/50/50 49/49/49 48/48/48
f 53/53/53 52/52/52 51/51/51
f 56/56/56 55/55/55 54/54/54
f 58/58/58 57/57/57 49/49/49
f 50/50/50 58/58/58 49/49/49
f 61/61/61 60/60/60 59/59/59
f 64/64/64 63/63/63 62/62/62
