g E3
v -1.9729137E-05 2.1789725 1.9729137E-05
v -0.19769242 2.0579855 -0.21665616
v -1.9729137E-05 2.0579855 -0.30640662
v -0.27956453 2.0579855 1.9729137E-05
v -1.9729137E-05 2.1789725 1.9729137E-05
v -0.19769242 2.0579855 0.21665606
v -0.27956453 2.0579855 1.9729137E-05
v -1.9729137E-05 2.0579855 0.27572426
v 0.19769257 2.0579855 0.21665606
v 0.27956462 2.0579855 1.9729137E-05
v 0.19769257 2.0579855 -0.21665616
v 0.27956462 2.0579855 1.9729137E-05
v -0.268123 1.7837853 -0.2938566
v -1.9729137E-05 1.7837853 -0.41555616
v -0.3791729 1.7837853 1.9729137E-05
v -0.268123 1.7837853 0.29385647
v -0.3791729 1.7837853 1.9729137E-05
v -1.9729137E-05 1.7837853 0.36733547
v 0.26812312 1.7837853 0.29385647
v 0.37917298 1.7837853 1.9729137E-05
v 0.26812312 1.7837853 -0.2938566
v 0.37917298 1.7837853 1.9729137E-05
v -0.20505616 1.4951348 -0.22473252
v -1.9729137E-05 1.4951348 -0.31784812
v -0.29001626 1.4951348 1.9729137E-05
v -0.20505616 1.4951348 0.22473237
v -0.29001626 1.4951348 1.9729137E-05
v -1.9729137E-05 1.4951348 0.317848
v 0.2050563 1.4951348 0.22473237
v 0.29001635 1.4951348 1.9729137E-05
v 0.2050563 1.4951348 -0.22473252
v 0.29001635 1.4951348 1.9729137E-05
v -1.9729137E-05 1.3536403 -1.9848347E-05
v -1.9729137E-05 1.3536403 -1.9848347E-05
vt 0.4861933 0.9066317
vt 0.48931095 0.9106401
vt 0.49064708 0.9088586
vt 0.4861933 0.91242164
vt 0.46481508 0.90306866
vt 0.4688235 0.90618634
vt 0.47060502 0.90306866
vt 0.46704197 0.90752244
vt 0.46481508 0.9079678
vt 0.46125203 0.90752244
vt 0.49109247 0.9066317
vt 0.4902017 0.90306866
vt 0.49198323 0.9119762
vt 0.492874 0.9097494
vt 0.48975635 0.9168754
vt 0.47015962 0.9088586
vt 0.47461343 0.90618634
vt 0.46793273 0.9097494
vt 0.46570584 0.9110855
vt 0.46125203 0.912867
vt 0.49376476 0.90752244
vt 0.49599165 0.9026233
vt 0.49465552 0.91331244
vt 0.4951009 0.9110855
vt 0.4951009 0.9168754
vt 0.47149578 0.91153085
vt 0.4750588 0.9119762
vt 0.46926886 0.91242164
vt 0.46748734 0.9137578
vt 0.46570584 0.9168754
vt 0.496437 0.90930396
vt 0.4995547 0.9070771
vt 0.50000006 0.912867
vt 0.47149578 0.9168754
vn 0.0039215684 0.99999225 -0.00034526698
vn -0.5843092 0.6392107 -0.49999243
vn -0.019607663 0.65489686 -0.7554639
vn -0.7774267 0.6289734 -0
vn 0.0039215684 0.99999225 -0.00034526698
vn -0.5215646 0.6313677 0.57388604
vn -0.7774267 0.6289734 -0
vn 0.011764646 0.6313677 0.7753944
vn 0.56078005 0.6313677 0.53563106
vn 0.7774268 0.62897336 -0
vn 0.552937 0.6392107 -0.5344814
vn 0.7774268 0.62897336 -0
vn -0.7333276 0.019607663 -0.6795926
vn -0.003921509 0.019607663 -0.9998001
vn -0.99993086 0.011763804 -0
vn -0.7019553 0.02745068 0.7116918
vn -0.99993086 0.011763804 -0
vn 0.011764646 0.050979972 0.9986304
vn 0.69411236 0.011764526 0.71977055
vn 0.99993086 0.011763803 -0
vn 0.73332775 0.019607663 -0.67959255
vn 0.99993086 0.011763803 -0
vn -0.56862307 -0.6156816 -0.5455309
vn 0.019607723 -0.62352467 -0.7815578
vn -0.8014051 -0.5981219 -0
vn -0.5999954 -0.6078385 0.5201326
vn -0.8014051 -0.5981219 -0
vn 0.011764646 -0.5843093 0.8114458
vn 0.56078005 -0.59999543 0.5705535
vn 0.80140513 -0.5981219 -0
vn 0.59999543 -0.6078385 -0.5201325
vn 0.80140513 -0.5981219 -0
vn 0.0039215684 -0.9999924 -0
vn 0.0039215684 -0.9999924 -0
g E3_0
f 3/3/3 2/2/2 1/1/1
f 2/2/2 4/4/4 1/1/1
f 7/7/7 6/6/6 5/5/5
f 6/6/6 8/8/8 5/5/5
f 8/8/8 9/9/9 5/5/5
f 9/9/9 10/10/10 5/5/5
f 12/12/12 11/11/11 1/1/1
f 11/11/11 3/3/3 1/1/1
f 2/2/2 3/3/3 13/13/13
f 14/14/14 13/13/13 3/3/3
f 4/4/4 2/2/2 15/15/15
f 13/13/13 15/15/15 2/2/2
f 6/6/6 7/7/7 16/16/16
f 17/17/17 16/16/16 7/7/7
f 8/8/8 6/6/6 18/18/18
f 16/16/16 18/18/18 6/6/6
f 9/9/9 8/8/8 19/19/19
f 18/18/18 19/19/19 8/8/8
f 10/10/10 9/9/9 20/20/20
f 19/19/19 20/20/20 9/9/9
f 11/11/11 12/12/12 21/21/21
f 22/22/22 21/21/21 12/12/12
f 3/3/3 11/11/11 14/14/14
f 21/21/21 14/14/14 11/11/11
f 13/13/13 14/14/14 23/23/23
f 24/24/24 23/23/23 14/14/14
f 15/15/15 13/13/13 25/25/25
f 23/23/23 25/25/25 13/13/13
f 16/16/16 17/17/17 26/26/26
f 27/27/27 26/26/26 17/17/17
f 18/18/18 16/16/16 28/28/28
f 26/26/26 28/28/28 16/16/16
f 19/19/19 18/18/18 29/29/29
f 28/28/28 29/29/29 18/18/18
f 20/20/20 19/19/19 30/30/30
f 29/29/29 30/30/30 19/19/19
f 21/21/21 22/22/22 31/31/31
f 32/32/32 31/31/31 22/22/22
f 14/14/14 21/21/21 24/24/24
f 31/31/31 24/24/24 21/21/21
f 23/23/23 24/24/24 33/33/33
f 25/25/25 23/23/23 33/33/33
f 26/26/26 27/27/27 34/34/34
f 28/28/28 26/26/26 34/34/34
f 29/29/29 28/28/28 34/34/34
f 30/30/30 29/29/29 34/34/34
f 31/31/31 32/32/32 33/33/33
f 24/24/24 31/31/31 33/33/33
