g E3
v 1.3499459 -0.46695536 -0.38439518
v 1.3313246 -0.37174743 0.30438936
v 1.0650225 0.19884086 -0.09164417
v 1.0052446 0.1821146 -0.2810713
v 0.804653 -0.23216963 -0.72122765
v 0.58766466 0.010114074 -0.8856477
v 0.3889681 -0.075247526 -1.0291805
v 0.5598562 -0.36445546 -1.1966492
v 0.37776232 -0.5171342 -0.8766666
v 0.5598562 -0.36445546 -1.1966492
v -0.04575014 -0.30974495 -1.2421315
v 0.049416542 -0.4484164 -0.89236295
v -1.1541744 -0.34962428 -0.8679739
v -0.9725338 -0.44314307 -0.5884062
v -0.29895127 -0.27427363 -0.7029359
v -0.40524137 -0.08855438 -0.8979658
v 0.7507664 -0.16229832 0.49295127
v 0.6946551 -0.38497192 0.9627701
v 0.8194842 -0.2018069 1.1155723
v 0.8312667 0.041136026 0.6291921
v -0.5339018 0.248896 0.6127542
v -0.039858818 0.33499932 0.77717435
v 0.14289415 -0.14998019 1.2421316
v -0.8406187 -0.23093367 0.8751837
v -0.04575014 -0.30974495 -1.2421315
v -0.49274528 0.29421353 -0.6263081
v -1.1541744 -0.34962428 -0.8679739
v -0.40524137 -0.08855438 -0.8979658
v -0.14895046 0.27653968 -0.8620414
v -1.2515248 -0.39012164 0.26895928
v -1.1514143 -0.15941441 -0.11257267
v -0.80663073 0.31407082 -0.014439702
v -0.7644855 0.25235665 0.27765203
v 0.27559197 0.35370302 0.76724565
v 0.6627269 0.36000633 0.5828035
v 0.8194842 -0.2018069 1.1155723
v 0.47972667 0.34414518 -0.7611482
v 0.14021635 0.31390607 -0.91061354
v 0.41615862 0.052671313 -1.0742097
v 0.55190504 0.12040043 -0.96553004
v -0.8219563 -0.1319356 0.57785976
v -0.8406187 -0.23093367 0.8751837
v -0.7174376 -0.50106704 0.81433475
v -0.6728617 -0.2850263 0.49760664
v 0.55190504 0.12040043 -0.96553004
v 0.14948583 0.020784378 -1.0700487
v -0.6728617 -0.2850263 0.49760664
v -0.8621241 -0.49682373 0.4307015
v -1.0483788 -0.39234632 0.4840114
v -0.8219563 -0.1319356 0.57785976
v 0.8312667 0.041136026 0.6291921
v 0.83266747 0.4278177 0.44491482
v 0.9052166 0.06622541 0.51000714
v 0.65094435 -0.38567227 -0.55561286
v 0.804653 -0.23216963 -0.72122765
v 0.6388322 0.26998925 -0.6564648
v -1.1420213 -0.3677513 -0.2854383
v -1.3499461 -0.2952845 -0.34945953
v -1.1514143 -0.15941441 -0.11257267
v -0.9929267 -0.2521093 -0.13807404
v 0.185781 -0.39345866 1.1052316
v -0.7174376 -0.50106704 0.81433475
v -0.8406187 -0.23093367 0.8751837
v 0.14289415 -0.14998019 1.2421316
v 1.021147 -0.5617513 0.21911013
v 1.3313246 -0.37174743 0.30438936
v 1.0662997 -0.6247426 -0.3003106
v 1.3499459 -0.46695536 -0.38439518
v 0.39737242 0.4235332 -0.68200743
v -1.3499461 -0.2952845 -0.34945953
v -0.696468 0.33928382 -0.4320609
v -1.0307051 -0.5346844 0.1734631
v -1.2515248 -0.39012164 0.26895928
v 0.8194842 -0.2018069 1.1155723
v 0.6946551 -0.38497192 0.9627701
v -0.9929267 -0.2521093 -0.13807404
v -1.1514143 -0.15941441 -0.11257267
v -0.8219563 -0.1319356 0.57785976
v 0.10120213 0.4622178 0.6572889
v -1.0483788 -0.39234632 0.4840114
v 1.0650225 0.19884086 -0.09164417
v 0.83266747 0.4278177 0.44491482
v -0.7644855 0.25235665 0.27765203
v -0.49274528 0.29421353 -0.6263081
v -0.80663073 0.31407082 -0.014439702
v -0.696468 0.33928382 -0.4320609
v 0.7507664 -0.16229832 0.49295127
v -0.6728617 -0.2850263 0.49760664
v -0.7174376 -0.50106704 0.81433475
v 0.6946551 -0.38497192 0.9627701
v 0.185781 -0.39345866 1.1052316
v 0.37776232 -0.5171342 -0.8766666
v 0.049416542 -0.4484164 -0.89236295
v -0.29895127 -0.27427363 -0.7029359
v 0.65094435 -0.38567227 -0.55561286
v 1.021147 -0.5617513 0.21911013
v 1.0662997 -0.6247426 -0.3003106
v -0.47832608 -0.27942336 -0.12703311
v -1.0307051 -0.5346844 0.1734631
v -0.9725338 -0.44314307 -0.5884062
v -0.8621241 -0.49682373 0.4307015
vt 0.6130987 0.9835372
vt 0.6130987 0.98027825
vt 0.6138229 0.9781056
vt 0.61418504 0.9781056
vt 0.61454713 0.9817267
vt 0.61527133 0.97955406
vt 0.6159956 0.98027825
vt 0.61527133 0.982813
vt 0.6159956 0.9791919
vt 0.61527133 0.9777435
vt 0.6170819 0.97738135
vt 0.6167198 0.9784677
vt 0.6203409 0.9777435
vt 0.6196167 0.9784677
vt 0.61780614 0.97701925
vt 0.61816823 0.9755708
vt 0.61490923 0.97629505
vt 0.61490923 0.9781056
vt 0.61454713 0.97665715
vt 0.61454713 0.9744845
vt 0.61853033 0.9777435
vt 0.6170819 0.97701925
vt 0.6163577 0.98100245
vt 0.6192545 0.9817267
vt 0.6170819 0.9820888
vt 0.61816823 0.9752087
vt 0.6203409 0.9824509
vt 0.61816823 0.98027825
vt 0.617444 0.97738135
vt 0.6203409 0.982813
vt 0.6203409 0.98100245
vt 0.61889243 0.97629505
vt 0.6192545 0.97738135
vt 0.6159956 0.97665715
vt 0.61490923 0.97665715
vt 0.61454713 0.9813646
vt 0.6156334 0.97665715
vt 0.6167198 0.97701925
vt 0.6156334 0.9791919
vt 0.61527133 0.9784677
vt 0.6192545 0.97593296
vt 0.6192545 0.97665715
vt 0.61889243 0.9788298
vt 0.61889243 0.97701925
vt 0.61527133 0.9784677
vt 0.6163577 0.97955406
vt 0.61889243 0.97701925
vt 0.6192545 0.9788298
vt 0.6199788 0.9781056
vt 0.6192545 0.97593296
vt 0.61454713 0.9791919
vt 0.61454713 0.97593296
vt 0.61418504 0.97665715
vt 0.61490923 0.9781056
vt 0.61454713 0.97665715
vt 0.61527133 0.97738135
vt 0.6203409 0.9777435
vt 0.620703 0.97738135
vt 0.6203409 0.97629505
vt 0.6196167 0.97701925
vt 0.6163577 0.9781056
vt 0.61889243 0.9788298
vt 0.6192545 0.97665715
vt 0.6163577 0.97593296
vt 0.61418504 0.97955406
vt 0.6130987 0.98027825
vt 0.6138229 0.97991616
vt 0.6130987 0.9788298
vt 0.6156334 0.9748466
vt 0.620703 0.9820888
vt 0.61889243 0.97665715
vt 0.6199788 0.9791919
vt 0.6203409 0.9781056
vt 0.61454713 0.97665715
vt 0.61490923 0.9781056
vt 0.6196167 0.97701925
vt 0.6203409 0.97629505
vt 0.6192545 0.98064035
vt 0.6167198 0.9744845
vt 0.6199788 0.982813
vt 0.6138229 0.9781056
vt 0.61454713 0.97593296
vt 0.6192545 0.97738135
vt 0.61816823 0.9752087
vt 0.61889243 0.97629505
vt 0.61889243 0.97665715
vt 0.61490923 0.97629505
vt 0.61889243 0.97701925
vt 0.61889243 0.9788298
vt 0.61490923 0.9781056
vt 0.6163577 0.9781056
vt 0.6159956 0.9791919
vt 0.6167198 0.9784677
vt 0.61780614 0.97701925
vt 0.61490923 0.9781056
vt 0.61418504 0.97955406
vt 0.6138229 0.97991616
vt 0.61816823 0.97701925
vt 0.6199788 0.9791919
vt 0.6196167 0.9784677
vt 0.6192545 0.9788298
vn 0.83262146 0.42740524 -0.35223046
vn 0.8874053 0.4508841 0.09599703
vn 0.8874053 0.4508841 0.09599703
vn 0.53522384 0.787413 -0.30580413
vn 0.6526177 0.39610028 -0.6459061
vn 0.7074014 0.37262154 -0.60061336
vn 0.44913507 0.4039265 -0.7969448
vn 0.4413088 0.52132034 -0.73039144
vn 0.22999996 -0.9265365 -0.29770815
vn 0.23782623 -0.9265365 -0.2914941
vn -0.36479533 -0.87175274 -0.32706508
vn -0.32566404 -0.879579 -0.34681943
vn 0.010864913 -0.90305775 -0.42938173
vn -0.020440102 -0.910884 -0.41215596
vn -0.20827019 -0.86392653 -0.45853516
vn -0.13783395 -0.86392653 -0.48438904
vn 0.5430501 -0.49609262 0.6774871
vn 0.910884 -0.3943513 -0.121562116
vn 0.7308802 0.39610028 0.55580455
vn 0.97349405 0.03609264 0.22584653
vn -0.263054 0.90480673 0.33485425
vn -0.27870643 0.881328 0.3815544
vn -0.13783395 0.6387141 0.75699806
vn -0.38827407 0.6074091 0.6930349
vn -0.1613127 0.48218906 -0.8610877
vn -0.34131646 0.5447991 -0.7659615
vn -0.57610416 0.6387141 -0.5100474
vn -0.3491428 0.48218906 -0.8034881
vn -0.19261765 0.943938 -0.26810342
vn -0.76393414 0.5447991 0.34583035
vn -0.77176046 0.63088787 0.07978918
vn -0.77176046 0.62306166 0.12720054
vn -0.77176046 0.5526253 0.3146285
vn 0.26913124 0.8969805 0.35070544
vn 0.21434748 0.975243 0.054371603
vn 0.7308802 0.39610028 0.55580455
vn 0.3630463 0.6856717 -0.6309134
vn -0.2160964 0.943938 -0.2495663
vn 0.30043626 0.42740524 -0.8526798
vn 0.22999996 0.6856717 -0.6906188
vn -0.8421967 -0.4413088 -0.30976003
vn -0.8421967 -0.4413088 -0.30976003
vn -0.8421967 -0.4413088 -0.30976003
vn -0.8421967 -0.4413088 -0.30976003
vn 0.8874053 -0.07347494 -0.45509705
vn -0.067397594 0.4587103 -0.8860262
vn 0.07347494 -0.37869877 0.92259884
vn -0.14566016 -0.6526177 0.7435545
vn -0.2160964 -0.72305393 0.65612143
vn 0.07347494 -0.37869877 0.92259884
vn 0.97349405 0.03609264 0.22584653
vn 0.8013165 0.44305778 0.40198466
vn 0.7621852 0.27088022 0.58796054
vn 0.34739375 -0.816969 -0.46030343
vn 0.3630463 -0.816969 -0.44806144
vn 0.49609262 0.8343705 -0.24024567
vn -0.27088022 -0.9187103 0.28739396
vn -0.38827407 -0.910884 0.13976236
vn -0.3491428 -0.60566014 0.715035
vn 0.18304247 -0.9813203 0.05921052
vn -0.10652888 -0.48826635 0.8661683
vn -0.263054 -0.41783005 0.8696095
vn -0.263054 -0.41783005 0.8696095
vn -0.13000762 -0.48044008 0.86733806
vn 0.40217757 -0.7465327 0.5300397
vn 0.37087256 -0.7152277 0.5923705
vn 0.35522002 -0.8874053 -0.29382077
vn 0.37087256 -0.8952315 -0.24701047
vn -0.03609264 0.99872184 -0.03538439
vn -0.71697664 0.67001915 -0.1924028
vn -0.66219294 0.6934979 -0.2838331
vn -0.5526253 -0.816969 -0.16482404
vn -0.5604516 -0.8013165 -0.20925073
vn 0.15956372 -0.5743551 0.8029045
vn 0.15956372 -0.5743551 0.8029045
vn -0.5604516 -0.60566014 -0.56486267
vn -0.5604516 -0.60566014 -0.56486267
vn -0.724803 0.51349413 0.45933038
vn -0.043918848 0.99872184 0.02501697
vn -0.6856717 0.47436285 0.5521179
vn -0.24740148 0.8969805 -0.36635837
vn -0.24740148 0.8969805 -0.36635837
vn 0.049996138 0.99872184 0.0074212323
vn 0.049996138 0.99872184 0.0074212323
vn 0.34739375 0.9282855 0.13267869
vn 0.34739375 0.9282855 0.13267869
vn -0.03609264 -0.9969728 -0.06886627
vn 0.09695369 -0.9813203 -0.16616383
vn 0.09695369 -0.879579 -0.465769
vn 0.09695369 -0.8874053 -0.45067936
vn 0.065648675 -0.9813203 0.18083324
vn -0.18479145 -0.85610026 0.48264322
vn -0.18479145 -0.85610026 0.48264322
vn -0.03609264 -0.98914653 0.1424307
vn -0.14566016 -0.97349405 0.17633055
vn -0.67001915 -0.72305393 0.1681289
vn -0.67001915 -0.72305393 0.1681289
vn 0.057822406 -0.98914653 0.13507685
vn 0.33174127 -0.9187103 -0.21428747
vn 0.13608491 -0.9656678 0.22128409
vn 0.73870647 -0.53522384 -0.40969276
g E3_0
f 3/3/3 2/2/2 1/1/1
f 4/4/4 3/3/3 1/1/1
f 7/7/7 6/6/6 5/5/5
f 8/8/8 7/7/7 5/5/5
f 11/11/11 10/10/10 9/9/9
f 12/12/12 11/11/11 9/9/9
f 15/15/15 14/14/14 13/13/13
f 16/16/16 15/15/15 13/13/13
f 19/19/19 18/18/18 17/17/17
f 20/20/20 19/19/19 17/17/17
f 23/23/23 22/22/22 21/21/21
f 24/24/24 23/23/23 21/21/21
f 8/8/8 25/25/25 7/7/7
f 28/28/28 27/27/27 26/26/26
f 29/29/29 28/28/28 26/26/26
f 32/32/32 31/31/31 30/30/30
f 33/33/33 32/32/32 30/30/30
f 36/36/36 35/35/35 34/34/34
f 16/16/16 11/11/11 12/12/12
f 15/15/15 16/16/16 12/12/12
f 29/29/29 25/25/25 28/28/28
f 39/39/39 38/38/38 37/37/37
f 40/40/40 39/39/39 37/37/37
f 43/43/43 42/42/42 41/41/41
f 44/44/44 43/43/43 41/41/41
f 45/45/45 6/6/6 7/7/7
f 39/39/39 45/45/45 7/7/7
f 25/25/25 29/29/29 38/38/38
f 46/46/46 25/25/25 38/38/38
f 49/49/49 48/48/48 47/47/47
f 50/50/50 49/49/49 47/47/47
f 52/52/52 35/35/35 51/51/51
f 53/53/53 52/52/52 51/51/51
f 55/55/55 54/54/54 9/9/9
f 10/10/10 55/55/55 9/9/9
f 37/37/37 56/56/56 6/6/6
f 59/59/59 58/58/58 57/57/57
f 60/60/60 59/59/59 57/57/57
f 63/63/63 62/62/62 61/61/61
f 64/64/64 63/63/63 61/61/61
f 53/53/53 17/17/17 65/65/65
f 66/66/66 53/53/53 65/65/65
f 13/13/13 14/14/14 57/57/57
f 58/58/58 13/13/13 57/57/57
f 67/67/67 54/54/54 55/55/55
f 68/68/68 67/67/67 55/55/55
f 37/37/37 69/69/69 56/56/56
f 37/37/37 38/38/38 69/69/69
f 25/25/25 46/46/46 7/7/7
f 7/7/7 46/46/46 39/39/39
f 32/32/32 71/71/71 70/70/70
f 31/31/31 32/32/32 70/70/70
f 20/20/20 17/17/17 53/53/53
f 4/4/4 1/1/1 5/5/5
f 56/56/56 4/4/4 5/5/5
f 72/72/72 48/48/48 49/49/49
f 73/73/73 72/72/72 49/49/49
f 74/74/74 64/64/64 61/61/61
f 75/75/75 74/74/74 61/61/61
f 77/77/77 76/76/76 72/72/72
f 73/73/73 77/77/77 72/72/72
f 67/67/67 68/68/68 66/66/66
f 65/65/65 67/67/67 66/66/66
f 6/6/6 45/45/45 37/37/37
f 21/21/21 33/33/33 78/78/78
f 6/6/6 56/56/56 5/5/5
f 39/39/39 46/46/46 38/38/38
f 34/34/34 79/79/79 22/22/22
f 23/23/23 34/34/34 22/22/22
f 71/71/71 26/26/26 27/27/27
f 70/70/70 71/71/71 27/27/27
f 33/33/33 30/30/30 80/80/80
f 78/78/78 33/33/33 80/80/80
f 24/24/24 21/21/21 78/78/78
f 36/36/36 34/34/34 23/23/23
f 36/36/36 51/51/51 35/35/35
f 56/56/56 69/69/69 79/79/79
f 34/34/34 56/56/56 79/79/79
f 34/34/34 35/35/35 4/4/4
f 56/56/56 34/34/34 4/4/4
f 81/81/81 4/4/4 35/35/35
f 82/82/82 81/81/81 35/35/35
f 3/3/3 52/52/52 53/53/53
f 2/2/2 3/3/3 53/53/53
f 69/69/69 38/38/38 22/22/22
f 79/79/79 69/69/69 22/22/22
f 38/38/38 29/29/29 21/21/21
f 22/22/22 38/38/38 21/21/21
f 83/83/83 21/21/21 29/29/29
f 84/84/84 83/83/83 29/29/29
f 84/84/84 86/86/86 85/85/85
f 83/83/83 84/84/84 85/85/85
f 89/89/89 88/88/88 87/87/87
f 90/90/90 89/89/89 87/87/87
f 89/89/89 90/90/90 91/91/91
f 94/94/94 93/93/93 92/92/92
f 95/95/95 94/94/94 92/92/92
f 96/96/96 87/87/87 95/95/95
f 97/97/97 96/96/96 95/95/95
f 98/98/98 95/95/95 87/87/87
f 88/88/88 98/98/98 87/87/87
f 98/98/98 94/94/94 95/95/95
f 98/98/98 88/88/88 99/99/99
f 60/60/60 98/98/98 99/99/99
f 98/98/98 60/60/60 100/100/100
f 94/94/94 98/98/98 100/100/100
f 57/57/57 100/100/100 60/60/60
f 101/101/101 99/99/99 88/88/88
