g E4
v 0.20864287 1.2086351 0.0052036047
v 0.18427885 1.3681549 -0.18427885
v 0.16064629 1.2090852 -0.16064629
v 0.23812729 1.3493894 0.003487438
v 0.17901778 1.1166933 -0.17901778
v 0.44077644 0.8846159 -0.18264705
v 0.23669246 1.1073527 0.0048378706
v 0.33127895 0.8846159 -0.33127895
v 0.16123709 0.007876337 -0.16123709
v 0.46480286 0.6992973 -0.19243768
v 0.3491159 0.6992973 -0.3491159
v 0.22982776 0.0067791045 0.0060757697
v -0.003487438 1.3493894 -0.23812729
v -0.0052036047 1.208607 -0.20864287
v -0.0048378706 1.1073527 -0.23669246
v -0.0023902059 0.8750223 -0.4518331
v 0.18264705 0.8846159 -0.44077644
v 0.19243768 0.6992973 -0.46480286
v -0.0060757697 0.0067791045 -0.22982776
v 0.47560632 0.70278597 0.0027840734
v 0.45177683 0.8751067 0.0025027394
v 0.16064629 1.3493894 -1.1920929E-06
v 0.18427885 1.3681549 -0.18427885
v 0.23812729 1.3493894 0.003487438
v 0.11391571 1.3493894 -0.11391571
v 1.1920929E-06 1.3493894 -0.16064629
v -0.003487438 1.3493894 -0.23812729
v -0.0026996732 0.70287037 -0.47560632
v 0.20864287 1.2086351 0.0052036047
v 0.1518122 1.3340565 -0.1518122
v 0.23812729 1.3493894 0.003487438
v 0.1322872 1.2025582 -0.13231534
v 0.40985718 0.86455643 -0.16984609
v 0.16973355 0.86447203 -0.40994158
v 0.1522905 1.101951 -0.15226236
v 0.22982776 0.0067791045 0.0060757697
v 0.16123709 0.007876337 -0.16123709
v 0.4303106 0.7069497 -0.17823002
v -0.0052036047 1.208607 -0.20864287
v -0.003487438 1.3493894 -0.23812729
v -0.0023902059 0.8750223 -0.4518331
v -0.0048378706 1.1073527 -0.23669246
v -0.0060757697 0.0067791045 -0.22982776
v 0.17814562 0.7070341 -0.430395
v 0.23669246 1.1073527 0.0048378706
v 0.47560632 0.70278597 0.0027840734
v 0.45177683 0.8751067 0.0025027394
v 0.16064629 1.3493894 -1.1920929E-06
v 0.1518122 1.3340565 -0.1518122
v 0.11391571 1.3493894 -0.11391571
v 0.23812729 1.3493894 0.003487438
v 1.1920929E-06 1.3493894 -0.16064629
v -0.003487438 1.3493894 -0.23812729
v -0.0026996732 0.70287037 -0.47560632
vt 0.46929827 0.8592196
vt 0.47326493 0.86120296
vt 0.47326493 0.8592196
vt 0.46929827 0.86120296
vt 0.47326493 0.85842633
vt 0.47167826 0.85564965
vt 0.46929827 0.85842633
vt 0.47326493 0.85564965
vt 0.47326493 0.84454304
vt 0.47167826 0.8536663
vt 0.47326493 0.8536663
vt 0.46929827 0.84454304
vt 0.47723156 0.86120296
vt 0.47723156 0.8592196
vt 0.47723156 0.85842633
vt 0.47723156 0.85564965
vt 0.47485158 0.85564965
vt 0.47485158 0.8536663
vt 0.47723156 0.84454304
vt 0.46929827 0.8536663
vt 0.46929827 0.85564965
vt 0.47723156 0.86794627
vt 0.4780249 0.8731029
vt 0.47961155 0.86794627
vt 0.4760416 0.8707229
vt 0.47366157 0.87230957
vt 0.47366157 0.8750862
vt 0.47723156 0.8536663
vt 0.46929827 0.8592196
vt 0.47326493 0.86120296
vt 0.46929827 0.86120296
vt 0.47326493 0.8592196
vt 0.4712816 0.855253
vt 0.47485158 0.855253
vt 0.47326493 0.8580296
vt 0.46929827 0.84454304
vt 0.47326493 0.84454304
vt 0.4712816 0.85326964
vt 0.4768349 0.8592196
vt 0.4768349 0.86120296
vt 0.4768349 0.855253
vt 0.4768349 0.8580296
vt 0.4768349 0.84454304
vt 0.47485158 0.85326964
vt 0.46929827 0.8580296
vt 0.46929827 0.85326964
vt 0.46929827 0.855253
vt 0.47762823 0.8687396
vt 0.4780249 0.8731029
vt 0.4768349 0.8715162
vt 0.47961155 0.8687396
vt 0.4744549 0.8727062
vt 0.4744549 0.8750862
vt 0.4768349 0.85326964
vn 0.955876 -0.011697233 -0.2935375
vn 0.67496336 -0.20677549 -0.7082855
vn 0.713979 -0.027303517 -0.69963455
vn 0.9402697 -0.1989724 -0.27622974
vn 0.51109755 0.6905844 -0.5117348
vn 0.8154197 0.50330937 -0.28595534
vn 0.74519145 0.6515688 -0.14194305
vn 0.6203414 0.48770308 -0.6142656
vn 0.6437508 -0.40965688 -0.64634836
vn 0.9090572 -0.26139742 -0.3244786
vn 0.68276644 -0.26139742 -0.6822766
vn 0.87004155 -0.38624752 -0.30633402
vn 0.2770037 -0.19116926 -0.9416598
vn 0.2848068 -0.0038941503 -0.95857704
vn 0.15995675 0.6437657 -0.74831784
vn 0.027303517 0.49550617 -0.8681752
vn 0.2770037 0.50330937 -0.81850386
vn 0.33162558 -0.26139742 -0.9064744
vn 0.3082162 -0.38624752 -0.8693766
vn 0.96945286 -0.24527769 -0
vn 0.8689567 0.4948883 -0
vn -0.042924643 0.99490654 0.09120572
vn -0.09754658 0.98710334 0.12693176
vn -0.003908992 0.99490654 0.100725986
vn -0.12875903 0.97930026 0.1561796
vn -0.09754658 0.99490654 0.025409399
vn -0.09754658 0.99490654 0.025409399
vn 0.050712883 -0.24579114 -0.9679953
vn -0.8778596 0.003908992 0.47890216
vn -0.6905844 0.19898725 0.6953397
vn -0.8700564 0.18338096 0.45757326
vn -0.7061907 -0.011697233 0.7079251
vn -0.7296001 -0.47208196 0.49479526
vn -0.49550617 -0.47208196 0.72911745
vn -0.5501281 -0.6203414 0.55904883
vn -0.8778596 0.33944356 0.33784702
vn -0.66717505 0.34724677 0.65901226
vn -0.8076314 0.23019981 0.5428993
vn -0.47989988 0.003908992 0.87731457
vn -0.46429372 0.18338096 0.86648875
vn -0.2380029 -0.48768818 0.8399493
vn -0.35504985 -0.6125383 0.70621276
vn -0.33944356 0.33944356 0.8772435
vn -0.542325 0.22239661 0.81019956
vn -0.7061907 -0.6125383 0.35509378
vn -0.9402846 0.24580598 0.23546612
vn -0.83884394 -0.48768818 0.24186993
vn -0.03512156 -0.99489164 0.094641894
vn -0.12875903 -0.9870885 0.09527523
vn -0.19118416 -0.96367913 0.18647023
vn -0.003908992 -0.99489164 0.10087293
vn -0.105301864 -0.9944403 -0
vn -0.09754658 -0.99489164 0.025985785
vn -0.2380029 0.24580598 0.9396457
g E4_0
f 3/3/3 2/2/2 1/1/1
f 4/4/4 1/1/1 2/2/2
f 7/7/7 6/6/6 5/5/5
f 8/8/8 5/5/5 6/6/6
f 11/11/11 10/10/10 9/9/9
f 12/12/12 9/9/9 10/10/10
f 14/14/14 13/13/13 3/3/3
f 2/2/2 3/3/3 13/13/13
f 17/17/17 16/16/16 15/15/15
f 11/11/11 9/9/9 18/18/18
f 19/19/19 18/18/18 9/9/9
f 1/1/1 7/7/7 3/3/3
f 5/5/5 3/3/3 7/7/7
f 3/3/3 5/5/5 14/14/14
f 15/15/15 14/14/14 5/5/5
f 21/21/21 20/20/20 6/6/6
f 10/10/10 6/6/6 20/20/20
f 18/18/18 17/17/17 11/11/11
f 8/8/8 11/11/11 17/17/17
f 24/24/24 23/23/23 22/22/22
f 25/25/25 22/22/22 23/23/23
f 25/25/25 23/23/23 26/26/26
f 27/27/27 26/26/26 23/23/23
f 8/8/8 6/6/6 11/11/11
f 10/10/10 11/11/11 6/6/6
f 16/16/16 17/17/17 28/28/28
f 18/18/18 28/28/28 17/17/17
f 8/8/8 17/17/17 5/5/5
f 15/15/15 5/5/5 17/17/17
f 21/21/21 6/6/6 7/7/7
f 20/20/20 12/12/12 10/10/10
f 28/28/28 18/18/18 19/19/19
f 31/31/31 30/30/30 29/29/29
f 32/32/32 29/29/29 30/30/30
f 35/35/35 34/34/34 33/33/33
f 38/38/38 37/37/37 36/36/36
f 32/32/32 30/30/30 39/39/39
f 40/40/40 39/39/39 30/30/30
f 34/34/34 42/42/42 41/41/41
f 44/44/44 43/43/43 37/37/37
f 45/45/45 29/29/29 35/35/35
f 32/32/32 35/35/35 29/29/29
f 32/32/32 39/39/39 35/35/35
f 42/42/42 35/35/35 39/39/39
f 38/38/38 46/46/46 33/33/33
f 47/47/47 33/33/33 46/46/46
f 33/33/33 34/34/34 38/38/38
f 44/44/44 38/38/38 34/34/34
f 50/50/50 49/49/49 48/48/48
f 51/51/51 48/48/48 49/49/49
f 50/50/50 52/52/52 49/49/49
f 53/53/53 49/49/49 52/52/52
f 41/41/41 54/54/54 34/34/34
f 44/44/44 34/34/34 54/54/54
f 45/45/45 35/35/35 33/33/33
f 35/35/35 42/42/42 34/34/34
f 47/47/47 45/45/45 33/33/33
f 44/44/44 37/37/37 38/38/38
f 46/46/46 38/38/38 36/36/36
f 54/54/54 43/43/43 44/44/44
