g E4
v 0.16857521 1.8924208 -0.26752537
v 0.09775601 2.3108835 -0.26752537
v -0.25712687 2.3108835 -0.26752537
v -0.25712687 1.8924208 -0.26752537
v -0.31181502 2.2058744 0.21286488
v -0.31181502 1.8924208 0.21286488
v -0.25712687 1.8924208 -0.26752537
v -0.25712687 2.3108835 -0.26752537
v -0.29993314 2.3108835 0.10852459
v 0.17990628 2.3108835 0.16777664
v 0.16857521 2.1606288 0.2675137
v 0.06883818 2.3108835 0.2561826
v -0.29993314 2.3108835 0.10852459
v -0.25712687 2.3108835 -0.26752537
v 0.09775601 2.3108835 -0.26752537
v 0.17990628 2.3108835 -0.20929626
v 0.17990628 2.3108835 0.16777664
v -0.20747474 2.3108835 0.22474676
v 0.06883818 2.3108835 0.2561826
v 0.17990628 2.3108835 -0.20929626
v 0.16857521 1.8924208 -0.26752537
v 0.16857521 1.8924208 0.2675137
v 0.16857521 2.1606288 0.2675137
v 0.17990628 2.3108835 0.16777664
v 0.06883818 2.3108835 0.2561826
v 0.16857521 2.1606288 0.2675137
v 0.16857521 1.8924208 0.2675137
v -0.31181502 1.8924208 0.21286488
v -0.20747474 2.3108835 0.22474676
v -0.31181502 2.2058744 0.21286488
v 0.09775601 2.3108835 -0.26752537
v 0.16857521 1.8924208 -0.26752537
v 0.17990628 2.3108835 -0.20929626
v -0.29993314 2.3108835 0.10852459
v -0.20747474 2.3108835 0.22474676
v -0.31181502 2.2058744 0.21286488
v 0.16857521 1.8924208 -0.26752537
v -0.25712687 1.8924208 -0.26752537
v -0.31181502 1.8924208 0.21286488
v 0.16857521 1.8924208 0.2675137
vt 0.45469204 0.8250894
vt 0.45166838 0.82584536
vt 0.45166838 0.82849103
vt 0.45469204 0.82849103
vt 0.45091248 0.8224437
vt 0.45091248 0.82471144
vt 0.45431408 0.82471144
vt 0.45431408 0.8216878
vt 0.45166838 0.8216878
vt 0.45695978 0.8330265
vt 0.45733774 0.8330265
vt 0.45695978 0.8326485
vt 0.45658183 0.8318926
vt 0.45582592 0.8318926
vt 0.45582592 0.8326485
vt 0.45582592 0.8330265
vt 0.45695978 0.8330265
vt 0.45695978 0.8318926
vt 0.45695978 0.8326485
vt 0.4664087 0.8341603
vt 0.46338505 0.83378243
vt 0.46338505 0.83756196
vt 0.4652748 0.83756196
vt 0.4664087 0.83680606
vt 0.45431408 0.8213098
vt 0.45507 0.820176
vt 0.45507 0.8182862
vt 0.45166838 0.8182862
vt 0.4524243 0.8213098
vt 0.45166838 0.8205539
vt 0.45166838 0.82584536
vt 0.45469204 0.8250894
vt 0.45166838 0.8250894
vt 0.45658183 0.8318926
vt 0.45695978 0.8318926
vt 0.45695978 0.8318926
vt 0.4524243 0.82471144
vt 0.45355818 0.82471144
vt 0.45355818 0.8231996
vt 0.4524243 0.8231996
vn -0.003921509 0.003921509 -0.9999846
vn -0.003921509 0.003921509 -0.9999846
vn -0.003921509 0.003921509 -0.9999846
vn -0.003921509 0.003921509 -0.9999846
vn -0.99214923 0.003921509 -0.12499809
vn -0.99214923 0.003921509 -0.12499809
vn -0.99214923 0.003921509 -0.12499809
vn -0.99214923 0.003921509 -0.12499809
vn -0.99214923 0.003921509 -0.12499809
vn 0.56078005 0.42744768 0.709094
vn 0.56078005 0.42744768 0.709094
vn 0.56078005 0.42744768 0.709094
vn 0.0039215684 0.99999225 -0.00034526698
vn 0.0039215684 0.99999225 -0.00034526698
vn 0.0039215684 0.99999225 -0.00034526698
vn 0.0039215684 0.99999225 -0.00034526698
vn 0.0039215684 0.99999225 -0.00034526698
vn 0.0039215684 0.99999225 -0.00034526698
vn 0.0039215684 0.99999225 -0.00034526698
vn 0.9996234 -0.027440673 -0
vn 0.9996234 -0.027440673 -0
vn 0.9996234 -0.027440673 -0
vn 0.9996234 -0.027440673 -0
vn 0.9996234 -0.027440673 -0
vn -0.11372459 0.003921509 0.9935046
vn -0.11372459 0.003921509 0.9935046
vn -0.11372459 0.003921509 0.9935046
vn -0.11372459 0.003921509 0.9935046
vn -0.11372459 0.003921509 0.9935046
vn -0.11372459 0.003921509 0.9935046
vn 0.5764662 0.098038435 -0.8112183
vn 0.5764662 0.098038435 -0.8112183
vn 0.5764662 0.098038435 -0.8112183
vn -0.6392107 0.5764661 0.50901526
vn -0.6392107 0.5764661 0.50901526
vn -0.6392107 0.5764661 0.50901526
vn -0.003921509 -0.9999924 -0
vn -0.003921509 -0.9999924 -0
vn -0.003921509 -0.9999924 -0
vn -0.003921509 -0.9999924 -0
g E4_0
f 3/3/3 2/2/2 1/1/1
f 4/4/4 3/3/3 1/1/1
f 7/7/7 6/6/6 5/5/5
f 5/5/5 8/8/8 7/7/7
f 5/5/5 9/9/9 8/8/8
f 12/12/12 11/11/11 10/10/10
f 15/15/15 14/14/14 13/13/13
f 13/13/13 16/16/16 15/15/15
f 13/13/13 17/17/17 16/16/16
f 13/13/13 18/18/18 17/17/17
f 18/18/18 19/19/19 17/17/17
f 22/22/22 21/21/21 20/20/20
f 20/20/20 23/23/23 22/22/22
f 20/20/20 24/24/24 23/23/23
f 27/27/27 26/26/26 25/25/25
f 25/25/25 28/28/28 27/27/27
f 25/25/25 29/29/29 28/28/28
f 29/29/29 30/30/30 28/28/28
f 33/33/33 32/32/32 31/31/31
f 36/36/36 35/35/35 34/34/34
f 39/39/39 38/38/38 37/37/37
f 40/40/40 39/39/39 37/37/37
