g E5
v -0.42303014 3.1969461 1.3625323
v -0.4649339 3.0663261 1.497544
v -0.5340674 3.0141404 1.491137
v -0.5420761 3.1055431 1.3124647
v -0.4929903 2.950587 1.5879135
v -0.31545472 3.3268425 1.0160899
v -0.37270427 3.2828205 1.2003942
v -0.53479075 3.1503406 1.1361692
v -0.5137614 3.152459 0.96529907
v -0.20157568 3.224589 0.64928985
v -0.25701678 3.3133569 0.8278071
v -0.48064134 3.1135004 0.80057746
v -0.43889257 3.034653 0.6471714
v -0.115753055 2.87546 0.37285927
v -0.15388496 3.070873 0.49572876
v -0.39202857 2.9185522 0.5095245
v -0.34128934 2.7688146 0.39187357
v -0.27391264 2.595206 0.29845554
v -0.10381745 2.4107466 0.23195721
v -0.08919504 2.6505437 0.28734666
v -0.29638878 3.1056466 1.3885219
v -0.4042742 3.0138302 1.5316974
v -0.4649339 3.0663261 1.497544
v -0.42303014 3.1969461 1.3625323
v -0.4929903 2.950587 1.5879135
v -0.12319343 3.152459 1.0863601
v -0.2027124 3.150237 1.239456
v -0.37270427 3.2828205 1.2003942
v -0.31545472 3.3268425 1.0160899
v -0.004767474 3.034653 0.7820798
v -0.057366785 3.1135519 0.9320757
v -0.25701678 3.3133569 0.8278071
v -0.20157568 3.224589 0.64928985
v 0.05930241 2.769073 0.5164482
v 0.034552835 2.9183972 0.6417978
v -0.15388496 3.070873 0.49572876
v -0.115753055 2.87546 0.37285927
v -0.0517865 2.4116766 0.24632128
v 0.05697729 2.5947926 0.40112236
v 0.033416107 1.5696744 0.023781765
v -0.0517865 2.4116766 0.24632128
v -0.10381745 2.4107466 0.23195721
v -0.01856317 1.5687959 0.009417709
v -0.5340674 3.0141404 1.491137
v -0.4042742 3.0138302 1.5316974
v -0.29638878 3.1056466 1.3885219
v -0.5420761 3.1055431 1.3124647
v -0.4929903 2.950587 1.5879135
v -0.53479075 3.1503406 1.1361692
v -0.2027124 3.150237 1.239456
v -0.12319343 3.152459 1.0863601
v -0.5137614 3.152459 0.96529907
v -0.48064134 3.1135004 0.80057746
v -0.057366785 3.1135519 0.9320757
v -0.004767474 3.034653 0.7820798
v -0.43889257 3.034653 0.6471714
v -0.39202857 2.9185522 0.5095245
v 0.034552835 2.9183972 0.6417978
v 0.05930241 2.769073 0.5164482
v -0.34128934 2.7688146 0.39187357
v -0.08159967 2.404908 0.2527799
v -0.27391264 2.595206 0.29845554
v 0.05697729 2.5947926 0.40112236
v -0.08159967 2.404908 0.2527799
v 0.033416107 1.5696744 0.023781765
v -0.01856317 1.5687959 0.009417709
v -0.10381745 2.4107466 0.23195721
v -0.0517865 2.4116766 0.24632128
v -0.10381745 2.4107466 0.23195721
v -0.0517865 2.4116766 0.24632128
vt 0.60149485 0.9849051
vt 0.60149485 0.986511
vt 0.60189635 0.9869125
vt 0.6026993 0.9853066
vt 0.60149485 0.9881169
vt 0.60149485 0.98209476
vt 0.60149485 0.98370063
vt 0.6031008 0.98370063
vt 0.6035023 0.98209476
vt 0.60149485 0.9792844
vt 0.60149485 0.98089033
vt 0.6039037 0.9804889
vt 0.6039037 0.9788829
vt 0.60149485 0.9760726
vt 0.60149485 0.97767854
vt 0.6035023 0.97727704
vt 0.6035023 0.9756712
vt 0.6031008 0.97366375
vt 0.60149485 0.9720578
vt 0.60149485 0.97406524
vt 0.599889 0.9853066
vt 0.6006919 0.9869125
vt 0.60149485 0.986511
vt 0.60149485 0.9849051
vt 0.60149485 0.9881169
vt 0.599086 0.98209476
vt 0.5994875 0.98370063
vt 0.60149485 0.98370063
vt 0.60149485 0.98209476
vt 0.599086 0.9788829
vt 0.599086 0.9804889
vt 0.60149485 0.98089033
vt 0.60149485 0.9792844
vt 0.5994875 0.9756712
vt 0.599086 0.97727704
vt 0.60149485 0.97767854
vt 0.60149485 0.9760726
vt 0.6010934 0.9720578
vt 0.599889 0.97366375
vt 0.599889 0.9933361
vt 0.5926624 0.9933361
vt 0.5926624 0.9937376
vt 0.599889 0.9937376
vt 0.5954727 0.99012434
vt 0.5958742 0.99012434
vt 0.5962757 0.98932135
vt 0.59507126 0.98932135
vt 0.5954727 0.9905258
vt 0.59466976 0.98851836
vt 0.5962757 0.98851836
vt 0.5962757 0.9877155
vt 0.59466976 0.9877155
vt 0.59466976 0.987314
vt 0.5966771 0.9869125
vt 0.5966771 0.986511
vt 0.59466976 0.986511
vt 0.59466976 0.98570806
vt 0.5966771 0.98570806
vt 0.5962757 0.9849051
vt 0.59466976 0.9849051
vt 0.5954727 0.98289776
vt 0.59466976 0.98410213
vt 0.5962757 0.98410213
vt 0.59025353 0.99293464
vt 0.58302695 0.99253315
vt 0.58302695 0.99293464
vt 0.5954727 0.98289776
vt 0.5954727 0.98289776
vt 0.59025353 0.99293464
vt 0.59025353 0.99253315
vn -0.64931697 0.71808916 0.25047043
vn -0.6218081 0.66307145 0.41676244
vn -0.60805374 0.65619415 0.44685552
vn -0.64931697 0.71121186 0.2693793
vn -0.5117727 0.60117644 0.613739
vn -0.6286853 0.7593524 -0.16774611
vn -0.64931697 0.7593524 0.042088598
vn -0.64931697 0.7593524 0.042088598
vn -0.6286853 0.7593524 -0.16774611
vn -0.4980182 0.6424398 -0.58245087
vn -0.5805449 0.71808916 -0.3838171
vn -0.5736676 0.71121186 -0.40630427
vn -0.48426384 0.6286853 -0.6084762
vn -0.28482455 0.4361233 -0.85362256
vn -0.3948601 0.54615873 -0.7387802
vn -0.3811056 0.53240436 -0.7558466
vn -0.27107018 0.42236894 -0.86494243
vn -0.18854362 0.33296508 -0.92389697
vn 0.18970323 0.2573157 -0.9475238
vn 0.27910703 0.3673511 -0.8872161
vn 0.38914245 0.71121186 0.585445
vn 0.24472094 0.65619415 0.71380734
vn 0.2722298 0.66307145 0.6972999
vn 0.3960197 0.71808916 0.5722904
vn 0.07279056 0.60117644 0.7957942
vn 0.61609054 0.7593524 0.20932364
vn 0.5129323 0.7593524 0.40035534
vn 0.5129323 0.7593524 0.40035534
vn 0.61609054 0.7593524 0.20932364
vn 0.7467576 0.6286853 -0.21704349
vn 0.70424736 0.70995474 -0
vn 0.697322 0.71675795 -0
vn 0.73988044 0.6424398 -0.19961978
vn 0.7123716 0.42236894 -0.5604741
vn 0.73988044 0.53240436 -0.41124508
vn 0.7467576 0.54615873 -0.37955725
vn 0.7192488 0.4361233 -0.540812
vn 0.32724756 0.2573157 -0.90922916
vn 0.6779855 0.3260879 -0.65878856
vn 0.25159818 0.27107018 -0.929096
vn 0.32724756 0.2573157 -0.90922916
vn 0.18970323 0.2573157 -0.9475238
vn 0.25159818 0.27107018 -0.929096
vn 0.14843994 -0.87054753 -0.46916154
vn 0.14843994 -0.87054753 -0.46916154
vn 0.10029942 -0.94619685 -0.30765498
vn 0.10029942 -0.94619685 -0.30765498
vn 0.18282604 -0.7811437 -0.5969834
vn 0.03152728 -0.9943374 -0.101485
vn 0.03152728 -0.9943374 -0.101485
vn -0.037244856 -0.9943374 0.09952886
vn -0.037244856 -0.9943374 0.09952886
vn -0.10601705 -0.9393197 0.3262499
vn -0.10601705 -0.9393197 0.3262499
vn -0.16103476 -0.8430387 0.5131799
vn -0.16103476 -0.8430387 0.5131799
vn -0.20917529 -0.7192488 0.66251564
vn -0.20917529 -0.7192488 0.66251564
vn -0.23668414 -0.5954589 0.76772994
vn -0.23668414 -0.5954589 0.76772994
vn -0.2573157 -0.4166513 0.87188894
vn -0.2573157 -0.51980954 0.81460834
vn -0.2504385 -0.51980954 0.8167488
vn -0.2573157 -0.4166513 0.87188894
vn -0.24356133 -0.28598422 0.92676365
vn -0.2573157 -0.28598422 0.9230394
vn -0.683703 -0.37538803 0.6258067
vn 0.27910703 -0.36851084 0.886735
vn -0.683703 -0.37538803 0.6258067
vn 0.27910703 -0.36851084 0.886735
g E5_0
f 3/3/3 2/2/2 1/1/1
f 4/4/4 3/3/3 1/1/1
f 3/3/3 5/5/5 2/2/2
f 8/8/8 7/7/7 6/6/6
f 9/9/9 8/8/8 6/6/6
f 8/8/8 4/4/4 1/1/1
f 7/7/7 8/8/8 1/1/1
f 12/12/12 11/11/11 10/10/10
f 13/13/13 12/12/12 10/10/10
f 12/12/12 9/9/9 6/6/6
f 11/11/11 12/12/12 6/6/6
f 16/16/16 15/15/15 14/14/14
f 17/17/17 16/16/16 14/14/14
f 16/16/16 13/13/13 10/10/10
f 15/15/15 16/16/16 10/10/10
f 20/20/20 19/19/19 18/18/18
f 18/18/18 17/17/17 14/14/14
f 20/20/20 18/18/18 14/14/14
f 23/23/23 22/22/22 21/21/21
f 24/24/24 23/23/23 21/21/21
f 23/23/23 25/25/25 22/22/22
f 28/28/28 27/27/27 26/26/26
f 29/29/29 28/28/28 26/26/26
f 28/28/28 24/24/24 21/21/21
f 27/27/27 28/28/28 21/21/21
f 32/32/32 31/31/31 30/30/30
f 33/33/33 32/32/32 30/30/30
f 32/32/32 29/29/29 26/26/26
f 31/31/31 32/32/32 26/26/26
f 36/36/36 35/35/35 34/34/34
f 37/37/37 36/36/36 34/34/34
f 36/36/36 33/33/33 30/30/30
f 35/35/35 36/36/36 30/30/30
f 20/20/20 38/38/38 19/19/19
f 20/20/20 37/37/37 34/34/34
f 39/39/39 20/20/20 34/34/34
f 39/39/39 38/38/38 20/20/20
f 42/42/42 41/41/41 40/40/40
f 43/43/43 42/42/42 40/40/40
f 46/46/46 45/45/45 44/44/44
f 47/47/47 46/46/46 44/44/44
f 44/44/44 45/45/45 48/48/48
f 51/51/51 50/50/50 49/49/49
f 52/52/52 51/51/51 49/49/49
f 46/46/46 47/47/47 49/49/49
f 50/50/50 46/46/46 49/49/49
f 55/55/55 54/54/54 53/53/53
f 56/56/56 55/55/55 53/53/53
f 51/51/51 52/52/52 53/53/53
f 54/54/54 51/51/51 53/53/53
f 59/59/59 58/58/58 57/57/57
f 60/60/60 59/59/59 57/57/57
f 55/55/55 56/56/56 57/57/57
f 58/58/58 55/55/55 57/57/57
f 63/63/63 62/62/62 61/61/61
f 59/59/59 60/60/60 62/62/62
f 63/63/63 59/59/59 62/62/62
f 66/66/66 65/65/65 64/64/64
f 61/61/61 62/62/62 67/67/67
f 63/63/63 61/61/61 68/68/68
f 66/66/66 64/64/64 69/69/69
f 70/70/70 64/64/64 65/65/65
