g E5
v -0.53796005 4.421896 0.27555954
v -0.3841349 5.070356 0.7597796
v 0.33315718 5.350593 0.032072783
v 0.17933202 4.702133 -0.45202756
v 0.11349249 4.901208 -0.34153676
v -0.12879705 5.016607 -0.91386217
v -0.48959792 5.531233 -0.622971
v -0.24730837 5.415834 -0.05064559
v -0.5969763 5.03995 -0.26983154
v -0.9757334 5.3993144 -0.56766576
v -1.0816752 5.7189355 0.08043492
v -0.7029182 5.3596907 0.3782692
v -0.1841023 5.0075088 0.4502139
v -0.14663363 5.26572 1.0104488
v 0.46459693 5.5866575 0.77270806
v 0.42724794 5.328447 0.21247315
v 0.025866032 5.360529 0.7059108
v 0.1562283 5.830743 1.0103291
v 0.58298844 6.023593 0.43094087
v 0.4526261 5.553379 0.12652266
v -0.04045236 4.79778 0.2736442
v 0.22458184 4.5168247 0.8150848
v 0.7388486 5.0508432 0.93215954
v 0.4738145 5.3317986 0.39071882
v -0.5249119 5.21221 0.31278872
v -0.6872364 5.479878 0.8439344
v -0.20553017 5.9585915 0.670118
v -0.043085933 5.690804 0.13897228
v -0.51150453 4.79359 -0.16305172
v -0.42866635 4.932332 0.65204203
v 0.14856696 5.604135 0.44123578
v 0.06584859 5.465393 -0.37397778
v -0.26346898 5.1363153 0.0749284
v -0.3015362 4.8295026 -0.45154876
v -1.0476781 4.7841334 -0.36248577
v -1.0096108 5.0910654 0.16399133
v -0.9636427 5.018642 0.058528304
v -1.2091645 5.3258133 0.52551043
v -0.5153352 5.5044184 0.7340423
v -0.26981354 5.197127 0.26706016
v -0.30752158 5.4386983 0.07061887
v -0.49749863 5.482631 -0.5337883
v 0.13396263 5.8831754 -0.6935989
v 0.32405937 5.8392425 -0.089191675
v 0.53414744 4.88385 0.03662169
v 0.79918164 4.6030145 0.5780624
v 0.22338474 4.9350853 1.0893365
v -0.04164946 5.216041 0.5478959
v 0.04286456 5.2626076 0.43920076
v -0.11957955 5.5302753 0.97046626
v -0.6986085 5.8595924 0.5724361
v -0.5361644 5.591925 0.041170597
v 0.24876285 4.82651 -0.26264906
v 0.33160102 4.965252 0.5524448
v -0.5140184 5.502503 0.5165323
v -0.5967369 5.363761 -0.29856157
v 0.27785194 4.2896185 0.22264838
v 0.43167716 4.9379582 0.7068685
v -0.39024007 5.404701 0.13597965
v -0.54406524 4.7562413 -0.3482405
v -0.41597736 4.9324517 -0.096613646
v -0.6582669 5.0478506 -0.6690587
v -0.026685953 5.448395 -0.8288693
v 0.21560371 5.332996 -0.2564242
v -0.3036909 5.44205 0.3342166
v -0.90426743 5.586418 0.20960021
v -0.64581716 6.04131 -0.3342346
v -0.045120955 5.8969417 -0.20961821
v 0.3806814 4.8793015 0.47846508
v 0.41803038 5.1373925 1.0388197
v -0.046198368 5.6454344 0.7581037
v -0.08366704 5.3873434 0.19786882
v -0.9965626 4.969442 0.14890814
v -1.3753196 5.328686 -0.14892614
v -0.74385846 5.7292304 -0.30873668
v -0.36510134 5.3699856 -0.010902524
v -0.5808157 4.798618 0.3733611
v -0.6187631 4.491686 -0.15311599
v -0.7172831 5.0644903 -0.59053004
v -0.6793355 5.3714223 -0.06405294
v -0.59170914 4.798977 0.43153942
v -0.8372308 5.1062684 0.89840186
v -0.8743404 5.648667 0.40364742
v -0.62869895 5.3413754 -0.0633347
v -0.3306253 5.012297 0.6802932
v -1.0244547 4.8336926 0.47176135
v -1.0615641 5.3762107 -0.023112774
v -0.3677349 5.5546956 0.18541908
v -0.97022665 4.6892047 0.22181046
v -0.22408497 4.734454 0.13274753
v -0.3226049 5.3073783 -0.30466664
v -1.0687467 5.2620087 -0.21560371
v -1.1591264 5.2665577 0.36486185
v -1.0531846 4.946817 -0.2832389
v -0.42172337 5.347361 -0.44304943
v -0.52754545 5.667102 0.2050513
v 0.863465 5.0650887 0.29890263
v 0.3491981 4.5310698 0.1818279
v -0.22647905 4.8632603 0.693102
v 0.2876681 5.3972793 0.8102964
v -0.55316305 5.7321033 -0.05423689
v -0.15082347 5.2022743 -0.23212337
v 0.48075753 5.6028185 -0.39193404
v 0.0784179 6.1326475 -0.21404743
v 0.83066493 5.550985 0.4038868
v 0.4039048 5.3581347 0.98327506
v -0.23354185 5.655131 0.6454581
v 0.19321823 5.847981 0.06606996
v 0.6837828 5.1456523 0.5434667
v 0.07243252 4.824714 0.78120744
v -0.39179623 5.3327565 0.50061107
v 0.21943438 5.6536946 0.26287043
v -0.48349285 5.73761 0.5389178
v -0.52084184 5.276254 0.0072932243
v -0.26239157 5.731146 -0.53654164
v -0.2249229 6.1925015 -0.0049170256
v 0.66834044 5.911666 -0.016169667
v 0.09110701 5.239863 0.1946367
v -0.75439274 5.7771134 0.15884387
v -0.17715931 6.4489164 -0.05208218
v -0.65898526 5.2428555 -0.15383422
v -0.2980646 4.7282295 -0.44472533
v 0.33351636 5.1287737 -0.6046556
v -0.02740419 5.6433997 -0.31376445
v 0.66211563 4.668854 0.0068143606
v -0.055176497 4.388617 0.73440135
v -0.8770937 4.85524 0.16351247
v -0.1598016 5.1355968 -0.5640745
v 1.3961669 5.0081077 -0.01461339
v 0.6788748 4.7278705 0.7129737
v -0.14304245 5.194613 0.14208472
v 0.57424974 5.47485 -0.585622
v 0.5377387 5.2281313 -0.08823407
v -0.039494753 4.5563283 0.1225723
v -0.8849944 5.0935793 0.086779475
v -0.30776107 5.7653823 -0.12414658
v 0.20842111 5.6052127 0.5221586
v -0.27340472 5.126619 0.69597495
v -0.8524338 5.4558167 0.2980646
v -0.37060785 5.9344106 0.12424815
vt -7.488765E-05 0.37451366
vt -7.488765E-05 0.43587968
vt 0.060865 0.43587968
vt 0.060865 0.37451366
vt -7.488765E-05 0.37451366
vt -7.488765E-05 0.43587968
vt 0.060865 0.43587968
vt 0.060865 0.37451366
vt -7.488765E-05 0.37451366
vt -7.488765E-05 0.43587968
vt 0.060865 0.43587968
vt 0.060865 0.37451366
vt -7.488765E-05 0.37451366
vt -7.488765E-05 0.43587968
vt 0.060865 0.43587968
vt 0.060865 0.37451366
vt -7.488765E-05 0.37451366
vt -7.488765E-05 0.43587968
vt 0.060865 0.43587968
vt 0.060865 0.37451366
vt -7.488765E-05 0.37451366
vt -7.488765E-05 0.43587968
vt 0.060865 0.43587968
vt 0.060865 0.37451366
vt -7.488765E-05 0.37451366
vt -7.488765E-05 0.43587968
vt 0.060865 0.43587968
vt 0.060865 0.37451366
vt -7.488765E-05 0.37451366
vt -7.488765E-05 0.43587968
vt 0.060865 0.43587968
vt 0.060865 0.37451366
vt -7.488765E-05 0.37451366
vt -7.488765E-05 0.43587968
vt 0.060865 0.43587968
vt 0.060865 0.37451366
vt -7.488765E-05 0.37451366
vt -7.488765E-05 0.43587968
vt 0.060865 0.43587968
vt 0.060865 0.37451366
vt 0.18743245 0.31059068
vt 0.18743245 0.37366134
vt 0.25178155 0.37366134
vt 0.25178155 0.31059068
vt 0.18743245 0.31059068
vt 0.18743245 0.37366134
vt 0.25178155 0.37366134
vt 0.25178155 0.31059068
vt 0.18743245 0.31059068
vt 0.18743245 0.37366134
vt 0.25178155 0.37366134
vt 0.25178155 0.31059068
vt 0.18743245 0.31059068
vt 0.18743245 0.37366134
vt 0.25178155 0.37366134
vt 0.25178155 0.31059068
vt 0.18743245 0.31059068
vt 0.18743245 0.37366134
vt 0.25178155 0.37366134
vt 0.25178155 0.31059068
vt 0.18743245 0.31059068
vt 0.18743245 0.37366134
vt 0.25178155 0.37366134
vt 0.25178155 0.31059068
vt 0.18743245 0.31059068
vt 0.18743245 0.37366134
vt 0.25178155 0.37366134
vt 0.25178155 0.31059068
vt 0.18743245 0.31059068
vt 0.18743245 0.37366134
vt 0.25178155 0.37366134
vt 0.25178155 0.31059068
vt 0.18743245 0.31059068
vt 0.18743245 0.37366134
vt 0.25178155 0.37366134
vt 0.25178155 0.31059068
vt 0.18743245 0.31059068
vt 0.18743245 0.37366134
vt 0.25178155 0.37366134
vt 0.25178155 0.31059068
vt 0.18743245 0.31059068
vt 0.18743245 0.37366134
vt 0.25178155 0.37366134
vt 0.25178155 0.31059068
vt 0.00035126542 0.31186914
vt 0.00035126542 0.37408748
vt 0.06299577 0.37408748
vt 0.06299577 0.31186914
vt 0.00035126542 0.31186914
vt 0.00035126542 0.37408748
vt 0.06299577 0.37408748
vt 0.06299577 0.31186914
vt 0.00035126542 0.31186914
vt 0.00035126542 0.37408748
vt 0.06299577 0.37408748
vt 0.06299577 0.31186914
vt 0.00035126542 0.31186914
vt 0.00035126542 0.37408748
vt 0.06299577 0.37408748
vt 0.06299577 0.31186914
vt 0.00035126542 0.31186914
vt 0.00035126542 0.37408748
vt 0.06299577 0.37408748
vt 0.06299577 0.31186914
vt 0.00035126542 0.31186914
vt 0.00035126542 0.37408748
vt 0.06299577 0.37408748
vt 0.06299577 0.31186914
vt 0.00035126542 0.31186914
vt 0.00035126542 0.37408748
vt 0.06299577 0.37408748
vt 0.06299577 0.31186914
vt 0.00035126542 0.31186914
vt 0.00035126542 0.37408748
vt 0.06299577 0.37408748
vt 0.06299577 0.31186914
vt 0.00035126542 0.31186914
vt 0.00035126542 0.37408748
vt 0.06299577 0.37408748
vt 0.06299577 0.31186914
vt 0.00035126542 0.31186914
vt 0.00035126542 0.37408748
vt 0.06299577 0.37408748
vt 0.06299577 0.31186914
vt 0.00035126542 0.31186914
vt 0.00035126542 0.37408748
vt 0.06299577 0.37408748
vt 0.06299577 0.31186914
vt 0.00035126542 0.31186914
vt 0.00035126542 0.37408748
vt 0.06299577 0.37408748
vt 0.06299577 0.31186914
vt 0.00035126542 0.31186914
vt 0.00035126542 0.37408748
vt 0.06299577 0.37408748
vt 0.06299577 0.31186914
vt 0.00035126542 0.31186914
vt 0.00035126542 0.37408748
vt 0.06299577 0.37408748
vt 0.06299577 0.31186914
vn 0.70137715 -0.5300274 0.4765932
vn 0.70137715 -0.5300274 0.4765932
vn 0.70137715 -0.5300274 0.4765932
vn 0.70137715 -0.5300274 0.4765932
vn -0.7513705 -0.63432723 0.18185528
vn -0.7513705 -0.63432723 0.18185528
vn -0.7513705 -0.63432723 0.18185528
vn -0.7513705 -0.63432723 0.18185528
vn -0.7513705 -0.63432723 0.18185528
vn -0.7513705 -0.63432723 0.18185528
vn -0.7513705 -0.63432723 0.18185528
vn -0.7513705 -0.63432723 0.18185528
vn 0.5374774 -0.783327 0.31227705
vn 0.5374774 -0.783327 0.31227705
vn 0.5374774 -0.783327 0.31227705
vn 0.5374774 -0.783327 0.31227705
vn 0.775877 -0.4778775 0.41188347
vn 0.775877 -0.4778775 0.41188347
vn 0.775877 -0.4778775 0.41188347
vn 0.775877 -0.4778775 0.41188347
vn 0.6492272 -0.50022745 -0.5729542
vn 0.6492272 -0.50022745 -0.5729542
vn 0.6492272 -0.50022745 -0.5729542
vn 0.6492272 -0.50022745 -0.5729542
vn 0.70137715 -0.5300274 0.4765932
vn 0.70137715 -0.5300274 0.4765932
vn 0.70137715 -0.5300274 0.4765932
vn 0.70137715 -0.5300274 0.4765932
vn 0.76075566 -0.6490383 -0
vn 0.76075566 -0.6490383 -0
vn 0.76075566 -0.6490383 -0
vn 0.76075566 -0.6490383 -0
vn 0.112828076 -0.8652769 0.48843193
vn 0.112828076 -0.8652769 0.48843193
vn 0.112828076 -0.8652769 0.48843193
vn 0.112828076 -0.8652769 0.48843193
vn 0.045778215 -0.8205769 0.5696998
vn 0.045778215 -0.8205769 0.5696998
vn 0.045778215 -0.8205769 0.5696998
vn 0.045778215 -0.8205769 0.5696998
vn -0.48317093 0.8482203 0.21695216
vn -0.48317093 0.8482203 0.21695216
vn -0.48317093 0.8482203 0.21695216
vn -0.48317093 0.8482203 0.21695216
vn 0.5821773 0.8035204 0.12419585
vn 0.5821773 0.8035204 0.12419585
vn 0.5821773 0.8035204 0.12419585
vn 0.5821773 0.8035204 0.12419585
vn 0.58962727 0.7811704 -0.20521323
vn 0.58962727 0.7811704 -0.20521323
vn 0.58962727 0.7811704 -0.20521323
vn 0.58962727 0.7811704 -0.20521323
vn 0.5300274 0.82587034 -0.1923777
vn 0.5300274 0.82587034 -0.1923777
vn 0.5300274 0.82587034 -0.1923777
vn 0.5300274 0.82587034 -0.1923777
vn 0.6566772 0.3416211 -0.67236155
vn 0.6566772 0.3416211 -0.67236155
vn 0.6566772 0.3416211 -0.67236155
vn 0.6566772 0.3416211 -0.67236155
vn -0.43847102 0.82587034 0.35451573
vn -0.43847102 0.82587034 0.35451573
vn -0.43847102 0.82587034 0.35451573
vn -0.43847102 0.82587034 0.35451573
vn 0.045778215 0.7588205 0.649689
vn 0.045778215 0.7588205 0.649689
vn 0.045778215 0.7588205 0.649689
vn 0.045778215 0.7588205 0.649689
vn 0.783327 0.5427708 -0.302983
vn 0.783327 0.5427708 -0.302983
vn 0.783327 0.5427708 -0.302983
vn 0.783327 0.5427708 -0.302983
vn -0.13302153 0.5427708 0.8292799
vn -0.13302153 0.5427708 0.8292799
vn -0.13302153 0.5427708 0.8292799
vn -0.13302153 0.5427708 0.8292799
vn -0.9897701 -0.08302814 0.116023414
vn -0.9897701 -0.08302814 0.116023414
vn -0.9897701 -0.08302814 0.116023414
vn -0.9897701 -0.08302814 0.116023414
vn 0.9099768 0.31182116 0.27333093
vn 0.9099768 0.31182116 0.27333093
vn 0.9099768 0.31182116 0.27333093
vn 0.9099768 0.31182116 0.27333093
vn -0.37142116 0.60982066 0.7001179
vn -0.37142116 0.60982066 0.7001179
vn -0.37142116 0.60982066 0.7001179
vn -0.37142116 0.60982066 0.7001179
vn -0.05852163 -0.6119773 -0.7887072
vn -0.05852163 -0.6119773 -0.7887072
vn -0.05852163 -0.6119773 -0.7887072
vn -0.05852163 -0.6119773 -0.7887072
vn -0.5576708 0.7066706 -0.43545383
vn -0.5576708 0.7066706 -0.43545383
vn -0.5576708 0.7066706 -0.43545383
vn -0.5576708 0.7066706 -0.43545383
vn 0.37357765 -0.5300274 0.761256
vn 0.37357765 -0.5300274 0.761256
vn 0.37357765 -0.5300274 0.761256
vn 0.37357765 -0.5300274 0.761256
vn -0.2969212 0.08832157 -0.95080864
vn -0.2969212 0.08832157 -0.95080864
vn -0.2969212 0.08832157 -0.95080864
vn -0.2969212 0.08832157 -0.95080864
vn 0.18732798 0.8854702 0.4252655
vn 0.18732798 0.8854702 0.4252655
vn 0.18732798 0.8854702 0.4252655
vn 0.18732798 0.8854702 0.4252655
vn 0.0532282 0.52042085 0.85224926
vn 0.0532282 0.52042085 0.85224926
vn 0.0532282 0.52042085 0.85224926
vn 0.0532282 0.52042085 0.85224926
vn -0.9376202 0.2969212 -0.18084835
vn -0.9376202 0.2969212 -0.18084835
vn -0.9376202 0.2969212 -0.18084835
vn -0.9376202 0.2969212 -0.18084835
vn 0.09792811 0.22242135 0.97002
vn 0.09792811 0.22242135 0.97002
vn 0.09792811 0.22242135 0.97002
vn 0.09792811 0.22242135 0.97002
vn -0.37887114 0.23732132 -0.8945028
vn -0.37887114 0.23732132 -0.8945028
vn -0.37887114 0.23732132 -0.8945028
vn -0.37887114 0.23732132 -0.8945028
vn 0.15007806 0.86312026 0.48218256
vn 0.15007806 0.86312026 0.48218256
vn 0.15007806 0.86312026 0.48218256
vn 0.15007806 0.86312026 0.48218256
vn 0.15007806 0.86312026 0.48218256
vn 0.15007806 0.86312026 0.48218256
vn 0.15007806 0.86312026 0.48218256
vn 0.15007806 0.86312026 0.48218256
vn 0.09792811 0.22242135 0.97002
vn 0.09792811 0.22242135 0.97002
vn 0.09792811 0.22242135 0.97002
vn 0.09792811 0.22242135 0.97002
vn -0.2447713 0.5427708 0.803422
vn -0.2447713 0.5427708 0.803422
vn -0.2447713 0.5427708 0.803422
vn -0.2447713 0.5427708 0.803422
g E5_0
f 3/3/3 2/2/2 1/1/1
f 4/4/4 3/3/3 1/1/1
f 7/7/7 6/6/6 5/5/5
f 8/8/8 7/7/7 5/5/5
f 11/11/11 10/10/10 9/9/9
f 12/12/12 11/11/11 9/9/9
f 15/15/15 14/14/14 13/13/13
f 16/16/16 15/15/15 13/13/13
f 19/19/19 18/18/18 17/17/17
f 20/20/20 19/19/19 17/17/17
f 23/23/23 22/22/22 21/21/21
f 24/24/24 23/23/23 21/21/21
f 27/27/27 26/26/26 25/25/25
f 28/28/28 27/27/27 25/25/25
f 31/31/31 30/30/30 29/29/29
f 32/32/32 31/31/31 29/29/29
f 35/35/35 34/34/34 33/33/33
f 36/36/36 35/35/35 33/33/33
f 39/39/39 38/38/38 37/37/37
f 40/40/40 39/39/39 37/37/37
f 43/43/43 42/42/42 41/41/41
f 44/44/44 43/43/43 41/41/41
f 47/47/47 46/46/46 45/45/45
f 48/48/48 47/47/47 45/45/45
f 51/51/51 50/50/50 49/49/49
f 52/52/52 51/51/51 49/49/49
f 55/55/55 54/54/54 53/53/53
f 56/56/56 55/55/55 53/53/53
f 59/59/59 58/58/58 57/57/57
f 60/60/60 59/59/59 57/57/57
f 63/63/63 62/62/62 61/61/61
f 64/64/64 63/63/63 61/61/61
f 67/67/67 66/66/66 65/65/65
f 68/68/68 67/67/67 65/65/65
f 71/71/71 70/70/70 69/69/69
f 72/72/72 71/71/71 69/69/69
f 75/75/75 74/74/74 73/73/73
f 76/76/76 75/75/75 73/73/73
f 79/79/79 78/78/78 77/77/77
f 80/80/80 79/79/79 77/77/77
f 83/83/83 82/82/82 81/81/81
f 84/84/84 83/83/83 81/81/81
f 87/87/87 86/86/86 85/85/85
f 88/88/88 87/87/87 85/85/85
f 91/91/91 90/90/90 89/89/89
f 92/92/92 91/91/91 89/89/89
f 95/95/95 94/94/94 93/93/93
f 96/96/96 95/95/95 93/93/93
f 99/99/99 98/98/98 97/97/97
f 100/100/100 99/99/99 97/97/97
f 103/103/103 102/102/102 101/101/101
f 104/104/104 103/103/103 101/101/101
f 107/107/107 106/106/106 105/105/105
f 108/108/108 107/107/107 105/105/105
f 111/111/111 110/110/110 109/109/109
f 112/112/112 111/111/111 109/109/109
f 115/115/115 114/114/114 113/113/113
f 116/116/116 115/115/115 113/113/113
f 119/119/119 118/118/118 117/117/117
f 120/120/120 119/119/119 117/117/117
f 123/123/123 122/122/122 121/121/121
f 124/124/124 123/123/123 121/121/121
f 127/127/127 126/126/126 125/125/125
f 128/128/128 127/127/127 125/125/125
f 131/131/131 130/130/130 129/129/129
f 132/132/132 131/131/131 129/129/129
f 135/135/135 134/134/134 133/133/133
f 136/136/136 135/135/135 133/133/133
f 139/139/139 138/138/138 137/137/137
f 140/140/140 139/139/139 137/137/137
