g E6
v 0.140625 0.15021673 -0.114012785
v 0.140625 0.15021673 0.14061856
v 0.140625 1.1250001 0.14061856
v 0.140625 0.7317457 -0.140625
v 0.140625 1.1250001 -0.140625
v 0.077493414 0.15021673 -0.140625
v 0.140625 0.7317457 -0.140625
v 0.140625 1.1250001 -0.140625
v -0.059275582 1.1250001 -0.140625
v -0.14061856 0.15021673 -0.140625
v -0.14061856 0.79132384 -0.140625
v -0.12621167 0.49242896 0.14061856
v -0.12764078 0.15021673 0.08980818
v -0.14061856 0.15021673 -0.140625
v -0.14061856 0.79132384 -0.140625
v -0.14061856 1.1250001 0.14061856
v -0.14061856 1.1250001 -0.0592627
v -0.14061856 0.79132384 -0.140625
v -0.059275582 1.1250001 -0.140625
v -0.14061856 1.1250001 -0.0592627
v 0.140625 0.15021673 -0.114012785
v 0.140625 0.7317457 -0.140625
v 0.077493414 0.15021673 -0.140625
v -0.073875606 0.15021673 0.14061856
v -0.12764078 0.15021673 0.08980818
v -0.12621167 0.49242896 0.14061856
v -0.14061856 1.1250001 0.14061856
v 0.140625 1.1250001 0.14061856
v 0.140625 0.15021673 0.14061856
v -0.073875606 0.15021673 0.14061856
v -0.12621167 0.49242896 0.14061856
v 0.140625 0.15021673 -0.114012785
v 0.077493414 0.15021673 -0.140625
v -0.14061856 0.15021673 -0.140625
v -0.12764078 0.15021673 0.08980818
v 0.140625 0.15021673 0.14061856
v -0.073875606 0.15021673 0.14061856
v -0.14061856 1.1250001 -0.0592627
v -0.059275582 1.1250001 -0.140625
v 0.140625 1.1250001 -0.140625
v 0.140625 1.1250001 0.14061856
v -0.14061856 1.1250001 0.14061856
vt 0.47823146 0.8436022
vt 0.47823146 0.8406704
vt 0.46906972 0.8406704
vt 0.47273442 0.84396863
vt 0.46906972 0.84396863
vt 0.49032497 0.8139181
vt 0.4851944 0.81318516
vt 0.4815297 0.81318516
vt 0.4815297 0.8157504
vt 0.49032497 0.8168498
vt 0.48482794 0.8168498
vt 0.49398968 0.8135516
vt 0.49069145 0.8139181
vt 0.49069145 0.8168498
vt 0.49655497 0.8168498
vt 0.4998532 0.8135516
vt 0.4998532 0.8157504
vt 0.49655497 0.8168498
vt 0.4998532 0.8172163
vt 0.4998532 0.8157504
vt 0.49032497 0.81318516
vt 0.4851944 0.81318516
vt 0.49032497 0.8139181
vt 0.49069145 0.81318516
vt 0.49069145 0.8139181
vt 0.49398968 0.8135516
vt 0.47236794 0.81318516
vt 0.46906972 0.81318516
vt 0.46906972 0.8219804
vt 0.471635 0.8219804
vt 0.47236794 0.81904864
vt 0.48629382 0.83590627
vt 0.48666027 0.8348069
vt 0.48666027 0.8322416
vt 0.484095 0.83260804
vt 0.48336205 0.83590627
vt 0.48336205 0.83297455
vt 0.48299557 0.8285769
vt 0.48189616 0.8293098
vt 0.48189616 0.8318751
vt 0.48556086 0.8318751
vt 0.48556086 0.8285769
vn 0.9999924 0.003921509 -0
vn 0.9999924 0.003921509 -0
vn 0.9999924 0.003921509 -0
vn 0.9999924 0.003921509 -0
vn 0.9999924 0.003921509 -0
vn -0.003921509 0.003921509 -0.9999846
vn -0.003921509 0.003921509 -0.9999846
vn -0.003921509 0.003921509 -0.9999846
vn -0.003921509 0.003921509 -0.9999846
vn -0.003921509 0.003921509 -0.9999846
vn -0.003921509 0.003921509 -0.9999846
vn -0.99993086 -0.011763923 -0
vn -0.99993086 -0.011763923 -0
vn -0.99993086 -0.011763923 -0
vn -0.99993086 -0.011763923 -0
vn -0.99993086 -0.011763923 -0
vn -0.99993086 -0.011763923 -0
vn -0.6941123 0.16862607 -0.6998381
vn -0.6941123 0.16862607 -0.6998381
vn -0.6941123 0.16862607 -0.6998381
vn 0.38823235 -0.043136954 -0.92055136
vn 0.38823235 -0.043136954 -0.92055136
vn 0.38823235 -0.043136954 -0.92055136
vn -0.68626916 -0.10588157 0.71959966
vn -0.68626916 -0.10588157 0.71959966
vn -0.68626916 -0.10588157 0.71959966
vn -0.003921509 -0.0039215684 0.9999846
vn -0.003921509 -0.0039215684 0.9999846
vn -0.003921509 -0.0039215684 0.9999846
vn -0.003921509 -0.0039215684 0.9999846
vn -0.003921509 -0.0039215684 0.9999846
vn -0.003921509 -0.9999924 -0
vn -0.003921509 -0.9999924 -0
vn -0.003921509 -0.9999924 -0
vn -0.003921509 -0.9999924 -0
vn -0.003921509 -0.9999924 -0
vn -0.003921509 -0.9999924 -0
vn -0.003921509 0.99999225 -0.00034526698
vn -0.003921509 0.99999225 -0.00034526698
vn -0.003921509 0.99999225 -0.00034526698
vn -0.003921509 0.99999225 -0.00034526698
vn -0.003921509 0.99999225 -0.00034526698
g E6_0
f 3/3/3 2/2/2 1/1/1
f 1/1/1 4/4/4 3/3/3
f 4/4/4 5/5/5 3/3/3
f 8/8/8 7/7/7 6/6/6
f 6/6/6 9/9/9 8/8/8
f 6/6/6 10/10/10 9/9/9
f 10/10/10 11/11/11 9/9/9
f 14/14/14 13/13/13 12/12/12
f 12/12/12 15/15/15 14/14/14
f 12/12/12 16/16/16 15/15/15
f 16/16/16 17/17/17 15/15/15
f 20/20/20 19/19/19 18/18/18
f 23/23/23 22/22/22 21/21/21
f 26/26/26 25/25/25 24/24/24
f 29/29/29 28/28/28 27/27/27
f 27/27/27 30/30/30 29/29/29
f 27/27/27 31/31/31 30/30/30
f 34/34/34 33/33/33 32/32/32
f 32/32/32 35/35/35 34/34/34
f 32/32/32 36/36/36 35/35/35
f 36/36/36 37/37/37 35/35/35
f 40/40/40 39/39/39 38/38/38
f 38/38/38 41/41/41 40/40/40
f 38/38/38 42/42/42 41/41/41
