g E6
v 0.40127325 0.19520828 -0.2952779
v 0.40127325 0.19520828 0.30869398
v 0.40127325 0.79483664 0.30869398
v 0.40127325 0.79483664 -0.2952779
v 0.40127325 0.79483664 -0.2952779
v 0.45047036 0.79483664 -0.2952779
v 0.45047036 0.19520828 -0.2952779
v 0.40127325 0.19520828 -0.2952779
v 0.2568953 0.96261644 -0.46088594
v 0.2568953 0.977021 0.30869398
v 0.2568953 0.19520828 -0.4752905
v 0.40127325 0.79483664 0.30869398
v 0.45047036 0.79483664 0.30869398
v 0.45047036 0.79483664 -0.2952779
v 0.40127325 0.79483664 -0.2952779
v 0.42968348 0.9562341 -0.45450363
v 0.4360658 0.96261644 0.30869398
v 0.2568953 0.977021 0.30869398
v 0.2568953 0.96261644 -0.46088594
v 0.45047036 0.79483664 -0.2952779
v 0.45047036 0.79483664 0.30869398
v 0.4360658 0.96261644 0.30869398
v 0.42968348 0.9562341 -0.45450363
v 0.4360658 0.19520828 -0.46088594
v 0.45047036 0.19520828 -0.2952779
v 0.45047036 0.79483664 -0.2952779
v 0.42968348 0.9562341 -0.45450363
v 0.2568953 0.19520828 -0.4752905
v 0.4360658 0.19520828 -0.46088594
v 0.42968348 0.9562341 -0.45450363
v 0.2568953 0.96261644 -0.46088594
v 0.40127325 0.19520828 0.30869398
v 0.40127325 0.19520828 -0.2952779
v 0.2568953 0.19520828 -0.4752905
v 0.4360658 0.19520828 -0.46088594
v 0.45047036 0.19520828 -0.2952779
v 0.4360658 0.96261644 0.30869398
v 0.45047036 0.79483664 0.30869398
v 0.40127325 0.79483664 0.30869398
v 0.2568953 0.977021 0.30869398
v 0.40127325 0.19520828 0.30869398
v 0.2568953 0.19520828 -0.4752905
v 0.2568953 0.977021 0.30869398
v 0.40127325 0.19520828 0.30869398
vt 0.38121 0.98652923
vt 0.37635288 0.98652923
vt 0.37635288 0.99077916
vt 0.38121 0.99077916
vt 0.3824243 0.98713636
vt 0.38181713 0.98713636
vt 0.38181713 0.9895649
vt 0.3824243 0.9895649
vt 0.37756717 0.9968506
vt 0.38121 0.99745774
vt 0.37756717 0.9938148
vt 0.3824243 0.98713636
vt 0.38181713 0.98713636
vt 0.38181713 0.990172
vt 0.3824243 0.990172
vt 0.38303143 0.9919934
vt 0.38849568 0.9919934
vt 0.38849568 0.99077916
vt 0.38303143 0.99077916
vt 0.37999573 0.990172
vt 0.37756717 0.990172
vt 0.37756717 0.99077916
vt 0.38060287 0.99077916
vt 0.38060287 0.9877435
vt 0.37999573 0.9877435
vt 0.37999573 0.990172
vt 0.38060287 0.99077916
vt 0.37756717 0.9877435
vt 0.37696 0.9877435
vt 0.37696 0.99077916
vt 0.37756717 0.99077916
vt 0.38667426 0.99442196
vt 0.38849568 0.99442196
vt 0.38849568 0.99442196
vt 0.38849568 0.9950291
vt 0.38788855 0.9950291
vt 0.38849568 0.9962435
vt 0.38788855 0.9962435
vt 0.38788855 0.9962435
vt 0.38849568 0.9968506
vt 0.38606712 0.9968506
vt 0.37756717 0.9938148
vt 0.38121 0.99745774
vt 0.38121 0.9938148
vn 0.9999924 0.003921509 -0
vn 0.9999924 0.003921509 -0
vn 0.9999924 0.003921509 -0
vn 0.9999924 0.003921509 -0
vn -0.003921509 0.003921509 0.9999846
vn -0.003921509 0.003921509 0.9999846
vn -0.003921509 0.003921509 0.9999846
vn -0.003921509 0.003921509 0.9999846
vn -0.99999225 0.003921509 -0.00034492963
vn -0.99999225 0.003921509 -0.00034492963
vn -0.99999225 0.003921509 -0.00034492963
vn -0.003921509 -0.9999924 -0
vn -0.003921509 -0.9999924 -0
vn -0.003921509 -0.9999924 -0
vn -0.003921509 -0.9999924 -0
vn 0.058722056 0.9982743 -0
vn 0.058722056 0.9982743 -0
vn 0.058722056 0.9982743 -0
vn 0.058722056 0.9982743 -0
vn 0.9921493 0.10588145 -0.06654998
vn 0.9921493 0.10588145 -0.06654998
vn 0.9921493 0.10588145 -0.06654998
vn 0.9921493 0.10588145 -0.06654998
vn 0.9921493 0.003921509 -0.124997616
vn 0.9921493 0.003921509 -0.124997616
vn 0.9921493 0.003921509 -0.124997616
vn 0.9921493 0.003921509 -0.124997616
vn 0.05882311 0.011764526 -0.9981991
vn 0.05882311 0.011764526 -0.9981991
vn 0.05882311 0.011764526 -0.9981991
vn 0.05882311 0.011764526 -0.9981991
vn -0.003921509 -0.9999924 -0
vn -0.003921509 -0.9999924 -0
vn -0.003921509 -0.9999924 -0
vn -0.003921509 -0.9999924 -0
vn -0.003921509 -0.9999924 -0
vn -0.003921509 0.003921509 0.9999846
vn -0.003921509 0.003921509 0.9999846
vn -0.003921509 0.003921509 0.9999846
vn -0.003921509 0.003921509 0.9999846
vn -0.003921509 0.003921509 0.9999846
vn -0.96861994 -0.17646927 0.17502567
vn -0.96861994 -0.17646927 0.17502567
vn -0.96861994 -0.17646927 0.17502567
g E6_0
f 3/3/3 2/2/2 1/1/1
f 4/4/4 3/3/3 1/1/1
f 7/7/7 6/6/6 5/5/5
f 8/8/8 7/7/7 5/5/5
f 11/11/11 10/10/10 9/9/9
f 14/14/14 13/13/13 12/12/12
f 15/15/15 14/14/14 12/12/12
f 18/18/18 17/17/17 16/16/16
f 19/19/19 18/18/18 16/16/16
f 22/22/22 21/21/21 20/20/20
f 23/23/23 22/22/22 20/20/20
f 26/26/26 25/25/25 24/24/24
f 27/27/27 26/26/26 24/24/24
f 30/30/30 29/29/29 28/28/28
f 31/31/31 30/30/30 28/28/28
f 34/34/34 33/33/33 32/32/32
f 33/33/33 34/34/34 35/35/35
f 36/36/36 33/33/33 35/35/35
f 39/39/39 38/38/38 37/37/37
f 40/40/40 39/39/39 37/37/37
f 41/41/41 39/39/39 40/40/40
f 44/44/44 43/43/43 42/42/42
