g E7
v 0.11702739 1.6944389 0.2994175
v 0.059704177 1.7107667 0.41999596
v 0.0827568 1.7743742 0.3303991
v 0.08443068 1.6530911 0.39761877
v 2.2873282E-06 1.7346709 0.42924637
v 2.2873282E-06 1.8074995 0.34326154
v -0.05969961 1.7107667 0.41999596
v -0.08275223 1.7743742 0.3303991
v -0.084426105 1.6530911 0.39761877
v -0.11702281 1.6944389 0.2994175
v -0.05969961 1.5954155 0.3752709
v -0.08275223 1.6145036 0.26840663
v 2.2873282E-06 1.5715406 0.36599118
v 2.2873282E-06 1.5813783 0.2555735
v 2.2873282E-06 1.5813783 0.2555735
v 0.059704177 1.5954155 0.3752709
v 0.0827568 1.6145036 0.26840663
v 2.2873282E-06 1.5715406 0.36599118
v 0.03403794 1.5957679 0.5628341
v 0.048133813 1.5628774 0.55008906
v 2.2873282E-06 1.6093938 0.56812006
v -0.034033373 1.5957679 0.5628341
v -0.048129246 1.5628774 0.55008906
v -0.034033373 1.5299871 0.5373441
v 2.2873282E-06 1.5163904 0.5320581
v 2.2873282E-06 1.5163904 0.5320581
v 0.03403794 1.5299871 0.5373441
v 2.2873282E-06 1.5073162 0.63105226
vt 0.48208064 0.90821946
vt 0.48165998 0.9065368
vt 0.48081863 0.9077988
vt 0.4825013 0.9069575
vt 0.4812393 0.90569544
vt 0.47997728 0.9069575
vt 0.48039797 0.9052748
vt 0.47913596 0.9061161
vt 0.47997728 0.9044335
vt 0.47871527 0.9048542
vt 0.47997728 0.9031714
vt 0.4782946 0.9035921
vt 0.47997728 0.90233016
vt 0.4782946 0.90233016
vt 0.48460466 0.90864015
vt 0.48376334 0.9069575
vt 0.48334265 0.90864015
vt 0.48460466 0.9069575
vt 0.482922 0.9044335
vt 0.48334265 0.9044335
vt 0.4825013 0.9040128
vt 0.4825013 0.9040128
vt 0.4825013 0.9035921
vt 0.4825013 0.9027508
vt 0.4825013 0.90233016
vt 0.48460466 0.9044335
vt 0.48376334 0.9044335
vt 0.48376334 0.9031714
vn 0.9572985 -0.11741257 0.26418522
vn 0.679905 0.49901748 0.5373181
vn 0.6953157 0.49131215 0.52454597
vn 0.9727093 -0.086591065 0.2152641
vn 0.009537339 0.7532948 0.6576138
vn 0.01724273 0.7610003 0.6485224
vn -0.6685357 0.51442826 0.5370508
vn -0.6608304 0.5221336 0.53914726
vn -0.9690454 -0.06347495 0.23858316
vn -0.9536346 -0.078885734 0.29044455
vn -0.7224734 -0.6876104 -0.07227861
vn -0.7052771 -0.70893174 -0
vn -0.0058734417 -0.9727093 -0.23195286
vn -0.021284223 -0.9958254 -0.08876249
vn -0.021284223 -0.9958254 -0.08876249
vn 0.7107265 -0.70302117 -0.025081811
vn 0.67963463 -0.73355085 -0
vn -0.0058734417 -0.9727093 -0.23195286
vn 0.6644943 0.45278525 0.5945022
vn 0.9572985 -0.12511796 0.26062432
vn -0.021284223 0.67624116 0.7363728
vn -0.67624116 0.43737447 0.59279126
vn -0.96133995 -0.12511796 0.24529779
vn -0.6916518 -0.7184319 -0.07398226
vn 0.02494806 -0.9727093 -0.23068215
vn 0.02494806 -0.9727093 -0.23068215
vn 0.70302117 -0.70302117 -0.107342914
vn 0.0018319488 -0.44874376 0.8936586
g E7_0
f 3/3/3 2/2/2 1/1/1
f 4/4/4 1/1/1 2/2/2
f 6/6/6 5/5/5 3/3/3
f 2/2/2 3/3/3 5/5/5
f 8/8/8 7/7/7 6/6/6
f 5/5/5 6/6/6 7/7/7
f 10/10/10 9/9/9 8/8/8
f 7/7/7 8/8/8 9/9/9
f 12/12/12 11/11/11 10/10/10
f 9/9/9 10/10/10 11/11/11
f 14/14/14 13/13/13 12/12/12
f 11/11/11 12/12/12 13/13/13
f 17/17/17 16/16/16 15/15/15
f 18/18/18 15/15/15 16/16/16
f 1/1/1 4/4/4 17/17/17
f 16/16/16 17/17/17 4/4/4
f 2/2/2 19/19/19 4/4/4
f 20/20/20 4/4/4 19/19/19
f 21/21/21 19/19/19 5/5/5
f 2/2/2 5/5/5 19/19/19
f 22/22/22 21/21/21 7/7/7
f 5/5/5 7/7/7 21/21/21
f 23/23/23 22/22/22 9/9/9
f 7/7/7 9/9/9 22/22/22
f 24/24/24 23/23/23 11/11/11
f 9/9/9 11/11/11 23/23/23
f 25/25/25 24/24/24 13/13/13
f 11/11/11 13/13/13 24/24/24
f 27/27/27 26/26/26 16/16/16
f 18/18/18 16/16/16 26/26/26
f 4/4/4 20/20/20 16/16/16
f 27/27/27 16/16/16 20/20/20
f 28/28/28 20/20/20 19/19/19
f 28/28/28 19/19/19 21/21/21
f 28/28/28 21/21/21 22/22/22
f 28/28/28 22/22/22 23/23/23
f 28/28/28 23/23/23 24/24/24
f 28/28/28 24/24/24 25/25/25
f 28/28/28 26/26/26 27/27/27
f 28/28/28 27/27/27 20/20/20
