g Easter_island_destroyable_Tree_03_Crown_mesh
v 0.17216885 5.583017 -0.20382619
v -0.18222821 5.8991785 0.64352024
v 0.046499014 5.0499134 1.0560244
v 0.40075922 4.733752 0.2085408
v 0.87013674 4.820501 -0.38842523
v 0.47421503 5.1729794 -1.2024698
v -0.21402252 5.6130295 -0.67704105
v 0.18189907 5.260551 0.13700354
v 0.2487768 5.129947 0.1766094
v 0.6044074 5.9113755 0.3829986
v 1.4105034 5.5519075 0.35531557
v 1.0547358 4.7703424 0.14892638
v -0.17619836 5.1304955 -0.42693472
v -0.6853188 5.8527203 -0.17395043
v 0.059107184 6.39062 -0.21150064
v 0.56822765 5.6683955 -0.46448493
v 0.3230549 6.3294983 0.31927288
v 0.57795775 6.770919 -0.24452841
v -0.09835708 6.72309 -0.58796203
v -0.353397 6.2815323 -0.024160743
v -0.17702067 6.2093105 0.10082376
v -0.14700782 6.7955866 0.5836319
v 0.5924845 6.6627903 0.69902337
v 0.56247175 6.076377 0.21621525
v 0.49860907 5.7429476 -1.1545042
v 1.0532284 6.3236055 -0.5365703
v 0.9124836 5.6585283 0.21457088
v 0.35786426 5.0780077 -0.40322602
v -0.40054023 4.7429338 0.20127738
v -0.25815094 5.679222 0.2452687
v 0.103372574 5.6655173 -0.63113105
v -0.039016724 4.729092 -0.6751224
v 0.28207862 5.309887 -0.021968126
v -0.22704184 6.0321116 0.23115313
v -0.40465152 6.2161627 -0.65182483
v 0.10460591 5.493938 -0.904809
v 0.2578218 4.6598845 -0.15832746
v -0.13810003 5.0123634 -0.972372
v 0.4213159 5.8033843 -0.90193117
v 0.8172376 5.450906 -0.08788645
v 0.612219 4.8248863 0.63927186
v 0.96784955 5.606314 0.84566104
v 1.0274639 5.805851 -0.012511969
v 0.6716963 5.0242863 -0.21890104
v 0.50587237 6.171623 -0.07500434
v 0.27097797 6.788597 0.30186808
v -0.40547383 6.740632 -0.04156542
v -0.17057955 6.1237946 -0.41843796
v 0.26714075 6.169567 -0.7746167
v 1.1032495 5.672507 -1.0580249
v 0.9625048 5.0074296 -0.3068837
v 0.12639606 5.5044904 -0.023475528
v 0.81614125 5.9365916 -0.4468062
v 0.57631326 6.7332315 -0.095149875
v -0.25458777 6.414877 0.05943632
v -0.01489687 5.618237 -0.29221988
v 0.4818896 5.8250375 0.069577694
v -0.2625364 5.2871375 0.10699093
v -0.440009 5.4713254 -0.7758502
v 0.3042798 6.0092254 -0.8134004
v -0.31159842 5.8090034 -0.14517117
v 0.07185233 6.4646244 -0.17463565
v 0.19697392 6.4251556 0.5741757
v -0.18661368 5.769534 0.6036402
v -0.23800552 4.9824877 -0.18025458
v 0.45023227 4.5423 -0.70568335
v 1.0097852 5.3333216 -0.63524246
v 0.32141042 5.7733717 -0.10981369
v -0.16441262 4.6661887 0.3827244
v -0.39300287 5.515454 -0.029642582
v 0.48202658 5.8653283 0.20566285
v 0.7107539 5.016063 0.61802995
v -0.9894208 5.0003033 0.042168736
v -0.5671865 5.6531835 -0.5399965
v 0.09734261 5.8343563 0.14495218
v -0.3248917 5.181476 0.7272545
v -0.5234693 5.8438125 0.25403965
v -1.2769402 5.3478484 0.21045935
v -0.95187056 4.9176655 -0.51423204
v -0.19839966 5.413767 -0.47065187
v -0.14933765 5.0127745 0.4051999
v -0.72519886 5.8099623 0.038194418
v 0.15120113 6.3103123 -0.2502843
v 0.7270622 5.513261 0.116721034
v -0.18263948 5.4461093 0.34873736
v -0.35065615 6.186287 0.38985074
v 0.387877 6.3496437 0.46549928
v 0.55589366 5.609466 0.4243859
v -0.22868645 6.1745014 0.55896366
v -0.05532503 6.6396303 -0.016623378
v 0.6841674 6.506834 0.098768115
v 0.51080596 6.041568 0.67435515
v -0.43055308 5.2626066 -0.11228049
v -0.38642466 5.7271876 0.8278452
v 0.4901123 6.2276745 0.53950346
v 0.4459839 5.762956 -0.40075922
v -0.5637604 5.0895195 -0.35950875
v -1.1327692 5.7855687 0.008455753
v -0.46837723 5.9667416 0.69340456
v 0.100631595 5.2706923 0.3255769
v -0.13344038 4.989751 -0.11200631
v -0.48783767 5.3059125 0.7354771
v 0.38719177 5.6559243 0.97078264
v 0.74158895 5.3397627 0.12329924
v 0.22438288 6.473258 0.25376546
v -0.0360018 6.755707 -0.5637052
v 0.20382619 5.959067 -0.9153615
v 0.46407378 5.676618 -0.097890735
v 0.55520844 5.267403 0.20086634
v 0.7251437 6.033619 -0.50203514
v 1.0684402 5.3200283 -1.196851
v 0.898505 4.5539494 -0.4940865
v 0.3485452 6.318535 0.1775688
v -0.29570115 6.7011633 0.3052944
v -0.6791519 6.0455422 0.33475888
v -0.034905434 5.662914 0.20703328
v 0.44735432 5.0532026 -0.1406486
v 1.2265897 5.605218 0.3041979
v 1.9208573 4.8771005 -0.008400679
v 1.1416221 4.3250847 -0.4532473
v -0.9824313 4.9184875 0.0050296783
v -1.3597151 5.538751 -0.53232193
v -0.6061071 6.0347157 -0.48874176
v -0.2289604 5.414589 0.048609853
v -0.38423193 5.2806964 -0.07596362
v -1.0168296 5.7021084 -0.07651186
v -1.3819162 5.1547523 0.3041979
v -0.7493187 4.7333407 0.30474603
v 0.3240143 6.3778753 -0.11392498
v 0.35402703 6.9641514 0.368883
v 0.18066561 6.498885 0.94447005
v 0.15065289 5.9126086 0.46166217
v 0.059107184 6.2907143 0.18250239
v -0.0057148933 6.2341156 0.9376179
v 0.16230166 5.493938 0.8965045
v 0.22712374 5.550674 0.14138901
v -0.78097594 5.396362 0.4416536
v -1.1581224 6.0164886 -0.095698
v -0.83318985 5.586443 -0.8203896
v -0.45590627 4.9661794 -0.2830379
v -0.26884043 5.830245 0.10630572
v -0.33366263 5.7735085 0.8615581
v 0.40473354 5.9370027 0.9372066
v 0.46955562 5.993739 0.18195426
v 0.0981648 6.0062103 -0.22890532
v -0.54608166 6.388839 -0.10104275
v -0.42109692 6.3492327 0.6476315
v 0.22314942 5.966604 0.5197691
v -0.03422022 5.504079 -0.3208623
v -0.60322917 6.2001286 0.04696536
v -1.0254635 5.547248 0.6292676
v -0.4564544 4.8511987 0.26144016
v 1.2729107 4.9627533 0.069714665
v 1.442846 5.7288322 -0.6330497
v 0.4614699 5.611933 -0.9978623
v 0.29153466 4.845717 -0.29496086
v -0.29720867 5.9023304 -0.43296468
v -0.25308025 6.366912 0.5072979
v 0.32278085 5.569723 0.87416613
v 0.27865255 5.1051426 -0.065959334
v 0.81367445 6.2480936 0.0057148933
v 0.55342686 6.5305424 -0.8116188
v -0.27761137 6.212188 -0.6570325
v -0.017226696 5.9297395 0.16043818
v -0.16838682 6.618799 0.30570543
v 0.08651602 7.060357 -0.25809586
v 0.3215475 6.4433823 -0.6349683
v 0.06650758 6.0019617 -0.07116711
v 0.8476615 5.132551 -0.8650662
v 1.4022808 5.713072 -0.2471323
v 0.566172 6.2101326 0.036275864
v 0.011552691 5.629612 -0.581658
v -0.6281713 4.8258457 -0.46777403
v -0.48591912 5.762134 -0.4237827
v 0.37896907 5.6137147 -0.064725995
v 0.2365799 4.6774263 -0.10871732
vt 0.06342192 0.311443
vt 0.06342192 0.3732352
vt 0.12521411 0.3732352
vt 0.12521411 0.311443
vt 0.06342192 0.311443
vt 0.06342192 0.3732352
vt 0.12521411 0.3732352
vt 0.12521411 0.311443
vt -7.488765E-05 0.37451366
vt -7.488765E-05 0.43587968
vt 0.060865 0.43587968
vt 0.060865 0.37451366
vt 0.06342192 0.311443
vt 0.06342192 0.3732352
vt 0.12521411 0.3732352
vt 0.12521411 0.311443
vt 0.18743245 0.31059068
vt 0.18743245 0.37366134
vt 0.25178155 0.37366134
vt 0.25178155 0.31059068
vt 0.18743245 0.31059068
vt 0.18743245 0.37366134
vt 0.25178155 0.37366134
vt 0.25178155 0.31059068
vt 0.18743245 0.31059068
vt 0.18743245 0.37366134
vt 0.25178155 0.37366134
vt 0.25178155 0.31059068
vt 0.18743245 0.31059068
vt 0.18743245 0.37366134
vt 0.25178155 0.37366134
vt 0.25178155 0.31059068
vt 0.12564026 0.3122953
vt 0.12564026 0.3732352
vt 0.1870063 0.3732352
vt 0.1870063 0.3122953
vt 0.12564026 0.3122953
vt 0.12564026 0.3732352
vt 0.1870063 0.3732352
vt 0.1870063 0.3122953
vt 0.18743245 0.31059068
vt 0.18743245 0.37366134
vt 0.25178155 0.37366134
vt 0.25178155 0.31059068
vt 0.00035126542 0.31186914
vt 0.00035126542 0.37408748
vt 0.06299577 0.37408748
vt 0.06299577 0.31186914
vt 0.00035126542 0.31186914
vt 0.00035126542 0.37408748
vt 0.06299577 0.37408748
vt 0.06299577 0.31186914
vt 0.00035126542 0.31186914
vt 0.00035126542 0.37408748
vt 0.06299577 0.37408748
vt 0.06299577 0.31186914
vt 0.00035126542 0.31186914
vt 0.00035126542 0.37408748
vt 0.06299577 0.37408748
vt 0.06299577 0.31186914
vt 0.00035126542 0.31186914
vt 0.00035126542 0.37408748
vt 0.06299577 0.37408748
vt 0.06299577 0.31186914
vt 0.00035126542 0.31186914
vt 0.00035126542 0.37408748
vt 0.06299577 0.37408748
vt 0.06299577 0.31186914
vt 0.00035126542 0.31186914
vt 0.00035126542 0.37408748
vt 0.06299577 0.37408748
vt 0.06299577 0.31186914
vt 0.00035126542 0.31186914
vt 0.00035126542 0.37408748
vt 0.06299577 0.37408748
vt 0.06299577 0.31186914
vt 0.00035126542 0.31186914
vt 0.00035126542 0.37408748
vt 0.06299577 0.37408748
vt 0.06299577 0.31186914
vt 0.00035126542 0.31186914
vt 0.00035126542 0.37408748
vt 0.06299577 0.37408748
vt 0.06299577 0.31186914
vt 0.00035126542 0.31186914
vt 0.00035126542 0.37408748
vt 0.06299577 0.37408748
vt 0.06299577 0.31186914
vt 0.00035126542 0.31186914
vt 0.00035126542 0.37408748
vt 0.06299577 0.37408748
vt 0.06299577 0.31186914
vt 0.12564026 0.3122953
vt 0.12564026 0.3732352
vt 0.1870063 0.3732352
vt 0.1870063 0.3122953
vt 0.12564026 0.3122953
vt 0.12564026 0.3732352
vt 0.1870063 0.3732352
vt 0.1870063 0.3122953
vt 0.12564026 0.3122953
vt 0.12564026 0.3732352
vt 0.1870063 0.3732352
vt 0.1870063 0.3122953
vt -7.488765E-05 0.37451366
vt -7.488765E-05 0.43587968
vt 0.060865 0.43587968
vt 0.060865 0.37451366
vt -7.488765E-05 0.37451366
vt -7.488765E-05 0.43587968
vt 0.060865 0.43587968
vt 0.060865 0.37451366
vt -7.488765E-05 0.37451366
vt -7.488765E-05 0.43587968
vt 0.060865 0.43587968
vt 0.060865 0.37451366
vt -7.488765E-05 0.37451366
vt -7.488765E-05 0.43587968
vt 0.060865 0.43587968
vt 0.060865 0.37451366
vt -7.488765E-05 0.37451366
vt -7.488765E-05 0.43587968
vt 0.060865 0.43587968
vt 0.060865 0.37451366
vt -7.488765E-05 0.37451366
vt -7.488765E-05 0.43587968
vt 0.060865 0.43587968
vt 0.060865 0.37451366
vt -7.488765E-05 0.37451366
vt -7.488765E-05 0.43587968
vt 0.060865 0.43587968
vt 0.060865 0.37451366
vt -7.488765E-05 0.37451366
vt -7.488765E-05 0.43587968
vt 0.060865 0.43587968
vt 0.060865 0.37451366
vt 0.18743245 0.31059068
vt 0.18743245 0.37366134
vt 0.25178155 0.37366134
vt 0.25178155 0.31059068
vt 0.18743245 0.31059068
vt 0.18743245 0.37366134
vt 0.25178155 0.37366134
vt 0.25178155 0.31059068
vt 0.18743245 0.31059068
vt 0.18743245 0.37366134
vt 0.25178155 0.37366134
vt 0.25178155 0.31059068
vt 0.06342192 0.311443
vt 0.06342192 0.3732352
vt 0.12521411 0.3732352
vt 0.12521411 0.311443
vt 0.18743245 0.31059068
vt 0.18743245 0.37366134
vt 0.25178155 0.37366134
vt 0.25178155 0.31059068
vt 0.06342192 0.311443
vt 0.06342192 0.3732352
vt 0.12521411 0.3732352
vt 0.12521411 0.311443
vt 0.18743245 0.31059068
vt 0.18743245 0.37366134
vt 0.25178155 0.37366134
vt 0.25178155 0.31059068
vt -7.488765E-05 0.37451366
vt -7.488765E-05 0.43587968
vt 0.060865 0.43587968
vt 0.060865 0.37451366
vt -7.488765E-05 0.37451366
vt -7.488765E-05 0.43587968
vt 0.060865 0.43587968
vt 0.060865 0.37451366
vt -7.488765E-05 0.37451366
vt -7.488765E-05 0.43587968
vt 0.060865 0.43587968
vt 0.060865 0.37451366
vn -0.9041387 -0.3630563 -0.22521853
vn -0.9041387 -0.3630563 -0.22521853
vn -0.9041387 -0.3630563 -0.22521853
vn -0.9041387 -0.3630563 -0.22521853
vn -0.57588935 -0.81344485 -0.08160252
vn -0.57588935 -0.81344485 -0.08160252
vn -0.57588935 -0.81344485 -0.08160252
vn -0.57588935 -0.81344485 -0.08160252
vn -0.06443119 -0.2256496 0.9720755
vn -0.06443119 -0.2256496 0.9720755
vn -0.06443119 -0.2256496 0.9720755
vn -0.06443119 -0.2256496 0.9720755
vn 0.19511479 -0.20274848 0.9595954
vn 0.19511479 -0.20274848 0.9595954
vn 0.19511479 -0.20274848 0.9595954
vn 0.19511479 -0.20274848 0.9595954
vn 0.30962032 -0.81344485 -0.49238473
vn 0.30962032 -0.81344485 -0.49238473
vn 0.30962032 -0.81344485 -0.49238473
vn 0.30962032 -0.81344485 -0.49238473
vn -0.22473896 -0.61496854 0.75584793
vn -0.22473896 -0.61496854 0.75584793
vn -0.22473896 -0.61496854 0.75584793
vn -0.22473896 -0.61496854 0.75584793
vn -0.8278016 0.49191856 0.26974183
vn -0.8278016 0.49191856 0.26974183
vn -0.8278016 0.49191856 0.26974183
vn -0.8278016 0.49191856 0.26974183
vn 0.912683 -0.15694624 0.37732956
vn 0.912683 -0.15694624 0.37732956
vn 0.912683 -0.15694624 0.37732956
vn 0.912683 -0.15694624 0.37732956
vn 0.81255496 0.58288467 -0
vn 0.81255496 0.58288467 -0
vn 0.81255496 0.58288467 -0
vn 0.81255496 0.58288467 -0
vn -0.70566237 0.45375013 0.544198
vn -0.70566237 0.45375013 0.544198
vn -0.70566237 0.45375013 0.544198
vn -0.70566237 0.45375013 0.544198
vn 0.9126121 -0.4088267 -0
vn 0.9126121 -0.4088267 -0
vn 0.9126121 -0.4088267 -0
vn 0.9126121 -0.4088267 -0
vn 0.33252144 0.58352304 -0.7408984
vn 0.33252144 0.58352304 -0.7408984
vn 0.33252144 0.58352304 -0.7408984
vn 0.33252144 0.58352304 -0.7408984
vn 0.5462652 0.57588935 0.6082317
vn 0.5462652 0.57588935 0.6082317
vn 0.5462652 0.57588935 0.6082317
vn 0.5462652 0.57588935 0.6082317
vn -0.28580856 0.31634343 -0.90456635
vn -0.28580856 0.31634343 -0.90456635
vn -0.28580856 0.31634343 -0.90456635
vn -0.28580856 0.31634343 -0.90456635
vn -0.5529883 0.78199935 0.28754303
vn -0.5529883 0.78199935 0.28754303
vn -0.5529883 0.78199935 0.28754303
vn -0.5529883 0.78199935 0.28754303
vn -0.85070264 0.49955225 0.16356215
vn -0.85070264 0.49955225 0.16356215
vn -0.85070264 0.49955225 0.16356215
vn -0.85070264 0.49955225 0.16356215
vn -0.4079479 0.36214566 -0.8381104
vn -0.4079479 0.36214566 -0.8381104
vn -0.4079479 0.36214566 -0.8381104
vn -0.4079479 0.36214566 -0.8381104
vn -0.36214566 0.3239771 0.87400764
vn -0.36214566 0.3239771 0.87400764
vn -0.36214566 0.3239771 0.87400764
vn -0.36214566 0.3239771 0.87400764
vn -0.58352304 0.71329606 0.3882133
vn -0.58352304 0.71329606 0.3882133
vn -0.58352304 0.71329606 0.3882133
vn -0.58352304 0.71329606 0.3882133
vn -0.41558158 0.6903949 -0.59215444
vn -0.41558158 0.6903949 -0.59215444
vn -0.41558158 0.6903949 -0.59215444
vn -0.41558158 0.6903949 -0.59215444
vn 0.042440712 0.44611633 0.8939681
vn 0.042440712 0.44611633 0.8939681
vn 0.042440712 0.44611633 0.8939681
vn 0.042440712 0.44611633 0.8939681
vn -0.08733225 -0.07297552 0.9935027
vn -0.08733225 -0.07297552 0.9935027
vn -0.08733225 -0.07297552 0.9935027
vn -0.08733225 -0.07297552 0.9935027
vn 0.042440712 0.77436566 0.63131344
vn 0.042440712 0.77436566 0.63131344
vn 0.042440712 0.77436566 0.63131344
vn 0.042440712 0.77436566 0.63131344
vn 0.5462652 -0.76000893 0.35210901
vn 0.5462652 -0.76000893 0.35210901
vn 0.5462652 -0.76000893 0.35210901
vn 0.5462652 -0.76000893 0.35210901
vn -0.43848264 -0.66840446 0.6008065
vn -0.43848264 -0.66840446 0.6008065
vn -0.43848264 -0.66840446 0.6008065
vn -0.43848264 -0.66840446 0.6008065
vn 0.23328328 -0.87451446 0.42520985
vn 0.23328328 -0.87451446 0.42520985
vn 0.23328328 -0.87451446 0.42520985
vn 0.23328328 -0.87451446 0.42520985
vn 0.9203167 0.35451198 -0.16534333
vn 0.9203167 0.35451198 -0.16534333
vn 0.9203167 0.35451198 -0.16534333
vn 0.9203167 0.35451198 -0.16534333
vn 0.9279504 0.110233426 0.35602903
vn 0.9279504 0.110233426 0.35602903
vn 0.9279504 0.110233426 0.35602903
vn 0.9279504 0.110233426 0.35602903
vn -0.16366935 0.0491637 -0.98528945
vn -0.16366935 0.0491637 -0.98528945
vn -0.16366935 0.0491637 -0.98528945
vn -0.16366935 0.0491637 -0.98528945
vn -0.13313448 -0.50046295 0.8554601
vn -0.13313448 -0.50046295 0.8554601
vn -0.13313448 -0.50046295 0.8554601
vn -0.13313448 -0.50046295 0.8554601
vn -0.36214566 0.4766512 0.80103314
vn -0.36214566 0.4766512 0.80103314
vn -0.36214566 0.4766512 0.80103314
vn -0.36214566 0.4766512 0.80103314
vn -0.27817488 -0.41649222 -0.8655362
vn -0.27817488 -0.41649222 -0.8655362
vn -0.27817488 -0.41649222 -0.8655362
vn -0.27817488 -0.41649222 -0.8655362
vn -0.972842 0.17130303 -0.15567198
vn -0.972842 0.17130303 -0.15567198
vn -0.972842 0.17130303 -0.15567198
vn -0.972842 0.17130303 -0.15567198
vn -0.972842 -0.21801591 -0.077766046
vn -0.972842 -0.21801591 -0.077766046
vn -0.972842 -0.21801591 -0.077766046
vn -0.972842 -0.21801591 -0.077766046
vn 0.8341506 0.5515368 -0
vn 0.8341506 0.5515368 -0
vn 0.8341506 0.5515368 -0
vn 0.8341506 0.5515368 -0
vn 0.21801591 -0.9737526 -0.06538276
vn 0.21801591 -0.9737526 -0.06538276
vn 0.21801591 -0.9737526 -0.06538276
vn 0.21801591 -0.9737526 -0.06538276
vn -0.50718606 -0.859247 0.066759855
vn -0.50718606 -0.859247 0.066759855
vn -0.50718606 -0.859247 0.066759855
vn -0.50718606 -0.859247 0.066759855
vn -0.6827612 -0.1874811 -0.7061784
vn -0.6827612 -0.1874811 -0.7061784
vn -0.6827612 -0.1874811 -0.7061784
vn -0.6827612 -0.1874811 -0.7061784
vn 0.32488775 -0.67603815 -0.6613776
vn 0.32488775 -0.67603815 -0.6613776
vn 0.32488775 -0.67603815 -0.6613776
vn 0.32488775 -0.67603815 -0.6613776
vn -0.8354353 -0.47756183 0.27199745
vn -0.8354353 -0.47756183 0.27199745
vn -0.8354353 -0.47756183 0.27199745
vn -0.8354353 -0.47756183 0.27199745
vn 0.26381814 -0.88214815 -0.39014694
vn 0.26381814 -0.88214815 -0.39014694
vn 0.26381814 -0.88214815 -0.39014694
vn 0.26381814 -0.88214815 -0.39014694
vn 0.8897819 0.06443119 0.45181504
vn 0.8897819 0.06443119 0.45181504
vn 0.8897819 0.06443119 0.45181504
vn 0.8897819 0.06443119 0.45181504
vn 0.14167887 0.65986013 -0.7379104
vn 0.14167887 0.65986013 -0.7379104
vn 0.14167887 0.65986013 -0.7379104
vn 0.14167887 0.65986013 -0.7379104
vn -0.38504672 0.010995209 0.9228316
vn -0.38504672 0.010995209 0.9228316
vn -0.38504672 0.010995209 0.9228316
vn -0.38504672 0.010995209 0.9228316
g Easter_island_destroyable_Tree_03_Crown_mesh_0
f 3/3/3 2/2/2 1/1/1
f 4/4/4 3/3/3 1/1/1
f 7/7/7 6/6/6 5/5/5
f 8/8/8 7/7/7 5/5/5
f 11/11/11 10/10/10 9/9/9
f 12/12/12 11/11/11 9/9/9
f 15/15/15 14/14/14 13/13/13
f 16/16/16 15/15/15 13/13/13
f 19/19/19 18/18/18 17/17/17
f 20/20/20 19/19/19 17/17/17
f 23/23/23 22/22/22 21/21/21
f 24/24/24 23/23/23 21/21/21
f 27/27/27 26/26/26 25/25/25
f 28/28/28 27/27/27 25/25/25
f 31/31/31 30/30/30 29/29/29
f 32/32/32 31/31/31 29/29/29
f 35/35/35 34/34/34 33/33/33
f 36/36/36 35/35/35 33/33/33
f 39/39/39 38/38/38 37/37/37
f 40/40/40 39/39/39 37/37/37
f 43/43/43 42/42/42 41/41/41
f 44/44/44 43/43/43 41/41/41
f 47/47/47 46/46/46 45/45/45
f 48/48/48 47/47/47 45/45/45
f 51/51/51 50/50/50 49/49/49
f 52/52/52 51/51/51 49/49/49
f 55/55/55 54/54/54 53/53/53
f 56/56/56 55/55/55 53/53/53
f 59/59/59 58/58/58 57/57/57
f 60/60/60 59/59/59 57/57/57
f 63/63/63 62/62/62 61/61/61
f 64/64/64 63/63/63 61/61/61
f 67/67/67 66/66/66 65/65/65
f 68/68/68 67/67/67 65/65/65
f 71/71/71 70/70/70 69/69/69
f 72/72/72 71/71/71 69/69/69
f 75/75/75 74/74/74 73/73/73
f 76/76/76 75/75/75 73/73/73
f 79/79/79 78/78/78 77/77/77
f 80/80/80 79/79/79 77/77/77
f 83/83/83 82/82/82 81/81/81
f 84/84/84 83/83/83 81/81/81
f 87/87/87 86/86/86 85/85/85
f 88/88/88 87/87/87 85/85/85
f 91/91/91 90/90/90 89/89/89
f 92/92/92 91/91/91 89/89/89
f 95/95/95 94/94/94 93/93/93
f 96/96/96 95/95/95 93/93/93
f 99/99/99 98/98/98 97/97/97
f 100/100/100 99/99/99 97/97/97
f 103/103/103 102/102/102 101/101/101
f 104/104/104 103/103/103 101/101/101
f 107/107/107 106/106/106 105/105/105
f 108/108/108 107/107/107 105/105/105
f 111/111/111 110/110/110 109/109/109
f 112/112/112 111/111/111 109/109/109
f 115/115/115 114/114/114 113/113/113
f 116/116/116 115/115/115 113/113/113
f 119/119/119 118/118/118 117/117/117
f 120/120/120 119/119/119 117/117/117
f 123/123/123 122/122/122 121/121/121
f 124/124/124 123/123/123 121/121/121
f 127/127/127 126/126/126 125/125/125
f 128/128/128 127/127/127 125/125/125
f 131/131/131 130/130/130 129/129/129
f 132/132/132 131/131/131 129/129/129
f 135/135/135 134/134/134 133/133/133
f 136/136/136 135/135/135 133/133/133
f 139/139/139 138/138/138 137/137/137
f 140/140/140 139/139/139 137/137/137
f 143/143/143 142/142/142 141/141/141
f 144/144/144 143/143/143 141/141/141
f 147/147/147 146/146/146 145/145/145
f 148/148/148 147/147/147 145/145/145
f 151/151/151 150/150/150 149/149/149
f 152/152/152 151/151/151 149/149/149
f 155/155/155 154/154/154 153/153/153
f 156/156/156 155/155/155 153/153/153
f 159/159/159 158/158/158 157/157/157
f 160/160/160 159/159/159 157/157/157
f 163/163/163 162/162/162 161/161/161
f 164/164/164 163/163/163 161/161/161
f 167/167/167 166/166/166 165/165/165
f 168/168/168 167/167/167 165/165/165
f 171/171/171 170/170/170 169/169/169
f 172/172/172 171/171/171 169/169/169
f 175/175/175 174/174/174 173/173/173
f 176/176/176 175/175/175 173/173/173
