g Easter_island_destroyable_SmallPillar_01_mesh
v 0.09488797 1.959875 0.30930766
v -0.1395584 1.959875 0.37217376
v -0.007615 1.959875 -0.0018633902
v -0.28837624 1.959875 0.09062266
v -0.18648359 1.959875 0.35630468
v 0.27314624 1.959875 -0.094349444
v 0.3547537 1.959875 0.19700316
v 0.32642627 1.959875 0.23764536
v -0.11575475 1.959875 -0.33016014
v -0.3324292 1.959875 -0.21329598
v -0.3607566 1.959875 -0.17265382
v 0.11865574 1.959875 -0.39302626
v 0.16561684 1.959875 -0.37715715
v -0.1395584 1.5536329 0.37217376
v -0.1395584 1.959875 0.37217376
v 0.09488797 1.959875 0.30930766
v 0.09488797 1.5536329 0.30930766
v 0.32642627 1.959875 0.23764536
v 0.32642627 1.5536329 0.23764536
v 0.3547537 1.5536329 0.19700316
v 0.3547537 1.959875 0.19700316
v 0.27314624 1.959875 -0.094349444
v 0.27314624 1.5536329 -0.094349444
v 0.16561684 1.959875 -0.37715715
v 0.16561684 1.5536329 -0.37715715
v 0.11865574 1.5536329 -0.39302626
v 0.11865574 1.959875 -0.39302626
v -0.11575475 1.959875 -0.33016014
v -0.11575475 1.5536329 -0.33016014
v -0.3324292 1.959875 -0.21329598
v -0.3324292 1.5536329 -0.21329598
v -0.3607566 1.5536329 -0.17265382
v -0.3607566 1.959875 -0.17265382
v -0.28837624 1.959875 0.09062266
v -0.28837624 1.5536329 0.09062266
v -0.18648359 1.959875 0.35630468
v -0.18648359 1.5536329 0.35630468
v -0.1395584 1.959875 0.37217376
v -0.1395584 1.5536329 0.37217376
v -0.3324292 1.5536329 -0.21329598
v -0.3324292 1.959875 -0.21329598
v -0.13715294 1.5506171 -0.22234353
v -0.30679443 1.5234026 0.16009495
v -0.24744686 1.5506171 -0.1288163
v 0.2558769 1.5506171 -0.18622515
v 0.25760025 1.5506171 0.25232968
v -0.17118892 1.4782008 0.31429818
v 0.3101622 0.59983456 -0.31518862
v 0.3511275 -0.0037662387 -0.2653194
v 0.3053512 -0.0037662387 0.36592665
v 0.2509582 0.64550316 0.39902917
v -0.1623927 0.9628495 -0.19006677
v -0.1948131 0.7070049 -0.30732587
v 0.3101622 0.59983456 -0.31518862
v 0.194052 0.9628495 -0.16421662
v -0.22339186 0.9628495 0.21990928
v -0.32539222 0.6463289 0.34779564
v -0.28489366 0.6463289 -0.25763616
v -0.19556704 0.9628495 -0.1638217
v 0.16414481 0.9628495 0.2479854
v 0.2509582 0.64550316 0.39902917
v -0.32539222 0.6463289 0.34779564
v -0.22339186 0.9628495 0.21990928
v 0.28201428 1.0432004 -0.23343755
v 0.2558769 1.5506171 -0.18622515
v 0.2677608 1.341195 -0.22090742
v 0.23056531 1.301594 0.31663188
v 0.25760025 1.5506171 0.25232968
v 0.24122849 1.0432004 0.3291979
v 0.28201428 1.0432004 -0.23343755
v 0.194052 0.9628495 -0.16421662
v 0.16414481 0.9628495 0.2479854
v 0.24122849 1.0432004 0.3291979
v -0.23983541 1.0432004 -0.27127928
v -0.13636306 1.5248387 -0.24180295
v -0.23523983 1.4034507 -0.2545126
v 0.2677608 1.341195 -0.22090742
v 0.12483105 1.5177659 -0.22320521
v 0.28201428 1.0432004 -0.23343755
v -0.23983541 1.0432004 -0.27127928
v -0.1623927 0.9628495 -0.19006677
v 0.194052 0.9628495 -0.16421662
v 0.28201428 1.0432004 -0.23343755
v 0.3511275 -0.0037662387 -0.2653194
v 0.3101622 0.59983456 -0.31518862
v -0.22285333 0.59940374 -0.35044533
v -0.23437819 -0.0037662387 -0.30775672
v -0.30679443 1.5234026 0.16009495
v -0.2726148 1.4034507 -0.23727918
v -0.27922097 1.5210689 -0.13082686
v -0.31135413 1.0432004 0.28913018
v -0.27257892 1.0432004 -0.24539325
v -0.31135413 1.0432004 0.28913018
v -0.22339186 0.9628495 0.21990928
v -0.19556704 0.9628495 -0.1638217
v -0.27257892 1.0432004 -0.24539325
v -0.27110693 -0.0037662387 -0.2786753
v -0.28489366 0.6463289 -0.25763616
v -0.32539222 0.6463289 0.34779564
v -0.31458542 -0.0037662387 0.3209761
v 0.24122849 1.0432004 0.3291979
v -0.17118892 1.4782008 0.31429818
v 0.23056531 1.301594 0.31663188
v -0.17118892 1.4782008 0.31429818
v -0.31135413 1.0432004 0.28913018
v -0.30679443 1.5234026 0.16009495
v -0.31135413 1.0432004 0.28913018
v 0.24122849 1.0432004 0.3291979
v 0.16414481 0.9628495 0.2479854
v -0.22339186 0.9628495 0.21990928
v -0.31135413 1.0432004 0.28913018
v -0.32539222 0.6463289 0.34779564
v 0.2509582 0.64550316 0.39902917
v 0.3053512 -0.0037662387 0.36592665
v -0.31458542 -0.0037662387 0.3209761
v 0.25760025 1.5506171 0.25232968
v 0.23056531 1.301594 0.31663188
v -0.17118892 1.4782008 0.31429818
v 0.194052 0.9628495 -0.16421662
v 0.3101622 0.59983456 -0.31518862
v 0.2509582 0.64550316 0.39902917
v 0.16414481 0.9628495 0.2479854
v -0.13636306 1.5248387 -0.24180295
v -0.2726148 1.4034507 -0.23727918
v -0.23523983 1.4034507 -0.2545126
v -0.24744686 1.5506171 -0.1288163
v -0.27922097 1.5210689 -0.13082686
v -0.13715294 1.5506171 -0.22234353
v -0.28489366 0.6463289 -0.25763616
v -0.22285333 0.59940374 -0.35044533
v -0.1948131 0.7070049 -0.30732587
v 0.2558769 1.5506171 -0.18622515
v -0.13636306 1.5248387 -0.24180295
v 0.12483105 1.5177659 -0.22320521
v -0.13715294 1.5506171 -0.22234353
v -0.23437819 -0.0037662387 -0.30775672
v -0.22285333 0.59940374 -0.35044533
v -0.28489366 0.6463289 -0.25763616
v -0.27110693 -0.0037662387 -0.2786753
v -0.1623927 0.9628495 -0.19006677
v -0.19556704 0.9628495 -0.1638217
v -0.1623927 0.9628495 -0.19006677
v -0.23983541 1.0432004 -0.27127928
v -0.27257892 1.0432004 -0.24539325
v -0.19556704 0.9628495 -0.1638217
v -0.23983541 1.0432004 -0.27127928
v -0.23523983 1.4034507 -0.2545126
v -0.2726148 1.4034507 -0.23727918
v -0.27257892 1.0432004 -0.24539325
v 0.3101622 0.59983456 -0.31518862
v -0.1948131 0.7070049 -0.30732587
v -0.22285333 0.59940374 -0.35044533
v 0.2558769 1.5506171 -0.18622515
v 0.12483105 1.5177659 -0.22320521
v 0.2677608 1.341195 -0.22090742
v -0.30679443 1.5234026 0.16009495
v -0.27922097 1.5210689 -0.13082686
v -0.24744686 1.5506171 -0.1288163
vt 0.5493525 0.7588862
vt 0.5493525 0.7528761
vt 0.5408837 0.7588862
vt 0.5408837 0.7517834
vt 0.54853296 0.7517834
vt 0.5408837 0.76598907
vt 0.54798657 0.76598907
vt 0.5493525 0.76598907
vt 0.53268814 0.7588862
vt 0.53268814 0.7517834
vt 0.53432727 0.7517834
vt 0.53268814 0.76434994
vt 0.53268814 0.76598907
vt 0.5832276 0.8118843
vt 0.5832276 0.80450827
vt 0.5769443 0.80450827
vt 0.5769443 0.8118843
vt 0.570661 0.80450827
vt 0.570661 0.8118843
vt 0.5695683 0.8118843
vt 0.5695683 0.80450827
vt 0.56219226 0.80450827
vt 0.56219226 0.8118843
vt 0.554543 0.80450827
vt 0.554543 0.8118843
vt 0.5534503 0.8118843
vt 0.5534503 0.80450827
vt 0.54744023 0.80450827
vt 0.54744023 0.8118843
vt 0.5417033 0.80450827
vt 0.5417033 0.8118843
vt 0.5340541 0.78429246
vt 0.5419765 0.78429246
vt 0.5419765 0.7771897
vt 0.5340541 0.7771897
vt 0.5419765 0.7700868
vt 0.5340541 0.7700868
vt 0.5419765 0.76872087
vt 0.5340541 0.76872087
vt 0.5340541 0.78538525
vt 0.542796 0.78538525
vt 0.532415 0.7922149
vt 0.54252285 0.78784394
vt 0.53487366 0.78920984
vt 0.53323454 0.802596
vt 0.5447084 0.802596
vt 0.54662067 0.7913953
vt 0.5651973 0.7517834
vt 0.55235755 0.7517834
vt 0.55235755 0.76762813
vt 0.5651973 0.76762813
vt 0.57967615 0.7826534
vt 0.579403 0.7883903
vt 0.5922427 0.79112214
vt 0.5922427 0.7826534
vt 0.5619191 0.7823802
vt 0.5619191 0.7897562
vt 0.5766711 0.7897562
vt 0.5755784 0.7826534
vt 0.54744023 0.7823802
vt 0.54853296 0.7900294
vt 0.5619191 0.7897562
vt 0.5619191 0.7823802
vt 0.5769443 0.7517834
vt 0.58459353 0.7517834
vt 0.582408 0.7509638
vt 0.58459353 0.76762813
vt 0.58459353 0.76762813
vt 0.5769443 0.76762813
vt 0.5769443 0.7517834
vt 0.57339287 0.7517834
vt 0.57339287 0.76762813
vt 0.5769443 0.76762813
vt 0.57831025 0.7796483
vt 0.5807689 0.7700868
vt 0.578037 0.77254546
vt 0.5922427 0.773365
vt 0.5884181 0.7700868
vt 0.5922427 0.77910197
vt 0.57831025 0.7796483
vt 0.57967615 0.7826534
vt 0.5922427 0.7826534
vt 0.5922427 0.77910197
vt 0.5922427 0.8031423
vt 0.5922427 0.79112214
vt 0.5788566 0.790849
vt 0.578037 0.8031423
vt 0.56547046 0.7695404
vt 0.5766711 0.77254546
vt 0.5744856 0.76926726
vt 0.56219226 0.77910197
vt 0.5766711 0.7796483
vt 0.56219226 0.77910197
vt 0.5619191 0.7823802
vt 0.5755784 0.7826534
vt 0.5766711 0.7796483
vt 0.5769443 0.8031423
vt 0.5766711 0.7897562
vt 0.5619191 0.7897562
vt 0.5624654 0.8031423
vt 0.54744023 0.77910197
vt 0.5591872 0.7695404
vt 0.547167 0.7741846
vt 0.5591872 0.7695404
vt 0.56219226 0.77910197
vt 0.56547046 0.7695404
vt 0.56219226 0.77910197
vt 0.54744023 0.77910197
vt 0.54744023 0.7823802
vt 0.5619191 0.7823802
vt 0.56219226 0.77910197
vt 0.5619191 0.7897562
vt 0.54853296 0.7900294
vt 0.54744023 0.8031423
vt 0.5624654 0.8031423
vt 0.5455279 0.76981366
vt 0.547167 0.7741846
vt 0.5591872 0.7695404
vt 0.57339287 0.7517834
vt 0.5651973 0.7517834
vt 0.5651973 0.76762813
vt 0.57339287 0.76762813
vt 0.5807689 0.7700868
vt 0.5766711 0.77254546
vt 0.578037 0.77254546
vt 0.5755784 0.76926726
vt 0.5744856 0.76926726
vt 0.58022255 0.76926726
vt 0.5766711 0.7897562
vt 0.5788566 0.790849
vt 0.579403 0.7883903
vt 0.5922427 0.76926726
vt 0.5807689 0.7700868
vt 0.5884181 0.7700868
vt 0.58022255 0.76926726
vt 0.578037 0.8031423
vt 0.5788566 0.790849
vt 0.5766711 0.7897562
vt 0.5769443 0.8031423
vt 0.57967615 0.7826534
vt 0.5755784 0.7826534
vt 0.57967615 0.7826534
vt 0.57831025 0.7796483
vt 0.5766711 0.7796483
vt 0.5755784 0.7826534
vt 0.57831025 0.7796483
vt 0.578037 0.77254546
vt 0.5766711 0.77254546
vt 0.5766711 0.7796483
vt 0.5922427 0.79112214
vt 0.579403 0.7883903
vt 0.5788566 0.790849
vt 0.5922427 0.76926726
vt 0.5884181 0.7700868
vt 0.5922427 0.773365
vt 0.54252285 0.78784394
vt 0.53487366 0.7881171
vt 0.53487366 0.78920984
vn 0.003230691 0.99999475 -0.00024414062
vn 0.003230691 0.99999475 -0.00024414062
vn 0.003230691 0.99999475 -0.00024414062
vn 0.003230691 0.99999475 -0.00024414062
vn 0.003230691 0.99999475 -0.00024414062
vn 0.003230691 0.99999475 -0.00024414062
vn 0.003230691 0.99999475 -0.00024414062
vn 0.003230691 0.99999475 -0.00024414062
vn 0.003230691 0.99999475 -0.00024414062
vn 0.003230691 0.99999475 -0.00024414062
vn 0.003230691 0.99999475 -0.00024414062
vn 0.003230691 0.99999475 -0.00024414062
vn 0.003230691 0.99999475 -0.00024414062
vn 0.16782236 -0.003230691 0.98581195
vn 0.16782236 -0.003230691 0.98581195
vn 0.2775501 -0.003230691 0.96070576
vn 0.2775501 -0.003230691 0.96070576
vn 0.3951156 -0.003230691 0.9186257
vn 0.3951156 -0.003230691 0.9186257
vn 0.99078065 -0.003230691 -0.1354373
vn 0.99078065 -0.003230691 -0.1354373
vn 0.95159215 -0.003230691 -0.30734667
vn 0.95159215 -0.003230691 -0.30734667
vn 0.88889056 -0.003230691 -0.45810822
vn 0.88889056 -0.003230691 -0.45810822
vn -0.16136098 -0.003230691 -0.9868902
vn -0.16136098 -0.003230691 -0.9868902
vn -0.3729788 -0.003230691 -0.9278342
vn -0.3729788 -0.003230691 -0.9278342
vn -0.5375705 -0.003230691 -0.8432126
vn -0.5375705 -0.003230691 -0.8432126
vn -0.992157 -0.003230691 0.12495633
vn -0.992157 -0.003230691 0.12495633
vn -0.9529685 -0.003230691 0.30305216
vn -0.9529685 -0.003230691 0.30305216
vn -0.88242924 -0.003230691 0.4704341
vn -0.88242924 -0.003230691 0.4704341
vn 0.16782236 -0.003230691 0.98581195
vn 0.16782236 -0.003230691 0.98581195
vn -0.5375705 -0.003230691 -0.8432126
vn -0.5375705 -0.003230691 -0.8432126
vn -0.028109197 0.9996049 -0
vn -0.03593478 0.9993542 -0
vn 0.097283065 0.992157 0.078489214
vn -0.028109197 0.9996049 -0
vn -0.03593478 0.9993542 -0
vn -0.10649705 0.9294554 0.35322946
vn 0.99078065 0.07514632 0.11272414
vn 0.99078065 0.07514632 0.11272414
vn 0.99078065 0.07514632 0.11272414
vn 0.99078065 0.07514632 0.11272414
vn 0.065932274 0.40432966 -0.91223377
vn 0.065932274 0.40432966 -0.91223377
vn 0.065932274 0.40432966 -0.91223377
vn 0.065932274 0.40432966 -0.91223377
vn -0.9529685 0.28676414 -0.098068245
vn -0.9529685 0.28676414 -0.098068245
vn -0.9529685 0.28676414 -0.098068245
vn -0.9529685 0.28676414 -0.098068245
vn -0.07514632 0.40432966 0.911521
vn -0.07514632 0.40432966 0.911521
vn -0.07514632 0.40432966 0.911521
vn -0.07514632 0.40432966 0.911521
vn 0.99861836 0.043795466 0.029039992
vn 0.99861836 0.020282388 0.04847668
vn 0.99861836 0.043795466 0.029039992
vn 0.99861836 0.004606962 0.052346345
vn 0.99078065 -0.10512078 -0.08545948
vn 0.99861836 0.043795466 0.029039992
vn 0.6929481 -0.7164612 0.08066179
vn 0.6929481 -0.7164612 0.08066179
vn 0.6929481 -0.7164612 0.08066179
vn 0.6929481 -0.7164612 0.08066179
vn 0.07376999 0.043795466 -0.99631315
vn 0.07376999 0.043795466 -0.99631315
vn 0.07376999 0.043795466 -0.99631315
vn 0.07376999 0.043795466 -0.99631315
vn 0.07376999 0.043795466 -0.99631315
vn 0.07376999 0.043795466 -0.99631315
vn 0.05025685 -0.68511045 -0.72670346
vn 0.05025685 -0.68511045 -0.72670346
vn 0.05025685 -0.68511045 -0.72670346
vn 0.05025685 -0.68511045 -0.72670346
vn 0.065932274 -0.07376999 -0.9950934
vn 0.065932274 -0.07376999 -0.9950934
vn 0.065932274 -0.07376999 -0.9950934
vn 0.065932274 -0.07376999 -0.9950934
vn -0.992157 0.02812016 -0.12179401
vn -0.992157 0.02812016 -0.12179401
vn -0.992157 0.02812016 -0.12179401
vn -0.99999475 -0.003230691 -0.00023033358
vn -0.99999475 -0.003230691 -0.00023033358
vn -0.6943245 -0.7164612 -0.06779992
vn -0.6943245 -0.7164612 -0.06779992
vn -0.6943245 -0.7164612 -0.06779992
vn -0.6943245 -0.7164612 -0.06779992
vn -0.99982136 -0.018902779 -0
vn -0.99982136 -0.018902779 -0
vn -0.99982136 -0.018902779 -0
vn -0.99982136 -0.018902779 -0
vn -0.05163324 -0.011068404 0.9986048
vn -0.059470892 -0.02674377 0.99787176
vn 0.018906057 0.05163324 0.9984871
vn -0.7099999 0.19271183 0.6773199
vn -0.7099999 0.19271183 0.6773199
vn -0.7099999 0.19271183 0.6773199
vn -0.07514632 -0.034581482 0.9965727
vn -0.05163324 -0.68511045 0.72660697
vn -0.05163324 -0.68511045 0.72660697
vn -0.05163324 -0.68511045 0.72660697
vn -0.05163324 -0.68511045 0.72660697
vn -0.08298397 -0.05025685 0.9952828
vn -0.08298397 -0.05025685 0.9952828
vn -0.08298397 -0.05025685 0.9952828
vn -0.08298397 -0.05025685 0.9952828
vn 0.097283065 0.23973799 0.9659512
vn 0.097283065 0.23973799 0.9659512
vn 0.097283065 0.23973799 0.9659512
vn 0.9581184 0.28637215 -0
vn 0.9581184 0.28637215 -0
vn 0.9581184 0.28637215 -0
vn 0.9581184 0.28637215 -0
vn -0.52189505 0.54540825 -0.65586233
vn -0.50621974 0.5375705 -0.6743586
vn -0.38081658 0.3964919 -0.83532804
vn -0.60027206 0.64729834 -0.4697641
vn -0.63946056 0.70216215 -0.313143
vn -0.5689213 0.48270667 -0.6658249
vn -0.62378514 0.3964919 -0.67356235
vn -0.63946056 0.42000508 -0.64396113
vn -0.6159475 0.38865423 -0.685242
vn 0.07376999 0.60027206 -0.7963865
vn 0.07376999 0.60027206 -0.7963865
vn 0.07376999 0.60027206 -0.7963865
vn 0.07376999 0.60027206 -0.7963865
vn -0.78053916 -0.011068404 -0.6250089
vn -0.78053916 -0.011068404 -0.6250089
vn -0.78053916 -0.011068404 -0.6250089
vn -0.78053916 -0.011068404 -0.6250089
vn -0.6159475 0.38081658 -0.6896285
vn -0.6159475 0.38081658 -0.6896285
vn -0.36514115 -0.8105136 -0.4579734
vn -0.36514115 -0.8105136 -0.4579734
vn -0.36514115 -0.8105136 -0.4579734
vn -0.36514115 -0.8105136 -0.4579734
vn -0.52189505 0.035957813 -0.85225147
vn -0.52189505 0.035957813 -0.85225147
vn -0.52189505 0.035957813 -0.85225147
vn -0.52189505 0.035957813 -0.85225147
vn 0.05809456 0.3573035 -0.9321798
vn 0.05809456 0.3573035 -0.9321798
vn 0.05809456 0.3573035 -0.9321798
vn 0.23052394 0.16919863 -0.9582435
vn 0.23052394 0.16919863 -0.9582435
vn 0.23052394 0.16919863 -0.9582435
vn -0.67864907 0.733513 -0.037338354
vn -0.63946056 0.70216215 -0.313143
vn -0.60027206 0.64729834 -0.4697641
g Easter_island_destroyable_SmallPillar_01_mesh_0
f 3/3/3 2/2/2 1/1/1
f 5/5/5 3/3/3 4/4/4
f 3/3/3 5/5/5 2/2/2
f 3/3/3 7/7/7 6/6/6
f 3/3/3 8/8/8 7/7/7
f 8/8/8 3/3/3 1/1/1
f 10/10/10 3/3/3 9/9/9
f 3/3/3 11/11/11 4/4/4
f 11/11/11 3/3/3 10/10/10
f 3/3/3 12/12/12 9/9/9
f 13/13/13 3/3/3 6/6/6
f 3/3/3 13/13/13 12/12/12
f 16/16/16 15/15/15 14/14/14
f 17/17/17 16/16/16 14/14/14
f 18/18/18 16/16/16 17/17/17
f 19/19/19 18/18/18 17/17/17
f 22/22/22 21/21/21 20/20/20
f 23/23/23 22/22/22 20/20/20
f 24/24/24 22/22/22 23/23/23
f 25/25/25 24/24/24 23/23/23
f 28/28/28 27/27/27 26/26/26
f 29/29/29 28/28/28 26/26/26
f 30/30/30 28/28/28 29/29/29
f 31/31/31 30/30/30 29/29/29
f 34/34/34 33/33/33 32/32/32
f 35/35/35 34/34/34 32/32/32
f 36/36/36 34/34/34 35/35/35
f 37/37/37 36/36/36 35/35/35
f 37/37/37 39/39/39 38/38/38
f 36/36/36 37/37/37 38/38/38
f 21/21/21 18/18/18 19/19/19
f 20/20/20 21/21/21 19/19/19
f 27/27/27 24/24/24 25/25/25
f 26/26/26 27/27/27 25/25/25
f 33/33/33 41/41/41 40/40/40
f 32/32/32 33/33/33 40/40/40
f 44/44/44 43/43/43 42/42/42
f 43/43/43 46/46/46 45/45/45
f 42/42/42 43/43/43 45/45/45
f 46/46/46 43/43/43 47/47/47
f 50/50/50 49/49/49 48/48/48
f 51/51/51 50/50/50 48/48/48
f 54/54/54 53/53/53 52/52/52
f 55/55/55 54/54/54 52/52/52
f 58/58/58 57/57/57 56/56/56
f 59/59/59 58/58/58 56/56/56
f 62/62/62 61/61/61 60/60/60
f 63/63/63 62/62/62 60/60/60
f 66/66/66 65/65/65 64/64/64
f 68/68/68 67/67/67 65/65/65
f 67/67/67 69/69/69 65/65/65
f 65/65/65 69/69/69 64/64/64
f 72/72/72 71/71/71 70/70/70
f 73/73/73 72/72/72 70/70/70
f 76/76/76 75/75/75 74/74/74
f 78/78/78 77/77/77 75/75/75
f 79/79/79 74/74/74 75/75/75
f 77/77/77 79/79/79 75/75/75
f 82/82/82 81/81/81 80/80/80
f 83/83/83 82/82/82 80/80/80
f 86/86/86 85/85/85 84/84/84
f 87/87/87 86/86/86 84/84/84
f 90/90/90 89/89/89 88/88/88
f 92/92/92 91/91/91 88/88/88
f 89/89/89 92/92/92 88/88/88
f 95/95/95 94/94/94 93/93/93
f 96/96/96 95/95/95 93/93/93
f 99/99/99 98/98/98 97/97/97
f 100/100/100 99/99/99 97/97/97
f 103/103/103 102/102/102 101/101/101
f 106/106/106 105/105/105 104/104/104
f 102/102/102 107/107/107 101/101/101
f 110/110/110 109/109/109 108/108/108
f 111/111/111 110/110/110 108/108/108
f 114/114/114 113/113/113 112/112/112
f 115/115/115 114/114/114 112/112/112
f 118/118/118 117/117/117 116/116/116
f 121/121/121 120/120/120 119/119/119
f 122/122/122 121/121/121 119/119/119
f 125/125/125 124/124/124 123/123/123
f 127/127/127 126/126/126 124/124/124
f 124/124/124 126/126/126 123/123/123
f 123/123/123 126/126/126 128/128/128
f 131/131/131 130/130/130 129/129/129
f 134/134/134 133/133/133 132/132/132
f 135/135/135 132/132/132 133/133/133
f 138/138/138 137/137/137 136/136/136
f 139/139/139 138/138/138 136/136/136
f 141/141/141 140/140/140 131/131/131
f 129/129/129 141/141/141 131/131/131
f 144/144/144 143/143/143 142/142/142
f 145/145/145 144/144/144 142/142/142
f 148/148/148 147/147/147 146/146/146
f 149/149/149 148/148/148 146/146/146
f 152/152/152 151/151/151 150/150/150
f 155/155/155 154/154/154 153/153/153
f 158/158/158 157/157/157 156/156/156
