g Easter_island_destroyable_Tree_02_Bark_mesh
v -1.0818899 4.5233045 -0.26635677
v -1.0313382 4.5049224 -0.31716853
v -0.963618 4.5344033 -0.31846923
v -0.9474034 4.5818334 -0.26878464
v -1.0473795 4.5236516 -0.20331895
v -0.98069984 4.5526123 -0.20453286
v -0.63724333 3.3409333 0.13007921
v -0.69195706 3.298099 0.007385254
v -0.9775782 3.8269405 -0.11348784
v -0.93431014 3.8549476 -0.020188391
v -0.8455196 3.9367146 -0.027905524
v -0.520619 3.4419498 0.13146657
v -0.7957483 3.9785953 -0.12371957
v -0.4482165 3.4904208 0.010940313
v -0.817339 3.914257 -0.20427275
v -0.47552997 3.4141164 -0.10403651
v -0.906303 3.831276 -0.19872332
v -0.592848 3.3124928 -0.104296625
v -0.12687093 3.1582365 0.14577371
v -0.22641355 3.0093563 0.1467275
v -0.05047989 3.2200603 0.06322616
v -0.073804736 3.1330042 -0.067011535
v -0.17352074 2.9839504 -0.06614447
v -0.2497384 2.922213 0.06513381
v -0.21314698 0.68259245 0.15427119
v -0.27895945 0.17603523 0.1730004
v -0.31789213 0.17907017 0.0053042173
v -0.24479598 0.6887488 0.012327671
v -0.11134994 0.67071325 0.25797576
v -0.15730602 0.17317384 0.2957812
v 0.033454955 0.6564061 0.2957812
v 0.014552295 0.17126626 0.34069663
v 0.18250865 0.64339966 0.25745553
v 0.19065934 0.1708327 0.2957812
v 0.29592472 0.6351623 0.15331739
v 0.3240186 0.17178649 0.1730004
v 0.34326816 0.6338616 0.011287153
v 0.37890574 0.17404097 0.0053042173
v 0.34049344 0.1770758 -0.16239202
v 0.31187928 0.63993126 -0.13056964
v 0.2100823 0.6517238 -0.23436093
v 0.21883994 0.17993718 -0.28517276
v 0.046634793 0.18201822 -0.33008826
v 0.06519067 0.6662043 -0.2721663
v -0.12990576 0.18262523 -0.28517276
v -0.08403647 0.6792974 -0.2338407
v -0.19753927 0.68753487 -0.12970257
v -0.26335174 0.18149799 -0.16239202
v -0.22511286 2.8875294 0.18687397
v -0.28554946 2.8895235 0.12661082
v -0.13944381 2.8866622 0.20889825
v -0.051780522 2.8870957 0.18687397
v 0.0155928135 2.8887432 0.12661082
v 0.045594275 2.8910844 0.044323504
v 0.030246735 2.893599 -0.037877142
v -0.027415156 2.89568 -0.0981403
v -0.11291075 2.896547 -0.12016451
v -0.20326203 2.8961134 -0.0981403
v -0.2734968 2.894466 -0.037877142
v -0.303585 2.892038 0.044323504
v -0.3799761 -0.05478549 0.214621
v -0.22511286 -0.05816716 0.37017792
v -0.008252323 -0.060074806 0.42714614
v 0.21277028 -0.06033492 0.37017792
v 0.37925258 -0.05868745 0.214621
v 0.44645247 -0.055565894 0.002009213
v 0.39607424 -0.051837385 -0.21051586
v 0.24138445 -0.04836899 -0.3660727
v 0.023830175 -0.04620129 -0.4230409
v -0.19814616 -0.045941114 -0.3660727
v -0.36480194 -0.04767531 -0.21051586
v -0.43122143 -0.050970256 0.002009213
v -0.24245483 3.7782965 0.05854386
v -0.055942595 4.8051972 0.06799519
v -0.042242467 4.8048506 0.12626404
v -0.226587 3.7785563 0.1257438
v -0.17724925 3.7782965 0.17516822
v -0.22017044 3.7776895 -0.00874275
v -0.16563016 3.776822 -0.058080494
v -0.093747914 3.776042 -0.07620275
v -0.023946762 3.7756085 -0.058253884
v 0.024957418 3.7755218 -0.009002864
v 0.03995818 3.7758684 0.058457136
v 0.01732701 3.7763886 0.12591714
v -0.036693037 3.7769957 0.17534155
v -0.10779488 3.7776895 0.1933772
v -0.037039876 4.805284 0.009726405
v 0.009349704 4.8051972 -0.03302139
v 0.07047993 4.8049374 -0.04871583
v 0.12970257 4.804677 -0.03319484
v 0.1712364 4.804504 0.0094662905
v 0.18424284 4.8042436 0.067735076
v 0.16551358 4.803983 0.12617725
v 0.119991064 4.803897 0.1689251
v 0.059641242 4.80407 0.18461949
v 0.00015848875 4.804417 0.1689251
v 0.87722546 3.8503518 0.22476608
v 0.7428257 3.9062796 0.24202126
v 0.75904036 3.8781857 0.17933029
v 0.8266738 3.8500051 0.17065924
v 0.8427151 3.8295417 0.28424877
v 0.7760354 3.8572888 0.29274637
v 0.43257895 2.6035554 0.20265514
v 0.7297325 3.1381197 0.2330901
v 0.7730006 3.1429753 0.13580209
v 0.48729268 2.6041625 0.07276422
v 0.31604135 2.6982424 0.23777252
v 0.64085525 3.2178059 0.2532068
v 0.24355215 2.7842581 0.14039761
v 0.59117067 3.2892547 0.17681569
v 0.27086568 2.7507882 0.0065181255
v 0.6127614 3.2556114 0.07944083
v 0.38818368 2.655061 -0.027732134
v 0.70172536 3.175578 0.05689639
v 0.021749198 2.285505 0.10736132
v -0.07779336 2.4260612 0.15635222
v -0.15409774 2.5119903 0.09921062
v -0.13077289 2.4734912 -0.052704453
v -0.031143665 2.3327615 -0.10169536
v 0.04516077 2.2306178 0.0013155937
vt 0.4352744 0.9316466
vt 0.4352744 0.9316466
vt 0.4352744 0.9316466
vt 0.4352744 0.9326237
vt 0.4352744 0.9316466
vt 0.4352744 0.9321351
vt 0.4352744 0.917967
vt 0.4352744 0.91747844
vt 0.4352744 0.92334116
vt 0.4352744 0.9238297
vt 0.4352744 0.92480683
vt 0.4352744 0.9189441
vt 0.4352744 0.92529535
vt 0.4352744 0.9194327
vt 0.4352744 0.92480683
vt 0.4352744 0.9184556
vt 0.4352744 0.9238297
vt 0.4352744 0.91747844
vt 0.4352744 0.91552424
vt 0.4352744 0.91405857
vt 0.4352744 0.9165014
vt 0.4352744 0.91552424
vt 0.4352744 0.91357005
vt 0.4352744 0.91308147
vt 0.4352744 0.8866995
vt 0.4352744 0.88034827
vt 0.4352744 0.88034827
vt 0.4352744 0.8866995
vt 0.4352744 0.8862109
vt 0.4352744 0.88034827
vt 0.4352744 0.8862109
vt 0.4352744 0.88034827
vt 0.4352744 0.8862109
vt 0.4352744 0.88034827
vt 0.43576294 0.8857224
vt 0.43576294 0.88034827
vt 0.43576294 0.8857224
vt 0.43576294 0.88034827
vt 0.43576294 0.88034827
vt 0.43576294 0.8862109
vt 0.4352744 0.8862109
vt 0.4352744 0.88034827
vt 0.4352744 0.88034827
vt 0.4352744 0.8862109
vt 0.4352744 0.88083684
vt 0.4352744 0.8862109
vt 0.4352744 0.8866995
vt 0.4352744 0.88034827
vt 0.4352744 0.9125929
vt 0.4352744 0.9125929
vt 0.4352744 0.9125929
vt 0.4352744 0.9125929
vt 0.4352744 0.9125929
vt 0.4352744 0.9125929
vt 0.4352744 0.9125929
vt 0.4352744 0.9125929
vt 0.4352744 0.9125929
vt 0.4352744 0.9125929
vt 0.4352744 0.9125929
vt 0.4352744 0.9125929
vt 0.4352744 0.8779055
vt 0.4352744 0.8779055
vt 0.4352744 0.8779055
vt 0.4352744 0.8779055
vt 0.43576294 0.8779055
vt 0.43576294 0.8779055
vt 0.43576294 0.8779055
vt 0.43576294 0.8779055
vt 0.4352744 0.8779055
vt 0.4352744 0.8779055
vt 0.4352744 0.8779055
vt 0.4352744 0.8779055
vt 0.4352744 0.9228526
vt 0.4352744 0.93506646
vt 0.4352744 0.93506646
vt 0.4352744 0.9228526
vt 0.4352744 0.9228526
vt 0.4352744 0.9228526
vt 0.4352744 0.9228526
vt 0.4352744 0.9228526
vt 0.4352744 0.9228526
vt 0.4352744 0.9228526
vt 0.4352744 0.9228526
vt 0.4352744 0.9228526
vt 0.4352744 0.9228526
vt 0.4352744 0.9228526
vt 0.4352744 0.93506646
vt 0.4352744 0.93506646
vt 0.4352744 0.93506646
vt 0.4352744 0.93506646
vt 0.4352744 0.93506646
vt 0.4352744 0.93506646
vt 0.4352744 0.93506646
vt 0.4352744 0.93506646
vt 0.4352744 0.93506646
vt 0.4352744 0.93506646
vt 0.43576294 0.9238297
vt 0.43576294 0.92431825
vt 0.43576294 0.92431825
vt 0.43576294 0.9238297
vt 0.43576294 0.92334116
vt 0.43576294 0.9238297
vt 0.43576294 0.909173
vt 0.43576294 0.91552424
vt 0.43576294 0.91552424
vt 0.43576294 0.909173
vt 0.43576294 0.9101502
vt 0.43576294 0.9165014
vt 0.43576294 0.91112727
vt 0.43576294 0.9169899
vt 0.43576294 0.9106387
vt 0.43576294 0.9169899
vt 0.43576294 0.9096616
vt 0.43576294 0.91601276
vt 0.4352744 0.9052646
vt 0.4352744 0.9072188
vt 0.4352744 0.9081959
vt 0.4352744 0.90770733
vt 0.4352744 0.90575314
vt 0.4352744 0.90477604
vn -0.9824894 -0.08864868 -0.16387798
vn -0.40391845 -0.16683394 -0.89945334
vn 0.5968529 0.075540364 -0.79878676
vn 0.9174125 0.38046294 0.11662859
vn -0.6072002 0.17718118 0.7745416
vn 0.41702682 0.40391845 0.81421036
vn -0.43519253 -0.2059266 0.87647116
vn -0.77854306 -0.6275912 -0
vn -0.9355783 -0.34666008 -0.06723144
vn -0.5837446 -0.0026448965 0.81193304
vn 0.25283778 0.39609998 0.8827105
vn 0.16683394 0.34137028 0.9250042
vn 0.89395696 0.43519253 0.10699726
vn 0.7063123 0.70102245 0.098440304
vn 0.47175652 0.075540364 -0.878487
vn 0.3544786 0.21627384 -0.90970904
vn -0.3648258 -0.30756742 -0.8788085
vn -0.29445916 -0.4092083 -0.86362165
vn 0.19028956 0.34137028 0.9204652
vn -0.32573324 -0.33102304 0.88561934
vn 0.5790694 0.81527835 -0
vn 0.29193038 0.29445916 -0.90998375
vn -0.23972946 -0.4092083 -0.88038534
vn -0.62283725 -0.77667904 -0.09403947
vn -0.8730301 0.012992203 0.4874932
vn -0.8417559 0.2553665 0.4756416
vn -0.9590339 0.26318496 -0.104821905
vn -0.99812645 0.012992203 -0.05978956
vn -0.48210377 0.028629243 0.87564623
vn -0.48210377 0.22409242 0.84697026
vn 0.026100457 0.052084744 0.9983015
vn 0.0026448965 0.19281822 0.9812309
vn 0.48739356 0.075540364 0.8699087
vn 0.47175652 0.16936272 0.8653104
vn 0.83922726 0.09899598 0.5346938
vn 0.83140874 0.16154414 0.5316606
vn 0.98777926 0.114633024 0.1056001
vn 0.9868893 0.16139859 -0
vn 0.8626828 0.17718118 -0.47369316
vn 0.88613844 0.122451484 -0.44695002
vn 0.5186677 0.106814444 -0.8482774
vn 0.48739356 0.2006368 -0.84981906
vn 0.0026448965 0.22409242 -0.9745643
vn 0.018281937 0.08335894 -0.9963519
vn -0.45864815 0.24754792 -0.85344124
vn -0.45082968 0.052084744 -0.8910891
vn -0.8261189 0.028629243 -0.5627681
vn -0.81048185 0.26318496 -0.5233095
vn -0.50555927 0.012992203 0.862694
vn -0.8808486 -0.0026448965 0.47339073
vn -0.0051736236 0.036447704 0.9993222
vn 0.463938 0.059903324 0.88383996
vn 0.82359016 0.08335894 0.56102633
vn 0.994294 0.10667456 -0
vn 0.87831986 0.106814444 -0.4659881
vn 0.48739356 0.091177404 -0.86840904
vn -0.0051736236 0.059903324 -0.9981908
vn -0.4742852 0.036447704 -0.8796165
vn -0.83393747 0.012992203 -0.551706
vn -0.99812645 -0.0026448965 -0.06112768
vn -0.7870262 0.42737406 0.44490576
vn -0.46646672 0.39609998 0.79089415
vn -0.012992203 0.34918875 0.9369623
vn 0.4483009 0.3100962 0.83837146
vn 0.8001346 0.28664058 0.52689826
vn 0.9565051 0.278822 0.08576862
vn 0.83140874 0.30227762 -0.4662486
vn 0.45611942 0.3335517 -0.82504445
vn -0.012992203 0.38046294 -0.9247049
vn -0.45082968 0.41173702 -0.7919755
vn -0.7635707 0.43519253 -0.47704005
vn -0.8964856 0.4430111 -0.007393068
vn -0.990308 0.122451484 -0.06554177
vn -0.9824894 0.17718118 -0.057631668
vn -0.85739297 0.15372568 0.49116772
vn -0.8730301 0.106814444 0.47582465
vn -0.4977408 0.067721784 0.8646779
vn -0.8261189 0.114633024 -0.55171263
vn -0.4742852 0.08335894 -0.8764159
vn -0.012992203 0.044266284 -0.9989353
vn 0.48739356 -0.0026448965 -0.8731784
vn 0.87831986 -0.049556077 -0.4754981
vn 0.9955978 -0.06519312 0.067341864
vn 0.83140874 -0.057374597 0.5526913
vn 0.463938 -0.026100457 0.8854831
vn -0.012992203 0.012992203 0.9998312
vn -0.8183004 0.15372568 -0.55385274
vn -0.45082968 0.09899598 -0.8871034
vn 0.026100457 0.020810664 -0.9994427
vn 0.5186677 -0.057374597 -0.8530487
vn 0.87831986 -0.11992282 -0.46278805
vn 0.98777926 -0.13555986 0.07691317
vn 0.83922726 -0.11992282 0.53039247
vn 0.49521208 -0.07301164 0.86569875
vn 0.026100457 0.0051736236 0.99964595
vn -0.4742852 0.08335894 0.8764159
vn 0.98777926 -0.033919036 -0.15212366
vn -0.91994125 0.3335517 0.20603728
vn -0.5993816 0.3335517 -0.7276572
vn 0.40138978 0.13808852 -0.90543795
vn 0.6046715 -0.0964672 0.7906115
vn -0.4195555 0.106814444 0.9014232
vn 0.43266386 -0.48739356 0.75845206
vn 0.58903444 -0.27629334 0.75940794
vn 0.93304956 -0.29193038 -0.21022642
vn 0.77667904 -0.57339734 -0.26073962
vn -0.16936272 0.012992203 0.98546815
vn -0.2553665 0.08335894 0.96324414
vn -0.708841 0.6384743 0.29982492
vn -0.8964856 0.38046294 0.22707145
vn -0.35700732 0.50555927 -0.78546524
vn -0.4742852 0.3648258 -0.80122143
vn 0.2997489 -0.0964672 -0.9491284
vn 0.36229712 0.0051736236 -0.9320483
vn 0.33102304 -0.61248994 0.71783
vn -0.19281822 0.012992203 0.9811485
vn -0.575926 0.77920777 0.24727409
vn -0.29445916 0.5837446 -0.7566611
vn 0.24501926 -0.08864868 -0.96545684
vn 0.6203085 -0.6984938 -0.35682458
g Easter_island_destroyable_Tree_02_Bark_mesh_0
f 3/3/3 2/2/2 1/1/1
f 4/4/4 3/3/3 1/1/1
f 4/4/4 1/1/1 5/5/5
f 6/6/6 4/4/4 5/5/5
f 9/9/9 8/8/8 7/7/7
f 10/10/10 9/9/9 7/7/7
f 12/12/12 11/11/11 10/10/10
f 7/7/7 12/12/12 10/10/10
f 14/14/14 13/13/13 11/11/11
f 12/12/12 14/14/14 11/11/11
f 16/16/16 15/15/15 13/13/13
f 14/14/14 16/16/16 13/13/13
f 18/18/18 17/17/17 15/15/15
f 16/16/16 18/18/18 15/15/15
f 8/8/8 9/9/9 17/17/17
f 18/18/18 8/8/8 17/17/17
f 5/5/5 1/1/1 9/9/9
f 10/10/10 5/5/5 9/9/9
f 10/10/10 11/11/11 6/6/6
f 5/5/5 10/10/10 6/6/6
f 11/11/11 13/13/13 4/4/4
f 6/6/6 11/11/11 4/4/4
f 13/13/13 15/15/15 3/3/3
f 4/4/4 13/13/13 3/3/3
f 15/15/15 17/17/17 2/2/2
f 3/3/3 15/15/15 2/2/2
f 17/17/17 9/9/9 1/1/1
f 2/2/2 17/17/17 1/1/1
f 20/20/20 19/19/19 12/12/12
f 7/7/7 20/20/20 12/12/12
f 19/19/19 21/21/21 14/14/14
f 12/12/12 19/19/19 14/14/14
f 21/21/21 22/22/22 16/16/16
f 14/14/14 21/21/21 16/16/16
f 22/22/22 23/23/23 18/18/18
f 16/16/16 22/22/22 18/18/18
f 23/23/23 24/24/24 8/8/8
f 18/18/18 23/23/23 8/8/8
f 7/7/7 8/8/8 24/24/24
f 20/20/20 7/7/7 24/24/24
f 27/27/27 26/26/26 25/25/25
f 28/28/28 27/27/27 25/25/25
f 26/26/26 30/30/30 29/29/29
f 25/25/25 26/26/26 29/29/29
f 30/30/30 32/32/32 31/31/31
f 29/29/29 30/30/30 31/31/31
f 32/32/32 34/34/34 33/33/33
f 31/31/31 32/32/32 33/33/33
f 35/35/35 33/33/33 34/34/34
f 36/36/36 35/35/35 34/34/34
f 36/36/36 38/38/38 37/37/37
f 35/35/35 36/36/36 37/37/37
f 37/37/37 38/38/38 39/39/39
f 40/40/40 37/37/37 39/39/39
f 42/42/42 41/41/41 40/40/40
f 39/39/39 42/42/42 40/40/40
f 41/41/41 42/42/42 43/43/43
f 44/44/44 41/41/41 43/43/43
f 44/44/44 43/43/43 45/45/45
f 46/46/46 44/44/44 45/45/45
f 47/47/47 46/46/46 45/45/45
f 48/48/48 47/47/47 45/45/45
f 28/28/28 47/47/47 48/48/48
f 27/27/27 28/28/28 48/48/48
f 25/25/25 29/29/29 49/49/49
f 50/50/50 25/25/25 49/49/49
f 29/29/29 31/31/31 51/51/51
f 49/49/49 29/29/29 51/51/51
f 52/52/52 51/51/51 31/31/31
f 33/33/33 52/52/52 31/31/31
f 53/53/53 52/52/52 33/33/33
f 35/35/35 53/53/53 33/33/33
f 35/35/35 37/37/37 54/54/54
f 53/53/53 35/35/35 54/54/54
f 55/55/55 54/54/54 37/37/37
f 40/40/40 55/55/55 37/37/37
f 55/55/55 40/40/40 41/41/41
f 56/56/56 55/55/55 41/41/41
f 56/56/56 41/41/41 44/44/44
f 57/57/57 56/56/56 44/44/44
f 44/44/44 46/46/46 58/58/58
f 57/57/57 44/44/44 58/58/58
f 47/47/47 59/59/59 58/58/58
f 46/46/46 47/47/47 58/58/58
f 60/60/60 59/59/59 47/47/47
f 28/28/28 60/60/60 47/47/47
f 50/50/50 60/60/60 28/28/28
f 25/25/25 50/50/50 28/28/28
f 30/30/30 26/26/26 61/61/61
f 62/62/62 30/30/30 61/61/61
f 63/63/63 32/32/32 30/30/30
f 62/62/62 63/63/63 30/30/30
f 32/32/32 63/63/63 64/64/64
f 34/34/34 32/32/32 64/64/64
f 36/36/36 34/34/34 64/64/64
f 65/65/65 36/36/36 64/64/64
f 66/66/66 38/38/38 36/36/36
f 65/65/65 66/66/66 36/36/36
f 38/38/38 66/66/66 67/67/67
f 39/39/39 38/38/38 67/67/67
f 68/68/68 42/42/42 39/39/39
f 67/67/67 68/68/68 39/39/39
f 69/69/69 43/43/43 42/42/42
f 68/68/68 69/69/69 42/42/42
f 69/69/69 70/70/70 45/45/45
f 43/43/43 69/69/69 45/45/45
f 71/71/71 48/48/48 45/45/45
f 70/70/70 71/71/71 45/45/45
f 71/71/71 72/72/72 27/27/27
f 48/48/48 71/71/71 27/27/27
f 61/61/61 26/26/26 27/27/27
f 72/72/72 61/61/61 27/27/27
f 75/75/75 74/74/74 73/73/73
f 76/76/76 75/75/75 73/73/73
f 49/49/49 77/77/77 76/76/76
f 50/50/50 49/49/49 76/76/76
f 73/73/73 60/60/60 50/50/50
f 76/76/76 73/73/73 50/50/50
f 78/78/78 59/59/59 60/60/60
f 73/73/73 78/78/78 60/60/60
f 78/78/78 79/79/79 58/58/58
f 59/59/59 78/78/78 58/58/58
f 80/80/80 57/57/57 58/58/58
f 79/79/79 80/80/80 58/58/58
f 57/57/57 80/80/80 81/81/81
f 56/56/56 57/57/57 81/81/81
f 81/81/81 82/82/82 55/55/55
f 56/56/56 81/81/81 55/55/55
f 82/82/82 83/83/83 54/54/54
f 55/55/55 82/82/82 54/54/54
f 84/84/84 53/53/53 54/54/54
f 83/83/83 84/84/84 54/54/54
f 53/53/53 84/84/84 85/85/85
f 52/52/52 53/53/53 85/85/85
f 86/86/86 51/51/51 52/52/52
f 85/85/85 86/86/86 52/52/52
f 86/86/86 77/77/77 49/49/49
f 51/51/51 86/86/86 49/49/49
f 87/87/87 78/78/78 73/73/73
f 74/74/74 87/87/87 73/73/73
f 88/88/88 79/79/79 78/78/78
f 87/87/87 88/88/88 78/78/78
f 79/79/79 88/88/88 89/89/89
f 80/80/80 79/79/79 89/89/89
f 80/80/80 89/89/89 90/90/90
f 81/81/81 80/80/80 90/90/90
f 90/90/90 91/91/91 82/82/82
f 81/81/81 90/90/90 82/82/82
f 82/82/82 91/91/91 92/92/92
f 83/83/83 82/82/82 92/92/92
f 92/92/92 93/93/93 84/84/84
f 83/83/83 92/92/92 84/84/84
f 85/85/85 84/84/84 93/93/93
f 94/94/94 85/85/85 93/93/93
f 95/95/95 86/86/86 85/85/85
f 94/94/94 95/95/95 85/85/85
f 77/77/77 86/86/86 95/95/95
f 96/96/96 77/77/77 95/95/95
f 75/75/75 76/76/76 77/77/77
f 96/96/96 75/75/75 77/77/77
f 99/99/99 98/98/98 97/97/97
f 100/100/100 99/99/99 97/97/97
f 98/98/98 102/102/102 101/101/101
f 97/97/97 98/98/98 101/101/101
f 105/105/105 104/104/104 103/103/103
f 106/106/106 105/105/105 103/103/103
f 107/107/107 103/103/103 104/104/104
f 108/108/108 107/107/107 104/104/104
f 109/109/109 107/107/107 108/108/108
f 110/110/110 109/109/109 108/108/108
f 111/111/111 109/109/109 110/110/110
f 112/112/112 111/111/111 110/110/110
f 113/113/113 111/111/111 112/112/112
f 114/114/114 113/113/113 112/112/112
f 106/106/106 113/113/113 114/114/114
f 105/105/105 106/106/106 114/114/114
f 101/101/101 104/104/104 105/105/105
f 97/97/97 101/101/101 105/105/105
f 104/104/104 101/101/101 102/102/102
f 108/108/108 104/104/104 102/102/102
f 108/108/108 102/102/102 98/98/98
f 110/110/110 108/108/108 98/98/98
f 110/110/110 98/98/98 99/99/99
f 112/112/112 110/110/110 99/99/99
f 112/112/112 99/99/99 100/100/100
f 114/114/114 112/112/112 100/100/100
f 114/114/114 100/100/100 97/97/97
f 105/105/105 114/114/114 97/97/97
f 115/115/115 103/103/103 107/107/107
f 116/116/116 115/115/115 107/107/107
f 116/116/116 107/107/107 109/109/109
f 117/117/117 116/116/116 109/109/109
f 117/117/117 109/109/109 111/111/111
f 118/118/118 117/117/117 111/111/111
f 118/118/118 111/111/111 113/113/113
f 119/119/119 118/118/118 113/113/113
f 119/119/119 113/113/113 106/106/106
f 120/120/120 119/119/119 106/106/106
f 103/103/103 115/115/115 120/120/120
f 106/106/106 103/103/103 120/120/120
