g Easter_island_destroyable_Tree_04_Crown_mesh
v -1.5219378 3.6485987 0.49994373
v -0.6965215 4.0577636 -0.33032775
v -0.8782706 5.22017 0.06177783
v -1.7038181 4.811005 0.8919182
v -0.99479985 4.552882 0.3137331
v 0.15999544 5.3105855 0.17542005
v 0.9301653 4.179148 0.40690398
v -0.22463012 3.421445 0.5453484
v 0.45158136 4.3552547 -0.13230658
v -0.38643265 5.278041 -0.7432984
v -1.4874251 4.660357 -0.16603196
v -0.6494112 3.7375703 0.44495988
v -0.9825959 3.601357 -0.33623302
v 0.11839652 4.2190413 -0.9134995
v 0.23020184 5.0520687 0.19116735
v -0.87065935 4.4343843 0.7684338
v 0.7846348 4.5925126 0.3475895
v 1.4146545 4.5988116 -0.34082592
v 0.80248165 5.0306787 -0.8972274
v 0.17246199 5.0243797 -0.20881188
v 0.73424375 6.3034472 -0.13926172
v 0.61443377 5.5271096 -0.76915
v -0.2541561 5.2939196 -0.3164178
v -0.13434601 6.0702567 0.3134706
v 0.2157669 5.576582 0.52028394
v -0.060727835 5.3793483 -0.42756677
v 0.33164012 6.257649 -0.72479546
v 0.6080036 6.4550138 0.22305536
v 0.030868292 5.75072 -0.1816479
v -0.088941574 4.9743824 -0.8115363
v -0.9576628 4.741061 -0.358804
v -0.8378527 5.51753 0.2710843
v -0.3635993 4.977138 0.2687223
v -0.5574212 4.204869 -0.48110735
v 0.31773007 4.5351663 -1.0477444
v 0.5116832 5.307567 -0.298046
v 0.59461844 4.4734898 -0.51470137
v 0.59461844 5.9346995 -0.51470137
v 0.59461844 5.9346995 0.9466398
v 0.59461844 4.4734898 0.9466398
v 0.3536862 5.483411 -0.46024227
v 1.3647883 5.577238 -0.6728296
v 1.5950912 5.2915573 0.29746103
v 0.5841204 5.1978617 0.509917
v 1.0541745 5.0756893 0.56096435
v 0.21616054 5.998345 -0.04989624
v -0.8848319 5.3806605 0.5273702
v -0.04681778 4.458005 1.1382308
v -0.107444525 4.471259 0.21596909
v -0.107444525 5.932469 0.21596909
v 1.3537652 5.932469 0.21596909
v 1.3537652 4.471259 0.21596909
v 0.45053148 5.914228 0.19799113
v 1.4615023 6.0079246 -0.014465094
v 1.4966712 4.8140235 -0.3742888
v 0.48570025 4.7203274 -0.16170144
v 0.45578063 4.2845235 0.24234581
v -0.38223338 5.2071786 -0.36864603
v -0.27042818 6.040337 0.7360208
v 0.5675858 5.117682 1.3470125
v -0.12450409 5.3134723 0.4149089
v -0.2443142 4.5371346 -0.21497953
v -0.7391703 5.134479 -0.85694075
v -0.6193602 5.9108167 -0.22705233
v -0.2730527 5.5478435 -0.31458056
v -0.46700597 4.7754426 -1.0642791
v 0.15960181 4.074954 -0.5048593
v 0.35355496 4.847355 0.24497032
v -2.1350293 4.300533 0.2440517
v -1.309613 4.709698 -0.5860888
v -0.40217996 4.5703354 0.24759483
v -1.2275963 4.1613016 1.0777352
v 0.29135346 4.345544 -0.083884
v 0.9213731 4.3517113 -0.7722995
v 1.236186 5.179096 -0.4766456
v 0.6061665 5.172797 0.21163869
v -0.63760066 4.124558 1.1937397
v 0.51719475 4.8822613 1.0554266
v 0.5308423 4.6129837 -0.30618203
v -0.6239531 3.8551493 -0.16786909
v 0.6233572 3.7025328 0.6979649
v 0.9267534 4.7875156 0.6247406
v 1.9778796 4.475458 0.3553319
v 1.6744834 3.3904753 0.4284253
v -0.14681268 3.5642195 -0.45105636
v -0.9848268 4.486875 -1.061917
v -0.8730216 5.3200336 0.04274988
v -0.035007477 4.3972473 0.6537416
v 0.7041929 5.781427 0.38682628
v -0.2902434 5.861344 0.25048184
v -0.16098523 5.77211 -0.7440858
v 0.83345115 5.6921926 -0.6077411
v -0.6166043 4.9490557 0.40270472
v 0.25211668 5.182377 -0.05002737
v -0.24287057 5.7795897 -0.6919887
v -1.1115918 5.5463996 -0.23925638
v 0.916124 5.83418 0.6184416
v 0.6856898 6.1197295 -0.35184896
v 0.7208586 4.9258285 -0.7116728
v 0.95129275 4.6401477 0.25861788
v 2.1098938 4.4074826 1.0535896
v 1.8794596 4.6930323 0.08329892
v 1.9144971 3.4991312 -0.27652478
v 2.1449313 3.2134504 0.6937659
v -0.2769897 4.708648 -0.2000196
v -0.7962539 3.585216 -0.25211668
v 0.27875566 3.1062384 -0.63844824
v 0.7980199 4.2296705 -0.58635116
v -0.1443193 4.9789753 0.9466398
v -0.1443193 4.9789753 -0.51470137
v 1.3168905 4.9789753 -0.51470137
v 1.3168905 4.9789753 0.9466398
v -0.3800025 4.3216605 0.35703802
v 0.7209898 4.939345 -0.22022855
v 0.832795 5.7723722 0.8844383
v -0.26806617 5.154688 1.4618359
v 0.14621663 3.8111882 1.2164419
v -0.6239531 4.9426255 0.98495793
v -0.61030555 4.673217 -0.37678206
v 0.1598643 3.54178 -0.14516687
v 0.21301115 4.5912004 -0.5896319
v 0.82518387 4.159333 -0.033230543
v 1.1399969 4.9865866 0.26242352
v 0.52782404 5.4184537 -0.29397798
v -1.911025 5.0182123 0.1815877
v -1.729276 3.8558054 -0.21038651
v -0.82184315 3.7165742 0.62316585
v -1.003592 4.8789806 1.0152712
v 0.11852789 5.4233093 -0.83778167
v -0.75662327 5.0930114 -0.2711445
v -0.13014698 4.392523 0.28840637
v 0.74513555 4.7228208 -0.2782308
vt -7.488765E-05 0.37451366
vt -7.488765E-05 0.43587968
vt 0.060865 0.43587968
vt 0.060865 0.37451366
vt -7.488765E-05 0.37451366
vt -7.488765E-05 0.43587968
vt 0.060865 0.43587968
vt 0.060865 0.37451366
vt -7.488765E-05 0.37451366
vt -7.488765E-05 0.43587968
vt 0.060865 0.43587968
vt 0.060865 0.37451366
vt 0.00035126542 0.31186914
vt 0.00035126542 0.37408748
vt 0.06299577 0.37408748
vt 0.06299577 0.31186914
vt -7.488765E-05 0.37451366
vt -7.488765E-05 0.43587968
vt 0.060865 0.43587968
vt 0.060865 0.37451366
vt -7.488765E-05 0.37451366
vt -7.488765E-05 0.43587968
vt 0.060865 0.43587968
vt 0.060865 0.37451366
vt 0.00035126542 0.31186914
vt 0.00035126542 0.37408748
vt 0.06299577 0.37408748
vt 0.06299577 0.31186914
vt -7.488765E-05 0.37451366
vt -7.488765E-05 0.43587968
vt 0.060865 0.43587968
vt 0.060865 0.37451366
vt -7.488765E-05 0.37451366
vt -7.488765E-05 0.43587968
vt 0.060865 0.43587968
vt 0.060865 0.37451366
vt 0.06342192 0.311443
vt 0.06342192 0.3732352
vt 0.12521411 0.3732352
vt 0.12521411 0.311443
vt 0.06342192 0.311443
vt 0.06342192 0.3732352
vt 0.12521411 0.3732352
vt 0.12521411 0.311443
vt -7.488765E-05 0.37451366
vt -7.488765E-05 0.43587968
vt 0.060865 0.43587968
vt 0.060865 0.37451366
vt 0.12564026 0.3122953
vt 0.12564026 0.3732352
vt 0.1870063 0.3732352
vt 0.1870063 0.3122953
vt 0.12564026 0.3122953
vt 0.12564026 0.3732352
vt 0.1870063 0.3732352
vt 0.1870063 0.3122953
vt 0.18743245 0.31059068
vt 0.18743245 0.37366134
vt 0.25178155 0.37366134
vt 0.25178155 0.31059068
vt 0.18743245 0.31059068
vt 0.18743245 0.37366134
vt 0.25178155 0.37366134
vt 0.25178155 0.31059068
vt 0.18743245 0.31059068
vt 0.18743245 0.37366134
vt 0.25178155 0.37366134
vt 0.25178155 0.31059068
vt 0.18743245 0.31059068
vt 0.18743245 0.37366134
vt 0.25178155 0.37366134
vt 0.25178155 0.31059068
vt 0.18743245 0.31059068
vt 0.18743245 0.37366134
vt 0.25178155 0.37366134
vt 0.25178155 0.31059068
vt 0.18743245 0.31059068
vt 0.18743245 0.37366134
vt 0.25178155 0.37366134
vt 0.25178155 0.31059068
vt 0.18743245 0.31059068
vt 0.18743245 0.37366134
vt 0.25178155 0.37366134
vt 0.25178155 0.31059068
vt 0.18743245 0.31059068
vt 0.18743245 0.37366134
vt 0.25178155 0.37366134
vt 0.25178155 0.31059068
vt 0.18743245 0.31059068
vt 0.18743245 0.37366134
vt 0.25178155 0.37366134
vt 0.25178155 0.31059068
vt 0.00035126542 0.31186914
vt 0.00035126542 0.37408748
vt 0.06299577 0.37408748
vt 0.06299577 0.31186914
vt 0.00035126542 0.31186914
vt 0.00035126542 0.37408748
vt 0.06299577 0.37408748
vt 0.06299577 0.31186914
vt 0.00035126542 0.31186914
vt 0.00035126542 0.37408748
vt 0.06299577 0.37408748
vt 0.06299577 0.31186914
vt 0.00035126542 0.31186914
vt 0.00035126542 0.37408748
vt 0.06299577 0.37408748
vt 0.06299577 0.31186914
vt 0.00035126542 0.31186914
vt 0.00035126542 0.37408748
vt 0.06299577 0.37408748
vt 0.06299577 0.31186914
vt 0.00035126542 0.31186914
vt 0.00035126542 0.37408748
vt 0.06299577 0.37408748
vt 0.06299577 0.31186914
vt 0.00035126542 0.31186914
vt 0.00035126542 0.37408748
vt 0.06299577 0.37408748
vt 0.06299577 0.31186914
vt 0.00035126542 0.31186914
vt 0.00035126542 0.37408748
vt 0.06299577 0.37408748
vt 0.06299577 0.31186914
vt 0.00035126542 0.31186914
vt 0.00035126542 0.37408748
vt 0.06299577 0.37408748
vt 0.06299577 0.31186914
vt 0.00035126542 0.31186914
vt 0.00035126542 0.37408748
vt 0.06299577 0.37408748
vt 0.06299577 0.31186914
vn -0.7289738 0.109487 -0.6757291
vn -0.7289738 0.109487 -0.6757291
vn -0.7289738 0.109487 -0.6757291
vn -0.7289738 0.109487 -0.6757291
vn -0.008820415 0.19466645 0.98082983
vn -0.008820415 0.19466645 0.98082983
vn -0.008820415 0.19466645 0.98082983
vn -0.008820415 0.19466645 0.98082983
vn -0.07851273 -0.60292274 -0.7939269
vn -0.07851273 -0.60292274 -0.7939269
vn -0.07851273 -0.60292274 -0.7939269
vn -0.07851273 -0.60292274 -0.7939269
vn -0.6050765 0.66702515 -0.43469515
vn -0.6050765 0.66702515 -0.43469515
vn -0.6050765 0.66702515 -0.43469515
vn -0.6050765 0.66702515 -0.43469515
vn -0.33405095 -0.88943535 -0.31195307
vn -0.33405095 -0.88943535 -0.31195307
vn -0.33405095 -0.88943535 -0.31195307
vn -0.33405095 -0.88943535 -0.31195307
vn 0.49451256 -0.5951792 0.63341856
vn 0.49451256 -0.5951792 0.63341856
vn 0.49451256 -0.5951792 0.63341856
vn 0.49451256 -0.5951792 0.63341856
vn -0.8761019 0.4502048 0.17251395
vn -0.8761019 0.4502048 0.17251395
vn -0.8761019 0.4502048 0.17251395
vn -0.8761019 0.4502048 0.17251395
vn 0.49451256 -0.5951792 0.63341856
vn 0.49451256 -0.5951792 0.63341856
vn 0.49451256 -0.5951792 0.63341856
vn 0.49451256 -0.5951792 0.63341856
vn -0.5741021 0.64379436 -0.5059008
vn -0.5741021 0.64379436 -0.5059008
vn -0.5741021 0.64379436 -0.5059008
vn -0.5741021 0.64379436 -0.5059008
vn -0.9999992 0.0010768771 -0.00062454503
vn -0.9999992 0.0010768771 -0.00062454503
vn -0.9999992 0.0010768771 -0.00062454503
vn -0.9999992 0.0010768771 -0.00062454503
vn -0.024307609 0.95353776 0.30029127
vn -0.024307609 0.95353776 0.30029127
vn -0.024307609 0.95353776 0.30029127
vn -0.024307609 0.95353776 0.30029127
vn -0.07851273 -0.60292274 -0.7939269
vn -0.07851273 -0.60292274 -0.7939269
vn -0.07851273 -0.60292274 -0.7939269
vn -0.07851273 -0.60292274 -0.7939269
vn -0.0010768771 0.0010768771 0.99999887
vn -0.0010768771 0.0010768771 0.99999887
vn -0.0010768771 0.0010768771 0.99999887
vn -0.0010768771 0.0010768771 0.99999887
vn 0.22348708 -0.2776922 0.9343129
vn 0.22348708 -0.2776922 0.9343129
vn 0.22348708 -0.2776922 0.9343129
vn 0.22348708 -0.2776922 0.9343129
vn -0.79092246 -0.44805104 0.41676366
vn -0.79092246 -0.44805104 0.41676366
vn -0.79092246 -0.44805104 0.41676366
vn -0.79092246 -0.44805104 0.41676366
vn -0.8606147 -0.23123068 0.45373416
vn -0.8606147 -0.23123068 0.45373416
vn -0.8606147 -0.23123068 0.45373416
vn -0.8606147 -0.23123068 0.45373416
vn 0.79651237 0.30307668 -0.5231755
vn 0.79651237 0.30307668 -0.5231755
vn 0.79651237 0.30307668 -0.5231755
vn 0.79651237 0.30307668 -0.5231755
vn -0.14820498 0.93805057 0.31320348
vn -0.14820498 0.93805057 0.31320348
vn -0.14820498 0.93805057 0.31320348
vn -0.14820498 0.93805057 0.31320348
vn -0.65928155 0.46569186 -0.590321
vn -0.65928155 0.46569186 -0.590321
vn -0.65928155 0.46569186 -0.590321
vn -0.65928155 0.46569186 -0.590321
vn 0.5564612 -0.81199956 0.17608972
vn 0.5564612 -0.81199956 0.17608972
vn 0.5564612 -0.81199956 0.17608972
vn 0.5564612 -0.81199956 0.17608972
vn 0.24671787 -0.00666672 0.9690644
vn 0.24671787 -0.00666672 0.9690644
vn 0.24671787 -0.00666672 0.9690644
vn 0.24671787 -0.00666672 0.9690644
vn -0.79092246 -0.44805104 0.41676366
vn -0.79092246 -0.44805104 0.41676366
vn -0.79092246 -0.44805104 0.41676366
vn -0.79092246 -0.44805104 0.41676366
vn 0.09184617 0.9922556 -0.08362449
vn 0.09184617 0.9922556 -0.08362449
vn 0.09184617 0.9922556 -0.08362449
vn 0.09184617 0.9922556 -0.08362449
vn -0.117230594 -0.7732816 -0.6231313
vn -0.117230594 -0.7732816 -0.6231313
vn -0.117230594 -0.7732816 -0.6231313
vn -0.117230594 -0.7732816 -0.6231313
vn 0.9746148 0.09399992 -0.20319948
vn 0.9746148 0.09399992 -0.20319948
vn 0.9746148 0.09399992 -0.20319948
vn 0.9746148 0.09399992 -0.20319948
vn 0.9746148 0.09399992 -0.20319948
vn 0.9746148 0.09399992 -0.20319948
vn 0.9746148 0.09399992 -0.20319948
vn 0.9746148 0.09399992 -0.20319948
vn -0.2643587 0.16369218 -0.95043117
vn -0.2643587 0.16369218 -0.95043117
vn -0.2643587 0.16369218 -0.95043117
vn -0.2643587 0.16369218 -0.95043117
vn -0.0010768771 0.9999992 -0.00064593536
vn -0.0010768771 0.9999992 -0.00064593536
vn -0.0010768771 0.9999992 -0.00064593536
vn -0.0010768771 0.9999992 -0.00064593536
vn -0.6050765 0.66702515 -0.43469515
vn -0.6050765 0.66702515 -0.43469515
vn -0.6050765 0.66702515 -0.43469515
vn -0.6050765 0.66702515 -0.43469515
vn 0.8352303 0.5431277 -0.08603853
vn 0.8352303 0.5431277 -0.08603853
vn 0.8352303 0.5431277 -0.08603853
vn 0.8352303 0.5431277 -0.08603853
vn 0.672615 0.008820415 -0.73994005
vn 0.672615 0.008820415 -0.73994005
vn 0.672615 0.008820415 -0.73994005
vn 0.672615 0.008820415 -0.73994005
vn 0.66487145 0.32630736 -0.6719148
vn 0.66487145 0.32630736 -0.6719148
vn 0.66487145 0.32630736 -0.6719148
vn 0.66487145 0.32630736 -0.6719148
vn -0.17917925 -0.7035893 -0.68764585
vn -0.17917925 -0.7035893 -0.68764585
vn -0.17917925 -0.7035893 -0.68764585
vn -0.17917925 -0.7035893 -0.68764585
g Easter_island_destroyable_Tree_04_Crown_mesh_0
f 3/3/3 2/2/2 1/1/1
f 4/4/4 3/3/3 1/1/1
f 7/7/7 6/6/6 5/5/5
f 8/8/8 7/7/7 5/5/5
f 11/11/11 10/10/10 9/9/9
f 12/12/12 11/11/11 9/9/9
f 15/15/15 14/14/14 13/13/13
f 16/16/16 15/15/15 13/13/13
f 19/19/19 18/18/18 17/17/17
f 20/20/20 19/19/19 17/17/17
f 23/23/23 22/22/22 21/21/21
f 24/24/24 23/23/23 21/21/21
f 27/27/27 26/26/26 25/25/25
f 28/28/28 27/27/27 25/25/25
f 31/31/31 30/30/30 29/29/29
f 32/32/32 31/31/31 29/29/29
f 35/35/35 34/34/34 33/33/33
f 36/36/36 35/35/35 33/33/33
f 39/39/39 38/38/38 37/37/37
f 40/40/40 39/39/39 37/37/37
f 43/43/43 42/42/42 41/41/41
f 44/44/44 43/43/43 41/41/41
f 47/47/47 46/46/46 45/45/45
f 48/48/48 47/47/47 45/45/45
f 51/51/51 50/50/50 49/49/49
f 52/52/52 51/51/51 49/49/49
f 55/55/55 54/54/54 53/53/53
f 56/56/56 55/55/55 53/53/53
f 59/59/59 58/58/58 57/57/57
f 60/60/60 59/59/59 57/57/57
f 63/63/63 62/62/62 61/61/61
f 64/64/64 63/63/63 61/61/61
f 67/67/67 66/66/66 65/65/65
f 68/68/68 67/67/67 65/65/65
f 71/71/71 70/70/70 69/69/69
f 72/72/72 71/71/71 69/69/69
f 75/75/75 74/74/74 73/73/73
f 76/76/76 75/75/75 73/73/73
f 79/79/79 78/78/78 77/77/77
f 80/80/80 79/79/79 77/77/77
f 83/83/83 82/82/82 81/81/81
f 84/84/84 83/83/83 81/81/81
f 87/87/87 86/86/86 85/85/85
f 88/88/88 87/87/87 85/85/85
f 91/91/91 90/90/90 89/89/89
f 92/92/92 91/91/91 89/89/89
f 95/95/95 94/94/94 93/93/93
f 96/96/96 95/95/95 93/93/93
f 99/99/99 98/98/98 97/97/97
f 100/100/100 99/99/99 97/97/97
f 103/103/103 102/102/102 101/101/101
f 104/104/104 103/103/103 101/101/101
f 107/107/107 106/106/106 105/105/105
f 108/108/108 107/107/107 105/105/105
f 111/111/111 110/110/110 109/109/109
f 112/112/112 111/111/111 109/109/109
f 115/115/115 114/114/114 113/113/113
f 116/116/116 115/115/115 113/113/113
f 119/119/119 118/118/118 117/117/117
f 120/120/120 119/119/119 117/117/117
f 123/123/123 122/122/122 121/121/121
f 124/124/124 123/123/123 121/121/121
f 127/127/127 126/126/126 125/125/125
f 128/128/128 127/127/127 125/125/125
f 131/131/131 130/130/130 129/129/129
f 132/132/132 131/131/131 129/129/129
