g Easter_island_destroyable_Tree_01_Bark_mesh
v -0.1628333 0.5631299 0.1356737
v -0.19510308 0.15649292 0.1550734
v -0.24629939 0.15649292 0.03621468
v -0.20787847 0.56549567 0.030725956
v -0.07160732 0.5568841 0.20390391
v -0.091480196 0.15649292 0.23238838
v 0.04138419 0.5484618 0.21724713
v 0.037031084 0.15649292 0.24752963
v 0.14585876 0.54013413 0.17210731
v 0.15588984 0.15649292 0.19642794
v 0.21380508 0.53407764 0.08059743
v 0.23329943 0.15649292 0.092710435
v 0.22705367 0.5319957 -0.032867253
v 0.24844068 0.15649292 -0.035800874
v 0.18191385 0.53436154 -0.13772035
v 0.19724435 0.15649292 -0.15465961
v 0.09068787 0.5406073 -0.20604521
v 0.093526855 0.15649292 -0.23206921
v -0.02230364 0.5490296 -0.21938843
v -0.03498444 0.15649292 -0.24711582
v -0.15374854 0.15649292 -0.19601414
v -0.12677822 0.55735725 -0.17424859
v -0.23115814 0.15649292 -0.092296615
v -0.19472453 0.5634138 -0.082644075
v -0.07274291 2.5551496 0.01937005
v -0.004039526 2.5548656 0.07075563
v 0.08122459 2.5544872 0.080408156
v 0.16005369 2.5542033 0.045867205
v 0.21143927 2.5539193 -0.023593247
v 0.2216596 2.55373 -0.10951978
v 0.18787572 2.5538247 -0.18882203
v 0.1190777 2.554014 -0.24020763
v 0.03390822 2.554298 -0.2499548
v -0.045015514 2.5546763 -0.21541384
v -0.096401095 2.555055 -0.14585876
v -0.10652682 2.5551496 -0.059932217
v -0.23891807 -0.039018393 0.18961439
v -0.11211014 -0.039018393 0.28424716
v 0.04507488 -0.039018393 0.30270052
v 0.19043079 -0.039018393 0.24014825
v 0.28506356 -0.039018393 0.11334038
v 0.30361158 -0.039018393 -0.04384464
v 0.24105932 -0.039018393 -0.18920057
v 0.11415678 -0.039018393 -0.28383332
v -0.042933583 -0.039018393 -0.30238134
v -0.18838415 -0.039018393 -0.2398291
v -0.28301692 -0.039018393 -0.11292656
v -0.30147028 -0.039018393 0.044258446
v -0.055425107 3.1462257 -0.010723174
v -0.08750561 3.145942 -0.08586159
v -0.072553635 3.7221606 -0.081792384
v -0.041703373 3.7225392 -0.009587586
v -0.03422737 4.3099246 0.0022414923
v -0.06299573 4.308978 -0.06598872
v 0.009587586 3.1463203 0.03829658
v -0.07804236 3.1455634 -0.16715114
v -0.029590368 3.14509 -0.23273164
v 0.044885606 3.1447117 -0.26509604
v 0.12541808 3.144617 -0.25553814
v 0.19043079 3.1447117 -0.20651837
v 0.22251129 3.1449955 -0.13137995
v 0.21304803 3.145374 -0.050090402
v 0.16459605 3.1458473 0.015490085
v 0.09012006 3.1462257 0.047854483
v -0.10113275 5.897389 0.011231631
v -0.08021891 5.8977675 0.060251385
v -0.094792336 5.897011 -0.041668087
v -0.054478794 4.3081264 -0.139613
v -0.063090384 5.8968215 -0.084252834
v -0.010947734 4.307464 -0.19856921
v -0.014354497 5.8968215 -0.10516667
v 0.056052268 4.3070855 -0.22714831
v 0.12854096 4.3071804 -0.21759039
v 0.038261324 5.897011 -0.09882629
v 0.08075142 5.8972945 -0.06684041
v 0.18702401 4.3078427 -0.1728291
v 0.21579237 4.308789 -0.10469352
v 0.101570636 5.8975782 -0.017915279
v 0.20727542 4.3097353 -0.031353116
v 0.095324874 5.897957 0.03498444
v 0.06362289 5.898146 0.07756919
v 0.16364972 4.3104925 0.027508467
v 0.014887035 5.898146 0.098483026
v 0.096649736 4.310776 0.056087554
v 0.024255663 4.310587 0.04690817
v -0.037728786 5.8980517 0.09214264
v -0.063563526 3.7217824 -0.15967515
v -0.017288119 3.7214038 -0.22232203
v 0.05397035 3.7212145 -0.2530777
v 0.13109605 3.7212145 -0.24370904
v 0.19345903 3.7214038 -0.19658193
v 0.22421469 3.7217824 -0.12437713
v 0.21522458 3.7221606 -0.046494365
v 0.16894916 3.7225392 0.016247153
v 0.09769069 3.7228234 0.047002792
v 0.020565003 3.7228234 0.037539512
vt 0.4351603 0.8827265
vt 0.4351603 0.8788304
vt 0.4351603 0.8788304
vt 0.4351603 0.8827265
vt 0.4351603 0.8827265
vt 0.4351603 0.8788304
vt 0.4351603 0.8827265
vt 0.4351603 0.8788304
vt 0.4351603 0.8827265
vt 0.4351603 0.8788304
vt 0.4356473 0.88223946
vt 0.4356473 0.8788304
vt 0.4356473 0.88223946
vt 0.4356473 0.8788304
vt 0.4356473 0.88223946
vt 0.4356473 0.8788304
vt 0.4351603 0.8827265
vt 0.4351603 0.8788304
vt 0.4351603 0.8827265
vt 0.4351603 0.8788304
vt 0.4351603 0.8788304
vt 0.4351603 0.8827265
vt 0.4351603 0.8788304
vt 0.4351603 0.8827265
vt 0.4351603 0.90172005
vt 0.4351603 0.90172005
vt 0.4351603 0.90172005
vt 0.4356473 0.90172005
vt 0.4356473 0.90172005
vt 0.4356473 0.90172005
vt 0.4356473 0.90172005
vt 0.4351603 0.90172005
vt 0.4351603 0.90172005
vt 0.4351603 0.90172005
vt 0.4351603 0.90172005
vt 0.4351603 0.90172005
vt 0.4351603 0.8768823
vt 0.4351603 0.8768823
vt 0.4351603 0.8768823
vt 0.4356473 0.8768823
vt 0.4356473 0.8768823
vt 0.4356473 0.8768823
vt 0.4356473 0.8768823
vt 0.4351603 0.8768823
vt 0.4351603 0.8768823
vt 0.4351603 0.8768823
vt 0.4351603 0.8768823
vt 0.4351603 0.8768823
vt 0.4351603 0.9070772
vt 0.4351603 0.9070772
vt 0.4351603 0.91292137
vt 0.4351603 0.91292137
vt 0.4351603 0.9182786
vt 0.4351603 0.9182786
vt 0.4351603 0.9070772
vt 0.4351603 0.9070772
vt 0.4351603 0.9070772
vt 0.4351603 0.9070772
vt 0.4351603 0.9070772
vt 0.4356473 0.9070772
vt 0.4356473 0.9070772
vt 0.4356473 0.9070772
vt 0.4356473 0.9070772
vt 0.4351603 0.9070772
vt 0.4351603 0.93337595
vt 0.4351603 0.93337595
vt 0.4351603 0.93337595
vt 0.4351603 0.9182786
vt 0.4351603 0.93337595
vt 0.4351603 0.9182786
vt 0.4351603 0.93337595
vt 0.4351603 0.9182786
vt 0.4351603 0.9182786
vt 0.4351603 0.93337595
vt 0.4351603 0.93337595
vt 0.4356473 0.9182786
vt 0.4356473 0.9182786
vt 0.4351603 0.93337595
vt 0.4356473 0.9182786
vt 0.4351603 0.93337595
vt 0.4351603 0.93337595
vt 0.4356473 0.9182786
vt 0.4351603 0.93337595
vt 0.4351603 0.9182786
vt 0.4351603 0.9182786
vt 0.4351603 0.93337595
vt 0.4351603 0.91292137
vt 0.4351603 0.91292137
vt 0.4351603 0.91292137
vt 0.4351603 0.91292137
vt 0.4356473 0.91292137
vt 0.4356473 0.91292137
vt 0.4356473 0.91292137
vt 0.4356473 0.91292137
vt 0.4351603 0.91292137
vt 0.4351603 0.91292137
vn -0.7805672 0.073750675 0.6207058
vn -0.7727999 0.15919 0.6143605
vn -0.9747476 0.1669572 0.14829831
vn -0.990282 0.065983355 0.12242461
vn -0.36113757 0.073750675 0.9295916
vn -0.36890477 0.15919 0.91573346
vn 0.15149862 0.065983355 0.98625267
vn 0.14373142 0.1514228 0.9779634
vn 0.62529874 0.050448954 0.7787531
vn 0.6097643 0.1514228 0.7779837
vn 0.9282201 0.027147353 0.37103975
vn 0.9204529 0.1436556 0.36349627
vn 0.9903578 0.011612952 -0.13804537
vn 0.9825906 0.1436556 -0.117808096
vn 0.78841025 -0.003921509 -0.6151373
vn 0.7728758 0.1436556 -0.6180826
vn 0.37674785 -0.003921509 -0.92630756
vn 0.3612134 0.1514228 -0.92010653
vn -0.1436556 0.0038456917 -0.98962027
vn -0.1436556 0.1514228 -0.9779746
vn -0.61745566 0.15919 -0.77032924
vn -0.61745566 0.027147353 -0.78613716
vn -0.9203771 0.15919 -0.35716188
vn -0.9281443 0.042681754 -0.36976543
vn -0.7883344 0.065983355 0.6116985
vn -0.36890477 0.073750675 0.9265366
vn 0.15149862 0.058216155 0.9867416
vn 0.62529874 0.042681754 0.7792174
vn 0.9282201 0.019380152 0.37152642
vn 0.9903578 -0.003921509 -0.13847746
vn 0.78841025 -0.01945597 -0.614842
vn 0.36898065 -0.01945597 -0.92923343
vn -0.1436556 -0.011688709 -0.9895587
vn -0.61745566 0.0038456917 -0.7865963
vn -0.9281443 0.027147353 -0.37122932
vn -0.990282 0.050448954 0.12960128
vn -0.7572655 0.27569824 0.5920637
vn -0.35337037 0.27569824 0.8939351
vn 0.13596416 0.27569824 0.95157987
vn 0.5942298 0.27569824 0.75556695
vn 0.89715123 0.27569824 0.3451234
vn 0.95152175 0.27569824 -0.13637017
vn 0.7573414 0.27569824 -0.5919667
vn 0.3534462 0.27569824 -0.8939051
vn -0.1358884 0.27569824 -0.9515907
vn -0.59415406 0.27569824 -0.7556265
vn -0.89707536 0.27569824 -0.34532058
vn -0.9514459 0.27569824 0.13689865
vn -0.7883344 0.034914553 0.6142555
vn -0.990282 0.034914553 0.13462006
vn -0.990282 0.019380152 0.13771708
vn -0.7883344 0.011612952 0.61513734
vn -0.7883344 -0.03499037 0.61425114
vn -0.990282 -0.01945597 0.1377064
vn -0.37667197 0.034914553 0.9256885
vn -0.9281443 0.019380152 -0.37171575
vn -0.61745566 0.011612952 -0.78651994
vn -0.1436556 -0.003921509 -0.98962
vn 0.36898065 -0.003921509 -0.9294288
vn 0.78841025 -0.011688709 -0.61503875
vn 0.9903578 -0.003921509 -0.13847746
vn 0.9282201 0.0038456917 0.37201166
vn 0.62529874 0.019380152 0.7801448
vn 0.14373142 0.027147353 0.98924434
vn -0.990282 -0.02722317 0.1363836
vn -0.7883344 -0.04275757 0.6137594
vn -0.9359115 -0.003921509 -0.35221344
vn -0.9281443 0.011612952 -0.37203944
vn -0.62522286 0.034914553 -0.77966493
vn -0.61745566 0.034914553 -0.78583044
vn -0.1436556 0.065983355 -0.98742557
vn -0.12812108 0.065983355 -0.9895611
vn 0.38451505 0.073750675 -0.9201679
vn 0.37674785 0.089285076 -0.92200285
vn 0.78841025 0.097052276 -0.6074456
vn 0.78841025 0.073750675 -0.61071277
vn 0.9903578 0.058216155 -0.12570706
vn 0.9903578 0.081517875 -0.11200991
vn 0.9282201 0.034914553 0.37038958
vn 0.9282201 0.050448954 0.36859512
vn 0.6097643 0.011612952 0.79249775
vn 0.62529874 0.0038456917 0.780376
vn 0.12819695 -0.01945597 0.9915579
vn 0.14373142 -0.01945597 0.9894254
vn -0.37667197 -0.03499037 0.92568564
vn -0.37667197 -0.04275757 0.9253594
vn -0.9281443 0.027147353 -0.37122932
vn -0.61745566 0.034914553 -0.78583044
vn -0.1436556 0.034914553 -0.98901165
vn 0.37674785 0.027147353 -0.925918
vn 0.78841025 0.019380152 -0.61484444
vn 0.9903578 0.011612952 -0.13804537
vn 0.9282201 -0.003921509 0.3720109
vn 0.62529874 -0.003921509 0.78037566
vn 0.14373142 -0.003921509 0.98960894
vn -0.37667197 -0.003921509 0.92633843
g Easter_island_destroyable_Tree_01_Bark_mesh_0
f 3/3/3 2/2/2 1/1/1
f 4/4/4 3/3/3 1/1/1
f 2/2/2 6/6/6 5/5/5
f 1/1/1 2/2/2 5/5/5
f 6/6/6 8/8/8 7/7/7
f 5/5/5 6/6/6 7/7/7
f 8/8/8 10/10/10 9/9/9
f 7/7/7 8/8/8 9/9/9
f 10/10/10 12/12/12 11/11/11
f 9/9/9 10/10/10 11/11/11
f 12/12/12 14/14/14 13/13/13
f 11/11/11 12/12/12 13/13/13
f 14/14/14 16/16/16 15/15/15
f 13/13/13 14/14/14 15/15/15
f 18/18/18 17/17/17 15/15/15
f 16/16/16 18/18/18 15/15/15
f 18/18/18 20/20/20 19/19/19
f 17/17/17 18/18/18 19/19/19
f 19/19/19 20/20/20 21/21/21
f 22/22/22 19/19/19 21/21/21
f 22/22/22 21/21/21 23/23/23
f 24/24/24 22/22/22 23/23/23
f 4/4/4 24/24/24 23/23/23
f 3/3/3 4/4/4 23/23/23
f 5/5/5 26/26/26 25/25/25
f 1/1/1 5/5/5 25/25/25
f 26/26/26 5/5/5 7/7/7
f 27/27/27 26/26/26 7/7/7
f 7/7/7 9/9/9 28/28/28
f 27/27/27 7/7/7 28/28/28
f 29/29/29 28/28/28 9/9/9
f 11/11/11 29/29/29 9/9/9
f 11/11/11 13/13/13 30/30/30
f 29/29/29 11/11/11 30/30/30
f 30/30/30 13/13/13 15/15/15
f 31/31/31 30/30/30 15/15/15
f 17/17/17 32/32/32 31/31/31
f 15/15/15 17/17/17 31/31/31
f 17/17/17 19/19/19 33/33/33
f 32/32/32 17/17/17 33/33/33
f 34/34/34 33/33/33 19/19/19
f 22/22/22 34/34/34 19/19/19
f 22/22/22 24/24/24 35/35/35
f 34/34/34 22/22/22 35/35/35
f 4/4/4 36/36/36 35/35/35
f 24/24/24 4/4/4 35/35/35
f 4/4/4 1/1/1 25/25/25
f 36/36/36 4/4/4 25/25/25
f 6/6/6 2/2/2 37/37/37
f 38/38/38 6/6/6 37/37/37
f 39/39/39 8/8/8 6/6/6
f 38/38/38 39/39/39 6/6/6
f 8/8/8 39/39/39 40/40/40
f 10/10/10 8/8/8 40/40/40
f 40/40/40 41/41/41 12/12/12
f 10/10/10 40/40/40 12/12/12
f 14/14/14 12/12/12 41/41/41
f 42/42/42 14/14/14 41/41/41
f 16/16/16 14/14/14 42/42/42
f 43/43/43 16/16/16 42/42/42
f 43/43/43 44/44/44 18/18/18
f 16/16/16 43/43/43 18/18/18
f 20/20/20 18/18/18 44/44/44
f 45/45/45 20/20/20 44/44/44
f 46/46/46 21/21/21 20/20/20
f 45/45/45 46/46/46 20/20/20
f 46/46/46 47/47/47 23/23/23
f 21/21/21 46/46/46 23/23/23
f 48/48/48 3/3/3 23/23/23
f 47/47/47 48/48/48 23/23/23
f 48/48/48 37/37/37 2/2/2
f 3/3/3 48/48/48 2/2/2
f 51/51/51 50/50/50 49/49/49
f 52/52/52 51/51/51 49/49/49
f 51/51/51 52/52/52 53/53/53
f 54/54/54 51/51/51 53/53/53
f 55/55/55 49/49/49 25/25/25
f 26/26/26 55/55/55 25/25/25
f 25/25/25 49/49/49 50/50/50
f 36/36/36 25/25/25 50/50/50
f 50/50/50 56/56/56 35/35/35
f 36/36/36 50/50/50 35/35/35
f 34/34/34 35/35/35 56/56/56
f 57/57/57 34/34/34 56/56/56
f 58/58/58 33/33/33 34/34/34
f 57/57/57 58/58/58 34/34/34
f 58/58/58 59/59/59 32/32/32
f 33/33/33 58/58/58 32/32/32
f 59/59/59 60/60/60 31/31/31
f 32/32/32 59/59/59 31/31/31
f 61/61/61 30/30/30 31/31/31
f 60/60/60 61/61/61 31/31/31
f 30/30/30 61/61/61 62/62/62
f 29/29/29 30/30/30 62/62/62
f 28/28/28 29/29/29 62/62/62
f 63/63/63 28/28/28 62/62/62
f 63/63/63 64/64/64 27/27/27
f 28/28/28 63/63/63 27/27/27
f 64/64/64 55/55/55 26/26/26
f 27/27/27 64/64/64 26/26/26
f 53/53/53 66/66/66 65/65/65
f 54/54/54 53/53/53 65/65/65
f 54/54/54 65/65/65 67/67/67
f 68/68/68 54/54/54 67/67/67
f 68/68/68 67/67/67 69/69/69
f 70/70/70 68/68/68 69/69/69
f 70/70/70 69/69/69 71/71/71
f 72/72/72 70/70/70 71/71/71
f 73/73/73 72/72/72 71/71/71
f 74/74/74 73/73/73 71/71/71
f 73/73/73 74/74/74 75/75/75
f 76/76/76 73/73/73 75/75/75
f 77/77/77 76/76/76 75/75/75
f 78/78/78 77/77/77 75/75/75
f 78/78/78 80/80/80 79/79/79
f 77/77/77 78/78/78 79/79/79
f 79/79/79 80/80/80 81/81/81
f 82/82/82 79/79/79 81/81/81
f 82/82/82 81/81/81 83/83/83
f 84/84/84 82/82/82 83/83/83
f 85/85/85 84/84/84 83/83/83
f 86/86/86 85/85/85 83/83/83
f 86/86/86 66/66/66 53/53/53
f 85/85/85 86/86/86 53/53/53
f 51/51/51 87/87/87 56/56/56
f 50/50/50 51/51/51 56/56/56
f 68/68/68 87/87/87 51/51/51
f 54/54/54 68/68/68 51/51/51
f 57/57/57 56/56/56 87/87/87
f 88/88/88 57/57/57 87/87/87
f 70/70/70 88/88/88 87/87/87
f 68/68/68 70/70/70 87/87/87
f 89/89/89 58/58/58 57/57/57
f 88/88/88 89/89/89 57/57/57
f 88/88/88 70/70/70 72/72/72
f 89/89/89 88/88/88 72/72/72
f 90/90/90 59/59/59 58/58/58
f 89/89/89 90/90/90 58/58/58
f 73/73/73 90/90/90 89/89/89
f 72/72/72 73/73/73 89/89/89
f 59/59/59 90/90/90 91/91/91
f 60/60/60 59/59/59 91/91/91
f 76/76/76 91/91/91 90/90/90
f 73/73/73 76/76/76 90/90/90
f 61/61/61 60/60/60 91/91/91
f 92/92/92 61/61/61 91/91/91
f 77/77/77 92/92/92 91/91/91
f 76/76/76 77/77/77 91/91/91
f 62/62/62 61/61/61 92/92/92
f 93/93/93 62/62/62 92/92/92
f 79/79/79 93/93/93 92/92/92
f 77/77/77 79/79/79 92/92/92
f 63/63/63 62/62/62 93/93/93
f 94/94/94 63/63/63 93/93/93
f 82/82/82 94/94/94 93/93/93
f 79/79/79 82/82/82 93/93/93
f 64/64/64 63/63/63 94/94/94
f 95/95/95 64/64/64 94/94/94
f 94/94/94 82/82/82 84/84/84
f 95/95/95 94/94/94 84/84/84
f 64/64/64 95/95/95 96/96/96
f 55/55/55 64/64/64 96/96/96
f 85/85/85 96/96/96 95/95/95
f 84/84/84 85/85/85 95/95/95
f 96/96/96 85/85/85 53/53/53
f 52/52/52 96/96/96 53/53/53
f 52/52/52 49/49/49 55/55/55
f 96/96/96 52/52/52 55/55/55
