g Easter_island_destroyable_Tree_01_Crown_mesh2
v -0.76306164 3.2708054 -0.1658833
v -0.625147 4.2471585 0.023167253
v 0.20327401 4.247042 -0.58079267
v 0.065359235 3.270689 -0.7698431
v 0.09878957 2.4179235 -0.119523406
v 0.5061276 2.9425588 0.3075
v 0.82062936 3.1508288 -0.3333845
v 0.4134078 2.6261935 -0.7602916
v -0.34838545 2.728581 -0.10123563
v -0.64343464 3.0134964 0.61955583
v 0.053827405 3.1990523 0.807325
v 0.3488767 2.914137 0.08653355
v -0.53685343 4.402429 0.27837956
v -0.38298047 5.050885 0.7624794
v 0.33431637 5.3311415 0.034931898
v 0.18044353 4.6826854 -0.44928432
v -0.20173442 1.9558388 0.48420346
v -0.055898666 2.9879866 0.6840869
v 0.7725222 2.9878702 0.080127
v 0.6266866 1.9557222 -0.11975634
v 0.10414767 2.7208934 -0.019115806
v 0.1538856 3.064166 0.72602046
v 0.7651838 3.385191 0.48828042
v 0.715446 3.0418015 -0.25685585
v -0.03935826 4.778317 0.2763995
v 0.2257551 4.497362 0.8178083
v 0.73990715 5.0314326 0.93498933
v 0.47491038 5.312271 0.39358032
v 0.7291908 4.9963717 0.15945137
v 0.95272005 4.7717943 -0.4273857
v 0.16099095 4.945003 -0.8172513
v -0.06265473 5.1695805 -0.23041439
v -0.26230514 5.116814 0.077680826
v -0.30039465 4.8098836 -0.44881833
v -1.0464627 4.7646885 -0.3597095
v -1.0084895 5.0715027 0.16678965
v 0.53524804 4.8643975 0.03935826
v 0.8003614 4.5834427 0.5808836
v 0.2245903 4.9156494 1.0921239
v -0.040523052 5.196488 0.55071485
v 0.13874292 4.6691732 0.11495519
v 0.36227214 4.444596 -0.47188187
v 0.7030989 5.1911297 -0.7224349
v 0.4794532 5.415707 -0.13548148
v 0.2789874 4.2701054 0.22549665
v 0.43286026 4.918445 0.7095965
v -0.38903773 5.385189 0.13871753
v -0.54291046 4.736733 -0.34549868
v -0.4148966 4.912854 -0.09389734
v -0.6571795 5.028288 -0.66617405
v -0.025613308 5.4288697 -0.82598746
v 0.21666944 5.313436 -0.25371075
v 0.59931326 1.8187393 0.71285784
v 0.7451489 2.850771 0.9127413
v 0.04916811 3.0635839 -0.041946292
v -0.09666741 2.0314355 -0.24182963
v -0.00045323372 3.1464024 0.010121226
v 0.13746166 4.1227555 0.19917166
v -0.48956168 4.314485 -0.66104877
v -0.6275929 3.338132 -0.85009927
v 0.59325624 2.272437 -0.38242352
v 1.0004778 2.7970724 0.04460001
v 0.3852191 3.2267752 -0.07153273
v -0.022118926 2.7021399 -0.49855626
v 0.07036793 2.4769797 0.18531048
v -0.22468126 2.7618952 0.90598524
v -0.340814 3.368534 0.539183
v -0.045764804 3.0836186 -0.18149185
v 0.6686201 2.5911322 0.006044388
v 0.71835804 2.9344049 0.7510642
v 0.25417674 3.4425 0.47045863
v 0.20432234 3.0991106 -0.27467752
v -0.57960236 4.779016 0.37622464
v -0.6176921 4.4722023 -0.15027463
v -0.716236 5.045061 -0.58778155
v -0.67814624 5.3518753 -0.061282277
v -0.9691187 4.669639 0.22456491
v -0.22293413 4.714951 0.13557255
v -0.321478 5.28781 -0.30193436
v -1.067546 5.2424984 -0.21282554
v 0.8645431 5.045644 0.3017925
v 0.3503909 4.511573 0.18461144
v -0.2253803 4.8436637 0.69585145
v 0.28888834 5.377734 0.8130325
v 0.31346607 2.6881618 0.5154208
v -0.38391244 2.502606 0.32776797
v -0.5000452 3.1092448 -0.039150715
v 0.19733346 3.2948008 0.14861846
v 0.87048364 2.571796 -0.5594764
v 0.5558654 2.3635259 0.08140826
v -0.059393167 2.7932286 -0.034724355
v 0.2551086 3.0014987 -0.6756091
v 0.4404316 3.4894423 -0.25534153
v -0.38798916 3.4895587 0.3486184
v -1.015129 3.681172 -0.51160216
v -0.1867081 3.6810555 -1.1155621
v 0.97601646 2.8868804 0.13475716
v 0.3647182 2.5659719 0.3723806
v -0.09957957 3.0739508 0.09177518
v 0.51171875 3.3949752 -0.14596486
v 1.0405476 2.1816974 0.44797766
v 0.21212661 2.1816974 1.0519375
v -0.4837376 2.394394 0.097249866
v 0.3446833 2.394394 -0.50670993
v 0.663262 4.6493716 0.009538889
v -0.05403495 4.3691154 0.73720276
v -0.8759328 4.835743 0.16632378
v -0.15863597 5.1159987 -0.5613401
v 1.3973323 4.9885674 -0.011893868
v 0.68003535 4.7083116 0.7157699
v -0.14186251 5.1750555 0.14477456
v 0.575318 5.4553113 -0.58277285
v -0.16876996 4.703303 -0.2906356
v 0.6230756 4.5300937 0.09923005
v 0.9637858 5.276511 -0.15132296
v 0.1720568 5.44972 -0.5411887
v 0.19721699 4.7416253 0.25683033
v 0.35108984 5.3900814 0.74104655
v 1.0683868 5.670337 0.0133827925
v 0.9145139 5.021881 -0.47071695
v 0.5423535 5.116232 0.37913668
v 0.84928393 5.174473 0.98717344
v 1.4004774 5.601962 0.654384
v 1.0935469 5.543721 0.04634714
v -0.59579337 5.0204835 -0.2669897
v -0.9745933 5.3797145 -0.5648346
v -1.0804754 5.6994576 0.08327198
v -0.7017921 5.3401103 0.38111675
v 0.24986684 4.8069715 -0.25988436
v 0.3326857 4.945702 0.5552577
v -0.51285803 5.483034 0.5192646
v -0.595677 5.3443036 -0.29576087
v 0.81247556 4.9660864 -0.111136675
v 1.0128248 5.0483227 -0.75341916
v 1.4546416 5.751875 -0.4956442
v 1.2542922 5.669755 0.1465218
v 1.0129414 4.6093016 0.20394742
v 1.1668142 5.2577577 0.68816364
v 0.34491634 5.7245016 0.117284775
v 0.19104338 5.0760455 -0.36693144
v -0.18298066 4.9881015 0.45298636
v -0.14547348 5.246226 1.0132653
v 0.46582472 5.567134 0.7755252
v 0.42831755 5.3090096 0.21524632
v -0.96247923 4.9990506 0.061373353
v -1.20814 5.3063307 0.52823365
v -0.5142559 5.4848976 0.73685324
v -0.2687117 5.177618 0.26987636
v 1.441945 5.1594467 0.1056366
v 1.6422943 5.2415667 -0.5366459
v 0.88469446 5.6450605 -0.7042637
v 0.68434525 5.5629406 -0.0619812
v -0.5102955 4.7741237 -0.16029215
v -0.4275931 4.912854 0.6548499
v 0.1496923 5.584723 0.4440173
v 0.0669899 5.445876 -0.37112474
v 0.88760656 5.099458 0.36935222
v 1.5210364 4.960495 0.555374
v 1.8414787 5.547682 0.04821086
v 1.2080488 5.6866446 -0.1376946
v 0.09855664 4.9319572 -0.5138154
v 0.16367006 5.240052 -1.0368202
v 0.32686162 5.7921777 -0.5835881
v 0.26174808 5.484199 -0.060583472
v -0.59055173 4.779482 0.4342326
v -0.8360959 5.086762 0.9012095
v -0.87313735 5.629219 0.4063934
v -0.6275929 5.3219395 -0.060583472
v 0.114631176 4.8817534 -0.33874273
v -0.12765169 4.997187 -0.9111359
v -0.48851335 5.5116887 -0.62016356
v -0.24623048 5.396255 -0.04788685
v -0.24017346 5.1304426 -0.66687286
v 0.49308157 4.9828596 -0.6913341
v 0.656273 5.534985 -0.2381022
v -0.07698202 5.682568 -0.21352446
v -0.32951534 4.9927607 0.6830386
v -1.0233992 4.8141937 0.47453558
v -1.0604407 5.356651 -0.0202806
v -0.36655653 5.5352182 0.18822253
v 1.0919162 5.0004487 0.10295749
v 1.3988466 5.0586896 0.7109941
v 0.89948773 5.645876 0.88816345
v 0.5925573 5.587635 0.28012693
v 0.38184118 4.8597383 0.4812914
v 0.4192319 5.1178627 1.0415705
v -0.04506588 5.6259575 0.76084864
v -0.08245659 5.367833 0.2006861
v -0.99544346 4.9498954 0.15164697
v -1.3742434 5.3092427 -0.1461978
v -0.74267733 5.709708 -0.30601132
v -0.36387742 5.350477 -0.008166432
v -0.65776193 5.223279 -0.15109003
v -0.29690015 4.7087774 -0.4419459
v 0.3346659 5.1093593 -0.6018759
v -0.026312232 5.623861 -0.31090355
v 0.6849276 5.126133 0.5462884
v 0.07362938 4.8052244 0.7840284
v -0.39066827 5.3133197 0.5033065
v 0.22062981 5.6342278 0.26556647
v 1.0757252 5.1072626 -0.30705965
v 1.709155 4.9682994 -0.12115407
v 1.6393822 5.4833837 0.62899077
v 1.0059524 5.622463 0.44296873
v 0.55761266 5.1724925 -0.28166652
v 0.6227262 5.4804716 -0.8046713
v -0.11052883 5.628171 -0.78009355
v -0.17564237 5.320192 -0.25720525
v -1.1579362 5.247041 0.36772144
v -1.0520538 4.9272976 -0.28038514
v -0.42048776 5.32788 -0.44019866
v -0.5264865 5.6475067 0.2079078
v 0.538859 5.208719 -0.08551061
v -0.0384264 4.5368495 0.12543857
v -0.8838538 5.074065 0.08956206
v -0.30656826 5.745934 -0.121387124
vt -7.488765E-05 0.37451366
vt -7.488765E-05 0.43587968
vt 0.060865 0.43587968
vt 0.060865 0.37451366
vt -7.488765E-05 0.37451366
vt -7.488765E-05 0.43587968
vt 0.060865 0.43587968
vt 0.060865 0.37451366
vt -7.488765E-05 0.37451366
vt -7.488765E-05 0.43587968
vt 0.060865 0.43587968
vt 0.060865 0.37451366
vt -7.488765E-05 0.37451366
vt -7.488765E-05 0.43587968
vt 0.060865 0.43587968
vt 0.060865 0.37451366
vt -7.488765E-05 0.37451366
vt -7.488765E-05 0.43587968
vt 0.060865 0.43587968
vt 0.060865 0.37451366
vt -7.488765E-05 0.37451366
vt -7.488765E-05 0.43587968
vt 0.060865 0.43587968
vt 0.060865 0.37451366
vt -7.488765E-05 0.37451366
vt -7.488765E-05 0.43587968
vt 0.060865 0.43587968
vt 0.060865 0.37451366
vt -7.488765E-05 0.37451366
vt -7.488765E-05 0.43587968
vt 0.060865 0.43587968
vt 0.060865 0.37451366
vt -7.488765E-05 0.37451366
vt -7.488765E-05 0.43587968
vt 0.060865 0.43587968
vt 0.060865 0.37451366
vt 0.18743245 0.31059068
vt 0.18743245 0.37366134
vt 0.25178155 0.37366134
vt 0.25178155 0.31059068
vt 0.18743245 0.31059068
vt 0.18743245 0.37366134
vt 0.25178155 0.37366134
vt 0.25178155 0.31059068
vt 0.18743245 0.31059068
vt 0.18743245 0.37366134
vt 0.25178155 0.37366134
vt 0.25178155 0.31059068
vt 0.18743245 0.31059068
vt 0.18743245 0.37366134
vt 0.25178155 0.37366134
vt 0.25178155 0.31059068
vt 0.18743245 0.31059068
vt 0.18743245 0.37366134
vt 0.25178155 0.37366134
vt 0.25178155 0.31059068
vt 0.18743245 0.31059068
vt 0.18743245 0.37366134
vt 0.25178155 0.37366134
vt 0.25178155 0.31059068
vt 0.18743245 0.31059068
vt 0.18743245 0.37366134
vt 0.25178155 0.37366134
vt 0.25178155 0.31059068
vt 0.18743245 0.31059068
vt 0.18743245 0.37366134
vt 0.25178155 0.37366134
vt 0.25178155 0.31059068
vt 0.18743245 0.31059068
vt 0.18743245 0.37366134
vt 0.25178155 0.37366134
vt 0.25178155 0.31059068
vt 0.18743245 0.31059068
vt 0.18743245 0.37366134
vt 0.25178155 0.37366134
vt 0.25178155 0.31059068
vt 0.00035126542 0.31186914
vt 0.00035126542 0.37408748
vt 0.06299577 0.37408748
vt 0.06299577 0.31186914
vt 0.00035126542 0.31186914
vt 0.00035126542 0.37408748
vt 0.06299577 0.37408748
vt 0.06299577 0.31186914
vt 0.00035126542 0.31186914
vt 0.00035126542 0.37408748
vt 0.06299577 0.37408748
vt 0.06299577 0.31186914
vt 0.00035126542 0.31186914
vt 0.00035126542 0.37408748
vt 0.06299577 0.37408748
vt 0.06299577 0.31186914
vt 0.00035126542 0.31186914
vt 0.00035126542 0.37408748
vt 0.06299577 0.37408748
vt 0.06299577 0.31186914
vt 0.00035126542 0.31186914
vt 0.00035126542 0.37408748
vt 0.06299577 0.37408748
vt 0.06299577 0.31186914
vt 0.00035126542 0.31186914
vt 0.00035126542 0.37408748
vt 0.06299577 0.37408748
vt 0.06299577 0.31186914
vt 0.00035126542 0.31186914
vt 0.00035126542 0.37408748
vt 0.06299577 0.37408748
vt 0.06299577 0.31186914
vt 0.00035126542 0.31186914
vt 0.00035126542 0.37408748
vt 0.06299577 0.37408748
vt 0.06299577 0.31186914
vt 0.00035126542 0.31186914
vt 0.00035126542 0.37408748
vt 0.06299577 0.37408748
vt 0.06299577 0.31186914
vt -7.488765E-05 0.37451366
vt -7.488765E-05 0.43587968
vt 0.060865 0.43587968
vt 0.060865 0.37451366
vt -7.488765E-05 0.37451366
vt -7.488765E-05 0.43587968
vt 0.060865 0.43587968
vt 0.060865 0.37451366
vt -7.488765E-05 0.37451366
vt -7.488765E-05 0.43587968
vt 0.060865 0.43587968
vt 0.060865 0.37451366
vt 0.18743245 0.31059068
vt 0.18743245 0.37366134
vt 0.25178155 0.37366134
vt 0.25178155 0.31059068
vt 0.18743245 0.31059068
vt 0.18743245 0.37366134
vt 0.25178155 0.37366134
vt 0.25178155 0.31059068
vt 0.18743245 0.31059068
vt 0.18743245 0.37366134
vt 0.25178155 0.37366134
vt 0.25178155 0.31059068
vt -7.488765E-05 0.37451366
vt -7.488765E-05 0.43587968
vt 0.060865 0.43587968
vt 0.060865 0.37451366
vt -7.488765E-05 0.37451366
vt -7.488765E-05 0.43587968
vt 0.060865 0.43587968
vt 0.060865 0.37451366
vt -7.488765E-05 0.37451366
vt -7.488765E-05 0.43587968
vt 0.060865 0.43587968
vt 0.060865 0.37451366
vt -7.488765E-05 0.37451366
vt -7.488765E-05 0.43587968
vt 0.060865 0.43587968
vt 0.060865 0.37451366
vt -7.488765E-05 0.37451366
vt -7.488765E-05 0.43587968
vt 0.060865 0.43587968
vt 0.060865 0.37451366
vt 0.18743245 0.31059068
vt 0.18743245 0.37366134
vt 0.25178155 0.37366134
vt 0.25178155 0.31059068
vt 0.18743245 0.31059068
vt 0.18743245 0.37366134
vt 0.25178155 0.37366134
vt 0.25178155 0.31059068
vt -7.488765E-05 0.37451366
vt -7.488765E-05 0.43587968
vt 0.060865 0.43587968
vt 0.060865 0.37451366
vt 0.00035126542 0.31186914
vt 0.00035126542 0.37408748
vt 0.06299577 0.37408748
vt 0.06299577 0.31186914
vt 0.00035126542 0.31186914
vt 0.00035126542 0.37408748
vt 0.06299577 0.37408748
vt 0.06299577 0.31186914
vt 0.18743245 0.31059068
vt 0.18743245 0.37366134
vt 0.25178155 0.37366134
vt 0.25178155 0.31059068
vt 0.18743245 0.31059068
vt 0.18743245 0.37366134
vt 0.25178155 0.37366134
vt 0.25178155 0.31059068
vt 0.18743245 0.31059068
vt 0.18743245 0.37366134
vt 0.25178155 0.37366134
vt 0.25178155 0.31059068
vt 0.00035126542 0.31186914
vt 0.00035126542 0.37408748
vt 0.06299577 0.37408748
vt 0.06299577 0.31186914
vt 0.00035126542 0.31186914
vt 0.00035126542 0.37408748
vt 0.06299577 0.37408748
vt 0.06299577 0.31186914
vt 0.18743245 0.31059068
vt 0.18743245 0.37366134
vt 0.25178155 0.37366134
vt 0.25178155 0.31059068
vt -7.488765E-05 0.37451366
vt -7.488765E-05 0.43587968
vt 0.060865 0.43587968
vt 0.060865 0.37451366
vt 0.00035126542 0.31186914
vt 0.00035126542 0.37408748
vt 0.06299577 0.37408748
vt 0.06299577 0.31186914
vt 0.00035126542 0.31186914
vt 0.00035126542 0.37408748
vt 0.06299577 0.37408748
vt 0.06299577 0.31186914
vn 0.57561207 -0.23107815 0.7843938
vn 0.57561207 -0.23107815 0.7843938
vn 0.57561207 -0.23107815 0.7843938
vn 0.57561207 -0.23107815 0.7843938
vn 0.72540945 -0.67298037 0.14449403
vn 0.72540945 -0.67298037 0.14449403
vn 0.72540945 -0.67298037 0.14449403
vn 0.72540945 -0.67298037 0.14449403
vn 0.12621993 -0.9051663 0.4058847
vn 0.12621993 -0.9051663 0.4058847
vn 0.12621993 -0.9051663 0.4058847
vn 0.12621993 -0.9051663 0.4058847
vn 0.69544995 -0.5306729 0.48449525
vn 0.69544995 -0.5306729 0.48449525
vn 0.69544995 -0.5306729 0.48449525
vn 0.69544995 -0.5306729 0.48449525
vn 0.57561207 -0.23107815 0.7843938
vn 0.57561207 -0.23107815 0.7843938
vn 0.57561207 -0.23107815 0.7843938
vn 0.57561207 -0.23107815 0.7843938
vn 0.5381627 -0.7778385 0.32457373
vn 0.5381627 -0.7778385 0.32457373
vn 0.5381627 -0.7778385 0.32457373
vn 0.5381627 -0.7778385 0.32457373
vn 0.6505108 -0.5007134 -0.5710708
vn 0.6505108 -0.5007134 -0.5710708
vn 0.6505108 -0.5007134 -0.5710708
vn 0.6505108 -0.5007134 -0.5710708
vn -0.31568235 -0.92014605 0.2316807
vn -0.31568235 -0.92014605 0.2316807
vn -0.31568235 -0.92014605 0.2316807
vn -0.31568235 -0.92014605 0.2316807
vn 0.11124021 -0.8602271 0.4976293
vn 0.11124021 -0.8602271 0.4976293
vn 0.11124021 -0.8602271 0.4976293
vn 0.11124021 -0.8602271 0.4976293
vn 0.583102 0.8025238 0.12628396
vn 0.583102 0.8025238 0.12628396
vn 0.583102 0.8025238 0.12628396
vn 0.583102 0.8025238 0.12628396
vn -0.8699326 0.25576335 -0.4216662
vn -0.8699326 0.25576335 -0.4216662
vn -0.8699326 0.25576335 -0.4216662
vn -0.8699326 0.25576335 -0.4216662
vn 0.65800065 0.3456418 -0.6690044
vn 0.65800065 0.3456418 -0.6690044
vn 0.65800065 0.3456418 -0.6690044
vn 0.65800065 0.3456418 -0.6690044
vn -0.43552023 0.82499343 0.36014986
vn -0.43552023 0.82499343 0.36014986
vn -0.43552023 0.82499343 0.36014986
vn -0.43552023 0.82499343 0.36014986
vn 0.807798 0.0011078119 -0.58945835
vn 0.807798 0.0011078119 -0.58945835
vn 0.807798 0.0011078119 -0.58945835
vn 0.807798 0.0011078119 -0.58945835
vn 0.807798 0.0011078119 -0.58945835
vn 0.807798 0.0011078119 -0.58945835
vn 0.807798 0.0011078119 -0.58945835
vn 0.807798 0.0011078119 -0.58945835
vn 0.41083497 0.3606215 -0.837357
vn 0.41083497 0.3606215 -0.837357
vn 0.41083497 0.3606215 -0.837357
vn 0.41083497 0.3606215 -0.837357
vn 0.9126562 0.32317215 0.2502368
vn 0.9126562 0.32317215 0.2502368
vn 0.9126562 0.32317215 0.2502368
vn 0.9126562 0.32317215 0.2502368
vn 0.7778385 0.5478682 -0.3079085
vn 0.7778385 0.5478682 -0.3079085
vn 0.7778385 0.5478682 -0.3079085
vn 0.7778385 0.5478682 -0.3079085
vn -0.9897705 -0.08128077 0.11725113
vn -0.9897705 -0.08128077 0.11725113
vn -0.9897705 -0.08128077 0.11725113
vn -0.9897705 -0.08128077 0.11725113
vn -0.053536892 -0.6130614 -0.7882192
vn -0.053536892 -0.6130614 -0.7882192
vn -0.053536892 -0.6130614 -0.7882192
vn -0.053536892 -0.6130614 -0.7882192
vn 0.3733856 -0.5306729 0.76090044
vn 0.3733856 -0.5306729 0.76090044
vn 0.3733856 -0.5306729 0.76090044
vn 0.3733856 -0.5306729 0.76090044
vn -0.33815187 0.43552023 0.8342514
vn -0.33815187 0.43552023 0.8342514
vn -0.33815187 0.43552023 0.8342514
vn -0.33815187 0.43552023 0.8342514
vn 0.44828433 0.76507443 0.4622794
vn 0.44828433 0.76507443 0.4622794
vn 0.44828433 0.76507443 0.4622794
vn 0.44828433 0.76507443 0.4622794
vn 0.10375035 0.9822807 0.15607862
vn 0.10375035 0.9822807 0.15607862
vn 0.10375035 0.9822807 0.15607862
vn 0.10375035 0.9822807 0.15607862
vn 0.05881113 0.5253987 0.8488212
vn 0.05881113 0.5253987 0.8488212
vn 0.05881113 0.5253987 0.8488212
vn 0.05881113 0.5253987 0.8488212
vn 0.10375035 0.9822807 0.15607862
vn 0.10375035 0.9822807 0.15607862
vn 0.10375035 0.9822807 0.15607862
vn 0.10375035 0.9822807 0.15607862
vn 0.15617943 0.8624427 0.48145676
vn 0.15617943 0.8624427 0.48145676
vn 0.15617943 0.8624427 0.48145676
vn 0.15617943 0.8624427 0.48145676
vn 0.15617943 0.8624427 0.48145676
vn 0.15617943 0.8624427 0.48145676
vn 0.15617943 0.8624427 0.48145676
vn 0.15617943 0.8624427 0.48145676
vn 0.32095653 -0.43330458 -0.84216034
vn 0.32095653 -0.43330458 -0.84216034
vn 0.32095653 -0.43330458 -0.84216034
vn 0.32095653 -0.43330458 -0.84216034
vn 0.69544995 -0.5306729 0.48449525
vn 0.69544995 -0.5306729 0.48449525
vn 0.69544995 -0.5306729 0.48449525
vn 0.69544995 -0.5306729 0.48449525
vn 0.5306729 -0.8302676 -0.17041714
vn 0.5306729 -0.8302676 -0.17041714
vn 0.5306729 -0.8302676 -0.17041714
vn 0.5306729 -0.8302676 -0.17041714
vn -0.7500947 -0.63553107 0.18291575
vn -0.7500947 -0.63553107 0.18291575
vn -0.7500947 -0.63553107 0.18291575
vn -0.7500947 -0.63553107 0.18291575
vn 0.5306729 0.82499343 -0.19435051
vn 0.5306729 0.82499343 -0.19435051
vn 0.5306729 0.82499343 -0.19435051
vn 0.5306729 0.82499343 -0.19435051
vn -0.8025238 0.57033783 -0.17512934
vn -0.8025238 0.57033783 -0.17512934
vn -0.8025238 0.57033783 -0.17512934
vn -0.8025238 0.57033783 -0.17512934
vn 0.65800065 0.3456418 -0.6690044
vn 0.65800065 0.3456418 -0.6690044
vn 0.65800065 0.3456418 -0.6690044
vn 0.65800065 0.3456418 -0.6690044
vn 0.5381627 -0.7778385 0.32457373
vn 0.5381627 -0.7778385 0.32457373
vn 0.5381627 -0.7778385 0.32457373
vn 0.5381627 -0.7778385 0.32457373
vn 0.043831408 -0.82277775 0.56667066
vn 0.043831408 -0.82277775 0.56667066
vn 0.043831408 -0.82277775 0.56667066
vn 0.043831408 -0.82277775 0.56667066
vn -0.4130506 -0.8752068 -0.251798
vn -0.4130506 -0.8752068 -0.251798
vn -0.4130506 -0.8752068 -0.251798
vn -0.4130506 -0.8752068 -0.251798
vn 0.7628588 -0.64302087 0.06760602
vn 0.7628588 -0.64302087 0.06760602
vn 0.7628588 -0.64302087 0.06760602
vn 0.7628588 -0.64302087 0.06760602
vn 0.06630099 -0.67298037 -0.73668283
vn 0.06630099 -0.67298037 -0.73668283
vn 0.06630099 -0.67298037 -0.73668283
vn 0.06630099 -0.67298037 -0.73668283
vn -0.96677613 0.25562462 -0
vn -0.96677613 0.25562462 -0
vn -0.96677613 0.25562462 -0
vn -0.96677613 0.25562462 -0
vn 0.9126562 0.30819243 0.26847
vn 0.9126562 0.30819243 0.26847
vn 0.9126562 0.30819243 0.26847
vn 0.9126562 0.30819243 0.26847
vn -0.7500947 -0.63553107 0.18291575
vn -0.7500947 -0.63553107 0.18291575
vn -0.7500947 -0.63553107 0.18291575
vn -0.7500947 -0.63553107 0.18291575
vn 0.09626049 0.6152771 -0.78241163
vn 0.09626049 0.6152771 -0.78241163
vn 0.09626049 0.6152771 -0.78241163
vn 0.09626049 0.6152771 -0.78241163
vn -0.36811143 0.6152771 0.6970854
vn -0.36811143 0.6152771 0.6970854
vn -0.36811143 0.6152771 0.6970854
vn -0.36811143 0.6152771 0.6970854
vn 0.64302087 0.6602163 -0.3881219
vn 0.64302087 0.6602163 -0.3881219
vn 0.64302087 0.6602163 -0.3881219
vn 0.64302087 0.6602163 -0.3881219
vn 0.7778385 0.5478682 -0.3079085
vn 0.7778385 0.5478682 -0.3079085
vn 0.7778385 0.5478682 -0.3079085
vn 0.7778385 0.5478682 -0.3079085
vn -0.13592547 0.5403784 0.83037066
vn -0.13592547 0.5403784 0.83037066
vn -0.13592547 0.5403784 0.83037066
vn -0.13592547 0.5403784 0.83037066
vn -0.37560123 0.24078363 -0.8949564
vn -0.37560123 0.24078363 -0.8949564
vn -0.37560123 0.24078363 -0.8949564
vn -0.37560123 0.24078363 -0.8949564
vn 0.05881113 0.5253987 0.8488212
vn 0.05881113 0.5253987 0.8488212
vn 0.05881113 0.5253987 0.8488212
vn 0.05881113 0.5253987 0.8488212
vn 0.3284464 0.7950339 -0.5099452
vn 0.3284464 0.7950339 -0.5099452
vn 0.3284464 0.7950339 -0.5099452
vn 0.3284464 0.7950339 -0.5099452
vn -0.18835455 -0.83775747 -0.512528
vn -0.18835455 -0.83775747 -0.512528
vn -0.18835455 -0.83775747 -0.512528
vn -0.18835455 -0.83775747 -0.512528
vn -0.5553581 0.70515543 -0.44083238
vn -0.5553581 0.70515543 -0.44083238
vn -0.5553581 0.70515543 -0.44083238
vn -0.5553581 0.70515543 -0.44083238
vn 0.09626049 0.21831399 0.9711194
vn 0.09626049 0.21831399 0.9711194
vn 0.09626049 0.21831399 0.9711194
vn 0.09626049 0.21831399 0.9711194
g Easter_island_destroyable_Tree_01_Crown_mesh2_0
f 3/3/3 2/2/2 1/1/1
f 4/4/4 3/3/3 1/1/1
f 7/7/7 6/6/6 5/5/5
f 8/8/8 7/7/7 5/5/5
f 11/11/11 10/10/10 9/9/9
f 12/12/12 11/11/11 9/9/9
f 15/15/15 14/14/14 13/13/13
f 16/16/16 15/15/15 13/13/13
f 19/19/19 18/18/18 17/17/17
f 20/20/20 19/19/19 17/17/17
f 23/23/23 22/22/22 21/21/21
f 24/24/24 23/23/23 21/21/21
f 27/27/27 26/26/26 25/25/25
f 28/28/28 27/27/27 25/25/25
f 31/31/31 30/30/30 29/29/29
f 32/32/32 31/31/31 29/29/29
f 35/35/35 34/34/34 33/33/33
f 36/36/36 35/35/35 33/33/33
f 39/39/39 38/38/38 37/37/37
f 40/40/40 39/39/39 37/37/37
f 43/43/43 42/42/42 41/41/41
f 44/44/44 43/43/43 41/41/41
f 47/47/47 46/46/46 45/45/45
f 48/48/48 47/47/47 45/45/45
f 51/51/51 50/50/50 49/49/49
f 52/52/52 51/51/51 49/49/49
f 55/55/55 54/54/54 53/53/53
f 56/56/56 55/55/55 53/53/53
f 59/59/59 58/58/58 57/57/57
f 60/60/60 59/59/59 57/57/57
f 63/63/63 62/62/62 61/61/61
f 64/64/64 63/63/63 61/61/61
f 67/67/67 66/66/66 65/65/65
f 68/68/68 67/67/67 65/65/65
f 71/71/71 70/70/70 69/69/69
f 72/72/72 71/71/71 69/69/69
f 75/75/75 74/74/74 73/73/73
f 76/76/76 75/75/75 73/73/73
f 79/79/79 78/78/78 77/77/77
f 80/80/80 79/79/79 77/77/77
f 83/83/83 82/82/82 81/81/81
f 84/84/84 83/83/83 81/81/81
f 87/87/87 86/86/86 85/85/85
f 88/88/88 87/87/87 85/85/85
f 91/91/91 90/90/90 89/89/89
f 92/92/92 91/91/91 89/89/89
f 95/95/95 94/94/94 93/93/93
f 96/96/96 95/95/95 93/93/93
f 99/99/99 98/98/98 97/97/97
f 100/100/100 99/99/99 97/97/97
f 103/103/103 102/102/102 101/101/101
f 104/104/104 103/103/103 101/101/101
f 107/107/107 106/106/106 105/105/105
f 108/108/108 107/107/107 105/105/105
f 111/111/111 110/110/110 109/109/109
f 112/112/112 111/111/111 109/109/109
f 115/115/115 114/114/114 113/113/113
f 116/116/116 115/115/115 113/113/113
f 119/119/119 118/118/118 117/117/117
f 120/120/120 119/119/119 117/117/117
f 123/123/123 122/122/122 121/121/121
f 124/124/124 123/123/123 121/121/121
f 127/127/127 126/126/126 125/125/125
f 128/128/128 127/127/127 125/125/125
f 131/131/131 130/130/130 129/129/129
f 132/132/132 131/131/131 129/129/129
f 135/135/135 134/134/134 133/133/133
f 136/136/136 135/135/135 133/133/133
f 139/139/139 138/138/138 137/137/137
f 140/140/140 139/139/139 137/137/137
f 143/143/143 142/142/142 141/141/141
f 144/144/144 143/143/143 141/141/141
f 147/147/147 146/146/146 145/145/145
f 148/148/148 147/147/147 145/145/145
f 151/151/151 150/150/150 149/149/149
f 152/152/152 151/151/151 149/149/149
f 155/155/155 154/154/154 153/153/153
f 156/156/156 155/155/155 153/153/153
f 159/159/159 158/158/158 157/157/157
f 160/160/160 159/159/159 157/157/157
f 163/163/163 162/162/162 161/161/161
f 164/164/164 163/163/163 161/161/161
f 167/167/167 166/166/166 165/165/165
f 168/168/168 167/167/167 165/165/165
f 171/171/171 170/170/170 169/169/169
f 172/172/172 171/171/171 169/169/169
f 175/175/175 174/174/174 173/173/173
f 176/176/176 175/175/175 173/173/173
f 179/179/179 178/178/178 177/177/177
f 180/180/180 179/179/179 177/177/177
f 183/183/183 182/182/182 181/181/181
f 184/184/184 183/183/183 181/181/181
f 187/187/187 186/186/186 185/185/185
f 188/188/188 187/187/187 185/185/185
f 191/191/191 190/190/190 189/189/189
f 192/192/192 191/191/191 189/189/189
f 195/195/195 194/194/194 193/193/193
f 196/196/196 195/195/195 193/193/193
f 199/199/199 198/198/198 197/197/197
f 200/200/200 199/199/199 197/197/197
f 203/203/203 202/202/202 201/201/201
f 204/204/204 203/203/203 201/201/201
f 207/207/207 206/206/206 205/205/205
f 208/208/208 207/207/207 205/205/205
f 211/211/211 210/210/210 209/209/209
f 212/212/212 211/211/211 209/209/209
f 215/215/215 214/214/214 213/213/213
f 216/216/216 215/215/215 213/213/213
