g Easter_island_destroyable_Tree_02_Crown_mesh
v -0.4566692 3.385088 -0.07949567
v -0.15629888 3.3155951 0.97677195
v 0.4542755 4.4481297 0.87766826
v 0.15390527 4.5176225 -0.17859924
v 0.3250147 3.7111354 0.3906728
v 0.6251664 3.8771095 1.3000878
v 0.822281 4.968342 1.0358843
v 0.5222385 4.8022585 0.12636018
v 0.15040874 4.791004 -0.19761133
v 0.24459541 4.9020176 0.763486
v 0.36085367 3.7742906 0.88236654
v 0.266667 3.6632771 -0.07873082
v 0.4118806 4.7985435 -0.041689873
v 1.1569605 4.922669 0.57008636
v 1.410456 3.8143911 0.48628008
v 0.66537607 3.6902657 -0.12549627
v 0.031746745 4.7719917 0.015346646
v 0.31365108 5.2223835 -0.79857045
v 1.1389318 4.4488945 -0.94072455
v 0.85702735 3.9985032 -0.12680745
v -0.30937946 3.8538356 -0.3532052
v -0.5804666 3.7993126 -1.2850194
v -0.028458476 4.7726474 -1.5026759
v 0.2426287 4.827171 -0.57075226
v -0.5152353 3.583623 0.014472485
v -0.8880485 3.3290348 -0.79015696
v -0.79222286 4.3430166 -1.1554308
v -0.41951883 4.5976048 -0.35069203
v -0.747424 5.025378 0.5486704
v -0.11281133 5.318865 1.2238206
v 0.14461768 4.232549 1.4542612
v -0.48999512 3.9390626 0.779111
v -1.2528852 3.8428001 0.43525302
v -1.1171776 3.6386924 -0.4541663
v -1.0119551 4.691791 -0.6797991
v -1.1476628 4.895899 0.20972955
v 0.56889486 4.1322436 -0.11052692
v 1.5026759 4.2702456 0.68492424
v 1.1785951 3.3228064 1.229721
v 0.24481404 3.1848044 0.4342698
v 0.09861708 4.716594 -0.7777008
v -0.6104053 4.7262096 -1.44258
v -1.3819276 4.879946 -0.61762714
v -0.6729051 4.870331 0.04725206
v 1.0858288 4.1321344 0.06309557
v 1.1382761 4.0764093 -0.90586895
v 0.015684724 3.8843207 -0.9554754
v -0.036762595 3.9400463 0.013489127
v -1.1786941 4.582854 -0.7365078
v -0.9308804 3.873722 -0.119596004
v -0.9701067 4.6136665 0.74665916
v -1.2180296 5.322689 0.1298567
v -0.67716634 4.18491 -0.214329
v -0.42935288 3.475778 0.40247357
v -0.46868837 4.2156134 1.2687286
v -0.71650183 4.9247446 0.65192616
v -0.06855881 4.1927767 0.30271423
v 0.16439474 4.4124 0.9290229
v 0.26732266 5.1721215 0.6241728
v 0.03436911 4.952389 -0.0021357536
v 0.7165122 3.976213 -0.7655723
v 1.6502932 4.114215 0.029769659
v 1.3262124 3.1667757 0.5746757
v 0.39243138 3.0287738 -0.2207756
v 0.74229884 4.656171 0.1991309
v 1.0242033 5.1066713 -0.61478627
v 0.40335786 4.5413327 -1.1426468
v 0.12145352 4.0909414 -0.32872975
v -0.42815077 4.5871153 -0.36008883
v -0.69923794 4.532592 -1.2919031
v 0.12320173 4.019482 -1.5011462
v 0.3942889 4.074005 -0.5693319
v 0.6033133 3.567233 0.07096267
v 0.65576065 3.5115075 -0.89800185
v 0.49164426 4.4874654 -0.96301466
v 0.43919694 4.5431905 0.005949855
v 0.29999292 3.6950731 -0.2759546
v 0.60036325 3.6255808 0.7803129
v -0.3399738 4.159123 1.0827593
v -0.640344 4.2286158 0.026491642
v 0.868828 4.1452465 0.13040292
v 1.1689796 4.31122 1.0398179
v 0.2414267 4.542753 1.3036937
v -0.058725 4.3766704 0.39427865
v -0.26337874 4.1837077 -0.08834612
v -0.1691922 4.2948303 0.8726419
v 0.81266564 4.3847556 0.7661084
v 0.7184789 4.273742 -0.19498897
v 0.25038648 4.1507096 0.28413928
v 0.9954665 4.274835 0.8959156
v 1.592929 4.469436 0.12876403
v 0.8479583 4.345311 -0.48301232
v -0.22546375 4.660869 0.29779732
v 0.3138696 5.247296 0.854504
v 1.0528307 5.1936464 0.19519734
v 0.51338804 4.6072197 -0.36150932
v 0.28906643 4.972931 -0.006397128
v 0.58910894 5.1389046 0.9030179
v -0.33833492 5.370438 1.1668934
v -0.6384865 5.204464 0.2574786
v -0.73824584 5.056628 -0.37112463
v -0.4903227 4.3474965 0.24578702
v -1.4486886 4.133664 0.38488185
v -1.6965023 4.842796 -0.23192072
v -0.23671806 4.658684 0.15094483
v 0.011095524 3.949552 0.7678567
v -0.9472703 3.7357202 0.9070605
v -1.195084 4.444742 0.29014885
v 0.30512846 4.4917264 0.057632327
v 0.538082 4.711459 0.68394077
v -0.1331346 4.8789625 0.87482727
v -0.36619747 4.65923 0.24851882
v 0.27234888 3.7619438 -0.20995831
v 1.2061299 3.8999457 0.58549297
v 1.7902621 3.3596292 -0.006506443
v 0.856481 3.2216268 -0.80195767
v -0.23027146 4.7521057 -0.3135419
v -0.020154357 5.195286 -1.0024595
v 0.80665606 4.973914 -0.8926478
v 0.5964297 4.530625 -0.20373023
v -0.89941204 4.192449 0.0013606548
v -1.2722253 3.937861 -0.80326885
v -0.37187922 3.7266512 -1.1534641
v 0.00082457066 3.9812393 -0.3488345
v -0.96420634 4.4698734 0.9918505
v -0.32959354 4.763469 1.6670007
v 0.38740516 4.788163 0.98234427
v -0.24720752 4.4945674 0.3071941
v -1.6682025 4.399616 0.24556863
v -1.5323857 4.1955085 -0.6438508
v -0.5590507 4.1332273 -0.48104548
v -0.6948675 4.3372254 0.40848315
v 0.12473142 3.9178653 0.44508708
v 1.0585124 4.055867 1.2405382
v 1.6426446 3.5156598 0.64853895
v 0.7088636 3.377658 -0.14691234
v 0.27234888 3.505826 1.0088958
v 0.5964297 4.453156 0.46398985
v 1.1805618 3.9129481 -0.12800944
v 0.856481 2.965509 0.41689646
v -1.593028 4.856782 -0.18034744
v -1.6982504 3.8037925 0.04517603
v -0.7249154 3.7414017 0.20809054
v -0.6196929 4.7945004 -0.017432928
v -0.6331326 4.028114 1.3588725
v -0.89056146 5.1144295 1.1285414
v -0.17345345 5.1391234 0.44388497
v 0.08386624 4.052808 0.6742164
v -1.0037605 4.6163983 -0.45198095
v -1.0995861 3.6023073 -0.086707115
v -0.19924009 3.3910975 -0.4370116
v -0.10352373 4.4051886 -0.8021762
v 0.41996622 3.3497949 0.3537413
v 0.74415636 4.2972345 -0.19105542
v 1.3281792 3.7569175 -0.7830547
v 1.0040984 2.8095875 -0.23814881
v 0.45449412 4.943648 0.11805606
v 0.3515662 4.1840353 0.42279685
v -0.31975973 4.351539 0.61368334
v -0.2168318 5.1112604 0.30894244
v -0.14602792 4.7876167 0.7949544
v -0.10680163 4.0476723 -0.071300745
v -1.0650581 3.8338404 0.067793965
v -1.1043936 4.573785 0.934049
v -0.6475555 5.185561 0.27288496
v -0.60822 4.445726 -0.5934795
v -1.5665859 4.2317843 -0.4542755
v -1.6059214 4.971729 0.41197956
v 0.064417005 3.4272642 -0.28884792
v 1.1868992 3.6193523 -0.23924148
v 1.0227828 4.5952005 -0.30414498
v -0.09969938 4.4031124 -0.35386074
v -0.26709378 5.067773 -0.7873161
v -0.8191019 4.094438 -0.5697689
v 0.003337741 3.5813284 -0.77901196
v 0.5553459 4.554663 -0.9965591
v 1.2685204 4.4402623 -0.1414491
v 0.4432397 5.2137513 0.00070512295
v -0.17749631 4.6484127 -0.5270462
v 0.64767504 3.8749242 -0.6693096
v 0.62090504 3.634759 0.4741515
v 0.3674096 4.7430367 0.557958
v 0.96498144 4.9376383 -0.20919347
v 1.2184769 3.8294697 -0.29299998
v -0.19738257 3.6561751 0.30774057
v -0.31364095 4.7839017 0.18875062
v 0.66821694 4.8739367 0.08221698
v 0.7845845 3.7462096 0.20109761
v 1.0951164 4.7427087 0.30763137
v 0.89800185 3.6514764 0.5718347
v -0.029551148 3.8830094 0.8357104
v 0.16756344 4.9741325 0.57139766
v 0.73344827 4.2236986 0.033812523
v 0.1228739 3.0912733 0.13302529
v -0.81757224 3.6247063 0.43547165
v -0.20688868 4.7572412 0.33636796
vt 0.06327181 0.31142685
vt 0.06327181 0.3731915
vt 0.12540194 0.3731915
vt 0.12540194 0.31142685
vt 0.06327181 0.31142685
vt 0.06327181 0.3731915
vt 0.12540194 0.3731915
vt 0.12540194 0.31142685
vt 0.06327181 0.31142685
vt 0.06327181 0.3731915
vt 0.12540194 0.3731915
vt 0.12540194 0.31142685
vt 0.06327181 0.31142685
vt 0.06327181 0.3731915
vt 0.12540194 0.3731915
vt 0.12540194 0.31142685
vt 0.06327181 0.31142685
vt 0.06327181 0.3731915
vt 0.12540194 0.3731915
vt 0.12540194 0.31142685
vt 0.06327181 0.31142685
vt 0.06327181 0.3731915
vt 0.12540194 0.3731915
vt 0.12540194 0.31142685
vt 0.06327181 0.31142685
vt 0.06327181 0.3731915
vt 0.12540194 0.3731915
vt 0.12540194 0.31142685
vt 0.06327181 0.31142685
vt 0.06327181 0.3731915
vt 0.12540194 0.3731915
vt 0.12540194 0.31142685
vt 0.06327181 0.31142685
vt 0.06327181 0.3731915
vt 0.12540194 0.3731915
vt 0.12540194 0.31142685
vt 0.06327181 0.31142685
vt 0.06327181 0.3731915
vt 0.12540194 0.3731915
vt 0.12540194 0.31142685
vt 0.06327181 0.31142685
vt 0.06327181 0.3731915
vt 0.12540194 0.3731915
vt 0.12540194 0.31142685
vt 0.06327181 0.31142685
vt 0.06327181 0.3731915
vt 0.12540194 0.3731915
vt 0.12540194 0.31142685
vt 0.06327181 0.31142685
vt 0.06327181 0.3731915
vt 0.12540194 0.3731915
vt 0.12540194 0.31142685
vt 0.06327181 0.31142685
vt 0.06327181 0.3731915
vt 0.12540194 0.3731915
vt 0.12540194 0.31142685
vt 0.06327181 0.31142685
vt 0.06327181 0.3731915
vt 0.12540194 0.3731915
vt 0.12540194 0.31142685
vt 0.06327181 0.31142685
vt 0.06327181 0.3731915
vt 0.12540194 0.3731915
vt 0.12540194 0.31142685
vt 0.12540194 0.31215778
vt 0.12540194 0.37355697
vt 0.1871666 0.37355697
vt 0.1871666 0.31215778
vt 0.12540194 0.31215778
vt 0.12540194 0.37355697
vt 0.1871666 0.37355697
vt 0.1871666 0.31215778
vt 0.12540194 0.31215778
vt 0.12540194 0.37355697
vt 0.1871666 0.37355697
vt 0.1871666 0.31215778
vt 0.12540194 0.31215778
vt 0.12540194 0.37355697
vt 0.1871666 0.37355697
vt 0.1871666 0.31215778
vt 0.12540194 0.31215778
vt 0.12540194 0.37355697
vt 0.1871666 0.37355697
vt 0.1871666 0.31215778
vt 0.12540194 0.31215778
vt 0.12540194 0.37355697
vt 0.1871666 0.37355697
vt 0.1871666 0.31215778
vt 0.12540194 0.31215778
vt 0.12540194 0.37355697
vt 0.1871666 0.37355697
vt 0.1871666 0.31215778
vt 0.12540194 0.31215778
vt 0.12540194 0.37355697
vt 0.1871666 0.37355697
vt 0.1871666 0.31215778
vt 0.12540194 0.31215778
vt 0.12540194 0.37355697
vt 0.1871666 0.37355697
vt 0.1871666 0.31215778
vt 0.12540194 0.31215778
vt 0.12540194 0.37355697
vt 0.1871666 0.37355697
vt 0.1871666 0.31215778
vt 0.12540194 0.31215778
vt 0.12540194 0.37355697
vt 0.1871666 0.37355697
vt 0.1871666 0.31215778
vt 0.12540194 0.31215778
vt 0.12540194 0.37355697
vt 0.1871666 0.37355697
vt 0.1871666 0.31215778
vt 0.12540194 0.31215778
vt 0.12540194 0.37355697
vt 0.1871666 0.37355697
vt 0.1871666 0.31215778
vt 0.12540194 0.31215778
vt 0.12540194 0.37355697
vt 0.1871666 0.37355697
vt 0.1871666 0.31215778
vt 0.12540194 0.31215778
vt 0.12540194 0.37355697
vt 0.1871666 0.37355697
vt 0.1871666 0.31215778
vt 0.12540194 0.31215778
vt 0.12540194 0.37355697
vt 0.1871666 0.37355697
vt 0.1871666 0.31215778
vt 0.12540194 0.31215778
vt 0.12540194 0.37355697
vt 0.1871666 0.37355697
vt 0.1871666 0.31215778
vt 0.12540194 0.31215778
vt 0.12540194 0.37355697
vt 0.1871666 0.37355697
vt 0.1871666 0.31215778
vt 0.00041074358 0.3117923
vt 0.00041074358 0.37428793
vt 0.06290635 0.37428793
vt 0.06290635 0.3117923
vt 0.00041074358 0.3117923
vt 0.00041074358 0.37428793
vt 0.06290635 0.37428793
vt 0.06290635 0.3117923
vt 0.00041074358 0.3117923
vt 0.00041074358 0.37428793
vt 0.06290635 0.37428793
vt 0.06290635 0.3117923
vt 0.00041074358 0.3117923
vt 0.00041074358 0.37428793
vt 0.06290635 0.37428793
vt 0.06290635 0.3117923
vt 0.00041074358 0.3117923
vt 0.00041074358 0.37428793
vt 0.06290635 0.37428793
vt 0.06290635 0.3117923
vt 0.00041074358 0.3117923
vt 0.00041074358 0.37428793
vt 0.06290635 0.37428793
vt 0.06290635 0.3117923
vt 0.00041074358 0.3117923
vt 0.00041074358 0.37428793
vt 0.06290635 0.37428793
vt 0.06290635 0.3117923
vt 0.00041074358 0.3117923
vt 0.00041074358 0.37428793
vt 0.06290635 0.37428793
vt 0.06290635 0.3117923
vt 0.00041074358 0.3117923
vt 0.00041074358 0.37428793
vt 0.06290635 0.37428793
vt 0.06290635 0.3117923
vt 0.00041074358 0.3117923
vt 0.00041074358 0.37428793
vt 0.06290635 0.37428793
vt 0.06290635 0.3117923
vt 0.00041074358 0.3117923
vt 0.00041074358 0.37428793
vt 0.06290635 0.37428793
vt 0.06290635 0.3117923
vt 0.00041074358 0.3117923
vt 0.00041074358 0.37428793
vt 0.06290635 0.37428793
vt 0.06290635 0.3117923
vt 0.00041074358 0.3117923
vt 0.00041074358 0.37428793
vt 0.06290635 0.37428793
vt 0.06290635 0.3117923
vt 0.00041074358 0.3117923
vt 0.00041074358 0.37428793
vt 0.06290635 0.37428793
vt 0.06290635 0.3117923
vt 0.00041074358 0.3117923
vt 0.00041074358 0.37428793
vt 0.06290635 0.37428793
vt 0.06290635 0.3117923
vn 0.83545434 -0.47812068 -0.27095506
vn 0.83545434 -0.47812068 -0.27095506
vn 0.83545434 -0.47812068 -0.27095506
vn 0.83545434 -0.47812068 -0.27095506
vn 0.93644 -0.2295407 -0.2653134
vn 0.93644 -0.2295407 -0.2653134
vn 0.93644 -0.2295407 -0.2653134
vn 0.93644 -0.2295407 -0.2653134
vn -0.9900547 -0.08971447 0.10836502
vn -0.9900547 -0.08971447 0.10836502
vn -0.9900547 -0.08971447 0.10836502
vn -0.9900547 -0.08971447 0.10836502
vn -0.60164845 -0.19846821 0.7737115
vn -0.60164845 -0.19846821 0.7737115
vn -0.60164845 -0.19846821 0.7737115
vn -0.60164845 -0.19846821 0.7737115
vn 0.625715 0.57057595 0.53190583
vn 0.625715 0.57057595 0.53190583
vn 0.625715 0.57057595 0.53190583
vn 0.625715 0.57057595 0.53190583
vn -0.8269241 0.5161991 0.22301354
vn -0.8269241 0.5161991 0.22301354
vn -0.8269241 0.5161991 0.22301354
vn -0.8269241 0.5161991 0.22301354
vn -0.9123734 0.21324229 0.34943166
vn -0.9123734 0.21324229 0.34943166
vn -0.9123734 0.21324229 0.34943166
vn -0.9123734 0.21324229 0.34943166
vn -0.72593844 -0.027569532 0.6872069
vn -0.72593844 -0.027569532 0.6872069
vn -0.72593844 -0.027569532 0.6872069
vn -0.72593844 -0.027569532 0.6872069
vn -0.9822866 0.06564796 -0.1755091
vn -0.9822866 0.06564796 -0.1755091
vn -0.9822866 0.06564796 -0.1755091
vn -0.9822866 0.06564796 -0.1755091
vn -0.58611226 0.5472716 0.5974665
vn -0.58611226 0.5472716 0.5974665
vn -0.58611226 0.5472716 0.5974665
vn -0.58611226 0.5472716 0.5974665
vn -0.09672046 -0.99081683 0.09448368
vn -0.09672046 -0.99081683 0.09448368
vn -0.09672046 -0.99081683 0.09448368
vn -0.09672046 -0.99081683 0.09448368
vn 0.16739571 -0.98304874 0.07479195
vn 0.16739571 -0.98304874 0.07479195
vn 0.16739571 -0.98304874 0.07479195
vn 0.16739571 -0.98304874 0.07479195
vn 0.9675125 0.21324229 -0.13582094
vn 0.9675125 0.21324229 -0.13582094
vn 0.9675125 0.21324229 -0.13582094
vn 0.9675125 0.21324229 -0.13582094
vn 0.9675125 0.21324229 -0.13582094
vn 0.9675125 0.21324229 -0.13582094
vn 0.9675125 0.21324229 -0.13582094
vn 0.9675125 0.21324229 -0.13582094
vn 0.93644 -0.2295407 -0.2653134
vn 0.93644 -0.2295407 -0.2653134
vn 0.93644 -0.2295407 -0.2653134
vn 0.93644 -0.2295407 -0.2653134
vn -0.58611226 0.5472716 0.5974665
vn -0.58611226 0.5472716 0.5974665
vn -0.58611226 0.5472716 0.5974665
vn -0.58611226 0.5472716 0.5974665
vn 0.72670066 -0.68009186 -0.09685662
vn 0.72670066 -0.68009186 -0.09685662
vn 0.72670066 -0.68009186 -0.09685662
vn 0.72670066 -0.68009186 -0.09685662
vn 0.48588878 0.8502284 -0.202543
vn 0.48588878 0.8502284 -0.202543
vn 0.48588878 0.8502284 -0.202543
vn 0.48588878 0.8502284 -0.202543
vn -0.9822866 -0.16739571 -0.08421266
vn -0.9822866 -0.16739571 -0.08421266
vn -0.9822866 -0.16739571 -0.08421266
vn -0.9822866 -0.16739571 -0.08421266
vn 0.47035253 0.8813009 -0.045575894
vn 0.47035253 0.8813009 -0.045575894
vn 0.47035253 0.8813009 -0.045575894
vn 0.47035253 0.8813009 -0.045575894
vn 0.17516387 0.9589822 -0.22286923
vn 0.17516387 0.9589822 -0.22286923
vn 0.17516387 0.9589822 -0.22286923
vn 0.17516387 0.9589822 -0.22286923
vn 0.105250716 -0.99081683 0.08487812
vn 0.105250716 -0.99081683 0.08487812
vn 0.105250716 -0.99081683 0.08487812
vn 0.105250716 -0.99081683 0.08487812
vn 0.22173323 -0.97510743 -0
vn 0.22173323 -0.97510743 -0
vn 0.22173323 -0.97510743 -0
vn 0.22173323 -0.97510743 -0
vn 0.36936694 -0.79661375 0.47851288
vn 0.36936694 -0.79661375 0.47851288
vn 0.36936694 -0.79661375 0.47851288
vn 0.36936694 -0.79661375 0.47851288
vn 0.17516387 0.9589822 -0.22286923
vn 0.17516387 0.9589822 -0.22286923
vn 0.17516387 0.9589822 -0.22286923
vn 0.17516387 0.9589822 -0.22286923
vn -0.034575462 0.64825726 0.7606359
vn -0.034575462 0.64825726 0.7606359
vn -0.034575462 0.64825726 0.7606359
vn -0.034575462 0.64825726 0.7606359
vn -0.034575462 0.64825726 0.7606359
vn -0.034575462 0.64825726 0.7606359
vn -0.034575462 0.64825726 0.7606359
vn -0.034575462 0.64825726 0.7606359
vn 0.12855512 0.9201416 -0.36988255
vn 0.12855512 0.9201416 -0.36988255
vn 0.12855512 0.9201416 -0.36988255
vn 0.12855512 0.9201416 -0.36988255
vn -0.28315544 -0.82768625 0.48451877
vn -0.28315544 -0.82768625 0.48451877
vn -0.28315544 -0.82768625 0.48451877
vn -0.28315544 -0.82768625 0.48451877
vn 0.14409137 0.8113879 0.56646925
vn 0.14409137 0.8113879 0.56646925
vn 0.14409137 0.8113879 0.56646925
vn 0.14409137 0.8113879 0.56646925
vn 0.08971447 0.93567777 -0.34126005
vn 0.08971447 0.93567777 -0.34126005
vn 0.08971447 0.93567777 -0.34126005
vn 0.08971447 0.93567777 -0.34126005
vn 0.2295407 -0.95197624 0.20261362
vn 0.2295407 -0.95197624 0.20261362
vn 0.2295407 -0.95197624 0.20261362
vn 0.2295407 -0.95197624 0.20261362
vn 0.09748262 0.9745184 -0.20201719
vn 0.09748262 0.9745184 -0.20201719
vn 0.09748262 0.9745184 -0.20201719
vn 0.09748262 0.9745184 -0.20201719
vn -0.28315544 -0.82768625 0.48451877
vn -0.28315544 -0.82768625 0.48451877
vn -0.28315544 -0.82768625 0.48451877
vn -0.28315544 -0.82768625 0.48451877
vn 0.75777316 0.112256765 0.6427894
vn 0.75777316 0.112256765 0.6427894
vn 0.75777316 0.112256765 0.6427894
vn 0.75777316 0.112256765 0.6427894
vn 0.14409137 -0.22177261 -0.9643934
vn 0.14409137 -0.22177261 -0.9643934
vn 0.14409137 -0.22177261 -0.9643934
vn 0.14409137 -0.22177261 -0.9643934
vn 0.64901936 0.29869163 0.6996836
vn 0.64901936 0.29869163 0.6996836
vn 0.64901936 0.29869163 0.6996836
vn 0.64901936 0.29869163 0.6996836
vn -0.40744543 -0.27614945 -0.87047666
vn -0.40744543 -0.27614945 -0.87047666
vn -0.40744543 -0.27614945 -0.87047666
vn -0.40744543 -0.27614945 -0.87047666
vn 0.75777316 0.112256765 0.6427894
vn 0.75777316 0.112256765 0.6427894
vn 0.75777316 0.112256765 0.6427894
vn 0.75777316 0.112256765 0.6427894
vn 0.33052635 0.31422794 0.88995117
vn 0.33052635 0.31422794 0.88995117
vn 0.33052635 0.31422794 0.88995117
vn 0.33052635 0.31422794 0.88995117
vn 0.2528451 -0.72670066 0.6387296
vn 0.2528451 -0.72670066 0.6387296
vn 0.2528451 -0.72670066 0.6387296
vn 0.2528451 -0.72670066 0.6387296
vn 0.2528451 -0.72670066 0.6387296
vn 0.2528451 -0.72670066 0.6387296
vn 0.2528451 -0.72670066 0.6387296
vn 0.2528451 -0.72670066 0.6387296
vn 0.050873876 -0.05864203 -0.9969819
vn 0.050873876 -0.05864203 -0.9969819
vn 0.050873876 -0.05864203 -0.9969819
vn 0.050873876 -0.05864203 -0.9969819
vn -0.2753873 -0.05864203 -0.9595431
vn -0.2753873 -0.05864203 -0.9595431
vn -0.2753873 -0.05864203 -0.9595431
vn -0.2753873 -0.05864203 -0.9595431
vn 0.2916857 0.46182227 -0.83763933
vn 0.2916857 0.46182227 -0.83763933
vn 0.2916857 0.46182227 -0.83763933
vn 0.2916857 0.46182227 -0.83763933
vn 0.76554126 0.12779295 0.6305676
vn 0.76554126 0.12779295 0.6305676
vn 0.76554126 0.12779295 0.6305676
vn 0.76554126 0.12779295 0.6305676
vn 0.09748262 0.112256765 0.988886
vn 0.09748262 0.112256765 0.988886
vn 0.09748262 0.112256765 0.988886
vn 0.09748262 0.112256765 0.988886
vn 0.30722195 0.17440176 0.9355206
vn 0.30722195 0.17440176 0.9355206
vn 0.30722195 0.17440176 0.9355206
vn 0.30722195 0.17440176 0.9355206
vn 0.27614945 -0.066410124 0.95881754
vn 0.27614945 -0.066410124 0.95881754
vn 0.27614945 -0.066410124 0.95881754
vn 0.27614945 -0.066410124 0.95881754
g Easter_island_destroyable_Tree_02_Crown_mesh_0
f 3/3/3 2/2/2 1/1/1
f 4/4/4 3/3/3 1/1/1
f 7/7/7 6/6/6 5/5/5
f 8/8/8 7/7/7 5/5/5
f 11/11/11 10/10/10 9/9/9
f 12/12/12 11/11/11 9/9/9
f 15/15/15 14/14/14 13/13/13
f 16/16/16 15/15/15 13/13/13
f 19/19/19 18/18/18 17/17/17
f 20/20/20 19/19/19 17/17/17
f 23/23/23 22/22/22 21/21/21
f 24/24/24 23/23/23 21/21/21
f 27/27/27 26/26/26 25/25/25
f 28/28/28 27/27/27 25/25/25
f 31/31/31 30/30/30 29/29/29
f 32/32/32 31/31/31 29/29/29
f 35/35/35 34/34/34 33/33/33
f 36/36/36 35/35/35 33/33/33
f 39/39/39 38/38/38 37/37/37
f 40/40/40 39/39/39 37/37/37
f 43/43/43 42/42/42 41/41/41
f 44/44/44 43/43/43 41/41/41
f 47/47/47 46/46/46 45/45/45
f 48/48/48 47/47/47 45/45/45
f 51/51/51 50/50/50 49/49/49
f 52/52/52 51/51/51 49/49/49
f 55/55/55 54/54/54 53/53/53
f 56/56/56 55/55/55 53/53/53
f 59/59/59 58/58/58 57/57/57
f 60/60/60 59/59/59 57/57/57
f 63/63/63 62/62/62 61/61/61
f 64/64/64 63/63/63 61/61/61
f 67/67/67 66/66/66 65/65/65
f 68/68/68 67/67/67 65/65/65
f 71/71/71 70/70/70 69/69/69
f 72/72/72 71/71/71 69/69/69
f 75/75/75 74/74/74 73/73/73
f 76/76/76 75/75/75 73/73/73
f 79/79/79 78/78/78 77/77/77
f 80/80/80 79/79/79 77/77/77
f 83/83/83 82/82/82 81/81/81
f 84/84/84 83/83/83 81/81/81
f 87/87/87 86/86/86 85/85/85
f 88/88/88 87/87/87 85/85/85
f 91/91/91 90/90/90 89/89/89
f 92/92/92 91/91/91 89/89/89
f 95/95/95 94/94/94 93/93/93
f 96/96/96 95/95/95 93/93/93
f 99/99/99 98/98/98 97/97/97
f 100/100/100 99/99/99 97/97/97
f 103/103/103 102/102/102 101/101/101
f 104/104/104 103/103/103 101/101/101
f 107/107/107 106/106/106 105/105/105
f 108/108/108 107/107/107 105/105/105
f 111/111/111 110/110/110 109/109/109
f 112/112/112 111/111/111 109/109/109
f 115/115/115 114/114/114 113/113/113
f 116/116/116 115/115/115 113/113/113
f 119/119/119 118/118/118 117/117/117
f 120/120/120 119/119/119 117/117/117
f 123/123/123 122/122/122 121/121/121
f 124/124/124 123/123/123 121/121/121
f 127/127/127 126/126/126 125/125/125
f 128/128/128 127/127/127 125/125/125
f 131/131/131 130/130/130 129/129/129
f 132/132/132 131/131/131 129/129/129
f 135/135/135 134/134/134 133/133/133
f 136/136/136 135/135/135 133/133/133
f 139/139/139 138/138/138 137/137/137
f 140/140/140 139/139/139 137/137/137
f 143/143/143 142/142/142 141/141/141
f 144/144/144 143/143/143 141/141/141
f 147/147/147 146/146/146 145/145/145
f 148/148/148 147/147/147 145/145/145
f 151/151/151 150/150/150 149/149/149
f 152/152/152 151/151/151 149/149/149
f 155/155/155 154/154/154 153/153/153
f 156/156/156 155/155/155 153/153/153
f 159/159/159 158/158/158 157/157/157
f 160/160/160 159/159/159 157/157/157
f 163/163/163 162/162/162 161/161/161
f 164/164/164 163/163/163 161/161/161
f 167/167/167 166/166/166 165/165/165
f 168/168/168 167/167/167 165/165/165
f 171/171/171 170/170/170 169/169/169
f 172/172/172 171/171/171 169/169/169
f 175/175/175 174/174/174 173/173/173
f 176/176/176 175/175/175 173/173/173
f 179/179/179 178/178/178 177/177/177
f 180/180/180 179/179/179 177/177/177
f 183/183/183 182/182/182 181/181/181
f 184/184/184 183/183/183 181/181/181
f 187/187/187 186/186/186 185/185/185
f 188/188/188 187/187/187 185/185/185
f 191/191/191 190/190/190 189/189/189
f 192/192/192 191/191/191 189/189/189
f 195/195/195 194/194/194 193/193/193
f 196/196/196 195/195/195 193/193/193
