g ExpChestAppearMeshRay
v 0.6275673 1.0587307 -0.52389604
v 0.6275673 0.28488886 -0.52389604
v 0.6275673 0.28488886 0.52390647
v 0.6275673 1.0587307 0.52390647
v 0.52389604 0.28488886 0.6275778
v 0.52389604 1.0587307 0.6275778
v 0.56357366 1.0587307 0.61967826
v 0.56357366 0.28488886 0.61967826
v 0.5972044 1.0587307 0.5972148
v 0.5972044 0.28488886 0.5972148
v 0.61966777 1.0587307 0.5635841
v 0.61966777 0.28488886 0.5635841
v -0.52390647 0.28488886 0.6275778
v -0.52390647 1.0587307 0.6275778
v -0.6275778 0.28488886 0.52390647
v -0.6275778 1.0587307 0.52390647
v -0.61967826 1.0587307 0.5635841
v -0.61967826 0.28488886 0.5635841
v -0.5972148 1.0587307 0.5972148
v -0.5972148 0.28488886 0.5972148
v -0.5635841 1.0587307 0.61967826
v -0.5635841 0.28488886 0.61967826
v -0.6275778 0.28488886 -0.52389604
v -0.6275778 1.0587307 -0.52389604
v -0.52390647 0.28488886 -0.6275673
v -0.52390647 1.0587307 -0.6275673
v -0.5635841 1.0587307 -0.61966777
v -0.5635841 0.28488886 -0.61966777
v -0.5972148 1.0587307 -0.5972044
v -0.5972148 0.28488886 -0.5972044
v -0.61967826 1.0587307 -0.56357366
v -0.61967826 0.28488886 -0.56357366
v 0.52389604 0.28488886 -0.6275673
v 0.52389604 1.0587307 -0.6275673
v 0.61966777 1.0587307 -0.56357366
v 0.61966777 0.28488886 -0.56357366
v 0.5972044 1.0587307 -0.5972044
v 0.5972044 0.28488886 -0.5972044
v 0.56357366 1.0587307 -0.61966777
v 0.56357366 0.28488886 -0.61966777
v 0.6275673 -7.6293945E-06 -0.52389604
v 0.6275673 -7.6293945E-06 0.52390647
v 0.61966777 -7.6293945E-06 -0.56357366
v 0.5972044 -7.6293945E-06 -0.5972044
v 0.56357366 -7.6293945E-06 -0.61966777
v 0.52389604 -7.6293945E-06 -0.6275673
v -0.52390647 -7.6293945E-06 -0.6275673
v -0.5635841 -7.6293945E-06 -0.61966777
v -0.5972148 -7.6293945E-06 -0.5972044
v -0.61967826 -7.6293945E-06 -0.56357366
v -0.6275778 -7.6293945E-06 -0.52389604
v -0.6275778 -7.6293945E-06 0.52390647
v -0.61967826 -7.6293945E-06 0.5635841
v -0.5972148 -7.6293945E-06 0.5972148
v -0.5635841 -7.6293945E-06 0.61967826
v -0.52390647 -7.6293945E-06 0.6275778
v 0.52389604 -7.6293945E-06 0.6275778
v 0.56357366 -7.6293945E-06 0.61967826
v 0.5972044 -7.6293945E-06 0.5972148
v 0.61966777 -7.6293945E-06 0.5635841
vt 0.50005996 0.50005
vt 0.50005996 0.50005
vt 0.50005996 0.4999499
vt 0.50005996 0.4999499
vt 0.50005 0.49993992
vt 0.50005 0.49993992
vt 0.5000539 0.49994075
vt 0.5000539 0.49994075
vt 0.50005704 0.49994284
vt 0.50005704 0.49994284
vt 0.5000591 0.49994603
vt 0.5000591 0.49994603
vt 0.4999499 0.49993992
vt 0.4999499 0.49993992
vt 0.49993992 0.4999499
vt 0.49993992 0.4999499
vt 0.49994075 0.49994603
vt 0.49994075 0.49994603
vt 0.49994284 0.49994284
vt 0.49994284 0.49994284
vt 0.49994603 0.49994075
vt 0.49994603 0.49994075
vt 0.49993992 0.50005
vt 0.49993992 0.50005
vt 0.4999499 0.50005996
vt 0.4999499 0.50005996
vt 0.49994603 0.5000591
vt 0.49994603 0.5000591
vt 0.49994284 0.50005704
vt 0.49994284 0.50005704
vt 0.49994075 0.5000539
vt 0.49994075 0.5000539
vt 0.50005 0.50005996
vt 0.50005 0.50005996
vt 0.5000591 0.5000539
vt 0.5000591 0.5000539
vt 0.50005704 0.50005704
vt 0.50005704 0.50005704
vt 0.5000539 0.5000591
vt 0.5000539 0.5000591
vt 0.50005996 0.50005
vt 0.50005996 0.4999499
vt 0.5000591 0.5000539
vt 0.50005704 0.50005704
vt 0.5000539 0.5000591
vt 0.50005 0.50005996
vt 0.4999499 0.50005996
vt 0.49994603 0.5000591
vt 0.49994284 0.50005704
vt 0.49994075 0.5000539
vt 0.49993992 0.50005
vt 0.49993992 0.4999499
vt 0.49994075 0.49994603
vt 0.49994284 0.49994284
vt 0.49994603 0.49994075
vt 0.4999499 0.49993992
vt 0.50005 0.49993992
vt 0.5000539 0.49994075
vt 0.50005704 0.49994284
vt 0.5000591 0.49994603
vn 0.99997365 0.003921509 -0.0061083776
vn 0.99997365 0.003921509 -0.0061083776
vn 0.99997365 0.003921509 0.0061083776
vn 0.99997365 0.003921509 0.0061083776
vn 0.003921449 0.003921509 0.9999846
vn 0.003921449 0.003921509 0.9999846
vn 0.38038212 0.003921509 0.9248211
vn 0.38038212 0.003921509 0.9248211
vn 0.7097852 0.003921509 0.7044072
vn 0.7097852 0.003921509 0.7044072
vn 0.9215444 0.003921509 0.3882532
vn 0.9215444 0.003921509 0.3882532
vn -0.003921509 0.003921509 0.9999846
vn -0.003921509 0.003921509 0.9999846
vn -0.99997365 0.003921509 0.0061083776
vn -0.99997365 0.003921509 0.0061083776
vn -0.92154443 0.003921509 0.38825315
vn -0.92154443 0.003921509 0.38825315
vn -0.7097852 0.003921509 0.7044072
vn -0.7097852 0.003921509 0.7044072
vn -0.38038218 0.003921509 0.9248211
vn -0.38038218 0.003921509 0.9248211
vn -0.99997365 0.003921509 -0.0061083776
vn -0.99997365 0.003921509 -0.0061083776
vn -0.003921509 0.003921509 -0.9999846
vn -0.003921509 0.003921509 -0.9999846
vn -0.38038218 0.003921509 -0.9248211
vn -0.38038218 0.003921509 -0.9248211
vn -0.7097852 0.003921509 -0.7044072
vn -0.7097852 0.003921509 -0.7044072
vn -0.92154443 0.003921509 -0.38825315
vn -0.92154443 0.003921509 -0.38825315
vn 0.003921449 0.003921509 -0.9999846
vn 0.003921449 0.003921509 -0.9999846
vn 0.9215444 0.003921509 -0.3882532
vn 0.9215444 0.003921509 -0.3882532
vn 0.7097852 0.003921509 -0.7044072
vn 0.7097852 0.003921509 -0.7044072
vn 0.38038212 0.003921509 -0.9248211
vn 0.38038212 0.003921509 -0.9248211
vn 0.99997365 0.003921509 -0.0061083776
vn 0.99997365 0.003921509 0.0061083776
vn 0.9215444 0.003921509 -0.3882532
vn 0.7097852 0.003921509 -0.7044072
vn 0.38038212 0.003921509 -0.9248211
vn 0.003921449 0.003921509 -0.9999846
vn -0.003921509 0.003921509 -0.9999846
vn -0.38038218 0.003921509 -0.9248211
vn -0.7097852 0.003921509 -0.7044072
vn -0.92154443 0.003921509 -0.38825315
vn -0.99997365 0.003921509 -0.0061083776
vn -0.99997365 0.003921509 0.0061083776
vn -0.92154443 0.003921509 0.38825315
vn -0.7097852 0.003921509 0.7044072
vn -0.38038218 0.003921509 0.9248211
vn -0.003921509 0.003921509 0.9999846
vn 0.003921449 0.003921509 0.9999846
vn 0.38038212 0.003921509 0.9248211
vn 0.7097852 0.003921509 0.7044072
vn 0.9215444 0.003921509 0.3882532
g ExpChestAppearMeshRay_0
f 3/3/3 2/2/2 1/1/1
f 4/4/4 3/3/3 1/1/1
f 7/7/7 6/6/6 5/5/5
f 8/8/8 7/7/7 5/5/5
f 9/9/9 7/7/7 8/8/8
f 10/10/10 9/9/9 8/8/8
f 11/11/11 9/9/9 10/10/10
f 12/12/12 11/11/11 10/10/10
f 4/4/4 11/11/11 12/12/12
f 3/3/3 4/4/4 12/12/12
f 13/13/13 5/5/5 6/6/6
f 14/14/14 13/13/13 6/6/6
f 17/17/17 16/16/16 15/15/15
f 18/18/18 17/17/17 15/15/15
f 19/19/19 17/17/17 18/18/18
f 20/20/20 19/19/19 18/18/18
f 21/21/21 19/19/19 20/20/20
f 22/22/22 21/21/21 20/20/20
f 14/14/14 21/21/21 22/22/22
f 13/13/13 14/14/14 22/22/22
f 23/23/23 15/15/15 16/16/16
f 24/24/24 23/23/23 16/16/16
f 27/27/27 26/26/26 25/25/25
f 28/28/28 27/27/27 25/25/25
f 29/29/29 27/27/27 28/28/28
f 30/30/30 29/29/29 28/28/28
f 31/31/31 29/29/29 30/30/30
f 32/32/32 31/31/31 30/30/30
f 24/24/24 31/31/31 32/32/32
f 23/23/23 24/24/24 32/32/32
f 33/33/33 25/25/25 26/26/26
f 34/34/34 33/33/33 26/26/26
f 35/35/35 1/1/1 2/2/2
f 36/36/36 35/35/35 2/2/2
f 37/37/37 35/35/35 36/36/36
f 38/38/38 37/37/37 36/36/36
f 39/39/39 37/37/37 38/38/38
f 40/40/40 39/39/39 38/38/38
f 34/34/34 39/39/39 40/40/40
f 33/33/33 34/34/34 40/40/40
f 42/42/42 41/41/41 2/2/2
f 3/3/3 42/42/42 2/2/2
f 36/36/36 2/2/2 41/41/41
f 43/43/43 36/36/36 41/41/41
f 38/38/38 36/36/36 43/43/43
f 44/44/44 38/38/38 43/43/43
f 40/40/40 38/38/38 44/44/44
f 45/45/45 40/40/40 44/44/44
f 33/33/33 40/40/40 45/45/45
f 46/46/46 33/33/33 45/45/45
f 46/46/46 47/47/47 25/25/25
f 33/33/33 46/46/46 25/25/25
f 28/28/28 25/25/25 47/47/47
f 48/48/48 28/28/28 47/47/47
f 30/30/30 28/28/28 48/48/48
f 49/49/49 30/30/30 48/48/48
f 32/32/32 30/30/30 49/49/49
f 50/50/50 32/32/32 49/49/49
f 23/23/23 32/32/32 50/50/50
f 51/51/51 23/23/23 50/50/50
f 51/51/51 52/52/52 15/15/15
f 23/23/23 51/51/51 15/15/15
f 18/18/18 15/15/15 52/52/52
f 53/53/53 18/18/18 52/52/52
f 20/20/20 18/18/18 53/53/53
f 54/54/54 20/20/20 53/53/53
f 22/22/22 20/20/20 54/54/54
f 55/55/55 22/22/22 54/54/54
f 13/13/13 22/22/22 55/55/55
f 56/56/56 13/13/13 55/55/55
f 56/56/56 57/57/57 5/5/5
f 13/13/13 56/56/56 5/5/5
f 8/8/8 5/5/5 57/57/57
f 58/58/58 8/8/8 57/57/57
f 10/10/10 8/8/8 58/58/58
f 59/59/59 10/10/10 58/58/58
f 12/12/12 10/10/10 59/59/59
f 60/60/60 12/12/12 59/59/59
f 3/3/3 12/12/12 60/60/60
f 42/42/42 3/3/3 60/60/60
