g FifeballMesh:FireBallMesh2
v 0.6863849 -0.34677073 -0.30003697
v 0.56084985 -0.6096676 0.021185875
v 0.6263917 -0.10158789 0.5514863
v 0.3718569 0.73063236 -0.05798012
v 0.2171458 0.8165974 0.10110736
v -0.43499058 0.3618161 -0.45120528
v 0.10338533 0.83201903 0.28569788
v -0.2248711 0.7174249 0.4593473
v 0.7968891 0.3493902 0.22151059
v 0.5283655 0.120019734 0.7181544
v 0.3136351 0.41977733 0.75892264
v -0.852807 -0.12576228 0.13479006
v -0.69374555 -0.3641982 0.3269872
v -0.8237873 -0.32853574 -0.17296493
v 0.3136351 0.41977733 0.75892264
v 0.19239825 -0.17189687 0.7941163
v -0.40641373 -0.043939173 0.8000036
v 0.5134127 -0.6672382 -0.058136404
v 0.6863849 -0.34677073 -0.30003697
v 0.6579383 -0.21693742 -0.49233827
v -0.31648904 -0.25059402 0.7684309
v 0.119875014 -0.69409573 0.45314747
v -0.69374555 -0.3641982 0.3269872
v 0.23353124 0.2954145 -0.578642
v -0.53437144 -0.06647241 -0.6753658
v 0.40608665 0.008239031 -0.7295238
v 0.027970493 -0.412521 0.72940797
v -0.678871 0.27048463 -0.2833389
v -0.69796556 0.4225126 0.34985906
v 0.04873234 -0.83161384 -0.04995674
v 0.0026498437 -0.8192922 0.1657896
v 0.43005267 -0.63873947 0.3652807
v -0.678871 0.27048463 -0.2833389
v 0.0026498437 -0.8192922 0.1657896
v -0.2438615 -0.8160099 -0.05331719
v -0.46497422 -0.634884 -0.35937893
v -0.16941053 -0.77610123 -0.14777458
v -0.38554758 0.6404993 0.47779077
v -0.40641373 -0.043939173 0.8000036
v -0.74331874 -0.068582475 0.43079656
v -0.69796556 0.4225126 0.34985906
v 0.40608665 0.008239031 -0.7295238
v 0.6579383 -0.21693742 -0.49233827
v 0.40608665 0.008239031 -0.7295238
v 0.7968891 0.3493902 0.22151059
v 0.6263917 -0.10158789 0.5514863
v 0.4346114 -0.58338314 0.4124573
v 0.6263917 -0.10158789 0.5514863
v -0.8237873 -0.32853574 -0.17296493
v -0.6895254 -0.50257593 -0.26625007
v 0.5864049 0.61747104 0.21822828
v 0.4346114 -0.58338314 0.4124573
v -0.678871 0.27048463 -0.2833389
v -0.87557465 -0.20638716 -0.17418933
v -0.53437144 -0.06647241 -0.6753658
v -0.8022178 -0.24616551 -0.36823595
v -0.8237873 -0.32853574 -0.17296493
v -0.6618342 -0.48077208 -0.3341104
v 0.17299098 -0.6433503 0.5244985
v 0.10338533 0.83201903 0.28569788
v 0.119875014 -0.69409573 0.45314747
v 0.17299098 -0.6433503 0.5244985
v 0.5864049 0.61747104 0.21822828
v -0.69796556 0.4225126 0.34985906
v -0.852807 -0.12576228 0.13479006
v 0.5283655 0.120019734 0.7181544
v -0.87557465 -0.20638716 -0.17418933
v -0.87557465 -0.20638716 -0.17418933
v -0.2248711 0.7174249 0.4593473
v -0.38554758 0.6404993 0.47779077
v -0.53437144 -0.06647241 -0.6753658
v -0.3933627 -0.17481452 0.7859886
v 0.027970493 -0.412521 0.72940797
v -0.31648904 -0.25059402 0.7684309
v 0.4620942 0.7220358 0.17438608
v 0.10338533 0.83201903 0.28569788
v 0.2171458 0.8165974 0.10110736
v -0.74331874 -0.068582475 0.43079656
v -0.40641373 -0.043939173 0.8000036
v 0.3718569 0.73063236 -0.05798012
v 0.4620942 0.7220358 0.17438608
v 0.2171458 0.8165974 0.10110736
v 0.4620942 0.7220358 0.17438608
v 0.3171779 0.21736866 -0.646841
v -0.2438615 -0.8160099 -0.05331719
v -0.46497422 -0.634884 -0.35937893
v -0.6895254 -0.50257593 -0.26625007
v -0.6618342 -0.48077208 -0.3341104
v -0.74331874 -0.068582475 0.43079656
v 0.5134127 -0.6672382 -0.058136404
v -0.46497422 -0.634884 -0.35937893
v -0.2438615 -0.8160099 -0.05331719
v -0.16941053 -0.77610123 -0.14777458
v 0.3171779 0.21736866 -0.646841
v 0.43005267 -0.63873947 0.3652807
v -0.3933627 -0.17481452 0.7859886
v -0.8022178 -0.24616551 -0.36823595
v -0.8022178 -0.24616551 -0.36823595
v 0.4346114 -0.58338314 0.4124573
v -0.3933627 -0.17481452 0.7859886
v 0.119875014 -0.69409573 0.45314747
v 0.027970493 -0.412521 0.72940797
v -0.2248711 0.7174249 0.4593473
vt 0.48057544 0.2613062
vt 0.4688843 0.25414833
vt 0.44812647 0.2710886
vt 0.46936148 0.30592355
vt 0.46602112 0.3087867
vt 0.4872561 0.2987657
vt 0.45957905 0.31045687
vt 0.45480716 0.3090253
vt 0.45934045 0.28540432
vt 0.44192296 0.28039384
vt 0.4412072 0.29375517
vt 0.47484916 0.28492713
vt 0.46220362 0.27848506
vt 0.48176843 0.2818254
vt 0.4412072 0.29375517
vt 0.44192296 0.27442893
vt 0.44526333 0.28588152
vt 0.47198603 0.25295535
vt 0.48057544 0.2613062
vt 0.4879719 0.2660781
vt 0.44597912 0.27800786
vt 0.45504576 0.25820446
vt 0.46220362 0.27848506
vt 0.49155086 0.28969905
vt 0.49465257 0.28564292
vt 0.49703854 0.27753067
vt 0.44574052 0.26846406
vt 0.48176843 0.2978113
vt 0.46077204 0.3030604
vt 0.4729404 0.25462553
vt 0.46554393 0.2555799
vt 0.4567159 0.2553413
vt 0.48176843 0.2978113
vt 0.46554393 0.2555799
vt 0.4691229 0.25677288
vt 0.4841544 0.26750967
vt 0.47508776 0.259636
vt 0.45504576 0.3078323
vt 0.44526333 0.28588152
vt 0.45886326 0.2880289
vt 0.46077204 0.3030604
vt 0.49703854 0.27753067
vt 0.4879719 0.2660781
vt 0.49703854 0.27753067
vt 0.45934045 0.28540432
vt 0.44812647 0.2710886
vt 0.45504576 0.25725007
vt 0.44812647 0.2710886
vt 0.48176843 0.2818254
vt 0.48272282 0.2698956
vt 0.45981765 0.2978113
vt 0.45504576 0.25725007
vt 0.48176843 0.2978113
vt 0.47985965 0.28540432
vt 0.49465257 0.28564292
vt 0.4846316 0.28301838
vt 0.48176843 0.2818254
vt 0.4834386 0.27442893
vt 0.4524212 0.25915882
vt 0.45957905 0.31045687
vt 0.45504576 0.25820446
vt 0.4524212 0.25915882
vt 0.45981765 0.2978113
vt 0.46077204 0.3030604
vt 0.47484916 0.28492713
vt 0.44192296 0.28039384
vt 0.47985965 0.28540432
vt 0.47985965 0.28540432
vt 0.45480716 0.3090253
vt 0.45504576 0.3078323
vt 0.49465257 0.28564292
vt 0.44574052 0.28110963
vt 0.44574052 0.26846406
vt 0.44597912 0.27800786
vt 0.46387377 0.30282182
vt 0.45957905 0.31045687
vt 0.46602112 0.3087867
vt 0.45886326 0.2880289
vt 0.44526333 0.28588152
vt 0.46936148 0.30592355
vt 0.46387377 0.30282182
vt 0.46602112 0.3087867
vt 0.46387377 0.30282182
vt 0.4939368 0.28588152
vt 0.4691229 0.25677288
vt 0.4841544 0.26750967
vt 0.48272282 0.2698956
vt 0.4834386 0.27442893
vt 0.45886326 0.2880289
vt 0.47198603 0.25295535
vt 0.4841544 0.26750967
vt 0.4691229 0.25677288
vt 0.47508776 0.259636
vt 0.4939368 0.28588152
vt 0.4567159 0.2553413
vt 0.44574052 0.28110963
vt 0.4846316 0.28301838
vt 0.4846316 0.28301838
vt 0.45504576 0.25725007
vt 0.44574052 0.28110963
vt 0.45504576 0.25820446
vt 0.44574052 0.26846406
vt 0.45480716 0.3090253
vn 0.9805119 -0.19382644 0.03205781
vn 0.9117724 -0.37713182 0.16261218
vn 0.94232327 -0.28547913 0.17472418
vn 0.4153204 0.6921494 -0.59028655
vn -0.24152374 0.86781704 -0.43423483
vn -0.27971232 0.72270024 -0.63203275
vn -0.40955365 0.8754548 -0.25660226
vn -0.43246686 0.86781704 -0.24467532
vn 0.72846705 0.40955365 0.5491826
vn 0.7819311 0.28735006 0.5531851
vn 0.5986258 0.57758355 0.55501753
vn -0.89073014 -0.3847695 0.24197575
vn -0.8219907 -0.35421866 0.44593763
vn -0.89073014 -0.4153204 0.18468569
vn -0.233886 0.47065544 0.85075307
vn 0.20910192 -0.15563786 0.96542907
vn -0.1269579 0.32553875 0.9369665
vn 0.30075455 -0.85067064 -0.43116844
vn 0.5069731 -0.675003 -0.53604966
vn 0.17091328 -0.6597276 -0.7318116
vn -0.39427817 -0.74374247 0.53980726
vn -0.38664043 -0.7742934 0.50097793
vn -0.47829318 -0.7742934 0.41437346
vn -0.05058062 0.63868535 -0.7678037
vn -0.20333517 0.47829318 -0.85433626
vn -0.08876932 0.42482913 -0.9009108
vn -0.26443696 -0.72082937 0.6406857
vn -0.47065544 0.85254157 -0.22728023
vn -0.49356866 0.8449038 -0.20622195
vn 0.2167396 -0.86594605 -0.45073432
vn 0.23965281 -0.95759875 0.15990987
vn 0.32366776 -0.9194101 0.22343735
vn -0.6157721 0.47065544 -0.63190836
vn -0.4019159 -0.7819311 0.4764949
vn -0.4630177 -0.78956884 0.40273526
vn 0.018158853 -0.5833503 -0.8120177
vn 0.17091328 -0.6826407 -0.710486
vn -0.47065544 0.85254157 -0.22728023
vn -0.63868535 0.27971232 0.7168278
vn -0.730338 0.17278421 0.66087216
vn -0.62340987 0.30262554 0.7209562
vn 0.094536066 -0.59098804 -0.8011218
vn 0.85067064 0.3408141 -0.40025648
vn 0.78956884 0.44010448 -0.42765537
vn 0.94232327 0.18805969 -0.27687618
vn 0.49933538 -0.40004498 0.7685234
vn 0.46878445 -0.43823355 0.7669371
vn 0.8735838 0.020029783 0.4862614
vn -0.74561346 -0.65208983 0.13725676
vn -0.6463231 -0.74374247 0.17062706
vn 0.7361048 0.592859 -0.32660052
vn 0.85067064 -0.42295814 0.31219533
vn -0.91364336 0.31026328 -0.2626642
vn -0.91364336 0.31026328 -0.2626642
vn -0.82962835 0.24152374 -0.5033717
vn -0.814353 -0.49169764 -0.30832225
vn -0.82962835 -0.46878445 -0.30324566
vn -0.730338 -0.56043714 -0.39053378
vn 0.32366776 -0.52988625 0.7838748
vn -0.18805969 0.57758355 0.79437447
vn 0.25492823 -0.9117724 0.32199806
vn 0.28547913 -0.85067064 0.44143084
vn 0.5986258 0.6081344 0.5213634
vn -0.95183194 0.30262554 0.049332947
vn -0.9671074 0.233886 0.10000282
vn 0.33894318 -0.14800012 0.9290928
vn -0.9060056 -0.3847695 0.17636959
vn -0.89073014 -0.37713182 -0.25371525
vn 0.36185634 0.31026328 0.8790886
vn -0.3790028 0.4019159 0.8335589
vn -0.0658561 -0.49169764 -0.86827207
vn -0.49356866 -0.63681436 0.59233224
vn -0.012392044 -0.25492823 0.9668806
vn -0.012392044 -0.24729049 0.9688622
vn 0.40768272 0.78380203 0.46845406
vn 0.3847695 0.7990775 0.4619822
vn 0.32366776 0.9365566 0.13453987
vn -0.74561346 -0.33130544 0.5781845
vn -0.74561346 -0.24729049 0.6187956
vn 0.3847695 0.91364336 -0.1311801
vn 0.3847695 0.91364336 -0.1311801
vn 0.3847695 0.91364336 -0.1311801
vn 0.675003 0.69978714 -0.23381382
vn -0.592859 0.0658561 -0.80260897
vn -0.539395 -0.83539516 -0.10567849
vn -0.539395 -0.83539516 -0.10567849
vn -0.63868535 -0.72082937 -0.26923242
vn -0.49356866 -0.46114677 -0.73738295
vn -0.9365566 0.14223337 0.32036147
vn 0.78945297 -0.61381114 -0
vn -0.096407056 -0.8888592 -0.44792295
vn -0.07349384 -0.95759875 -0.27857366
vn -0.07349384 -0.89649695 -0.43691173
vn 0.63681436 0.55467033 -0.5355449
vn 0.86594605 -0.40004498 0.30016905
vn -0.012392044 -0.14036238 0.99002266
vn -0.539395 -0.43059587 -0.7236299
vn -0.7761643 0.48593092 -0.40179616
vn 0.42295814 -0.6062635 0.673462
vn -0.7990775 -0.14036238 0.584614
vn -0.20333517 -0.72082937 0.6626159
vn 0.36185634 -0.48405993 0.7967095
vn -0.104044795 0.42482913 0.89927465
g FifeballMesh:FireBallMesh2_0
f 3/3/3 2/2/2 1/1/1
f 6/6/6 5/5/5 4/4/4
f 8/8/8 7/7/7 6/6/6
f 11/11/11 10/10/10 9/9/9
f 14/14/14 13/13/13 12/12/12
f 17/17/17 16/16/16 15/15/15
f 20/20/20 19/19/19 18/18/18
f 23/23/23 22/22/22 21/21/21
f 26/26/26 25/25/25 24/24/24
f 21/21/21 22/22/22 27/27/27
f 29/29/29 6/6/6 28/28/28
f 32/32/32 31/31/31 30/30/30
f 25/25/25 33/33/33 6/6/6
f 35/35/35 34/34/34 22/22/22
f 23/23/23 35/35/35 22/22/22
f 7/7/7 5/5/5 6/6/6
f 20/20/20 37/37/37 36/36/36
f 29/29/29 38/38/38 6/6/6
f 41/41/41 40/40/40 39/39/39
f 36/36/36 42/42/42 20/20/20
f 44/44/44 4/4/4 43/43/43
f 45/45/45 1/1/1 43/43/43
f 47/47/47 46/46/46 16/16/16
f 48/48/48 9/9/9 10/10/10
f 50/50/50 23/23/23 49/49/49
f 45/45/45 4/4/4 51/51/51
f 2/2/2 3/3/3 52/52/52
f 55/55/55 54/54/54 53/53/53
f 58/58/58 57/57/57 56/56/56
f 59/59/59 47/47/47 16/16/16
f 4/4/4 24/24/24 6/6/6
f 20/20/20 18/18/18 30/30/30
f 15/15/15 60/60/60 17/17/17
f 62/62/62 61/61/61 32/32/32
f 63/63/63 11/11/11 9/9/9
f 54/54/54 65/65/65 64/64/64
f 46/46/46 66/66/66 16/16/16
f 67/67/67 14/14/14 12/12/12
f 57/57/57 68/68/68 56/56/56
f 17/17/17 60/60/60 69/69/69
f 39/39/39 70/70/70 41/41/41
f 42/42/42 36/36/36 71/71/71
f 72/72/72 23/23/23 21/21/21
f 74/74/74 73/73/73 16/16/16
f 77/77/77 76/76/76 75/75/75
f 45/45/45 43/43/43 4/4/4
f 79/79/79 78/78/78 13/13/13
f 82/82/82 81/81/81 80/80/80
f 4/4/4 83/83/83 51/51/51
f 32/32/32 61/61/61 31/31/31
f 13/13/13 78/78/78 12/12/12
f 84/84/84 26/26/26 24/24/24
f 87/87/87 86/86/86 85/85/85
f 71/71/71 36/36/36 88/88/88
f 65/65/65 89/89/89 64/64/64
f 90/90/90 1/1/1 2/2/2
f 15/15/15 16/16/16 66/66/66
f 93/93/93 92/92/92 91/91/91
f 30/30/30 31/31/31 92/92/92
f 4/4/4 44/44/44 94/94/94
f 24/24/24 4/4/4 94/94/94
f 3/3/3 1/1/1 45/45/45
f 90/90/90 2/2/2 95/95/95
f 18/18/18 32/32/32 30/30/30
f 74/74/74 16/16/16 96/96/96
f 88/88/88 97/97/97 71/71/71
f 54/54/54 55/55/55 98/98/98
f 25/25/25 6/6/6 24/24/24
f 76/76/76 11/11/11 75/75/75
f 63/63/63 75/75/75 11/11/11
f 87/87/87 58/58/58 86/86/86
f 87/87/87 57/57/57 58/58/58
f 64/64/64 53/53/53 54/54/54
f 99/99/99 62/62/62 32/32/32
f 13/13/13 100/100/100 79/79/79
f 96/96/96 16/16/16 17/17/17
f 30/30/30 92/92/92 93/93/93
f 102/102/102 101/101/101 59/59/59
f 16/16/16 102/102/102 59/59/59
f 39/39/39 103/103/103 70/70/70
f 38/38/38 8/8/8 6/6/6
f 2/2/2 52/52/52 95/95/95
f 50/50/50 35/35/35 23/23/23
f 20/20/20 30/30/30 37/37/37
