g FlameTurret_05
v 0.16665113 0.74283683 -0.9881117
v 0.34216297 0.6886219 -1.2632409
v 0.3985809 0.7762979 -1.1949136
v 0.28111535 0.8255638 -1.0119305
v 0.37064332 0.6034043 -1.195169
v 0.27128136 0.66068435 -0.9644525
v 0.70621353 0.5785638 -1.2272893
v 0.6302553 0.49756074 -1.183068
v 0.66499364 0.6620573 -1.1558648
v 0.3822015 0.74283683 -0.9881117
v 0.42706126 0.69108033 -1.1268417
v 0.42706126 0.69108033 -1.1268417
v 0.3822015 0.74283683 -0.9881117
v 0.83293843 0.4564047 -0.90886474
v 0.7542981 0.5412072 -0.88890934
v 0.5890673 0.5810542 -1.1116437
v 0.6704854 0.4561813 -0.8876641
v 0.5890673 0.5810542 -1.1116437
v 0.6770946 0.47968078 -0.54771966
v 0.5995718 0.3968897 -0.55158305
v 0.74912566 0.37134683 -0.90761954
v 0.6704854 0.4561813 -0.8876641
v 0.5995718 0.3968897 -0.55158305
v 0.6770946 0.31419444 -0.55515903
v 0.6441123 0.46167302 -0.23379707
v 0.7546174 0.39698553 -0.5513276
v 0.7217947 0.38421404 -0.23379707
v 0.56642985 0.38421404 -0.23379707
v 0.64408034 0.30675507 -0.23379707
v 0.56642985 0.38421404 -0.23379707
v 0.3708349 0.38351166 0.2783705
v 0.42326176 0.5478165 0.2783705
v 0.7902179 0.38351166 0.2783705
v 0.737791 0.21920669 0.2783705
v 0.5805423 0.6025741 -0.24270523
v 0.42326176 0.5478165 -0.24270523
v 0.7902179 0.38351166 -0.24270523
v 0.737791 0.5478165 -0.24270523
v 0.737791 0.5478165 0.2783705
v 0.5805423 0.6025741 0.2783705
v 0.5805423 0.6025741 -0.24270523
v 0.737791 0.5478165 -0.24270523
v 0.42326176 0.5478165 0.2783705
v 0.42326176 0.5478165 -0.24270523
v 0.42326176 0.21920669 0.2783705
v 0.5805423 0.1644491 0.2783705
v 0.5805423 0.1644491 -0.24270523
v 0.42326176 0.21920669 -0.24270523
v 0.737791 0.21920669 0.2783705
v 0.737791 0.21920669 -0.24270523
v 0.3708349 0.38351166 -0.24270523
v 0.3708349 0.38351166 0.2783705
v 0.7902179 0.38351166 -0.24270523
v 0.7902179 0.38351166 0.2783705
v -0.39484632 0.7762979 -1.1949136
v -0.33842838 0.6886219 -1.2632409
v -0.16291654 0.74283683 -0.9881117
v -0.2773807 0.8255638 -1.0119305
v -0.36690867 0.6034043 -1.195169
v -0.26754665 0.66068435 -0.9644525
v -0.7024789 0.5785638 -1.2272893
v -0.62652063 0.49756074 -1.183068
v -0.66125906 0.6620573 -1.1558648
v -0.4233266 0.69108033 -1.1268417
v -0.37846684 0.74283683 -0.9881117
v -0.37846684 0.74283683 -0.9881117
v -0.4233266 0.69108033 -1.1268417
v -0.7505635 0.5412072 -0.88890934
v -0.8292037 0.4564047 -0.90886474
v -0.58533263 0.5810542 -1.1116437
v -0.6667508 0.4561813 -0.8876641
v -0.58533263 0.5810542 -1.1116437
v -0.59583724 0.3968897 -0.55158305
v -0.67336 0.47968078 -0.54771966
v -0.59583724 0.3968897 -0.55158305
v -0.6667508 0.4561813 -0.8876641
v -0.745391 0.37134683 -0.90761954
v -0.67336 0.31419444 -0.55515903
v -0.75088274 0.39698553 -0.5513276
v -0.64037764 0.46167302 -0.25011265
v -0.71806014 0.38421404 -0.25011265
v -0.56269526 0.38421404 -0.25011265
v -0.6403457 0.30675507 -0.25011265
v -0.56269526 0.38421404 -0.25011265
v -0.57680774 0.6025741 0.2783705
v -0.41952717 0.5478165 0.2783705
v -0.78648317 0.38351166 0.2783705
v -0.7340883 0.5478165 0.2783705
v -0.78648317 0.38351166 -0.24270523
v -0.7340883 0.21920669 -0.24270523
v -0.36710024 0.38351166 -0.24270523
v -0.41952717 0.5478165 -0.24270523
v -0.57680774 0.6025741 -0.24270523
v -0.57680774 0.6025741 0.2783705
v -0.7340883 0.5478165 0.2783705
v -0.7340883 0.5478165 -0.24270523
v -0.41952717 0.5478165 -0.24270523
v -0.41952717 0.5478165 0.2783705
v -0.57680774 0.1644491 -0.24270523
v -0.57680774 0.1644491 0.2783705
v -0.41952717 0.21920669 0.2783705
v -0.41952717 0.21920669 -0.24270523
v -0.7340883 0.21920669 -0.24270523
v -0.7340883 0.21920669 0.2783705
v -0.36710024 0.38351166 0.2783705
v -0.36710024 0.38351166 -0.24270523
v -0.78648317 0.38351166 -0.24270523
v -0.78648317 0.38351166 0.2783705
v 0.3708349 0.38351166 -0.24270523
v 0.737791 0.21920669 -0.24270523
v 0.5805423 0.1644491 -0.24270523
v 0.42326176 0.21920669 -0.24270523
v 0.5805423 0.6025741 0.2783705
v 0.737791 0.5478165 0.2783705
v 0.5805423 0.1644491 0.2783705
v 0.42326176 0.21920669 0.2783705
v -0.36710024 0.38351166 0.2783705
v -0.7340883 0.21920669 0.2783705
v -0.57680774 0.1644491 0.2783705
v -0.41952717 0.21920669 0.2783705
v -0.57680774 0.1644491 -0.24270523
v -0.41952717 0.21920669 -0.24270523
v -0.57680774 0.6025741 -0.24270523
v -0.7340883 0.5478165 -0.24270523
vt 0.54523206 0.99413216
vt 0.54523206 0.9909961
vt 0.54971206 0.9909961
vt 0.54971206 0.99413216
vt 0.540304 0.9909961
vt 0.540304 0.99413216
vt 0.54523206 0.9829321
vt 0.540304 0.9829321
vt 0.54971206 0.9829321
vt 0.53582394 0.99413216
vt 0.53582394 0.9909961
vt 0.5541921 0.9909961
vt 0.5541921 0.99413216
vt 0.54523206 0.97441995
vt 0.54971206 0.97441995
vt 0.5541921 0.9829321
vt 0.5541921 0.97441995
vt 0.53582394 0.9829321
vt 0.54971206 0.9650119
vt 0.5541921 0.9650119
vt 0.540304 0.97441995
vt 0.53582394 0.97441995
vt 0.53582394 0.9650119
vt 0.540304 0.9650119
vt 0.54971206 0.9547078
vt 0.54523206 0.9650119
vt 0.54523206 0.9547078
vt 0.5541921 0.9547078
vt 0.540304 0.9547078
vt 0.53582394 0.9547078
vt 0.5739043 0.9417157
vt 0.5752483 0.9466437
vt 0.5855524 0.9417157
vt 0.58420837 0.9367876
vt 0.57972836 0.94798774
vt 0.5752483 0.9466437
vt 0.5855524 0.9417157
vt 0.58420837 0.9466437
vt 0.5837604 0.9103554
vt 0.5837604 0.9058753
vt 0.56808025 0.9058753
vt 0.56808025 0.9103554
vt 0.5837604 0.9018433
vt 0.56808025 0.9018433
vt 0.5837604 0.9282756
vt 0.5837604 0.9242435
vt 0.56808025 0.9242435
vt 0.56808025 0.9282756
vt 0.5837604 0.91976345
vt 0.56808025 0.91976345
vt 0.56808025 0.9332036
vt 0.5837604 0.9332036
vt 0.56808025 0.91528344
vt 0.5837604 0.91528344
vt 0.54971206 0.9909961
vt 0.54523206 0.9909961
vt 0.54523206 0.99413216
vt 0.54971206 0.99413216
vt 0.540304 0.9909961
vt 0.540304 0.99413216
vt 0.54523206 0.9829321
vt 0.540304 0.9829321
vt 0.54971206 0.9829321
vt 0.53582394 0.9909961
vt 0.53582394 0.99413216
vt 0.5541921 0.99413216
vt 0.5541921 0.9909961
vt 0.54971206 0.97441995
vt 0.54523206 0.97441995
vt 0.5541921 0.9829321
vt 0.5541921 0.97441995
vt 0.53582394 0.9829321
vt 0.5541921 0.9650119
vt 0.54971206 0.9650119
vt 0.53582394 0.9650119
vt 0.53582394 0.97441995
vt 0.540304 0.97441995
vt 0.540304 0.9650119
vt 0.54523206 0.9650119
vt 0.54971206 0.9547078
vt 0.54523206 0.9547078
vt 0.5541921 0.9547078
vt 0.540304 0.9547078
vt 0.53582394 0.9547078
vt 0.57972836 0.94798774
vt 0.5752483 0.9466437
vt 0.5855524 0.9417157
vt 0.58420837 0.9466437
vt 0.5855524 0.9417157
vt 0.58420837 0.9367876
vt 0.5739043 0.9417157
vt 0.5752483 0.9466437
vt 0.56808025 0.9058753
vt 0.5837604 0.9058753
vt 0.5837604 0.9103554
vt 0.56808025 0.9103554
vt 0.56808025 0.9018433
vt 0.5837604 0.9018433
vt 0.56808025 0.9242435
vt 0.5837604 0.9242435
vt 0.5837604 0.9282756
vt 0.56808025 0.9282756
vt 0.56808025 0.91976345
vt 0.5837604 0.91976345
vt 0.5837604 0.9332036
vt 0.56808025 0.9332036
vt 0.56808025 0.91528344
vt 0.5837604 0.91528344
vt 0.5739043 0.9417157
vt 0.58420837 0.9367876
vt 0.57972836 0.93499565
vt 0.5752483 0.9367876
vt 0.57972836 0.94798774
vt 0.58420837 0.9466437
vt 0.57972836 0.93499565
vt 0.5752483 0.9367876
vt 0.5739043 0.9417157
vt 0.58420837 0.9367876
vt 0.57972836 0.93499565
vt 0.5752483 0.9367876
vt 0.57972836 0.93499565
vt 0.5752483 0.9367876
vt 0.57972836 0.94798774
vt 0.58420837 0.9466437
vn -0.86666 -0.05098003 -0.49628773
vn -0.41176152 0.066666126 -0.9088499
vn 0.07450926 0.8901892 -0.449457
vn -0.25489998 0.874503 -0.4126384
vn -0.36470306 -0.8901893 -0.27304715
vn -0.37878487 -0.9254848 -0
vn 0.6392108 0.003921509 -0.7690216
vn -0.0901953 -0.86666006 -0.49067825
vn 0.42744774 0.8980323 -0.10404974
vn 0.90587544 -0.066666186 0.4182646
vn 0.45882004 -0.05098003 0.88706553
vn 0.45882004 -0.05098003 0.88706553
vn 0.90587544 -0.066666186 0.4182646
vn 0.9921493 -0.098038495 -0.07764172
vn 0.26274312 0.9294046 0.25917777
vn -0.6313677 -0.0039215684 0.7754737
vn -0.99993086 -0.011763923 -0
vn -0.6313677 -0.0039215684 0.7754737
vn -0.019607663 0.99214923 0.12351296
vn -0.9843061 -0.019607723 -0.17537689
vn 0.098038495 -0.960777 -0.2594148
vn -0.99993086 -0.011763923 -0
vn -0.9843061 -0.019607723 -0.17537689
vn -0.02745068 -0.9921493 -0.12200926
vn -0.050914247 0.998703 -0
vn 0.9843062 -0.05098003 0.16894472
vn 0.9921493 -0.0274508 0.122009166
vn -0.99214923 -0.019607723 -0.12351291
vn -0.05091424 -0.998703 -0
vn -0.99214923 -0.019607723 -0.12351291
vn -0.003921509 0.003921509 0.9999846
vn -0.003921509 0.003921509 0.9999846
vn -0.003921509 0.003921509 0.9999846
vn -0.003921509 0.003921509 0.9999846
vn -0.003921509 0.003921509 -0.9999846
vn -0.003921509 0.003921509 -0.9999846
vn -0.003921509 0.003921509 -0.9999846
vn -0.003921509 0.003921509 -0.9999846
vn 0.722557 0.69131124 -0
vn -0.003921509 0.99999225 -0.00034526698
vn -0.003921509 0.99999225 -0.00034526698
vn 0.722557 0.69131124 -0
vn -0.3254876 0.9450908 -0.029346678
vn -0.3254876 0.9450908 -0.029346678
vn -0.722557 -0.69131136 -0
vn -0.003921509 -0.9999924 -0
vn -0.003921509 -0.9999924 -0
vn -0.722557 -0.69131136 -0
vn 0.722557 -0.6913113 -0
vn 0.722557 -0.6913113 -0
vn -0.9529338 -0.3019585 -0.027171273
vn -0.9529338 -0.3019585 -0.027171273
vn 0.9999924 0.003921509 -0
vn 0.9999924 0.003921509 -0
vn -0.074509144 0.8901892 -0.449457
vn 0.41176158 0.066666126 -0.90884984
vn 0.86666006 -0.05098003 -0.4962876
vn 0.25490004 0.874503 -0.4126384
vn 0.36470312 -0.8901893 -0.27304703
vn 0.3787849 -0.92548466 -0
vn -0.6392107 0.003921509 -0.76902163
vn 0.09019542 -0.86666006 -0.49067825
vn -0.42744768 0.8980323 -0.104050316
vn -0.45882 -0.05098003 0.88706553
vn -0.9058753 -0.066666186 0.4182649
vn -0.9058753 -0.066666186 0.4182649
vn -0.45882 -0.05098003 0.88706553
vn -0.262743 0.9294046 0.2591779
vn -0.99214923 -0.098038495 -0.077642485
vn 0.63136774 -0.0039215684 0.77547365
vn 0.99993086 -0.011763922 -0
vn 0.63136774 -0.0039215684 0.77547365
vn 0.9843062 -0.019607723 -0.17537622
vn 0.019607723 0.99214923 0.12351296
vn 0.9843062 -0.019607723 -0.17537622
vn 0.99993086 -0.011763922 -0
vn -0.098038435 -0.960777 -0.2594148
vn 0.0274508 -0.9921493 -0.12200926
vn -0.9843061 -0.05098003 0.16894542
vn 0.050914306 0.998703 -0
vn -0.99214923 -0.0274508 0.12200965
vn 0.9921493 -0.019607723 -0.123512425
vn 0.0509143 -0.998703 -0
vn 0.9921493 -0.019607723 -0.123512425
vn -0.003921509 0.003921509 0.9999846
vn -0.003921509 0.003921509 0.9999846
vn -0.003921509 0.003921509 0.9999846
vn -0.003921509 0.003921509 0.9999846
vn -0.003921509 0.003921509 -0.9999846
vn -0.003921509 0.003921509 -0.9999846
vn -0.003921509 0.003921509 -0.9999846
vn -0.003921509 0.003921509 -0.9999846
vn -0.003921509 0.99999225 -0.00034526698
vn -0.003921509 0.99999225 -0.00034526698
vn -0.722557 0.6913113 -0
vn -0.722557 0.6913113 -0
vn 0.32548773 0.9450908 -0.029345663
vn 0.32548773 0.9450908 -0.029345663
vn -0.003921509 -0.9999924 -0
vn -0.003921509 -0.9999924 -0
vn 0.722557 -0.6913113 -0
vn 0.722557 -0.6913113 -0
vn -0.722557 -0.69131136 -0
vn -0.722557 -0.69131136 -0
vn 0.9529339 -0.3019585 -0.027166884
vn 0.9529339 -0.3019585 -0.027166884
vn -0.99999225 0.003921509 -0.00034492963
vn -0.99999225 0.003921509 -0.00034492963
vn -0.003921509 0.003921509 -0.9999846
vn -0.003921509 0.003921509 -0.9999846
vn -0.003921509 0.003921509 -0.9999846
vn -0.003921509 0.003921509 -0.9999846
vn -0.003921509 0.003921509 0.9999846
vn -0.003921509 0.003921509 0.9999846
vn -0.003921509 0.003921509 0.9999846
vn -0.003921509 0.003921509 0.9999846
vn -0.003921509 0.003921509 0.9999846
vn -0.003921509 0.003921509 0.9999846
vn -0.003921509 0.003921509 0.9999846
vn -0.003921509 0.003921509 0.9999846
vn -0.003921509 0.003921509 -0.9999846
vn -0.003921509 0.003921509 -0.9999846
vn -0.003921509 0.003921509 -0.9999846
vn -0.003921509 0.003921509 -0.9999846
g FlameTurret_05_0
f 3/3/3 2/2/2 1/1/1
f 4/4/4 3/3/3 1/1/1
f 1/1/1 2/2/2 5/5/5
f 6/6/6 1/1/1 5/5/5
f 5/5/5 2/2/2 7/7/7
f 8/8/8 5/5/5 7/7/7
f 7/7/7 2/2/2 3/3/3
f 9/9/9 7/7/7 3/3/3
f 5/5/5 11/11/11 10/10/10
f 6/6/6 5/5/5 10/10/10
f 13/13/13 12/12/12 3/3/3
f 4/4/4 13/13/13 3/3/3
f 9/9/9 15/15/15 14/14/14
f 7/7/7 9/9/9 14/14/14
f 15/15/15 9/9/9 16/16/16
f 17/17/17 15/15/15 16/16/16
f 3/3/3 12/12/12 16/16/16
f 9/9/9 3/3/3 16/16/16
f 18/18/18 11/11/11 5/5/5
f 8/8/8 18/18/18 5/5/5
f 17/17/17 20/20/20 19/19/19
f 15/15/15 17/17/17 19/19/19
f 23/23/23 22/22/22 21/21/21
f 24/24/24 23/23/23 21/21/21
f 8/8/8 7/7/7 14/14/14
f 21/21/21 8/8/8 14/14/14
f 22/22/22 18/18/18 8/8/8
f 21/21/21 22/22/22 8/8/8
f 26/26/26 19/19/19 25/25/25
f 27/27/27 26/26/26 25/25/25
f 28/28/28 25/25/25 19/19/19
f 20/20/20 28/28/28 19/19/19
f 26/26/26 24/24/24 21/21/21
f 14/14/14 26/26/26 21/21/21
f 14/14/14 15/15/15 19/19/19
f 26/26/26 14/14/14 19/19/19
f 26/26/26 27/27/27 29/29/29
f 24/24/24 26/26/26 29/29/29
f 30/30/30 23/23/23 24/24/24
f 29/29/29 30/30/30 24/24/24
f 33/33/33 32/32/32 31/31/31
f 34/34/34 33/33/33 31/31/31
f 37/37/37 36/36/36 35/35/35
f 38/38/38 37/37/37 35/35/35
f 41/41/41 40/40/40 39/39/39
f 42/42/42 41/41/41 39/39/39
f 43/43/43 40/40/40 41/41/41
f 44/44/44 43/43/43 41/41/41
f 47/47/47 46/46/46 45/45/45
f 48/48/48 47/47/47 45/45/45
f 49/49/49 46/46/46 47/47/47
f 50/50/50 49/49/49 47/47/47
f 45/45/45 52/52/52 51/51/51
f 48/48/48 45/45/45 51/51/51
f 39/39/39 54/54/54 53/53/53
f 42/42/42 39/39/39 53/53/53
f 49/49/49 50/50/50 53/53/53
f 54/54/54 49/49/49 53/53/53
f 57/57/57 56/56/56 55/55/55
f 58/58/58 57/57/57 55/55/55
f 59/59/59 56/56/56 57/57/57
f 60/60/60 59/59/59 57/57/57
f 61/61/61 56/56/56 59/59/59
f 62/62/62 61/61/61 59/59/59
f 55/55/55 56/56/56 61/61/61
f 63/63/63 55/55/55 61/61/61
f 65/65/65 64/64/64 59/59/59
f 60/60/60 65/65/65 59/59/59
f 55/55/55 67/67/67 66/66/66
f 58/58/58 55/55/55 66/66/66
f 69/69/69 68/68/68 63/63/63
f 61/61/61 69/69/69 63/63/63
f 70/70/70 63/63/63 68/68/68
f 71/71/71 70/70/70 68/68/68
f 70/70/70 67/67/67 55/55/55
f 63/63/63 70/70/70 55/55/55
f 59/59/59 64/64/64 72/72/72
f 62/62/62 59/59/59 72/72/72
f 74/74/74 73/73/73 71/71/71
f 68/68/68 74/74/74 71/71/71
f 77/77/77 76/76/76 75/75/75
f 78/78/78 77/77/77 75/75/75
f 69/69/69 61/61/61 62/62/62
f 77/77/77 69/69/69 62/62/62
f 62/62/62 72/72/72 76/76/76
f 77/77/77 62/62/62 76/76/76
f 80/80/80 74/74/74 79/79/79
f 81/81/81 80/80/80 79/79/79
f 74/74/74 80/80/80 82/82/82
f 73/73/73 74/74/74 82/82/82
f 77/77/77 78/78/78 79/79/79
f 69/69/69 77/77/77 79/79/79
f 74/74/74 68/68/68 69/69/69
f 79/79/79 74/74/74 69/69/69
f 83/83/83 81/81/81 79/79/79
f 78/78/78 83/83/83 79/79/79
f 78/78/78 75/75/75 84/84/84
f 83/83/83 78/78/78 84/84/84
f 87/87/87 86/86/86 85/85/85
f 88/88/88 87/87/87 85/85/85
f 91/91/91 90/90/90 89/89/89
f 92/92/92 91/91/91 89/89/89
f 95/95/95 94/94/94 93/93/93
f 96/96/96 95/95/95 93/93/93
f 98/98/98 97/97/97 93/93/93
f 94/94/94 98/98/98 93/93/93
f 101/101/101 100/100/100 99/99/99
f 102/102/102 101/101/101 99/99/99
f 104/104/104 103/103/103 99/99/99
f 100/100/100 104/104/104 99/99/99
f 106/106/106 105/105/105 101/101/101
f 102/102/102 106/106/106 101/101/101
f 95/95/95 96/96/96 107/107/107
f 108/108/108 95/95/95 107/107/107
f 107/107/107 103/103/103 104/104/104
f 108/108/108 107/107/107 104/104/104
f 109/109/109 36/36/36 37/37/37
f 110/110/110 109/109/109 37/37/37
f 109/109/109 110/110/110 111/111/111
f 112/112/112 109/109/109 111/111/111
f 113/113/113 32/32/32 33/33/33
f 114/114/114 113/113/113 33/33/33
f 115/115/115 34/34/34 31/31/31
f 116/116/116 115/115/115 31/31/31
f 117/117/117 86/86/86 87/87/87
f 118/118/118 117/117/117 87/87/87
f 117/117/117 118/118/118 119/119/119
f 120/120/120 117/117/117 119/119/119
f 121/121/121 90/90/90 91/91/91
f 122/122/122 121/121/121 91/91/91
f 123/123/123 92/92/92 89/89/89
f 124/124/124 123/123/123 89/89/89
