g FlameTurret_02_CorpsePart
v 0.5275463 1.3881222 -0.68616295
v 0.5275463 1.287839 -0.9870126
v 0.5275463 0.98813236 -0.2804579
v 0.5275463 1.287839 -0.38535142
v 0.5275463 0.68838763 -0.9870126
v -0.5223031 0.6821009 -0.99333745
v -0.5223031 0.57972217 -0.68616295
v 0.5275463 0.5881425 -0.68616295
v 0.5275463 1.287839 -0.38535142
v -0.5223031 1.2941638 -0.3790266
v -0.5223031 1.3965427 -0.68616295
v 0.5275463 1.3881222 -0.68616295
v 0.5275463 1.287839 -0.9870126
v -0.5223031 1.2941638 -0.99333745
v -0.5223031 0.98813236 -1.1004409
v 0.5275463 0.98813236 -1.0919061
v 0.5275463 0.68838763 -0.38535142
v -0.5223031 0.6821009 -0.3790266
v -0.5223031 0.98813236 -0.2718851
v 0.5275463 0.98813236 -0.2804579
v -0.5223031 0.6821009 -0.3790266
v 0.5275463 0.68838763 -0.38535142
v -0.5223031 0.98813236 -1.1004409
v -0.5223031 0.6821009 -0.3790266
v -0.5223031 0.57972217 -0.68616295
v -0.5223031 0.6821009 -0.99333745
v -0.5223031 0.98813236 -0.2718851
v -0.5223031 1.2941638 -0.99333745
v -0.5223031 1.3965427 -0.68616295
v -0.5223031 1.2941638 -0.3790266
v 0.5275463 0.98813236 -1.0919061
v 0.5275463 0.68838763 -0.38535142
v 0.5275463 0.5881425 -0.68616295
v 0.5275463 0.68838763 -0.9870126
vt 0.57166433 0.9682417
vt 0.581965 0.9712461
vt 0.55750084 0.9815468
vt 0.5609344 0.9712461
vt 0.58754456 0.92961407
vt 0.6214511 0.92961407
vt 0.6214511 0.91845495
vt 0.58754456 0.91845495
vt 0.58754456 0.97425044
vt 0.6214511 0.97425044
vt 0.6214511 0.9630914
vt 0.58754456 0.9630914
vt 0.58754456 0.9519323
vt 0.6214511 0.9519323
vt 0.6214511 0.9407731
vt 0.58754456 0.9407731
vt 0.58754456 0.9965687
vt 0.6214511 0.9965687
vt 0.6214511 0.9854096
vt 0.58754456 0.9854096
vt 0.6214511 0.9072958
vt 0.58754456 0.9072958
vt 0.5849694 0.9815468
vt 0.5609344 0.9922767
vt 0.57166433 0.9952811
vt 0.581965 0.9922767
vt 0.55750084 0.9815468
vt 0.581965 0.9712461
vt 0.57166433 0.9682417
vt 0.5609344 0.9712461
vt 0.5849694 0.9815468
vt 0.5609344 0.9922767
vt 0.57166433 0.9952811
vt 0.581965 0.9922767
vn 0.9999924 0.003921509 -0
vn 0.9999924 0.003921509 -0
vn 0.9999924 0.003921509 -0
vn 0.9999924 0.003921509 -0
vn 0.011764646 -0.7097985 -0.70430654
vn 0.011764646 -0.7097985 -0.70430654
vn 0.011763922 -0.99993086 -0
vn 0.011763922 -0.99993086 -0
vn 0.011764646 0.70979846 0.70430654
vn 0.011764646 0.70979846 0.70430654
vn 0.011763923 0.99993086 -0
vn 0.011763923 0.99993086 -0
vn 0.011764646 0.70979846 -0.70430654
vn 0.011764646 0.70979846 -0.70430654
vn 0.011764646 0.003921509 -0.9999231
vn 0.011764646 0.003921509 -0.9999231
vn 0.011764646 -0.7097985 0.70430654
vn 0.011764646 -0.7097985 0.70430654
vn 0.011764646 0.003921509 0.9999231
vn 0.011764646 0.003921509 0.9999231
vn 0.011764646 -0.7097985 0.70430654
vn 0.011764646 -0.7097985 0.70430654
vn -0.99999225 0.003921509 -0.00034492963
vn -0.99999225 0.003921509 -0.00034492963
vn -0.99999225 0.003921509 -0.00034492963
vn -0.99999225 0.003921509 -0.00034492963
vn -0.99999225 0.003921509 -0.00034492963
vn -0.99999225 0.003921509 -0.00034492963
vn -0.99999225 0.003921509 -0.00034492963
vn -0.99999225 0.003921509 -0.00034492963
vn 0.9999924 0.003921509 -0
vn 0.9999924 0.003921509 -0
vn 0.9999924 0.003921509 -0
vn 0.9999924 0.003921509 -0
g FlameTurret_02_CorpsePart_0
f 3/3/3 2/2/2 1/1/1
f 4/4/4 3/3/3 1/1/1
f 7/7/7 6/6/6 5/5/5
f 8/8/8 7/7/7 5/5/5
f 11/11/11 10/10/10 9/9/9
f 12/12/12 11/11/11 9/9/9
f 15/15/15 14/14/14 13/13/13
f 16/16/16 15/15/15 13/13/13
f 19/19/19 18/18/18 17/17/17
f 20/20/20 19/19/19 17/17/17
f 14/14/14 11/11/11 12/12/12
f 13/13/13 14/14/14 12/12/12
f 10/10/10 19/19/19 20/20/20
f 9/9/9 10/10/10 20/20/20
f 21/21/21 7/7/7 8/8/8
f 22/22/22 21/21/21 8/8/8
f 6/6/6 15/15/15 16/16/16
f 5/5/5 6/6/6 16/16/16
f 25/25/25 24/24/24 23/23/23
f 26/26/26 25/25/25 23/23/23
f 29/29/29 28/28/28 27/27/27
f 30/30/30 29/29/29 27/27/27
f 23/23/23 24/24/24 27/27/27
f 28/28/28 23/23/23 27/27/27
f 31/31/31 2/2/2 3/3/3
f 32/32/32 31/31/31 3/3/3
f 31/31/31 32/32/32 33/33/33
f 34/34/34 31/31/31 33/33/33
