g FlashSphere
v -1.5497208E-06 0.092388794 0.03826812
v 0.03159988 0.08681621 0.03826812
v 0.024183996 0.06644541 0.070711836
v -1.5497208E-06 0.070711836 0.070711836
v 1.5050173E-06 0.03826812 0.092388794
v 0.013087638 0.035960943 0.092388794
v 1.5050173E-06 -1.5050173E-06 0.099999994
v -1.5497208E-06 0.099999994 -1.5050173E-06
v 0.034203067 0.09396963 -1.5050173E-06
v 0.06427859 0.07660487 -1.5050173E-06
v 0.059386548 0.07077287 0.03826812
v 0.045452014 0.054168016 0.070711836
v 0.024599038 0.029314116 0.092388794
v 0.08660253 0.049999252 -1.5050173E-06
v 0.08001064 0.046193644 0.03826812
v 0.061235942 0.035356686 0.070711836
v 0.03314104 0.019133307 0.092388794
v 0.090984926 0.01604183 0.03826812
v 0.06963755 0.012278952 0.070711836
v 0.037688226 0.006645322 0.092388794
v 0.09848015 0.017366312 -1.5050173E-06
v 0.090984926 -0.016041785 0.03826812
v 0.06963755 -0.012278907 0.070711836
v 0.037688226 -0.006645277 0.092388794
v 0.09848015 -0.017366268 -1.5050173E-06
v 0.08660253 -0.0499992 -1.5050173E-06
v 0.08001064 -0.046193603 0.03826812
v 0.061235942 -0.03535665 0.070711836
v 0.03314104 -0.019133262 0.092388794
v 0.045452014 -0.054167964 0.070711836
v 0.024599038 -0.029314078 0.092388794
v 0.059386548 -0.07077283 0.03826812
v 0.06427859 -0.07660483 -1.5050173E-06
v 0.03159988 -0.08681616 0.03826812
v 0.024183996 -0.066445366 0.070711836
v 0.013087638 -0.035960905 0.092388794
v 0.034203067 -0.09396958 -1.5050173E-06
v 1.5050173E-06 -0.038268067 0.092388794
v 1.5050173E-06 -0.09999995 -1.5050173E-06
v 1.5050173E-06 -0.09238875 0.03826812
v 1.5050173E-06 -0.07071179 0.070711836
v -0.034203112 -0.09396958 -1.5050173E-06
v -0.031599924 -0.08681616 0.03826812
v -0.02418404 -0.066445366 0.070711836
v -0.013087682 -0.035960905 0.092388794
v -0.059386596 -0.07077283 0.03826812
v -0.04545206 -0.054167964 0.070711836
v -0.024599083 -0.029314078 0.092388794
v -0.06427863 -0.07660483 -1.5050173E-06
v -0.08001068 -0.046193603 0.03826812
v -0.06123598 -0.03535665 0.070711836
v -0.033141077 -0.019133262 0.092388794
v -0.08660257 -0.0499992 -1.5050173E-06
v -0.098480195 -0.017366268 -1.5050173E-06
v -0.09098497 -0.016041785 0.03826812
v -0.0696376 -0.012278907 0.070711836
v -0.03768827 -0.006645277 0.092388794
v -0.098480195 0.017366312 -1.5050173E-06
v -0.09098497 0.01604183 0.03826812
v -0.0696376 0.012278952 0.070711836
v -0.03768827 0.006645322 0.092388794
v -0.08001068 0.046193644 0.03826812
v -0.06123598 0.035356686 0.070711836
v -0.033141077 0.019133307 0.092388794
v -0.08660257 0.049999252 -1.5050173E-06
v -0.059386596 0.07077287 0.03826812
v -0.04545206 0.054168016 0.070711836
v -0.024599083 0.029314116 0.092388794
v -0.06427863 0.07660487 -1.5050173E-06
v -0.034203112 0.09396963 -1.5050173E-06
v -0.031599924 0.08681621 0.03826812
v -0.02418404 0.06644541 0.070711836
v -0.013087682 0.035960943 0.092388794
vt 0.8080385 0.49019206
vt 0.7889677 0.38484865
vt 0.6790836 0.42389837
vt 0.6917975 0.48837578
vt 0.592811 0.48928392
vt 0.58645415 0.45749927
vt 0.5001815 0.49200833
vt 0.9642372 0.49200833
vt 0.9360851 0.33399326
vt 0.8552613 0.19414082
vt 0.73447967 0.29312727
vt 0.64457464 0.36668602
vt 0.56919956 0.4302553
vt 0.7317554 0.0906137
vt 0.6518396 0.22501732
vt 0.592811 0.32491192
vt 0.54377186 0.41027638
vt 0.55103695 0.18869202
vt 0.5301499 0.30311674
vt 0.5138035 0.4002869
vt 0.58100533 0.035217613
vt 0.44478542 0.18960015
vt 0.46294808 0.30402488
vt 0.48111072 0.40119505
vt 0.41935772 0.035217613
vt 0.26769954 0.0906137
vt 0.3439827 0.2268336
vt 0.40119505 0.32854444
vt 0.45114234 0.4130008
vt 0.35124776 0.3721348
vt 0.42662278 0.43479598
vt 0.26315892 0.29585168
vt 0.14419353 0.19414082
vt 0.2104872 0.38938934
vt 0.318555 0.4302553
vt 0.41118452 0.46294808
vt 0.06336972 0.33399326
vt 0.40664384 0.4947327
vt 0.036125746 0.49200833
vt 0.19232455 0.4947327
vt 0.30856553 0.49564084
vt 0.06336972 0.6509315
vt 0.21139534 0.59916794
vt 0.32127938 0.56102633
vt 0.4130008 0.5265174
vt 0.2658833 0.6917975
vt 0.3557884 0.6182388
vt 0.4302553 0.5546695
vt 0.14419353 0.790784
vt 0.34761524 0.7599075
vt 0.40755197 0.66001284
vt 0.45568302 0.5746484
vt 0.26769954 0.8943111
vt 0.41935772 0.94970715
vt 0.44841796 0.7962327
vt 0.47021315 0.681808
vt 0.4865595 0.5846379
vt 0.58100533 0.94970715
vt 0.55557764 0.79532456
vt 0.5365068 0.6799917
vt 0.5192523 0.58372974
vt 0.65547216 0.7580912
vt 0.59916794 0.6563803
vt 0.5492207 0.571924
vt 0.7317554 0.8943111
vt 0.7372041 0.6890731
vt 0.6491152 0.61279
vt 0.5728321 0.5501288
vt 0.8552613 0.790784
vt 0.9360851 0.6509315
vt 0.78987586 0.5955354
vt 0.68089986 0.5546695
vt 0.5882704 0.5219767
vn -0.0038462281 0.9269407 0.37518823
vn 0.31923681 0.8730935 0.3685046
vn 0.24231231 0.67308974 0.6987381
vn -0.0038462281 0.7192445 0.69474643
vn -0.0038462281 0.4038539 0.9148154
vn 0.13461792 0.37308407 0.9179795
vn -0.0038462281 0.0038462281 0.9999852
vn -0.0038462281 0.9807879 0.19503933
vn 0.33462173 0.9192482 0.20739096
vn 0.626935 0.7500143 0.2107867
vn 0.5961652 0.711552 0.3718612
vn 0.45770103 0.55001044 0.69856876
vn 0.25769722 0.30385196 0.91720563
vn 0.8500162 0.4884708 0.19715168
vn 0.80386144 0.46539342 0.37042645
vn 0.61924255 0.35769916 0.6989921
vn 0.35000664 0.20385003 0.9142978
vn 0.91155577 0.1576953 0.37973446
vn 0.70385957 0.12692547 0.69890743
vn 0.39616138 0.073078275 0.9152681
vn 0.96540296 0.1730802 0.19503933
vn 0.91155577 -0.1576953 0.37973446
vn 0.70385957 -0.12692547 0.69890743
vn 0.39616138 -0.073078334 0.9152681
vn 0.96540296 -0.1730802 0.19503933
vn 0.8500162 -0.48847082 0.1971516
vn 0.80386144 -0.46539348 0.3704264
vn 0.61924255 -0.3576991 0.69899213
vn 0.35000664 -0.20385003 0.9142978
vn 0.45770103 -0.55001044 0.69856876
vn 0.25769722 -0.3038519 0.91720563
vn 0.5961652 -0.711552 0.3718612
vn 0.626935 -0.75001425 0.21078683
vn 0.31923681 -0.8730935 0.3685046
vn 0.24231231 -0.67308974 0.6987381
vn 0.13461792 -0.373084 0.9179795
vn 0.33462173 -0.9192482 0.20739096
vn -0.0038462281 -0.40385383 0.9148154
vn -0.0038462281 -0.9807879 0.19503933
vn -0.0038462281 -0.9269407 0.37518823
vn -0.0038462281 -0.7192445 0.69474643
vn -0.3346218 -0.9192482 0.20739082
vn -0.31923687 -0.8730935 0.36850452
vn -0.24231231 -0.67308974 0.6987381
vn -0.13461792 -0.373084 0.9179795
vn -0.5961652 -0.711552 0.3718612
vn -0.45770097 -0.55001044 0.69856876
vn -0.25769722 -0.3038519 0.91720563
vn -0.626935 -0.75001425 0.21078683
vn -0.8038615 -0.46539348 0.3704262
vn -0.61924255 -0.3576991 0.69899213
vn -0.3500067 -0.20385003 0.9142978
vn -0.8500161 -0.48847082 0.1971519
vn -0.96540296 -0.1730802 0.19503933
vn -0.91155577 -0.1576953 0.37973446
vn -0.70385957 -0.12692547 0.69890743
vn -0.39616144 -0.073078334 0.91526806
vn -0.96540296 0.1730802 0.19503933
vn -0.91155577 0.1576953 0.37973446
vn -0.70385957 0.12692547 0.69890743
vn -0.39616144 0.073078275 0.91526806
vn -0.8038615 0.46539342 0.37042627
vn -0.61924255 0.35769916 0.6989921
vn -0.3500067 0.20385003 0.9142978
vn -0.8500161 0.4884708 0.19715199
vn -0.5961652 0.711552 0.3718612
vn -0.45770097 0.55001044 0.69856876
vn -0.25769722 0.30385196 0.91720563
vn -0.626935 0.7500143 0.2107867
vn -0.3346218 0.9192482 0.20739082
vn -0.31923687 0.8730935 0.36850452
vn -0.24231231 0.67308974 0.6987381
vn -0.13461792 0.37308407 0.9179795
g FlashSphere_0
f 3/3/3 2/2/2 1/1/1
f 4/4/4 3/3/3 1/1/1
f 7/7/7 6/6/6 5/5/5
f 2/2/2 9/9/9 8/8/8
f 1/1/1 2/2/2 8/8/8
f 6/6/6 3/3/3 4/4/4
f 5/5/5 6/6/6 4/4/4
f 11/11/11 10/10/10 9/9/9
f 2/2/2 11/11/11 9/9/9
f 13/13/13 12/12/12 3/3/3
f 6/6/6 13/13/13 3/3/3
f 12/12/12 11/11/11 2/2/2
f 3/3/3 12/12/12 2/2/2
f 7/7/7 13/13/13 6/6/6
f 15/15/15 14/14/14 10/10/10
f 11/11/11 15/15/15 10/10/10
f 17/17/17 16/16/16 12/12/12
f 13/13/13 17/17/17 12/12/12
f 16/16/16 15/15/15 11/11/11
f 12/12/12 16/16/16 11/11/11
f 7/7/7 17/17/17 13/13/13
f 19/19/19 18/18/18 15/15/15
f 16/16/16 19/19/19 15/15/15
f 7/7/7 20/20/20 17/17/17
f 18/18/18 21/21/21 14/14/14
f 15/15/15 18/18/18 14/14/14
f 20/20/20 19/19/19 16/16/16
f 17/17/17 20/20/20 16/16/16
f 23/23/23 22/22/22 18/18/18
f 19/19/19 23/23/23 18/18/18
f 7/7/7 24/24/24 20/20/20
f 22/22/22 25/25/25 21/21/21
f 18/18/18 22/22/22 21/21/21
f 24/24/24 23/23/23 19/19/19
f 20/20/20 24/24/24 19/19/19
f 27/27/27 26/26/26 25/25/25
f 22/22/22 27/27/27 25/25/25
f 29/29/29 28/28/28 23/23/23
f 24/24/24 29/29/29 23/23/23
f 28/28/28 27/27/27 22/22/22
f 23/23/23 28/28/28 22/22/22
f 7/7/7 29/29/29 24/24/24
f 31/31/31 30/30/30 28/28/28
f 29/29/29 31/31/31 28/28/28
f 30/30/30 32/32/32 27/27/27
f 28/28/28 30/30/30 27/27/27
f 7/7/7 31/31/31 29/29/29
f 32/32/32 33/33/33 26/26/26
f 27/27/27 32/32/32 26/26/26
f 35/35/35 34/34/34 32/32/32
f 30/30/30 35/35/35 32/32/32
f 7/7/7 36/36/36 31/31/31
f 34/34/34 37/37/37 33/33/33
f 32/32/32 34/34/34 33/33/33
f 36/36/36 35/35/35 30/30/30
f 31/31/31 36/36/36 30/30/30
f 7/7/7 38/38/38 36/36/36
f 40/40/40 39/39/39 37/37/37
f 34/34/34 40/40/40 37/37/37
f 38/38/38 41/41/41 35/35/35
f 36/36/36 38/38/38 35/35/35
f 41/41/41 40/40/40 34/34/34
f 35/35/35 41/41/41 34/34/34
f 43/43/43 42/42/42 39/39/39
f 40/40/40 43/43/43 39/39/39
f 45/45/45 44/44/44 41/41/41
f 38/38/38 45/45/45 41/41/41
f 44/44/44 43/43/43 40/40/40
f 41/41/41 44/44/44 40/40/40
f 7/7/7 45/45/45 38/38/38
f 47/47/47 46/46/46 43/43/43
f 44/44/44 47/47/47 43/43/43
f 7/7/7 48/48/48 45/45/45
f 46/46/46 49/49/49 42/42/42
f 43/43/43 46/46/46 42/42/42
f 48/48/48 47/47/47 44/44/44
f 45/45/45 48/48/48 44/44/44
f 51/51/51 50/50/50 46/46/46
f 47/47/47 51/51/51 46/46/46
f 7/7/7 52/52/52 48/48/48
f 50/50/50 53/53/53 49/49/49
f 46/46/46 50/50/50 49/49/49
f 52/52/52 51/51/51 47/47/47
f 48/48/48 52/52/52 47/47/47
f 55/55/55 54/54/54 53/53/53
f 50/50/50 55/55/55 53/53/53
f 57/57/57 56/56/56 51/51/51
f 52/52/52 57/57/57 51/51/51
f 56/56/56 55/55/55 50/50/50
f 51/51/51 56/56/56 50/50/50
f 7/7/7 57/57/57 52/52/52
f 59/59/59 58/58/58 54/54/54
f 55/55/55 59/59/59 54/54/54
f 61/61/61 60/60/60 56/56/56
f 57/57/57 61/61/61 56/56/56
f 60/60/60 59/59/59 55/55/55
f 56/56/56 60/60/60 55/55/55
f 7/7/7 61/61/61 57/57/57
f 63/63/63 62/62/62 59/59/59
f 60/60/60 63/63/63 59/59/59
f 7/7/7 64/64/64 61/61/61
f 62/62/62 65/65/65 58/58/58
f 59/59/59 62/62/62 58/58/58
f 64/64/64 63/63/63 60/60/60
f 61/61/61 64/64/64 60/60/60
f 67/67/67 66/66/66 62/62/62
f 63/63/63 67/67/67 62/62/62
f 7/7/7 68/68/68 64/64/64
f 66/66/66 69/69/69 65/65/65
f 62/62/62 66/66/66 65/65/65
f 68/68/68 67/67/67 63/63/63
f 64/64/64 68/68/68 63/63/63
f 71/71/71 70/70/70 69/69/69
f 66/66/66 71/71/71 69/69/69
f 73/73/73 72/72/72 67/67/67
f 68/68/68 73/73/73 67/67/67
f 72/72/72 71/71/71 66/66/66
f 67/67/67 72/72/72 66/66/66
f 7/7/7 73/73/73 68/68/68
f 5/5/5 4/4/4 72/72/72
f 73/73/73 5/5/5 72/72/72
f 4/4/4 1/1/1 71/71/71
f 72/72/72 4/4/4 71/71/71
f 7/7/7 5/5/5 73/73/73
f 1/1/1 8/8/8 70/70/70
f 71/71/71 1/1/1 70/70/70
