g FootBall_Static_Box_01_3_mesh
v 1.026098 0.681741 1.1064637
v 1.0333241 0.09071529 1.0454128
v -0.82964087 0.06775367 1.0452776
v -0.83690083 0.6588131 1.1063285
v -0.8288305 0.0025156736 0.82373166
v -0.82862794 -0.015043259 0.99378276
v 1.0343372 0.007918358 0.99391794
v 1.0341345 0.02547729 0.8238667
v 1.0247473 0.79087627 0.9029155
v 1.0249499 0.77331734 1.0729666
v -0.8380152 0.7503557 1.0728316
v -0.83821774 0.76791465 0.9027467
v 0.99479586 -0.026659131 1.046696
v 1.054665 -0.61765105 1.0307579
v -0.7993518 -0.8021883 1.025794
v -0.85922086 -0.21123016 1.0416985
v -0.79053855 -0.88363457 0.8098196
v -0.79053855 -0.88822687 0.98071504
v 1.063512 -0.70368963 0.9856787
v 1.063512 -0.69906354 0.81478333
v 0.98598266 0.06626797 0.8354151
v 0.98598266 0.061675668 1.0063105
v -0.86806786 -0.12289542 1.0013466
v -0.86806786 -0.118269324 0.83045137
v -1.0268409 0.018217325 0.9469478
v -1.0582781 -0.57480055 0.96801853
v -1.056252 -0.64317894 -0.95221555
v -1.0248148 -0.050161004 -0.9732862
v -0.84750366 -0.74194777 -0.9485011
v -1.0182302 -0.7328982 -0.9489739
v -1.0202563 -0.6645535 0.9712601
v -0.84952974 -0.6736031 0.9717667
v -0.8087728 0.09436214 0.9444492
v -0.97949934 0.10341179 0.9439764
v -0.97747326 0.035033345 -0.9762915
v -0.80674684 0.026017547 -0.97578496
v -1.0783019 0.6775539 0.9962816
v -1.0768499 0.08453596 0.95836115
v -1.0771539 0.20721185 -0.9592053
v -1.0786059 0.8002298 -0.92125106
v -0.86323917 0.12026155 -0.9647769
v -1.0342021 0.11985636 -0.9647769
v -1.0338981 -0.0028195381 0.9527557
v -0.8629353 -0.0024143457 0.9527557
v -0.8648262 0.765551 1.0018868
v -1.035789 0.7651458 1.0018868
v -1.036093 0.8878217 -0.9156457
v -0.8651302 0.88822687 -0.9156457
v 0.9443816 -0.7484648 -1.1064637
v 0.9781149 -0.1552105 -1.1064637
v -0.8641846 -0.05053246 -1.1064637
v -0.89788413 -0.6437868 -1.1064637
v -0.85922086 0.036991835 -0.89275163
v -0.85922086 0.036991835 -1.0637145
v 0.98307866 -0.0676862 -1.0637145
v 0.98307866 -0.0676862 -0.89275163
v 0.9394178 -0.8359891 -0.89275163
v 0.9394178 -0.8359891 -1.0637145
v -0.902848 -0.7313111 -1.0637145
v -0.902848 -0.7313111 -0.89275163
v 1.0073572 0.14953768 -1.1064637
v 1.0110041 0.69244516 -1.1064637
v -0.9547818 0.69244516 -1.1064637
v -0.9584286 0.14953768 -1.1064637
v -0.9542415 0.7725407 -0.89275163
v -0.9542415 0.7725407 -1.0637145
v 1.0115443 0.7725407 -1.0637145
v 1.0115443 0.7725407 -0.89275163
v 1.006817 0.069442034 -0.89275163
v 1.006817 0.069442034 -1.0637145
v -0.9589689 0.069442034 -1.0637145
v -0.9589689 0.069442034 -0.89275163
v 1.0786058 0.78307605 -0.90321946
v 1.0786058 0.18907893 -0.9192251
v 1.0786058 0.13731396 1.0015492
v 1.0786058 0.7313111 1.0175548
v 0.8648938 0.04968834 0.99918556
v 1.0358566 0.04968834 0.99918556
v 1.0358566 0.101453304 -0.9215888
v 0.8648938 0.101453304 -0.9215888
v 0.8648938 0.8707017 -0.9008558
v 1.0358566 0.8707017 -0.9008558
v 1.0358566 0.8189367 1.0199187
v 0.8648938 0.8189367 1.0199187
v 1.0723588 -0.13329566 -0.9465089
v 1.0723588 -0.7274617 -0.9376619
v 1.0723588 -0.6987596 0.983619
v 1.0723588 -0.10462737 0.9747381
v 0.8586806 -0.81606656 0.98490214
v 1.0296435 -0.78641903 0.98490214
v 1.0296435 -0.8150873 -0.936345
v 0.8586806 -0.8447348 -0.936345
v 0.8586806 -0.045670033 -0.9478258
v 1.0296435 -0.045670033 -0.9478258
v 1.0296435 -0.016968012 0.97342134
v 0.8586806 -0.016968012 0.97342134
vt 0.2767356 0.9287743
vt 0.2767356 0.92167145
vt 0.2540066 0.92167145
vt 0.2540066 0.9287743
vt 0.2540066 0.91883034
vt 0.2540066 0.9202509
vt 0.2767356 0.9202509
vt 0.2767356 0.91883034
vt 0.2767356 0.93232566
vt 0.2767356 0.93019485
vt 0.2540066 0.93019485
vt 0.2540066 0.93232566
vt 0.3591283 0.88757795
vt 0.3591283 0.87976485
vt 0.335689 0.87976485
vt 0.335689 0.88757795
vt 0.335689 0.87621343
vt 0.335689 0.8783443
vt 0.3591283 0.8783443
vt 0.3591283 0.87621343
vt 0.3591283 0.8911294
vt 0.3591283 0.8882882
vt 0.335689 0.8882882
vt 0.335689 0.8911294
vt 0.30514687 0.94582105
vt 0.30514687 0.9387182
vt 0.28170758 0.9387182
vt 0.28170758 0.94582105
vt 0.28170758 0.93516684
vt 0.28170758 0.93729764
vt 0.30514687 0.93729764
vt 0.30514687 0.93516684
vt 0.30514687 0.9493725
vt 0.30514687 0.9472416
vt 0.28170758 0.9472416
vt 0.28170758 0.9493725
vt 0.3314273 0.92948455
vt 0.3314273 0.92238176
vt 0.30798802 0.92238176
vt 0.30798802 0.92948455
vt 0.30798802 0.91883034
vt 0.30798802 0.9209612
vt 0.3314273 0.9209612
vt 0.3314273 0.91883034
vt 0.3314273 0.93303597
vt 0.3314273 0.9309051
vt 0.30798802 0.9309051
vt 0.30798802 0.93303597
vt 0.30940858 0.9763632
vt 0.30940858 0.96926033
vt 0.28738984 0.96926033
vt 0.28738984 0.9763632
vt 0.28738984 0.9664192
vt 0.28738984 0.9685501
vt 0.30940858 0.9685501
vt 0.30940858 0.9664192
vt 0.30940858 0.97991455
vt 0.30940858 0.97778374
vt 0.28738984 0.97778374
vt 0.28738984 0.97991455
vt 0.35983858 0.9039144
vt 0.35983858 0.8968116
vt 0.33497873 0.8968116
vt 0.33497873 0.9039144
vt 0.33497873 0.8932602
vt 0.33497873 0.89539105
vt 0.35983858 0.89539105
vt 0.35983858 0.8932602
vt 0.35983858 0.90675557
vt 0.35983858 0.9046247
vt 0.33497873 0.9046247
vt 0.33497873 0.90675557
vt 0.27602533 0.9628678
vt 0.27602533 0.955765
vt 0.25329632 0.955765
vt 0.25329632 0.9628678
vt 0.25329632 0.95292383
vt 0.25329632 0.9550547
vt 0.27602533 0.9550547
vt 0.27602533 0.95292383
vt 0.27602533 0.9664192
vt 0.27602533 0.96428835
vt 0.25329632 0.96428835
vt 0.25329632 0.9664192
vt 0.28028703 0.92167145
vt 0.28028703 0.92948455
vt 0.3044366 0.92948455
vt 0.3044366 0.92167145
vt 0.3044366 0.93232566
vt 0.3044366 0.93019485
vt 0.28028703 0.93019485
vt 0.28028703 0.93232566
vt 0.28028703 0.91883034
vt 0.28028703 0.9209612
vt 0.3044366 0.9209612
vt 0.3044366 0.91883034
vn 0.0039215684 -0.043136954 0.99906147
vn 0.0039215684 -0.16862619 0.98567224
vn 0.0039215684 -0.16862619 0.98567224
vn 0.0039215684 -0.043136954 0.99906147
vn 0.011764646 -0.9921493 -0.12450454
vn 0.011764646 -0.960777 0.27707252
vn 0.011764646 -0.960777 0.27707252
vn 0.011764646 -0.9921493 -0.12450454
vn -0.011764526 0.99214923 0.12450501
vn -0.011764526 0.88234615 0.47045392
vn -0.011764526 0.88234615 0.47045392
vn -0.011764526 0.99214923 0.12450501
vn -0.003921509 0.035293818 0.99936926
vn 0.0039215684 -0.09019542 0.99591637
vn 0.0039215684 -0.09019542 0.99591637
vn -0.003921509 0.035293818 0.99936926
vn 0.098038495 -0.9921493 -0.07764171
vn 0.09019542 -0.9294047 0.35787112
vn 0.09019542 -0.9294047 0.35787112
vn 0.098038495 -0.9921493 -0.07764171
vn -0.098038435 0.99214923 0.07764248
vn -0.0901953 0.91371846 0.39621127
vn -0.0901953 0.91371846 0.39621127
vn -0.098038435 0.99214923 0.07764248
vn -0.99214923 0.11372459 -0.052025177
vn -0.99993086 -0.011763923 -0
vn -0.99993086 -0.011763923 -0
vn -0.99214923 0.11372459 -0.052025177
vn -0.05091424 -0.998703 -0
vn -0.42673948 -0.9043746 -0
vn -0.42673948 -0.9043746 -0
vn -0.05091424 -0.998703 -0
vn 0.050914306 0.998703 -0
vn -0.3326154 0.94306254 -0
vn -0.3326154 0.94306254 -0
vn 0.050914306 0.998703 -0
vn -0.9982743 0.058721937 -0
vn -0.9977852 -0.06651905 -0
vn -0.9977852 -0.06651905 -0
vn -0.9982743 0.058721937 -0
vn 0.0039215684 -0.9999924 -0
vn -0.3803892 -0.9215616 -0.07764209
vn -0.3803892 -0.9215616 -0.07764209
vn 0.0039215684 -0.9999924 -0
vn -0.003921509 0.99999225 -0.00034526698
vn -0.3803892 0.9215615 0.077643245
vn -0.3803892 0.9215615 0.077643245
vn -0.003921509 0.99999225 -0.00034526698
vn -0.003921509 -0.05882311 -0.99826074
vn 0.0039215684 0.05882299 -0.99826074
vn 0.0039215684 0.05882299 -0.99826074
vn -0.003921509 -0.05882311 -0.99826074
vn 0.058722056 0.9982743 -0
vn 0.05098003 0.9215615 -0.3848707
vn 0.05098003 0.9215615 -0.3848707
vn 0.058722056 0.9982743 -0
vn -0.05872193 -0.9982743 -0
vn -0.050979972 -0.9215616 -0.3848705
vn -0.050979972 -0.9215616 -0.3848705
vn -0.05872193 -0.9982743 -0
vn 0.0039215684 -0.066666186 -0.9977676
vn -0.003921509 0.066666126 -0.9977676
vn -0.003921509 0.066666126 -0.9977676
vn 0.0039215684 -0.066666186 -0.9977676
vn -0.003921509 0.99999225 -0.00034526698
vn -0.003921509 0.93724763 -0.34864238
vn -0.003921509 0.93724763 -0.34864238
vn -0.003921509 0.99999225 -0.00034526698
vn 0.0039215684 -0.9999924 -0
vn 0.0039215684 -0.93724775 -0.34864205
vn 0.0039215684 -0.93724775 -0.34864205
vn 0.0039215684 -0.9999924 -0
vn 0.9982743 0.05872193 -0
vn 0.9982743 -0.05872205 -0
vn 0.9982743 -0.05872205 -0
vn 0.9982743 0.05872193 -0
vn -0.003921509 -0.9999924 -0
vn 0.38038927 -0.9215616 -0.07764171
vn 0.38038927 -0.9215616 -0.07764171
vn -0.003921509 -0.9999924 -0
vn -0.003921509 0.99999225 -0.00034526698
vn 0.38038927 0.9215615 0.07764286
vn 0.38038927 0.9215615 0.07764286
vn -0.003921509 0.99999225 -0.00034526698
vn 0.9982743 0.05872193 -0
vn 0.9982743 -0.05872205 -0
vn 0.9982743 -0.05872205 -0
vn 0.9982743 0.05872193 -0
vn 0.16862619 -0.9843062 0.052023727
vn 0.48234928 -0.87450314 0.050827593
vn 0.48234928 -0.87450314 0.050827593
vn 0.16862619 -0.9843062 0.052023727
vn -0.003921509 0.99999225 -0.00034526698
vn 0.38038927 0.9215615 -0.07764286
vn 0.38038927 0.9215615 -0.07764286
vn -0.003921509 0.99999225 -0.00034526698
g FootBall_Static_Box_01_3_mesh_0
f 3/3/3 2/2/2 1/1/1
f 4/4/4 3/3/3 1/1/1
f 7/7/7 6/6/6 5/5/5
f 8/8/8 7/7/7 5/5/5
f 11/11/11 10/10/10 9/9/9
f 12/12/12 11/11/11 9/9/9
f 1/1/1 10/10/10 11/11/11
f 4/4/4 1/1/1 11/11/11
f 7/7/7 2/2/2 3/3/3
f 6/6/6 7/7/7 3/3/3
f 15/15/15 14/14/14 13/13/13
f 16/16/16 15/15/15 13/13/13
f 19/19/19 18/18/18 17/17/17
f 20/20/20 19/19/19 17/17/17
f 23/23/23 22/22/22 21/21/21
f 24/24/24 23/23/23 21/21/21
f 13/13/13 22/22/22 23/23/23
f 16/16/16 13/13/13 23/23/23
f 19/19/19 14/14/14 15/15/15
f 18/18/18 19/19/19 15/15/15
f 27/27/27 26/26/26 25/25/25
f 28/28/28 27/27/27 25/25/25
f 31/31/31 30/30/30 29/29/29
f 32/32/32 31/31/31 29/29/29
f 35/35/35 34/34/34 33/33/33
f 36/36/36 35/35/35 33/33/33
f 25/25/25 34/34/34 35/35/35
f 28/28/28 25/25/25 35/35/35
f 31/31/31 26/26/26 27/27/27
f 30/30/30 31/31/31 27/27/27
f 39/39/39 38/38/38 37/37/37
f 40/40/40 39/39/39 37/37/37
f 43/43/43 42/42/42 41/41/41
f 44/44/44 43/43/43 41/41/41
f 47/47/47 46/46/46 45/45/45
f 48/48/48 47/47/47 45/45/45
f 37/37/37 46/46/46 47/47/47
f 40/40/40 37/37/37 47/47/47
f 43/43/43 38/38/38 39/39/39
f 42/42/42 43/43/43 39/39/39
f 51/51/51 50/50/50 49/49/49
f 52/52/52 51/51/51 49/49/49
f 55/55/55 54/54/54 53/53/53
f 56/56/56 55/55/55 53/53/53
f 59/59/59 58/58/58 57/57/57
f 60/60/60 59/59/59 57/57/57
f 49/49/49 58/58/58 59/59/59
f 52/52/52 49/49/49 59/59/59
f 55/55/55 50/50/50 51/51/51
f 54/54/54 55/55/55 51/51/51
f 63/63/63 62/62/62 61/61/61
f 64/64/64 63/63/63 61/61/61
f 67/67/67 66/66/66 65/65/65
f 68/68/68 67/67/67 65/65/65
f 71/71/71 70/70/70 69/69/69
f 72/72/72 71/71/71 69/69/69
f 61/61/61 70/70/70 71/71/71
f 64/64/64 61/61/61 71/71/71
f 67/67/67 62/62/62 63/63/63
f 66/66/66 67/67/67 63/63/63
f 75/75/75 74/74/74 73/73/73
f 76/76/76 75/75/75 73/73/73
f 79/79/79 78/78/78 77/77/77
f 80/80/80 79/79/79 77/77/77
f 83/83/83 82/82/82 81/81/81
f 84/84/84 83/83/83 81/81/81
f 73/73/73 82/82/82 83/83/83
f 76/76/76 73/73/73 83/83/83
f 79/79/79 74/74/74 75/75/75
f 78/78/78 79/79/79 75/75/75
f 87/87/87 86/86/86 85/85/85
f 88/88/88 87/87/87 85/85/85
f 91/91/91 90/90/90 89/89/89
f 92/92/92 91/91/91 89/89/89
f 95/95/95 94/94/94 93/93/93
f 96/96/96 95/95/95 93/93/93
f 85/85/85 94/94/94 95/95/95
f 88/88/88 85/85/85 95/95/95
f 91/91/91 86/86/86 87/87/87
f 90/90/90 91/91/91 87/87/87
