g FourTrackShassis_06
v 0.47007048 -0.33863705 0.8802166
v -0.46885502 -0.33863705 -0.9198663
v -0.46885502 -0.33863705 0.8802166
v 0.47007048 -0.33863705 -0.9198663
v 0.47007048 -0.33863705 -0.9198663
v 0.47007048 0.10501671 0.88356686
v 0.47007048 0.15973675 -0.9198663
v 0.47007048 -0.33863705 0.8802166
v 0.47007048 0.10501671 0.88356686
v -0.46885502 -0.33863705 0.8802166
v -0.46885502 0.10501671 0.88356686
v 0.47007048 -0.33863705 0.8802166
v -0.46885502 -0.33863705 -0.9198663
v 0.47007048 0.15973675 -0.9198663
v -0.46885502 0.15973675 -0.9198663
v 0.47007048 -0.33863705 -0.9198663
v -0.46885502 -0.33863705 0.8802166
v -0.46885502 0.15973675 -0.9198663
v -0.46885502 0.10501671 0.88356686
v -0.46885502 -0.33863705 -0.9198663
v -0.15353262 0.09353924 0.9586052
v 0.15481013 0.15585923 0.9585742
v 0.15477914 0.09353924 0.9586052
v -0.15356374 0.15585923 0.9585742
v -0.15263307 0.20784938 0.9586052
v 0.15387952 0.27035546 0.95866716
v 0.15387952 0.20784938 0.9586052
v -0.15263307 0.27035546 0.95866716
v 0.12490648 0.12853026 -1.0742549
v 0.38032848 0.24557018 -1.0742549
v 0.12490648 0.24715221 -1.0742549
v 0.38032848 0.12719631 -1.0742549
v -0.12365997 0.12853026 -1.0742549
v -0.37908196 0.24557018 -1.0742549
v -0.37908196 0.12719631 -1.0742549
v -0.12365997 0.24715221 -1.0742549
vt 0.85514575 0.8908963
vt 0.86940986 0.9183412
vt 0.86940986 0.8908963
vt 0.85514575 0.9183412
vt 0.8318537 0.92429966
vt 0.7668526 0.9365776
vt 0.8318537 0.93856376
vt 0.76703316 0.92429966
vt 0.826798 0.9066049
vt 0.792853 0.8943269
vt 0.792853 0.9066049
vt 0.826798 0.8943269
vt 0.7885196 0.8948686
vt 0.7547552 0.9091327
vt 0.7885196 0.9091327
vt 0.7547552 0.8948686
vt 0.76703316 0.92429966
vt 0.8318537 0.93856376
vt 0.7668526 0.9365776
vt 0.8318537 0.92429966
vt 0.83492315 0.9010076
vt 0.84593725 0.9033549
vt 0.84593725 0.89721584
vt 0.83492315 0.9071466
vt 0.83492315 0.9010076
vt 0.84972894 0.9033549
vt 0.84593725 0.89721584
vt 0.83492315 0.9071466
vt 0.7616164 0.936036
vt 0.75439405 0.92700803
vt 0.7574636 0.93910545
vt 0.7616164 0.92700803
vt 0.7616164 0.9239385
vt 0.7574636 0.936036
vt 0.76468587 0.936036
vt 0.7574636 0.92700803
vn -0.003921509 -0.9999924 -0
vn -0.003921509 -0.9999924 -0
vn -0.003921509 -0.9999924 -0
vn -0.003921509 -0.9999924 -0
vn 0.9999924 0.003921509 -0
vn 0.9999924 0.003921509 -0
vn 0.9999924 0.003921509 -0
vn 0.9999924 0.003921509 -0
vn -0.003921509 -0.0039215684 0.9999846
vn -0.003921509 -0.0039215684 0.9999846
vn -0.003921509 -0.0039215684 0.9999846
vn -0.003921509 -0.0039215684 0.9999846
vn -0.003921509 0.003921509 -0.9999846
vn -0.003921509 0.003921509 -0.9999846
vn -0.003921509 0.003921509 -0.9999846
vn -0.003921509 0.003921509 -0.9999846
vn -0.99999225 0.003921509 -0.00034492963
vn -0.99999225 0.003921509 -0.00034492963
vn -0.99999225 0.003921509 -0.00034492963
vn -0.99999225 0.003921509 -0.00034492963
vn -0.003921509 0.003921509 0.9999846
vn -0.003921509 0.003921509 0.9999846
vn -0.003921509 0.003921509 0.9999846
vn -0.003921509 0.003921509 0.9999846
vn -0.003921509 -0.0039215684 0.9999846
vn -0.003921509 -0.0039215684 0.9999846
vn -0.003921509 -0.0039215684 0.9999846
vn -0.003921509 -0.0039215684 0.9999846
vn -0.003921509 0.003921509 -0.9999846
vn -0.003921509 0.003921509 -0.9999846
vn -0.003921509 0.003921509 -0.9999846
vn -0.003921509 0.003921509 -0.9999846
vn -0.003921509 0.003921509 -0.9999846
vn -0.003921509 0.003921509 -0.9999846
vn -0.003921509 0.003921509 -0.9999846
vn -0.003921509 0.003921509 -0.9999846
g FourTrackShassis_06_0
f 3/3/3 2/2/2 1/1/1
f 4/4/4 1/1/1 2/2/2
f 7/7/7 6/6/6 5/5/5
f 8/8/8 5/5/5 6/6/6
f 11/11/11 10/10/10 9/9/9
f 12/12/12 9/9/9 10/10/10
f 15/15/15 14/14/14 13/13/13
f 16/16/16 13/13/13 14/14/14
f 19/19/19 18/18/18 17/17/17
f 20/20/20 17/17/17 18/18/18
f 23/23/23 22/22/22 21/21/21
f 24/24/24 21/21/21 22/22/22
f 27/27/27 26/26/26 25/25/25
f 28/28/28 25/25/25 26/26/26
f 31/31/31 30/30/30 29/29/29
f 32/32/32 29/29/29 30/30/30
f 35/35/35 34/34/34 33/33/33
f 36/36/36 33/33/33 34/34/34
