g FourSpiderShassis_19
v 0.83757037 0.16877973 -0.4578632
v 0.8650527 0.18860304 -0.7172787
v 0.92911816 0.18860304 -0.48239458
v 0.77469885 0.16877973 -0.6924995
v 0.8650527 0.18860304 -0.7172787
v 0.9914716 0.11642814 -0.49908674
v 0.92911816 0.18860304 -0.48239458
v 0.9286001 0.11642814 -0.7337456
v 0.8993832 0.024452329 -0.7259064
v 0.9622547 0.024452329 -0.49127007
v 0.8078579 0.0046288967 -0.7013975
v 0.87072945 0.0046288967 -0.46673864
v 0.74550444 0.07680392 -0.68468285
v 0.80837595 0.07680392 -0.45004654
v 0.8650527 0.18860304 -0.7172787
v 0.8993832 0.024452329 -0.7259064
v 0.9286001 0.11642814 -0.7337456
v 0.8078579 0.0046288967 -0.7013975
v 0.77469885 0.16877973 -0.6924995
v 0.74550444 0.07680392 -0.68468285
v 0.9622547 0.024452329 -0.49127007
v 0.92911816 0.18860304 -0.48239458
v 0.9914716 0.11642814 -0.49908674
v 0.87072945 0.0046288967 -0.46673864
v 0.83757037 0.16877973 -0.4578632
v 0.80837595 0.07680392 -0.45004654
v 1.1759639 -0.53235847 -0.7157469
v 1.0182781 -0.34685248 -0.71689576
v 1.0993962 -0.5326513 -0.6998657
v 1.1704223 -0.31472963 -0.75766873
v 1.1970261 -0.53235847 -0.6371068
v 1.1704223 -0.31472963 -0.75766873
v 1.1759639 -0.53235847 -0.7157469
v 1.2132002 -0.31472963 -0.5980458
v 1.0993962 -0.5326513 -0.6998657
v 1.061056 -0.34685248 -0.55725026
v 1.1227788 -0.5326513 -0.6125754
v 1.0182781 -0.34685248 -0.71689576
v 1.1227788 -0.5326513 -0.6125754
v 1.2132002 -0.31472963 -0.5980458
v 1.1970261 -0.53235847 -0.6371068
v 1.061056 -0.34685248 -0.55725026
v 1.1970261 -0.53235847 -0.6371068
v 1.0993962 -0.5326513 -0.6998657
v 1.1227788 -0.5326513 -0.6125754
v 1.1759639 -0.53235847 -0.7157469
v 0.8938416 0.20081246 -0.31671196
v 0.8005142 0.24636114 -0.8593761
v 0.9461483 0.24636114 -0.33112895
v 0.7481851 0.20081246 -0.8449591
v 0.9461483 0.24636114 -0.33112895
v 1.0272888 0.049501777 -0.8777802
v 1.1503061 0.049501777 -0.43155223
v 0.8005142 0.24636114 -0.8593761
v 1.2299149 -0.1319269 -0.58790886
v 1.1757611 -0.1319269 -0.78429514
v 0.7481851 0.20081246 -0.8449591
v 1.0272888 0.049501777 -0.8777802
v 0.8005142 0.24636114 -0.8593761
v 0.9761761 0.009900093 -0.8636786
v 1.1757611 -0.1319269 -0.78429514
v 1.1423993 -0.15688622 -0.77129734
v 1.0991935 0.009900093 -0.41747314
v 0.9461483 0.24636114 -0.33112895
v 1.1503061 0.049501777 -0.43155223
v 0.8938416 0.20081246 -0.31671196
v 1.1945933 -0.15688622 -0.5819844
v 1.2299149 -0.1319269 -0.58790886
v 1.1945933 -0.15688622 -0.5819844
v 1.1757611 -0.1319269 -0.78429514
v 1.1423993 -0.15688622 -0.77129734
v 1.2299149 -0.1319269 -0.58790886
v 0.9761761 0.009900093 -0.8636786
v 1.1945933 -0.15688622 -0.5819844
v 1.1423993 -0.15688622 -0.77129734
v 1.0991935 0.009900093 -0.41747314
v 0.8938416 0.20081246 -0.31671196
v 0.7481851 0.20081246 -0.8449591
vt 0.67598 0.90492535
vt 0.68219286 0.9064786
vt 0.67598 0.9064786
vt 0.68219286 0.90492535
vt 0.68188226 0.89653796
vt 0.67598 0.8980912
vt 0.67598 0.89653796
vt 0.68219286 0.8980912
vt 0.68219286 0.8996444
vt 0.67598 0.8996444
vt 0.68219286 0.9015083
vt 0.67598 0.9015083
vt 0.68219286 0.9030615
vt 0.67598 0.9030615
vt 0.680329 0.9170405
vt 0.6747374 0.91175956
vt 0.67908645 0.9126915
vt 0.6719416 0.91517663
vt 0.6775332 0.92014694
vt 0.67318416 0.9192151
vt 0.6747374 0.91175956
vt 0.680329 0.9170405
vt 0.67908645 0.9126915
vt 0.6719416 0.91517663
vt 0.6775332 0.92014694
vt 0.67318416 0.9192151
vt 0.6849887 0.938475
vt 0.6797077 0.9319515
vt 0.6825035 0.938475
vt 0.68529934 0.9307089
vt 0.69026965 0.938475
vt 0.69492936 0.9303982
vt 0.6936867 0.938475
vt 0.6887164 0.9303982
vt 0.67225224 0.9387857
vt 0.67691195 0.9319515
vt 0.6756693 0.9387857
vt 0.67100966 0.9319515
vt 0.6825035 0.938475
vt 0.68529934 0.9307089
vt 0.6849887 0.938475
vt 0.6797077 0.9319515
vt 0.68219286 0.92604923
vt 0.68529934 0.92294276
vt 0.68529934 0.9263599
vt 0.68219286 0.92294276
vt 0.7076658 0.93692183
vt 0.7089084 0.9477944
vt 0.7089084 0.93692183
vt 0.7076658 0.9477944
vt 0.7107722 0.94686246
vt 0.70052093 0.9406495
vt 0.71015096 0.9406495
vt 0.699589 0.9465518
vt 0.70735514 0.9363005
vt 0.70331675 0.9363005
vt 0.65578806 0.8797631
vt 0.6452261 0.8828696
vt 0.65578806 0.8828696
vt 0.6452261 0.8797631
vt 0.63590676 0.8828696
vt 0.63590676 0.8797631
vt 0.6402558 0.8797631
vt 0.64491546 0.8828696
vt 0.6402558 0.8828696
vt 0.64491546 0.8797631
vt 0.63590676 0.8797631
vt 0.63590676 0.8828696
vt 0.64709 0.8844228
vt 0.6300045 0.8884612
vt 0.6303152 0.8844228
vt 0.6474006 0.8884612
vt 0.71015096 0.9406495
vt 0.70331675 0.9363005
vt 0.70735514 0.9363005
vt 0.70052093 0.9406495
vt 0.699589 0.9465518
vt 0.7107722 0.94686246
vn -0.6446856 0.74413085 0.17507061
vn 0.2962188 0.95067084 -0.092083424
vn 0.3038684 0.95067084 -0.062361564
vn -0.6446856 0.74413085 0.17507061
vn 0.2962188 0.95067084 -0.092083424
vn 0.94643736 0.20865679 -0.2464116
vn 0.3038684 0.95067084 -0.062361564
vn 0.94643736 0.21630645 -0.23972453
vn 0.64045215 -0.747547 -0.17605282
vn 0.64045215 -0.747547 -0.17605282
vn -0.30045235 -0.94643736 0.11825709
vn -0.30045235 -0.94643736 0.11825709
vn -0.9430212 -0.20442325 0.26253033
vn -0.9430212 -0.20442325 0.26253033
vn -0.26220417 -0.0055328608 -0.9649965
vn -0.2545545 -0.0055328608 -0.96704257
vn -0.2545545 -0.0055328608 -0.96704257
vn -0.26220417 -0.0055328608 -0.9649965
vn -0.26220417 0.0021167994 -0.9650101
vn -0.26220417 0.0021167994 -0.9650101
vn 0.25797063 0.0021167994 0.96615046
vn 0.25797063 0.0021167994 0.96615046
vn 0.25797063 0.0021167994 0.96615046
vn 0.25797063 0.0021167994 0.96615046
vn 0.25797063 0.0021167994 0.96615046
vn 0.25797063 0.0021167994 0.96615046
vn -0.20865679 -0.18147433 -0.9610044
vn -0.21630645 -0.18912399 -0.95783275
vn -0.20100713 -0.17382473 -0.96404415
vn -0.21630645 -0.18912399 -0.95783275
vn 0.9693862 -0.028481781 -0.24388343
vn 0.9693862 -0.028481781 -0.24388343
vn 0.9693862 -0.028481781 -0.24388343
vn 0.9693862 -0.028481781 -0.24388343
vn -0.89712346 -0.37271512 0.23717706
vn -0.89712346 -0.37271512 0.23717706
vn -0.89712346 -0.37271512 0.23717706
vn -0.89712346 -0.37271512 0.23717706
vn 0.2962188 -0.18912399 0.9362086
vn 0.2962188 -0.18147433 0.93772143
vn 0.31151807 -0.18912399 0.9312296
vn 0.28856915 -0.18147433 0.94010365
vn 0.0055328608 -0.99998474 -0
vn 0.0055328608 -0.99998474 -0
vn 0.0055328608 -0.99998474 -0
vn 0.0055328608 -0.99998474 -0
vn -0.62173676 0.7670797 0.15821537
vn -0.62173676 0.7670797 0.15821537
vn -0.62173676 0.7670797 0.15821537
vn -0.62173676 0.7670797 0.15821537
vn 0.64045215 0.7517805 -0.156994
vn 0.6787003 0.70588267 -0.20272039
vn 0.6939995 0.69058347 -0.20361519
vn 0.64045215 0.7517805 -0.156994
vn 0.808744 0.5452405 -0.22055818
vn 0.808744 0.5452405 -0.22055818
vn -0.17805827 -0.112627685 -0.9775532
vn -0.05566418 -0.2656203 -0.9624694
vn -0.17805827 -0.112627685 -0.9775532
vn -0.07861304 -0.25032103 -0.964966
vn 0.028481781 -0.46451068 -0.88510936
vn 0.013182521 -0.47216028 -0.8814141
vn 0.43391216 -0.25032103 0.86548233
vn 0.3497662 -0.112627685 0.93004227
vn 0.44156176 -0.2656203 0.8570117
vn 0.3497662 -0.112627685 0.93004227
vn 0.47216028 -0.44921142 0.75846803
vn 0.45686102 -0.45686102 0.76325357
vn 0.55630624 -0.8163936 -0.1549995
vn 0.55630624 -0.8163936 -0.1549995
vn 0.55630624 -0.8163936 -0.1549995
vn 0.55630624 -0.8163936 -0.1549995
vn -0.6523353 -0.7322477 0.19563237
vn -0.74413085 -0.6328025 0.21408008
vn -0.74413085 -0.6328025 0.21408008
vn -0.65998495 -0.72459805 0.19843768
vn -0.62173676 -0.76284623 0.1775077
vn -0.62173676 -0.76284623 0.1775077
g FourSpiderShassis_19_0
f 3/3/3 2/2/2 1/1/1
f 4/4/4 1/1/1 2/2/2
f 7/7/7 6/6/6 5/5/5
f 8/8/8 5/5/5 6/6/6
f 10/10/10 9/9/9 6/6/6
f 8/8/8 6/6/6 9/9/9
f 12/12/12 11/11/11 10/10/10
f 9/9/9 10/10/10 11/11/11
f 14/14/14 13/13/13 12/12/12
f 11/11/11 12/12/12 13/13/13
f 1/1/1 4/4/4 14/14/14
f 13/13/13 14/14/14 4/4/4
f 17/17/17 16/16/16 15/15/15
f 16/16/16 18/18/18 15/15/15
f 15/15/15 18/18/18 19/19/19
f 19/19/19 18/18/18 20/20/20
f 23/23/23 22/22/22 21/21/21
f 21/21/21 22/22/22 24/24/24
f 22/22/22 25/25/25 24/24/24
f 25/25/25 26/26/26 24/24/24
f 29/29/29 28/28/28 27/27/27
f 30/30/30 27/27/27 28/28/28
f 33/33/33 32/32/32 31/31/31
f 34/34/34 31/31/31 32/32/32
f 37/37/37 36/36/36 35/35/35
f 38/38/38 35/35/35 36/36/36
f 41/41/41 40/40/40 39/39/39
f 42/42/42 39/39/39 40/40/40
f 45/45/45 44/44/44 43/43/43
f 46/46/46 43/43/43 44/44/44
f 49/49/49 48/48/48 47/47/47
f 50/50/50 47/47/47 48/48/48
f 53/53/53 52/52/52 51/51/51
f 54/54/54 51/51/51 52/52/52
f 56/56/56 52/52/52 55/55/55
f 53/53/53 55/55/55 52/52/52
f 59/59/59 58/58/58 57/57/57
f 60/60/60 57/57/57 58/58/58
f 58/58/58 61/61/61 60/60/60
f 62/62/62 60/60/60 61/61/61
f 65/65/65 64/64/64 63/63/63
f 66/66/66 63/63/63 64/64/64
f 68/68/68 65/65/65 67/67/67
f 63/63/63 67/67/67 65/65/65
f 71/71/71 70/70/70 69/69/69
f 72/72/72 69/69/69 70/70/70
f 75/75/75 74/74/74 73/73/73
f 76/76/76 73/73/73 74/74/74
f 76/76/76 77/77/77 73/73/73
f 78/78/78 73/73/73 77/77/77
