g FourSpiderShassis_CustomizePart_4_CorpsePart
v 16.651878 -31.122929 17.990902
v -24.742893 8.81905 0.60660934
v -11.475212 19.425098 3.990261
v -5.885021 -35.8456 10.265282
v -5.85767 19.451355 -11.343931
v 2.460884 -35.846695 -12.67967
v 24.74289 -31.114176 -4.1073112
v -18.241425 8.815769 -17.269972
v -18.241425 8.815769 -17.269972
v -5.885021 -35.8456 10.265282
v 2.460884 -35.846695 -12.67967
v -24.742893 8.81905 0.60660934
v -5.885021 -35.8456 10.265282
v 24.74289 -31.114176 -4.1073112
v 2.460884 -35.846695 -12.67967
v 16.651878 -31.122929 17.990902
v 16.651878 -31.122929 17.990902
v -5.85767 19.451355 -11.343931
v 24.74289 -31.114176 -4.1073112
v -11.475212 19.425098 3.990261
v -18.241425 8.815769 -17.269972
v -11.475212 19.425098 3.990261
v -24.742893 8.81905 0.60660934
v -5.85767 19.451355 -11.343931
v -11.609772 32.16986 -17.990898
v -11.7126045 25.365364 7.495346
v -3.5100098 25.365364 -15.042646
v -19.813457 32.16986 4.5470924
v 11.160143 6.859749 9.890049
v -7.4931564 35.846703 -16.492159
v 15.697935 6.859749 -2.576847
v -15.695751 35.846703 6.044739
v -11.7126045 25.365364 7.495346
v 11.160143 6.859749 9.890049
v 8.367235 4.365494 8.873749
v -15.695751 35.846703 6.044739
v -19.813457 32.16986 4.5470924
v 8.367235 4.365494 8.873749
v 15.697935 6.859749 -2.576847
v 12.905027 4.365494 -3.5931473
v 11.160143 6.859749 9.890049
v -3.5100098 25.365364 -15.042646
v -7.4931564 35.846703 -16.492159
v -11.609772 32.16986 -17.990898
v 15.697935 6.859749 -2.576847
v 12.905027 4.365494 -3.5931473
v -11.609772 32.16986 -17.990898
v -15.695751 35.846703 6.044739
v -19.813457 32.16986 4.5470924
v -7.4931564 35.846703 -16.492159
v 8.367235 4.365494 8.873749
v 12.905027 4.365494 -3.5931473
v -3.5100098 25.365364 -15.042646
vt 0.47661763 0.6252593
vt 0.4513583 0.73504037
vt 0.48438975 0.7360119
vt 0.43581405 0.64371806
vt 0.5145067 0.7360119
vt 0.5621109 0.64371806
vt 0.5203358 0.6252593
vt 0.54656667 0.7340689
vt 0.41735527 0.7428125
vt 0.43581405 0.64371806
vt 0.3911244 0.6544047
vt 0.4513583 0.73504037
vt 0.43581405 0.64371806
vt 0.4601019 0.5854272
vt 0.4183268 0.60194296
vt 0.47661763 0.6252593
vt 0.47661763 0.6252593
vt 0.5145067 0.7360119
vt 0.5203358 0.6252593
vt 0.48438975 0.7360119
vt 0.4533013 0.7700149
vt 0.48438975 0.7360119
vt 0.4513583 0.73504037
vt 0.48536128 0.76710033
vt 0.85550815 0.53005093
vt 0.8108185 0.5504527
vt 0.85550815 0.5504527
vt 0.8108185 0.53005093
vt 0.8215051 0.4455292
vt 0.85550815 0.51936424
vt 0.845793 0.4455292
vt 0.8108185 0.51936424
vt 0.8059609 0.49896246
vt 0.8215051 0.4455292
vt 0.81373304 0.4455292
vt 0.8108185 0.51936424
vt 0.8001318 0.51839274
vt 0.8215051 0.4387286
vt 0.845793 0.4455292
vt 0.845793 0.4387286
vt 0.8215051 0.4455292
vt 0.8613372 0.49896246
vt 0.85550815 0.51936424
vt 0.8661948 0.51839274
vt 0.845793 0.4455292
vt 0.8535651 0.4455292
vt 0.85550815 0.53005093
vt 0.8108185 0.51936424
vt 0.8108185 0.53005093
vt 0.85550815 0.51936424
vt 0.8215051 0.603886
vt 0.845793 0.603886
vt 0.85550815 0.5504527
vn -0.33325517 0.067549944 0.9404138
vn -0.31889272 0.0819124 0.94424456
vn -0.31171143 0.089093566 0.9459906
vn -0.33325517 0.060368776 0.940902
vn 0.36332333 0.07473111 -0.9286611
vn 0.34896088 0.07473111 -0.93415284
vn 0.34177965 0.07473111 -0.9368041
vn 0.3776858 0.0819124 -0.92230356
vn -0.85030305 -0.42795432 -0.30633283
vn -0.85030305 -0.42795432 -0.30633283
vn -0.85030305 -0.42795432 -0.30633283
vn -0.85030305 -0.42795432 -0.30633283
vn 0.18379283 -0.9809084 0.06355257
vn 0.18379283 -0.9809084 0.06355257
vn 0.18379283 -0.9809084 0.06355257
vn 0.18379283 -0.9809084 0.06355257
vn 0.8013779 0.5271481 0.28268057
vn 0.8013779 0.5271481 0.28268057
vn 0.8013779 0.5271481 0.28268057
vn 0.8013779 0.5271481 0.28268057
vn -0.57741666 0.78567207 -0.22205713
vn -0.57741666 0.78567207 -0.22205713
vn -0.57741666 0.78567207 -0.22205713
vn -0.57741666 0.78567207 -0.22205713
vn -0.58459795 -0.78701544 -0.1971089
vn -0.58459795 -0.78701544 -0.1971089
vn -0.58459795 -0.78701544 -0.1971089
vn -0.58459795 -0.78701544 -0.1971089
vn 0.69365954 0.6779537 0.24334171
vn 0.69365954 0.6779537 0.24334171
vn 0.69365954 0.6779537 0.24334171
vn 0.69365954 0.6779537 0.24334171
vn -0.017281413 0.12499976 0.99200624
vn -0.18963075 -0.11198062 0.97544885
vn -0.21835566 -0.1478867 0.96459854
vn -0.18244946 0.067549944 0.98089206
vn -0.34043634 0.0029189587 0.94026303
vn 0.6074849 -0.76547176 0.21216762
vn 0.6074849 -0.76547176 0.21216762
vn 0.6074849 -0.76547176 0.21216762
vn 0.6074849 -0.76547176 0.21216762
vn 0.6074849 0.117818475 -0.785545
vn 0.4782229 0.060368776 -0.87616116
vn 0.34177965 0.0029189587 -0.9397756
vn 0.47104168 -0.10479939 -0.8758635
vn 0.44231677 -0.13352424 -0.88686365
vn -0.60614157 0.76412845 -0.22068112
vn -0.60614157 0.76412845 -0.22068112
vn -0.60614157 0.76412845 -0.22068112
vn -0.60614157 0.76412845 -0.22068112
vn -0.6923162 -0.6792971 -0.243421
vn -0.6923162 -0.6792971 -0.243421
vn -0.58459795 -0.78701544 -0.1971089
g FourSpiderShassis_CustomizePart_4_CorpsePart_0
f 3/3/3 2/2/2 1/1/1
f 4/4/4 1/1/1 2/2/2
f 7/7/7 6/6/6 5/5/5
f 8/8/8 5/5/5 6/6/6
f 11/11/11 10/10/10 9/9/9
f 12/12/12 9/9/9 10/10/10
f 15/15/15 14/14/14 13/13/13
f 16/16/16 13/13/13 14/14/14
f 19/19/19 18/18/18 17/17/17
f 20/20/20 17/17/17 18/18/18
f 23/23/23 22/22/22 21/21/21
f 24/24/24 21/21/21 22/22/22
f 27/27/27 26/26/26 25/25/25
f 28/28/28 25/25/25 26/26/26
f 31/31/31 30/30/30 29/29/29
f 32/32/32 29/29/29 30/30/30
f 35/35/35 34/34/34 33/33/33
f 34/34/34 36/36/36 33/33/33
f 33/33/33 36/36/36 37/37/37
f 40/40/40 39/39/39 38/38/38
f 41/41/41 38/38/38 39/39/39
f 44/44/44 43/43/43 42/42/42
f 43/43/43 45/45/45 42/42/42
f 42/42/42 45/45/45 46/46/46
f 49/49/49 48/48/48 47/47/47
f 50/50/50 47/47/47 48/48/48
f 52/52/52 51/51/51 26/26/26
f 53/53/53 52/52/52 26/26/26
