g FourLegs_03
v -0.009867474 -0.01537098 -0.18297361
v 0.1855657 -0.01537098 0.0075965375
v 0.12404373 0.07918291 0.07066114
v -0.07138945 0.07918291 -0.11991474
v 0.03615357 0.05018249 0.1608165
v -0.1592796 0.05018249 -0.029753625
v 0.009785369 -0.0733833 0.18791302
v -0.1856478 -0.0733833 -0.0026571304
v -0.1856478 -0.0733833 -0.0026571304
v 0.009785369 -0.0733833 0.18791302
v 0.07118691 -0.16794294 0.12484841
v -0.124246284 -0.16794294 -0.065721735
v 0.15920323 -0.13893677 0.034693047
v -0.036235675 -0.13893677 -0.15587711
v 0.12404373 0.07918291 0.07066114
v 0.1855657 -0.01537098 0.0075965375
v 0.09767554 -0.04437715 0.0977519
v 0.03615357 0.05018249 0.1608165
v 0.009785369 -0.0733833 0.18791302
v 0.07118691 -0.16794294 0.12484841
v 0.15920323 -0.13893677 0.034693047
v -0.09775765 -0.04437715 -0.09281824
v -0.009867474 -0.01537098 -0.18297361
v -0.07138945 0.07918291 -0.11991474
v -0.1592796 0.05018249 -0.029753625
v -0.1856478 -0.0733833 -0.0026571304
v -0.124246284 -0.16794294 -0.065721735
v -0.036235675 -0.13893677 -0.15587711
v 0.046894684 0.16794477 -0.14159194
v -0.04050803 0.053187475 -0.05198136
v 0.027121395 -0.043660298 -0.12131401
v 0.09206125 0.10324003 -0.1879112
v 0.09206125 0.10324003 -0.1879112
v 0.027121395 -0.043660298 -0.12131401
v 0.12074628 -0.043660298 -0.030028895
v 0.18569186 0.10324003 -0.09663182
v 0.18569186 0.10324003 -0.09663182
v 0.12074628 -0.043660298 -0.030028895
v 0.05312258 0.053187475 0.03930375
v 0.14052528 0.16794477 -0.05030109
v 0.14052528 0.16794477 -0.05030109
v 0.05312258 0.053187475 0.03930375
v -0.04050803 0.053187475 -0.05198136
v 0.046894684 0.16794477 -0.14159194
vt 0.76275903 0.85660887
vt 0.76275903 0.8635044
vt 0.75960344 0.8635044
vt 0.75960344 0.85660887
vt 0.75633097 0.8635044
vt 0.75633097 0.85660887
vt 0.7530585 0.8635044
vt 0.7530585 0.85660887
vt 0.77257645 0.85660887
vt 0.77257645 0.8635044
vt 0.769304 0.8635044
vt 0.769304 0.85660887
vt 0.7660315 0.8635044
vt 0.7660315 0.85660887
vt 0.8199104 0.84235024
vt 0.8227154 0.840714
vt 0.8227154 0.84386957
vt 0.8199104 0.84550583
vt 0.8227154 0.84714204
vt 0.8255204 0.84550583
vt 0.8255204 0.84235024
vt 0.8227154 0.84386957
vt 0.8255204 0.84235024
vt 0.8255204 0.84550583
vt 0.8227154 0.84714204
vt 0.8199104 0.84550583
vt 0.8199104 0.84235024
vt 0.8227154 0.840714
vt 0.83814275 0.87004936
vt 0.84223336 0.8693481
vt 0.84223336 0.8726206
vt 0.83814275 0.8726206
vt 0.83814275 0.85988134
vt 0.84223336 0.85988134
vt 0.84223336 0.86292005
vt 0.83814275 0.8636213
vt 0.83814275 0.8636213
vt 0.84223336 0.86292005
vt 0.84223336 0.8661925
vt 0.83814275 0.8661925
vt 0.83814275 0.8661925
vt 0.84223336 0.8661925
vt 0.84223336 0.8693481
vt 0.83814275 0.87004936
vn 0.6786822 0.22122455 -0.70032144
vn 0.6786822 0.22122455 -0.70032144
vn 0.20623118 0.9561485 -0.20796324
vn 0.20623118 0.9561485 -0.20796324
vn -0.4761982 0.73117185 0.4884905
vn -0.4761982 0.73117185 0.4884905
vn -0.6786772 -0.22122961 0.7003247
vn -0.6786772 -0.22122961 0.7003247
vn -0.6786772 -0.22122961 0.7003247
vn -0.6786772 -0.22122961 0.7003247
vn -0.20622611 -0.9561535 0.20794533
vn -0.20622611 -0.9561535 0.20794533
vn 0.4762032 -0.7311768 -0.48847824
vn 0.4762032 -0.7311768 -0.48847824
vn 0.71617836 0.0037471056 0.69790727
vn 0.71617836 0.0037471056 0.69790727
vn 0.71617836 0.0037471056 0.69790727
vn 0.71617836 0.0037471056 0.69790727
vn 0.71617836 -0.0037521124 0.6979072
vn 0.71617836 -0.0037521124 0.6979072
vn 0.71617836 0.0037471056 0.69790727
vn -0.7161733 -0.0037521124 -0.69791245
vn -0.7161733 -0.0037521124 -0.69791245
vn -0.7161733 -0.0037521124 -0.69791245
vn -0.7161733 -0.0037521124 -0.69791245
vn -0.7161733 0.0037471056 -0.69791245
vn -0.7161733 0.0037471056 -0.69791245
vn -0.7161733 -0.0037521124 -0.69791245
vn -0.7161733 0.0037471056 -0.69791245
vn -0.7161733 0.0037471056 -0.69791245
vn -0.7161733 0.0037471056 -0.69791245
vn -0.7161733 0.0037471056 -0.69791245
vn 0.5886916 -0.53619695 -0.60492563
vn 0.5886916 -0.53619695 -0.60492563
vn 0.5886916 -0.53619695 -0.60492563
vn 0.5886916 -0.53619695 -0.60492563
vn 0.71617836 0.0037471056 0.69790727
vn 0.71617836 0.0037471056 0.69790727
vn 0.71617836 0.0037471056 0.69790727
vn 0.71617836 0.0037471056 0.69790727
vn -0.46869898 0.73867106 0.48444435
vn -0.46869898 0.73867106 0.48444435
vn -0.46869898 0.73867106 0.48444435
vn -0.46869898 0.73867106 0.48444435
g FourLegs_03_0
f 3/3/3 2/2/2 1/1/1
f 4/4/4 3/3/3 1/1/1
f 5/5/5 3/3/3 4/4/4
f 6/6/6 5/5/5 4/4/4
f 7/7/7 5/5/5 6/6/6
f 8/8/8 7/7/7 6/6/6
f 11/11/11 10/10/10 9/9/9
f 12/12/12 11/11/11 9/9/9
f 13/13/13 11/11/11 12/12/12
f 14/14/14 13/13/13 12/12/12
f 2/2/2 13/13/13 14/14/14
f 1/1/1 2/2/2 14/14/14
f 17/17/17 16/16/16 15/15/15
f 17/17/17 15/15/15 18/18/18
f 17/17/17 18/18/18 19/19/19
f 17/17/17 19/19/19 20/20/20
f 17/17/17 20/20/20 21/21/21
f 17/17/17 21/21/21 16/16/16
f 24/24/24 23/23/23 22/22/22
f 25/25/25 24/24/24 22/22/22
f 26/26/26 25/25/25 22/22/22
f 27/27/27 26/26/26 22/22/22
f 28/28/28 27/27/27 22/22/22
f 23/23/23 28/28/28 22/22/22
f 31/31/31 30/30/30 29/29/29
f 32/32/32 31/31/31 29/29/29
f 35/35/35 34/34/34 33/33/33
f 36/36/36 35/35/35 33/33/33
f 39/39/39 38/38/38 37/37/37
f 40/40/40 39/39/39 37/37/37
f 43/43/43 42/42/42 41/41/41
f 44/44/44 43/43/43 41/41/41
