g FourLegs_08
v -0.08660892 -0.058033317 0.08733493
v -0.15814036 -0.058033317 0.037794083
v -0.032285288 -0.058033317 -0.14385575
v 0.039246127 -0.058033317 -0.09431489
v -0.19378507 -0.13335404 0.0130268335
v -0.06793001 -0.13335404 -0.168623
v -0.19378507 -0.13335404 0.0130268335
v -0.15814036 -0.2086811 0.037794083
v -0.032285288 -0.2086811 -0.14385575
v -0.06793001 -0.13335404 -0.168623
v -0.08660892 -0.2086811 0.08733493
v 0.039246127 -0.2086811 -0.09431489
v -0.05084321 -0.13335404 0.11209583
v 0.07501185 -0.13335404 -0.069554
v -0.032285288 -0.058033317 -0.14385575
v 0.0034804195 -0.13335404 -0.1190885
v 0.039246127 -0.058033317 -0.09431489
v -0.06793001 -0.13335404 -0.168623
v -0.032285288 -0.2086811 -0.14385575
v 0.039246127 -0.2086811 -0.09431489
v 0.07501185 -0.13335404 -0.069554
v -0.122374654 -0.13335404 0.06256771
v -0.15814036 -0.058033317 0.037794083
v -0.08660892 -0.058033317 0.08733493
v -0.19378507 -0.13335404 0.0130268335
v -0.15814036 -0.2086811 0.037794083
v -0.08660892 -0.2086811 0.08733493
v -0.05084321 -0.13335404 0.11209583
v 0.07452147 0.20868108 0.12560987
v 0.1366593 0.13315657 0.16862297
v -0.053403378 -0.16289131 0.08995879
v -0.14898878 -0.0885641 0.023751453
v 0.1366593 0.13315657 0.16862297
v 0.1937851 0.13315657 0.08611855
v 0.053403392 -0.16289131 -0.06413439
v -0.053403378 -0.16289131 0.08995879
v 0.1937851 0.13315657 0.08611855
v 0.13165364 0.20868108 0.043105453
v -0.04217565 -0.0885641 -0.13034171
v 0.053403392 -0.16289131 -0.06413439
v 0.13165364 0.20868108 0.043105453
v 0.07452147 0.20868108 0.12560987
v -0.14898878 -0.0885641 0.023751453
v -0.04217565 -0.0885641 -0.13034171
v -0.14898878 -0.0885641 0.023751453
v -0.053403378 -0.16289131 0.08995879
v 0.053403392 -0.16289131 -0.06413439
v -0.04217565 -0.0885641 -0.13034171
v 0.13165364 0.20868108 0.043105453
v 0.1937851 0.13315657 0.08611855
v 0.1366593 0.13315657 0.16862297
v 0.07452147 0.20868108 0.12560987
vt 0.88266003 0.8787708
vt 0.88025784 0.8787708
vt 0.88025784 0.88460463
vt 0.88266003 0.88460463
vt 0.8779701 0.8787708
vt 0.8779701 0.88460463
vt 0.8919255 0.8787708
vt 0.8895233 0.8787708
vt 0.8895233 0.88460463
vt 0.8919255 0.88460463
vt 0.8872356 0.8787708
vt 0.8872356 0.88460463
vt 0.8849478 0.8787708
vt 0.8849478 0.88460463
vt 0.9192643 0.88151616
vt 0.92246723 0.88151616
vt 0.9208658 0.8787708
vt 0.9208658 0.8842615
vt 0.9240687 0.8842615
vt 0.9256701 0.88151616
vt 0.9240687 0.8787708
vt 0.92246723 0.88151616
vt 0.9240687 0.8842615
vt 0.9256701 0.88151616
vt 0.9208658 0.8842615
vt 0.9192643 0.88151616
vt 0.9208658 0.8787708
vt 0.9240687 0.8787708
vt 0.9861816 0.954496
vt 0.9861816 0.958614
vt 0.9949895 0.95781326
vt 0.9949895 0.954496
vt 0.9861816 0.958614
vt 0.9861816 0.9623888
vt 0.9949895 0.9623888
vt 0.9949895 0.95781326
vt 0.9861816 0.9464888
vt 0.9861816 0.95060676
vt 0.9949895 0.9499205
vt 0.9949895 0.9464888
vt 0.9861816 0.95060676
vt 0.9861816 0.954496
vt 0.9949895 0.954496
vt 0.9949895 0.9499205
vt 0.93321973 0.88243127
vt 0.93321973 0.8787708
vt 0.92818666 0.8787708
vt 0.92818666 0.88243127
vt 0.9591859 0.90691036
vt 0.9563262 0.90691036
vt 0.9563262 0.9096557
vt 0.9591859 0.9096557
vn 0.4109918 0.8661396 0.28440812
vn -0.41099173 0.8661396 -0.2844082
vn -0.41099173 0.8661396 -0.2844082
vn 0.4109918 0.8661396 0.28440812
vn -0.82538015 0.0033965707 -0.5645672
vn -0.82538015 0.0033965707 -0.5645672
vn -0.82538015 0.0033965707 -0.5645672
vn -0.41099173 -0.8661397 -0.2844078
vn -0.41099173 -0.8661397 -0.2844078
vn -0.82538015 0.0033965707 -0.5645672
vn 0.4109918 -0.8661397 0.2844077
vn 0.4109918 -0.8661397 0.2844077
vn 0.8253802 0.0033965707 0.5645671
vn 0.8253802 0.0033965707 0.5645671
vn 0.5672366 0.0033965707 -0.82354784
vn 0.5672366 0.0033965707 -0.82354784
vn 0.5672366 0.0033965707 -0.82354784
vn 0.5672366 0.0033965707 -0.82354784
vn 0.5672366 -0.00339669 -0.82354784
vn 0.5672366 -0.00339669 -0.82354784
vn 0.5672366 0.0033965707 -0.82354784
vn -0.5672365 0.0033965707 0.82354796
vn -0.5672365 -0.00339669 0.82354796
vn -0.5672365 0.0033965707 0.82354796
vn -0.5672365 0.0033965707 0.82354796
vn -0.5672365 0.0033965707 0.82354796
vn -0.5672365 -0.00339669 0.82354796
vn -0.5672365 0.0033965707 0.82354796
vn -0.50609726 0.0917089 0.8575868
vn -0.50609726 0.0917089 0.8575868
vn -0.50609726 0.0917089 0.8575868
vn -0.50609726 0.0917089 0.8575868
vn 0.6827219 -0.56044334 0.46882197
vn 0.6827219 -0.56044334 0.46882197
vn 0.6827219 -0.56044334 0.46882197
vn 0.6827219 -0.56044334 0.46882197
vn 0.6215826 0.0917089 -0.7779618
vn 0.6215826 0.0917089 -0.7779618
vn 0.6215826 0.0917089 -0.7779618
vn 0.6215826 0.0917089 -0.7779618
vn -0.6351691 0.6283758 -0.44911474
vn -0.6351691 0.6283758 -0.44911474
vn -0.6351691 0.6283758 -0.44911474
vn -0.6351691 0.6283758 -0.44911474
vn -0.44495803 -0.8457599 -0.29445282
vn -0.44495803 -0.8457599 -0.29445282
vn -0.44495803 -0.8457599 -0.29445282
vn -0.44495803 -0.8457599 -0.29445282
vn 0.5808231 0.70989484 0.39836398
vn 0.5808231 0.70989484 0.39836398
vn 0.5808231 0.70989484 0.39836398
vn 0.5808231 0.70989484 0.39836398
g FourLegs_08_0
f 3/3/3 2/2/2 1/1/1
f 4/4/4 3/3/3 1/1/1
f 6/6/6 5/5/5 2/2/2
f 3/3/3 6/6/6 2/2/2
f 9/9/9 8/8/8 7/7/7
f 10/10/10 9/9/9 7/7/7
f 12/12/12 11/11/11 8/8/8
f 9/9/9 12/12/12 8/8/8
f 14/14/14 13/13/13 11/11/11
f 12/12/12 14/14/14 11/11/11
f 4/4/4 1/1/1 13/13/13
f 14/14/14 4/4/4 13/13/13
f 17/17/17 16/16/16 15/15/15
f 15/15/15 16/16/16 18/18/18
f 18/18/18 16/16/16 19/19/19
f 19/19/19 16/16/16 20/20/20
f 20/20/20 16/16/16 21/21/21
f 21/21/21 16/16/16 17/17/17
f 24/24/24 23/23/23 22/22/22
f 23/23/23 25/25/25 22/22/22
f 25/25/25 26/26/26 22/22/22
f 26/26/26 27/27/27 22/22/22
f 27/27/27 28/28/28 22/22/22
f 28/28/28 24/24/24 22/22/22
f 31/31/31 30/30/30 29/29/29
f 32/32/32 31/31/31 29/29/29
f 35/35/35 34/34/34 33/33/33
f 36/36/36 35/35/35 33/33/33
f 39/39/39 38/38/38 37/37/37
f 40/40/40 39/39/39 37/37/37
f 43/43/43 42/42/42 41/41/41
f 44/44/44 43/43/43 41/41/41
f 47/47/47 46/46/46 45/45/45
f 48/48/48 47/47/47 45/45/45
f 51/51/51 50/50/50 49/49/49
f 52/52/52 51/51/51 49/49/49
