g FourLegs_03_CorpsePart
v -0.014706105 0.2665974 0.14233392
v -0.096864164 0.34022486 0.18977666
v -0.21442175 0.34022486 -0.013862163
v -0.13226372 0.2665974 -0.061304897
v -0.1931752 0.2948805 0.24538499
v -0.31073278 0.2948805 0.0417462
v -0.20733958 0.17588598 0.2535506
v -0.3248858 0.17588598 0.049900413
v -0.12518153 0.10224709 0.20610785
v -0.24273914 0.10224709 0.0024576783
v -0.028870493 0.1476028 0.15049952
v -0.14642811 0.1476028 -0.05313927
v -0.028870493 0.1476028 0.15049952
v -0.14642811 0.1476028 -0.05313927
v -0.21442175 0.34022486 -0.013862163
v -0.22857475 0.22124165 -0.005696535
v -0.13226372 0.2665974 -0.061304897
v -0.31073278 0.2948805 0.0417462
v -0.3248858 0.17588598 0.049900413
v -0.24273914 0.10224709 0.0024576783
v -0.14642811 0.1476028 -0.05313927
v -0.11102855 0.22124165 0.19794226
v -0.096864164 0.34022486 0.18977666
v -0.014706105 0.2665974 0.14233392
v -0.1931752 0.2948805 0.24538499
v -0.20733958 0.17588598 0.2535506
v -0.12518153 0.10224709 0.20610785
v -0.028870493 0.1476028 0.15049952
v 0.11383405 -0.04918191 0.13963103
v -0.03875822 0.11460957 0.22773081
v 0.060118824 0.37369704 0.17067409
v 0.25237593 0.17979771 0.05968547
v -0.06695014 -0.04918191 -0.17360504
v -0.21954238 0.11460957 -0.08550525
v -0.03875822 0.11460957 0.22773081
v 0.11383405 -0.04918191 0.13963103
v 0.07147771 0.17979771 -0.2535506
v -0.12066534 0.37369704 -0.14256199
v -0.21954238 0.11460957 -0.08550525
v -0.06695014 -0.04918191 -0.17360504
v 0.25237593 0.17979771 0.05968547
v 0.060118824 0.37369704 0.17067409
v -0.12066534 0.37369704 -0.14256199
v 0.07147771 0.17979771 -0.2535506
v 0.060118824 0.37369704 0.17067409
v -0.07818356 0.23518938 0.25049418
v -0.25896776 0.23518938 -0.062741876
v -0.12066534 0.37369704 -0.14256199
v 0.23895285 -0.37369704 -0.24064071
v 0.177551 -0.37369704 -0.20514989
v 0.26348394 -0.37369704 -0.05630973
v 0.3248858 -0.37369704 -0.09180054
v 0.23895285 -0.37369704 -0.24064071
v 0.3248858 -0.37369704 -0.09180054
v 0.25237593 0.17979771 0.05968547
v 0.07147771 0.17979771 -0.2535506
v 0.177551 -0.37369704 -0.20514989
v 0.23895285 -0.37369704 -0.24064071
v 0.26348394 -0.37369704 -0.05630973
v 0.177551 -0.37369704 -0.20514989
v -0.06695014 -0.04918191 -0.17360504
v 0.11383405 -0.04918191 0.13963103
v 0.3248858 -0.37369704 -0.09180054
v 0.26348394 -0.37369704 -0.05630973
v -0.07818356 0.23518938 0.25049418
v -0.25896776 0.23518938 -0.062741876
v -0.07818356 0.23518938 0.25049418
v -0.25896776 0.23518938 -0.062741876
vt 0.9726117 0.89474106
vt 0.9726117 0.89156735
vt 0.9662642 0.89156735
vt 0.9662642 0.89474106
vt 0.9726117 0.8883936
vt 0.9662642 0.8883936
vt 0.9726117 0.8852198
vt 0.9662642 0.8852198
vt 0.9726117 0.8819327
vt 0.9662642 0.8819327
vt 0.9726117 0.8787589
vt 0.9662642 0.8787589
vt 0.9726117 0.8980282
vt 0.9662642 0.8980282
vt 0.91922444 0.88147926
vt 0.9223982 0.88147926
vt 0.9208113 0.8787589
vt 0.9208113 0.884313
vt 0.92398506 0.884313
vt 0.9256853 0.88147926
vt 0.92398506 0.8787589
vt 0.9223982 0.88147926
vt 0.9256853 0.88147926
vt 0.92398506 0.8787589
vt 0.92398506 0.884313
vt 0.9208113 0.884313
vt 0.91922444 0.88147926
vt 0.9208113 0.8787589
vt 0.92409843 0.96229696
vt 0.91695744 0.95969
vt 0.9117434 0.9662642
vt 0.91922444 0.96762437
vt 0.96354383 0.98009276
vt 0.96354383 0.98621356
vt 0.9726117 0.98621356
vt 0.9726117 0.98009276
vt 0.91922444 0.97669226
vt 0.9117434 0.97805244
vt 0.91695744 0.9846267
vt 0.92409843 0.98201966
vt 0.91922444 0.96762437
vt 0.9117434 0.9662642
vt 0.9117434 0.97805244
vt 0.91922444 0.97669226
vt 0.9726117 0.99471474
vt 0.9726117 0.98938733
vt 0.96354383 0.98938733
vt 0.96354383 0.99471474
vt 0.93407315 0.9744253
vt 0.93554664 0.97476536
vt 0.93554664 0.9695513
vt 0.93407315 0.96989137
vt 0.93407315 0.9744253
vt 0.93407315 0.96989137
vt 0.91922444 0.96762437
vt 0.91922444 0.97669226
vt 0.93554664 0.97476536
vt 0.93407315 0.9744253
vt 0.9726117 0.96989137
vt 0.96354383 0.96989137
vt 0.96354383 0.98009276
vt 0.9726117 0.98009276
vt 0.93407315 0.96989137
vt 0.93554664 0.9695513
vt 0.91321695 0.96037006
vt 0.96354383 0.98938733
vt 0.9726117 0.98938733
vt 0.91321695 0.9839466
vn 0.80483127 0.37398672 -0.46084768
vn 0.117838025 0.9907192 -0.06774715
vn 0.117838025 0.9907192 -0.06774715
vn 0.80483127 0.37398672 -0.46084768
vn -0.6862563 0.61599565 0.38678375
vn -0.6862563 0.61599565 0.38678375
vn -0.8033575 -0.37546045 0.4622188
vn -0.8033575 -0.37546045 0.4622188
vn -0.11636424 -0.99219304 0.044858806
vn -0.11636424 -0.99219304 0.044858806
vn 0.6877301 -0.6096627 -0.39413035
vn 0.6877301 -0.6096627 -0.39413035
vn 0.6877301 -0.6096627 -0.39413035
vn 0.6877301 -0.6096627 -0.39413035
vn -0.49889457 -0.0007368922 -0.8666624
vn -0.49889457 -0.0007368922 -0.8666624
vn -0.49889457 -0.0007368922 -0.8666624
vn -0.49889457 -0.0007368922 -0.8666624
vn -0.49889457 -0.0007368922 -0.8666624
vn -0.49889457 -0.0007368922 -0.8666624
vn -0.49889457 -0.0007368922 -0.8666624
vn 0.50036836 -0.0007368922 0.8658123
vn 0.50036836 -0.0007368922 0.8658123
vn 0.50036836 -0.0007368922 0.8658123
vn 0.50036836 -0.0007368922 0.8658123
vn 0.50036836 -0.0007368922 0.8658123
vn 0.50036836 -0.0007368922 0.8658123
vn 0.50036836 -0.0007368922 0.8658123
vn 0.570629 -0.08661103 0.81662786
vn 0.50036836 -0.0007368922 0.8658123
vn 0.50036836 -0.0007368922 0.8658123
vn 0.539402 -0.04757732 0.8407032
vn -0.59257543 -0.73457056 0.33054566
vn -0.6862563 -0.61746943 0.3844266
vn -0.6862563 -0.61746943 0.3844266
vn -0.59257543 -0.73457056 0.33054566
vn -0.45205414 -0.04757732 -0.8907207
vn -0.49889457 -0.0007368922 -0.8666624
vn -0.49889457 -0.0007368922 -0.8666624
vn -0.42082715 -0.08661103 -0.9029967
vn 0.570629 0.75651705 -0.31947532
vn 0.570629 0.75651705 -0.31947532
vn 0.570629 0.75651705 -0.31947532
vn 0.570629 0.75651705 -0.31947532
vn -0.5691552 0.75651705 0.32209358
vn -0.5691552 0.75651705 0.32209358
vn -0.5691552 0.75651705 0.32209358
vn -0.5691552 0.75651705 0.32209358
vn 0.0007368922 -0.99999976 -0
vn 0.0007368922 -0.99999976 -0
vn 0.0007368922 -0.99999976 -0
vn 0.0007368922 -0.99999976 -0
vn 0.8438649 0.24127209 -0.47924918
vn 0.8438649 0.24127209 -0.47924918
vn 0.8438649 0.24127209 -0.47924918
vn 0.8438649 0.24127209 -0.47924918
vn -0.35837317 -0.14906496 -0.92160094
vn -0.35837317 -0.14906496 -0.92160094
vn -0.7096766 -0.570629 0.41320896
vn -0.7096766 -0.570629 0.41320896
vn -0.7096766 -0.570629 0.41320896
vn -0.7096766 -0.570629 0.41320896
vn 0.61746943 -0.14906496 0.7723413
vn 0.61746943 -0.14906496 0.7723413
vn 0.50036836 -0.0007368922 0.8658123
vn -0.81116426 -0.35204023 0.46699056
vn -0.81116426 -0.35204023 0.46699056
vn -0.49889457 -0.0007368922 -0.8666624
g FourLegs_03_CorpsePart_0
f 3/3/3 2/2/2 1/1/1
f 4/4/4 3/3/3 1/1/1
f 6/6/6 5/5/5 2/2/2
f 3/3/3 6/6/6 2/2/2
f 8/8/8 7/7/7 5/5/5
f 6/6/6 8/8/8 5/5/5
f 10/10/10 9/9/9 7/7/7
f 8/8/8 10/10/10 7/7/7
f 12/12/12 11/11/11 9/9/9
f 10/10/10 12/12/12 9/9/9
f 4/4/4 1/1/1 13/13/13
f 14/14/14 4/4/4 13/13/13
f 17/17/17 16/16/16 15/15/15
f 15/15/15 16/16/16 18/18/18
f 18/18/18 16/16/16 19/19/19
f 19/19/19 16/16/16 20/20/20
f 20/20/20 16/16/16 21/21/21
f 21/21/21 16/16/16 17/17/17
f 24/24/24 23/23/23 22/22/22
f 23/23/23 25/25/25 22/22/22
f 25/25/25 26/26/26 22/22/22
f 26/26/26 27/27/27 22/22/22
f 27/27/27 28/28/28 22/22/22
f 28/28/28 24/24/24 22/22/22
f 31/31/31 30/30/30 29/29/29
f 32/32/32 31/31/31 29/29/29
f 35/35/35 34/34/34 33/33/33
f 36/36/36 35/35/35 33/33/33
f 39/39/39 38/38/38 37/37/37
f 40/40/40 39/39/39 37/37/37
f 43/43/43 42/42/42 41/41/41
f 44/44/44 43/43/43 41/41/41
f 47/47/47 46/46/46 45/45/45
f 48/48/48 47/47/47 45/45/45
f 51/51/51 50/50/50 49/49/49
f 52/52/52 51/51/51 49/49/49
f 55/55/55 54/54/54 53/53/53
f 56/56/56 55/55/55 53/53/53
f 37/37/37 58/58/58 57/57/57
f 40/40/40 37/37/37 57/57/57
f 61/61/61 60/60/60 59/59/59
f 62/62/62 61/61/61 59/59/59
f 29/29/29 64/64/64 63/63/63
f 32/32/32 29/29/29 63/63/63
f 31/31/31 65/65/65 30/30/30
f 67/67/67 66/66/66 34/34/34
f 35/35/35 67/67/67 34/34/34
f 39/39/39 68/68/68 38/38/38
