g FourLegs_01
v -0.095398605 0.09995422 0.11114985
v -0.054869533 0.19797802 0.08779186
v 0.13616936 -0.09860082 0.013355628
v 0.03070192 -0.19797802 0.07425195
v -0.054869533 0.19797802 0.08779186
v -0.09576717 0.19797802 0.017113686
v 0.064270735 -0.09860082 -0.11114985
v 0.13616936 -0.09860082 0.013355628
v -0.09576717 0.19797802 0.017113686
v -0.13616937 0.09995422 0.040465638
v -0.041196704 -0.19797802 -0.050253525
v 0.064270735 -0.09860082 -0.11114985
v -0.13616937 0.09995422 0.040465638
v -0.095398605 0.09995422 0.11114985
v 0.03070192 -0.19797802 0.07425195
v -0.041196704 -0.19797802 -0.050253525
vt 0.94239426 0.91483265
vt 0.9465148 0.91483265
vt 0.9465148 0.90695786
vt 0.9427605 0.90695786
vt 0.9465148 0.91483265
vt 0.94962806 0.91483265
vt 0.9499943 0.90695786
vt 0.9465148 0.90695786
vt 0.94962806 0.91483265
vt 0.95379436 0.91483265
vt 0.95379436 0.90695786
vt 0.9499943 0.90695786
vt 0.939281 0.91483265
vt 0.94239426 0.91483265
vt 0.9427605 0.90695786
vt 0.939281 0.90695786
vn 0.4363473 0.061366916 0.8976832
vn 0.4363473 0.061366916 0.8976832
vn 0.4363473 0.061366916 0.8976832
vn 0.4363473 0.061366916 0.8976832
vn 0.7148303 0.56500626 -0.41205046
vn 0.7148303 0.56500626 -0.41205046
vn 0.7148303 0.56500626 -0.41205046
vn 0.7148303 0.56500626 -0.41205046
vn -0.5590812 0.061366916 -0.8268388
vn -0.5590812 0.061366916 -0.8268388
vn -0.5590812 0.061366916 -0.8268388
vn -0.5590812 0.061366916 -0.8268388
vn -0.796088 -0.39487115 0.45860732
vn -0.796088 -0.39487115 0.45860732
vn -0.796088 -0.39487115 0.45860732
vn -0.796088 -0.39487115 0.45860732
g FourLegs_01_0
f 3/3/3 2/2/2 1/1/1
f 4/4/4 3/3/3 1/1/1
f 7/7/7 6/6/6 5/5/5
f 8/8/8 7/7/7 5/5/5
f 11/11/11 10/10/10 9/9/9
f 12/12/12 11/11/11 9/9/9
f 15/15/15 14/14/14 13/13/13
f 16/16/16 15/15/15 13/13/13
