g FourSpiderShassis_CustomizePart_2_CorpsePart
v -24.697235 -31.360619 -4.3436966
v 18.188025 8.581127 -17.63522
v 5.849041 19.187916 -11.699734
v -2.4683456 -36.082577 -12.912159
v 11.401308 19.214344 3.6587486
v 5.887583 -36.08368 10.029209
v -16.69149 -31.351809 17.784985
v 24.697237 8.577824 0.23841095
v 24.697237 8.577824 0.23841095
v -2.4683456 -36.082577 -12.912159
v 5.887583 -36.08368 10.029209
v 18.188025 8.581127 -17.63522
v -24.697235 -31.360619 -4.3436966
v 11.401308 19.214344 3.6587486
v -16.69149 -31.351809 17.784985
v 5.849041 19.187916 -11.699734
v 5.849041 19.187916 -11.699734
v 24.697237 8.577824 0.23841095
v 11.401308 19.214344 3.6587486
v 18.188025 8.581127 -17.63522
v -16.69149 -31.351809 17.784985
v -2.4683456 -36.082577 -12.912159
v -24.697235 -31.360619 -4.3436966
v 5.887583 -36.08368 10.029209
v 12.521233 32.40676 -17.784985
v 12.623644 25.602425 7.7012634
v 20.724094 32.40676 4.752243
v 4.42078 25.602425 -14.837063
v 8.403833 36.08368 -16.286245
v -10.249451 7.0967064 10.096382
v -14.78751 7.0967064 -2.371441
v 16.606697 36.08368 6.2509804
v -10.249451 7.0967064 10.096382
v 12.623644 25.602425 7.7012634
v -7.4567986 4.602478 9.079971
v 16.606697 36.08368 6.2509804
v 20.724094 32.40676 4.752243
v -7.4567986 4.602478 9.079971
v -14.78751 7.0967064 -2.371441
v -11.993755 4.602478 -3.3878517
v -11.993755 4.602478 -3.3878517
v 4.42078 25.602425 -14.837063
v 8.403833 36.08368 -16.286245
v 12.521233 32.40676 -17.784985
v 12.521233 32.40676 -17.784985
v 16.606697 36.08368 6.2509804
v 8.403833 36.08368 -16.286245
v 20.724094 32.40676 4.752243
v -11.993755 4.602478 -3.3878517
v -7.4567986 4.602478 9.079971
v 12.623644 25.602425 7.7012634
vt 0.4785607 0.46010193
vt 0.45330134 0.56891155
vt 0.4853613 0.57085454
vt 0.4377571 0.4785607
vt 0.51547825 0.57085454
vt 0.56405395 0.4785607
vt 0.52227885 0.46010193
vt 0.5475382 0.56891155
vt 0.5475382 0.56891155
vt 0.6087436 0.48924735
vt 0.56405395 0.4785607
vt 0.58251274 0.5776552
vt 0.4785607 0.46010193
vt 0.51547825 0.57085454
vt 0.52227885 0.46010193
vt 0.4853613 0.57085454
vt 0.51450676 0.6009715
vt 0.5475382 0.56891155
vt 0.51547825 0.57085454
vt 0.5465667 0.60485756
vt 0.52227885 0.46010193
vt 0.58154124 0.43678558
vt 0.53976613 0.42026985
vt 0.56405395 0.4785607
vt 0.8117901 0.52616495
vt 0.85842276 0.5485098
vt 0.85842276 0.52616495
vt 0.8117901 0.5475382
vt 0.8117901 0.51547825
vt 0.8477361 0.4387286
vt 0.82247674 0.4387286
vt 0.85842276 0.51547825
vt 0.8477361 0.4387286
vt 0.86425185 0.49410492
vt 0.8555082 0.4377571
vt 0.85842276 0.51547825
vt 0.87008095 0.51450676
vt 0.8477361 0.4309565
vt 0.82247674 0.4387286
vt 0.82247674 0.4309565
vt 0.81470466 0.4377571
vt 0.805961 0.49410492
vt 0.8117901 0.51547825
vt 0.8001319 0.51450676
vt 0.8117901 0.52616495
vt 0.85842276 0.51547825
vt 0.8117901 0.51547825
vt 0.85842276 0.52616495
vt 0.82150525 0.60388607
vt 0.8477361 0.60388607
vt 0.85842276 0.5485098
vn -0.35327137 0.06687677 -0.93312746
vn -0.36724186 0.08084726 -0.92660517
vn -0.36724186 0.08783245 -0.9259692
vn -0.34628618 0.05989158 -0.93621516
vn 0.31731117 0.07386196 0.94544065
vn 0.33128166 0.07386196 0.9406364
vn 0.3382669 0.07386196 0.938147
vn 0.31032592 0.08084726 0.9471861
vn 0.84818906 -0.42907494 -0.31059626
vn 0.84818906 -0.42907494 -0.31059626
vn 0.84818906 -0.42907494 -0.31059626
vn 0.84818906 -0.42907494 -0.31059626
vn -0.80032647 0.52790225 0.2842477
vn -0.80032647 0.52790225 0.2842477
vn -0.80032647 0.52790225 0.2842477
vn -0.80032647 0.52790225 0.2842477
vn 0.5757649 0.786356 -0.22391768
vn 0.5757649 0.786356 -0.22391768
vn 0.5757649 0.786356 -0.22391768
vn 0.5757649 0.786356 -0.22391768
vn -0.18562579 -0.9809085 0.05797916
vn -0.18562579 -0.9809085 0.05797916
vn -0.18562579 -0.9809085 0.05797916
vn -0.18562579 -0.9809085 0.05797916
vn 0.5827501 -0.78532195 -0.20897782
vn 0.6665729 -0.7014991 -0.25214982
vn 0.5827501 -0.78532195 -0.20897782
vn 0.6665729 -0.7014991 -0.25214982
vn -0.69554794 0.67459226 0.24726173
vn -0.69554794 0.67459226 0.24726173
vn -0.69554794 0.67459226 0.24726173
vn -0.69554794 0.67459226 0.24726173
vn -0.06687677 -0.38716352 0.9195825
vn 0.016946077 0.12275863 0.99229187
vn -0.03893578 -0.41510445 0.9089402
vn 0.18459171 0.06687677 0.9805373
vn 0.3452521 -0.002975583 0.93850523
vn -0.03893578 -0.41510445 0.9089402
vn -0.6396661 -0.38716352 -0.6640269
vn -0.6117251 -0.4081192 -0.67766595
vn -0.6117251 -0.4081192 -0.67766595
vn -0.6047399 0.11577344 -0.7879633
vn -0.47900558 0.05989158 -0.87576634
vn -0.33930087 -0.002975583 -0.9406732
vn 0.6037058 0.7654003 -0.22293876
vn 0.6037058 0.7654003 -0.22293876
vn 0.6037058 0.7654003 -0.22293876
vn 0.6037058 0.7654003 -0.22293876
vn 0.69451386 -0.6805434 -0.23347619
vn 0.69451386 -0.6805434 -0.23347619
vn 0.6665729 -0.7014991 -0.25214982
g FourSpiderShassis_CustomizePart_2_CorpsePart_0
f 3/3/3 2/2/2 1/1/1
f 4/4/4 1/1/1 2/2/2
f 7/7/7 6/6/6 5/5/5
f 8/8/8 5/5/5 6/6/6
f 11/11/11 10/10/10 9/9/9
f 12/12/12 9/9/9 10/10/10
f 15/15/15 14/14/14 13/13/13
f 16/16/16 13/13/13 14/14/14
f 19/19/19 18/18/18 17/17/17
f 20/20/20 17/17/17 18/18/18
f 23/23/23 22/22/22 21/21/21
f 24/24/24 21/21/21 22/22/22
f 27/27/27 26/26/26 25/25/25
f 28/28/28 25/25/25 26/26/26
f 31/31/31 30/30/30 29/29/29
f 32/32/32 29/29/29 30/30/30
f 35/35/35 34/34/34 33/33/33
f 33/33/33 34/34/34 36/36/36
f 36/36/36 34/34/34 37/37/37
f 33/33/33 39/39/39 38/38/38
f 40/40/40 38/38/38 39/39/39
f 39/39/39 42/42/42 41/41/41
f 44/44/44 42/42/42 43/43/43
f 47/47/47 46/46/46 45/45/45
f 48/48/48 45/45/45 46/46/46
f 39/39/39 43/43/43 42/42/42
f 50/50/50 49/49/49 28/28/28
f 51/51/51 50/50/50 28/28/28
