g FourLegs_09_CorpsePart
v -0.13586754 0.2665974 0.056446582
v -0.21386296 0.34022486 0.002412051
v -0.07995126 0.34022486 -0.19087146
v -0.0019558668 0.2665974 -0.13683692
v -0.30529284 0.2948805 -0.060939968
v -0.17138118 0.2948805 -0.25422347
v -0.31872737 0.17588598 -0.07022321
v -0.18481565 0.17588598 -0.26350674
v -0.24072057 0.10224709 -0.016188681
v -0.10680887 0.10224709 -0.2094722
v -0.14929062 0.1476028 0.047151923
v -0.015378982 0.1476028 -0.14613159
v -0.14929062 0.1476028 0.047151923
v -0.015378982 0.1476028 -0.14613159
v -0.07995126 0.34022486 -0.19087146
v -0.093385786 0.22124165 -0.20017754
v -0.0019558668 0.2665974 -0.13683692
v -0.17138118 0.2948805 -0.25422347
v -0.18481565 0.17588598 -0.26350674
v -0.10680887 0.10224709 -0.2094722
v -0.015378982 0.1476028 -0.14613159
v -0.22729743 0.22124165 -0.006894022
v -0.21386296 0.34022486 0.002412051
v -0.13586754 0.2665974 0.056446582
v -0.30529284 0.2948805 -0.060939968
v -0.31872737 0.17588598 -0.07022321
v -0.24072057 0.10224709 -0.016188681
v -0.14929062 0.1476028 0.047151923
v -0.07849151 -0.04918191 0.17155224
v -0.22338569 0.11460957 0.07119262
v -0.12951523 0.37369704 0.1361869
v 0.05285415 0.17979771 0.2625944
v 0.12743962 -0.04918191 -0.12575175
v -0.017329156 0.11460957 -0.22611137
v -0.22338569 0.11460957 0.07119262
v -0.07849151 -0.04918191 0.17155224
v 0.25891072 0.17979771 -0.03469819
v 0.07641587 0.37369704 -0.1611171
v -0.017329156 0.11460957 -0.22611137
v 0.12743962 -0.04918191 -0.12575175
v 0.05285415 0.17979771 0.2625944
v -0.12951523 0.37369704 0.1361869
v 0.07641587 0.37369704 -0.1611171
v 0.25891072 0.17979771 -0.03469819
v -0.12951523 0.37369704 0.1361869
v -0.26074684 0.23518938 0.045270175
v -0.054804355 0.23518938 -0.2520338
v 0.07641587 0.37369704 -0.1611171
v 0.31872734 -0.37369704 0.12225059
v 0.2603705 -0.37369704 0.081810206
v 0.16247424 -0.37369704 0.22308916
v 0.22081968 -0.37369704 0.26350677
v 0.31872734 -0.37369704 0.12225059
v 0.22081968 -0.37369704 0.26350677
v 0.05285415 0.17979771 0.2625944
v 0.25891072 0.17979771 -0.03469819
v 0.2603705 -0.37369704 0.081810206
v 0.31872734 -0.37369704 0.12225059
v 0.16247424 -0.37369704 0.22308916
v 0.2603705 -0.37369704 0.081810206
v 0.12743962 -0.04918191 -0.12575175
v -0.07849151 -0.04918191 0.17155224
v 0.22081968 -0.37369704 0.26350677
v 0.16247424 -0.37369704 0.22308916
v -0.26074684 0.23518938 0.045270175
v -0.054804355 0.23518938 -0.2520338
v -0.26074684 0.23518938 0.045270175
v -0.054804355 0.23518938 -0.2520338
vt 0.9726117 0.89474106
vt 0.9726117 0.89156735
vt 0.9662642 0.89156735
vt 0.9662642 0.89474106
vt 0.9726117 0.8883936
vt 0.9662642 0.8883936
vt 0.9726117 0.8852198
vt 0.9662642 0.8852198
vt 0.9726117 0.8819327
vt 0.9662642 0.8819327
vt 0.9726117 0.8787589
vt 0.9662642 0.8787589
vt 0.9726117 0.8980282
vt 0.9662642 0.8980282
vt 0.91922444 0.88147926
vt 0.9223982 0.88147926
vt 0.9208113 0.8787589
vt 0.9208113 0.884313
vt 0.92398506 0.884313
vt 0.9256853 0.88147926
vt 0.92398506 0.8787589
vt 0.9223982 0.88147926
vt 0.9256853 0.88147926
vt 0.92398506 0.8787589
vt 0.92398506 0.884313
vt 0.9208113 0.884313
vt 0.91922444 0.88147926
vt 0.9208113 0.8787589
vt 0.92409843 0.96229696
vt 0.91695744 0.95969
vt 0.9117434 0.9662642
vt 0.91922444 0.96762437
vt 0.96354383 0.98009276
vt 0.96354383 0.98621356
vt 0.9726117 0.98621356
vt 0.9726117 0.98009276
vt 0.91922444 0.97669226
vt 0.9117434 0.97805244
vt 0.91695744 0.9846267
vt 0.92409843 0.98201966
vt 0.91922444 0.96762437
vt 0.9117434 0.9662642
vt 0.9117434 0.97805244
vt 0.91922444 0.97669226
vt 0.9726117 0.99471474
vt 0.9726117 0.98938733
vt 0.96354383 0.98938733
vt 0.96354383 0.99471474
vt 0.93407315 0.9744253
vt 0.93554664 0.97476536
vt 0.93554664 0.9695513
vt 0.93407315 0.96989137
vt 0.93407315 0.9744253
vt 0.93407315 0.96989137
vt 0.91922444 0.96762437
vt 0.91922444 0.97669226
vt 0.93554664 0.97476536
vt 0.93407315 0.9744253
vt 0.9726117 0.96989137
vt 0.96354383 0.96989137
vt 0.96354383 0.98009276
vt 0.9726117 0.98009276
vt 0.93407315 0.96989137
vt 0.93554664 0.9695513
vt 0.91321695 0.96037006
vt 0.96354383 0.98938733
vt 0.9726117 0.98938733
vt 0.91321695 0.9839466
vn 0.75799096 0.37398577 0.53440094
vn 0.1100319 0.99071777 0.07982017
vn 0.1100319 0.99071777 0.07982017
vn 0.75799096 0.37398577 0.53440094
vn -0.64722145 0.6159946 -0.44906023
vn -0.64722145 0.6159946 -0.44906023
vn -0.7643225 -0.37546092 -0.524252
vn -0.7643225 -0.37546092 -0.524252
vn -0.10855675 -0.99219304 -0.06138717
vn -0.10855675 -0.99219304 -0.06138717
vn 0.64869666 -0.609663 0.4555257
vn 0.64869666 -0.609663 0.4555257
vn 0.64869666 -0.609663 0.4555257
vn 0.64869666 -0.609663 0.4555257
vn 0.5706293 -0.0007376075 -0.82120746
vn 0.5706293 -0.0007376075 -0.82120746
vn 0.5706293 -0.0007376075 -0.82120746
vn 0.5706293 -0.0007376075 -0.82120746
vn 0.5706293 -0.0007376075 -0.82120746
vn 0.5706293 -0.0007376075 -0.82120746
vn 0.5706293 -0.0007376075 -0.82120746
vn -0.56915414 -0.0007376075 0.8222305
vn -0.56915414 -0.0007376075 0.8222305
vn -0.56915414 -0.0007376075 0.8222305
vn -0.56915414 -0.0007376075 0.8222305
vn -0.56915414 -0.0007376075 0.8222305
vn -0.56915414 -0.0007376075 0.8222305
vn -0.56915414 -0.0007376075 0.8222305
vn -0.4988935 -0.08661169 0.8623246
vn -0.56915414 -0.0007376075 0.8222305
vn -0.56915414 -0.0007376075 0.8222305
vn -0.5301204 -0.047578037 0.8465865
vn -0.56134737 -0.73457074 -0.38117576
vn -0.64722145 -0.6174697 -0.44702968
vn -0.64722145 -0.6174697 -0.44702968
vn -0.56134737 -0.73457074 -0.38117576
vn 0.609663 -0.047578037 -0.7912316
vn 0.5706293 -0.0007376075 -0.82120746
vn 0.5706293 -0.0007376075 -0.82120746
vn 0.6330832 -0.08661169 -0.769223
vn 0.53940237 0.75651574 0.36976886
vn 0.53940237 0.75651574 0.36976886
vn 0.53940237 0.75651574 0.36976886
vn 0.53940237 0.75651574 0.36976886
vn -0.53792715 0.75651574 -0.37191167
vn -0.53792715 0.75651574 -0.37191167
vn -0.53792715 0.75651574 -0.37191167
vn -0.53792715 0.75651574 -0.37191167
vn 0.0007376075 -0.99999976 -0
vn 0.0007376075 -0.99999976 -0
vn 0.0007376075 -0.99999976 -0
vn 0.0007376075 -0.99999976 -0
vn 0.7970246 0.24127126 0.5536605
vn 0.7970246 0.24127126 0.5536605
vn 0.7970246 0.24127126 0.5536605
vn 0.7970246 0.24127126 0.5536605
vn 0.6799236 -0.14906555 -0.7179717
vn 0.6799236 -0.14906555 -0.7179717
vn -0.67064166 -0.5706293 -0.47394305
vn -0.67064166 -0.5706293 -0.47394305
vn -0.67064166 -0.5706293 -0.47394305
vn -0.67064166 -0.5706293 -0.47394305
vn -0.43643963 -0.14906555 0.88729924
vn -0.43643963 -0.14906555 0.88729924
vn -0.56915414 -0.0007376075 0.8222305
vn -0.7721292 -0.3520407 -0.5290405
vn -0.7721292 -0.3520407 -0.5290405
vn 0.5706293 -0.0007376075 -0.82120746
g FourLegs_09_CorpsePart_0
f 3/3/3 2/2/2 1/1/1
f 4/4/4 3/3/3 1/1/1
f 6/6/6 5/5/5 2/2/2
f 3/3/3 6/6/6 2/2/2
f 8/8/8 7/7/7 5/5/5
f 6/6/6 8/8/8 5/5/5
f 10/10/10 9/9/9 7/7/7
f 8/8/8 10/10/10 7/7/7
f 12/12/12 11/11/11 9/9/9
f 10/10/10 12/12/12 9/9/9
f 4/4/4 1/1/1 13/13/13
f 14/14/14 4/4/4 13/13/13
f 17/17/17 16/16/16 15/15/15
f 15/15/15 16/16/16 18/18/18
f 18/18/18 16/16/16 19/19/19
f 19/19/19 16/16/16 20/20/20
f 20/20/20 16/16/16 21/21/21
f 21/21/21 16/16/16 17/17/17
f 24/24/24 23/23/23 22/22/22
f 23/23/23 25/25/25 22/22/22
f 25/25/25 26/26/26 22/22/22
f 26/26/26 27/27/27 22/22/22
f 27/27/27 28/28/28 22/22/22
f 28/28/28 24/24/24 22/22/22
f 31/31/31 30/30/30 29/29/29
f 32/32/32 31/31/31 29/29/29
f 35/35/35 34/34/34 33/33/33
f 36/36/36 35/35/35 33/33/33
f 39/39/39 38/38/38 37/37/37
f 40/40/40 39/39/39 37/37/37
f 43/43/43 42/42/42 41/41/41
f 44/44/44 43/43/43 41/41/41
f 47/47/47 46/46/46 45/45/45
f 48/48/48 47/47/47 45/45/45
f 51/51/51 50/50/50 49/49/49
f 52/52/52 51/51/51 49/49/49
f 55/55/55 54/54/54 53/53/53
f 56/56/56 55/55/55 53/53/53
f 37/37/37 58/58/58 57/57/57
f 40/40/40 37/37/37 57/57/57
f 61/61/61 60/60/60 59/59/59
f 62/62/62 61/61/61 59/59/59
f 29/29/29 64/64/64 63/63/63
f 32/32/32 29/29/29 63/63/63
f 31/31/31 65/65/65 30/30/30
f 67/67/67 66/66/66 34/34/34
f 35/35/35 67/67/67 34/34/34
f 39/39/39 68/68/68 38/38/38
