g FourLegs_13_CorpsePart
v 0.1701034 -0.10358244 -0.17011532
v 6.5624714E-05 -0.10358244 -0.24058649
v 6.5624714E-05 -0.20060708 5.990267E-06
v -0.17010343 -0.10358244 -0.17011532
v -0.24053878 -0.10358244 5.990267E-06
v -0.17010343 -0.10358244 0.17011535
v 6.5624714E-05 -0.10358244 0.24058652
v 0.1701034 -0.10358244 0.17011535
v 0.24065809 -0.10358244 5.990267E-06
v 0.24065809 -0.10358244 5.990267E-06
v 0.29742885 0.09678 5.990267E-06
v 0.2102618 0.09678 -0.21028568
v 0.1701034 -0.10358244 -0.17011532
v 6.5624714E-05 0.09678 -0.2973811
v 6.5624714E-05 -0.10358244 -0.24058649
v -0.21026182 0.09678 -0.21028568
v -0.17010343 -0.10358244 -0.17011532
v -0.2972976 0.09678 5.990267E-06
v -0.24053878 -0.10358244 5.990267E-06
v -0.21026182 0.09678 0.21028572
v -0.17010343 -0.10358244 0.17011535
v 6.5624714E-05 0.09678 0.2973811
v 6.5624714E-05 -0.10358244 0.24058652
v 0.2102618 0.09678 0.21028572
v 0.1701034 -0.10358244 0.17011535
v 0.1956186 0.083914995 0.39104033
v -0.1954993 0.083914995 0.39104033
v -0.1954993 0.20060712 0.39104033
v 0.1956186 0.20060712 0.39104033
v 0.39105225 0.20060712 -0.19553506
v -0.39105225 0.20060712 -0.19553506
v -0.1954993 0.20060712 -0.39104033
v 0.1956186 0.20060712 -0.39104033
v 0.1956186 0.20060712 -0.39104033
v -0.1954993 0.20060712 -0.39104033
v -0.1954993 0.083914995 -0.39104033
v 0.1956186 0.083914995 -0.39104033
v 0.39105225 0.083914995 0.19553506
v 0.39105225 0.20060712 0.19553506
v 0.39105225 0.20060712 -0.19553506
v 0.39105225 0.083914995 -0.19553506
v -0.39105225 0.20060712 -0.19553506
v -0.39105225 0.20060712 0.19553506
v -0.39105225 0.083914995 0.19553506
v -0.39105225 0.083914995 -0.19553506
v -0.39105225 0.083914995 0.19553506
v -0.39105225 0.20060712 0.19553506
v -0.1954993 0.20060712 0.39104033
v -0.1954993 0.083914995 0.39104033
v 0.1956186 0.083914995 0.39104033
v 0.1956186 0.20060712 0.39104033
v 0.39105225 0.20060712 0.19553506
v 0.39105225 0.083914995 0.19553506
v -0.39105225 0.20060712 -0.19553506
v -0.39105225 0.083914995 -0.19553506
v -0.1954993 0.083914995 -0.39104033
v -0.1954993 0.20060712 -0.39104033
v 0.1956186 0.20060712 -0.39104033
v 0.1956186 0.083914995 -0.39104033
v 0.39105225 0.083914995 -0.19553506
v 0.39105225 0.20060712 -0.19553506
v 0.39105225 0.20060712 0.19553506
v 0.1956186 0.20060712 0.39104033
v -0.1954993 0.20060712 0.39104033
v -0.39105225 0.20060712 0.19553506
v 0.2800885 0.065607995 0.12455076
v 0.17327788 0.065607995 0.11019397
v 0.17327788 -0.1316993 0.11019397
v 0.2800885 -0.1316993 0.12455076
v 0.17327788 0.065607995 0.11019397
v 0.10748491 0.065607995 0.19543964
v 0.10748491 -0.1316993 0.19543964
v 0.17327788 -0.1316993 0.11019397
v 0.14850259 0.065607995 0.29504204
v 0.14850259 -0.1316993 0.29504204
v 0.2551939 0.065607995 0.30939883
v 0.2551939 -0.1316993 0.30939883
v 0.32098687 0.065607995 0.22415316
v 0.32098687 -0.1316993 0.22415316
v 0.17327788 -0.1316993 0.11019397
v 0.21429555 -0.1316993 0.20979643
v 0.2800885 -0.1316993 0.12455076
v 0.10748491 -0.1316993 0.19543964
v 0.14850259 -0.1316993 0.29504204
v 0.2551939 -0.1316993 0.30939883
v 0.32098687 -0.1316993 0.22415316
v 0.15960135 0.065607995 -0.31908932
v 0.10101661 0.065607995 -0.22872394
v 0.10101661 -0.1316993 -0.22872394
v 0.15960135 -0.1316993 -0.31908932
v 0.10101661 0.065607995 -0.22872394
v 0.14995855 0.065607995 -0.13282111
v 0.14995855 -0.1316993 -0.13282111
v 0.10101661 -0.1316993 -0.22872394
v 0.2575091 0.065607995 -0.12729558
v 0.2575091 -0.1316993 -0.12729558
v 0.31610578 0.065607995 -0.21766098
v 0.31610578 -0.1316993 -0.21766098
v 0.2671519 0.065607995 -0.31355187
v 0.2671519 -0.1316993 -0.31355187
v 0.10101661 -0.1316993 -0.22872394
v 0.20855522 -0.1316993 -0.2231865
v 0.15960135 -0.1316993 -0.31908932
v 0.14995855 -0.1316993 -0.13282111
v 0.2575091 -0.1316993 -0.12729558
v 0.31610578 -0.1316993 -0.21766098
v 0.2671519 -0.1316993 -0.31355187
v -0.159482 0.065607995 -0.31908932
v -0.159482 -0.1316993 -0.31908932
v -0.10088536 -0.1316993 -0.22872394
v -0.10088536 0.065607995 -0.22872394
v -0.10088536 0.065607995 -0.22872394
v -0.10088536 -0.1316993 -0.22872394
v -0.14995855 -0.1316993 -0.13282111
v -0.14995855 0.065607995 -0.13282111
v -0.25738978 -0.1316993 -0.12729558
v -0.25738978 0.065607995 -0.12729558
v -0.31597453 -0.1316993 -0.21766098
v -0.31597453 0.065607995 -0.21766098
v -0.26703256 -0.1316993 -0.31355187
v -0.26703256 0.065607995 -0.31355187
v -0.10088536 -0.1316993 -0.22872394
v -0.159482 -0.1316993 -0.31908932
v -0.2084359 -0.1316993 -0.2231865
v -0.14995855 -0.1316993 -0.13282111
v -0.25738978 -0.1316993 -0.12729558
v -0.31597453 -0.1316993 -0.21766098
v -0.26703256 -0.1316993 -0.31355187
v -0.27996922 0.065607995 0.12455076
v -0.27996922 -0.1316993 0.12455076
v -0.17327791 -0.1316993 0.11019397
v -0.17327791 0.065607995 0.11019397
v -0.17327791 0.065607995 0.11019397
v -0.17327791 -0.1316993 0.11019397
v -0.10748494 -0.1316993 0.19543964
v -0.10748494 0.065607995 0.19543964
v -0.14837134 -0.1316993 0.29504204
v -0.14837134 0.065607995 0.29504204
v -0.25506264 -0.1316993 0.30939883
v -0.25506264 0.065607995 0.30939883
v -0.32086754 -0.1316993 0.22415316
v -0.32086754 0.065607995 0.22415316
v -0.17327791 -0.1316993 0.11019397
v -0.27996922 -0.1316993 0.12455076
v -0.21417624 -0.1316993 0.20979643
v -0.10748494 -0.1316993 0.19543964
v -0.14837134 -0.1316993 0.29504204
v -0.25506264 -0.1316993 0.30939883
v -0.32086754 -0.1316993 0.22415316
vt 0.9451232 0.97779655
vt 0.9495324 0.97960544
vt 0.9495324 0.97338736
vt 0.9539416 0.97779655
vt 0.9557505 0.97338736
vt 0.9539416 0.96897817
vt 0.9495324 0.96705616
vt 0.9451232 0.96897817
vt 0.94331425 0.97338736
vt 0.94331425 0.97338736
vt 0.9381137 0.97338736
vt 0.9415054 0.9814144
vt 0.9451232 0.97779655
vt 0.9495324 0.98480606
vt 0.9495324 0.97960544
vt 0.9576725 0.9814144
vt 0.9539416 0.97779655
vt 0.9609511 0.97338736
vt 0.9557505 0.97338736
vt 0.9576725 0.9652473
vt 0.9539416 0.96897817
vt 0.9495324 0.9618556
vt 0.9495324 0.96705616
vt 0.9415054 0.9652473
vt 0.9451232 0.96897817
vt 0.9437665 0.90442276
vt 0.95665497 0.90442276
vt 0.95563745 0.90170944
vt 0.944784 0.90170944
vt 0.9392442 0.8864468
vt 0.96117723 0.8864468
vt 0.95563745 0.8814723
vt 0.944784 0.8814723
vt 0.944784 0.8814723
vt 0.95563745 0.8814723
vt 0.95665497 0.8787589
vt 0.9437665 0.8787589
vt 0.93675697 0.89797854
vt 0.9392442 0.89684796
vt 0.9392442 0.8864468
vt 0.93675697 0.8852031
vt 0.96117723 0.8864468
vt 0.96117723 0.89684796
vt 0.96377754 0.89797854
vt 0.96377754 0.8852031
vt 0.96377754 0.89797854
vt 0.96117723 0.89684796
vt 0.95563745 0.90170944
vt 0.95665497 0.90442276
vt 0.9437665 0.90442276
vt 0.944784 0.90170944
vt 0.9392442 0.89684796
vt 0.93675697 0.89797854
vt 0.96117723 0.8864468
vt 0.96377754 0.8852031
vt 0.95665497 0.8787589
vt 0.95563745 0.8814723
vt 0.944784 0.8814723
vt 0.9437665 0.8787589
vt 0.93675697 0.8852031
vt 0.9392442 0.8864468
vt 0.9392442 0.89684796
vt 0.944784 0.90170944
vt 0.95563745 0.90170944
vt 0.96117723 0.89684796
vt 0.9944159 0.92545134
vt 0.9944159 0.9226249
vt 0.98910224 0.9226249
vt 0.98910224 0.92545134
vt 0.9944159 0.9398095
vt 0.9944159 0.9369831
vt 0.98910224 0.9369831
vt 0.98910224 0.9398095
vt 0.9944159 0.93415666
vt 0.98910224 0.93415666
vt 0.9944159 0.9312172
vt 0.98910224 0.9312172
vt 0.9944159 0.9283908
vt 0.98910224 0.9283908
vt 0.9192332 0.8815853
vt 0.9223988 0.8815853
vt 0.920816 0.8787589
vt 0.920816 0.8842987
vt 0.92398155 0.8842987
vt 0.9256774 0.8815853
vt 0.92398155 0.8787589
vt 0.9944159 0.92545134
vt 0.9944159 0.9226249
vt 0.98910224 0.9226249
vt 0.98910224 0.92545134
vt 0.9944159 0.9398095
vt 0.9944159 0.9369831
vt 0.98910224 0.9369831
vt 0.98910224 0.9398095
vt 0.9944159 0.93415666
vt 0.98910224 0.93415666
vt 0.9944159 0.9312172
vt 0.98910224 0.9312172
vt 0.9944159 0.9283908
vt 0.98910224 0.9283908
vt 0.9192332 0.8815853
vt 0.9223988 0.8815853
vt 0.920816 0.8787589
vt 0.920816 0.8842987
vt 0.92398155 0.8842987
vt 0.9256774 0.8815853
vt 0.92398155 0.8787589
vt 0.9944159 0.92545134
vt 0.98910224 0.92545134
vt 0.98910224 0.9226249
vt 0.9944159 0.9226249
vt 0.9944159 0.9398095
vt 0.98910224 0.9398095
vt 0.98910224 0.9369831
vt 0.9944159 0.9369831
vt 0.98910224 0.93415666
vt 0.9944159 0.93415666
vt 0.98910224 0.9312172
vt 0.9944159 0.9312172
vt 0.98910224 0.9283908
vt 0.9944159 0.9283908
vt 0.9192332 0.8815853
vt 0.920816 0.8787589
vt 0.9223988 0.8815853
vt 0.920816 0.8842987
vt 0.92398155 0.8842987
vt 0.9256774 0.8815853
vt 0.92398155 0.8787589
vt 0.9944159 0.92545134
vt 0.98910224 0.92545134
vt 0.98910224 0.9226249
vt 0.9944159 0.9226249
vt 0.9944159 0.9398095
vt 0.98910224 0.9398095
vt 0.98910224 0.9369831
vt 0.9944159 0.9369831
vt 0.98910224 0.93415666
vt 0.9944159 0.93415666
vt 0.98910224 0.9312172
vt 0.9944159 0.9312172
vt 0.98910224 0.9283908
vt 0.9944159 0.9283908
vt 0.9192332 0.8815853
vt 0.920816 0.8787589
vt 0.9223988 0.8815853
vt 0.920816 0.8842987
vt 0.92398155 0.8842987
vt 0.9256774 0.8815853
vt 0.92398155 0.8787589
vn 0.26274312 -0.9294047 -0.25917757
vn -0.003921509 -0.9294047 -0.36904138
vn 0.0039215684 -0.9999924 -0
vn -0.262743 -0.9294047 -0.25917765
vn -0.37206572 -0.9282063 -0
vn -0.262743 -0.9294047 0.25917765
vn -0.003921509 -0.9294047 0.36904138
vn 0.26274312 -0.9294047 0.25917757
vn 0.37206584 -0.9282063 -0
vn 0.960777 -0.2705862 -0.060751047
vn 0.960777 -0.2705862 -0.060751047
vn 0.6784262 -0.2705862 -0.6830234
vn 0.6784262 -0.2705862 -0.6830234
vn -0.003921509 -0.2705862 -0.96268773
vn -0.003921509 -0.2705862 -0.96268773
vn -0.67842615 -0.2705862 -0.68302345
vn -0.67842615 -0.2705862 -0.68302345
vn -0.9607769 -0.2705862 -0.06075203
vn -0.9607769 -0.2705862 -0.06075203
vn -0.67842615 -0.2705862 0.68302345
vn -0.67842615 -0.2705862 0.68302345
vn -0.003921509 -0.2705862 0.96268773
vn -0.003921509 -0.2705862 0.96268773
vn 0.6784262 -0.2705862 0.6830234
vn 0.6784262 -0.2705862 0.6830234
vn -0.003921509 0.003921509 0.9999846
vn -0.003921509 0.003921509 0.9999846
vn -0.003921509 0.003921509 0.9999846
vn -0.003921509 0.003921509 0.9999846
vn -0.003921509 0.99999225 -0.00034526698
vn -0.003921509 0.99999225 -0.00034526698
vn -0.003921509 0.99999225 -0.00034526698
vn -0.003921509 0.99999225 -0.00034526698
vn -0.003921509 0.003921509 -0.9999846
vn -0.003921509 0.003921509 -0.9999846
vn -0.003921509 0.003921509 -0.9999846
vn -0.003921509 0.003921509 -0.9999846
vn 0.9999924 0.003921509 -0
vn 0.9999924 0.003921509 -0
vn 0.9999924 0.003921509 -0
vn 0.9999924 0.003921509 -0
vn -0.99999225 0.003921509 -0.00034492963
vn -0.99999225 0.003921509 -0.00034492963
vn -0.99999225 0.003921509 -0.00034492963
vn -0.99999225 0.003921509 -0.00034492963
vn -0.70979846 0.003921509 0.7043939
vn -0.70979846 0.003921509 0.7043939
vn -0.70979846 0.003921509 0.7043939
vn -0.70979846 0.003921509 0.7043939
vn 0.7097985 0.003921509 0.70439386
vn 0.7097985 0.003921509 0.70439386
vn 0.7097985 0.003921509 0.70439386
vn 0.7097985 0.003921509 0.70439386
vn -0.70979846 0.003921509 -0.7043939
vn -0.70979846 0.003921509 -0.7043939
vn -0.70979846 0.003921509 -0.7043939
vn -0.70979846 0.003921509 -0.7043939
vn 0.7097985 0.003921509 -0.70439386
vn 0.7097985 0.003921509 -0.70439386
vn 0.7097985 0.003921509 -0.70439386
vn 0.7097985 0.003921509 -0.70439386
vn -0.003921509 0.99999225 -0.00034526698
vn -0.003921509 0.99999225 -0.00034526698
vn -0.003921509 0.99999225 -0.00034526698
vn -0.003921509 0.99999225 -0.00034526698
vn 0.6078385 0.003921509 -0.794051
vn -0.3803892 0.003921509 -0.9248182
vn -0.3803892 0.003921509 -0.9248182
vn 0.6078385 0.003921509 -0.794051
vn -0.3803892 0.003921509 -0.9248182
vn -0.99214923 0.003921509 -0.12499809
vn -0.99214923 0.003921509 -0.12499809
vn -0.3803892 0.003921509 -0.9248182
vn -0.6078384 0.003921509 0.7940511
vn -0.6078384 0.003921509 0.7940511
vn 0.38038927 0.003921509 0.92481816
vn 0.38038927 0.003921509 0.92481816
vn 0.9921493 0.003921509 0.124997616
vn 0.9921493 0.003921509 0.124997616
vn -0.003921509 -0.9999924 -0
vn -0.003921509 -0.9999924 -0
vn -0.003921509 -0.9999924 -0
vn -0.003921509 -0.9999924 -0
vn -0.003921509 -0.9999924 -0
vn -0.003921509 -0.9999924 -0
vn -0.003921509 -0.9999924 -0
vn -0.45097685 0.003921509 -0.89252704
vn -0.99999225 0.003921509 -0.00034492963
vn -0.99999225 0.003921509 -0.00034492963
vn -0.45097685 0.003921509 -0.89252704
vn -0.99999225 0.003921509 -0.00034492963
vn -0.5450938 0.003921509 0.8383659
vn -0.5450938 0.003921509 0.8383659
vn -0.99999225 0.003921509 -0.00034492963
vn 0.45097697 0.003921509 0.892527
vn 0.45097697 0.003921509 0.892527
vn 0.9999924 0.003921509 -0
vn 0.9999924 0.003921509 -0
vn 0.5450939 0.003921509 -0.83836585
vn 0.5450939 0.003921509 -0.83836585
vn -0.003921509 -0.9999924 -0
vn -0.003921509 -0.9999924 -0
vn -0.003921509 -0.9999924 -0
vn -0.003921509 -0.9999924 -0
vn -0.003921509 -0.9999924 -0
vn -0.003921509 -0.9999924 -0
vn -0.003921509 -0.9999924 -0
vn 0.45097697 0.003921509 -0.892527
vn 0.45097697 0.003921509 -0.892527
vn 0.9999924 0.003921509 -0
vn 0.9999924 0.003921509 -0
vn 0.9999924 0.003921509 -0
vn 0.9999924 0.003921509 -0
vn 0.5450939 0.003921509 0.83836585
vn 0.5450939 0.003921509 0.83836585
vn -0.45882 0.003921509 0.8885206
vn -0.45882 0.003921509 0.8885206
vn -0.99999225 0.003921509 -0.00034492963
vn -0.99999225 0.003921509 -0.00034492963
vn -0.5450938 0.003921509 -0.8383659
vn -0.5450938 0.003921509 -0.8383659
vn -0.003921509 -0.9999924 -0
vn -0.003921509 -0.9999924 -0
vn -0.003921509 -0.9999924 -0
vn -0.003921509 -0.9999924 -0
vn -0.003921509 -0.9999924 -0
vn -0.003921509 -0.9999924 -0
vn -0.003921509 -0.9999924 -0
vn -0.6078384 0.003921509 -0.7940511
vn -0.6078384 0.003921509 -0.7940511
vn 0.38038927 0.003921509 -0.92481816
vn 0.38038927 0.003921509 -0.92481816
vn 0.38038927 0.003921509 -0.92481816
vn 0.38038927 0.003921509 -0.92481816
vn 0.9921493 0.003921509 -0.124997616
vn 0.9921493 0.003921509 -0.124997616
vn 0.6078385 0.003921509 0.794051
vn 0.6078385 0.003921509 0.794051
vn -0.3803892 0.003921509 0.9248182
vn -0.3803892 0.003921509 0.9248182
vn -0.99214923 0.003921509 0.12499809
vn -0.99214923 0.003921509 0.12499809
vn -0.003921509 -0.9999924 -0
vn -0.003921509 -0.9999924 -0
vn -0.003921509 -0.9999924 -0
vn -0.003921509 -0.9999924 -0
vn -0.003921509 -0.9999924 -0
vn -0.003921509 -0.9999924 -0
vn -0.003921509 -0.9999924 -0
g FourLegs_13_CorpsePart_0
f 3/3/3 2/2/2 1/1/1
f 3/3/3 4/4/4 2/2/2
f 3/3/3 5/5/5 4/4/4
f 3/3/3 6/6/6 5/5/5
f 3/3/3 7/7/7 6/6/6
f 3/3/3 8/8/8 7/7/7
f 3/3/3 9/9/9 8/8/8
f 3/3/3 1/1/1 9/9/9
f 12/12/12 11/11/11 10/10/10
f 13/13/13 12/12/12 10/10/10
f 13/13/13 15/15/15 14/14/14
f 12/12/12 13/13/13 14/14/14
f 15/15/15 17/17/17 16/16/16
f 14/14/14 15/15/15 16/16/16
f 17/17/17 19/19/19 18/18/18
f 16/16/16 17/17/17 18/18/18
f 19/19/19 21/21/21 20/20/20
f 18/18/18 19/19/19 20/20/20
f 21/21/21 23/23/23 22/22/22
f 20/20/20 21/21/21 22/22/22
f 23/23/23 25/25/25 24/24/24
f 22/22/22 23/23/23 24/24/24
f 25/25/25 10/10/10 11/11/11
f 24/24/24 25/25/25 11/11/11
f 28/28/28 27/27/27 26/26/26
f 29/29/29 28/28/28 26/26/26
f 32/32/32 31/31/31 30/30/30
f 33/33/33 32/32/32 30/30/30
f 36/36/36 35/35/35 34/34/34
f 37/37/37 36/36/36 34/34/34
f 40/40/40 39/39/39 38/38/38
f 41/41/41 40/40/40 38/38/38
f 44/44/44 43/43/43 42/42/42
f 45/45/45 44/44/44 42/42/42
f 48/48/48 47/47/47 46/46/46
f 49/49/49 48/48/48 46/46/46
f 52/52/52 51/51/51 50/50/50
f 53/53/53 52/52/52 50/50/50
f 56/56/56 55/55/55 54/54/54
f 57/57/57 56/56/56 54/54/54
f 60/60/60 59/59/59 58/58/58
f 61/61/61 60/60/60 58/58/58
f 64/64/64 63/63/63 62/62/62
f 65/65/65 64/64/64 62/62/62
f 65/65/65 62/62/62 30/30/30
f 31/31/31 65/65/65 30/30/30
f 68/68/68 67/67/67 66/66/66
f 69/69/69 68/68/68 66/66/66
f 72/72/72 71/71/71 70/70/70
f 73/73/73 72/72/72 70/70/70
f 75/75/75 74/74/74 71/71/71
f 72/72/72 75/75/75 71/71/71
f 77/77/77 76/76/76 74/74/74
f 75/75/75 77/77/77 74/74/74
f 79/79/79 78/78/78 76/76/76
f 77/77/77 79/79/79 76/76/76
f 69/69/69 66/66/66 78/78/78
f 79/79/79 69/69/69 78/78/78
f 82/82/82 81/81/81 80/80/80
f 80/80/80 81/81/81 83/83/83
f 83/83/83 81/81/81 84/84/84
f 84/84/84 81/81/81 85/85/85
f 85/85/85 81/81/81 86/86/86
f 86/86/86 81/81/81 82/82/82
f 89/89/89 88/88/88 87/87/87
f 90/90/90 89/89/89 87/87/87
f 93/93/93 92/92/92 91/91/91
f 94/94/94 93/93/93 91/91/91
f 96/96/96 95/95/95 92/92/92
f 93/93/93 96/96/96 92/92/92
f 98/98/98 97/97/97 95/95/95
f 96/96/96 98/98/98 95/95/95
f 100/100/100 99/99/99 97/97/97
f 98/98/98 100/100/100 97/97/97
f 90/90/90 87/87/87 99/99/99
f 100/100/100 90/90/90 99/99/99
f 103/103/103 102/102/102 101/101/101
f 101/101/101 102/102/102 104/104/104
f 104/104/104 102/102/102 105/105/105
f 105/105/105 102/102/102 106/106/106
f 106/106/106 102/102/102 107/107/107
f 107/107/107 102/102/102 103/103/103
f 110/110/110 109/109/109 108/108/108
f 111/111/111 110/110/110 108/108/108
f 114/114/114 113/113/113 112/112/112
f 115/115/115 114/114/114 112/112/112
f 116/116/116 114/114/114 115/115/115
f 117/117/117 116/116/116 115/115/115
f 118/118/118 116/116/116 117/117/117
f 119/119/119 118/118/118 117/117/117
f 120/120/120 118/118/118 119/119/119
f 121/121/121 120/120/120 119/119/119
f 109/109/109 120/120/120 121/121/121
f 108/108/108 109/109/109 121/121/121
f 124/124/124 123/123/123 122/122/122
f 124/124/124 122/122/122 125/125/125
f 124/124/124 125/125/125 126/126/126
f 124/124/124 126/126/126 127/127/127
f 124/124/124 127/127/127 128/128/128
f 124/124/124 128/128/128 123/123/123
f 131/131/131 130/130/130 129/129/129
f 132/132/132 131/131/131 129/129/129
f 135/135/135 134/134/134 133/133/133
f 136/136/136 135/135/135 133/133/133
f 137/137/137 135/135/135 136/136/136
f 138/138/138 137/137/137 136/136/136
f 139/139/139 137/137/137 138/138/138
f 140/140/140 139/139/139 138/138/138
f 141/141/141 139/139/139 140/140/140
f 142/142/142 141/141/141 140/140/140
f 130/130/130 141/141/141 142/142/142
f 129/129/129 130/130/130 142/142/142
f 145/145/145 144/144/144 143/143/143
f 145/145/145 143/143/143 146/146/146
f 145/145/145 146/146/146 147/147/147
f 145/145/145 147/147/147 148/148/148
f 145/145/145 148/148/148 149/149/149
f 145/145/145 149/149/149 144/144/144
