g FourSpiderShassis_04
v -0.61013603 -0.1971538 -0.4150063
v -0.48362923 -0.2405192 -0.59674543
v -0.53746974 -0.2405192 -0.39574096
v -0.5562711 -0.1971538 -0.6160108
v -0.62869334 -0.2405192 -0.63561803
v -0.6825582 -0.32722557 -0.43461353
v -0.62869334 -0.32722557 -0.63561803
v -0.6825582 -0.2405192 -0.43461353
v -0.61001396 -0.37056655 -0.41517723
v -0.556149 -0.37056655 -0.61618173
v -0.53746974 -0.32722557 -0.39574096
v -0.48362923 -0.32722557 -0.59674543
v -0.5562711 -0.1971538 -0.6160108
v -0.61013603 -0.1971538 -0.4150063
v -0.48362923 -0.32722557 -0.59674543
v -0.62869334 -0.32722557 -0.63561803
v -0.556149 -0.37056655 -0.61618173
v -0.48362923 -0.2405192 -0.59674543
v -0.5562711 -0.1971538 -0.6160108
v -0.62869334 -0.2405192 -0.63561803
v -0.6825582 -0.32722557 -0.43461353
v -0.53746974 -0.32722557 -0.39574096
v -0.61001396 -0.37056655 -0.41517723
v -0.61013603 -0.1971538 -0.4150063
v -0.53746974 -0.2405192 -0.39574096
v -0.6825582 -0.2405192 -0.43461353
v -0.7214552 -0.24642822 -0.45041162
v -0.5680648 -0.2549499 -0.42513955
v -0.64146364 -0.3115984 -0.44482005
v -0.62009835 -0.16482508 -0.4258965
v -0.81621933 0.13328761 -0.5140435
v -0.7214552 -0.24642822 -0.45041162
v -0.9340824 0.038059533 -0.54437
v -0.62009835 -0.16482508 -0.4258965
v -0.5248703 -0.2549499 -0.586368
v -0.6703495 -0.24642822 -0.64118516
v -0.5982448 -0.3115984 -0.606024
v -0.5703356 -0.16484952 -0.6117377
v -0.5703356 -0.16484952 -0.6117377
v -0.90146065 0.038059533 -0.6661154
v -0.6703495 -0.24642822 -0.64118516
v -0.78428125 0.13326317 -0.6334693
v -0.6703495 -0.24642822 -0.64118516
v -0.64146364 -0.3115984 -0.44482005
v -0.5982448 -0.3115984 -0.606024
v -0.7214552 -0.24642822 -0.45041162
v -0.78428125 0.13326317 -0.6334693
v -0.62009835 -0.16482508 -0.4258965
v -0.81621933 0.13328761 -0.5140435
v -0.5703356 -0.16484952 -0.6117377
v -0.62009835 -0.16482508 -0.4258965
v -0.5248703 -0.2549499 -0.586368
v -0.5680648 -0.2549499 -0.42513955
v -0.5703356 -0.16484952 -0.6117377
v -0.6703495 -0.24642822 -0.64118516
v -0.9340824 0.038059533 -0.54437
v -0.7214552 -0.24642822 -0.45041162
v -0.90146065 0.038059533 -0.6661154
vt 0.660281 0.9283416
vt 0.6503744 0.9245539
vt 0.660281 0.9245539
vt 0.6503744 0.9283416
vt 0.6503744 0.9099853
vt 0.660281 0.9137732
vt 0.6503744 0.9137732
vt 0.660281 0.9099853
vt 0.660281 0.9172696
vt 0.6503744 0.9172696
vt 0.660281 0.9210574
vt 0.6503744 0.9210574
vt 0.6503744 0.9064889
vt 0.660281 0.9064889
vt 0.6637774 0.9271762
vt 0.67135304 0.9271762
vt 0.6675652 0.9292158
vt 0.6637774 0.92280567
vt 0.6675652 0.920766
vt 0.67135304 0.92280567
vt 0.6637774 0.9271762
vt 0.67135304 0.9271762
vt 0.6675652 0.9292158
vt 0.6675652 0.920766
vt 0.67135304 0.92280567
vt 0.6637774 0.92280567
vt 0.6320181 0.9265934
vt 0.63522315 0.92950714
vt 0.63260084 0.92950714
vt 0.6358059 0.9265934
vt 0.63726276 0.907363
vt 0.6317267 0.9193092
vt 0.63143533 0.907363
vt 0.63638866 0.9193092
vt 0.63522315 0.92950714
vt 0.6320181 0.9265934
vt 0.63260084 0.92950714
vt 0.6358059 0.9265934
vt 0.63638866 0.9193092
vt 0.63143533 0.907363
vt 0.6317267 0.9193092
vt 0.63726276 0.907363
vt 0.63638866 0.92164016
vt 0.6320181 0.9245539
vt 0.63609725 0.9245539
vt 0.6317267 0.92164016
vt 0.6419247 0.9076544
vt 0.6462952 0.91960055
vt 0.6457125 0.9076544
vt 0.6410506 0.91960055
vt 0.6317267 0.92164016
vt 0.63609725 0.9245539
vt 0.6320181 0.9245539
vt 0.63638866 0.92164016
vt 0.6410506 0.91960055
vt 0.6457125 0.9076544
vt 0.6462952 0.91960055
vt 0.6419247 0.9076544
vn -0.003921509 0.99999225 -0.00034526698
vn 0.83528775 0.4980353 0.23292746
vn 0.83528775 0.4980353 0.23292746
vn -0.003921509 0.99999225 -0.00034526698
vn -0.8352877 0.4980353 -0.23292772
vn -0.8352877 -0.49803543 -0.23292746
vn -0.8352877 -0.49803543 -0.23292746
vn -0.8352877 0.4980353 -0.23292772
vn -0.003921509 -0.9999924 -0
vn -0.003921509 -0.9999924 -0
vn 0.83528775 -0.49803543 0.2329272
vn 0.83528775 -0.49803543 0.2329272
vn -0.003921509 0.99999225 -0.00034526698
vn -0.003921509 0.99999225 -0.00034526698
vn 0.25490004 0.003921509 -0.9669595
vn 0.25490004 0.003921509 -0.9669595
vn 0.25490004 0.003921509 -0.9669595
vn 0.25490004 0.003921509 -0.9669595
vn 0.25490004 0.003921509 -0.9669595
vn 0.26274312 0.003921509 -0.9648579
vn -0.262743 -0.0039215684 0.9648579
vn -0.25489998 -0.0039215684 0.9669595
vn -0.25489998 0.003921509 0.9669595
vn -0.25489998 -0.0039215684 0.9669595
vn -0.25489998 0.003921509 0.9669595
vn -0.262743 0.003921509 0.9648579
vn -0.27842915 0.050979972 0.9591028
vn -0.16862607 -0.098038495 0.9807924
vn -0.16862607 -0.121567726 0.97815466
vn -0.27058613 0.050979972 0.961345
vn -0.30980146 0.08235228 0.94722813
vn -0.27842915 0.050979972 0.9591028
vn -0.30980146 0.08235228 0.94722813
vn -0.27058613 0.050979972 0.961345
vn 0.34901696 -0.098038495 -0.93197405
vn 0.23921388 0.05882299 -0.96918344
vn 0.3411739 -0.121567726 -0.932106
vn 0.23921388 0.050979972 -0.9696277
vn 0.23921388 0.050979972 -0.9696277
vn 0.20784158 0.08235228 -0.9746897
vn 0.23921388 0.05882299 -0.96918344
vn 0.20784158 0.074509144 -0.9753206
vn -0.7254846 -0.66274005 -0.185601
vn -0.6156815 -0.77254313 -0.15528476
vn -0.6156815 -0.77254313 -0.15528476
vn -0.7254846 -0.66274005 -0.185601
vn 0.7882293 0.5764661 0.21536352
vn 0.79607236 0.5607799 0.22758444
vn 0.7882293 0.5764661 0.21536352
vn 0.79607236 0.5607799 0.22758444
vn 0.79607236 0.5607799 0.22758444
vn 0.8431308 0.4901923 0.22100206
vn 0.8431308 0.4901923 0.22100206
vn 0.79607236 0.5607799 0.22758444
vn -0.7254846 -0.66274005 -0.185601
vn -0.7490138 -0.63136774 -0.20088093
vn -0.7254846 -0.66274005 -0.185601
vn -0.7490138 -0.63136774 -0.20088093
g FourSpiderShassis_04_0
f 3/3/3 2/2/2 1/1/1
f 4/4/4 1/1/1 2/2/2
f 7/7/7 6/6/6 5/5/5
f 8/8/8 5/5/5 6/6/6
f 10/10/10 9/9/9 7/7/7
f 6/6/6 7/7/7 9/9/9
f 12/12/12 11/11/11 10/10/10
f 9/9/9 10/10/10 11/11/11
f 2/2/2 3/3/3 12/12/12
f 11/11/11 12/12/12 3/3/3
f 14/14/14 13/13/13 8/8/8
f 5/5/5 8/8/8 13/13/13
f 17/17/17 16/16/16 15/15/15
f 15/15/15 16/16/16 18/18/18
f 18/18/18 16/16/16 19/19/19
f 19/19/19 16/16/16 20/20/20
f 23/23/23 22/22/22 21/21/21
f 25/25/25 24/24/24 22/22/22
f 22/22/22 24/24/24 21/21/21
f 21/21/21 24/24/24 26/26/26
f 29/29/29 28/28/28 27/27/27
f 30/30/30 27/27/27 28/28/28
f 33/33/33 32/32/32 31/31/31
f 34/34/34 31/31/31 32/32/32
f 37/37/37 36/36/36 35/35/35
f 38/38/38 35/35/35 36/36/36
f 41/41/41 40/40/40 39/39/39
f 42/42/42 39/39/39 40/40/40
f 45/45/45 44/44/44 43/43/43
f 46/46/46 43/43/43 44/44/44
f 49/49/49 48/48/48 47/47/47
f 50/50/50 47/47/47 48/48/48
f 53/53/53 52/52/52 51/51/51
f 54/54/54 51/51/51 52/52/52
f 57/57/57 56/56/56 55/55/55
f 58/58/58 55/55/55 56/56/56
