g FourTrackShassis_03_CorpsePart
v 0.8969121 -0.25623667 -0.49223918
v 0.898202 -0.29481602 -0.46090662
v 0.898202 -0.29441732 -0.294347
v 0.8979206 -0.26202947 -0.21549964
v 0.898202 0.16117096 -0.28986758
v 0.8969121 -0.25581455 -0.80066305
v 0.898202 0.16989529 -0.37891668
v 0.8981786 -0.20288229 -1.0571162
v 0.898202 -0.2969033 -0.8356073
v 0.898202 -0.29057115 -1.0256194
v 0.8732486 -0.30067915 -0.53961325
v 0.8745384 -0.30067915 -0.39263642
v 0.8732486 -0.25825357 -0.4661131
v 0.8745384 -0.42795587 -0.4661131
v 0.8745384 -0.3855303 -0.39263642
v 0.8732486 -0.3855303 -0.53961325
v 0.8732486 -0.41658145 -0.68290806
v 0.8732486 -0.26960462 -0.68290806
v 0.8732486 -0.34310472 -0.7253336
v 0.8732486 -0.34310472 -0.55560786
v 0.8732486 -0.26960462 -0.5980334
v 0.8732486 -0.41658145 -0.5980334
v 0.8745384 -0.41658145 -0.85990405
v 0.8745384 -0.26960462 -0.85990405
v 0.8745384 -0.34310472 -0.9023296
v 0.8732486 -0.34310472 -0.73262733
v 0.8732486 -0.26960462 -0.7750529
v 0.8745384 -0.41658145 -0.7750529
v 0.8807064 0.019564748 -0.19687843
v 0.8807064 0.0012483597 -0.46646488
v 0.8807064 -0.0674206 -0.3263831
v 0.8807064 0.15687919 -0.47704196
v 0.8807064 0.24386442 -0.34753728
v 0.8807064 0.17519557 -0.20745552
v 0.8822777 -0.33712435 -0.9092012
v 0.8822777 -0.3439256 -1.14185
v 0.8822777 -0.4076929 -1.0235556
v 0.8822777 -0.2095896 -1.1457666
v 0.8822777 -0.13904452 -1.0314122
v 0.8822777 -0.20281184 -0.91311777
v 0.96719927 -0.3610459 -0.754532
v 0.96719927 -0.3610459 -0.5424041
v 0.876227 -0.2746938 -0.509594
v 0.876227 -0.27457654 -0.78593487
v 0.96719927 -0.3610459 -0.5424041
v 0.96719927 -0.3610459 -0.754532
v 0.87754035 -0.36102247 -0.78917134
v 0.87749344 -0.360999 -0.5076944
v 0.96719927 -0.3610459 -0.5424041
v 0.87749344 -0.360999 -0.5076944
v 0.876227 -0.2746938 -0.509594
v 0.96719927 -0.3610459 -0.754532
v 0.876227 -0.27457654 -0.78593487
v 0.87754035 -0.36102247 -0.78917134
v 0.8838256 -0.36988747 -0.14418066
v 0.8840836 -0.3218568 -0.37854147
v 0.8840836 -0.4135326 -0.2752332
v 0.8840836 -0.18653584 -0.3508206
v 0.88366145 -0.14289069 -0.21976805
v 0.88375527 -0.23456657 -0.11645973
v 0.868816 -0.09518838 -1.081835
v 0.868816 -0.38285673 -1.1696881
v 0.868816 -0.45093936 -1.0787628
v 0.868816 -0.26751733 -1.2021464
v 0.868816 -0.16531134 -1.1759031
v 0.868816 0.26368177 -0.43215388
v 0.8686753 -0.46020305 -0.19514287
v 0.8687222 0.22392988 -0.16069114
v 0.868816 0.29424047 -0.28025204
v 0.86865187 -0.35321277 -0.07164204
v 0.86846423 -0.18336976 -0.07558203
v 0.5799281 -0.113598585 -1.0849308
v 0.58025646 -0.42884707 -1.0865959
v 0.58025646 -0.27504557 -1.1888957
v 0.57999843 -0.43670368 -0.2090503
v 0.58025646 0.26689482 -0.36010778
v 0.57999843 0.20969415 -0.16573346
v 0.57974046 -0.2534458 -0.08409536
v 0.93061334 0.21947384 -0.1490587
v 0.52523685 -0.27689832 -0.04750943
v 0.52523685 0.21947384 -0.1490587
v 0.93061334 -0.27689832 -0.04750943
v 0.525917 -0.26632124 -1.2202986
v 0.93068373 -0.14197612 -1.1819069
v 0.525917 -0.14197612 -1.1819069
v 0.93068373 -0.26632124 -1.2202986
v 0.93068373 -0.4621262 -1.0751511
v 0.525917 -0.38921237 -1.1827277
v 0.525917 -0.4621262 -1.0751511
v 0.93068373 -0.38921237 -1.1827277
v 0.93061334 -0.40886557 -0.09249127
v 0.52523685 -0.40886557 -0.09249127
v 0.52523685 0.29412317 -0.23853004
v 0.93061334 0.316661 -0.34777176
v 0.93061334 0.29412317 -0.23853004
v 0.52523685 0.316661 -0.34777176
v 0.93061334 -0.47483742 -0.21324825
v 0.525917 -0.4621262 -1.0751511
v 0.52523685 -0.47483742 -0.21324825
v 0.93068373 -0.4621262 -1.0751511
vt 0.8409194 0.9772515
vt 0.8391255 0.9763546
vt 0.8391255 0.9700761
vt 0.84002244 0.9682822
vt 0.8543732 0.9700761
vt 0.8409194 0.98711765
vt 0.8543732 0.9736638
vt 0.84271324 0.99608684
vt 0.8391255 0.9889115
vt 0.8391255 0.9951899
vt 0.8454039 0.9637977
vt 0.85257936 0.9637977
vt 0.84899163 0.96648836
vt 0.84899163 0.9575192
vt 0.85257936 0.96020997
vt 0.8454039 0.96020997
vt 0.8471978 0.9584161
vt 0.8471978 0.96559155
vt 0.8445071 0.9620038
vt 0.8534763 0.9620038
vt 0.8507855 0.96559155
vt 0.8507855 0.9584161
vt 0.8471978 0.9584161
vt 0.8471978 0.96559155
vt 0.8445071 0.9620038
vt 0.8534763 0.9620038
vt 0.8507855 0.96559155
vt 0.8507855 0.9584161
vt 0.86513627 0.96290076
vt 0.8561671 0.9620038
vt 0.8606516 0.95931304
vt 0.8561671 0.9673853
vt 0.8606516 0.970973
vt 0.86513627 0.9682822
vt 0.86513627 0.96290076
vt 0.8561671 0.9620038
vt 0.8606516 0.95931304
vt 0.8561671 0.9673853
vt 0.8606516 0.970973
vt 0.86513627 0.9682822
vt 0.8355378 0.88935316
vt 0.84271324 0.88935316
vt 0.84361017 0.8929409
vt 0.83464086 0.8929409
vt 0.84271324 0.88935316
vt 0.8355378 0.88935316
vt 0.83464086 0.88576543
vt 0.84361017 0.88576543
vt 0.84988856 0.8875593
vt 0.84630084 0.8875593
vt 0.84630084 0.8902501
vt 0.84988856 0.8875593
vt 0.84630084 0.8902501
vt 0.84630084 0.8875593
vt 0.86513627 0.96290076
vt 0.8561671 0.9620038
vt 0.8606516 0.95931304
vt 0.8561671 0.9673853
vt 0.8606516 0.970973
vt 0.86513627 0.9682822
vt 0.7503302 0.8750024
vt 0.7503302 0.8750024
vt 0.7503302 0.8750024
vt 0.7503302 0.8750024
vt 0.7503302 0.8750024
vt 0.7503302 0.8750024
vt 0.7503302 0.8750024
vt 0.7503302 0.8750024
vt 0.7503302 0.8750024
vt 0.7503302 0.8750024
vt 0.7503302 0.8750024
vt 0.7503302 0.8750024
vt 0.7503302 0.8750024
vt 0.7503302 0.8750024
vt 0.7503302 0.8750024
vt 0.7503302 0.8750024
vt 0.7503302 0.8750024
vt 0.7503302 0.8750024
vt 0.3924584 0.08032961
vt 0.37451997 0.07943269
vt 0.37451997 0.08032961
vt 0.3924584 0.07943269
vt 0.37451997 0.08212345
vt 0.3924584 0.08212345
vt 0.37451997 0.08212345
vt 0.3924584 0.08212345
vt 0.3924584 0.08212345
vt 0.37451997 0.08212345
vt 0.37451997 0.08212345
vt 0.3924584 0.08212345
vt 0.3924584 0.07943269
vt 0.37451997 0.07943269
vt 0.37451997 0.08032961
vt 0.3924584 0.08032961
vt 0.3924584 0.08032961
vt 0.37451997 0.08032961
vt 0.3924584 0.07943269
vt 0.37451997 0.078535765
vt 0.37451997 0.07943269
vt 0.3924584 0.078535765
vn 0.9999924 -0.0039215684 -0
vn 0.9993777 0.035272125 -0
vn 0.9998079 0.019604046 -0
vn 0.9999924 -0.0039215684 -0
vn 0.9999924 -0.0039215684 -0
vn 0.9999924 -0.0039215684 -0
vn 0.9999924 -0.0039215684 -0
vn 0.9999924 -0.0039215684 -0
vn 0.9998079 0.019604046 -0
vn 0.9999924 0.003921509 -0
vn 0.9999924 0.003921509 -0
vn 0.9999924 0.003921509 -0
vn 0.99993086 0.011763803 -0
vn 0.9999924 0.003921509 -0
vn 0.9999924 0.003921509 -0
vn 0.9999924 0.003921509 -0
vn 0.9999924 0.003921509 -0
vn 0.9999924 0.003921509 -0
vn 0.9999924 0.003921509 -0
vn 0.9999924 0.003921509 -0
vn 0.9999924 0.003921509 -0
vn 0.9999924 0.003921509 -0
vn 0.9999924 0.003921509 -0
vn 0.9999924 0.003921509 -0
vn 0.9999924 0.003921509 -0
vn 0.9999924 0.003921509 -0
vn 0.99993086 0.011763803 -0
vn 0.9998079 0.019604046 -0
vn 0.9999924 0.003921509 -0
vn 0.9999924 0.003921509 -0
vn 0.9999924 0.003921509 -0
vn 0.9999924 0.003921509 -0
vn 0.9999924 0.003921509 -0
vn 0.9999924 0.003921509 -0
vn 0.9999924 0.003921509 -0
vn 0.9999924 0.003921509 -0
vn 0.9999924 0.003921509 -0
vn 0.9999924 0.003921509 -0
vn 0.9999924 0.003921509 -0
vn 0.9999924 0.003921509 -0
vn 0.6862693 0.7254846 0.05202487
vn 0.6862693 0.7254846 -0.05202487
vn 0.6862693 0.7254846 0.05202487
vn 0.6862693 0.7254846 0.05202487
vn -0.003921509 -0.9999924 -0
vn -0.003921509 -0.9999924 -0
vn -0.003921509 -0.9999924 -0
vn -0.003921509 -0.9999924 -0
vn 0.35686004 0.02745068 0.93375444
vn 0.35686004 0.02745068 0.93375444
vn 0.35686004 0.02745068 0.93375444
vn 0.35686004 0.043136835 -0.9331614
vn 0.35686004 0.043136835 -0.9331614
vn 0.35686004 0.043136835 -0.9331614
vn 0.9999924 0.003921509 -0
vn 0.9999924 0.003921509 -0
vn 0.9999924 0.003921509 -0
vn 0.9999924 0.003921509 -0
vn 0.9999924 0.003921509 -0
vn 0.9999924 0.003921509 -0
vn 0.9999924 0.003921509 -0
vn 0.9999924 0.003921509 -0
vn 0.9999924 -0.0039215684 -0
vn 0.9999924 0.003921509 -0
vn 0.9999924 0.003921509 -0
vn 0.9999924 -0.0039215684 -0
vn 0.9999924 -0.0039215684 -0
vn 0.9999924 -0.0039215684 -0
vn 0.9999924 -0.0039215684 -0
vn 0.9999924 -0.0039215684 -0
vn 0.9999924 0.003921509 -0
vn -0.99999225 -0.0039215684 -0.00034425134
vn -0.99999225 -0.0039215684 -0.00034425134
vn -0.99999225 -0.0039215684 -0.00034425134
vn -0.99999225 0.003921509 -0.00034492963
vn -0.99999225 0.003921509 -0.00034492963
vn -0.99999225 0.003921509 -0.00034492963
vn -0.99999225 0.003921509 -0.00034492963
vn -0.003921509 0.3176446 0.9482017
vn -0.003921509 0.0901953 0.99591637
vn -0.003921509 0.3176446 0.9482017
vn -0.003921509 0.0901953 0.99591637
vn -0.003921509 0.003921509 -0.9999846
vn -0.003921509 0.8352877 -0.54979914
vn -0.003921509 0.8352877 -0.54979914
vn -0.003921509 0.003921509 -0.9999846
vn -0.003921509 -0.9999924 -0
vn -0.003921509 -0.59215236 -0.8058165
vn -0.003921509 -0.9999924 -0
vn -0.003921509 -0.59215236 -0.8058165
vn -0.003921509 -0.6392108 0.7690216
vn -0.003921509 -0.6392108 0.7690216
vn -0.003921509 0.8980323 0.439912
vn -0.003921509 0.9058753 -0.4235263
vn -0.003921509 0.8980323 0.439912
vn -0.003921509 0.9058753 -0.4235263
vn -0.003921509 -0.9999924 -0
vn -0.003921509 -0.9999924 -0
vn -0.003921509 -0.9999924 -0
vn -0.003921509 -0.9999924 -0
g FourTrackShassis_03_CorpsePart_0
f 3/3/3 2/2/2 1/1/1
f 4/4/4 3/3/3 1/1/1
f 5/5/5 4/4/4 1/1/1
f 5/5/5 1/1/1 6/6/6
f 8/8/8 7/7/7 5/5/5
f 8/8/8 5/5/5 6/6/6
f 8/8/8 6/6/6 9/9/9
f 8/8/8 9/9/9 10/10/10
f 13/13/13 12/12/12 11/11/11
f 15/15/15 14/14/14 12/12/12
f 12/12/12 14/14/14 11/11/11
f 11/11/11 14/14/14 16/16/16
f 19/19/19 18/18/18 17/17/17
f 21/21/21 20/20/20 18/18/18
f 18/18/18 20/20/20 17/17/17
f 20/20/20 22/22/22 17/17/17
f 25/25/25 24/24/24 23/23/23
f 27/27/27 26/26/26 24/24/24
f 24/24/24 26/26/26 23/23/23
f 26/26/26 28/28/28 23/23/23
f 31/31/31 30/30/30 29/29/29
f 30/30/30 32/32/32 29/29/29
f 32/32/32 33/33/33 29/29/29
f 33/33/33 34/34/34 29/29/29
f 37/37/37 36/36/36 35/35/35
f 36/36/36 38/38/38 35/35/35
f 38/38/38 39/39/39 35/35/35
f 39/39/39 40/40/40 35/35/35
f 43/43/43 42/42/42 41/41/41
f 41/41/41 44/44/44 43/43/43
f 47/47/47 46/46/46 45/45/45
f 45/45/45 48/48/48 47/47/47
f 51/51/51 50/50/50 49/49/49
f 54/54/54 53/53/53 52/52/52
f 57/57/57 56/56/56 55/55/55
f 56/56/56 58/58/58 55/55/55
f 58/58/58 59/59/59 55/55/55
f 59/59/59 60/60/60 55/55/55
f 63/63/63 62/62/62 61/61/61
f 62/62/62 64/64/64 61/61/61
f 64/64/64 65/65/65 61/61/61
f 67/67/67 63/63/63 66/66/66
f 61/61/61 66/66/66 63/63/63
f 67/67/67 69/69/69 68/68/68
f 67/67/67 68/68/68 70/70/70
f 71/71/71 70/70/70 68/68/68
f 74/74/74 73/73/73 72/72/72
f 73/73/73 75/75/75 72/72/72
f 76/76/76 72/72/72 75/75/75
f 76/76/76 75/75/75 77/77/77
f 75/75/75 78/78/78 77/77/77
f 67/67/67 66/66/66 69/69/69
f 81/81/81 80/80/80 79/79/79
f 82/82/82 79/79/79 80/80/80
f 85/85/85 84/84/84 83/83/83
f 86/86/86 83/83/83 84/84/84
f 89/89/89 88/88/88 87/87/87
f 90/90/90 87/87/87 88/88/88
f 83/83/83 86/86/86 88/88/88
f 90/90/90 88/88/88 86/86/86
f 82/82/82 80/80/80 91/91/91
f 92/92/92 91/91/91 80/80/80
f 95/95/95 94/94/94 93/93/93
f 96/96/96 93/93/93 94/94/94
f 99/99/99 98/98/98 97/97/97
f 100/100/100 97/97/97 98/98/98
f 94/94/94 84/84/84 96/96/96
f 85/85/85 96/96/96 84/84/84
f 79/79/79 95/95/95 81/81/81
f 93/93/93 81/81/81 95/95/95
f 92/92/92 99/99/99 91/91/91
f 97/97/97 91/91/91 99/99/99
