g FourLegs_13_CorpsePart
v 0.13409784 0.10646373 -0.03719932
v 0.20013121 0.09294194 0.030496895
v 0.021299958 0.09294194 0.20483547
v -0.04474795 0.10646373 0.1371538
v 0.22491378 0.0042848587 0.055950463
v 0.046199232 0.0042848587 0.23030359
v 0.22491378 0.0042848587 0.055950463
v 0.18377966 -0.07083592 0.01372236
v 0.004948437 -0.07083592 0.18806094
v 0.046199232 0.0042848587 0.23030359
v 0.11773172 -0.057299614 -0.053973854
v -0.06109953 -0.057299614 0.120364726
v 0.09294915 0.031342924 -0.079441994
v -0.08588207 0.031342924 0.09491116
v 0.021299958 0.09294194 0.20483547
v -0.019834131 0.017821193 0.16260737
v -0.04474795 0.10646373 0.1371538
v 0.046199232 0.0042848587 0.23030359
v 0.004948437 -0.07083592 0.18806094
v -0.06109953 -0.057299614 0.120364726
v -0.08588207 0.031342924 0.09491116
v 0.15886581 0.017821193 -0.011745781
v 0.20013121 0.09294194 0.030496895
v 0.13409784 0.10646373 -0.03719932
v 0.22491378 0.0042848587 0.055950463
v 0.18377966 -0.07083592 0.01372236
v 0.11773172 -0.057299614 -0.053973854
v 0.09294915 0.031342924 -0.079441994
v 0.21404678 -0.07067549 -0.06834164
v 0.22150052 0.4779688 -0.07684559
v -0.09295654 0.012920111 -0.3122581
v -0.13934183 -0.20739532 0.076211214
v -0.07476711 -0.07067549 0.21332484
v 0.21404678 -0.07067549 -0.06834164
v 0.07855222 -0.20739532 -0.13630041
v -0.31098187 0.012920111 -0.099746495
v -0.08343154 0.4779688 0.22060353
v -0.07476711 -0.07067549 0.21332484
v -0.09295654 0.012920111 -0.3122581
v 0.22150052 0.4779688 -0.07684559
v -0.08343154 0.4779688 0.22060353
v -0.31098187 0.012920111 -0.099746495
v 0.22150052 0.4779688 -0.07684559
v 0.31097448 0.36420822 0.014816344
v 0.0059111416 0.36420822 0.31226552
v -0.08343154 0.4779688 0.22060353
v -0.23724681 -0.47796142 -0.16753024
v -0.19732338 -0.4775384 -0.12651283
v -0.12262565 -0.4775384 -0.19932893
v -0.16266572 -0.47796142 -0.24034636
v -0.23724681 -0.47796142 -0.16753024
v -0.16266572 -0.47796142 -0.24034636
v -0.09295654 0.012920111 -0.3122581
v -0.31098187 0.012920111 -0.099746495
v -0.19732338 -0.4775384 -0.12651283
v -0.23724681 -0.47796142 -0.16753024
v -0.13934183 -0.20739532 0.076211214
v -0.12262565 -0.4775384 -0.19932893
v -0.19732338 -0.4775384 -0.12651283
v -0.13934183 -0.20739532 0.076211214
v 0.07855222 -0.20739532 -0.13630041
v -0.16266572 -0.47796142 -0.24034636
v -0.12262565 -0.4775384 -0.19932893
v 0.07855222 -0.20739532 -0.13630041
v 0.31097448 0.36420822 0.014816344
v 0.0059111416 0.36420822 0.31226552
v 0.31097448 0.36420822 0.014816344
v 0.0059111416 0.36420822 0.31226552
vt 0.8215135 0.8008498
vt 0.8215135 0.79841256
vt 0.81526136 0.79841256
vt 0.81526136 0.8008498
vt 0.8215135 0.7960813
vt 0.81526136 0.7960813
vt 0.8215135 0.8104929
vt 0.8215135 0.8080556
vt 0.81526136 0.8080556
vt 0.81526136 0.8104929
vt 0.8215135 0.80561835
vt 0.81526136 0.80561835
vt 0.8215135 0.8032871
vt 0.81526136 0.8032871
vt 0.81981796 0.84228307
vt 0.8226791 0.8438726
vt 0.8226791 0.8406936
vt 0.81981796 0.84556806
vt 0.8226791 0.8471576
vt 0.82543427 0.84556806
vt 0.82543427 0.84228307
vt 0.8226791 0.8438726
vt 0.8226791 0.8471576
vt 0.82543427 0.84556806
vt 0.81981796 0.84556806
vt 0.81981796 0.84228307
vt 0.8226791 0.8406936
vt 0.82543427 0.84228307
vt 0.8071019 0.85086644
vt 0.81600314 0.8614632
vt 0.81600314 0.8460979
vt 0.8027572 0.8115525
vt 0.79777676 0.8103869
vt 0.79777676 0.82045376
vt 0.8027572 0.81928813
vt 0.78495467 0.8516082
vt 0.80031997 0.8516082
vt 0.7897232 0.842707
vt 0.76683426 0.81918216
vt 0.7820936 0.8207717
vt 0.7820936 0.81006896
vt 0.76683426 0.8115525
vt 0.7820936 0.8207717
vt 0.7864382 0.8207717
vt 0.7864382 0.81006896
vt 0.7820936 0.81006896
vt 0.75454205 0.81409574
vt 0.7530585 0.81409574
vt 0.7530585 0.8167449
vt 0.75454205 0.8167449
vt 0.75454205 0.81409574
vt 0.75454205 0.8167449
vt 0.76683426 0.81918216
vt 0.76683426 0.8115525
vt 0.7760534 0.842601
vt 0.7752057 0.8437666
vt 0.7846368 0.8433428
vt 0.8110227 0.8167449
vt 0.8110227 0.81409574
vt 0.8027572 0.8115525
vt 0.8027572 0.81928813
vt 0.8080556 0.8363489
vt 0.8069959 0.83719665
vt 0.80763173 0.84578
vt 0.8116585 0.8613572
vt 0.7864382 0.81006896
vt 0.7864382 0.8207717
vt 0.800214 0.84736955
vn -0.2627275 0.928102 -0.26381978
vn 0.43289137 0.7844416 0.4441356
vn 0.43289137 0.7844416 0.4441356
vn -0.2627275 0.928102 -0.26381978
vn 0.68996793 -0.13800949 0.7105615
vn 0.68996793 -0.13800949 0.7105615
vn 0.68996793 -0.13800949 0.7105615
vn 0.25898665 -0.9319223 0.25386363
vn 0.25898665 -0.9319223 0.25386363
vn 0.68996793 -0.13800949 0.7105615
vn -0.42907107 -0.7882619 -0.44106826
vn -0.42907107 -0.7882619 -0.44106826
vn -0.6937088 0.14175034 -0.70616925
vn -0.6937088 0.14175034 -0.70616925
vn -0.7163919 -0.00191015 0.6976955
vn -0.7163919 -0.00191015 0.6976955
vn -0.7163919 -0.00191015 0.6976955
vn -0.7163919 -0.00191015 0.6976955
vn -0.7163919 -0.00191015 0.6976955
vn -0.7163919 -0.00191015 0.6976955
vn -0.7163919 -0.00191015 0.6976955
vn 0.71265113 -0.00191015 -0.70151603
vn 0.71265113 -0.00191015 -0.70151603
vn 0.71265113 -0.00191015 -0.70151603
vn 0.71265113 -0.00191015 -0.70151603
vn 0.71265113 -0.00191015 -0.70151603
vn 0.71265113 -0.00191015 -0.70151603
vn 0.7202122 -0.00191015 -0.69375116
vn 0.6143572 -0.047276556 -0.7876105
vn 0.64460146 -0.017032266 -0.7643291
vn 0.60679615 -0.09264302 -0.78944016
vn 0.48581892 -0.7202122 0.49525174
vn 0.64460146 -0.395086 0.6545197
vn 0.64460146 -0.395086 0.6545197
vn 0.48581892 -0.7202122 0.49525174
vn -0.80712485 -0.09264302 0.5830667
vn -0.7844416 -0.017032266 0.6199688
vn -0.79956377 -0.047276556 0.5987176
vn -0.5349262 0.64078116 -0.5506845
vn -0.5349262 0.64078116 -0.5506845
vn -0.5349262 0.64078116 -0.5506845
vn -0.5349262 0.64078116 -0.5506845
vn 0.46313566 0.7466363 0.47753495
vn 0.46313566 0.7466363 0.47753495
vn 0.46313566 0.7466363 0.47753495
vn 0.46313566 0.7466363 0.47753495
vn 0.00191015 -0.999972 0.007238265
vn 0.00191015 -0.999972 0.007238265
vn 0.00191015 -0.999972 0.007238265
vn 0.00191015 -0.999972 0.007238265
vn -0.70126987 -0.009471238 -0.712833
vn -0.70126987 -0.009471238 -0.712833
vn -0.70126987 -0.009471238 -0.712833
vn -0.70126987 -0.009471238 -0.712833
vn -0.79956377 -0.21362025 0.5613058
vn -0.79956377 -0.21362025 0.5613058
vn -0.79956377 -0.20605916 0.56412536
vn 0.5765518 -0.5689907 0.5863766
vn 0.5765518 -0.5689907 0.5863766
vn 0.5765518 -0.5689907 0.5863766
vn 0.5765518 -0.5689907 0.5863766
vn 0.5841129 -0.21362025 -0.78305715
vn 0.5841129 -0.21362025 -0.78305715
vn 0.5841129 -0.20605916 -0.78508073
vn 0.70509005 -0.017032266 -0.7089132
vn 0.6672847 -0.2816699 0.68948764
vn 0.6672847 -0.2816699 0.68948764
vn -0.7315141 -0.017032266 0.68161356
g FourLegs_13_CorpsePart_0
f 3/3/3 2/2/2 1/1/1
f 4/4/4 3/3/3 1/1/1
f 6/6/6 5/5/5 2/2/2
f 3/3/3 6/6/6 2/2/2
f 9/9/9 8/8/8 7/7/7
f 10/10/10 9/9/9 7/7/7
f 12/12/12 11/11/11 8/8/8
f 9/9/9 12/12/12 8/8/8
f 14/14/14 13/13/13 11/11/11
f 12/12/12 14/14/14 11/11/11
f 4/4/4 1/1/1 13/13/13
f 14/14/14 4/4/4 13/13/13
f 17/17/17 16/16/16 15/15/15
f 15/15/15 16/16/16 18/18/18
f 18/18/18 16/16/16 19/19/19
f 19/19/19 16/16/16 20/20/20
f 20/20/20 16/16/16 21/21/21
f 21/21/21 16/16/16 17/17/17
f 24/24/24 23/23/23 22/22/22
f 23/23/23 25/25/25 22/22/22
f 25/25/25 26/26/26 22/22/22
f 26/26/26 27/27/27 22/22/22
f 27/27/27 28/28/28 22/22/22
f 28/28/28 24/24/24 22/22/22
f 31/31/31 30/30/30 29/29/29
f 34/34/34 33/33/33 32/32/32
f 35/35/35 34/34/34 32/32/32
f 38/38/38 37/37/37 36/36/36
f 41/41/41 40/40/40 39/39/39
f 42/42/42 41/41/41 39/39/39
f 45/45/45 44/44/44 43/43/43
f 46/46/46 45/45/45 43/43/43
f 49/49/49 48/48/48 47/47/47
f 50/50/50 49/49/49 47/47/47
f 53/53/53 52/52/52 51/51/51
f 54/54/54 53/53/53 51/51/51
f 36/36/36 56/56/56 55/55/55
f 57/57/57 36/36/36 55/55/55
f 60/60/60 59/59/59 58/58/58
f 61/61/61 60/60/60 58/58/58
f 64/64/64 63/63/63 62/62/62
f 31/31/31 64/64/64 62/62/62
f 30/30/30 65/65/65 29/29/29
f 67/67/67 66/66/66 33/33/33
f 34/34/34 67/67/67 33/33/33
f 38/38/38 68/68/68 37/37/37
f 31/31/31 29/29/29 64/64/64
f 57/57/57 38/38/38 36/36/36
