g FourSpiderShassis_07
v 0.362119 -0.2669061 -0.39547017
v 0.362119 -0.047427118 -0.39547017
v 0.50464463 -0.047427118 -0.38419592
v 0.50464463 -0.2669061 -0.38419592
v 0.33179325 -0.047427118 -0.50864
v 0.33179325 -0.2669061 -0.50864
v 0.44959024 -0.2669061 -0.5896777
v 0.44959024 -0.047427118 -0.5896777
v 0.44959024 -0.047427118 -0.5896777
v 0.44959024 -0.2669061 -0.5896777
v 0.50464463 -0.2669061 -0.38419592
v 0.50464463 -0.047427118 -0.38419592
v 0.44959024 -0.2669061 -0.5896777
v 0.33179325 -0.2669061 -0.50864
v 0.362119 -0.2669061 -0.39547017
v 0.50464463 -0.2669061 -0.38419592
v 0.44959024 -0.047427118 -0.5896777
v 0.50464463 -0.047427118 -0.38419592
v 0.362119 -0.047427118 -0.39547017
v 0.33179325 -0.047427118 -0.50864
v 0.45890686 -0.11062354 -0.5609092
v 0.3808946 -0.19451767 -0.5400069
v 0.53270125 -0.3152511 -0.5880849
v 0.5872929 -0.2537098 -0.6027139
v 0.4204836 -0.19451767 -0.39227563
v 0.575992 -0.3152511 -0.42654338
v 0.53270125 -0.3152511 -0.5880849
v 0.3808946 -0.19451767 -0.5400069
v 0.63058364 -0.2537098 -0.44117236
v 0.575992 -0.3152511 -0.42654338
v 0.4204836 -0.19451767 -0.39227563
v 0.49848694 -0.11062354 -0.41317797
v 0.63058364 -0.2537098 -0.44117236
v 0.49848694 -0.11062354 -0.41317797
v 0.45890686 -0.11062354 -0.5609092
v 0.5872929 -0.2537098 -0.6027139
vt 0.6415216 0.88951707
vt 0.6415216 0.8795758
vt 0.648776 0.8795758
vt 0.648776 0.88951707
vt 0.6356105 0.8795758
vt 0.6356105 0.88951707
vt 0.6291621 0.88951707
vt 0.6291621 0.8795758
vt 0.66032946 0.87850106
vt 0.66032946 0.8828
vt 0.6493134 0.8828
vt 0.6493134 0.87850106
vt 0.63776 0.8991897
vt 0.63641655 0.9029513
vt 0.6353418 0.90241396
vt 0.6353418 0.8983837
vt 0.6404468 0.8997271
vt 0.64689523 0.8924726
vt 0.6501194 0.8997271
vt 0.64662653 0.90402603
vt 0.6772565 0.8793071
vt 0.68209285 0.8793071
vt 0.6812868 0.8884424
vt 0.6777939 0.8884424
vt 0.6662405 0.88871104
vt 0.6659718 0.8793071
vt 0.6729576 0.8793071
vt 0.6726889 0.88871104
vt 0.6777939 0.8884424
vt 0.6812868 0.8884424
vt 0.68209285 0.8793071
vt 0.6772565 0.8793071
vt 0.6659718 0.8793071
vt 0.6662405 0.88871104
vt 0.6726889 0.88871104
vt 0.6729576 0.8793071
vn -0.08235228 0.003921509 0.99659556
vn -0.08235228 0.003921509 0.99659556
vn -0.08235228 0.003921509 0.99659556
vn -0.08235228 0.003921509 0.99659556
vn -0.56862307 0.003921509 -0.82258886
vn -0.56862307 0.003921509 -0.82258886
vn -0.56862307 0.003921509 -0.82258886
vn -0.56862307 0.003921509 -0.82258886
vn 0.96862006 0.003921509 -0.24851513
vn 0.96862006 0.003921509 -0.24851513
vn 0.96862006 0.003921509 -0.24851513
vn 0.96862006 0.003921509 -0.24851513
vn -0.003921509 -0.9999924 -0
vn -0.003921509 -0.9999924 -0
vn -0.003921509 -0.9999924 -0
vn -0.003921509 -0.9999924 -0
vn -0.003921509 0.99999225 -0.00034526698
vn -0.003921509 0.99999225 -0.00034526698
vn -0.003921509 0.99999225 -0.00034526698
vn -0.003921509 0.99999225 -0.00034526698
vn -0.2862723 0.02745068 -0.957755
vn -0.2862723 0.02745068 -0.957755
vn -0.2862723 0.02745068 -0.957755
vn -0.2862723 0.02745068 -0.957755
vn -0.5843092 -0.79607236 0.15764378
vn -0.5843092 -0.79607236 0.15764378
vn -0.5843092 -0.79607236 0.15764378
vn -0.5843092 -0.79607236 0.15764378
vn 0.2313708 0.02745068 0.9724783
vn 0.2313708 0.02745068 0.9724783
vn 0.2313708 0.02745068 0.9724783
vn 0.2313708 0.02745068 0.9724783
vn 0.70195544 0.68626916 -0.19050768
vn 0.70195544 0.68626916 -0.19050768
vn 0.70195544 0.68626916 -0.19050768
vn 0.70195544 0.68626916 -0.19050768
g FourSpiderShassis_07_0
f 3/3/3 2/2/2 1/1/1
f 4/4/4 3/3/3 1/1/1
f 7/7/7 6/6/6 5/5/5
f 8/8/8 7/7/7 5/5/5
f 11/11/11 10/10/10 9/9/9
f 12/12/12 11/11/11 9/9/9
f 15/15/15 14/14/14 13/13/13
f 16/16/16 15/15/15 13/13/13
f 19/19/19 18/18/18 17/17/17
f 20/20/20 19/19/19 17/17/17
f 23/23/23 22/22/22 21/21/21
f 24/24/24 23/23/23 21/21/21
f 27/27/27 26/26/26 25/25/25
f 28/28/28 27/27/27 25/25/25
f 31/31/31 30/30/30 29/29/29
f 32/32/32 31/31/31 29/29/29
f 35/35/35 34/34/34 33/33/33
f 36/36/36 35/35/35 33/33/33
