g FourTrackShassis_05_CorpsePart
v -0.8990973 -0.28867775 -0.24904937
v -0.8990973 -0.25622088 -0.4922406
v -0.8990973 -0.26201195 -0.21551502
v -0.8990973 -0.29480553 -0.46089476
v -0.8990973 0.16117382 -0.2898562
v -0.8990973 -0.25581682 -0.8006487
v -0.8990637 -0.2028892 -1.0571054
v -0.8990973 0.1698941 -0.37891072
v -0.8990973 -0.29692668 -0.8356308
v -0.8990973 -0.29056323 -1.025625
v -0.8878182 -0.38554353 -0.39264768
v -0.8878182 -0.258241 -0.46611345
v -0.8878182 -0.30066395 -0.39264768
v -0.8878182 -0.38554353 -0.5396129
v -0.8878182 -0.30066395 -0.5396129
v -0.8675159 -0.46018767 -0.19514525
v -0.8878182 -0.41658634 -0.5980286
v -0.8878182 -0.26962113 -0.5980286
v -0.8878182 -0.3430869 -0.55560565
v -0.8878182 -0.3430869 -0.72533107
v -0.8878182 -0.26962113 -0.6829082
v -0.8878182 -0.41658634 -0.6829082
v -0.8878182 -0.38554353 -0.74398375
v -0.8878182 -0.258241 -0.8174832
v -0.8878182 -0.30066395 -0.74398375
v -0.8878182 -0.38554353 -0.8909826
v -0.8878182 -0.30066395 -0.8909826
v -0.8878182 -0.42796648 -0.8174832
v -0.87515867 0.019562006 -0.19689608
v -0.87515867 0.2438649 -0.3475312
v -0.87515867 0.17518008 -0.20746815
v -0.87515867 0.15686417 -0.47705585
v -0.87515867 0.0012459755 -0.4664501
v -0.87515867 -0.06743872 -0.32638705
v -0.87674105 -0.34392864 -1.1418504
v -0.87674105 -0.3371275 -0.90919757
v -0.87674105 -0.40769774 -1.0235711
v -0.87674105 -0.20958924 -1.1457896
v -0.87674105 -0.13905275 -1.031416
v -0.87674105 -0.20278811 -0.91313684
v -0.986199 -0.36106616 -0.7545221
v -0.8952254 -0.27470517 -0.50958014
v -0.986199 -0.36106616 -0.5424074
v -0.8952254 -0.27457047 -0.7859353
v -0.986199 -0.36106616 -0.5424074
v -0.8952254 -0.3610325 -0.7891675
v -0.986199 -0.36106616 -0.7545221
v -0.8951918 -0.3609988 -0.50769466
v -0.986199 -0.36106616 -0.5424074
v -0.8952254 -0.27470517 -0.50958014
v -0.8951918 -0.3609988 -0.50769466
v -0.986199 -0.36106616 -0.7545221
v -0.8952254 -0.3610325 -0.7891675
v -0.8952254 -0.27457047 -0.7859353
v -0.87855923 -0.30595 -0.11218488
v -0.87855923 -0.14716697 -0.2911356
v -0.87855923 -0.17487657 -0.1558199
v -0.87855923 -0.2504635 -0.3828163
v -0.87855923 -0.3815369 -0.3391813
v -0.87855923 -0.4092465 -0.20386553
v -0.8675159 -0.09518206 -1.0818522
v -0.8675159 -0.26749998 -1.2021515
v -0.8675159 -0.16531456 -1.1758897
v -0.8675159 -0.38285 -1.1696947
v -0.8675159 -0.4509287 -1.0787547
v -0.8675159 -0.46018767 -0.19514525
v -0.8675159 0.26366222 -0.43214142
v -0.8675159 0.22393286 -0.16070187
v -0.8675159 0.29423368 -0.2802605
v -0.8675159 -0.35322124 -0.071647406
v -0.8675159 -0.18336117 -0.07558668
v -0.57893884 -0.11359894 -1.0849161
v -0.57893884 -0.3702578 -1.1775732
v -0.57893884 -0.42884183 -1.0865995
v -0.57893884 -0.27292067 -1.2085823
v -0.57893884 -0.18198073 -1.1805024
v -0.57893884 0.26689446 -0.36008972
v -0.57893884 -0.4366867 -0.20905054
v -0.57893884 0.20969081 -0.16575229
v -0.57893884 -0.2534263 -0.08407128
v -0.92933214 -0.27689362 -0.04750669
v -0.52395725 0.21945488 -0.14905238
v -0.52395725 -0.27689362 -0.04750669
v -0.92933214 0.21945488 -0.14905238
v -0.52463067 -0.26632154 -1.2202991
v -0.9293994 -0.14198196 -1.1819165
v -0.9293994 -0.26632154 -1.2202991
v -0.52463067 -0.14198196 -1.1819165
v -0.9293994 -0.4621405 -1.075152
v -0.52463067 -0.38921344 -1.1827245
v -0.9293994 -0.38921344 -1.1827245
v -0.52463067 -0.4621405 -1.075152
v -0.92933214 -0.40887612 -0.09248853
v -0.52395725 -0.40887612 -0.09248853
v -0.52395725 0.2941327 -0.23854464
v -0.92933214 0.3166572 -0.34776688
v -0.52395725 0.3166572 -0.34776688
v -0.92933214 0.2941327 -0.23854464
v -0.9293994 -0.4621405 -1.075152
v -0.52395725 -0.47483373 -0.21325922
v -0.52463067 -0.4621405 -1.075152
v -0.92933214 -0.47483373 -0.21325922
vt 0.8391255 0.96917915
vt 0.8409194 0.9772515
vt 0.84002244 0.9682822
vt 0.8391255 0.9763546
vt 0.8543732 0.9700761
vt 0.8409194 0.98711765
vt 0.84271324 0.99608684
vt 0.8543732 0.9736638
vt 0.8391255 0.9889115
vt 0.8391255 0.9951899
vt 0.85257936 0.96020997
vt 0.84899163 0.96648836
vt 0.85257936 0.9637977
vt 0.8454039 0.96020997
vt 0.8454039 0.9637977
vt 0.84899163 0.9575192
vt 0.8507855 0.9584161
vt 0.8507855 0.96559155
vt 0.8534763 0.9620038
vt 0.8445071 0.9620038
vt 0.8471978 0.96559155
vt 0.8471978 0.9584161
vt 0.85257936 0.96020997
vt 0.84899163 0.96648836
vt 0.85257936 0.9637977
vt 0.8454039 0.96020997
vt 0.8454039 0.9637977
vt 0.84899163 0.9575192
vt 0.86513627 0.96290076
vt 0.8606516 0.970973
vt 0.86513627 0.9682822
vt 0.8561671 0.9673853
vt 0.8561671 0.9620038
vt 0.8606516 0.95931304
vt 0.8561671 0.9620038
vt 0.86513627 0.96290076
vt 0.8606516 0.95931304
vt 0.8561671 0.9673853
vt 0.8606516 0.970973
vt 0.86513627 0.9682822
vt 0.8355378 0.88935316
vt 0.84361017 0.8929409
vt 0.84271324 0.88935316
vt 0.83464086 0.8929409
vt 0.84271324 0.88935316
vt 0.83464086 0.88576543
vt 0.8355378 0.88935316
vt 0.84361017 0.88576543
vt 0.84988856 0.8875593
vt 0.84630084 0.8902501
vt 0.84630084 0.8875593
vt 0.84988856 0.8875593
vt 0.84630084 0.8875593
vt 0.84630084 0.8902501
vt 0.8660332 0.96559155
vt 0.8579608 0.9700761
vt 0.8633424 0.9700761
vt 0.85527015 0.9646946
vt 0.8579608 0.96020997
vt 0.8633424 0.96020997
vt 0.7503302 0.8750024
vt 0.7503302 0.8750024
vt 0.7503302 0.8750024
vt 0.7503302 0.8750024
vt 0.7503302 0.8750024
vt 0.7503302 0.8750024
vt 0.7503302 0.8750024
vt 0.7503302 0.8750024
vt 0.7503302 0.8750024
vt 0.7503302 0.8750024
vt 0.7503302 0.8750024
vt 0.7503302 0.8750024
vt 0.7503302 0.8750024
vt 0.7503302 0.8750024
vt 0.7503302 0.8750024
vt 0.7503302 0.8750024
vt 0.7503302 0.8750024
vt 0.7503302 0.8750024
vt 0.7503302 0.8750024
vt 0.7503302 0.8750024
vt 0.3924584 0.07943269
vt 0.37451997 0.08032961
vt 0.37451997 0.07943269
vt 0.3924584 0.08032961
vt 0.37451997 0.08212345
vt 0.3924584 0.08212345
vt 0.3924584 0.08212345
vt 0.37451997 0.08212345
vt 0.3924584 0.08212345
vt 0.37451997 0.08212345
vt 0.3924584 0.08212345
vt 0.37451997 0.08212345
vt 0.3924584 0.07943269
vt 0.37451997 0.07943269
vt 0.37451997 0.08032961
vt 0.3924584 0.08032961
vt 0.37451997 0.08032961
vt 0.3924584 0.08032961
vt 0.3924584 0.078535765
vt 0.37451997 0.07943269
vt 0.37451997 0.078535765
vt 0.3924584 0.07943269
vn -0.99999225 0.003921509 -0.00034492963
vn -0.99999225 0.003921509 -0.00034492963
vn -0.99999225 0.003921509 -0.00034492963
vn -0.99999225 0.003921509 -0.00034492963
vn -0.99999225 0.003921509 -0.00034492963
vn -0.99999225 0.003921509 -0.00034492963
vn -0.99999225 0.003921509 -0.00034492963
vn -0.99999225 -0.0039215684 -0.00034425134
vn -0.99999225 0.003921509 -0.00034492963
vn -0.99999225 0.003921509 -0.00034492963
vn -0.9843061 -0.15294003 -0.088038996
vn -0.99999225 0.003921509 -0.00034492963
vn -0.99999225 0.003921509 -0.00034492963
vn -0.9996234 -0.027440675 -0
vn -0.99999225 0.003921509 -0.00034492963
vn -0.9651236 -0.26179472 -0
vn -0.99999225 0.003921509 -0.00034492963
vn -0.99999225 0.003921509 -0.00034492963
vn -0.99999225 0.003921509 -0.00034492963
vn -0.99999225 0.003921509 -0.00034492963
vn -0.99999225 0.003921509 -0.00034492963
vn -0.99999225 0.003921509 -0.00034492963
vn -0.99999225 0.003921509 -0.00034492963
vn -0.99999225 0.003921509 -0.00034492963
vn -0.99999225 0.003921509 -0.00034492963
vn -0.99999225 0.003921509 -0.00034492963
vn -0.99999225 0.003921509 -0.00034492963
vn -0.99999225 0.003921509 -0.00034492963
vn -0.99999225 0.003921509 -0.00034492963
vn -0.99999225 0.003921509 -0.00034492963
vn -0.99999225 0.003921509 -0.00034492963
vn -0.99999225 0.003921509 -0.00034492963
vn -0.99999225 0.003921509 -0.00034492963
vn -0.99999225 0.003921509 -0.00034492963
vn -0.99999225 0.003921509 -0.00034492963
vn -0.99999225 0.003921509 -0.00034492963
vn -0.99999225 0.003921509 -0.00034492963
vn -0.99999225 0.003921509 -0.00034492963
vn -0.99999225 0.003921509 -0.00034492963
vn -0.99999225 0.003921509 -0.00034492963
vn -0.68626916 0.7254846 0.05202602
vn -0.68626916 0.7254846 0.05202602
vn -0.68626916 0.7254846 -0.05202602
vn -0.68626916 0.7254846 0.05202602
vn 0.0039215684 -0.9999924 -0
vn 0.0039215684 -0.9999924 -0
vn 0.0039215684 -0.9999924 -0
vn 0.0039215684 -0.9999924 -0
vn -0.35685992 0.019607663 0.9339521
vn -0.35685992 0.019607663 0.9339521
vn -0.35685992 0.019607663 0.9339521
vn -0.35685992 0.035293818 -0.93349093
vn -0.35685992 0.035293818 -0.93349093
vn -0.35685992 0.035293818 -0.93349093
vn -0.99999225 0.003921509 -0.00034492963
vn -0.99999225 0.003921509 -0.00034492963
vn -0.99999225 0.003921509 -0.00034492963
vn -0.99999225 0.003921509 -0.00034492963
vn -0.99999225 0.003921509 -0.00034492963
vn -0.99999225 0.003921509 -0.00034492963
vn -0.99999225 0.003921509 -0.00034492963
vn -0.99999225 0.003921509 -0.00034492963
vn -0.99999225 0.003921509 -0.00034492963
vn -0.99999225 0.003921509 -0.00034492963
vn -0.99999225 0.003921509 -0.00034492963
vn -0.99999225 0.003921509 -0.00034492963
vn -0.99999225 0.003921509 -0.00034492963
vn -0.99999225 0.003921509 -0.00034492963
vn -0.99999225 0.003921509 -0.00034492963
vn -0.99999225 0.003921509 -0.00034492963
vn -0.99999225 0.003921509 -0.00034492963
vn 0.9999924 0.003921509 -0
vn 0.9999924 0.003921509 -0
vn 0.9999924 0.003921509 -0
vn 0.9999924 0.003921509 -0
vn 0.9999924 0.003921509 -0
vn 0.9999924 0.003921509 -0
vn 0.9999924 0.003921509 -0
vn 0.9999924 0.003921509 -0
vn 0.9999924 0.003921509 -0
vn -0.003921509 0.0901953 0.99591637
vn -0.003921509 0.3176446 0.9482017
vn -0.003921509 0.0901953 0.99591637
vn -0.003921509 0.3176446 0.9482017
vn -0.003921509 0.003921509 -0.9999846
vn -0.003921509 0.8352877 -0.54979914
vn -0.003921509 0.003921509 -0.9999846
vn -0.003921509 0.8352877 -0.54979914
vn -0.003921509 -0.9999924 -0
vn -0.003921509 -0.59215236 -0.8058165
vn -0.003921509 -0.59215236 -0.8058165
vn -0.003921509 -0.9999924 -0
vn -0.003921509 -0.6392108 0.7690216
vn -0.003921509 -0.6392108 0.7690216
vn -0.003921509 0.8980323 0.439912
vn -0.003921509 0.9058753 -0.4235263
vn -0.003921509 0.9058753 -0.4235263
vn -0.003921509 0.8980323 0.439912
vn -0.003921509 -0.9999924 -0
vn -0.003921509 -0.9999924 -0
vn -0.003921509 -0.9999924 -0
vn -0.003921509 -0.9999924 -0
g FourTrackShassis_05_CorpsePart_0
f 3/3/3 2/2/2 1/1/1
f 4/4/4 1/1/1 2/2/2
f 3/3/3 5/5/5 2/2/2
f 2/2/2 5/5/5 6/6/6
f 8/8/8 7/7/7 5/5/5
f 5/5/5 7/7/7 6/6/6
f 6/6/6 7/7/7 9/9/9
f 9/9/9 7/7/7 10/10/10
f 13/13/13 12/12/12 11/11/11
f 15/15/15 14/14/14 12/12/12
f 12/12/12 14/14/14 11/11/11
f 11/11/11 14/14/14 16/16/16
f 19/19/19 18/18/18 17/17/17
f 21/21/21 20/20/20 18/18/18
f 18/18/18 20/20/20 17/17/17
f 17/17/17 20/20/20 22/22/22
f 25/25/25 24/24/24 23/23/23
f 27/27/27 26/26/26 24/24/24
f 24/24/24 26/26/26 23/23/23
f 23/23/23 26/26/26 28/28/28
f 31/31/31 30/30/30 29/29/29
f 30/30/30 32/32/32 29/29/29
f 32/32/32 33/33/33 29/29/29
f 33/33/33 34/34/34 29/29/29
f 37/37/37 36/36/36 35/35/35
f 35/35/35 36/36/36 38/38/38
f 38/38/38 36/36/36 39/39/39
f 39/39/39 36/36/36 40/40/40
f 43/43/43 42/42/42 41/41/41
f 44/44/44 41/41/41 42/42/42
f 47/47/47 46/46/46 45/45/45
f 48/48/48 45/45/45 46/46/46
f 51/51/51 50/50/50 49/49/49
f 54/54/54 53/53/53 52/52/52
f 57/57/57 56/56/56 55/55/55
f 56/56/56 58/58/58 55/55/55
f 58/58/58 59/59/59 55/55/55
f 59/59/59 60/60/60 55/55/55
f 63/63/63 62/62/62 61/61/61
f 62/62/62 64/64/64 61/61/61
f 64/64/64 65/65/65 61/61/61
f 65/65/65 66/66/66 61/61/61
f 67/67/67 61/61/61 66/66/66
f 69/69/69 66/66/66 68/68/68
f 66/66/66 70/70/70 68/68/68
f 71/71/71 68/68/68 70/70/70
f 74/74/74 73/73/73 72/72/72
f 73/73/73 75/75/75 72/72/72
f 75/75/75 76/76/76 72/72/72
f 78/78/78 74/74/74 77/77/77
f 72/72/72 77/77/77 74/74/74
f 78/78/78 77/77/77 79/79/79
f 79/79/79 80/80/80 78/78/78
f 67/67/67 66/66/66 69/69/69
f 83/83/83 82/82/82 81/81/81
f 84/84/84 81/81/81 82/82/82
f 87/87/87 86/86/86 85/85/85
f 88/88/88 85/85/85 86/86/86
f 91/91/91 90/90/90 89/89/89
f 92/92/92 89/89/89 90/90/90
f 91/91/91 87/87/87 90/90/90
f 85/85/85 90/90/90 87/87/87
f 94/94/94 83/83/83 93/93/93
f 81/81/81 93/93/93 83/83/83
f 97/97/97 96/96/96 95/95/95
f 98/98/98 95/95/95 96/96/96
f 101/101/101 100/100/100 99/99/99
f 102/102/102 99/99/99 100/100/100
f 86/86/86 96/96/96 88/88/88
f 97/97/97 88/88/88 96/96/96
f 95/95/95 98/98/98 82/82/82
f 84/84/84 82/82/82 98/98/98
f 102/102/102 100/100/100 93/93/93
f 94/94/94 93/93/93 100/100/100
