g FourLegs_07
v -0.13458034 0.09995422 -0.050253525
v -0.096129686 0.19797802 -0.023644984
v 0.052797154 -0.09860082 0.11733675
v -0.047305077 -0.19797802 0.047969684
v -0.096129686 0.19797802 -0.023644984
v -0.049619123 0.19797802 -0.09073426
v 0.13458034 -0.09860082 -0.0008368045
v 0.052797154 -0.09860082 0.11733675
v -0.049619123 0.19797802 -0.09073426
v -0.08807582 0.09995422 -0.11733676
v 0.034484148 -0.19797802 -0.070203885
v 0.13458034 -0.09860082 -0.0008368045
v -0.08807582 0.09995422 -0.11733676
v -0.13458034 0.09995422 -0.050253525
v -0.047305077 -0.19797802 0.047969684
v 0.034484148 -0.19797802 -0.070203885
vt 0.94239426 0.91483265
vt 0.9465148 0.91483265
vt 0.9465148 0.90695786
vt 0.9427605 0.90695786
vt 0.9465148 0.91483265
vt 0.94962806 0.91483265
vt 0.9499943 0.90695786
vt 0.9465148 0.90695786
vt 0.94962806 0.91483265
vt 0.95379436 0.91483265
vt 0.95379436 0.90695786
vt 0.9499943 0.90695786
vt 0.939281 0.91483265
vt 0.94239426 0.91483265
vt 0.9427605 0.90695786
vt 0.939281 0.90695786
vn -0.62630165 0.06376898 0.7769683
vn -0.62630165 0.06376898 0.7769683
vn -0.62630165 0.06376898 0.7769683
vn -0.62630165 0.06376898 0.7769683
vn 0.6787741 0.5644231 0.46977895
vn 0.6787741 0.5644231 0.46977895
vn 0.6787741 0.5644231 0.46977895
vn 0.6787741 0.5644231 0.46977895
vn 0.504389 0.06376898 -0.8611186
vn 0.504389 0.06376898 -0.8611186
vn 0.504389 0.06376898 -0.8611186
vn 0.504389 0.06376898 -0.8611186
vn -0.75568414 -0.39188245 -0.5247567
vn -0.75568414 -0.39188245 -0.5247567
vn -0.75568414 -0.39188245 -0.5247567
vn -0.75568414 -0.39188245 -0.5247567
g FourLegs_07_0
f 3/3/3 2/2/2 1/1/1
f 4/4/4 3/3/3 1/1/1
f 7/7/7 6/6/6 5/5/5
f 8/8/8 7/7/7 5/5/5
f 11/11/11 10/10/10 9/9/9
f 12/12/12 11/11/11 9/9/9
f 15/15/15 14/14/14 13/13/13
f 16/16/16 15/15/15 13/13/13
