g FourLegs_04
v 0.13458034 0.09995422 -0.050253525
v 0.04742591 -0.19797802 0.047969684
v -0.05267632 -0.09860082 0.11733675
v 0.09625052 0.19797802 -0.023644984
v 0.09625052 0.19797802 -0.023644984
v -0.05267632 -0.09860082 0.11733675
v -0.13458034 -0.09860082 -0.0008368045
v 0.04974599 0.19797802 -0.09073426
v 0.04974599 0.19797802 -0.09073426
v -0.13458034 -0.09860082 -0.0008368045
v -0.034484163 -0.19797802 -0.070203885
v 0.088196665 0.09995422 -0.11733676
v 0.088196665 0.09995422 -0.11733676
v -0.034484163 -0.19797802 -0.070203885
v 0.04742591 -0.19797802 0.047969684
v 0.13458034 0.09995422 -0.050253525
vt 0.94239426 0.91483265
vt 0.9427605 0.90695786
vt 0.9465148 0.90695786
vt 0.9465148 0.91483265
vt 0.9465148 0.91483265
vt 0.9465148 0.90695786
vt 0.9499943 0.90695786
vt 0.94962806 0.91483265
vt 0.94962806 0.91483265
vt 0.9499943 0.90695786
vt 0.95379436 0.90695786
vt 0.95379436 0.91483265
vt 0.939281 0.91483265
vt 0.939281 0.90695786
vt 0.9427605 0.90695786
vt 0.94239426 0.91483265
vn 0.62632537 0.06546301 0.7768083
vn 0.62632537 0.06546301 0.7768083
vn 0.62632537 0.06546301 0.7768083
vn 0.62632537 0.06546301 0.7768083
vn -0.6785112 0.5660253 0.46822846
vn -0.6785112 0.5660253 0.46822846
vn -0.6785112 0.5660253 0.46822846
vn -0.6785112 0.5660253 0.46822846
vn -0.5041581 0.06546301 -0.8611267
vn -0.5041581 0.06546301 -0.8611267
vn -0.5041581 0.06546301 -0.8611267
vn -0.5041581 0.06546301 -0.8611267
vn 0.7556842 -0.39572927 -0.5218618
vn 0.7556842 -0.39572927 -0.5218618
vn 0.7556842 -0.39572927 -0.5218618
vn 0.7556842 -0.39572927 -0.5218618
g FourLegs_04_0
f 3/3/3 2/2/2 1/1/1
f 4/4/4 3/3/3 1/1/1
f 7/7/7 6/6/6 5/5/5
f 8/8/8 7/7/7 5/5/5
f 11/11/11 10/10/10 9/9/9
f 12/12/12 11/11/11 9/9/9
f 15/15/15 14/14/14 13/13/13
f 16/16/16 15/15/15 13/13/13
