g FourWheelsShassis_05_CorpsePart
v -0.19653457 -0.00060895085 0.4200741
v 0.19645764 0.18495822 0.37852502
v 0.19653456 0.00060895085 0.4200741
v -0.19709861 0.1816507 0.3784737
v 0.19653456 0.33115572 0.26201832
v -0.19754732 0.32782257 0.26191574
v -0.19754732 0.32782257 0.26191574
v 0.1952654 0.41015154 0.09347588
v 0.19653456 0.33115572 0.26201832
v -0.19779092 0.40893364 0.09347588
v 0.1952654 0.41015154 -0.09347585
v -0.19779092 0.40893364 -0.09347585
v 0.19552179 0.3290276 -0.26191574
v -0.19754732 0.32782257 -0.26191574
v 0.19597048 0.1828686 -0.37847373
v -0.19709861 0.1816507 -0.37847373
v 0.19653456 0.00060895085 -0.4200741
v -0.19653457 -0.00060895085 -0.4200741
v 0.19709863 -0.18165073 -0.37847373
v -0.19597048 -0.1828686 -0.37847373
v 0.19754732 -0.32782254 -0.26191574
v -0.19552177 -0.3290276 -0.26191574
v -0.19552177 -0.3290276 -0.26191574
v 0.1977909 -0.40893367 -0.09347585
v 0.19754732 -0.32782254 -0.26191574
v -0.19526541 -0.41015154 -0.09347585
v 0.1977909 -0.40893367 0.09347588
v -0.19526541 -0.41015154 0.09347588
v 0.19754732 -0.32782254 0.26191574
v -0.19552177 -0.3290276 0.26191574
v 0.19625252 -0.17957391 0.37840962
v -0.19597048 -0.1828686 0.3784737
v -0.19709861 0.1816507 -0.37847373
v -0.19597048 -0.1828686 -0.37847373
v -0.19653457 -0.00060895085 -0.4200741
v -0.19552177 -0.3290276 -0.26191574
v -0.19526541 -0.41015154 -0.09347585
v -0.19754732 0.32782257 -0.26191574
v -0.19779092 0.40893364 -0.09347585
v -0.19526541 -0.41015154 0.09347588
v -0.19779092 0.40893364 0.09347588
v -0.19552177 -0.3290276 0.26191574
v -0.19597048 -0.1828686 0.3784737
v -0.19709861 0.1816507 0.3784737
v -0.19653457 -0.00060895085 0.4200741
v -0.19754732 0.32782257 0.26191574
v 0.19645764 0.18495822 0.37852502
v 0.19625252 -0.17957391 0.37840962
v 0.19653456 0.00060895085 0.4200741
v 0.19754732 -0.32782254 0.26191574
v 0.19653456 0.33115572 0.26201832
v 0.1977909 -0.40893367 0.09347588
v 0.1952654 0.41015154 0.09347588
v 0.1977909 -0.40893367 -0.09347585
v 0.1952654 0.41015154 -0.09347585
v 0.19754732 -0.32782254 -0.26191574
v 0.19552179 0.3290276 -0.26191574
v 0.19709863 -0.18165073 -0.37847373
v 0.19653456 0.00060895085 -0.4200741
v 0.19597048 0.1828686 -0.37847373
vt 0.45437792 0.08475855
vt 0.43698406 0.089107014
vt 0.43698406 0.08475855
vt 0.45437792 0.089107014
vt 0.43698406 0.09345548
vt 0.45437792 0.09345548
vt 0.45437792 0.063016236
vt 0.43698406 0.0673647
vt 0.43698406 0.063016236
vt 0.45437792 0.0673647
vt 0.43698406 0.071713164
vt 0.45437792 0.071713164
vt 0.43698406 0.07606162
vt 0.45437792 0.07606162
vt 0.43698406 0.080410086
vt 0.45437792 0.080410086
vt 0.43698406 0.08475855
vt 0.45437792 0.08475855
vt 0.43698406 0.089107014
vt 0.45437792 0.089107014
vt 0.43698406 0.09345548
vt 0.45437792 0.09345548
vt 0.45437792 0.063016236
vt 0.43698406 0.0673647
vt 0.43698406 0.063016236
vt 0.45437792 0.0673647
vt 0.43698406 0.071713164
vt 0.45437792 0.071713164
vt 0.43698406 0.07606162
vt 0.45437792 0.07606162
vt 0.43698406 0.080410086
vt 0.45437792 0.080410086
vt 0.45833105 0.07922414
vt 0.46386546 0.07922414
vt 0.46109825 0.07843351
vt 0.46623737 0.08120072
vt 0.4674233 0.08357261
vt 0.4563545 0.08120072
vt 0.45477322 0.08357261
vt 0.4674233 0.08673513
vt 0.45477322 0.08673513
vt 0.46623737 0.089107014
vt 0.46386546 0.091083586
vt 0.45833105 0.091083586
vt 0.46109825 0.09187422
vt 0.4563545 0.089107014
vt 0.46347016 0.07645694
vt 0.45872638 0.07645694
vt 0.46109825 0.076852255
vt 0.4567498 0.07487568
vt 0.46584204 0.07487568
vt 0.45556384 0.07250379
vt 0.46663266 0.07250379
vt 0.45556384 0.069736585
vt 0.46663266 0.069736585
vt 0.4567498 0.0673647
vt 0.46584204 0.0673647
vt 0.45872638 0.06578344
vt 0.46109825 0.06499281
vt 0.46347016 0.06578344
vn -0.003921509 0.003921509 0.9999846
vn -0.003921509 0.4352907 0.9002814
vn 0.0039215684 0.003921509 0.9999846
vn -0.003921509 0.4352907 0.9002814
vn -0.003921509 0.7882292 0.61536926
vn -0.003921509 0.7803861 0.6252857
vn -0.003921509 0.7803861 0.6252857
vn -0.003921509 0.9764631 0.21564901
vn -0.003921509 0.7882292 0.61536926
vn -0.003921509 0.9764631 0.21564901
vn -0.003921509 0.9764631 -0.21564901
vn -0.003921509 0.9764631 -0.21564901
vn -0.003921509 0.7803861 -0.6252857
vn -0.003921509 0.7803861 -0.6252857
vn -0.003921509 0.4352907 -0.9002814
vn -0.003921509 0.4352907 -0.9002814
vn -0.003921509 0.003921509 -0.9999846
vn -0.003921509 0.003921509 -0.9999846
vn 0.0039215684 -0.4352908 -0.90028137
vn 0.0039215684 -0.4352908 -0.90028137
vn 0.0039215684 -0.7803862 -0.6252855
vn 0.0039215684 -0.7803862 -0.6252855
vn 0.0039215684 -0.7803862 -0.6252855
vn 0.0039215684 -0.97646314 -0.21564874
vn 0.0039215684 -0.7803862 -0.6252855
vn 0.0039215684 -0.97646314 -0.21564874
vn 0.0039215684 -0.97646314 0.21564874
vn 0.0039215684 -0.97646314 0.21564874
vn 0.0039215684 -0.7803862 0.6252855
vn 0.0039215684 -0.7803862 0.6252855
vn 0.0039215684 -0.4352908 0.90028137
vn 0.0039215684 -0.4352908 0.90028137
vn -0.99999225 -0.0039215684 -0.00034425134
vn -0.99999225 -0.0039215684 -0.00034425134
vn -0.99999225 -0.0039215684 -0.00034425134
vn -0.99999225 -0.0039215684 -0.00034425134
vn -0.99999225 -0.0039215684 -0.00034425134
vn -0.99999225 -0.0039215684 -0.00034425134
vn -0.99999225 -0.0039215684 -0.00034425134
vn -0.99999225 -0.0039215684 -0.00034425134
vn -0.99999225 -0.0039215684 -0.00034425134
vn -0.99999225 -0.0039215684 -0.00034425134
vn -0.99999225 -0.0039215684 -0.00034425134
vn -0.99999225 -0.0039215684 -0.00034425134
vn -0.99999225 -0.0039215684 -0.00034425134
vn -0.99999225 -0.0039215684 -0.00034425134
vn 0.9999924 0.003921509 -0
vn 0.9999924 -0.0039215684 -0
vn 0.9999924 -0.0039215684 -0
vn 0.9999924 0.003921509 -0
vn 0.9999924 0.003921509 -0
vn 0.9999924 0.003921509 -0
vn 0.9999924 0.003921509 -0
vn 0.9999924 0.003921509 -0
vn 0.9999924 0.003921509 -0
vn 0.9999924 0.003921509 -0
vn 0.9999924 0.003921509 -0
vn 0.9999924 0.003921509 -0
vn 0.9999924 0.003921509 -0
vn 0.9999924 0.003921509 -0
g FourWheelsShassis_05_CorpsePart_0
f 3/3/3 2/2/2 1/1/1
f 4/4/4 1/1/1 2/2/2
f 2/2/2 5/5/5 4/4/4
f 6/6/6 4/4/4 5/5/5
f 9/9/9 8/8/8 7/7/7
f 10/10/10 7/7/7 8/8/8
f 8/8/8 11/11/11 10/10/10
f 12/12/12 10/10/10 11/11/11
f 11/11/11 13/13/13 12/12/12
f 14/14/14 12/12/12 13/13/13
f 13/13/13 15/15/15 14/14/14
f 16/16/16 14/14/14 15/15/15
f 15/15/15 17/17/17 16/16/16
f 18/18/18 16/16/16 17/17/17
f 17/17/17 19/19/19 18/18/18
f 20/20/20 18/18/18 19/19/19
f 19/19/19 21/21/21 20/20/20
f 22/22/22 20/20/20 21/21/21
f 25/25/25 24/24/24 23/23/23
f 26/26/26 23/23/23 24/24/24
f 24/24/24 27/27/27 26/26/26
f 28/28/28 26/26/26 27/27/27
f 27/27/27 29/29/29 28/28/28
f 30/30/30 28/28/28 29/29/29
f 29/29/29 31/31/31 30/30/30
f 32/32/32 30/30/30 31/31/31
f 31/31/31 3/3/3 32/32/32
f 1/1/1 32/32/32 3/3/3
f 35/35/35 34/34/34 33/33/33
f 34/34/34 36/36/36 33/33/33
f 36/36/36 37/37/37 33/33/33
f 33/33/33 37/37/37 38/38/38
f 38/38/38 37/37/37 39/39/39
f 37/37/37 40/40/40 39/39/39
f 39/39/39 40/40/40 41/41/41
f 40/40/40 42/42/42 41/41/41
f 42/42/42 43/43/43 41/41/41
f 45/45/45 44/44/44 43/43/43
f 44/44/44 46/46/46 43/43/43
f 43/43/43 46/46/46 41/41/41
f 49/49/49 48/48/48 47/47/47
f 48/48/48 50/50/50 47/47/47
f 47/47/47 50/50/50 51/51/51
f 50/50/50 52/52/52 51/51/51
f 51/51/51 52/52/52 53/53/53
f 52/52/52 54/54/54 53/53/53
f 53/53/53 54/54/54 55/55/55
f 54/54/54 56/56/56 55/55/55
f 55/55/55 56/56/56 57/57/57
f 56/56/56 58/58/58 57/57/57
f 58/58/58 59/59/59 57/57/57
f 57/57/57 59/59/59 60/60/60
