g FourSpiderShassis_15_CorpsePart
v -0.3869477 0.0020208955 0.4690252
v -0.23817664 -0.2412253 0.67247885
v -0.36195904 -0.28608865 0.4690252
v -0.20476544 0.0020208955 0.7569199
v -0.36127156 -0.28608865 -0.62778497
v -0.38559395 0.0020208955 -0.65118355
v -0.23817664 -0.2412253 0.67247885
v 0.3578958 -0.28608865 0.4690252
v -0.36195904 -0.28608865 0.4690252
v 0.23409185 -0.2412253 0.67247885
v -0.38559395 0.0020208955 -0.65118355
v 0.35718676 -0.28608865 -0.62778497
v 0.3815092 0.0020208955 -0.65118355
v -0.36127156 -0.28608865 -0.62778497
v -0.23817664 -0.2412253 0.67247885
v 0.20068067 0.0020208955 0.7569199
v 0.23409185 -0.2412253 0.67247885
v -0.20476544 0.0020208955 0.7569199
v 0.38286287 0.0020208955 0.4690252
v 0.23409185 -0.2412253 0.67247885
v 0.20068067 0.0020208955 0.7569199
v 0.3578958 -0.28608865 0.4690252
v 0.35718676 -0.28608865 -0.62778497
v 0.3815092 0.0020208955 -0.65118355
v 0.35718676 -0.28608865 -0.62778497
v -0.36127156 -0.28608865 -0.62778497
v -0.1910572 0.4334225 0.2742306
v -0.17722005 0.5416704 0.24124914
v -0.14786977 0.5416704 0.36679345
v -0.18590051 0.15010434 0.61614186
v -0.23476028 0.15010434 -0.5909575
v -0.25205678 0.34103143 -0.07846671
v 0.23138458 0.15010434 -0.5909575
v -0.17096752 0.5416704 -0.48380542
v -0.23476028 0.15010434 -0.5909575
v 0.16759181 0.5416704 -0.48380542
v -0.17096752 0.5416704 -0.48380542
v -0.17722005 0.5416704 -0.39085576
v -0.19415122 0.4334225 -0.41403943
v -0.19415122 0.4334225 -0.41403943
v -0.17722005 0.5416704 -0.39085576
v -0.37248737 0.54169184 -0.07891792
v -0.37248737 0.54169184 -0.07891792
v -0.17722005 0.5416704 -0.39085576
v -0.17722005 0.5416704 0.24124914
v -0.37248737 0.54169184 -0.07891792
v 0.36911163 0.54169184 -0.07891792
v 0.17384431 0.5416704 0.24124914
v 0.17384431 0.5416704 -0.39085576
v -0.17096752 0.5416704 -0.48380542
v 0.16759181 0.5416704 -0.48380542
v -0.18590051 0.15010434 0.61614186
v 0.14449406 0.5416704 0.36679345
v 0.18252477 0.15010434 0.61614186
v -0.14786977 0.5416704 0.36679345
v 0.14449406 0.5416704 0.36679345
v -0.14786977 0.5416704 0.36679345
v 0.18768147 0.4334225 0.2742306
v 0.14449406 0.5416704 0.36679345
v 0.17384431 0.5416704 0.24124914
v 0.23138458 0.15010434 -0.5909575
v 0.18252477 0.15010434 0.61614186
v 0.24868104 0.34103143 -0.07846671
v 0.16759181 0.5416704 -0.48380542
v 0.19077551 0.4334225 -0.41403943
v 0.17384431 0.5416704 -0.39085576
v 0.36911163 0.54169184 -0.07891792
v 0.36911163 0.54169184 -0.07891792
v 0.19077551 0.4334225 -0.41403943
v 0.36911163 0.54169184 -0.07891792
v 0.17384431 0.5416704 -0.39085576
v 0.36911163 0.54169184 -0.07891792
v 0.18768147 0.4334225 0.2742306
v 0.17384431 0.5416704 0.24124914
v -0.37248737 0.54169184 -0.07891792
v -0.1910572 0.4334225 0.2742306
v -0.37248737 0.54169184 -0.07891792
v -0.17722005 0.5416704 0.24124914
vt 0.74541765 0.93424714
vt 0.7376914 0.92775714
vt 0.73614615 0.93424714
vt 0.74541765 0.92497563
vt 0.73614615 0.96886075
vt 0.74541765 0.9697879
vt 0.7389276 0.98925805
vt 0.7364552 0.97875035
vt 0.7364552 0.9908033
vt 0.7389276 0.9802956
vt 0.7438724 0.88078153
vt 0.73243755 0.9101412
vt 0.7438724 0.91106844
vt 0.73243755 0.8817087
vt 0.71822125 0.95618975
vt 0.70462304 0.96298885
vt 0.70462304 0.95618975
vt 0.71822125 0.96298885
vt 0.74541765 0.93424714
vt 0.7376914 0.92775714
vt 0.74541765 0.92497563
vt 0.73614615 0.93424714
vt 0.73614615 0.96886075
vt 0.74541765 0.9697879
vt 0.71574885 0.97875035
vt 0.71574885 0.9908033
vt 0.7265656 0.92837524
vt 0.7253294 0.93208385
vt 0.7296561 0.93208385
vt 0.7383095 0.91848564
vt 0.69596964 0.91848564
vt 0.71389455 0.92528474
vt 0.73243755 0.93610144
vt 0.71822125 0.95031774
vt 0.71574885 0.93610144
vt 0.73181945 0.95000875
vt 0.69967824 0.93208385
vt 0.7030778 0.93208385
vt 0.70215064 0.92837524
vt 0.70215064 0.92837524
vt 0.7030778 0.93208385
vt 0.71389455 0.93022954
vt 0.71389455 0.93022954
vt 0.6944244 0.9697879
vt 0.6944244 0.94722724
vt 0.7012235 0.95866215
vt 0.6746452 0.95866215
vt 0.68175334 0.94722724
vt 0.68175334 0.9697879
vt 0.69411534 0.97318745
vt 0.68298954 0.97689605
vt 0.7123493 0.93610144
vt 0.6999873 0.94630015
vt 0.69906014 0.93610144
vt 0.71080405 0.95031774
vt 0.6826805 0.94259155
vt 0.6931882 0.94259155
vt 0.7265656 0.92837524
vt 0.7296561 0.93208385
vt 0.7253294 0.93208385
vt 0.69596964 0.91848564
vt 0.7383095 0.91848564
vt 0.71389455 0.92528474
vt 0.69967824 0.93208385
vt 0.70215064 0.92837524
vt 0.7030778 0.93208385
vt 0.71389455 0.93022954
vt 0.71389455 0.93022954
vt 0.70215064 0.92837524
vt 0.71389455 0.93022954
vt 0.7030778 0.93208385
vt 0.71389455 0.93022954
vt 0.7265656 0.92837524
vt 0.7253294 0.93208385
vt 0.71389455 0.93022954
vt 0.7265656 0.92837524
vt 0.71389455 0.93022954
vt 0.7253294 0.93208385
vn -0.99214923 -0.08235234 0.09411691
vn -0.8431307 -0.07450926 0.53252137
vn -0.99214923 -0.08235234 0.09411691
vn -0.8431307 -0.066666186 0.53356
vn -0.9966261 -0.08207513 -0
vn -0.9966261 -0.08207513 -0
vn -0.003921509 -0.97646314 0.21564874
vn -0.003921509 -0.9999924 -0
vn -0.003921509 -0.9999924 -0
vn -0.003921509 -0.97646314 0.21564874
vn -0.003921509 -0.08235234 -0.99659556
vn -0.003921509 -0.08235234 -0.99659556
vn -0.003921509 -0.08235234 -0.99659556
vn -0.003921509 -0.08235234 -0.99659556
vn -0.003921509 -0.32548773 0.94553816
vn -0.003921509 -0.32548773 0.94553816
vn -0.003921509 -0.32548773 0.94553816
vn -0.003921509 -0.32548773 0.94553816
vn 0.9921493 -0.08235234 0.09411628
vn 0.8431308 -0.07450926 0.5325211
vn 0.8431308 -0.066666186 0.53355974
vn 0.9921493 -0.08235234 0.09411628
vn 0.9966261 -0.08207512 -0
vn 0.9966261 -0.08207512 -0
vn -0.003921509 -0.9999924 -0
vn -0.003921509 -0.9999924 -0
vn -0.9843061 0.0901953 0.15167837
vn -0.9529338 0.19215536 0.234507
vn -0.9607769 0.21568453 0.17432119
vn -0.99214923 0.003921509 0.12499809
vn -0.99993086 0.011763804 -0
vn -0.97478557 -0.22314373 -0
vn -0.003921509 0.262743 -0.9648579
vn -0.003921509 0.262743 -0.9648579
vn -0.003921509 0.262743 -0.9648579
vn -0.003921509 0.262743 -0.9648579
vn -0.9843061 0.1764692 -0.00037126237
vn -0.9843061 0.16862607 -0.052026607
vn -0.9843061 0.098038435 -0.14673099
vn -0.81960154 0.23921382 -0.5206055
vn -0.81960154 0.23921382 -0.5206055
vn -0.81960154 0.23921382 -0.5206055
vn -0.82744455 -0.49803543 0.25941515
vn -0.003921509 0.99999225 -0.00034526698
vn -0.003921509 0.99999225 -0.00034526698
vn 0.0039215684 0.99999225 -0.00034526698
vn -0.003921509 0.99999225 -0.00034526698
vn -0.003921509 0.99999225 -0.00034526698
vn -0.003921509 0.99999225 -0.00034526698
vn -0.003921509 0.99999225 -0.00034526698
vn -0.003921509 0.99999225 -0.00034526698
vn -0.003921509 0.53725076 0.8434135
vn -0.003921509 0.53725076 0.8434135
vn -0.003921509 0.53725076 0.8434135
vn -0.003921509 0.53725076 0.8434135
vn -0.003921509 0.99999225 -0.00034526698
vn -0.003921509 0.99999225 -0.00034526698
vn 0.9843062 0.0901953 0.15167758
vn 0.960777 0.21568453 0.17432085
vn 0.9529339 0.19215536 0.23450649
vn 0.99993086 0.011763803 -0
vn 0.9921493 0.003921509 0.124997616
vn 0.9747855 -0.2231437 -0
vn 0.9843062 0.1764692 -0
vn 0.9843062 0.098038435 -0.14673018
vn 0.9843062 0.16862607 -0.052024316
vn 0.8196016 -0.49803543 -0.28322062
vn 0.8274447 -0.49803543 0.25941482
vn 0.8196016 0.23921382 -0.5206054
vn 0.8196016 0.23921382 -0.5206054
vn 0.8196016 0.23921382 -0.5206054
vn 0.8274447 0.25489998 0.5003612
vn 0.8274447 0.25489998 0.5003612
vn 0.8274447 0.25489998 0.5003612
vn -0.81960154 -0.49803543 -0.28322083
vn -0.82744455 0.25489998 0.5003614
vn -0.82744455 0.25489998 0.5003614
vn -0.82744455 0.25489998 0.5003614
g FourSpiderShassis_15_CorpsePart_0
f 3/3/3 2/2/2 1/1/1
f 4/4/4 1/1/1 2/2/2
f 3/3/3 1/1/1 5/5/5
f 6/6/6 5/5/5 1/1/1
f 9/9/9 8/8/8 7/7/7
f 10/10/10 7/7/7 8/8/8
f 13/13/13 12/12/12 11/11/11
f 14/14/14 11/11/11 12/12/12
f 17/17/17 16/16/16 15/15/15
f 18/18/18 15/15/15 16/16/16
f 21/21/21 20/20/20 19/19/19
f 22/22/22 19/19/19 20/20/20
f 24/24/24 19/19/19 23/23/23
f 22/22/22 23/23/23 19/19/19
f 26/26/26 25/25/25 9/9/9
f 8/8/8 9/9/9 25/25/25
f 29/29/29 28/28/28 27/27/27
f 32/32/32 31/31/31 30/30/30
f 35/35/35 34/34/34 33/33/33
f 36/36/36 33/33/33 34/34/34
f 39/39/39 38/38/38 37/37/37
f 42/42/42 41/41/41 40/40/40
f 27/27/27 43/43/43 32/32/32
f 46/46/46 45/45/45 44/44/44
f 48/48/48 47/47/47 45/45/45
f 45/45/45 47/47/47 44/44/44
f 44/44/44 47/47/47 49/49/49
f 44/44/44 49/49/49 50/50/50
f 51/51/51 50/50/50 49/49/49
f 54/54/54 53/53/53 52/52/52
f 55/55/55 52/52/52 53/53/53
f 57/57/57 56/56/56 45/45/45
f 48/48/48 45/45/45 56/56/56
f 60/60/60 59/59/59 58/58/58
f 63/63/63 62/62/62 61/61/61
f 66/66/66 65/65/65 64/64/64
f 67/67/67 63/63/63 65/65/65
f 58/58/58 63/63/63 68/68/68
f 64/64/64 65/65/65 61/61/61
f 63/63/63 61/61/61 65/65/65
f 58/58/58 62/62/62 63/63/63
f 71/71/71 70/70/70 69/69/69
f 74/74/74 73/73/73 72/72/72
f 59/59/59 62/62/62 58/58/58
f 27/27/27 32/32/32 30/30/30
f 39/39/39 31/31/31 32/32/32
f 32/32/32 75/75/75 39/39/39
f 78/78/78 77/77/77 76/76/76
f 29/29/29 27/27/27 30/30/30
f 37/37/37 31/31/31 39/39/39
