g FourLegs_05
v 0.086608954 -0.058033317 0.08733493
v -0.03936711 -0.058033317 -0.09431489
v 0.03216432 -0.058033317 -0.14385575
v 0.15801938 -0.058033317 0.037794083
v 0.06793003 -0.13335404 -0.168623
v 0.1937851 -0.13335404 0.0130268335
v 0.1937851 -0.13335404 0.0130268335
v 0.06793003 -0.13335404 -0.168623
v 0.03216432 -0.2086811 -0.14385575
v 0.15801938 -0.2086811 0.037794083
v -0.03936711 -0.2086811 -0.09431489
v 0.086608954 -0.2086811 0.08733493
v -0.07501182 -0.13335404 -0.069554
v 0.05084324 -0.13335404 0.11209583
v 0.03216432 -0.058033317 -0.14385575
v -0.03936711 -0.058033317 -0.09431489
v -0.003601402 -0.13335404 -0.1190885
v 0.06793003 -0.13335404 -0.168623
v 0.03216432 -0.2086811 -0.14385575
v -0.03936711 -0.2086811 -0.09431489
v -0.07501182 -0.13335404 -0.069554
v 0.122253664 -0.13335404 0.06256771
v 0.086608954 -0.058033317 0.08733493
v 0.15801938 -0.058033317 0.037794083
v 0.1937851 -0.13335404 0.0130268335
v 0.15801938 -0.2086811 0.037794083
v 0.086608954 -0.2086811 0.08733493
v 0.05084324 -0.13335404 0.11209583
v -0.07452145 0.20868108 0.12560987
v 0.14886779 -0.0885641 0.023751453
v 0.053282395 -0.16289131 0.08995879
v -0.13665926 0.13315657 0.16862297
v -0.13665926 0.13315657 0.16862297
v 0.053282395 -0.16289131 0.08995879
v -0.053403378 -0.16289131 -0.06413439
v -0.19378507 0.13315657 0.08611855
v -0.19378507 0.13315657 0.08611855
v -0.053403378 -0.16289131 -0.06413439
v 0.042175665 -0.0885641 -0.13034171
v -0.1317746 0.20868108 0.043105453
v -0.1317746 0.20868108 0.043105453
v 0.042175665 -0.0885641 -0.13034171
v 0.14886779 -0.0885641 0.023751453
v -0.07452145 0.20868108 0.12560987
v 0.14886779 -0.0885641 0.023751453
v 0.042175665 -0.0885641 -0.13034171
v -0.053403378 -0.16289131 -0.06413439
v 0.053282395 -0.16289131 0.08995879
v -0.1317746 0.20868108 0.043105453
v -0.07452145 0.20868108 0.12560987
v -0.13665926 0.13315657 0.16862297
v -0.19378507 0.13315657 0.08611855
vt 0.88266003 0.8787708
vt 0.88266003 0.88460463
vt 0.88025784 0.88460463
vt 0.88025784 0.8787708
vt 0.8779701 0.88460463
vt 0.8779701 0.8787708
vt 0.8919255 0.8787708
vt 0.8919255 0.88460463
vt 0.8895233 0.88460463
vt 0.8895233 0.8787708
vt 0.8872356 0.88460463
vt 0.8872356 0.8787708
vt 0.8849478 0.88460463
vt 0.8849478 0.8787708
vt 0.9192643 0.88151616
vt 0.9208658 0.8787708
vt 0.92246723 0.88151616
vt 0.9208658 0.8842615
vt 0.9240687 0.8842615
vt 0.9256701 0.88151616
vt 0.9240687 0.8787708
vt 0.92246723 0.88151616
vt 0.9256701 0.88151616
vt 0.9240687 0.8842615
vt 0.9208658 0.8842615
vt 0.9192643 0.88151616
vt 0.9208658 0.8787708
vt 0.9240687 0.8787708
vt 0.9861816 0.954496
vt 0.9949895 0.954496
vt 0.9949895 0.95781326
vt 0.9861816 0.958614
vt 0.9861816 0.958614
vt 0.9949895 0.95781326
vt 0.9949895 0.9623888
vt 0.9861816 0.9623888
vt 0.9861816 0.9464888
vt 0.9949895 0.9464888
vt 0.9949895 0.9499205
vt 0.9861816 0.95060676
vt 0.9861816 0.95060676
vt 0.9949895 0.9499205
vt 0.9949895 0.954496
vt 0.9861816 0.954496
vt 0.93321973 0.88243127
vt 0.92818666 0.88243127
vt 0.92818666 0.8787708
vt 0.93321973 0.8787708
vt 0.9591859 0.90691036
vt 0.9591859 0.9096557
vt 0.9563262 0.9096557
vt 0.9563262 0.90691036
vn -0.41096562 0.86608464 0.28461322
vn -0.41096562 0.86608464 0.28461322
vn 0.41096556 0.86608464 -0.2846133
vn 0.41096556 0.86608464 -0.2846133
vn 0.8253276 0.0033964515 -0.564644
vn 0.8253276 0.0033964515 -0.564644
vn 0.8253276 0.0033964515 -0.564644
vn 0.8253276 0.0033964515 -0.564644
vn 0.41096556 -0.8660845 -0.28461364
vn 0.41096556 -0.8660845 -0.28461364
vn -0.41096562 -0.8660845 0.28461352
vn -0.41096562 -0.8660845 0.28461352
vn -0.8185348 0.0033964515 0.5744469
vn -0.8185348 0.0033964515 0.5744469
vn -0.5672005 0.0033964515 -0.8235727
vn -0.5672005 -0.0033963919 -0.8235727
vn -0.5672005 0.0033964515 -0.8235727
vn -0.5672005 0.0033964515 -0.8235727
vn -0.5672005 -0.0033963919 -0.8235727
vn -0.5672005 0.0033964515 -0.8235727
vn -0.5672005 0.0033964515 -0.8235727
vn 0.5672004 0.0033964515 0.82357275
vn 0.5672004 -0.0033963919 0.82357275
vn 0.5672004 -0.0033963919 0.82357275
vn 0.5672004 0.0033964515 0.82357275
vn 0.5672004 0.0033964515 0.82357275
vn 0.5672004 0.0033964515 0.82357275
vn 0.5672004 0.0033964515 0.82357275
vn 0.506065 0.09170312 0.8576064
vn 0.506065 0.09170312 0.8576064
vn 0.506065 0.09170312 0.8576064
vn 0.506065 0.09170312 0.8576064
vn -0.6826784 -0.56040764 0.468928
vn -0.6826784 -0.56040764 0.468928
vn -0.6826784 -0.56040764 0.468928
vn -0.6826784 -0.56040764 0.468928
vn -0.6215431 0.09170312 -0.77799404
vn -0.6215431 0.09170312 -0.77799404
vn -0.6215431 0.09170312 -0.77799404
vn -0.6215431 0.09170312 -0.77799404
vn 0.6351286 0.6283359 -0.4492278
vn 0.6351286 0.6283359 -0.4492278
vn 0.6351286 0.6283359 -0.4492278
vn 0.6351286 0.6283359 -0.4492278
vn 0.4449297 -0.84570605 -0.29465044
vn 0.4449297 -0.84570605 -0.29465044
vn 0.4449297 -0.84570605 -0.29465044
vn 0.4449297 -0.84570605 -0.29465044
vn -0.58078617 0.7098498 0.3984981
vn -0.58078617 0.7098498 0.3984981
vn -0.58078617 0.7098498 0.3984981
vn -0.58078617 0.7098498 0.3984981
g FourLegs_05_0
f 3/3/3 2/2/2 1/1/1
f 4/4/4 3/3/3 1/1/1
f 5/5/5 3/3/3 4/4/4
f 6/6/6 5/5/5 4/4/4
f 9/9/9 8/8/8 7/7/7
f 10/10/10 9/9/9 7/7/7
f 11/11/11 9/9/9 10/10/10
f 12/12/12 11/11/11 10/10/10
f 13/13/13 11/11/11 12/12/12
f 14/14/14 13/13/13 12/12/12
f 2/2/2 13/13/13 14/14/14
f 1/1/1 2/2/2 14/14/14
f 17/17/17 16/16/16 15/15/15
f 17/17/17 15/15/15 18/18/18
f 17/17/17 18/18/18 19/19/19
f 17/17/17 19/19/19 20/20/20
f 17/17/17 20/20/20 21/21/21
f 17/17/17 21/21/21 16/16/16
f 24/24/24 23/23/23 22/22/22
f 25/25/25 24/24/24 22/22/22
f 26/26/26 25/25/25 22/22/22
f 27/27/27 26/26/26 22/22/22
f 28/28/28 27/27/27 22/22/22
f 23/23/23 28/28/28 22/22/22
f 31/31/31 30/30/30 29/29/29
f 32/32/32 31/31/31 29/29/29
f 35/35/35 34/34/34 33/33/33
f 36/36/36 35/35/35 33/33/33
f 39/39/39 38/38/38 37/37/37
f 40/40/40 39/39/39 37/37/37
f 43/43/43 42/42/42 41/41/41
f 44/44/44 43/43/43 41/41/41
f 47/47/47 46/46/46 45/45/45
f 48/48/48 47/47/47 45/45/45
f 51/51/51 50/50/50 49/49/49
f 52/52/52 51/51/51 49/49/49
