g FourSpiderShassis_06
v 0.613863 -0.19715607 0.27665836
v 0.47198465 -0.24051088 0.44669586
v 0.54316056 -0.24051088 0.25113696
v 0.5427096 -0.19715607 0.47221726
v 0.61311895 -0.24051088 0.49805433
v 0.6842948 -0.32722056 0.30251795
v 0.61311895 -0.32722056 0.49805433
v 0.6842948 -0.24051088 0.30251795
v 0.6137277 -0.37057537 0.2768162
v 0.5425518 -0.37057537 0.4723751
v 0.54316056 -0.32722056 0.25113696
v 0.47198465 -0.32722056 0.44669586
v 0.5427096 -0.19715607 0.47221726
v 0.613863 -0.19715607 0.27665836
v 0.47198465 -0.32722056 0.44669586
v 0.61311895 -0.32722056 0.49805433
v 0.5425518 -0.37057537 0.4723751
v 0.47198465 -0.24051088 0.44669586
v 0.5427096 -0.19715607 0.47221726
v 0.61311895 -0.24051088 0.49805433
v 0.6842948 -0.32722056 0.30251795
v 0.54316056 -0.32722056 0.25113696
v 0.6137277 -0.37057537 0.2768162
v 0.613863 -0.19715607 0.27665836
v 0.54316056 -0.24051088 0.25113696
v 0.6842948 -0.24051088 0.30251795
v 0.72167516 -0.24641782 0.3216365
v 0.57107174 -0.2549625 0.2831064
v 0.6424731 -0.31159657 0.30907863
v 0.622836 -0.16482592 0.288382
v 0.8105266 0.13329202 0.3932858
v 0.72167516 -0.24641782 0.3216365
v 0.9253053 0.038037717 0.4337774
v 0.622836 -0.16482592 0.288382
v 0.51398677 -0.2549625 0.4399323
v 0.654129 -0.24641782 0.50723034
v 0.58538806 -0.31159657 0.46592706
v 0.5570936 -0.1648485 0.4691736
v 0.5570936 -0.1648485 0.4691736
v 0.88219845 0.038037717 0.55220836
v 0.654129 -0.24641782 0.50723034
v 0.76829904 0.13324696 0.5094623
v 0.654129 -0.24641782 0.50723034
v 0.6424731 -0.31159657 0.30907863
v 0.58538806 -0.31159657 0.46592706
v 0.72167516 -0.24641782 0.3216365
v 0.76829904 0.13324696 0.5094623
v 0.622836 -0.16482592 0.288382
v 0.8105266 0.13329202 0.3932858
v 0.5570936 -0.1648485 0.4691736
v 0.622836 -0.16482592 0.288382
v 0.51398677 -0.2549625 0.4399323
v 0.57107174 -0.2549625 0.2831064
v 0.5570936 -0.1648485 0.4691736
v 0.654129 -0.24641782 0.50723034
v 0.9253053 0.038037717 0.4337774
v 0.72167516 -0.24641782 0.3216365
v 0.88219845 0.038037717 0.55220836
vt 0.660281 0.9283416
vt 0.6503744 0.9245539
vt 0.660281 0.9245539
vt 0.6503744 0.9283416
vt 0.6503744 0.9099853
vt 0.660281 0.9137732
vt 0.6503744 0.9137732
vt 0.660281 0.9099853
vt 0.660281 0.9172696
vt 0.6503744 0.9172696
vt 0.660281 0.9210574
vt 0.6503744 0.9210574
vt 0.6503744 0.9064889
vt 0.660281 0.9064889
vt 0.6637774 0.9271762
vt 0.67135304 0.9271762
vt 0.6675652 0.9292158
vt 0.6637774 0.92280567
vt 0.6675652 0.920766
vt 0.67135304 0.92280567
vt 0.6637774 0.9271762
vt 0.67135304 0.9271762
vt 0.6675652 0.9292158
vt 0.6675652 0.920766
vt 0.67135304 0.92280567
vt 0.6637774 0.92280567
vt 0.6320181 0.9265934
vt 0.63522315 0.92950714
vt 0.63260084 0.92950714
vt 0.6358059 0.9265934
vt 0.63726276 0.907363
vt 0.6317267 0.9193092
vt 0.63143533 0.907363
vt 0.63638866 0.9193092
vt 0.63522315 0.92950714
vt 0.6320181 0.9265934
vt 0.63260084 0.92950714
vt 0.6358059 0.9265934
vt 0.63638866 0.9193092
vt 0.63143533 0.907363
vt 0.6317267 0.9193092
vt 0.63726276 0.907363
vt 0.63638866 0.92164016
vt 0.6320181 0.9245539
vt 0.63609725 0.9245539
vt 0.6317267 0.92164016
vt 0.6419247 0.9076544
vt 0.6462952 0.91960055
vt 0.6457125 0.9076544
vt 0.6410506 0.91960055
vt 0.6317267 0.92164016
vt 0.63609725 0.9245539
vt 0.6320181 0.9245539
vt 0.63638866 0.92164016
vt 0.6410506 0.91960055
vt 0.6457125 0.9076544
vt 0.6462952 0.91960055
vt 0.6419247 0.9076544
vn -0.003921509 0.99999225 -0.00034526698
vn -0.8117584 0.4980353 -0.304974
vn -0.8117584 0.4980353 -0.304974
vn -0.003921509 0.99999225 -0.00034526698
vn 0.8117585 0.4980353 0.3049737
vn 0.8117585 -0.49803543 0.30497348
vn 0.8117585 -0.49803543 0.30497348
vn 0.8117585 0.4980353 0.3049737
vn -0.003921509 -0.9999924 -0
vn -0.003921509 -0.9999924 -0
vn -0.8117584 -0.49803543 -0.30497378
vn -0.8117584 -0.49803543 -0.30497378
vn -0.003921509 0.99999225 -0.00034526698
vn -0.003921509 0.99999225 -0.00034526698
vn -0.34117377 0.003921509 0.9399921
vn -0.34117377 0.003921509 0.9399921
vn -0.34117377 0.003921509 0.9399921
vn -0.34117377 0.003921509 0.9399921
vn -0.34117377 0.003921509 0.9399921
vn -0.34117377 0.003921509 0.9399921
vn 0.3411739 -0.0039215684 -0.939992
vn 0.3411739 -0.0039215684 -0.939992
vn 0.3411739 0.003921509 -0.939992
vn 0.3411739 -0.0039215684 -0.939992
vn 0.3411739 0.003921509 -0.939992
vn 0.3411739 0.003921509 -0.939992
vn 0.36470312 0.050979972 -0.9297272
vn 0.25490004 -0.098038495 -0.96198463
vn 0.25490004 -0.121567726 -0.9592952
vn 0.35686004 0.050979972 -0.9327658
vn 0.38823235 0.08235228 -0.9178746
vn 0.36470312 0.050979972 -0.9297272
vn 0.38823235 0.08235228 -0.9178746
vn 0.35686004 0.050979972 -0.9327658
vn -0.42744768 -0.098038495 0.8987085
vn -0.3176446 0.05882299 0.94638354
vn -0.42744768 -0.121567726 0.8958291
vn -0.3254876 0.050979972 0.944171
vn -0.3254876 0.050979972 0.944171
vn -0.2941153 0.08235228 0.9522155
vn -0.3176446 0.05882299 0.94638354
vn -0.2941153 0.074509144 0.95286125
vn 0.7097985 -0.66274005 0.23866653
vn 0.59999543 -0.77254313 0.20780411
vn 0.59999543 -0.77254313 0.20780411
vn 0.70195544 -0.66274005 0.26083362
vn -0.76469994 0.5764661 -0.28795984
vn -0.7803861 0.5607799 -0.2766286
vn -0.76469994 0.5764661 -0.28795984
vn -0.7803861 0.5607799 -0.2766286
vn -0.7803861 0.5607799 -0.2766286
vn -0.81960154 0.4901923 -0.2965887
vn -0.81960154 0.4901923 -0.2965887
vn -0.7803861 0.5607799 -0.2766286
vn 0.7097985 -0.66274005 0.23866653
vn 0.73332775 -0.63136774 0.25220075
vn 0.70195544 -0.66274005 0.26083362
vn 0.73332775 -0.63136774 0.25220075
g FourSpiderShassis_06_0
f 3/3/3 2/2/2 1/1/1
f 4/4/4 1/1/1 2/2/2
f 7/7/7 6/6/6 5/5/5
f 8/8/8 5/5/5 6/6/6
f 10/10/10 9/9/9 7/7/7
f 6/6/6 7/7/7 9/9/9
f 12/12/12 11/11/11 10/10/10
f 9/9/9 10/10/10 11/11/11
f 2/2/2 3/3/3 12/12/12
f 11/11/11 12/12/12 3/3/3
f 14/14/14 13/13/13 8/8/8
f 5/5/5 8/8/8 13/13/13
f 17/17/17 16/16/16 15/15/15
f 15/15/15 16/16/16 18/18/18
f 18/18/18 16/16/16 19/19/19
f 19/19/19 16/16/16 20/20/20
f 23/23/23 22/22/22 21/21/21
f 25/25/25 24/24/24 22/22/22
f 22/22/22 24/24/24 21/21/21
f 21/21/21 24/24/24 26/26/26
f 29/29/29 28/28/28 27/27/27
f 30/30/30 27/27/27 28/28/28
f 33/33/33 32/32/32 31/31/31
f 34/34/34 31/31/31 32/32/32
f 37/37/37 36/36/36 35/35/35
f 38/38/38 35/35/35 36/36/36
f 41/41/41 40/40/40 39/39/39
f 42/42/42 39/39/39 40/40/40
f 45/45/45 44/44/44 43/43/43
f 46/46/46 43/43/43 44/44/44
f 49/49/49 48/48/48 47/47/47
f 50/50/50 47/47/47 48/48/48
f 53/53/53 52/52/52 51/51/51
f 54/54/54 51/51/51 52/52/52
f 57/57/57 56/56/56 55/55/55
f 58/58/58 55/55/55 56/56/56
