g FourSpiderShassis_16
v -0.7966852 0.19138789 0.58276427
v -0.8119633 0.12684166 0.3298229
v -0.728865 0.12684166 0.5580903
v -0.8797568 0.19138789 0.3544969
v -0.90174246 0.06639445 0.6210129
v -0.9662088 0.16115099 0.3859582
v -0.8819128 0.16115099 0.61438537
v -0.98481417 0.06639445 0.3927455
v -0.8339224 0.0018482208 0.596339
v -0.916994 0.0018482208 0.3680449
v -0.74749696 0.03208512 0.5648776
v -0.8305687 0.03208512 0.3365836
v -0.8819128 0.16115099 0.61438537
v -0.8339224 0.0018482208 0.596339
v -0.90174246 0.06639445 0.6210129
v -0.7966852 0.19138789 0.58276427
v -0.728865 0.12684166 0.5580903
v -0.74749696 0.03208512 0.5648776
v -0.98481417 0.06639445 0.3927455
v -0.8797568 0.19138789 0.3544969
v -0.9662088 0.16115099 0.3859582
v -0.916994 0.0018482208 0.3680449
v -0.8119633 0.12684166 0.3298229
v -0.8305687 0.03208512 0.3365836
v -0.8819128 0.16115099 0.61438537
v -0.9662088 0.16115099 0.3859582
v -1.1523416 -0.53235507 0.62561774
v -0.9951682 -0.34686118 0.6130012
v -1.0774679 -0.53264785 0.6030997
v -1.1431854 -0.31473446 0.66687405
v -1.1802096 -0.53235507 0.54909384
v -1.1431854 -0.31473446 0.66687405
v -1.1523416 -0.53235507 0.62561774
v -1.1996932 -0.31473446 0.5115905
v -1.0774679 -0.53264785 0.6030997
v -1.0517027 -0.34686118 0.457691
v -1.1083703 -0.53264785 0.51819146
v -0.9951682 -0.34686118 0.6130012
v -1.1083703 -0.53264785 0.51819146
v -1.1996932 -0.31473446 0.5115905
v -1.1802096 -0.53235507 0.54909384
v -1.0517027 -0.34686118 0.457691
v -1.1802096 -0.53235507 0.54909384
v -1.0774679 -0.53264785 0.6030997
v -1.1083703 -0.53264785 0.51819146
v -1.1523416 -0.53235507 0.62561774
v -0.89836216 0.20081031 0.2056014
v -0.76195 0.24635202 0.7390593
v -0.94936025 0.24635202 0.2241534
v -0.7109518 0.20081031 0.72050726
v -0.94936025 0.24635202 0.2241534
v -0.98654425 0.049492657 0.7755246
v -1.1448622 0.049492657 0.34057617
v -0.76195 0.24635202 0.7390593
v -1.2116975 -0.13192886 0.5028068
v -1.1420141 -0.13192886 0.6942363
v -0.7109518 0.20081031 0.72050726
v -0.98654425 0.049492657 0.7755246
v -0.76195 0.24635202 0.7390593
v -0.9367173 0.009886563 0.7573985
v -1.1420141 -0.13192886 0.6942363
v -1.1098076 -0.15689561 0.6785855
v -1.0950352 0.009886563 0.32245004
v -0.94936025 0.24635202 0.2241534
v -1.1448622 0.049492657 0.34057617
v -0.89836216 0.20081031 0.2056014
v -1.1769623 -0.15689561 0.4940765
v -1.2116975 -0.13192886 0.5028068
v -1.1769623 -0.15689561 0.4940765
v -1.1420141 -0.13192886 0.6942363
v -1.1098076 -0.15689561 0.6785855
v -1.2116975 -0.13192886 0.5028068
v -0.9367173 0.009886563 0.7573985
v -1.1769623 -0.15689561 0.4940765
v -1.1098076 -0.15689561 0.6785855
v -1.0950352 0.009886563 0.32245004
v -0.89836216 0.20081031 0.2056014
v -0.7109518 0.20081031 0.72050726
vt 0.68219286 0.90554667
vt 0.67598 0.9039934
vt 0.68219286 0.9039934
vt 0.67598 0.90554667
vt 0.68219286 0.8990231
vt 0.67598 0.8971592
vt 0.68219286 0.8971592
vt 0.67598 0.8990231
vt 0.68219286 0.90057635
vt 0.67598 0.90057635
vt 0.68219286 0.9024402
vt 0.67598 0.9024402
vt 0.67908645 0.9126915
vt 0.6719416 0.91517663
vt 0.6747374 0.91175956
vt 0.680329 0.9170405
vt 0.6775332 0.92014694
vt 0.67318416 0.9192151
vt 0.6747374 0.91175956
vt 0.680329 0.9170405
vt 0.67908645 0.9126915
vt 0.6719416 0.91517663
vt 0.6775332 0.92014694
vt 0.67318416 0.9192151
vt 0.68219286 0.9039934
vt 0.67598 0.9039934
vt 0.6849887 0.938475
vt 0.6797077 0.9319515
vt 0.6825035 0.938475
vt 0.68529934 0.9307089
vt 0.69026965 0.938475
vt 0.69492936 0.9303982
vt 0.6936867 0.938475
vt 0.6887164 0.9303982
vt 0.67225224 0.9387857
vt 0.67691195 0.9319515
vt 0.6756693 0.9387857
vt 0.67100966 0.9319515
vt 0.6825035 0.938475
vt 0.68529934 0.9307089
vt 0.6849887 0.938475
vt 0.6797077 0.9319515
vt 0.68219286 0.92604923
vt 0.68529934 0.92294276
vt 0.68529934 0.9263599
vt 0.68219286 0.92294276
vt 0.7089084 0.9477944
vt 0.7076658 0.93692183
vt 0.7076658 0.9477944
vt 0.7089084 0.93692183
vt 0.7107722 0.94686246
vt 0.70052093 0.9406495
vt 0.71015096 0.9406495
vt 0.699589 0.9465518
vt 0.70735514 0.9363005
vt 0.70331675 0.9363005
vt 0.65578806 0.8797631
vt 0.6452261 0.8828696
vt 0.65578806 0.8828696
vt 0.6452261 0.8797631
vt 0.63590676 0.8828696
vt 0.63590676 0.8797631
vt 0.6402558 0.8797631
vt 0.64491546 0.8828696
vt 0.6402558 0.8828696
vt 0.64491546 0.8797631
vt 0.63590676 0.8797631
vt 0.63590676 0.8828696
vt 0.64709 0.8844228
vt 0.6300045 0.8884612
vt 0.6303152 0.8844228
vt 0.6474006 0.8884612
vt 0.71015096 0.9406495
vt 0.70331675 0.9363005
vt 0.70735514 0.9363005
vt 0.70052093 0.9406495
vt 0.699589 0.9465518
vt 0.7107722 0.94686246
vn 0.19292307 0.9788798 -0.06763885
vn 0.89134866 0.3114953 -0.32934517
vn 0.89134866 0.3114953 -0.32934517
vn 0.19292307 0.9788798 -0.06763885
vn -0.89351666 -0.30932736 0.32549125
vn -0.6995095 0.66846836 0.2526589
vn -0.6995095 0.66846836 0.2526589
vn -0.89351666 -0.30932736 0.32549125
vn -0.19509113 -0.97671175 0.08929508
vn -0.19509113 -0.97671175 0.08929508
vn 0.69734156 -0.6663004 -0.2641184
vn 0.69734156 -0.6663004 -0.2641184
vn 0.3481288 0.0010839701 0.93744606
vn 0.3403685 0.0010839701 0.94029146
vn 0.3403685 -0.0066762567 0.9402684
vn 0.3481288 0.0010839701 0.93744606
vn 0.3403685 0.0010839701 0.94029146
vn 0.3403685 0.0010839701 0.94029146
vn -0.34253645 0.0010839701 -0.9395039
vn -0.34253645 0.0010839701 -0.9395039
vn -0.34253645 0.0010839701 -0.9395039
vn -0.34253645 0.0010839701 -0.9395039
vn -0.34253645 0.0010839701 -0.9395039
vn -0.34253645 0.0010839701 -0.9395039
vn -0.6995095 0.66846836 0.2526589
vn -0.6995095 0.66846836 0.2526589
vn 0.2938068 -0.18516284 0.93775916
vn 0.2938068 -0.18516284 0.93775916
vn 0.2860465 -0.17740256 0.9416505
vn 0.30156708 -0.19292307 0.9337227
vn -0.9400784 -0.02219683 0.34023514
vn -0.9400784 -0.02219683 0.34023514
vn -0.9400784 -0.02219683 0.34023514
vn -0.9400784 -0.02219683 0.34023514
vn 0.8758281 -0.3714096 -0.3081884
vn 0.8758281 -0.3714096 -0.3081884
vn 0.8758281 -0.3714096 -0.3081884
vn 0.8758281 -0.3714096 -0.3081884
vn -0.38133788 -0.18516284 -0.90570205
vn -0.3735776 -0.18516284 -0.9089304
vn -0.38909817 -0.19292307 -0.9007682
vn -0.3735776 -0.18516284 -0.9089304
vn -0.0010839701 -0.9999926 0.0036864425
vn -0.0010839701 -0.9999926 0.0036864425
vn -0.0010839701 -0.9999926 0.0036864425
vn -0.0010839701 -0.9999926 0.0036864425
vn 0.6042181 0.7693521 -0.20740749
vn 0.6042181 0.7693521 -0.20740749
vn 0.6042181 0.7693521 -0.20740749
vn 0.6042181 0.7693521 -0.20740749
vn -0.62190676 0.7538315 0.21206154
vn -0.66070807 0.7072698 0.25146437
vn -0.67622864 0.6917492 0.253373
vn -0.62190676 0.7538315 0.21206154
vn -0.78487265 0.5443039 0.29615566
vn -0.78487265 0.5443039 0.29615566
vn 0.25500536 -0.10755998 0.9609387
vn 0.13860112 -0.26276565 0.9548528
vn 0.25500536 -0.10755998 0.9609387
vn 0.1541217 -0.24724507 0.9566172
vn 0.04547769 -0.46453303 0.88438725
vn 0.06099826 -0.47229332 0.8793283
vn -0.49774218 -0.24724507 -0.8313378
vn -0.4278996 -0.115320265 -0.89643914
vn -0.50550246 -0.27052593 -0.81931865
vn -0.4278996 -0.10755998 -0.89740336
vn -0.5287833 -0.44901246 -0.72026104
vn -0.51326275 -0.45677274 -0.72658104
vn -0.5365436 -0.8215061 0.1929993
vn -0.5365436 -0.8215061 0.1929993
vn -0.5365436 -0.8215061 0.1929993
vn -0.5365436 -0.8215061 0.1929993
vn 0.6352593 -0.736143 -0.23353617
vn 0.7283827 -0.627499 -0.27514297
vn 0.7283827 -0.627499 -0.27514297
vn 0.65077984 -0.7283827 -0.21434616
vn 0.6119784 -0.7594238 -0.22081207
vn 0.6119784 -0.7594238 -0.22081207
g FourSpiderShassis_16_0
f 3/3/3 2/2/2 1/1/1
f 4/4/4 1/1/1 2/2/2
f 7/7/7 6/6/6 5/5/5
f 8/8/8 5/5/5 6/6/6
f 10/10/10 9/9/9 8/8/8
f 5/5/5 8/8/8 9/9/9
f 12/12/12 11/11/11 10/10/10
f 9/9/9 10/10/10 11/11/11
f 2/2/2 3/3/3 12/12/12
f 11/11/11 12/12/12 3/3/3
f 15/15/15 14/14/14 13/13/13
f 13/13/13 14/14/14 16/16/16
f 16/16/16 14/14/14 17/17/17
f 17/17/17 14/14/14 18/18/18
f 21/21/21 20/20/20 19/19/19
f 19/19/19 20/20/20 22/22/22
f 20/20/20 23/23/23 22/22/22
f 22/22/22 23/23/23 24/24/24
f 1/1/1 4/4/4 25/25/25
f 26/26/26 25/25/25 4/4/4
f 29/29/29 28/28/28 27/27/27
f 30/30/30 27/27/27 28/28/28
f 33/33/33 32/32/32 31/31/31
f 34/34/34 31/31/31 32/32/32
f 37/37/37 36/36/36 35/35/35
f 38/38/38 35/35/35 36/36/36
f 41/41/41 40/40/40 39/39/39
f 42/42/42 39/39/39 40/40/40
f 45/45/45 44/44/44 43/43/43
f 46/46/46 43/43/43 44/44/44
f 49/49/49 48/48/48 47/47/47
f 50/50/50 47/47/47 48/48/48
f 53/53/53 52/52/52 51/51/51
f 54/54/54 51/51/51 52/52/52
f 56/56/56 52/52/52 55/55/55
f 53/53/53 55/55/55 52/52/52
f 59/59/59 58/58/58 57/57/57
f 60/60/60 57/57/57 58/58/58
f 58/58/58 61/61/61 60/60/60
f 62/62/62 60/60/60 61/61/61
f 65/65/65 64/64/64 63/63/63
f 66/66/66 63/63/63 64/64/64
f 68/68/68 65/65/65 67/67/67
f 63/63/63 67/67/67 65/65/65
f 71/71/71 70/70/70 69/69/69
f 72/72/72 69/69/69 70/70/70
f 75/75/75 74/74/74 73/73/73
f 76/76/76 73/73/73 74/74/74
f 76/76/76 77/77/77 73/73/73
f 78/78/78 73/73/73 77/77/77
