g FourLegs_11
v -7.1463504 0.5681017 -0.10000263
v -7.2847867 0.8953678 -0.24186121
v -7.389705 0.40629792 -0.25637752
v -7.326683 0.33041185 -0.19182125
v -7.2847867 0.8953678 -0.24186121
v -7.4661813 0.8953678 -0.06495105
v -7.477983 0.40629792 -0.17034182
v -7.389705 0.40629792 -0.25637752
v -7.4661813 0.8953678 -0.06495105
v -7.3277454 0.5681017 0.076907516
v -7.4149613 0.33041185 -0.10578555
v -7.477983 0.40629792 -0.17034182
v -7.3277454 0.5681017 0.076907516
v -7.1463504 0.5681017 -0.10000263
v -7.326683 0.33041185 -0.19182125
v -7.4149613 0.33041185 -0.10578555
v -7.3277454 0.5681017 0.076907516
v -7.4661813 0.8953678 -0.06495105
v -7.2847867 0.8953678 -0.24186121
v -7.1463504 0.5681017 -0.10000263
vt 0.79407895 0.8231148
vt 0.7868435 0.8294106
vt 0.7994351 0.8294106
vt 0.80093855 0.82687354
vt 0.7868435 0.8294106
vt 0.7876892 0.8358004
vt 0.79981095 0.83251154
vt 0.7994351 0.8294106
vt 0.7876892 0.8358004
vt 0.79633415 0.84002894
vt 0.8019722 0.8345788
vt 0.79981095 0.83251154
vt 0.79633415 0.84002894
vt 0.80159634 0.8435997
vt 0.80450934 0.8363642
vt 0.8019722 0.8345788
vt 0.7845883 0.8647423
vt 0.7750036 0.8647423
vt 0.7750036 0.8711321
vt 0.7845883 0.8711321
vn 0.58832026 -0.11339319 -0.800638
vn 0.58832026 -0.11339319 -0.800638
vn 0.58832026 -0.11339319 -0.800638
vn 0.58832026 -0.11339319 -0.800638
vn -0.6894597 0.16930151 -0.7042601
vn -0.6894597 0.16930151 -0.7042601
vn -0.6894597 0.16930151 -0.7042601
vn -0.6894597 0.16930151 -0.7042601
vn -0.8138454 -0.11339319 0.5699102
vn -0.8138454 -0.11339319 0.5699102
vn -0.8138454 -0.11339319 0.5699102
vn -0.8138454 -0.11339319 0.5699102
vn 0.5430891 -0.6278975 0.55749345
vn 0.5430891 -0.6278975 0.55749345
vn 0.5430891 -0.6278975 0.55749345
vn 0.5430891 -0.6278975 0.55749345
vn 0.59962803 0.51984286 0.6084485
vn 0.59962803 0.51984286 0.6084485
vn 0.59962803 0.51984286 0.6084485
vn 0.59962803 0.51984286 0.6084485
g FourLegs_11_0
f 3/3/3 2/2/2 1/1/1
f 4/4/4 3/3/3 1/1/1
f 7/7/7 6/6/6 5/5/5
f 8/8/8 7/7/7 5/5/5
f 11/11/11 10/10/10 9/9/9
f 12/12/12 11/11/11 9/9/9
f 15/15/15 14/14/14 13/13/13
f 16/16/16 15/15/15 13/13/13
f 19/19/19 18/18/18 17/17/17
f 20/20/20 19/19/19 17/17/17
