g FXMeshAcidCapsEnemy
v 0.5518899 -0.95589906 1.4583412
v 0.5518899 -0.95589906 0.8826946
v -0.5518898 -0.95589906 0.8826946
v -0.5518898 -0.95589906 1.4583412
v -1.1038085 -2.8967857E-05 0.8826946
v -1.1038085 -2.8967857E-05 1.4583412
v -0.5518898 0.9558989 0.8826946
v -0.5518898 0.9558989 1.4583412
v 0.5518899 0.9558989 0.8826946
v 0.5518899 0.9558989 1.4583412
v 1.1038086 2.8848648E-05 0.8826946
v 1.1038086 2.8848648E-05 1.4583412
v 0.5518899 -0.95589906 0.8826946
v 0.5518899 -0.95589906 1.4583412
v -0.5518898 -0.95589906 1.4583412
v -2.8848648E-05 2.8848648E-05 1.8917361
v 0.5518899 -0.95589906 1.4583412
v -1.1038085 -2.8967857E-05 1.4583412
v -0.5518898 0.9558989 1.4583412
v 0.5518899 0.9558989 1.4583412
v 1.1038086 2.8848648E-05 1.4583412
v 0.5518899 -0.95589906 0.8826946
v -2.8848648E-05 2.8848648E-05 0.8826946
v -0.5518898 -0.95589906 0.8826946
v -1.1038085 -2.8967857E-05 0.8826946
v -0.5518898 0.9558989 0.8826946
v 0.5518899 0.9558989 0.8826946
v 1.1038086 2.8848648E-05 0.8826946
v -0.5518898 -0.95589906 -1.4583414
v -0.5518898 -0.95589906 -0.8826947
v 0.5518899 -0.95589906 -0.8826947
v 0.5518899 -0.95589906 -1.4583414
v 1.1038086 -2.8967857E-05 -0.8826947
v 1.1038086 -2.8967857E-05 -1.4583414
v 0.5518899 0.9558989 -0.8826947
v 0.5518899 0.9558989 -1.4583414
v -0.5518898 0.9558989 -0.8826947
v -0.5518898 0.9558989 -1.4583414
v -1.1038085 2.8848648E-05 -0.8826947
v -1.1038085 2.8848648E-05 -1.4583414
v -0.5518898 -0.95589906 -0.8826947
v -0.5518898 -0.95589906 -1.4583414
v 0.5518899 -0.95589906 -1.4583414
v -2.8848648E-05 2.8848648E-05 -1.8917361
v -0.5518898 -0.95589906 -1.4583414
v 1.1038086 -2.8967857E-05 -1.4583414
v 0.5518899 0.9558989 -1.4583414
v -0.5518898 0.9558989 -1.4583414
v -1.1038085 2.8848648E-05 -1.4583414
v -0.5518898 -0.95589906 -0.8826947
v -2.8848648E-05 2.8848648E-05 -0.8826947
v 0.5518899 -0.95589906 -0.8826947
v 1.1038086 -2.8967857E-05 -0.8826947
v 0.5518899 0.9558989 -0.8826947
v -0.5518898 0.9558989 -0.8826947
v -1.1038085 2.8848648E-05 -0.8826947
vt 0.036165044 0.05684176
vt 0.036165044 0.058548413
vt 0.036361966 0.058548413
vt 0.036361966 0.05684176
vt 0.036537006 0.058548413
vt 0.036537006 0.05684176
vt 0.036733925 0.058548413
vt 0.036733925 0.05684176
vt 0.036930848 0.058548413
vt 0.036930848 0.05684176
vt 0.037105888 0.058548413
vt 0.037105888 0.05684176
vt 0.03730281 0.058548413
vt 0.03730281 0.05684176
vt 0.038681258 0.05633852
vt 0.03905322 0.056929283
vt 0.039403304 0.05633852
vt 0.038331177 0.056951165
vt 0.038681258 0.057563808
vt 0.039403304 0.057563808
vt 0.039753385 0.056951165
vt 0.039381422 0.057629447
vt 0.03903134 0.056973044
vt 0.038681258 0.057629447
vt 0.038309295 0.057016805
vt 0.038681258 0.05640416
vt 0.039381422 0.05640416
vt 0.039731503 0.057016805
vt 0.036165044 0.05684176
vt 0.036165044 0.058548413
vt 0.036361966 0.058548413
vt 0.036361966 0.05684176
vt 0.036537006 0.058548413
vt 0.036537006 0.05684176
vt 0.036733925 0.058548413
vt 0.036733925 0.05684176
vt 0.036930848 0.058548413
vt 0.036930848 0.05684176
vt 0.037105888 0.058548413
vt 0.037105888 0.05684176
vt 0.03730281 0.058548413
vt 0.03730281 0.05684176
vt 0.038681258 0.05633852
vt 0.03905322 0.056929283
vt 0.039403304 0.05633852
vt 0.038331177 0.056951165
vt 0.038681258 0.057563808
vt 0.039403304 0.057563808
vt 0.039753385 0.056951165
vt 0.039381422 0.057629447
vt 0.03903134 0.056973044
vt 0.038681258 0.057629447
vt 0.038309295 0.057016805
vt 0.038681258 0.05640416
vt 0.039381422 0.05640416
vt 0.039731503 0.057016805
vn 0.49803543 -0.86666006 -0.029343631
vn 0.49803543 -0.86666006 -0.029343631
vn -0.4980353 -0.86666006 -0.029345663
vn -0.4980353 -0.86666006 -0.029345663
vn -0.99999225 -0.0039215684 -0.00034425134
vn -0.99999225 -0.0039215684 -0.00034425134
vn -0.4980353 0.86666 -0.029347694
vn -0.4980353 0.86666 -0.029347694
vn 0.49803543 0.86666 -0.029345663
vn 0.49803543 0.86666 -0.029345663
vn 0.9999924 0.003921509 -0
vn 0.9999924 0.003921509 -0
vn 0.49803543 -0.86666006 -0.029343631
vn 0.49803543 -0.86666006 -0.029343631
vn -0.18431222 -0.31764466 0.9301241
vn -0.003921509 0.003921509 0.9999846
vn 0.18431234 -0.31764466 0.93012404
vn -0.36470306 0.003921509 0.9311156
vn -0.18431222 0.3176446 0.9301241
vn 0.18431234 0.3176446 0.9301241
vn 0.36470312 0.003921509 0.9311156
vn -0.003921509 0.003921509 -0.9999846
vn -0.003921509 0.003921509 -0.9999846
vn -0.003921509 0.003921509 -0.9999846
vn -0.003921509 0.003921509 -0.9999846
vn -0.003921509 0.003921509 -0.9999846
vn -0.003921509 0.003921509 -0.9999846
vn -0.003921509 0.003921509 -0.9999846
vn -0.4980353 -0.86666006 -0.029345663
vn -0.4980353 -0.86666006 -0.029345663
vn 0.49803543 -0.86666006 -0.029343631
vn 0.49803543 -0.86666006 -0.029343631
vn 0.9999924 -0.0039215684 -0
vn 0.9999924 -0.0039215684 -0
vn 0.49803543 0.86666 -0.029345663
vn 0.49803543 0.86666 -0.029345663
vn -0.4980353 0.86666 -0.029347694
vn -0.4980353 0.86666 -0.029347694
vn -0.99999225 0.003921509 -0.00034492963
vn -0.99999225 0.003921509 -0.00034492963
vn -0.4980353 -0.86666006 -0.029345663
vn -0.4980353 -0.86666006 -0.029345663
vn 0.18431234 -0.31764466 -0.93012404
vn -0.003921509 0.003921509 -0.9999846
vn -0.18431222 -0.31764466 -0.9301241
vn 0.36470312 0.003921509 -0.9311156
vn 0.18431234 0.3176446 -0.9301241
vn -0.18431222 0.3176446 -0.9301241
vn -0.36470306 0.003921509 -0.9311156
vn -0.003921509 0.003921509 0.9999846
vn -0.003921509 0.003921509 0.9999846
vn -0.003921509 0.003921509 0.9999846
vn -0.003921509 0.003921509 0.9999846
vn -0.003921509 0.003921509 0.9999846
vn -0.003921509 0.003921509 0.9999846
vn -0.003921509 0.003921509 0.9999846
g FXMeshAcidCapsEnemy_0
f 3/3/3 2/2/2 1/1/1
f 4/4/4 3/3/3 1/1/1
f 5/5/5 3/3/3 4/4/4
f 6/6/6 5/5/5 4/4/4
f 7/7/7 5/5/5 6/6/6
f 8/8/8 7/7/7 6/6/6
f 9/9/9 7/7/7 8/8/8
f 10/10/10 9/9/9 8/8/8
f 11/11/11 9/9/9 10/10/10
f 12/12/12 11/11/11 10/10/10
f 13/13/13 11/11/11 12/12/12
f 14/14/14 13/13/13 12/12/12
f 17/17/17 16/16/16 15/15/15
f 15/15/15 16/16/16 18/18/18
f 18/18/18 16/16/16 19/19/19
f 19/19/19 16/16/16 20/20/20
f 20/20/20 16/16/16 21/21/21
f 21/21/21 16/16/16 17/17/17
f 24/24/24 23/23/23 22/22/22
f 25/25/25 23/23/23 24/24/24
f 26/26/26 23/23/23 25/25/25
f 27/27/27 23/23/23 26/26/26
f 28/28/28 23/23/23 27/27/27
f 22/22/22 23/23/23 28/28/28
f 31/31/31 30/30/30 29/29/29
f 32/32/32 31/31/31 29/29/29
f 33/33/33 31/31/31 32/32/32
f 34/34/34 33/33/33 32/32/32
f 35/35/35 33/33/33 34/34/34
f 36/36/36 35/35/35 34/34/34
f 37/37/37 35/35/35 36/36/36
f 38/38/38 37/37/37 36/36/36
f 39/39/39 37/37/37 38/38/38
f 40/40/40 39/39/39 38/38/38
f 41/41/41 39/39/39 40/40/40
f 42/42/42 41/41/41 40/40/40
f 45/45/45 44/44/44 43/43/43
f 43/43/43 44/44/44 46/46/46
f 46/46/46 44/44/44 47/47/47
f 47/47/47 44/44/44 48/48/48
f 48/48/48 44/44/44 49/49/49
f 49/49/49 44/44/44 45/45/45
f 52/52/52 51/51/51 50/50/50
f 53/53/53 51/51/51 52/52/52
f 54/54/54 51/51/51 53/53/53
f 55/55/55 51/51/51 54/54/54
f 56/56/56 51/51/51 55/55/55
f 50/50/50 51/51/51 56/56/56
