g FXWireMesh
v 1.4270074 1.5038075 -0.5193949
v 1.5186191 1.5038075 3.4332275E-05
v 1.2826644 1.6136591 3.4332275E-05
v 1.2053157 1.6136591 -0.43868625
v 0.98259544 1.6136591 -0.82446957
v 1.1632814 1.5038075 -0.9761497
v 0.641315 1.6136591 -1.1108242
v 0.7593266 1.5038075 -1.3151673
v 0.22275448 1.6136591 -1.26319
v 0.26369166 1.5038075 -1.4955103
v -0.22275448 1.6136591 -1.26319
v -0.2636919 1.5038075 -1.4955103
v -0.6413152 1.6136591 -1.1108242
v -0.7593267 1.5038075 -1.3151673
v -0.98259544 1.6136591 -0.82446957
v -1.1632814 1.5038075 -0.9761497
v -1.2053158 1.6136591 -0.43868625
v -1.4270074 1.5038075 -0.5193949
v -1.2826645 1.6136591 -3.4332275E-05
v -1.5186191 1.5038075 -3.4332275E-05
v -1.2053158 1.6136591 0.43868637
v -1.4270074 1.5038075 0.5193949
v -0.98259544 1.6136591 0.82446957
v -1.1632814 1.5038075 0.9761498
v -0.6413152 1.6136591 1.1108243
v -0.7593267 1.5038075 1.3151674
v -0.22275448 1.6136591 1.2631903
v -0.2636919 1.5038075 1.4955103
v 0.22275448 1.6136591 1.2631903
v 0.26369166 1.5038075 1.4955103
v 0.641315 1.6136591 1.1108243
v 0.7593266 1.5038075 1.3151674
v 0.98259544 1.6136591 0.82446957
v 1.1632814 1.5038075 0.9761498
v 1.2053157 1.6136591 0.43868637
v 1.4270074 1.5038075 0.5193949
v 1.9633052 0.90360117 -0.71461797
v 2.0893397 0.90360117 3.4332275E-05
v 1.959191 1.1346872 3.4332275E-05
v 1.8410423 1.1346872 -0.6701151
v 1.500859 1.1346872 -1.2593501
v 1.6004934 0.90360117 -1.3430073
v 0.97957826 1.1346872 -1.6967678
v 1.0446527 0.90360117 -1.8094307
v 0.34021747 1.1346872 -1.929431
v 0.3627776 0.90360117 -2.057591
v -0.3402176 1.1346872 -1.929431
v -0.3627777 0.90360117 -2.057591
v -0.9795785 1.1346872 -1.6967678
v -1.0446527 0.90360117 -1.8094307
v -1.500859 1.1346872 -1.2593501
v -1.6004934 0.90360117 -1.3430073
v -1.8410423 1.1346872 -0.6701151
v -1.9633052 0.90360117 -0.71461797
v -1.9591911 1.1346872 -3.4332275E-05
v -2.08934 0.90360117 -3.4332275E-05
v -1.8410423 1.1346872 0.67011523
v -1.9633052 0.90360117 0.71461797
v -1.500859 1.1346872 1.2593501
v -1.6004934 0.90360117 1.3430073
v -0.9795785 1.1346872 1.6967678
v -1.0446527 0.90360117 1.8094308
v -0.3402176 1.1346872 1.9294312
v -0.3627777 0.90360117 2.0575912
v 0.34021747 1.1346872 1.9294312
v 0.3627776 0.90360117 2.0575912
v 0.97957826 1.1346872 1.6967678
v 1.0446527 0.90360117 1.8094308
v 1.500859 1.1346872 1.2593501
v 1.6004934 0.90360117 1.3430073
v 1.8410423 1.1346872 0.67011523
v 1.9633052 0.90360117 0.71461797
v 2.1114197 -0.1494515 -0.7685152
v 2.246917 -0.1494515 3.4332275E-05
v 2.246917 0.14945173 3.4332275E-05
v 2.1114197 0.14945173 -0.7685152
v 1.7212478 0.14945173 -1.4442875
v 1.7212478 -0.1494515 -1.4442875
v 1.1234413 0.14945173 -1.945888
v 1.1234413 -0.1494515 -1.945888
v 0.39020622 0.14945173 -2.2127683
v 0.39020622 -0.1494515 -2.2127683
v -0.39020634 0.14945173 -2.2127683
v -0.39020634 -0.1494515 -2.2127683
v -1.1234415 0.14945173 -1.945888
v -1.1234415 -0.1494515 -1.945888
v -1.7212479 0.14945173 -1.4442875
v -1.7212479 -0.1494515 -1.4442875
v -2.11142 0.14945173 -0.7685152
v -2.11142 -0.1494515 -0.7685152
v -2.246917 0.14945173 -3.4332275E-05
v -2.246917 -0.1494515 -3.4332275E-05
v -2.11142 0.14945173 0.76851535
v -2.11142 -0.1494515 0.76851535
v -1.7212479 0.14945173 1.4442875
v -1.7212479 -0.1494515 1.4442875
v -1.1234415 0.14945173 1.9458883
v -1.1234415 -0.1494515 1.9458883
v -0.39020634 0.14945173 2.2127683
v -0.39020634 -0.1494515 2.2127683
v 0.39020622 0.14945173 2.2127683
v 0.39020622 -0.1494515 2.2127683
v 1.1234413 0.14945173 1.9458883
v 1.1234413 -0.1494515 1.9458883
v 1.7212478 0.14945173 1.4442875
v 1.7212478 -0.1494515 1.4442875
v 2.1114197 0.14945173 0.76851535
v 2.1114197 -0.1494515 0.76851535
v 1.8410423 -1.1100699 -0.6701151
v 1.959191 -1.1100699 3.4332275E-05
v 2.0893397 -0.8400353 3.4332275E-05
v 1.9633052 -0.8400353 -0.71461797
v 1.6004934 -0.8400353 -1.3430073
v 1.500859 -1.1100699 -1.2593501
v 1.0446527 -0.8400353 -1.8094307
v 0.97957826 -1.1100699 -1.6967678
v 0.3627776 -0.8400353 -2.057591
v 0.34021747 -1.1100699 -1.929431
v -0.3627777 -0.8400353 -2.057591
v -0.3402176 -1.1100699 -1.929431
v -1.0446527 -0.8400353 -1.8094307
v -0.9795785 -1.1100699 -1.6967678
v -1.6004934 -0.8400353 -1.3430073
v -1.500859 -1.1100699 -1.2593501
v -1.9633052 -0.8400353 -0.71461797
v -1.8410423 -1.1100699 -0.6701151
v -2.08934 -0.8400353 -3.4332275E-05
v -1.9591911 -1.1100699 -3.4332275E-05
v -1.9633052 -0.8400353 0.71461797
v -1.8410423 -1.1100699 0.67011523
v -1.6004934 -0.8400353 1.3430073
v -1.500859 -1.1100699 1.2593501
v -1.0446527 -0.8400353 1.8094308
v -0.9795785 -1.1100699 1.6967678
v -0.3627777 -0.8400353 2.0575912
v -0.3402176 -1.1100699 1.9294312
v 0.3627776 -0.8400353 2.0575912
v 0.34021747 -1.1100699 1.9294312
v 1.0446527 -0.8400353 1.8094308
v 0.97957826 -1.1100699 1.6967678
v 1.6004934 -0.8400353 1.3430073
v 1.500859 -1.1100699 1.2593501
v 1.9633052 -0.8400353 0.71461797
v 1.8410423 -1.1100699 0.67011523
v 1.2053157 -1.8507794 -0.43868625
v 1.2826644 -1.8507794 3.4332275E-05
v 1.5186191 -1.6626878 3.4332275E-05
v 1.4270074 -1.6626878 -0.5193949
v 1.1632814 -1.6626878 -0.9761497
v 0.98259544 -1.8507794 -0.82446957
v 0.7593266 -1.6626878 -1.3151673
v 0.641315 -1.8507794 -1.1108242
v 0.26369166 -1.6626878 -1.4955103
v 0.22275448 -1.8507794 -1.26319
v -0.2636919 -1.6626878 -1.4955103
v -0.22275448 -1.8507794 -1.26319
v -0.7593267 -1.6626878 -1.3151673
v -0.6413152 -1.8507794 -1.1108242
v -1.1632814 -1.6626878 -0.9761497
v -0.98259544 -1.8507794 -0.82446957
v -1.4270074 -1.6626878 -0.5193949
v -1.2053158 -1.8507794 -0.43868625
v -1.5186191 -1.6626878 -3.4332275E-05
v -1.2826645 -1.8507794 -3.4332275E-05
v -1.4270074 -1.6626878 0.5193949
v -1.2053158 -1.8507794 0.43868637
v -1.1632814 -1.6626878 0.9761498
v -0.98259544 -1.8507794 0.82446957
v -0.7593267 -1.6626878 1.3151674
v -0.6413152 -1.8507794 1.1108243
v -0.2636919 -1.6626878 1.4955103
v -0.22275448 -1.8507794 1.2631903
v 0.26369166 -1.6626878 1.4955103
v 0.22275448 -1.8507794 1.2631903
v 0.7593266 -1.6626878 1.3151674
v 0.641315 -1.8507794 1.1108243
v 1.1632814 -1.6626878 0.9761498
v 0.98259544 -1.8507794 0.82446957
v 1.4270074 -1.6626878 0.5193949
v 1.2053157 -1.8507794 0.43868637
vt 0.41289645 0.2831931
vt 0.4133245 0.2807674
vt 0.412183 0.2807674
vt 0.41189763 0.28276503
vt 0.4108988 0.28462
vt 0.41175494 0.28519073
vt 0.40932924 0.28590417
vt 0.4099 0.2867603
vt 0.4074743 0.2866176
vt 0.40761697 0.28761643
vt 0.4054767 0.2866176
vt 0.405334 0.28761643
vt 0.40362173 0.28590417
vt 0.40305096 0.2867603
vt 0.40205216 0.28462
vt 0.40119603 0.28519073
vt 0.40105334 0.28276503
vt 0.4000545 0.2831931
vt 0.4006253 0.2807674
vt 0.39962646 0.2807674
vt 0.40105334 0.27876976
vt 0.4000545 0.2783417
vt 0.40205216 0.27705753
vt 0.40119603 0.2763441
vt 0.40362173 0.27563062
vt 0.40305096 0.27477452
vt 0.4054767 0.27505988
vt 0.405334 0.2739184
vt 0.4074743 0.27505988
vt 0.40761697 0.2739184
vt 0.40932924 0.27563062
vt 0.4099 0.27477452
vt 0.4108988 0.27705753
vt 0.41175494 0.2763441
vt 0.41189763 0.27876976
vt 0.41289645 0.2783417
vt 0.41532212 0.2840492
vt 0.4158929 0.2807674
vt 0.41532212 0.2807674
vt 0.41475138 0.28390655
vt 0.41318184 0.2866176
vt 0.41375256 0.286903
vt 0.4108988 0.28861523
vt 0.4111842 0.2890433
vt 0.40804505 0.28961405
vt 0.40804505 0.2901848
vt 0.40490592 0.28961405
vt 0.40476322 0.2901848
vt 0.40205216 0.28861523
vt 0.40176678 0.2890433
vt 0.39962646 0.2866176
vt 0.3991984 0.286903
vt 0.3981996 0.28390655
vt 0.39762884 0.2840492
vt 0.39762884 0.2807674
vt 0.39705807 0.2807674
vt 0.3981996 0.27777097
vt 0.39762884 0.27748558
vt 0.39962646 0.27505988
vt 0.3991984 0.27463183
vt 0.40205216 0.27306226
vt 0.40176678 0.2724915
vt 0.40490592 0.27192074
vt 0.40476322 0.27135
vt 0.40804505 0.27192074
vt 0.40804505 0.27135
vt 0.4108988 0.27306226
vt 0.4111842 0.2724915
vt 0.41318184 0.27505988
vt 0.41375256 0.27463183
vt 0.41475138 0.27777097
vt 0.41532212 0.27748558
vt 0.4160356 0.2843346
vt 0.41660634 0.2807674
vt 0.41660634 0.2807674
vt 0.4160356 0.2843346
vt 0.41418064 0.28747374
vt 0.41418064 0.28747374
vt 0.41146958 0.28975675
vt 0.41146958 0.28975675
vt 0.40818775 0.29089823
vt 0.40818775 0.29089823
vt 0.40476322 0.29089823
vt 0.40476322 0.29089823
vt 0.40133873 0.28975675
vt 0.40133873 0.28975675
vt 0.39862764 0.28747374
vt 0.39862764 0.28747374
vt 0.39691538 0.2843346
vt 0.39691538 0.2843346
vt 0.39634466 0.2807674
vt 0.39634466 0.2807674
vt 0.39691538 0.2772002
vt 0.39691538 0.2772002
vt 0.39862764 0.27420375
vt 0.39862764 0.27420375
vt 0.40133873 0.27192074
vt 0.40133873 0.27192074
vt 0.40476322 0.27063656
vt 0.40476322 0.27063656
vt 0.40818775 0.27063656
vt 0.40818775 0.27063656
vt 0.41146958 0.27192074
vt 0.41146958 0.27192074
vt 0.41418064 0.27420375
vt 0.41418064 0.27420375
vt 0.4160356 0.2772002
vt 0.4160356 0.2772002
vt 0.41475138 0.28390655
vt 0.41532212 0.2807674
vt 0.4158929 0.2807674
vt 0.41532212 0.2840492
vt 0.41375256 0.286903
vt 0.41318184 0.2866176
vt 0.4111842 0.2890433
vt 0.4108988 0.28861523
vt 0.40804505 0.2901848
vt 0.40804505 0.28961405
vt 0.40476322 0.2901848
vt 0.40490592 0.28961405
vt 0.40176678 0.2890433
vt 0.40205216 0.28861523
vt 0.3991984 0.286903
vt 0.39962646 0.2866176
vt 0.39762884 0.2840492
vt 0.3981996 0.28390655
vt 0.39705807 0.2807674
vt 0.39762884 0.2807674
vt 0.39762884 0.27748558
vt 0.3981996 0.27777097
vt 0.3991984 0.27463183
vt 0.39962646 0.27505988
vt 0.40176678 0.2724915
vt 0.40205216 0.27306226
vt 0.40476322 0.27135
vt 0.40490592 0.27192074
vt 0.40804505 0.27135
vt 0.40804505 0.27192074
vt 0.4111842 0.2724915
vt 0.4108988 0.27306226
vt 0.41375256 0.27463183
vt 0.41318184 0.27505988
vt 0.41532212 0.27748558
vt 0.41475138 0.27777097
vt 0.41189763 0.28276503
vt 0.412183 0.2807674
vt 0.4133245 0.2807674
vt 0.41289645 0.2831931
vt 0.41175494 0.28519073
vt 0.4108988 0.28462
vt 0.4099 0.2867603
vt 0.40932924 0.28590417
vt 0.40761697 0.28761643
vt 0.4074743 0.2866176
vt 0.405334 0.28761643
vt 0.4054767 0.2866176
vt 0.40305096 0.2867603
vt 0.40362173 0.28590417
vt 0.40119603 0.28519073
vt 0.40205216 0.28462
vt 0.4000545 0.2831931
vt 0.40105334 0.28276503
vt 0.39962646 0.2807674
vt 0.4006253 0.2807674
vt 0.4000545 0.2783417
vt 0.40105334 0.27876976
vt 0.40119603 0.2763441
vt 0.40205216 0.27705753
vt 0.40305096 0.27477452
vt 0.40362173 0.27563062
vt 0.405334 0.2739184
vt 0.4054767 0.27505988
vt 0.40761697 0.2739184
vt 0.4074743 0.27505988
vt 0.4099 0.27477452
vt 0.40932924 0.27563062
vt 0.41175494 0.2763441
vt 0.4108988 0.27705753
vt 0.41289645 0.2783417
vt 0.41189763 0.27876976
vn 0.39607543 0.9058753 -0.15004721
vn 0.41960466 0.9058753 -0.05763529
vn 0.41960466 0.9058753 -0.05763529
vn 0.39607543 0.9058753 -0.15004721
vn 0.32548773 0.9058753 -0.27101225
vn 0.32548773 0.9058753 -0.27101225
vn 0.20784158 0.9058753 -0.3690417
vn 0.20784158 0.9058753 -0.3690417
vn 0.07450926 0.9058753 -0.41693914
vn 0.07450926 0.9058753 -0.41693914
vn -0.074509144 0.9058753 -0.41693914
vn -0.074509144 0.9058753 -0.41693914
vn -0.20784152 0.9058753 -0.3690417
vn -0.20784152 0.9058753 -0.3690417
vn -0.3254876 0.9058753 -0.27101237
vn -0.3254876 0.9058753 -0.27101237
vn -0.39607537 0.9058753 -0.15004721
vn -0.39607537 0.9058753 -0.15004721
vn -0.41960454 0.9058753 -0.057636324
vn -0.41960454 0.9058753 0.057636324
vn -0.39607537 0.9058753 0.15004721
vn -0.39607537 0.9058753 0.15004721
vn -0.3254876 0.9058753 0.27101237
vn -0.3254876 0.9058753 0.27101237
vn -0.20784152 0.9058753 0.3690417
vn -0.20784152 0.9058753 0.3690417
vn -0.074509144 0.9058753 0.41693914
vn -0.074509144 0.9058753 0.41693914
vn 0.07450926 0.9058753 0.41693914
vn 0.07450926 0.9058753 0.41693914
vn 0.20784158 0.9058753 0.3690417
vn 0.20784158 0.9058753 0.3690417
vn 0.32548773 0.9058753 0.27101225
vn 0.32548773 0.9058753 0.27101225
vn 0.39607543 0.9058753 0.15004721
vn 0.39607543 0.9058753 0.15004721
vn 0.8196016 0.4901923 -0.29658848
vn 0.87230587 0.48896065 -0
vn 0.87230587 0.48896065 -0
vn 0.8196016 0.4901923 -0.29658848
vn 0.6705831 0.4901923 -0.55680317
vn 0.6705831 0.4901923 -0.55680317
vn 0.4352908 0.4901923 -0.755138
vn 0.4352908 0.4901923 -0.755138
vn 0.15294003 0.4901923 -0.8580914
vn 0.15294003 0.4901923 -0.8580914
vn -0.15293992 0.4901923 -0.8580914
vn -0.15293992 0.4901923 -0.8580914
vn -0.4352907 0.4901923 -0.7551381
vn -0.4352907 0.4901923 -0.7551381
vn -0.670583 0.4901923 -0.5568033
vn -0.670583 0.4901923 -0.5568033
vn -0.81960154 0.4901923 -0.2965887
vn -0.81960154 0.4901923 -0.2965887
vn -0.87230587 0.4889607 -0
vn -0.87230587 0.4889607 -0
vn -0.81960154 0.4901923 0.2965887
vn -0.81960154 0.4901923 0.2965887
vn -0.670583 0.4901923 0.5568033
vn -0.670583 0.4901923 0.5568033
vn -0.4352907 0.4901923 0.7551381
vn -0.4352907 0.4901923 0.7551381
vn -0.15293992 0.4901923 0.8580914
vn -0.15293992 0.4901923 0.8580914
vn 0.15294003 0.4901923 0.8580914
vn 0.15294003 0.4901923 0.8580914
vn 0.4352908 0.4901923 0.755138
vn 0.4352908 0.4901923 0.755138
vn 0.6705831 0.4901923 0.55680317
vn 0.6705831 0.4901923 0.55680317
vn 0.8196016 0.4901923 0.29658848
vn 0.8196016 0.4901923 0.29658848
vn 0.93724775 0.003921509 -0.34864205
vn 0.9999924 0.003921509 -0
vn 0.9999924 0.003921509 -0
vn 0.93724775 0.003921509 -0.34864205
vn 0.76470006 0.003921509 -0.6443745
vn 0.76470006 0.003921509 -0.6443745
vn 0.49803543 0.003921509 -0.8671478
vn 0.49803543 0.003921509 -0.8671478
vn 0.17646927 0.003921509 -0.98429835
vn 0.17646927 0.003921509 -0.98429835
vn -0.1764692 0.003921509 -0.98429835
vn -0.1764692 0.003921509 -0.98429835
vn -0.4980353 0.003921509 -0.86714786
vn -0.4980353 0.003921509 -0.86714786
vn -0.76469994 0.003921509 -0.6443746
vn -0.76469994 0.003921509 -0.6443746
vn -0.93724763 0.003921509 -0.34864238
vn -0.93724763 0.003921509 -0.34864238
vn -0.99999225 0.003921509 -0.00034492963
vn -0.99999225 0.003921509 -0.00034492963
vn -0.93724763 0.003921509 0.34864238
vn -0.93724763 0.003921509 0.34864238
vn -0.76469994 0.003921509 0.6443746
vn -0.76469994 0.003921509 0.6443746
vn -0.4980353 0.003921509 0.86714786
vn -0.4980353 0.003921509 0.86714786
vn -0.1764692 0.003921509 0.98429835
vn -0.1764692 0.003921509 0.98429835
vn 0.17646927 0.003921509 0.98429835
vn 0.17646927 0.003921509 0.98429835
vn 0.49803543 0.003921509 0.8671478
vn 0.49803543 0.003921509 0.8671478
vn 0.76470006 0.003921509 0.6443745
vn 0.76470006 0.003921509 0.6443745
vn 0.93724775 0.003921509 0.34864205
vn 0.93724775 0.003921509 0.34864205
vn 0.8431308 -0.4352908 -0.31567752
vn 0.89803237 -0.4352908 0.06371649
vn 0.89803237 -0.4352908 0.06371649
vn 0.8431308 -0.4352908 -0.31567752
vn 0.6862693 -0.4352908 -0.5827147
vn 0.6862693 -0.4352908 -0.5827147
vn 0.45097697 -0.4352908 -0.779193
vn 0.45097697 -0.4352908 -0.779193
vn 0.15294003 -0.4352908 -0.8872042
vn 0.15294003 -0.4352908 -0.8872042
vn -0.15293992 -0.4352908 -0.88720423
vn -0.15293992 -0.4352908 -0.88720423
vn -0.45097685 -0.4352908 -0.77919304
vn -0.45097685 -0.4352908 -0.77919304
vn -0.68626916 -0.4352908 -0.5827148
vn -0.68626916 -0.4352908 -0.5827148
vn -0.8431307 -0.4352908 -0.31567788
vn -0.8431307 -0.4352908 -0.31567788
vn -0.8980323 -0.4352908 -0.06371696
vn -0.8980323 -0.4352908 -0.06371696
vn -0.8431307 -0.4352908 0.31567788
vn -0.8431307 -0.4352908 0.31567788
vn -0.68626916 -0.4352908 0.5827148
vn -0.68626916 -0.4352908 0.5827148
vn -0.45097685 -0.4352908 0.77919304
vn -0.45097685 -0.4352908 0.77919304
vn -0.15293992 -0.4352908 0.88720423
vn -0.15293992 -0.4352908 0.88720423
vn 0.15294003 -0.4352908 0.8872042
vn 0.15294003 -0.4352908 0.8872042
vn 0.45097697 -0.4352908 0.779193
vn 0.45097697 -0.4352908 0.779193
vn 0.6862693 -0.4352908 0.5827147
vn 0.6862693 -0.4352908 0.5827147
vn 0.8431308 -0.4352908 0.31567752
vn 0.8431308 -0.4352908 0.31567752
vn 0.5843093 -0.7803862 -0.22266576
vn 0.62352467 -0.7803862 -0.047057115
vn 0.62352467 -0.7803862 -0.047057115
vn 0.5843093 -0.7803862 -0.22266576
vn 0.4745062 -0.7803862 -0.40723607
vn 0.4745062 -0.7803862 -0.40723607
vn 0.30980158 -0.7803862 -0.54315776
vn 0.30980158 -0.7803862 -0.54315776
vn 0.10588157 -0.7803862 -0.61626816
vn 0.10588157 -0.7803862 -0.61626816
vn -0.10588145 -0.7803862 -0.6162682
vn -0.10588145 -0.7803862 -0.6162682
vn -0.30980146 -0.7803862 -0.5431578
vn -0.30980146 -0.7803862 -0.5431578
vn -0.47450614 -0.7803862 -0.40723616
vn -0.47450614 -0.7803862 -0.40723616
vn -0.5843092 -0.7803862 -0.22266589
vn -0.5843092 -0.7803862 -0.22266589
vn -0.62352455 -0.7803862 -0.04705838
vn -0.62352455 -0.7803862 -0.04705838
vn -0.5843092 -0.7803862 0.22266589
vn -0.5843092 -0.7803862 0.22266589
vn -0.47450614 -0.7803862 0.40723616
vn -0.47450614 -0.7803862 0.40723616
vn -0.30980146 -0.7803862 0.5431578
vn -0.30980146 -0.7803862 0.5431578
vn -0.10588145 -0.7803862 0.6162682
vn -0.10588145 -0.7803862 0.6162682
vn 0.10588157 -0.7803862 0.61626816
vn 0.10588157 -0.7803862 0.61626816
vn 0.30980158 -0.7803862 0.54315776
vn 0.30980158 -0.7803862 0.54315776
vn 0.4745062 -0.7803862 0.40723607
vn 0.4745062 -0.7803862 0.40723607
vn 0.5843093 -0.7803862 0.22266576
vn 0.5843093 -0.7803862 0.22266576
g FXWireMesh_0
f 3/3/3 2/2/2 1/1/1
f 4/4/4 3/3/3 1/1/1
f 6/6/6 5/5/5 4/4/4
f 1/1/1 6/6/6 4/4/4
f 8/8/8 7/7/7 5/5/5
f 6/6/6 8/8/8 5/5/5
f 10/10/10 9/9/9 7/7/7
f 8/8/8 10/10/10 7/7/7
f 12/12/12 11/11/11 9/9/9
f 10/10/10 12/12/12 9/9/9
f 14/14/14 13/13/13 11/11/11
f 12/12/12 14/14/14 11/11/11
f 16/16/16 15/15/15 13/13/13
f 14/14/14 16/16/16 13/13/13
f 18/18/18 17/17/17 15/15/15
f 16/16/16 18/18/18 15/15/15
f 20/20/20 19/19/19 17/17/17
f 18/18/18 20/20/20 17/17/17
f 22/22/22 21/21/21 19/19/19
f 20/20/20 22/22/22 19/19/19
f 24/24/24 23/23/23 21/21/21
f 22/22/22 24/24/24 21/21/21
f 26/26/26 25/25/25 23/23/23
f 24/24/24 26/26/26 23/23/23
f 28/28/28 27/27/27 25/25/25
f 26/26/26 28/28/28 25/25/25
f 30/30/30 29/29/29 27/27/27
f 28/28/28 30/30/30 27/27/27
f 32/32/32 31/31/31 29/29/29
f 30/30/30 32/32/32 29/29/29
f 34/34/34 33/33/33 31/31/31
f 32/32/32 34/34/34 31/31/31
f 36/36/36 35/35/35 33/33/33
f 34/34/34 36/36/36 33/33/33
f 2/2/2 3/3/3 35/35/35
f 36/36/36 2/2/2 35/35/35
f 39/39/39 38/38/38 37/37/37
f 40/40/40 39/39/39 37/37/37
f 42/42/42 41/41/41 40/40/40
f 37/37/37 42/42/42 40/40/40
f 44/44/44 43/43/43 41/41/41
f 42/42/42 44/44/44 41/41/41
f 46/46/46 45/45/45 43/43/43
f 44/44/44 46/46/46 43/43/43
f 48/48/48 47/47/47 45/45/45
f 46/46/46 48/48/48 45/45/45
f 50/50/50 49/49/49 47/47/47
f 48/48/48 50/50/50 47/47/47
f 52/52/52 51/51/51 49/49/49
f 50/50/50 52/52/52 49/49/49
f 54/54/54 53/53/53 51/51/51
f 52/52/52 54/54/54 51/51/51
f 56/56/56 55/55/55 53/53/53
f 54/54/54 56/56/56 53/53/53
f 58/58/58 57/57/57 55/55/55
f 56/56/56 58/58/58 55/55/55
f 60/60/60 59/59/59 57/57/57
f 58/58/58 60/60/60 57/57/57
f 62/62/62 61/61/61 59/59/59
f 60/60/60 62/62/62 59/59/59
f 64/64/64 63/63/63 61/61/61
f 62/62/62 64/64/64 61/61/61
f 66/66/66 65/65/65 63/63/63
f 64/64/64 66/66/66 63/63/63
f 68/68/68 67/67/67 65/65/65
f 66/66/66 68/68/68 65/65/65
f 70/70/70 69/69/69 67/67/67
f 68/68/68 70/70/70 67/67/67
f 72/72/72 71/71/71 69/69/69
f 70/70/70 72/72/72 69/69/69
f 38/38/38 39/39/39 71/71/71
f 72/72/72 38/38/38 71/71/71
f 75/75/75 74/74/74 73/73/73
f 76/76/76 75/75/75 73/73/73
f 78/78/78 77/77/77 76/76/76
f 73/73/73 78/78/78 76/76/76
f 80/80/80 79/79/79 77/77/77
f 78/78/78 80/80/80 77/77/77
f 82/82/82 81/81/81 79/79/79
f 80/80/80 82/82/82 79/79/79
f 84/84/84 83/83/83 81/81/81
f 82/82/82 84/84/84 81/81/81
f 86/86/86 85/85/85 83/83/83
f 84/84/84 86/86/86 83/83/83
f 88/88/88 87/87/87 85/85/85
f 86/86/86 88/88/88 85/85/85
f 90/90/90 89/89/89 87/87/87
f 88/88/88 90/90/90 87/87/87
f 92/92/92 91/91/91 89/89/89
f 90/90/90 92/92/92 89/89/89
f 94/94/94 93/93/93 91/91/91
f 92/92/92 94/94/94 91/91/91
f 96/96/96 95/95/95 93/93/93
f 94/94/94 96/96/96 93/93/93
f 98/98/98 97/97/97 95/95/95
f 96/96/96 98/98/98 95/95/95
f 100/100/100 99/99/99 97/97/97
f 98/98/98 100/100/100 97/97/97
f 102/102/102 101/101/101 99/99/99
f 100/100/100 102/102/102 99/99/99
f 104/104/104 103/103/103 101/101/101
f 102/102/102 104/104/104 101/101/101
f 106/106/106 105/105/105 103/103/103
f 104/104/104 106/106/106 103/103/103
f 108/108/108 107/107/107 105/105/105
f 106/106/106 108/108/108 105/105/105
f 74/74/74 75/75/75 107/107/107
f 108/108/108 74/74/74 107/107/107
f 111/111/111 110/110/110 109/109/109
f 112/112/112 111/111/111 109/109/109
f 114/114/114 113/113/113 112/112/112
f 109/109/109 114/114/114 112/112/112
f 116/116/116 115/115/115 113/113/113
f 114/114/114 116/116/116 113/113/113
f 118/118/118 117/117/117 115/115/115
f 116/116/116 118/118/118 115/115/115
f 120/120/120 119/119/119 117/117/117
f 118/118/118 120/120/120 117/117/117
f 122/122/122 121/121/121 119/119/119
f 120/120/120 122/122/122 119/119/119
f 124/124/124 123/123/123 121/121/121
f 122/122/122 124/124/124 121/121/121
f 126/126/126 125/125/125 123/123/123
f 124/124/124 126/126/126 123/123/123
f 128/128/128 127/127/127 125/125/125
f 126/126/126 128/128/128 125/125/125
f 130/130/130 129/129/129 127/127/127
f 128/128/128 130/130/130 127/127/127
f 132/132/132 131/131/131 129/129/129
f 130/130/130 132/132/132 129/129/129
f 134/134/134 133/133/133 131/131/131
f 132/132/132 134/134/134 131/131/131
f 136/136/136 135/135/135 133/133/133
f 134/134/134 136/136/136 133/133/133
f 138/138/138 137/137/137 135/135/135
f 136/136/136 138/138/138 135/135/135
f 140/140/140 139/139/139 137/137/137
f 138/138/138 140/140/140 137/137/137
f 142/142/142 141/141/141 139/139/139
f 140/140/140 142/142/142 139/139/139
f 144/144/144 143/143/143 141/141/141
f 142/142/142 144/144/144 141/141/141
f 110/110/110 111/111/111 143/143/143
f 144/144/144 110/110/110 143/143/143
f 147/147/147 146/146/146 145/145/145
f 148/148/148 147/147/147 145/145/145
f 150/150/150 149/149/149 148/148/148
f 145/145/145 150/150/150 148/148/148
f 152/152/152 151/151/151 149/149/149
f 150/150/150 152/152/152 149/149/149
f 154/154/154 153/153/153 151/151/151
f 152/152/152 154/154/154 151/151/151
f 156/156/156 155/155/155 153/153/153
f 154/154/154 156/156/156 153/153/153
f 158/158/158 157/157/157 155/155/155
f 156/156/156 158/158/158 155/155/155
f 160/160/160 159/159/159 157/157/157
f 158/158/158 160/160/160 157/157/157
f 162/162/162 161/161/161 159/159/159
f 160/160/160 162/162/162 159/159/159
f 164/164/164 163/163/163 161/161/161
f 162/162/162 164/164/164 161/161/161
f 166/166/166 165/165/165 163/163/163
f 164/164/164 166/166/166 163/163/163
f 168/168/168 167/167/167 165/165/165
f 166/166/166 168/168/168 165/165/165
f 170/170/170 169/169/169 167/167/167
f 168/168/168 170/170/170 167/167/167
f 172/172/172 171/171/171 169/169/169
f 170/170/170 172/172/172 169/169/169
f 174/174/174 173/173/173 171/171/171
f 172/172/172 174/174/174 171/171/171
f 176/176/176 175/175/175 173/173/173
f 174/174/174 176/176/176 173/173/173
f 178/178/178 177/177/177 175/175/175
f 176/176/176 178/178/178 175/175/175
f 180/180/180 179/179/179 177/177/177
f 178/178/178 180/180/180 177/177/177
f 146/146/146 147/147/147 179/179/179
f 180/180/180 146/146/146 179/179/179
