g GrenadierTurret_DefaultPart_1_CorpsePart
v 0.41510028 0.13830543 -0.5092479
v -0.4151019 0.13830543 -0.5092479
v -0.41333926 -0.399643 -0.5751637
v 0.41333777 -0.399643 -0.5751637
v -0.4151019 0.13830543 -0.5092479
v -0.25374383 0.1860187 -0.25793806
v -0.25374383 0.22301638 -0.059800744
v -0.4151019 0.22301638 -0.059800744
v 0.41510028 0.13830543 -0.5092479
v 0.2537423 0.1860187 -0.25793806
v 0.41510028 0.22301638 -0.059800744
v 0.2537423 0.22301638 -0.059800744
v 0.41333777 -0.399643 -0.5751637
v 0.41333777 -0.399643 0.3243857
v 0.41510028 0.22301638 -0.059800744
v 0.41510028 0.13830543 -0.5092479
v -0.25374383 0.22301638 -0.059800744
v -0.25374383 -0.1904625 0.18712616
v -0.41333926 -0.399643 0.3243857
v -0.4151019 0.22301638 -0.059800744
v 0.41333777 -0.399643 0.3243857
v 0.41333777 -0.399643 -0.5751637
v 0.3201884 -0.60709214 -0.4823575
v 0.3201884 -0.60709214 0.23120517
v -0.41333926 -0.399643 -0.5751637
v -0.32018995 -0.60709214 -0.4823575
v 0.3201884 -0.60709214 -0.4823575
v 0.41333777 -0.399643 -0.5751637
v 0.3201884 -0.60709214 0.23120517
v 0.3201884 -0.60709214 -0.4823575
v -0.32018995 -0.60709214 -0.4823575
v -0.32018995 -0.60709214 0.23120517
v 0.2537423 -0.1904625 0.18712616
v -0.25374383 -0.1904625 0.18712616
v -0.25374383 -0.18221134 0.16694272
v 0.2537423 -0.18221134 0.16694272
v -0.25374383 0.1860187 -0.25793806
v -0.25374383 0.11058831 -0.23435438
v -0.25374383 0.037388384 -0.1340301
v -0.25374383 0.22301638 -0.059800744
v -0.25374383 0.1860187 -0.25793806
v 0.2537423 0.1860187 -0.25793806
v 0.2537423 0.11058831 -0.23435438
v -0.25374383 0.11058831 -0.23435438
v 0.41510028 0.22301638 -0.059800744
v 0.41333777 -0.399643 0.3243857
v 0.2537423 -0.1904625 0.18712616
v 0.2537423 0.22301638 -0.059800744
v -0.25374383 -0.18221134 0.16694272
v -0.25374383 -0.1904625 0.18712616
v -0.41333926 -0.399643 0.3243857
v -0.32018995 -0.60709214 0.23120517
v -0.32018995 -0.60709214 -0.4823575
v -0.41333926 -0.399643 -0.5751637
v -0.4151019 0.13830543 -0.5092479
v -0.4151019 0.22301638 -0.059800744
v -0.41333926 -0.399643 0.3243857
v -0.41333926 -0.399643 -0.5751637
v 0.2537423 0.22301638 -0.059800744
v 0.2537423 -0.1904625 0.18712616
v 0.2537423 -0.18221134 0.16694272
v 0.2537423 0.037388384 -0.1340301
v 0.2537423 0.11058831 -0.23435438
v 0.2537423 0.1860187 -0.25793806
v 0.41333777 -0.399643 0.3243857
v 0.3201884 -0.60709214 0.23120517
v -0.32018995 -0.60709214 0.23120517
v -0.41333926 -0.399643 0.3243857
v -0.25374383 0.037388384 -0.1340301
v 0.2537423 0.037388384 -0.1340301
v 0.2537423 -0.18221134 0.16694272
v -0.25374383 -0.18221134 0.16694272
v -0.25374383 0.11058831 -0.23435438
v 0.2537423 0.11058831 -0.23435438
vt 0.043973427 0.8399274
vt 0.004981006 0.8399274
vt 0.004981006 0.8662049
vt 0.043973427 0.8662049
vt 0.004981006 0.8399274
vt 0.012609959 0.82806015
vt 0.012609959 0.81873584
vt 0.004981006 0.81873584
vt 0.043973427 0.8399274
vt 0.036344476 0.82806015
vt 0.043973427 0.81873584
vt 0.036344476 0.81873584
vt 0.060078993 0.82127887
vt 0.060078993 0.7780481
vt 0.08974714 0.79669666
vt 0.08550883 0.8178882
vt 0.012609959 0.81873584
vt 0.012609959 0.79245836
vt 0.004981006 0.7822864
vt 0.004981006 0.81873584
vt 0.060078993 0.7780481
vt 0.060078993 0.82127887
vt 0.054145366 0.81704056
vt 0.054145366 0.7831341
vt 0.004981006 0.8662049
vt 0.009219313 0.8721385
vt 0.039735124 0.8721385
vt 0.043973427 0.8662049
vt 0.024477215 0.7543136
vt 0.0058286674 0.7543136
vt 0.0058286674 0.7704192
vt 0.024477215 0.7704192
vt 0.093137786 0.79245836
vt 0.113481656 0.79245836
vt 0.113481656 0.79669666
vt 0.093137786 0.79669666
vt 0.11771996 0.81958354
vt 0.113481656 0.81873584
vt 0.114329316 0.81280226
vt 0.11771996 0.81280226
vt 0.113481656 0.82127887
vt 0.093137786 0.82127887
vt 0.093137786 0.81873584
vt 0.113481656 0.81873584
vt 0.043973427 0.81873584
vt 0.043973427 0.7822864
vt 0.036344476 0.79245836
vt 0.036344476 0.81873584
vt 0.113481656 0.79669666
vt 0.11771996 0.7950013
vt 0.060078993 0.7780481
vt 0.054145366 0.7831341
vt 0.054145366 0.81704056
vt 0.060078993 0.82127887
vt 0.08550883 0.8178882
vt 0.08974714 0.79669666
vt 0.060078993 0.7780481
vt 0.060078993 0.82127887
vt 0.11771996 0.81280226
vt 0.11771996 0.7950013
vt 0.113481656 0.79669666
vt 0.114329316 0.81280226
vt 0.113481656 0.81873584
vt 0.11771996 0.81958354
vt 0.043973427 0.7822864
vt 0.039735124 0.77635276
vt 0.009219313 0.77635276
vt 0.004981006 0.7822864
vt 0.113481656 0.81280226
vt 0.093137786 0.81280226
vt 0.093137786 0.79669666
vt 0.113481656 0.79669666
vt 0.113481656 0.81873584
vt 0.093137786 0.81873584
vn -0.003921509 0.12156761 -0.9925754
vn -0.003921509 0.12156761 -0.9925754
vn -0.003921509 0.12156761 -0.9925754
vn -0.003921509 0.12156761 -0.9925754
vn -0.003921509 0.9843061 -0.17642602
vn -0.003921509 0.9843061 -0.17642602
vn -0.003921509 0.9843061 -0.17642602
vn -0.003921509 0.9843061 -0.17642602
vn 0.0039215684 0.9843061 -0.17642602
vn 0.0039215684 0.9843061 -0.17642602
vn 0.0039215684 0.9843061 -0.17642602
vn 0.0039215684 0.9843061 -0.17642602
vn 0.9999924 -0.0039215684 -0
vn 0.9999924 -0.0039215684 -0
vn 0.9999924 -0.0039215684 -0
vn 0.9999924 -0.0039215684 -0
vn 0.0274508 0.5215646 0.8527701
vn 0.011764646 0.53725076 0.8433405
vn 0.0039215684 0.5450938 0.8383659
vn 0.0274508 0.5215646 0.8527701
vn 0.9117018 -0.41085276 -0
vn 0.9117018 -0.41085276 -0
vn 0.9117018 -0.41085276 -0
vn 0.9117018 -0.41085276 -0
vn -0.003921509 -0.41176158 -0.91128314
vn -0.003921509 -0.41176158 -0.91128314
vn -0.003921509 -0.41176158 -0.91128314
vn -0.003921509 -0.41176158 -0.91128314
vn -0.003921509 -0.9999924 -0
vn -0.003921509 -0.9999924 -0
vn -0.003921509 -0.9999924 -0
vn -0.003921509 -0.9999924 -0
vn -0.003921509 0.9294046 0.36904156
vn -0.003921509 0.9294046 0.36904156
vn -0.003921509 0.9294046 0.36904156
vn -0.003921509 0.9294046 0.36904156
vn 0.9999924 0.003921509 -0
vn 0.9999924 0.003921509 -0
vn 0.9999924 0.003921509 -0
vn 0.9999924 0.003921509 -0
vn -0.003921509 0.30195844 0.95331305
vn -0.003921509 0.30195844 0.95331305
vn -0.003921509 0.30195844 0.95331305
vn -0.003921509 0.30195844 0.95331305
vn -0.02745068 0.5215646 0.8527701
vn -0.003921509 0.5450938 0.8383659
vn -0.011764526 0.53725076 0.8433405
vn -0.02745068 0.5215646 0.8527701
vn 0.9999924 0.003921509 -0
vn 0.9999924 0.003921509 -0
vn -0.91170174 -0.41085276 -0
vn -0.91170174 -0.41085276 -0
vn -0.91170174 -0.41085276 -0
vn -0.91170174 -0.41085276 -0
vn -0.99999225 -0.0039215684 -0.00034425134
vn -0.99999225 -0.0039215684 -0.00034425134
vn -0.99999225 -0.0039215684 -0.00034425134
vn -0.99999225 -0.0039215684 -0.00034425134
vn -0.99999225 0.003921509 -0.00034492963
vn -0.99999225 0.003921509 -0.00034492963
vn -0.99999225 0.003921509 -0.00034492963
vn -0.99999225 0.003921509 -0.00034492963
vn -0.99999225 0.003921509 -0.00034492963
vn -0.99999225 0.003921509 -0.00034492963
vn -0.003921509 -0.41176158 0.91128314
vn -0.003921509 -0.41176158 0.91128314
vn -0.003921509 -0.41176158 0.91128314
vn -0.003921509 -0.41176158 0.91128314
vn -0.003921509 0.8039154 0.5947308
vn -0.003921509 0.8039154 0.5947308
vn -0.003921509 0.8039154 0.5947308
vn -0.003921509 0.8039154 0.5947308
vn -0.003921509 0.8039154 0.5947308
vn -0.003921509 0.8039154 0.5947308
g GrenadierTurret_DefaultPart_1_CorpsePart_0
f 3/3/3 2/2/2 1/1/1
f 4/4/4 3/3/3 1/1/1
f 7/7/7 6/6/6 5/5/5
f 8/8/8 7/7/7 5/5/5
f 6/6/6 10/10/10 9/9/9
f 5/5/5 6/6/6 9/9/9
f 12/12/12 11/11/11 9/9/9
f 10/10/10 12/12/12 9/9/9
f 15/15/15 14/14/14 13/13/13
f 16/16/16 15/15/15 13/13/13
f 19/19/19 18/18/18 17/17/17
f 20/20/20 19/19/19 17/17/17
f 23/23/23 22/22/22 21/21/21
f 24/24/24 23/23/23 21/21/21
f 27/27/27 26/26/26 25/25/25
f 28/28/28 27/27/27 25/25/25
f 31/31/31 30/30/30 29/29/29
f 32/32/32 31/31/31 29/29/29
f 35/35/35 34/34/34 33/33/33
f 36/36/36 35/35/35 33/33/33
f 39/39/39 38/38/38 37/37/37
f 40/40/40 39/39/39 37/37/37
f 43/43/43 42/42/42 41/41/41
f 44/44/44 43/43/43 41/41/41
f 47/47/47 46/46/46 45/45/45
f 48/48/48 47/47/47 45/45/45
f 40/40/40 50/50/50 49/49/49
f 39/39/39 40/40/40 49/49/49
f 53/53/53 52/52/52 51/51/51
f 54/54/54 53/53/53 51/51/51
f 57/57/57 56/56/56 55/55/55
f 58/58/58 57/57/57 55/55/55
f 61/61/61 60/60/60 59/59/59
f 62/62/62 61/61/61 59/59/59
f 63/63/63 62/62/62 59/59/59
f 64/64/64 63/63/63 59/59/59
f 67/67/67 66/66/66 65/65/65
f 68/68/68 67/67/67 65/65/65
f 19/19/19 46/46/46 47/47/47
f 18/18/18 19/19/19 47/47/47
f 71/71/71 70/70/70 69/69/69
f 72/72/72 71/71/71 69/69/69
f 74/74/74 73/73/73 69/69/69
f 70/70/70 74/74/74 69/69/69
