g GrenadierTurret_DefaultPart_2_CorpsePart
v -0.20579244 0.28376627 0.6495102
v -0.23916633 0.28572857 0.65357167
v -0.16930018 0.440794 0.57845753
v -0.1456616 0.4172315 0.5848616
v -0.1456616 0.1510921 0.71377856
v -0.16930018 0.13146932 0.72829026
v 0.16929132 0.32503492 0.34067225
v 3.1739473E-06 0.3844508 0.31148154
v -0.16930018 0.32503492 0.3406875
v 0.23917268 0.17033456 0.41561908
v 3.1739473E-06 0.46799207 0.5599148
v 3.1739473E-06 0.49984485 0.5494341
v 0.16929132 0.440794 0.57845753
v 0.14566794 0.4172315 0.5848616
v 0.20578356 0.28376627 0.6495102
v 0.23917268 0.28572857 0.65357167
v 0.16929132 0.13146932 0.72829026
v 0.14566794 0.1510921 0.71377856
v 3.1739473E-06 0.09954052 0.73912084
v 3.1739473E-06 0.07161231 0.7577092
v 3.1739473E-06 0.07161231 0.7577092
v 0.23917268 0.17033456 0.41561908
v 0.23917268 0.28572857 0.65357167
v 0.16929132 0.440794 0.57845753
v 0.16929132 0.32503492 0.34067225
v 3.1739473E-06 0.07161231 0.7577092
v 3.1739473E-06 -0.043781698 0.5197566
v -0.16930018 0.01571025 0.49050498
v -0.16930018 0.13146932 0.72829026
v 3.1739473E-06 0.49984485 0.5494341
v -0.16930018 0.440794 0.57845753
v -0.16930018 0.32503492 0.3406875
v 3.1739473E-06 0.3844508 0.31148154
v 0.16929132 0.01571025 0.49050498
v 0.16929132 0.13146932 0.72829026
v -0.23916633 0.17033456 0.41561908
v -0.23916633 0.28572857 0.65357167
v 3.1739473E-06 0.07161231 0.7577092
v 3.1739473E-06 -0.043781698 0.5197566
v -0.23916633 0.17033456 0.41561908
v 0.16929132 0.01571025 0.49050498
v 3.1739473E-06 -0.043781698 0.5197566
v -0.16930018 0.01571025 0.49050498
vt 0.06830597 0.82867646
vt 0.06830597 0.83022666
vt 0.07760713 0.83022666
vt 0.07760713 0.82867646
vt 0.059779894 0.82867646
vt 0.059779894 0.83022666
vt 0.09310908 0.8449535
vt 0.085358106 0.8449535
vt 0.07760713 0.8449535
vt 0.10163515 0.8449535
vt 0.085358106 0.82867646
vt 0.085358106 0.83022666
vt 0.09310908 0.83022666
vt 0.09310908 0.82867646
vt 0.10163515 0.82867646
vt 0.10163515 0.83022666
vt 0.11016122 0.83022666
vt 0.11016122 0.82867646
vt 0.085358106 0.82867646
vt 0.05202892 0.83022666
vt 0.11791219 0.83022666
vt 0.10163515 0.8449535
vt 0.10163515 0.83022666
vt 0.09310908 0.83022666
vt 0.09310908 0.8449535
vt 0.05202892 0.83022666
vt 0.05202892 0.8449535
vt 0.059779894 0.8449535
vt 0.059779894 0.83022666
vt 0.085358106 0.83022666
vt 0.07760713 0.83022666
vt 0.07760713 0.8449535
vt 0.085358106 0.8449535
vt 0.11016122 0.8449535
vt 0.11016122 0.83022666
vt 0.06830597 0.8449535
vt 0.06830597 0.83022666
vt 0.11791219 0.83022666
vt 0.11791219 0.8449535
vt 0.06830597 0.8449535
vt 0.11016122 0.8449535
vt 0.05202892 0.8449535
vt 0.059779894 0.8449535
vn 0.13725388 0.4352907 0.8897659
vn 0.13725388 0.4352907 0.8897659
vn 0.098038495 0.3490169 0.93197405
vn 0.098038495 0.3490169 0.93197405
vn 0.09019542 0.51372147 0.8532028
vn 0.09019542 0.51372147 0.8532028
vn -0.003921509 -0.4352908 -0.90028137
vn -0.003921509 -0.4352908 -0.90028137
vn -0.003921509 -0.4352908 -0.90028137
vn -0.003921509 -0.4352908 -0.90028137
vn -0.003921509 0.30980146 0.9507932
vn -0.003921509 0.30980146 0.9507932
vn -0.098038435 0.3490169 0.93197405
vn -0.098038435 0.3490169 0.93197405
vn -0.13725376 0.4352907 0.8897659
vn -0.13725376 0.4352907 0.8897659
vn -0.0901953 0.51372147 0.8532028
vn -0.0901953 0.51372147 0.8532028
vn -0.003921509 0.5529369 0.8332139
vn -0.003921509 0.5529369 0.8332139
vn -0.003921509 0.5529369 0.8332139
vn 0.9999924 -0.0039215684 -0
vn 0.9999924 0.003921509 -0
vn 0.70195544 0.6392107 -0.314115
vn 0.70195544 0.6392107 -0.314115
vn -0.003921509 -0.89803237 0.43991193
vn -0.003921509 -0.89803237 0.43991193
vn -0.7019553 -0.6392108 0.3141151
vn -0.7019553 -0.6392108 0.3141151
vn -0.003921509 0.8980323 -0.439912
vn -0.7019553 0.6392107 -0.31411535
vn -0.7019553 0.6392107 -0.31411535
vn -0.003921509 0.8980323 -0.439912
vn 0.70195544 -0.6392108 0.31411475
vn 0.70195544 -0.6392108 0.31411475
vn -0.99999225 -0.0039215684 -0.00034425134
vn -0.99999225 0.003921509 -0.00034492963
vn -0.003921509 -0.89803237 0.43991193
vn -0.003921509 -0.89803237 0.43991193
vn -0.003921509 -0.4352908 -0.90028137
vn -0.003921509 -0.4352908 -0.90028137
vn -0.003921509 -0.4352908 -0.90028137
vn -0.003921509 -0.4352908 -0.90028137
g GrenadierTurret_DefaultPart_2_CorpsePart_0
f 3/3/3 2/2/2 1/1/1
f 4/4/4 3/3/3 1/1/1
f 5/5/5 1/1/1 2/2/2
f 6/6/6 5/5/5 2/2/2
f 9/9/9 8/8/8 7/7/7
f 10/10/10 9/9/9 7/7/7
f 13/13/13 12/12/12 11/11/11
f 14/14/14 13/13/13 11/11/11
f 12/12/12 3/3/3 4/4/4
f 11/11/11 12/12/12 4/4/4
f 17/17/17 16/16/16 15/15/15
f 18/18/18 17/17/17 15/15/15
f 16/16/16 13/13/13 14/14/14
f 15/15/15 16/16/16 14/14/14
f 6/6/6 20/20/20 19/19/19
f 5/5/5 6/6/6 19/19/19
f 21/21/21 17/17/17 18/18/18
f 19/19/19 21/21/21 18/18/18
f 24/24/24 23/23/23 22/22/22
f 25/25/25 24/24/24 22/22/22
f 28/28/28 27/27/27 26/26/26
f 29/29/29 28/28/28 26/26/26
f 32/32/32 31/31/31 30/30/30
f 33/33/33 32/32/32 30/30/30
f 34/34/34 22/22/22 23/23/23
f 35/35/35 34/34/34 23/23/23
f 36/36/36 28/28/28 29/29/29
f 37/37/37 36/36/36 29/29/29
f 25/25/25 33/33/33 30/30/30
f 24/24/24 25/25/25 30/30/30
f 32/32/32 36/36/36 37/37/37
f 31/31/31 32/32/32 37/37/37
f 34/34/34 35/35/35 38/38/38
f 39/39/39 34/34/34 38/38/38
f 40/40/40 9/9/9 10/10/10
f 41/41/41 40/40/40 10/10/10
f 40/40/40 41/41/41 42/42/42
f 43/43/43 40/40/40 42/42/42
