g HammerGroundSpikeMeshEnemy
v -0.39259064 0.38237524 -0.19533515
v -0.49300528 -1.2155657 -0.35215163
v 0.59808064 -1.2155657 -0.76413435
v 0.5506988 0.38237524 -0.4839731
v -0.35792363 0.38237524 0.66014576
v -0.43682086 -1.2155657 0.81413674
v -0.49300528 -1.2155657 -0.35215163
v -0.39259064 0.38237524 -0.19533515
v 0.6535043 0.38237524 0.93954635
v 0.6890407 -1.2155657 1.1228793
v -0.43682086 -1.2155657 0.81413674
v -0.35792363 0.38237524 0.66014576
v 1.0931989 0.38237524 0.20034647
v 1.3285866 -1.2155657 0.14742231
v 0.6890407 -1.2155657 1.1228793
v 0.6535043 0.38237524 0.93954635
v 0.5506988 0.38237524 -0.4839731
v 0.59808064 -1.2155657 -0.76413435
v 1.3285866 -1.2155657 0.14742231
v 1.0931989 0.38237524 0.20034647
v -0.35346794 3.2479973 -0.19718266
v -0.113081336 5.7933574 -0.21283174
v -0.24185991 3.3591704 0.72089434
v 0.56308764 3.6770415 0.20980108
v -0.113081336 5.7933574 -0.21283174
v 0.29987943 3.5583696 -0.38497114
v 0.38812268 0.6857927 -0.1732744
v -0.15416002 0.6857927 0.0632
v -0.39259064 0.38237524 -0.19533515
v 0.5506988 0.38237524 -0.4839731
v -0.35792363 0.38237524 0.66014576
v -0.0912379 0.6857927 0.5121319
v 0.42398506 0.6857927 0.5705985
v 0.6535043 0.38237524 0.93954635
v 0.6616549 0.6857927 0.19860768
v 1.0931989 0.38237524 0.20034647
v -0.0912379 0.6857927 0.5121319
v -0.15416002 0.6857927 0.0632
v 0.08492255 3.564021 0.7910979
v 0.12947881 4.387552 0.5308238
v 0.4271366 3.6654139 0.6794896
v 0.6616549 0.6857927 0.19860768
v 0.38812268 0.6857927 -0.1732744
v 0.29987943 3.5583696 -0.38497114
v -0.113081336 5.7933574 -0.21283174
v -0.35346794 3.2479973 -0.19718266
v -0.24185991 3.3591704 0.72089434
v 0.37953746 3.1708388 0.88912153
v 0.42398506 0.6857927 0.5705985
v -0.0912379 0.6857927 0.5121319
v 0.38812268 0.6857927 -0.1732744
v -0.15416002 0.6857927 0.0632
v 0.37953746 3.1708388 0.88912153
v 0.4271366 3.6654139 0.6794896
v 0.56308764 3.6770415 0.20980108
v 0.12947881 4.387552 0.5308238
v -0.113081336 5.7933574 -0.21283174
v -0.24185991 3.3591704 0.72089434
v -0.113081336 5.7933574 -0.21283174
v 0.12947881 4.387552 0.5308238
v 0.08492255 3.564021 0.7910979
v 0.37953746 3.1708388 0.88912153
v 0.08492255 3.564021 0.7910979
v 0.42398506 0.6857927 0.5705985
v 0.6616549 0.6857927 0.19860768
vt 0.3384868 0.10184501
vt 0.3384868 0.0983412
vt 0.34333822 0.09888025
vt 0.3430687 0.10184501
vt 0.3384868 0.10211453
vt 0.3384868 0.097263105
vt 0.3384868 0.0983412
vt 0.3384868 0.10184501
vt 0.34360775 0.10157549
vt 0.3441468 0.097263105
vt 0.3384868 0.097263105
vt 0.3384868 0.10211453
vt 0.34576395 0.10238405
vt 0.34711155 0.0983412
vt 0.3441468 0.097263105
vt 0.34360775 0.10157549
vt 0.3430687 0.10184501
vt 0.34333822 0.09888025
vt 0.34711155 0.0983412
vt 0.34576395 0.10238405
vt 0.117746904 0.07704883
vt 0.116668805 0.07138883
vt 0.11747738 0.07624026
vt 0.115590714 0.075162165
vt 0.116668805 0.07138883
vt 0.11612976 0.075701214
vt 0.3427992 0.10373168
vt 0.34010395 0.10373168
vt 0.3384868 0.10184501
vt 0.3430687 0.10184501
vt 0.3384868 0.10211453
vt 0.340643 0.103462145
vt 0.3430687 0.103462145
vt 0.34360775 0.10157549
vt 0.3441468 0.10373168
vt 0.34576395 0.10238405
vt 0.117746904 0.08756025
vt 0.11801643 0.087290734
vt 0.116668805 0.075162165
vt 0.11639929 0.073545024
vt 0.115590714 0.07489264
vt 0.115590714 0.087290734
vt 0.11639929 0.087290734
vt 0.11612976 0.075701214
vt 0.116668805 0.07138883
vt 0.117746904 0.07704883
vt 0.11747738 0.07624026
vt 0.11612976 0.077318355
vt 0.11639929 0.08756025
vt 0.117746904 0.08756025
vt 0.11639929 0.087290734
vt 0.11801643 0.087290734
vt 0.11612976 0.077318355
vt 0.115590714 0.07489264
vt 0.115590714 0.075162165
vt 0.11639929 0.073545024
vt 0.116668805 0.07138883
vt 0.11747738 0.07624026
vt 0.116668805 0.07138883
vt 0.11639929 0.073545024
vt 0.116668805 0.075162165
vt 0.11612976 0.077318355
vt 0.116668805 0.075162165
vt 0.11639929 0.08756025
vt 0.115590714 0.087290734
vn -0.2705691 0.32145464 -0.90744656
vn -0.2705691 0.32145464 -0.90744656
vn -0.2705691 0.32145464 -0.90744656
vn -0.2705691 0.32145464 -0.90744656
vn -0.9817137 0.19036338 -0
vn -0.9817137 0.19036338 -0
vn -0.9817137 0.19036338 -0
vn -0.9817137 0.19036338 -0
vn -0.2342223 0.24149168 0.94171214
vn -0.2342223 0.24149168 0.94171214
vn -0.2342223 0.24149168 0.94171214
vn -0.2342223 0.24149168 0.94171214
vn 0.84891194 0.1324513 0.511669
vn 0.84891194 0.1324513 0.511669
vn 0.84891194 0.1324513 0.511669
vn 0.84891194 0.1324513 0.511669
vn 0.76894903 0.21968365 -0.6003803
vn 0.76894903 0.21968365 -0.6003803
vn 0.76894903 0.21968365 -0.6003803
vn 0.76894903 0.21968365 -0.6003803
vn -0.9817137 0.19036338 -0
vn -0.9538888 0.29237723 -0.067910165
vn -0.9756968 0.20514488 0.077015266
vn 0.68898606 -0.042013228 -0.72355586
vn 0.62356186 0.008872271 -0.7817237
vn 0.7035248 -0.04928261 -0.7089598
vn 0.2746327 0.6049596 -0.747396
vn -0.46684182 0.8811952 -0.0745237
vn -0.37234008 0.8448484 -0.38417977
vn 0.2237472 0.612229 -0.758362
vn -0.4014176 0.9030032 0.15313107
vn -0.32145464 0.89573383 0.3071283
vn 0.3109795 0.7866936 0.53329635
vn 0.3037101 0.79396284 0.52667177
vn 0.7907571 0.58315146 -0.18611163
vn 0.78348774 0.5686128 -0.250652
vn -0.9829662 0.16879809 0.07269581
vn -0.9829662 0.16879809 0.07269581
vn 0.29644078 0.1324513 0.9458221
vn 0.29644078 0.13972068 0.9447756
vn 0.29644078 0.1324513 0.9458221
vn 0.7035248 -0.04928261 -0.7089598
vn 0.7035248 -0.04928261 -0.7089598
vn -0.24149168 0.05975777 -0.9685612
vn -0.21968365 0.03794968 -0.9748328
vn -0.26329982 0.08883518 -0.96061516
vn -0.29237723 0.03794968 0.9555498
vn -0.29237723 0.045219064 0.9552334
vn -0.31418526 0.030680299 0.94886583
vn -0.31418526 0.023410976 0.949073
vn -0.5686128 0.11791259 -0.81411064
vn -0.5686128 0.11791259 -0.81411064
vn 0.86345065 -0.10743749 0.4928592
vn 0.87072 -0.056551993 0.48851663
vn 0.87072 -0.034743905 0.4905502
vn 0.83437324 0.3359933 0.43695518
vn 0.83437324 0.3359933 0.43695518
vn -0.49591923 0.4377644 0.74995095
vn -0.49591923 0.4377644 0.74995095
vn -0.49591923 0.4377644 0.74995095
vn -0.49591923 0.4377644 0.74995095
vn 0.29644078 0.1324513 0.9458221
vn -0.29237723 0.045219064 0.9552334
vn 0.86345065 -0.10743749 0.4928592
vn 0.86345065 -0.10743749 0.4928592
g HammerGroundSpikeMeshEnemy_0
f 3/3/3 2/2/2 1/1/1
f 4/4/4 3/3/3 1/1/1
f 7/7/7 6/6/6 5/5/5
f 8/8/8 7/7/7 5/5/5
f 11/11/11 10/10/10 9/9/9
f 12/12/12 11/11/11 9/9/9
f 15/15/15 14/14/14 13/13/13
f 16/16/16 15/15/15 13/13/13
f 19/19/19 18/18/18 17/17/17
f 20/20/20 19/19/19 17/17/17
f 23/23/23 22/22/22 21/21/21
f 26/26/26 25/25/25 24/24/24
f 29/29/29 28/28/28 27/27/27
f 30/30/30 29/29/29 27/27/27
f 33/33/33 32/32/32 31/31/31
f 34/34/34 33/33/33 31/31/31
f 35/35/35 33/33/33 34/34/34
f 36/36/36 35/35/35 34/34/34
f 27/27/27 35/35/35 36/36/36
f 30/30/30 27/27/27 36/36/36
f 21/21/21 38/38/38 37/37/37
f 23/23/23 21/21/21 37/37/37
f 41/41/41 40/40/40 39/39/39
f 26/26/26 24/24/24 42/42/42
f 43/43/43 26/26/26 42/42/42
f 46/46/46 45/45/45 44/44/44
f 49/49/49 48/48/48 47/47/47
f 50/50/50 49/49/49 47/47/47
f 46/46/46 44/44/44 51/51/51
f 52/52/52 46/46/46 51/51/51
f 28/28/28 29/29/29 31/31/31
f 32/32/32 28/28/28 31/31/31
f 55/55/55 54/54/54 53/53/53
f 55/55/55 57/57/57 56/56/56
f 54/54/54 55/55/55 56/56/56
f 60/60/60 59/59/59 58/58/58
f 61/61/61 60/60/60 58/58/58
f 62/62/62 41/41/41 39/39/39
f 48/48/48 63/63/63 47/47/47
f 55/55/55 53/53/53 64/64/64
f 65/65/65 55/55/55 64/64/64
