g HammerTurret_09
v 48.933258 79.142914 -148.8312
v 48.886993 89.18591 -147.59752
v -48.88669 89.18591 -147.59752
v -48.932953 79.142914 -148.8312
v -49.017776 38.654785 -71.432655
v 49.018074 38.654785 -71.432655
v 49.037354 55.71054 -151.70724
v -49.03705 55.71054 -151.70724
v -48.88669 89.18591 -147.59752
v 48.886993 89.18591 -147.59752
v 48.910126 71.0661 -62.34191
v -48.90982 71.0661 -62.34191
v -48.90982 71.0661 -62.34191
v -48.94452 61.343094 -65.0676
v -48.932953 79.142914 -148.8312
v -48.88669 89.18591 -147.59752
v -48.90982 71.0661 -62.34191
v 48.910126 71.0661 -62.34191
v 48.94097 61.343094 -65.0676
v -48.94452 61.343094 -65.0676
v -0.0017852783 89.73335 -75.61949
v -13.248505 72.19185 -67.51184
v -13.248505 77.03023 -90.18088
v -32.305145 100.948364 -128.17464
v -19.027573 83.406845 -120.063126
v -45.578873 83.406845 -120.063126
v -32.305145 100.948364 -128.17464
v -45.578873 88.245224 -142.73601
v -19.027573 88.245224 -142.73601
v -32.305145 100.948364 -128.17464
v -19.027573 88.245224 -142.73601
v -19.027573 83.406845 -120.063126
v -32.305145 100.948364 -128.17464
v -45.578873 83.406845 -120.063126
v -45.578873 88.245224 -142.73601
v -32.305145 95.37749 -102.05513
v -19.027573 77.83212 -93.94362
v -45.578873 77.83212 -93.94362
v -32.305145 95.37749 -102.05513
v -45.578873 82.67049 -116.61651
v -19.027573 82.67049 -116.61651
v -32.305145 95.37749 -102.05513
v -19.027573 82.67049 -116.61651
v -19.027573 77.83212 -93.94362
v -32.305145 95.37749 -102.05513
v -45.578873 77.83212 -93.94362
v -45.578873 82.67049 -116.61651
v -32.305145 89.73721 -75.61949
v -19.027573 72.19185 -67.51184
v -45.578873 72.19185 -67.51184
v -32.305145 89.73721 -75.61949
v -45.578873 77.03023 -90.18088
v -19.027573 77.03023 -90.18088
v -32.305145 89.73721 -75.61949
v -19.027573 77.03023 -90.18088
v -19.027573 72.19185 -67.51184
v -32.305145 89.73721 -75.61949
v -45.578873 72.19185 -67.51184
v -45.578873 77.03023 -90.18088
v -0.0017852783 100.948364 -128.17464
v -13.248505 83.406845 -120.063126
v -13.248505 88.245224 -142.73601
v -0.0017852783 95.37363 -102.05513
v -13.248505 77.83212 -93.94362
v -13.248505 82.67049 -116.61651
v 48.910126 71.0661 -62.34191
v 48.886993 89.18591 -147.59752
v 48.933258 79.142914 -148.8312
v 48.94097 61.343094 -65.0676
v -0.0017852783 89.73335 -75.61949
v -13.248505 77.03023 -90.18088
v 13.24881 77.03023 -90.18088
v -0.0017852783 89.73335 -75.61949
v 13.24881 77.03023 -90.18088
v 13.24881 72.19185 -67.51184
v 32.30545 100.948364 -128.17464
v 45.57917 83.406845 -120.063126
v 19.027878 83.406845 -120.063126
v 32.30545 100.948364 -128.17464
v 19.027878 88.245224 -142.73601
v 45.57917 88.245224 -142.73601
v 32.30545 100.948364 -128.17464
v 19.027878 83.406845 -120.063126
v 19.027878 88.245224 -142.73601
v 32.30545 100.948364 -128.17464
v 45.57917 88.245224 -142.73601
v 45.57917 83.406845 -120.063126
v 32.30545 95.37749 -102.05513
v 45.57917 77.83212 -93.94362
v 19.027878 77.83212 -93.94362
v 32.30545 95.37749 -102.05513
v 19.027878 82.67049 -116.61651
v 45.57917 82.67049 -116.61651
v 32.30545 95.37749 -102.05513
v 19.027878 77.83212 -93.94362
v 19.027878 82.67049 -116.61651
v 32.30545 95.37749 -102.05513
v 45.57917 82.67049 -116.61651
v 45.57917 77.83212 -93.94362
v 32.30545 89.73721 -75.61949
v 45.57917 72.19185 -67.51184
v 19.027878 72.19185 -67.51184
v 32.30545 89.73721 -75.61949
v 19.027878 77.03023 -90.18088
v 45.57917 77.03023 -90.18088
v 32.30545 89.73721 -75.61949
v 19.027878 72.19185 -67.51184
v 19.027878 77.03023 -90.18088
v 32.30545 89.73721 -75.61949
v 45.57917 77.03023 -90.18088
v 45.57917 72.19185 -67.51184
v -0.0017852783 100.948364 -128.17464
v -13.248505 88.245224 -142.73601
v 13.24881 88.245224 -142.73601
v -0.0017852783 100.948364 -128.17464
v 13.24881 88.245224 -142.73601
v 13.24881 83.406845 -120.063126
v -0.0017852783 95.37363 -102.05513
v -13.248505 82.67049 -116.61651
v 13.24881 82.67049 -116.61651
v -0.0017852783 95.37363 -102.05513
v 13.24881 82.67049 -116.61651
v 13.24881 77.83212 -93.94362
v -13.248505 72.19185 -67.51184
v -0.0017852783 89.73335 -75.61949
v 13.24881 72.19185 -67.51184
v -13.248505 77.83212 -93.94362
v -0.0017852783 95.37363 -102.05513
v 13.24881 77.83212 -93.94362
v -13.248505 83.406845 -120.063126
v -0.0017852783 100.948364 -128.17464
v 13.24881 83.406845 -120.063126
v -49.017776 38.654785 -71.432655
v -49.03705 55.71054 -151.70724
v 49.018074 38.654785 -71.432655
v -49.017776 38.654785 -71.432655
v 49.037354 55.71054 -151.70724
v 49.018074 38.654785 -71.432655
v -49.03705 55.71054 -151.70724
v 49.037354 55.71054 -151.70724
vt 0.88061476 0.0031896532
vt 0.87769973 0.0031896532
vt 0.87769973 0.034283344
vt 0.88061476 0.034283344
vt 0.9972161 0.021651533
vt 0.97583914 0.021651533
vt 0.97583914 0.04011341
vt 0.9972161 0.04011341
vt 0.95543396 0.122706026
vt 0.9855559 0.122706026
vt 0.9855559 0.095499046
vt 0.95543396 0.095499046
vt 0.87769973 0.061490323
vt 0.88061476 0.061490323
vt 0.88061476 0.034283344
vt 0.87769973 0.034283344
vt 0.87769973 0.061490323
vt 0.87769973 0.09161233
vt 0.88061476 0.09161233
vt 0.88061476 0.061490323
vt 0.9107367 0.028453277
vt 0.9058783 0.023594888
vt 0.9058783 0.03233999
vt 0.9107367 0.028453277
vt 0.9155952 0.023594888
vt 0.9058783 0.023594888
vt 0.9107367 0.028453277
vt 0.9058783 0.03233999
vt 0.9155952 0.03233999
vt 0.9107367 0.028453277
vt 0.9155952 0.03233999
vt 0.9155952 0.023594888
vt 0.9107367 0.028453277
vt 0.9058783 0.023594888
vt 0.9058783 0.03233999
vt 0.9107367 0.028453277
vt 0.9155952 0.023594888
vt 0.9058783 0.023594888
vt 0.9107367 0.028453277
vt 0.9058783 0.03233999
vt 0.9155952 0.03233999
vt 0.9107367 0.028453277
vt 0.9155952 0.03233999
vt 0.9155952 0.023594888
vt 0.9107367 0.028453277
vt 0.9058783 0.023594888
vt 0.9058783 0.03233999
vt 0.9107367 0.028453277
vt 0.9155952 0.023594888
vt 0.9058783 0.023594888
vt 0.9107367 0.028453277
vt 0.9058783 0.03233999
vt 0.9155952 0.03233999
vt 0.9107367 0.028453277
vt 0.9155952 0.03233999
vt 0.9155952 0.023594888
vt 0.9107367 0.028453277
vt 0.9058783 0.023594888
vt 0.9058783 0.03233999
vt 0.9107367 0.028453277
vt 0.9058783 0.023594888
vt 0.9058783 0.03233999
vt 0.9107367 0.028453277
vt 0.9058783 0.023594888
vt 0.9058783 0.03233999
vt 0.87769973 0.061490323
vt 0.87769973 0.034283344
vt 0.88061476 0.034283344
vt 0.88061476 0.061490323
vt 0.9107367 0.028453277
vt 0.9058783 0.03233999
vt 0.9155952 0.03233999
vt 0.9107367 0.028453277
vt 0.9155952 0.03233999
vt 0.9155952 0.023594888
vt 0.9107367 0.028453277
vt 0.9155952 0.023594888
vt 0.9058783 0.023594888
vt 0.9107367 0.028453277
vt 0.9058783 0.03233999
vt 0.9155952 0.03233999
vt 0.9107367 0.028453277
vt 0.9058783 0.023594888
vt 0.9058783 0.03233999
vt 0.9107367 0.028453277
vt 0.9155952 0.03233999
vt 0.9155952 0.023594888
vt 0.9107367 0.028453277
vt 0.9155952 0.023594888
vt 0.9058783 0.023594888
vt 0.9107367 0.028453277
vt 0.9058783 0.03233999
vt 0.9155952 0.03233999
vt 0.9107367 0.028453277
vt 0.9058783 0.023594888
vt 0.9058783 0.03233999
vt 0.9107367 0.028453277
vt 0.9155952 0.03233999
vt 0.9155952 0.023594888
vt 0.9107367 0.028453277
vt 0.9155952 0.023594888
vt 0.9058783 0.023594888
vt 0.9107367 0.028453277
vt 0.9058783 0.03233999
vt 0.9155952 0.03233999
vt 0.9107367 0.028453277
vt 0.9058783 0.023594888
vt 0.9058783 0.03233999
vt 0.9107367 0.028453277
vt 0.9155952 0.03233999
vt 0.9155952 0.023594888
vt 0.9107367 0.028453277
vt 0.9058783 0.03233999
vt 0.9155952 0.03233999
vt 0.9107367 0.028453277
vt 0.9155952 0.03233999
vt 0.9155952 0.023594888
vt 0.9107367 0.028453277
vt 0.9058783 0.03233999
vt 0.9155952 0.03233999
vt 0.9107367 0.028453277
vt 0.9155952 0.03233999
vt 0.9155952 0.023594888
vt 0.9058783 0.023594888
vt 0.9107367 0.028453277
vt 0.9155952 0.023594888
vt 0.9058783 0.023594888
vt 0.9107367 0.028453277
vt 0.9155952 0.023594888
vt 0.9058783 0.023594888
vt 0.9107367 0.028453277
vt 0.9155952 0.023594888
vt 0.88838816 0.060518645
vt 0.88838816 0.034283344
vt 0.88838816 0.09161233
vt 0.88838816 0.060518645
vt 0.88838816 0.034283344
vt 0.88838816 0.060518645
vt 0.88838816 0.034283344
vt 0.88838816 0.0031896532
vn -0.003921509 0.12156761 -0.9925754
vn -0.003921509 0.12156761 -0.9925754
vn -0.003921509 0.12156761 -0.9925754
vn -0.003921509 0.12156761 -0.9925754
vn -0.003921509 -0.97646314 -0.21564874
vn -0.003921509 -0.97646314 -0.21564874
vn -0.003921509 -0.97646314 -0.21564874
vn -0.003921509 -0.97646314 -0.21564874
vn -0.003921509 0.9764631 0.21564901
vn -0.003921509 0.9764631 0.21564901
vn -0.003921509 0.9764631 0.21564901
vn -0.003921509 0.9764631 0.21564901
vn -0.99999225 0.003921509 -0.00034492963
vn -0.99999225 0.003921509 -0.00034492963
vn -0.99999225 0.003921509 -0.00034492963
vn -0.99999225 0.003921509 -0.00034492963
vn -0.003921509 -0.2705862 0.96268773
vn -0.003921509 -0.2705862 0.96268773
vn -0.003921509 -0.2705862 0.96268773
vn -0.003921509 -0.2705862 0.96268773
vn -0.7568569 0.6392107 0.1362985
vn -0.7568569 0.6392107 0.1362985
vn -0.7568569 0.6392107 0.1362985
vn -0.003921509 0.41960454 0.9076986
vn -0.003921509 0.41960454 0.9076986
vn -0.003921509 0.41960454 0.9076986
vn -0.003921509 0.7568569 -0.6535688
vn -0.003921509 0.7568569 -0.6535688
vn -0.003921509 0.7568569 -0.6535688
vn 0.756857 0.6392107 0.13629827
vn 0.756857 0.6392107 0.13629827
vn 0.756857 0.6392107 0.13629827
vn -0.7568569 0.6392107 0.1362985
vn -0.7568569 0.6392107 0.1362985
vn -0.7568569 0.6392107 0.1362985
vn -0.003921509 0.41960454 0.9076986
vn -0.003921509 0.41960454 0.9076986
vn -0.003921509 0.41960454 0.9076986
vn -0.003921509 0.7568569 -0.6535688
vn -0.003921509 0.7568569 -0.6535688
vn -0.003921509 0.7568569 -0.6535688
vn 0.756857 0.6392107 0.13629827
vn 0.756857 0.6392107 0.13629827
vn 0.756857 0.6392107 0.13629827
vn -0.7568569 0.6392107 0.1362985
vn -0.7568569 0.6392107 0.1362985
vn -0.7568569 0.6392107 0.1362985
vn -0.003921509 0.41960454 0.9076986
vn -0.003921509 0.41960454 0.9076986
vn -0.003921509 0.41960454 0.9076986
vn -0.003921509 0.7568569 -0.6535688
vn -0.003921509 0.7568569 -0.6535688
vn -0.003921509 0.7568569 -0.6535688
vn 0.756857 0.6392107 0.13629827
vn 0.756857 0.6392107 0.13629827
vn 0.756857 0.6392107 0.13629827
vn -0.7568569 0.6392107 0.1362985
vn -0.7568569 0.6392107 0.1362985
vn -0.7568569 0.6392107 0.1362985
vn -0.7568569 0.6392107 0.1362985
vn -0.7568569 0.6392107 0.1362985
vn -0.7568569 0.6392107 0.1362985
vn -0.7568569 0.6392107 0.1362985
vn -0.7568569 0.6392107 0.1362985
vn -0.7568569 0.6392107 0.1362985
vn 0.9999924 0.003921509 -0
vn 0.9999924 0.003921509 -0
vn 0.9999924 0.003921509 -0
vn 0.9999924 0.003921509 -0
vn -0.003921509 0.7568569 -0.6535688
vn -0.003921509 0.7568569 -0.6535688
vn -0.003921509 0.7568569 -0.6535688
vn 0.756857 0.6392107 0.13629827
vn 0.756857 0.6392107 0.13629827
vn 0.756857 0.6392107 0.13629827
vn -0.003921509 0.41960454 0.9076986
vn -0.003921509 0.41960454 0.9076986
vn -0.003921509 0.41960454 0.9076986
vn -0.003921509 0.7568569 -0.6535688
vn -0.003921509 0.7568569 -0.6535688
vn -0.003921509 0.7568569 -0.6535688
vn -0.7568569 0.6392107 0.1362985
vn -0.7568569 0.6392107 0.1362985
vn -0.7568569 0.6392107 0.1362985
vn 0.756857 0.6392107 0.13629827
vn 0.756857 0.6392107 0.13629827
vn 0.756857 0.6392107 0.13629827
vn -0.003921509 0.41960454 0.9076986
vn -0.003921509 0.41960454 0.9076986
vn -0.003921509 0.41960454 0.9076986
vn -0.003921509 0.7568569 -0.6535688
vn -0.003921509 0.7568569 -0.6535688
vn -0.003921509 0.7568569 -0.6535688
vn -0.7568569 0.6392107 0.1362985
vn -0.7568569 0.6392107 0.1362985
vn -0.7568569 0.6392107 0.1362985
vn 0.756857 0.6392107 0.13629827
vn 0.756857 0.6392107 0.13629827
vn 0.756857 0.6392107 0.13629827
vn -0.003921509 0.41960454 0.9076986
vn -0.003921509 0.41960454 0.9076986
vn -0.003921509 0.41960454 0.9076986
vn -0.003921509 0.7568569 -0.6535688
vn -0.003921509 0.7568569 -0.6535688
vn -0.003921509 0.7568569 -0.6535688
vn -0.7568569 0.6392107 0.1362985
vn -0.7568569 0.6392107 0.1362985
vn -0.7568569 0.6392107 0.1362985
vn 0.756857 0.6392107 0.13629827
vn 0.756857 0.6392107 0.13629827
vn 0.756857 0.6392107 0.13629827
vn -0.003921509 0.7568569 -0.6535688
vn -0.003921509 0.7568569 -0.6535688
vn -0.003921509 0.7568569 -0.6535688
vn 0.756857 0.6392107 0.13629827
vn 0.756857 0.6392107 0.13629827
vn 0.756857 0.6392107 0.13629827
vn -0.003921509 0.7568569 -0.6535688
vn -0.003921509 0.7568569 -0.6535688
vn -0.003921509 0.7568569 -0.6535688
vn 0.756857 0.6392107 0.13629827
vn 0.756857 0.6392107 0.13629827
vn 0.756857 0.6392107 0.13629827
vn -0.003921509 0.41960454 0.9076986
vn -0.003921509 0.41960454 0.9076986
vn -0.003921509 0.41960454 0.9076986
vn -0.003921509 0.41960454 0.9076986
vn -0.003921509 0.41960454 0.9076986
vn -0.003921509 0.41960454 0.9076986
vn -0.003921509 0.41960454 0.9076986
vn -0.003921509 0.41960454 0.9076986
vn -0.003921509 0.41960454 0.9076986
vn -0.99999225 0.003921509 -0.00034492963
vn -0.99999225 0.003921509 -0.00034492963
vn -0.003921509 -0.2705862 0.96268773
vn -0.003921509 -0.2705862 0.96268773
vn 0.9999924 0.003921509 -0
vn 0.9999924 0.003921509 -0
vn -0.003921509 0.12156761 -0.9925754
vn -0.003921509 0.12156761 -0.9925754
g HammerTurret_09_0
f 3/3/3 2/2/2 1/1/1
f 4/4/4 3/3/3 1/1/1
f 7/7/7 6/6/6 5/5/5
f 8/8/8 7/7/7 5/5/5
f 11/11/11 10/10/10 9/9/9
f 12/12/12 11/11/11 9/9/9
f 15/15/15 14/14/14 13/13/13
f 16/16/16 15/15/15 13/13/13
f 19/19/19 18/18/18 17/17/17
f 20/20/20 19/19/19 17/17/17
f 23/23/23 22/22/22 21/21/21
f 26/26/26 25/25/25 24/24/24
f 29/29/29 28/28/28 27/27/27
f 32/32/32 31/31/31 30/30/30
f 35/35/35 34/34/34 33/33/33
f 38/38/38 37/37/37 36/36/36
f 41/41/41 40/40/40 39/39/39
f 44/44/44 43/43/43 42/42/42
f 47/47/47 46/46/46 45/45/45
f 50/50/50 49/49/49 48/48/48
f 53/53/53 52/52/52 51/51/51
f 56/56/56 55/55/55 54/54/54
f 59/59/59 58/58/58 57/57/57
f 62/62/62 61/61/61 60/60/60
f 65/65/65 64/64/64 63/63/63
f 68/68/68 67/67/67 66/66/66
f 69/69/69 68/68/68 66/66/66
f 72/72/72 71/71/71 70/70/70
f 75/75/75 74/74/74 73/73/73
f 78/78/78 77/77/77 76/76/76
f 81/81/81 80/80/80 79/79/79
f 84/84/84 83/83/83 82/82/82
f 87/87/87 86/86/86 85/85/85
f 90/90/90 89/89/89 88/88/88
f 93/93/93 92/92/92 91/91/91
f 96/96/96 95/95/95 94/94/94
f 99/99/99 98/98/98 97/97/97
f 102/102/102 101/101/101 100/100/100
f 105/105/105 104/104/104 103/103/103
f 108/108/108 107/107/107 106/106/106
f 111/111/111 110/110/110 109/109/109
f 114/114/114 113/113/113 112/112/112
f 117/117/117 116/116/116 115/115/115
f 120/120/120 119/119/119 118/118/118
f 123/123/123 122/122/122 121/121/121
f 126/126/126 125/125/125 124/124/124
f 129/129/129 128/128/128 127/127/127
f 132/132/132 131/131/131 130/130/130
f 134/134/134 133/133/133 14/14/14
f 15/15/15 134/134/134 14/14/14
f 136/136/136 135/135/135 19/19/19
f 20/20/20 136/136/136 19/19/19
f 138/138/138 137/137/137 68/68/68
f 69/69/69 138/138/138 68/68/68
f 1/1/1 140/140/140 139/139/139
f 4/4/4 1/1/1 139/139/139
