g HArtTurret_CustomizePart_1_CorpsePart
v -0.25912333 1.4988452 0.77574265
v -0.372311 1.5300809 0.7580699
v -0.372311 1.5733997 0.7152444
v -0.22439432 1.5325469 0.73830116
v -0.18913102 1.31135 0.8816558
v -0.18999422 1.414756 0.8232535
v -0.134099 1.4226881 0.8004023
v -0.13298929 1.2875944 0.8767239
v -0.372311 1.1954497 0.947086
v -0.2596165 1.2281235 0.9286324
v -0.225093 1.1788865 0.93816745
v -0.372311 1.1362253 0.9622518
v -0.555491 1.31135 0.8816558
v -0.48500562 1.2281235 0.9286324
v -0.519488 1.1788865 0.93816745
v -0.6116328 1.2875944 0.8767239
v -0.4854988 1.4988452 0.77574265
v -0.5545869 1.414756 0.8232535
v -0.6105231 1.4226881 0.8004023
v -0.5202278 1.5325469 0.73830116
v -0.372311 0.5197756 -1.0868406
v -0.24251914 0.48393703 -1.0666196
v -0.20265281 0.53173554 -1.093622
v -0.372311 0.57854784 -1.1200489
v -0.16332066 0.38755894 -1.0121629
v -0.16233432 0.26906943 -0.94521207
v -0.09784937 0.25086236 -0.93493724
v -0.09912336 0.40572488 -1.0224378
v -0.24309456 0.17371881 -0.8913308
v -0.372311 0.1362772 -0.8701646
v -0.372311 0.077299595 -0.836833
v -0.20351589 0.12620795 -0.86445177
v -0.50152755 0.17371881 -0.8913308
v -0.5822878 0.26906943 -0.94521207
v -0.6466906 0.25086236 -0.93493724
v -0.5411062 0.12620795 -0.86445177
v -0.58130145 0.38755894 -1.0121629
v -0.50206184 0.48393703 -1.0666196
v -0.54188716 0.53173554 -1.093622
v -0.6454165 0.40572488 -1.0224378
v -0.372311 1.5733997 0.7152444
v -0.372311 0.57854784 -1.1200489
v -0.20265281 0.53173554 -1.093622
v -0.22439432 1.5325469 0.73830116
v -0.134099 1.4226881 0.8004023
v -0.09912336 0.40572488 -1.0224378
v -0.09784937 0.25086236 -0.93493724
v -0.13298929 1.2875944 0.8767239
v -0.372311 0.1362772 -0.8701646
v -0.24309456 0.17371881 -0.8913308
v -0.2596165 1.2281235 0.9286324
v -0.372311 1.1954497 0.947086
v -0.225093 1.1788865 0.93816745
v -0.20351589 0.12620795 -0.86445177
v -0.372311 0.077299595 -0.836833
v -0.372311 1.1362253 0.9622518
v -0.16233432 0.26906943 -0.94521207
v -0.16332066 0.38755894 -1.0121629
v -0.18999422 1.414756 0.8232535
v -0.18913102 1.31135 0.8816558
v -0.519488 1.1788865 0.93816745
v -0.5411062 0.12620795 -0.86445177
v -0.6466906 0.25086236 -0.93493724
v -0.6116328 1.2875944 0.8767239
v -0.6105231 1.4226881 0.8004023
v -0.6454165 0.40572488 -1.0224378
v -0.54188716 0.53173554 -1.093622
v -0.5202278 1.5325469 0.73830116
v -0.372311 1.5300809 0.7580699
v -0.25912333 1.4988452 0.77574265
v -0.24251914 0.48393703 -1.0666196
v -0.372311 0.5197756 -1.0868406
v -0.5822878 0.26906943 -0.94521207
v -0.50152755 0.17371881 -0.8913308
v -0.48500562 1.2281235 0.9286324
v -0.555491 1.31135 0.8816558
v -0.50206184 0.48393703 -1.0666196
v -0.58130145 0.38755894 -1.0121629
v -0.5545869 1.414756 0.8232535
v -0.4854988 1.4988452 0.77574265
v -0.372311 0.077299595 -0.836833
v -0.372311 1.1362253 0.9622518
v -0.372311 0.1362772 -0.8701646
v -0.372311 0.077299595 -0.836833
v -0.372311 0.1362772 -0.8701646
v -0.372311 1.1954497 0.947086
v -0.372311 1.1954497 0.947086
v -0.372311 1.1362253 0.9622518
v -0.372311 1.5300809 0.7580699
v -0.372311 0.5197756 -1.0868406
vt 0.5298496 0.4592245
vt 0.5004989 0.4592245
vt 0.5004989 0.47206542
vt 0.5298496 0.47206542
vt 0.5894682 0.4592245
vt 0.5592003 0.4592245
vt 0.5601175 0.47206542
vt 0.5903854 0.47206542
vt 0.6472523 0.4592245
vt 0.6188189 0.4592245
vt 0.62157047 0.47206542
vt 0.6536728 0.47206542
vt 0.40969518 0.4592245
vt 0.3803445 0.4592245
vt 0.3785101 0.47206542
vt 0.40969518 0.47206542
vt 0.46931377 0.4592245
vt 0.4399631 0.4592245
vt 0.4399631 0.47206542
vt 0.470231 0.47206542
vt 0.5004989 0.94075924
vt 0.5371873 0.94075924
vt 0.5371873 0.9260839
vt 0.5004989 0.9260839
vt 0.5729584 0.94075924
vt 0.60872954 0.94075924
vt 0.60781235 0.9260839
vt 0.5720412 0.9260839
vt 0.64358354 0.94075924
vt 0.6756858 0.94075924
vt 0.68118906 0.9260839
vt 0.64450073 0.9260839
vt 0.35833147 0.94075924
vt 0.39318544 0.94075924
vt 0.39410263 0.9260839
vt 0.35741428 0.9260839
vt 0.42895657 0.94075924
vt 0.46472773 0.94075924
vt 0.46564496 0.9260839
vt 0.4298738 0.9260839
vt 0.5004989 0.47206542
vt 0.5004989 0.9260839
vt 0.5371873 0.9260839
vt 0.5298496 0.47206542
vt 0.5601175 0.47206542
vt 0.5720412 0.9260839
vt 0.60781235 0.9260839
vt 0.5903854 0.47206542
vt 0.6472523 0.0024543516
vt 0.6188189 0.0024543516
vt 0.6188189 0.4592245
vt 0.6472523 0.4592245
vt 0.62157047 0.47206542
vt 0.64450073 0.9260839
vt 0.68118906 0.9260839
vt 0.6536728 0.47206542
vt 0.5894682 0.0024543516
vt 0.5592003 0.0024543516
vt 0.5592003 0.4592245
vt 0.5894682 0.4592245
vt 0.3785101 0.47206542
vt 0.35741428 0.9260839
vt 0.39410263 0.9260839
vt 0.40969518 0.47206542
vt 0.4399631 0.47206542
vt 0.4298738 0.9260839
vt 0.46564496 0.9260839
vt 0.470231 0.47206542
vt 0.5004989 0.4592245
vt 0.5298496 0.4592245
vt 0.5298496 0.0024543516
vt 0.5004989 0.0024543516
vt 0.40969518 0.0024543516
vt 0.3803445 0.0024543516
vt 0.3803445 0.4592245
vt 0.40969518 0.4592245
vt 0.46931377 0.0024543516
vt 0.4399631 0.0024543516
vt 0.4399631 0.4592245
vt 0.46931377 0.4592245
vt 0.3207259 0.9260839
vt 0.34640777 0.47206542
vt 0.32622916 0.94075924
vt 0.3207259 0.9260839
vt 0.351911 0.0024543516
vt 0.351911 0.4592245
vt 0.351911 0.4592245
vt 0.34640777 0.47206542
vt 0.5004989 0.4592245
vt 0.5004989 0.0024543516
vn 0.15290856 0.6601176 0.7354343
vn -0.0037294626 0.7048714 0.70932525
vn -0.0037294626 0.7048714 0.70932525
vn 0.15290856 0.6601176 0.7354343
vn 0.24987501 0.4065131 0.8788114
vn 0.24987501 0.5482333 0.7981245
vn 0.24987501 0.5482333 0.7981245
vn 0.24987501 0.4065131 0.8788114
vn -0.0037294626 0.24987507 0.9682709
vn 0.15290856 0.2871698 0.94559634
vn 0.15290856 0.2871698 0.94559634
vn -0.0037294626 0.24987507 0.9682709
vn -0.24987507 0.4065131 0.8788114
vn -0.15290856 0.2871698 0.94559634
vn -0.15290856 0.2871698 0.94559634
vn -0.24987507 0.4065131 0.8788114
vn -0.15290856 0.6601176 0.7354343
vn -0.24987507 0.5482333 0.7981245
vn -0.24987507 0.5482333 0.7981245
vn -0.15290856 0.6601176 0.7354343
vn -0.0037294626 -0.48856163 -0.87252146
vn -0.0037294626 -0.48856163 -0.87252146
vn -0.0037294626 -0.48856163 -0.87252146
vn -0.0037294626 -0.48856163 -0.87252146
vn -0.0037294626 -0.48856163 -0.87252146
vn -0.0037294626 -0.48856163 -0.87252146
vn -0.0037294626 -0.48856163 -0.87252146
vn -0.0037294626 -0.48856163 -0.87252146
vn -0.0037294626 -0.48856163 -0.87252146
vn -0.0037294626 -0.48856163 -0.87252146
vn -0.0037294626 -0.48856163 -0.87252146
vn -0.0037294626 -0.48856163 -0.87252146
vn 0.0037294626 -0.48856163 -0.87252146
vn 0.0037294626 -0.48856163 -0.87252146
vn 0.0037294626 -0.48856163 -0.87252146
vn 0.0037294626 -0.48856163 -0.87252146
vn 0.0037294626 -0.48856163 -0.87252146
vn 0.0037294626 -0.48856163 -0.87252146
vn 0.0037294626 -0.48856163 -0.87252146
vn 0.0037294626 -0.48856163 -0.87252146
vn -0.0037294626 0.8764274 -0.48151958
vn -0.0037294626 0.8764274 -0.48151958
vn 0.585528 0.71233034 -0.38696566
vn 0.585528 0.71233034 -0.38696566
vn 0.9510169 0.2797109 -0.13163847
vn 0.9510169 0.2797109 -0.13163847
vn 0.9510169 -0.257334 0.171307
vn 0.9510169 -0.257334 0.171307
vn -0.0037294626 0.86150944 -0.50772786
vn -0.585528 0.6974124 -0.41324684
vn -0.585528 0.6974124 -0.41324684
vn -0.0037294626 0.86150944 -0.50772786
vn 0.585528 -0.6974124 0.41324684
vn 0.585528 -0.6974124 0.41324684
vn -0.0037294626 -0.86150944 0.50772786
vn -0.0037294626 -0.86150944 0.50772786
vn -0.9510169 0.26479292 -0.15953551
vn -0.9510169 -0.2722519 0.14644372
vn -0.9510169 -0.2722519 0.14644372
vn -0.9510169 0.26479292 -0.15953551
vn -0.585528 -0.6974124 0.41324684
vn -0.585528 -0.6974124 0.41324684
vn -0.9510169 -0.257334 0.171307
vn -0.9510169 -0.257334 0.171307
vn -0.9510169 0.2797109 -0.13163847
vn -0.9510169 0.2797109 -0.13163847
vn -0.585528 0.71233034 -0.38696566
vn -0.585528 0.71233034 -0.38696566
vn -0.0037294626 -0.87642735 0.4815197
vn -0.585528 -0.71233034 0.38696566
vn -0.585528 -0.71233034 0.38696566
vn -0.0037294626 -0.87642735 0.4815197
vn 0.9510169 0.26479292 -0.15953551
vn 0.585528 0.6974124 -0.41324684
vn 0.585528 0.6974124 -0.41324684
vn 0.9510169 0.26479292 -0.15953551
vn 0.585528 -0.71233034 0.38696566
vn 0.9510169 -0.2722519 0.14644372
vn 0.9510169 -0.2722519 0.14644372
vn 0.585528 -0.71233034 0.38696566
vn -0.0037294626 -0.86150944 0.50772786
vn -0.0037294626 -0.86150944 0.50772786
vn -0.0037294626 -0.48856163 -0.87252146
vn -0.0037294626 -0.48856163 -0.87252146
vn -0.0037294626 0.86150944 -0.50772786
vn -0.0037294626 0.86150944 -0.50772786
vn -0.0037294626 0.24987507 0.9682709
vn -0.0037294626 0.24987507 0.9682709
vn -0.0037294626 -0.87642735 0.4815197
vn -0.0037294626 -0.87642735 0.4815197
g HArtTurret_CustomizePart_1_CorpsePart_0
f 3/3/3 2/2/2 1/1/1
f 4/4/4 3/3/3 1/1/1
f 7/7/7 6/6/6 5/5/5
f 8/8/8 7/7/7 5/5/5
f 11/11/11 10/10/10 9/9/9
f 12/12/12 11/11/11 9/9/9
f 15/15/15 14/14/14 13/13/13
f 16/16/16 15/15/15 13/13/13
f 19/19/19 18/18/18 17/17/17
f 20/20/20 19/19/19 17/17/17
f 23/23/23 22/22/22 21/21/21
f 24/24/24 23/23/23 21/21/21
f 27/27/27 26/26/26 25/25/25
f 28/28/28 27/27/27 25/25/25
f 31/31/31 30/30/30 29/29/29
f 32/32/32 31/31/31 29/29/29
f 35/35/35 34/34/34 33/33/33
f 36/36/36 35/35/35 33/33/33
f 39/39/39 38/38/38 37/37/37
f 40/40/40 39/39/39 37/37/37
f 43/43/43 42/42/42 41/41/41
f 44/44/44 43/43/43 41/41/41
f 47/47/47 46/46/46 45/45/45
f 48/48/48 47/47/47 45/45/45
f 51/51/51 50/50/50 49/49/49
f 52/52/52 51/51/51 49/49/49
f 55/55/55 54/54/54 53/53/53
f 56/56/56 55/55/55 53/53/53
f 59/59/59 58/58/58 57/57/57
f 60/60/60 59/59/59 57/57/57
f 63/63/63 62/62/62 61/61/61
f 64/64/64 63/63/63 61/61/61
f 67/67/67 66/66/66 65/65/65
f 68/68/68 67/67/67 65/65/65
f 71/71/71 70/70/70 69/69/69
f 72/72/72 71/71/71 69/69/69
f 75/75/75 74/74/74 73/73/73
f 76/76/76 75/75/75 73/73/73
f 79/79/79 78/78/78 77/77/77
f 80/80/80 79/79/79 77/77/77
f 45/45/45 46/46/46 43/43/43
f 44/44/44 45/45/45 43/43/43
f 28/28/28 25/25/25 22/22/22
f 23/23/23 28/28/28 22/22/22
f 58/58/58 59/59/59 70/70/70
f 71/71/71 58/58/58 70/70/70
f 1/1/1 6/6/6 7/7/7
f 4/4/4 1/1/1 7/7/7
f 53/53/53 54/54/54 47/47/47
f 48/48/48 53/53/53 47/47/47
f 32/32/32 29/29/29 26/26/26
f 27/27/27 32/32/32 26/26/26
f 57/57/57 50/50/50 51/51/51
f 60/60/60 57/57/57 51/51/51
f 8/8/8 5/5/5 10/10/10
f 11/11/11 8/8/8 10/10/10
f 61/61/61 62/62/62 81/81/81
f 82/82/82 61/61/61 81/81/81
f 36/36/36 33/33/33 83/83/83
f 84/84/84 36/36/36 83/83/83
f 85/85/85 74/74/74 75/75/75
f 86/86/86 85/85/85 75/75/75
f 88/88/88 87/87/87 14/14/14
f 15/15/15 88/88/88 14/14/14
f 65/65/65 66/66/66 63/63/63
f 64/64/64 65/65/65 63/63/63
f 40/40/40 37/37/37 34/34/34
f 35/35/35 40/40/40 34/34/34
f 76/76/76 73/73/73 78/78/78
f 79/79/79 76/76/76 78/78/78
f 16/16/16 13/13/13 18/18/18
f 19/19/19 16/16/16 18/18/18
f 41/41/41 42/42/42 67/67/67
f 68/68/68 41/41/41 67/67/67
f 24/24/24 21/21/21 38/38/38
f 39/39/39 24/24/24 38/38/38
f 77/77/77 90/90/90 89/89/89
f 80/80/80 77/77/77 89/89/89
f 20/20/20 17/17/17 2/2/2
f 3/3/3 20/20/20 2/2/2
