g HArtTurret_CustomizePart_4
v -66.46057 97.28247 -5.5772324
v -80.56033 90.56415 -1.7678146
v -80.57124 78.953064 -22.332119
v -66.479675 85.668655 -26.133347
v -66.41965 73.84746 7.6656723
v -66.46057 97.28247 -5.5772324
v -66.479675 85.668655 -26.133347
v -66.43875 62.233658 -12.890442
v -80.56033 90.56415 -1.7678146
v -80.459366 73.92114 7.632927
v -80.470276 62.307327 -12.923187
v -80.57124 78.953064 -22.332119
v -80.459366 73.92114 7.632927
v -66.41965 73.84746 7.6656723
v -66.43875 62.233658 -12.890442
v -80.470276 62.307327 -12.923187
v -66.41965 73.84746 7.6656723
v -80.459366 73.92114 7.632927
v -77.269394 76.6936 6.0611343
v -69.62872 76.66359 6.0802383
v -66.46057 97.28247 -5.5772324
v -66.41965 73.84746 7.6656723
v -69.62872 76.66359 6.0802383
v -69.66693 92.74446 -3.0066986
v -80.56033 90.56415 -1.7678146
v -69.66693 92.74446 -3.0066986
v -77.34033 89.41531 -1.1238174
v -77.34033 89.41531 -1.1238174
v -77.269394 76.6936 6.0611343
v -80.74043 55.040512 -64.65594
v -66.26956 61.799774 -68.45989
v -66.2914 73.10249 -48.45773
v -80.75954 66.34596 -44.651043
v -66.26956 61.799774 -68.45989
v -66.23135 38.4057 -55.244278
v -66.23955 49.71115 -35.24211
v -66.2914 73.10249 -48.45773
v -80.639465 38.397514 -55.244278
v -80.74043 55.040512 -64.65594
v -80.75954 66.34596 -44.651043
v -80.6613 49.689316 -35.24211
v -66.23135 38.4057 -55.244278
v -80.639465 38.397514 -55.244278
v -80.6613 49.689316 -35.24211
v -66.23955 49.71115 -35.24211
v -80.639465 38.397514 -55.244278
v -66.23135 38.4057 -55.244278
v -69.69968 41.41284 -56.941593
v -77.20117 41.41284 -56.941593
v -66.23135 38.4057 -55.244278
v -66.26956 61.799774 -68.45989
v -69.72696 57.027084 -65.7611
v -69.69968 41.41284 -56.941593
v -69.72696 57.027084 -65.7611
v -80.74043 55.040512 -64.65594
v -77.269394 53.8071 -63.949173
v -77.20117 41.41284 -56.941593
v -77.269394 53.8071 -63.949173
v 67.270134 85.668655 -26.133347
v 81.35897 78.953064 -22.332119
v 81.350784 90.56415 -1.7678146
v 67.25103 97.28247 -5.5772324
v 67.2292 62.233658 -12.890442
v 67.270134 85.668655 -26.133347
v 67.25103 97.28247 -5.5772324
v 67.2101 73.84746 7.6656723
v 81.35897 78.953064 -22.332119
v 81.260735 62.307327 -12.923187
v 81.24982 73.92114 7.632927
v 81.350784 90.56415 -1.7678146
v 81.260735 62.307327 -12.923187
v 67.2292 62.233658 -12.890442
v 67.2101 73.84746 7.6656723
v 81.24982 73.92114 7.632927
v 70.41918 76.66359 6.0802383
v 78.059845 76.6936 6.0611343
v 81.24982 73.92114 7.632927
v 67.2101 73.84746 7.6656723
v 70.45738 92.74446 -3.0066986
v 70.41918 76.66359 6.0802383
v 67.2101 73.84746 7.6656723
v 67.25103 97.28247 -5.5772324
v 81.350784 90.56415 -1.7678146
v 78.13079 89.41531 -1.1238174
v 70.45738 92.74446 -3.0066986
v 78.059845 76.6936 6.0611343
v 78.13079 89.41531 -1.1238174
v 81.54999 66.34596 -44.651043
v 67.07912 73.10249 -48.45773
v 67.06001 61.799774 -68.45989
v 81.53088 55.040512 -64.65594
v 67.07912 73.10249 -48.45773
v 67.03 49.71115 -35.24211
v 67.01908 38.4057 -55.244278
v 67.06001 61.799774 -68.45989
v 81.44902 49.689316 -35.24484
v 81.54999 66.34596 -44.651043
v 81.53088 55.040512 -64.65594
v 81.429924 38.397514 -55.244278
v 67.03 49.71115 -35.24211
v 81.44902 49.689316 -35.24484
v 81.429924 38.397514 -55.244278
v 67.01908 38.4057 -55.244278
v 77.98889 41.41284 -56.941593
v 70.49013 41.41284 -56.941593
v 67.01908 38.4057 -55.244278
v 81.429924 38.397514 -55.244278
v 70.49013 41.41284 -56.941593
v 70.51742 57.027084 -65.7611
v 67.06001 61.799774 -68.45989
v 67.01908 38.4057 -55.244278
v 70.51742 57.027084 -65.7611
v 78.059845 53.8071 -63.949173
v 81.53088 55.040512 -64.65594
v 77.98889 41.41284 -56.941593
v 78.059845 53.8071 -63.949173
vt 0.30362448 0.42290795
vt 0.30362448 0.3878944
vt 0.25199434 0.3878944
vt 0.25199434 0.42290795
vt 0.30362448 0.48165947
vt 0.30362448 0.42290795
vt 0.25199434 0.42290795
vt 0.25199434 0.48165947
vt 0.30362448 0.3878944
vt 0.30362448 0.34694636
vt 0.25199434 0.34694636
vt 0.25199434 0.3878944
vt 0.30362448 0.34694636
vt 0.30362448 0.31608695
vt 0.25199434 0.31608695
vt 0.25199434 0.34694636
vt 0.30362448 0.31608695
vt 0.30362448 0.34694636
vt 0.31015244 0.33982494
vt 0.31015244 0.32320833
vt 0.30362448 0.42290795
vt 0.30362448 0.48165947
vt 0.31015244 0.4745381
vt 0.31015244 0.43418348
vt 0.30362448 0.3878944
vt 0.309559 0.4116324
vt 0.309559 0.39323545
vt 0.31015244 0.38552058
vt 0.31015244 0.3534743
vt 0.25318125 0.3890813
vt 0.25318125 0.42468828
vt 0.30303103 0.42468828
vt 0.30303103 0.3890813
vt 0.25318125 0.42468828
vt 0.25318125 0.48284638
vt 0.30303103 0.48284638
vt 0.30303103 0.42468828
vt 0.25318125 0.34753978
vt 0.25318125 0.3890813
vt 0.30303103 0.3890813
vt 0.30303103 0.34753978
vt 0.25318125 0.31608695
vt 0.25318125 0.34753978
vt 0.30303103 0.34753978
vt 0.30303103 0.31608695
vt 0.25318125 0.34753978
vt 0.25318125 0.31608695
vt 0.2454664 0.3238018
vt 0.2454664 0.33982494
vt 0.25318125 0.48284638
vt 0.25318125 0.42468828
vt 0.2454664 0.4365573
vt 0.2454664 0.47513154
vt 0.24605985 0.41222584
vt 0.25318125 0.3890813
vt 0.24605985 0.39382887
vt 0.2454664 0.3546612
vt 0.2454664 0.38552058
vt 0.30421793 0.42409486
vt 0.30421793 0.3890813
vt 0.2525878 0.3890813
vt 0.2525878 0.42409486
vt 0.30421793 0.48225296
vt 0.30421793 0.42409486
vt 0.2525878 0.42409486
vt 0.2525878 0.48225296
vt 0.30421793 0.3890813
vt 0.30421793 0.34753978
vt 0.2525878 0.34753978
vt 0.2525878 0.3890813
vt 0.30421793 0.34753978
vt 0.30421793 0.31727386
vt 0.2525878 0.31727386
vt 0.2525878 0.34753978
vt 0.24605985 0.32439524
vt 0.24605985 0.3404184
vt 0.2525878 0.34753978
vt 0.2525878 0.31727386
vt 0.24605985 0.4353704
vt 0.24605985 0.47513154
vt 0.2525878 0.48225296
vt 0.2525878 0.42409486
vt 0.2525878 0.3890813
vt 0.2466533 0.39382887
vt 0.2466533 0.41222584
vt 0.24605985 0.3546612
vt 0.24605985 0.38611406
vt 0.25318125 0.3878944
vt 0.25318125 0.42350137
vt 0.30303103 0.42350137
vt 0.30303103 0.3878944
vt 0.25318125 0.42350137
vt 0.25318125 0.48225296
vt 0.30303103 0.48225296
vt 0.30303103 0.42350137
vt 0.25318125 0.34635288
vt 0.25318125 0.3878944
vt 0.30303103 0.3878944
vt 0.30303103 0.34635288
vt 0.25318125 0.3154935
vt 0.25318125 0.34635288
vt 0.30303103 0.34635288
vt 0.30303103 0.3154935
vt 0.31015244 0.3392315
vt 0.31015244 0.3226149
vt 0.30303103 0.3154935
vt 0.30303103 0.34635288
vt 0.31015244 0.4745381
vt 0.31015244 0.4353704
vt 0.30303103 0.42350137
vt 0.30303103 0.48225296
vt 0.309559 0.4116324
vt 0.309559 0.39323545
vt 0.30303103 0.3878944
vt 0.31015244 0.35406774
vt 0.31015244 0.38492715
vn -0.48234916 0.76469994 -0.427286
vn -0.48234916 0.76469994 -0.427286
vn -0.48234916 0.76469994 -0.427286
vn -0.48234916 0.76469994 -0.427286
vn 0.9999924 0.003921509 -0
vn 0.9999924 0.003921509 -0
vn 0.9999924 0.003921509 -0
vn 0.9999924 0.003921509 -0
vn -0.99999225 -0.0039215684 -0.00034425134
vn -0.99999225 -0.0039215684 -0.00034425134
vn -0.99999225 -0.0039215684 -0.00034425134
vn -0.99999225 -0.0039215684 -0.00034425134
vn -0.003921509 -0.87450314 0.485004
vn -0.003921509 -0.87450314 0.485004
vn -0.003921509 -0.87450314 0.485004
vn -0.003921509 -0.87450314 0.485004
vn 0.0039215684 0.4901923 0.8716055
vn 0.0039215684 0.4901923 0.8716055
vn 0.0039215684 0.4901923 0.8716055
vn 0.0039215684 0.4901923 0.8716055
vn 0.0039215684 0.4901923 0.8716055
vn 0.0039215684 0.4901923 0.8716055
vn 0.0039215684 0.4901923 0.8716055
vn 0.0039215684 0.4901923 0.8716055
vn 0.0039215684 0.4901923 0.8716055
vn 0.0039215684 0.4901923 0.8716055
vn 0.0039215684 0.4901923 0.8716055
vn 0.0039215684 0.4901923 0.8716055
vn 0.0039215684 0.4901923 0.8716055
vn -0.47450614 0.76469994 -0.4359793
vn -0.47450614 0.76469994 -0.4359793
vn -0.47450614 0.76469994 -0.4359793
vn -0.47450614 0.76469994 -0.4359793
vn 0.9999924 0.003921509 -0
vn 0.9999924 0.003921509 -0
vn 0.9999924 0.003921509 -0
vn 0.9999924 0.003921509 -0
vn -0.99999225 -0.0039215684 -0.00034425134
vn -0.99999225 -0.0039215684 -0.00034425134
vn -0.99999225 -0.0039215684 -0.00034425134
vn -0.99999225 -0.0039215684 -0.00034425134
vn 0.0039215684 -0.87450314 0.485004
vn 0.0039215684 -0.87450314 0.485004
vn 0.0039215684 -0.87450314 0.485004
vn 0.0039215684 -0.87450314 0.485004
vn 0.0039215684 -0.49019235 -0.87160546
vn -0.003921509 -0.49019235 -0.87160546
vn -0.003921509 -0.49019235 -0.87160546
vn 0.0039215684 -0.49019235 -0.87160546
vn -0.003921509 -0.49019235 -0.87160546
vn 0.0039215684 -0.49019235 -0.87160546
vn 0.0039215684 -0.49019235 -0.87160546
vn -0.003921509 -0.49019235 -0.87160546
vn 0.0039215684 -0.49019235 -0.87160546
vn 0.0039215684 -0.49019235 -0.87160546
vn 0.0039215684 -0.49019235 -0.87160546
vn 0.0039215684 -0.49019235 -0.87160546
vn 0.0039215684 -0.49019235 -0.87160546
vn 0.48234928 0.76469994 -0.42728585
vn 0.48234928 0.76469994 -0.42728585
vn 0.48234928 0.76469994 -0.42728585
vn 0.48234928 0.76469994 -0.42728585
vn -0.99999225 0.003921509 -0.00034492963
vn -0.99999225 0.003921509 -0.00034492963
vn -0.99999225 0.003921509 -0.00034492963
vn -0.99999225 0.003921509 -0.00034492963
vn 0.9999924 -0.0039215684 -0
vn 0.9999924 -0.0039215684 -0
vn 0.9999924 -0.0039215684 -0
vn 0.9999924 -0.0039215684 -0
vn 0.0039215684 -0.87450314 0.485004
vn 0.0039215684 -0.87450314 0.485004
vn 0.0039215684 -0.87450314 0.485004
vn 0.0039215684 -0.87450314 0.485004
vn -0.003921509 0.4901923 0.8716055
vn -0.003921509 0.4901923 0.8716055
vn -0.003921509 0.4901923 0.8716055
vn -0.003921509 0.4901923 0.8716055
vn -0.003921509 0.4901923 0.8716055
vn -0.003921509 0.4901923 0.8716055
vn -0.003921509 0.4901923 0.8716055
vn -0.003921509 0.4901923 0.8716055
vn -0.003921509 0.4901923 0.8716055
vn -0.003921509 0.4901923 0.8716055
vn -0.003921509 0.4901923 0.8716055
vn -0.003921509 0.4901923 0.8716055
vn -0.003921509 0.4901923 0.8716055
vn 0.4745062 0.76469994 -0.43597925
vn 0.4745062 0.76469994 -0.43597925
vn 0.4745062 0.76469994 -0.43597925
vn 0.4745062 0.76469994 -0.43597925
vn -0.99999225 0.003921509 -0.00034492963
vn -0.99999225 0.003921509 -0.00034492963
vn -0.99999225 0.003921509 -0.00034492963
vn -0.99999225 0.003921509 -0.00034492963
vn 0.9999924 -0.0039215684 -0
vn 0.9999924 -0.0039215684 -0
vn 0.9999924 -0.0039215684 -0
vn 0.9999924 -0.0039215684 -0
vn -0.003921509 -0.87450314 0.485004
vn -0.003921509 -0.87450314 0.485004
vn -0.003921509 -0.87450314 0.485004
vn -0.003921509 -0.87450314 0.485004
vn -0.003921509 -0.49019235 -0.87160546
vn 0.0039215684 -0.49019235 -0.87160546
vn 0.0039215684 -0.49019235 -0.87160546
vn -0.003921509 -0.49019235 -0.87160546
vn 0.0039215684 -0.49019235 -0.87160546
vn -0.003921509 -0.49019235 -0.87160546
vn -0.003921509 -0.49019235 -0.87160546
vn 0.0039215684 -0.49019235 -0.87160546
vn -0.003921509 -0.49019235 -0.87160546
vn -0.003921509 -0.49019235 -0.87160546
vn -0.003921509 -0.49019235 -0.87160546
vn -0.003921509 -0.49019235 -0.87160546
vn -0.003921509 -0.49019235 -0.87160546
g HArtTurret_CustomizePart_4_0
f 3/3/3 2/2/2 1/1/1
f 4/4/4 3/3/3 1/1/1
f 7/7/7 6/6/6 5/5/5
f 8/8/8 7/7/7 5/5/5
f 11/11/11 10/10/10 9/9/9
f 12/12/12 11/11/11 9/9/9
f 15/15/15 14/14/14 13/13/13
f 16/16/16 15/15/15 13/13/13
f 19/19/19 18/18/18 17/17/17
f 20/20/20 19/19/19 17/17/17
f 23/23/23 22/22/22 21/21/21
f 24/24/24 23/23/23 21/21/21
f 26/26/26 21/21/21 25/25/25
f 27/27/27 26/26/26 25/25/25
f 29/29/29 28/28/28 25/25/25
f 18/18/18 29/29/29 25/25/25
f 32/32/32 31/31/31 30/30/30
f 33/33/33 32/32/32 30/30/30
f 36/36/36 35/35/35 34/34/34
f 37/37/37 36/36/36 34/34/34
f 40/40/40 39/39/39 38/38/38
f 41/41/41 40/40/40 38/38/38
f 44/44/44 43/43/43 42/42/42
f 45/45/45 44/44/44 42/42/42
f 48/48/48 47/47/47 46/46/46
f 49/49/49 48/48/48 46/46/46
f 52/52/52 51/51/51 50/50/50
f 53/53/53 52/52/52 50/50/50
f 55/55/55 51/51/51 54/54/54
f 56/56/56 55/55/55 54/54/54
f 57/57/57 46/46/46 55/55/55
f 58/58/58 57/57/57 55/55/55
f 61/61/61 60/60/60 59/59/59
f 62/62/62 61/61/61 59/59/59
f 65/65/65 64/64/64 63/63/63
f 66/66/66 65/65/65 63/63/63
f 69/69/69 68/68/68 67/67/67
f 70/70/70 69/69/69 67/67/67
f 73/73/73 72/72/72 71/71/71
f 74/74/74 73/73/73 71/71/71
f 77/77/77 76/76/76 75/75/75
f 78/78/78 77/77/77 75/75/75
f 81/81/81 80/80/80 79/79/79
f 82/82/82 81/81/81 79/79/79
f 85/85/85 84/84/84 83/83/83
f 82/82/82 85/85/85 83/83/83
f 83/83/83 87/87/87 86/86/86
f 77/77/77 83/83/83 86/86/86
f 90/90/90 89/89/89 88/88/88
f 91/91/91 90/90/90 88/88/88
f 94/94/94 93/93/93 92/92/92
f 95/95/95 94/94/94 92/92/92
f 98/98/98 97/97/97 96/96/96
f 99/99/99 98/98/98 96/96/96
f 102/102/102 101/101/101 100/100/100
f 103/103/103 102/102/102 100/100/100
f 106/106/106 105/105/105 104/104/104
f 107/107/107 106/106/106 104/104/104
f 110/110/110 109/109/109 108/108/108
f 111/111/111 110/110/110 108/108/108
f 114/114/114 113/113/113 112/112/112
f 110/110/110 114/114/114 112/112/112
f 114/114/114 107/107/107 115/115/115
f 116/116/116 114/114/114 115/115/115
