g HeartMesh
v 1.3947487E-05 -0.80882823 0.16838026
v 1.3947487E-05 -0.85683656 0.1303947
v -0.24033654 -0.6709516 0.1303947
v -0.21585512 -0.64186585 0.16838026
v 1.3947487E-05 -0.85683656 0.1303947
v 1.3947487E-05 -0.80882823 0.16838026
v 0.215855 -0.64186585 0.16838026
v 0.24033642 -0.6709516 0.1303947
v 0.4299273 -0.44593006 0.16838026
v 0.45685127 -0.4727979 0.1303947
v 0.21414244 0.76143765 0.16838026
v 0.19420916 0.7954085 0.1303947
v 0.42400345 0.8568367 0.1303947
v 0.42366654 0.8174474 0.16838026
v 1.3947487E-05 0.5410204 0.16838026
v 1.3947487E-05 0.59551406 0.1303947
v 1.3947487E-05 0.59551406 0.1303947
v 1.3947487E-05 0.5410204 0.16838026
v -0.21414256 0.76143765 0.16838026
v -0.19420922 0.7954085 0.1303947
v 0.6461333 -0.20844316 0.16838026
v 0.67628586 -0.23171741 0.1303947
v 0.6753594 0.7851049 0.1303947
v 0.6547804 0.75149906 0.16838026
v 0.85683656 0.5900395 0.1303947
v 0.82199544 0.57176256 0.16838026
v 0.8023148 0.031430066 0.16838026
v 0.83724016 0.015483439 0.1303947
v 0.8807846 0.30541456 0.16838026
v 0.9199493 0.30420732 0.1303947
v -0.45685136 -0.4727979 0.1303947
v -0.42992747 -0.44593006 0.16838026
v -0.42366672 0.8174474 0.16838026
v -0.4240036 0.8568367 0.1303947
v -0.676286 -0.23171741 0.1303947
v -0.6461334 -0.20844316 0.16838026
v -0.6547805 0.75149906 0.16838026
v -0.6753595 0.7851049 0.1303947
v -0.8219955 0.57176256 0.16838026
v -0.8568367 0.5900395 0.1303947
v -0.83724034 0.015483439 0.1303947
v -0.802315 0.031430066 0.16838026
v -0.9199494 0.30420732 0.1303947
v -0.88078475 0.30541456 0.16838026
v 0.4299273 -0.44593006 0.16838026
v 0.215855 -0.64186585 0.16838026
v 1.3947487E-05 -0.44854105 0.16838026
v 0.42366654 0.8174474 0.16838026
v 1.3947487E-05 0.5410204 0.16838026
v 0.21414244 0.76143765 0.16838026
v 0.82199544 0.57176256 0.16838026
v 0.6547804 0.75149906 0.16838026
v 1.3947487E-05 0.031430066 0.16838026
v 0.8023148 0.031430066 0.16838026
v 0.6461333 -0.20844316 0.16838026
v 1.3947487E-05 -0.20285624 0.16838026
v 0.8807846 0.30541456 0.16838026
v -0.42366672 0.8174474 0.16838026
v -0.21414256 0.76143765 0.16838026
v -0.42992747 -0.44593006 0.16838026
v -0.6461334 -0.20844316 0.16838026
v -0.8219955 0.57176256 0.16838026
v -0.6547805 0.75149906 0.16838026
v -0.802315 0.031430066 0.16838026
v -0.88078475 0.30541456 0.16838026
v 1.3947487E-05 -0.80882823 0.16838026
v -0.21585512 -0.64186585 0.16838026
v 1.3947487E-05 -0.80882823 -0.16838008
v -0.21585512 -0.64186585 -0.16838008
v -0.24033654 -0.6709516 -0.13039452
v 1.3947487E-05 -0.85683656 -0.13039452
v 1.3947487E-05 -0.85683656 -0.13039452
v 0.24033642 -0.6709516 -0.13039452
v 0.215855 -0.64186585 -0.16838008
v 1.3947487E-05 -0.80882823 -0.16838008
v 0.45685127 -0.4727979 -0.13039452
v 0.4299273 -0.44593006 -0.16838008
v 0.21414244 0.76143765 -0.16838008
v 0.42366654 0.8174474 -0.16838008
v 0.42400345 0.8568367 -0.13039452
v 0.19420916 0.7954085 -0.13039452
v 1.3947487E-05 0.59551406 -0.13039452
v 1.3947487E-05 0.5410204 -0.16838008
v 1.3947487E-05 0.59551406 -0.13039452
v -0.19420922 0.7954085 -0.13039452
v -0.21414256 0.76143765 -0.16838008
v 1.3947487E-05 0.5410204 -0.16838008
v 0.67628586 -0.23171741 -0.13039452
v 0.6461333 -0.20844316 -0.16838008
v 0.6547804 0.75149906 -0.16838008
v 0.6753594 0.7851049 -0.13039452
v 0.82199544 0.57176256 -0.16838008
v 0.85683656 0.5900395 -0.13039452
v 0.83724016 0.015483439 -0.13039452
v 0.8023148 0.031430066 -0.16838008
v 0.9199493 0.30420732 -0.13039452
v 0.8807846 0.30541456 -0.16838008
v -0.42992747 -0.44593006 -0.16838008
v -0.45685136 -0.4727979 -0.13039452
v -0.4240036 0.8568367 -0.13039452
v -0.42366672 0.8174474 -0.16838008
v -0.6461334 -0.20844316 -0.16838008
v -0.676286 -0.23171741 -0.13039452
v -0.6753595 0.7851049 -0.13039452
v -0.6547805 0.75149906 -0.16838008
v -0.8568367 0.5900395 -0.13039452
v -0.8219955 0.57176256 -0.16838008
v -0.802315 0.031430066 -0.16838008
v -0.83724034 0.015483439 -0.13039452
v -0.88078475 0.30541456 -0.16838008
v -0.9199494 0.30420732 -0.13039452
v 0.4299273 -0.44593006 -0.16838008
v 1.3947487E-05 -0.44854105 -0.16838008
v 0.215855 -0.64186585 -0.16838008
v 0.42366654 0.8174474 -0.16838008
v 0.21414244 0.76143765 -0.16838008
v 1.3947487E-05 0.5410204 -0.16838008
v 0.82199544 0.57176256 -0.16838008
v 0.6547804 0.75149906 -0.16838008
v 1.3947487E-05 0.031430066 -0.16838008
v 1.3947487E-05 -0.20285624 -0.16838008
v 0.6461333 -0.20844316 -0.16838008
v 0.8023148 0.031430066 -0.16838008
v 0.8807846 0.30541456 -0.16838008
v -0.21414256 0.76143765 -0.16838008
v -0.42366672 0.8174474 -0.16838008
v -0.42992747 -0.44593006 -0.16838008
v -0.6461334 -0.20844316 -0.16838008
v -0.8219955 0.57176256 -0.16838008
v -0.6547805 0.75149906 -0.16838008
v -0.88078475 0.30541456 -0.16838008
v -0.802315 0.031430066 -0.16838008
v -0.21585512 -0.64186585 -0.16838008
v 1.3947487E-05 -0.80882823 -0.16838008
vt 0.96299624 0.8379618
vt 0.96299624 0.85530233
vt 0.8671669 0.85530233
vt 0.8671669 0.8379618
vt 0.96299624 0.85530233
vt 0.96299624 0.8379618
vt 0.8671669 0.8379618
vt 0.8671669 0.85530233
vt 0.7713376 0.8379618
vt 0.7713376 0.85530233
vt 0.12973745 0.8379618
vt 0.12973745 0.85530233
vt 0.20640092 0.85530233
vt 0.20640092 0.8379618
vt 0.03299547 0.8379618
vt 0.03299547 0.85530233
vt 0.03299547 0.85530233
vt 0.03299547 0.8379618
vt 0.12973745 0.8379618
vt 0.12973745 0.85530233
vt 0.6645564 0.8379618
vt 0.6645564 0.85530233
vt 0.29036567 0.85530233
vt 0.29036567 0.8379618
vt 0.3761557 0.85530233
vt 0.3761557 0.8379618
vt 0.56781435 0.8379618
vt 0.56781435 0.85530233
vt 0.4701597 0.8379618
vt 0.4701597 0.85530233
vt 0.7713376 0.85530233
vt 0.7713376 0.8379618
vt 0.20640092 0.8379618
vt 0.20640092 0.85530233
vt 0.6645564 0.85530233
vt 0.6645564 0.8379618
vt 0.29036567 0.8379618
vt 0.29036567 0.85530233
vt 0.3761557 0.8379618
vt 0.3761557 0.85530233
vt 0.56781435 0.85530233
vt 0.56781435 0.8379618
vt 0.47107238 0.85530233
vt 0.47107238 0.8379618
vt 0.29675427 0.2000123
vt 0.39805958 0.10783361
vt 0.49936485 0.19909963
vt 0.29949227 0.79415417
vt 0.49936485 0.6645564
vt 0.39805958 0.76768696
vt 0.11239691 0.6791589
vt 0.1908857 0.76312363
vt 0.49936485 0.42452672
vt 0.121523514 0.42452672
vt 0.195449 0.31135684
vt 0.49936485 0.3140948
vt 0.0850171 0.5532118
vt 0.6983248 0.79415417
vt 0.59975743 0.76768696
vt 0.7010628 0.2000123
vt 0.8032807 0.31135684
vt 0.88633275 0.6791589
vt 0.8069314 0.76312363
vt 0.87629354 0.42452672
vt 0.9137126 0.5532118
vt 0.49936485 0.029344827
vt 0.6006701 0.10783361
vt 0.96299624 0.96025825
vt 0.8671669 0.96025825
vt 0.8671669 0.94200504
vt 0.96299624 0.94200504
vt 0.96299624 0.94200504
vt 0.8671669 0.94200504
vt 0.8671669 0.96025825
vt 0.96299624 0.96025825
vt 0.7713376 0.94200504
vt 0.7713376 0.96025825
vt 0.12973745 0.96025825
vt 0.20640092 0.96025825
vt 0.20640092 0.94200504
vt 0.12973745 0.94200504
vt 0.03299547 0.94200504
vt 0.03299547 0.96025825
vt 0.03299547 0.94200504
vt 0.12973745 0.94200504
vt 0.12973745 0.96025825
vt 0.03299547 0.96025825
vt 0.6645564 0.94200504
vt 0.6645564 0.96025825
vt 0.29036567 0.96025825
vt 0.29036567 0.94200504
vt 0.3761557 0.96025825
vt 0.3761557 0.94200504
vt 0.56781435 0.94200504
vt 0.56781435 0.96025825
vt 0.4701597 0.94200504
vt 0.4701597 0.96025825
vt 0.7713376 0.96025825
vt 0.7713376 0.94200504
vt 0.20640092 0.94200504
vt 0.20640092 0.96025825
vt 0.6645564 0.96025825
vt 0.6645564 0.94200504
vt 0.29036567 0.94200504
vt 0.29036567 0.96025825
vt 0.3761557 0.94200504
vt 0.3761557 0.96025825
vt 0.56781435 0.96025825
vt 0.56781435 0.94200504
vt 0.47107238 0.96025825
vt 0.47107238 0.94200504
vt 0.29675427 0.2000123
vt 0.49936485 0.19909963
vt 0.39805958 0.10783361
vt 0.29949227 0.79415417
vt 0.39805958 0.76768696
vt 0.49936485 0.6645564
vt 0.11239691 0.6791589
vt 0.1908857 0.76312363
vt 0.49936485 0.42452672
vt 0.49936485 0.3140948
vt 0.195449 0.31135684
vt 0.121523514 0.42452672
vt 0.0850171 0.5532118
vt 0.59975743 0.76768696
vt 0.6983248 0.79415417
vt 0.7010628 0.2000123
vt 0.8032807 0.31135684
vt 0.88633275 0.6791589
vt 0.8069314 0.76312363
vt 0.9137126 0.5532118
vt 0.87629354 0.42452672
vt 0.6006701 0.10783361
vt 0.49936485 0.029344827
vn -0.43259478 -0.5566704 0.70921063
vn -0.611753 -0.79035515 0.033121344
vn -0.63512146 -0.75919724 0.14226843
vn -0.45596325 -0.54109144 0.70662403
vn 0.6111969 -0.79035515 0.042155813
vn 0.4320386 -0.5566704 0.7095496
vn 0.45540708 -0.54109144 0.7069826
vn 0.64235485 -0.75919724 0.10488021
vn 0.50214404 -0.49435455 0.70955265
vn 0.7046708 -0.6968813 0.1333999
vn -0.37027884 0.5883845 0.7188166
vn -0.52606857 0.84543765 0.09212484
vn 0.019195676 0.993438 0.11274963
vn 0.011406183 0.6974374 0.71655494
vn -0.5104896 0.49491072 0.7031812
vn -0.7052269 0.6896479 0.16444081
vn 0.7046708 0.6896479 0.16680773
vn 0.50993353 0.49491072 0.70358455
vn 0.36972272 0.5883845 0.7191028
vn 0.5255125 0.84543765 0.09524582
vn 0.5566704 -0.4320386 0.70954967
vn 0.78256565 -0.6111969 0.1184457
vn 0.517723 0.84543765 0.13114125
vn 0.36193323 0.5883845 0.7230547
vn 0.88382906 0.44817376 0.13411367
vn 0.61898637 0.3157524 0.7191358
vn 0.64235485 -0.2918278 0.7086726
vn 0.9071975 -0.4086702 0.09990693
vn 0.6968813 -0.026985168 0.7166787
vn 0.9928819 -0.03477466 0.11391344
vn -0.7052269 -0.6968813 0.13042812
vn -0.5027001 -0.49435455 0.7091588
vn -0.011962295 0.6974374 0.7165459
vn -0.019751787 0.993438 0.112653635
vn -0.7831218 -0.6111969 0.11471076
vn -0.55722654 -0.4320386 0.70911294
vn -0.36248934 0.5883845 0.722776
vn -0.5182791 0.84543765 0.12892613
vn -0.6195425 0.3157524 0.7186568
vn -0.8843851 0.44817376 0.13039647
vn -0.9077536 -0.4086702 0.09472121
vn -0.64291096 -0.2918278 0.7081681
vn -0.993438 -0.03477466 0.10895723
vn -0.6974374 -0.026985168 0.71613747
vn 0.0036166906 -0.0036166906 0.99998695
vn 0.0036166906 -0.0036166906 0.99998695
vn 0.0036166906 -0.0036166906 0.99998695
vn 0.0036166906 -0.0036166906 0.99998695
vn 0.0036166906 -0.0036166906 0.99998695
vn 0.0036166906 -0.0036166906 0.99998695
vn 0.0036166906 -0.0036166906 0.99998695
vn 0.0036166906 -0.0036166906 0.99998695
vn 0.0036166906 -0.0036166906 0.99998695
vn 0.0036166906 -0.0036166906 0.99998695
vn 0.0036166906 -0.0036166906 0.99998695
vn 0.0036166906 -0.0036166906 0.99998695
vn 0.0036166906 -0.0036166906 0.99998695
vn 0.0036166906 -0.0036166906 0.99998695
vn 0.0036166906 -0.0036166906 0.99998695
vn 0.0036166906 -0.0036166906 0.99998695
vn 0.0036166906 -0.0036166906 0.99998695
vn 0.0036166906 -0.0036166906 0.99998695
vn 0.0036166906 -0.0036166906 0.99998695
vn 0.0036166906 -0.0036166906 0.99998695
vn 0.0036166906 -0.0036166906 0.99998695
vn 0.0036166906 -0.0036166906 0.99998695
vn 0.0036166906 -0.0036166906 0.99998695
vn -0.43259478 -0.5566704 -0.70921063
vn -0.45596325 -0.54109144 -0.70662403
vn -0.63512146 -0.75919724 -0.14226843
vn -0.611753 -0.79035515 -0.033121344
vn 0.6111969 -0.79035515 -0.042155813
vn 0.64235485 -0.75919724 -0.10488021
vn 0.45540708 -0.54109144 -0.7069826
vn 0.4320386 -0.5566704 -0.7095496
vn 0.7046708 -0.6968813 -0.1333999
vn 0.50214404 -0.49435455 -0.70955265
vn -0.37027884 0.5883845 -0.7188166
vn 0.011406183 0.6974374 -0.71655494
vn 0.019195676 0.993438 -0.11274963
vn -0.52606857 0.84543765 -0.09212484
vn -0.7052269 0.6896479 -0.16444081
vn -0.5104896 0.49491072 -0.7031812
vn 0.7046708 0.6896479 -0.16680773
vn 0.5255125 0.84543765 -0.09524582
vn 0.36972272 0.5883845 -0.7191028
vn 0.50993353 0.49491072 -0.70358455
vn 0.78256565 -0.6111969 -0.1184457
vn 0.5566704 -0.4320386 -0.70954967
vn 0.36193323 0.5883845 -0.7230547
vn 0.517723 0.84543765 -0.13114125
vn 0.61898637 0.3157524 -0.7191358
vn 0.88382906 0.44817376 -0.13411367
vn 0.9071975 -0.4086702 -0.09990693
vn 0.64235485 -0.2918278 -0.7086726
vn 0.9928819 -0.03477466 -0.11391344
vn 0.6968813 -0.026985168 -0.7166787
vn -0.5027001 -0.49435455 -0.7091588
vn -0.7052269 -0.6968813 -0.13042812
vn -0.019751787 0.993438 -0.112653635
vn -0.011962295 0.6974374 -0.7165459
vn -0.55722654 -0.4320386 -0.70911294
vn -0.7831218 -0.6111969 -0.11471076
vn -0.5182791 0.84543765 -0.12892613
vn -0.36248934 0.5883845 -0.722776
vn -0.8843851 0.44817376 -0.13039647
vn -0.6195425 0.3157524 -0.7186568
vn -0.64291096 -0.2918278 -0.7081681
vn -0.9077536 -0.4086702 -0.09472121
vn -0.6974374 -0.026985168 -0.71613747
vn -0.993438 -0.03477466 -0.10895723
vn 0.0036166906 -0.0036166906 -0.99998695
vn 0.0036166906 -0.0036166906 -0.99998695
vn 0.0036166906 -0.0036166906 -0.99998695
vn 0.0036166906 -0.0036166906 -0.99998695
vn 0.0036166906 -0.0036166906 -0.99998695
vn 0.0036166906 -0.0036166906 -0.99998695
vn 0.0036166906 -0.0036166906 -0.99998695
vn 0.0036166906 -0.0036166906 -0.99998695
vn 0.0036166906 -0.0036166906 -0.99998695
vn 0.0036166906 -0.0036166906 -0.99998695
vn 0.0036166906 -0.0036166906 -0.99998695
vn 0.0036166906 -0.0036166906 -0.99998695
vn 0.0036166906 -0.0036166906 -0.99998695
vn 0.0036166906 -0.0036166906 -0.99998695
vn 0.0036166906 -0.0036166906 -0.99998695
vn 0.0036166906 -0.0036166906 -0.99998695
vn 0.0036166906 -0.0036166906 -0.99998695
vn 0.0036166906 -0.0036166906 -0.99998695
vn 0.0036166906 -0.0036166906 -0.99998695
vn 0.0036166906 -0.0036166906 -0.99998695
vn 0.0036166906 -0.0036166906 -0.99998695
vn 0.0036166906 -0.0036166906 -0.99998695
vn 0.0036166906 -0.0036166906 -0.99998695
g HeartMesh_0
f 3/3/3 2/2/2 1/1/1
f 4/4/4 3/3/3 1/1/1
f 7/7/7 6/6/6 5/5/5
f 8/8/8 7/7/7 5/5/5
f 9/9/9 7/7/7 8/8/8
f 10/10/10 9/9/9 8/8/8
f 13/13/13 12/12/12 11/11/11
f 14/14/14 13/13/13 11/11/11
f 15/15/15 11/11/11 12/12/12
f 16/16/16 15/15/15 12/12/12
f 19/19/19 18/18/18 17/17/17
f 20/20/20 19/19/19 17/17/17
f 21/21/21 9/9/9 10/10/10
f 22/22/22 21/21/21 10/10/10
f 23/23/23 13/13/13 14/14/14
f 24/24/24 23/23/23 14/14/14
f 25/25/25 23/23/23 24/24/24
f 26/26/26 25/25/25 24/24/24
f 27/27/27 21/21/21 22/22/22
f 28/28/28 27/27/27 22/22/22
f 29/29/29 27/27/27 28/28/28
f 30/30/30 29/29/29 28/28/28
f 26/26/26 29/29/29 30/30/30
f 25/25/25 26/26/26 30/30/30
f 31/31/31 3/3/3 4/4/4
f 32/32/32 31/31/31 4/4/4
f 33/33/33 19/19/19 20/20/20
f 34/34/34 33/33/33 20/20/20
f 35/35/35 31/31/31 32/32/32
f 36/36/36 35/35/35 32/32/32
f 37/37/37 33/33/33 34/34/34
f 38/38/38 37/37/37 34/34/34
f 39/39/39 37/37/37 38/38/38
f 40/40/40 39/39/39 38/38/38
f 41/41/41 35/35/35 36/36/36
f 42/42/42 41/41/41 36/36/36
f 43/43/43 41/41/41 42/42/42
f 44/44/44 43/43/43 42/42/42
f 40/40/40 43/43/43 44/44/44
f 39/39/39 40/40/40 44/44/44
f 47/47/47 46/46/46 45/45/45
f 50/50/50 49/49/49 48/48/48
f 49/49/49 51/51/51 48/48/48
f 52/52/52 48/48/48 51/51/51
f 55/55/55 54/54/54 53/53/53
f 56/56/56 55/55/55 53/53/53
f 57/57/57 51/51/51 54/54/54
f 54/54/54 51/51/51 49/49/49
f 53/53/53 54/54/54 49/49/49
f 59/59/59 58/58/58 49/49/49
f 56/56/56 61/61/61 60/60/60
f 47/47/47 56/56/56 60/60/60
f 49/49/49 58/58/58 62/62/62
f 63/63/63 62/62/62 58/58/58
f 65/65/65 64/64/64 62/62/62
f 67/67/67 66/66/66 47/47/47
f 66/66/66 46/46/46 47/47/47
f 47/47/47 60/60/60 67/67/67
f 47/47/47 45/45/45 55/55/55
f 56/56/56 47/47/47 55/55/55
f 56/56/56 53/53/53 64/64/64
f 61/61/61 56/56/56 64/64/64
f 64/64/64 53/53/53 49/49/49
f 62/62/62 64/64/64 49/49/49
f 70/70/70 69/69/69 68/68/68
f 71/71/71 70/70/70 68/68/68
f 74/74/74 73/73/73 72/72/72
f 75/75/75 74/74/74 72/72/72
f 77/77/77 76/76/76 73/73/73
f 74/74/74 77/77/77 73/73/73
f 80/80/80 79/79/79 78/78/78
f 81/81/81 80/80/80 78/78/78
f 83/83/83 82/82/82 81/81/81
f 78/78/78 83/83/83 81/81/81
f 86/86/86 85/85/85 84/84/84
f 87/87/87 86/86/86 84/84/84
f 89/89/89 88/88/88 76/76/76
f 77/77/77 89/89/89 76/76/76
f 91/91/91 90/90/90 79/79/79
f 80/80/80 91/91/91 79/79/79
f 93/93/93 92/92/92 90/90/90
f 91/91/91 93/93/93 90/90/90
f 95/95/95 94/94/94 88/88/88
f 89/89/89 95/95/95 88/88/88
f 97/97/97 96/96/96 94/94/94
f 95/95/95 97/97/97 94/94/94
f 92/92/92 93/93/93 96/96/96
f 97/97/97 92/92/92 96/96/96
f 99/99/99 98/98/98 69/69/69
f 70/70/70 99/99/99 69/69/69
f 101/101/101 100/100/100 85/85/85
f 86/86/86 101/101/101 85/85/85
f 103/103/103 102/102/102 98/98/98
f 99/99/99 103/103/103 98/98/98
f 105/105/105 104/104/104 100/100/100
f 101/101/101 105/105/105 100/100/100
f 107/107/107 106/106/106 104/104/104
f 105/105/105 107/107/107 104/104/104
f 109/109/109 108/108/108 102/102/102
f 103/103/103 109/109/109 102/102/102
f 111/111/111 110/110/110 108/108/108
f 109/109/109 111/111/111 108/108/108
f 106/106/106 107/107/107 110/110/110
f 111/111/111 106/106/106 110/110/110
f 82/82/82 16/16/16 12/12/12
f 81/81/81 82/82/82 12/12/12
f 81/81/81 12/12/12 13/13/13
f 80/80/80 81/81/81 13/13/13
f 80/80/80 13/13/13 23/23/23
f 91/91/91 80/80/80 23/23/23
f 73/73/73 8/8/8 5/5/5
f 72/72/72 73/73/73 5/5/5
f 76/76/76 10/10/10 8/8/8
f 73/73/73 76/76/76 8/8/8
f 88/88/88 22/22/22 10/10/10
f 76/76/76 88/88/88 10/10/10
f 94/94/94 28/28/28 22/22/22
f 88/88/88 94/94/94 22/22/22
f 96/96/96 30/30/30 28/28/28
f 94/94/94 96/96/96 28/28/28
f 93/93/93 25/25/25 30/30/30
f 96/96/96 93/93/93 30/30/30
f 91/91/91 23/23/23 25/25/25
f 93/93/93 91/91/91 25/25/25
f 85/85/85 20/20/20 17/17/17
f 84/84/84 85/85/85 17/17/17
f 100/100/100 34/34/34 20/20/20
f 85/85/85 100/100/100 20/20/20
f 104/104/104 38/38/38 34/34/34
f 100/100/100 104/104/104 34/34/34
f 71/71/71 2/2/2 3/3/3
f 70/70/70 71/71/71 3/3/3
f 70/70/70 3/3/3 31/31/31
f 99/99/99 70/70/70 31/31/31
f 99/99/99 31/31/31 35/35/35
f 103/103/103 99/99/99 35/35/35
f 103/103/103 35/35/35 41/41/41
f 109/109/109 103/103/103 41/41/41
f 109/109/109 41/41/41 43/43/43
f 111/111/111 109/109/109 43/43/43
f 111/111/111 43/43/43 40/40/40
f 106/106/106 111/111/111 40/40/40
f 106/106/106 40/40/40 38/38/38
f 104/104/104 106/106/106 38/38/38
f 114/114/114 113/113/113 112/112/112
f 117/117/117 116/116/116 115/115/115
f 118/118/118 117/117/117 115/115/115
f 115/115/115 119/119/119 118/118/118
f 122/122/122 121/121/121 120/120/120
f 123/123/123 122/122/122 120/120/120
f 118/118/118 124/124/124 123/123/123
f 123/123/123 120/120/120 117/117/117
f 118/118/118 123/123/123 117/117/117
f 126/126/126 125/125/125 117/117/117
f 121/121/121 113/113/113 127/127/127
f 128/128/128 121/121/121 127/127/127
f 126/126/126 117/117/117 129/129/129
f 129/129/129 130/130/130 126/126/126
f 132/132/132 131/131/131 129/129/129
f 134/134/134 133/133/133 113/113/113
f 114/114/114 134/134/134 113/113/113
f 127/127/127 113/113/113 133/133/133
f 113/113/113 121/121/121 122/122/122
f 112/112/112 113/113/113 122/122/122
f 121/121/121 128/128/128 132/132/132
f 120/120/120 121/121/121 132/132/132
f 132/132/132 129/129/129 117/117/117
f 120/120/120 132/132/132 117/117/117
