g HeavyMachineGunTurret_05
v 0.60806453 -0.24117136 -0.80617714
v 0.33669424 -0.24117136 -0.80617714
v 0.31055674 -0.28645217 -0.80598354
v 0.634202 -0.28645217 -0.80598354
v 0.71263874 -0.060023904 -0.40646687
v 0.60804033 0.12109935 -0.40646687
v 0.634202 0.16638017 -0.4066605
v 0.76493794 -0.060048103 -0.4066605
v 0.23212004 -0.060023904 -0.80617714
v 0.33669424 0.12109935 -0.80617714
v 0.31055674 0.16638017 -0.80598354
v 0.17984498 -0.060023904 -0.80598354
v 0.33669424 -0.24117136 -0.40646687
v 0.60806453 -0.24117136 -0.40646687
v 0.634202 -0.28645217 -0.4066605
v 0.31055674 -0.28645217 -0.4066605
v 0.71263874 -0.060023904 -0.80617714
v 0.76493794 -0.060023904 -0.80598354
v 0.634202 0.16638017 -0.80598354
v 0.60806453 0.12109935 -0.80617714
v 0.71263874 -0.060023904 -0.40646687
v 0.60806453 -0.24117136 -0.40646687
v 0.71263874 -0.060023904 -0.80617714
v 0.60806453 -0.24117136 -0.80617714
v 0.31055674 0.16638017 -0.4066605
v 0.31055674 0.16638017 -0.80598354
v 0.634202 0.16638017 -0.80598354
v 0.634202 0.16638017 -0.4066605
v 0.17984498 -0.060023904 -0.4066605
v 0.17984498 -0.060023904 -0.80598354
v 0.17984498 -0.060023904 -0.4066605
v 0.31055674 -0.28645217 -0.4066605
v 0.31055674 -0.28645217 -0.80598354
v 0.17984498 -0.060023904 -0.80598354
v 0.634202 -0.28645217 -0.4066605
v 0.634202 -0.28645217 -0.80598354
v 0.76493794 -0.060048103 -0.4066605
v 0.76493794 -0.060023904 -0.80598354
v 0.23212004 -0.060023904 -0.80617714
v 0.60806453 0.12109935 -0.80617714
v 0.60804033 0.12109935 -0.40646687
v 0.33669424 0.12109935 -0.40646687
v 0.31055674 0.16638017 -0.4066605
v 0.33669424 0.12109935 -0.40646687
v 0.33669424 0.12109935 -0.80617714
v 0.23212004 -0.060023904 -0.80617714
v 0.23212004 -0.060023904 -0.40646687
v 0.33669424 -0.24117136 -0.80617714
v 0.33669424 -0.24117136 -0.40646687
v 0.60806453 -0.24117136 -0.40646687
v 0.60806453 -0.24117136 -0.80617714
v 0.71263874 -0.060023904 -0.80617714
v 0.71263874 -0.060023904 -0.40646687
v 0.60806453 0.12109935 -0.80617714
v 0.60804033 0.12109935 -0.40646687
v 0.60804033 0.12109935 -0.40646687
v 0.60806453 0.12109935 -0.80617714
v -0.62298787 -0.24117136 -0.80617714
v -0.64914966 -0.28645217 -0.80598354
v -0.3255043 -0.28645217 -0.80598354
v -0.3516419 -0.24117136 -0.80617714
v -0.7275622 -0.060048103 -0.40646687
v -0.77986133 -0.060048103 -0.4066605
v -0.64914966 0.16638017 -0.4066605
v -0.62298787 0.12109935 -0.40646687
v -0.24706769 -0.060048103 -0.80617714
v -0.19476843 -0.060048103 -0.80598354
v -0.3255043 0.16638017 -0.80598354
v -0.3516419 0.12109935 -0.80617714
v -0.3516419 -0.24117136 -0.40646687
v -0.3255043 -0.28645217 -0.4066605
v -0.64914966 -0.28645217 -0.4066605
v -0.62298787 -0.24117136 -0.40646687
v -0.7275622 -0.060048103 -0.80617714
v -0.62298787 0.12109935 -0.80617714
v -0.64914966 0.16638017 -0.80598354
v -0.77986133 -0.060048103 -0.80598354
v -0.7275622 -0.060048103 -0.40646687
v -0.62298787 -0.24117136 -0.40646687
v -0.77986133 -0.060048103 -0.4066605
v -0.7275622 -0.060048103 -0.80617714
v -0.77986133 -0.060048103 -0.80598354
v -0.64914966 -0.28645217 -0.80598354
v -0.3255043 0.16638017 -0.4066605
v -0.64914966 0.16638017 -0.4066605
v -0.64914966 0.16638017 -0.80598354
v -0.3255043 0.16638017 -0.80598354
v -0.19476843 -0.060023904 -0.4066605
v -0.19476843 -0.060048103 -0.80598354
v -0.3255043 -0.28645217 -0.80598354
v -0.3255043 -0.28645217 -0.4066605
v -0.19476843 -0.060023904 -0.4066605
v -0.19476843 -0.060048103 -0.80598354
v -0.64914966 -0.28645217 -0.4066605
v -0.64914966 -0.28645217 -0.80598354
v -0.77986133 -0.060048103 -0.4066605
v -0.64914966 -0.28645217 -0.4066605
v -0.77986133 -0.060048103 -0.80598354
v -0.3255043 -0.28645217 -0.80598354
v -0.19476843 -0.060048103 -0.80598354
v -0.3516419 0.12109935 -0.80617714
v -0.3255043 0.16638017 -0.80598354
v -0.3516419 0.12109935 -0.40646687
v -0.62298787 0.12109935 -0.40646687
v -0.3255043 0.16638017 -0.4066605
v -0.3516419 0.12109935 -0.40646687
v -0.24706769 -0.060023904 -0.40646687
v -0.24706769 -0.060048103 -0.80617714
v -0.3516419 0.12109935 -0.80617714
v -0.3516419 -0.24117136 -0.40646687
v -0.3516419 -0.24117136 -0.80617714
v -0.62298787 -0.24117136 -0.40646687
v -0.62298787 -0.24117136 -0.80617714
v -0.7275622 -0.060048103 -0.40646687
v -0.7275622 -0.060048103 -0.80617714
v -0.62298787 0.12109935 -0.40646687
v -0.62298787 0.12109935 -0.80617714
v -0.3516419 0.12109935 -0.40646687
v -0.3516419 0.12109935 -0.80617714
vt 0.27652028 0.8228481
vt 0.2632234 0.8228481
vt 0.26264527 0.82227004
vt 0.27652028 0.82227004
vt 0.28287965 0.8338325
vt 0.27652028 0.8448169
vt 0.27652028 0.8465513
vt 0.2834578 0.8338325
vt 0.2562859 0.8338325
vt 0.26264527 0.8448169
vt 0.26264527 0.84539497
vt 0.2557078 0.8338325
vt 0.26264527 0.82227004
vt 0.27594215 0.82227004
vt 0.27767652 0.8216919
vt 0.2632234 0.82227004
vt 0.28287965 0.8338325
vt 0.2834578 0.8338325
vt 0.27652028 0.84597313
vt 0.27652028 0.8436606
vt 0.2817234 0.8338325
vt 0.27594215 0.82342625
vt 0.2817234 0.8338325
vt 0.27594215 0.82342625
vt 0.3701765 0.7673482
vt 0.3545671 0.7673482
vt 0.3545671 0.780645
vt 0.3701765 0.780645
vt 0.3701765 0.75520754
vt 0.3545671 0.75520754
vt 0.3701765 0.8309419
vt 0.3701765 0.8188013
vt 0.3545671 0.8188013
vt 0.3545671 0.8309419
vt 0.3701765 0.80550444
vt 0.3545671 0.80550444
vt 0.3701765 0.7933638
vt 0.3545671 0.7933638
vt 0.25744218 0.8338325
vt 0.27652028 0.8448169
vt 0.27594215 0.84423876
vt 0.26380154 0.84423876
vt 0.26264527 0.84597313
vt 0.34531713 0.7887387
vt 0.33664525 0.7887387
vt 0.33664525 0.7823794
vt 0.34531713 0.7823794
vt 0.33664525 0.7754419
vt 0.34531713 0.7754419
vt 0.34531713 0.7685044
vt 0.33664525 0.7685044
vt 0.33664525 0.7615669
vt 0.34531713 0.7615669
vt 0.33664525 0.7546294
vt 0.34531713 0.7546294
vt 0.34531713 0.7962544
vt 0.33664525 0.7962544
vt 0.27536404 0.8228481
vt 0.27420777 0.82227004
vt 0.25917655 0.82227004
vt 0.2632234 0.8228481
vt 0.2817234 0.8349887
vt 0.28287965 0.8338325
vt 0.27652028 0.84597313
vt 0.27652028 0.8448169
vt 0.25744218 0.8338325
vt 0.25802028 0.8326763
vt 0.2649578 0.84423876
vt 0.26264527 0.8436606
vt 0.26148903 0.82227004
vt 0.2603328 0.8216919
vt 0.27652028 0.8216919
vt 0.27536404 0.82227004
vt 0.2817234 0.8338325
vt 0.27536404 0.8436606
vt 0.27652028 0.84597313
vt 0.28230152 0.83441067
vt 0.2817234 0.8338325
vt 0.27594215 0.82342625
vt 0.2840359 0.8338325
vt 0.28230152 0.8349887
vt 0.2840359 0.83441067
vt 0.27652028 0.8211137
vt 0.3701765 0.7673482
vt 0.3701765 0.780645
vt 0.3545671 0.780645
vt 0.3545671 0.7673482
vt 0.3701765 0.75520754
vt 0.3545671 0.75520754
vt 0.3545671 0.8188013
vt 0.3701765 0.8188013
vt 0.3701765 0.8309419
vt 0.3545671 0.8309419
vt 0.3701765 0.8072388
vt 0.3545671 0.80550444
vt 0.3701765 0.7933638
vt 0.3701765 0.80550444
vt 0.3545671 0.7933638
vt 0.26264527 0.8216919
vt 0.25512967 0.8338325
vt 0.26380154 0.84423876
vt 0.26264527 0.84597313
vt 0.26380154 0.84423876
vt 0.27594215 0.84423876
vt 0.26264527 0.84597313
vt 0.34531713 0.7962544
vt 0.34531713 0.7893169
vt 0.33664525 0.7887387
vt 0.33664525 0.79567623
vt 0.34531713 0.7823794
vt 0.33664525 0.7823794
vt 0.34531713 0.7754419
vt 0.33664525 0.7754419
vt 0.34531713 0.7685044
vt 0.33664525 0.76792634
vt 0.34531713 0.7615669
vt 0.33664525 0.7615669
vt 0.34531713 0.7546294
vt 0.33664525 0.7546294
vn 0.0039215684 -0.0039215684 -0.9999846
vn -0.003921509 -0.0039215684 -0.9999846
vn -0.003921509 -0.0039215684 -0.9999846
vn 0.0039215684 -0.0039215684 -0.9999846
vn 0.0039215684 0.003921509 0.9999846
vn 0.0039215684 0.003921509 0.9999846
vn 0.0039215684 0.003921509 0.9999846
vn 0.0039215684 0.003921509 0.9999846
vn -0.003921509 0.003921509 -0.9999846
vn -0.003921509 0.003921509 -0.9999846
vn -0.003921509 0.003921509 -0.9999846
vn -0.003921509 0.003921509 -0.9999846
vn -0.003921509 -0.0039215684 0.9999846
vn 0.0039215684 -0.0039215684 0.9999846
vn 0.0039215684 -0.0039215684 0.9999846
vn -0.003921509 -0.0039215684 0.9999846
vn 0.0039215684 0.003921509 -0.9999846
vn 0.0039215684 0.003921509 -0.9999846
vn 0.0039215684 0.003921509 -0.9999846
vn 0.0039215684 0.003921509 -0.9999846
vn 0.0039215684 0.003921509 0.9999846
vn 0.0039215684 -0.0039215684 0.9999846
vn 0.0039215684 0.003921509 -0.9999846
vn 0.0039215684 -0.0039215684 -0.9999846
vn -0.4425082 0.8967644 -0
vn -0.4425082 0.8967644 -0
vn 0.44250825 0.8967644 -0
vn 0.44250825 0.8967644 -0
vn -0.99999225 0.003921509 -0.00034492963
vn -0.99999225 0.003921509 -0.00034492963
vn -0.99999225 0.003921509 -0.00034492963
vn -0.4425082 -0.89676446 -0
vn -0.4425082 -0.89676446 -0
vn -0.99999225 0.003921509 -0.00034492963
vn 0.4425082 -0.8967644 -0
vn 0.4425082 -0.8967644 -0
vn 0.9999924 0.003921509 -0
vn 0.9999924 0.003921509 -0
vn -0.003921509 0.003921509 -0.9999846
vn 0.0039215684 0.003921509 -0.9999846
vn 0.0039215684 0.003921509 0.9999846
vn -0.003921509 0.003921509 0.9999846
vn -0.003921509 0.003921509 0.9999846
vn 0.4352908 -0.89803237 -0.06371649
vn 0.4352908 -0.89803237 -0.06371649
vn 0.9999924 0.003921509 -0
vn 0.9999924 0.003921509 -0
vn 0.4352908 0.8980323 -0.06371696
vn 0.4352908 0.8980323 -0.06371696
vn -0.4352907 0.8980323 -0.063717894
vn -0.4352907 0.8980323 -0.063717894
vn -0.99999225 0.003921509 -0.00034492963
vn -0.99999225 0.003921509 -0.00034492963
vn -0.4352907 -0.89803237 -0.06371743
vn -0.4352907 -0.89803237 -0.06371743
vn -0.4352907 -0.89803237 -0.06371743
vn -0.4352907 -0.89803237 -0.06371743
vn -0.003921509 -0.0039215684 -0.9999846
vn -0.003921509 -0.0039215684 -0.9999846
vn 0.0039215684 -0.0039215684 -0.9999846
vn 0.0039215684 -0.0039215684 -0.9999846
vn -0.003921509 0.003921509 0.9999846
vn -0.003921509 0.003921509 0.9999846
vn -0.003921509 0.003921509 0.9999846
vn -0.003921509 0.003921509 0.9999846
vn 0.0039215684 0.003921509 -0.9999846
vn 0.0039215684 0.003921509 -0.9999846
vn 0.0039215684 0.003921509 -0.9999846
vn 0.0039215684 0.003921509 -0.9999846
vn -0.003921509 -0.0039215684 0.9999846
vn -0.003921509 -0.0039215684 0.9999846
vn -0.003921509 -0.0039215684 0.9999846
vn -0.003921509 -0.0039215684 0.9999846
vn -0.003921509 0.003921509 -0.9999846
vn -0.003921509 0.003921509 -0.9999846
vn -0.003921509 0.003921509 -0.9999846
vn -0.003921509 0.003921509 -0.9999846
vn -0.003921509 0.003921509 0.9999846
vn -0.003921509 -0.0039215684 0.9999846
vn -0.003921509 0.003921509 0.9999846
vn -0.003921509 0.003921509 -0.9999846
vn -0.003921509 0.003921509 -0.9999846
vn -0.003921509 -0.0039215684 -0.9999846
vn 0.44250825 0.8967644 -0
vn -0.4425082 0.8967644 -0
vn -0.4425082 0.8967644 -0
vn 0.44250825 0.8967644 -0
vn 0.9999924 0.003921509 -0
vn 0.9999924 0.003921509 -0
vn 0.4425082 -0.8967644 -0
vn 0.4425082 -0.8967644 -0
vn 0.9999924 0.003921509 -0
vn 0.9999924 0.003921509 -0
vn -0.4425082 -0.89676446 -0
vn -0.4425082 -0.89676446 -0
vn -0.99999225 0.003921509 -0.00034492963
vn -0.4425082 -0.89676446 -0
vn -0.99999225 0.003921509 -0.00034492963
vn 0.0039215684 -0.0039215684 -0.9999846
vn 0.0039215684 0.003921509 -0.9999846
vn 0.0039215684 0.003921509 -0.9999846
vn 0.0039215684 0.003921509 -0.9999846
vn -0.003921509 0.003921509 0.9999846
vn -0.003921509 0.003921509 0.9999846
vn -0.003921509 0.003921509 0.9999846
vn -0.4352907 -0.89803237 -0.06371743
vn -0.99999225 0.003921509 -0.00034492963
vn -0.99999225 0.003921509 -0.00034492963
vn -0.4352907 -0.89803237 -0.06371743
vn -0.4352907 0.8980323 -0.063717894
vn -0.4352907 0.8980323 -0.063717894
vn 0.4352908 0.8980323 -0.06371696
vn 0.4352908 0.8980323 -0.06371696
vn 0.9999924 0.003921509 -0
vn 0.9999924 0.003921509 -0
vn 0.4352908 -0.89803237 -0.06371649
vn 0.4352908 -0.89803237 -0.06371649
vn -0.4352907 -0.89803237 -0.06371743
vn -0.4352907 -0.89803237 -0.06371743
g HeavyMachineGunTurret_05_0
f 3/3/3 2/2/2 1/1/1
f 4/4/4 3/3/3 1/1/1
f 7/7/7 6/6/6 5/5/5
f 8/8/8 7/7/7 5/5/5
f 11/11/11 10/10/10 9/9/9
f 12/12/12 11/11/11 9/9/9
f 15/15/15 14/14/14 13/13/13
f 16/16/16 15/15/15 13/13/13
f 19/19/19 18/18/18 17/17/17
f 20/20/20 19/19/19 17/17/17
f 15/15/15 8/8/8 21/21/21
f 22/22/22 15/15/15 21/21/21
f 4/4/4 24/24/24 23/23/23
f 18/18/18 4/4/4 23/23/23
f 27/27/27 26/26/26 25/25/25
f 28/28/28 27/27/27 25/25/25
f 29/29/29 25/25/25 26/26/26
f 30/30/30 29/29/29 26/26/26
f 33/33/33 32/32/32 31/31/31
f 34/34/34 33/33/33 31/31/31
f 35/35/35 32/32/32 33/33/33
f 36/36/36 35/35/35 33/33/33
f 37/37/37 35/35/35 36/36/36
f 38/38/38 37/37/37 36/36/36
f 28/28/28 37/37/37 38/38/38
f 27/27/27 28/28/28 38/38/38
f 3/3/3 12/12/12 39/39/39
f 2/2/2 3/3/3 39/39/39
f 19/19/19 40/40/40 10/10/10
f 11/11/11 19/19/19 10/10/10
f 42/42/42 41/41/41 7/7/7
f 43/43/43 42/42/42 7/7/7
f 46/46/46 45/45/45 44/44/44
f 47/47/47 46/46/46 44/44/44
f 48/48/48 46/46/46 47/47/47
f 49/49/49 48/48/48 47/47/47
f 48/48/48 49/49/49 50/50/50
f 51/51/51 48/48/48 50/50/50
f 52/52/52 51/51/51 50/50/50
f 53/53/53 52/52/52 50/50/50
f 54/54/54 52/52/52 53/53/53
f 55/55/55 54/54/54 53/53/53
f 45/45/45 57/57/57 56/56/56
f 44/44/44 45/45/45 56/56/56
f 60/60/60 59/59/59 58/58/58
f 61/61/61 60/60/60 58/58/58
f 64/64/64 63/63/63 62/62/62
f 65/65/65 64/64/64 62/62/62
f 68/68/68 67/67/67 66/66/66
f 69/69/69 68/68/68 66/66/66
f 72/72/72 71/71/71 70/70/70
f 73/73/73 72/72/72 70/70/70
f 76/76/76 75/75/75 74/74/74
f 77/77/77 76/76/76 74/74/74
f 72/72/72 79/79/79 78/78/78
f 80/80/80 72/72/72 78/78/78
f 83/83/83 82/82/82 81/81/81
f 58/58/58 83/83/83 81/81/81
f 86/86/86 85/85/85 84/84/84
f 87/87/87 86/86/86 84/84/84
f 87/87/87 84/84/84 88/88/88
f 89/89/89 87/87/87 88/88/88
f 92/92/92 91/91/91 90/90/90
f 93/93/93 92/92/92 90/90/90
f 90/90/90 91/91/91 94/94/94
f 95/95/95 90/90/90 94/94/94
f 95/95/95 97/97/97 96/96/96
f 98/98/98 95/95/95 96/96/96
f 98/98/98 96/96/96 85/85/85
f 86/86/86 98/98/98 85/85/85
f 99/99/99 61/61/61 66/66/66
f 100/100/100 99/99/99 66/66/66
f 101/101/101 75/75/75 76/76/76
f 102/102/102 101/101/101 76/76/76
f 64/64/64 104/104/104 103/103/103
f 105/105/105 64/64/64 103/103/103
f 108/108/108 107/107/107 106/106/106
f 109/109/109 108/108/108 106/106/106
f 111/111/111 110/110/110 107/107/107
f 108/108/108 111/111/111 107/107/107
f 112/112/112 110/110/110 111/111/111
f 113/113/113 112/112/112 111/111/111
f 115/115/115 114/114/114 112/112/112
f 113/113/113 115/115/115 112/112/112
f 117/117/117 116/116/116 114/114/114
f 115/115/115 117/117/117 114/114/114
f 119/119/119 118/118/118 116/116/116
f 117/117/117 119/119/119 116/116/116
