g HeavyMachineGunTurret_06
v 59.06549 -29.275002 -10.243313
v 63.145084 -21.474243 29.602596
v 63.145084 -21.474243 -10.243313
v 59.06549 -29.275002 29.575619
v 59.06549 -29.275002 29.575619
v 17.728031 -29.275002 -10.243313
v 17.728031 -29.275002 29.575619
v 59.06549 -29.275002 -10.243313
v 63.145084 -21.474243 29.602596
v 33.27366 7.4664116 29.602596
v 43.52179 7.4664116 29.602596
v 17.728031 -29.275002 29.575619
v 13.648434 -21.474243 29.602596
v 59.06549 -29.275002 29.575619
v 43.52179 7.4664116 29.602596
v 63.145084 -21.474243 -10.243313
v 63.145084 -21.474243 29.602596
v 43.52179 7.4664116 -10.243313
v 13.648434 -21.474243 29.602596
v 17.728031 -29.275002 -10.243313
v 13.648434 -21.47617 -10.243313
v 17.728031 -29.275002 29.575619
v 13.648434 -21.474243 29.602596
v 33.27366 7.4664116 -10.243313
v 33.27366 7.4664116 29.602596
v 13.648434 -21.47617 -10.243313
v 33.27366 7.4664116 -10.243313
v 43.52179 7.4664116 29.602596
v 33.27366 7.4664116 29.602596
v 43.52179 7.4664116 -10.243313
v -59.065487 -29.275002 -10.243313
v -63.145084 -21.474243 29.602596
v -59.065487 -29.275002 29.575619
v -63.145084 -21.474243 -10.243313
v -59.065487 -29.275002 29.575619
v -17.728031 -29.275002 -10.243313
v -59.065487 -29.275002 -10.243313
v -17.728031 -29.275002 29.575619
v -43.521786 7.4664116 29.602596
v -63.145084 -21.474243 -10.243313
v -43.521786 7.4664116 -10.243313
v -63.145084 -21.474243 29.602596
v -13.648434 -21.474243 29.602596
v -17.728031 -29.275002 -10.243313
v -17.728031 -29.275002 29.575619
v -13.648434 -21.47617 -10.052532
v -13.648434 -21.474243 29.602596
v -33.271732 7.4664116 -10.052532
v -13.648434 -21.47617 -10.052532
v -33.271732 7.4664116 29.602596
v -17.728031 -29.275002 29.575619
v -33.271732 7.4664116 29.602596
v -13.648434 -21.474243 29.602596
v -63.145084 -21.474243 29.602596
v -43.521786 7.4664116 29.602596
v -59.065487 -29.275002 29.575619
v -33.271732 7.4664116 -10.052532
v -43.521786 7.4664116 29.602596
v -43.521786 7.4664116 -10.243313
v -33.271732 7.4664116 29.602596
v -3.5679588 6.1887627 -14.509834
v 7.6128693 29.274998 -14.511761
v 5.3023186 6.18491 -14.509834
v -6.3082466 29.274998 -14.511761
v 7.6128693 29.274998 -14.511761
v -2.5813026 29.273067 -28.804798
v 4.209675 29.273067 -28.81636
v -6.3082466 29.274998 -14.511761
v 63.145084 -21.474243 -10.243313
v 43.52179 7.4664116 -10.243313
v 33.27366 7.4664116 -10.243313
v 13.648434 -21.47617 -10.243313
v 17.728031 -29.275002 -10.243313
v 59.06549 -29.275002 -10.243313
v -63.145084 -21.474243 -10.243313
v -13.648434 -21.47617 -10.052532
v -33.271732 7.4664116 -10.052532
v -43.521786 7.4664116 -10.243313
v -17.728031 -29.275002 -10.243313
v -59.065487 -29.275002 -10.243313
vt 0.36370805 0.85650545
vt 0.35105675 0.8589152
vt 0.36370805 0.8589152
vt 0.35105675 0.85650545
vt 0.35045433 0.8486737
vt 0.34322503 0.8414444
vt 0.34322503 0.8486737
vt 0.35045433 0.8414444
vt 0.34804457 0.86072254
vt 0.33780307 0.87096405
vt 0.3444299 0.8733738
vt 0.33298352 0.8583128
vt 0.33177865 0.86132497
vt 0.34623724 0.8583128
vt 0.35105675 0.87096405
vt 0.36370805 0.8589152
vt 0.35105675 0.8589152
vt 0.36370805 0.87096405
vt 0.35105675 0.8589152
vt 0.36370805 0.85650545
vt 0.36370805 0.8589152
vt 0.35105675 0.85650545
vt 0.35105675 0.8589152
vt 0.36370805 0.87096405
vt 0.35105675 0.87096405
vt 0.36370805 0.8589152
vt 0.36732268 0.8703616
vt 0.37093735 0.8571079
vt 0.36732268 0.8571079
vt 0.37093735 0.8703616
vt 0.36370805 0.85650545
vt 0.35105675 0.8589152
vt 0.35105675 0.85650545
vt 0.36370805 0.8589152
vt 0.35045433 0.8486737
vt 0.35045433 0.8486737
vt 0.35045433 0.8414444
vt 0.34322503 0.8486737
vt 0.35105675 0.87096405
vt 0.36370805 0.8589152
vt 0.36370805 0.87096405
vt 0.35105675 0.8589152
vt 0.35105675 0.8589152
vt 0.36370805 0.85650545
vt 0.35105675 0.85650545
vt 0.36370805 0.8589152
vt 0.35105675 0.8589152
vt 0.36370805 0.87096405
vt 0.36370805 0.8589152
vt 0.35105675 0.87096405
vt 0.33298352 0.8583128
vt 0.33780307 0.87096405
vt 0.33177865 0.86132497
vt 0.34804457 0.86072254
vt 0.3414177 0.8703616
vt 0.34623724 0.8583128
vt 0.36732268 0.8703616
vt 0.37093735 0.8571079
vt 0.37093735 0.8703616
vt 0.36732268 0.8571079
vt 0.2576783 0.7980686
vt 0.26008806 0.8034906
vt 0.2594856 0.7980686
vt 0.25707585 0.8034906
vt 0.2594856 0.8071052
vt 0.2576783 0.809515
vt 0.25888318 0.809515
vt 0.25707585 0.8071052
vt 0.36190072 0.8625299
vt 0.36190072 0.8625299
vt 0.36190072 0.8625299
vt 0.36190072 0.8625299
vt 0.36190072 0.8625299
vt 0.36190072 0.8625299
vt 0.36190072 0.8625299
vt 0.36190072 0.8625299
vt 0.36190072 0.8625299
vt 0.36190072 0.8625299
vt 0.36190072 0.8625299
vt 0.36190072 0.8625299
vn 0.8823462 -0.46666312 -0.06075117
vn 0.8823462 -0.46666312 -0.06075117
vn 0.8823462 -0.46666312 -0.06075117
vn 0.8823462 -0.46666312 -0.06075117
vn -0.003921509 -0.9999924 -0
vn -0.003921509 -0.9999924 -0
vn -0.003921509 -0.9999924 -0
vn -0.003921509 -0.9999924 -0
vn -0.003921509 -0.0039215684 0.9999846
vn -0.003921509 -0.0039215684 0.9999846
vn -0.003921509 0.003921509 0.9999846
vn -0.003921509 -0.0039215684 0.9999846
vn 0.0039215684 -0.0039215684 0.9999846
vn -0.003921509 -0.0039215684 0.9999846
vn 0.8274447 0.5607799 -0.02934617
vn 0.8274447 0.5607799 -0.02934617
vn 0.8274447 0.5607799 -0.02934617
vn 0.8274447 0.5607799 -0.02934617
vn -0.88234615 -0.46666312 -0.06075215
vn -0.88234615 -0.46666312 -0.06075215
vn -0.88234615 -0.46666312 -0.06075215
vn -0.88234615 -0.46666312 -0.06075215
vn -0.82744455 0.5607799 -0.029349217
vn -0.82744455 0.5607799 -0.029349217
vn -0.82744455 0.5607799 -0.029349217
vn -0.82744455 0.5607799 -0.029349217
vn -0.003921509 0.99999225 -0.00034526698
vn -0.003921509 0.99999225 -0.00034526698
vn -0.003921509 0.99999225 -0.00034526698
vn -0.003921509 0.99999225 -0.00034526698
vn -0.88234615 -0.46666312 -0.06075215
vn -0.88234615 -0.46666312 -0.06075215
vn -0.88234615 -0.46666312 -0.06075215
vn -0.88234615 -0.46666312 -0.06075215
vn -0.003921509 -0.9999924 -0
vn -0.003921509 -0.9999924 -0
vn -0.003921509 -0.9999924 -0
vn -0.003921509 -0.9999924 -0
vn -0.82744455 0.5607799 -0.029349217
vn -0.82744455 0.5607799 -0.029349217
vn -0.82744455 0.5607799 -0.029349217
vn -0.82744455 0.5607799 -0.029349217
vn 0.8823462 -0.46666312 -0.06075117
vn 0.8823462 -0.46666312 -0.06075117
vn 0.8823462 -0.46666312 -0.06075117
vn 0.8823462 -0.46666312 -0.06075117
vn 0.8274447 0.5607799 -0.02934617
vn 0.8274447 0.5607799 -0.02934617
vn 0.8274447 0.5607799 -0.02934617
vn 0.8274447 0.5607799 -0.02934617
vn 0.0039215684 -0.0039215684 0.9999846
vn 0.0039215684 -0.0039215684 0.9999846
vn -0.003921509 -0.0039215684 0.9999846
vn 0.0039215684 -0.0039215684 0.9999846
vn -0.003921509 0.003921509 0.9999846
vn -0.003921509 -0.0039215684 0.9999846
vn -0.003921509 0.99999225 -0.00034526698
vn -0.003921509 0.99999225 -0.00034526698
vn -0.003921509 0.99999225 -0.00034526698
vn -0.003921509 0.99999225 -0.00034526698
vn -0.003921509 0.003921509 0.9999846
vn -0.003921509 0.003921509 0.9999846
vn -0.003921509 0.003921509 0.9999846
vn -0.003921509 0.003921509 0.9999846
vn -0.003921509 0.99999225 -0.00034526698
vn -0.003921509 0.99999225 -0.00034526698
vn -0.003921509 0.99999225 -0.00034526698
vn -0.003921509 0.99999225 -0.00034526698
vn -0.003921509 0.003921509 -0.9999846
vn -0.003921509 0.003921509 -0.9999846
vn -0.003921509 0.003921509 -0.9999846
vn -0.003921509 0.003921509 -0.9999846
vn -0.003921509 0.003921509 -0.9999846
vn -0.003921509 0.003921509 -0.9999846
vn 0.0039215684 0.003921509 -0.9999846
vn 0.0039215684 0.003921509 -0.9999846
vn 0.0039215684 0.003921509 -0.9999846
vn 0.0039215684 0.003921509 -0.9999846
vn 0.0039215684 0.011764526 -0.9999231
vn 0.0039215684 0.011764526 -0.9999231
g HeavyMachineGunTurret_06_0
f 3/3/3 2/2/2 1/1/1
f 4/4/4 1/1/1 2/2/2
f 7/7/7 6/6/6 5/5/5
f 8/8/8 5/5/5 6/6/6
f 11/11/11 10/10/10 9/9/9
f 13/13/13 12/12/12 10/10/10
f 10/10/10 12/12/12 9/9/9
f 9/9/9 12/12/12 14/14/14
f 17/17/17 16/16/16 15/15/15
f 18/18/18 15/15/15 16/16/16
f 21/21/21 20/20/20 19/19/19
f 22/22/22 19/19/19 20/20/20
f 25/25/25 24/24/24 23/23/23
f 26/26/26 23/23/23 24/24/24
f 29/29/29 28/28/28 27/27/27
f 30/30/30 27/27/27 28/28/28
f 33/33/33 32/32/32 31/31/31
f 34/34/34 31/31/31 32/32/32
f 37/37/37 36/36/36 35/35/35
f 38/38/38 35/35/35 36/36/36
f 41/41/41 40/40/40 39/39/39
f 42/42/42 39/39/39 40/40/40
f 45/45/45 44/44/44 43/43/43
f 46/46/46 43/43/43 44/44/44
f 49/49/49 48/48/48 47/47/47
f 50/50/50 47/47/47 48/48/48
f 53/53/53 52/52/52 51/51/51
f 55/55/55 54/54/54 52/52/52
f 52/52/52 54/54/54 51/51/51
f 51/51/51 54/54/54 56/56/56
f 59/59/59 58/58/58 57/57/57
f 60/60/60 57/57/57 58/58/58
f 63/63/63 62/62/62 61/61/61
f 64/64/64 61/61/61 62/62/62
f 67/67/67 66/66/66 65/65/65
f 68/68/68 65/65/65 66/66/66
f 71/71/71 70/70/70 69/69/69
f 72/72/72 71/71/71 69/69/69
f 73/73/73 72/72/72 69/69/69
f 74/74/74 73/73/73 69/69/69
f 77/77/77 76/76/76 75/75/75
f 78/78/78 77/77/77 75/75/75
f 75/75/75 76/76/76 79/79/79
f 80/80/80 75/75/75 79/79/79
