g HeavyShassis_04_CorpsePart
v 73.11618 59.252106 -68.656136
v 73.11618 59.252106 -43.213497
v 48.09217 95.62749 0.4423294
v 47.005337 95.6248 -47.34615
v -54.934296 42.59001 -77.34007
v 55.52826 42.922768 -77.34007
v 61.305923 59.217224 -80.2383
v -60.805878 58.852264 -80.2383
v 67.3412 42.957657 -65.75792
v 67.3412 42.957657 -61.330074
v 73.11618 59.252106 -43.213497
v 73.11618 59.252106 -68.656136
v -60.805878 58.852264 -80.2383
v 61.305923 59.217224 -80.2383
v 36.92328 95.59529 -54.83322
v -36.643288 95.37256 -54.83322
v 73.11618 59.252106 -68.656136
v 47.005337 95.6248 -47.34615
v 61.305923 59.217224 -80.2383
v 55.52826 42.922768 -77.34007
v -72.61882 58.814697 -68.656136
v -46.72534 95.34303 -47.34615
v -47.81218 95.34035 0.4423294
v -72.61882 58.814697 -43.213497
v -66.74455 42.555122 -65.75792
v -72.61882 58.814697 -68.656136
v -72.61882 58.814697 -43.213497
v -66.74455 42.555122 -61.330074
v -46.72534 95.34303 -47.34615
v -72.61882 58.814697 -68.656136
v -54.934296 42.59001 -77.34007
v -60.805878 58.852264 -80.2383
v 67.3412 42.957657 -61.330074
v 43.672382 42.8852 -72.50702
v 48.09217 95.62749 0.4423294
v 43.672382 42.8852 -72.50702
v 67.3412 42.957657 -61.330074
v 67.3412 42.957657 -65.75792
v 55.52826 42.922768 -77.34007
v -54.934296 42.59001 -77.34007
v -43.07573 42.624893 -72.50702
v -72.61882 58.814697 -43.213497
v -47.81218 95.34035 0.4423294
v -66.74455 42.555122 -61.330074
v -66.74455 42.555122 -65.75792
v -66.74455 42.555122 -61.330074
v 67.3412 42.957657 -61.330074
v 48.09217 95.62749 0.4423294
v 73.11618 59.252106 -43.213497
v -66.74455 42.555122 -61.330074
v -47.81218 95.34035 0.4423294
v -43.07573 42.624893 -72.50702
v 47.005337 95.6248 -47.34615
v -46.72534 95.34303 -47.34615
v -36.643288 95.37256 -54.83322
v 36.92328 95.59529 -54.83322
v 48.09217 95.62749 0.4423294
v -47.81218 95.34035 0.4423294
vt 0.4072641 0.6890948
vt 0.47772175 0.6890948
vt 0.5987432 0.7877355
vt 0.46611696 0.7877355
vt 0.07404079 0.8830606
vt 0.37990993 0.8830606
vt 0.39648825 0.83166796
vt 0.05829143 0.83166796
vt 0.4155532 0.6501358
vt 0.42798692 0.6501358
vt 0.47772175 0.6890948
vt 0.4072641 0.6890948
vt 0.05829143 0.83166796
vt 0.39648825 0.83166796
vt 0.32934624 0.73634285
vt 0.12543344 0.73634285
vt 0.41803998 0.83166796
vt 0.3517269 0.73634285
vt 0.38985693 0.6890948
vt 0.39814603 0.6443334
vt 0.4072641 0.6890948
vt 0.46611696 0.7877355
vt 0.5987432 0.7877355
vt 0.47772175 0.6890948
vt 0.4155532 0.6501358
vt 0.4072641 0.6890948
vt 0.47772175 0.6890948
vt 0.42798692 0.6501358
vt 0.10222386 0.73634285
vt 0.03508185 0.83166796
vt 0.39814603 0.6443334
vt 0.38985693 0.6890948
vt 0.3243727 0.35587144
vt 0.3243727 0.35587144
vt 0.3243727 0.35587144
vt 0.3243727 0.35587144
vt 0.3243727 0.35587144
vt 0.3243727 0.35587144
vt 0.3243727 0.35587144
vt 0.3243727 0.35587144
vt 0.3243727 0.35587144
vt 0.3243727 0.35587144
vt 0.3243727 0.35587144
vt 0.3243727 0.35587144
vt 0.3243727 0.35587144
vt 0.3243727 0.35587144
vt 0.3243727 0.35587144
vt 0.3243727 0.35587144
vt 0.3243727 0.35587144
vt 0.3243727 0.35587144
vt 0.3243727 0.35587144
vt 0.3243727 0.35587144
vt 0.3517269 0.73634285
vt 0.10222386 0.73634285
vt 0.12543344 0.73634285
vt 0.32934624 0.73634285
vt 0.3525558 0.7164489
vt 0.10056603 0.7164489
vn 0.72548467 0.65489686 -0.21161775
vn 0.8116088 0.58420146 -0
vn 0.8116088 0.58420146 -0
vn 0.7490139 0.6392107 -0.17432119
vn -0.066666126 -0.1999985 -0.97752553
vn 0.066666186 -0.1999985 -0.97752553
vn 0.11372465 -0.21568465 -0.96981794
vn -0.11372459 -0.21568465 -0.96981794
vn 0.8509739 -0.36470312 -0.3779353
vn 0.9430625 -0.33261544 -0
vn 0.9430625 -0.33261544 -0
vn 0.8431308 -0.36470312 -0.3951228
vn -0.098038435 0.6078384 -0.7879854
vn 0.098038495 0.6078384 -0.7879854
vn 0.05098003 0.59215224 -0.8042119
vn -0.050979972 0.59215224 -0.8042119
vn 0.72548467 0.65489686 -0.21161775
vn 0.7490139 0.6392107 -0.17432119
vn 0.11372465 -0.21568465 -0.96981794
vn 0.066666186 -0.1999985 -0.97752553
vn -0.7254846 0.64705384 -0.23450676
vn -0.7568569 0.6313677 -0.16894504
vn -0.81794286 0.57529944 -0
vn -0.81794286 0.57529944 -0
vn -0.85097384 -0.3725462 -0.37020648
vn -0.8431307 -0.3725462 -0.38773698
vn -0.93724763 -0.3411739 -0.071883716
vn -0.93724763 -0.3411739 -0.071883716
vn -0.7568569 0.6313677 -0.16894504
vn -0.7254846 0.64705384 -0.23450676
vn -0.066666126 -0.1999985 -0.97752553
vn -0.11372459 -0.21568465 -0.96981794
vn -0.27058613 -0.77254313 0.57442164
vn -0.019607663 -0.8117585 0.583664
vn -0.003921509 -0.8117585 0.5839801
vn 0.0039215684 -0.9999924 -0
vn 0.0039215684 -0.9999924 -0
vn 0.0039215684 -0.9999924 -0
vn 0.0039215684 -0.9999924 -0
vn 0.0039215684 -0.9999924 -0
vn 0.0039215684 -0.9999924 -0
vn -0.050979972 -0.7490139 0.66059005
vn -0.050979972 -0.7490139 0.66059005
vn -0.050979972 -0.7490139 0.66059005
vn 0.0039215684 -0.9999924 -0
vn 0.0039215684 -0.9999924 -0
vn 0.05882311 -0.7490139 0.6599379
vn 0.05882311 -0.7490139 0.6599379
vn 0.05882311 -0.7490139 0.6599379
vn 0.2705862 -0.77254313 0.5744216
vn 0.011764646 -0.8117585 0.58387476
vn 0.0274508 -0.8117585 0.58334774
vn -0.003921509 0.99999225 -0.00034526698
vn -0.003921509 0.99999225 -0.00034526698
vn -0.003921509 0.99999225 -0.00034526698
vn -0.003921509 0.99999225 -0.00034526698
vn -0.003921509 0.99999225 -0.00034526698
vn -0.003921509 0.99999225 -0.00034526698
g HeavyShassis_04_CorpsePart_0
f 3/3/3 2/2/2 1/1/1
f 4/4/4 3/3/3 1/1/1
f 7/7/7 6/6/6 5/5/5
f 8/8/8 7/7/7 5/5/5
f 11/11/11 10/10/10 9/9/9
f 12/12/12 11/11/11 9/9/9
f 15/15/15 14/14/14 13/13/13
f 16/16/16 15/15/15 13/13/13
f 18/18/18 17/17/17 14/14/14
f 15/15/15 18/18/18 14/14/14
f 19/19/19 12/12/12 9/9/9
f 20/20/20 19/19/19 9/9/9
f 23/23/23 22/22/22 21/21/21
f 24/24/24 23/23/23 21/21/21
f 27/27/27 26/26/26 25/25/25
f 28/28/28 27/27/27 25/25/25
f 13/13/13 30/30/30 29/29/29
f 16/16/16 13/13/13 29/29/29
f 31/31/31 25/25/25 26/26/26
f 32/32/32 31/31/31 26/26/26
f 35/35/35 34/34/34 33/33/33
f 38/38/38 37/37/37 36/36/36
f 39/39/39 38/38/38 36/36/36
f 40/40/40 39/39/39 36/36/36
f 41/41/41 40/40/40 36/36/36
f 44/44/44 43/43/43 42/42/42
f 45/45/45 40/40/40 41/41/41
f 46/46/46 45/45/45 41/41/41
f 49/49/49 48/48/48 47/47/47
f 52/52/52 51/51/51 50/50/50
f 51/51/51 52/52/52 34/34/34
f 35/35/35 51/51/51 34/34/34
f 55/55/55 54/54/54 53/53/53
f 56/56/56 55/55/55 53/53/53
f 54/54/54 58/58/58 57/57/57
f 53/53/53 54/54/54 57/57/57
