g HeavyShassis_DefaultPart_01_CorpsePart
v 67.3412 42.957695 -61.33007
v 43.67237 42.88524 -72.50702
v 48.092163 95.62755 0.44235992
v 43.67237 42.88524 -72.50702
v 67.3412 42.957695 -61.33007
v 67.3412 42.957695 -65.75791
v 55.52825 42.922806 -77.34007
v -54.93434 42.59005 -77.34007
v -43.075768 42.62493 -72.50702
v -72.618866 58.814743 -43.213486
v -47.812225 95.34041 0.44235992
v -66.7446 42.55516 -61.33007
v -66.7446 42.55516 -65.75791
v -66.7446 42.55516 -61.33007
v 67.3412 42.957695 -61.33007
v 48.092163 95.62755 0.44235992
v 73.11618 59.25215 -43.213486
v -66.7446 42.55516 -61.33007
v -47.812225 95.34041 0.44235992
v -43.075768 42.62493 -72.50702
v 73.11618 59.25215 -68.656136
v 73.11618 59.25215 -43.213486
v 48.092163 95.62755 0.44235992
v 47.00533 95.62486 -47.346138
v -54.93434 42.59005 -77.34007
v 55.52825 42.922806 -77.34007
v 61.305916 59.21727 -80.2383
v -60.805923 58.85231 -80.2383
v 67.3412 42.957695 -65.75791
v 67.3412 42.957695 -61.33007
v 73.11618 59.25215 -43.213486
v 73.11618 59.25215 -68.656136
v -60.805923 58.85231 -80.2383
v 61.305916 59.21727 -80.2383
v 36.923264 95.59535 -54.833214
v -36.643326 95.37262 -54.833214
v 73.11618 59.25215 -68.656136
v 47.00533 95.62486 -47.346138
v 61.305916 59.21727 -80.2383
v 55.52825 42.922806 -77.34007
v -72.618866 58.814743 -68.656136
v -46.725388 95.343094 -47.346138
v -47.812225 95.34041 0.44235992
v -72.618866 58.814743 -43.213486
v -66.7446 42.55516 -65.75791
v -72.618866 58.814743 -68.656136
v -72.618866 58.814743 -43.213486
v -66.7446 42.55516 -61.33007
v -46.725388 95.343094 -47.346138
v -72.618866 58.814743 -68.656136
v -54.93434 42.59005 -77.34007
v -60.805923 58.85231 -80.2383
v -47.812225 95.34041 0.44235992
v -46.725388 95.343094 -47.346138
v 47.00533 95.62486 -47.346138
v 48.092163 95.62755 0.44235992
v -36.643326 95.37262 -54.833214
v 36.923264 95.59535 -54.833214
vt 0.59321266 0.81225014
vt 0.59321266 0.81225014
vt 0.59321266 0.81225014
vt 0.59321266 0.81225014
vt 0.59321266 0.81225014
vt 0.59321266 0.81225014
vt 0.59321266 0.81225014
vt 0.59321266 0.81225014
vt 0.59321266 0.81225014
vt 0.59321266 0.81225014
vt 0.59321266 0.81225014
vt 0.59321266 0.81225014
vt 0.59321266 0.81225014
vt 0.59321266 0.81225014
vt 0.59321266 0.81225014
vt 0.59321266 0.81225014
vt 0.59321266 0.81225014
vt 0.59321266 0.81225014
vt 0.59321266 0.81225014
vt 0.59321266 0.81225014
vt 0.5515573 0.83620197
vt 0.5602355 0.83620197
vt 0.57550913 0.84869856
vt 0.558847 0.84869856
vt 0.5092078 0.8594595
vt 0.5473918 0.8594595
vt 0.5494746 0.85390544
vt 0.507125 0.85390544
vt 0.5525987 0.8303008
vt 0.5539872 0.8303008
vt 0.5602355 0.83620197
vt 0.5515573 0.83620197
vt 0.507125 0.85390544
vt 0.5494746 0.85390544
vt 0.5411435 0.8421031
vt 0.5158032 0.8421031
vt 0.5522516 0.8535583
vt 0.5439205 0.8421031
vt 0.54669756 0.8355077
vt 0.5477389 0.82960653
vt 0.5515573 0.83620197
vt 0.558847 0.84869856
vt 0.57550913 0.84869856
vt 0.5602355 0.83620197
vt 0.5525987 0.83064795
vt 0.5515573 0.83620197
vt 0.5602355 0.83620197
vt 0.5539872 0.83064795
vt 0.51267904 0.8421031
vt 0.504348 0.8535583
vt 0.5477389 0.82960653
vt 0.54669756 0.8355077
vt 0.51198477 0.8514756
vt 0.5123319 0.84731007
vt 0.5446148 0.84731007
vt 0.5449619 0.8514756
vt 0.5158032 0.8421031
vt 0.5411435 0.8421031
vn -0.27058613 -0.77254313 0.57442164
vn -0.019607663 -0.8117585 0.583664
vn -0.003921509 -0.8117585 0.5839801
vn 0.0039215684 -0.9999924 -0
vn 0.0039215684 -0.9999924 -0
vn 0.0039215684 -0.9999924 -0
vn 0.0039215684 -0.9999924 -0
vn 0.0039215684 -0.9999924 -0
vn 0.0039215684 -0.9999924 -0
vn -0.050979972 -0.7490139 0.66059005
vn -0.050979972 -0.7490139 0.66059005
vn -0.050979972 -0.7490139 0.66059005
vn 0.0039215684 -0.9999924 -0
vn 0.0039215684 -0.9999924 -0
vn 0.05882311 -0.7490139 0.6599379
vn 0.05882311 -0.7490139 0.6599379
vn 0.05882311 -0.7490139 0.6599379
vn 0.2705862 -0.77254313 0.5744216
vn 0.011764646 -0.8117585 0.58387476
vn 0.0274508 -0.8117585 0.58334774
vn 0.72548467 0.65489686 -0.21161775
vn 0.8116088 0.58420146 -0
vn 0.8116088 0.58420146 -0
vn 0.7490139 0.6392107 -0.17432119
vn -0.066666126 -0.1999985 -0.97752553
vn 0.066666186 -0.1999985 -0.97752553
vn 0.11372465 -0.21568465 -0.96981794
vn -0.11372459 -0.21568465 -0.96981794
vn 0.8509739 -0.36470312 -0.3779353
vn 0.9430625 -0.33261544 -0
vn 0.9430625 -0.33261544 -0
vn 0.8431308 -0.36470312 -0.3951228
vn -0.098038435 0.6078384 -0.7879854
vn 0.098038495 0.6078384 -0.7879854
vn 0.05098003 0.59215224 -0.8042119
vn -0.050979972 0.59215224 -0.8042119
vn 0.72548467 0.65489686 -0.21161775
vn 0.7490139 0.6392107 -0.17432119
vn 0.11372465 -0.21568465 -0.96981794
vn 0.066666186 -0.1999985 -0.97752553
vn -0.7254846 0.64705384 -0.23450676
vn -0.7568569 0.6313677 -0.16894504
vn -0.81794286 0.57529944 -0
vn -0.81794286 0.57529944 -0
vn -0.85097384 -0.3725462 -0.37020648
vn -0.8431307 -0.3725462 -0.38773698
vn -0.93724763 -0.3411739 -0.071883716
vn -0.93724763 -0.3411739 -0.071883716
vn -0.7568569 0.6313677 -0.16894504
vn -0.7254846 0.64705384 -0.23450676
vn -0.066666126 -0.1999985 -0.97752553
vn -0.11372459 -0.21568465 -0.96981794
vn -0.003921509 0.99999225 -0.00034526698
vn -0.003921509 0.99999225 -0.00034526698
vn -0.003921509 0.99999225 -0.00034526698
vn -0.003921509 0.99999225 -0.00034526698
vn -0.003921509 0.99999225 -0.00034526698
vn -0.003921509 0.99999225 -0.00034526698
g HeavyShassis_DefaultPart_01_CorpsePart_0
f 3/3/3 2/2/2 1/1/1
f 6/6/6 5/5/5 4/4/4
f 7/7/7 6/6/6 4/4/4
f 8/8/8 7/7/7 4/4/4
f 9/9/9 8/8/8 4/4/4
f 12/12/12 11/11/11 10/10/10
f 13/13/13 8/8/8 9/9/9
f 14/14/14 13/13/13 9/9/9
f 17/17/17 16/16/16 15/15/15
f 20/20/20 19/19/19 18/18/18
f 23/23/23 22/22/22 21/21/21
f 24/24/24 23/23/23 21/21/21
f 27/27/27 26/26/26 25/25/25
f 28/28/28 27/27/27 25/25/25
f 31/31/31 30/30/30 29/29/29
f 32/32/32 31/31/31 29/29/29
f 35/35/35 34/34/34 33/33/33
f 36/36/36 35/35/35 33/33/33
f 38/38/38 37/37/37 34/34/34
f 35/35/35 38/38/38 34/34/34
f 39/39/39 32/32/32 29/29/29
f 40/40/40 39/39/39 29/29/29
f 43/43/43 42/42/42 41/41/41
f 44/44/44 43/43/43 41/41/41
f 47/47/47 46/46/46 45/45/45
f 48/48/48 47/47/47 45/45/45
f 33/33/33 50/50/50 49/49/49
f 36/36/36 33/33/33 49/49/49
f 51/51/51 45/45/45 46/46/46
f 52/52/52 51/51/51 46/46/46
f 55/55/55 54/54/54 53/53/53
f 56/56/56 55/55/55 53/53/53
f 19/19/19 20/20/20 2/2/2
f 3/3/3 19/19/19 2/2/2
f 58/58/58 57/57/57 54/54/54
f 55/55/55 58/58/58 54/54/54
