g HeavyTurret_CustomizePart
v 0.3059368 4.9564385 -0.006533353
v 0.24700356 5.024903 -0.18791199
v 0.24700356 4.9564385 -0.18791199
v 0.3059368 5.024903 -0.006533344
v 0.0927124 5.024903 -0.30001068
v 0.0927124 4.9564385 -0.30001068
v -0.09800053 5.024903 -0.30001068
v -0.09800053 4.9564385 -0.30001068
v -0.09800053 4.9564385 -0.30001068
v -0.25229073 5.024903 -0.18791199
v -0.25229073 4.9564385 -0.18791199
v -0.09800053 5.024903 -0.30001068
v -0.31122398 5.024903 -0.006533284
v -0.31122398 4.9564385 -0.0065332935
v -0.25229073 5.024903 0.17484474
v -0.25229073 4.9564385 0.17484474
v -0.09800053 5.024903 0.28694344
v -0.09800053 4.9564385 0.28694344
v 0.092713356 5.024903 0.28694344
v 0.092713356 4.9564385 0.28694344
v 0.24700356 5.024903 0.17484474
v 0.24700356 4.9564385 0.17484474
v 0.092713356 4.9564385 0.28694344
v -0.25229073 4.9564385 0.17484474
v -0.09800053 4.9564385 0.28694344
v -0.25229073 4.9564385 -0.18791199
v -0.31122398 4.9564385 -0.0065332935
v 0.0927124 4.9564385 -0.30001068
v -0.09800053 4.9564385 -0.30001068
v 0.3059368 4.9564385 -0.006533353
v 0.24700356 4.9564385 -0.18791199
v 0.24700356 4.9564385 0.17484474
v -0.53751373 5.3925056 0.1270361
v -0.41466904 5.536686 0.32532883
v -0.47792816 5.392536 0.3591423
v -0.45850754 5.59103 0.12714863
v -0.53777313 5.390686 -0.1561718
v -0.45859146 5.59021 -0.1546297
v -0.42211533 5.2009087 0.4205017
v -0.41950226 5.0064616 0.4560318
v -0.47792816 5.1700287 0.41539383
v -0.36368942 5.076492 0.45290375
v -0.42211533 5.3381386 0.38571167
v -0.33332062 5.4358673 0.18693161
v -0.39174652 5.338051 0.18699455
v -0.36368942 5.4668274 0.35370255
v -0.36368942 5.076492 0.45290375
v -0.39174652 5.2010784 0.1870575
v -0.33332062 5.1061068 0.18712234
v -0.42211533 5.2009087 0.4205017
v -0.36368942 5.4668274 0.35370255
v -0.47792816 5.392536 0.3591423
v -0.41466904 5.536686 0.32532883
v -0.42211533 5.3381386 0.38571167
v -0.47034073 5.0064616 -0.15507507
v -0.53751373 5.1707 0.12819767
v -0.47074127 5.0064616 0.12796879
v -0.53777313 5.1701584 -0.15554523
v -0.47792816 5.1700287 0.41539383
v -0.41950226 5.0064616 0.4560318
v -0.36537552 5.450592 -0.40607834
v -0.05941534 5.462288 -0.40663147
v -0.41466904 5.536087 -0.38988495
v -0.36372757 5.0903893 -0.4059372
v -0.47792816 5.1696186 -0.41947556
v -0.41950226 5.0064616 -0.39159393
v -0.39753342 5.1847916 -0.42206955
v -0.39753342 5.3719635 -0.42303467
v -0.47792816 5.3888664 -0.4195671
v -0.05941248 5.0903893 -0.4059372
v -0.47792816 5.1696186 -0.41947556
v -0.47792816 5.3888664 -0.4195671
v -0.41950226 5.0064616 -0.39159393
v -0.41466904 5.536087 -0.38988495
v -0.3337288 5.5969887 -0.14556313
v -0.45850754 5.59103 0.12714863
v -0.45859146 5.59021 -0.1546297
v -0.33360672 5.5955925 -0.023581743
v -0.08976841 5.5689583 -0.27064514
v -0.30734062 5.570774 -0.27139664
v -0.41466904 5.536087 -0.38988495
v -0.06752062 5.6055717 -0.021944642
v -0.058481693 5.4668274 0.37448883
v -0.39174652 5.338051 0.18699455
v -0.33332062 5.4358673 0.18693161
v -0.088850975 5.4358673 0.18693161
v -0.36368942 5.4668274 0.35370255
v -0.088850975 5.4358673 0.18693161
v -0.33332062 5.4358673 0.18693161
v -0.058481693 5.4668274 0.37448883
v -0.33332062 5.1061068 0.18712234
v -0.39174652 5.2010784 0.1870575
v -0.088850975 5.1061068 0.18712234
v -0.058481693 5.076492 0.49658966
v -0.33332062 5.1061068 0.18712234
v -0.088850975 5.1061068 0.18712234
v -0.36368942 5.076492 0.45290375
v -0.058481693 5.4668274 0.37448883
v -0.088850975 5.1061068 0.18712234
v -0.088850975 5.4358673 0.18693161
v -0.058481693 5.076492 0.49658966
v -0.0026707524 5.0064616 0.514801
v -0.47074127 5.0064616 0.12796879
v -0.41950226 5.0064616 0.4560318
v -0.0026707524 5.0064616 0.514801
v -0.058481693 5.076492 0.49658966
v 0.53217316 5.3925056 0.1270361
v 0.40932846 5.536686 0.32532883
v 0.45316696 5.59103 0.12714863
v 0.4725876 5.392536 0.3591423
v 0.53243256 5.390686 -0.1561718
v 0.45325089 5.59021 -0.1546297
v 0.46500015 5.0064616 -0.15507507
v 0.53217316 5.1707 0.12819767
v 0.53243256 5.1701584 -0.15554523
v 0.4654007 5.0064616 0.12796879
v 0.4725876 5.1700287 0.41539383
v 0.41416168 5.0064616 0.4560318
v 0.4725876 5.1696186 -0.41947556
v 0.4725876 5.3888664 -0.4195671
v 0.41416168 5.0064616 -0.39159393
v 0.40932846 5.536087 -0.38988495
v 0.40932846 5.536686 0.32532883
v -0.41466904 5.536686 0.32532883
v 0.45316696 5.59103 0.12714863
v 0.41416168 5.0064616 0.4560318
v 0.4654007 5.0064616 0.12796879
v -0.47034073 5.0064616 -0.15507507
v 0.46500015 5.0064616 -0.15507507
v -0.41950226 5.0064616 -0.39159393
v 0.41416168 5.0064616 -0.39159393
v 0.38640594 5.338051 0.18699455
v 0.0835104 5.4358673 0.18693161
v 0.32798004 5.4358673 0.18693161
v 0.32798004 5.1061068 0.18712234
v 0.0835104 5.1061068 0.18712234
v 0.38640594 5.2010784 0.1870575
v 0.05407095 5.0903893 -0.4059372
v 0.41416168 5.0064616 -0.39159393
v 0.358387 5.0903893 -0.4059372
v 0.053139687 5.4668274 0.37448883
v 0.40932846 5.536686 0.32532883
v 0.35834885 5.4668274 0.35370255
v 0.06217909 5.6055717 -0.021944642
v -0.06496477 5.6059 -0.1437273
v 0.05962324 5.6059 -0.1437273
v 0.08442783 5.5689583 -0.27064514
v 0.05407095 5.1696186 -0.41947937
v -0.05941248 5.1696186 -0.41947937
v -0.05941248 5.388836 -0.41942215
v 0.05407095 5.388836 -0.41942215
v 0.05407381 5.462288 -0.40663147
v 0.41677475 5.2009087 0.4205017
v 0.41416168 5.0064616 0.4560318
v 0.35834885 5.076492 0.45290375
v 0.4725876 5.1700287 0.41539383
v 0.4725876 5.392536 0.3591423
v 0.41677475 5.3381386 0.38571167
v 0.36003494 5.450592 -0.40607834
v 0.40932846 5.536087 -0.38988495
v 0.4725876 5.1696186 -0.41947556
v 0.39219284 5.1847916 -0.42206955
v 0.39219284 5.3719635 -0.42303467
v 0.4725876 5.3888664 -0.4195671
v 0.3283882 5.5969887 -0.14556313
v 0.32826614 5.5955925 -0.023581743
v 0.45325089 5.59021 -0.1546297
v 0.40932846 5.536087 -0.38988495
v 0.30200005 5.570774 -0.27139664
v 0.053139687 5.076492 0.49658966
v 0.41677475 5.3381386 0.38571167
v 0.32798004 5.4358673 0.18693161
v 0.35834885 5.4668274 0.35370255
v 0.38640594 5.338051 0.18699455
v 0.35834885 5.076492 0.45290375
v 0.38640594 5.2010784 0.1870575
v 0.41677475 5.2009087 0.4205017
v 0.32798004 5.1061068 0.18712234
v 0.35834885 5.4668274 0.35370255
v 0.0835104 5.4358673 0.18693161
v 0.053139687 5.4668274 0.37448883
v 0.32798004 5.4358673 0.18693161
v 0.053139687 5.076492 0.49658966
v 0.32798004 5.1061068 0.18712234
v 0.35834885 5.076492 0.45290375
v 0.0835104 5.1061068 0.18712234
v 0.053139687 5.4668274 0.37448883
v 0.0835104 5.1061068 0.18712234
v 0.053139687 5.076492 0.49658966
v 0.0835104 5.4358673 0.18693161
vt 0.6127789 0.4877628
vt 0.6293672 0.5111318
vt 0.6293672 0.4877628
vt 0.6127789 0.5111318
vt 0.64595544 0.5111318
vt 0.64595544 0.4877628
vt 0.6625439 0.5111318
vt 0.6625439 0.4877628
vt 0.4966607 0.4877628
vt 0.513249 0.5111318
vt 0.513249 0.4877628
vt 0.4966607 0.5111318
vt 0.52983737 0.5111318
vt 0.52983737 0.4877628
vt 0.54642576 0.5111318
vt 0.54642576 0.4877628
vt 0.5630139 0.5111318
vt 0.5630139 0.4877628
vt 0.57960236 0.5111318
vt 0.57960236 0.4877628
vt 0.59619063 0.5111318
vt 0.59619063 0.4877628
vt 0.768477 0.6535127
vt 0.7487612 0.5928335
vt 0.768477 0.6199701
vt 0.6849593 0.5928335
vt 0.71686023 0.5824684
vt 0.66524357 0.6535127
vt 0.66524357 0.6199701
vt 0.71686023 0.6910145
vt 0.6849593 0.6806493
vt 0.7487612 0.6806493
vt 0.64501905 0.21329682
vt 0.7350662 0.30963662
vt 0.75490916 0.23126623
vt 0.64237845 0.29935282
vt 0.5184134 0.21134444
vt 0.5185189 0.29970047
vt 0.7426722 0.5549827
vt 0.8278655 0.55587035
vt 0.75548077 0.52949107
vt 0.7986926 0.58207864
vt 0.87351763 0.6672718
vt 0.9622158 0.7185027
vt 0.9622158 0.6672718
vt 0.87351763 0.7185027
vt 0.87351763 0.5627762
vt 0.9622158 0.61283183
vt 0.9622158 0.5627762
vt 0.87351763 0.61283183
vt 0.623821 0.5772394
vt 0.65625215 0.5259353
vt 0.59092677 0.5540981
vt 0.6812656 0.552671
vt 0.5169654 0.04395874
vt 0.649675 0.12230657
vt 0.65463805 0.04623206
vt 0.51888573 0.11922
vt 0.78220606 0.13136195
vt 0.80878496 0.059071597
vt 0.22669958 0.56729835
vt 0.23057452 0.7132766
vt 0.26379576 0.5431459
vt 0.07185156 0.5770353
vt 0.10428146 0.5240329
vt 0.035539094 0.55189335
vt 0.11251048 0.5599505
vt 0.19197518 0.55489576
vt 0.19719051 0.51804256
vt 0.071030594 0.7156335
vt 0.39595485 0.12290448
vt 0.3945068 0.22223751
vt 0.40412566 0.04655267
vt 0.40793484 0.2986842
vt 0.37479654 0.5984603
vt 0.49823925 0.5438144
vt 0.37437963 0.544162
vt 0.43027762 0.5988715
vt 0.31720158 0.6992871
vt 0.31731367 0.5992873
vt 0.26379576 0.5431459
vt 0.4307287 0.7133278
vt 0.6337266 0.7178696
vt 0.844403 0.13109103
vt 0.85989666 0.1646811
vt 0.9487405 0.16551806
vt 0.87351763 0.5627762
vt 0.9622158 0.6771743
vt 0.9622158 0.5627762
vt 0.87351763 0.6771743
vt 0.8606434 0.05318219
vt 0.8458376 0.08718116
vt 0.9487405 0.053051285
vt 0.87351763 0.5627762
vt 0.9622158 0.6771845
vt 0.9622158 0.5627762
vt 0.87351763 0.6771845
vt 0.87351763 0.70598453
vt 0.9622158 0.5627762
vt 0.9622158 0.70598453
vt 0.87351763 0.5627762
vt 0.14800377 0.9164777
vt 0.07464402 0.85585123
vt 0.0826744 0.90726775
vt 0.83655846 0.7482904
vt 0.80534315 0.7227813
vt 0.64501905 0.21329682
vt 0.7350662 0.30963662
vt 0.64237845 0.29935282
vt 0.75490916 0.23126623
vt 0.5184134 0.21134444
vt 0.5185189 0.29970047
vt 0.5169654 0.04395874
vt 0.649675 0.12230657
vt 0.51888573 0.11922
vt 0.65463805 0.04623206
vt 0.78220606 0.13136195
vt 0.80878496 0.059071597
vt 0.39595506 0.12290448
vt 0.3945068 0.22223751
vt 0.4041258 0.04655267
vt 0.40793496 0.2986842
vt 0.58872235 0.9316199
vt 0.59092677 0.5540981
vt 0.49768642 0.94093835
vt 0.21333267 0.9072665
vt 0.22136283 0.85584986
vt 0.0747062 0.81149036
vt 0.22130015 0.8114889
vt 0.08267382 0.7744213
vt 0.21333174 0.77441996
vt 0.844403 0.13109103
vt 0.9487405 0.16551806
vt 0.85989666 0.1646811
vt 0.8606434 0.05318219
vt 0.9487405 0.053051285
vt 0.8458376 0.08718116
vt 0.07073026 0.76717156
vt 0.033328444 0.9303808
vt 0.069994636 0.90562654
vt 0.6332902 0.7688373
vt 0.58872235 0.9316199
vt 0.6222098 0.90869737
vt 0.43059725 0.76986605
vt 0.37615567 0.7121244
vt 0.37568486 0.768349
vt 0.3164629 0.78094584
vt 0.10508294 0.76741505
vt 0.10528445 0.7160345
vt 0.19834612 0.7157321
vt 0.19878237 0.7678922
vt 0.23032078 0.76736534
vt 0.73936236 0.93809474
vt 0.82395446 0.9399285
vt 0.7953539 0.913115
vt 0.75089276 0.9642402
vt 0.6522002 0.96169925
vt 0.6785281 0.9365433
vt 0.22421123 0.91092294
vt 0.2614667 0.9365778
vt 0.10219038 0.9595469
vt 0.11000135 0.9235741
vt 0.18985063 0.9261421
vt 0.1961652 0.96244425
vt 0.37520528 0.8868011
vt 0.43028244 0.88592297
vt 0.37401846 0.9394432
vt 0.2614667 0.9365778
vt 0.31678665 0.8805845
vt 0.8046377 0.77313083
vt 0.87351763 0.6672718
vt 0.9622158 0.7185027
vt 0.87351763 0.7185027
vt 0.9622158 0.6672718
vt 0.87351763 0.5627762
vt 0.9622158 0.61283183
vt 0.87351763 0.61283183
vt 0.9622158 0.5627762
vt 0.87351763 0.5627762
vt 0.9622158 0.6771743
vt 0.87351763 0.6771743
vt 0.9622158 0.5627762
vt 0.87351763 0.5627762
vt 0.9622158 0.6771845
vt 0.87351763 0.6771845
vt 0.9622158 0.5627762
vt 0.87351763 0.70598453
vt 0.9622158 0.5627762
vt 0.87351763 0.5627762
vt 0.9622158 0.70598453
vn 1 0 0
vn 0.80901426 0 -0.58778906
vn 0.8090145 0 -0.58778876
vn 1 0 0
vn 0.30901787 0 -0.95105624
vn 0.30901796 0 -0.95105624
vn -0.30901718 0 -0.9510565
vn -0.30901718 0 -0.9510565
vn -0.30901718 0 -0.9510565
vn -0.8090192 0 -0.5877822
vn -0.80901945 0 -0.5877818
vn -0.30901718 0 -0.9510565
vn -1 0 0
vn -1 0 0
vn -0.8090159 0 0.5877867
vn -0.80901617 0 0.5877864
vn -0.309018 0 0.95105624
vn -0.30901858 0 0.951056
vn 0.30901793 0 0.95105624
vn 0.30901858 0 0.951056
vn 0.8090187 0 0.587783
vn 0.80901885 0 0.5877826
vn -0 -1 0
vn -0 -1 0
vn -0 -1 0
vn -0 -1 0
vn -0 -1 0
vn -0 -1 0
vn -0 -1 0
vn -0 -1 0
vn -0 -1 0
vn -0 -1 0
vn -0.9772816 0.17957701 0.112573355
vn -0.88132393 0.39566317 0.2582998
vn -0.95872337 0.17315206 0.2255389
vn -0.9228698 0.36694628 0.11688282
vn -0.97750753 0.18197316 -0.106605545
vn -0.92182606 0.3752648 -0.097021155
vn -0.19906329 0.20653822 0.9579748
vn -0.14803034 0.16001818 0.97595143
vn -0.1969164 0.19748431 0.9603249
vn -0.14524482 0.15878597 0.97657096
vn 0.97545797 -0.1372286 0.17219162
vn 0.8779128 -0.44663915 0.17257634
vn 0.96459264 -0.2245459 0.13834801
vn 0.9063003 -0.35406965 0.23076901
vn 0.8750489 0.46718746 0.12659135
vn 0.9564982 0.25588712 0.14011768
vn 0.8415431 0.5178168 0.15385443
vn 0.9509944 0.28093353 0.12917443
vn -0.090788275 0.31962475 0.9431848
vn -0.16957106 0.27925175 0.9451266
vn -0.06696858 0.3988002 0.91458935
vn -0.19780321 0.25898674 0.9454099
vn -0.92094064 -0.3786908 -0.09198715
vn -0.9807705 -0.16467462 0.10474406
vn -0.9278475 -0.3617286 0.09083807
vn -0.98086506 -0.16556305 -0.10243365
vn -0.9711981 -0.15357305 0.18218014
vn -0.94248676 -0.30008245 0.14720517
vn -0.001252607 0.18540134 -0.9826621
vn -0.0012939848 0.20076591 -0.97963834
vn -0.003075874 0.19485104 -0.980828
vn -0 -0.16845648 -0.9857091
vn -0.019811148 -0.06558697 -0.9976502
vn -0 -0.16845684 -0.9857091
vn -0.023484403 -0.05501156 -0.9982095
vn -0.023924198 0.08184825 -0.9963576
vn -0.022341447 0.089227706 -0.99576074
vn -0 -0.16846503 -0.9857076
vn -0.96297896 -0.15834144 -0.21817335
vn -0.9582757 0.16981407 -0.22993709
vn -0.908695 -0.36538747 -0.20190436
vn -0.8671658 0.4249652 -0.25966915
vn -0.045707222 0.9959902 -0.07690521
vn -0.0052245827 0.97829837 0.20713508
vn -0.05249906 0.9943335 -0.09243771
vn -0.033169676 0.99944586 0.0027692027
vn 0.0002908159 0.9634873 -0.26775378
vn -0.021029403 0.96545637 -0.25971493
vn -0.018492838 0.96590716 -0.2582273
vn -0.0014517235 0.99617803 0.087333515
vn -0.003533894 0.38072497 0.9246816
vn 4.8560993E-05 0.00049274514 0.9999999
vn -0 0.0006434742 0.9999999
vn -1.8785973E-05 0.00056754897 0.9999999
vn -0.0056636184 -0.9848188 0.17349273
vn -0.00837 -0.9855516 0.16916841
vn -0 -0.9832009 0.18252656
vn -0.011211712 -0.98629296 0.16462263
vn -0 0.00068283034 0.99999976
vn -0 0.00056007935 0.9999999
vn -3.0946605E-05 0.00058391754 0.9999999
vn -0.008599509 0.9946626 0.10282187
vn -0.008094872 0.9947126 0.10237864
vn -0 0.9954522 0.095262654
vn -0.015596932 0.99392337 0.10896356
vn -0.99215794 0.019393392 0.123477496
vn -0.993457 0.025858913 0.11124056
vn -0.98714554 9.244805E-05 0.15982345
vn -0.99442935 0.031468276 0.10059897
vn -0 -1 0
vn -0 -1 0
vn -0 -1 0
vn -0.004296304 0.21488744 0.9766293
vn -0.031585928 0.22789967 0.9731722
vn 0.9772816 0.17957696 0.11257335
vn 0.88132393 0.39566302 0.2582998
vn 0.9228699 0.3669462 0.11688283
vn 0.95872337 0.17315209 0.22553888
vn 0.97750753 0.18197328 -0.10660554
vn 0.92182606 0.37526467 -0.09702115
vn 0.92094076 -0.37869063 -0.091987155
vn 0.9807705 -0.16467477 0.10474407
vn 0.98086506 -0.16556305 -0.10243365
vn 0.9278475 -0.3617285 0.09083807
vn 0.9711981 -0.15357287 0.18218015
vn 0.9424869 -0.30008197 0.14720519
vn 0.96297896 -0.15834154 -0.21817335
vn 0.95827556 0.16981435 -0.22993705
vn 0.9086949 -0.36538777 -0.20190434
vn 0.8671656 0.4249655 -0.25966913
vn -0 0.96439934 0.26445007
vn -0 0.964398 0.26445514
vn 0.0050628255 0.9768371 0.21392442
vn -0 -1 0
vn -0 -1 0
vn -0 -1 0
vn -0 -1 0
vn -0 -1 0
vn -0 -1 0
vn -4.8560993E-05 0.0004927454 0.9999999
vn 1.8785973E-05 0.000567549 0.9999999
vn -0 0.0006434758 0.9999999
vn -0 0.00068282685 0.99999976
vn 3.0946605E-05 0.00058391737 0.9999999
vn -0 0.00056007894 0.9999999
vn -0 -0.16845977 -0.9857085
vn -0 -0.16845651 -0.9857091
vn -0 -0.16845582 -0.9857092
vn 0.0011072685 0.5026282 0.86450195
vn 0.062168755 0.41234562 0.90890384
vn 0.09078822 0.3196258 0.94318444
vn 0.006034419 0.9983553 0.05701062
vn -0 0.98851484 -0.15112372
vn -0 0.9859176 -0.16723199
vn -0.00086224306 0.962223 -0.2722612
vn -0 -0.045137703 -0.9989807
vn -0 -0.045137692 -0.9989807
vn -0 0.043858547 -0.99903774
vn -0 0.043857567 -0.99903786
vn 0.000300991 0.21652941 -0.97627604
vn 0.19906329 0.20653832 0.9579748
vn 0.14803028 0.1600182 0.97595143
vn 0.14524479 0.15878615 0.97657096
vn 0.1969164 0.19748433 0.9603249
vn 0.16957109 0.2792517 0.9451266
vn 0.19780323 0.25898656 0.9454099
vn 0.0012525017 0.18540014 -0.9826623
vn 0.0028946192 0.19641253 -0.9805171
vn 0.019811148 -0.065587 -0.9976502
vn 0.023484403 -0.05501159 -0.9982095
vn 0.023924198 0.081848264 -0.9963576
vn 0.022341449 0.08922778 -0.99576074
vn 0.045707207 0.9959902 -0.0769052
vn 0.03316959 0.99944586 0.002762911
vn 0.05249904 0.9943335 -0.092437685
vn 0.021107852 0.96613985 -0.25715405
vn 0.021029389 0.96545637 -0.25971487
vn 0.028691037 0.2345631 0.9716774
vn -0.9754581 -0.13722824 0.17219165
vn -0.8779127 -0.44663927 0.17257635
vn -0.9063006 -0.35406914 0.23076902
vn -0.9645925 -0.22454609 0.13834803
vn -0.8750489 0.46718732 0.12659135
vn -0.9564982 0.2558869 0.14011768
vn -0.9509944 0.28093368 0.1291744
vn -0.8415432 0.5178163 0.15385447
vn 0.005663605 -0.98481894 0.17349239
vn 0.008369989 -0.9855517 0.16916788
vn 0.0112116635 -0.9862931 0.16462193
vn -0 -0.9832009 0.18252657
vn 0.008599489 0.99466264 0.1028218
vn 0.008094876 0.9947126 0.10237838
vn 0.015596855 0.9939231 0.10896589
vn -0 0.9954526 0.09525955
vn 0.9921571 0.019394316 0.12348312
vn 0.9934564 0.025860138 0.111245625
vn 0.99442875 0.031469774 0.10060346
vn 0.9871444 9.244793E-05 0.15983088
g HeavyTurret_CustomizePart_0
f 3/3/3 2/2/2 1/1/1
f 4/4/4 1/1/1 2/2/2
f 6/6/6 5/5/5 3/3/3
f 2/2/2 3/3/3 5/5/5
f 8/8/8 7/7/7 6/6/6
f 5/5/5 6/6/6 7/7/7
f 11/11/11 10/10/10 9/9/9
f 12/12/12 9/9/9 10/10/10
f 14/14/14 13/13/13 11/11/11
f 10/10/10 11/11/11 13/13/13
f 16/16/16 15/15/15 14/14/14
f 13/13/13 14/14/14 15/15/15
f 18/18/18 17/17/17 16/16/16
f 15/15/15 16/16/16 17/17/17
f 20/20/20 19/19/19 18/18/18
f 17/17/17 18/18/18 19/19/19
f 22/22/22 21/21/21 20/20/20
f 19/19/19 20/20/20 21/21/21
f 1/1/1 4/4/4 22/22/22
f 21/21/21 22/22/22 4/4/4
f 25/25/25 24/24/24 23/23/23
f 27/27/27 26/26/26 24/24/24
f 29/29/29 28/28/28 26/26/26
f 31/31/31 30/30/30 28/28/28
f 28/28/28 30/30/30 26/26/26
f 26/26/26 30/30/30 24/24/24
f 24/24/24 30/30/30 23/23/23
f 23/23/23 30/30/30 32/32/32
f 35/35/35 34/34/34 33/33/33
f 36/36/36 33/33/33 34/34/34
f 33/33/33 36/36/36 37/37/37
f 38/38/38 37/37/37 36/36/36
f 41/41/41 40/40/40 39/39/39
f 42/42/42 39/39/39 40/40/40
f 45/45/45 44/44/44 43/43/43
f 46/46/46 43/43/43 44/44/44
f 49/49/49 48/48/48 47/47/47
f 50/50/50 47/47/47 48/48/48
f 48/48/48 45/45/45 50/50/50
f 43/43/43 50/50/50 45/45/45
f 53/53/53 52/52/52 51/51/51
f 54/54/54 51/51/51 52/52/52
f 52/52/52 41/41/41 54/54/54
f 39/39/39 54/54/54 41/41/41
f 57/57/57 56/56/56 55/55/55
f 58/58/58 55/55/55 56/56/56
f 56/56/56 33/33/33 58/58/58
f 37/37/37 58/58/58 33/33/33
f 60/60/60 59/59/59 57/57/57
f 56/56/56 57/57/57 59/59/59
f 59/59/59 35/35/35 56/56/56
f 33/33/33 56/56/56 35/35/35
f 63/63/63 62/62/62 61/61/61
f 66/66/66 65/65/65 64/64/64
f 67/67/67 64/64/64 65/65/65
f 69/69/69 63/63/63 68/68/68
f 61/61/61 68/68/68 63/63/63
f 65/65/65 69/69/69 67/67/67
f 68/68/68 67/67/67 69/69/69
f 66/66/66 64/64/64 70/70/70
f 58/58/58 37/37/37 71/71/71
f 72/72/72 71/71/71 37/37/37
f 55/55/55 58/58/58 73/73/73
f 71/71/71 73/73/73 58/58/58
f 37/37/37 38/38/38 72/72/72
f 74/74/74 72/72/72 38/38/38
f 77/77/77 76/76/76 75/75/75
f 78/78/78 75/75/75 76/76/76
f 81/81/81 80/80/80 79/79/79
f 81/81/81 77/77/77 80/80/80
f 75/75/75 80/80/80 77/77/77
f 76/76/76 82/82/82 78/78/78
f 53/53/53 51/51/51 83/83/83
f 86/86/86 85/85/85 84/84/84
f 89/89/89 88/88/88 87/87/87
f 90/90/90 87/87/87 88/88/88
f 93/93/93 92/92/92 91/91/91
f 96/96/96 95/95/95 94/94/94
f 97/97/97 94/94/94 95/95/95
f 93/93/93 86/86/86 92/92/92
f 84/84/84 92/92/92 86/86/86
f 100/100/100 99/99/99 98/98/98
f 101/101/101 98/98/98 99/99/99
f 104/104/104 103/103/103 102/102/102
f 40/40/40 105/105/105 42/42/42
f 106/106/106 42/42/42 105/105/105
f 109/109/109 108/108/108 107/107/107
f 110/110/110 107/107/107 108/108/108
f 112/112/112 109/109/109 111/111/111
f 107/107/107 111/111/111 109/109/109
f 115/115/115 114/114/114 113/113/113
f 116/116/116 113/113/113 114/114/114
f 111/111/111 107/107/107 115/115/115
f 114/114/114 115/115/115 107/107/107
f 114/114/114 117/117/117 116/116/116
f 118/118/118 116/116/116 117/117/117
f 107/107/107 110/110/110 114/114/114
f 117/117/117 114/114/114 110/110/110
f 120/120/120 111/111/111 119/119/119
f 115/115/115 119/119/119 111/111/111
f 119/119/119 115/115/115 121/121/121
f 113/113/113 121/121/121 115/115/115
f 122/122/122 112/112/112 120/120/120
f 111/111/111 120/120/120 112/112/112
f 124/124/124 123/123/123 76/76/76
f 125/125/125 76/76/76 123/123/123
f 127/127/127 126/126/126 102/102/102
f 103/103/103 128/128/128 102/102/102
f 128/128/128 129/129/129 102/102/102
f 129/129/129 127/127/127 102/102/102
f 128/128/128 130/130/130 129/129/129
f 131/131/131 129/129/129 130/130/130
f 134/134/134 133/133/133 132/132/132
f 137/137/137 136/136/136 135/135/135
f 132/132/132 133/133/133 137/137/137
f 136/136/136 137/137/137 133/133/133
f 140/140/140 139/139/139 138/138/138
f 143/143/143 142/142/142 141/141/141
f 146/146/146 145/145/145 144/144/144
f 82/82/82 144/144/144 145/145/145
f 145/145/145 146/146/146 79/79/79
f 147/147/147 79/79/79 146/146/146
f 149/149/149 148/148/148 70/70/70
f 138/138/138 70/70/70 148/148/148
f 151/151/151 148/148/148 150/150/150
f 149/149/149 150/150/150 148/148/148
f 151/151/151 150/150/150 152/152/152
f 62/62/62 152/152/152 150/150/150
f 155/155/155 154/154/154 153/153/153
f 156/156/156 153/153/153 154/154/154
f 158/158/158 157/157/157 143/143/143
f 142/142/142 143/143/143 157/157/157
f 153/153/153 156/156/156 158/158/158
f 157/157/157 158/158/158 156/156/156
f 152/152/152 160/160/160 159/159/159
f 162/162/162 161/161/161 140/140/140
f 139/139/139 140/140/140 161/161/161
f 159/159/159 160/160/160 163/163/163
f 164/164/164 163/163/163 160/160/160
f 163/163/163 164/164/164 162/162/162
f 161/161/161 162/162/162 164/164/164
f 166/166/166 125/125/125 165/165/165
f 167/167/167 165/165/165 125/125/125
f 169/169/169 168/168/168 147/147/147
f 165/165/165 167/167/167 169/169/169
f 168/168/168 169/169/169 167/167/167
f 144/144/144 125/125/125 166/166/166
f 170/170/170 105/105/105 155/155/155
f 154/154/154 155/155/155 105/105/105
f 106/106/106 105/105/105 83/83/83
f 105/105/105 170/170/170 83/83/83
f 170/170/170 141/141/141 83/83/83
f 83/83/83 141/141/141 53/53/53
f 142/142/142 53/53/53 141/141/141
f 144/144/144 82/82/82 125/125/125
f 76/76/76 125/125/125 82/82/82
f 81/81/81 79/79/79 168/168/168
f 147/147/147 168/168/168 79/79/79
f 62/62/62 63/63/63 152/152/152
f 160/160/160 152/152/152 63/63/63
f 70/70/70 138/138/138 66/66/66
f 139/139/139 66/66/66 138/138/138
f 173/173/173 172/172/172 171/171/171
f 174/174/174 171/171/171 172/172/172
f 177/177/177 176/176/176 175/175/175
f 178/178/178 175/175/175 176/176/176
f 171/171/171 174/174/174 177/177/177
f 176/176/176 177/177/177 174/174/174
f 181/181/181 180/180/180 179/179/179
f 182/182/182 179/179/179 180/180/180
f 185/185/185 184/184/184 183/183/183
f 186/186/186 183/183/183 184/184/184
f 189/189/189 188/188/188 187/187/187
f 190/190/190 187/187/187 188/188/188
