g HeavyShassis_CustomizePart
v 0.7117462 56.257175 30.236526
v 0.7117462 56.257175 30.490961
v 0.4626045 56.62167 30.92753
v 0.46902084 56.62167 30.49058
v 0.4160652 56.62167 31.706072
v 0.0046668053 56.527496 31.823418
v -0.03852153 56.527496 31.823418
v -0.44992062 56.62167 31.706072
v 0.6534958 56.094395 32.022453
v 0.6534958 56.094395 31.8616
v 0.45614624 56.094395 31.838106
v 0.600544 56.094395 32.082146
v 0.600544 56.094395 32.082146
v 0.35225677 56.094395 32.082146
v 0.37752533 56.257175 32.153755
v 0.6587906 56.257175 32.153755
v -0.56923676 56.094395 30.149694
v 0.53538513 56.094395 30.149694
v 0.59363174 56.257175 30.120712
v -0.6274872 56.257175 30.120712
v 0.7117462 56.257175 30.490961
v 0.45628738 56.257175 30.509216
v 0.4626045 56.62167 30.92753
v 0.6534958 56.094395 30.265518
v 0.6534958 56.094395 30.30979
v 0.7117462 56.257175 30.490961
v 0.7117462 56.257175 30.236526
v 0.45614624 56.094395 30.328047
v 0.45614624 56.094395 31.838106
v 0.45628738 56.257175 31.672054
v 0.45628738 56.257175 30.509216
v 0.45594406 56.62167 31.257757
v 0.4626045 56.62167 30.92753
v 0.7117462 56.257175 31.695541
v 0.45628738 56.257175 31.672054
v 0.45614624 56.094395 31.838106
v 0.6534958 56.094395 31.8616
v 0.6534958 56.094395 30.30979
v 0.45614624 56.094395 30.328047
v 0.46902084 56.62167 31.27924
v 0.4626045 56.62167 30.92753
v 0.45594406 56.62167 31.257757
v -0.4897995 56.62167 31.257757
v -0.49645993 56.62167 30.927526
v 0.6534958 56.094395 31.8616
v 0.6534958 56.094395 32.022453
v 0.7117462 56.257175 32.094063
v 0.7117462 56.257175 31.695541
v 0.7117462 56.257175 31.695541
v 0.46902084 56.62167 31.523832
v 0.46902084 56.62167 31.27924
v -0.6274872 56.257175 30.120712
v 0.59363174 56.257175 30.120712
v 0.35090637 56.62167 30.374767
v -0.3847618 56.62167 30.374767
v 0.6189003 56.094395 30.183617
v 0.53538513 56.094395 30.149694
v 0.45614624 56.094395 30.328047
v 0.6534958 56.094395 30.265518
v 0.6534958 56.094395 30.30979
v 0.41665268 56.094395 32.00872
v 0.45614624 56.094395 31.838106
v 0.45614624 56.094395 30.328047
v 0.4168129 56.094395 30.198029
v 0.41665268 56.094395 32.00872
v 0.4168129 56.094395 30.198029
v -0.56923676 56.094395 30.149694
v -0.45066833 56.094395 30.198029
v 0.35225677 56.094395 32.082146
v 0.35225677 56.127674 32.053215
v 0.37752533 56.247063 32.105057
v 0.37752533 56.257175 32.153755
v 0.03955269 56.396317 31.98304
v 0.03955269 56.368763 31.959373
v 0.0046668053 56.49994 31.79975
v 0.0046668053 56.527496 31.823418
v 0.35225677 56.094395 32.082146
v 0.35182953 56.094395 32.00872
v 0.35225677 56.127674 32.053215
v 0.35182953 56.128864 31.989817
v -0.38568497 56.128864 31.989817
v -0.3861122 56.127674 32.053215
v 0.4014778 56.39646 31.982872
v 0.4014778 56.368904 31.959206
v 0.03955269 56.368763 31.959373
v 0.03955269 56.396317 31.98304
v 0.35182953 56.094395 32.00872
v 0.35182953 56.128864 31.989817
v 0.35225677 56.127674 32.053215
v 0.35225677 56.094395 32.082146
v 0.37752533 56.257175 32.153755
v 0.37752533 56.247063 32.105057
v 0.4014778 56.368904 31.959206
v 0.4014778 56.39646 31.982872
v 0.0046668053 56.527496 31.823418
v 0.0046668053 56.49994 31.79975
v -0.03852153 56.49994 31.79975
v -0.03852153 56.527496 31.823418
v 0.43442532 56.62167 30.408686
v 0.6771469 56.257175 30.154634
v 0.43442532 56.62167 30.408686
v 0.6771469 56.257175 30.154634
v 0.6771469 56.257175 30.154634
v 0.6189003 56.094395 30.183617
v 0.6771469 56.257175 30.154634
v 0.6189003 56.094395 30.183617
v 0.4160652 56.62167 31.706072
v 0.46902084 56.62167 31.646378
v 0.7117462 56.257175 32.094063
v 0.6587906 56.257175 32.153755
v 0.6587906 56.257175 32.153755
v 0.7117462 56.257175 32.094063
v 0.6534958 56.094395 32.022453
v 0.600544 56.094395 32.082146
v 0.009426117 56.62167 31.593105
v 0.46902084 56.62167 31.646378
v 0.4160652 56.62167 31.706072
v -0.74559784 56.257175 30.236526
v -0.50287247 56.62167 30.49058
v -0.49645993 56.62167 30.927526
v -0.74559784 56.257175 30.490961
v -0.6873474 56.094395 32.022453
v -0.6343956 56.094395 32.082146
v -0.48999786 56.094395 31.838106
v -0.6873474 56.094395 31.8616
v -0.6343956 56.094395 32.082146
v -0.6926422 56.257175 32.153755
v -0.41138077 56.257175 32.153755
v -0.3861122 56.094395 32.082146
v -0.74559784 56.257175 30.490961
v -0.49645993 56.62167 30.927526
v -0.49014282 56.257175 30.509216
v -0.6873474 56.094395 30.265518
v -0.74559784 56.257175 30.236526
v -0.74559784 56.257175 30.490961
v -0.6873474 56.094395 30.30979
v -0.48999786 56.094395 30.328047
v -0.49014282 56.257175 30.509216
v -0.49014282 56.257175 31.672054
v -0.48999786 56.094395 31.838106
v -0.49645993 56.62167 30.927526
v -0.4897995 56.62167 31.257757
v -0.74559784 56.257175 31.695541
v -0.6873474 56.094395 31.8616
v -0.48999786 56.094395 31.838106
v -0.49014282 56.257175 31.672054
v -0.6873474 56.094395 30.30979
v -0.48999786 56.094395 30.328047
v -0.50287247 56.62167 31.27924
v -0.49014282 56.257175 31.672054
v -0.4897995 56.62167 31.257757
v -0.6873474 56.094395 31.8616
v -0.74559784 56.257175 31.695541
v -0.74559784 56.257175 32.094063
v -0.6873474 56.094395 32.022453
v -0.74559784 56.257175 31.695541
v -0.50287247 56.62167 31.523832
v -0.50287247 56.62167 31.646378
v -0.74559784 56.257175 32.094063
v -0.48999786 56.094395 30.328047
v -0.56923676 56.094395 30.149694
v -0.65275574 56.094395 30.183617
v -0.6873474 56.094395 30.265518
v -0.6873474 56.094395 30.30979
v -0.45050812 56.094395 32.00872
v -0.45066833 56.094395 30.198029
v -0.48999786 56.094395 30.328047
v -0.48999786 56.094395 31.838106
v -0.45050812 56.094395 32.00872
v -0.45066833 56.094395 30.198029
v -0.3861122 56.094395 32.082146
v -0.41138077 56.257175 32.153755
v -0.41138077 56.247063 32.105057
v -0.3861122 56.127674 32.053215
v -0.07340717 56.396317 31.98304
v -0.03852153 56.527496 31.823418
v -0.03852153 56.49994 31.79975
v -0.07340717 56.368763 31.959373
v -0.3861122 56.094395 32.082146
v -0.38568497 56.094395 32.00872
v -0.43533322 56.39646 31.982872
v -0.07340717 56.396317 31.98304
v -0.07340717 56.368763 31.959373
v -0.43533322 56.368904 31.959206
v -0.38568497 56.094395 32.00872
v -0.3861122 56.094395 32.082146
v -0.3861122 56.127674 32.053215
v -0.38568497 56.128864 31.989817
v -0.41138077 56.257175 32.153755
v -0.43533322 56.39646 31.982872
v -0.43533322 56.368904 31.959206
v -0.41138077 56.247063 32.105057
v -0.71100616 56.257175 30.154634
v -0.46828076 56.62167 30.408686
v -0.46828076 56.62167 30.408686
v -0.71100616 56.257175 30.154634
v -0.65275574 56.094395 30.183617
v -0.71100616 56.257175 30.154634
v -0.71100616 56.257175 30.154634
v -0.65275574 56.094395 30.183617
v -0.44992062 56.62167 31.706072
v -0.6926422 56.257175 32.153755
v -0.74559784 56.257175 32.094063
v -0.50287247 56.62167 31.646378
v -0.6926422 56.257175 32.153755
v -0.6343956 56.094395 32.082146
v -0.6873474 56.094395 32.022453
v -0.74559784 56.257175 32.094063
v 0.4014778 56.39646 31.982872
v 0.6587906 56.257175 32.153755
v 0.03955269 56.396317 31.98304
v 0.37752533 56.257175 32.153755
v -0.43533322 56.39646 31.982872
v -0.07340717 56.396317 31.98304
v -0.6926422 56.257175 32.153755
v -0.41138077 56.257175 32.153755
v 0.46902084 56.62167 31.523832
v 0.009385824 56.62167 31.524511
v -0.04328084 56.62167 31.593105
v -0.50287247 56.62167 31.646378
v -0.50287247 56.62167 31.523832
v -0.043240547 56.62167 31.524511
v -0.44992062 56.62167 31.706072
v -0.50287247 56.62167 31.27924
v 0.46902084 56.62167 31.646378
v 0.7117462 56.257175 32.094063
v 0.45628738 56.257175 31.672054
v 0.46902084 56.62167 31.27924
v 0.45594406 56.62167 31.257757
v -0.50287247 56.62167 31.27924
vt 0.411409 0.69081944
vt 0.48181465 0.69081944
vt 0.60262066 0.7916719
vt 0.48170978 0.7916719
vt 0.34665734 0.29314867
vt 0.23282753 0.26067618
vt 0.22087774 0.26067618
vt 0.10704797 0.29314867
vt 0.82544315 0.26664552
vt 0.82544315 0.28656396
vt 0.8010086 0.28947267
vt 0.8188869 0.25925454
vt 0.39766768 0.12422065
vt 0.3290019 0.12422065
vt 0.33599344 0.16926345
vt 0.41384232 0.16926554
vt 0.07403386 0.87763625
vt 0.37967178 0.8776358
vt 0.3957884 0.8325956
vt 0.057917193 0.83259606
vt 0.8326169 0.45628354
vt 0.8009883 0.4540232
vt 0.8018085 0.40222523
vt 0.41942984 0.6457795
vt 0.4316828 0.6457795
vt 0.48181465 0.69081944
vt 0.411409 0.69081944
vt 0.43642503 0.6142487
vt 0.85410553 0.6142487
vt 0.80833435 0.6596499
vt 0.48637706 0.65928876
vt 0.6935116 0.7601411
vt 0.6023117 0.7601411
vt 0.8326553 0.3071259
vt 0.80102646 0.3100346
vt 0.8010086 0.28947267
vt 0.82544315 0.28656396
vt 0.82544315 0.47871634
vt 0.80097044 0.47645602
vt 0.80260265 0.3586745
vt 0.580617 0.15097843
vt 0.57979256 0.11008812
vt 0.46269733 0.11008812
vt 0.46187264 0.15097867
vt 0.86109376 0.6457795
vt 0.905606 0.6457795
vt 0.92542064 0.69081944
vt 0.8151429 0.69081944
vt 0.8151429 0.69081944
vt 0.7676284 0.7916719
vt 0.69994533 0.7916719
vt 0.057917193 0.83259606
vt 0.3957884 0.8325956
vt 0.3286288 0.7317435
vt 0.12507682 0.7317435
vt 0.82115996 0.49434003
vt 0.81078136 0.49854025
vt 0.80097044 0.47645602
vt 0.82544315 0.48419937
vt 0.82544315 0.47871634
vt 0.7961191 0.26834688
vt 0.8010086 0.28947267
vt 0.80097044 0.47645602
vt 0.796101 0.49255583
vt 0.7961191 0.26834688
vt 0.796101 0.49255583
vt 0.6740149 0.49854025
vt 0.6886953 0.49255583
vt 0.86133695 0.1495648
vt 0.85349536 0.1592913
vt 0.8603941 0.19240746
vt 0.86974555 0.19312572
vt 0.77197415 0.24045464
vt 0.7669877 0.23283294
vt 0.75744563 0.27701098
vt 0.76230174 0.28460926
vt 0.78810775 0.2592543
vt 0.78805506 0.26834688
vt 0.6491968 0.12809357
vt 0.64931464 0.14563772
vt 0.8533775 0.14563772
vt 0.85349536 0.12809357
vt 0.87546796 0.24004626
vt 0.86720717 0.2326878
vt 0.7669877 0.23283294
vt 0.77197415 0.24045464
vt 0.6397758 0.14043617
vt 0.64931464 0.14563772
vt 0.6491968 0.12809357
vt 0.6397758 0.12011679
vt 0.86974555 0.19312572
vt 0.8603941 0.19240746
vt 0.86720717 0.2326878
vt 0.87546796 0.24004626
vt 0.76230174 0.28460926
vt 0.75744563 0.27701098
vt 0.7454969 0.2770105
vt 0.7399585 0.28460866
vt 0.4590484 0.7916719
vt 0.3887474 0.69081944
vt 0.35173735 0.7317435
vt 0.41889688 0.8325956
vt 0.3887474 0.69081944
vt 0.39676815 0.6457795
vt 0.41889688 0.8325956
vt 0.40278026 0.8776358
vt 0.34665734 0.29314867
vt 0.36130914 0.30966616
vt 0.42960447 0.17752218
vt 0.41384232 0.16926554
vt 0.41384232 0.16926554
vt 0.42960447 0.17752218
vt 0.41415313 0.12422065
vt 0.39766768 0.12422065
vt 0.23414439 0.32440805
vt 0.36130914 0.30966616
vt 0.34665734 0.29314867
vt 0.41140762 0.6908241
vt 0.48170844 0.79167676
vt 0.60261923 0.79167676
vt 0.48181316 0.6908241
vt 0.82544315 0.26664552
vt 0.8188869 0.25925454
vt 0.8010086 0.28947267
vt 0.82544315 0.28656396
vt 0.056128137 0.12422065
vt 0.039701305 0.1692621
vt 0.11771175 0.16926345
vt 0.12470335 0.12422065
vt 0.8326932 0.45628354
vt 0.8018085 0.40222523
vt 0.8010646 0.45402333
vt 0.41942832 0.6457844
vt 0.41140762 0.6908241
vt 0.48181316 0.6908241
vt 0.43168145 0.6457844
vt 0.43642503 0.6142487
vt 0.4867365 0.65928876
vt 0.80833435 0.6596499
vt 0.85446495 0.6142487
vt 0.6023117 0.7601411
vt 0.69387114 0.7601411
vt 0.8326553 0.3071259
vt 0.82544315 0.28656396
vt 0.8010086 0.28947267
vt 0.80102646 0.3100346
vt 0.82544315 0.47871634
vt 0.8010467 0.47645625
vt 0.80260265 0.3586745
vt 0.80102646 0.3100346
vt 0.8009838 0.3613349
vt 0.8610923 0.6457844
vt 0.8151415 0.6908241
vt 0.92541915 0.6908241
vt 0.90560466 0.6457844
vt 0.8151415 0.6908241
vt 0.76762694 0.79167676
vt 0.80153704 0.79167676
vt 0.92541915 0.6908241
vt 0.8010467 0.47645625
vt 0.81085765 0.49854025
vt 0.82115996 0.49434003
vt 0.82544315 0.48419937
vt 0.82544315 0.47871634
vt 0.7961191 0.26834688
vt 0.796177 0.49255583
vt 0.8010467 0.47645625
vt 0.8010086 0.28947267
vt 0.7961191 0.26834688
vt 0.796177 0.49255583
vt 0.6411427 0.15028846
vt 0.6335097 0.19380322
vt 0.6422351 0.19234574
vt 0.6491729 0.15939397
vt 0.73011005 0.24037024
vt 0.7399585 0.28460866
vt 0.7454969 0.2770105
vt 0.73552155 0.23274586
vt 0.78818405 0.25925454
vt 0.78813136 0.26834688
vt 0.627145 0.24046639
vt 0.73011005 0.24037024
vt 0.73552155 0.23274586
vt 0.63559383 0.23279315
vt 0.86286175 0.14034382
vt 0.86286175 0.12002418
vt 0.85349536 0.12809357
vt 0.8533775 0.14563772
vt 0.6335097 0.19380322
vt 0.627145 0.24046639
vt 0.63559383 0.23279315
vt 0.6422351 0.19234574
vt 0.388746 0.6908241
vt 0.45904687 0.79167676
vt 0.10196811 0.7317435
vt 0.034808625 0.83259606
vt 0.39676672 0.6457844
vt 0.388746 0.6908241
vt 0.034808625 0.83259606
vt 0.050925314 0.87763625
vt 0.10704797 0.29314867
vt 0.039701305 0.1692621
vt 0.024116453 0.17752218
vt 0.09239615 0.30966616
vt 0.039701305 0.1692621
vt 0.056128137 0.12422065
vt 0.039733306 0.12422065
vt 0.024116453 0.17752218
vt 0.3426212 0.21655193
vt 0.41384232 0.16926554
vt 0.24248004 0.21650587
vt 0.33599344 0.16926345
vt 0.11108406 0.21655193
vt 0.21122515 0.21650587
vt 0.039701305 0.1692621
vt 0.11771175 0.16926345
vt 0.36130914 0.34359354
vt 0.23413324 0.34349948
vt 0.21956088 0.32440805
vt 0.09239615 0.30966616
vt 0.09239615 0.34359354
vt 0.21957208 0.34349948
vt 0.10704797 0.29314867
vt 0.6999439 0.79167676
vt 0.80153847 0.7916719
vt 0.92542064 0.69081944
vt 0.80102646 0.3100346
vt 0.80260265 0.3586745
vt 0.8009838 0.3613349
vt 0.80260265 0.3586745
vn 0.7953341 0.59882647 -0.094077386
vn 0.83230764 0.5542603 0.0077231172
vn 0.83230764 0.55426025 0.0077231172
vn 0.8173945 0.5748755 -0.03720851
vn 0.0013046749 0.77544814 0.6314098
vn 0.00082264905 0.77724415 0.6291986
vn -0 0.77991635 0.6258838
vn -0 0.77991635 0.62588376
vn -0 -1 -3.5794594E-05
vn -0 -1 -3.5794594E-05
vn -0 -1 0
vn -0 -1 -1.9062867E-05
vn -0 -0.4026659 0.91534704
vn -0 -0.40266594 0.91534704
vn -0 -0.40266594 0.91534704
vn -0 -0.40266597 0.91534704
vn -0.018921202 -0.18181565 -0.98315054
vn 0.018922303 -0.18181607 -0.9831504
vn 0.038208406 -0.18839742 -0.9813493
vn -0.038208093 -0.18839723 -0.9813494
vn 0.04685741 -0.75346553 0.65581566
vn 0.0468574 -0.7534654 0.65581566
vn 0.046857405 -0.75346553 0.6558156
vn 0.9262603 -0.3543227 -0.12844184
vn 0.9415329 -0.33692113 0
vn 0.9415329 -0.33692113 0
vn 0.92222315 -0.35661513 -0.14943285
vn 0.99999964 -0.0008671573 0
vn 0.99999964 -0.00086715724 0
vn 0.99999964 -0.0008671573 0
vn 0.99999964 -0.00086715724 0
vn 0.99995625 -0.008218776 0.004460713
vn 0.99995625 -0.008218776 0.0044607124
vn 0.06703039 -0.7256639 -0.68477654
vn 0.06629481 -0.7267574 -0.68368757
vn 0.07177302 -0.7185554 -0.6917563
vn 0.07177303 -0.7185554 -0.6917563
vn 0.053428456 -0.7470575 0.66260886
vn 0.053428456 -0.74705744 0.6626089
vn 0.062324192 -0.73261863 -0.67778
vn -0 1 0
vn -0 1 0
vn -0 1 0
vn -0 1 0
vn 0.9415316 -0.33692458 0
vn 0.9415316 -0.33692455 0
vn 0.9415316 -0.3369246 0
vn 0.9415316 -0.33692455 0
vn 0.8323338 0.55427474 0
vn 0.8323351 0.55427265 0
vn 0.83233744 0.55426925 0
vn -0.041677494 0.589844 -0.8064409
vn 0.041678146 0.5898468 -0.80643886
vn 0.016988197 0.5793184 -0.8149243
vn -0.016987901 0.5793172 -0.8149251
vn -0 -1 0
vn -0 -1 0
vn -0 -1 0
vn -0 -1 0
vn -0 -1 0
vn -0 -1 -1.3004421E-05
vn -0 -1 0
vn -0 -1 0
vn -0 -1 0
vn -0 -1 -1.3004421E-05
vn -0 -1 0
vn -0 -1 1.2592779E-05
vn -0 -1 0
vn -0.98660815 0.15629357 0.04665568
vn -0.98660815 0.1562936 0.04665568
vn -0.98660815 0.1562936 0.04665568
vn -0.98660815 0.15629359 0.04665568
vn -0.9860362 -0.1085046 0.12633094
vn -0.9860362 -0.10850461 0.12633096
vn -0.9860362 -0.10850461 0.12633094
vn -0.9860362 -0.1085046 0.12633093
vn -0 -1 -8.296346E-05
vn -0 -1 -8.296347E-05
vn -0 -0.99982363 -0.018780282
vn -0 -0.99982363 -0.018780284
vn -0 -0.99982363 -0.018780284
vn -0 -0.99982363 -0.018780282
vn 0.0006121272 -0.65159583 0.75856614
vn 0.0006121271 -0.65159583 0.75856614
vn 0.0006121272 -0.65159583 0.75856614
vn 0.0006121272 -0.65159583 0.7585661
vn -0.99997044 0.0044364273 0.006283456
vn -0.99997044 0.0044364273 0.0062834565
vn -0.99997044 0.004436427 0.0062834555
vn -0.99997044 0.0044364277 0.0062834565
vn -0.99205995 0.11155328 -0.05807779
vn -0.99205995 0.111553274 -0.058077794
vn -0.99205995 0.111553274 -0.058077797
vn -0.99205995 0.11155329 -0.058077794
vn -0 -0.6515388 0.7586153
vn -0 -0.6515388 0.7586153
vn -0 -0.6515388 0.7586153
vn -0 -0.6515388 0.7586153
vn 0.50530016 0.6939798 -0.5128973
vn 0.5023404 0.69400567 -0.51576185
vn 0.50530016 0.6939798 -0.5128973
vn 0.5023404 0.69400567 -0.51576185
vn 0.6754263 -0.35662073 -0.64546186
vn 0.63727957 -0.35026592 -0.6864317
vn 0.6754263 -0.35662073 -0.64546186
vn 0.63727957 -0.35026592 -0.6864317
vn 0.4531993 0.79559463 0.40204427
vn 0.45319933 0.79559463 0.4020443
vn 0.45319933 0.79559463 0.4020443
vn 0.4531993 0.79559463 0.4020443
vn 0.6527925 -0.48835772 0.5791103
vn 0.6527925 -0.48835775 0.5791103
vn 0.6527925 -0.48835772 0.57911026
vn 0.6527925 -0.48835775 0.5791103
vn -0 1 0
vn -0 1 0
vn -0 1 0
vn -0.7953387 0.59882224 -0.094065584
vn -0.8173963 0.57487303 -0.037205067
vn -0.83230704 0.55426115 0.00771687
vn -0.83230704 0.55426115 0.007716872
vn -0 -1 -2.6845943E-05
vn -0 -1 -1.8033503E-05
vn -0 -1 0
vn -0 -1 -2.6845943E-05
vn -0 -0.40267044 0.915345
vn -0 -0.40267038 0.915345
vn -0 -0.4026704 0.915345
vn -0 -0.40267038 0.915345
vn -0.04687144 -0.7534573 0.655824
vn -0.04687144 -0.75345725 0.655824
vn -0.046871442 -0.7534573 0.655824
vn -0.9262646 -0.3543239 -0.12840775
vn -0.9222284 -0.35661712 -0.14939585
vn -0.94153297 -0.33692068 0
vn -0.94153297 -0.33692065 0
vn -0.99999964 -0.000890617 0
vn -0.99999964 -0.00089061697 0
vn -0.99999964 -0.0008906171 0
vn -0.99999964 -0.00089061697 0
vn -0.99995625 -0.008218777 0.0044607264
vn -0.99995625 -0.008218776 0.0044607264
vn -0.071773276 -0.71855295 -0.69175875
vn -0.07177328 -0.718553 -0.69175875
vn -0.071773276 -0.718553 -0.6917587
vn -0.071773276 -0.718553 -0.6917587
vn -0.053428683 -0.747055 0.6626117
vn -0.05342868 -0.747055 0.66261166
vn -0.73569536 -0.50821847 -0.44773474
vn -0.73569536 -0.50821847 -0.44773468
vn -0.73569536 -0.5082184 -0.44773468
vn -0.9415316 -0.33692467 0
vn -0.9415316 -0.33692464 0
vn -0.9415316 -0.33692473 0
vn -0.9415316 -0.33692473 0
vn -0.8323338 0.55427474 0
vn -0.83233523 0.5542726 0
vn -0.83233345 0.5542752 0
vn -0.83233345 0.5542752 0
vn -0 -1 0
vn -0 -1 1.2592779E-05
vn -0 -1 2.1360367E-05
vn -0 -1 2.1360369E-05
vn -0 -1 2.1360369E-05
vn -0 -1 0
vn -0 -1 0
vn -0 -1 0
vn -0 -1 0
vn -0 -1 0
vn -0 -1 0
vn 0.98660815 0.15629375 0.04665569
vn 0.98660815 0.15629373 0.046655685
vn 0.98660815 0.15629375 0.04665569
vn 0.98660815 0.15629376 0.04665569
vn 0.9860358 -0.108505525 0.12633291
vn 0.9860358 -0.10850553 0.12633292
vn 0.9860358 -0.108505525 0.12633291
vn 0.9860358 -0.108505525 0.12633291
vn -0 -1 0
vn -0 -1 0
vn -0.0006100719 -0.65159684 0.75856525
vn -0.0006100719 -0.65159684 0.7585652
vn -0.0006100719 -0.65159684 0.75856525
vn -0.0006100719 -0.65159684 0.75856525
vn 0.99997044 0.0044364273 0.006283456
vn 0.99997044 0.0044364273 0.006283456
vn 0.99997044 0.0044364273 0.006283456
vn 0.99997044 0.0044364277 0.0062834565
vn 0.99205947 0.11155625 -0.058079336
vn 0.99205947 0.11155625 -0.058079336
vn 0.99205947 0.11155625 -0.058079332
vn 0.99205947 0.11155625 -0.058079332
vn -0.5023418 0.69400096 -0.51576686
vn -0.5053054 0.69397527 -0.5128984
vn -0.5053054 0.69397527 -0.5128984
vn -0.5023418 0.69400096 -0.51576686
vn -0.63728136 -0.35027358 -0.6864262
vn -0.67543614 -0.3566309 -0.64544594
vn -0.67543614 -0.3566309 -0.64544594
vn -0.63728136 -0.35027358 -0.6864262
vn -0.45320556 0.7955858 0.40205473
vn -0.45320556 0.7955858 0.40205473
vn -0.45320547 0.7955858 0.40205473
vn -0.45320556 0.7955858 0.40205473
vn -0.6527924 -0.48835796 0.5791102
vn -0.65279245 -0.4883579 0.5791102
vn -0.6527924 -0.48835796 0.57911026
vn -0.6527924 -0.48835796 0.5791102
vn 0.0011737215 0.7750037 0.6319556
vn 0.00036712879 0.7754003 0.6314699
vn 0.0016387402 0.77457875 0.63247544
vn -0 0.7751238 0.6318095
vn -0.0011737332 0.77500516 0.63195384
vn -0.0016387437 0.774582 0.6324713
vn -0.00036712879 0.77539283 0.6314791
vn -0 0.7751044 0.6318331
vn -0 1 0
vn -0 1 0
vn -0 1 0
vn -0 1 0
vn -0 1 0
vn -0 1 0
vn -0 1 0
vn -0.8323376 0.554269 0
vn 0.83233345 0.5542752 0
vn 0.83233345 0.5542752 0
vn 0.73560035 -0.50829834 -0.44779998
vn 0.7356003 -0.50829834 -0.44780004
vn 0.7356003 -0.50829834 -0.44780004
vn -0.06232516 -0.73261845 -0.67778
g HeavyShassis_CustomizePart_0
f 3/3/3 2/2/2 1/1/1
f 4/4/4 3/3/3 1/1/1
f 7/7/7 6/6/6 5/5/5
f 8/8/8 7/7/7 5/5/5
f 11/11/11 10/10/10 9/9/9
f 12/12/12 11/11/11 9/9/9
f 15/15/15 14/14/14 13/13/13
f 16/16/16 15/15/15 13/13/13
f 19/19/19 18/18/18 17/17/17
f 20/20/20 19/19/19 17/17/17
f 23/23/23 22/22/22 21/21/21
f 26/26/26 25/25/25 24/24/24
f 27/27/27 26/26/26 24/24/24
f 30/30/30 29/29/29 28/28/28
f 31/31/31 30/30/30 28/28/28
f 32/32/32 30/30/30 31/31/31
f 33/33/33 32/32/32 31/31/31
f 36/36/36 35/35/35 34/34/34
f 37/37/37 36/36/36 34/34/34
f 22/22/22 39/39/39 38/38/38
f 21/21/21 22/22/22 38/38/38
f 34/34/34 35/35/35 40/40/40
f 43/43/43 42/42/42 41/41/41
f 44/44/44 43/43/43 41/41/41
f 47/47/47 46/46/46 45/45/45
f 48/48/48 47/47/47 45/45/45
f 51/51/51 50/50/50 49/49/49
f 54/54/54 53/53/53 52/52/52
f 55/55/55 54/54/54 52/52/52
f 58/58/58 57/57/57 56/56/56
f 56/56/56 59/59/59 58/58/58
f 59/59/59 60/60/60 58/58/58
f 63/63/63 62/62/62 61/61/61
f 64/64/64 63/63/63 61/61/61
f 11/11/11 12/12/12 65/65/65
f 67/67/67 57/57/57 66/66/66
f 68/68/68 67/67/67 66/66/66
f 57/57/57 58/58/58 66/66/66
f 71/71/71 70/70/70 69/69/69
f 72/72/72 71/71/71 69/69/69
f 75/75/75 74/74/74 73/73/73
f 76/76/76 75/75/75 73/73/73
f 65/65/65 12/12/12 77/77/77
f 78/78/78 65/65/65 77/77/77
f 81/81/81 80/80/80 79/79/79
f 82/82/82 81/81/81 79/79/79
f 85/85/85 84/84/84 83/83/83
f 86/86/86 85/85/85 83/83/83
f 89/89/89 88/88/88 87/87/87
f 90/90/90 89/89/89 87/87/87
f 93/93/93 92/92/92 91/91/91
f 94/94/94 93/93/93 91/91/91
f 97/97/97 96/96/96 95/95/95
f 98/98/98 97/97/97 95/95/95
f 100/100/100 99/99/99 4/4/4
f 1/1/1 100/100/100 4/4/4
f 53/53/53 54/54/54 101/101/101
f 102/102/102 53/53/53 101/101/101
f 104/104/104 103/103/103 27/27/27
f 24/24/24 104/104/104 27/27/27
f 18/18/18 19/19/19 105/105/105
f 106/106/106 18/18/18 105/105/105
f 109/109/109 108/108/108 107/107/107
f 110/110/110 109/109/109 107/107/107
f 113/113/113 112/112/112 111/111/111
f 114/114/114 113/113/113 111/111/111
f 117/117/117 116/116/116 115/115/115
f 120/120/120 119/119/119 118/118/118
f 121/121/121 120/120/120 118/118/118
f 124/124/124 123/123/123 122/122/122
f 125/125/125 124/124/124 122/122/122
f 128/128/128 127/127/127 126/126/126
f 129/129/129 128/128/128 126/126/126
f 132/132/132 131/131/131 130/130/130
f 135/135/135 134/134/134 133/133/133
f 136/136/136 135/135/135 133/133/133
f 139/139/139 138/138/138 137/137/137
f 140/140/140 139/139/139 137/137/137
f 142/142/142 141/141/141 138/138/138
f 139/139/139 142/142/142 138/138/138
f 145/145/145 144/144/144 143/143/143
f 146/146/146 145/145/145 143/143/143
f 132/132/132 130/130/130 147/147/147
f 148/148/148 132/132/132 147/147/147
f 151/151/151 150/150/150 149/149/149
f 154/154/154 153/153/153 152/152/152
f 155/155/155 154/154/154 152/152/152
f 158/158/158 157/157/157 156/156/156
f 159/159/159 158/158/158 156/156/156
f 162/162/162 161/161/161 160/160/160
f 160/160/160 163/163/163 162/162/162
f 160/160/160 164/164/164 163/163/163
f 167/167/167 166/166/166 165/165/165
f 168/168/168 167/167/167 165/165/165
f 124/124/124 169/169/169 123/123/123
f 161/161/161 170/170/170 160/160/160
f 173/173/173 172/172/172 171/171/171
f 174/174/174 173/173/173 171/171/171
f 177/177/177 176/176/176 175/175/175
f 178/178/178 177/177/177 175/175/175
f 169/169/169 180/180/180 179/179/179
f 123/123/123 169/169/169 179/179/179
f 183/183/183 182/182/182 181/181/181
f 184/184/184 183/183/183 181/181/181
f 187/187/187 186/186/186 185/185/185
f 188/188/188 187/187/187 185/185/185
f 191/191/191 190/190/190 189/189/189
f 192/192/192 191/191/191 189/189/189
f 193/193/193 118/118/118 119/119/119
f 194/194/194 193/193/193 119/119/119
f 52/52/52 196/196/196 195/195/195
f 55/55/55 52/52/52 195/195/195
f 197/197/197 133/133/133 134/134/134
f 198/198/198 197/197/197 134/134/134
f 17/17/17 200/200/200 199/199/199
f 20/20/20 17/17/17 199/199/199
f 203/203/203 202/202/202 201/201/201
f 204/204/204 203/203/203 201/201/201
f 207/207/207 206/206/206 205/205/205
f 208/208/208 207/207/207 205/205/205
f 210/210/210 5/5/5 209/209/209
f 209/209/209 5/5/5 6/6/6
f 211/211/211 209/209/209 6/6/6
f 212/212/212 210/210/210 209/209/209
f 7/7/7 8/8/8 213/213/213
f 214/214/214 7/7/7 213/213/213
f 216/216/216 213/213/213 215/215/215
f 8/8/8 215/215/215 213/213/213
f 115/115/115 116/116/116 217/217/217
f 218/218/218 115/115/115 217/217/217
f 221/221/221 220/220/220 219/219/219
f 222/222/222 221/221/221 219/219/219
f 219/219/219 223/223/223 117/117/117
f 115/115/115 219/219/219 117/117/117
f 220/220/220 223/223/223 219/219/219
f 224/224/224 156/156/156 157/157/157
f 49/49/49 50/50/50 225/225/225
f 226/226/226 49/49/49 225/225/225
f 229/229/229 228/228/228 227/227/227
f 143/143/143 230/230/230 146/146/146
