g HeavyTurret_CustomizePart_CorpsePart
v -0.53483784 0.27509528 0.1342156
v -0.41199517 0.530192 0.331922
v -0.4752612 0.27477074 0.3938728
v -0.45584077 0.584525 0.13375443
v -0.45584077 0.584525 0.13375443
v -0.4752612 0.27273816 -0.41292298
v -0.41199517 0.52957714 -0.38328835
v -0.53483784 0.27509528 0.1342156
v -0.416829 -3.6895275E-05 -0.3849964
v -0.4680704 -3.6895275E-05 0.1345743
v -0.4680704 -3.6895275E-05 0.1345743
v -0.4752612 0.27477074 0.3938728
v -0.416829 -3.6895275E-05 0.4626388
v -0.53483784 0.27509528 0.1342156
v -0.4752612 0.27273816 -0.41292298
v 0.41200063 0.52957714 -0.38328835
v -0.41199517 0.52957714 -0.38328835
v 0.4752496 0.27273816 -0.41292298
v -0.416829 -3.6895275E-05 -0.3849964
v 0.41683438 -3.6895275E-05 -0.3849964
v 2.7418137E-06 -3.6895275E-05 0.52139556
v -0.4680704 -3.6895275E-05 0.1345743
v -0.416829 -3.6895275E-05 0.4626388
v 0.5348433 0.27509528 0.1342156
v 0.41200063 0.530192 0.331922
v 0.4558462 0.584525 0.13375443
v 0.4752496 0.27477074 0.3938728
v 0.4752496 0.27273816 -0.41292298
v 0.4558462 0.584525 0.13375443
v 0.41200063 0.52957714 -0.38328835
v 0.5348433 0.27509528 0.1342156
v 0.41683438 -3.6895275E-05 -0.3849964
v 0.46807578 -3.6895275E-05 0.1345743
v 0.46807578 -3.6895275E-05 0.1345743
v 0.4752496 0.27477074 0.3938728
v 0.5348433 0.27509528 0.1342156
v 0.41683438 -3.6895275E-05 0.4626388
v -0.45584077 0.584525 0.13375443
v 0.41200063 0.530192 0.331922
v -0.41199517 0.530192 0.331922
v 0.4558462 0.584525 0.13375443
v 0.41683438 -3.6895275E-05 0.4626388
v 0.46807578 -3.6895275E-05 0.1345743
v -0.416829 -3.6895275E-05 -0.3849964
v 0.41683438 -3.6895275E-05 -0.3849964
v 0.4558462 0.584525 0.13375443
v -0.41199517 0.52957714 -0.38328835
v 0.41200063 0.52957714 -0.38328835
v -0.45584077 0.584525 0.13375443
v 0.41683438 -3.6895275E-05 0.4626388
v 0.35975146 0.06987345 0.45671183
v 0.4193623 0.26361722 0.40840828
v 0.4752496 0.27477074 0.3938728
v 0.36038345 0.46159685 0.3598656
v 0.41200063 0.530192 0.331922
v 0.05496764 0.46159685 0.38056713
v -0.41199517 0.530192 0.331922
v -0.36131746 0.46159685 0.3598656
v -0.42031336 0.26361722 0.40840828
v -0.4752612 0.27477074 0.3938728
v -0.36070257 0.06987345 0.45671183
v -0.416829 -3.6895275E-05 0.4626388
v 2.7418137E-06 -3.6895275E-05 0.52139556
v -0.054962218 0.06987345 0.5031537
v 0.05496764 0.06987345 0.5031537
v -0.054979324 0.46159685 0.38056713
v 0.35975146 0.06987345 0.45671183
v 0.24148634 0.2422154 0.28353304
v 0.4193623 0.26361722 0.40840828
v 0.36038345 0.46159685 0.3598656
v 0.05496764 0.46159685 0.38056713
v 0.05496764 0.06987345 0.5031537
v -0.054962218 0.06987345 0.5031537
v -0.24206161 0.2422154 0.28353304
v -0.054979324 0.46159685 0.38056713
v -0.36131746 0.46159685 0.3598656
v -0.42031336 0.26361722 0.40840828
v -0.36070257 0.06987345 0.45671183
vt 0.33628833 0.29609448
vt 0.4057141 0.25370824
vt 0.3414039 0.2376307
vt 0.3947521 0.29828686
vt 0.3947521 0.29828686
vt 0.3384807 0.42325318
vt 0.40425247 0.41521442
vt 0.33628833 0.29609448
vt 0.27270895 0.41521442
vt 0.27417058 0.2939021
vt 0.27417058 0.2939021
vt 0.3414039 0.2376307
vt 0.27855533 0.21789917
vt 0.33628833 0.29609448
vt 0.3918289 0.47440904
vt 0.593529 0.41521442
vt 0.40425247 0.41521442
vt 0.6074141 0.47440904
vt 0.40498328 0.5365268
vt 0.5942598 0.5365268
vt 0.49998695 0.74188083
vt 0.39329052 0.6541851
vt 0.40498328 0.72872645
vt 0.6644163 0.29901767
vt 0.5964522 0.25370824
vt 0.6059525 0.29828686
vt 0.6622239 0.23982309
vt 0.65856993 0.42544562
vt 0.6059525 0.29828686
vt 0.593529 0.41521442
vt 0.6644163 0.29901767
vt 0.7243417 0.41959924
vt 0.7272649 0.29828686
vt 0.7272649 0.29828686
vt 0.6622239 0.23982309
vt 0.6644163 0.29901767
vt 0.72580326 0.22301474
vt 0.3947521 0.29828686
vt 0.5964522 0.25370824
vt 0.4057141 0.25370824
vt 0.6059525 0.29828686
vt 0.5942598 0.72872645
vt 0.6059525 0.6541851
vt 0.40498328 0.5365268
vt 0.5942598 0.5365268
vt 0.6059525 0.29828686
vt 0.40425247 0.41521442
vt 0.593529 0.41521442
vt 0.3947521 0.29828686
vt 0.59937537 0.1294727
vt 0.5869518 0.14481944
vt 0.60229856 0.19159046
vt 0.6147221 0.19524446
vt 0.5854902 0.23909229
vt 0.5964522 0.25370824
vt 0.5138721 0.2354383
vt 0.4057141 0.25370824
vt 0.41667604 0.2368999
vt 0.40059847 0.18866728
vt 0.38890576 0.19232127
vt 0.41740686 0.14262705
vt 0.40498328 0.12654951
vt 0.5021793 0.12435712
vt 0.48975575 0.14043465
vt 0.51460284 0.14043465
vt 0.48829418 0.2354383
vt 0.5869518 0.14481944
vt 0.5599123 0.19305205
vt 0.60229856 0.19159046
vt 0.5854902 0.23909229
vt 0.5138721 0.2354383
vt 0.51460284 0.14043465
vt 0.48975575 0.14043465
vt 0.44298476 0.19159046
vt 0.48829418 0.2354383
vt 0.41667604 0.2368999
vt 0.40059847 0.18866728
vt 0.41740686 0.14262705
vn -0.9998079 0.019604048 -0
vn -0.93724763 0.262743 0.22920081
vn -0.9764631 -0.011764646 0.21536358
vn -0.96861994 0.24705684 -0.027171751
vn -0.96861994 0.24705684 -0.027171751
vn -0.99214923 0.011764526 -0.124505006
vn -0.9607769 0.24705684 -0.12597862
vn -0.9998079 0.019604048 -0
vn -0.96861994 -0.22352773 -0.10867724
vn -0.97478557 -0.22314373 -0
vn -0.97478557 -0.22314373 -0
vn -0.9764631 -0.011764646 0.21536358
vn -0.9764631 -0.16862619 0.13448079
vn -0.9998079 0.019604048 -0
vn -0.003921509 -0.0039215684 -0.9999846
vn -0.003921509 0.11372459 -0.9935046
vn -0.003921509 0.11372459 -0.9935046
vn -0.003921509 0.003921509 -0.9999846
vn -0.003921509 -0.098038495 -0.9951749
vn -0.003921509 -0.098038495 -0.9951749
vn -0.003921509 -0.9999924 -0
vn -0.003921509 -0.9999924 -0
vn -0.003921509 -0.9999924 -0
vn 0.9998079 0.019604046 -0
vn 0.93724775 0.262743 0.22920029
vn 0.96862006 0.24705684 -0.027167365
vn 0.97646314 -0.011764646 0.2153633
vn 0.9921493 0.011764526 -0.12450453
vn 0.96862006 0.24705684 -0.027167365
vn 0.960777 0.24705684 -0.12597814
vn 0.9998079 0.019604046 -0
vn 0.96862006 -0.22352773 -0.10867614
vn 0.9747855 -0.2231437 -0
vn 0.9747855 -0.2231437 -0
vn 0.97646314 -0.011764646 0.2153633
vn 0.9998079 0.019604046 -0
vn 0.97646314 -0.16862619 0.13448034
vn -0.003921509 0.99999225 -0.00034526698
vn -0.003921509 0.9607769 0.27729464
vn -0.003921509 0.9607769 0.27729464
vn -0.003921509 0.99999225 -0.00034526698
vn -0.003921509 -0.9999924 -0
vn -0.003921509 -0.9999924 -0
vn -0.003921509 -0.9999924 -0
vn -0.003921509 -0.9999924 -0
vn -0.003921509 0.99999225 -0.00034526698
vn -0.003921509 0.99214923 -0.12499809
vn -0.003921509 0.99214923 -0.12499809
vn -0.003921509 0.99999225 -0.00034526698
vn 0.15294003 0.18431222 0.97089565
vn 0.15294003 0.1764692 0.9723518
vn 0.17646927 0.23137069 0.9567268
vn 0.16862619 0.24705684 0.95421594
vn 0.1294108 0.30195844 0.94449663
vn 0.09019542 0.38823223 0.91713715
vn 0.0039215684 0.47450614 0.8802435
vn -0.0901953 0.38823223 0.91713715
vn -0.12941074 0.30195844 0.9444967
vn -0.1764692 0.23137069 0.9567268
vn -0.1764692 0.24705684 0.9527967
vn -0.15293992 0.1764692 0.9723518
vn -0.15293992 0.1764692 0.9723518
vn -0.003921509 0.1764692 0.98429835
vn -0.05882299 0.23921382 0.96918344
vn 0.05882311 0.23921382 0.96918344
vn -0.003921509 0.47450614 0.8802435
vn -0.098038435 0.670583 0.7353277
vn 0.19215542 0.25489998 0.94768256
vn -0.5764661 0.19999838 0.79226726
vn -0.16862607 -0.23921388 0.95621234
vn 0.45097697 -0.011764646 0.892458
vn 0.42744774 0.4980353 0.7544861
vn -0.42744768 0.4980353 0.75448614
vn -0.19215536 0.25489998 0.94768256
vn -0.45097685 -0.011764646 0.89245814
vn 0.16862619 -0.23921388 0.9562123
vn 0.5764662 0.19999838 0.7922672
vn 0.098038495 0.670583 0.7353277
g HeavyTurret_CustomizePart_CorpsePart_0
f 3/3/3 2/2/2 1/1/1
f 4/4/4 1/1/1 2/2/2
f 7/7/7 6/6/6 5/5/5
f 8/8/8 5/5/5 6/6/6
f 6/6/6 9/9/9 8/8/8
f 10/10/10 8/8/8 9/9/9
f 13/13/13 12/12/12 11/11/11
f 14/14/14 11/11/11 12/12/12
f 17/17/17 16/16/16 15/15/15
f 16/16/16 18/18/18 15/15/15
f 20/20/20 19/19/19 18/18/18
f 18/18/18 19/19/19 15/15/15
f 23/23/23 22/22/22 21/21/21
f 26/26/26 25/25/25 24/24/24
f 27/27/27 24/24/24 25/25/25
f 30/30/30 29/29/29 28/28/28
f 31/31/31 28/28/28 29/29/29
f 28/28/28 31/31/31 32/32/32
f 33/33/33 32/32/32 31/31/31
f 36/36/36 35/35/35 34/34/34
f 37/37/37 34/34/34 35/35/35
f 40/40/40 39/39/39 38/38/38
f 41/41/41 38/38/38 39/39/39
f 43/43/43 42/42/42 21/21/21
f 22/22/22 44/44/44 21/21/21
f 44/44/44 45/45/45 21/21/21
f 45/45/45 43/43/43 21/21/21
f 48/48/48 47/47/47 46/46/46
f 49/49/49 46/46/46 47/47/47
f 52/52/52 51/51/51 50/50/50
f 53/53/53 52/52/52 50/50/50
f 54/54/54 52/52/52 53/53/53
f 55/55/55 54/54/54 53/53/53
f 56/56/56 54/54/54 55/55/55
f 59/59/59 58/58/58 57/57/57
f 60/60/60 59/59/59 57/57/57
f 61/61/61 59/59/59 60/60/60
f 62/62/62 61/61/61 60/60/60
f 61/61/61 62/62/62 63/63/63
f 64/64/64 61/61/61 63/63/63
f 66/66/66 64/64/64 65/65/65
f 56/56/56 66/66/66 65/65/65
f 65/65/65 64/64/64 63/63/63
f 63/63/63 50/50/50 51/51/51
f 65/65/65 63/63/63 51/51/51
f 57/57/57 58/58/58 66/66/66
f 66/66/66 56/56/56 55/55/55
f 57/57/57 66/66/66 55/55/55
f 69/69/69 68/68/68 67/67/67
f 70/70/70 68/68/68 69/69/69
f 71/71/71 68/68/68 70/70/70
f 72/72/72 68/68/68 71/71/71
f 67/67/67 68/68/68 72/72/72
f 75/75/75 74/74/74 73/73/73
f 76/76/76 74/74/74 75/75/75
f 77/77/77 74/74/74 76/76/76
f 78/78/78 74/74/74 77/77/77
f 73/73/73 74/74/74 78/78/78
