g HeavyShotgunTurret_04
v -0.19519892 0.30640942 0.13392049
v -0.24619722 -0.24869753 0.13392049
v -0.24619722 -0.24869753 1.7255545E-05
v -0.19519892 0.30640942 1.7255545E-05
v 0.26360473 -0.15299776 0.13392049
v 0.26360473 -0.15299776 1.7255545E-05
v 0.2381961 -0.24869753 1.7255545E-05
v 0.2381961 -0.24869753 0.13392049
v -0.24619722 -0.24869753 0.13392049
v 0.2381961 -0.24869753 0.13392049
v 0.2381961 -0.24869753 1.7255545E-05
v -0.24619722 -0.24869753 1.7255545E-05
v 0.12980208 -0.15760471 1.7255545E-05
v -0.24619722 -0.24869753 1.7255545E-05
v 0.2381961 -0.24869753 1.7255545E-05
v 0.26360473 -0.15299776 1.7255545E-05
v -0.19519892 0.30640942 0.13392049
v -0.19519892 0.30640942 1.7255545E-05
v 0.09159863 0.31809777 1.7255545E-05
v 0.09159863 0.31809777 0.13392049
v 0.12980208 -0.15760471 1.7255545E-05
v 0.26360473 -0.15299776 1.7255545E-05
v 0.26360473 -0.15299776 0.13392049
v 0.12980208 -0.15760471 0.13422224
v 0.09159863 0.31809777 1.7255545E-05
v 0.12980208 -0.15760471 1.7255545E-05
v 0.12980208 -0.15760471 0.13422224
v 0.09159863 0.31809777 0.13392049
v -0.19519892 0.30640942 1.7255545E-05
v 0.09159863 0.31809777 1.7255545E-05
v -0.1260947 -0.13569656 1.0254151
v 0.10469523 -0.13569656 1.0254151
v 0.10469523 -0.22978692 1.0144106
v -0.1260947 -0.22978692 1.0144106
v -0.1260947 -0.13569656 1.0254151
v -0.1260947 -0.13569656 0.8795217
v 0.10469523 -0.13569656 0.8795217
v 0.10469523 -0.13569656 1.0254151
v -0.1260947 -0.22978692 1.0144106
v -0.1260947 -0.29199076 0.8795217
v -0.1260947 -0.13569656 0.8795217
v -0.1260947 -0.13569656 1.0254151
v 0.10469523 -0.13569656 1.0254151
v 0.10469523 -0.13569656 0.8795217
v 0.10469523 -0.22978692 1.0144106
v 0.10469523 -0.29299664 0.8795217
v 0.10469523 -0.29299664 0.8795217
v -0.1260947 -0.29199076 0.8795217
v -0.13289449 0.44121796 0.57331055
v 0.111495 0.44121796 0.57331055
v 0.111495 -0.13571668 0.57331055
v -0.13289449 -0.13571668 0.57331055
v 0.11300382 -0.1356161 0.12881058
v 0.111495 -0.13571668 0.57331055
v 0.111495 0.44121796 0.57331055
v 0.11300382 0.44111735 0.12881058
v 0.11300382 -0.1356161 0.12881058
v 0.11300382 0.44111735 0.12881058
v -0.1345039 0.44111735 0.12881058
v -0.1345039 -0.1356161 0.12881058
v -0.1345039 -0.1356161 0.12881058
v -0.1345039 0.44111735 0.12881058
v -0.13289449 0.44121796 0.57331055
v -0.13289449 -0.13571668 0.57331055
v -0.08000511 0.32940394 0.655612
v -0.38289678 0.3292027 0.69301075
v -0.38289678 0.3292027 0.61821324
v -0.08000511 0.32940394 0.54240984
v -0.080206305 -0.02539137 0.655612
v -0.08000511 0.32940394 0.655612
v -0.08000511 0.32940394 0.54240984
v -0.080206305 -0.02539137 0.54240984
v -0.080206305 -0.02539137 0.655612
v -0.080206305 -0.02539137 0.54240984
v -0.383098 -0.025491953 0.61821324
v -0.383098 -0.025491953 0.69301075
v -0.38289678 0.3292027 0.61821324
v -0.38289678 0.3292027 0.69301075
v -0.383098 -0.025491953 0.69301075
v -0.383098 -0.025491953 0.61821324
v -0.3953094 -0.12960091 0.6422136
v -0.3953094 -0.03649631 0.6422136
v -0.29242766 -0.03649631 0.58284634
v -0.17479959 -0.12960091 0.51490897
v -0.17479959 -0.12960091 0.26021922
v -0.17479959 -0.12960091 0.51490897
v -0.17479959 0.43180287 0.51490897
v -0.17479959 0.43180287 0.26021922
v -0.3953094 0.43180287 0.1329146
v -0.3953094 -0.12960091 0.1329146
v -0.6157991 0.43180287 0.26021922
v -0.6157991 0.341213 0.26021922
v -0.6157991 -0.12960091 0.26021922
v -0.6157991 -0.03649631 0.26021922
v -0.6157991 -0.03649631 0.51490897
v -0.6157991 -0.12960091 0.51490897
v -0.17479959 -0.12960091 0.26021922
v -0.3953094 -0.12960091 0.1329146
v -0.6157991 -0.12960091 0.26021922
v -0.17479959 -0.12960091 0.51490897
v -0.6157991 -0.12960091 0.51490897
v -0.3953094 -0.12960091 0.6422136
v -0.6157991 0.43180287 0.26021922
v -0.3953094 0.43180287 0.1329146
v -0.17479959 0.43180287 0.26021922
v -0.6157991 0.43180287 0.51490897
v -0.17479959 0.43180287 0.51490897
v -0.3953094 0.43180287 0.6422136
v -0.6157991 0.341213 0.26021922
v -0.6157991 0.341213 0.51490897
v -0.3953094 0.341213 0.6422136
v -0.29242766 0.341213 0.58284634
v -0.29242766 0.341213 0.58284634
v -0.17479959 0.43180287 0.51490897
v -0.3953094 0.341213 0.6422136
v -0.3953094 0.43180287 0.6422136
v -0.6157991 0.43180287 0.51490897
v -0.6157991 0.341213 0.51490897
v -0.29242766 0.341213 0.58284634
v -0.29242766 -0.03649631 0.58284634
v -0.6157991 -0.03649631 0.26021922
v -0.6157991 0.341213 0.26021922
v -0.50350225 0.341213 0.48654306
v -0.50350225 -0.03649631 0.48654306
v -0.28969163 -0.006601453 0.47594106
v -0.28969163 0.311298 0.47594106
v -0.3953094 -0.03649631 0.6422136
v -0.6157991 -0.03649631 0.51490897
v -0.6157991 -0.03649631 0.26021922
v -0.29242766 -0.03649631 0.58284634
v -0.51680005 -0.03649631 0.5514427
v -0.51680005 0.341213 0.5514427
v -0.3953094 0.341213 0.625013
v -0.3953094 -0.03649631 0.625013
v -0.26800478 0.341213 0.5656256
v -0.26800478 -0.03649631 0.5656256
v -0.50350225 -0.03649631 0.48654306
v -0.50350225 0.341213 0.48654306
v -0.51680005 0.341213 0.5514427
v -0.51680005 -0.03649631 0.5514427
vt 0.4621415 0.8711324
vt 0.4789686 0.8711324
vt 0.4789686 0.867393
vt 0.4621415 0.867393
vt 0.49626306 0.8711324
vt 0.49626306 0.867393
vt 0.49345854 0.867393
vt 0.49345854 0.8711324
vt 0.4789686 0.8711324
vt 0.49345854 0.8711324
vt 0.49345854 0.867393
vt 0.4789686 0.867393
vt 0.41680196 0.7659633
vt 0.41119295 0.7673656
vt 0.41820422 0.7673656
vt 0.41867164 0.7659633
vt 0.4621415 0.8711324
vt 0.4621415 0.867393
vt 0.45372802 0.867393
vt 0.45372802 0.8711324
vt 0.43923804 0.867393
vt 0.43549868 0.867393
vt 0.43549868 0.8711324
vt 0.43923804 0.8711324
vt 0.45372802 0.867393
vt 0.43923804 0.867393
vt 0.43923804 0.8711324
vt 0.45372802 0.8711324
vt 0.4121278 0.75941944
vt 0.41586715 0.758952
vt 0.43456388 0.8089658
vt 0.44157514 0.8089658
vt 0.44157514 0.8061613
vt 0.43456388 0.8061613
vt 0.44110772 0.8337389
vt 0.44110772 0.82953215
vt 0.43456388 0.82953215
vt 0.43456388 0.8337389
vt 0.4439122 0.8337389
vt 0.4457819 0.82953215
vt 0.44110772 0.82953215
vt 0.44110772 0.8337389
vt 0.43456388 0.8337389
vt 0.43456388 0.82953215
vt 0.43175936 0.8337389
vt 0.42988968 0.82953215
vt 0.44157514 0.8019545
vt 0.43456388 0.8019545
vt 0.44718415 0.8444896
vt 0.44718415 0.84168506
vt 0.44110772 0.84168506
vt 0.44110772 0.8444896
vt 0.44110772 0.83701086
vt 0.44110772 0.84168506
vt 0.44718415 0.84168506
vt 0.44718415 0.83701086
vt 0.49392596 0.8585121
vt 0.49392596 0.850566
vt 0.49065405 0.850566
vt 0.49065405 0.8585121
vt 0.44110772 0.8491638
vt 0.44718415 0.8491638
vt 0.44718415 0.8444896
vt 0.44110772 0.8444896
vt 0.40698618 0.7776488
vt 0.41586715 0.7776488
vt 0.41586715 0.7757791
vt 0.40698618 0.77344203
vt 0.48037082 0.7916713
vt 0.49112147 0.7916713
vt 0.49112147 0.78839934
vt 0.48037082 0.78839934
vt 0.43549868 0.7776488
vt 0.43549868 0.77344203
vt 0.42661774 0.7757791
vt 0.42661774 0.7776488
vt 0.41586715 0.7757791
vt 0.41586715 0.7776488
vt 0.42661774 0.7776488
vt 0.42661774 0.7757791
vt 0.4462493 0.8155097
vt 0.44344482 0.8155097
vt 0.44344482 0.8197164
vt 0.4462493 0.82345575
vt 0.4462493 0.78466004
vt 0.4462493 0.7809207
vt 0.42942226 0.7809207
vt 0.42942226 0.78466004
vt 0.42942226 0.7921387
vt 0.4462493 0.7921387
vt 0.42942226 0.8000848
vt 0.43222678 0.8000848
vt 0.4462493 0.8000848
vt 0.44344482 0.8000848
vt 0.44344482 0.80803096
vt 0.4462493 0.80803096
vt 0.40605137 0.82719505
vt 0.3995075 0.82345575
vt 0.39296365 0.82719505
vt 0.40605137 0.83467376
vt 0.39296365 0.83467376
vt 0.3995075 0.8384131
vt 0.40605137 0.82719505
vt 0.3995075 0.82345575
vt 0.39296365 0.82719505
vt 0.40605137 0.83467376
vt 0.39296365 0.83467376
vt 0.3995075 0.8384131
vt 0.42755258 0.83420634
vt 0.4303571 0.8407502
vt 0.43456388 0.8430873
vt 0.43736836 0.84168506
vt 0.43222678 0.8197164
vt 0.42942226 0.82345575
vt 0.43222678 0.8155097
vt 0.42942226 0.8155097
vt 0.42942226 0.80803096
vt 0.43222678 0.80803096
vt 0.43923804 0.76923525
vt 0.4485864 0.76923525
vt 0.44952124 0.7542778
vt 0.4383032 0.7542778
vt 0.4383032 0.7757791
vt 0.44952124 0.7757791
vt 0.4485864 0.76923525
vt 0.43923804 0.76923525
vt 0.43456388 0.8430873
vt 0.4303571 0.8407502
vt 0.42755258 0.83420634
vt 0.43736836 0.84168506
vt 0.44344482 0.8117703
vt 0.43222678 0.8117703
vt 0.43222678 0.8159771
vt 0.44344482 0.8159771
vt 0.43222678 0.8197164
vt 0.44344482 0.8197164
vt 0.44344482 0.80990064
vt 0.43222678 0.80990064
vt 0.43222678 0.8117703
vt 0.44344482 0.8117703
vn -0.99214923 0.0901953 -0.086629726
vn -0.99214923 0.0901953 -0.086629726
vn -0.99214923 0.0901953 -0.086629726
vn -0.99214923 0.0901953 -0.086629726
vn 0.9670746 -0.25449333 -0
vn 0.9670746 -0.25449333 -0
vn 0.9670746 -0.25449333 -0
vn 0.9670746 -0.25449333 -0
vn -0.003921509 -0.9999924 -0
vn -0.003921509 -0.9999924 -0
vn -0.003921509 -0.9999924 -0
vn -0.003921509 -0.9999924 -0
vn -0.003921509 0.003921509 -0.9999846
vn -0.003921509 0.003921509 -0.9999846
vn -0.003921509 0.003921509 -0.9999846
vn -0.003921509 0.003921509 -0.9999846
vn -0.04309709 0.9990709 -0
vn -0.04309709 0.9990709 -0
vn -0.04309709 0.9990709 -0
vn -0.04309709 0.9990709 -0
vn -0.03527213 0.9993777 -0
vn -0.03527213 0.9993777 -0
vn -0.03527213 0.9993777 -0
vn -0.03527213 0.9993777 -0
vn 0.9966261 0.08207506 -0
vn 0.9966261 0.08207506 -0
vn 0.9966261 0.08207506 -0
vn 0.9966261 0.08207506 -0
vn -0.003921509 0.003921509 -0.9999846
vn -0.003921509 0.003921509 -0.9999846
vn -0.003921509 -0.11372465 0.9935046
vn -0.003921509 -0.11372465 0.9935046
vn -0.003921509 -0.6784262 0.73465806
vn -0.003921509 -0.6784262 0.73465806
vn -0.003921509 0.99999225 -0.00034526698
vn -0.003921509 0.99999225 -0.00034526698
vn -0.003921509 0.99999225 -0.00034526698
vn -0.003921509 0.99999225 -0.00034526698
vn -0.99999225 0.003921509 -0.00034492963
vn -0.99999225 0.003921509 -0.00034492963
vn -0.99999225 0.003921509 -0.00034492963
vn -0.99999225 0.003921509 -0.00034492963
vn 0.9999924 0.003921509 -0
vn 0.9999924 0.003921509 -0
vn 0.9999924 0.003921509 -0
vn 0.9999924 0.003921509 -0
vn -0.003921509 -0.90587544 0.42352602
vn -0.003921509 -0.90587544 0.42352602
vn -0.003921509 0.003921509 0.9999846
vn -0.003921509 0.003921509 0.9999846
vn -0.003921509 0.003921509 0.9999846
vn -0.003921509 0.003921509 0.9999846
vn 0.9999924 0.003921509 -0
vn 0.9999924 0.003921509 -0
vn 0.9999924 0.003921509 -0
vn 0.9999924 0.003921509 -0
vn -0.003921509 0.003921509 -0.9999846
vn -0.003921509 0.003921509 -0.9999846
vn -0.003921509 0.003921509 -0.9999846
vn -0.003921509 0.003921509 -0.9999846
vn -0.99999225 0.003921509 -0.00034492963
vn -0.99999225 0.003921509 -0.00034492963
vn -0.99999225 0.003921509 -0.00034492963
vn -0.99999225 0.003921509 -0.00034492963
vn -0.003921509 0.99999225 -0.00034526698
vn -0.003921509 0.99999225 -0.00034526698
vn -0.003921509 0.99999225 -0.00034526698
vn -0.003921509 0.99999225 -0.00034526698
vn 0.9999924 -0.0039215684 -0
vn 0.9999924 -0.0039215684 -0
vn 0.9999924 -0.0039215684 -0
vn 0.9999924 -0.0039215684 -0
vn 0.0039215684 -0.9999924 -0
vn 0.0039215684 -0.9999924 -0
vn 0.0039215684 -0.9999924 -0
vn 0.0039215684 -0.9999924 -0
vn -0.99999225 0.003921509 -0.00034492963
vn -0.99999225 0.003921509 -0.00034492963
vn -0.99999225 0.003921509 -0.00034492963
vn -0.99999225 0.003921509 -0.00034492963
vn -0.0901953 -0.0039215684 0.99591637
vn -0.0901953 -0.0039215684 0.99591637
vn 0.49803543 -0.0039215684 0.8671478
vn 0.96862006 0.003921509 0.24851513
vn 0.86666006 0.003921509 -0.49888372
vn 0.96862006 0.003921509 0.24851513
vn 0.96862006 0.003921509 0.24851513
vn 0.86666006 0.003921509 -0.49888372
vn 0.11372465 0.003921509 -0.9935046
vn 0.11372465 0.003921509 -0.9935046
vn -0.9450908 0.003921509 -0.3267844
vn -0.5999954 0.003921509 -0.7999939
vn -0.9450908 0.003921509 -0.3267844
vn -0.5999954 0.003921509 -0.7999939
vn -0.86666 0.003921509 0.49888384
vn -0.86666 0.003921509 0.49888384
vn -0.003921509 -0.9999924 -0
vn -0.003921509 -0.9999924 -0
vn -0.003921509 -0.9999924 -0
vn -0.003921509 -0.9999924 -0
vn -0.003921509 -0.9999924 -0
vn -0.003921509 -0.9999924 -0
vn -0.003921509 0.99999225 -0.00034526698
vn -0.003921509 0.99999225 -0.00034526698
vn -0.003921509 0.99999225 -0.00034526698
vn -0.003921509 0.99999225 -0.00034526698
vn -0.003921509 0.99999225 -0.00034526698
vn -0.003921509 0.99999225 -0.00034526698
vn -0.003921509 -0.9999924 -0
vn -0.003921509 -0.9999924 -0
vn -0.003921509 -0.9999924 -0
vn -0.003921509 -0.9999924 -0
vn 0.49803543 0.003921509 0.8671478
vn 0.96862006 0.003921509 0.24851513
vn -0.0901953 0.003921509 0.99591637
vn -0.0901953 0.003921509 0.99591637
vn -0.86666 0.003921509 0.49888384
vn -0.86666 0.003921509 0.49888384
vn -0.70979846 0.003921509 0.7043939
vn -0.70979846 0.003921509 0.7043939
vn -0.70979846 0.003921509 0.7043939
vn -0.70979846 0.003921509 0.7043939
vn -0.050979972 0.003921509 -0.998692
vn -0.050979972 0.003921509 -0.998692
vn -0.050979972 0.003921509 -0.998692
vn -0.050979972 0.003921509 -0.998692
vn -0.003921509 0.99999225 -0.00034526698
vn -0.003921509 0.99999225 -0.00034526698
vn -0.003921509 0.99999225 -0.00034526698
vn -0.003921509 0.99999225 -0.00034526698
vn -0.5215646 0.003921509 0.85320276
vn -0.5215646 0.003921509 0.85320276
vn -0.05882299 0.003921509 0.99826074
vn -0.05882299 0.003921509 0.99826074
vn 0.41960466 0.003921509 0.9076985
vn 0.41960466 0.003921509 0.9076985
vn -0.9764631 0.003921509 -0.21564901
vn -0.9764631 0.003921509 -0.21564901
vn -0.9764631 0.003921509 -0.21564901
vn -0.9764631 0.003921509 -0.21564901
g HeavyShotgunTurret_04_0
f 3/3/3 2/2/2 1/1/1
f 4/4/4 3/3/3 1/1/1
f 7/7/7 6/6/6 5/5/5
f 8/8/8 7/7/7 5/5/5
f 11/11/11 10/10/10 9/9/9
f 12/12/12 11/11/11 9/9/9
f 15/15/15 14/14/14 13/13/13
f 16/16/16 15/15/15 13/13/13
f 19/19/19 18/18/18 17/17/17
f 20/20/20 19/19/19 17/17/17
f 23/23/23 22/22/22 21/21/21
f 24/24/24 23/23/23 21/21/21
f 27/27/27 26/26/26 25/25/25
f 28/28/28 27/27/27 25/25/25
f 13/13/13 14/14/14 29/29/29
f 30/30/30 13/13/13 29/29/29
f 33/33/33 32/32/32 31/31/31
f 34/34/34 33/33/33 31/31/31
f 37/37/37 36/36/36 35/35/35
f 38/38/38 37/37/37 35/35/35
f 41/41/41 40/40/40 39/39/39
f 42/42/42 41/41/41 39/39/39
f 45/45/45 44/44/44 43/43/43
f 46/46/46 44/44/44 45/45/45
f 47/47/47 33/33/33 34/34/34
f 48/48/48 47/47/47 34/34/34
f 51/51/51 50/50/50 49/49/49
f 52/52/52 51/51/51 49/49/49
f 55/55/55 54/54/54 53/53/53
f 56/56/56 55/55/55 53/53/53
f 59/59/59 58/58/58 57/57/57
f 60/60/60 59/59/59 57/57/57
f 63/63/63 62/62/62 61/61/61
f 64/64/64 63/63/63 61/61/61
f 67/67/67 66/66/66 65/65/65
f 68/68/68 67/67/67 65/65/65
f 71/71/71 70/70/70 69/69/69
f 72/72/72 71/71/71 69/69/69
f 75/75/75 74/74/74 73/73/73
f 76/76/76 75/75/75 73/73/73
f 79/79/79 78/78/78 77/77/77
f 80/80/80 79/79/79 77/77/77
f 83/83/83 82/82/82 81/81/81
f 84/84/84 83/83/83 81/81/81
f 87/87/87 86/86/86 85/85/85
f 88/88/88 87/87/87 85/85/85
f 89/89/89 88/88/88 85/85/85
f 90/90/90 89/89/89 85/85/85
f 92/92/92 91/91/91 89/89/89
f 94/94/94 90/90/90 93/93/93
f 95/95/95 94/94/94 93/93/93
f 96/96/96 95/95/95 93/93/93
f 99/99/99 98/98/98 97/97/97
f 97/97/97 100/100/100 99/99/99
f 100/100/100 101/101/101 99/99/99
f 100/100/100 102/102/102 101/101/101
f 82/82/82 95/95/95 96/96/96
f 81/81/81 82/82/82 96/96/96
f 105/105/105 104/104/104 103/103/103
f 103/103/103 106/106/106 105/105/105
f 106/106/106 107/107/107 105/105/105
f 106/106/106 108/108/108 107/107/107
f 111/111/111 110/110/110 109/109/109
f 112/112/112 111/111/111 109/109/109
f 114/114/114 113/113/113 83/83/83
f 84/84/84 114/114/114 83/83/83
f 116/116/116 115/115/115 113/113/113
f 114/114/114 116/116/116 113/113/113
f 117/117/117 91/91/91 92/92/92
f 118/118/118 117/117/117 92/92/92
f 116/116/116 117/117/117 118/118/118
f 115/115/115 116/116/116 118/118/118
f 121/121/121 120/120/120 119/119/119
f 122/122/122 121/121/121 119/119/119
f 125/125/125 124/124/124 123/123/123
f 126/126/126 125/125/125 123/123/123
f 129/129/129 128/128/128 127/127/127
f 130/130/130 129/129/129 127/127/127
f 133/133/133 132/132/132 131/131/131
f 134/134/134 133/133/133 131/131/131
f 135/135/135 133/133/133 134/134/134
f 136/136/136 135/135/135 134/134/134
f 139/139/139 138/138/138 137/137/137
f 140/140/140 139/139/139 137/137/137
f 90/90/90 94/94/94 92/92/92
f 89/89/89 90/90/90 92/92/92
