g HeavyShassis_01_CorpsePart
v -0.9967704 -0.329323 0.32683992
v -0.9967704 -0.33002007 -0.58704215
v -0.99694455 -0.27155185 -0.61960196
v -0.99694455 -0.27021575 0.36030018
v -0.99828064 0.17449725 -0.16829574
v -0.99828064 0.17394531 -0.0965538
v -0.974754 -0.4396081 0.41937828
v -0.97466683 -0.46635884 0.31960762
v -0.974754 -0.4396081 0.21983695
v -0.9749863 -0.36658815 0.49242735
v -0.9749863 -0.36658815 0.146788
v -0.9752768 -0.26681745 0.120066285
v -0.9752768 -0.26681745 0.51914907
v -0.9755672 -0.16701776 0.49242735
v -0.9755672 -0.16701776 0.146788
v -0.97579956 -0.09399778 0.41937828
v -0.97579956 -0.09399778 0.21983695
v -0.97585773 -0.06724703 0.31960762
v -0.97777474 -0.43963715 -0.49148306
v -0.9776876 -0.46635884 -0.59125376
v -0.97777474 -0.43963715 -0.6910535
v -0.9780071 -0.36658815 -0.4184631
v -0.9780071 -0.36658815 -0.76407343
v -0.9782975 -0.26681745 -0.39171237
v -0.9782975 -0.26681745 -0.7908242
v -0.978588 -0.16704679 -0.4184631
v -0.978588 -0.16704679 -0.76407343
v -0.9788203 -0.09399778 -0.49148306
v -0.9788203 -0.09399778 -0.6910535
v -0.9788784 -0.06727606 -0.59125376
v -0.97126853 -0.045463026 -0.031114638
v -0.97091997 -0.07012254 -0.13088536
v -0.9712105 -0.045056403 -0.23065603
v -0.971588 0.026888847 0.04193431
v -0.971588 0.026888847 -0.30370504
v -0.9719075 0.12665957 0.06865603
v -0.9719075 0.12665957 -0.33042675
v -0.972198 0.22643018 0.04193431
v -0.972198 0.22643018 -0.30370504
v -0.97240126 0.29947925 -0.031114638
v -0.97240126 0.29947925 -0.23065603
v -0.9724884 0.32620096 -0.13088536
v -0.9715589 -0.48265326 0.09895033
v -0.97152996 -0.49566558 0.05027032
v -0.9715589 -0.48265326 0.0016193986
v -0.97167516 -0.44701466 -0.033990145
v -0.97167516 -0.44701466 0.13455987
v -0.97182035 -0.39836374 0.14760125
v -0.97182035 -0.39836374 -0.04703152
v -0.9719657 -0.34971285 0.13455987
v -0.9719657 -0.34971285 -0.033990145
v -0.9720818 -0.31410325 0.09895033
v -0.9720818 -0.31410325 0.0016193986
v -0.97211087 -0.30106193 0.05027032
v -0.9715589 -0.48265326 -0.27439827
v -0.97152996 -0.49566558 -0.3230492
v -0.9715589 -0.48265326 -0.37172917
v -0.97167516 -0.44701466 -0.40733874
v -0.97167516 -0.44701466 -0.23878872
v -0.97182035 -0.39836374 -0.2257474
v -0.97182035 -0.39836374 -0.4203801
v -0.9719657 -0.34971285 -0.23878872
v -0.9719657 -0.34971285 -0.40733874
v -0.9720818 -0.31410325 -0.27439827
v -0.9720818 -0.31410325 -0.37172917
v -0.97211087 -0.30106193 -0.3230492
v -0.9623226 -0.09605998 0.49608707
v -0.96165454 -0.31930238 0.5621071
v -0.96104455 -0.52311337 0.40055692
v -0.96374583 0.37801778 -0.012961328
v -0.9609574 -0.55003846 -0.13271523
v -0.9624678 -0.05220157 -0.7526586
v -0.96374583 0.371773 -0.25380516
v -0.96107364 -0.5148936 -0.6732487
v -0.96168363 -0.31413227 -0.84566176
v -0.6640271 -0.09515959 0.49608707
v -0.66542125 0.37566507 -0.13332516
v -0.66274905 -0.51399314 -0.6732487
v -0.66274905 -0.52224207 0.40055692
v -0.6641433 -0.05130118 -0.7526586
v -0.66335905 -0.3132319 -0.84566176
v -0.66335905 -0.31840193 0.5621071
v -0.5552523 -0.262025 -0.86488974
v -0.55577517 -0.087346435 -0.81420565
v -1.0371143 -0.088769615 -0.81420565
v -1.0365914 -0.26347727 -0.86488974
v -1.0365914 -0.26214117 0.58522713
v -1.0370853 -0.09147084 0.5319289
v -0.55577517 -0.0900476 0.5319289
v -0.5552523 -0.2606889 0.58522713
v -0.55443907 -0.531188 0.40078926
v -1.0357782 -0.5326403 0.40078926
v -1.0360687 -0.43051693 0.54253054
v -0.55475855 -0.42906466 0.54253054
v -1.0382761 0.30023444 0.11300826
v -0.556937 0.30168664 0.11300826
v -0.5547296 -0.43228868 -0.8141766
v -1.0360687 -0.4337119 -0.8141766
v -1.0384794 0.37337053 -0.26553947
v -0.5571693 0.37482285 -0.26553947
v -0.55725646 0.4092996 -0.1353293
v -1.0385956 0.40787637 -0.1353293
v -0.554381 -0.5561089 -0.50748706
v -1.035691 -0.55753213 -0.50748706
v -1.035691 -0.55753213 -0.13233763
v -0.554381 -0.5561089 -0.13233763
v -0.5571693 0.3784244 0.001909852
v -1.0385084 0.3769722 0.001909852
v -1.035691 -0.55753213 0.24263752
v -0.554381 -0.5561089 0.24263752
v -0.55446815 -0.52494323 -0.67560136
v -1.0358073 -0.52639556 -0.67560136
v -1.0382761 0.29965353 -0.3660363
v -0.556937 0.30110574 -0.3660363
vt 0.5535366 0.8447444
vt 0.73731714 0.8447444
vt 0.74441975 0.857174
vt 0.5455462 0.8580618
vt 0.6556369 0.9441812
vt 0.6405438 0.9441812
vt 0.3697561 0.90778023
vt 0.34844822 0.90156543
vt 0.3262525 0.90778023
vt 0.38573703 0.9237611
vt 0.3102716 0.9237611
vt 0.3049446 0.945069
vt 0.391064 0.945069
vt 0.38573703 0.9663769
vt 0.3102716 0.9663769
vt 0.3697561 0.9823578
vt 0.3262525 0.9823578
vt 0.34844822 0.9876848
vt 0.3697561 0.90778023
vt 0.34844822 0.90156543
vt 0.3262525 0.90778023
vt 0.38573703 0.9237611
vt 0.3102716 0.9237611
vt 0.391064 0.945069
vt 0.3049446 0.945069
vt 0.38573703 0.9663769
vt 0.3102716 0.9663769
vt 0.3697561 0.9823578
vt 0.3262525 0.9823578
vt 0.34844822 0.9885726
vt 0.3697561 0.90778023
vt 0.34844822 0.90156543
vt 0.3262525 0.90778023
vt 0.38573703 0.9237611
vt 0.3102716 0.9237611
vt 0.391064 0.945069
vt 0.3049446 0.945069
vt 0.38573703 0.9663769
vt 0.3102716 0.9663769
vt 0.3697561 0.9823578
vt 0.3262525 0.9823578
vt 0.34844822 0.9885726
vt 0.5304531 0.84296876
vt 0.5162478 0.8394174
vt 0.50204253 0.84296876
vt 0.49138862 0.8536227
vt 0.541107 0.8536227
vt 0.5446583 0.86782795
vt 0.4878373 0.86782795
vt 0.541107 0.88203317
vt 0.49138862 0.88203317
vt 0.5304531 0.89268714
vt 0.50204253 0.89268714
vt 0.5162478 0.89623845
vt 0.5304531 0.84296876
vt 0.5162478 0.8394174
vt 0.50204253 0.84296876
vt 0.49138862 0.8536227
vt 0.541107 0.8536227
vt 0.5446583 0.86782795
vt 0.4878373 0.86782795
vt 0.541107 0.88203317
vt 0.49138862 0.88203317
vt 0.5304531 0.89268714
vt 0.50204253 0.89268714
vt 0.5162478 0.89623845
vt 0.90156543 0.92109764
vt 0.91488284 0.9548351
vt 0.89446276 0.98590916
vt 0.8261 0.8474079
vt 0.8074556 0.9938996
vt 0.7151214 0.91488284
vt 0.789699 0.8482957
vt 0.7168971 0.9832457
vt 0.6982527 0.9539473
vt 0.62101156 0.9539473
vt 0.55708796 0.90866804
vt 0.4967156 0.9912361
vt 0.61657244 0.9930118
vt 0.49582776 0.950396
vt 0.484286 0.9743674
vt 0.62988985 0.9743674
vt 0.40615708 0.08565094
vt 0.40615708 0.08565094
vt 0.42302582 0.08565094
vt 0.42302582 0.08565094
vt 0.42302582 0.08565094
vt 0.42302582 0.08565094
vt 0.40615708 0.08565094
vt 0.40615708 0.08565094
vt 0.40615708 0.08565094
vt 0.42302582 0.08565094
vt 0.42302582 0.08565094
vt 0.40615708 0.08565094
vt 0.42302582 0.08565094
vt 0.40615708 0.08565094
vt 0.40615708 0.08565094
vt 0.42302582 0.08565094
vt 0.42302582 0.08565094
vt 0.40615708 0.08565094
vt 0.40615708 0.08565094
vt 0.42302582 0.08565094
vt 0.40615708 0.08565094
vt 0.42302582 0.08565094
vt 0.42302582 0.08565094
vt 0.40615708 0.08565094
vt 0.40615708 0.08565094
vt 0.42302582 0.08565094
vt 0.42302582 0.08565094
vt 0.40615708 0.08565094
vt 0.40615708 0.08565094
vt 0.42302582 0.08565094
vt 0.42302582 0.08565094
vt 0.40615708 0.08565094
vn -0.99999225 -0.0039215684 -0.00034425134
vn -0.99999225 -0.0039215684 -0.00034425134
vn -0.99999225 -0.0039215684 -0.00034425134
vn -0.99999225 -0.0039215684 -0.00034425134
vn -0.99999225 -0.0039215684 -0.00034425134
vn -0.99999225 -0.0039215684 -0.00034425134
vn -0.99999225 -0.0039215684 -0.00034425134
vn -0.99999225 -0.0039215684 -0.00034425134
vn -0.99999225 -0.0039215684 -0.00034425134
vn -0.99999225 -0.0039215684 -0.00034425134
vn -0.99999225 -0.0039215684 -0.00034425134
vn -0.99999225 -0.0039215684 -0.00034425134
vn -0.99999225 -0.0039215684 -0.00034425134
vn -0.99999225 -0.0039215684 -0.00034425134
vn -0.99999225 -0.0039215684 -0.00034425134
vn -0.99999225 -0.0039215684 -0.00034425134
vn -0.99999225 -0.0039215684 -0.00034425134
vn -0.99999225 -0.0039215684 -0.00034425134
vn -0.99999225 -0.0039215684 -0.00034425134
vn -0.99999225 -0.0039215684 -0.00034425134
vn -0.99999225 -0.0039215684 -0.00034425134
vn -0.99999225 -0.0039215684 -0.00034425134
vn -0.99999225 -0.0039215684 -0.00034425134
vn -0.99999225 -0.0039215684 -0.00034425134
vn -0.99999225 -0.0039215684 -0.00034425134
vn -0.99999225 -0.0039215684 -0.00034425134
vn -0.99999225 -0.0039215684 -0.00034425134
vn -0.99999225 -0.0039215684 -0.00034425134
vn -0.99999225 -0.0039215684 -0.00034425134
vn -0.99999225 -0.0039215684 -0.00034425134
vn -0.99999225 -0.0039215684 -0.00034425134
vn -0.99999225 -0.0039215684 -0.00034425134
vn -0.99999225 -0.0039215684 -0.00034425134
vn -0.99999225 -0.0039215684 -0.00034425134
vn -0.99999225 -0.0039215684 -0.00034425134
vn -0.99999225 -0.0039215684 -0.00034425134
vn -0.99999225 -0.0039215684 -0.00034425134
vn -0.99999225 -0.0039215684 -0.00034425134
vn -0.99999225 -0.0039215684 -0.00034425134
vn -0.99999225 -0.0039215684 -0.00034425134
vn -0.99999225 -0.0039215684 -0.00034425134
vn -0.99999225 -0.0039215684 -0.00034425134
vn -0.99999225 -0.0039215684 -0.00034425134
vn -0.99999225 -0.0039215684 -0.00034425134
vn -0.99999225 -0.0039215684 -0.00034425134
vn -0.99999225 -0.0039215684 -0.00034425134
vn -0.99999225 -0.0039215684 -0.00034425134
vn -0.99999225 -0.0039215684 -0.00034425134
vn -0.99999225 -0.0039215684 -0.00034425134
vn -0.99999225 -0.0039215684 -0.00034425134
vn -0.99999225 -0.0039215684 -0.00034425134
vn -0.99999225 -0.0039215684 -0.00034425134
vn -0.99999225 -0.0039215684 -0.00034425134
vn -0.99999225 -0.0039215684 -0.00034425134
vn -0.99999225 -0.0039215684 -0.00034425134
vn -0.99999225 -0.0039215684 -0.00034425134
vn -0.99999225 -0.0039215684 -0.00034425134
vn -0.99999225 -0.0039215684 -0.00034425134
vn -0.99999225 -0.0039215684 -0.00034425134
vn -0.99999225 -0.0039215684 -0.00034425134
vn -0.99999225 -0.0039215684 -0.00034425134
vn -0.99999225 -0.0039215684 -0.00034425134
vn -0.99999225 -0.0039215684 -0.00034425134
vn -0.99999225 -0.0039215684 -0.00034425134
vn -0.99999225 -0.0039215684 -0.00034425134
vn -0.99999225 -0.0039215684 -0.00034425134
vn -0.99999225 -0.0039215684 -0.00034425134
vn -0.99999225 -0.0039215684 -0.00034425134
vn -0.99999225 -0.0039215684 -0.00034425134
vn -0.99999225 -0.0039215684 -0.00034425134
vn -0.99999225 -0.0039215684 -0.00034425134
vn -0.99999225 -0.0039215684 -0.00034425134
vn -0.99999225 -0.0039215684 -0.00034425134
vn -0.99999225 -0.0039215684 -0.00034425134
vn -0.99999225 -0.0039215684 -0.00034425134
vn 0.9999924 0.003921509 -0
vn 0.9999924 0.003921509 -0
vn 0.9999924 0.003921509 -0
vn 0.9999924 0.003921509 -0
vn 0.9999924 0.003921509 -0
vn 0.9999924 0.003921509 -0
vn 0.9999924 0.003921509 -0
vn -0.003921509 -0.0039215684 -0.9999846
vn -0.003921509 0.66274 -0.7488393
vn -0.003921509 0.66274 -0.7488393
vn -0.003921509 -0.0039215684 -0.9999846
vn -0.003921509 0.02745068 0.9996155
vn -0.003921509 0.6392107 0.76902163
vn -0.003921509 0.6392107 0.76902163
vn -0.003921509 0.02745068 0.9996155
vn 0.0039215684 -0.9215616 0.38821238
vn 0.0039215684 -0.9215616 0.38821238
vn 0.0039215684 -0.56078005 0.82795554
vn 0.0039215684 -0.56078005 0.82795554
vn -0.003921509 0.7490138 0.6625428
vn -0.003921509 0.7490138 0.6625428
vn 0.0039215684 -0.5843093 -0.8115216
vn 0.0039215684 -0.5843093 -0.8115216
vn -0.003921509 0.9058753 -0.4235263
vn -0.003921509 0.9058753 -0.4235263
vn -0.003921509 0.99999225 -0.00034526698
vn -0.003921509 0.99999225 -0.00034526698
vn 0.0039215684 -0.9999924 -0
vn 0.0039215684 -0.9999924 -0
vn 0.0039215684 -0.9999924 -0
vn 0.0039215684 -0.9999924 -0
vn -0.003921509 0.91371846 0.40632892
vn -0.003921509 0.91371846 0.40632892
vn 0.0039215684 -0.9999924 -0
vn 0.0039215684 -0.9999924 -0
vn 0.0039215684 -0.9294047 -0.36904138
vn 0.0039215684 -0.9294047 -0.36904138
vn -0.003921509 0.76469994 -0.6443746
vn -0.003921509 0.76469994 -0.6443746
g HeavyShassis_01_CorpsePart_0
f 3/3/3 2/2/2 1/1/1
f 1/1/1 4/4/4 3/3/3
f 4/4/4 5/5/5 3/3/3
f 4/4/4 6/6/6 5/5/5
f 9/9/9 8/8/8 7/7/7
f 7/7/7 10/10/10 9/9/9
f 10/10/10 11/11/11 9/9/9
f 10/10/10 12/12/12 11/11/11
f 10/10/10 13/13/13 12/12/12
f 13/13/13 14/14/14 12/12/12
f 14/14/14 15/15/15 12/12/12
f 14/14/14 16/16/16 15/15/15
f 16/16/16 17/17/17 15/15/15
f 16/16/16 18/18/18 17/17/17
f 21/21/21 20/20/20 19/19/19
f 19/19/19 22/22/22 21/21/21
f 22/22/22 23/23/23 21/21/21
f 22/22/22 24/24/24 23/23/23
f 24/24/24 25/25/25 23/23/23
f 24/24/24 26/26/26 25/25/25
f 26/26/26 27/27/27 25/25/25
f 26/26/26 28/28/28 27/27/27
f 28/28/28 29/29/29 27/27/27
f 28/28/28 30/30/30 29/29/29
f 33/33/33 32/32/32 31/31/31
f 31/31/31 34/34/34 33/33/33
f 34/34/34 35/35/35 33/33/33
f 34/34/34 36/36/36 35/35/35
f 36/36/36 37/37/37 35/35/35
f 36/36/36 38/38/38 37/37/37
f 38/38/38 39/39/39 37/37/37
f 38/38/38 40/40/40 39/39/39
f 40/40/40 41/41/41 39/39/39
f 40/40/40 42/42/42 41/41/41
f 45/45/45 44/44/44 43/43/43
f 43/43/43 46/46/46 45/45/45
f 43/43/43 47/47/47 46/46/46
f 47/47/47 48/48/48 46/46/46
f 48/48/48 49/49/49 46/46/46
f 48/48/48 50/50/50 49/49/49
f 50/50/50 51/51/51 49/49/49
f 50/50/50 52/52/52 51/51/51
f 52/52/52 53/53/53 51/51/51
f 52/52/52 54/54/54 53/53/53
f 57/57/57 56/56/56 55/55/55
f 55/55/55 58/58/58 57/57/57
f 55/55/55 59/59/59 58/58/58
f 59/59/59 60/60/60 58/58/58
f 60/60/60 61/61/61 58/58/58
f 60/60/60 62/62/62 61/61/61
f 62/62/62 63/63/63 61/61/61
f 62/62/62 64/64/64 63/63/63
f 64/64/64 65/65/65 63/63/63
f 64/64/64 66/66/66 65/65/65
f 69/69/69 68/68/68 67/67/67
f 69/69/69 67/67/67 70/70/70
f 71/71/71 69/69/69 70/70/70
f 71/71/71 73/73/73 72/72/72
f 74/74/74 71/71/71 72/72/72
f 74/74/74 72/72/72 75/75/75
f 78/78/78 77/77/77 76/76/76
f 79/79/79 78/78/78 76/76/76
f 77/77/77 78/78/78 80/80/80
f 80/80/80 78/78/78 81/81/81
f 71/71/71 70/70/70 73/73/73
f 76/76/76 82/82/82 79/79/79
f 85/85/85 84/84/84 83/83/83
f 86/86/86 85/85/85 83/83/83
f 89/89/89 88/88/88 87/87/87
f 90/90/90 89/89/89 87/87/87
f 93/93/93 92/92/92 91/91/91
f 94/94/94 93/93/93 91/91/91
f 89/89/89 96/96/96 95/95/95
f 88/88/88 89/89/89 95/95/95
f 90/90/90 87/87/87 93/93/93
f 94/94/94 90/90/90 93/93/93
f 86/86/86 83/83/83 97/97/97
f 98/98/98 86/86/86 97/97/97
f 101/101/101 100/100/100 99/99/99
f 102/102/102 101/101/101 99/99/99
f 105/105/105 104/104/104 103/103/103
f 106/106/106 105/105/105 103/103/103
f 107/107/107 101/101/101 102/102/102
f 108/108/108 107/107/107 102/102/102
f 109/109/109 105/105/105 106/106/106
f 110/110/110 109/109/109 106/106/106
f 104/104/104 112/112/112 111/111/111
f 103/103/103 104/104/104 111/111/111
f 100/100/100 114/114/114 113/113/113
f 99/99/99 100/100/100 113/113/113
f 96/96/96 107/107/107 108/108/108
f 95/95/95 96/96/96 108/108/108
f 92/92/92 109/109/109 110/110/110
f 91/91/91 92/92/92 110/110/110
f 114/114/114 84/84/84 85/85/85
f 113/113/113 114/114/114 85/85/85
f 112/112/112 98/98/98 97/97/97
f 111/111/111 112/112/112 97/97/97
