g HeavyShotgunTurret_DefaultPart_CorpsePart
v -48.100502 28.759293 -37.23552
v -48.100502 28.759293 17.205795
v -49.43933 17.349304 17.205795
v -49.43933 17.349304 -37.23552
v -48.100502 28.759293 17.205795
v -48.100502 28.759293 -37.23552
v 12.440914 43.21933 -37.23552
v 12.440914 43.21933 17.205795
v 12.430012 35.469772 -37.23552
v -9.659691 27.720207 -37.23552
v -9.659691 27.720207 17.205795
v 12.430012 35.469772 17.205795
v 12.440914 43.21933 -37.23552
v 12.430012 35.469772 -37.23552
v 12.430012 35.469772 17.205795
v 12.440914 43.21933 17.205795
v -9.659691 27.720207 -37.23552
v -9.659691 12.580765 -37.23552
v -9.659691 12.580765 17.205795
v -9.659691 27.720207 17.205795
v -9.659691 12.580765 17.205795
v -9.659691 12.580765 -37.23552
v -49.43933 17.349304 -37.23552
v -49.43933 17.349304 17.205795
v -9.659691 27.720207 17.205795
v -48.100502 28.759293 17.205795
v 12.440914 43.21933 17.205795
v 12.430012 35.469772 17.205795
v -49.43933 17.349304 17.205795
v -9.659691 12.580765 17.205795
v 12.430012 35.469772 -37.23552
v 12.440914 43.21933 -37.23552
v -48.100502 28.759293 -37.23552
v -9.659691 27.720207 -37.23552
v -49.43933 17.349304 -37.23552
v -9.659691 12.580765 -37.23552
v -34.799446 35.713196 17.854317
v 29.36061 35.713196 17.854317
v 27.999985 34.87393 39.66427
v -33.438828 34.87393 39.66427
v 27.999985 34.87393 39.66427
v 29.36061 35.713196 17.854317
v 39.64976 -43.219357 17.845238
v 38.09113 -43.219357 59.525024
v -33.438828 34.87393 39.66427
v 27.999985 34.87393 39.66427
v 38.09113 -43.219357 59.525024
v -43.52997 -43.219357 59.525024
v 38.09113 -43.219357 59.525024
v 39.64976 -43.219357 17.845238
v -45.099503 -43.219357 17.845238
v -43.52997 -43.219357 59.525024
v -45.099503 -43.219357 17.845238
v -34.799446 35.713196 17.854317
v -33.438828 34.87393 39.66427
v -43.52997 -43.219357 59.525024
v -34.799446 35.713196 17.854317
v -45.099503 -43.219357 17.845238
v 39.64976 -43.219357 17.845238
v 29.36061 35.713196 17.854317
v 27.780178 31.293434 -48.425697
v 38.09113 -43.219357 -59.525047
v 39.64976 -43.219357 -37.624268
v 29.36061 31.173538 -37.635166
v 27.780178 31.293434 -48.425697
v 29.36061 31.173538 -37.635166
v -34.799446 31.173538 -37.635166
v -33.219017 31.293434 -48.425697
v -43.52997 -43.219357 -59.525047
v 38.09113 -43.219357 -59.525047
v 27.780178 31.293434 -48.425697
v -33.219017 31.293434 -48.425697
v 39.64976 -43.219357 -37.624268
v 38.09113 -43.219357 -59.525047
v -43.52997 -43.219357 -59.525047
v -45.099503 -43.219357 -37.624268
v -33.219017 31.293434 -48.425697
v -34.799446 31.173538 -37.635166
v -45.099503 -43.219357 -37.624268
v -43.52997 -43.219357 -59.525047
v 39.64976 -43.219357 -37.624268
v -45.099503 -43.219357 -37.624268
v -34.799446 31.173538 -37.635166
v 29.36061 31.173538 -37.635166
v 25.560307 -19.899822 17.725342
v 36.75049 -19.899822 35.78586
v 43.7498 -19.899822 17.725342
v 40.776047 -12.1847725 39.80596
v 49.439354 -12.1847725 17.725342
v 49.370323 -2.6004562 17.725342
v 40.73063 -2.6004562 39.755096
v 36.783188 5.194519 35.813103
v 43.795216 5.1927032 17.725342
v 21.480251 -19.899822 24.504845
v 27.440475 -19.899822 41.2556
v 29.231632 -12.237453 46.36203
v 29.140802 -2.6004562 46.16584
v 27.442295 3.2435036 41.379128
v 30.319769 8.090164 29.355133
v 34.659595 8.090164 17.725342
v 24.68108 8.090164 33.575066
vt 0.4527049 0.7581929
vt 0.46889842 0.7581929
vt 0.46889842 0.7546916
vt 0.4527049 0.7546916
vt 0.46889842 0.7581929
vt 0.4527049 0.7581929
vt 0.4527049 0.77657473
vt 0.46889842 0.77657473
vt 0.49384513 0.80283445
vt 0.49384513 0.79626954
vt 0.47765166 0.79626954
vt 0.47765166 0.80283445
vt 0.49384513 0.80546045
vt 0.49384513 0.80283445
vt 0.47765166 0.80283445
vt 0.47765166 0.80546045
vt 0.49384513 0.79626954
vt 0.49384513 0.79145527
vt 0.4907815 0.79145527
vt 0.4907815 0.79626954
vt 0.48946851 0.8562292
vt 0.48815554 0.8562292
vt 0.48815554 0.8619188
vt 0.49603343 0.8619188
vt 0.4632088 0.7848903
vt 0.45182958 0.7848903
vt 0.46977374 0.78926694
vt 0.46977374 0.7870786
vt 0.45139194 0.7818267
vt 0.4632088 0.7805137
vt 0.46977374 0.7870786
vt 0.46977374 0.78926694
vt 0.45182958 0.7848903
vt 0.4632088 0.7848903
vt 0.45139194 0.7818267
vt 0.4632088 0.7805137
vt 0.47415036 0.785328
vt 0.4934075 0.785328
vt 0.4929698 0.7783254
vt 0.474588 0.7783254
vt 0.48115295 0.8457253
vt 0.474588 0.846163
vt 0.474588 0.82296693
vt 0.48684254 0.82296693
vt 0.474588 0.7783254
vt 0.4929698 0.7783254
vt 0.49603343 0.7546916
vt 0.4715244 0.7546916
vt 0.47283736 0.85053957
vt 0.47283736 0.8553539
vt 0.48465425 0.8553539
vt 0.48465425 0.85053957
vt 0.474588 0.82296693
vt 0.474588 0.846163
vt 0.48115295 0.8457253
vt 0.48684254 0.82296693
vt 0.4527049 0.8632318
vt 0.45445555 0.8522903
vt 0.44220102 0.8522903
vt 0.44351402 0.8632318
vt 0.4929698 0.8452877
vt 0.49603343 0.82340455
vt 0.4899062 0.82340455
vt 0.4899062 0.8452877
vt 0.45095426 0.8444123
vt 0.4505166 0.8479136
vt 0.46977374 0.8479136
vt 0.46889842 0.8444123
vt 0.4723997 0.8225292
vt 0.44789064 0.8225292
vt 0.45095426 0.8444123
vt 0.46889842 0.8444123
vt 0.48465425 0.8623565
vt 0.48465425 0.8588552
vt 0.47283736 0.8588552
vt 0.47283736 0.8623565
vt 0.4929698 0.8452877
vt 0.4899062 0.8452877
vt 0.4899062 0.82340455
vt 0.49603343 0.82340455
vt 0.46977374 0.8522903
vt 0.45795685 0.8522903
vt 0.45926985 0.86279416
vt 0.46846074 0.86279416
vt 0.4207556 0.8255929
vt 0.41900495 0.8282188
vt 0.42338157 0.8273435
vt 0.41812962 0.8308448
vt 0.4238192 0.83040714
vt 0.4242569 0.8334708
vt 0.41769195 0.8334708
vt 0.41769195 0.8356591
vt 0.4229439 0.8365344
vt 0.41988027 0.8264682
vt 0.4172543 0.8277812
vt 0.41550365 0.8308448
vt 0.41550365 0.8334708
vt 0.41681662 0.8356591
vt 0.41812962 0.83740973
vt 0.4194426 0.8382851
vt 0.41769195 0.8369721
vn -0.99209523 0.11369431 -0.053110022
vn -0.99209523 0.11369431 -0.053110022
vn -0.99209523 0.11369431 -0.053110022
vn -0.99209523 0.11369431 -0.053110022
vn -0.23054415 0.97306186 -0
vn -0.23054415 0.97306186 -0
vn -0.23054415 0.97306186 -0
vn -0.23054415 0.97306186 -0
vn 0.33263108 -0.94305706 -0
vn 0.33263108 -0.94305706 -0
vn 0.33263108 -0.94305706 -0
vn 0.33263108 -0.94305706 -0
vn 0.99999225 -0.003948628 -0
vn 0.99999225 -0.003948628 -0
vn 0.99999225 -0.003948628 -0
vn 0.99999225 -0.003948628 -0
vn 0.9999925 0.0038942099 -0
vn 0.9999925 0.0038942099 -0
vn 0.9999925 0.0038942099 -0
vn 0.9999925 0.0038942099 -0
vn -0.12153721 -0.99214965 -0.029458174
vn -0.12153721 -0.99214965 -0.029458174
vn -0.12153721 -0.99214965 -0.029458174
vn -0.12153721 -0.99214965 -0.029458174
vn -0.0038942099 0.0038942099 0.99998486
vn -0.0038942099 0.0038942099 0.99998486
vn -0.0038942099 0.0038942099 0.99998486
vn -0.0038942099 0.0038942099 0.99998486
vn -0.0038942099 0.0038942099 0.99998486
vn -0.0038942099 0.0038942099 0.99998486
vn -0.0038942099 0.0038942099 -0.99998486
vn -0.0038942099 0.0038942099 -0.99998486
vn -0.0038942099 0.0038942099 -0.99998486
vn -0.0038942099 0.0038942099 -0.99998486
vn -0.0038942099 0.0038942099 -0.99998486
vn -0.0038942099 0.0038942099 -0.99998486
vn -0.0038942099 0.99993813 0.010421116
vn -0.0038942099 0.99993813 0.010421116
vn -0.0038942099 0.99993813 0.010421116
vn -0.0038942099 0.99993813 0.010421116
vn 0.99057055 0.13700448 -0
vn 0.99057055 0.13700448 -0
vn 0.99057055 0.13700448 -0
vn 0.99057055 0.13700448 -0
vn -0.0038942099 0.2470231 0.96900177
vn -0.0038942099 0.2470231 0.96900177
vn -0.0038942099 0.2470231 0.96900177
vn -0.0038942099 0.2470231 0.96900177
vn -0.0038942099 -0.9999925 -0
vn -0.0038942099 -0.9999925 -0
vn -0.0038942099 -0.9999925 -0
vn -0.0038942099 -0.9999925 -0
vn -0.9905695 0.13701186 -0
vn -0.9905695 0.13701186 -0
vn -0.9905695 0.13701186 -0
vn -0.9905695 0.13701186 -0
vn -0.0038942099 0.0038942099 -0.99998486
vn -0.0038942099 0.0038942099 -0.99998486
vn -0.0038942099 0.0038942099 -0.99998486
vn -0.0038942099 0.0038942099 -0.99998486
vn 0.98430675 0.14506578 -0.10047948
vn 0.98430675 0.14506578 -0.10047948
vn 0.98430675 0.14506578 -0.10047948
vn 0.98430675 0.14506578 -0.10047948
vn -0.0038942099 0.99993813 0.010421116
vn -0.0038942099 0.99993813 0.010421116
vn -0.0038942099 0.99993813 0.010421116
vn -0.0038942099 0.99993813 0.010421116
vn -0.0038942099 0.14506578 -0.9894144
vn -0.0038942099 0.14506578 -0.9894144
vn -0.0038942099 0.14506578 -0.9894144
vn -0.0038942099 0.14506578 -0.9894144
vn -0.0038942099 -0.9999925 -0
vn -0.0038942099 -0.9999925 -0
vn -0.0038942099 -0.9999925 -0
vn -0.0038942099 -0.9999925 -0
vn -0.98425233 0.14506578 -0.101011075
vn -0.98425233 0.14506578 -0.101011075
vn -0.98425233 0.14506578 -0.101011075
vn -0.98425233 0.14506578 -0.101011075
vn -0.0038942099 0.0038942099 0.99998486
vn -0.0038942099 0.0038942099 0.99998486
vn -0.0038942099 0.0038942099 0.99998486
vn -0.0038942099 0.0038942099 0.99998486
vn -0.0038942099 -0.9999925 -0
vn 0.41962045 -0.8588209 0.29384574
vn 0.5529492 -0.80392087 0.21899414
vn 0.7882351 -0.2627632 0.5564538
vn 0.8980352 -0.2549203 0.3585364
vn 0.8980352 0.25486588 0.35857508
vn 0.7803923 0.27055168 0.5637284
vn 0.53726345 0.74896646 0.38781077
vn 0.6549064 0.7097521 0.25951803
vn -0.0038942099 -0.9999925 -0
vn 0.20786309 -0.91372097 0.34915173
vn 0.4745205 -0.2627632 0.84011054
vn 0.45099193 0.28623736 0.84538424
vn 0.28629178 0.73328066 0.61671424
vn 0.2549203 0.9450381 0.2047404
vn 0.30197752 0.9450381 0.12534998
vn 0.1451202 0.9058237 0.39802456
g HeavyShotgunTurret_DefaultPart_CorpsePart_0
f 3/3/3 2/2/2 1/1/1
f 4/4/4 3/3/3 1/1/1
f 7/7/7 6/6/6 5/5/5
f 8/8/8 7/7/7 5/5/5
f 11/11/11 10/10/10 9/9/9
f 12/12/12 11/11/11 9/9/9
f 15/15/15 14/14/14 13/13/13
f 16/16/16 15/15/15 13/13/13
f 19/19/19 18/18/18 17/17/17
f 20/20/20 19/19/19 17/17/17
f 23/23/23 22/22/22 21/21/21
f 24/24/24 23/23/23 21/21/21
f 27/27/27 26/26/26 25/25/25
f 28/28/28 27/27/27 25/25/25
f 25/25/25 26/26/26 29/29/29
f 30/30/30 25/25/25 29/29/29
f 33/33/33 32/32/32 31/31/31
f 31/31/31 34/34/34 33/33/33
f 34/34/34 35/35/35 33/33/33
f 36/36/36 35/35/35 34/34/34
f 39/39/39 38/38/38 37/37/37
f 40/40/40 39/39/39 37/37/37
f 43/43/43 42/42/42 41/41/41
f 44/44/44 43/43/43 41/41/41
f 47/47/47 46/46/46 45/45/45
f 48/48/48 47/47/47 45/45/45
f 51/51/51 50/50/50 49/49/49
f 52/52/52 51/51/51 49/49/49
f 55/55/55 54/54/54 53/53/53
f 56/56/56 55/55/55 53/53/53
f 59/59/59 58/58/58 57/57/57
f 60/60/60 59/59/59 57/57/57
f 63/63/63 62/62/62 61/61/61
f 64/64/64 63/63/63 61/61/61
f 67/67/67 66/66/66 65/65/65
f 68/68/68 67/67/67 65/65/65
f 71/71/71 70/70/70 69/69/69
f 72/72/72 71/71/71 69/69/69
f 75/75/75 74/74/74 73/73/73
f 76/76/76 75/75/75 73/73/73
f 79/79/79 78/78/78 77/77/77
f 80/80/80 79/79/79 77/77/77
f 83/83/83 82/82/82 81/81/81
f 84/84/84 83/83/83 81/81/81
f 87/87/87 86/86/86 85/85/85
f 88/88/88 86/86/86 87/87/87
f 89/89/89 88/88/88 87/87/87
f 92/92/92 91/91/91 90/90/90
f 93/93/93 92/92/92 90/90/90
f 94/94/94 85/85/85 86/86/86
f 95/95/95 94/94/94 86/86/86
f 88/88/88 96/96/96 95/95/95
f 86/86/86 88/88/88 95/95/95
f 97/97/97 91/91/91 92/92/92
f 98/98/98 97/97/97 92/92/92
f 90/90/90 91/91/91 88/88/88
f 89/89/89 90/90/90 88/88/88
f 91/91/91 97/97/97 96/96/96
f 88/88/88 91/91/91 96/96/96
f 100/100/100 99/99/99 92/92/92
f 93/93/93 100/100/100 92/92/92
f 98/98/98 92/92/92 99/99/99
f 101/101/101 98/98/98 99/99/99
