g HeavyShotgunTurret_CustomizePart_CorpsePart
v -48.10051 28.7593 -37.23551
v -48.10051 28.7593 17.205803
v -49.43934 17.349312 17.205803
v -49.43934 17.349312 -37.23551
v -48.10051 28.7593 17.205803
v -48.10051 28.7593 -37.23551
v 12.440907 43.219337 -37.23551
v 12.440907 43.219337 17.205803
v 12.430004 35.46978 -37.23551
v -9.6596985 27.720215 -37.23551
v -9.6596985 27.720215 17.205803
v 12.430004 35.46978 17.205803
v 12.440907 43.219337 -37.23551
v 12.430004 35.46978 -37.23551
v 12.430004 35.46978 17.205803
v 12.440907 43.219337 17.205803
v -9.6596985 27.720215 -37.23551
v -9.6596985 12.580772 -37.23551
v -9.6596985 12.580772 17.205803
v -9.6596985 27.720215 17.205803
v -9.6596985 12.580772 17.205803
v -9.6596985 12.580772 -37.23551
v -49.43934 17.349312 -37.23551
v -49.43934 17.349312 17.205803
v -9.6596985 27.720215 17.205803
v -48.10051 28.7593 17.205803
v 12.440907 43.219337 17.205803
v 12.430004 35.46978 17.205803
v -49.43934 17.349312 17.205803
v -9.6596985 12.580772 17.205803
v 12.430004 35.46978 -37.23551
v 12.440907 43.219337 -37.23551
v -48.10051 28.7593 -37.23551
v -9.6596985 27.720215 -37.23551
v -49.43934 17.349312 -37.23551
v -9.6596985 12.580772 -37.23551
v -34.799454 35.713203 17.854324
v 29.360601 35.713203 17.854324
v 27.999977 34.87394 39.664276
v -33.438835 34.87394 39.664276
v 27.999977 34.87394 39.664276
v 29.360601 35.713203 17.854324
v 39.649754 -43.21935 17.845245
v 38.09112 -43.21935 59.525032
v -33.438835 34.87394 39.664276
v 27.999977 34.87394 39.664276
v 38.09112 -43.21935 59.525032
v -43.529976 -43.21935 59.525032
v 38.09112 -43.21935 59.525032
v 39.649754 -43.21935 17.845245
v -45.09951 -43.21935 17.845245
v -43.529976 -43.21935 59.525032
v -45.09951 -43.21935 17.845245
v -34.799454 35.713203 17.854324
v -33.438835 34.87394 39.664276
v -43.529976 -43.21935 59.525032
v -34.799454 35.713203 17.854324
v -45.09951 -43.21935 17.845245
v 39.649754 -43.21935 17.845245
v 29.360601 35.713203 17.854324
v 27.78017 31.293442 -48.42569
v 38.09112 -43.21935 -59.52504
v 39.649754 -43.21935 -37.62426
v 29.360601 31.173546 -37.63516
v 27.78017 31.293442 -48.42569
v 29.360601 31.173546 -37.63516
v -34.799454 31.173546 -37.63516
v -33.219025 31.293442 -48.42569
v -43.529976 -43.21935 -59.52504
v 38.09112 -43.21935 -59.52504
v 27.78017 31.293442 -48.42569
v -33.219025 31.293442 -48.42569
v 39.649754 -43.21935 -37.62426
v 38.09112 -43.21935 -59.52504
v -43.529976 -43.21935 -59.52504
v -45.09951 -43.21935 -37.62426
v -33.219025 31.293442 -48.42569
v -34.799454 31.173546 -37.63516
v -45.09951 -43.21935 -37.62426
v -43.529976 -43.21935 -59.52504
v 39.649754 -43.21935 -37.62426
v -45.09951 -43.21935 -37.62426
v -34.799454 31.173546 -37.63516
v 29.360601 31.173546 -37.63516
v 25.560299 -19.899815 17.72535
v 36.75048 -19.899815 35.785866
v 43.749794 -19.899815 17.72535
v 40.77604 -12.184765 39.80597
v 49.439346 -12.184765 17.72535
v 49.370316 -2.6004486 17.72535
v 40.73062 -2.6004486 39.755104
v 36.78318 5.1945267 35.81311
v 43.795208 5.192711 17.72535
v 36.75048 -19.899815 35.785866
v 25.560299 -19.899815 17.72535
v 21.480244 -19.899815 24.504852
v 27.440468 -19.899815 41.255608
v 29.231625 -12.237446 46.362038
v 29.140795 -2.6004486 46.165848
v 27.442287 3.2435112 41.379135
v 30.319761 8.090172 29.35514
v 34.659588 8.090172 17.72535
v 30.319761 8.090172 29.35514
v 24.681072 8.090172 33.575073
vt 0.5477665 0.83406776
vt 0.44688618 0.83406776
vt 0.44688618 0.85467005
vt 0.5477665 0.85467005
vt 0.44688618 0.83406776
vt 0.5477665 0.83406776
vt 0.5477665 0.7182685
vt 0.44688618 0.7182685
vt 0.5477665 0.70406
vt 0.5477665 0.66072404
vt 0.44688618 0.66072404
vt 0.44688618 0.70406
vt 0.5477665 0.7182685
vt 0.5477665 0.70406
vt 0.44688618 0.70406
vt 0.44688618 0.7182685
vt 0.5477665 0.66072404
vt 0.5477665 0.63230705
vt 0.44688618 0.63230705
vt 0.44688618 0.66072404
vt 0.44688618 0.92926466
vt 0.5477665 0.92926466
vt 0.5477665 0.85467005
vt 0.44688618 0.85467005
vt 0.42841512 0.7651565
vt 0.44688618 0.83406776
vt 0.44688618 0.7182685
vt 0.4326777 0.7218206
vt 0.42699426 0.841172
vt 0.40141898 0.77155036
vt 0.561975 0.7218206
vt 0.5477665 0.7182685
vt 0.5477665 0.83406776
vt 0.56623757 0.7651565
vt 0.5676584 0.841172
vt 0.5932337 0.77155036
vt 0.44049236 0.46961975
vt 0.5591333 0.46961975
vt 0.557002 0.42912555
vt 0.44333404 0.42912555
vt 0.557002 0.42912555
vt 0.59394413 0.4447549
vt 0.6479364 0.3076429
vt 0.57547307 0.27993634
vt 0.44333404 0.42912555
vt 0.557002 0.42912555
vt 0.57547307 0.27993634
vt 0.42415258 0.27993634
vt 0.57547307 0.27993634
vt 0.5783148 0.20250003
vt 0.4213109 0.20250003
vt 0.42415258 0.27993634
vt 0.35239968 0.3076429
vt 0.40568155 0.4447549
vt 0.44333404 0.42912555
vt 0.42415258 0.27993634
vt 0.44049236 0.46961975
vt 0.4213109 0.6159673
vt 0.5783148 0.6159673
vt 0.5591333 0.46961975
vt 0.27425295 0.43765068
vt 0.25507146 0.29769695
vt 0.2159981 0.30906376
vt 0.25507146 0.44262362
vt 0.27425295 0.43765068
vt 0.27141124 0.45754254
vt 0.3900522 0.45754254
vt 0.3872105 0.43765068
vt 0.40639198 0.29769695
vt 0.25507146 0.29769695
vt 0.27425295 0.43765068
vt 0.3872105 0.43765068
vt 0.25222978 0.25720274
vt 0.25507146 0.29769695
vt 0.40639198 0.29769695
vt 0.40923366 0.25720274
vt 0.3872105 0.43765068
vt 0.4071024 0.44262362
vt 0.44546533 0.30906376
vt 0.40639198 0.29769695
vt 0.25222978 0.595365
vt 0.40923366 0.595365
vt 0.3900522 0.45754254
vt 0.27141124 0.45754254
vt 0.85467005 0.623782
vt 0.8276739 0.652199
vt 0.8631952 0.65646154
vt 0.8212801 0.6692492
vt 0.86532646 0.6735117
vt 0.8631952 0.69198275
vt 0.8205697 0.6862994
vt 0.8212801 0.7033496
vt 0.85680133 0.70903295
vt 0.817728 0.65148854
vt 0.8148863 0.6124152
vt 0.80209863 0.62022984
vt 0.79783607 0.6529094
vt 0.7964152 0.6699596
vt 0.79712564 0.6884306
vt 0.8006778 0.70263916
vt 0.8255426 0.72111017
vt 0.84827626 0.7246623
vt 0.81701756 0.72111017
vt 0.8042299 0.7203998
vn -0.99209523 0.11369431 -0.053110022
vn -0.99209523 0.11369431 -0.053110022
vn -0.99209523 0.11369431 -0.053110022
vn -0.99209523 0.11369431 -0.053110022
vn -0.23054415 0.97306186 -0
vn -0.23054415 0.97306186 -0
vn -0.23054415 0.97306186 -0
vn -0.23054415 0.97306186 -0
vn 0.33263108 -0.94305706 -0
vn 0.33263108 -0.94305706 -0
vn 0.33263108 -0.94305706 -0
vn 0.33263108 -0.94305706 -0
vn 0.99999225 -0.003948628 -0
vn 0.99999225 -0.003948628 -0
vn 0.99999225 -0.003948628 -0
vn 0.99999225 -0.003948628 -0
vn 0.9999925 0.0038942099 -0
vn 0.9999925 0.0038942099 -0
vn 0.9999925 0.0038942099 -0
vn 0.9999925 0.0038942099 -0
vn -0.12153721 -0.99214965 -0.029458174
vn -0.12153721 -0.99214965 -0.029458174
vn -0.12153721 -0.99214965 -0.029458174
vn -0.12153721 -0.99214965 -0.029458174
vn -0.0038942099 0.0038942099 0.99998486
vn -0.0038942099 0.0038942099 0.99998486
vn -0.0038942099 0.0038942099 0.99998486
vn -0.0038942099 0.0038942099 0.99998486
vn -0.0038942099 0.0038942099 0.99998486
vn -0.0038942099 0.0038942099 0.99998486
vn -0.0038942099 0.0038942099 -0.99998486
vn -0.0038942099 0.0038942099 -0.99998486
vn -0.0038942099 0.0038942099 -0.99998486
vn -0.0038942099 0.0038942099 -0.99998486
vn -0.0038942099 0.0038942099 -0.99998486
vn -0.0038942099 0.0038942099 -0.99998486
vn -0.0038942099 0.99993813 0.010421116
vn -0.0038942099 0.99993813 0.010421116
vn -0.0038942099 0.99993813 0.010421116
vn -0.0038942099 0.99993813 0.010421116
vn 0.99057055 0.13700448 -0
vn 0.99057055 0.13700448 -0
vn 0.99057055 0.13700448 -0
vn 0.99057055 0.13700448 -0
vn -0.0038942099 0.2470231 0.96900177
vn -0.0038942099 0.2470231 0.96900177
vn -0.0038942099 0.2470231 0.96900177
vn -0.0038942099 0.2470231 0.96900177
vn -0.0038942099 -0.9999925 -0
vn -0.0038942099 -0.9999925 -0
vn -0.0038942099 -0.9999925 -0
vn -0.0038942099 -0.9999925 -0
vn -0.9905695 0.13701186 -0
vn -0.9905695 0.13701186 -0
vn -0.9905695 0.13701186 -0
vn -0.9905695 0.13701186 -0
vn -0.0038942099 0.0038942099 -0.99998486
vn -0.0038942099 0.0038942099 -0.99998486
vn -0.0038942099 0.0038942099 -0.99998486
vn -0.0038942099 0.0038942099 -0.99998486
vn 0.98430675 0.14506578 -0.10047948
vn 0.98430675 0.14506578 -0.10047948
vn 0.98430675 0.14506578 -0.10047948
vn 0.98430675 0.14506578 -0.10047948
vn -0.0038942099 0.99993813 0.010421116
vn -0.0038942099 0.99993813 0.010421116
vn -0.0038942099 0.99993813 0.010421116
vn -0.0038942099 0.99993813 0.010421116
vn -0.0038942099 0.14506578 -0.9894144
vn -0.0038942099 0.14506578 -0.9894144
vn -0.0038942099 0.14506578 -0.9894144
vn -0.0038942099 0.14506578 -0.9894144
vn -0.0038942099 -0.9999925 -0
vn -0.0038942099 -0.9999925 -0
vn -0.0038942099 -0.9999925 -0
vn -0.0038942099 -0.9999925 -0
vn -0.98425233 0.14506578 -0.101011075
vn -0.98425233 0.14506578 -0.101011075
vn -0.98425233 0.14506578 -0.101011075
vn -0.98425233 0.14506578 -0.101011075
vn -0.0038942099 0.0038942099 0.99998486
vn -0.0038942099 0.0038942099 0.99998486
vn -0.0038942099 0.0038942099 0.99998486
vn -0.0038942099 0.0038942099 0.99998486
vn -0.0038942099 -0.9999925 -0
vn 0.41962045 -0.8588209 0.29384574
vn 0.5529492 -0.80392087 0.21899414
vn 0.7882351 -0.2627632 0.5564538
vn 0.8980352 -0.2549203 0.3585364
vn 0.8980352 0.25486588 0.35857508
vn 0.7803923 0.27055168 0.5637284
vn 0.53726345 0.74896646 0.38781077
vn 0.6549064 0.7097521 0.25951803
vn 0.41962045 -0.8588209 0.29384574
vn -0.0038942099 -0.9999925 -0
vn -0.0038942099 -0.9999925 -0
vn 0.20786309 -0.91372097 0.34915173
vn 0.4745205 -0.2627632 0.84011054
vn 0.45099193 0.28623736 0.84538424
vn 0.28629178 0.73328066 0.61671424
vn 0.2549203 0.9450381 0.2047404
vn 0.30197752 0.9450381 0.12534998
vn 0.2549203 0.9450381 0.2047404
vn 0.1451202 0.9058237 0.39802456
g HeavyShotgunTurret_CustomizePart_CorpsePart_0
f 3/3/3 2/2/2 1/1/1
f 4/4/4 3/3/3 1/1/1
f 7/7/7 6/6/6 5/5/5
f 8/8/8 7/7/7 5/5/5
f 11/11/11 10/10/10 9/9/9
f 12/12/12 11/11/11 9/9/9
f 15/15/15 14/14/14 13/13/13
f 16/16/16 15/15/15 13/13/13
f 19/19/19 18/18/18 17/17/17
f 20/20/20 19/19/19 17/17/17
f 23/23/23 22/22/22 21/21/21
f 24/24/24 23/23/23 21/21/21
f 27/27/27 26/26/26 25/25/25
f 28/28/28 27/27/27 25/25/25
f 25/25/25 26/26/26 29/29/29
f 30/30/30 25/25/25 29/29/29
f 33/33/33 32/32/32 31/31/31
f 31/31/31 34/34/34 33/33/33
f 34/34/34 35/35/35 33/33/33
f 36/36/36 35/35/35 34/34/34
f 39/39/39 38/38/38 37/37/37
f 40/40/40 39/39/39 37/37/37
f 43/43/43 42/42/42 41/41/41
f 44/44/44 43/43/43 41/41/41
f 47/47/47 46/46/46 45/45/45
f 48/48/48 47/47/47 45/45/45
f 51/51/51 50/50/50 49/49/49
f 52/52/52 51/51/51 49/49/49
f 55/55/55 54/54/54 53/53/53
f 56/56/56 55/55/55 53/53/53
f 59/59/59 58/58/58 57/57/57
f 60/60/60 59/59/59 57/57/57
f 63/63/63 62/62/62 61/61/61
f 64/64/64 63/63/63 61/61/61
f 67/67/67 66/66/66 65/65/65
f 68/68/68 67/67/67 65/65/65
f 71/71/71 70/70/70 69/69/69
f 72/72/72 71/71/71 69/69/69
f 75/75/75 74/74/74 73/73/73
f 76/76/76 75/75/75 73/73/73
f 79/79/79 78/78/78 77/77/77
f 80/80/80 79/79/79 77/77/77
f 83/83/83 82/82/82 81/81/81
f 84/84/84 83/83/83 81/81/81
f 87/87/87 86/86/86 85/85/85
f 88/88/88 86/86/86 87/87/87
f 89/89/89 88/88/88 87/87/87
f 92/92/92 91/91/91 90/90/90
f 93/93/93 92/92/92 90/90/90
f 96/96/96 95/95/95 94/94/94
f 97/97/97 96/96/96 94/94/94
f 88/88/88 98/98/98 97/97/97
f 94/94/94 88/88/88 97/97/97
f 99/99/99 91/91/91 92/92/92
f 100/100/100 99/99/99 92/92/92
f 90/90/90 91/91/91 88/88/88
f 89/89/89 90/90/90 88/88/88
f 91/91/91 99/99/99 98/98/98
f 88/88/88 91/91/91 98/98/98
f 102/102/102 101/101/101 92/92/92
f 93/93/93 102/102/102 92/92/92
f 100/100/100 92/92/92 103/103/103
f 104/104/104 100/100/100 103/103/103
