g HoverShassis_10
v -0.54351866 -0.0028287172 -0.7398364
v -0.52720356 -0.0975039 -1.0435413
v -0.52851355 -0.0032752752 -1.0444047
v -0.54372704 -0.097087026 -0.73816913
v -0.33118415 -0.0033050776 -1.2924061
v -0.022924185 -0.0975337 -1.4057186
v -0.02310276 -0.0033050776 -1.4073858
v -0.33026123 -0.0975337 -1.2910068
v 0.5113655 -0.0029776096 -0.9698554
v 0.5144618 -0.096848965 -0.7103918
v 0.51353884 -0.0026203394 -0.7062833
v 0.5114548 -0.097206116 -0.9680691
v 0.2920941 -0.0974741 -1.3012484
v 0.29268956 -0.003245473 -1.3027072
v 0.086339355 0.23546696 -1.2853501
v 0.13528466 0.11628938 -1.1700429
v 0.0566566 0.24532151 -1.2196729
v 0.19447148 0.09134042 -1.345966
v -0.15892303 0.11628938 -1.1749254
v -0.118968844 0.23546696 -1.2807057
v -0.08410573 0.24532151 -1.2220249
v -0.23522878 0.09134042 -1.3362305
v -0.23522878 0.09134042 -1.3362305
v 0.086339355 0.23546696 -1.2853501
v -0.118968844 0.23546696 -1.2807057
v 0.19447148 0.09134042 -1.345966
v 0.13528466 0.11628938 -1.1700429
v -0.08410573 0.24532151 -1.2220249
v 0.0566566 0.24532151 -1.2196729
v -0.15892303 0.11628938 -1.1749254
v -0.118968844 0.23546696 -1.2807057
v 0.0566566 0.24532151 -1.2196729
v -0.08410573 0.24532151 -1.2220249
v 0.086339355 0.23546696 -1.2853501
vt 0.81653786 0.7700556
vt 0.7964501 0.76637673
vt 0.7964501 0.7700556
vt 0.81653786 0.76637673
vt 0.78617257 0.7700556
vt 0.7820265 0.76637673
vt 0.7820265 0.7700556
vt 0.78617257 0.76637673
vt 0.7691797 0.7700556
vt 0.7568 0.76637673
vt 0.7568 0.7700556
vt 0.7691797 0.76637673
vt 0.77782214 0.76637673
vt 0.77782214 0.7700556
vt 0.79989535 0.7931216
vt 0.8016472 0.7892091
vt 0.80182236 0.7931799
vt 0.79680043 0.7892091
vt 0.8016472 0.7892091
vt 0.79989535 0.7931216
vt 0.80182236 0.7931799
vt 0.79680043 0.7892091
vt 0.79516536 0.7847711
vt 0.7869901 0.7880996
vt 0.7921872 0.7880996
vt 0.78424555 0.7847711
vt 0.8071363 0.78231853
vt 0.8025815 0.7848295
vt 0.8055012 0.7848295
vt 0.80106324 0.78231853
vt 0.7921872 0.7880996
vt 0.78751564 0.7898514
vt 0.7914281 0.7898514
vt 0.7869901 0.7880996
vn -0.9985864 -0.0045885444 -0.052953623
vn -0.93588793 -0.01242584 -0.35207868
vn -0.93588793 -0.020263135 -0.35171467
vn -0.9985864 0.0032488108 -0.053052675
vn -0.5832093 -0.020263135 -0.8120692
vn -0.018923402 -0.020263135 -0.99961555
vn -0.018923402 -0.020263135 -0.99961555
vn -0.5832093 -0.020263135 -0.8120692
vn 0.93722767 -0.0045885444 -0.34868792
vn 0.9999261 0.011086106 -0.0049917703
vn 0.9999261 0.011086106 -0.0049917703
vn 0.93722767 -0.0045885444 -0.34868792
vn 0.63157284 -0.01242584 -0.77521694
vn 0.63157284 -0.01242584 -0.77521694
vn 0.8118308 0.5440228 0.21206105
vn 0.8196681 0.5361854 0.201617
vn 0.7726443 0.575372 0.2682683
vn 0.8196681 0.5361854 0.201617
vn -0.7869792 0.5361854 0.30523592
vn -0.7791419 0.5361854 0.32472005
vn -0.7477926 0.5596974 0.35713446
vn -0.7948165 0.5283481 0.29852146
vn -0.018923402 0.37160206 -0.92819923
vn -0.018923402 0.37160206 -0.92819923
vn -0.018923402 0.37160206 -0.92819923
vn -0.018923402 0.37160206 -0.92819923
vn -0.018923402 0.34809017 0.93727005
vn -0.018923402 0.34809017 0.93727005
vn -0.018923402 0.34809017 0.93727005
vn -0.018923402 0.34809017 0.93727005
vn -0.0032488108 0.990749 -0.13566817
vn -0.0032488108 0.990749 -0.13566817
vn 0.0045885444 0.9829117 -0.1840205
vn -0.0032488108 0.990749 -0.13566817
g HoverShassis_10_0
f 3/3/3 2/2/2 1/1/1
f 4/4/4 1/1/1 2/2/2
f 7/7/7 6/6/6 5/5/5
f 8/8/8 5/5/5 6/6/6
f 11/11/11 10/10/10 9/9/9
f 12/12/12 9/9/9 10/10/10
f 14/14/14 13/13/13 7/7/7
f 6/6/6 7/7/7 13/13/13
f 5/5/5 8/8/8 3/3/3
f 2/2/2 3/3/3 8/8/8
f 14/14/14 9/9/9 13/13/13
f 12/12/12 13/13/13 9/9/9
f 17/17/17 16/16/16 15/15/15
f 18/18/18 15/15/15 16/16/16
f 21/21/21 20/20/20 19/19/19
f 22/22/22 19/19/19 20/20/20
f 25/25/25 24/24/24 23/23/23
f 26/26/26 23/23/23 24/24/24
f 29/29/29 28/28/28 27/27/27
f 30/30/30 27/27/27 28/28/28
f 33/33/33 32/32/32 31/31/31
f 34/34/34 31/31/31 32/32/32
