g HoverShassis_CustomizePart_2_CorpsePart
v 0.42794776 -0.19133735 -0.23402715
v 0.52785736 0.09136224 -0.1367836
v 0.4307471 0.09136224 -0.23625994
v 0.5299902 -0.19133735 -0.12815237
v 1.209962 -0.19133735 0.6830549
v 1.0821923 -0.2162981 0.39069104
v 1.0354035 -0.2162981 0.59420943
v 1.2610165 -0.19133735 0.375728
v 0.4907995 -0.2162981 0.642298
v 0.5997403 -0.19133735 0.9139
v 0.6698903 -0.2162981 0.7497057
v 0.3743605 -0.19133735 0.7839309
v 1.0004451 -0.2162981 0.19853675
v 1.0857915 -0.19133735 0.038041472
v 0.1424489 -0.19133735 0.52036023
v 0.40905225 -0.2162981 0.45014358
v 0.8213543 -0.2162981 0.091128945
v 0.8861389 -0.19133735 -0.07079935
v 0.97538435 -0.19133735 0.8915721
v 0.8779075 -0.2162981 0.73131025
v 0.6698903 0.116322875 0.7497057
v 0.9799167 0.09136224 0.89763725
v 0.6014732 0.09136224 0.91486657
v 0.8779075 0.116322875 0.73131025
v 0.1424489 0.09136224 0.52036023
v 0.4907995 0.116322875 0.642298
v 0.37542695 0.09136224 0.78309786
v 0.40905225 0.116322875 0.45014358
v 0.8861389 -0.19133735 -0.07079935
v 0.86641026 0.09136224 -0.08359623
v 0.52785736 0.09136224 -0.1367836
v 0.8213543 0.116322875 0.091128945
v 0.6133371 0.116322875 0.10949123
v 0.86641026 0.09136224 -0.08359623
v 0.6133371 -0.2162981 0.10949123
v 0.5299902 -0.19133735 -0.12815237
v 1.0964223 0.09136224 0.04037428
v 1.0821923 0.116322875 0.39069104
v 1.0004451 0.116322875 0.19853675
v 1.2691146 0.09136224 0.37532806
v 1.0964223 0.09136224 0.04037428
v 1.0857915 -0.19133735 0.038041472
v 1.2610165 -0.19133735 0.375728
v 1.2173269 0.09136224 0.6864208
v 1.2691146 0.09136224 0.37532806
v 1.209962 -0.19133735 0.6830549
v 0.5997403 -0.19133735 0.9139
v 0.37542695 0.09136224 0.78309786
v 0.6014732 0.09136224 0.91486657
v 0.3743605 -0.19133735 0.7839309
v 0.9799167 0.09136224 0.89763725
v 0.97538435 -0.19133735 0.8915721
v 0.1424489 -0.19133735 0.52036023
v 0.1424489 0.09136224 0.52036023
v -0.005449295 0.09136224 0.49473298
v -0.004216194 -0.19133735 0.4980322
v 0.4558745 0.116322875 0.2466253
v 0.4307471 0.09136224 -0.23625994
v -0.005449295 0.09136224 0.49473298
v 0.4558745 -0.2162981 0.2466253
v -0.004216194 -0.19133735 0.4980322
v 0.42794776 -0.19133735 -0.23402715
v 1.2173269 0.09136224 0.6864208
v 1.0354035 0.116322875 0.59420943
v 0.0018823147 0.09136224 0.0068489313
v 0.00021600723 -0.19133735 0.007881999
v 0.0018823147 0.09136224 0.0068489313
v -0.005449295 0.09136224 0.49473298
v -0.004216194 -0.19133735 0.4980322
v 0.00021600723 -0.19133735 0.007881999
v 0.4307471 0.09136224 -0.23625994
v 0.42794776 -0.19133735 -0.23402715
v 1.0821923 -0.2162981 0.39069104
v 1.0821923 0.116322875 0.39069104
v 1.0354035 0.116322875 0.59420943
v 1.0354035 -0.2162981 0.59420943
v 0.8779075 0.116322875 0.73131025
v 0.8779075 -0.2162981 0.73131025
v 0.6698903 0.116322875 0.7497057
v 0.6698903 -0.2162981 0.7497057
v 0.4907995 0.116322875 0.642298
v 0.4907995 -0.2162981 0.642298
v 0.4907995 -0.2162981 0.642298
v 0.4907995 0.116322875 0.642298
v 0.40905225 0.116322875 0.45014358
v 0.40905225 -0.2162981 0.45014358
v 0.4558745 0.116322875 0.2466253
v 0.4558745 -0.2162981 0.2466253
v 0.6133371 0.116322875 0.10949123
v 0.6133371 -0.2162981 0.10949123
v 0.8213543 0.116322875 0.091128945
v 0.8213543 -0.2162981 0.091128945
v 1.0004451 0.116322875 0.19853675
v 1.0004451 -0.2162981 0.19853675
vt 1.0034902 0.6968763
vt 1.0034902 0.74784374
vt 1.0034902 0.74784374
vt 1.0034902 0.6968763
vt 0.28104648 0.66532505
vt 0.3045077 0.61273956
vt 0.31259778 0.6499539
vt 0.27214742 0.6103125
vt 0.4096787 0.65885293
vt 0.39026248 0.7082025
vt 0.37731838 0.67826915
vt 0.43071288 0.68474126
vt 0.31987885 0.5787612
vt 0.3045077 0.54963696
vt 0.47278127 0.6378188
vt 0.4250498 0.62487465
vt 0.35143012 0.5601541
vt 0.34010404 0.53022075
vt 0.32230586 0.7033484
vt 0.34010404 0.67422414
vt 0.37731838 0.6774602
vt 0.32068786 0.7025393
vt 0.3886445 0.7073934
vt 0.34010404 0.6734151
vt 0.47278127 0.63862777
vt 0.4096787 0.65885293
vt 0.42990386 0.68474126
vt 0.4250498 0.62487465
vt 0.92825246 0.6968763
vt 0.92825246 0.74784374
vt 0.40563363 0.5188947
vt 0.35223913 0.55934507
vt 0.38945347 0.56339014
vt 0.34495807 0.52698475
vt 0.3886445 0.56339014
vt 0.40401563 0.5205127
vt 0.3028897 0.548828
vt 0.3045077 0.61193055
vt 0.31987885 0.5771432
vt 0.2705294 0.6078855
vt 0.8837571 0.74784374
vt 0.8837571 0.6968763
vt 0.8158004 0.6968763
vt 0.7599789 0.74784374
vt 0.8158004 0.74784374
vt 0.7599789 0.6968763
vt 0.6353918 0.6968763
vt 0.58927834 0.74784374
vt 0.6353918 0.74784374
vt 0.58927834 0.6968763
vt 0.7033484 0.74784374
vt 0.7033484 0.6968763
vt 0.52617574 0.6968763
vt 0.52617574 0.74784374
vt 0.49947852 0.74784374
vt 0.49947852 0.6968763
vt 0.41695976 0.5884693
vt 0.4234318 0.50190556
vt 0.49947852 0.63377374
vt 0.41695976 0.5884693
vt 0.49947852 0.63377374
vt 0.4226228 0.50190556
vt 0.27861947 0.66451603
vt 0.31259778 0.6483359
vt 0.49947852 0.5464009
vt 0.49947852 0.5464009
vt 0.9646578 0.26567534
vt 0.9646578 0.17668453
vt 0.9120723 0.17587551
vt 0.9128814 0.26567534
vt 0.9646578 0.3562842
vt 0.9128814 0.3562842
vt 0.96789384 0.66937006
vt 0.9169264 0.66937006
vt 0.9169264 0.7009214
vt 0.96789384 0.7009214
vt 0.9169264 0.7332816
vt 0.96789384 0.7332816
vt 0.9169264 0.764833
vt 0.96789384 0.764833
vt 0.9169264 0.7963842
vt 0.96789384 0.7963842
vt 0.96789384 0.4784443
vt 0.9169264 0.4784443
vt 0.9169264 0.5099956
vt 0.96789384 0.5099956
vt 0.9169264 0.5423559
vt 0.96789384 0.5423559
vt 0.9169264 0.5739072
vt 0.96789384 0.5739072
vt 0.9169264 0.6054585
vt 0.96789384 0.6054585
vt 0.9169264 0.6378188
vt 0.96789384 0.6378188
vn 0.7176416 -0.011764646 -0.69631326
vn 0.3333308 -0.0274508 -0.94241023
vn 0.7176416 -0.011764646 -0.69631326
vn 0.3333308 -0.0274508 -0.94241023
vn 0.11372465 -0.9921493 0.052023727
vn 0.13703488 -0.99056625 -0
vn 0.10588157 -0.9921493 0.0665497
vn 0.13703488 -0.99056625 -0
vn -0.08235228 -0.9921493 0.09411645
vn -0.035293818 -0.9921493 0.11997543
vn -0.02745068 -0.9921493 0.12200926
vn -0.0901953 -0.9921493 0.086628996
vn 0.121567726 -0.9921493 -0.029343631
vn 0.10588157 -0.9921493 -0.0665497
vn -0.05091424 -0.998703 -0
vn -0.0901953 -0.9921493 0.086628996
vn 0.0274508 -0.9921493 -0.12200926
vn 0.035293877 -0.9921493 -0.11997543
vn 0.05098003 -0.9921493 0.1141965
vn 0.035293877 -0.9921493 0.11997543
vn -0.019607663 0.99214923 0.12351296
vn 0.05882311 0.99214923 0.11036182
vn -0.02745068 0.99214923 0.122009754
vn 0.05098003 0.99214923 0.11419702
vn -0.066666126 0.99214923 0.10580898
vn -0.08235228 0.99214923 0.09411708
vn -0.0901953 0.99214923 0.08662968
vn -0.06651899 0.9977852 -0
vn 0.3019585 -0.019607723 -0.9531194
vn 0.28627235 -0.019607723 -0.9579477
vn 0.019604107 0.9998079 -0
vn 0.035293877 0.99214923 -0.11997593
vn -0.035293818 0.99214923 -0.11997593
vn 0.043136954 0.99214923 -0.11738443
vn -0.019607663 -0.9921493 -0.12351248
vn 0.027440673 -0.9996234 -0
vn 0.098038495 0.99214923 -0.07764248
vn 0.12933922 0.9916004 -0
vn 0.11372465 0.99214923 -0.05202487
vn 0.121567726 0.99214923 -0.029345663
vn 0.76470006 -0.019607723 -0.64408803
vn 0.76470006 -0.019607723 -0.64408803
vn 0.9843062 -0.0274508 -0.17432079
vn 0.87450314 -0.0274508 0.4842424
vn 0.9843062 -0.0274508 -0.17432079
vn 0.87450314 -0.0274508 0.4842424
vn -0.1764692 -0.0039215684 0.98429835
vn -0.65489686 0.003921509 0.7557081
vn -0.18431222 -0.0039215684 0.9828599
vn -0.65489686 0.003921509 0.7557081
vn 0.34901696 -0.0274508 0.9367143
vn 0.34901696 -0.019607723 0.9369113
vn -0.5999954 0.003921509 0.7999939
vn -0.5999954 0.003921509 0.7999939
vn -0.16078305 0.003921509 0.986982
vn -0.15293992 0.011764526 0.9881655
vn -0.07430375 0.99723566 -0
vn -0.03527213 0.9993777 -0
vn -0.04309709 0.9990709 -0
vn -0.074509144 -0.9921493 -0.100439765
vn -0.035272125 -0.9993777 -0
vn -0.035272125 -0.9993777 -0
vn -0.003921509 0.99999225 -0.00034526698
vn 0.19215542 0.9764631 0.09796004
vn -0.003921509 0.99999225 -0.00034526698
vn -0.003921509 -0.9999924 -0
vn -0.85881686 -0.0039215684 -0.5122677
vn -0.99999225 0.003921509 -0.00034492963
vn -0.99999225 0.003921509 -0.00034492963
vn -0.85881686 -0.0039215684 -0.5122677
vn -0.4901923 -0.0039215684 -0.8716055
vn -0.4901923 -0.0039215684 -0.8716055
vn -0.99999225 0.003921509 -0.00034492963
vn -0.99999225 0.003921509 -0.00034492963
vn -0.85881686 0.003921509 -0.5122677
vn -0.85881686 0.003921509 -0.5122677
vn -0.38823223 0.003921509 -0.9215532
vn -0.38823223 0.003921509 -0.9215532
vn 0.22352773 0.003921509 -0.97468966
vn 0.22352773 0.003921509 -0.97468966
vn 0.756857 0.003921509 -0.6535688
vn 0.756857 0.003921509 -0.6535688
vn 0.756857 0.003921509 -0.6535688
vn 0.756857 0.003921509 -0.6535688
vn 0.9999924 0.003921509 -0
vn 0.9999924 0.003921509 -0
vn 0.858817 0.003921509 0.51226753
vn 0.858817 0.003921509 0.51226753
vn 0.38823235 0.003921509 0.9215532
vn 0.38823235 0.003921509 0.9215532
vn -0.22352767 0.003921509 0.9746897
vn -0.22352767 0.003921509 0.9746897
vn -0.7568569 0.003921509 0.6535688
vn -0.7568569 0.003921509 0.6535688
g HoverShassis_CustomizePart_2_CorpsePart_0
f 3/3/3 2/2/2 1/1/1
f 4/4/4 1/1/1 2/2/2
f 7/7/7 6/6/6 5/5/5
f 8/8/8 5/5/5 6/6/6
f 11/11/11 10/10/10 9/9/9
f 12/12/12 9/9/9 10/10/10
f 6/6/6 13/13/13 8/8/8
f 14/14/14 8/8/8 13/13/13
f 16/16/16 9/9/9 15/15/15
f 12/12/12 15/15/15 9/9/9
f 18/18/18 14/14/14 17/17/17
f 13/13/13 17/17/17 14/14/14
f 20/20/20 7/7/7 19/19/19
f 5/5/5 19/19/19 7/7/7
f 23/23/23 22/22/22 21/21/21
f 24/24/24 21/21/21 22/22/22
f 11/11/11 20/20/20 10/10/10
f 19/19/19 10/10/10 20/20/20
f 27/27/27 26/26/26 25/25/25
f 28/28/28 25/25/25 26/26/26
f 4/4/4 2/2/2 29/29/29
f 30/30/30 29/29/29 2/2/2
f 33/33/33 32/32/32 31/31/31
f 34/34/34 31/31/31 32/32/32
f 36/36/36 18/18/18 35/35/35
f 17/17/17 35/35/35 18/18/18
f 39/39/39 38/38/38 37/37/37
f 40/40/40 37/37/37 38/38/38
f 30/30/30 41/41/41 29/29/29
f 42/42/42 29/29/29 41/41/41
f 27/27/27 23/23/23 26/26/26
f 21/21/21 26/26/26 23/23/23
f 45/45/45 44/44/44 43/43/43
f 46/46/46 43/43/43 44/44/44
f 49/49/49 48/48/48 47/47/47
f 50/50/50 47/47/47 48/48/48
f 44/44/44 51/51/51 46/46/46
f 52/52/52 46/46/46 51/51/51
f 41/41/41 45/45/45 42/42/42
f 43/43/43 42/42/42 45/45/45
f 54/54/54 53/53/53 48/48/48
f 50/50/50 48/48/48 53/53/53
f 51/51/51 49/49/49 52/52/52
f 47/47/47 52/52/52 49/49/49
f 54/54/54 55/55/55 53/53/53
f 56/56/56 53/53/53 55/55/55
f 33/33/33 31/31/31 57/57/57
f 58/58/58 57/57/57 31/31/31
f 25/25/25 28/28/28 59/59/59
f 57/57/57 59/59/59 28/28/28
f 16/16/16 15/15/15 60/60/60
f 61/61/61 60/60/60 15/15/15
f 35/35/35 60/60/60 36/36/36
f 62/62/62 36/36/36 60/60/60
f 60/60/60 61/61/61 62/62/62
f 57/57/57 58/58/58 59/59/59
f 34/34/34 32/32/32 37/37/37
f 39/39/39 37/37/37 32/32/32
f 63/63/63 40/40/40 22/22/22
f 38/38/38 64/64/64 40/40/40
f 40/40/40 64/64/64 22/22/22
f 22/22/22 64/64/64 24/24/24
f 58/58/58 65/65/65 59/59/59
f 61/61/61 66/66/66 62/62/62
f 69/69/69 68/68/68 67/67/67
f 70/70/70 69/69/69 67/67/67
f 70/70/70 67/67/67 71/71/71
f 72/72/72 70/70/70 71/71/71
f 75/75/75 74/74/74 73/73/73
f 76/76/76 75/75/75 73/73/73
f 77/77/77 75/75/75 76/76/76
f 78/78/78 77/77/77 76/76/76
f 78/78/78 80/80/80 79/79/79
f 77/77/77 78/78/78 79/79/79
f 81/81/81 79/79/79 80/80/80
f 82/82/82 81/81/81 80/80/80
f 85/85/85 84/84/84 83/83/83
f 86/86/86 85/85/85 83/83/83
f 86/86/86 88/88/88 87/87/87
f 85/85/85 86/86/86 87/87/87
f 88/88/88 90/90/90 89/89/89
f 87/87/87 88/88/88 89/89/89
f 90/90/90 92/92/92 91/91/91
f 89/89/89 90/90/90 91/91/91
f 93/93/93 91/91/91 92/92/92
f 94/94/94 93/93/93 92/92/92
f 74/74/74 93/93/93 94/94/94
f 73/73/73 74/74/74 94/94/94
