g HoverShassis_DefaultPart_3_CorpsePart
v -0.02232492 -0.19132257 -1.3802822
v -0.20907748 -0.2162695 -1.1178749
v -0.011508822 -0.2162695 -1.1784102
v -0.31537795 -0.19132257 -1.2703763
v 0.2990768 -0.2162695 -0.7354725
v 0.48870784 -0.19132257 -0.9595581
v 0.3025658 -0.2162695 -0.9420837
v 0.4916445 -0.19132257 -0.71421826
v -0.33331752 -0.2162695 -0.9527545
v -0.50364244 -0.19132257 -1.0342534
v 0.38950193 0.091350436 -0.372231
v 0.4916445 -0.19132257 -0.71421826
v 0.38237834 -0.19132257 -0.37842417
v 0.4888242 0.091350436 -0.7021809
v 0.38237834 -0.19132257 -0.37842417
v 0.17483675 -0.2162695 -0.5703812
v -0.33677757 -0.2162695 -0.7461432
v -0.5201864 -0.19132257 -0.73521084
v 0.27697933 -0.19132257 -1.2809889
v 0.18390834 -0.2162695 -1.1112746
v -0.33323026 0.116297245 -0.9527545
v -0.51957583 0.091350436 -0.7405316
v -0.50759673 0.091350436 -1.0369283
v -0.3367194 0.116297245 -0.7462014
v 0.3025658 0.116297245 -0.9420837
v 0.2788111 0.091350436 -1.2852921
v 0.48859155 0.091350436 -0.9646173
v 0.18393743 0.116297245 -1.1112456
v 0.38950193 0.091350436 -0.372231
v 0.2990768 0.116297245 -0.7355016
v 0.4888242 0.091350436 -0.7021809
v 0.17483675 0.116297245 -0.5704103
v -0.37300575 -0.19132257 -0.37548745
v -0.51957583 0.091350436 -0.7405316
v -0.37300575 0.091350436 -0.37548745
v -0.5201864 -0.19132257 -0.73521084
v 0.43073112 0.091350436 -0.23627353
v -0.022702932 0.116297245 -0.5098749
v -0.21814907 -0.2162695 -0.57695234
v -0.37300575 -0.19132257 -0.37548745
v -0.20899022 0.116297245 -1.1178458
v -0.31811094 0.091350436 -1.2745632
v -0.37300575 0.091350436 -0.37548745
v -0.21809089 0.116297245 -0.57701045
v -0.50759673 0.091350436 -1.0369283
v -0.50364244 -0.19132257 -1.0342534
v 0.42805618 -0.19132257 -0.23400557
v 0.43073112 0.091350436 -0.23627353
v -0.41958487 0.091350436 -0.23804712
v -0.4230448 -0.19132257 -0.23941362
v -0.31537795 -0.19132257 -1.2703763
v -0.022790074 0.091350436 -1.3852831
v -0.31811094 0.091350436 -1.2745632
v -0.02232492 -0.19132257 -1.3802822
v 0.48870784 -0.19132257 -0.9595581
v 0.48859155 0.091350436 -0.9646173
v 0.2788111 0.091350436 -1.2852921
v 0.27697933 -0.19132257 -1.2809889
v -0.41958487 0.091350436 -0.23804712
v -0.02273202 -0.2162695 -0.50981677
v 0.42805618 -0.19132257 -0.23400557
v -0.4230448 -0.19132257 -0.23941362
v 0.42796892 -0.19132257 -0.23400557
v -0.011450648 0.116297245 -1.1783811
v -0.022790074 0.091350436 -1.3852831
v -0.022790074 0.091350436 -1.3852831
v -0.011450648 0.116297245 -1.1783811
v 0.0018950701 0.091350436 0.00685668
v 0.00020873547 -0.19132257 0.00787437
v -0.33677757 -0.2162695 -0.7461432
v -0.3367194 0.116297245 -0.7462014
v -0.33323026 0.116297245 -0.9527545
v -0.33331752 -0.2162695 -0.9527545
v -0.20907748 -0.2162695 -1.1178749
v -0.20899022 0.116297245 -1.1178458
v -0.011450648 0.116297245 -1.1783811
v -0.011508822 -0.2162695 -1.1784102
v 0.3025658 0.116297245 -0.9420837
v 0.3025658 -0.2162695 -0.9420837
v 0.18390834 -0.2162695 -1.1112746
v 0.18393743 0.116297245 -1.1112456
v 0.2990768 -0.2162695 -0.7354725
v 0.2990768 0.116297245 -0.7355016
v 0.17483675 0.116297245 -0.5704103
v 0.17483675 -0.2162695 -0.5703812
v -0.21809089 0.116297245 -0.57701045
v -0.21814907 -0.2162695 -0.57695234
v -0.02273202 -0.2162695 -0.50981677
v -0.022702932 0.116297245 -0.5098749
v -0.011508822 -0.2162695 -1.1784102
v -0.011450648 0.116297245 -1.1783811
v 0.0018950701 0.091350436 0.00685668
v 0.43073112 0.091350436 -0.23627353
v 0.42805618 -0.19132257 -0.23400557
v 0.42796892 -0.19132257 -0.23400557
v 0.00020873547 -0.19132257 0.00787437
v -0.4230448 -0.19132257 -0.23941362
v -0.41958487 0.091350436 -0.23804712
vt 0.6646132 0.78958905
vt 0.6333692 0.80940235
vt 0.64479995 0.78654087
vt 0.64632404 0.820833
vt 0.59755296 0.7385318
vt 0.6280349 0.7240529
vt 0.6227005 0.7423421
vt 0.59907705 0.7187186
vt 0.60974574 0.8215951
vt 0.61508006 0.8375981
vt 0.09002888 0.11670056
vt 0.12813129 0.058022857
vt 0.09002888 0.058022857
vt 0.12813129 0.11670056
vt 0.5594505 0.7240529
vt 0.5739294 0.7507246
vt 0.5838361 0.81778485
vt 0.58154994 0.83378786
vt 0.6600409 0.7537728
vt 0.64098966 0.76063126
vt 0.62193847 0.629559
vt 0.57240534 0.61508006
vt 0.6120319 0.65927887
vt 0.59602886 0.59145653
vt 0.72176677 0.53277886
vt 0.7598692 0.58536017
vt 0.7469144 0.5122036
vt 0.7278632 0.57621557
vt 0.65318245 0.44361922
vt 0.6889987 0.50305897
vt 0.7126222 0.4763873
vt 0.6470861 0.50305897
vt 0.59145653 0.058022857
vt 0.5495439 0.11670056
vt 0.59145653 0.11670056
vt 0.5495439 0.058022857
vt 0.6402276 0.4177096
vt 0.6158421 0.52211016
vt 0.56554693 0.7994957
vt 0.5434475 0.8101644
vt 0.66766137 0.6348933
vt 0.67375773 0.6684234
vt 0.5442096 0.5442096
vt 0.59602886 0.5464957
vt 0.47714934 0.11670056
vt 0.47714934 0.058022857
vt 0.06411924 0.058022857
vt 0.06411924 0.11670056
vt 0.6158421 0.11670056
vt 0.6158421 0.058022857
vt 0.40627885 0.058022857
vt 0.33769453 0.11670056
vt 0.40627885 0.11670056
vt 0.33769453 0.058022857
vt 0.20052586 0.058022857
vt 0.20052586 0.11670056
vt 0.2675861 0.11670056
vt 0.2675861 0.058022857
vt 0.51829994 0.53125477
vt 0.5617367 0.77358603
vt 0.5442096 0.7171945
vt 0.5266825 0.8132126
vt 0.5442096 0.7171945
vt 0.6905228 0.629559
vt 0.68823665 0.66232705
vt 0.75453484 0.60441136
vt 0.71948063 0.6051734
vt 0.5457337 0.440571
vt 0.5076313 0.76063126
vt 0.59602886 0.59145653
vt 0.59602886 0.59145653
vt 0.62193847 0.629559
vt 0.62193847 0.629559
vt 0.66766137 0.6348933
vt 0.66766137 0.6348933
vt 0.6905228 0.629559
vt 0.6905228 0.629559
vt 0.72176677 0.53277886
vt 0.72176677 0.53277886
vt 0.7278632 0.57621557
vt 0.7278632 0.57621557
vt 0.6889987 0.50305897
vt 0.6889987 0.50305897
vt 0.6470861 0.50305897
vt 0.6470861 0.50305897
vt 0.59602886 0.5464957
vt 0.59602886 0.5464957
vt 0.6158421 0.52211016
vt 0.6158421 0.52211016
vt 0.71948063 0.6051734
vt 0.71948063 0.6051734
vt 0.57850176 0.45581198
vt 0.57850176 0.45581198
vt 0.57850176 0.45581198
vt 0.57850176 0.45581198
vt 0.57850176 0.45581198
vt 0.57850176 0.45581198
vt 0.57850176 0.45581198
vn 0.0039215684 -0.9921493 -0.124997616
vn -0.074509144 -0.9921493 -0.100439765
vn 0.011764646 -0.9921493 -0.12450454
vn -0.074509144 -0.9921493 -0.100439765
vn 0.11372465 -0.9921493 0.052023727
vn 0.12933922 -0.99160045 -0
vn 0.12933922 -0.99160045 -0
vn 0.12933922 -0.99160045 -0
vn -0.12156761 -0.9921493 -0.029344646
vn -0.12156761 -0.9921493 -0.029344646
vn 0.9921493 -0.019607723 0.123512425
vn 0.9843062 -0.0039215684 0.17642535
vn 0.9921493 -0.0274508 0.122009166
vn 0.9843062 0.003921509 0.17642535
vn 0.074303865 -0.99723566 -0
vn 0.05098003 -0.9921493 0.1141965
vn -0.13703476 -0.99056625 -0
vn -0.12156761 -0.9921493 0.029344646
vn 0.08235234 -0.9921493 -0.09411613
vn 0.09019542 -0.9921493 -0.086628996
vn -0.12156761 0.99214923 -0.029346678
vn -0.13703476 0.9905662 -0
vn -0.12156761 0.99214923 -0.029346678
vn -0.12156761 0.99214923 0.029346678
vn 0.12933922 0.9916004 -0
vn 0.07450926 0.99214923 -0.10044035
vn 0.12933922 0.9916004 -0
vn 0.08235234 0.99214923 -0.09411676
vn 0.121567726 0.99214923 0.029345663
vn 0.11372465 0.99214923 0.05202487
vn 0.12933922 0.9916004 -0
vn 0.04309721 0.9990709 -0
vn -0.9843061 0.003921509 0.17642602
vn -0.9764631 0.003921509 0.21564901
vn -0.9843061 0.003921509 0.17642602
vn -0.9764631 0.003921509 0.21564901
vn 0.0039215684 0.99999225 -0.00034526698
vn -0.003921509 0.99999225 -0.00034526698
vn -0.074509144 -0.9921493 0.100439765
vn -0.08207506 -0.9966261 -0
vn -0.074509144 0.99214923 -0.10044035
vn -0.074509144 0.99214923 -0.10044035
vn -0.08207507 0.9966261 -0
vn -0.05882299 0.99214923 0.11036182
vn -0.93724763 -0.011764646 -0.3484659
vn -0.93724763 -0.019607723 -0.34811267
vn 0.9529339 -0.019607723 -0.3025434
vn 0.960777 -0.011764646 -0.2770725
vn -0.9450908 0.003921509 -0.3267844
vn -0.93724763 0.011764526 -0.34846592
vn -0.5843092 -0.019607723 -0.8112942
vn -0.019607663 -0.019607723 -0.9996155
vn -0.5843092 -0.019607723 -0.8112942
vn -0.019607663 -0.019607723 -0.9996155
vn 0.93724775 -0.0039215684 -0.34864205
vn 0.93724775 -0.0039215684 -0.34864205
vn 0.63136774 -0.019607723 -0.77523565
vn 0.6392108 -0.011764646 -0.7689416
vn -0.011763804 0.99993086 -0
vn -0.003921509 -0.9999924 -0
vn 0.066519044 -0.9977852 -0
vn -0.011763803 -0.99993086 -0
vn -0.003921509 -0.9999924 -0
vn 0.0039215684 0.99214923 -0.12499809
vn -0.003921509 0.99214923 -0.12499809
vn -0.003921509 0.99214923 -0.12499809
vn 0.0039215684 0.99214923 -0.12499809
vn -0.003921509 0.99999225 -0.00034526698
vn -0.003921509 -0.9999924 -0
vn 0.9529339 -0.0039215684 -0.30315277
vn 0.9529339 -0.0039215684 -0.30315277
vn 0.94509083 -0.0039215684 0.32678422
vn 0.94509083 -0.0039215684 0.32678422
vn 0.5764662 -0.0039215684 0.81711155
vn 0.5764662 -0.0039215684 0.81711155
vn -0.019607663 -0.0039215684 0.9998001
vn -0.019607663 -0.0039215684 0.9998001
vn -0.9529338 0.003921509 0.30315316
vn -0.9529338 0.003921509 0.30315316
vn -0.5999954 0.003921509 0.7999939
vn -0.5999954 0.003921509 0.7999939
vn -0.9450908 -0.0039215684 -0.3267844
vn -0.9450908 -0.0039215684 -0.3267844
vn -0.5764661 -0.0039215684 -0.8171117
vn -0.5764661 -0.0039215684 -0.8171117
vn 0.59999543 -0.0039215684 -0.7999938
vn 0.59999543 -0.0039215684 -0.7999938
vn 0.019607723 -0.0039215684 -0.9998001
vn 0.019607723 -0.0039215684 -0.9998001
vn -0.019607663 -0.0039215684 0.9998001
vn -0.019607663 -0.0039215684 0.9998001
vn -0.003921509 0.003921509 0.9999846
vn 0.49019235 0.003921509 0.87160546
vn 0.49019235 0.003921509 0.87160546
vn 0.49019235 0.003921509 0.87160546
vn -0.003921509 0.003921509 0.9999846
vn -0.50587845 0.003921509 0.86259586
vn -0.50587845 0.003921509 0.86259586
g HoverShassis_DefaultPart_3_CorpsePart_0
f 3/3/3 2/2/2 1/1/1
f 4/4/4 1/1/1 2/2/2
f 7/7/7 6/6/6 5/5/5
f 8/8/8 5/5/5 6/6/6
f 2/2/2 9/9/9 4/4/4
f 10/10/10 4/4/4 9/9/9
f 13/13/13 12/12/12 11/11/11
f 14/14/14 11/11/11 12/12/12
f 16/16/16 5/5/5 15/15/15
f 8/8/8 15/15/15 5/5/5
f 9/9/9 17/17/17 10/10/10
f 18/18/18 10/10/10 17/17/17
f 20/20/20 3/3/3 19/19/19
f 1/1/1 19/19/19 3/3/3
f 23/23/23 22/22/22 21/21/21
f 24/24/24 21/21/21 22/22/22
f 27/27/27 26/26/26 25/25/25
f 28/28/28 25/25/25 26/26/26
f 7/7/7 20/20/20 6/6/6
f 19/19/19 6/6/6 20/20/20
f 31/31/31 30/30/30 29/29/29
f 32/32/32 29/29/29 30/30/30
f 35/35/35 34/34/34 33/33/33
f 36/36/36 33/33/33 34/34/34
f 29/29/29 32/32/32 37/37/37
f 38/38/38 37/37/37 32/32/32
f 40/40/40 18/18/18 39/39/39
f 17/17/17 39/39/39 18/18/18
f 21/21/21 41/41/41 23/23/23
f 42/42/42 23/23/23 41/41/41
f 31/31/31 27/27/27 30/30/30
f 25/25/25 30/30/30 27/27/27
f 44/44/44 24/24/24 43/43/43
f 22/22/22 43/43/43 24/24/24
f 34/34/34 45/45/45 36/36/36
f 46/46/46 36/36/36 45/45/45
f 48/48/48 47/47/47 11/11/11
f 13/13/13 11/11/11 47/47/47
f 50/50/50 49/49/49 33/33/33
f 35/35/35 33/33/33 49/49/49
f 53/53/53 52/52/52 51/51/51
f 54/54/54 51/51/51 52/52/52
f 56/56/56 14/14/14 55/55/55
f 12/12/12 55/55/55 14/14/14
f 52/52/52 57/57/57 54/54/54
f 58/58/58 54/54/54 57/57/57
f 45/45/45 53/53/53 46/46/46
f 51/51/51 46/46/46 53/53/53
f 57/57/57 56/56/56 58/58/58
f 55/55/55 58/58/58 56/56/56
f 44/44/44 43/43/43 38/38/38
f 59/59/59 38/38/38 43/43/43
f 38/38/38 59/59/59 37/37/37
f 16/16/16 15/15/15 60/60/60
f 61/61/61 60/60/60 15/15/15
f 39/39/39 60/60/60 40/40/40
f 62/62/62 40/40/40 60/60/60
f 61/61/61 63/63/63 60/60/60
f 62/62/62 60/60/60 63/63/63
f 65/65/65 42/42/42 64/64/64
f 41/41/41 64/64/64 42/42/42
f 67/67/67 26/26/26 66/66/66
f 26/26/26 67/67/67 28/28/28
f 37/37/37 59/59/59 68/68/68
f 62/62/62 63/63/63 69/69/69
f 72/72/72 71/71/71 70/70/70
f 73/73/73 72/72/72 70/70/70
f 76/76/76 75/75/75 74/74/74
f 77/77/77 76/76/76 74/74/74
f 80/80/80 79/79/79 78/78/78
f 81/81/81 80/80/80 78/78/78
f 84/84/84 83/83/83 82/82/82
f 85/85/85 84/84/84 82/82/82
f 88/88/88 87/87/87 86/86/86
f 89/89/89 88/88/88 86/86/86
f 85/85/85 88/88/88 89/89/89
f 84/84/84 85/85/85 89/89/89
f 83/83/83 78/78/78 79/79/79
f 82/82/82 83/83/83 79/79/79
f 71/71/71 86/86/86 87/87/87
f 70/70/70 71/71/71 87/87/87
f 75/75/75 72/72/72 73/73/73
f 74/74/74 75/75/75 73/73/73
f 81/81/81 91/91/91 90/90/90
f 80/80/80 81/81/81 90/90/90
f 94/94/94 93/93/93 92/92/92
f 92/92/92 95/95/95 94/94/94
f 92/92/92 96/96/96 95/95/95
f 98/98/98 97/97/97 96/96/96
f 92/92/92 98/98/98 96/96/96
