g HoverShassis_011
v 42.015663 -21.630821 -63.47979
v 13.653023 -30.881794 -73.07884
v 41.104584 -30.881794 -62.080463
v 13.959053 -21.630821 -74.72112
v -44.05342 -21.630821 -62.479935
v -63.77482 -30.881794 -39.94821
v -43.1073 -30.881794 -61.101635
v -65.176476 -21.630821 -40.86163
v -74.77552 -30.881794 -12.4966545
v -76.41781 -21.630821 -12.805019
v -76.41781 -21.630821 15.655739
v -74.77552 -30.881794 15.347374
v 75.52474 -21.630821 -14.568775
v 62.25567 -30.881794 -41.41295
v 73.88947 -30.881794 -14.223034
v 63.633972 -21.630821 -42.356735
v -16.263123 -21.630821 -74.370705
v -15.919716 -30.881794 -72.735435
v -65.176476 -21.630821 -40.86163
v -76.41781 -21.630821 15.655739
v -76.41781 -21.630821 -12.805019
v -65.176476 -21.630821 43.71235
v -44.05342 -21.630821 65.33065
v -44.05342 -21.630821 -62.479935
v -16.263123 -21.630821 77.22143
v -16.263123 -21.630821 -74.370705
v 13.959053 -21.630821 -74.72112
v 13.959053 -21.630821 77.571846
v 42.015663 -21.630821 -63.47979
v 42.015663 -21.630821 66.33051
v 63.633972 -21.630821 45.20746
v 75.52474 -21.630821 17.419495
v 63.633972 -21.630821 -42.356735
v 75.52474 -21.630821 -14.568775
v 42.015663 -21.630821 66.33051
v 13.653023 -30.881794 75.92956
v 13.959053 -21.630821 77.571846
v 41.104584 -30.881794 64.931175
v -44.05342 -21.630821 65.33065
v -63.77482 -30.881794 42.798935
v -65.176476 -21.630821 43.71235
v -43.1073 -30.881794 63.952354
v 75.52474 -21.630821 17.419495
v 62.25567 -30.881794 44.26367
v 63.633972 -21.630821 45.20746
v 73.88947 -30.881794 17.073753
v -16.263123 -21.630821 77.22143
v -15.919716 -30.881794 75.58616
v -74.77552 -30.881794 15.347374
v -63.77482 -30.881794 -39.94821
v -74.77552 -30.881794 -12.4966545
v -63.77482 -30.881794 42.798935
v -43.1073 -30.881794 63.952354
v -43.1073 -30.881794 -61.101635
v -15.919716 -30.881794 -72.735435
v -15.919716 -30.881794 75.58616
v 13.653023 -30.881794 75.92956
v 13.653023 -30.881794 -73.07884
v 41.104584 -30.881794 64.931175
v 41.104584 -30.881794 -62.080463
v 62.25567 -30.881794 -41.41295
v 73.88947 -30.881794 17.073753
v 73.88947 -30.881794 -14.223034
v 62.25567 -30.881794 44.26367
v 73.88947 -30.881794 -14.223034
v 75.52474 -21.630821 -14.568775
v -14.055504 10.20327 -33.140804
v 33.86266 20.281227 -13.290928
v -14.055504 20.281227 -33.140804
v 33.86266 10.20327 -13.290928
v 14.015121 20.281227 34.6249
v 14.015121 10.20327 34.6249
v -33.903046 20.281227 14.777367
v -33.903046 10.20327 14.777367
v -14.055504 20.281227 -33.140804
v -14.055504 10.20327 -33.140804
vt 0.76666695 0.8685822
vt 0.7720192 0.86523706
vt 0.76666695 0.86523706
vt 0.7720192 0.8685822
vt 0.7827236 0.8685822
vt 0.78807586 0.86523706
vt 0.7827236 0.86523706
vt 0.78807586 0.8685822
vt 0.79342806 0.86523706
vt 0.79342806 0.8685822
vt 0.79844576 0.8685822
vt 0.79844576 0.86523706
vt 0.75596255 0.8685822
vt 0.76131475 0.86523706
vt 0.75596255 0.86523706
vt 0.76131475 0.8685822
vt 0.7773714 0.8685822
vt 0.7773714 0.86523706
vt 0.76354486 0.8537521
vt 0.7608687 0.84026
vt 0.7608687 0.8470618
vt 0.76354486 0.83356977
vt 0.76856256 0.82844055
vt 0.76856256 0.8588813
vt 0.7751413 0.8256529
vt 0.7751413 0.8616689
vt 0.7823891 0.8617804
vt 0.7823891 0.8255414
vt 0.7889679 0.8591043
vt 0.7889679 0.8282175
vt 0.7942086 0.8332352
vt 0.79699624 0.839814
vt 0.7942086 0.8540866
vt 0.79699624 0.84750783
vt 0.8252069 0.8685822
vt 0.8199662 0.86523706
vt 0.8199662 0.8685822
vt 0.8252069 0.86523706
vt 0.80926174 0.8685822
vt 0.80390954 0.86523706
vt 0.80390954 0.8685822
vt 0.80926174 0.86523706
vt 0.83591133 0.8685822
vt 0.83055913 0.86523706
vt 0.83055913 0.8685822
vt 0.83591133 0.86523706
vt 0.81461394 0.8685822
vt 0.81461394 0.86523706
vt 0.76131475 0.8403715
vt 0.76387936 0.8535291
vt 0.76131475 0.8469503
vt 0.76387936 0.83379275
vt 0.76878554 0.82877505
vt 0.76878554 0.8585468
vt 0.7752528 0.86122286
vt 0.7752528 0.82598746
vt 0.78227764 0.82598746
vt 0.78227764 0.8613344
vt 0.7888564 0.828552
vt 0.7888564 0.8587698
vt 0.7938741 0.8538636
vt 0.7965502 0.8399255
vt 0.7965502 0.8473963
vt 0.7938741 0.83345824
vt 0.8415981 0.86523706
vt 0.8415981 0.8685822
vt 0.7570776 0.8592158
vt 0.75451297 0.8455007
vt 0.75451297 0.8592158
vt 0.7570776 0.8455007
vt 0.75451297 0.8314512
vt 0.7570776 0.8314512
vt 0.75451297 0.8174016
vt 0.7570776 0.8174016
vt 0.75451297 0.803352
vt 0.7570776 0.803352
vn 0.5372508 -0.17646927 -0.8247546
vn 0.18431234 -0.17646927 -0.9668958
vn 0.5372508 -0.17646927 -0.8247546
vn 0.18431234 -0.17646927 -0.9668958
vn -0.5529369 -0.17646927 -0.8143214
vn -0.82744455 -0.17646927 -0.5330986
vn -0.5529369 -0.17646927 -0.8143214
vn -0.82744455 -0.17646927 -0.5330986
vn -0.96861994 -0.17646927 -0.17502567
vn -0.96861994 -0.17646927 -0.17502567
vn -0.96861994 -0.17646927 0.17502567
vn -0.96861994 -0.17646927 0.17502567
vn 0.96862006 -0.17646927 -0.17502499
vn 0.8117585 -0.17646927 -0.55669266
vn 0.96862006 -0.17646927 -0.17502499
vn 0.8117585 -0.17646927 -0.55669266
vn -0.19999838 -0.17646927 -0.9637734
vn -0.19999838 -0.17646927 -0.9637734
vn -0.003921509 0.99999225 -0.00034526698
vn -0.003921509 0.99999225 -0.00034526698
vn -0.003921509 0.99999225 -0.00034526698
vn -0.003921509 0.99999225 -0.00034526698
vn -0.003921509 0.99999225 -0.00034526698
vn -0.003921509 0.99999225 -0.00034526698
vn -0.003921509 0.99999225 -0.00034526698
vn -0.003921509 0.99999225 -0.00034526698
vn -0.003921509 0.99999225 -0.00034526698
vn -0.003921509 0.99999225 -0.00034526698
vn -0.003921509 0.99999225 -0.00034526698
vn -0.003921509 0.99999225 -0.00034526698
vn -0.003921509 0.99999225 -0.00034526698
vn -0.003921509 0.99999225 -0.00034526698
vn -0.003921509 0.99999225 -0.00034526698
vn -0.003921509 0.99999225 -0.00034526698
vn 0.5372508 -0.17646927 0.8247546
vn 0.18431234 -0.17646927 0.9668958
vn 0.18431234 -0.17646927 0.9668958
vn 0.5372508 -0.17646927 0.8247546
vn -0.5529369 -0.17646927 0.8143214
vn -0.82744455 -0.17646927 0.5330986
vn -0.82744455 -0.17646927 0.5330986
vn -0.5529369 -0.17646927 0.8143214
vn 0.96862006 -0.17646927 0.17502499
vn 0.8117585 -0.17646927 0.55669266
vn 0.8117585 -0.17646927 0.55669266
vn 0.96862006 -0.17646927 0.17502499
vn -0.19999838 -0.17646927 0.9637734
vn -0.19999838 -0.17646927 0.9637734
vn -0.003921509 -0.9999924 -0
vn -0.003921509 -0.9999924 -0
vn -0.003921509 -0.9999924 -0
vn -0.003921509 -0.9999924 -0
vn -0.003921509 -0.9999924 -0
vn -0.003921509 -0.9999924 -0
vn -0.003921509 -0.9999924 -0
vn -0.003921509 -0.9999924 -0
vn -0.003921509 -0.9999924 -0
vn -0.003921509 -0.9999924 -0
vn -0.003921509 -0.9999924 -0
vn -0.003921509 -0.9999924 -0
vn -0.003921509 -0.9999924 -0
vn -0.003921509 -0.9999924 -0
vn -0.003921509 -0.9999924 -0
vn -0.003921509 -0.9999924 -0
vn 0.96862006 -0.17646927 -0.17502499
vn 0.96862006 -0.17646927 -0.17502499
vn -0.3803892 0.003921509 -0.9248182
vn 0.9215616 0.003921509 -0.38821238
vn -0.3803892 0.003921509 -0.9248182
vn 0.9215616 0.003921509 -0.38821238
vn 0.38038927 0.003921509 0.92481816
vn 0.38038927 0.003921509 0.92481816
vn -0.9215615 0.003921509 0.38821262
vn -0.9215615 0.003921509 0.38821262
vn -0.3803892 0.003921509 -0.9248182
vn -0.3803892 0.003921509 -0.9248182
g HoverShassis_011_0
f 3/3/3 2/2/2 1/1/1
f 4/4/4 1/1/1 2/2/2
f 7/7/7 6/6/6 5/5/5
f 8/8/8 5/5/5 6/6/6
f 6/6/6 9/9/9 8/8/8
f 10/10/10 8/8/8 9/9/9
f 12/12/12 11/11/11 9/9/9
f 10/10/10 9/9/9 11/11/11
f 15/15/15 14/14/14 13/13/13
f 16/16/16 13/13/13 14/14/14
f 14/14/14 3/3/3 16/16/16
f 1/1/1 16/16/16 3/3/3
f 18/18/18 7/7/7 17/17/17
f 5/5/5 17/17/17 7/7/7
f 2/2/2 18/18/18 4/4/4
f 17/17/17 4/4/4 18/18/18
f 21/21/21 20/20/20 19/19/19
f 20/20/20 22/22/22 19/19/19
f 22/22/22 23/23/23 19/19/19
f 19/19/19 23/23/23 24/24/24
f 23/23/23 25/25/25 24/24/24
f 24/24/24 25/25/25 26/26/26
f 26/26/26 25/25/25 27/27/27
f 25/25/25 28/28/28 27/27/27
f 27/27/27 28/28/28 29/29/29
f 28/28/28 30/30/30 29/29/29
f 30/30/30 31/31/31 29/29/29
f 34/34/34 33/33/33 32/32/32
f 32/32/32 33/33/33 31/31/31
f 31/31/31 33/33/33 29/29/29
f 37/37/37 36/36/36 35/35/35
f 38/38/38 35/35/35 36/36/36
f 41/41/41 40/40/40 39/39/39
f 42/42/42 39/39/39 40/40/40
f 11/11/11 12/12/12 41/41/41
f 40/40/40 41/41/41 12/12/12
f 45/45/45 44/44/44 43/43/43
f 46/46/46 43/43/43 44/44/44
f 35/35/35 38/38/38 45/45/45
f 44/44/44 45/45/45 38/38/38
f 39/39/39 42/42/42 47/47/47
f 48/48/48 47/47/47 42/42/42
f 47/47/47 48/48/48 37/37/37
f 36/36/36 37/37/37 48/48/48
f 51/51/51 50/50/50 49/49/49
f 49/49/49 50/50/50 52/52/52
f 52/52/52 50/50/50 53/53/53
f 50/50/50 54/54/54 53/53/53
f 54/54/54 55/55/55 53/53/53
f 53/53/53 55/55/55 56/56/56
f 56/56/56 55/55/55 57/57/57
f 55/55/55 58/58/58 57/57/57
f 57/57/57 58/58/58 59/59/59
f 58/58/58 60/60/60 59/59/59
f 60/60/60 61/61/61 59/59/59
f 63/63/63 62/62/62 61/61/61
f 62/62/62 64/64/64 61/61/61
f 61/61/61 64/64/64 59/59/59
f 46/46/46 65/65/65 43/43/43
f 66/66/66 43/43/43 65/65/65
f 69/69/69 68/68/68 67/67/67
f 70/70/70 67/67/67 68/68/68
f 68/68/68 71/71/71 70/70/70
f 72/72/72 70/70/70 71/71/71
f 71/71/71 73/73/73 72/72/72
f 74/74/74 72/72/72 73/73/73
f 73/73/73 75/75/75 74/74/74
f 76/76/76 74/74/74 75/75/75
