g HoverShassis_CustomizePart_3_CorpsePart
v -0.02232492 -0.19132257 -1.3802822
v -0.20907748 -0.2162695 -1.1178749
v -0.011508822 -0.2162695 -1.1784102
v -0.31537795 -0.19132257 -1.2703763
v 0.2990768 -0.2162695 -0.7354725
v 0.48870784 -0.19132257 -0.9595581
v 0.3025658 -0.2162695 -0.9420837
v 0.4916445 -0.19132257 -0.71421826
v -0.33331752 -0.2162695 -0.9527545
v -0.50364244 -0.19132257 -1.0342534
v 0.38950193 0.091350436 -0.372231
v 0.4916445 -0.19132257 -0.71421826
v 0.38237834 -0.19132257 -0.37842417
v 0.4888242 0.091350436 -0.7021809
v 0.38237834 -0.19132257 -0.37842417
v 0.17483675 -0.2162695 -0.5703812
v -0.33677757 -0.2162695 -0.7461432
v -0.5201864 -0.19132257 -0.73521084
v 0.27697933 -0.19132257 -1.2809889
v 0.18390834 -0.2162695 -1.1112746
v -0.33323026 0.116297245 -0.9527545
v -0.51957583 0.091350436 -0.7405316
v -0.50759673 0.091350436 -1.0369283
v -0.3367194 0.116297245 -0.7462014
v 0.3025658 0.116297245 -0.9420837
v 0.2788111 0.091350436 -1.2852921
v 0.48859155 0.091350436 -0.9646173
v 0.18393743 0.116297245 -1.1112456
v 0.38950193 0.091350436 -0.372231
v 0.2990768 0.116297245 -0.7355016
v 0.4888242 0.091350436 -0.7021809
v 0.17483675 0.116297245 -0.5704103
v -0.37300575 -0.19132257 -0.37548745
v -0.51957583 0.091350436 -0.7405316
v -0.37300575 0.091350436 -0.37548745
v -0.5201864 -0.19132257 -0.73521084
v 0.43073112 0.091350436 -0.23627353
v -0.022702932 0.116297245 -0.5098749
v -0.21814907 -0.2162695 -0.57695234
v -0.37300575 -0.19132257 -0.37548745
v -0.20899022 0.116297245 -1.1178458
v -0.31811094 0.091350436 -1.2745632
v -0.37300575 0.091350436 -0.37548745
v -0.21809089 0.116297245 -0.57701045
v -0.50759673 0.091350436 -1.0369283
v -0.50364244 -0.19132257 -1.0342534
v 0.42805618 -0.19132257 -0.23400557
v 0.43073112 0.091350436 -0.23627353
v -0.41958487 0.091350436 -0.23804712
v -0.4230448 -0.19132257 -0.23941362
v -0.31537795 -0.19132257 -1.2703763
v -0.022790074 0.091350436 -1.3852831
v -0.31811094 0.091350436 -1.2745632
v -0.02232492 -0.19132257 -1.3802822
v 0.48870784 -0.19132257 -0.9595581
v 0.48859155 0.091350436 -0.9646173
v 0.2788111 0.091350436 -1.2852921
v 0.27697933 -0.19132257 -1.2809889
v -0.41958487 0.091350436 -0.23804712
v -0.02273202 -0.2162695 -0.50981677
v 0.42805618 -0.19132257 -0.23400557
v -0.4230448 -0.19132257 -0.23941362
v -0.022790074 0.091350436 -1.3852831
v -0.011450648 0.116297245 -1.1783811
v 0.0018950701 0.091350436 0.00685668
v 0.00020873547 -0.19132257 0.00787437
v -0.022702932 0.116297245 -0.5098749
v -0.02273202 -0.2162695 -0.50981677
v 0.17483675 -0.2162695 -0.5703812
v 0.17483675 0.116297245 -0.5704103
v -0.21814907 -0.2162695 -0.57695234
v -0.21809089 0.116297245 -0.57701045
v -0.3367194 0.116297245 -0.7462014
v -0.33677757 -0.2162695 -0.7461432
v -0.21809089 0.116297245 -0.57701045
v -0.21814907 -0.2162695 -0.57695234
v -0.33323026 0.116297245 -0.9527545
v -0.33331752 -0.2162695 -0.9527545
v -0.20899022 0.116297245 -1.1178458
v -0.20907748 -0.2162695 -1.1178749
v -0.011450648 0.116297245 -1.1783811
v -0.011508822 -0.2162695 -1.1784102
v 0.18393743 0.116297245 -1.1112456
v 0.18390834 -0.2162695 -1.1112746
v 0.3025658 0.116297245 -0.9420837
v 0.3025658 -0.2162695 -0.9420837
v 0.2990768 0.116297245 -0.7355016
v 0.2990768 -0.2162695 -0.7354725
v 0.42805618 -0.19132257 -0.23400557
v 0.00020873547 -0.19132257 0.00787437
v 0.0018950701 0.091350436 0.00685668
v 0.43073112 0.091350436 -0.23627353
v -0.4230448 -0.19132257 -0.23941362
v -0.41958487 0.091350436 -0.23804712
vt 0.50013244 0.29750365
vt 0.5345714 0.3439561
vt 0.49933156 0.33434525
vt 0.55299217 0.31592447
vt 0.44487005 0.41443568
vt 0.41043118 0.3751914
vt 0.44406918 0.3775941
vt 0.41043118 0.41924113
vt 0.5577976 0.37358958
vt 0.588232 0.35757148
vt 0.252653 0.8132861
vt 0.32793802 0.7628291
vt 0.252653 0.7628291
vt 0.32793802 0.8132861
vt 0.43125468 0.47930896
vt 0.4680963 0.44406918
vt 0.5585985 0.41043118
vt 0.5922365 0.41123208
vt 0.44727278 0.31672537
vt 0.46409178 0.34715974
vt 0.5577976 0.37198776
vt 0.59303737 0.40882936
vt 0.5890329 0.35596967
vt 0.55939937 0.40882936
vt 0.44406918 0.3775941
vt 0.44647187 0.31512356
vt 0.41043118 0.37439048
vt 0.46409178 0.34635884
vt 0.43125468 0.48010987
vt 0.44567096 0.41443568
vt 0.412033 0.42084295
vt 0.4688972 0.44326827
vt 0.74681103 0.7628291
vt 0.663517 0.8132861
vt 0.74681103 0.8132861
vt 0.663517 0.7628291
vt 0.42484745 0.50413704
vt 0.5049379 0.4528791
vt 0.5385759 0.44086555
vt 0.56740844 0.47690624
vt 0.5345714 0.3431552
vt 0.5537931 0.31432265
vt 0.56820935 0.47530442
vt 0.5393768 0.44006464
vt 0.60985637 0.8132861
vt 0.60985637 0.7628291
vt 0.252653 0.7628291
vt 0.252653 0.8132861
vt 0.74681103 0.8132861
vt 0.74681103 0.7628291
vt 0.5553949 0.7628291
vt 0.49933156 0.8132861
vt 0.5553949 0.8132861
vt 0.49933156 0.7628291
vt 0.37358958 0.7628291
vt 0.37358958 0.8132861
vt 0.44246736 0.8132861
vt 0.44246736 0.7628291
vt 0.5778202 0.50013244
vt 0.5033361 0.45368
vt 0.42404655 0.5049379
vt 0.57621837 0.5009334
vt 0.50013244 0.29590183
vt 0.49933156 0.33354434
vt 0.5033361 0.545784
vt 0.50173426 0.54658496
vt 0.9174037 0.76603276
vt 0.9678607 0.76603276
vt 0.9678607 0.7347975
vt 0.9174037 0.7347975
vt 0.9678607 0.48411438
vt 0.9174037 0.48411438
vt 0.9174037 0.5153496
vt 0.9678607 0.5153496
vt 0.9174037 0.79726803
vt 0.9678607 0.79726803
vt 0.9174037 0.54658496
vt 0.9678607 0.54658496
vt 0.9174037 0.5778202
vt 0.9678607 0.5778202
vt 0.9174037 0.6090555
vt 0.9678607 0.6090555
vt 0.9174037 0.64029074
vt 0.9678607 0.64029074
vt 0.9174037 0.6723269
vt 0.9678607 0.6723269
vt 0.9174037 0.7035622
vt 0.9678607 0.7035622
vt 0.91339916 0.17656708
vt 0.91259825 0.26546746
vt 0.96465707 0.26546746
vt 0.96465707 0.17576617
vt 0.91339916 0.35436785
vt 0.96465707 0.35356694
vn 0.0039215684 -0.9921493 -0.124997616
vn -0.074509144 -0.9921493 -0.100439765
vn 0.011764646 -0.9921493 -0.12450454
vn -0.074509144 -0.9921493 -0.100439765
vn 0.11372465 -0.9921493 0.052023727
vn 0.12933922 -0.99160045 -0
vn 0.12933922 -0.99160045 -0
vn 0.12933922 -0.99160045 -0
vn -0.12156761 -0.9921493 -0.029344646
vn -0.12156761 -0.9921493 -0.029344646
vn 0.9921493 -0.019607723 0.123512425
vn 0.9843062 -0.0039215684 0.17642535
vn 0.9921493 -0.0274508 0.122009166
vn 0.9843062 0.003921509 0.17642535
vn 0.074303865 -0.99723566 -0
vn 0.05098003 -0.9921493 0.1141965
vn -0.13703476 -0.99056625 -0
vn -0.12156761 -0.9921493 0.029344646
vn 0.08235234 -0.9921493 -0.09411613
vn 0.09019542 -0.9921493 -0.086628996
vn -0.12156761 0.99214923 -0.029346678
vn -0.13703476 0.9905662 -0
vn -0.12156761 0.99214923 -0.029346678
vn -0.12156761 0.99214923 0.029346678
vn 0.12933922 0.9916004 -0
vn 0.05882311 0.99214923 -0.11036182
vn 0.12933922 0.9916004 -0
vn 0.08235234 0.99214923 -0.09411676
vn 0.121567726 0.99214923 0.029345663
vn 0.11372465 0.99214923 0.05202487
vn 0.12933922 0.9916004 -0
vn 0.04309721 0.9990709 -0
vn -0.9843061 0.003921509 0.17642602
vn -0.9764631 0.003921509 0.21564901
vn -0.9843061 0.003921509 0.17642602
vn -0.9764631 0.003921509 0.21564901
vn 0.0039215684 0.99999225 -0.00034526698
vn -0.003921509 0.99999225 -0.00034526698
vn -0.074509144 -0.9921493 0.100439765
vn -0.08207506 -0.9966261 -0
vn -0.074509144 0.99214923 -0.10044035
vn -0.05882299 0.99214923 -0.11036182
vn -0.08207507 0.9966261 -0
vn -0.05882299 0.99214923 0.11036182
vn -0.93724763 -0.011764646 -0.3484659
vn -0.93724763 -0.019607723 -0.34811267
vn 0.9529339 -0.019607723 -0.3025434
vn 0.960777 -0.011764646 -0.2770725
vn -0.9450908 0.003921509 -0.3267844
vn -0.93724763 0.011764526 -0.34846592
vn -0.5843092 -0.019607723 -0.8112942
vn -0.019607663 -0.019607723 -0.9996155
vn -0.5843092 -0.019607723 -0.8112942
vn -0.019607663 -0.019607723 -0.9996155
vn 0.93724775 -0.0039215684 -0.34864205
vn 0.93724775 -0.0039215684 -0.34864205
vn 0.63136774 -0.019607723 -0.77523565
vn 0.6392108 -0.011764646 -0.7689416
vn -0.011763804 0.99993086 -0
vn -0.003921509 -0.9999924 -0
vn 0.011763922 -0.99993086 -0
vn -0.011763803 -0.99993086 -0
vn -0.003921509 0.99999225 -0.00034526698
vn -0.003921509 0.9764631 -0.21564901
vn -0.003921509 0.99999225 -0.00034526698
vn -0.003921509 -0.9999924 -0
vn 0.019607723 -0.0039215684 -0.9998001
vn 0.019607723 -0.0039215684 -0.9998001
vn -0.5764661 -0.0039215684 -0.8171117
vn -0.5764661 -0.0039215684 -0.8171117
vn 0.59999543 -0.0039215684 -0.7999938
vn 0.59999543 -0.0039215684 -0.7999938
vn 0.9529339 -0.0039215684 -0.30315277
vn 0.9529339 -0.0039215684 -0.30315277
vn 0.59999543 -0.0039215684 -0.7999938
vn 0.59999543 -0.0039215684 -0.7999938
vn 0.94509083 -0.0039215684 0.32678422
vn 0.94509083 -0.0039215684 0.32678422
vn 0.5764662 -0.0039215684 0.81711155
vn 0.5764662 -0.0039215684 0.81711155
vn -0.019607663 -0.0039215684 0.9998001
vn -0.019607663 -0.0039215684 0.9998001
vn -0.5999954 0.003921509 0.7999939
vn -0.5999954 0.003921509 0.7999939
vn -0.9529338 0.003921509 0.30315316
vn -0.9529338 0.003921509 0.30315316
vn -0.9450908 -0.0039215684 -0.3267844
vn -0.9450908 -0.0039215684 -0.3267844
vn 0.49019235 0.003921509 0.87160546
vn -0.003921509 0.003921509 0.9999846
vn -0.003921509 0.003921509 0.9999846
vn 0.49019235 0.003921509 0.87160546
vn -0.50587845 0.003921509 0.86259586
vn -0.50587845 0.003921509 0.86259586
g HoverShassis_CustomizePart_3_CorpsePart_0
f 3/3/3 2/2/2 1/1/1
f 4/4/4 1/1/1 2/2/2
f 7/7/7 6/6/6 5/5/5
f 8/8/8 5/5/5 6/6/6
f 2/2/2 9/9/9 4/4/4
f 10/10/10 4/4/4 9/9/9
f 13/13/13 12/12/12 11/11/11
f 14/14/14 11/11/11 12/12/12
f 16/16/16 5/5/5 15/15/15
f 8/8/8 15/15/15 5/5/5
f 9/9/9 17/17/17 10/10/10
f 18/18/18 10/10/10 17/17/17
f 20/20/20 3/3/3 19/19/19
f 1/1/1 19/19/19 3/3/3
f 23/23/23 22/22/22 21/21/21
f 24/24/24 21/21/21 22/22/22
f 27/27/27 26/26/26 25/25/25
f 28/28/28 25/25/25 26/26/26
f 7/7/7 20/20/20 6/6/6
f 19/19/19 6/6/6 20/20/20
f 31/31/31 30/30/30 29/29/29
f 32/32/32 29/29/29 30/30/30
f 35/35/35 34/34/34 33/33/33
f 36/36/36 33/33/33 34/34/34
f 29/29/29 32/32/32 37/37/37
f 38/38/38 37/37/37 32/32/32
f 40/40/40 18/18/18 39/39/39
f 17/17/17 39/39/39 18/18/18
f 21/21/21 41/41/41 23/23/23
f 42/42/42 23/23/23 41/41/41
f 31/31/31 27/27/27 30/30/30
f 25/25/25 30/30/30 27/27/27
f 44/44/44 24/24/24 43/43/43
f 22/22/22 43/43/43 24/24/24
f 34/34/34 45/45/45 36/36/36
f 46/46/46 36/36/36 45/45/45
f 48/48/48 47/47/47 11/11/11
f 13/13/13 11/11/11 47/47/47
f 50/50/50 49/49/49 33/33/33
f 35/35/35 33/33/33 49/49/49
f 53/53/53 52/52/52 51/51/51
f 54/54/54 51/51/51 52/52/52
f 56/56/56 14/14/14 55/55/55
f 12/12/12 55/55/55 14/14/14
f 52/52/52 57/57/57 54/54/54
f 58/58/58 54/54/54 57/57/57
f 45/45/45 53/53/53 46/46/46
f 51/51/51 46/46/46 53/53/53
f 57/57/57 56/56/56 58/58/58
f 55/55/55 58/58/58 56/56/56
f 44/44/44 43/43/43 38/38/38
f 59/59/59 38/38/38 43/43/43
f 38/38/38 59/59/59 37/37/37
f 16/16/16 15/15/15 60/60/60
f 61/61/61 60/60/60 15/15/15
f 39/39/39 60/60/60 40/40/40
f 62/62/62 40/40/40 60/60/60
f 62/62/62 60/60/60 61/61/61
f 63/63/63 42/42/42 26/26/26
f 41/41/41 64/64/64 42/42/42
f 42/42/42 64/64/64 26/26/26
f 26/26/26 64/64/64 28/28/28
f 37/37/37 59/59/59 65/65/65
f 62/62/62 61/61/61 66/66/66
f 69/69/69 68/68/68 67/67/67
f 70/70/70 69/69/69 67/67/67
f 73/73/73 72/72/72 71/71/71
f 74/74/74 73/73/73 71/71/71
f 68/68/68 76/76/76 75/75/75
f 67/67/67 68/68/68 75/75/75
f 77/77/77 73/73/73 74/74/74
f 78/78/78 77/77/77 74/74/74
f 79/79/79 77/77/77 78/78/78
f 80/80/80 79/79/79 78/78/78
f 81/81/81 79/79/79 80/80/80
f 82/82/82 81/81/81 80/80/80
f 83/83/83 81/81/81 82/82/82
f 84/84/84 83/83/83 82/82/82
f 84/84/84 86/86/86 85/85/85
f 83/83/83 84/84/84 85/85/85
f 87/87/87 85/85/85 86/86/86
f 88/88/88 87/87/87 86/86/86
f 70/70/70 87/87/87 88/88/88
f 69/69/69 70/70/70 88/88/88
f 91/91/91 90/90/90 89/89/89
f 92/92/92 91/91/91 89/89/89
f 94/94/94 93/93/93 90/90/90
f 91/91/91 94/94/94 90/90/90
