g HoverShassis_CustomizePart_1_CorpsePart
v -1.1927073 -0.19132183 0.7215347
v -0.87225044 -0.21536124 0.75319815
v -1.0239964 -0.21536124 0.611915
v -0.9509853 -0.19132183 0.920398
v -0.7949809 -0.21536124 0.11977106
v -1.0822862 -0.19132183 0.069379866
v -0.97623813 -0.21536124 0.22043896
v -0.8689536 -0.19132183 -0.053266928
v -0.66642725 -0.21536124 0.77829075
v -0.65237 -0.19132183 0.96536314
v -0.85991025 0.09135875 -0.05438876
v -0.5278686 -0.19132183 -0.1492643
v -0.5278686 0.09135875 -0.1492643
v -0.8689536 -0.19132183 -0.053266928
v -0.5278686 -0.19132183 -0.1492643
v -0.5891806 -0.21536124 0.1448636
v -0.4851701 -0.21536124 0.6776457
v -0.38381538 -0.19132183 0.8314979
v -1.2563545 -0.19132183 0.41268554
v -1.0637187 -0.21536124 0.40842715
v -0.66642725 0.11537528 0.77829075
v -0.38990536 0.09135875 0.8306279
v -0.6527134 0.09135875 0.9701023
v -0.4851701 0.11537528 0.6776457
v -0.97623813 0.11537528 0.22043896
v -1.2610021 0.09135875 0.41323504
v -1.0872086 0.09135875 0.073958814
v -1.0637187 0.11537528 0.40842715
v -0.5278686 0.09135875 -0.1492643
v -0.7949809 0.11537528 0.11977106
v -0.85991025 0.09135875 -0.05438876
v -0.5891806 0.11537528 0.1448636
v -0.13369101 -0.19132183 0.5472605
v -0.38990536 0.09135875 0.8306279
v -0.13369101 0.09135875 0.5472605
v -0.38381538 -0.19132183 0.8314979
v -0.39768955 -0.21536124 0.4896575
v -0.13369101 -0.19132183 0.5472605
v -0.87225044 0.11537528 0.75319815
v -0.95325184 0.09135875 0.9248624
v -0.42303398 -0.19132183 -0.23940066
v -0.43741181 -0.21536124 0.28614667
v -0.13369101 0.09135875 0.5472605
v -0.39768955 0.11537528 0.4896575
v -0.0054350346 0.09135875 0.4947401
v -0.004221618 -0.19132183 0.4980369
v -0.9509853 -0.19132183 0.920398
v -1.1968054 0.09135875 0.72444236
v -0.95325184 0.09135875 0.9248624
v -1.1927073 -0.19132183 0.7215347
v -1.0822862 -0.19132183 0.069379866
v -1.0872086 0.09135875 0.073958814
v -1.2610021 0.09135875 0.41323504
v -1.2563545 -0.19132183 0.41268554
v -0.65237 -0.19132183 0.96536314
v -0.6527134 0.09135875 0.9701023
v -0.41959974 0.09135875 -0.23804986
v -0.42303398 -0.19132183 -0.23940066
v -0.43741181 0.11537528 0.28614667
v -0.0054350346 0.09135875 0.4947401
v -0.41959974 0.09135875 -0.23804986
v -0.004221618 -0.19132183 0.4980369
v 0.00021995604 -0.19132183 0.007884756
v 0.0018912703 0.09135875 0.0068545043
v -1.1968054 0.09135875 0.72444236
v -1.0239964 0.11537528 0.611915
v 0.0018912703 0.09135875 0.0068545043
v -0.41959974 0.09135875 -0.23804986
v -0.42303398 -0.19132183 -0.23940066
v 0.00021995604 -0.19132183 0.007884756
v -0.0054350346 0.09135875 0.4947401
v -0.004221618 -0.19132183 0.4980369
v -0.97623813 0.11537528 0.22043896
v -0.97623813 -0.21536124 0.22043896
v -1.0637187 -0.21536124 0.40842715
v -1.0637187 0.11537528 0.40842715
v -0.7949809 0.11537528 0.11977106
v -0.7949809 -0.21536124 0.11977106
v -0.5891806 0.11537528 0.1448636
v -0.5891806 -0.21536124 0.1448636
v -0.43741181 0.11537528 0.28614667
v -0.43741181 -0.21536124 0.28614667
v -0.39768955 0.11537528 0.4896575
v -0.39768955 -0.21536124 0.4896575
v -0.39768955 -0.21536124 0.4896575
v -0.39768955 0.11537528 0.4896575
v -0.4851701 0.11537528 0.6776457
v -0.4851701 -0.21536124 0.6776457
v -0.66642725 0.11537528 0.77829075
v -0.66642725 -0.21536124 0.77829075
v -0.87225044 0.11537528 0.75319815
v -0.87225044 -0.21536124 0.75319815
v -1.0239964 0.11537528 0.611915
v -1.0239964 -0.21536124 0.611915
vt 0.7136726 0.67509496
vt 0.6558061 0.68004084
vt 0.6835029 0.654817
vt 0.67014915 0.7102105
vt 0.64294696 0.56678087
vt 0.6943838 0.5578783
vt 0.67509496 0.5845859
vt 0.6563007 0.5351274
vt 0.61920685 0.6844921
vt 0.61623937 0.71812385
vt 0.069722876 0.7443369
vt 0.0093835015 0.69191086
vt 0.007899746 0.7428531
vt 0.07269039 0.6938892
vt 0.5949722 0.5178169
vt 0.6058531 0.57073754
vt 0.58656424 0.6661924
vt 0.5682646 0.6938892
vt 0.72554266 0.61970145
vt 0.6904271 0.61871225
vt 0.6177231 0.686965
vt 0.56777 0.69537294
vt 0.6147556 0.721586
vt 0.5855751 0.66817075
vt 0.67509496 0.588048
vt 0.7260372 0.6236581
vt 0.69586754 0.561835
vt 0.6904271 0.6221744
vt 0.59645593 0.51979524
vt 0.64294696 0.56925374
vt 0.6553116 0.53809494
vt 0.6063476 0.5732105
vt 0.47478804 0.6973513
vt 0.4065353 0.7482936
vt 0.47478804 0.747799
vt 0.4065353 0.6978459
vt 0.57123214 0.6325607
vt 0.523752 0.64245236
vt 0.654817 0.6830083
vt 0.66866535 0.7141672
vt 0.57617795 0.5014956
vt 0.5786509 0.5959614
vt 0.5227628 0.6439361
vt 0.57073754 0.6340444
vt 0.50001186 0.747799
vt 0.49951726 0.69685674
vt 0.29871574 0.6983405
vt 0.24183849 0.7487881
vt 0.29871574 0.7492827
vt 0.24233305 0.6983405
vt 0.11670846 0.69537294
vt 0.11670846 0.74582064
vt 0.1849612 0.747799
vt 0.18595037 0.6973513
vt 0.35262552 0.6983405
vt 0.35312012 0.7492827
vt -0.01732409 0.74186397
vt -0.015840335 0.69141626
vt 0.5786509 0.5979397
vt 0.50001186 0.6335498
vt 0.57716715 0.50347394
vt 0.50050646 0.6335498
vt 0.50001186 0.5455137
vt 0.50050646 0.5460083
vt 0.71317804 0.67905164
vt 0.6825138 0.65827906
vt 0.96442723 0.26508397
vt 0.96442723 0.17605866
vt 0.9129904 0.17556408
vt 0.9129904 0.26508397
vt 0.96393263 0.3541093
vt 0.9124958 0.35460386
vt 0.9179362 0.6711383
vt 0.9683839 0.6711383
vt 0.9683839 0.6394848
vt 0.9179362 0.6394848
vt 0.9179362 0.70229715
vt 0.9683839 0.70229715
vt 0.9179362 0.7339506
vt 0.9683839 0.7339506
vt 0.9179362 0.7651094
vt 0.9683839 0.7651094
vt 0.9179362 0.7967629
vt 0.9683839 0.7967629
vt 0.9683839 0.4822068
vt 0.9179362 0.4822068
vt 0.9179362 0.5138602
vt 0.9683839 0.5138602
vt 0.9179362 0.5450191
vt 0.9683839 0.5450191
vt 0.9179362 0.57667255
vt 0.9683839 0.57667255
vt 0.9179362 0.6078314
vt 0.9683839 0.6078314
vn -0.10588145 -0.9921493 0.06655016
vn -0.05882299 -0.9921493 0.110361286
vn -0.10588145 -0.9921493 0.06655016
vn -0.05882299 -0.9921493 0.110361286
vn -0.035293818 -0.9921493 -0.11997543
vn -0.0901953 -0.9921493 -0.086628996
vn -0.098038435 -0.9921493 -0.07764171
vn -0.043136835 -0.9921493 -0.11738392
vn 0.019607723 -0.9921493 0.12351248
vn 0.011764646 -0.9921493 0.12450454
vn -0.36470306 0.003921509 -0.9311156
vn -0.38823223 0.003921509 -0.9215532
vn -0.38823223 0.003921509 -0.9215532
vn -0.37254608 0.011764526 -0.9279391
vn -0.043136835 -0.9921493 -0.11738392
vn 0.027440673 -0.9996234 -0
vn 0.098038495 -0.9921493 0.07764171
vn 0.07450926 -0.9921493 0.100439765
vn -0.12156761 -0.9921493 -0.029344646
vn -0.12156761 -0.9921493 -0.029344646
vn 0.0274508 0.99214923 0.122009754
vn 0.08235234 0.99214923 0.09411676
vn 0.019607723 0.99214923 0.12351296
vn 0.08235234 0.99214923 0.09411676
vn -0.10588145 0.99214923 -0.06655105
vn -0.11372459 0.99214923 -0.052025445
vn -0.098038435 0.99214923 -0.07764248
vn -0.12156761 0.99214923 -0.029346678
vn -0.019604048 0.9998079 -0
vn -0.035293818 0.99214923 -0.11997593
vn -0.050979972 0.99214923 -0.11419702
vn 0.03527219 0.9993777 -0
vn 0.654897 0.011764526 0.7556266
vn 0.63136774 0.011764526 0.7753943
vn 0.654897 0.003921509 0.755708
vn 0.63136774 0.011764526 0.7753943
vn 0.09019542 -0.9921493 0.086628996
vn 0.0509143 -0.998703 -0
vn -0.050979972 0.99214923 0.11419702
vn -0.05882299 0.99214923 0.11036182
vn 0.035272185 -0.9993777 -0
vn 0.074303865 -0.99723566 -0
vn 0.058722056 0.9982743 -0
vn 0.09019542 0.99214923 0.08662968
vn 0.3725462 0.003921509 0.92800534
vn 0.35686004 0.011764526 0.93408376
vn -0.41176152 -0.019607723 0.91108066
vn -0.85881686 -0.019607723 0.51190734
vn -0.41176152 -0.019607723 0.91108066
vn -0.85881686 -0.019607723 0.51190734
vn -0.76469994 -0.0039215684 -0.6443746
vn -0.76469994 -0.0039215684 -0.6443746
vn -0.9843061 -0.019607723 -0.17537689
vn -0.9843061 -0.011764646 -0.17607701
vn 0.15294003 -0.019607723 0.9880409
vn 0.16078311 -0.011764646 0.98691964
vn -0.6392107 0.003921509 -0.76902163
vn -0.65489686 0.011764526 -0.75562674
vn 0.07430387 0.99723566 -0
vn 0.04309721 0.9990709 -0
vn 0.027440675 0.9996234 -0
vn 0.043097205 -0.9990709 -0
vn -0.003921509 -0.9999924 -0
vn -0.003921509 0.99999225 -0.00034526698
vn -0.003921509 0.99999225 -0.00034526698
vn -0.1764692 0.9764631 0.12400998
vn 0.86666006 -0.0039215684 -0.49888372
vn 0.5058785 -0.0039215684 -0.8625958
vn 0.5058785 -0.0039215684 -0.8625958
vn 0.86666006 -0.0039215684 -0.49888372
vn 0.9999924 -0.0039215684 -0
vn 0.9999924 -0.0039215684 -0
vn 0.73332775 0.003921509 0.679864
vn 0.73332775 0.003921509 0.679864
vn 0.9921493 0.003921509 0.124997616
vn 0.9921493 0.003921509 0.124997616
vn 0.19215542 0.003921509 0.9813567
vn 0.19215542 0.003921509 0.9813567
vn -0.41960454 0.003921509 0.9076986
vn -0.41960454 0.003921509 0.9076986
vn -0.874503 0.003921509 0.4850042
vn -0.874503 0.003921509 0.4850042
vn -0.99214923 0.003921509 -0.12499809
vn -0.99214923 0.003921509 -0.12499809
vn -0.99214923 0.003921509 -0.12499809
vn -0.99214923 0.003921509 -0.12499809
vn -0.7333276 0.003921509 -0.6798641
vn -0.7333276 0.003921509 -0.6798641
vn -0.19215536 0.003921509 -0.9813567
vn -0.19215536 0.003921509 -0.9813567
vn 0.41960466 0.003921509 -0.9076985
vn 0.41960466 0.003921509 -0.9076985
vn 0.87450314 0.003921509 -0.485004
vn 0.87450314 0.003921509 -0.485004
g HoverShassis_CustomizePart_1_CorpsePart_0
f 3/3/3 2/2/2 1/1/1
f 4/4/4 1/1/1 2/2/2
f 7/7/7 6/6/6 5/5/5
f 8/8/8 5/5/5 6/6/6
f 2/2/2 9/9/9 4/4/4
f 10/10/10 4/4/4 9/9/9
f 13/13/13 12/12/12 11/11/11
f 14/14/14 11/11/11 12/12/12
f 16/16/16 5/5/5 15/15/15
f 8/8/8 15/15/15 5/5/5
f 9/9/9 17/17/17 10/10/10
f 18/18/18 10/10/10 17/17/17
f 20/20/20 3/3/3 19/19/19
f 1/1/1 19/19/19 3/3/3
f 23/23/23 22/22/22 21/21/21
f 24/24/24 21/21/21 22/22/22
f 27/27/27 26/26/26 25/25/25
f 28/28/28 25/25/25 26/26/26
f 7/7/7 20/20/20 6/6/6
f 19/19/19 6/6/6 20/20/20
f 31/31/31 30/30/30 29/29/29
f 32/32/32 29/29/29 30/30/30
f 35/35/35 34/34/34 33/33/33
f 36/36/36 33/33/33 34/34/34
f 38/38/38 18/18/18 37/37/37
f 17/17/17 37/37/37 18/18/18
f 21/21/21 39/39/39 23/23/23
f 40/40/40 23/23/23 39/39/39
f 31/31/31 27/27/27 30/30/30
f 25/25/25 30/30/30 27/27/27
f 15/15/15 41/41/41 16/16/16
f 42/42/42 16/16/16 41/41/41
f 44/44/44 24/24/24 43/43/43
f 22/22/22 43/43/43 24/24/24
f 46/46/46 45/45/45 33/33/33
f 35/35/35 33/33/33 45/45/45
f 49/49/49 48/48/48 47/47/47
f 50/50/50 47/47/47 48/48/48
f 52/52/52 11/11/11 51/51/51
f 14/14/14 51/51/51 11/11/11
f 48/48/48 53/53/53 50/50/50
f 54/54/54 50/50/50 53/53/53
f 56/56/56 49/49/49 55/55/55
f 47/47/47 55/55/55 49/49/49
f 53/53/53 52/52/52 54/54/54
f 51/51/51 54/54/54 52/52/52
f 34/34/34 56/56/56 36/36/36
f 55/55/55 36/36/36 56/56/56
f 13/13/13 57/57/57 12/12/12
f 58/58/58 12/12/12 57/57/57
f 44/44/44 43/43/43 59/59/59
f 60/60/60 59/59/59 43/43/43
f 32/32/32 59/59/59 29/29/29
f 61/61/61 29/29/29 59/59/59
f 37/37/37 42/42/42 38/38/38
f 62/62/62 38/38/38 42/42/42
f 41/41/41 63/63/63 62/62/62
f 62/62/62 42/42/42 41/41/41
f 59/59/59 60/60/60 61/61/61
f 64/64/64 61/61/61 60/60/60
f 65/65/65 40/40/40 26/26/26
f 39/39/39 66/66/66 40/40/40
f 40/40/40 66/66/66 26/26/26
f 26/26/26 66/66/66 28/28/28
f 69/69/69 68/68/68 67/67/67
f 70/70/70 69/69/69 67/67/67
f 70/70/70 67/67/67 71/71/71
f 72/72/72 70/70/70 71/71/71
f 75/75/75 74/74/74 73/73/73
f 76/76/76 75/75/75 73/73/73
f 77/77/77 73/73/73 74/74/74
f 78/78/78 77/77/77 74/74/74
f 79/79/79 77/77/77 78/78/78
f 80/80/80 79/79/79 78/78/78
f 81/81/81 79/79/79 80/80/80
f 82/82/82 81/81/81 80/80/80
f 82/82/82 84/84/84 83/83/83
f 81/81/81 82/82/82 83/83/83
f 87/87/87 86/86/86 85/85/85
f 88/88/88 87/87/87 85/85/85
f 89/89/89 87/87/87 88/88/88
f 90/90/90 89/89/89 88/88/88
f 91/91/91 89/89/89 90/90/90
f 92/92/92 91/91/91 90/90/90
f 93/93/93 91/91/91 92/92/92
f 94/94/94 93/93/93 92/92/92
f 76/76/76 93/93/93 94/94/94
f 75/75/75 76/76/76 94/94/94
