g HoverShassis_DefaultPart_2_CorpsePart
v 0.42804772 -0.19133723 -0.23402715
v 0.5278573 0.09136224 -0.1367836
v 0.43074703 0.09136224 -0.23625994
v 0.52999014 -0.19133723 -0.12815225
v 1.209962 -0.19133723 0.68305504
v 1.0821923 -0.21629798 0.39069116
v 1.0354035 -0.21629798 0.59420955
v 1.2610165 -0.19133723 0.375728
v 0.4907995 -0.21629798 0.6422981
v 0.59974027 -0.19133723 0.91390026
v 0.6698903 -0.21629798 0.7497059
v 0.37436044 -0.19133723 0.78393114
v 1.0004451 -0.21629798 0.19853687
v 1.0857915 -0.19133723 0.03804159
v 0.1424489 -0.19133723 0.52036035
v 0.4090522 -0.21629798 0.4501437
v 0.82135427 -0.21629798 0.091128945
v 0.8861389 -0.19133723 -0.07079923
v 0.97538435 -0.19133723 0.8915721
v 0.8779075 -0.21629798 0.73131025
v 0.6698903 0.116322994 0.7497059
v 0.97991663 0.09136224 0.8976375
v 0.60147315 0.09136224 0.9148668
v 0.8779075 0.116322994 0.73131025
v 0.1424489 0.09136224 0.52036035
v 0.4907995 0.116322994 0.6422981
v 0.3754269 0.09136224 0.7830981
v 0.4090522 0.116322994 0.4501437
v 0.8861389 -0.19133723 -0.07079923
v 0.86641026 0.09136224 -0.08359623
v 0.5278573 0.09136224 -0.1367836
v 0.82135427 0.116322994 0.091128945
v 0.61333704 0.116322994 0.10949135
v 0.86641026 0.09136224 -0.08359623
v 0.61333704 -0.21629798 0.10949135
v 0.52999014 -0.19133723 -0.12815225
v 1.0964223 0.09136224 0.0403744
v 1.0821923 0.116322994 0.39069116
v 1.0004451 0.116322994 0.19853687
v 1.2691146 0.09136224 0.37532818
v 1.0964223 0.09136224 0.0403744
v 1.0857915 -0.19133723 0.03804159
v 1.2610165 -0.19133723 0.375728
v 1.2173269 0.09136224 0.6864209
v 1.2691146 0.09136224 0.37532818
v 1.209962 -0.19133723 0.68305504
v 0.59974027 -0.19133723 0.91390026
v 0.3754269 0.09136224 0.7830981
v 0.60147315 0.09136224 0.9148668
v 0.37436044 -0.19133723 0.78393114
v 0.97991663 0.09136224 0.8976375
v 0.97538435 -0.19133723 0.8915721
v 0.1424489 -0.19133723 0.52036035
v 0.1424489 0.09136224 0.52036035
v -0.005449295 0.09136224 0.4947331
v -0.0042163134 -0.19133723 0.49803233
v 0.45587444 0.116322994 0.24662542
v 0.43074703 0.09136224 -0.23625994
v -0.005449295 0.09136224 0.4947331
v 0.45587444 -0.21629798 0.24662542
v -0.0042163134 -0.19133723 0.49803233
v 0.42804772 -0.19133723 -0.23402715
v 1.2173269 0.09136224 0.6864209
v 1.0354035 0.116322994 0.59420955
v 0.0018821955 0.09136224 0.0068490505
v 0.00021600723 -0.19133723 0.007882118
v 0.4279477 -0.19133723 -0.23402715
v 0.0018821955 0.09136224 0.0068490505
v -0.005449295 0.09136224 0.4947331
v -0.0042163134 -0.19133723 0.49803233
v 0.00021600723 -0.19133723 0.007882118
v 0.42804772 -0.19133723 -0.23402715
v 0.43074703 0.09136224 -0.23625994
v 0.4279477 -0.19133723 -0.23402715
v 1.0354035 -0.21629798 0.59420955
v 1.0354035 0.116322994 0.59420955
v 0.8779075 0.116322994 0.73131025
v 0.8779075 -0.21629798 0.73131025
v 1.0004451 -0.21629798 0.19853687
v 1.0004451 0.116322994 0.19853687
v 1.0821923 0.116322994 0.39069116
v 1.0821923 -0.21629798 0.39069116
v 0.82135427 0.116322994 0.091128945
v 0.82135427 -0.21629798 0.091128945
v 0.61333704 -0.21629798 0.10949135
v 0.61333704 0.116322994 0.10949135
v 0.45587444 0.116322994 0.24662542
v 0.45587444 -0.21629798 0.24662542
v 0.4090522 -0.21629798 0.4501437
v 0.4090522 0.116322994 0.4501437
v 0.6698903 -0.21629798 0.7497059
v 0.6698903 0.116322994 0.7497059
v 0.4907995 0.116322994 0.6422981
v 0.4907995 -0.21629798 0.6422981
vt 0.8286059 0.75703126
vt 0.82670057 0.7644041
vt 0.8286059 0.7644041
vt 0.82670057 0.75703126
vt 0.8291858 0.7709485
vt 0.8326651 0.77840424
vt 0.8277775 0.7751734
vt 0.8357302 0.77583617
vt 0.81584835 0.7844516
vt 0.81336313 0.777493
vt 0.81742233 0.7789841
vt 0.8114578 0.78395456
vt 0.83465326 0.78370607
vt 0.83846396 0.7851972
vt 0.8117063 0.79298425
vt 0.8178365 0.7898363
vt 0.8330793 0.7892564
vt 0.8364758 0.7911617
vt 0.8209017 0.7711971
vt 0.82197857 0.775422
vt 0.81742233 0.7789841
vt 0.8209017 0.7711971
vt 0.81336313 0.777493
vt 0.82197857 0.775422
vt 0.8117063 0.79298425
vt 0.81584835 0.7844516
vt 0.8114578 0.78395456
vt 0.8178365 0.7898363
vt 0.81849927 0.75703126
vt 0.81849927 0.7644041
vt 0.8308426 0.79836893
vt 0.8330793 0.7892564
vt 0.82852304 0.7927357
vt 0.8364758 0.7911617
vt 0.82852304 0.7927357
vt 0.8308426 0.7982861
vt 0.83846396 0.7851972
vt 0.8326651 0.77840424
vt 0.83465326 0.78370607
vt 0.8357302 0.77583617
vt 0.8094696 0.7644041
vt 0.8094696 0.75703126
vt 0.8005228 0.75703126
vt 0.79199016 0.7644041
vt 0.8005228 0.7644041
vt 0.79199016 0.75703126
vt 0.77442783 0.75703126
vt 0.76572955 0.7644041
vt 0.77442783 0.7644041
vt 0.76572955 0.75703126
vt 0.7829605 0.7644041
vt 0.7829605 0.75703126
vt 0.7593508 0.75703126
vt 0.7593508 0.7644041
vt 0.7537176 0.7644041
vt 0.7537176 0.75703126
vt 0.82272416 0.79298425
vt 0.8308426 0.80201393
vt 0.8093868 0.7959665
vt 0.82272416 0.79298425
vt 0.8093868 0.7959665
vt 0.83075976 0.80201393
vt 0.8291858 0.7709485
vt 0.8277775 0.7751734
vt 0.8182508 0.8049962
vt 0.8182508 0.80507904
vt 0.8308426 0.80201393
vt 0.8182508 0.8049962
vt 0.8093868 0.7959665
vt 0.8093868 0.7959665
vt 0.8182508 0.80507904
vt 0.83075976 0.80201393
vt 0.8308426 0.80201393
vt 0.8308426 0.80201393
vt 0.8277775 0.7751734
vt 0.8277775 0.7751734
vt 0.82197857 0.775422
vt 0.82197857 0.775422
vt 0.83465326 0.78370607
vt 0.83465326 0.78370607
vt 0.8326651 0.77840424
vt 0.8326651 0.77840424
vt 0.8330793 0.7892564
vt 0.8330793 0.7892564
vt 0.82852304 0.7927357
vt 0.82852304 0.7927357
vt 0.82272416 0.79298425
vt 0.82272416 0.79298425
vt 0.8178365 0.7898363
vt 0.8178365 0.7898363
vt 0.81742233 0.7789841
vt 0.81742233 0.7789841
vt 0.81584835 0.7844516
vt 0.81584835 0.7844516
vn 0.7176416 -0.011764646 -0.69631326
vn 0.3333308 -0.0274508 -0.94241023
vn 0.7176416 -0.011764646 -0.69631326
vn 0.3333308 -0.0274508 -0.94241023
vn 0.11372465 -0.9921493 0.052023727
vn 0.13703488 -0.99056625 -0
vn 0.10588157 -0.9921493 0.0665497
vn 0.13703488 -0.99056625 -0
vn -0.08235228 -0.9921493 0.09411645
vn -0.035293818 -0.9921493 0.11997543
vn -0.02745068 -0.9921493 0.12200926
vn -0.0901953 -0.9921493 0.086628996
vn 0.121567726 -0.9921493 -0.029343631
vn 0.10588157 -0.9921493 -0.0665497
vn -0.05091424 -0.998703 -0
vn -0.0901953 -0.9921493 0.086628996
vn 0.0274508 -0.9921493 -0.12200926
vn 0.035293877 -0.9921493 -0.11997543
vn 0.05098003 -0.9921493 0.1141965
vn 0.035293877 -0.9921493 0.11997543
vn -0.019607663 0.99214923 0.12351296
vn 0.05882311 0.99214923 0.11036182
vn -0.02745068 0.99214923 0.122009754
vn 0.05098003 0.99214923 0.11419702
vn -0.066666126 0.99214923 0.10580898
vn -0.08235228 0.99214923 0.09411708
vn -0.0901953 0.99214923 0.08662968
vn -0.06651899 0.9977852 -0
vn 0.3019585 -0.019607723 -0.9531194
vn 0.28627235 -0.019607723 -0.9579477
vn 0.019604107 0.9998079 -0
vn 0.035293877 0.99214923 -0.11997593
vn -0.035293818 0.99214923 -0.11997593
vn 0.043136954 0.99214923 -0.11738443
vn -0.019607663 -0.9921493 -0.12351248
vn 0.027440673 -0.9996234 -0
vn 0.098038495 0.99214923 -0.07764248
vn 0.12933922 0.9916004 -0
vn 0.11372465 0.99214923 -0.05202487
vn 0.121567726 0.99214923 -0.029345663
vn 0.76470006 -0.019607723 -0.64408803
vn 0.76470006 -0.019607723 -0.64408803
vn 0.9843062 -0.0274508 -0.17432079
vn 0.87450314 -0.0274508 0.4842424
vn 0.9843062 -0.0274508 -0.17432079
vn 0.87450314 -0.0274508 0.4842424
vn -0.1764692 -0.0039215684 0.98429835
vn -0.65489686 0.003921509 0.7557081
vn -0.18431222 -0.0039215684 0.9828599
vn -0.65489686 0.003921509 0.7557081
vn 0.34901696 -0.0274508 0.9367143
vn 0.34901696 -0.019607723 0.9369113
vn -0.5999954 0.003921509 0.7999939
vn -0.5999954 0.003921509 0.7999939
vn -0.16078305 0.003921509 0.986982
vn -0.15293992 0.011764526 0.9881655
vn -0.07430375 0.99723566 -0
vn -0.03527213 0.9993777 -0
vn -0.04309709 0.9990709 -0
vn -0.074509144 -0.9921493 -0.100439765
vn -0.035272125 -0.9993777 -0
vn -0.035272125 -0.9993777 -0
vn -0.003921509 0.99999225 -0.00034526698
vn 0.19215542 0.9764631 0.09796004
vn -0.003921509 0.99999225 -0.00034526698
vn -0.003921509 -0.9999924 -0
vn -0.003921509 -0.9999924 -0
vn -0.85881686 -0.0039215684 -0.5122677
vn -0.99999225 0.003921509 -0.00034492963
vn -0.99999225 0.003921509 -0.00034492963
vn -0.85881686 -0.0039215684 -0.5122677
vn -0.4901923 -0.0039215684 -0.8716055
vn -0.4901923 -0.0039215684 -0.8716055
vn -0.4901923 -0.0039215684 -0.8716055
vn -0.85881686 0.003921509 -0.5122677
vn -0.85881686 0.003921509 -0.5122677
vn -0.38823223 0.003921509 -0.9215532
vn -0.38823223 0.003921509 -0.9215532
vn -0.7568569 0.003921509 0.6535688
vn -0.7568569 0.003921509 0.6535688
vn -0.99999225 0.003921509 -0.00034492963
vn -0.99999225 0.003921509 -0.00034492963
vn -0.22352767 0.003921509 0.9746897
vn -0.22352767 0.003921509 0.9746897
vn 0.38823235 0.003921509 0.9215532
vn 0.38823235 0.003921509 0.9215532
vn 0.858817 0.003921509 0.51226753
vn 0.858817 0.003921509 0.51226753
vn 0.9999924 0.003921509 -0
vn 0.9999924 0.003921509 -0
vn 0.22352773 0.003921509 -0.97468966
vn 0.22352773 0.003921509 -0.97468966
vn 0.756857 0.003921509 -0.6535688
vn 0.756857 0.003921509 -0.6535688
g HoverShassis_DefaultPart_2_CorpsePart_0
f 3/3/3 2/2/2 1/1/1
f 4/4/4 1/1/1 2/2/2
f 7/7/7 6/6/6 5/5/5
f 8/8/8 5/5/5 6/6/6
f 11/11/11 10/10/10 9/9/9
f 12/12/12 9/9/9 10/10/10
f 6/6/6 13/13/13 8/8/8
f 14/14/14 8/8/8 13/13/13
f 16/16/16 9/9/9 15/15/15
f 12/12/12 15/15/15 9/9/9
f 18/18/18 14/14/14 17/17/17
f 13/13/13 17/17/17 14/14/14
f 20/20/20 7/7/7 19/19/19
f 5/5/5 19/19/19 7/7/7
f 23/23/23 22/22/22 21/21/21
f 24/24/24 21/21/21 22/22/22
f 11/11/11 20/20/20 10/10/10
f 19/19/19 10/10/10 20/20/20
f 27/27/27 26/26/26 25/25/25
f 28/28/28 25/25/25 26/26/26
f 4/4/4 2/2/2 29/29/29
f 30/30/30 29/29/29 2/2/2
f 33/33/33 32/32/32 31/31/31
f 34/34/34 31/31/31 32/32/32
f 36/36/36 18/18/18 35/35/35
f 17/17/17 35/35/35 18/18/18
f 39/39/39 38/38/38 37/37/37
f 40/40/40 37/37/37 38/38/38
f 30/30/30 41/41/41 29/29/29
f 42/42/42 29/29/29 41/41/41
f 27/27/27 23/23/23 26/26/26
f 21/21/21 26/26/26 23/23/23
f 45/45/45 44/44/44 43/43/43
f 46/46/46 43/43/43 44/44/44
f 49/49/49 48/48/48 47/47/47
f 50/50/50 47/47/47 48/48/48
f 44/44/44 51/51/51 46/46/46
f 52/52/52 46/46/46 51/51/51
f 41/41/41 45/45/45 42/42/42
f 43/43/43 42/42/42 45/45/45
f 54/54/54 53/53/53 48/48/48
f 50/50/50 48/48/48 53/53/53
f 51/51/51 49/49/49 52/52/52
f 47/47/47 52/52/52 49/49/49
f 54/54/54 55/55/55 53/53/53
f 56/56/56 53/53/53 55/55/55
f 33/33/33 31/31/31 57/57/57
f 58/58/58 57/57/57 31/31/31
f 25/25/25 28/28/28 59/59/59
f 57/57/57 59/59/59 28/28/28
f 16/16/16 15/15/15 60/60/60
f 61/61/61 60/60/60 15/15/15
f 35/35/35 60/60/60 36/36/36
f 62/62/62 36/36/36 60/60/60
f 60/60/60 61/61/61 62/62/62
f 57/57/57 58/58/58 59/59/59
f 34/34/34 32/32/32 37/37/37
f 39/39/39 37/37/37 32/32/32
f 63/63/63 40/40/40 22/22/22
f 38/38/38 64/64/64 40/40/40
f 40/40/40 64/64/64 22/22/22
f 22/22/22 64/64/64 24/24/24
f 58/58/58 65/65/65 59/59/59
f 61/61/61 66/66/66 62/62/62
f 67/67/67 62/62/62 66/66/66
f 70/70/70 69/69/69 68/68/68
f 71/71/71 70/70/70 68/68/68
f 68/68/68 73/73/73 72/72/72
f 72/72/72 74/74/74 68/68/68
f 74/74/74 71/71/71 68/68/68
f 77/77/77 76/76/76 75/75/75
f 78/78/78 77/77/77 75/75/75
f 81/81/81 80/80/80 79/79/79
f 82/82/82 81/81/81 79/79/79
f 85/85/85 84/84/84 83/83/83
f 86/86/86 85/85/85 83/83/83
f 89/89/89 88/88/88 87/87/87
f 90/90/90 89/89/89 87/87/87
f 93/93/93 92/92/92 91/91/91
f 94/94/94 93/93/93 91/91/91
f 78/78/78 91/91/91 92/92/92
f 77/77/77 78/78/78 92/92/92
f 76/76/76 81/81/81 82/82/82
f 75/75/75 76/76/76 82/82/82
f 80/80/80 83/83/83 84/84/84
f 79/79/79 80/80/80 84/84/84
f 88/88/88 85/85/85 86/86/86
f 87/87/87 88/88/88 86/86/86
f 90/90/90 93/93/93 94/94/94
f 89/89/89 90/90/90 94/94/94
