g HoverShassis_01_CorpsePart
v -0.60692096 0.52241874 -0.06940466
v 0.37481073 0.52241874 -0.508016
v 0.6069137 0.52241874 -0.06940466
v -0.37481797 0.52241874 -0.508016
v 0.62031466 0.464316 -0.5026177
v 0.30065525 0.1860435 -0.38120344
v 0.55572456 0.2376824 -0.41759458
v 0.37481073 0.52241874 -0.508016
v -0.46566558 0.1860435 -0.06940466
v -0.7557291 0.46007788 -0.28060105
v -0.60692096 0.52241874 -0.06940466
v -0.6380558 0.24480909 -0.25739786
v -0.30068612 0.1860435 -0.38120344
v -0.37481797 0.52241874 -0.508016
v 0.25900787 0.52241874 0.57784593
v 0.46565834 0.1860435 -0.06940466
v 0.18485236 0.1860435 0.45103335
v 0.6069137 0.52241874 -0.06940466
v -0.18485963 0.1860435 0.45103335
v -0.2590152 0.52241874 0.57784593
v 0.7428417 0.464316 -0.27098832
v 0.62031466 0.464316 -0.5026177
v -0.63457537 0.46007788 -0.509555
v -0.7557291 0.46007788 -0.28060105
v 0.25900787 0.52241874 0.57784593
v -0.13056892 0.4253441 0.8088124
v -0.2590152 0.52241874 0.57784593
v 0.13053799 0.4253441 0.8088124
v -0.6380558 0.24480909 -0.25739786
v -0.63457537 0.46007788 -0.509555
v -0.7557291 0.46007788 -0.28060105
v -0.55367196 0.24480909 -0.41683692
v -0.13056892 0.4253441 0.8088124
v -0.101328194 0.22949028 0.7013674
v -0.63457537 0.46007788 -0.509555
v -0.55367196 0.24480909 -0.41683692
v 0.55572456 0.2376824 -0.41759458
v 0.7428417 0.464316 -0.27098832
v 0.62031466 0.464316 -0.5026177
v 0.63823795 0.2376824 -0.26165968
v 0.13053799 0.4253441 0.8088124
v 0.10132092 0.22949028 0.7013674
v 0.10132092 0.22949028 0.7013674
v -0.13056892 0.4253441 0.8088124
v 0.13053799 0.4253441 0.8088124
v -0.101328194 0.22949028 0.7013674
v 0.7428417 0.464316 -0.27098832
v 0.63823795 0.2376824 -0.26165968
v 0.30065525 0.1860435 -0.38120344
v 0.63823795 0.2376824 -0.26165968
v 0.55572456 0.2376824 -0.41759458
v 0.46565834 0.1860435 -0.06940466
v -0.46566558 0.1860435 -0.06940466
v -0.55367196 0.24480909 -0.41683692
v -0.6380558 0.24480909 -0.25739786
v -0.30068612 0.1860435 -0.38120344
v 0.18485236 0.1860435 0.45103335
v -0.101328194 0.22949028 0.7013674
v 0.10132092 0.22949028 0.7013674
v -0.18485963 0.1860435 0.45103335
vt 0.9298757 0.7860831
vt 0.7571492 0.7106797
vt 0.7168172 0.7860831
vt 0.8895436 0.7106797
vt 0.05835252 0.36435008
vt 0.117097035 0.31174305
vt 0.06975071 0.32664838
vt 0.10219171 0.37662506
vt 0.117097035 0.31174305
vt 0.05835252 0.36435008
vt 0.10219171 0.37662506
vt 0.06975071 0.32664838
vt 0.21792717 0.31349662
vt 0.23107892 0.3748715
vt 0.10219171 0.37662506
vt 0.21792717 0.31349662
vt 0.117097035 0.31174305
vt 0.23107892 0.3748715
vt 0.21792717 0.31349662
vt 0.23107892 0.3748715
vt 0.6940208 0.75451887
vt 0.717694 0.7098029
vt 0.93075246 0.70804936
vt 0.9553024 0.7536421
vt 0.77819204 0.89831144
vt 0.8492116 0.93601316
vt 0.86850077 0.89831144
vt 0.7974813 0.93601316
vt 0.82290804 0.62124777
vt 0.7878367 0.6624566
vt 0.82904553 0.6624566
vt 0.7922206 0.62124777
vt 0.2722878 0.3625965
vt 0.2600128 0.32401803
vt 0.2722878 0.3625965
vt 0.2600128 0.32401803
vt 0.82290804 0.62124777
vt 0.7878367 0.6624566
vt 0.82904553 0.6624566
vt 0.7922206 0.62124777
vt 0.05835252 0.36435008
vt 0.06975071 0.32664838
vt 0.82290804 0.62124777
vt 0.7878367 0.6624566
vt 0.82904553 0.6624566
vt 0.7922206 0.62124777
vt 0.2722878 0.3625965
vt 0.2600128 0.32401803
vt 0.8421973 0.82904553
vt 0.8202777 0.85008836
vt 0.835183 0.85008836
vt 0.81238663 0.82904553
vt 0.8483348 0.76153314
vt 0.8781454 0.76767063
vt 0.86937755 0.75539565
vt 0.86499363 0.7852063
vt 0.7860831 0.78871346
vt 0.77819204 0.758026
vt 0.770301 0.77293134
vt 0.80011165 0.76153314
vn -0.019630257 0.9998073 -0
vn 0.019576874 0.9998084 -0
vn 0.019576874 0.9998084 -0
vn -0.035297923 0.99937683 -0
vn -0.05883807 -0.341079 -0.9381915
vn -0.011789024 -0.34892046 -0.9370782
vn -0.06667954 -0.33323747 -0.94048214
vn -0.019630492 -0.34892046 -0.93694675
vn -0.81162304 -0.341079 0.4742712
vn -0.7332079 -0.31755447 0.60130304
vn -0.79594 -0.33323747 0.5054031
vn -0.74104935 -0.341079 0.5783692
vn 0.0117355585 -0.34892046 -0.93707883
vn 0.027418554 -0.34892046 -0.9367512
vn 0.8429356 -0.341079 0.4160825
vn 0.8115696 -0.341079 0.4743627
vn 0.8350941 -0.341079 0.4316051
vn 0.80372804 -0.341079 0.4875309
vn -0.83514756 -0.341079 0.43150166
vn -0.842989 -0.341079 0.41597432
vn 0.23129785 0.9684532 -0.09273424
vn 0.23129785 0.9684532 -0.09273424
vn -0.2313512 0.9684532 -0.09260109
vn -0.2313512 0.9684532 -0.09260109
vn 0.003894031 0.9998192 0.018610818
vn 0.003894031 0.9214042 0.38858613
vn 0.003894031 0.9998192 0.018610818
vn 0.003894031 0.9214042 0.38858613
vn -0.7802569 -0.47438467 -0.4076252
vn -0.7802569 -0.47438467 -0.4076252
vn -0.7802569 -0.47438467 -0.4076252
vn -0.7802569 -0.47438467 -0.4076252
vn -0.874355 -0.32539594 0.36002886
vn -0.8821966 -0.32539594 0.34036252
vn 0.07446766 -0.34892046 -0.934189
vn 0.04310161 -0.3802865 -0.9238638
vn 0.8115696 -0.39596957 -0.4296079
vn 0.8115696 -0.39596957 -0.4296079
vn 0.8115696 -0.39596957 -0.4296079
vn 0.8115696 -0.39596957 -0.4296079
vn 0.8743017 -0.32539594 0.36015838
vn 0.88214314 -0.32539594 0.340501
vn 0.003894031 -0.48222613 0.87603813
vn 0.003894031 -0.48222613 0.87603813
vn 0.003894031 -0.48222613 0.87603813
vn 0.003894031 -0.48222613 0.87603813
vn 0.740996 -0.31755447 0.59167904
vn 0.7488375 -0.31755447 0.581723
vn 0.035246428 -0.9993787 -0
vn 0.18424875 -0.9762413 -0.11404111
vn 0.18424875 -0.9762413 -0.11404111
vn 0.019577086 -0.9997658 -0.009222572
vn -0.043124966 -0.9990697 -0
vn -0.20782667 -0.96839976 -0.13787678
vn -0.20782667 -0.96839976 -0.13787678
vn -0.027468026 -0.9996227 -0
vn 0.003894031 -0.9997658 0.021287886
vn 0.003894031 -0.9840828 0.1776678
vn 0.003894031 -0.9840828 0.1776678
vn 0.003894031 -0.9997658 0.021287886
g HoverShassis_01_CorpsePart_0
f 3/3/3 2/2/2 1/1/1
f 4/4/4 1/1/1 2/2/2
f 7/7/7 6/6/6 5/5/5
f 8/8/8 5/5/5 6/6/6
f 11/11/11 10/10/10 9/9/9
f 12/12/12 9/9/9 10/10/10
f 6/6/6 13/13/13 8/8/8
f 14/14/14 8/8/8 13/13/13
f 17/17/17 16/16/16 15/15/15
f 18/18/18 15/15/15 16/16/16
f 9/9/9 19/19/19 11/11/11
f 20/20/20 11/11/11 19/19/19
f 3/3/3 21/21/21 2/2/2
f 22/22/22 2/2/2 21/21/21
f 4/4/4 23/23/23 1/1/1
f 24/24/24 1/1/1 23/23/23
f 27/27/27 26/26/26 25/25/25
f 28/28/28 25/25/25 26/26/26
f 31/31/31 30/30/30 29/29/29
f 32/32/32 29/29/29 30/30/30
f 20/20/20 19/19/19 33/33/33
f 34/34/34 33/33/33 19/19/19
f 14/14/14 13/13/13 35/35/35
f 36/36/36 35/35/35 13/13/13
f 39/39/39 38/38/38 37/37/37
f 40/40/40 37/37/37 38/38/38
f 42/42/42 17/17/17 41/41/41
f 15/15/15 41/41/41 17/17/17
f 45/45/45 44/44/44 43/43/43
f 46/46/46 43/43/43 44/44/44
f 18/18/18 16/16/16 47/47/47
f 48/48/48 47/47/47 16/16/16
f 25/25/25 3/3/3 27/27/27
f 1/1/1 27/27/27 3/3/3
f 51/51/51 50/50/50 49/49/49
f 52/52/52 49/49/49 50/50/50
f 55/55/55 54/54/54 53/53/53
f 56/56/56 53/53/53 54/54/54
f 59/59/59 58/58/58 57/57/57
f 60/60/60 57/57/57 58/58/58
f 49/49/49 52/52/52 56/56/56
f 57/57/57 60/60/60 52/52/52
f 52/52/52 60/60/60 56/56/56
f 56/56/56 60/60/60 53/53/53
