g IceShieldPieceAdd
v -0.6814573 1.0598817 -1.1775273
v -1.2538984 1.1306067 -0.41057515
v -0.7501333 1.3850327 -0.5484923
v -1.257431 0.24608564 -1.1002315
v -0.53336596 0.43112922 -1.5970724
v -1.5641413 0.77189493 -0.21818352
v -2.0257258 0.7844007 -0.3536278
v -1.9776807 0.41487885 -0.9951687
v -1.584207 1.3740811 -0.7497864
v -1.5361621 0.74977994 -1.5040207
v -0.8478482 0.7299969 -1.7753332
v -1.0699146 1.2534745 -1.3949306
v -1.0674417 1.6086535 -0.8220656
v -2.106978 -0.097718 0.047194004
v 0.504616 1.4489748 0.6429508
v 0.9254328 0.89327884 1.2336206
v 1.1328032 1.2626595 -0.096446276
v 1.6437749 0.48574495 -0.1553719
v 1.1917995 -0.14505625 1.3830543
v 1.7787246 -0.20101452 0.25117278
v 1.2558123 1.1996357 1.387011
v 0.68648005 1.8492312 0.6350374
v 1.559767 1.4484096 0.74935603
v 1.4108984 1.6697693 -0.003959894
v 2.1320667 -0.16434503 0.96937346
v 1.5276899 -0.03504777 1.6689923
v 1.9524634 0.8359077 0.7916074
v 2.0643091 0.6526303 -0.13269186
v 2.2123299 -0.2282871 0.39855766
v -0.87229466 -0.26848936 -1.5281138
v -0.21153569 0.4703424 -1.7152064
v -0.0003502369 -0.15643167 -1.9082339
v -1.2119298 0.5193765 -1.1123134
v -1.2754478 -0.28141916 -1.2908568
v -1.7843001 -0.13622451 -0.47805
v -1.061012 -0.1815846 -1.9824208
v -1.50246 0.6879575 -1.4502528
v -1.6046968 -0.20398211 -1.5964365
v -2.2850976 -0.15155649 -0.66076195
v -0.76172066 0.6520653 -1.7205055
v 1.3827074 -0.215428 -1.02555
v 0.6058636 0.53675747 -1.4600031
v 1.1048241 0.70180583 -1.0586869
v 0.7695695 -0.25760865 -1.5469785
v 0.22433043 -0.12174034 -1.9532406
v 1.5249344 0.62938523 -0.2691959
v 1.8394873 -0.1782639 0.19083405
v 1.7993556 -0.15833926 -1.4365458
v 1.5371575 0.78609633 -1.3446248
v 1.0558606 -0.17197561 -1.9677954
v 2.0669234 -0.1867423 -0.80079865
v 2.010965 0.6012647 -0.2031343
v 0.7616563 0.7043493 -1.8173724
v -0.092978 0.5166209 1.6306269
v -0.68357706 -0.22447181 1.6111264
v 0.007209778 -0.28721273 1.972311
v -0.7581172 1.1679828 0.9106598
v -1.4761767 -0.2282871 0.9965048
v -1.640024 -0.26813614 0.3120768
v -1.4950414 0.7363558 0.51252294
v -0.8414893 -0.13905072 2.0707326
v -0.25625992 0.6234503 1.999937
v -1.8856888 -0.14159441 1.244148
v -1.3055465 0.6895826 1.7440977
v -0.9259918 1.4573827 1.2856221
v -1.8972764 0.79026484 0.8037598
v -2.0903034 -0.1977644 0.3249359
v 1.1693314 0.51393604 -1.2116534
v 0.33292603 1.2984812 -1.1092753
v 0.8229135 1.290144 -0.83273447
v 0.7757871 0.35220838 -1.5360272
v 0.12004471 0.8267932 -1.4777374
v 0.025297403 -0.16907883 -1.7366853
v 1.6973308 0.380682 -0.123012304
v 0.45826674 1.5192051 -1.5026783
v 0.28283226 0.97898245 -1.919256
v 0.79034185 0.7838354 -1.9655344
v 1.2457793 1.4626818 -1.1628312
v 1.5430219 0.82742906 -1.4249586
v 0.052993774 0.23442769 -2.1263437
v 1.7785833 1.1378133 -0.13276243
v 2.028205 0.6084714 -0.15113258
v 1.3364288 1.0005322 -0.057868958
v -0.4065416 0.6393473 1.5466897
v 0.15699697 -0.15247512 1.7543426
v 1.0598173 -0.16985607 1.4180989
v 1.0076745 0.8140049 1.0709038
v -0.7234261 1.069844 1.131737
v 0.54057896 1.3846087 0.5985799
v 1.5594844 -0.16356778 1.9419298
v 0.16314387 -0.17289424 2.4179983
v 0.5886239 0.9222472 1.9853115
v -0.4278791 0.93058443 2.0082035
v 0.3187952 1.5287435 1.6069577
v -0.8459406 1.4979382 1.2469037
v -0.020133257 1.7760334 1.0819964
v 0.6724199 1.8595467 0.7376275
v 1.2882426 1.1041112 1.3987396
v 0.011378527 1.448127 -0.7278129
v -0.23810172 1.597702 -0.15643167
v 0.9106661 1.3694181 0.06351495
v 1.105248 1.0460334 -0.7320521
v 1.268954 0.94513917 -0.17720413
v 0.31392014 1.1549118 -1.2339094
v 0.74696016 1.9810014 -0.635821
v -0.3163867 2.0387259 -0.11085963
v 0.08401108 1.9395275 -0.9315798
v 1.0501376 1.8395514 0.13734889
v 1.4524431 1.4406376 -0.84425104
v 1.4724383 1.5500104 -0.08931017
v 0.50723016 1.5654836 -1.4759004
v 1.723473 1.1672761 -0.14505625
v -0.83753276 1.2717738 -0.54262793
v -0.2934947 1.6550734 -0.16611123
v 0.40965664 1.0771921 -1.2069901
v -0.6852021 0.5421977 -1.4113224
v -0.09347248 0.097358465 -1.6789608
v 0.055254698 1.8810964 -0.92479694
v -0.376796 2.024242 -0.37772095
v -1.0601642 1.6142352 -0.90239954
v -0.21422052 1.3653908 -1.7357668
v 0.2354232 0.94471526 -1.9266746
v -0.89751816 0.8357663 -1.8319273
v -0.0428133 0.23089504 -2.0996363
v 0.49352324 1.4486921 -1.4775254
v -0.43770003 1.613246 -0.2192434
v -0.7437744 1.4748342 0.4389012
v 0.5104803 1.4329362 0.790689
v 0.54693794 1.93119 0.8210702
v -0.66845703 1.9325328 0.6717777
v -0.37312222 2.0809774 -0.106903076
v 1.0847583 1.3028617 -0.009824038
v 1.0652577 1.8168716 0.15310478
v -0.91087174 1.5299447 1.2225277
v -0.91327405 1.0199621 1.0067496
v -0.7986021 1.3204546 -0.73947084
v -0.55208945 1.3888481 0.5743456
v -0.26106453 1.5608206 -0.13043094
v -0.7686448 1.0756376 1.050626
v -1.2262018 0.99438524 -0.59971666
v -1.498574 0.63828754 -0.3932649
v -1.4466431 0.5593667 0.6852021
v -0.76030755 1.8307905 0.7267468
v -0.97622705 1.4945469 1.2338326
v -1.7732072 1.3939352 0.15359926
v -1.1951847 1.8281765 0.02076912
v -1.0386853 1.70439 -0.76179755
v -1.5529778 1.3709018 -0.70654595
v -0.4059763 1.9615011 -0.22341192
v -1.9377613 0.750628 0.7462473
v -2.2088614 -0.07256508 0.09495616
v -1.9277987 0.9539709 -0.4442066
v -1.6617854 0.024584532 0.15063167
vt 0.498569 0.502906
vt 0.49729916 0.5012259
vt 0.4984127 0.50152874
vt 0.4972894 0.50273997
vt 0.49889135 0.50383395
vt 0.49660563 0.5007961
vt 0.49558 0.50109893
vt 0.49568743 0.50250554
vt 0.4965568 0.50196826
vt 0.49666423 0.50362885
vt 0.49819782 0.50422466
vt 0.49769965 0.50338465
vt 0.49770942 0.50212455
vt 0.49540415 0.5002198
vt 0.50120634 0.49891087
vt 0.5021343 0.49761173
vt 0.5025934 0.5005324
vt 0.50373626 0.50065935
vt 0.5027302 0.4972796
vt 0.50402933 0.49977046
vt 0.5028669 0.49726984
vt 0.5016069 0.49892065
vt 0.5035507 0.49867645
vt 0.5032186 0.5003272
vt 0.5048205 0.49818805
vt 0.50347257 0.49665448
vt 0.50442004 0.49857876
vt 0.50466424 0.50061053
vt 0.50499636 0.49944812
vt 0.4981392 0.50367767
vt 0.49961418 0.5040879
vt 0.500083 0.50451773
vt 0.49738708 0.50276923
vt 0.49725032 0.50316
vt 0.49611723 0.5013724
vt 0.49771917 0.5046838
vt 0.49674237 0.5035116
vt 0.49651772 0.50383395
vt 0.49500367 0.50177294
vt 0.49839318 0.5041075
vt 0.5031502 0.5025739
vt 0.50143105 0.50353116
vt 0.5025348 0.50265205
vt 0.50179243 0.50372654
vt 0.5005812 0.5046154
vt 0.50347257 0.5009133
vt 0.50416607 0.49989745
vt 0.50407815 0.50348234
vt 0.50349206 0.5032772
vt 0.50242734 0.5046447
vt 0.504674 0.5020855
vt 0.504547 0.5007668
vt 0.50177294 0.5043126
vt 0.4998779 0.49673262
vt 0.49855924 0.49678144
vt 0.5000928 0.49598047
vt 0.49839318 0.49831504
vt 0.496801 0.49812943
vt 0.49643958 0.4996337
vt 0.49676192 0.49919415
vt 0.49820757 0.49576557
vt 0.49950674 0.49592185
vt 0.49589255 0.49758244
vt 0.49718195 0.49648842
vt 0.498022 0.49749452
vt 0.49586326 0.49854946
vt 0.49543345 0.4996044
vt 0.5026813 0.50298417
vt 0.50081563 0.50275946
vt 0.5019097 0.5021539
vt 0.5018022 0.5036972
vt 0.5003468 0.5035702
vt 0.5001417 0.5041368
vt 0.5038535 0.500591
vt 0.50109893 0.50362885
vt 0.5007082 0.5045373
vt 0.5018413 0.5046447
vt 0.5028474 0.5028767
vt 0.5035116 0.503453
vt 0.5002003 0.50499636
vt 0.50402933 0.50061053
vt 0.5045861 0.5006496
vt 0.50305253 0.5004445
vt 0.49917462 0.4969182
vt 0.5004249 0.4964591
vt 0.5024371 0.49720147
vt 0.50231993 0.49796337
vt 0.49847132 0.4978364
vt 0.5012845 0.49900857
vt 0.50354093 0.49604884
vt 0.5004445 0.49500367
vt 0.50139195 0.49595118
vt 0.49912578 0.49590233
vt 0.50078636 0.4967912
vt 0.49819782 0.49758244
vt 0.5000342 0.49794385
vt 0.50157756 0.49869597
vt 0.50294507 0.49724054
vt 0.5001026 0.50191945
vt 0.49955556 0.5006691
vt 0.502105 0.5001807
vt 0.5025348 0.5019292
vt 0.50289625 0.5007082
vt 0.5007766 0.503033
vt 0.5017436 0.5017143
vt 0.49937975 0.50056165
vt 0.50026864 0.50236875
vt 0.5024176 0.50001466
vt 0.5033065 0.5021734
vt 0.5033553 0.50051284
vt 0.50120634 0.5035702
vt 0.5039121 0.5006398
vt 0.49821734 0.5015092
vt 0.49942857 0.5006887
vt 0.50099146 0.5029744
vt 0.49855924 0.5034237
vt 0.4998779 0.5040098
vt 0.5002003 0.502359
vt 0.499243 0.50114775
vt 0.49772894 0.5023004
vt 0.4996044 0.5041368
vt 0.50060076 0.5045568
vt 0.49809036 0.5043517
vt 0.49998537 0.50493777
vt 0.5011771 0.5035702
vt 0.49910623 0.50080585
vt 0.49843225 0.4993602
vt 0.5012161 0.49857876
vt 0.50129426 0.4985104
vt 0.4985983 0.4988425
vt 0.49925277 0.5005519
vt 0.50249577 0.5003468
vt 0.5024469 0.49998537
vt 0.49806106 0.49763128
vt 0.4980513 0.4981099
vt 0.49830526 0.5019487
vt 0.49885228 0.4990574
vt 0.49949697 0.50061053
vt 0.49837363 0.4980122
vt 0.49735776 0.50163615
vt 0.49675214 0.50118685
vt 0.49686936 0.4988132
vt 0.49839318 0.4987253
vt 0.49791455 0.49761173
vt 0.49613675 0.49998537
vt 0.49742615 0.5002784
vt 0.4977778 0.5019976
vt 0.49663493 0.5018706
vt 0.49917462 0.50081563
vt 0.49577534 0.49867645
vt 0.49516973 0.50011235
vt 0.4957949 0.50129426
vt 0.49639073 0.49998537
vn 0.9313159 -0.06920147 0.3575777
vn 0.538746 -0.11538619 0.8345291
vn 0.80045927 0.038562834 0.59814537
vn 0.46177143 -0.8774338 0.12991194
vn 0.761972 -0.6388128 0.106380895
vn 0.60802305 -0.084596395 0.7893994
vn -0.8698874 0.43113273 0.2396257
vn -0.78521556 -0.3309148 -0.52338505
vn -0.638964 0.74672824 -0.18472122
vn -0.6235691 0.038562834 -0.78081656
vn 0.04610914 -0.06920147 -0.99653655
vn -0.09244496 0.76982063 -0.63153
vn -0.023167908 0.9776518 -0.20895043
vn 0.107688725 -0.8389465 0.5334528
vn -0.9083747 -0.3617046 -0.20982169
vn -0.9545594 -0.28473008 0.08800673
vn -0.7159385 -0.28473008 -0.6374644
vn -0.63126653 -0.39249438 -0.66891754
vn -0.8160053 -0.5772332 -0.030613618
vn -0.5004098 -0.7388797 -0.45127246
vn 0.24624282 0.49271244 0.834625
vn -0.27718383 0.9545594 0.109478496
vn 0.60802305 0.7390308 0.29007152
vn 0.43098164 0.8160053 -0.38521445
vn 0.83124906 -0.38479698 0.40119356
vn 0.43098164 -0.06920147 0.89970326
vn 0.8697363 0.36955315 0.32709208
vn 0.8543414 0.26948637 -0.44438484
vn 0.9236185 -0.33861226 -0.17964016
vn 0.4078893 -0.64651024 0.6447099
vn 0.9313159 0.33876342 0.13375358
vn 0.8928287 -0.12308365 -0.43325204
vn 0.43098164 0.35415822 0.8299559
vn 0.4386791 -0.78506434 0.43730384
vn 0.15387344 -0.038411677 0.98734367
vn -0.23869652 -0.16926837 -0.95622814
vn -0.6004767 0.66975373 -0.43687263
vn -0.70824105 -0.25394028 -0.65871763
vn -0.9776518 0.15402454 0.14308551
vn 0.02301681 0.76212317 -0.64702284
vn -0.5773843 -0.7157873 0.39277977
vn -0.7544257 0.29257864 0.58757097
vn -0.6928461 0.45422512 0.56003904
vn -0.4619226 -0.7388797 0.4905959
vn -0.76982063 -0.1923607 -0.6085832
vn -0.8083078 0.23869652 0.53820294
vn -0.17711693 -0.58493066 0.7915085
vn 0.80045927 -0.12308365 -0.5866135
vn 0.6311154 0.6235691 -0.46136212
vn 0.33861226 -0.21545303 -0.91592675
vn 0.83124906 -0.538746 -0.13703185
vn 0.8543414 0.4773175 0.20559369
vn 0.030714214 0.63126653 -0.7749576
vn 0.7927618 -0.030714214 -0.60875726
vn 0.39249438 -0.69269496 -0.60508007
vn 0.7388797 -0.58493066 0.3345339
vn 0.6388128 0.12323481 -0.7594283
vn 0.56183827 -0.66190517 -0.49620488
vn 0.58493066 -0.47716635 -0.6558722
vn 0.30782247 0.19251186 -0.9317642
vn -0.30797356 -0.30782247 0.9002209
vn 0.23854542 0.4773175 0.84573287
vn -0.82370275 -0.22315049 0.52126545
vn -0.5388971 0.35415822 0.7643048
vn -0.08474749 0.9314671 0.35381764
vn -0.84679514 0.53119963 0.02765802
vn -0.90067726 -0.22315049 -0.37280604
vn -0.24639398 -0.9544083 0.16850762
vn -0.6928461 7.557869E-05 0.7210854
vn -0.6774512 0.13862962 0.7223861
vn 0.21545303 -0.86203885 0.45876908
vn -0.7544257 -0.09229386 0.6498644
vn -0.33876342 -0.846644 0.41040626
vn -0.30797356 -0.88513124 0.348848
vn -0.061655223 0.8698874 -0.48938182
vn -0.44652766 0.5158047 -0.7311351
vn 0.49256125 0.15402454 -0.8565395
vn 0.49256125 0.82370275 -0.2808864
vn 0.7927618 0.015470445 -0.6093352
vn -0.400343 -0.35400712 -0.8452245
vn 0.66960263 0.7159385 0.19764704
vn 0.9851981 -0.14617598 -0.08953946
vn -0.6543588 0.161722 0.7386884
vn -0.5927792 -0.6388128 -0.49043962
vn -0.45422512 -0.7696695 -0.44865182
vn 0.09229386 -0.7003924 -0.70776576
vn 0.17696577 -0.39249438 -0.9025693
vn -0.4619226 -0.21545303 -0.8603532
vn -0.12323481 -0.1615709 -0.97913635
vn 0.7080898 -0.24624282 0.66179544
vn -0.038562834 -0.20775557 0.97742033
vn 0.27703267 0.41573793 0.8662649
vn -0.48501498 0.3002761 0.82133716
vn 0.13078111 0.7544257 0.64322484
vn -0.66975373 0.60817415 -0.4260917
vn -0.161722 0.96225685 0.21887843
vn 0.14617598 0.74672824 -0.64886785
vn 0.8158542 0.49271244 0.302682
vn -0.6387513 -0.7694133 -0
vn -0.50810724 -0.6311154 0.5861061
vn -0.23099905 -0.66190517 0.7131066
vn 0.030714214 -0.9851981 -0.1686457
vn 0.0076218843 -0.96980315 0.24376985
vn -0.3618557 -0.846644 -0.3901979
vn 0.30782247 0.93916446 -0.15236606
vn -0.41573793 0.76982063 0.48429137
vn -0.40804046 0.7775181 -0.47850665
vn 0.29242754 0.7775181 0.5567331
vn 0.74657714 0.30797356 -0.58972436
vn 0.7157873 0.5619895 0.4145074
vn 0.15387344 0.31567103 -0.9363091
vn 0.91592103 -0.39249438 0.08388567
vn -0.27718383 -0.6542077 0.7036913
vn 0.26163775 -0.4386791 0.8597129
vn 0.6311154 -0.5002587 0.5928192
vn -0.3002761 -0.77736694 0.55275214
vn 0.2693352 -0.82355165 0.4992206
vn 0.300125 0.9314671 -0.20565511
vn -0.19251186 0.96225685 0.19235632
vn -0.80061036 0.56968695 -0.18568744
vn -0.16941947 0.6928461 -0.7009003
vn 0.50795615 0.12323481 -0.85252196
vn -0.7390308 0.09244496 -0.6672986
vn 0.23854542 -0.36940205 -0.8981304
vn 0.80045927 0.554292 -0.2280906
vn -0.22330159 -0.69269496 -0.6857916
vn -0.35415822 -0.77736694 -0.51987743
vn 0.20005816 -0.88513124 0.4201421
vn 0.32321733 0.7929129 0.51654595
vn -0.35415822 0.8929798 0.27777508
vn -0.10783988 0.88528234 -0.45237783
vn 0.2693352 -0.82355165 -0.4992206
vn 0.6003256 0.70824105 -0.37148866
vn -0.23869652 0.16941947 0.9562013
vn -0.05395776 -0.96980315 0.23784535
vn 0.6003256 -0.61572045 -0.5103896
vn 0.91592103 -0.3617046 0.17394951
vn 0.8697363 -0.47716635 -0.12598029
vn 0.56953573 -0.66960263 0.47671935
vn 0.5156536 -0.7388797 -0.433772
vn 0.50795615 -0.6773001 -0.5322078
vn 0.48486382 -0.80045927 0.3523805
vn 0.030714214 0.90067726 0.4334018
vn -0.33876342 0.4773175 0.8108066
vn -0.7929129 0.5927792 0.14107421
vn -0.41573793 0.9083747 0.044914577
vn -0.14632708 0.72363585 -0.67449206
vn -0.5927792 0.45422512 -0.6650506
vn 0.4078893 0.8929798 -0.19029818
vn -0.8314002 0.1848144 0.52403945
vn -0.90067726 -0.43098164 0.055093754
vn -0.88528234 0.13862962 -0.44391102
vn 0.56183827 -0.82355165 0.07810516
g IceShieldPieceAdd_0
f 3/3/3 2/2/2 1/1/1
f 5/5/5 1/1/1 4/4/4
f 1/1/1 2/2/2 4/4/4
f 6/6/6 4/4/4 2/2/2
f 9/9/9 8/8/8 7/7/7
f 10/10/10 8/8/8 9/9/9
f 10/10/10 12/12/12 11/11/11
f 10/10/10 13/13/13 12/12/12
f 10/10/10 9/9/9 13/13/13
f 3/3/3 12/12/12 13/13/13
f 11/11/11 1/1/1 5/5/5
f 12/12/12 1/1/1 11/11/11
f 12/12/12 3/3/3 1/1/1
f 9/9/9 3/3/3 13/13/13
f 6/6/6 7/7/7 14/14/14
f 9/9/9 2/2/2 3/3/3
f 6/6/6 9/9/9 7/7/7
f 2/2/2 9/9/9 6/6/6
f 14/14/14 4/4/4 6/6/6
f 7/7/7 8/8/8 14/14/14
f 4/4/4 11/11/11 5/5/5
f 4/4/4 10/10/10 11/11/11
f 8/8/8 4/4/4 14/14/14
f 8/8/8 10/10/10 4/4/4
f 17/17/17 16/16/16 15/15/15
f 20/20/20 19/19/19 18/18/18
f 17/17/17 18/18/18 16/16/16
f 23/23/23 22/22/22 21/21/21
f 24/24/24 22/22/22 23/23/23
f 27/27/27 26/26/26 25/25/25
f 25/25/25 29/29/29 28/28/28
f 24/24/24 27/27/27 28/28/28
f 23/23/23 27/27/27 24/24/24
f 21/21/21 26/26/26 27/27/27
f 23/23/23 21/21/21 27/27/27
f 25/25/25 19/19/19 20/20/20
f 25/25/25 26/26/26 19/19/19
f 29/29/29 25/25/25 20/20/20
f 18/18/18 19/19/19 16/16/16
f 26/26/26 16/16/16 19/19/19
f 21/21/21 16/16/16 26/26/26
f 22/22/22 16/16/16 21/21/21
f 15/15/15 16/16/16 22/22/22
f 24/24/24 15/15/15 22/22/22
f 24/24/24 17/17/17 15/15/15
f 27/27/27 25/25/25 28/28/28
f 24/24/24 18/18/18 17/17/17
f 24/24/24 28/28/28 18/18/18
f 29/29/29 18/18/18 28/28/28
f 29/29/29 20/20/20 18/18/18
f 32/32/32 31/31/31 30/30/30
f 31/31/31 33/33/33 30/30/30
f 30/30/30 33/33/33 34/34/34
f 35/35/35 34/34/34 33/33/33
f 36/36/36 31/31/31 32/32/32
f 38/38/38 37/37/37 36/36/36
f 37/37/37 38/38/38 39/39/39
f 34/34/34 36/36/36 30/30/30
f 38/38/38 36/36/36 34/34/34
f 39/39/39 38/38/38 34/34/34
f 35/35/35 39/39/39 34/34/34
f 36/36/36 37/37/37 40/40/40
f 40/40/40 33/33/33 31/31/31
f 35/35/35 37/37/37 39/39/39
f 37/37/37 33/33/33 40/40/40
f 35/35/35 33/33/33 37/37/37
f 36/36/36 32/32/32 30/30/30
f 43/43/43 42/42/42 41/41/41
f 41/41/41 42/42/42 44/44/44
f 42/42/42 45/45/45 44/44/44
f 41/41/41 47/47/47 46/46/46
f 41/41/41 46/46/46 43/43/43
f 50/50/50 49/49/49 48/48/48
f 52/52/52 51/51/51 48/48/48
f 49/49/49 52/52/52 48/48/48
f 44/44/44 48/48/48 41/41/41
f 50/50/50 48/48/48 44/44/44
f 45/45/45 50/50/50 44/44/44
f 41/41/41 48/48/48 51/51/51
f 50/50/50 45/45/45 53/53/53
f 42/42/42 53/53/53 45/45/45
f 52/52/52 43/43/43 46/46/46
f 49/49/49 43/43/43 52/52/52
f 42/42/42 43/43/43 49/49/49
f 52/52/52 47/47/47 51/51/51
f 52/52/52 46/46/46 47/47/47
f 56/56/56 55/55/55 54/54/54
f 55/55/55 58/58/58 57/57/57
f 54/54/54 55/55/55 57/57/57
f 60/60/60 58/58/58 59/59/59
f 57/57/57 58/58/58 60/60/60
f 62/62/62 61/61/61 56/56/56
f 64/64/64 63/63/63 61/61/61
f 64/64/64 61/61/61 62/62/62
f 65/65/65 64/64/64 62/62/62
f 67/67/67 63/63/63 66/66/66
f 66/66/66 63/63/63 64/64/64
f 65/65/65 66/66/66 64/64/64
f 56/56/56 61/61/61 55/55/55
f 55/55/55 63/63/63 58/58/58
f 55/55/55 61/61/61 63/63/63
f 67/67/67 60/60/60 59/59/59
f 66/66/66 60/60/60 67/67/67
f 65/65/65 60/60/60 66/66/66
f 65/65/65 57/57/57 60/60/60
f 62/62/62 57/57/57 65/65/65
f 62/62/62 54/54/54 57/57/57
f 62/62/62 56/56/56 54/54/54
f 63/63/63 59/59/59 58/58/58
f 63/63/63 67/67/67 59/59/59
f 70/70/70 69/69/69 68/68/68
f 69/69/69 72/72/72 71/71/71
f 68/68/68 69/69/69 71/71/71
f 71/71/71 72/72/72 73/73/73
f 68/68/68 74/74/74 70/70/70
f 77/77/77 76/76/76 75/75/75
f 79/79/79 75/75/75 78/78/78
f 77/77/77 75/75/75 79/79/79
f 80/80/80 76/76/76 77/77/77
f 78/78/78 81/81/81 79/79/79
f 81/81/81 82/82/82 79/79/79
f 68/68/68 82/82/82 74/74/74
f 68/68/68 79/79/79 82/82/82
f 80/80/80 71/71/71 73/73/73
f 68/68/68 77/77/77 79/79/79
f 77/77/77 71/71/71 80/80/80
f 77/77/77 68/68/68 71/71/71
f 76/76/76 69/69/69 75/75/75
f 76/76/76 72/72/72 69/69/69
f 72/72/72 80/80/80 73/73/73
f 80/80/80 72/72/72 76/76/76
f 74/74/74 83/83/83 70/70/70
f 78/78/78 83/83/83 81/81/81
f 78/78/78 70/70/70 83/83/83
f 70/70/70 75/75/75 69/69/69
f 75/75/75 70/70/70 78/78/78
f 74/74/74 81/81/81 83/83/83
f 74/74/74 82/82/82 81/81/81
f 86/86/86 85/85/85 84/84/84
f 87/87/87 86/86/86 84/84/84
f 87/87/87 84/84/84 88/88/88
f 87/87/87 88/88/88 89/89/89
f 92/92/92 91/91/91 90/90/90
f 94/94/94 93/93/93 92/92/92
f 94/94/94 95/95/95 93/93/93
f 96/96/96 95/95/95 94/94/94
f 96/96/96 94/94/94 97/97/97
f 86/86/86 91/91/91 85/85/85
f 86/86/86 90/90/90 91/91/91
f 98/98/98 92/92/92 90/90/90
f 94/94/94 92/92/92 98/98/98
f 97/97/97 94/94/94 98/98/98
f 87/87/87 90/90/90 86/86/86
f 87/87/87 98/98/98 90/90/90
f 89/89/89 98/98/98 87/87/87
f 97/97/97 98/98/98 89/89/89
f 92/92/92 93/93/93 91/91/91
f 91/91/91 84/84/84 85/85/85
f 93/93/93 84/84/84 91/91/91
f 95/95/95 84/84/84 93/93/93
f 88/88/88 84/84/84 95/95/95
f 88/88/88 95/95/95 97/97/97
f 89/89/89 88/88/88 97/97/97
f 101/101/101 100/100/100 99/99/99
f 103/103/103 101/101/101 102/102/102
f 102/102/102 101/101/101 99/99/99
f 102/102/102 99/99/99 104/104/104
f 107/107/107 106/106/106 105/105/105
f 105/105/105 106/106/106 108/108/108
f 105/105/105 108/108/108 109/109/109
f 109/109/109 108/108/108 110/110/110
f 111/111/111 105/105/105 109/109/109
f 111/111/111 107/107/107 105/105/105
f 108/108/108 100/100/100 101/101/101
f 108/108/108 106/106/106 100/100/100
f 104/104/104 107/107/107 111/111/111
f 99/99/99 107/107/107 104/104/104
f 106/106/106 99/99/99 100/100/100
f 107/107/107 99/99/99 106/106/106
f 110/110/110 112/112/112 109/109/109
f 111/111/111 102/102/102 104/104/104
f 103/103/103 109/109/109 112/112/112
f 109/109/109 102/102/102 111/111/111
f 109/109/109 103/103/103 102/102/102
f 101/101/101 110/110/110 108/108/108
f 103/103/103 110/110/110 101/101/101
f 112/112/112 110/110/110 103/103/103
f 115/115/115 114/114/114 113/113/113
f 115/115/115 113/113/113 116/116/116
f 115/115/115 116/116/116 117/117/117
f 120/120/120 119/119/119 118/118/118
f 121/121/121 120/120/120 118/118/118
f 123/123/123 121/121/121 122/122/122
f 124/124/124 123/123/123 122/122/122
f 122/122/122 121/121/121 125/125/125
f 121/121/121 118/118/118 125/125/125
f 125/125/125 114/114/114 115/115/115
f 118/118/118 114/114/114 125/125/125
f 119/119/119 114/114/114 118/118/118
f 124/124/124 116/116/116 123/123/123
f 124/124/124 117/117/117 116/116/116
f 124/124/124 115/115/115 117/117/117
f 122/122/122 115/115/115 124/124/124
f 125/125/125 115/115/115 122/122/122
f 116/116/116 113/113/113 123/123/123
f 113/113/113 119/119/119 120/120/120
f 113/113/113 114/114/114 119/119/119
f 128/128/128 127/127/127 126/126/126
f 131/131/131 130/130/130 129/129/129
f 132/132/132 128/128/128 126/126/126
f 131/131/131 129/129/129 133/133/133
f 133/133/133 132/132/132 126/126/126
f 130/130/130 134/134/134 129/129/129
f 133/133/133 128/128/128 132/132/132
f 133/133/133 129/129/129 128/128/128
f 128/128/128 135/135/135 127/127/127
f 126/126/126 130/130/130 131/131/131
f 130/130/130 135/135/135 134/134/134
f 130/130/130 127/127/127 135/135/135
f 126/126/126 127/127/127 130/130/130
f 134/134/134 128/128/128 129/129/129
f 128/128/128 134/134/134 135/135/135
f 138/138/138 137/137/137 136/136/136
f 137/137/137 139/139/139 136/136/136
f 136/136/136 139/139/139 140/140/140
f 142/142/142 141/141/141 139/139/139
f 139/139/139 141/141/141 140/140/140
f 145/145/145 144/144/144 143/143/143
f 146/146/146 145/145/145 143/143/143
f 148/148/148 146/146/146 147/147/147
f 148/148/148 145/145/145 146/146/146
f 147/147/147 146/146/146 149/149/149
f 145/145/145 151/151/151 150/150/150
f 145/145/145 152/152/152 151/151/151
f 148/148/148 152/152/152 145/145/145
f 145/145/145 150/150/150 144/144/144
f 142/142/142 153/153/153 141/141/141
f 140/140/140 147/147/147 136/136/136
f 151/151/151 141/141/141 153/153/153
f 140/140/140 148/148/148 147/147/147
f 140/140/140 152/152/152 148/148/148
f 152/152/152 141/141/141 151/151/151
f 141/141/141 152/152/152 140/140/140
f 149/149/149 146/146/146 143/143/143
f 136/136/136 149/149/149 138/138/138
f 136/136/136 147/147/147 149/149/149
f 153/153/153 150/150/150 151/151/151
f 150/150/150 139/139/139 144/144/144
f 150/150/150 142/142/142 139/139/139
f 153/153/153 142/142/142 150/150/150
f 149/149/149 137/137/137 138/138/138
f 137/137/137 144/144/144 139/139/139
f 143/143/143 137/137/137 149/149/149
f 143/143/143 144/144/144 137/137/137
f 121/121/121 123/123/123 120/120/120
f 120/120/120 123/123/123 113/113/113
f 133/133/133 126/126/126 131/131/131
f 95/95/95 96/96/96 97/97/97
f 36/36/36 40/40/40 31/31/31
f 42/42/42 49/49/49 53/53/53
f 50/50/50 53/53/53 49/49/49
f 47/47/47 41/41/41 51/51/51
