g InvaderSniperTurret_06_CorpsePart
v -0.09422922 0.4013604 0.6453378
v 0.09422934 0.4013604 0.6453378
v 0.092770696 0.021913469 0.7104516
v -0.092770636 0.021913469 0.7104516
v 0.09422934 0.39415848 0.59496975
v -0.09422922 0.39415848 0.59496975
v -0.09265667 0.01468873 0.56885123
v 0.09265673 0.01468873 0.56885123
v 0.09265673 0.01468873 0.56885123
v 0.092770696 0.021913469 0.7104516
v 0.09422934 0.4013604 0.6453378
v 0.09422934 0.39415848 0.59496975
v 0.09422934 0.39415848 0.59496975
v 0.09422934 0.4013604 0.6453378
v -0.09422922 0.4013604 0.6453378
v -0.09422922 0.39415848 0.59496975
v -0.09422922 0.39415848 0.59496975
v -0.09422922 0.4013604 0.6453378
v -0.092770636 0.021913469 0.7104516
v -0.09265667 0.01468873 0.56885123
v 0.15052307 0.042744398 -0.7468033
v 0.10778993 -0.004136622 -0.028705299
v -1.13248825E-05 0.053342223 -0.029229462
v -1.13248825E-05 0.11973232 -0.7466437
v -0.107789874 -0.004136622 -0.028705299
v -0.15052295 0.042744398 -0.7468033
v -0.1639468 -0.14081407 -0.028910398
v -0.22618896 -0.14081407 -0.7468033
v -0.107789874 -0.27751434 -0.028705299
v -0.15052295 -0.3243726 -0.7468033
v -1.13248825E-05 -0.3349476 -0.029229462
v -1.13248825E-05 -0.40136048 -0.7466437
v -1.13248825E-05 -0.40136048 -0.7466437
v -1.13248825E-05 -0.3349476 -0.029229462
v 0.10778993 -0.27751434 -0.028705299
v 0.15052307 -0.3243726 -0.7468033
v 0.16394693 -0.14081407 -0.028910398
v 0.22618908 -0.14081407 -0.7468033
v 0.14587367 0.034243405 0.037889957
v 0.14111036 0.029571235 0.16497242
v -1.13248825E-05 0.10090697 0.16485846
v -1.13248825E-05 0.10751635 0.037798762
v -0.14111024 0.029571235 0.16497242
v -0.14587355 0.034243405 0.037889957
v -0.21142042 -0.14081407 0.1649496
v -0.21800703 -0.14081407 0.03786713
v -0.14111024 -0.3111994 0.16497242
v -0.14587355 -0.31587157 0.037889957
v -1.13248825E-05 -0.38253516 0.16485846
v -1.13248825E-05 -0.38912174 0.037798762
v -1.13248825E-05 -0.38912174 0.037798762
v -1.13248825E-05 -0.38253516 0.16485846
v 0.14111036 -0.3111994 0.16497242
v 0.14587367 -0.31587157 0.037889957
v 0.21142054 -0.14081407 0.1649496
v 0.21800709 -0.14081407 0.03786713
v 0.10778993 -0.004136622 -0.028705299
v 0.14587367 0.034243405 0.037889957
v -1.13248825E-05 0.10751635 0.037798762
v -1.13248825E-05 0.053342223 -0.029229462
v -1.13248825E-05 0.027634025 0.19731283
v -1.13248825E-05 0.10090697 0.16485846
v 0.14111036 0.029571235 0.16497242
v 0.089853466 -0.021366596 0.19624162
v -0.14587355 0.034243405 0.037889957
v -0.107789874 -0.004136622 -0.028705299
v -0.08996731 -0.021366596 0.19624162
v -0.14111024 0.029571235 0.16497242
v -0.21800703 -0.14081407 0.03786713
v -0.1639468 -0.14081407 -0.028910398
v -0.13915026 -0.14081407 0.19628721
v -0.21142042 -0.14081407 0.1649496
v -0.14587355 -0.31587157 0.037889957
v -0.107789874 -0.27751434 -0.028705299
v -0.08996731 -0.2602388 0.19624162
v -0.14111024 -0.3111994 0.16497242
v -1.13248825E-05 -0.38912174 0.037798762
v -1.13248825E-05 -0.3349476 -0.029229462
v -1.13248825E-05 -0.30926216 0.19731283
v -1.13248825E-05 -0.38253516 0.16485846
v -1.13248825E-05 -0.3349476 -0.029229462
v -1.13248825E-05 -0.38912174 0.037798762
v 0.14587367 -0.31587157 0.037889957
v 0.10778993 -0.27751434 -0.028705299
v 0.089853466 -0.2602388 0.19624162
v 0.14111036 -0.3111994 0.16497242
v -1.13248825E-05 -0.38253516 0.16485846
v -1.13248825E-05 -0.30926216 0.19731283
v 0.21800709 -0.14081407 0.03786713
v 0.16394693 -0.14081407 -0.028910398
v 0.13915032 -0.14081407 0.19628721
v 0.21142054 -0.14081407 0.1649496
v 0.18334204 0.018449247 0.55068684
v 0.18078947 0.01528132 0.7401254
v -0.18078935 0.01528132 0.7401254
v -0.18334192 0.018449247 0.55068684
v -0.18334192 0.018449247 0.55068684
v -0.18078935 0.01528132 0.7401254
v -0.23327696 -0.14081407 0.74110544
v -0.23717421 -0.14081407 0.54968405
v -0.23717421 -0.14081407 0.54968405
v -0.23327696 -0.14081407 0.74110544
v -0.18078935 -0.29688668 0.7401254
v -0.18334192 -0.3000774 0.55068684
v -0.18334192 -0.3000774 0.55068684
v -0.18078935 -0.29688668 0.7401254
v 0.18078947 -0.29688668 0.7401254
v 0.18334204 -0.3000774 0.55068684
v 0.18334204 -0.3000774 0.55068684
v 0.18078947 -0.29688668 0.7401254
v 0.23327708 -0.14081407 0.74110544
v 0.23717433 -0.14081407 0.54968405
v 0.18078947 0.01528132 0.7401254
v 0.18334204 0.018449247 0.55068684
v 0.089853466 -0.021366596 0.19624162
v 0.08044082 -0.058971703 0.51907575
v -1.13248825E-05 -0.02305311 0.52381635
v -1.13248825E-05 0.027634025 0.19731283
v -0.0804407 -0.058971703 0.51907575
v -0.08996731 -0.021366596 0.19624162
v -0.11412573 -0.14081407 0.51832366
v -0.13915026 -0.14081407 0.19628721
v -0.0804407 -0.22265649 0.51907575
v -0.08996731 -0.2602388 0.19624162
v -1.13248825E-05 -0.25857505 0.52381635
v -1.13248825E-05 -0.30926216 0.19731283
v -1.13248825E-05 -0.30926216 0.19731283
v -1.13248825E-05 -0.25857505 0.52381635
v 0.08044082 -0.22265649 0.51907575
v 0.089853466 -0.2602388 0.19624162
v 0.11412585 -0.14081407 0.51832366
v 0.13915032 -0.14081407 0.19628721
v 0.18334204 0.018449247 0.55068684
v -0.18334192 0.018449247 0.55068684
v -1.13248825E-05 -0.02305311 0.52381635
v 0.08044082 -0.058971703 0.51907575
v -0.0804407 -0.058971703 0.51907575
v 0.18078947 0.01528132 0.7401254
v 0.053091645 -0.08958 0.74680316
v -0.053091526 -0.08958 0.74680316
v -0.18078935 0.01528132 0.7401254
v -0.23717421 -0.14081407 0.54968405
v -0.11412573 -0.14081407 0.51832366
v -0.0723955 -0.14081407 0.74623346
v -0.23327696 -0.14081407 0.74110544
v -0.18334192 -0.3000774 0.55068684
v -0.0804407 -0.22265649 0.51907575
v -0.053091526 -0.19204819 0.74680316
v -0.18078935 -0.29688668 0.7401254
v 0.18334204 -0.3000774 0.55068684
v 0.08044082 -0.22265649 0.51907575
v -1.13248825E-05 -0.25857505 0.52381635
v 0.18078947 -0.29688668 0.7401254
v 0.053091645 -0.19204819 0.74680316
v 0.23717433 -0.14081407 0.54968405
v 0.11412585 -0.14081407 0.51832366
v 0.07239556 -0.14081407 0.74623346
v 0.23327708 -0.14081407 0.74110544
v 0.053091645 -0.08958 0.74680316
v -1.13248825E-05 -0.14081407 0.5650908
v -0.053091526 -0.08958 0.74680316
v -0.0723955 -0.14081407 0.74623346
v -0.053091526 -0.19204819 0.74680316
v 0.053091645 -0.19204819 0.74680316
v 0.07239556 -0.14081407 0.74623346
vt 0.8605259 0.7547938
vt 0.8558445 0.7547938
vt 0.8558445 0.7643851
vt 0.8605259 0.7643851
vt 0.85881317 0.8565296
vt 0.85881317 0.861211
vt 0.8679477 0.8613252
vt 0.8679477 0.8564154
vt 0.8679477 0.8564154
vt 0.8679477 0.8525332
vt 0.8585848 0.8551594
vt 0.85881317 0.8565296
vt 0.85881317 0.8565296
vt 0.8575572 0.8565296
vt 0.8575572 0.86109686
vt 0.85881317 0.861211
vt 0.85881317 0.861211
vt 0.8585848 0.862467
vt 0.8679477 0.8650932
vt 0.8679477 0.8613252
vt 0.76529855 0.8230744
vt 0.7654127 0.8400874
vt 0.76883817 0.8400874
vt 0.76883817 0.8230744
vt 0.7723778 0.8400874
vt 0.772492 0.8230744
vt 0.7767167 0.8400874
vt 0.7767167 0.8230744
vt 0.78105557 0.8400874
vt 0.78105557 0.8230744
vt 0.7845952 0.8400874
vt 0.7845952 0.8230744
vt 0.7531953 0.8230744
vt 0.7531953 0.8400874
vt 0.7566207 0.8400874
vt 0.7567349 0.8230744
vt 0.7610738 0.8400874
vt 0.7610738 0.8230744
vt 0.8346067 0.854931
vt 0.8346067 0.8519623
vt 0.8317522 0.8519623
vt 0.8317522 0.854931
vt 0.82878345 0.8519623
vt 0.82878345 0.854931
vt 0.8251296 0.8519623
vt 0.8251296 0.854931
vt 0.82147586 0.8519623
vt 0.82147586 0.854931
vt 0.81850713 0.8519623
vt 0.81850713 0.854931
vt 0.844883 0.854931
vt 0.844883 0.8519623
vt 0.8420285 0.8519623
vt 0.8419143 0.854931
vt 0.83826053 0.8519623
vt 0.83826053 0.854931
vt 0.8346067 0.85732883
vt 0.8346067 0.854931
vt 0.8317522 0.854931
vt 0.8317522 0.85732883
vt 0.8317522 0.84979284
vt 0.8317522 0.8519623
vt 0.8346067 0.8519623
vt 0.8346067 0.84979284
vt 0.82878345 0.854931
vt 0.82878345 0.85732883
vt 0.82889766 0.84979284
vt 0.82878345 0.8519623
vt 0.8251296 0.854931
vt 0.8251296 0.85732883
vt 0.8251296 0.84979284
vt 0.8251296 0.8519623
vt 0.82147586 0.854931
vt 0.82147586 0.85732883
vt 0.82136166 0.84979284
vt 0.82147586 0.8519623
vt 0.81850713 0.854931
vt 0.81850713 0.85732883
vt 0.81850713 0.84979284
vt 0.81850713 0.8519623
vt 0.844883 0.85732883
vt 0.844883 0.854931
vt 0.8419143 0.854931
vt 0.8419143 0.85732883
vt 0.8420285 0.84979284
vt 0.8420285 0.8519623
vt 0.844883 0.8519623
vt 0.844883 0.84979284
vt 0.83826053 0.854931
vt 0.83826053 0.85732883
vt 0.83826053 0.84979284
vt 0.83826053 0.8519623
vt 0.86771935 0.77500397
vt 0.86360884 0.77488977
vt 0.86360884 0.78368175
vt 0.86771935 0.78368175
vt 0.86771935 0.78368175
vt 0.86360884 0.78368175
vt 0.86360884 0.7874497
vt 0.86771935 0.7874497
vt 0.86771935 0.7547938
vt 0.86360884 0.7547938
vt 0.86360884 0.7585618
vt 0.86771935 0.7585618
vt 0.86771935 0.7585618
vt 0.86360884 0.7585618
vt 0.86360884 0.7673538
vt 0.86771935 0.76723963
vt 0.86771935 0.76723963
vt 0.86360884 0.7673538
vt 0.86360884 0.7711218
vt 0.86771935 0.7711218
vt 0.86360884 0.77488977
vt 0.86771935 0.77500397
vt 0.7871072 0.86223865
vt 0.7874497 0.8539034
vt 0.78505194 0.8539034
vt 0.78505194 0.86223865
vt 0.78253996 0.8539034
vt 0.78288245 0.86223865
vt 0.7801421 0.8539034
vt 0.7801421 0.86223865
vt 0.7777443 0.8539034
vt 0.77740175 0.86223865
vt 0.7753465 0.8539034
vt 0.7753465 0.86223865
vt 0.79475737 0.86223865
vt 0.79475737 0.8539034
vt 0.79235953 0.8539034
vt 0.79258794 0.86223865
vt 0.78984755 0.8539034
vt 0.78984755 0.86223865
vt 0.80469114 0.8640655
vt 0.80469114 0.8551594
vt 0.803321 0.85961246
vt 0.8026359 0.86143935
vt 0.8026359 0.8578997
vt 0.8544743 0.854931
vt 0.8523048 0.8577856
vt 0.8523048 0.86075425
vt 0.8544743 0.86360884
vt 0.80092317 0.8539034
vt 0.80092317 0.8571005
vt 0.8509347 0.8613252
vt 0.8509347 0.8647506
vt 0.79715514 0.8551594
vt 0.7992104 0.8578997
vt 0.8494503 0.86075425
vt 0.84728086 0.86360884
vt 0.79715514 0.8640655
vt 0.7992104 0.86143935
vt 0.79852533 0.85961246
vt 0.84728086 0.854931
vt 0.8494503 0.8577856
vt 0.80092317 0.8653215
vt 0.80092317 0.86212444
vt 0.8509347 0.8572146
vt 0.8509347 0.8537892
vt 0.7927021 0.870003
vt 0.79064685 0.8672626
vt 0.78859156 0.870003
vt 0.7872214 0.8672626
vt 0.78859156 0.8646364
vt 0.7927021 0.8646364
vt 0.7941865 0.8672626
vn -0.003921509 0.16862607 0.9856723
vn -0.003921509 0.16862607 0.9856723
vn -0.003921509 0.16862607 0.9856723
vn -0.003921509 0.16862607 0.9856723
vn -0.003921509 0.066666126 -0.9977676
vn -0.003921509 0.066666126 -0.9977676
vn -0.003921509 0.066666126 -0.9977676
vn -0.003921509 0.066666126 -0.9977676
vn 0.9999918 -0.003921509 -0.0010356886
vn 0.9999918 -0.003921509 -0.0010356886
vn 0.9999918 -0.003921509 -0.0010356886
vn 0.9999918 -0.003921509 -0.0010356886
vn -0.003921509 0.99214876 -0.1250019
vn -0.003921509 0.99214876 -0.1250019
vn -0.003921509 0.99214876 -0.1250019
vn -0.003921509 0.99214876 -0.1250019
vn -0.9999918 -0.003921509 -0.0010356886
vn -0.9999918 -0.003921509 -0.0010356886
vn -0.9999918 -0.003921509 -0.0010356886
vn -0.9999918 -0.003921509 -0.0010356886
vn 0.7568565 0.6470536 0.092140526
vn 0.7568565 0.6470536 0.092140526
vn -0.003921509 0.99214876 0.1250019
vn -0.003921509 0.99214876 0.1250019
vn -0.75685656 0.6470536 0.092139885
vn -0.75685656 0.6470536 0.092139885
vn -0.9999918 0.003921509 0.0010356886
vn -0.9999918 0.003921509 0.0010356886
vn -0.75685656 -0.6470535 0.09214085
vn -0.75685656 -0.6470535 0.09214085
vn -0.003921509 -0.9921487 0.12500238
vn -0.003921509 -0.9921487 0.12500238
vn -0.003921509 -0.9921487 0.12500238
vn -0.003921509 -0.9921487 0.12500238
vn 0.7568565 -0.6470535 0.0921415
vn 0.7568565 -0.6470535 0.0921415
vn 0.9999918 0.003921509 0.0010356886
vn 0.9999918 0.003921509 0.0010356886
vn 0.7490134 0.6548966 0.100445695
vn 0.7490134 0.6548966 0.100445695
vn -0.003921509 0.9999918 0.0010358009
vn -0.003921509 0.9999918 0.0010358009
vn -0.74901354 0.6548966 0.10044481
vn -0.74901354 0.6548966 0.10044481
vn -0.9999918 0.003921509 0.0010356886
vn -0.9999918 0.003921509 0.0010356886
vn -0.74901354 -0.65489656 0.1004451
vn -0.74901354 -0.65489656 0.1004451
vn -0.003921509 -0.9999918 0.0010358009
vn -0.003921509 -0.9999918 0.0010358009
vn -0.003921509 -0.9999918 0.0010358009
vn -0.003921509 -0.9999918 0.0010358009
vn 0.7490134 -0.65489656 0.10044599
vn 0.7490134 -0.65489656 0.10044599
vn 0.9999918 0.003921509 0.0010356886
vn 0.9999918 0.003921509 0.0010356886
vn 0.592152 0.5058782 -0.62725055
vn 0.592152 0.51372135 -0.6208433
vn -0.003921509 0.7646997 -0.6443749
vn -0.003921509 0.7646997 -0.6443749
vn 0.003921509 0.3882321 0.92155325
vn -0.003921509 0.3882321 0.92155325
vn 0.30980134 0.262743 0.9137775
vn 0.30980134 0.262743 0.9137775
vn -0.592152 0.51372135 -0.6208433
vn -0.592152 0.5058782 -0.62725055
vn -0.30980146 0.262743 0.9137774
vn -0.30980146 0.270586 0.91148573
vn -0.78038573 0.003921509 -0.62528616
vn -0.78038573 0.003921509 -0.62528616
vn -0.39607525 0.003921509 0.9182097
vn -0.39607525 0.003921509 0.9182097
vn -0.592152 -0.5137212 -0.6208434
vn -0.592152 -0.5058782 -0.62725055
vn -0.30980146 -0.26274294 0.9137774
vn -0.30980146 -0.270586 0.91148573
vn -0.003921509 -0.7646996 -0.644375
vn -0.003921509 -0.7646996 -0.644375
vn 0.003921509 -0.3882321 0.92155325
vn -0.003921509 -0.3882321 0.92155325
vn -0.003921509 -0.7646996 -0.644375
vn -0.003921509 -0.7646996 -0.644375
vn 0.592152 -0.5137212 -0.6208434
vn 0.592152 -0.5058782 -0.62725055
vn 0.30980134 -0.26274294 0.9137775
vn 0.30980134 -0.26274294 0.9137775
vn -0.003921509 -0.3882321 0.92155325
vn 0.003921509 -0.3882321 0.92155325
vn 0.78038573 0.003921509 -0.62528616
vn 0.78038573 0.003921509 -0.62528616
vn 0.39607513 0.003921509 0.91820973
vn 0.39607513 0.003921509 0.91820973
vn -0.003921509 0.9999918 0.0010358009
vn -0.003921509 0.9999918 0.0010358009
vn -0.003921509 0.9999918 0.0010358009
vn -0.003921509 0.9999918 0.0010358009
vn -0.9450903 0.31764448 0.07685245
vn -0.9450903 0.31764448 0.07685245
vn -0.9999918 0.003921509 0.0010356886
vn -0.9999918 0.003921509 0.0010356886
vn -0.9999918 0.003921509 0.0010356886
vn -0.9999918 0.003921509 0.0010356886
vn -0.9450903 -0.31764442 0.07685269
vn -0.9450903 -0.31764442 0.07685269
vn -0.003921509 -0.9999918 0.0010358009
vn -0.003921509 -0.9999918 0.0010358009
vn -0.003921509 -0.9999918 0.0010358009
vn -0.003921509 -0.9999918 0.0010358009
vn 0.9450903 -0.31764442 0.07685269
vn 0.9450903 -0.31764442 0.07685269
vn 0.9999918 0.003921509 0.0010356886
vn 0.9999918 0.003921509 0.0010356886
vn 0.9450903 0.31764448 0.07685245
vn 0.9450903 0.31764448 0.07685245
vn 0.73332727 0.6705828 0.1120261
vn 0.7490134 0.6548966 0.100445695
vn -0.003921509 0.99214876 0.1250019
vn -0.003921509 0.99214876 0.1250019
vn -0.74901354 0.6548966 0.10044481
vn -0.7333274 0.6705828 0.112025306
vn -0.9999918 0.003921509 0.0010356886
vn -0.9999918 0.003921509 0.0010356886
vn -0.74901354 -0.65489656 0.1004451
vn -0.7333274 -0.6705827 0.1120257
vn -0.003921509 -0.9921487 0.12500238
vn -0.003921509 -0.9921487 0.12500238
vn -0.003921509 -0.9921487 0.12500238
vn -0.003921509 -0.9921487 0.12500238
vn 0.7490134 -0.65489656 0.10044599
vn 0.73332727 -0.6705827 0.1120265
vn 0.9999918 0.003921509 0.0010356886
vn 0.9999918 0.003921509 0.0010356886
vn 0.14509684 0.22352755 -0.9638373
vn -0.1450969 0.22352755 -0.96383727
vn -0.003921509 0.4117614 -0.91128325
vn 0.10588145 0.28627217 -0.9522801
vn -0.10588157 0.28627217 -0.9522801
vn 0.019607663 0.035293818 0.9991846
vn 0.011764586 0.043136954 0.9989999
vn -0.011764646 0.043136954 0.9989999
vn -0.019607663 0.035293818 0.9991846
vn -0.2392137 0.003921509 -0.970959
vn -0.2392137 0.003921509 -0.970959
vn -0.035293818 0.003921509 0.99936926
vn -0.035293818 0.003921509 0.99936926
vn -0.1450969 -0.22352755 -0.96383727
vn -0.10588157 -0.2862721 -0.9522801
vn -0.011764646 -0.043136895 0.9989999
vn -0.019607663 -0.035293818 0.9991846
vn 0.14509684 -0.22352755 -0.9638373
vn 0.10588145 -0.2862721 -0.9522801
vn -0.003921509 -0.41176128 -0.9112833
vn 0.019607663 -0.035293818 0.9991846
vn 0.011764586 -0.043136895 0.9989999
vn 0.2392137 0.003921509 -0.970959
vn 0.2392137 0.003921509 -0.970959
vn 0.035293818 0.003921509 0.99936926
vn 0.035293818 0.003921509 0.99936926
vn -0.37254596 -0.85881644 0.3516302
vn -0.003921509 -0.003921509 0.9999846
vn 0.37254596 -0.85881644 0.3516302
vn 0.92940414 0.003921509 0.36904275
vn 0.37254596 0.8588165 0.35163006
vn -0.37254596 0.8588165 0.35163006
vn -0.92940414 0.003921509 0.36904275
g InvaderSniperTurret_06_CorpsePart_0
f 3/3/3 2/2/2 1/1/1
f 4/4/4 3/3/3 1/1/1
f 7/7/7 6/6/6 5/5/5
f 8/8/8 7/7/7 5/5/5
f 11/11/11 10/10/10 9/9/9
f 12/12/12 11/11/11 9/9/9
f 15/15/15 14/14/14 13/13/13
f 16/16/16 15/15/15 13/13/13
f 19/19/19 18/18/18 17/17/17
f 20/20/20 19/19/19 17/17/17
f 23/23/23 22/22/22 21/21/21
f 24/24/24 23/23/23 21/21/21
f 25/25/25 23/23/23 24/24/24
f 26/26/26 25/25/25 24/24/24
f 27/27/27 25/25/25 26/26/26
f 28/28/28 27/27/27 26/26/26
f 29/29/29 27/27/27 28/28/28
f 30/30/30 29/29/29 28/28/28
f 31/31/31 29/29/29 30/30/30
f 32/32/32 31/31/31 30/30/30
f 35/35/35 34/34/34 33/33/33
f 36/36/36 35/35/35 33/33/33
f 37/37/37 35/35/35 36/36/36
f 38/38/38 37/37/37 36/36/36
f 22/22/22 37/37/37 38/38/38
f 21/21/21 22/22/22 38/38/38
f 41/41/41 40/40/40 39/39/39
f 42/42/42 41/41/41 39/39/39
f 43/43/43 41/41/41 42/42/42
f 44/44/44 43/43/43 42/42/42
f 45/45/45 43/43/43 44/44/44
f 46/46/46 45/45/45 44/44/44
f 47/47/47 45/45/45 46/46/46
f 48/48/48 47/47/47 46/46/46
f 49/49/49 47/47/47 48/48/48
f 50/50/50 49/49/49 48/48/48
f 53/53/53 52/52/52 51/51/51
f 54/54/54 53/53/53 51/51/51
f 55/55/55 53/53/53 54/54/54
f 56/56/56 55/55/55 54/54/54
f 40/40/40 55/55/55 56/56/56
f 39/39/39 40/40/40 56/56/56
f 59/59/59 58/58/58 57/57/57
f 60/60/60 59/59/59 57/57/57
f 63/63/63 62/62/62 61/61/61
f 64/64/64 63/63/63 61/61/61
f 65/65/65 59/59/59 60/60/60
f 66/66/66 65/65/65 60/60/60
f 62/62/62 68/68/68 67/67/67
f 61/61/61 62/62/62 67/67/67
f 69/69/69 65/65/65 66/66/66
f 70/70/70 69/69/69 66/66/66
f 68/68/68 72/72/72 71/71/71
f 67/67/67 68/68/68 71/71/71
f 73/73/73 69/69/69 70/70/70
f 74/74/74 73/73/73 70/70/70
f 72/72/72 76/76/76 75/75/75
f 71/71/71 72/72/72 75/75/75
f 77/77/77 73/73/73 74/74/74
f 78/78/78 77/77/77 74/74/74
f 76/76/76 80/80/80 79/79/79
f 75/75/75 76/76/76 79/79/79
f 83/83/83 82/82/82 81/81/81
f 84/84/84 83/83/83 81/81/81
f 87/87/87 86/86/86 85/85/85
f 88/88/88 87/87/87 85/85/85
f 89/89/89 83/83/83 84/84/84
f 90/90/90 89/89/89 84/84/84
f 86/86/86 92/92/92 91/91/91
f 85/85/85 86/86/86 91/91/91
f 58/58/58 89/89/89 90/90/90
f 57/57/57 58/58/58 90/90/90
f 92/92/92 63/63/63 64/64/64
f 91/91/91 92/92/92 64/64/64
f 95/95/95 94/94/94 93/93/93
f 96/96/96 95/95/95 93/93/93
f 99/99/99 98/98/98 97/97/97
f 100/100/100 99/99/99 97/97/97
f 103/103/103 102/102/102 101/101/101
f 104/104/104 103/103/103 101/101/101
f 107/107/107 106/106/106 105/105/105
f 108/108/108 107/107/107 105/105/105
f 111/111/111 110/110/110 109/109/109
f 112/112/112 111/111/111 109/109/109
f 113/113/113 111/111/111 112/112/112
f 114/114/114 113/113/113 112/112/112
f 117/117/117 116/116/116 115/115/115
f 118/118/118 117/117/117 115/115/115
f 119/119/119 117/117/117 118/118/118
f 120/120/120 119/119/119 118/118/118
f 121/121/121 119/119/119 120/120/120
f 122/122/122 121/121/121 120/120/120
f 123/123/123 121/121/121 122/122/122
f 124/124/124 123/123/123 122/122/122
f 125/125/125 123/123/123 124/124/124
f 126/126/126 125/125/125 124/124/124
f 129/129/129 128/128/128 127/127/127
f 130/130/130 129/129/129 127/127/127
f 131/131/131 129/129/129 130/130/130
f 132/132/132 131/131/131 130/130/130
f 116/116/116 131/131/131 132/132/132
f 115/115/115 116/116/116 132/132/132
f 135/135/135 134/134/134 133/133/133
f 133/133/133 136/136/136 135/135/135
f 135/135/135 137/137/137 134/134/134
f 140/140/140 139/139/139 138/138/138
f 141/141/141 140/140/140 138/138/138
f 142/142/142 134/134/134 137/137/137
f 143/143/143 142/142/142 137/137/137
f 141/141/141 145/145/145 144/144/144
f 140/140/140 141/141/141 144/144/144
f 146/146/146 142/142/142 143/143/143
f 147/147/147 146/146/146 143/143/143
f 145/145/145 149/149/149 148/148/148
f 144/144/144 145/145/145 148/148/148
f 152/152/152 151/151/151 150/150/150
f 150/150/150 146/146/146 152/152/152
f 146/146/146 147/147/147 152/152/152
f 148/148/148 149/149/149 153/153/153
f 154/154/154 148/148/148 153/153/153
f 155/155/155 150/150/150 151/151/151
f 156/156/156 155/155/155 151/151/151
f 153/153/153 158/158/158 157/157/157
f 154/154/154 153/153/153 157/157/157
f 133/133/133 155/155/155 156/156/156
f 136/136/136 133/133/133 156/156/156
f 158/158/158 138/138/138 139/139/139
f 157/157/157 158/158/158 139/139/139
f 161/161/161 160/160/160 159/159/159
f 162/162/162 160/160/160 161/161/161
f 163/163/163 160/160/160 162/162/162
f 164/164/164 160/160/160 163/163/163
f 165/165/165 160/160/160 164/164/164
f 159/159/159 160/160/160 165/165/165
