g LArtTurret02_mesh
v -0.3235321 0.87285614 -4.3641434
v -0.41241837 0.9350128 -4.381653
v -0.37846375 0.8344345 -4.3533173
v -0.44636917 0.8344345 -4.3533173
v -0.5013046 0.87285614 -4.3641434
v -0.52228546 0.9350128 -4.381653
v -0.5013046 0.9971771 -4.39917
v -0.44636917 1.0355911 -4.409992
v -0.37846375 1.0355911 -4.409992
v -0.3235321 0.9971771 -4.39917
v -0.30254745 0.9350128 -4.381653
v -0.056047916 0.87285614 -4.3641434
v -0.14493465 0.9350128 -4.381653
v -0.110982895 0.8344345 -4.3533173
v -0.17888641 0.8344345 -4.3533173
v -0.23382187 0.87285614 -4.3641434
v -0.2548046 0.9350128 -4.381653
v -0.23382187 0.9971771 -4.39917
v -0.17888641 1.0355911 -4.409992
v -0.110982895 1.0355911 -4.409992
v -0.056047916 0.9971771 -4.39917
v -0.03506446 0.9350128 -4.381653
v 0.22206688 0.87285614 -4.3641434
v 0.13318062 0.9350128 -4.381653
v 0.16713142 0.8344345 -4.3533173
v 0.09922886 0.8344345 -4.3533173
v 0.044293404 0.87285614 -4.3641434
v 0.023309946 0.9350128 -4.381653
v 0.044293404 0.9971771 -4.39917
v 0.09922886 1.0355911 -4.409992
v 0.16713142 1.0355911 -4.409992
v 0.22206688 0.9971771 -4.39917
v 0.24304962 0.9350128 -4.381653
v 0.49214172 0.87285614 -4.3641434
v 0.40325165 0.9350128 -4.381653
v 0.43720627 0.8344345 -4.3533173
v 0.36930084 0.8344345 -4.3533173
v 0.3143673 0.87285614 -4.3641434
v 0.29338264 0.9350128 -4.381653
v 0.3143673 0.9971771 -4.39917
v 0.36930084 1.0355911 -4.409992
v 0.43720627 1.0355911 -4.409992
v 0.49214172 0.9971771 -4.39917
v 0.51312256 0.9350128 -4.381653
v 0.49214172 0.60588455 -4.290371
v 0.40325546 0.66804504 -4.307884
v 0.43720627 0.56746674 -4.279545
v 0.36930084 0.56746674 -4.279545
v 0.3143673 0.60588455 -4.290371
v 0.29338455 0.66804504 -4.307884
v 0.3143673 0.7302017 -4.3253975
v 0.36930084 0.76862335 -4.3362236
v 0.43720627 0.76862335 -4.3362236
v 0.49214172 0.7302017 -4.3253975
v 0.5131264 0.66804504 -4.307884
v -0.32421494 0.60560226 -4.290371
v -0.4131012 0.66776276 -4.307884
v -0.37914658 0.56718445 -4.2795486
v -0.447052 0.56718445 -4.2795486
v -0.50198746 0.60560226 -4.290371
v -0.5229683 0.66776276 -4.307884
v -0.50198746 0.72991943 -4.3253975
v -0.447052 0.76834106 -4.3362236
v -0.37914658 0.76834106 -4.3362236
v -0.32421494 0.72991943 -4.3253975
v -0.3032303 0.66776276 -4.307884
v -0.05565834 0.6054878 -4.290371
v -0.14454556 0.6676483 -4.307884
v -0.110593796 0.5670738 -4.279545
v -0.17849731 0.5670738 -4.279545
v -0.23343277 0.6054878 -4.290371
v -0.2544155 0.6676483 -4.307884
v -0.23343277 0.729805 -4.3253975
v -0.17849731 0.7682266 -4.3362236
v -0.110593796 0.7682266 -4.3362236
v -0.05565834 0.729805 -4.3253975
v -0.03467512 0.6676483 -4.307884
v 0.22060585 0.60474014 -4.2903748
v 0.13171959 0.66690063 -4.307888
v 0.1656723 0.5663223 -4.2795486
v 0.09776783 0.5663223 -4.2795486
v 0.04283285 0.60474014 -4.2903748
v 0.021849632 0.66690063 -4.307888
v 0.04283285 0.7290573 -4.3254013
v 0.09776783 0.76747894 -4.3362236
v 0.1656723 0.76747894 -4.3362236
v 0.22060585 0.7290573 -4.3254013
v 0.2415905 0.66690063 -4.307888
v 0.22060585 1.2046432 -3.6678944
v 0.13171959 1.1425171 -3.6502743
v 0.1656723 1.243042 -3.6787844
v 0.09776783 1.243042 -3.6787844
v 0.04283285 1.2046432 -3.6678944
v 0.021849632 1.1425171 -3.6502743
v 0.04283285 1.0803833 -3.6326532
v 0.09776783 1.0419846 -3.6217632
v 0.1656723 1.0419846 -3.6217632
v 0.22060585 1.0803833 -3.6326532
v 0.2415905 1.1425171 -3.6502743
v -0.05565834 1.2038956 -3.6678944
v -0.14454556 1.1417618 -3.6502743
v -0.110593796 1.2422943 -3.6787844
v -0.17849731 1.2422943 -3.6787844
v -0.23343277 1.2038956 -3.6678944
v -0.2544155 1.1417618 -3.6502743
v -0.23343277 1.0796356 -3.6326532
v -0.17849731 1.0412369 -3.6217632
v -0.110593796 1.0412369 -3.6217632
v -0.05565834 1.0796356 -3.6326532
v -0.03467512 1.1417618 -3.6502743
v -0.32421494 1.2037811 -3.6678944
v -0.4131012 1.1416473 -3.6502743
v -0.37914658 1.2421799 -3.6787844
v -0.447052 1.2421799 -3.6787844
v -0.50198746 1.2037811 -3.6678944
v -0.5229683 1.1416473 -3.6502743
v -0.50198746 1.0795212 -3.6326532
v -0.447052 1.0411224 -3.6217632
v -0.37914658 1.0411224 -3.6217632
v -0.32421494 1.0795212 -3.6326532
v -0.3032303 1.1416473 -3.6502743
v 0.49214172 1.2034988 -3.6678944
v 0.40325546 1.141365 -3.6502743
v 0.43720627 1.2418976 -3.6787844
v 0.36930084 1.2418976 -3.6787844
v 0.3143673 1.2034988 -3.6678944
v 0.29338455 1.141365 -3.6502743
v 0.3143673 1.0792389 -3.6326532
v 0.36930084 1.0408401 -3.6217632
v 0.43720627 1.0408401 -3.6217632
v 0.49214172 1.0792389 -3.6326532
v 0.5131264 1.141365 -3.6502743
v 0.49214172 0.93665314 -3.5936623
v 0.40325165 0.874527 -3.5760422
v 0.43720627 0.9750519 -3.6045532
v 0.36930084 0.9750519 -3.6045532
v 0.3143673 0.93665314 -3.5936623
v 0.29338264 0.874527 -3.5760422
v 0.3143673 0.8123932 -3.558422
v 0.36930084 0.77399445 -3.5475311
v 0.43720627 0.77399445 -3.5475311
v 0.49214172 0.8123932 -3.558422
v 0.51312256 0.874527 -3.5760422
v 0.22206688 0.93665314 -3.5936623
v 0.13318062 0.874527 -3.5760422
v 0.16713142 0.9750519 -3.6045532
v 0.09922886 0.9750519 -3.6045532
v 0.044293404 0.93665314 -3.5936623
v 0.023309946 0.874527 -3.5760422
v 0.044293404 0.8123932 -3.558422
v 0.09922886 0.77399445 -3.5475311
v 0.16713142 0.77399445 -3.5475311
v 0.22206688 0.8123932 -3.558422
v 0.24304962 0.874527 -3.5760422
v -0.056047916 0.93665314 -3.5936623
v -0.14493465 0.874527 -3.5760422
v -0.110982895 0.9750519 -3.6045532
v -0.17888641 0.9750519 -3.6045532
v -0.23382187 0.93665314 -3.5936623
v -0.2548046 0.874527 -3.5760422
v -0.23382187 0.8123932 -3.558422
v -0.17888641 0.77399445 -3.5475311
v -0.110982895 0.77399445 -3.5475311
v -0.056047916 0.8123932 -3.558422
v -0.03506446 0.874527 -3.5760422
v -0.3235321 0.93665314 -3.5936623
v -0.41241837 0.874527 -3.5760422
v -0.37846375 0.9750519 -3.6045532
v -0.44636917 0.9750519 -3.6045532
v -0.5013046 0.93665314 -3.5936623
v -0.52228546 0.874527 -3.5760422
v -0.5013046 0.8123932 -3.558422
v -0.44636917 0.77399445 -3.5475311
v -0.37846375 0.77399445 -3.5475311
v -0.3235321 0.8123932 -3.558422
v -0.30254745 0.874527 -3.5760422
vt 0.0929569 0.12542641
vt 0.07353377 0.11121613
vt 0.08095276 0.134148
vt 0.06611484 0.134148
vt 0.054110765 0.12542641
vt 0.0495255 0.11131477
vt 0.054110765 0.097203076
vt 0.06611484 0.088481605
vt 0.08095276 0.088481605
vt 0.0929569 0.097203076
vt 0.09754193 0.11131477
vt 0.0929569 0.12542641
vt 0.07353377 0.11121613
vt 0.08095276 0.134148
vt 0.06611484 0.134148
vt 0.054110765 0.12542641
vt 0.0495255 0.11131477
vt 0.054110765 0.097203076
vt 0.06611484 0.088481605
vt 0.08095276 0.088481605
vt 0.0929569 0.097203076
vt 0.09754193 0.11131477
vt 0.0929569 0.12542641
vt 0.07353377 0.11121613
vt 0.08095276 0.134148
vt 0.06611484 0.134148
vt 0.054110765 0.12542641
vt 0.0495255 0.11131477
vt 0.054110765 0.097203076
vt 0.06611484 0.088481605
vt 0.08095276 0.088481605
vt 0.0929569 0.097203076
vt 0.09754193 0.11131477
vt 0.0929569 0.12542641
vt 0.07353377 0.11121613
vt 0.08095276 0.134148
vt 0.06611484 0.134148
vt 0.054110765 0.12542641
vt 0.0495255 0.11131477
vt 0.054110765 0.097203076
vt 0.06611484 0.088481605
vt 0.08095276 0.088481605
vt 0.0929569 0.097203076
vt 0.09754193 0.11131477
vt 0.0929569 0.12542641
vt 0.07353377 0.11121613
vt 0.08095276 0.134148
vt 0.06611484 0.134148
vt 0.054110765 0.12542641
vt 0.0495255 0.11131477
vt 0.054110765 0.097203076
vt 0.06611484 0.088481605
vt 0.08095276 0.088481605
vt 0.0929569 0.097203076
vt 0.09754193 0.11131477
vt 0.0929569 0.12542641
vt 0.07353377 0.11121613
vt 0.08095276 0.134148
vt 0.06611484 0.134148
vt 0.054110765 0.12542641
vt 0.0495255 0.11131477
vt 0.054110765 0.097203076
vt 0.06611484 0.088481605
vt 0.08095276 0.088481605
vt 0.0929569 0.097203076
vt 0.09754193 0.11131477
vt 0.0929569 0.12542641
vt 0.07353377 0.11121613
vt 0.08095276 0.134148
vt 0.06611484 0.134148
vt 0.054110765 0.12542641
vt 0.0495255 0.11131477
vt 0.054110765 0.097203076
vt 0.06611484 0.088481605
vt 0.08095276 0.088481605
vt 0.0929569 0.097203076
vt 0.09754193 0.11131477
vt 0.0929569 0.12542641
vt 0.07353377 0.11121613
vt 0.08095276 0.134148
vt 0.06611484 0.134148
vt 0.054110765 0.12542641
vt 0.0495255 0.11131477
vt 0.054110765 0.097203076
vt 0.06611484 0.088481605
vt 0.08095276 0.088481605
vt 0.0929569 0.097203076
vt 0.09754193 0.11131477
vt 0.0929569 0.12542641
vt 0.07353377 0.11121613
vt 0.08095276 0.134148
vt 0.06611484 0.134148
vt 0.054110765 0.12542641
vt 0.0495255 0.11131477
vt 0.054110765 0.097203076
vt 0.06611484 0.088481605
vt 0.08095276 0.088481605
vt 0.0929569 0.097203076
vt 0.09754193 0.11131477
vt 0.0929569 0.12542641
vt 0.07353377 0.11121613
vt 0.08095276 0.134148
vt 0.06611484 0.134148
vt 0.054110765 0.12542641
vt 0.0495255 0.11131477
vt 0.054110765 0.097203076
vt 0.06611484 0.088481605
vt 0.08095276 0.088481605
vt 0.0929569 0.097203076
vt 0.09754193 0.11131477
vt 0.0929569 0.12542641
vt 0.07353377 0.11121613
vt 0.08095276 0.134148
vt 0.06611484 0.134148
vt 0.054110765 0.12542641
vt 0.0495255 0.11131477
vt 0.054110765 0.097203076
vt 0.06611484 0.088481605
vt 0.08095276 0.088481605
vt 0.0929569 0.097203076
vt 0.09754193 0.11131477
vt 0.0929569 0.12542641
vt 0.07353377 0.11121613
vt 0.08095276 0.134148
vt 0.06611484 0.134148
vt 0.054110765 0.12542641
vt 0.0495255 0.11131477
vt 0.054110765 0.097203076
vt 0.06611484 0.088481605
vt 0.08095276 0.088481605
vt 0.0929569 0.097203076
vt 0.09754193 0.11131477
vt 0.0929569 0.12542641
vt 0.07353377 0.11121613
vt 0.08095276 0.134148
vt 0.06611484 0.134148
vt 0.054110765 0.12542641
vt 0.0495255 0.11131477
vt 0.054110765 0.097203076
vt 0.06611484 0.088481605
vt 0.08095276 0.088481605
vt 0.0929569 0.097203076
vt 0.09754193 0.11131477
vt 0.0929569 0.12542641
vt 0.07353377 0.11121613
vt 0.08095276 0.134148
vt 0.06611484 0.134148
vt 0.054110765 0.12542641
vt 0.0495255 0.11131477
vt 0.054110765 0.097203076
vt 0.06611484 0.088481605
vt 0.08095276 0.088481605
vt 0.0929569 0.097203076
vt 0.09754193 0.11131477
vt 0.0929569 0.12542641
vt 0.07353377 0.11121613
vt 0.08095276 0.134148
vt 0.06611484 0.134148
vt 0.054110765 0.12542641
vt 0.0495255 0.11131477
vt 0.054110765 0.097203076
vt 0.06611484 0.088481605
vt 0.08095276 0.088481605
vt 0.0929569 0.097203076
vt 0.09754193 0.11131477
vt 0.0929569 0.12542641
vt 0.07353377 0.11121613
vt 0.08095276 0.134148
vt 0.06611484 0.134148
vt 0.054110765 0.12542641
vt 0.0495255 0.11131477
vt 0.054110765 0.097203076
vt 0.06611484 0.088481605
vt 0.08095276 0.088481605
vt 0.0929569 0.097203076
vt 0.09754193 0.11131477
vn -1.2601034E-05 -0.27116206 -0.96253365
vn -0 -0.27118674 -0.96252674
vn -1.2600223E-05 -0.2711742 -0.96253026
vn 1.2599841E-05 -0.27117443 -0.96253026
vn 1.2601141E-05 -0.27116218 -0.96253365
vn -0 -0.27118552 -0.96252704
vn -0 -0.2712113 -0.9625199
vn -0 -0.27120084 -0.96252286
vn -0 -0.271201 -0.96252275
vn -0 -0.2712112 -0.9625199
vn -0 -0.27118537 -0.96252716
vn -1.2600764E-05 -0.27116182 -0.9625338
vn -0 -0.27118683 -0.96252674
vn -1.2600083E-05 -0.2711743 -0.96253026
vn 1.2600069E-05 -0.27117452 -0.96253026
vn 1.2600744E-05 -0.27116206 -0.96253365
vn -0 -0.27118504 -0.9625273
vn -0 -0.27121115 -0.9625199
vn -0 -0.2712012 -0.9625226
vn -0 -0.27120137 -0.9625226
vn -0 -0.2712116 -0.96251976
vn -0 -0.2711853 -0.96252716
vn -1.2600889E-05 -0.27116206 -0.96253365
vn -0 -0.2711868 -0.96252674
vn -1.26001005E-05 -0.2711742 -0.9625304
vn 1.2600153E-05 -0.2711744 -0.96253026
vn 1.2600653E-05 -0.27116197 -0.96253365
vn -0 -0.27118525 -0.96252716
vn -0 -0.27121136 -0.96251976
vn -0 -0.27120098 -0.96252275
vn -0 -0.2712011 -0.96252275
vn -0 -0.27121115 -0.9625199
vn -0 -0.27118525 -0.96252716
vn -1.26005825E-05 -0.27116224 -0.96253365
vn -0 -0.2711868 -0.96252674
vn -1.26000405E-05 -0.27117437 -0.96253026
vn 1.2599938E-05 -0.27117446 -0.96253026
vn 1.2601114E-05 -0.27116194 -0.96253365
vn -0 -0.27118504 -0.9625273
vn -0 -0.27121142 -0.96251976
vn -0 -0.2712012 -0.9625226
vn -0 -0.2712012 -0.96252275
vn -0 -0.27121115 -0.9625199
vn -0 -0.2711851 -0.9625273
vn -0 -0.27119762 -0.96252364
vn -0 -0.27120116 -0.96252275
vn -0 -0.2712073 -0.96252096
vn -0 -0.2712074 -0.96252084
vn -0 -0.27119783 -0.96252364
vn -0 -0.271193 -0.96252495
vn -0 -0.2712031 -0.9625221
vn -0 -0.27120474 -0.96252173
vn -0 -0.27120486 -0.9625216
vn -0 -0.27120298 -0.9625222
vn -0 -0.27119276 -0.96252507
vn -0 -0.2711756 -0.9625299
vn -0 -0.2711889 -0.96252614
vn -0 -0.27116838 -0.9625319
vn -0 -0.27116823 -0.96253204
vn -0 -0.27117565 -0.9625299
vn -0 -0.27119288 -0.96252495
vn -0 -0.27120298 -0.9625222
vn -0 -0.27120483 -0.9625216
vn -0 -0.271205 -0.9625216
vn -0 -0.271203 -0.9625222
vn -0 -0.27119264 -0.96252507
vn -1.6800801E-05 -0.27120394 -0.962522
vn -0 -0.2712046 -0.96252173
vn -1.6801449E-05 -0.27121824 -0.96251786
vn 1.6801449E-05 -0.27121824 -0.96251786
vn 1.680089E-05 -0.27120402 -0.962522
vn -0 -0.2711928 -0.96252507
vn -0 -0.27120307 -0.9625222
vn -0 -0.27120492 -0.9625216
vn -0 -0.27120486 -0.9625216
vn -0 -0.27120313 -0.9625221
vn -0 -0.27119285 -0.96252507
vn -0 -0.27119756 -0.96252376
vn -0 -0.27118888 -0.96252614
vn -0 -0.27120733 -0.96252096
vn -0 -0.27120736 -0.96252096
vn -0 -0.2711975 -0.96252376
vn -0 -0.27119288 -0.96252507
vn 1.6801037E-05 -0.271181 -0.96252835
vn 1.6800115E-05 -0.27116573 -0.9625327
vn -1.2600215E-05 -0.27116588 -0.9625327
vn -1.2600803E-05 -0.27118093 -0.96252835
vn -0 -0.27119273 -0.96252507
vn -0 0.27285275 0.9620558
vn -0 0.2728461 0.96205765
vn -0 0.27285022 0.96205646
vn -0 0.27285013 0.9620566
vn -0 0.27285287 0.9620558
vn -0 0.2728474 0.96205735
vn -0 0.27283987 0.96205944
vn -0 0.27284086 0.9620592
vn -0 0.27284062 0.9620592
vn -0 0.2728396 0.96205956
vn -0 0.27284712 0.96205735
vn -0 0.27282935 0.9620624
vn -0 0.27284613 0.96205765
vn -0 0.272833 0.9620614
vn -0 0.27283302 0.9620614
vn -0 0.27282938 0.9620624
vn -0 0.2728471 0.96205735
vn -0 0.27286306 0.96205294
vn -0 0.27285796 0.9620544
vn -0 0.27285784 0.9620544
vn -0 0.27286315 0.9620528
vn -0 0.27284738 0.96205735
vn -0 0.27282932 0.9620624
vn -0 0.272846 0.96205765
vn -0 0.2728328 0.9620615
vn -0 0.2728328 0.9620615
vn -0 0.27282962 0.9620624
vn -0 0.27284735 0.96205735
vn -0 0.27286264 0.96205306
vn -0 0.2728577 0.9620545
vn -0 0.27285758 0.9620545
vn -0 0.27286288 0.96205294
vn -0 0.2728474 0.96205735
vn -0 0.2728301 0.9620622
vn -0 0.27284622 0.96205765
vn -0 0.27283293 0.9620614
vn -0 0.27283287 0.9620614
vn -0 0.27282983 0.9620623
vn -0 0.2728474 0.96205735
vn -0 0.27286297 0.96205294
vn -0 0.27285793 0.9620544
vn -0 0.27285782 0.9620544
vn -0 0.2728628 0.96205306
vn -0 0.2728476 0.96205735
vn -0 0.27285817 0.96205425
vn -0 0.27284715 0.96205735
vn -0 0.2728598 0.96205384
vn -0 0.27285993 0.96205384
vn -0 0.27285826 0.96205425
vn -0 0.27284023 0.9620593
vn -0 0.27283472 0.96206087
vn -0 0.27284276 0.96205866
vn -0 0.27284262 0.96205866
vn -0 0.27283475 0.962061
vn -0 0.27284044 0.9620593
vn -0 0.2728582 0.96205425
vn -0 0.27284712 0.96205735
vn -0 0.27285975 0.96205384
vn -0 0.2728599 0.96205384
vn -0 0.27285838 0.96205425
vn -0 0.2728405 0.9620593
vn -0 0.2728349 0.96206087
vn -0 0.27284262 0.96205866
vn -0 0.27284274 0.96205866
vn -0 0.27283472 0.962061
vn -0 0.27284023 0.9620593
vn -0 0.27285856 0.96205413
vn -0 0.27284732 0.96205735
vn -0 0.27286035 0.9620536
vn -0 0.27286008 0.9620537
vn -0 0.27285835 0.96205425
vn -0 0.2728403 0.9620593
vn -0 0.27283463 0.962061
vn -0 0.2728426 0.9620588
vn -0 0.27284265 0.96205866
vn -0 0.2728349 0.96206087
vn -0 0.27284053 0.9620592
vn -0 0.2728581 0.96205425
vn -0 0.2728471 0.96205735
vn -0 0.27285984 0.96205384
vn -0 0.27285993 0.96205384
vn -0 0.27285826 0.96205425
vn -0 0.2728403 0.9620593
vn -0 0.27283472 0.962061
vn -0 0.27284276 0.96205866
vn -0 0.27284276 0.96205866
vn -0 0.27283475 0.962061
vn -0 0.27284026 0.9620593
g LArtTurret02_mesh_0
f 3/3/3 2/2/2 1/1/1
f 4/4/4 2/2/2 3/3/3
f 5/5/5 2/2/2 4/4/4
f 6/6/6 2/2/2 5/5/5
f 7/7/7 2/2/2 6/6/6
f 8/8/8 2/2/2 7/7/7
f 9/9/9 2/2/2 8/8/8
f 10/10/10 2/2/2 9/9/9
f 11/11/11 2/2/2 10/10/10
f 1/1/1 2/2/2 11/11/11
f 14/14/14 13/13/13 12/12/12
f 15/15/15 13/13/13 14/14/14
f 16/16/16 13/13/13 15/15/15
f 17/17/17 13/13/13 16/16/16
f 18/18/18 13/13/13 17/17/17
f 19/19/19 13/13/13 18/18/18
f 20/20/20 13/13/13 19/19/19
f 21/21/21 13/13/13 20/20/20
f 22/22/22 13/13/13 21/21/21
f 12/12/12 13/13/13 22/22/22
f 25/25/25 24/24/24 23/23/23
f 26/26/26 24/24/24 25/25/25
f 27/27/27 24/24/24 26/26/26
f 28/28/28 24/24/24 27/27/27
f 29/29/29 24/24/24 28/28/28
f 30/30/30 24/24/24 29/29/29
f 31/31/31 24/24/24 30/30/30
f 32/32/32 24/24/24 31/31/31
f 33/33/33 24/24/24 32/32/32
f 23/23/23 24/24/24 33/33/33
f 36/36/36 35/35/35 34/34/34
f 37/37/37 35/35/35 36/36/36
f 38/38/38 35/35/35 37/37/37
f 39/39/39 35/35/35 38/38/38
f 40/40/40 35/35/35 39/39/39
f 41/41/41 35/35/35 40/40/40
f 42/42/42 35/35/35 41/41/41
f 43/43/43 35/35/35 42/42/42
f 44/44/44 35/35/35 43/43/43
f 34/34/34 35/35/35 44/44/44
f 47/47/47 46/46/46 45/45/45
f 48/48/48 46/46/46 47/47/47
f 49/49/49 46/46/46 48/48/48
f 50/50/50 46/46/46 49/49/49
f 51/51/51 46/46/46 50/50/50
f 52/52/52 46/46/46 51/51/51
f 53/53/53 46/46/46 52/52/52
f 54/54/54 46/46/46 53/53/53
f 55/55/55 46/46/46 54/54/54
f 45/45/45 46/46/46 55/55/55
f 58/58/58 57/57/57 56/56/56
f 59/59/59 57/57/57 58/58/58
f 60/60/60 57/57/57 59/59/59
f 61/61/61 57/57/57 60/60/60
f 62/62/62 57/57/57 61/61/61
f 63/63/63 57/57/57 62/62/62
f 64/64/64 57/57/57 63/63/63
f 65/65/65 57/57/57 64/64/64
f 66/66/66 57/57/57 65/65/65
f 56/56/56 57/57/57 66/66/66
f 69/69/69 68/68/68 67/67/67
f 70/70/70 68/68/68 69/69/69
f 71/71/71 68/68/68 70/70/70
f 72/72/72 68/68/68 71/71/71
f 73/73/73 68/68/68 72/72/72
f 74/74/74 68/68/68 73/73/73
f 75/75/75 68/68/68 74/74/74
f 76/76/76 68/68/68 75/75/75
f 77/77/77 68/68/68 76/76/76
f 67/67/67 68/68/68 77/77/77
f 80/80/80 79/79/79 78/78/78
f 81/81/81 79/79/79 80/80/80
f 82/82/82 79/79/79 81/81/81
f 83/83/83 79/79/79 82/82/82
f 84/84/84 79/79/79 83/83/83
f 85/85/85 79/79/79 84/84/84
f 86/86/86 79/79/79 85/85/85
f 87/87/87 79/79/79 86/86/86
f 88/88/88 79/79/79 87/87/87
f 78/78/78 79/79/79 88/88/88
f 91/91/91 90/90/90 89/89/89
f 92/92/92 90/90/90 91/91/91
f 93/93/93 90/90/90 92/92/92
f 94/94/94 90/90/90 93/93/93
f 95/95/95 90/90/90 94/94/94
f 96/96/96 90/90/90 95/95/95
f 97/97/97 90/90/90 96/96/96
f 98/98/98 90/90/90 97/97/97
f 99/99/99 90/90/90 98/98/98
f 89/89/89 90/90/90 99/99/99
f 102/102/102 101/101/101 100/100/100
f 103/103/103 101/101/101 102/102/102
f 104/104/104 101/101/101 103/103/103
f 105/105/105 101/101/101 104/104/104
f 106/106/106 101/101/101 105/105/105
f 107/107/107 101/101/101 106/106/106
f 108/108/108 101/101/101 107/107/107
f 109/109/109 101/101/101 108/108/108
f 110/110/110 101/101/101 109/109/109
f 100/100/100 101/101/101 110/110/110
f 113/113/113 112/112/112 111/111/111
f 114/114/114 112/112/112 113/113/113
f 115/115/115 112/112/112 114/114/114
f 116/116/116 112/112/112 115/115/115
f 117/117/117 112/112/112 116/116/116
f 118/118/118 112/112/112 117/117/117
f 119/119/119 112/112/112 118/118/118
f 120/120/120 112/112/112 119/119/119
f 121/121/121 112/112/112 120/120/120
f 111/111/111 112/112/112 121/121/121
f 124/124/124 123/123/123 122/122/122
f 125/125/125 123/123/123 124/124/124
f 126/126/126 123/123/123 125/125/125
f 127/127/127 123/123/123 126/126/126
f 128/128/128 123/123/123 127/127/127
f 129/129/129 123/123/123 128/128/128
f 130/130/130 123/123/123 129/129/129
f 131/131/131 123/123/123 130/130/130
f 132/132/132 123/123/123 131/131/131
f 122/122/122 123/123/123 132/132/132
f 135/135/135 134/134/134 133/133/133
f 136/136/136 134/134/134 135/135/135
f 137/137/137 134/134/134 136/136/136
f 138/138/138 134/134/134 137/137/137
f 139/139/139 134/134/134 138/138/138
f 140/140/140 134/134/134 139/139/139
f 141/141/141 134/134/134 140/140/140
f 142/142/142 134/134/134 141/141/141
f 143/143/143 134/134/134 142/142/142
f 133/133/133 134/134/134 143/143/143
f 146/146/146 145/145/145 144/144/144
f 147/147/147 145/145/145 146/146/146
f 148/148/148 145/145/145 147/147/147
f 149/149/149 145/145/145 148/148/148
f 150/150/150 145/145/145 149/149/149
f 151/151/151 145/145/145 150/150/150
f 152/152/152 145/145/145 151/151/151
f 153/153/153 145/145/145 152/152/152
f 154/154/154 145/145/145 153/153/153
f 144/144/144 145/145/145 154/154/154
f 157/157/157 156/156/156 155/155/155
f 158/158/158 156/156/156 157/157/157
f 159/159/159 156/156/156 158/158/158
f 160/160/160 156/156/156 159/159/159
f 161/161/161 156/156/156 160/160/160
f 162/162/162 156/156/156 161/161/161
f 163/163/163 156/156/156 162/162/162
f 164/164/164 156/156/156 163/163/163
f 165/165/165 156/156/156 164/164/164
f 155/155/155 156/156/156 165/165/165
f 168/168/168 167/167/167 166/166/166
f 169/169/169 167/167/167 168/168/168
f 170/170/170 167/167/167 169/169/169
f 171/171/171 167/167/167 170/170/170
f 172/172/172 167/167/167 171/171/171
f 173/173/173 167/167/167 172/172/172
f 174/174/174 167/167/167 173/173/173
f 175/175/175 167/167/167 174/174/174
f 176/176/176 167/167/167 175/175/175
f 166/166/166 167/167/167 176/176/176
