g LaserTurretMeshes8_CorpsePart
v 0.6141895 -0.026710331 -0.20307952
v 0.5350923 -0.026710331 -0.17737985
v 0.5350923 -0.087399006 -0.17737985
v 0.6141895 -0.087399006 -0.20307952
v 0.6630806 -0.026710331 -0.13577992
v 0.6630806 -0.087399006 -0.13577992
v 0.6141895 -0.026710331 -0.06850159
v 0.6141895 -0.087399006 -0.06850159
v 0.5350923 -0.026710331 -0.09420127
v 0.5350923 -0.087399006 -0.09420127
v 0.7731705 -0.0836578 0.21610814
v 0.47387218 -0.0836578 0.21634191
v 0.47387218 -0.0836578 -0.23358327
v 0.7729579 -0.0836578 -0.23311561
v 0.7730854 -0.54374385 -0.23334944
v 0.46766514 -0.54374385 -0.23358327
v 0.46766514 -0.54374385 0.21634191
v 0.77287287 -0.54374385 0.21587425
v 0.832605 -0.18379945 0.21634191
v 0.84931296 -0.30949193 0.21634191
v 0.47387218 -0.0836578 0.21634191
v 0.8343055 -0.43535453 0.21634191
v 0.46766514 -0.54374385 0.21634191
v 0.7731705 -0.0836578 0.21610814
v 0.7729579 -0.0836578 -0.23311561
v 0.47387218 -0.0836578 -0.23358327
v 0.832605 -0.18379945 -0.23358327
v 0.832605 -0.18379945 -0.23358327
v 0.832605 -0.18379945 0.21634191
v 0.7731705 -0.0836578 0.21610814
v 0.7729579 -0.0836578 -0.23311561
v 0.77287287 -0.54374385 0.21587425
v 0.8343055 -0.43535453 -0.23358327
v 0.46766514 -0.54374385 -0.23358327
v 0.7730854 -0.54374385 -0.23334944
v 0.7730854 -0.54374385 -0.23334944
v 0.77287287 -0.54374385 0.21587425
v 0.8343055 -0.43535453 0.21634191
v 0.8343055 -0.43535453 -0.23358327
v 0.47387218 -0.0836578 0.21634191
v 0.46766514 -0.54374385 0.21634191
v 0.46766514 -0.54374385 -0.23358327
v 0.47387218 -0.0836578 -0.23358327
v 0.84931296 -0.30949193 -0.23358327
v 0.84931296 -0.30949193 0.21634191
v 0.84931296 -0.30949193 -0.23358327
v 0.46902558 0.06771314 -0.13577992
v 0.55518013 0.06771314 -0.2543726
v 0.55518013 0.06771314 -0.017187238
v 0.48207736 -0.037062526 -0.13577992
v 0.55826235 -0.037062526 -0.24064058
v 0.55518013 0.06771314 -0.2543726
v 0.46902558 0.06771314 -0.13577992
v 0.69460464 0.06771314 -0.20907396
v 0.6815316 -0.037062526 -0.20059246
v 0.69460464 0.06771314 -0.062485874
v 0.6815316 -0.037062526 -0.070988655
v 0.55518013 0.06771314 -0.017187238
v 0.55826235 -0.037062526 -0.030940473
v 0.69460464 0.06771314 -0.20907396
v 0.69460464 0.06771314 -0.062485874
v 0.20397228 0.4326318 -0.20063496
v 0.24129957 0.4347362 -0.1731497
v 0.2227422 0.50401264 -0.10142863
v 0.1783151 0.52843696 -0.10142863
v 0.22965074 0.33680528 -0.10142863
v 0.25985688 0.36545962 -0.10142863
v 0.20397228 0.4326318 -0.0022435784
v 0.24129957 0.4347362 -0.02970761
v 0.25985688 0.36545962 -0.10142863
v 0.22965074 0.33680528 -0.10142863
v 0.11624473 0.521656 -0.09568924
v 0.11624473 0.42440528 -0.19527823
v 0.20397228 0.4326318 -0.20063496
v 0.1783151 0.52843696 -0.10142863
v 0.11624473 0.32715458 -0.09568924
v 0.22965074 0.33680528 -0.10142863
v 0.11624473 0.32715458 -0.09568924
v 0.11624473 0.42440528 0.0038784742
v 0.20397228 0.4326318 -0.0022435784
v 0.22965074 0.33680528 -0.10142863
v 0.59233737 0.100066304 -0.23819602
v 0.59233737 0.12004787 -0.20569414
v 0.52242315 0.12004787 -0.1358012
v 0.48994246 0.100066304 -0.13577992
v 0.6947322 0.100066304 -0.13577992
v 0.66223025 0.12004787 -0.1358012
v 0.59233737 0.100066304 -0.03338504
v 0.59233737 0.12004787 -0.065886974
v 0.48994246 0.100066304 -0.13577992
v 0.52242315 0.12004787 -0.1358012
v 0.49978444 0.062335134 -0.13577992
v 0.59233737 0.062335134 -0.22835404
v 0.59233737 0.100066304 -0.23819602
v 0.48994246 0.100066304 -0.13577992
v 0.6848902 0.062335134 -0.13577992
v 0.6947322 0.100066304 -0.13577992
v 0.59233737 0.062335134 -0.043227017
v 0.59233737 0.100066304 -0.03338504
v 0.49978444 0.062335134 -0.13577992
v 0.48994246 0.100066304 -0.13577992
v 0.5723345 0.42213076 -0.16570973
v 0.51302755 0.37723607 -0.23026717
v 0.5833669 0.2237181 -0.2358365
v 0.66322935 0.2358771 -0.16866446
v 0.5346884 0.36658627 -0.09256446
v 0.5819427 0.2419141 -0.09845263
v 0.47536016 0.32169157 -0.15767461
v 0.51536584 0.22969133 -0.16690016
v 0.47536016 0.32169157 -0.15767461
v 0.51536584 0.22969133 -0.16690016
v 0.40806058 0.49359673 -0.12617177
v 0.3844866 0.42572325 -0.19213217
v 0.40621123 0.42714745 -0.054599524
v 0.3830411 0.3590613 -0.1207512
v 0.3830411 0.3590613 -0.1207512
v 0.52242315 0.12004787 -0.1358012
v 0.59233737 0.12004787 -0.20569414
v 0.66223025 0.12004787 -0.1358012
v 0.59233737 0.12004787 -0.065886974
v 0.52242315 0.12004787 -0.1358012
v 0.2227422 0.50401264 -0.10142863
v 0.24129957 0.4347362 -0.1731497
v 0.25985688 0.36545962 -0.10142863
v 0.25985688 0.36545962 -0.10142863
v 0.24129957 0.4347362 -0.02970761
v 0.21107215 0.4344173 0.01931101
v 0.22070158 0.43698937 0.056128085
v 0.20093256 0.5107724 0.1325044
v 0.18178004 0.5437632 0.1325044
v 0.24036425 0.3250926 0.1325044
v 0.24047053 0.36322767 0.1325044
v 0.21107215 0.4344173 0.24567658
v 0.22070158 0.43698937 0.20888072
v 0.24047053 0.36322767 0.1325044
v 0.24036425 0.3250926 0.1325044
v 0.10378814 0.54329556 0.13261074
v 0.10378814 0.42436272 0.010850728
v 0.21107215 0.4344173 0.01931101
v 0.18178004 0.5437632 0.1325044
v 0.10378814 0.30543 0.13261074
v 0.24036425 0.3250926 0.1325044
v 0.10378814 0.30543 0.13261074
v 0.10378814 0.42436272 0.25439197
v 0.21107215 0.4344173 0.24567658
v 0.24036425 0.3250926 0.1325044
v 0.5975878 -0.039060652 -0.019227862
v 0.5975878 -0.007940412 0.01633501
v 0.52112645 -0.007940412 0.092796385
v 0.48554227 -0.039060652 0.092796385
v 0.70963335 -0.039060652 0.092796385
v 0.67404914 -0.007940412 0.092796385
v 0.5975878 -0.039060652 0.20484191
v 0.5975878 -0.007940412 0.16927904
v 0.48554227 -0.039060652 0.092796385
v 0.52112645 -0.007940412 0.092796385
v 0.48554227 -0.102767825 0.092796385
v 0.5975878 -0.102767825 -0.019227862
v 0.70963335 -0.102767825 0.092796385
v 0.5975878 -0.102767825 0.20484191
v 0.48554227 -0.102767825 0.092796385
v 0.5723345 0.42213076 0.07880932
v 0.51302755 0.37723607 0.014230609
v 0.5806885 0.22794825 0.0057065487
v 0.6557044 0.23179573 0.07647103
v 0.5346884 0.36658627 0.15195459
v 0.5812837 0.23156196 0.15214592
v 0.47536016 0.32169157 0.086844444
v 0.5104979 0.2276507 0.078277886
v 0.47536016 0.32169157 0.086844444
v 0.5104979 0.2276507 0.078277886
v 0.40806058 0.49359673 0.11105615
v 0.3844866 0.42572325 0.04509574
v 0.40621123 0.42714745 0.18262833
v 0.3830411 0.3590613 0.116476655
v 0.3830411 0.3590613 0.116476655
v 0.20093256 0.5107724 0.1325044
v 0.22070158 0.43698937 0.056128085
v 0.24047053 0.36322767 0.1325044
v 0.24047053 0.36322767 0.1325044
v 0.22070158 0.43698937 0.20888072
v 0.5975878 -0.007940412 0.01633501
v 0.52112645 -0.007940412 0.092796385
v 0.52112645 -0.007940412 0.092796385
v 0.5975878 -0.007940412 0.16927904
v 0.67404914 -0.007940412 0.092796385
v 0.10378814 0.42436272 0.010850728
v 0.10378814 0.54329556 0.13261074
v 0.10378814 0.42436272 0.25439197
v 0.10378814 0.30543 0.13261074
v 0.11624473 0.42440528 -0.19527823
v 0.11624473 0.521656 -0.09568924
v 0.11624473 0.42440528 0.0038784742
v 0.11624473 0.32715458 -0.09568924
vt 0.13001785 0.3994826
vt 0.12776425 0.3994826
vt 0.12776425 0.3978729
vt 0.13001785 0.3978729
vt 0.13227144 0.3994826
vt 0.13227144 0.3978729
vt 0.13484697 0.3994826
vt 0.13484697 0.3978729
vt 0.13710055 0.3994826
vt 0.13710055 0.3978729
vt 0.19279638 0.3988387
vt 0.19279638 0.4065653
vt 0.18024066 0.4065653
vt 0.18024066 0.3988387
vt 0.1663972 0.4065653
vt 0.1663972 0.3988387
vt 0.17927484 0.3988387
vt 0.17927484 0.4065653
vt 0.16671914 0.41976488
vt 0.16671914 0.41622353
vt 0.17573349 0.4229843
vt 0.16671914 0.41268218
vt 0.17605543 0.4088189
vt 0.16736302 0.4229843
vt 0.15416344 0.4229843
vt 0.14547102 0.4229843
vt 0.15480731 0.41976488
vt 0.15480731 0.41976488
vt 0.16671914 0.41976488
vt 0.16736302 0.4229843
vt 0.15416344 0.4229843
vt 0.16736302 0.40946278
vt 0.15480731 0.41268218
vt 0.14547102 0.40849695
vt 0.15416344 0.40946278
vt 0.15416344 0.40946278
vt 0.16736302 0.40946278
vt 0.16671914 0.41268218
vt 0.15480731 0.41268218
vt 0.19633773 0.42652565
vt 0.19633773 0.43328643
vt 0.18989891 0.43328643
vt 0.18989891 0.42652565
vt 0.15480731 0.41622353
vt 0.16671914 0.41622353
vt 0.15480731 0.41622353
vt 0.20696178 0.4207307
vt 0.20792761 0.41783324
vt 0.20921537 0.42266235
vt 0.20503014 0.4213746
vt 0.20663984 0.41622353
vt 0.20792761 0.41783324
vt 0.20696178 0.4207307
vt 0.21082509 0.41783324
vt 0.21211284 0.41622353
vt 0.2117909 0.4207307
vt 0.21372256 0.4213746
vt 0.20921537 0.42266235
vt 0.20921537 0.424594
vt 0.21082509 0.41783324
vt 0.2117909 0.4207307
vt 0.18024066 0.39433154
vt 0.18024066 0.39368767
vt 0.1844259 0.39368767
vt 0.1844259 0.39465347
vt 0.17637737 0.39433154
vt 0.17637737 0.39368767
vt 0.18861113 0.39433154
vt 0.18861113 0.39368767
vt 0.19247442 0.39368767
vt 0.19247442 0.39433154
vt 0.1844259 0.39722902
vt 0.18024066 0.39722902
vt 0.18024066 0.39433154
vt 0.1844259 0.39465347
vt 0.17637737 0.39722902
vt 0.17637737 0.39433154
vt 0.19247442 0.39722902
vt 0.18861113 0.39722902
vt 0.18861113 0.39433154
vt 0.19247442 0.39433154
vt 0.13033979 0.3956193
vt 0.13033979 0.39626318
vt 0.1264765 0.39626318
vt 0.1264765 0.3956193
vt 0.13420309 0.3956193
vt 0.13420309 0.39626318
vt 0.13774444 0.3956193
vt 0.13774444 0.39626318
vt 0.14160773 0.3956193
vt 0.14160773 0.39626318
vt 0.1264765 0.39465347
vt 0.13033979 0.39465347
vt 0.13033979 0.3956193
vt 0.1264765 0.3956193
vt 0.13420309 0.39465347
vt 0.13420309 0.3956193
vt 0.13774444 0.39465347
vt 0.13774444 0.3956193
vt 0.14160773 0.39465347
vt 0.14160773 0.3956193
vt 0.13549085 0.41622353
vt 0.13549085 0.41300413
vt 0.13871026 0.41268218
vt 0.13871026 0.41622353
vt 0.13549085 0.41944295
vt 0.13871026 0.41976488
vt 0.13549085 0.42266235
vt 0.13871026 0.42266235
vt 0.13549085 0.4097847
vt 0.13871026 0.4097847
vt 0.13227144 0.41622353
vt 0.13227144 0.41300413
vt 0.13227144 0.41944295
vt 0.13227144 0.42266235
vt 0.13227144 0.4097847
vt 0.14257355 0.4097847
vt 0.14257355 0.41300413
vt 0.14257355 0.41622353
vt 0.14257355 0.41944295
vt 0.14257355 0.42266235
vt 0.12776425 0.41622353
vt 0.12776425 0.41300413
vt 0.12776425 0.4097847
vt 0.12776425 0.42266235
vt 0.12776425 0.41944295
vt 0.15448537 0.4526029
vt 0.15448537 0.451959
vt 0.1586706 0.451959
vt 0.1586706 0.45292482
vt 0.1499782 0.4526029
vt 0.1499782 0.451959
vt 0.16317779 0.4526029
vt 0.16317779 0.451959
vt 0.16736302 0.451959
vt 0.16736302 0.4526029
vt 0.1586706 0.4558223
vt 0.15448537 0.4558223
vt 0.15448537 0.4526029
vt 0.1586706 0.45292482
vt 0.1499782 0.4558223
vt 0.1499782 0.4526029
vt 0.16736302 0.4558223
vt 0.16317779 0.4558223
vt 0.16317779 0.4526029
vt 0.16736302 0.4526029
vt 0.15448537 0.39529735
vt 0.15448537 0.39433154
vt 0.15802673 0.39433154
vt 0.15802673 0.39529735
vt 0.15062208 0.39529735
vt 0.15062208 0.39433154
vt 0.1467588 0.39529735
vt 0.1467588 0.39433154
vt 0.14289549 0.39529735
vt 0.14289549 0.39433154
vt 0.15802673 0.39690706
vt 0.15448537 0.39690706
vt 0.15062208 0.39690706
vt 0.1467588 0.39690706
vt 0.14289549 0.39690706
vt 0.18539172 0.41557965
vt 0.18539172 0.41268218
vt 0.1882892 0.41236025
vt 0.1882892 0.41557965
vt 0.18539172 0.41847712
vt 0.1882892 0.41847712
vt 0.18539172 0.4213746
vt 0.1882892 0.4213746
vt 0.18539172 0.40946278
vt 0.1882892 0.40946278
vt 0.18249425 0.41557965
vt 0.18249425 0.41268218
vt 0.18249425 0.41847712
vt 0.18249425 0.4213746
vt 0.18249425 0.40946278
vt 0.17863096 0.41557965
vt 0.17863096 0.41268218
vt 0.17863096 0.40946278
vt 0.17863096 0.4213746
vt 0.17863096 0.41847712
vt 0.19472802 0.41268218
vt 0.19472802 0.40946278
vt 0.19472802 0.4213746
vt 0.19472802 0.41847712
vt 0.19472802 0.41557965
vt 0.15448537 0.4558223
vt 0.1586706 0.4558223
vt 0.16317779 0.4558223
vt 0.16736302 0.4558223
vt 0.18024066 0.39722902
vt 0.1844259 0.39722902
vt 0.18861113 0.39722902
vt 0.19247442 0.39722902
vn 0.30980158 0.003921509 -0.95079315
vn -0.8117584 0.003921509 -0.58398026
vn -0.8117584 0.003921509 -0.58398026
vn 0.30980158 0.003921509 -0.95079315
vn 0.9999924 0.003921509 -0
vn 0.9999924 0.003921509 -0
vn 0.30980158 0.003921509 0.95079315
vn 0.30980158 0.003921509 0.95079315
vn -0.8117584 0.003921509 0.58398026
vn -0.8117584 0.003921509 0.58398026
vn -0.003921509 0.99999225 -0.00034526698
vn -0.003921509 0.99999225 -0.00034526698
vn -0.003921509 0.99999225 -0.00034526698
vn -0.003921509 0.99999225 -0.00034526698
vn -0.003921509 -0.9999924 -0
vn -0.003921509 -0.9999924 -0
vn -0.003921509 -0.9999924 -0
vn -0.003921509 -0.9999924 -0
vn 0.0039215684 0.003921509 0.9999846
vn -0.003921509 0.003921509 0.9999846
vn 0.0039215684 0.003921509 0.9999846
vn 0.0039215684 -0.0039215684 0.9999846
vn 0.0039215684 -0.0039215684 0.9999846
vn 0.0039215684 0.003921509 0.9999846
vn 0.0039215684 0.003921509 -0.9999846
vn 0.0039215684 0.003921509 -0.9999846
vn 0.0039215684 0.003921509 -0.9999846
vn 0.94509083 0.3176446 -0.07684537
vn 0.94509083 0.3176446 -0.07684537
vn 0.85818374 0.5133427 -0
vn 0.85818374 0.5133427 -0
vn 0.0039215684 -0.0039215684 0.9999846
vn 0.0039215684 -0.0039215684 -0.9999846
vn 0.0039215684 -0.0039215684 -0.9999846
vn 0.0039215684 -0.0039215684 -0.9999846
vn 0.86666006 -0.49019235 0.09279986
vn 0.86666006 -0.49019235 0.09279986
vn 0.9510053 -0.30917457 -0
vn 0.9510053 -0.30917457 -0
vn -0.99993086 0.011763804 -0
vn -0.99993086 0.011763804 -0
vn -0.99993086 0.011763804 -0
vn -0.99993086 0.011763804 -0
vn -0.003921509 0.003921509 -0.9999846
vn 0.9999924 0.003921509 -0
vn 0.9999924 0.003921509 -0
vn -0.003921509 0.99999225 -0.00034526698
vn -0.003921509 0.99999225 -0.00034526698
vn -0.003921509 0.99999225 -0.00034526698
vn -0.99214923 -0.121567726 -0.029346028
vn -0.30980146 -0.1294108 -0.94195324
vn -0.30195844 -0.1294108 -0.94449663
vn -0.99214923 -0.121567726 -0.029346028
vn 0.80391544 -0.14509696 -0.57677275
vn 0.79607236 -0.14509696 -0.5875506
vn 0.80391544 -0.14509696 0.57677275
vn 0.79607236 -0.14509696 0.5875506
vn -0.30195844 -0.1294108 0.94449663
vn -0.30980146 -0.1294108 0.94195324
vn -0.003921509 0.99999225 -0.00034526698
vn -0.003921509 0.99999225 -0.00034526698
vn 0.5686231 0.24705684 -0.78462136
vn 0.5843093 0.10588145 -0.8045942
vn 0.48234928 0.874503 -0.05082935
vn 0.48234928 0.874503 -0.05082935
vn 0.6862693 -0.72548467 -0.052023727
vn 0.6862693 -0.72548467 -0.052023727
vn 0.5686231 0.24705684 0.78462136
vn 0.5843093 0.10588145 0.8045942
vn 0.6862693 -0.72548467 -0.052023727
vn 0.6862693 -0.72548467 -0.052023727
vn -0.098038435 0.99214923 0.07764248
vn -0.050979972 -0.19215542 -0.9800395
vn -0.043136835 -0.22352773 -0.97374254
vn -0.098038435 0.99214923 -0.07764248
vn 0.09019542 -0.9921493 0.086628996
vn 0.09019542 -0.9921493 -0.086628996
vn 0.09019542 -0.9921493 0.086628996
vn 0.07450926 -0.17646927 0.981482
vn 0.08235234 -0.20784158 0.97468966
vn 0.09019542 -0.9921493 -0.086628996
vn -0.003921509 0.85097384 -0.5251934
vn -0.003921509 0.85097384 -0.5251934
vn -0.5215646 0.85097384 -0.06175648
vn -0.5215646 0.85097384 0.06175648
vn 0.52156466 0.85097384 0.061755996
vn 0.52156466 0.85097384 -0.061755996
vn -0.003921509 0.85097384 0.5251934
vn -0.003921509 0.85097384 0.5251934
vn -0.5215646 0.85097384 0.06175648
vn -0.5215646 0.85097384 -0.06175648
vn -0.9670746 -0.25449336 -0
vn -0.003921509 -0.25490004 -0.9669595
vn -0.003921509 -0.25490004 -0.9669595
vn -0.9670746 -0.25449336 -0
vn 0.9670746 -0.25449333 -0
vn 0.9670746 -0.25449333 -0
vn -0.003921509 -0.25490004 0.9669595
vn -0.003921509 -0.25490004 0.9669595
vn -0.9670746 -0.25449336 -0
vn -0.9670746 -0.25449336 -0
vn 0.70195544 0.7019553 -0.12048767
vn 0.07450926 0.25489998 -0.9640925
vn 0.15294003 -0.019607723 -0.9880409
vn 0.960777 0.24705684 -0.12597814
vn 0.35686004 0.15293992 0.9215532
vn 0.17646927 0.1764692 0.968358
vn -0.70710677 -0.7071068 -0
vn -0.9607769 -0.26274312 -0.08873416
vn -0.70710677 -0.7071068 -0
vn -0.9607769 -0.26274312 -0.08873416
vn 0.22314373 0.97478557 -0
vn -0.1450969 0.19999838 -0.968993
vn 0.23921388 0.1764692 0.95479596
vn -0.19215536 -0.97646314 0.09795943
vn -0.19215536 -0.97646314 0.09795943
vn -0.9843061 -0.035293877 0.1729042
vn 0.043136954 -0.28627235 -0.95717674
vn 0.9843062 0.08235228 0.15607493
vn 0.05098003 0.25489998 0.9656226
vn -0.9843061 -0.035293877 0.1729042
vn 0.07450926 0.99214923 0.10044035
vn -0.12156761 0.21568453 -0.9688661
vn -0.035293818 -0.9921493 0.11997543
vn -0.035293818 -0.9921493 0.11997543
vn 0.15294003 0.262743 0.9526676
vn 0.9294047 0.24705684 -0.2741712
vn 0.9294047 0.24705684 -0.2741712
vn 0.86363715 0.5041139 -0
vn 0.86363715 0.5041139 -0
vn 0.9999924 -0.0039215684 -0
vn 0.9999924 -0.0039215684 -0
vn 0.9294047 0.24705684 0.2741712
vn 0.9294047 0.24705684 0.2741712
vn 0.9999924 -0.0039215684 -0
vn 0.9999924 -0.0039215684 -0
vn -0.011763804 0.99993086 -0
vn 0.08235234 -0.17646927 -0.98085505
vn 0.09019542 -0.1999985 -0.9756359
vn -0.011763804 0.99993086 -0
vn 0.15294003 -0.9843062 0.08803766
vn 0.15294003 -0.9843062 -0.08803766
vn 0.15294003 -0.9843062 0.08803766
vn 0.09019542 -0.17646927 0.980165
vn 0.09019542 -0.1999985 0.9756359
vn 0.15294003 -0.9843062 -0.08803766
vn -0.003921509 0.23137069 -0.9728578
vn -0.003921509 0.7490138 -0.6625428
vn -0.65489686 0.7490138 -0.100441545
vn -0.97305727 0.2305637 -0
vn 0.9730572 0.23056367 -0
vn 0.654897 0.7490138 -0.10044065
vn -0.003921509 0.23137069 0.9728578
vn -0.003921509 0.7490138 0.6625428
vn -0.97305727 0.2305637 -0
vn -0.65489686 0.7490138 -0.100441545
vn -0.99999225 0.003921509 -0.00034492963
vn -0.003921509 0.003921509 -0.9999846
vn 0.9999924 0.003921509 -0
vn -0.003921509 0.003921509 0.9999846
vn -0.99999225 0.003921509 -0.00034492963
vn 0.7176416 0.6941123 -0.05655664
vn 0.098038495 0.24705684 -0.9640287
vn 0.09019542 0.035293818 -0.9952985
vn 0.97646314 0.19999838 -0.08074903
vn 0.34901696 0.1764692 0.9203509
vn 0.121567726 0.098038435 0.98772955
vn -0.7301457 -0.68329155 -0
vn -0.9843061 -0.16862619 -0.052026216
vn -0.7301457 -0.68329155 -0
vn -0.9843061 -0.16862619 -0.052026216
vn 0.22314373 0.97478557 -0
vn -0.0901953 0.1764692 -0.980165
vn 0.21568465 0.1764692 0.96038467
vn -0.16862607 -0.9843062 0.052024297
vn -0.16862607 -0.9843062 0.052024297
vn 0.098038495 0.99214923 0.07764248
vn -0.05882299 0.21568453 -0.9746897
vn -0.019604046 -0.9998079 -0
vn -0.019604046 -0.9998079 -0
vn 0.14509696 0.262743 0.9538936
vn 0.0274508 -0.043136954 -0.998692
vn -0.998703 -0.050914306 -0
vn -0.998703 -0.050914306 -0
vn 0.043136954 0.08235228 0.9956693
vn 0.9966261 0.08207506 -0
vn -0.99999225 0.003921509 -0.00034492963
vn -0.99999225 0.003921509 -0.00034492963
vn -0.99999225 0.003921509 -0.00034492963
vn -0.99999225 0.003921509 -0.00034492963
vn -0.99999225 0.003921509 -0.00034492963
vn -0.99999225 0.003921509 -0.00034492963
vn -0.99999225 0.003921509 -0.00034492963
vn -0.99999225 0.003921509 -0.00034492963
g LaserTurretMeshes8_CorpsePart_0
f 3/3/3 2/2/2 1/1/1
f 4/4/4 3/3/3 1/1/1
f 4/4/4 1/1/1 5/5/5
f 6/6/6 4/4/4 5/5/5
f 6/6/6 5/5/5 7/7/7
f 8/8/8 6/6/6 7/7/7
f 8/8/8 7/7/7 9/9/9
f 10/10/10 8/8/8 9/9/9
f 10/10/10 9/9/9 2/2/2
f 3/3/3 10/10/10 2/2/2
f 13/13/13 12/12/12 11/11/11
f 14/14/14 13/13/13 11/11/11
f 17/17/17 16/16/16 15/15/15
f 18/18/18 17/17/17 15/15/15
f 21/21/21 20/20/20 19/19/19
f 23/23/23 22/22/22 20/20/20
f 21/21/21 23/23/23 20/20/20
f 24/24/24 21/21/21 19/19/19
f 27/27/27 26/26/26 25/25/25
f 30/30/30 29/29/29 28/28/28
f 31/31/31 30/30/30 28/28/28
f 22/22/22 23/23/23 32/32/32
f 35/35/35 34/34/34 33/33/33
f 38/38/38 37/37/37 36/36/36
f 39/39/39 38/38/38 36/36/36
f 42/42/42 41/41/41 40/40/40
f 43/43/43 42/42/42 40/40/40
f 27/27/27 44/44/44 26/26/26
f 33/33/33 34/34/34 26/26/26
f 44/44/44 33/33/33 26/26/26
f 46/46/46 45/45/45 38/38/38
f 39/39/39 46/46/46 38/38/38
f 28/28/28 29/29/29 45/45/45
f 46/46/46 28/28/28 45/45/45
f 49/49/49 48/48/48 47/47/47
f 52/52/52 51/51/51 50/50/50
f 53/53/53 52/52/52 50/50/50
f 51/51/51 52/52/52 54/54/54
f 55/55/55 51/51/51 54/54/54
f 55/55/55 54/54/54 56/56/56
f 57/57/57 55/55/55 56/56/56
f 57/57/57 56/56/56 58/58/58
f 59/59/59 57/57/57 58/58/58
f 59/59/59 58/58/58 53/53/53
f 50/50/50 59/59/59 53/53/53
f 60/60/60 48/48/48 49/49/49
f 61/61/61 60/60/60 49/49/49
f 64/64/64 63/63/63 62/62/62
f 65/65/65 64/64/64 62/62/62
f 63/63/63 67/67/67 66/66/66
f 62/62/62 63/63/63 66/66/66
f 70/70/70 69/69/69 68/68/68
f 71/71/71 70/70/70 68/68/68
f 69/69/69 64/64/64 65/65/65
f 68/68/68 69/69/69 65/65/65
f 74/74/74 73/73/73 72/72/72
f 75/75/75 74/74/74 72/72/72
f 77/77/77 76/76/76 73/73/73
f 74/74/74 77/77/77 73/73/73
f 80/80/80 79/79/79 78/78/78
f 81/81/81 80/80/80 78/78/78
f 75/75/75 72/72/72 79/79/79
f 80/80/80 75/75/75 79/79/79
f 84/84/84 83/83/83 82/82/82
f 85/85/85 84/84/84 82/82/82
f 83/83/83 87/87/87 86/86/86
f 82/82/82 83/83/83 86/86/86
f 87/87/87 89/89/89 88/88/88
f 86/86/86 87/87/87 88/88/88
f 89/89/89 91/91/91 90/90/90
f 88/88/88 89/89/89 90/90/90
f 94/94/94 93/93/93 92/92/92
f 95/95/95 94/94/94 92/92/92
f 97/97/97 96/96/96 93/93/93
f 94/94/94 97/97/97 93/93/93
f 99/99/99 98/98/98 96/96/96
f 97/97/97 99/99/99 96/96/96
f 101/101/101 100/100/100 98/98/98
f 99/99/99 101/101/101 98/98/98
f 104/104/104 103/103/103 102/102/102
f 105/105/105 104/104/104 102/102/102
f 105/105/105 102/102/102 106/106/106
f 107/107/107 105/105/105 106/106/106
f 107/107/107 106/106/106 108/108/108
f 109/109/109 107/107/107 108/108/108
f 111/111/111 110/110/110 103/103/103
f 104/104/104 111/111/111 103/103/103
f 112/112/112 102/102/102 103/103/103
f 113/113/113 112/112/112 103/103/103
f 114/114/114 106/106/106 102/102/102
f 112/112/112 114/114/114 102/102/102
f 115/115/115 108/108/108 106/106/106
f 114/114/114 115/115/115 106/106/106
f 113/113/113 103/103/103 110/110/110
f 116/116/116 113/113/113 110/110/110
f 104/104/104 118/118/118 117/117/117
f 111/111/111 104/104/104 117/117/117
f 119/119/119 118/118/118 104/104/104
f 105/105/105 119/119/119 104/104/104
f 107/107/107 120/120/120 119/119/119
f 105/105/105 107/107/107 119/119/119
f 109/109/109 121/121/121 120/120/120
f 107/107/107 109/109/109 120/120/120
f 122/122/122 112/112/112 113/113/113
f 123/123/123 122/122/122 113/113/113
f 123/123/123 113/113/113 116/116/116
f 124/124/124 123/123/123 116/116/116
f 125/125/125 115/115/115 114/114/114
f 126/126/126 125/125/125 114/114/114
f 126/126/126 114/114/114 112/112/112
f 122/122/122 126/126/126 112/112/112
f 129/129/129 128/128/128 127/127/127
f 130/130/130 129/129/129 127/127/127
f 128/128/128 132/132/132 131/131/131
f 127/127/127 128/128/128 131/131/131
f 135/135/135 134/134/134 133/133/133
f 136/136/136 135/135/135 133/133/133
f 134/134/134 129/129/129 130/130/130
f 133/133/133 134/134/134 130/130/130
f 139/139/139 138/138/138 137/137/137
f 140/140/140 139/139/139 137/137/137
f 142/142/142 141/141/141 138/138/138
f 139/139/139 142/142/142 138/138/138
f 145/145/145 144/144/144 143/143/143
f 146/146/146 145/145/145 143/143/143
f 140/140/140 137/137/137 144/144/144
f 145/145/145 140/140/140 144/144/144
f 149/149/149 148/148/148 147/147/147
f 150/150/150 149/149/149 147/147/147
f 148/148/148 152/152/152 151/151/151
f 147/147/147 148/148/148 151/151/151
f 152/152/152 154/154/154 153/153/153
f 151/151/151 152/152/152 153/153/153
f 154/154/154 156/156/156 155/155/155
f 153/153/153 154/154/154 155/155/155
f 147/147/147 158/158/158 157/157/157
f 150/150/150 147/147/147 157/157/157
f 151/151/151 159/159/159 158/158/158
f 147/147/147 151/151/151 158/158/158
f 153/153/153 160/160/160 159/159/159
f 151/151/151 153/153/153 159/159/159
f 155/155/155 161/161/161 160/160/160
f 153/153/153 155/155/155 160/160/160
f 164/164/164 163/163/163 162/162/162
f 165/165/165 164/164/164 162/162/162
f 165/165/165 162/162/162 166/166/166
f 167/167/167 165/165/165 166/166/166
f 167/167/167 166/166/166 168/168/168
f 169/169/169 167/167/167 168/168/168
f 171/171/171 170/170/170 163/163/163
f 164/164/164 171/171/171 163/163/163
f 172/172/172 162/162/162 163/163/163
f 173/173/173 172/172/172 163/163/163
f 174/174/174 166/166/166 162/162/162
f 172/172/172 174/174/174 162/162/162
f 175/175/175 168/168/168 166/166/166
f 174/174/174 175/175/175 166/166/166
f 173/173/173 163/163/163 170/170/170
f 176/176/176 173/173/173 170/170/170
f 177/177/177 172/172/172 173/173/173
f 178/178/178 177/177/177 173/173/173
f 178/178/178 173/173/173 176/176/176
f 179/179/179 178/178/178 176/176/176
f 180/180/180 175/175/175 174/174/174
f 181/181/181 180/180/180 174/174/174
f 181/181/181 174/174/174 172/172/172
f 177/177/177 181/181/181 172/172/172
f 171/171/171 164/164/164 182/182/182
f 183/183/183 171/171/171 182/182/182
f 167/167/167 169/169/169 184/184/184
f 185/185/185 167/167/167 184/184/184
f 164/164/164 165/165/165 186/186/186
f 182/182/182 164/164/164 186/186/186
f 165/165/165 167/167/167 185/185/185
f 186/186/186 165/165/165 185/185/185
f 189/189/189 188/188/188 187/187/187
f 190/190/190 189/189/189 187/187/187
f 193/193/193 192/192/192 191/191/191
f 194/194/194 193/193/193 191/191/191
