g LaserTurret_CustomizePart_CorpsePart
v -0.4495719 0.6957922 1.1775252
v -0.33194584 0.6957922 1.1775252
v -0.4495719 0.659371 1.1775252
v -0.13157761 0.9904957 0.96019685
v -0.4495719 0.95894635 0.96019685
v -0.21288681 0.8785751 0.96019685
v -0.33194584 0.92148316 1.1775252
v -0.4495719 0.92148316 1.1775252
v -0.4495719 0.95894635 1.1775252
v -1.3530254E-05 1.0332475 0.96019685
v -0.16807687 1.0827209 0.96019685
v -1.3530254E-05 1.0332475 1.1775252
v -0.13157761 0.9904957 1.1775252
v -0.16807687 1.0827209 1.1775252
v -0.4495719 0.659371 0.96019685
v -0.4495719 0.659371 1.1775252
v -0.16807687 0.53562266 1.1775252
v -0.16807687 0.53562266 0.96019685
v -0.16807687 0.53562266 0.96019685
v -0.13157761 0.62831676 0.96019685
v -0.4495719 0.659371 0.96019685
v -0.16807687 0.53562266 0.96019685
v -0.16807687 0.53562266 1.1775252
v -0.10940713 0.3605773 1.1775252
v -0.10940713 0.3605773 0.96019685
v -1.3530254E-05 0.58556485 0.96019685
v -0.21288681 0.74023736 0.96019685
v -0.4495719 0.92148316 1.1260458
v -0.3578418 0.92148316 1.1388375
v -0.3578418 0.6957922 1.1388375
v -0.4495719 0.6957922 1.1260458
v -0.13157761 0.62831676 1.1775252
v -0.21288681 0.74023736 1.1775252
v -0.21288681 0.74023736 0.96019685
v -0.13157761 0.62831676 0.96019685
v -1.3530254E-05 0.58556485 0.96019685
v -1.3530254E-05 0.58556485 1.1775252
v -0.21288681 0.74023736 1.1775252
v -0.21288681 0.8785751 1.1775252
v -0.21288681 0.8785751 0.96019685
v -0.21288681 0.74023736 0.96019685
v -0.13157761 0.62831676 1.1775252
v -1.3530254E-05 0.58556485 1.1775252
v -0.16807687 0.53562266 1.1775252
v -0.21288681 0.8785751 1.1775252
v -0.21288681 0.74023736 1.1775252
v -0.16807687 1.0827209 0.96019685
v -0.16807687 1.0827209 1.1775252
v -0.4495719 0.95894635 1.1775252
v -0.4495719 0.95894635 0.96019685
v -0.13157761 0.9904957 1.1775252
v -0.13157761 0.9904957 0.96019685
v -1.3530254E-05 1.0332475 1.1775252
v -1.3530254E-05 1.0332475 0.96019685
v -0.10940713 1.2577661 0.96019685
v -0.10940713 1.2577661 1.1775252
v -0.16807687 1.0827209 1.1775252
v -0.16807687 1.0827209 0.96019685
v -0.33194584 0.92148316 1.1775252
v -0.3578418 0.92148316 1.1388375
v -0.4495719 0.92148316 1.1260458
v -0.4495719 0.92148316 1.1775252
v -0.4495719 0.6957922 1.1260458
v -0.3578418 0.6957922 1.1388375
v -0.33194584 0.6957922 1.1775252
v -0.4495719 0.6957922 1.1775252
v -0.33194584 0.6957922 1.1775252
v -0.3578418 0.6957922 1.1388375
v -0.3578418 0.92148316 1.1388375
v -0.33194584 0.92148316 1.1775252
v -0.4495719 0.95894635 0.96019685
v -0.4495719 0.95894635 1.1775252
v -0.4495719 0.92148316 1.1775252
v -0.4495719 0.92148316 1.1260458
v 0.4495709 0.6957922 1.1775252
v 0.4495709 0.659371 1.1775252
v 0.3319448 0.6957922 1.1775252
v 0.3319448 0.92148316 1.1775252
v 0.4495709 0.95894635 1.1775252
v 0.4495709 0.92148316 1.1775252
v 0.4495709 0.659371 0.96019685
v 0.16807586 0.53562266 0.96019685
v 0.16807586 0.53562266 1.1775252
v 0.4495709 0.659371 1.1775252
v 0.4495709 0.659371 0.96019685
v 0.2128858 0.74023736 0.96019685
v 0.1315766 0.62831676 0.96019685
v 0.16807586 0.53562266 0.96019685
v 0.109406084 0.3605773 0.96019685
v 0.109406084 0.3605773 1.1775252
v 0.16807586 0.53562266 1.1775252
v 0.109406084 0.3605773 0.96019685
v -0.10940713 0.3605773 0.96019685
v -0.10940713 0.3605773 1.1775252
v 0.109406084 0.3605773 1.1775252
v 0.16807586 0.53562266 0.96019685
v 0.4495709 0.95894635 0.96019685
v 0.4495709 0.92148316 1.1260458
v 0.4495709 0.6957922 1.1260458
v 0.35784078 0.6957922 1.1388375
v 0.35784078 0.92148316 1.1388375
v 0.1315766 0.62831676 1.1775252
v 0.1315766 0.62831676 0.96019685
v 0.2128858 0.74023736 0.96019685
v 0.2128858 0.74023736 1.1775252
v 0.1315766 0.62831676 1.1775252
v 0.16807586 0.53562266 1.1775252
v 0.2128858 0.8785751 0.96019685
v 0.2128858 0.8785751 1.1775252
v 0.16807586 1.0827209 0.96019685
v 0.1315766 0.9904957 0.96019685
v 0.2128858 0.8785751 0.96019685
v 0.2128858 0.8785751 1.1775252
v 0.2128858 0.74023736 1.1775252
v 0.16807586 1.0827209 0.96019685
v 0.4495709 0.95894635 0.96019685
v 0.4495709 0.95894635 1.1775252
v 0.16807586 1.0827209 1.1775252
v 0.1315766 0.9904957 0.96019685
v 0.1315766 0.9904957 1.1775252
v 0.109406084 1.2577661 0.96019685
v 0.16807586 1.0827209 0.96019685
v 0.16807586 1.0827209 1.1775252
v 0.109406084 1.2577661 1.1775252
v 0.16807586 1.0827209 1.1775252
v 0.1315766 0.9904957 1.1775252
v -0.10940713 1.2577661 0.96019685
v 0.109406084 1.2577661 0.96019685
v 0.109406084 1.2577661 1.1775252
v -0.10940713 1.2577661 1.1775252
v -0.10940713 0.3605773 0.96019685
v 0.109406084 0.3605773 0.96019685
v 0.109406084 0.3605773 1.1775252
v 0.3319448 0.92148316 1.1775252
v 0.4495709 0.92148316 1.1775252
v 0.4495709 0.92148316 1.1260458
v 0.35784078 0.92148316 1.1388375
v 0.109406084 1.2577661 0.96019685
v -0.10940713 1.2577661 1.1775252
v 0.109406084 1.2577661 1.1775252
v 0.4495709 0.6957922 1.1260458
v 0.4495709 0.6957922 1.1775252
v 0.3319448 0.6957922 1.1775252
v 0.35784078 0.6957922 1.1388375
v 0.3319448 0.6957922 1.1775252
v 0.3319448 0.92148316 1.1775252
v 0.35784078 0.92148316 1.1388375
v 0.35784078 0.6957922 1.1388375
v 0.4495709 0.659371 0.96019685
v 0.4495709 0.659371 1.1775252
v 0.4495709 0.6957922 1.1775252
v 0.4495709 0.6957922 1.1260458
v -0.10940713 1.2577661 0.96019685
v -0.10940713 0.3605773 1.1775252
v -0.4495719 0.6957922 1.1260458
v -0.4495719 0.659371 0.96019685
v -0.4495719 0.6957922 1.1775252
v -0.4495719 0.659371 1.1775252
v 0.4495709 0.95894635 0.96019685
v 0.4495709 0.92148316 1.1260458
v 0.4495709 0.92148316 1.1775252
v 0.4495709 0.95894635 1.1775252
vt 0.39684033 0.36177576
vt 0.42369843 0.36849022
vt 0.39833248 0.35655332
vt 0.5288923 0.43563533
vt 0.6012597 0.42817473
vt 0.54754376 0.41026938
vt 0.42369843 0.42220628
vt 0.39684033 0.42892075
vt 0.39833248 0.4348892
vt 0.49905002 0.44533408
vt 0.5370989 0.45652485
vt 0.49979615 0.44533408
vt 0.4699539 0.43563533
vt 0.4624933 0.45652485
vt 0.43265104 0.5520201
vt 0.43265104 0.58708465
vt 0.4826368 0.58708465
vt 0.4826368 0.5520201
vt 0.5370989 0.3326795
vt 0.5288923 0.35356915
vt 0.6012597 0.3602836
vt 0.4826368 0.5520201
vt 0.4826368 0.58708465
vt 0.51247907 0.58708465
vt 0.51247907 0.5520201
vt 0.49905002 0.3438704
vt 0.54754376 0.37893498
vt 0.39460218 0.41996813
vt 0.4147457 0.419222
vt 0.4147457 0.3714745
vt 0.39460218 0.37072837
vt -0.5424443 0.79971063
vt -0.5215547 0.79971063
vt -0.5215547 0.7676302
vt -0.5424443 0.7676302
vt -0.5625878 0.7676302
vt -0.5625878 0.79971063
vt -0.7274662 0.79971063
vt -0.70657665 0.79971063
vt -0.70657665 0.7676302
vt -0.7274662 0.7676302
vt 0.46920776 0.35356915
vt 0.49905002 0.3438704
vt 0.4617473 0.3326795
vt 0.4513024 0.4110154
vt 0.4513024 0.37893498
vt 0.44831824 0.49158955
vt 0.44831824 0.45652485
vt 0.3953483 0.45577884
vt 0.3953483 0.49158955
vt -0.68643314 0.79971063
vt -0.68643314 0.7676302
vt -0.66554356 0.79971063
vt -0.66554356 0.7676302
vt 0.48114467 0.49158955
vt 0.48039865 0.45652485
vt 0.44831824 0.45652485
vt 0.44831824 0.49158955
vt 0.42369843 0.42220628
vt 0.4147457 0.419222
vt 0.39460218 0.41996813
vt 0.39684033 0.42892075
vt 0.39460218 0.37072837
vt 0.4147457 0.3714745
vt 0.42369843 0.36849022
vt 0.39684033 0.36177576
vt 0.42369843 0.36849022
vt 0.4147457 0.3714745
vt 0.4147457 0.419222
vt 0.42369843 0.42220628
vt 0.38490343 0.5520201
vt 0.38415742 0.58708465
vt 0.39012587 0.58708465
vt 0.39012587 0.57887805
vt 0.6005137 0.36849022
vt 0.6005137 0.3602836
vt 0.57440174 0.36849022
vt 0.57440174 0.419222
vt 0.6012597 0.42742872
vt 0.6012597 0.419222
vt 0.6296098 0.5520201
vt 0.5796242 0.5520201
vt 0.5796242 0.58708465
vt 0.6296098 0.58708465
vt 0.39758646 0.3602836
vt 0.4513024 0.37893498
vt 0.4699539 0.35356915
vt 0.5796242 0.5520201
vt 0.5497819 0.5520201
vt 0.5490358 0.58708465
vt 0.5796242 0.58708465
vt 0.5497819 0.5520201
vt 0.51247907 0.5520201
vt 0.51247907 0.58708465
vt 0.5490358 0.58708465
vt 0.4617473 0.3326795
vt 0.39758646 0.42817473
vt 0.6012597 0.419222
vt 0.6012597 0.36849022
vt 0.5811162 0.36998236
vt 0.5811162 0.418476
vt -0.5834774 0.79971063
vt -0.5834774 0.7676302
vt -0.60436696 0.7676302
vt -0.60436696 0.79971063
vt 0.5288923 0.35356915
vt 0.5370989 0.3326795
vt -0.62451047 0.7676302
vt -0.62451047 0.79971063
vt 0.4617473 0.45652485
vt 0.4699539 0.43563533
vt 0.4513024 0.41026938
vt 0.54754376 0.41026938
vt 0.54754376 0.37893498
vt 0.5527661 0.49158955
vt 0.60573614 0.49158955
vt 0.60499 0.45652485
vt 0.5535122 0.45652485
vt -0.64540005 0.7676302
vt -0.64540005 0.79971063
vt 0.5206857 0.49158955
vt 0.5527661 0.49158955
vt 0.5535122 0.45652485
vt 0.5206857 0.45652485
vt 0.537845 0.45577884
vt 0.5296384 0.43563533
vt 0.48114467 0.49158955
vt 0.5206857 0.49158955
vt 0.5206857 0.45652485
vt 0.48039865 0.45652485
vt 0.52441597 0.29313862
vt 0.4744302 0.29313862
vt 0.52441597 0.29313862
vt 0.57141745 0.42071414
vt 0.5975294 0.4304129
vt 0.6012597 0.419222
vt 0.5811162 0.418476
vt 0.4744302 0.49606586
vt 0.47592235 0.49606586
vt 0.525162 0.49531972
vt 0.6012597 0.36849022
vt 0.5975294 0.35729945
vt 0.57141745 0.36699808
vt 0.5811162 0.36998236
vt 0.57141745 0.36699808
vt 0.57141745 0.42071414
vt 0.5811162 0.418476
vt 0.5811162 0.36998236
vt 0.65796006 0.49158955
vt 0.6557219 0.45652485
vt 0.64975345 0.45652485
vt 0.64975345 0.46473145
vt 0.52441597 0.49606586
vt 0.47517622 0.29313862
vt 0.4266826 0.57887805
vt 0.43265104 0.5520201
vt 0.4266826 0.58708465
vt 0.43265104 0.58708465
vt 0.60573614 0.49158955
vt 0.6124506 0.46473145
vt 0.6117046 0.45652485
vt 0.60499 0.45652485
vn -0.003921509 0.003921509 0.9999846
vn -0.003921509 0.003921509 0.9999846
vn -0.003921509 0.003921509 0.9999846
vn -0.003921509 0.003921509 -0.9999846
vn -0.003921509 0.003921509 -0.9999846
vn -0.003921509 0.003921509 -0.9999846
vn -0.003921509 0.003921509 0.9999846
vn -0.003921509 0.003921509 0.9999846
vn -0.003921509 0.003921509 0.9999846
vn -0.003921509 0.003921509 -0.9999846
vn -0.003921509 0.003921509 -0.9999846
vn -0.003921509 0.003921509 0.9999846
vn -0.003921509 0.003921509 0.9999846
vn -0.003921509 0.003921509 0.9999846
vn -0.4039184 -0.9137185 -0.04436647
vn -0.4039184 -0.9137185 -0.04436647
vn -0.4039184 -0.9137185 -0.04436647
vn -0.4039184 -0.9137185 -0.04436647
vn -0.003921509 0.003921509 -0.9999846
vn -0.003921509 0.003921509 -0.9999846
vn -0.003921509 0.003921509 -0.9999846
vn -0.9450908 -0.31764466 -0.07684591
vn -0.9450908 -0.31764466 -0.07684591
vn -0.9450908 -0.31764466 -0.07684591
vn -0.9450908 -0.31764466 -0.07684591
vn -0.003921509 0.003921509 -0.9999846
vn -0.003921509 0.003921509 -0.9999846
vn -0.13725376 0.003921509 0.99052817
vn -0.13725376 0.003921509 0.99052817
vn -0.13725376 0.003921509 0.99052817
vn -0.13725376 0.003921509 0.99052817
vn 0.5842015 0.8116087 -0
vn 0.9510054 0.3091745 -0
vn 0.9510054 0.3091745 -0
vn 0.5842015 0.8116087 -0
vn -0.003921509 0.99999225 -0.00034526698
vn -0.003921509 0.99999225 -0.00034526698
vn 0.9510054 0.3091745 -0
vn 0.9510053 -0.30917457 -0
vn 0.9510053 -0.30917457 -0
vn 0.9510054 0.3091745 -0
vn -0.003921509 0.003921509 0.9999846
vn -0.003921509 0.003921509 0.9999846
vn -0.003921509 0.003921509 0.9999846
vn -0.003921509 0.003921509 0.9999846
vn -0.003921509 0.003921509 0.9999846
vn -0.4039184 0.91371846 -0.044367816
vn -0.4039184 0.91371846 -0.044367816
vn -0.4039184 0.91371846 -0.044367816
vn -0.4039184 0.91371846 -0.044367816
vn 0.5842015 -0.8116088 -0
vn 0.5842015 -0.8116088 -0
vn -0.003921509 -0.9999924 -0
vn -0.003921509 -0.9999924 -0
vn -0.9450908 0.3176446 -0.076846145
vn -0.9450908 0.3176446 -0.076846145
vn -0.9450908 0.3176446 -0.076846145
vn -0.9450908 0.3176446 -0.076846145
vn -0.003921509 -0.9999924 -0
vn -0.003921509 -0.9999924 -0
vn -0.003921509 -0.9999924 -0
vn -0.003921509 -0.9999924 -0
vn -0.003921509 0.99999225 -0.00034526698
vn -0.003921509 0.99999225 -0.00034526698
vn -0.003921509 0.99999225 -0.00034526698
vn -0.003921509 0.99999225 -0.00034526698
vn -0.82744455 0.003921509 0.56153375
vn -0.82744455 0.003921509 0.56153375
vn -0.82744455 0.003921509 0.56153375
vn -0.82744455 0.003921509 0.56153375
vn -0.99999225 0.003921509 -0.00034492963
vn -0.99999225 0.003921509 -0.00034492963
vn -0.99999225 0.003921509 -0.00034492963
vn -0.99999225 0.003921509 -0.00034492963
vn -0.003921509 0.003921509 0.9999846
vn -0.003921509 0.003921509 0.9999846
vn -0.003921509 0.003921509 0.9999846
vn -0.003921509 0.003921509 0.9999846
vn -0.003921509 0.003921509 0.9999846
vn -0.003921509 0.003921509 0.9999846
vn 0.4039185 -0.9137185 -0.044365127
vn 0.4039185 -0.9137185 -0.044365127
vn 0.4039185 -0.9137185 -0.044365127
vn 0.4039185 -0.9137185 -0.044365127
vn -0.003921509 0.003921509 -0.9999846
vn -0.003921509 0.003921509 -0.9999846
vn -0.003921509 0.003921509 -0.9999846
vn 0.94509083 -0.31764466 -0.07684513
vn 0.94509083 -0.31764466 -0.07684513
vn 0.94509083 -0.31764466 -0.07684513
vn 0.94509083 -0.31764466 -0.07684513
vn -0.003921509 -0.9999924 -0
vn -0.003921509 -0.9999924 -0
vn -0.003921509 -0.9999924 -0
vn -0.003921509 -0.9999924 -0
vn -0.003921509 0.003921509 -0.9999846
vn -0.003921509 0.003921509 -0.9999846
vn 0.13725388 0.003921509 0.9905281
vn 0.13725388 0.003921509 0.9905281
vn 0.13725388 0.003921509 0.9905281
vn 0.13725388 0.003921509 0.9905281
vn -0.5842015 0.81160873 -0
vn -0.5842015 0.81160873 -0
vn -0.9510054 0.30917454 -0
vn -0.9510054 0.30917454 -0
vn -0.003921509 0.003921509 0.9999846
vn -0.003921509 0.003921509 0.9999846
vn -0.9510053 -0.30917463 -0
vn -0.9510053 -0.30917463 -0
vn -0.003921509 0.003921509 -0.9999846
vn -0.003921509 0.003921509 -0.9999846
vn -0.003921509 0.003921509 -0.9999846
vn -0.003921509 0.003921509 0.9999846
vn -0.003921509 0.003921509 0.9999846
vn 0.4039185 0.91371846 -0.04436647
vn 0.4039185 0.91371846 -0.04436647
vn 0.4039185 0.91371846 -0.04436647
vn 0.4039185 0.91371846 -0.04436647
vn -0.58420146 -0.8116088 -0
vn -0.58420146 -0.8116088 -0
vn 0.94509083 0.3176446 -0.07684537
vn 0.94509083 0.3176446 -0.07684537
vn 0.94509083 0.3176446 -0.07684537
vn 0.94509083 0.3176446 -0.07684537
vn -0.003921509 0.003921509 0.9999846
vn -0.003921509 0.003921509 0.9999846
vn -0.003921509 0.99999225 -0.00034526698
vn -0.003921509 0.99999225 -0.00034526698
vn -0.003921509 0.99999225 -0.00034526698
vn -0.003921509 0.99999225 -0.00034526698
vn -0.003921509 0.003921509 -0.9999846
vn -0.003921509 0.003921509 -0.9999846
vn -0.003921509 0.003921509 0.9999846
vn -0.003921509 -0.9999924 -0
vn -0.003921509 -0.9999924 -0
vn -0.003921509 -0.9999924 -0
vn -0.003921509 -0.9999924 -0
vn -0.003921509 0.003921509 -0.9999846
vn -0.003921509 0.003921509 0.9999846
vn -0.003921509 0.003921509 0.9999846
vn -0.003921509 0.99999225 -0.00034526698
vn -0.003921509 0.99999225 -0.00034526698
vn -0.003921509 0.99999225 -0.00034526698
vn -0.003921509 0.99999225 -0.00034526698
vn 0.8274447 0.003921509 0.5615336
vn 0.8274447 0.003921509 0.5615336
vn 0.8274447 0.003921509 0.5615336
vn 0.8274447 0.003921509 0.5615336
vn 0.9999924 0.003921509 -0
vn 0.9999924 0.003921509 -0
vn 0.9999924 0.003921509 -0
vn 0.9999924 0.003921509 -0
vn -0.003921509 0.003921509 -0.9999846
vn -0.003921509 0.003921509 0.9999846
vn -0.99999225 0.003921509 -0.00034492963
vn -0.99999225 0.003921509 -0.00034492963
vn -0.99999225 0.003921509 -0.00034492963
vn -0.99999225 0.003921509 -0.00034492963
vn 0.9999924 0.003921509 -0
vn 0.9999924 0.003921509 -0
vn 0.9999924 0.003921509 -0
vn 0.9999924 0.003921509 -0
g LaserTurret_CustomizePart_CorpsePart_0
f 3/3/3 2/2/2 1/1/1
f 6/6/6 5/5/5 4/4/4
f 9/9/9 8/8/8 7/7/7
f 4/4/4 11/11/11 10/10/10
f 14/14/14 13/13/13 12/12/12
f 17/17/17 16/16/16 15/15/15
f 18/18/18 17/17/17 15/15/15
f 21/21/21 20/20/20 19/19/19
f 24/24/24 23/23/23 22/22/22
f 25/25/25 24/24/24 22/22/22
f 26/26/26 19/19/19 20/20/20
f 27/27/27 5/5/5 6/6/6
f 30/30/30 29/29/29 28/28/28
f 31/31/31 30/30/30 28/28/28
f 34/34/34 33/33/33 32/32/32
f 35/35/35 34/34/34 32/32/32
f 32/32/32 37/37/37 36/36/36
f 35/35/35 32/32/32 36/36/36
f 40/40/40 39/39/39 38/38/38
f 41/41/41 40/40/40 38/38/38
f 44/44/44 43/43/43 42/42/42
f 11/11/11 4/4/4 5/5/5
f 2/2/2 46/46/46 45/45/45
f 7/7/7 2/2/2 45/45/45
f 49/49/49 48/48/48 47/47/47
f 50/50/50 49/49/49 47/47/47
f 40/40/40 52/52/52 51/51/51
f 39/39/39 40/40/40 51/51/51
f 52/52/52 54/54/54 53/53/53
f 51/51/51 52/52/52 53/53/53
f 57/57/57 56/56/56 55/55/55
f 58/58/58 57/57/57 55/55/55
f 61/61/61 60/60/60 59/59/59
f 62/62/62 61/61/61 59/59/59
f 65/65/65 64/64/64 63/63/63
f 66/66/66 65/65/65 63/63/63
f 42/42/42 46/46/46 2/2/2
f 69/69/69 68/68/68 67/67/67
f 70/70/70 69/69/69 67/67/67
f 73/73/73 72/72/72 71/71/71
f 74/74/74 73/73/73 71/71/71
f 77/77/77 76/76/76 75/75/75
f 80/80/80 79/79/79 78/78/78
f 83/83/83 82/82/82 81/81/81
f 84/84/84 83/83/83 81/81/81
f 87/87/87 86/86/86 85/85/85
f 90/90/90 89/89/89 88/88/88
f 91/91/91 90/90/90 88/88/88
f 94/94/94 93/93/93 92/92/92
f 95/95/95 94/94/94 92/92/92
f 96/96/96 26/26/26 87/87/87
f 97/97/97 85/85/85 86/86/86
f 100/100/100 99/99/99 98/98/98
f 101/101/101 100/100/100 98/98/98
f 104/104/104 103/103/103 102/102/102
f 105/105/105 104/104/104 102/102/102
f 102/102/102 103/103/103 36/36/36
f 37/37/37 102/102/102 36/36/36
f 43/43/43 107/107/107 106/106/106
f 108/108/108 104/104/104 105/105/105
f 109/109/109 108/108/108 105/105/105
f 111/111/111 110/110/110 97/97/97
f 112/112/112 111/111/111 97/97/97
f 77/77/77 78/78/78 113/113/113
f 114/114/114 77/77/77 113/113/113
f 117/117/117 116/116/116 115/115/115
f 118/118/118 117/117/117 115/115/115
f 119/119/119 108/108/108 109/109/109
f 120/120/120 119/119/119 109/109/109
f 54/54/54 119/119/119 120/120/120
f 53/53/53 54/54/54 120/120/120
f 123/123/123 122/122/122 121/121/121
f 124/124/124 123/123/123 121/121/121
f 126/126/126 125/125/125 12/12/12
f 129/129/129 128/128/128 127/127/127
f 130/130/130 129/129/129 127/127/127
f 132/132/132 131/131/131 26/26/26
f 133/133/133 107/107/107 43/43/43
f 136/136/136 135/135/135 134/134/134
f 137/137/137 136/136/136 134/134/134
f 138/138/138 110/110/110 10/10/10
f 140/140/140 139/139/139 12/12/12
f 143/143/143 142/142/142 141/141/141
f 144/144/144 143/143/143 141/141/141
f 78/78/78 125/125/125 113/113/113
f 77/77/77 106/106/106 107/107/107
f 76/76/76 77/77/77 107/107/107
f 147/147/147 146/146/146 145/145/145
f 148/148/148 147/147/147 145/145/145
f 151/151/151 150/150/150 149/149/149
f 152/152/152 151/151/151 149/149/149
f 139/139/139 14/14/14 12/12/12
f 125/125/125 140/140/140 12/12/12
f 153/153/153 138/138/138 10/10/10
f 11/11/11 153/153/153 10/10/10
f 10/10/10 110/110/110 111/111/111
f 97/97/97 86/86/86 112/112/112
f 27/27/27 21/21/21 5/5/5
f 21/21/21 27/27/27 20/20/20
f 87/87/87 85/85/85 96/96/96
f 131/131/131 19/19/19 26/26/26
f 96/96/96 132/132/132 26/26/26
f 44/44/44 154/154/154 43/43/43
f 154/154/154 133/133/133 43/43/43
f 77/77/77 114/114/114 106/106/106
f 2/2/2 3/3/3 44/44/44
f 42/42/42 2/2/2 44/44/44
f 14/14/14 9/9/9 7/7/7
f 125/125/125 126/126/126 113/113/113
f 78/78/78 79/79/79 125/125/125
f 7/7/7 45/45/45 13/13/13
f 14/14/14 7/7/7 13/13/13
f 155/155/155 74/74/74 71/71/71
f 156/156/156 155/155/155 71/71/71
f 158/158/158 157/157/157 155/155/155
f 156/156/156 158/158/158 155/155/155
f 161/161/161 160/160/160 159/159/159
f 162/162/162 161/161/161 159/159/159
f 152/152/152 149/149/149 159/159/159
f 160/160/160 152/152/152 159/159/159
