g LaserFXmeshes
v 0.026513994 -0.036518633 -0.88630164
v 0.026513994 -0.036518633 1.9768175
v 0.042897165 -0.013931751 1.9768175
v 0.042897165 -0.013931751 -0.88630164
v -4.887581E-06 -0.045125246 -0.88630164
v -4.887581E-06 -0.045125246 1.9768175
v -0.02652371 -0.036518633 -0.88630164
v -0.02652371 -0.036518633 1.9768175
v -0.04290688 -0.013931751 -0.88630164
v -0.04290688 -0.013931751 1.9768175
v -0.04290688 0.013941467 -0.88630164
v -0.04290688 0.013941467 1.9768175
v -0.02652371 0.03648466 -0.88630164
v -0.02652371 0.03648466 1.9768175
v -4.887581E-06 0.04513496 -0.88630164
v -4.887581E-06 0.04513496 1.9768175
v 0.026513994 0.03648466 -0.88630164
v 0.026513994 0.03648466 1.9768175
v 0.042897165 0.013941467 -0.88630164
v 0.042897165 0.013941467 1.9768175
v 0.095061064 0.030892551 -0.7977016
v -4.887581E-06 4.887581E-06 -0.7977016
v 0.08086234 0.05876577 -0.7977016
v 0.058756053 0.08087206 -0.7977016
v 0.030882835 0.09507078 -0.7977016
v -4.887581E-06 0.0999639 -0.7977016
v -0.030892551 0.09507078 -0.7977016
v -0.05876577 0.08087206 -0.7977016
v -0.08087206 0.05876577 -0.7977016
v -0.09507078 0.030892551 -0.7977016
v -0.0999639 4.887581E-06 -0.7977016
v -0.09507078 -0.030882835 -0.7977016
v -0.08087206 -0.058756053 -0.7977016
v -0.05876577 -0.08086234 -0.7977016
v -0.030892551 -0.095061064 -0.7977016
v -4.887581E-06 -0.09995419 -0.7977016
v 0.030882835 -0.095061064 -0.7977016
v 0.058756053 -0.08086234 -0.7977016
v 0.08086234 -0.058756053 -0.7977016
v 0.095061064 -0.030882835 -0.7977016
v 0.09995419 4.887581E-06 -0.7977016
v 0.20895672 0.067896605 -0.22839808
v -4.887581E-06 4.887581E-06 -0.22839808
v 0.17776322 0.12914777 -0.22839808
v 0.12913805 0.17772925 -0.22839808
v 0.06788689 0.2089665 -0.22839808
v -4.887581E-06 0.2197138 -0.22839808
v -0.067896605 0.2089665 -0.22839808
v -0.12914777 0.17772925 -0.22839808
v -0.17772925 0.12914777 -0.22839808
v -0.2089665 0.067896605 -0.22839808
v -0.2197138 4.887581E-06 -0.22839808
v -0.2089665 -0.06788689 -0.22839808
v -0.17772925 -0.12913805 -0.22839808
v -0.12914777 -0.17776322 -0.22839808
v -0.067896605 -0.20895672 -0.22839808
v -4.887581E-06 -0.21970409 -0.22839808
v 0.06788689 -0.20895672 -0.22839808
v 0.12913805 -0.17776322 -0.22839808
v 0.17776322 -0.12913805 -0.22839808
v 0.20895672 -0.06788689 -0.22839808
v 0.21970409 4.887581E-06 -0.22839808
v 0.2200973 0.07152277 -0.38812286
v -4.887581E-06 4.887581E-06 -0.38812286
v 0.18719989 0.13600683 -0.38812286
v 0.13599712 0.1872096 -0.38812286
v 0.07151306 0.22006333 -0.38812286
v -4.887581E-06 0.2314223 -0.38812286
v -0.07152277 0.22006333 -0.38812286
v -0.13600683 0.1872096 -0.38812286
v -0.1872096 0.13600683 -0.38812286
v -0.22006333 0.07152277 -0.38812286
v -0.2314223 4.887581E-06 -0.38812286
v -0.22006333 -0.07151306 -0.38812286
v -0.1872096 -0.13599712 -0.38812286
v -0.13600683 -0.18719989 -0.38812286
v -0.07152277 -0.2200973 -0.38812286
v -4.887581E-06 -0.23141259 -0.38812286
v 0.07151306 -0.2200973 -0.38812286
v 0.13599712 -0.18719989 -0.38812286
v 0.18719989 -0.13599712 -0.38812286
v 0.2200973 -0.07151306 -0.38812286
v 0.23141259 4.887581E-06 -0.38812286
vt 0.13917387 0.37706608
vt 0.13917387 0.43618304
vt 0.12849008 0.43618304
vt 0.12849008 0.37706608
vt 0.15626791 0.37706608
vt 0.15626791 0.43618304
vt 0.17336196 0.37706608
vt 0.17336196 0.43618304
vt 0.18404575 0.37706608
vt 0.18404575 0.43618304
vt 0.18404575 0.37706608
vt 0.18404575 0.43618304
vt 0.17336196 0.37706608
vt 0.17336196 0.43618304
vt 0.15626791 0.37706608
vt 0.15626791 0.43618304
vt 0.13917387 0.37706608
vt 0.13917387 0.43618304
vt 0.12849008 0.37706608
vt 0.12849008 0.43618304
vt 0.102136746 0.7837621
vt 0.093589716 0.78091305
vt 0.10071224 0.78589886
vt 0.09928773 0.7880356
vt 0.09643873 0.7894601
vt 0.093589716 0.7894601
vt 0.09074071 0.7894601
vt 0.08860395 0.7880356
vt 0.0864672 0.78589886
vt 0.08504269 0.7837621
vt 0.08504269 0.78091305
vt 0.08504269 0.7780641
vt 0.0864672 0.775215
vt 0.08860395 0.77379054
vt 0.09074071 0.77236605
vt 0.093589716 0.7716538
vt 0.09643873 0.77236605
vt 0.09928773 0.77379054
vt 0.10071224 0.775215
vt 0.102136746 0.7780641
vt 0.10284899 0.78091305
vt 0.112108275 0.7866111
vt 0.093589716 0.78091305
vt 0.10997152 0.7923091
vt 0.10498575 0.79658264
vt 0.09999999 0.7994316
vt 0.093589716 0.8008561
vt 0.0878917 0.7994316
vt 0.08219368 0.79658264
vt 0.07792017 0.7923091
vt 0.07507116 0.7866111
vt 0.07364666 0.78091305
vt 0.07507116 0.7745028
vt 0.07792017 0.76951706
vt 0.08219368 0.76453125
vt 0.0878917 0.7623945
vt 0.093589716 0.76097
vt 0.09999999 0.7623945
vt 0.10498575 0.76453125
vt 0.10997152 0.76951706
vt 0.112108275 0.7745028
vt 0.11353278 0.78091305
vt 0.11353278 0.78732336
vt 0.093589716 0.78091305
vt 0.11068377 0.7930214
vt 0.105698004 0.79729486
vt 0.09999999 0.8008561
vt 0.093589716 0.8015684
vt 0.087179445 0.8008561
vt 0.08148143 0.79729486
vt 0.077207915 0.7930214
vt 0.07364666 0.78732336
vt 0.072934404 0.78091305
vt 0.07364666 0.7745028
vt 0.077207915 0.7688048
vt 0.08148143 0.76381904
vt 0.087179445 0.76097
vt 0.093589716 0.7602578
vt 0.09999999 0.76097
vt 0.105698004 0.76381904
vt 0.11068377 0.7688048
vt 0.11353278 0.7745028
vt 0.11424503 0.78091305
vn 0.5842015 -0.8116088 -0
vn 0.5842015 -0.8116088 -0
vn 0.9510053 -0.30917457 -0
vn 0.9510053 -0.30917457 -0
vn -0.003921509 -0.9999924 -0
vn -0.003921509 -0.9999924 -0
vn -0.58420146 -0.8116088 -0
vn -0.58420146 -0.8116088 -0
vn -0.9510053 -0.30917463 -0
vn -0.9510053 -0.30917463 -0
vn -0.9510054 0.30917454 -0
vn -0.9510054 0.30917454 -0
vn -0.5842015 0.81160873 -0
vn -0.5842015 0.81160873 -0
vn -0.003921509 0.99999225 -0.00034526698
vn -0.003921509 0.99999225 -0.00034526698
vn 0.5842015 0.8116087 -0
vn 0.5842015 0.8116087 -0
vn 0.9510054 0.3091745 -0
vn 0.9510054 0.3091745 -0
vn -0.003921509 0.003921509 0.9999846
vn -0.003921509 0.003921509 0.9999846
vn -0.003921509 0.003921509 0.9999846
vn 0.0039215684 0.003921509 0.9999846
vn -0.003921509 0.003921509 0.9999846
vn 0.0039215684 0.003921509 0.9999846
vn -0.003921509 0.003921509 0.9999846
vn -0.003921509 0.003921509 0.9999846
vn -0.003921509 0.003921509 0.9999846
vn -0.003921509 0.003921509 0.9999846
vn -0.003921509 0.003921509 0.9999846
vn -0.003921509 0.003921509 0.9999846
vn 0.0039215684 0.003921509 0.9999846
vn -0.003921509 0.003921509 0.9999846
vn 0.0039215684 0.003921509 0.9999846
vn -0.003921509 0.003921509 0.9999846
vn -0.003921509 0.003921509 0.9999846
vn -0.003921509 0.003921509 0.9999846
vn 0.0039215684 0.003921509 0.9999846
vn -0.003921509 0.003921509 0.9999846
vn -0.003921509 0.003921509 0.9999846
vn -0.003921509 0.003921509 0.9999846
vn -0.003921509 0.003921509 0.9999846
vn -0.003921509 0.003921509 0.9999846
vn 0.0039215684 0.003921509 0.9999846
vn -0.003921509 0.003921509 0.9999846
vn -0.003921509 0.003921509 0.9999846
vn -0.003921509 0.003921509 0.9999846
vn -0.003921509 0.003921509 0.9999846
vn -0.003921509 0.003921509 0.9999846
vn -0.003921509 0.003921509 0.9999846
vn -0.003921509 0.003921509 0.9999846
vn -0.003921509 0.003921509 0.9999846
vn -0.003921509 0.003921509 0.9999846
vn -0.003921509 0.003921509 0.9999846
vn 0.0039215684 0.003921509 0.9999846
vn -0.003921509 0.003921509 0.9999846
vn -0.003921509 0.003921509 0.9999846
vn -0.003921509 0.003921509 0.9999846
vn 0.0039215684 0.003921509 0.9999846
vn -0.003921509 0.003921509 0.9999846
vn -0.003921509 0.003921509 0.9999846
vn 0.0039215684 0.003921509 0.9999846
vn 0.0039215684 0.003921509 0.9999846
vn 0.0039215684 0.003921509 0.9999846
vn -0.003921509 0.003921509 0.9999846
vn -0.003921509 0.003921509 0.9999846
vn 0.0039215684 0.003921509 0.9999846
vn -0.003921509 0.003921509 0.9999846
vn -0.003921509 0.003921509 0.9999846
vn 0.0039215684 0.003921509 0.9999846
vn -0.003921509 0.003921509 0.9999846
vn -0.003921509 0.003921509 0.9999846
vn -0.003921509 0.003921509 0.9999846
vn -0.003921509 0.003921509 0.9999846
vn -0.003921509 0.003921509 0.9999846
vn -0.003921509 0.003921509 0.9999846
vn -0.003921509 0.003921509 0.9999846
vn -0.003921509 0.003921509 0.9999846
vn -0.003921509 0.003921509 0.9999846
vn -0.003921509 0.003921509 0.9999846
vn -0.003921509 0.003921509 0.9999846
vn -0.003921509 0.003921509 0.9999846
g LaserFXmeshes_0
f 3/3/3 2/2/2 1/1/1
f 4/4/4 3/3/3 1/1/1
f 2/2/2 6/6/6 5/5/5
f 1/1/1 2/2/2 5/5/5
f 6/6/6 8/8/8 7/7/7
f 5/5/5 6/6/6 7/7/7
f 8/8/8 10/10/10 9/9/9
f 7/7/7 8/8/8 9/9/9
f 10/10/10 12/12/12 11/11/11
f 9/9/9 10/10/10 11/11/11
f 12/12/12 14/14/14 13/13/13
f 11/11/11 12/12/12 13/13/13
f 14/14/14 16/16/16 15/15/15
f 13/13/13 14/14/14 15/15/15
f 16/16/16 18/18/18 17/17/17
f 15/15/15 16/16/16 17/17/17
f 18/18/18 20/20/20 19/19/19
f 17/17/17 18/18/18 19/19/19
f 20/20/20 3/3/3 4/4/4
f 19/19/19 20/20/20 4/4/4
f 23/23/23 22/22/22 21/21/21
f 24/24/24 22/22/22 23/23/23
f 25/25/25 22/22/22 24/24/24
f 26/26/26 22/22/22 25/25/25
f 27/27/27 22/22/22 26/26/26
f 28/28/28 22/22/22 27/27/27
f 29/29/29 22/22/22 28/28/28
f 30/30/30 22/22/22 29/29/29
f 31/31/31 22/22/22 30/30/30
f 32/32/32 22/22/22 31/31/31
f 33/33/33 22/22/22 32/32/32
f 34/34/34 22/22/22 33/33/33
f 35/35/35 22/22/22 34/34/34
f 36/36/36 22/22/22 35/35/35
f 37/37/37 22/22/22 36/36/36
f 38/38/38 22/22/22 37/37/37
f 39/39/39 22/22/22 38/38/38
f 40/40/40 22/22/22 39/39/39
f 41/41/41 22/22/22 40/40/40
f 21/21/21 22/22/22 41/41/41
f 44/44/44 43/43/43 42/42/42
f 45/45/45 43/43/43 44/44/44
f 46/46/46 43/43/43 45/45/45
f 47/47/47 43/43/43 46/46/46
f 48/48/48 43/43/43 47/47/47
f 49/49/49 43/43/43 48/48/48
f 50/50/50 43/43/43 49/49/49
f 51/51/51 43/43/43 50/50/50
f 52/52/52 43/43/43 51/51/51
f 53/53/53 43/43/43 52/52/52
f 54/54/54 43/43/43 53/53/53
f 55/55/55 43/43/43 54/54/54
f 56/56/56 43/43/43 55/55/55
f 57/57/57 43/43/43 56/56/56
f 58/58/58 43/43/43 57/57/57
f 59/59/59 43/43/43 58/58/58
f 60/60/60 43/43/43 59/59/59
f 61/61/61 43/43/43 60/60/60
f 62/62/62 43/43/43 61/61/61
f 42/42/42 43/43/43 62/62/62
f 65/65/65 64/64/64 63/63/63
f 66/66/66 64/64/64 65/65/65
f 67/67/67 64/64/64 66/66/66
f 68/68/68 64/64/64 67/67/67
f 69/69/69 64/64/64 68/68/68
f 70/70/70 64/64/64 69/69/69
f 71/71/71 64/64/64 70/70/70
f 72/72/72 64/64/64 71/71/71
f 73/73/73 64/64/64 72/72/72
f 74/74/74 64/64/64 73/73/73
f 75/75/75 64/64/64 74/74/74
f 76/76/76 64/64/64 75/75/75
f 77/77/77 64/64/64 76/76/76
f 78/78/78 64/64/64 77/77/77
f 79/79/79 64/64/64 78/78/78
f 80/80/80 64/64/64 79/79/79
f 81/81/81 64/64/64 80/80/80
f 82/82/82 64/64/64 81/81/81
f 83/83/83 64/64/64 82/82/82
f 63/63/63 64/64/64 83/83/83
