g Leave
v 0.1864435 0.71527886 -0.35866836
v 0.018524855 1.1365947 -0.1118502
v 0.04656312 0.7666904 -0.09106073
v 0.19952962 0.71044636 0.26743203
v -0.11496794 -0.33996022 -0.27527124
v 0.017544001 -0.058261693 -0.40208942
v -0.09999186 -0.031993747 -0.07091719
v -0.2218579 -0.23120426 -0.08290285
v 0.0789794 -0.060630113 0.3343938
v -0.09434593 -0.34926644 0.12989616
v 0.13859662 0.27520716 -0.43122816
v 0.013476998 0.30946553 -0.0747928
v 0.19505593 0.26893926 0.3851354
v -0.3434847 -0.3976875 -0.107543975
vt 0.9028015 0.93243074
vt 0.9791792 0.86428344
vt 0.90411836 0.8705385
vt 0.88337785 0.7938316
vt 0.6832156 0.9502083
vt 0.7477416 0.96173084
vt 0.7322685 0.891279
vt 0.6835448 0.9008262
vt 0.7273303 0.8004159
vt 0.66741335 0.8481519
vt 0.81786424 0.9587679
vt 0.8079878 0.88074416
vt 0.79416084 0.77934617
vt 0.64239305 0.9113611
vn -0.90969163 0.07819552 -0.4078561
vn -0.99733585 -0.07294575 -0
vn -0.99788064 0.05299867 0.03775441
vn -0.9180906 0.082394995 0.38771218
vn -0.8047047 0.35956037 -0.47240517
vn -0.87609583 0.3049672 -0.37343153
vn -0.94328743 0.3217651 0.08170699
vn -0.9180906 0.39315617 0.050377637
vn -0.8676969 0.27977034 0.41089013
vn -0.8173032 0.30076772 0.49148172
vn -0.9054922 0.19578084 -0.37650198
vn -0.97688323 0.19998032 0.07554503
vn -0.9012927 0.18318242 0.39257568
vn -0.80890423 0.586332 0.043458745
g Leave_0
f 3/3/3 2/2/2 1/1/1
f 3/3/3 4/4/4 2/2/2
f 7/7/7 6/6/6 5/5/5
f 8/8/8 7/7/7 5/5/5
f 8/8/8 10/10/10 9/9/9
f 7/7/7 8/8/8 9/9/9
f 3/3/3 1/1/1 11/11/11
f 12/12/12 3/3/3 11/11/11
f 12/12/12 13/13/13 4/4/4
f 3/3/3 12/12/12 4/4/4
f 12/12/12 11/11/11 6/6/6
f 7/7/7 12/12/12 6/6/6
f 7/7/7 9/9/9 13/13/13
f 12/12/12 7/7/7 13/13/13
f 14/14/14 8/8/8 5/5/5
f 8/8/8 14/14/14 10/10/10
