g levels_dynamic_woodbox_mesh_4
v -1.133905 1.9462193 0.66470814
v -0.9708446 1.9395088 0.71711874
v -0.9708446 1.7430428 0.705657
v -1.133905 1.7497042 0.6532954
v 1.0697868 1.7785546 0.42714643
v 1.198707 1.73692 0.75361013
v 1.198707 1.9333862 0.76507187
v 1.0697868 1.9750696 0.43860817
v -1.0080706 1.9741391 0.44566154
v -1.133905 1.9462193 0.66470814
v -1.133905 1.7497042 0.6532954
v -1.0080706 1.7776729 0.4341998
v 1.0513207 1.8076988 0.19879317
v 1.0513207 2.0042138 0.21025491
v -1.1005973 2.0042138 0.21025491
v -1.0080706 1.9741391 0.44566154
v -1.0080706 1.7776729 0.4341998
v -1.1005973 1.8076988 0.19879317
v -0.024515867 1.6964611 1.0704736
v -1.0539178 1.7056206 0.998911
v -1.0539178 1.9020869 1.0103239
v -0.027846575 1.8929762 1.0816904
v -0.025642395 2.0087204 0.17474306
v -1.1005973 2.0042138 0.21025491
v -1.1005973 1.8076988 0.19879317
v -0.24395442 1.8122541 0.16328132
v -1.0080706 1.9741391 0.44566154
v -0.033675432 1.960914 0.4280281
v 0.050916076 1.8863636 1.0122832
v -1.133905 1.9462193 0.66470814
v -0.9708446 1.9395088 0.71711874
v -0.024515867 1.6964611 1.0704736
v -1.133905 1.7497042 0.6532954
v -0.9708446 1.7430428 0.705657
v -0.24395442 1.8122541 0.16328132
v -1.1005973 1.8076988 0.19879317
v -1.0080706 1.7776729 0.4341998
v -0.024515867 1.6964611 1.0704736
v -1.133905 1.7497042 0.6532954
v -1.1005973 2.0042138 0.21025491
v -0.025642395 2.0087204 0.17474306
v 1.198707 1.9333862 0.76507187
v 1.0697868 1.9750696 0.43860817
v 1.0513207 2.0042138 0.21025491
v 0.07339883 2.0113163 0.1544646
v 1.0513207 2.0042138 0.21025491
v 0.07339883 2.0113163 0.1544646
v 0.30483782 1.8148502 0.14300287
v 1.0513207 1.8076988 0.19879317
v 1.0513207 1.8076988 0.19879317
v 0.30483782 1.8148502 0.14300287
v 0.17645657 1.691563 1.1089731
v 1.0697868 1.7785546 0.42714643
v 1.198707 1.73692 0.75361013
v 1.1304753 1.8924373 1.0860008
v 1.1304753 1.6959714 1.074588
v 0.17645657 1.691563 1.1089731
v 0.17978728 1.888029 1.1204349
v 0.014032841 1.9843763 0.24429727
v 0.014032841 1.9843763 0.24429727
v -0.025642395 2.0087204 0.17474306
v -0.24395442 1.8122541 0.16328132
v 0.014032841 1.8437985 0.23611736
v 0.014032841 1.9843763 0.24429727
v 0.014032841 1.9843763 0.24429727
v 0.014032841 1.8437985 0.23611736
v 0.30483782 1.8148502 0.14300287
v 0.07339883 2.0113163 0.1544646
v 0.050916076 1.7457858 1.0041522
v 0.014032841 1.8437985 0.23611736
v 0.17978728 1.888029 1.1204349
v 0.17645657 1.691563 1.1089731
v 0.050916076 1.7457858 1.0041522
v 0.050916076 1.8863636 1.0122832
v 0.050916076 1.8863636 1.0122832
v 0.050916076 1.7457858 1.0041522
v -0.024515867 1.6964611 1.0704736
v -0.027846575 1.8929762 1.0816904
v 1.198707 1.9333862 0.76507187
v 1.198707 1.73692 0.75361013
v 1.0675337 1.7663583 0.8358017
v 1.0674847 1.888127 0.8589212
v -1.0846783 1.925794 0.82468283
v -1.0539178 1.9020869 1.0103239
v -1.0539178 1.7056206 0.998911
v -1.0846783 1.7292789 0.81336796
v 1.0675337 1.7663583 0.8358017
v 1.1304753 1.6959714 1.074588
v 1.1304753 1.8924373 1.0860008
v 1.0674847 1.888127 0.8589212
v -0.9708446 1.9395088 0.71711874
v -1.0846783 1.925794 0.82468283
v -1.0846783 1.7292789 0.81336796
v -0.9708446 1.7430428 0.705657
v -0.027846575 1.8929762 1.0816904
v -1.0539178 1.9020869 1.0103239
v -1.0846783 1.925794 0.82468283
v -0.024515867 1.6964611 1.0704736
v -1.0846783 1.7292789 0.81336796
v -1.0539178 1.7056206 0.998911
v -0.9708446 1.7430428 0.705657
v 1.0674847 1.888127 0.8589212
v 1.1304753 1.8924373 1.0860008
v 0.17978728 1.888029 1.1204349
v 0.050916076 1.8863636 1.0122832
v 1.1304753 1.6959714 1.074588
v 1.0675337 1.7663583 0.8358017
v 0.17645657 1.691563 1.1089731
v 1.0674847 1.888127 0.8589212
v 1.198707 1.73692 0.75361013
v 0.17645657 1.691563 1.1089731
v 1.0675337 1.7663583 0.8358017
vt 0.36814672 0.83895534
vt 0.37019593 0.83895534
vt 0.37019593 0.8353692
vt 0.36814672 0.8353692
vt 0.36097443 0.8353692
vt 0.36097443 0.83127075
vt 0.35687602 0.83127075
vt 0.35687602 0.8353692
vt 0.36507288 0.83895534
vt 0.36814672 0.83895534
vt 0.36814672 0.8353692
vt 0.36507288 0.8353692
vt 0.36097443 0.83844304
vt 0.35687602 0.83844304
vt 0.36199906 0.83895534
vt 0.36507288 0.83895534
vt 0.36507288 0.8353692
vt 0.36199906 0.8353692
vt 0.33484685 0.7672326
vt 0.33177304 0.7539127
vt 0.3281869 0.7544249
vt 0.33126074 0.7682572
vt 0.3205023 0.7697941
vt 0.3184531 0.75544953
vt 0.31486696 0.7559619
vt 0.31640387 0.7672326
vt 0.32152694 0.7559619
vt 0.32306385 0.76928186
vt 0.33126074 0.76928186
vt 0.32408845 0.7539127
vt 0.32460076 0.7564742
vt 0.33484685 0.7672326
vt 0.3353592 0.7518635
vt 0.3353592 0.7539127
vt 0.34406838 0.7621095
vt 0.34099454 0.7508388
vt 0.338433 0.7528881
vt 0.33484685 0.7672326
vt 0.3353592 0.7518635
vt 0.3184531 0.75544953
vt 0.3205023 0.7697941
vt 0.3297238 0.7851633
vt 0.32562536 0.7841387
vt 0.32306385 0.784651
vt 0.3205023 0.7713311
vt 0.32306385 0.784651
vt 0.3205023 0.7713311
vt 0.3174285 0.7749172
vt 0.3194777 0.7851633
vt 0.34816682 0.77901566
vt 0.3461176 0.76928186
vt 0.3353592 0.7708187
vt 0.3461176 0.78004026
vt 0.34253144 0.7831141
vt 0.33433455 0.7841387
vt 0.3379207 0.7831141
vt 0.3353592 0.7708187
vt 0.33228534 0.7713311
vt 0.3205023 0.77030647
vt 0.3205023 0.77030647
vt 0.3205023 0.7697941
vt 0.31640387 0.7672326
vt 0.3179408 0.7708187
vt 0.3205023 0.77030647
vt 0.3205023 0.77030647
vt 0.3179408 0.7708187
vt 0.3174285 0.7749172
vt 0.3205023 0.7713311
vt 0.3353592 0.7687695
vt 0.34406838 0.7656957
vt 0.33228534 0.7713311
vt 0.3353592 0.7708187
vt 0.3353592 0.7687695
vt 0.33126074 0.76928186
vt 0.33126074 0.76928186
vt 0.3353592 0.7687695
vt 0.33484685 0.7672326
vt 0.33126074 0.7682572
vt 0.35687602 0.83127075
vt 0.36097443 0.83127075
vt 0.35994983 0.82922155
vt 0.35738832 0.82922155
vt 0.37224516 0.83895534
vt 0.37429437 0.83895534
vt 0.37429437 0.8353692
vt 0.37224516 0.8353692
vt 0.35994983 0.82922155
vt 0.36046213 0.82614774
vt 0.35687602 0.82614774
vt 0.35738832 0.82922155
vt 0.37019593 0.83895534
vt 0.37224516 0.83895534
vt 0.37224516 0.8353692
vt 0.37019593 0.8353692
vt 0.33126074 0.7682572
vt 0.3281869 0.7544249
vt 0.32562536 0.7544249
vt 0.33484685 0.7672326
vt 0.33382225 0.7528881
vt 0.33177304 0.7539127
vt 0.3353592 0.7539127
vt 0.33126074 0.7836264
vt 0.33433455 0.7841387
vt 0.33228534 0.7713311
vt 0.33126074 0.76928186
vt 0.3379207 0.7831141
vt 0.34099454 0.7815771
vt 0.3353592 0.7708187
vt 0.33126074 0.7836264
vt 0.34253144 0.7831141
vt 0.3353592 0.7708187
vt 0.34099454 0.7815771
vn -0.31083435 -0.05717534 0.94874287
vn -0.31083435 -0.05717534 0.94874287
vn -0.31083435 -0.05717534 0.94874287
vn -0.31083435 -0.05717534 0.94874287
vn 0.96545464 0.013294637 -0.26023176
vn 0.93413466 0.021124542 -0.35629505
vn 0.93413466 0.021124542 -0.35629505
vn 0.96545464 0.013294637 -0.26023176
vn -0.8667639 0.028954566 -0.49787748
vn -0.8667639 0.028954566 -0.49787748
vn -0.8667639 0.028954566 -0.49787748
vn -0.8667639 0.028954566 -0.49787748
vn 0.9967746 0.0054646134 -0.080065474
vn 0.9967746 0.0054646134 -0.080065474
vn -0.92940384 -0.018025398 0.36862385
vn -0.92940384 -0.018025398 0.36862385
vn -0.92940384 -0.018025398 0.36862385
vn -0.92940384 -0.018025398 0.36862385
vn -0.068104565 -0.05717534 0.9960385
vn -0.068104565 -0.05717534 0.9960385
vn -0.068104565 -0.05717534 0.9960385
vn -0.068104565 -0.05717534 0.9960385
vn -0.03678459 0.07593459 -0.9964341
vn -0.03678459 0.07593459 -0.9964341
vn -0.03678459 0.07593459 -0.9964341
vn -0.03678459 0.07593459 -0.9964341
vn 0.0101953745 0.9920438 0.12547973
vn 0.0023654103 0.9920438 0.125871
vn 0.0023654103 0.9920438 0.125871
vn 0.018025398 0.9920438 0.12459618
vn 0.0101953745 0.9920438 0.12547973
vn 0.0023654103 0.9920438 0.125871
vn 0.0023654103 0.9920438 0.125871
vn 0.0023654103 0.9920438 0.125871
vn 0.033685386 -0.98894465 -0.1444083
vn 0.0023654103 -0.98894465 -0.14826614
vn 0.0023654103 -0.98894465 -0.14826614
vn 0.06500536 -0.98894465 -0.13327707
vn 0.0023654103 -0.98894465 -0.14826614
vn 0.0101953745 0.9842139 0.17668918
vn 0.0101953745 0.9842139 0.17668918
vn -0.0054646134 0.9842139 0.17689872
vn -0.013294637 0.9920438 0.1251894
vn -0.013294637 0.9920438 0.1251894
vn -0.0054646134 0.9842139 0.17689872
vn 0.06500536 0.09942454 -0.99291945
vn 0.06500536 0.09942454 -0.99291945
vn 0.06500536 0.09942454 -0.99291945
vn 0.06500536 0.09942454 -0.99291945
vn 0.0023654103 -0.98894465 -0.14826614
vn -0.052444518 -0.98894465 -0.1387011
vn -0.068104565 -0.98894465 -0.13172014
vn 0.0023654103 -0.98894465 -0.14826614
vn 0.0023654103 -0.98894465 -0.14826614
vn 0.033685386 -0.05717534 0.9977957
vn 0.033685386 -0.05717534 0.9977957
vn 0.033685386 -0.05717534 0.9977957
vn 0.033685386 -0.05717534 0.9977957
vn 0.25292522 0.9450639 0.20708235
vn -0.39560586 0.9184204 -0
vn 0.42518508 -0.22160524 -0.8775584
vn 0.42518508 -0.22160524 -0.8775584
vn 0.42518508 -0.22160524 -0.8775584
vn 0.42518508 -0.22160524 -0.8775584
vn -0.4517743 -0.26075518 -0.8531745
vn -0.4517743 -0.26075518 -0.8531745
vn -0.4517743 -0.26075518 -0.8531745
vn -0.4517743 -0.26075518 -0.8531745
vn -0.0054646134 -0.98894465 -0.14818431
vn 0.0023654103 -0.98894465 -0.14826614
vn -0.64752406 -0.04151535 0.7609133
vn -0.64752406 -0.04151535 0.7609133
vn -0.64752406 -0.04151535 0.7609133
vn -0.64752406 -0.04151535 0.7609133
vn 0.66791487 -0.033685386 0.74347496
vn 0.66791487 -0.033685386 0.74347496
vn 0.66791487 -0.033685386 0.74347496
vn 0.66791487 -0.033685386 0.74347496
vn 0.55829495 -0.088495314 0.8249093
vn 0.55829495 -0.088495314 0.8249093
vn 0.55829495 -0.088495314 0.8249093
vn 0.55829495 -0.088495314 0.8249093
vn -0.9842139 -0.0101953745 0.1766892
vn -0.9842139 -0.0101953745 0.1766892
vn -0.9842139 -0.0101953745 0.1766892
vn -0.9842139 -0.0101953745 0.1766892
vn 0.96545464 0.028954566 -0.25895742
vn 0.96545464 0.028954566 -0.25895742
vn 0.96545464 0.028954566 -0.25895742
vn 0.96545464 0.028954566 -0.25895742
vn -0.68667406 0.044614613 -0.7255951
vn -0.68667406 0.044614613 -0.7255951
vn -0.68667406 0.044614613 -0.7255951
vn -0.68667406 0.044614613 -0.7255951
vn 0.049291607 0.99878436 -0
vn 0.0023654103 0.9920438 0.125871
vn 0.0023654103 0.9920438 0.125871
vn 0.0023654103 -0.98894465 -0.14826614
vn 0.0023654103 -0.98894465 -0.14826614
vn 0.0023654103 -0.98894465 -0.14826614
vn 0.0023654103 -0.98894465 -0.14826614
vn -0.0054646134 0.9998738 -0.014916573
vn -0.0054646134 0.9998738 -0.014916573
vn -0.0054646134 0.9998738 -0.014916573
vn -0.0054646134 0.9998738 -0.014916573
vn -0.0054646134 -0.9576247 -0.28796726
vn -0.0054646134 -0.9576247 -0.28796726
vn -0.0054646134 -0.9576247 -0.28796726
vn 0.072835326 0.85110396 0.5199203
vn 0.26075518 -0.6914048 0.67377007
vn 0.26075518 -0.6914048 0.67377007
vn 0.26075518 -0.6914048 0.67377007
g levels_dynamic_woodbox_mesh_4_0
f 3/3/3 2/2/2 1/1/1
f 4/4/4 3/3/3 1/1/1
f 7/7/7 6/6/6 5/5/5
f 8/8/8 7/7/7 5/5/5
f 11/11/11 10/10/10 9/9/9
f 12/12/12 11/11/11 9/9/9
f 8/8/8 5/5/5 13/13/13
f 14/14/14 8/8/8 13/13/13
f 17/17/17 16/16/16 15/15/15
f 18/18/18 17/17/17 15/15/15
f 21/21/21 20/20/20 19/19/19
f 22/22/22 21/21/21 19/19/19
f 25/25/25 24/24/24 23/23/23
f 26/26/26 25/25/25 23/23/23
f 29/29/29 28/28/28 27/27/27
f 27/27/27 30/30/30 29/29/29
f 30/30/30 31/31/31 29/29/29
f 34/34/34 33/33/33 32/32/32
f 37/37/37 36/36/36 35/35/35
f 38/38/38 37/37/37 35/35/35
f 39/39/39 37/37/37 38/38/38
f 40/40/40 27/27/27 28/28/28
f 41/41/41 40/40/40 28/28/28
f 43/43/43 29/29/29 42/42/42
f 28/28/28 43/43/43 44/44/44
f 45/45/45 28/28/28 44/44/44
f 48/48/48 47/47/47 46/46/46
f 49/49/49 48/48/48 46/46/46
f 52/52/52 51/51/51 50/50/50
f 53/53/53 52/52/52 50/50/50
f 52/52/52 53/53/53 54/54/54
f 57/57/57 56/56/56 55/55/55
f 58/58/58 57/57/57 55/55/55
f 43/43/43 28/28/28 29/29/29
f 59/59/59 41/41/41 28/28/28
f 45/45/45 60/60/60 28/28/28
f 63/63/63 62/62/62 61/61/61
f 64/64/64 63/63/63 61/61/61
f 67/67/67 66/66/66 65/65/65
f 68/68/68 67/67/67 65/65/65
f 69/69/69 38/38/38 35/35/35
f 70/70/70 69/69/69 35/35/35
f 52/52/52 69/69/69 70/70/70
f 51/51/51 52/52/52 70/70/70
f 73/73/73 72/72/72 71/71/71
f 74/74/74 73/73/73 71/71/71
f 77/77/77 76/76/76 75/75/75
f 78/78/78 77/77/77 75/75/75
f 81/81/81 80/80/80 79/79/79
f 82/82/82 81/81/81 79/79/79
f 85/85/85 84/84/84 83/83/83
f 86/86/86 85/85/85 83/83/83
f 89/89/89 88/88/88 87/87/87
f 90/90/90 89/89/89 87/87/87
f 93/93/93 92/92/92 91/91/91
f 94/94/94 93/93/93 91/91/91
f 97/97/97 96/96/96 95/95/95
f 100/100/100 99/99/99 98/98/98
f 31/31/31 97/97/97 95/95/95
f 99/99/99 101/101/101 98/98/98
f 104/104/104 103/103/103 102/102/102
f 105/105/105 104/104/104 102/102/102
f 108/108/108 107/107/107 106/106/106
f 29/29/29 31/31/31 95/95/95
f 42/42/42 29/29/29 109/109/109
f 112/112/112 111/111/111 110/110/110
