g levels_dynamic_woodbox_mesh_2
v -0.7678689 1.4312172 -0.9634686
v -0.77019143 1.426142 -1.0382205
v -0.64012825 1.3615835 -1.0379195
v -0.6378057 1.3666155 -0.96316755
v -0.6378057 1.3666155 -0.96316755
v -0.64012825 1.3615835 -1.0379195
v -0.72249305 1.2424879 -1.027296
v -0.7201705 1.24752 -0.952587
v -0.7201705 1.24752 -0.952587
v -0.72249305 1.2424879 -1.027296
v -0.8525132 1.3070464 -1.02764
v -0.85019064 1.3120785 -0.9528881
v -0.85019064 1.3120785 -0.9528881
v -0.8525132 1.3070464 -1.02764
v -0.77019143 1.426142 -1.0382205
v -0.7678689 1.4312172 -0.9634686
v -0.8525132 1.3070464 -1.02764
v -0.72249305 1.2424879 -1.027296
v -0.64012825 1.3615835 -1.0379195
v -0.77019143 1.426142 -1.0382205
v 0.7724168 0.66834307 -0.9634686
v 0.7700942 0.66331077 -1.0382205
v 0.90015745 0.59875226 -1.0379195
v 0.90248 0.60378456 -0.96316755
v 0.90248 0.60378456 -0.96316755
v 0.90015745 0.59875226 -1.0379195
v 0.81779265 0.47961378 -1.027296
v 0.8201152 0.48464596 -0.952587
v 0.8201152 0.48464596 -0.952587
v 0.81779265 0.47961378 -1.027296
v 0.68777245 0.54417217 -1.02764
v 0.690095 0.5492474 -0.9528881
v 0.690095 0.5492474 -0.9528881
v 0.68777245 0.54417217 -1.02764
v 0.7700942 0.66331077 -1.0382205
v 0.7724168 0.66834307 -0.9634686
v 0.68777245 0.54417217 -1.02764
v 0.81779265 0.47961378 -1.027296
v 0.90015745 0.59875226 -1.0379195
v 0.7700942 0.66331077 -1.0382205
v 0.98746836 0.980469 -0.9480279
v 0.9911243 0.9778023 -0.7746533
v 0.40300113 0.97328615 -0.8518568
v -1.0228341 0.95853364 -0.79435205
v 0.23009962 0.9732001 -0.9554687
v -1.0215869 0.96120024 -0.9676836
v -0.69105244 0.50486076 -0.9800276
v -1.0449414 0.5338497 -0.97985554
v -1.0462317 0.5093769 -0.76854587
v -0.69234276 0.48038793 -0.7687179
v -1.0042536 0.46726978 -0.98695225
v -0.69105244 0.50486076 -0.9800276
v -0.69234276 0.48038793 -0.7687179
v -1.005544 0.44279695 -0.7756425
v 0.98746836 0.980469 -0.9480279
v 0.40300113 0.97328615 -0.8518568
v 0.40097964 0.90378153 -0.95482355
v 0.23009962 0.9732001 -0.9554687
v 0.9979629 0.43527007 -0.94402796
v -1.0142319 0.27613187 -1.0085435
v 1.0006295 0.17897153 -0.94841504
v -1.0042536 0.46726978 -0.98695225
v -0.69105244 0.50486076 -0.9800276
v 0.99658656 0.43828082 -0.7587395
v -1.0155222 0.25165904 -0.7972337
v -1.005544 0.44279695 -0.7756425
v -0.69234276 0.48038793 -0.7687179
v -1.0142319 0.27613187 -1.0085435
v -1.0042536 0.46726978 -0.98695225
v -1.005544 0.44279695 -0.7756425
v -1.0155222 0.25165904 -0.7972337
v 0.9996833 0.16060615 -0.789922
v -1.0228341 0.95853364 -0.79435205
v 0.99194145 0.87492156 -0.7368472
v 0.5409352 0.8206426 -0.7946101
v 0.99194145 0.87492156 -0.7368472
v 0.9934468 0.8781904 -0.9495333
v 0.5418384 0.82029843 -0.9174046
v 0.5409352 0.8206426 -0.7946101
v 0.9934468 0.8781904 -0.9495333
v -1.0073504 0.8330295 -0.9292324
v 0.5418384 0.82029843 -0.9174046
v 0.99314576 0.74705195 -0.7240732
v -1.0228341 0.95853364 -0.79435205
v -1.0462317 0.5093769 -0.76854587
v -1.0449414 0.5338497 -0.97985554
v -1.0073504 0.8330295 -0.9292324
v -1.0228341 0.95853364 -0.79435205
v -1.0462317 0.5093769 -0.76854587
v 0.99194145 0.87492156 -0.7368472
v 0.9911243 0.9778023 -0.7746533
v 0.9934468 0.8781904 -0.9495333
v 0.98746836 0.980469 -0.9480279
v 0.9946941 0.7482562 -0.9380065
v -1.0073504 0.8330295 -0.9292324
v -1.0449414 0.5338497 -0.97985554
v 0.99658656 0.43828082 -0.7587395
v 0.99314576 0.74705195 -0.7240732
v 0.9946941 0.7482562 -0.9380065
v 0.9979629 0.43527007 -0.94402796
v -1.0215869 0.96120024 -0.9676836
v 0.98746836 0.980469 -0.9480279
v 0.40097964 0.90378153 -0.95482355
v -1.0215869 0.96120024 -0.9676836
v 0.23009962 0.9732001 -0.9554687
v 0.9911243 0.9778023 -0.7746533
v 0.99194145 0.87492156 -0.7368472
v -1.0228341 0.95853364 -0.79435205
v 0.5418384 0.82029843 -0.9174046
v 0.9946941 0.7482562 -0.9380065
v 0.99314576 0.74705195 -0.7240732
v 0.5409352 0.8206426 -0.7946101
v 0.5418384 0.82029843 -0.9174046
v 0.99314576 0.74705195 -0.7240732
v -1.0228341 0.95853364 -0.79435205
v 0.5409352 0.8206426 -0.7946101
v 0.9996833 0.16060615 -0.789922
v 1.0006295 0.17897153 -0.94841504
v -1.0155222 0.25165904 -0.7972337
v -1.0142319 0.27613187 -1.0085435
v 0.9996833 0.16060615 -0.789922
v 1.0006295 0.17897153 -0.94841504
v -1.0278664 1.7786975 -0.70889056
v -1.0327694 1.7193432 -0.94411397
v 0.9011897 1.7687192 -0.9272109
v 0.9011897 1.7786975 -0.70889056
v 0.64024603 1.3984003 -0.7155571
v 1.039984 1.4380987 -0.714826
v 1.039984 1.4273462 -0.9492322
v 0.64024603 1.3876476 -0.94992036
v 0.9509956 1.356035 -0.7162883
v 0.64024603 1.3984003 -0.7155571
v 0.64024603 1.3876476 -0.94992036
v 0.9509956 1.3452826 -0.9506515
v 0.9629955 1.0753498 -0.702396
v 0.9509956 1.356035 -0.7162883
v 0.9509956 1.3452826 -0.9506515
v 0.9629955 1.0637798 -0.95559776
v -1.0327694 0.97268414 -0.78153497
v -1.0278664 1.7786975 -0.70889056
v 0.64024603 1.3984003 -0.7155571
v 0.9509956 1.3452826 -0.9506515
v 0.64024603 1.3876476 -0.94992036
v -1.0327694 0.9646411 -0.9573181
v -1.0327694 1.7193432 -0.94411397
v -1.0327694 0.9646411 -0.9573181
v -1.0327694 1.7193432 -0.94411397
v -1.0278664 1.7786975 -0.70889056
v -1.0327694 0.97268414 -0.78153497
v 0.9629955 1.0637798 -0.95559776
v 0.88807154 1.6285484 -0.9368022
v 0.9011897 1.7687192 -0.9272109
v 0.88807154 1.6378386 -0.7336645
v 0.9011897 1.7786975 -0.70889056
v 0.9011897 1.7687192 -0.9272109
v 0.88807154 1.6285484 -0.9368022
v 1.039984 1.4273462 -0.9492322
v 1.0297475 1.5874307 -0.9464365
v 1.039984 1.4380987 -0.714826
v 1.0297475 1.5981402 -0.7120303
v 1.0297475 1.5874307 -0.9464365
v 1.039984 1.4273462 -0.9492322
v 1.0297475 1.5874307 -0.9464365
v 1.0297475 1.5981402 -0.7120303
v 0.88807154 1.6378386 -0.7336645
v 0.88807154 1.6285484 -0.9368022
v -1.0327694 0.9646411 -0.9573181
v -1.0327694 0.97268414 -0.78153497
v 0.9629955 1.0637798 -0.95559776
v 0.9629955 1.0753498 -0.702396
v 1.039984 1.4380987 -0.714826
v 0.88807154 1.6378386 -0.7336645
v 1.0297475 1.5981402 -0.7120303
v 0.9011897 1.7786975 -0.70889056
v 0.9509956 1.356035 -0.7162883
v 0.9629955 1.0753498 -0.702396
vt 0.30885237 0.79028034
vt 0.30885237 0.7920141
vt 0.31289798 0.7949039
vt 0.31520975 0.7949039
vt 0.31520975 0.7949039
vt 0.31289798 0.7949039
vt 0.30885237 0.7977936
vt 0.30885237 0.80010533
vt 0.30885237 0.80010533
vt 0.30885237 0.7977936
vt 0.30480674 0.7949039
vt 0.30307293 0.7949039
vt 0.30307293 0.7949039
vt 0.30480674 0.7949039
vt 0.30885237 0.7920141
vt 0.30885237 0.79028034
vt 0.30480674 0.7949039
vt 0.30885237 0.7977936
vt 0.31289798 0.7949039
vt 0.30885237 0.7920141
vt 0.28168896 0.80646276
vt 0.28168896 0.8087746
vt 0.28573456 0.8110863
vt 0.2874684 0.8110863
vt 0.2874684 0.8110863
vt 0.28573456 0.8110863
vt 0.28168896 0.81397605
vt 0.28168896 0.8162879
vt 0.28168896 0.8162879
vt 0.28168896 0.81397605
vt 0.27764335 0.8110863
vt 0.27533156 0.8110863
vt 0.27533156 0.8110863
vt 0.27764335 0.8110863
vt 0.28168896 0.8087746
vt 0.28168896 0.80646276
vt 0.27764335 0.8110863
vt 0.28168896 0.81397605
vt 0.28573456 0.8110863
vt 0.28168896 0.8087746
vt 0.25221378 0.7717861
vt 0.25221378 0.77467585
vt 0.25914913 0.7740979
vt 0.27533156 0.7775655
vt 0.2614609 0.77294195
vt 0.2759095 0.77467585
vt 0.30885237 0.7544477
vt 0.31289798 0.7544477
vt 0.31289798 0.7509801
vt 0.30885237 0.7509801
vt 0.3053847 0.7544477
vt 0.30885237 0.7544477
vt 0.30885237 0.7509801
vt 0.3053847 0.7509801
vt 0.25221378 0.7717861
vt 0.25914913 0.7740979
vt 0.25972706 0.7717861
vt 0.2614609 0.77294195
vt 0.25336966 0.762539
vt 0.27764335 0.762539
vt 0.25394762 0.7579154
vt 0.2770654 0.7660066
vt 0.2730198 0.76658463
vt 0.2510579 0.78623474
vt 0.27475363 0.79028034
vt 0.27475363 0.78681266
vt 0.27128595 0.78623474
vt 0.30191702 0.7544477
vt 0.3053847 0.7544477
vt 0.3053847 0.7509801
vt 0.30191702 0.7509801
vt 0.2510579 0.7914362
vt 0.27533156 0.7775655
vt 0.25163585 0.77698755
vt 0.25683734 0.77872145
vt 0.32272303 0.84171736
vt 0.32272303 0.8382497
vt 0.31752154 0.8388277
vt 0.31752154 0.84113944
vt 0.25279173 0.77063024
vt 0.2759095 0.772364
vt 0.25799322 0.7700522
vt 0.25163585 0.78045523
vt 0.27533156 0.7775655
vt 0.27533156 0.7856568
vt 0.31289798 0.7544477
vt 0.3180995 0.7544477
vt 0.3209892 0.752136
vt 0.31289798 0.7509801
vt 0.32272303 0.84171736
vt 0.32445687 0.84113944
vt 0.32272303 0.8382497
vt 0.32445687 0.8382497
vt 0.25279173 0.7677405
vt 0.2759095 0.772364
vt 0.2770654 0.76716256
vt 0.30654058 0.84171736
vt 0.31232002 0.8422953
vt 0.31232002 0.8382497
vt 0.30654058 0.8382497
vt 0.32041126 0.75502574
vt 0.25221378 0.7717861
vt 0.25972706 0.7717861
vt 0.2759095 0.77467585
vt 0.2614609 0.77294195
vt 0.25221378 0.77467585
vt 0.25163585 0.77698755
vt 0.27533156 0.7775655
vt 0.31752154 0.8388277
vt 0.31232002 0.8382497
vt 0.31232002 0.8422953
vt 0.31752154 0.84113944
vt 0.25799322 0.7700522
vt 0.25163585 0.78045523
vt 0.27533156 0.7775655
vt 0.25683734 0.77872145
vt 0.25452557 0.75502574
vt 0.25394762 0.7579154
vt 0.27764335 0.7584933
vt 0.27764335 0.762539
vt 0.30191702 0.84113944
vt 0.30191702 0.8382497
vt 0.28053308 0.772364
vt 0.28053308 0.7764096
vt 0.30365086 0.7735199
vt 0.30307293 0.7700522
vt 0.2695521 0.7989495
vt 0.27417567 0.7989495
vt 0.27417567 0.7954818
vt 0.2695521 0.7954818
vt 0.2655065 0.7989495
vt 0.2695521 0.7989495
vt 0.2695521 0.7954818
vt 0.2655065 0.7954818
vt 0.2614609 0.7995274
vt 0.2655065 0.7989495
vt 0.2655065 0.7954818
vt 0.2614609 0.7954818
vt 0.27879924 0.76080513
vt 0.28053308 0.772364
vt 0.2990273 0.76485074
vt 0.30480674 0.7792994
vt 0.30076113 0.7792994
vt 0.2822669 0.7879685
vt 0.28053308 0.7764096
vt 0.28631252 0.7995274
vt 0.27533156 0.7995274
vt 0.27475363 0.803573
vt 0.28631252 0.80241716
vt 0.3053847 0.783345
vt 0.30365086 0.7752538
vt 0.30365086 0.7735199
vt 0.2782213 0.7989495
vt 0.28053308 0.7989495
vt 0.28053308 0.7954818
vt 0.2782213 0.7954818
vt 0.3053847 0.7781435
vt 0.3053847 0.7758317
vt 0.27417567 0.7989495
vt 0.27648747 0.7989495
vt 0.27648747 0.7954818
vt 0.27417567 0.7954818
vt 0.27648747 0.7954818
vt 0.27648747 0.7989495
vt 0.2782213 0.7989495
vt 0.2782213 0.7954818
vt 0.2782213 0.7579154
vt 0.27879924 0.76080513
vt 0.30191702 0.75502574
vt 0.30249497 0.75907135
vt 0.3042288 0.76485074
vt 0.30249497 0.7677405
vt 0.3042288 0.76716256
vt 0.30307293 0.7700522
vt 0.30307293 0.7636949
vt 0.30249497 0.75907135
vn 0.44309902 0.89013517 -0.10640779
vn 0.44309902 0.89013517 -0.10640779
vn 0.44309902 0.89013517 -0.10640779
vn 0.44309902 0.89013517 -0.10640779
vn 0.81954163 -0.5685799 0.07119264
vn 0.81954163 -0.5685799 0.07119264
vn 0.81954163 -0.5685799 0.07119264
vn 0.81954163 -0.5685799 0.07119264
vn -0.4431095 -0.8901246 0.10645231
vn -0.4431095 -0.8901246 0.10645231
vn -0.4431095 -0.8901246 0.10645231
vn -0.4431095 -0.8901246 0.10645231
vn -0.8195522 0.5685904 -0.07098701
vn -0.8195522 0.5685904 -0.07098701
vn -0.8195522 0.5685904 -0.07098701
vn -0.8195522 0.5685904 -0.07098701
vn -0.027454138 -0.06665647 -0.9973982
vn -0.027454138 -0.06665647 -0.9973982
vn -0.027454138 -0.06665647 -0.9973982
vn -0.027454138 -0.06665647 -0.9973982
vn 0.44309902 0.89013517 -0.10640779
vn 0.44309902 0.89013517 -0.10640779
vn 0.44309902 0.89013517 -0.10640779
vn 0.44309902 0.89013517 -0.10640779
vn 0.81954163 -0.5685799 0.07119264
vn 0.81954163 -0.5685799 0.07119264
vn 0.81954163 -0.5685799 0.07119264
vn 0.81954163 -0.5685799 0.07119264
vn -0.4431095 -0.8901246 0.10645231
vn -0.4431095 -0.8901246 0.10645231
vn -0.4431095 -0.8901246 0.10645231
vn -0.4431095 -0.8901246 0.10645231
vn -0.8195522 0.5685904 -0.07098701
vn -0.8195522 0.5685904 -0.07098701
vn -0.8195522 0.5685904 -0.07098701
vn -0.8195522 0.5685904 -0.07098701
vn -0.027454138 -0.06665647 -0.9973982
vn -0.027454138 -0.06665647 -0.9973982
vn -0.027454138 -0.06665647 -0.9973982
vn -0.027454138 -0.06665647 -0.9973982
vn -0.011769054 0.99993074 -0
vn -0.011769054 0.99993074 -0
vn -0.011769054 0.99993074 -0
vn -0.011769054 0.99993074 -0
vn -0.011769054 0.99993074 -0
vn -0.011769054 0.99993074 -0
vn -0.08235204 -0.9920778 -0.094866775
vn -0.08235204 -0.9920778 -0.094866775
vn -0.08235204 -0.9920778 -0.094866775
vn -0.08235204 -0.9920778 -0.094866775
vn -0.121564865 0.9842458 0.12838316
vn -0.121564865 0.9842458 0.12838316
vn -0.121564865 0.9842458 0.12838316
vn -0.121564865 0.9842458 0.12838316
vn -0.09803712 0.8273947 -0.55299795
vn -0.019611597 0.8273947 -0.5612783
vn -0.0039265156 0.8273947 -0.56160706
vn 0.3176182 0.78033936 -0.53869206
vn 0.027443707 0.019611597 -0.99943095
vn 0.027443707 0.09803712 -0.9948043
vn 0.027443707 0.019611597 -0.99943095
vn 0.019601107 0.10587978 -0.99418575
vn 0.011758566 0.06666696 -0.997706
vn -0.011769056 -0.113711774 0.993444
vn -0.011769056 -0.113711774 0.993444
vn -0.011769056 -0.113711774 0.993444
vn -0.011769056 -0.113711774 0.993444
vn -0.99870276 0.050919265 -0
vn -0.99870276 0.050919265 -0
vn -0.99870276 0.050919265 -0
vn -0.99870276 0.050919265 -0
vn -0.011769056 -0.113711774 0.993444
vn -0.04313934 -0.52152455 0.852145
vn -0.04313934 -0.52152455 0.852145
vn -0.04313934 -0.52152455 0.852145
vn 0.121554315 -0.9920778 -0.031719495
vn 0.121554315 -0.9920778 -0.031719495
vn 0.121554315 -0.9920778 -0.031719495
vn 0.121554315 -0.9920778 -0.031719495
vn 0.011758566 -0.06665647 -0.99770665
vn -0.0039265156 -0.2940905 -0.9557695
vn 0.003916025 -0.49799693 -0.86717
vn -0.011769056 -0.07449901 0.9971516
vn -0.027454138 0.05882442 0.9978908
vn -0.027454138 0.05882442 0.9978908
vn -0.9920883 0.08235204 -0.09475716
vn -0.9920883 0.06666696 -0.10637808
vn -0.9982741 0.058726955 -0
vn -0.9920883 0.08235204 -0.09475716
vn 0.99992037 0.011769056 0.004555538
vn 0.9998077 0.019609388 -0
vn 0.9990707 0.04310268 -0
vn 0.9982741 0.05872757 -0
vn 0.019601107 0.04313934 -0.99887675
vn 0.003916025 0.16862011 -0.98567337
vn 0.003916025 0.16862011 -0.98567337
vn 0.99992037 0.011769056 0.004555538
vn 0.99992037 0.011769056 0.004555538
vn 0.99992037 0.011769056 0.004555538
vn 0.99992037 0.011769056 0.004555538
vn -0.9920883 -0.113711774 -0.05320161
vn 0.011758566 0.011769056 -0.9998616
vn -0.0039265156 -0.23919266 -0.9709642
vn -0.0039265156 -0.28624797 -0.9581475
vn 0.011758566 0.011769056 -0.9998616
vn -0.011769056 0.34115636 0.9399329
vn -0.011769056 0.34115636 0.9399329
vn -0.011769056 0.34115636 0.9399329
vn 0.16076708 0.9842458 0.07358117
vn 0.16076708 0.9842458 0.07358117
vn 0.15292454 0.9842458 0.08873731
vn 0.113711774 0.96071815 0.25316054
vn 0.011758566 0.33331382 -0.9427426
vn 0.15292454 0.9842458 0.08873731
vn 0.08234155 0.8979777 0.43226832
vn 0.113711774 0.96071815 0.25316054
vn -0.04313934 -0.9920778 -0.11798561
vn -0.04313934 -0.9920778 -0.11798561
vn -0.04313934 -0.9920778 -0.11798561
vn -0.04313934 -0.9920778 -0.11798561
vn 0.99992037 0.011769056 0.004555538
vn 0.99992037 0.011769056 0.004555538
vn -0.011769056 0.9920883 -0.12498903
vn -0.011769056 0.9920883 -0.12498903
vn -0.011769056 0.9920883 -0.12498903
vn -0.011769056 0.9920883 -0.12498903
vn 0.09802669 -0.9920778 0.07856436
vn 0.09802669 -0.9920778 0.07856436
vn 0.09802669 -0.9920778 0.07856436
vn 0.09802669 -0.9920778 0.07856436
vn 0.13702902 0.9905671 -0
vn 0.13702902 0.9905671 -0
vn 0.13702902 0.9905671 -0
vn 0.13702902 0.9905671 -0
vn 0.9990707 0.04310268 -0
vn 0.9990707 0.04310268 -0
vn 0.9990707 0.04310268 -0
vn 0.9990707 0.04310268 -0
vn -0.019611597 -0.08234155 0.99641114
vn -0.011769056 -0.09018409 0.99585557
vn -0.011769056 -0.06665647 0.99770653
vn 0.003916025 0.019611597 -0.9998
vn 0.003916025 0.019611597 -0.9998
vn 0.003916025 0.019611597 -0.9998
vn 0.003916025 0.019611597 -0.9998
vn -0.99993086 0.0039265156 0.01108446
vn -0.99993086 0.0039265156 0.01108446
vn -0.99993086 0.0039265156 0.01108446
vn -0.99993086 0.0039265156 0.01108446
vn 0.003916025 0.019611597 -0.9998
vn 0.011758566 0.13724995 -0.99046665
vn 0.003916025 0.06666696 -0.9977676
vn 0.9920778 -0.09018409 0.0874552
vn 0.9920778 -0.09018409 0.0874552
vn 0.9920778 -0.09018409 0.0874552
vn 0.9920778 -0.09018409 0.0874552
vn 0.003916025 0.019611597 -0.9998
vn 0.003916025 0.019611597 -0.9998
vn 0.99778485 0.06652458 -0
vn 0.99778485 0.06652458 -0
vn 0.99778485 0.06652458 -0
vn 0.99778485 0.06652458 -0
vn 0.2783374 0.9604833 -0
vn 0.2783374 0.9604833 -0
vn 0.2783374 0.9604833 -0
vn 0.2783374 0.9604833 -0
vn 0.05090929 -0.9987033 -0
vn 0.05090929 -0.9987033 -0
vn 0.05090929 -0.9987033 -0
vn 0.05090929 -0.9987033 -0
vn 0.011758566 0.08235204 0.99653393
vn 0.011758566 0.011769056 0.9998616
vn -0.16077757 -0.027443707 0.98660904
vn 0.003916025 -0.17645222 0.98430145
vn -0.04313934 0.035296798 0.9984454
vn -0.04313934 0.05098188 0.99776745
g levels_dynamic_woodbox_mesh_2_0
f 3/3/3 2/2/2 1/1/1
f 4/4/4 3/3/3 1/1/1
f 7/7/7 6/6/6 5/5/5
f 8/8/8 7/7/7 5/5/5
f 11/11/11 10/10/10 9/9/9
f 12/12/12 11/11/11 9/9/9
f 15/15/15 14/14/14 13/13/13
f 16/16/16 15/15/15 13/13/13
f 19/19/19 18/18/18 17/17/17
f 20/20/20 19/19/19 17/17/17
f 23/23/23 22/22/22 21/21/21
f 24/24/24 23/23/23 21/21/21
f 27/27/27 26/26/26 25/25/25
f 28/28/28 27/27/27 25/25/25
f 31/31/31 30/30/30 29/29/29
f 32/32/32 31/31/31 29/29/29
f 35/35/35 34/34/34 33/33/33
f 36/36/36 35/35/35 33/33/33
f 39/39/39 38/38/38 37/37/37
f 40/40/40 39/39/39 37/37/37
f 43/43/43 42/42/42 41/41/41
f 43/43/43 44/44/44 42/42/42
f 45/45/45 44/44/44 43/43/43
f 46/46/46 44/44/44 45/45/45
f 49/49/49 48/48/48 47/47/47
f 50/50/50 49/49/49 47/47/47
f 53/53/53 52/52/52 51/51/51
f 54/54/54 53/53/53 51/51/51
f 57/57/57 56/56/56 55/55/55
f 57/57/57 58/58/58 56/56/56
f 61/61/61 60/60/60 59/59/59
f 62/62/62 59/59/59 60/60/60
f 62/62/62 63/63/63 59/59/59
f 66/66/66 65/65/65 64/64/64
f 67/67/67 66/66/66 64/64/64
f 70/70/70 69/69/69 68/68/68
f 71/71/71 70/70/70 68/68/68
f 65/65/65 72/72/72 64/64/64
f 75/75/75 74/74/74 73/73/73
f 78/78/78 77/77/77 76/76/76
f 79/79/79 78/78/78 76/76/76
f 82/82/82 81/81/81 80/80/80
f 83/83/83 67/67/67 64/64/64
f 85/85/85 83/83/83 84/84/84
f 85/85/85 67/67/67 83/83/83
f 88/88/88 87/87/87 86/86/86
f 89/89/89 88/88/88 86/86/86
f 92/92/92 91/91/91 90/90/90
f 93/93/93 91/91/91 92/92/92
f 63/63/63 94/94/94 59/59/59
f 94/94/94 96/96/96 95/95/95
f 96/96/96 94/94/94 63/63/63
f 99/99/99 98/98/98 97/97/97
f 100/100/100 99/99/99 97/97/97
f 88/88/88 101/101/101 87/87/87
f 80/80/80 103/103/103 102/102/102
f 81/81/81 103/103/103 80/80/80
f 104/104/104 103/103/103 81/81/81
f 105/105/105 103/103/103 104/104/104
f 108/108/108 107/107/107 106/106/106
f 111/111/111 110/110/110 109/109/109
f 112/112/112 111/111/111 109/109/109
f 113/113/113 94/94/94 95/95/95
f 116/116/116 115/115/115 114/114/114
f 119/119/119 118/118/118 117/117/117
f 119/119/119 120/120/120 118/118/118
f 100/100/100 97/97/97 121/121/121
f 122/122/122 100/100/100 121/121/121
f 125/125/125 124/124/124 123/123/123
f 126/126/126 125/125/125 123/123/123
f 129/129/129 128/128/128 127/127/127
f 130/130/130 129/129/129 127/127/127
f 133/133/133 132/132/132 131/131/131
f 134/134/134 133/133/133 131/131/131
f 137/137/137 136/136/136 135/135/135
f 138/138/138 137/137/137 135/135/135
f 141/141/141 140/140/140 139/139/139
f 144/144/144 143/143/143 142/142/142
f 143/143/143 144/144/144 145/145/145
f 148/148/148 147/147/147 146/146/146
f 149/149/149 148/148/148 146/146/146
f 142/142/142 150/150/150 144/144/144
f 145/145/145 152/152/152 151/151/151
f 155/155/155 154/154/154 153/153/153
f 156/156/156 155/155/155 153/153/153
f 157/157/157 143/143/143 145/145/145
f 158/158/158 157/157/157 145/145/145
f 161/161/161 160/160/160 159/159/159
f 162/162/162 161/161/161 159/159/159
f 165/165/165 164/164/164 163/163/163
f 166/166/166 165/165/165 163/163/163
f 151/151/151 158/158/158 145/145/145
f 169/169/169 168/168/168 167/167/167
f 169/169/169 170/170/170 168/168/168
f 140/140/140 141/141/141 171/171/171
f 173/173/173 172/172/172 171/171/171
f 174/174/174 140/140/140 172/172/172
f 172/172/172 140/140/140 171/171/171
f 175/175/175 141/141/141 139/139/139
f 176/176/176 175/175/175 139/139/139
