g levels_dynamic_woodbox_mesh_3
v 0.7156566 0.18358815 -0.6528316
v 0.71519953 0.22605324 -0.38611633
v 0.91551644 0.22796452 -0.38852626
v 0.9159735 0.18541634 -0.6524992
v 0.7123325 1.019634 -0.7333988
v 0.9126494 1.0215038 -0.73306644
v 0.91219234 1.0416975 -0.39122707
v 0.71187544 1.0397861 -0.38881713
v 0.7123325 1.019634 -0.7333988
v 0.7130804 0.83813965 -0.7378032
v 0.913522 0.8145802 -0.7380941
v 0.9126494 1.0215038 -0.73306644
v 0.71345437 0.7289853 -0.6590227
v 0.7120416 0.9203273 -0.12555057
v 0.71519953 0.22605324 -0.38611633
v 0.9124417 0.680163 0.6962433
v 0.9136051 0.39961135 0.6894289
v 0.7120416 0.7024343 0.69653416
v 0.713953 0.6226151 -0.74303865
v 0.7156566 0.18358815 -0.6528316
v 0.9159735 0.18541634 -0.6524992
v 0.91439456 0.59901416 -0.74332947
v 0.7156566 0.18358815 -0.6528316
v 0.713953 0.6226151 -0.74303865
v 0.9159735 0.18541634 -0.6524992
v 0.91551644 0.22796452 -0.38852626
v 0.91439456 0.59901416 -0.74332947
v 0.7120416 0.7024343 0.69653416
v 0.714327 0.14411485 0.6829469
v 0.9136051 0.39961135 0.6894289
v 0.71187544 1.0397861 -0.38881713
v 0.7123325 1.019634 -0.7333988
v 0.7130804 0.83813965 -0.7378032
v 0.9124417 0.9234021 -0.19676882
v 0.9124417 0.680163 0.6962433
v 0.89665234 0.7752731 0.5183222
v 0.9040899 1.0072103 0.0023015738
v 0.9110289 1.0373762 0.6603848
v 0.9110289 1.0373762 0.6603848
v 0.91190153 0.80302906 0.7346363
v 0.7115015 0.82530034 0.7348856
v 0.710712 1.0355064 0.6600524
v 0.91190153 0.80302906 0.7346363
v 0.9040899 1.0072103 0.0023015738
v 0.9110289 1.0373762 0.6603848
v 0.710712 1.0355064 0.6600524
v 0.7192715 1.0043433 0.06969714
v 0.72741544 0.7752315 0.5958147
v 0.7192715 1.0043433 0.06969714
v 0.710712 1.0355064 0.6600524
v 0.91219234 1.0416975 -0.39122707
v 0.9124417 0.9234021 -0.19676882
v 0.7120416 0.9203273 -0.12555057
v 0.71187544 1.0397861 -0.38881713
v 0.7120416 0.9203273 -0.12555057
v 0.9124417 0.9234021 -0.19676882
v 0.9124417 0.680163 0.6962433
v 0.7120416 0.7024343 0.69653416
v 0.72741544 0.7752315 0.5958147
v 0.89665234 0.7752731 0.5183222
v 0.89665234 0.7752731 0.5183222
v 0.72741544 0.7752315 0.5958147
v 0.7115015 0.82530034 0.7348856
v 0.91190153 0.80302906 0.7346363
v 0.7115015 0.82530034 0.7348856
v 0.864575 0.145486 0.6831963
v 0.714327 0.14411485 0.6829469
v 0.864575 0.145486 0.6831963
v 0.864575 0.145486 0.6831963
v 0.714327 0.14411485 0.6829469
v 0.9138544 0.705426 -0.65931356
v 0.71345437 0.7289853 -0.6590227
v 0.713953 0.6226151 -0.74303865
v 0.91439456 0.59901416 -0.74332947
v 0.913522 0.8145802 -0.7380941
v 0.7130804 0.83813965 -0.7378032
v 0.71345437 0.7289853 -0.6590227
v 0.9138544 0.705426 -0.65931356
v 0.9423168 1.105478 -0.76223516
v 0.7958914 1.0944257 -0.77528214
v 0.72330195 1.0965862 0.75528705
v 0.86989355 1.1075971 0.76459444
v 0.8764586 1.4231348 0.5160785
v 0.8643257 1.3851573 0.78487134
v 0.6844518 1.3716116 0.7734449
v 0.6965847 1.4095893 0.504652
v 0.8644504 1.4643948 0.75424826
v 0.8764586 1.4231348 0.5160785
v 0.6965847 1.4095893 0.504652
v 0.68461806 1.4508493 0.7428634
v 0.6965847 1.4095893 0.504652
v 0.7958914 1.0944257 -0.77528214
v 0.7514734 1.7705419 -0.7794788
v 0.8602953 1.6905148 0.76276624
v 0.8644504 1.4643948 0.75424826
v 0.68461806 1.4508493 0.7428634
v 0.6804214 1.6769693 0.7513813
v 0.6844518 1.3716116 0.7734449
v 0.72330195 1.0965862 0.75528705
v 0.8643257 1.3851573 0.78487134
v 0.86989355 1.1075971 0.76459444
v 0.72330195 1.0965862 0.75528705
v 0.6844518 1.3716116 0.7734449
v 0.7514734 1.7705419 -0.7794788
v 0.7958914 1.0944257 -0.77528214
v 0.9423168 1.105478 -0.76223516
v 0.92312026 1.7807219 -0.77091926
v 0.8643257 1.3851573 0.78487134
v 0.8764586 1.4231348 0.5160785
v 0.86989355 1.1075971 0.76459444
v 0.7514734 1.7705419 -0.7794788
v 0.92312026 1.7807219 -0.77091926
v 0.6804214 1.6769693 0.7513813
v 0.8602953 1.6905148 0.76276624
v 0.9423168 1.105478 -0.76223516
v 0.8602953 1.6905148 0.76276624
v 0.92312026 1.7807219 -0.77091926
v 0.6804214 1.6769693 0.7513813
v 0.68461806 1.4508493 0.7428634
v 0.91219234 1.0416975 -0.39122707
v 0.9126494 1.0215038 -0.73306644
v 0.913522 0.8145802 -0.7380941
v 0.9138544 0.705426 -0.65931356
v 0.8644504 1.4643948 0.75424826
vt 0.33730918 0.79600525
vt 0.33319992 0.7954916
vt 0.33319992 0.79960084
vt 0.33730918 0.79960084
vt 0.3383365 0.8129559
vt 0.33885017 0.8093603
vt 0.33319992 0.80884665
vt 0.33268628 0.8124423
vt 0.31368095 0.8165515
vt 0.31573558 0.8165515
vt 0.31573558 0.8129559
vt 0.31368095 0.8129559
vt 0.33782285 0.7898413
vt 0.32960433 0.7877867
vt 0.33319992 0.7954916
vt 0.3624784 0.8124423
vt 0.35939646 0.8124423
vt 0.36299205 0.8165515
vt 0.31933117 0.8165515
vt 0.32446775 0.8165515
vt 0.32446775 0.8129559
vt 0.31933117 0.8129559
vt 0.33730918 0.79600525
vt 0.3393638 0.7913823
vt 0.33730918 0.79960084
vt 0.33319992 0.79960084
vt 0.33885017 0.8042238
vt 0.31573558 0.7893277
vt 0.3152219 0.7954916
vt 0.3152219 0.8011418
vt 0.3337136 0.7862457
vt 0.3393638 0.7867594
vt 0.3393638 0.788814
vt 0.32960433 0.80833304
vt 0.3152219 0.8042238
vt 0.3177902 0.8057647
vt 0.32652238 0.80833304
vt 0.3152219 0.80833304
vt 0.3706969 0.8165515
vt 0.36864227 0.81501055
vt 0.36658767 0.81757885
vt 0.36812863 0.8196335
vt 0.3141946 0.8057647
vt 0.32652238 0.80833304
vt 0.3152219 0.80833304
vt 0.31573558 0.8124423
vt 0.32498142 0.81192863
vt 0.31727654 0.7883004
vt 0.32652238 0.7862457
vt 0.3167629 0.7852184
vt 0.33319992 0.80884665
vt 0.32960433 0.80833304
vt 0.32806337 0.81192863
vt 0.33268628 0.8124423
vt 0.32806337 0.81192863
vt 0.32960433 0.80833304
vt 0.3624784 0.8124423
vt 0.36299205 0.8165515
vt 0.36504668 0.8160379
vt 0.366074 0.8129559
vt 0.366074 0.8129559
vt 0.36504668 0.8160379
vt 0.36658767 0.81757885
vt 0.36864227 0.81501055
vt 0.3152219 0.7877867
vt 0.3152219 0.7980598
vt 0.35682815 0.8165515
vt 0.35682815 0.8134696
vt 0.3152219 0.7980598
vt 0.3152219 0.7954916
vt 0.3177902 0.8129559
vt 0.31727654 0.8165515
vt 0.31933117 0.8165515
vt 0.31933117 0.8129559
vt 0.31573558 0.8129559
vt 0.31573558 0.8165515
vt 0.31727654 0.8165515
vt 0.3177902 0.8129559
vt 0.32549506 0.8257974
vt 0.32549506 0.8283656
vt 0.35580087 0.8283656
vt 0.3563145 0.8257974
vt 0.37480617 0.8216881
vt 0.37480617 0.8165515
vt 0.37121058 0.8165515
vt 0.37121058 0.8222017
vt 0.37480617 0.82682467
vt 0.37480617 0.8216881
vt 0.37121058 0.8222017
vt 0.37121058 0.82733834
vt 0.35117793 0.83350223
vt 0.32549506 0.8283656
vt 0.32549506 0.83915246
vt 0.37480617 0.83042026
vt 0.37480617 0.82682467
vt 0.37121058 0.82733834
vt 0.37172422 0.83042026
vt 0.3563145 0.83298856
vt 0.35580087 0.8283656
vt 0.37480617 0.8165515
vt 0.37429252 0.81192863
vt 0.37172422 0.81192863
vt 0.37121058 0.8165515
vt 0.35734183 0.8216881
vt 0.3671013 0.8216881
vt 0.3671013 0.8191198
vt 0.35734183 0.8191198
vt 0.3563145 0.8216881
vt 0.35117793 0.82117444
vt 0.3563145 0.8257974
vt 0.32498142 0.8134696
vt 0.32498142 0.8155242
vt 0.35580087 0.81398326
vt 0.35580087 0.8170652
vt 0.32549506 0.8257974
vt 0.35580087 0.8170652
vt 0.32498142 0.8155242
vt 0.35580087 0.8376115
vt 0.35580087 0.83401585
vt 0.33319992 0.80884665
vt 0.33885017 0.8093603
vt 0.33885017 0.806792
vt 0.33730918 0.80525106
vt 0.35580087 0.82066077
vn 0.01176399 -0.9843049 0.17608362
vn 0.011763282 -0.99993086 -0
vn 0.011763282 -0.99993086 -0
vn 0.01176399 -0.9843049 0.17608362
vn -0.011764519 0.99993086 -0
vn -0.011764519 0.99993086 -0
vn -0.011764519 0.99993086 -0
vn -0.011764519 0.99993086 -0
vn 0.0039209127 0.027451396 -0.99961543
vn 0.0039209127 0.027451396 -0.99961543
vn 0.0039209127 0.027451396 -0.99961543
vn 0.0039209127 0.027451396 -0.99961543
vn -0.99999225 -0.0039209127 -0.0003516408
vn -0.99999225 0.003922105 -0.0003380853
vn -0.99999225 -0.0039209127 -0.0003516408
vn -0.003922105 -0.027450144 0.9996155
vn -0.003922105 -0.027450144 0.9996155
vn -0.003922105 -0.027450144 0.9996155
vn -0.011765242 -0.2078408 -0.9780919
vn -0.011765242 -0.2078408 -0.9780919
vn -0.011765242 -0.2078408 -0.9780919
vn -0.011765242 -0.2078408 -0.9780919
vn -0.99999225 -0.0039209127 -0.0003516408
vn -0.99999225 -0.0039209127 -0.0003516408
vn 0.99999106 0.003922105 0.0015806605
vn 0.99999106 -0.0039209127 0.0015836152
vn 0.99999106 0.003922105 0.0015806605
vn -0.99999225 -0.0039209127 -0.0003516408
vn -0.99999225 -0.0039209127 -0.0003516408
vn 0.998703 -0.05091365 -0
vn -0.99999225 -0.0039209127 -0.0003516408
vn -0.99999225 -0.0039209127 -0.0003516408
vn -0.99999225 -0.0039209127 -0.0003516408
vn 0.9998079 0.019604668 -0
vn 0.99993086 0.011764533 -0
vn 0.998703 0.050914902 -0
vn 0.992148 0.090195894 0.086643554
vn 0.9990709 -0.043096606 -0
vn 0.019607067 0.31764507 0.9480069
vn 0.019607067 0.31764507 0.9480069
vn 0.019607067 0.31764507 0.9480069
vn 0.019607067 0.31764507 0.9480069
vn 0.9998079 -0.019603476 -0
vn -0.06666672 0.9843062 -0.16339156
vn -0.019604644 0.9998079 -0
vn -0.019604644 0.9998079 -0
vn -0.04313755 0.99214923 -0.11738417
vn -0.9990709 0.043097805 -0
vn -0.99214923 0.08235288 0.09411644
vn -0.99827445 -0.05872135 -0
vn 0.07450855 0.8823463 0.46466497
vn 0.07450855 0.8823463 0.46466497
vn 0.07450855 0.8823463 0.46466497
vn 0.07450855 0.8823463 0.46466497
vn -0.15294051 0.90587544 -0.39496693
vn -0.15294051 0.90587544 -0.39496693
vn 0.16078234 0.8431308 0.51310766
vn 0.16078234 0.8431308 0.51310766
vn 0.16078234 0.8431308 0.51310766
vn 0.16078234 0.8431308 0.51310766
vn -0.011765242 -0.9764618 0.21536925
vn -0.011765242 -0.9764618 0.21536925
vn -0.011765242 -0.9764618 0.21536925
vn -0.011765242 -0.9764618 0.21536925
vn -0.99214923 -0.0431363 -0.11738467
vn 0.9814728 -0.19160175 -0
vn -0.003922105 -0.027450144 0.9996155
vn -0.003922105 -0.027450144 0.9996155
vn 0.011763282 -0.99993086 -0
vn 0.011763282 -0.99993086 -0
vn 0.07450855 0.61568177 -0.7844644
vn 0.07450855 0.61568177 -0.7844644
vn 0.07450855 0.61568177 -0.7844644
vn 0.07450855 0.61568177 -0.7844644
vn -0.06666672 -0.58430827 -0.80878884
vn -0.06666672 -0.58430827 -0.80878884
vn -0.06666672 -0.58430827 -0.80878884
vn -0.06666672 -0.58430827 -0.80878884
vn 0.07430325 -0.99723566 -0
vn 0.07430325 -0.99723566 -0
vn 0.07430325 -0.99723566 -0
vn 0.07430325 -0.99723566 -0
vn -0.08235288 0.9843062 0.15607461
vn -0.08235288 0.9843062 0.15607461
vn -0.08235288 0.9843062 0.15607461
vn -0.08235288 0.9843062 0.15607461
vn 0.06666547 -0.9843049 0.16339995
vn 0.06666547 -0.9843049 0.16339995
vn 0.06666547 -0.9843049 0.16339995
vn 0.06666547 -0.9843049 0.16339995
vn -0.99723566 -0.07430316 -0
vn -0.99214923 -0.07450855 -0.10044092
vn -0.99827445 -0.05872135 -0
vn -0.058823705 -0.03529322 0.9976443
vn -0.058823705 -0.03529322 0.9976443
vn -0.058823705 -0.03529322 0.9976443
vn -0.058823705 -0.03529322 0.9976443
vn -0.9905663 -0.1370342 -0
vn -0.99214923 -0.12156701 -0.029348996
vn -0.058823705 -0.07450855 0.99548393
vn -0.058823705 -0.07450855 0.99548393
vn -0.058823705 -0.07450855 0.99548393
vn -0.058823705 -0.07450855 0.99548393
vn 0.06666547 -0.0039209127 -0.9977677
vn 0.06666547 -0.0039209127 -0.9977677
vn 0.06666547 -0.0039209127 -0.9977677
vn 0.06666547 -0.0039209127 -0.9977677
vn 0.9998079 0.019604668 -0
vn 0.9998079 0.019604668 -0
vn 0.9998079 0.019604668 -0
vn -0.05872265 0.9982743 -0
vn -0.06651958 0.9977851 -0
vn -0.07450986 0.99214923 0.100440055
vn -0.08235288 0.99214923 0.09411645
vn 0.9996234 0.027441304 -0
vn 0.9998079 0.019604668 -0
vn 0.9996234 0.027441304 -0
vn -0.9998079 -0.019603452 -0
vn -0.9998079 -0.019603452 -0
vn 0.99999106 0.003922105 0.0015806605
vn 0.99999106 0.003922105 0.0015806605
vn 0.99999106 0.003922105 0.0015806605
vn 0.99999106 0.003922105 0.0015806605
vn 0.9998079 0.019604668 -0
g levels_dynamic_woodbox_mesh_3_0
f 3/3/3 2/2/2 1/1/1
f 4/4/4 3/3/3 1/1/1
f 7/7/7 6/6/6 5/5/5
f 8/8/8 7/7/7 5/5/5
f 11/11/11 10/10/10 9/9/9
f 12/12/12 11/11/11 9/9/9
f 15/15/15 14/14/14 13/13/13
f 18/18/18 17/17/17 16/16/16
f 21/21/21 20/20/20 19/19/19
f 22/22/22 21/21/21 19/19/19
f 24/24/24 23/23/23 15/15/15
f 13/13/13 24/24/24 15/15/15
f 27/27/27 26/26/26 25/25/25
f 29/29/29 28/28/28 14/14/14
f 15/15/15 29/29/29 14/14/14
f 30/30/30 26/26/26 27/27/27
f 31/31/31 13/13/13 14/14/14
f 33/33/33 31/31/31 32/32/32
f 13/13/13 31/31/31 33/33/33
f 36/36/36 35/35/35 34/34/34
f 37/37/37 36/36/36 34/34/34
f 36/36/36 37/37/37 38/38/38
f 41/41/41 40/40/40 39/39/39
f 42/42/42 41/41/41 39/39/39
f 38/38/38 43/43/43 36/36/36
f 46/46/46 45/45/45 44/44/44
f 47/47/47 46/46/46 44/44/44
f 50/50/50 49/49/49 48/48/48
f 53/53/53 52/52/52 51/51/51
f 54/54/54 53/53/53 51/51/51
f 55/55/55 47/47/47 44/44/44
f 56/56/56 55/55/55 44/44/44
f 59/59/59 58/58/58 57/57/57
f 60/60/60 59/59/59 57/57/57
f 63/63/63 62/62/62 61/61/61
f 64/64/64 63/63/63 61/61/61
f 48/48/48 65/65/65 50/50/50
f 28/28/28 48/48/48 49/49/49
f 14/14/14 28/28/28 49/49/49
f 66/66/66 26/26/26 30/30/30
f 67/67/67 17/17/17 18/18/18
f 67/67/67 68/68/68 17/17/17
f 69/69/69 2/2/2 3/3/3
f 2/2/2 69/69/69 70/70/70
f 73/73/73 72/72/72 71/71/71
f 74/74/74 73/73/73 71/71/71
f 77/77/77 76/76/76 75/75/75
f 78/78/78 77/77/77 75/75/75
f 81/81/81 80/80/80 79/79/79
f 82/82/82 81/81/81 79/79/79
f 85/85/85 84/84/84 83/83/83
f 86/86/86 85/85/85 83/83/83
f 89/89/89 88/88/88 87/87/87
f 90/90/90 89/89/89 87/87/87
f 93/93/93 92/92/92 91/91/91
f 96/96/96 95/95/95 94/94/94
f 97/97/97 96/96/96 94/94/94
f 91/91/91 99/99/99 98/98/98
f 99/99/99 91/91/91 92/92/92
f 102/102/102 101/101/101 100/100/100
f 103/103/103 102/102/102 100/100/100
f 106/106/106 105/105/105 104/104/104
f 107/107/107 106/106/106 104/104/104
f 110/110/110 109/109/109 108/108/108
f 113/113/113 112/112/112 111/111/111
f 113/113/113 114/114/114 112/112/112
f 109/109/109 110/110/110 115/115/115
f 109/109/109 117/117/117 116/116/116
f 117/117/117 109/109/109 115/115/115
f 119/119/119 118/118/118 91/91/91
f 122/122/122 121/121/121 120/120/120
f 123/123/123 122/122/122 120/120/120
f 34/34/34 35/35/35 123/123/123
f 30/30/30 27/27/27 123/123/123
f 35/35/35 30/30/30 123/123/123
f 120/120/120 34/34/34 123/123/123
f 118/118/118 93/93/93 91/91/91
f 124/124/124 109/109/109 116/116/116
