g levels_dynamic_woodbox_mesh_5
v 1.0935069 0.03955269 0.5718616
v 1.0988052 -0.1538679 0.6152538
v 0.4652254 -0.074159026 0.5973805
v -1.0688598 -0.1538679 0.6152538
v 0.27834386 0.03955269 0.5718616
v -1.0688598 0.03955269 0.5718616
v -0.7183019 -0.022048235 -0.11282307
v -1.0988052 -0.020539165 -0.06386435
v -1.0988052 -0.25996757 -0.042335868
v -0.7183019 -0.26147658 -0.091328144
v -1.0558155 -0.023657799 -0.16510159
v -0.7183019 -0.022048235 -0.11282307
v -0.7183019 -0.26147658 -0.091328144
v -1.0558155 -0.26308614 -0.14360672
v 1.0935069 0.03955269 0.5718616
v 0.4652254 -0.074159026 0.5973805
v 0.46143615 0.028520107 0.46636558
v 0.27834386 0.03955269 0.5718616
v -1.0688598 -0.032544136 -0.45382404
v 1.0988052 -0.09756541 -0.6152538
v -1.0558155 -0.023657799 -0.16510159
v 1.0988052 -0.24977338 0.28733087
v 1.0988052 -0.011451602 0.23062587
v 1.0988052 -0.09756541 -0.6152538
v 1.0988052 -0.27713662 -0.5991242
v 1.0988052 -0.24977338 0.28733087
v 1.0988052 -0.27713662 -0.5991242
v -0.7183019 -0.26147658 -0.091328144
v -1.0688598 -0.032544136 -0.45382404
v -1.0558155 -0.023657799 -0.16510159
v -1.0558155 -0.26308614 -0.14360672
v -1.0688598 -0.27197254 -0.43229562
v -1.0688598 -0.1538679 0.6152538
v 1.0988052 -0.21359086 0.4732064
v 0.6124034 -0.16282135 0.38464475
v 1.0988052 -0.21359086 0.4732064
v 1.0988052 0.023691297 0.41992188
v 0.6124034 -0.026172757 0.35060835
v 0.6124034 -0.16282135 0.38464475
v 1.0988052 0.023691297 0.41992188
v -1.0688598 0.03955269 0.5718616
v 0.6124034 -0.026172757 0.35060835
v -1.0688598 -0.1538679 0.6152538
v -1.0988052 -0.25996757 -0.042335868
v -1.0988052 -0.020539165 -0.06386435
v -1.0688598 0.03955269 0.5718616
v -1.0688598 -0.1538679 0.6152538
v -1.0988052 -0.25996757 -0.042335868
v 1.0988052 -0.21359086 0.4732064
v 1.0988052 -0.1538679 0.6152538
v 1.0988052 0.023691297 0.41992188
v 1.0935069 0.03955269 0.5718616
v -1.0988052 -0.020539165 -0.06386435
v -0.7183019 -0.022048235 -0.11282307
v 1.0935069 0.03955269 0.5718616
v 0.46143615 0.028520107 0.46636558
v 0.27834386 0.03955269 0.5718616
v 0.6124034 -0.026172757 0.35060835
v 1.0988052 -0.011451602 0.23062587
v 1.0988052 -0.24977338 0.28733087
v 0.6124034 -0.16282135 0.38464475
v 1.0988052 -0.24977338 0.28733087
v -1.0688598 -0.1538679 0.6152538
v 0.6124034 -0.16282135 0.38464475
v 1.0988052 -0.21359086 0.4732064
v -1.0688598 -0.1538679 0.6152538
v 1.0988052 -0.1538679 0.6152538
v 1.0988052 -0.27713662 -0.5991242
v 1.0988052 -0.09756541 -0.6152538
v -1.0688598 -0.27197254 -0.43229562
v -1.0688598 -0.032544136 -0.45382404
v 1.0988052 -0.011451602 0.23062587
v -1.0688598 -0.27197254 -0.43229562
v -1.0558155 -0.26308614 -0.14360672
v 0.70763826 0.17073524 0.1929344
v 0.61636037 -0.13099813 0.17485988
v 0.6897985 -0.15363318 0.13666534
v 0.79539514 0.14367378 0.14736247
v 0.7609228 0.14628935 0.27706957
v 0.6609598 -0.15142 0.24527991
v 0.61636037 -0.13099813 0.17485988
v 0.70763826 0.17073524 0.1929344
v 0.84867966 0.1192615 0.23146415
v 0.7344314 -0.17408854 0.20708549
v 0.6609598 -0.15142 0.24527991
v 0.7609228 0.14628935 0.27706957
v 0.79539514 0.14367378 0.14736247
v 0.6897985 -0.15363318 0.13666534
v 0.7344314 -0.17408854 0.20708549
v 0.84867966 0.1192615 0.23146415
v 0.80827194 0.14266777 0.098906755
v 0.8383849 0.22985458 0.105143905
v 0.6851038 0.27713668 0.18478572
v 0.6549908 0.18994987 0.17858207
v 0.6549908 0.18994987 0.17858207
v 0.6851038 0.27713668 0.18478572
v 0.7781925 0.23448217 0.33172905
v 0.74807954 0.14729536 0.3254918
v 0.74807954 0.14729536 0.3254918
v 0.7781925 0.23448217 0.33172905
v 0.9314736 0.18720019 0.25208724
v 0.90136063 0.100013375 0.24585009
v 0.90136063 0.100013375 0.24585009
v 0.9314736 0.18720019 0.25208724
v 0.8383849 0.22985458 0.105143905
v 0.80827194 0.14266777 0.098906755
v 0.9314736 0.18720019 0.25208724
v 0.7781925 0.23448217 0.33172905
v 0.6851038 0.27713668 0.18478572
v 0.8383849 0.22985458 0.105143905
vt 0.34956056 0.7678715
vt 0.34956056 0.7706865
vt 0.3563166 0.7695605
vt 0.37320668 0.7723755
vt 0.3585686 0.76843446
vt 0.37320668 0.7695605
vt 0.3129654 0.8371208
vt 0.31690642 0.8371208
vt 0.31690642 0.8331798
vt 0.3129654 0.8331798
vt 0.3090244 0.8371208
vt 0.3129654 0.8371208
vt 0.3129654 0.8331798
vt 0.3090244 0.8331798
vt 0.34956056 0.7678715
vt 0.3563166 0.7695605
vt 0.3568796 0.7673085
vt 0.3585686 0.76843446
vt 0.37433267 0.75717443
vt 0.35068655 0.75379646
vt 0.37376967 0.76111543
vt 0.2718662 0.7948956
vt 0.2713032 0.7909546
vt 0.26173216 0.7920806
vt 0.26173216 0.7948956
vt 0.34899756 0.7763165
vt 0.34899756 0.7870136
vt 0.36870265 0.78082055
vt 0.30564636 0.8371208
vt 0.3090244 0.8371208
vt 0.3090244 0.8331798
vt 0.30564636 0.8331798
vt 0.37320668 0.7723755
vt 0.34899756 0.7723755
vt 0.35462758 0.7740645
vt 0.28256327 0.7937696
vt 0.28256327 0.7898286
vt 0.27693322 0.7909546
vt 0.27749622 0.7932066
vt 0.34956056 0.7661825
vt 0.37320668 0.7695605
vt 0.35519058 0.76561946
vt 0.37320668 0.7723755
vt 0.37320668 0.78082055
vt 0.31690642 0.8371208
vt 0.32422546 0.8376838
vt 0.32478845 0.8348688
vt 0.31690642 0.8331798
vt 0.28256327 0.7937696
vt 0.28425226 0.7926436
vt 0.28256327 0.7898286
vt 0.28425226 0.7898286
vt 0.37433267 0.7622415
vt 0.36982864 0.76111543
vt 0.34956056 0.7678715
vt 0.3568796 0.7673085
vt 0.3585686 0.76843446
vt 0.27693322 0.7909546
vt 0.2713032 0.7909546
vt 0.2718662 0.7948956
vt 0.27749622 0.7932066
vt 0.34899756 0.7763165
vt 0.37320668 0.7723755
vt 0.35462758 0.7740645
vt 0.34899756 0.7723755
vt 0.37320668 0.7723755
vt 0.34956056 0.7706865
vt 0.35124958 0.7509814
vt 0.35068655 0.75379646
vt 0.37433267 0.75379646
vt 0.37433267 0.75717443
vt 0.35012358 0.7633675
vt 0.37264368 0.7853246
vt 0.37264368 0.78194654
vt 0.27524424 0.8140377
vt 0.2656732 0.8140377
vt 0.2656732 0.8168527
vt 0.27524424 0.8168527
vt 0.27524424 0.81065965
vt 0.2656732 0.81065965
vt 0.2656732 0.8140377
vt 0.27524424 0.8140377
vt 0.27524424 0.8072817
vt 0.2656732 0.8072817
vt 0.2656732 0.81065965
vt 0.27524424 0.81065965
vt 0.27524424 0.80446666
vt 0.2656732 0.80446666
vt 0.2656732 0.8072817
vt 0.27524424 0.8072817
vt 0.3185954 0.8185417
vt 0.3185954 0.8202307
vt 0.32253644 0.82360876
vt 0.32478845 0.82360876
vt 0.32478845 0.82360876
vt 0.32253644 0.82360876
vt 0.3185954 0.82642376
vt 0.3185954 0.8281128
vt 0.3185954 0.8281128
vt 0.3185954 0.82642376
vt 0.3146544 0.82360876
vt 0.3129654 0.82360876
vt 0.3129654 0.82360876
vt 0.3146544 0.82360876
vt 0.3185954 0.8202307
vt 0.3185954 0.8185417
vt 0.3146544 0.82360876
vt 0.3185954 0.82642376
vt 0.32253644 0.82360876
vt 0.3185954 0.8202307
vn -0.0034755468 0.21514487 0.976576
vn -0.0034755468 0.21514487 0.976576
vn -0.0034755468 0.21514487 0.976576
vn -0.0034755468 0.21514487 0.976576
vn -0.0034755468 0.21514487 0.976576
vn -0.0034755468 0.21514487 0.976576
vn -0.12890923 -0.090599775 -0.987509
vn -0.12890923 -0.090599775 -0.987509
vn -0.12890923 -0.090599775 -0.987509
vn -0.12890923 -0.090599775 -0.987509
vn -0.15242803 0.08971119 0.9842345
vn -0.15242803 0.08971119 0.9842345
vn -0.15242803 0.08971119 0.9842345
vn -0.15242803 0.08971119 0.9842345
vn -0.11322999 0.77959645 0.6159613
vn -0.019154668 0.7874361 0.6160985
vn -0.011315107 0.7874361 0.61629236
vn 0.37282556 0.73255885 0.56952494
vn 0.027882934 0.99910545 -0.031793635
vn 0.012203693 0.9912659 -0.13131249
vn 0.027882934 0.99910545 -0.031793635
vn 0.99999404 0.0034755468 -0
vn 0.99999404 0.0034755468 -0
vn 0.99999404 0.0034755468 -0
vn 0.99999404 0.0034755468 -0
vn -0.0034755468 -0.99999404 -0
vn -0.0034755468 -0.99999404 -0
vn -0.0034755468 -0.99999404 -0
vn -0.99910545 0.0034755468 0.04214545
vn -0.99910545 0.0034755468 0.04214545
vn -0.99910545 0.0034755468 0.04214545
vn -0.99910545 0.0034755468 0.04214545
vn -0.042673588 -0.9529564 -0.30008847
vn -0.042673588 -0.9529564 -0.30008847
vn -0.042673588 -0.9529564 -0.30008847
vn 0.15331662 -0.22387308 -0.9624837
vn 0.15331662 -0.22387308 -0.9624837
vn 0.15331662 -0.22387308 -0.9624837
vn 0.15331662 -0.22387308 -0.9624837
vn -0.011315107 0.97558665 -0.21932322
vn 0.020043314 0.99910545 -0.037236847
vn -0.011315107 0.9912659 -0.13139212
vn -0.019154668 -0.9843148 0.17537795
vn -0.019154668 -0.9843148 0.17537795
vn -0.99910545 0.0034755468 0.04214545
vn -0.99910545 0.0034755468 0.04214545
vn -0.99910545 0.0034755468 0.04214545
vn -0.99910545 0.0034755468 0.04214545
vn 0.99999404 0.0034755468 -0
vn 0.999936 0.011314451 -0
vn 0.9998166 0.019151269 -0
vn 0.9993938 0.034813 -0
vn 0.020043314 0.99910545 -0.037236847
vn 0.020043314 0.99910545 -0.037236847
vn -0.0034755468 0.9912659 -0.13183254
vn -0.0034755468 0.9912659 -0.13183254
vn -0.0034755468 0.9912659 -0.13183254
vn 0.2317127 0.23082411 0.9450024
vn 0.2317127 0.23082411 0.9450024
vn 0.2317127 0.23082411 0.9450024
vn 0.2317127 0.23082411 0.9450024
vn 0.12979782 -0.34146714 0.9308881
vn 0.12979782 -0.34146714 0.9308881
vn 0.12979782 -0.34146714 0.9308881
vn -0.0034755468 -0.92159796 0.38813022
vn -0.0034755468 -0.92159796 0.38813022
vn -0.0034755468 -0.92159796 0.38813022
vn -0.07403195 -0.090599775 -0.9931319
vn -0.07403195 -0.090599775 -0.9931319
vn -0.07403195 -0.090599775 -0.9931319
vn -0.07403195 -0.090599775 -0.9931319
vn 0.012203693 0.99910545 -0.040489085
vn -0.0034755468 -0.99999404 -0
vn -0.0034755468 -0.99999404 -0
vn -0.41113496 0.17594683 -0.8944332
vn -0.41113496 0.17594683 -0.8944332
vn -0.41113496 0.17594683 -0.8944332
vn -0.41113496 0.17594683 -0.8944332
vn -0.7952757 0.20730531 0.5697027
vn -0.7952757 0.20730531 0.5697027
vn -0.7952757 0.20730531 0.5697027
vn -0.7952757 0.20730531 0.5697027
vn 0.39634436 -0.22387308 0.89038867
vn 0.39634436 -0.22387308 0.89038867
vn 0.39634436 -0.22387308 0.89038867
vn 0.39634436 -0.22387308 0.89038867
vn 0.7804851 -0.2552315 -0.57070124
vn 0.7804851 -0.2552315 -0.57070124
vn 0.7804851 -0.2552315 -0.57070124
vn 0.7804851 -0.2552315 -0.57070124
vn -0.4032954 0.19946563 -0.8930657
vn -0.4032954 0.19946563 -0.8930657
vn -0.4032954 0.19946563 -0.8930657
vn -0.4032954 0.19946563 -0.8930657
vn -0.7874361 0.23082411 0.5715458
vn -0.7874361 0.23082411 0.5715458
vn -0.7874361 0.23082411 0.5715458
vn -0.7874361 0.23082411 0.5715458
vn 0.40418398 -0.20035422 0.8924648
vn 0.40418398 -0.20035422 0.8924648
vn 0.40418398 -0.20035422 0.8924648
vn 0.40418398 -0.20035422 0.8924648
vn 0.7883247 -0.2317127 -0.5699591
vn 0.7883247 -0.2317127 -0.5699591
vn 0.7883247 -0.2317127 -0.5699591
vn 0.7883247 -0.2317127 -0.5699591
vn 0.32578796 0.9442282 0.047910072
vn 0.32578796 0.9442282 0.047910072
vn 0.32578796 0.9442282 0.047910072
vn 0.32578796 0.9442282 0.047910072
g levels_dynamic_woodbox_mesh_5_0
f 3/3/3 2/2/2 1/1/1
f 3/3/3 4/4/4 2/2/2
f 5/5/5 4/4/4 3/3/3
f 6/6/6 4/4/4 5/5/5
f 9/9/9 8/8/8 7/7/7
f 10/10/10 9/9/9 7/7/7
f 13/13/13 12/12/12 11/11/11
f 14/14/14 13/13/13 11/11/11
f 17/17/17 16/16/16 15/15/15
f 17/17/17 18/18/18 16/16/16
f 21/21/21 20/20/20 19/19/19
f 24/24/24 23/23/23 22/22/22
f 25/25/25 24/24/24 22/22/22
f 28/28/28 27/27/27 26/26/26
f 31/31/31 30/30/30 29/29/29
f 32/32/32 31/31/31 29/29/29
f 35/35/35 34/34/34 33/33/33
f 38/38/38 37/37/37 36/36/36
f 39/39/39 38/38/38 36/36/36
f 42/42/42 41/41/41 40/40/40
f 44/44/44 26/26/26 43/43/43
f 44/44/44 28/28/28 26/26/26
f 47/47/47 46/46/46 45/45/45
f 48/48/48 47/47/47 45/45/45
f 51/51/51 50/50/50 49/49/49
f 52/52/52 50/50/50 51/51/51
f 54/54/54 53/53/53 41/41/41
f 42/42/42 54/54/54 41/41/41
f 40/40/40 56/56/56 55/55/55
f 41/41/41 56/56/56 40/40/40
f 57/57/57 56/56/56 41/41/41
f 60/60/60 59/59/59 58/58/58
f 61/61/61 60/60/60 58/58/58
f 64/64/64 63/63/63 62/62/62
f 67/67/67 66/66/66 65/65/65
f 70/70/70 69/69/69 68/68/68
f 71/71/71 69/69/69 70/70/70
f 72/72/72 20/20/20 54/54/54
f 54/54/54 20/20/20 21/21/21
f 72/72/72 54/54/54 42/42/42
f 73/73/73 27/27/27 28/28/28
f 74/74/74 73/73/73 28/28/28
f 77/77/77 76/76/76 75/75/75
f 78/78/78 77/77/77 75/75/75
f 81/81/81 80/80/80 79/79/79
f 82/82/82 81/81/81 79/79/79
f 85/85/85 84/84/84 83/83/83
f 86/86/86 85/85/85 83/83/83
f 89/89/89 88/88/88 87/87/87
f 90/90/90 89/89/89 87/87/87
f 93/93/93 92/92/92 91/91/91
f 94/94/94 93/93/93 91/91/91
f 97/97/97 96/96/96 95/95/95
f 98/98/98 97/97/97 95/95/95
f 101/101/101 100/100/100 99/99/99
f 102/102/102 101/101/101 99/99/99
f 105/105/105 104/104/104 103/103/103
f 106/106/106 105/105/105 103/103/103
f 109/109/109 108/108/108 107/107/107
f 110/110/110 109/109/109 107/107/107
