g levels_dynamic_woodbox_mesh_7
v 1.0935069 -0.038647175 0.5718616
v 1.0988052 -0.1538679 0.6152538
v 0.4652254 -0.074159026 0.5973805
v -1.0688598 -0.1538679 0.6152538
v 0.27834386 -0.038647175 0.5718616
v -1.0688598 -0.038647175 0.5718616
v -0.7183019 -0.038647175 -0.11282307
v -1.0988052 -0.038647175 -0.06386435
v -1.0988052 -0.25996757 -0.042335868
v -0.7183019 -0.26147658 -0.091328144
v -1.0558155 -0.038647175 -0.16510159
v -0.7183019 -0.038647175 -0.11282307
v -0.7183019 -0.26147658 -0.091328144
v -1.0558155 -0.26308614 -0.14360672
v 1.0935069 -0.038647175 0.5718616
v 0.4652254 -0.074159026 0.5973805
v 0.46143615 -0.038647175 0.46636558
v 0.27834386 -0.038647175 0.5718616
v -1.0688598 -0.038647175 -0.45382404
v 1.0988052 -0.038647175 -0.6152538
v -1.0558155 -0.038647175 -0.16510159
v 1.0988052 -0.24977338 0.28733087
v 1.0988052 -0.038647175 0.23062587
v 1.0988052 -0.038647175 -0.6152538
v 1.0988052 -0.27713662 -0.5991242
v 1.0988052 -0.24977338 0.28733087
v 1.0988052 -0.27713662 -0.5991242
v -0.7183019 -0.26147658 -0.091328144
v -1.0688598 -0.038647175 -0.45382404
v -1.0558155 -0.038647175 -0.16510159
v -1.0558155 -0.26308614 -0.14360672
v -1.0688598 -0.27197254 -0.43229562
v -1.0688598 -0.1538679 0.6152538
v 1.0988052 -0.21359086 0.4732064
v 0.6124034 -0.16282135 0.38464475
v 1.0988052 -0.21359086 0.4732064
v 1.0988052 -0.038647175 0.41992188
v 0.6124034 -0.038647175 0.35060835
v 0.6124034 -0.16282135 0.38464475
v 1.0988052 -0.038647175 0.41992188
v -1.0688598 -0.038647175 0.5718616
v 0.6124034 -0.038647175 0.35060835
v -1.0688598 -0.1538679 0.6152538
v -1.0988052 -0.25996757 -0.042335868
v -1.0988052 -0.038647175 -0.06386435
v -1.0688598 -0.038647175 0.5718616
v -1.0688598 -0.1538679 0.6152538
v -1.0988052 -0.25996757 -0.042335868
v 1.0988052 -0.21359086 0.4732064
v 1.0988052 -0.1538679 0.6152538
v 1.0988052 -0.038647175 0.41992188
v 1.0935069 -0.038647175 0.5718616
v -1.0988052 -0.038647175 -0.06386435
v -0.7183019 -0.038647175 -0.11282307
v 1.0935069 -0.038647175 0.5718616
v 0.46143615 -0.038647175 0.46636558
v 0.27834386 -0.038647175 0.5718616
v 0.6124034 -0.038647175 0.35060835
v 1.0988052 -0.038647175 0.23062587
v 1.0988052 -0.24977338 0.28733087
v 0.6124034 -0.16282135 0.38464475
v 1.0988052 -0.24977338 0.28733087
v -1.0688598 -0.1538679 0.6152538
v 0.6124034 -0.16282135 0.38464475
v 1.0988052 -0.21359086 0.4732064
v -1.0688598 -0.1538679 0.6152538
v 1.0988052 -0.1538679 0.6152538
v 1.0988052 -0.27713662 -0.5991242
v 1.0988052 -0.038647175 -0.6152538
v -1.0688598 -0.27197254 -0.43229562
v -1.0688598 -0.038647175 -0.45382404
v 1.0988052 -0.038647175 0.23062587
v -1.0688598 -0.27197254 -0.43229562
v -1.0558155 -0.26308614 -0.14360672
v 0.70763826 0.17073524 0.1929344
v 0.61636037 -0.13099813 0.17485988
v 0.6897985 -0.15363318 0.13666534
v 0.79539514 0.14367378 0.14736247
v 0.7609228 0.14628935 0.27706957
v 0.6609598 -0.15142 0.24527991
v 0.61636037 -0.13099813 0.17485988
v 0.70763826 0.17073524 0.1929344
v 0.84867966 0.1192615 0.23146415
v 0.7344314 -0.17408854 0.20708549
v 0.6609598 -0.15142 0.24527991
v 0.7609228 0.14628935 0.27706957
v 0.79539514 0.14367378 0.14736247
v 0.6897985 -0.15363318 0.13666534
v 0.7344314 -0.17408854 0.20708549
v 0.84867966 0.1192615 0.23146415
v 0.80827194 0.14266777 0.098906755
v 0.8383849 0.22985458 0.105143905
v 0.6851038 0.27713668 0.18478572
v 0.6549908 0.18994987 0.17858207
v 0.6549908 0.18994987 0.17858207
v 0.6851038 0.27713668 0.18478572
v 0.7781925 0.23448217 0.33172905
v 0.74807954 0.14729536 0.3254918
v 0.74807954 0.14729536 0.3254918
v 0.7781925 0.23448217 0.33172905
v 0.9314736 0.18720019 0.25208724
v 0.90136063 0.100013375 0.24585009
v 0.90136063 0.100013375 0.24585009
v 0.9314736 0.18720019 0.25208724
v 0.8383849 0.22985458 0.105143905
v 0.80827194 0.14266777 0.098906755
v 0.9314736 0.18720019 0.25208724
v 0.7781925 0.23448217 0.33172905
v 0.6851038 0.27713668 0.18478572
v 0.8383849 0.22985458 0.105143905
vt 0.34944478 0.76732767
vt 0.34944478 0.7708932
vt 0.3565759 0.769467
vt 0.37297744 0.77231944
vt 0.35871524 0.7687539
vt 0.37297744 0.769467
vt 0.31307614 0.8372125
vt 0.3166417 0.8372125
vt 0.3166417 0.83364695
vt 0.31307614 0.83364695
vt 0.30879748 0.8372125
vt 0.31307614 0.8372125
vt 0.31307614 0.83364695
vt 0.30879748 0.83364695
vt 0.34944478 0.76732767
vt 0.3565759 0.769467
vt 0.3565759 0.76732767
vt 0.35871524 0.7687539
vt 0.3836741 0.98482645
vt 0.3836741 0.99124444
vt 0.3843872 0.98482645
vt 0.2717157 0.795139
vt 0.2717157 0.7915734
vt 0.26173216 0.7922865
vt 0.26173216 0.795139
vt 0.34944478 0.775885
vt 0.34873167 0.78658164
vt 0.36869878 0.78087676
vt 0.30594504 0.8372125
vt 0.30879748 0.8372125
vt 0.30879748 0.83364695
vt 0.30594504 0.83364695
vt 0.37297744 0.77231944
vt 0.34944478 0.77231944
vt 0.35443655 0.77445877
vt 0.28241238 0.7937128
vt 0.28241238 0.7901472
vt 0.2767075 0.7908603
vt 0.2774206 0.7929997
vt 0.38652653 0.99124444
vt 0.38652653 0.98482645
vt 0.38581342 0.9898182
vt 0.37297744 0.77231944
vt 0.37297744 0.78087676
vt 0.3166417 0.8372125
vt 0.3244859 0.8379256
vt 0.3244859 0.83436006
vt 0.3166417 0.83364695
vt 0.28241238 0.7937128
vt 0.2845517 0.7929997
vt 0.28241238 0.7901472
vt 0.2838386 0.7894341
vt 0.3851003 0.98482645
vt 0.3851003 0.98553956
vt 0.38652653 0.99124444
vt 0.38652653 0.9891051
vt 0.38652653 0.988392
vt 0.2767075 0.7908603
vt 0.2717157 0.7915734
vt 0.2717157 0.795139
vt 0.2774206 0.7929997
vt 0.34944478 0.775885
vt 0.37297744 0.77231944
vt 0.35443655 0.77445877
vt 0.34944478 0.77231944
vt 0.37297744 0.77231944
vt 0.34944478 0.7708932
vt 0.350871 0.75092614
vt 0.350871 0.7537786
vt 0.37440366 0.7537786
vt 0.37440366 0.7573441
vt 0.38581342 0.99124444
vt 0.37226433 0.7851554
vt 0.37226433 0.78158987
vt 0.27528125 0.8136799
vt 0.2652977 0.8136799
vt 0.2652977 0.8172454
vt 0.27528125 0.8172454
vt 0.27528125 0.81082743
vt 0.2652977 0.81082743
vt 0.2652977 0.8136799
vt 0.27528125 0.8136799
vt 0.27528125 0.8072619
vt 0.2652977 0.8072619
vt 0.2652977 0.81082743
vt 0.27528125 0.81082743
vt 0.27528125 0.80440944
vt 0.2652977 0.80440944
vt 0.2652977 0.8072619
vt 0.27528125 0.8072619
vt 0.31878102 0.81867164
vt 0.31878102 0.820811
vt 0.32234657 0.8236634
vt 0.3244859 0.8236634
vt 0.3244859 0.8236634
vt 0.32234657 0.8236634
vt 0.31878102 0.82651585
vt 0.31878102 0.8279421
vt 0.31878102 0.8279421
vt 0.31878102 0.82651585
vt 0.31450236 0.8236634
vt 0.31307614 0.8236634
vt 0.31307614 0.8236634
vt 0.31450236 0.8236634
vt 0.31878102 0.820811
vt 0.31878102 0.81867164
vt 0.31450236 0.8236634
vt 0.31878102 0.82651585
vt 0.32234657 0.8236634
vt 0.31878102 0.820811
vn 0.019607723 0.35685992 0.9339521
vn 0.011764646 0.33333075 0.94273657
vn -0.003921509 0.23921382 0.970959
vn -0.003921509 0.3490169 0.9371082
vn -0.019607663 0.51372147 0.85773295
vn -0.003921509 0.3490169 0.9371082
vn -0.12941074 -0.098038495 -0.98673266
vn -0.12941074 -0.098038495 -0.98673266
vn -0.12941074 -0.098038495 -0.98673266
vn -0.12941074 -0.098038495 -0.98673266
vn -0.15293992 0.098038435 0.98336047
vn -0.15293992 0.098038435 0.98336047
vn -0.15293992 0.098038435 0.98336047
vn -0.15293992 0.098038435 0.98336047
vn -0.003921509 0.99999225 -0.00034526698
vn -0.003921509 0.96861994 0.2485156
vn -0.003921509 0.9843061 0.17642602
vn 0.0039215684 0.99999225 -0.00034526698
vn -0.003921509 0.99999225 -0.00034526698
vn -0.003921509 0.99999225 -0.00034526698
vn -0.003921509 0.99999225 -0.00034526698
vn 0.9999924 0.003921509 -0
vn 0.9999924 0.003921509 -0
vn 0.9999924 0.003921509 -0
vn 0.9999924 0.003921509 -0
vn -0.003921509 -0.9999924 -0
vn -0.003921509 -0.9999924 -0
vn 0.0039215684 -0.9999924 -0
vn -0.99999225 0.003921509 -0.00034492963
vn -0.99999225 0.003921509 -0.00034492963
vn -0.99999225 0.003921509 -0.00034492963
vn -0.99999225 0.003921509 -0.00034492963
vn -0.043136835 -0.9529339 -0.30009362
vn -0.043136835 -0.9529339 -0.30009362
vn -0.043136835 -0.9529339 -0.30009362
vn 0.13725388 -0.27842927 -0.950599
vn 0.13725388 -0.27842927 -0.950599
vn 0.13725388 -0.27842927 -0.950599
vn 0.13725388 -0.27842927 -0.950599
vn -0.003921509 0.99999225 -0.00034526698
vn -0.003921509 0.99999225 -0.00034526698
vn -0.003921509 0.99999225 -0.00034526698
vn -0.019607663 -0.9843062 0.17537625
vn -0.019607663 -0.9843062 0.17537625
vn -0.99993086 0.011763804 -0
vn -0.99993086 0.011763804 -0
vn -0.99993086 0.011763804 -0
vn -0.99993086 0.011763804 -0
vn 0.9999924 0.003921509 -0
vn 0.9998079 0.019604046 -0
vn 0.9998079 0.019604046 -0
vn 0.9982743 0.05872193 -0
vn -0.003921509 0.99999225 -0.00034526698
vn -0.003921509 0.99999225 -0.00034526698
vn -0.003921509 0.99999225 -0.00034526698
vn -0.003921509 0.9843061 0.17642602
vn 0.0039215684 0.99999225 -0.00034526698
vn 0.2313708 0.25489998 0.93887883
vn 0.2313708 0.25489998 0.93887883
vn 0.2313708 0.25489998 0.93887883
vn 0.2313708 0.25489998 0.93887883
vn 0.1294108 -0.3411739 0.9310495
vn 0.1294108 -0.3411739 0.9310495
vn 0.1294108 -0.3411739 0.9310495
vn -0.003921509 -0.9215616 0.38821238
vn -0.003921509 -0.9215616 0.38821238
vn -0.003921509 -0.9215616 0.38821238
vn -0.074509144 -0.066666186 -0.99498945
vn -0.074509144 -0.066666186 -0.99498945
vn -0.074509144 -0.09019542 -0.993133
vn -0.074509144 -0.09019542 -0.993133
vn -0.003921509 0.99999225 -0.00034526698
vn 0.0039215684 -0.9999924 -0
vn 0.0039215684 -0.9999924 -0
vn -0.41176152 0.1764692 -0.89404196
vn -0.41176152 0.1764692 -0.89404196
vn -0.41176152 0.1764692 -0.89404196
vn -0.41176152 0.1764692 -0.89404196
vn -0.79607224 0.20784152 0.56839323
vn -0.79607224 0.20784152 0.56839323
vn -0.79607224 0.20784152 0.56839323
vn -0.79607224 0.20784152 0.56839323
vn 0.39607543 -0.22352773 0.8905951
vn 0.39607543 -0.22352773 0.8905951
vn 0.39607543 -0.22352773 0.8905951
vn 0.39607543 -0.22352773 0.8905951
vn 0.7803862 -0.25490004 -0.5709845
vn 0.7803862 -0.25490004 -0.5709845
vn 0.7803862 -0.25490004 -0.5709845
vn 0.7803862 -0.25490004 -0.5709845
vn -0.4039184 0.19999838 -0.89266485
vn -0.4039184 0.19999838 -0.89266485
vn -0.4039184 0.19999838 -0.89266485
vn -0.4039184 0.19999838 -0.89266485
vn -0.7882292 0.23137069 0.57023007
vn -0.7882292 0.23137069 0.57023007
vn -0.7882292 0.23137069 0.57023007
vn -0.7882292 0.23137069 0.57023007
vn 0.4039185 -0.1999985 0.8926648
vn 0.4039185 -0.1999985 0.8926648
vn 0.4039185 -0.1999985 0.8926648
vn 0.4039185 -0.1999985 0.8926648
vn 0.7882293 -0.2313708 -0.5702299
vn 0.7882293 -0.2313708 -0.5702299
vn 0.7882293 -0.2313708 -0.5702299
vn 0.7882293 -0.2313708 -0.5702299
vn 0.32548773 0.9450908 0.029345663
vn 0.32548773 0.9450908 0.029345663
vn 0.32548773 0.9450908 0.029345663
vn 0.32548773 0.9450908 0.029345663
g levels_dynamic_woodbox_mesh_7_0
f 3/3/3 2/2/2 1/1/1
f 3/3/3 4/4/4 2/2/2
f 5/5/5 4/4/4 3/3/3
f 6/6/6 4/4/4 5/5/5
f 9/9/9 8/8/8 7/7/7
f 10/10/10 9/9/9 7/7/7
f 13/13/13 12/12/12 11/11/11
f 14/14/14 13/13/13 11/11/11
f 17/17/17 16/16/16 15/15/15
f 17/17/17 18/18/18 16/16/16
f 21/21/21 20/20/20 19/19/19
f 24/24/24 23/23/23 22/22/22
f 25/25/25 24/24/24 22/22/22
f 28/28/28 27/27/27 26/26/26
f 31/31/31 30/30/30 29/29/29
f 32/32/32 31/31/31 29/29/29
f 35/35/35 34/34/34 33/33/33
f 38/38/38 37/37/37 36/36/36
f 39/39/39 38/38/38 36/36/36
f 42/42/42 41/41/41 40/40/40
f 44/44/44 26/26/26 43/43/43
f 44/44/44 28/28/28 26/26/26
f 47/47/47 46/46/46 45/45/45
f 48/48/48 47/47/47 45/45/45
f 51/51/51 50/50/50 49/49/49
f 52/52/52 50/50/50 51/51/51
f 54/54/54 53/53/53 41/41/41
f 42/42/42 54/54/54 41/41/41
f 40/40/40 56/56/56 55/55/55
f 41/41/41 56/56/56 40/40/40
f 57/57/57 56/56/56 41/41/41
f 60/60/60 59/59/59 58/58/58
f 61/61/61 60/60/60 58/58/58
f 64/64/64 63/63/63 62/62/62
f 67/67/67 66/66/66 65/65/65
f 70/70/70 69/69/69 68/68/68
f 71/71/71 69/69/69 70/70/70
f 72/72/72 20/20/20 54/54/54
f 54/54/54 20/20/20 21/21/21
f 72/72/72 54/54/54 42/42/42
f 73/73/73 27/27/27 28/28/28
f 74/74/74 73/73/73 28/28/28
f 77/77/77 76/76/76 75/75/75
f 78/78/78 77/77/77 75/75/75
f 81/81/81 80/80/80 79/79/79
f 82/82/82 81/81/81 79/79/79
f 85/85/85 84/84/84 83/83/83
f 86/86/86 85/85/85 83/83/83
f 89/89/89 88/88/88 87/87/87
f 90/90/90 89/89/89 87/87/87
f 93/93/93 92/92/92 91/91/91
f 94/94/94 93/93/93 91/91/91
f 97/97/97 96/96/96 95/95/95
f 98/98/98 97/97/97 95/95/95
f 101/101/101 100/100/100 99/99/99
f 102/102/102 101/101/101 99/99/99
f 105/105/105 104/104/104 103/103/103
f 106/106/106 105/105/105 103/103/103
f 109/109/109 108/108/108 107/107/107
f 110/110/110 109/109/109 107/107/107
