g levels_dynamic_woodbox_mesh_bottom
v 0.9435592 0.27583623 0.043750286
v 0.94701254 0.08411455 0.055641294
v -1.0505416 0.09401822 -0.059131026
v -1.0491083 0.28570735 -0.07072878
v -0.6985035 0.2976309 -0.6932297
v -1.0510955 0.29561102 -0.6679492
v -1.051584 0.06176603 -0.6832934
v -0.6989596 0.063818455 -0.70857394
v -1.0074084 0.30320168 -0.7595911
v -0.6985035 0.2976309 -0.6932297
v -0.6989596 0.063818455 -0.70857394
v -1.0078969 0.06935668 -0.77493536
v 0.9963031 0.2699721 -1.071884
v -0.6985035 0.2976309 -0.6932297
v -1.0074084 0.30320168 -0.7595911
v -1.0078645 0.3254851 -1.0280666
v 0.9603369 0.026386261 -0.26114738
v 0.96222645 0.26293528 -0.27844632
v 0.9963031 0.2699721 -1.071884
v 0.99594474 0.09457207 -1.0834167
v -1.008353 0.091639996 -1.0434434
v -1.0078969 0.06935668 -0.77493536
v -0.6989596 0.063818455 -0.70857394
v 0.99594474 0.09457207 -1.0834167
v -1.0078645 0.3254851 -1.0280666
v -1.0074084 0.30320168 -0.7595911
v -1.0078969 0.06935668 -0.77493536
v -1.008353 0.091639996 -1.0434434
v -1.0505416 0.09401822 -0.059131026
v 0.9528114 0.04153502 -0.084281266
v 0.5080562 0.102293015 -0.18429583
v 0.9528114 0.04153502 -0.084281266
v 0.95457065 0.2766832 -0.098517895
v 0.50919646 0.23807824 -0.19560039
v 0.5080562 0.102293015 -0.18429583
v 0.95457065 0.2766832 -0.098517895
v -1.0491083 0.28570735 -0.07072878
v 0.50919646 0.23807824 -0.19560039
v -1.051584 0.06176603 -0.6832934
v -1.0505416 0.09401822 -0.059131026
v 0.9603369 0.026386261 -0.26114738
v -1.0510955 0.29561102 -0.6679492
v -1.0491083 0.28570735 -0.07072878
v -1.0505416 0.09401822 -0.059131026
v -1.051584 0.06176603 -0.6832934
v 0.9528114 0.04153502 -0.084281266
v 0.94701254 0.08411455 0.055641294
v 0.95457065 0.2766832 -0.098517895
v 0.9435592 0.27583623 0.043750286
v 0.96222645 0.26293528 -0.27844632
v -1.0491083 0.28570735 -0.07072878
v -1.0510955 0.29561102 -0.6679492
v 0.50919646 0.23807824 -0.19560039
v 0.96222645 0.26293528 -0.27844632
v 0.9603369 0.026386261 -0.26114738
v 0.5080562 0.102293015 -0.18429583
v -1.0491083 0.28570735 -0.07072878
v 0.96222645 0.26293528 -0.27844632
v 0.50919646 0.23807824 -0.19560039
v 0.9603369 0.026386261 -0.26114738
v -1.0505416 0.09401822 -0.059131026
v 0.5080562 0.102293015 -0.18429583
v 0.9528114 0.04153502 -0.084281266
v -1.0505416 0.09401822 -0.059131026
v 0.94701254 0.08411455 0.055641294
v 0.99594474 0.09457207 -1.0834167
v 0.9963031 0.2699721 -1.071884
v -1.008353 0.091639996 -1.0434434
v -1.0078645 0.3254851 -1.0280666
v -1.0149012 0.23403859 0.66924834
v -0.87097156 0.2293148 0.71042705
v -0.86904943 0.03762567 0.74694693
v -1.012979 0.042349458 0.65853024
v 0.8711709 0.12258911 0.13353539
v 1.0209321 0.05528295 0.6433488
v 1.0189774 0.24693942 0.65406704
v 0.86924875 0.31427824 0.14425349
v -0.9139093 0.26260948 0.4593482
v -1.0149012 0.23403859 0.66924834
v -1.012979 0.042349458 0.65853024
v -0.9119873 0.07095301 0.44862998
v -1.0035315 0.2908547 0.24443102
v -0.9139093 0.26260948 0.4593482
v -0.9119873 0.07095301 0.44862998
v -1.0016093 0.0991981 0.23371279
v -0.031338096 0.0026042461 0.9953871
v -0.9300029 0.0002912283 0.9766545
v -0.93192506 0.19198036 0.9873402
v -0.036192298 0.19426084 1.0060401
v 0.8711709 0.12258911 0.13353539
v -1.0016093 0.0991981 0.23371279
v -0.9119873 0.07095301 0.44862998
v 1.0209321 0.05528295 0.6433488
v -0.9139093 0.26260948 0.4593482
v -0.87097156 0.2293148 0.71042705
v -1.0149012 0.23403859 0.66924834
v 0.86924875 0.31427824 0.14425349
v -1.0035315 0.2908547 0.24443102
v -1.0016093 0.0991981 0.23371279
v 0.8711709 0.12258911 0.13353539
v 0.97206503 0.20631468 0.9561305
v 0.9739871 0.014658213 0.9454124
v 0.14503932 -1.9073486E-06 1.021873
v 0.14601666 0.19171977 1.0324283
v 0.14601666 0.19171977 1.0324283
v 0.14503932 -1.9073486E-06 1.021873
v 0.031244278 0.051503897 0.9301331
v 0.02984345 0.18862486 0.93775654
v 0.02984345 0.18862486 0.93775654
v 0.031244278 0.051503897 0.9301331
v -0.031338096 0.0026042461 0.9953871
v -0.036192298 0.19426084 1.0060401
v 1.0189774 0.24693942 0.65406704
v 1.0209321 0.05528295 0.6433488
v 0.90945005 0.08258331 0.72599936
v 0.90883106 0.20139539 0.7475985
v -0.965904 0.21468723 0.8158821
v -0.93192506 0.19198036 0.9873402
v -0.9300029 0.0002912283 0.9766545
v -0.9639492 0.022998095 0.8052943
v 0.90945005 0.08258331 0.72599936
v 0.9739871 0.014658213 0.9454124
v 0.97206503 0.20631468 0.9561305
v 0.90883106 0.20139539 0.7475985
v -0.87097156 0.2293148 0.71042705
v -0.965904 0.21468723 0.8158821
v -0.9639492 0.022998095 0.8052943
v -0.86904943 0.03762567 0.74694693
v -0.036192298 0.19426084 1.0060401
v -0.93192506 0.19198036 0.9873402
v -0.965904 0.21468723 0.8158821
v -0.031338096 0.0026042461 0.9953871
v -0.9639492 0.022998095 0.8052943
v -0.9300029 0.0002912283 0.9766545
v 0.90883106 0.20139539 0.7475985
v 0.97206503 0.20631468 0.9561305
v 0.14601666 0.19171977 1.0324283
v 0.02984345 0.18862486 0.93775654
v 0.9739871 0.014658213 0.9454124
v 0.90945005 0.08258331 0.72599936
v 0.14503932 -1.9073486E-06 1.021873
v 0.02984345 0.18862486 0.93775654
v 0.90883106 0.20139539 0.7475985
v 1.0189774 0.24693942 0.65406704
v 1.0209321 0.05528295 0.6433488
v 0.14503932 -1.9073486E-06 1.021873
v 0.90945005 0.08258331 0.72599936
v 0.95457065 0.2766832 -0.098517895
v 0.9435592 0.27583623 0.043750286
v 0.86924875 0.31427824 0.14425349
v -1.0035315 0.2908547 0.24443102
v 1.0209321 0.05528295 0.6433488
v 0.031244278 0.051503897 0.9301331
v 0.14503932 -1.9073486E-06 1.021873
v 0.031244278 0.051503897 0.9301331
v -0.86904943 0.03762567 0.74694693
v -0.9639492 0.022998095 0.8052943
v -0.031338096 0.0026042461 0.9953871
v -0.86904943 0.03762567 0.74694693
v 0.031244278 0.051503897 0.9301331
v -1.012979 0.042349458 0.65853024
vt 0.34976047 0.8548497
vt 0.34915122 0.8578961
vt 0.37291294 0.8603332
vt 0.37352222 0.8572868
vt 0.30284628 0.78965724
vt 0.3071112 0.78965724
vt 0.3071112 0.7853923
vt 0.30284628 0.7853923
vt 0.29919064 0.78965724
vt 0.30284628 0.78965724
vt 0.30284628 0.7853923
vt 0.29919064 0.7853923
vt 0.35097903 0.8408364
vt 0.36986658 0.8487569
vt 0.37352222 0.84814763
vt 0.3741315 0.8444921
vt 0.26141557 0.83108795
vt 0.2608063 0.8274323
vt 0.2510579 0.82804155
vt 0.2510579 0.83108795
vt 0.37230366 0.87251866
vt 0.37230366 0.868863
vt 0.36864802 0.8682537
vt 0.34915122 0.8743465
vt 0.295535 0.78965724
vt 0.29919064 0.78965724
vt 0.29919064 0.7853923
vt 0.295535 0.7853923
vt 0.37291294 0.8603332
vt 0.34915122 0.8603332
vt 0.3546347 0.86155176
vt 0.27177325 0.8292601
vt 0.27177325 0.82560444
vt 0.26628977 0.826823
vt 0.26689905 0.8292601
vt 0.34976047 0.85363114
vt 0.37352222 0.8572868
vt 0.35524398 0.85302186
vt 0.37291294 0.8682537
vt 0.37291294 0.8603332
vt 0.34915122 0.8633796
vt 0.3071112 0.78965724
vt 0.31442252 0.7902665
vt 0.31442252 0.7872201
vt 0.3071112 0.7853923
vt 0.27177325 0.8292601
vt 0.27360108 0.82865083
vt 0.27177325 0.82560444
vt 0.27360108 0.82560444
vt 0.34976047 0.851194
vt 0.37352222 0.8572868
vt 0.3741315 0.8493662
vt 0.26628977 0.826823
vt 0.2608063 0.8274323
vt 0.26141557 0.83108795
vt 0.26689905 0.8292601
vt 0.37352222 0.8572868
vt 0.34976047 0.851194
vt 0.35524398 0.85302186
vt 0.34915122 0.8633796
vt 0.37291294 0.8603332
vt 0.3546347 0.86155176
vt 0.34915122 0.8603332
vt 0.37291294 0.8603332
vt 0.34915122 0.8578961
vt 0.35097903 0.8383993
vt 0.35097903 0.8408364
vt 0.37474078 0.8408364
vt 0.3741315 0.8444921
vt 0.2681176 0.8036705
vt 0.26994544 0.8036705
vt 0.26994544 0.800015
vt 0.2681176 0.800015
vt 0.28030312 0.7884387
vt 0.28030312 0.78112745
vt 0.27603817 0.78112745
vt 0.27603817 0.7884387
vt 0.26446193 0.8036705
vt 0.2681176 0.8036705
vt 0.2681176 0.800015
vt 0.26446193 0.800015
vt 0.26202485 0.8036705
vt 0.26446193 0.8036705
vt 0.26446193 0.800015
vt 0.26202485 0.800015
vt 0.27481964 0.85606825
vt 0.27238253 0.84266424
vt 0.2687269 0.8432735
vt 0.27177325 0.8572868
vt 0.28883296 0.8682537
vt 0.28152165 0.83961785
vt 0.27908456 0.8414457
vt 0.28334948 0.8719094
vt 0.26202485 0.84510136
vt 0.2650712 0.84510136
vt 0.26446193 0.8432735
vt 0.2638527 0.8737372
vt 0.2589785 0.8444921
vt 0.2553228 0.8444921
vt 0.260197 0.8743465
vt 0.27481964 0.87312794
vt 0.27847528 0.8719094
vt 0.2754289 0.8597239
vt 0.27238253 0.8603332
vt 0.27238253 0.8603332
vt 0.2754289 0.8597239
vt 0.2754289 0.8572868
vt 0.27177325 0.85850537
vt 0.27177325 0.85850537
vt 0.2754289 0.8572868
vt 0.27481964 0.85606825
vt 0.27177325 0.8572868
vt 0.27603817 0.78112745
vt 0.28030312 0.78112745
vt 0.27908456 0.7792996
vt 0.27725673 0.7792996
vt 0.27238253 0.8036705
vt 0.27421036 0.8036705
vt 0.27421036 0.800015
vt 0.27238253 0.800015
vt 0.27908456 0.7792996
vt 0.28030312 0.7762532
vt 0.27603817 0.7762532
vt 0.27725673 0.7792996
vt 0.26994544 0.8036705
vt 0.27238253 0.8036705
vt 0.27238253 0.800015
vt 0.26994544 0.800015
vt 0.27177325 0.8572868
vt 0.2687269 0.8432735
vt 0.26628977 0.8432735
vt 0.27481964 0.85606825
vt 0.27421036 0.8414457
vt 0.27238253 0.84266424
vt 0.27177325 0.87251866
vt 0.27481964 0.87312794
vt 0.27238253 0.8603332
vt 0.27177325 0.85850537
vt 0.27847528 0.8719094
vt 0.28152165 0.8706908
vt 0.2754289 0.8597239
vt 0.27177325 0.85850537
vt 0.27177325 0.87251866
vt 0.2705547 0.8743465
vt 0.28334948 0.8719094
vt 0.2754289 0.8597239
vt 0.28152165 0.8706908
vt 0.34976047 0.85363114
vt 0.34976047 0.8548497
vt 0.2638527 0.8737372
vt 0.2589785 0.8444921
vt 0.28334948 0.8719094
vt 0.2754289 0.8572868
vt 0.2754289 0.8597239
vt 0.2754289 0.8572868
vt 0.27603817 0.84266424
vt 0.27421036 0.8414457
vt 0.27481964 0.85606825
vt 0.27603817 0.84266424
vt 0.2754289 0.8572868
vt 0.27603817 0.8408364
vn -0.05897665 0.05897665 0.9965157
vn -0.05897665 0.05897665 0.9965157
vn -0.05897665 0.05897665 0.9965157
vn -0.05897665 0.05897665 0.9965157
vn -0.07466018 0.066818476 -0.99496794
vn -0.07466018 0.066818476 -0.99496794
vn -0.07466018 0.066818476 -0.99496794
vn -0.07466018 0.066818476 -0.99496794
vn -0.20797086 -0.0664922 0.9758724
vn -0.20797086 -0.0664922 0.9758724
vn -0.20797086 -0.0664922 0.9758724
vn -0.20797086 -0.0664922 0.9758724
vn 0.01943789 0.9998111 -0
vn 0.01943789 0.9998111 -0
vn 0.027273236 0.99962807 -0
vn 0.027273236 0.99962807 -0
vn 0.9996668 -0.0037577748 0.025537029
vn 0.9996668 -0.0037577748 0.025537029
vn 0.9996668 -0.0037577748 0.025537029
vn 0.9996668 -0.0037577748 0.025537029
vn -0.004083991 -0.9996668 -0.02548669
vn -0.004083991 -0.9996668 -0.02548669
vn -0.011925817 -0.9996668 -0.022892008
vn -0.004083991 -0.9996668 -0.02548669
vn -0.99999166 0.0040839855 -0
vn -0.99999166 0.0040839855 -0
vn -0.99999166 0.0040839855 -0
vn -0.99999166 0.0040839855 -0
vn -0.027609468 -0.90556514 -0.4233078
vn -0.027609468 -0.90556514 -0.4233078
vn -0.027609468 -0.90556514 -0.4233078
vn 0.21548647 -0.0664922 -0.9742404
vn 0.21548647 -0.0664922 -0.9742404
vn 0.21548647 -0.0664922 -0.9742404
vn 0.21548647 -0.0664922 -0.9742404
vn -0.004083991 0.9294168 -0.36900917
vn -0.004083991 0.9294168 -0.36900917
vn -0.004083991 0.9294168 -0.36900917
vn 0.0115996 -0.9996668 0.023059336
vn -0.027608145 -0.9996189 -0
vn -0.004083991 -0.9996668 -0.02548669
vn -0.99999166 0.0040839855 -0
vn -0.99999166 0.0040839855 -0
vn -0.99999166 0.0040839855 -0
vn -0.99999166 0.0040839855 -0
vn 0.9996668 -0.0037577748 0.025537029
vn 0.9996668 0.004083991 0.025486894
vn 0.9996668 0.011925817 0.022891825
vn 0.9996668 0.019767642 0.016598225
vn 0.01943789 0.9998111 -0
vn 0.011598902 0.99993277 -0
vn -0.0040839855 0.99999166 -0
vn 0.17627746 0.07466018 0.98150504
vn 0.17627746 0.07466018 0.98150504
vn 0.17627746 0.07466018 0.98150504
vn 0.17627746 0.07466018 0.98150504
vn 0.074334025 0.7647389 0.64003813
vn 0.074334025 0.7647389 0.64003813
vn 0.074334025 0.7647389 0.64003813
vn 0.074334025 -0.4585824 0.8855375
vn 0.074334025 -0.4585824 0.8855375
vn 0.074334025 -0.4585824 0.8855375
vn -0.019767642 -0.9604578 0.27772292
vn -0.019767642 -0.9604578 0.27772292
vn -0.019767642 -0.9604578 0.27772292
vn -0.019767642 0.066818476 -0.9975693
vn -0.019767642 0.066818476 -0.9975693
vn -0.019767642 0.066818476 -0.9975693
vn -0.019767642 0.066818476 -0.9975693
vn -0.41185772 0.05897665 0.9093377
vn -0.41185772 0.05897665 0.9093377
vn -0.41185772 0.05897665 0.9093377
vn -0.41185772 0.05897665 0.9093377
vn 0.9604578 0.027609468 -0.27705324
vn 0.9604578 0.027609468 -0.27705324
vn 0.9604578 0.027609468 -0.27705324
vn 0.9604578 0.027609468 -0.27705324
vn -0.8980496 0.011925817 -0.43973255
vn -0.8980496 0.011925817 -0.43973255
vn -0.8980496 0.011925817 -0.43973255
vn -0.8980496 0.011925817 -0.43973255
vn -0.92157495 -0.027283192 0.38724056
vn -0.92157495 -0.027283192 0.38724056
vn -0.92157495 -0.027283192 0.38724056
vn -0.92157495 -0.027283192 0.38724056
vn -0.019767642 -0.058650434 0.9980828
vn -0.019767642 -0.058650434 0.9980828
vn -0.019767642 -0.058650434 0.9980828
vn -0.019767642 -0.058650434 0.9980828
vn 0.0037577748 -0.991825 -0.12755033
vn 0.0037577748 -0.991825 -0.12755033
vn 0.0037577748 -0.991825 -0.12755033
vn 0.0037577748 -0.991825 -0.12755033
vn -0.004083991 0.99215126 0.124976635
vn -0.004083991 0.99215126 0.124976635
vn -0.004083991 0.99215126 0.124976635
vn -0.051134825 0.05897665 -0.99694884
vn -0.051134825 0.05897665 -0.99694884
vn -0.051134825 0.05897665 -0.99694884
vn -0.051134825 0.05897665 -0.99694884
vn 0.09001762 -0.058650434 0.99421173
vn 0.09001762 -0.058650434 0.99421173
vn 0.09001762 -0.058650434 0.99421173
vn 0.09001762 -0.058650434 0.99421173
vn -0.63142824 -0.042966843 0.774243
vn -0.63142824 -0.042966843 0.774243
vn -0.63142824 -0.042966843 0.774243
vn -0.63142824 -0.042966843 0.774243
vn 0.7252037 -0.027283192 0.68799365
vn 0.7252037 -0.027283192 0.68799365
vn 0.7252037 -0.027283192 0.68799365
vn 0.7252037 -0.027283192 0.68799365
vn 0.62326026 -0.074334025 0.77847356
vn 0.62326026 -0.074334025 0.77847356
vn 0.62326026 -0.074334025 0.77847356
vn 0.62326026 -0.074334025 0.77847356
vn -0.98430943 -0.019441426 0.17537671
vn -0.98430943 -0.019441426 0.17537671
vn -0.98430943 -0.019441426 0.17537671
vn -0.98430943 -0.019441426 0.17537671
vn 0.9604578 0.035451174 -0.27615938
vn 0.9604578 0.035451174 -0.27615938
vn 0.9604578 0.035451174 -0.27615938
vn 0.9604578 0.035451174 -0.27615938
vn -0.6471119 -0.058650434 -0.76013577
vn -0.6471119 -0.058650434 -0.76013577
vn -0.6471119 -0.058650434 -0.76013577
vn -0.6471119 -0.058650434 -0.76013577
vn 0.042927537 0.99907815 -0
vn -0.004083991 0.99215126 0.124976635
vn -0.004083991 0.99215126 0.124976635
vn 0.0037577748 -0.991825 -0.12755033
vn 0.0037577748 -0.991825 -0.12755033
vn 0.0037577748 -0.991825 -0.12755033
vn -0.01976392 0.9998047 -0
vn -0.01976392 0.9998047 -0
vn -0.01976392 0.9998047 -0
vn -0.01976392 0.9998047 -0
vn -0.011925817 -0.952616 -0.30394176
vn -0.011925817 -0.952616 -0.30394176
vn -0.011925817 -0.952616 -0.30394176
vn 0.0037577748 0.98430943 0.17641099
vn 0.10570127 0.84315693 0.5271751
vn -0.004083991 0.99215126 0.124976635
vn 0.33311355 -0.6703111 0.66311264
vn 0.33311355 -0.6703111 0.66311264
vn 0.33311355 -0.6703111 0.66311264
vn 0.0037577748 0.99999297 -0
vn 0.0037577748 0.99999297 -0
vn -0.004083991 0.99215126 0.124976635
vn -0.004083991 0.99215126 0.124976635
vn -0.106027484 -0.9212488 -0.37424433
vn -0.106027484 -0.9212488 -0.37424433
vn -0.106027484 -0.9212488 -0.37424433
vn 0.074334025 -0.9212488 -0.3818051
vn 0.074334025 -0.9212488 -0.3818051
vn 0.074334025 -0.9212488 -0.3818051
vn 0.074334025 -0.9212488 -0.3818051
vn 0.0037577748 -0.991825 -0.12755033
vn 0.0115996 -0.9996668 0.023059336
vn 0.035125017 -0.991825 -0.12267623
g levels_dynamic_woodbox_mesh_bottom_0
f 3/3/3 2/2/2 1/1/1
f 4/4/4 3/3/3 1/1/1
f 7/7/7 6/6/6 5/5/5
f 8/8/8 7/7/7 5/5/5
f 11/11/11 10/10/10 9/9/9
f 12/12/12 11/11/11 9/9/9
f 15/15/15 14/14/14 13/13/13
f 16/16/16 15/15/15 13/13/13
f 19/19/19 18/18/18 17/17/17
f 20/20/20 19/19/19 17/17/17
f 23/23/23 22/22/22 21/21/21
f 24/24/24 23/23/23 21/21/21
f 27/27/27 26/26/26 25/25/25
f 28/28/28 27/27/27 25/25/25
f 31/31/31 30/30/30 29/29/29
f 34/34/34 33/33/33 32/32/32
f 35/35/35 34/34/34 32/32/32
f 38/38/38 37/37/37 36/36/36
f 40/40/40 39/39/39 23/23/23
f 23/23/23 41/41/41 40/40/40
f 44/44/44 43/43/43 42/42/42
f 45/45/45 44/44/44 42/42/42
f 48/48/48 47/47/47 46/46/46
f 49/49/49 47/47/47 48/48/48
f 51/51/51 50/50/50 14/14/14
f 14/14/14 52/52/52 51/51/51
f 55/55/55 54/54/54 53/53/53
f 56/56/56 55/55/55 53/53/53
f 59/59/59 58/58/58 57/57/57
f 62/62/62 61/61/61 60/60/60
f 65/65/65 64/64/64 63/63/63
f 68/68/68 67/67/67 66/66/66
f 69/69/69 67/67/67 68/68/68
f 72/72/72 71/71/71 70/70/70
f 73/73/73 72/72/72 70/70/70
f 76/76/76 75/75/75 74/74/74
f 77/77/77 76/76/76 74/74/74
f 80/80/80 79/79/79 78/78/78
f 81/81/81 80/80/80 78/78/78
f 84/84/84 83/83/83 82/82/82
f 85/85/85 84/84/84 82/82/82
f 88/88/88 87/87/87 86/86/86
f 89/89/89 88/88/88 86/86/86
f 92/92/92 91/91/91 90/90/90
f 93/93/93 92/92/92 90/90/90
f 96/96/96 95/95/95 94/94/94
f 99/99/99 98/98/98 97/97/97
f 100/100/100 99/99/99 97/97/97
f 103/103/103 102/102/102 101/101/101
f 104/104/104 103/103/103 101/101/101
f 107/107/107 106/106/106 105/105/105
f 108/108/108 107/107/107 105/105/105
f 111/111/111 110/110/110 109/109/109
f 112/112/112 111/111/111 109/109/109
f 115/115/115 114/114/114 113/113/113
f 116/116/116 115/115/115 113/113/113
f 119/119/119 118/118/118 117/117/117
f 120/120/120 119/119/119 117/117/117
f 123/123/123 122/122/122 121/121/121
f 124/124/124 123/123/123 121/121/121
f 127/127/127 126/126/126 125/125/125
f 128/128/128 127/127/127 125/125/125
f 131/131/131 130/130/130 129/129/129
f 134/134/134 133/133/133 132/132/132
f 95/95/95 131/131/131 129/129/129
f 137/137/137 136/136/136 135/135/135
f 138/138/138 137/137/137 135/135/135
f 141/141/141 140/140/140 139/139/139
f 142/142/142 95/95/95 129/129/129
f 144/144/144 142/142/142 143/143/143
f 147/147/147 146/146/146 145/145/145
f 149/149/149 148/148/148 51/51/51
f 151/151/151 94/94/94 150/150/150
f 142/142/142 144/144/144 95/95/95
f 154/154/154 153/153/153 152/152/152
f 157/157/157 156/156/156 155/155/155
f 158/158/158 157/157/157 155/155/155
f 92/92/92 93/93/93 159/159/159
f 160/160/160 159/159/159 93/93/93
f 24/24/24 41/41/41 23/23/23
f 14/14/14 50/50/50 13/13/13
f 144/144/144 150/150/150 94/94/94
f 95/95/95 144/144/144 94/94/94
f 161/161/161 92/92/92 159/159/159
