g LightArtTurret_CustomizePart
v 0.23094824 0.31939754 0.32324585
v -0.23094338 0.31939754 0.32324585
v -0.23094338 0.016620055 0.3241534
v 0.23094824 0.016620055 0.3241534
v 0.23094824 0.016620055 0.3241534
v 0.23094824 0.01714848 0.5218886
v 0.23094824 0.30148843 0.45079216
v 0.23094824 0.31939754 0.32324585
v 0.23094824 0.31939754 0.32324585
v 0.23094824 0.30148843 0.45079216
v -0.23094338 0.30148843 0.45079216
v -0.23094338 0.31939754 0.32324585
v -0.23094338 0.01714848 0.5218886
v -0.23094338 0.30148843 0.45079216
v 0.23094824 0.30148843 0.45079216
v 0.23094824 0.01714848 0.5218886
v -0.23094338 0.01714848 0.5218886
v 0.23094824 0.01714848 0.5218886
v 0.23094824 0.016620055 0.3241534
v -0.23094338 0.016620055 0.3241534
v -0.23094338 0.31939754 0.32324585
v -0.23094338 0.30148843 0.45079216
v -0.23094338 0.01714848 0.5218886
v -0.23094338 0.016620055 0.3241534
vt 0.88090354 0.6288799
vt 0.88090354 0.711737
vt 0.93441546 0.711737
vt 0.93441546 0.6288799
vt 0.8135822 0.5952192
vt 0.80495125 0.6288799
vt 0.85760003 0.6288799
vt 0.86623096 0.6081656
vt 0.88090354 0.6288799
vt 0.85760003 0.6288799
vt 0.85760003 0.711737
vt 0.88090354 0.711737
vt 0.80495125 0.711737
vt 0.85760003 0.711737
vt 0.85760003 0.6288799
vt 0.80495125 0.6288799
vt 0.80495125 0.711737
vt 0.80495125 0.6288799
vt 0.77042747 0.6288799
vt 0.77042747 0.711737
vt 0.86623096 0.73245126
vt 0.85760003 0.711737
vt 0.80495125 0.711737
vt 0.8135822 0.7453977
vn -0.003921509 -0.0039215684 -0.9999846
vn -0.003921509 -0.0039215684 -0.9999846
vn -0.003921509 -0.0039215684 -0.9999846
vn -0.003921509 -0.0039215684 -0.9999846
vn 0.9999924 0.003921509 -0
vn 0.9999924 0.003921509 -0
vn 0.9999924 0.003921509 -0
vn 0.9999924 0.003921509 -0
vn -0.003921509 0.99214923 0.12499809
vn -0.003921509 0.99214923 0.12499809
vn -0.003921509 0.99214923 0.12499809
vn -0.003921509 0.99214923 0.12499809
vn -0.003921509 0.23921382 0.970959
vn -0.003921509 0.23921382 0.970959
vn -0.003921509 0.23921382 0.970959
vn -0.003921509 0.23921382 0.970959
vn -0.003921509 -0.9999924 -0
vn -0.003921509 -0.9999924 -0
vn -0.003921509 -0.9999924 -0
vn -0.003921509 -0.9999924 -0
vn -0.99999225 0.003921509 -0.00034492963
vn -0.99999225 0.003921509 -0.00034492963
vn -0.99999225 0.003921509 -0.00034492963
vn -0.99999225 0.003921509 -0.00034492963
g LightArtTurret_CustomizePart_0
f 3/3/3 2/2/2 1/1/1
f 4/4/4 3/3/3 1/1/1
f 7/7/7 6/6/6 5/5/5
f 8/8/8 7/7/7 5/5/5
f 11/11/11 10/10/10 9/9/9
f 12/12/12 11/11/11 9/9/9
f 15/15/15 14/14/14 13/13/13
f 16/16/16 15/15/15 13/13/13
f 19/19/19 18/18/18 17/17/17
f 20/20/20 19/19/19 17/17/17
f 23/23/23 22/22/22 21/21/21
f 24/24/24 23/23/23 21/21/21
