g LightShassi_04
v -0.39816064 -0.23542935 -0.5950496
v 0.42044842 -0.23542935 -0.595632
v 0.42038372 0.25293642 -0.68686897
v -0.39822537 0.25293642 -0.68626505
v 0.4211602 -0.025109828 0.3936959
v 0.6315013 -0.025109828 0.39354485
v 0.631566 -0.14725518 0.49645072
v 0.4212249 -0.14725518 0.49660164
v 0.42044842 -0.23542935 -0.595632
v 0.42133275 -0.23542935 0.64510435
v 0.42135432 -0.15862209 0.68843657
v 0.42038372 0.25293642 -0.68686897
v 0.42111707 0.25293642 0.32909662
v 0.42133275 -0.23542935 0.64510435
v 0.42044842 -0.23542935 -0.595632
v -0.39816064 -0.23542935 -0.5950496
v -0.39727634 -0.23542935 0.6456868
v 0.4212249 -0.14725518 0.49660164
v 0.631566 -0.14725518 0.49645072
v 0.63085425 -0.14725518 -0.49255365
v 0.42051312 -0.14725518 -0.49240267
v 0.42057782 0.049583673 -0.41783857
v 0.6309189 0.049583673 -0.41798955
v 0.42051312 -0.14725518 -0.49240267
v 0.63085425 -0.14725518 -0.49255365
v 0.6309189 0.049583673 -0.41798955
v 0.42057782 0.049583673 -0.41783857
v 0.42135432 -0.15862209 0.68843657
v 0.42133275 -0.23542935 0.64510435
v -0.39727634 -0.23542935 0.6456868
v -0.3972332 -0.15862209 0.6890189
v 0.42135432 -0.15862209 0.68843657
v -0.3972332 -0.15862209 0.6890189
v -0.397492 0.25293642 0.32967907
v 0.42111707 0.25293642 0.32909662
v -0.39744884 -0.025109828 0.39427823
v -0.39738423 -0.14725518 0.4971841
v -0.6077253 -0.14725518 0.49733502
v -0.60778993 -0.025109828 0.39442927
v -0.3972332 -0.15862209 0.6890189
v -0.39727634 -0.23542935 0.6456868
v -0.39816064 -0.23542935 -0.5950496
v -0.39822537 0.25293642 -0.68626505
v -0.397492 0.25293642 0.32967907
v -0.39738423 -0.14725518 0.4971841
v -0.3980959 -0.14725518 -0.4918203
v -0.608437 -0.14725518 -0.49166933
v -0.6077253 -0.14725518 0.49733502
v -0.3980313 0.049583673 -0.41723463
v -0.6083724 0.049583673 -0.41708365
v -0.3980959 -0.14725518 -0.4918203
v -0.3980313 0.049583673 -0.41723463
v -0.6083724 0.049583673 -0.41708365
v -0.608437 -0.14725518 -0.49166933
v 0.1725772 0.16202301 0.6146489
v 0.17264193 0.09673357 0.6798305
v -0.1716212 0.09673357 0.6800893
v -0.17166436 0.16202301 0.6148862
v -0.23701853 0.28324085 -0.7241618
v 0.23601171 0.28324085 -0.7245069
v 0.23603329 0.36408156 -0.70858896
v -0.23699695 0.36408156 -0.70824385
vt 0.08917117 0.7066007
vt 0.053064175 0.7066007
vt 0.053064175 0.72537637
vt 0.08917117 0.72537637
vt 0.008291505 0.66182804
vt 0.008291505 0.6574952
vt 0.0054029464 0.6574952
vt 0.0054029464 0.66182804
vt 0.08917117 0.7311535
vt 0.055230595 0.7304313
vt 0.053786315 0.73259777
vt 0.093504004 0.744152
vt 0.064618416 0.744152
vt 0.097114705 0.71815497
vt 0.097114705 0.74342984
vt 0.12022318 0.74342984
vt 0.12022318 0.71815497
vt 0.048731335 0.66182804
vt 0.048731335 0.6574952
vt 0.029233562 0.6574952
vt 0.029233562 0.66182804
vt 0.024178583 0.66182804
vt 0.024178583 0.6574952
vt 0.029233562 0.66182804
vt 0.029233562 0.6574952
vt 0.024178583 0.6574952
vt 0.024178583 0.66182804
vt 0.045120638 0.6351089
vt 0.045120638 0.63077605
vt 0.0054029464 0.63077605
vt 0.0054029464 0.6351089
vt 0.045120638 0.6351089
vt 0.0054029464 0.6351089
vt 0.0054029464 0.65316236
vt 0.045120638 0.65316236
vt 0.008291505 0.6574952
vt 0.0054029464 0.6574952
vt 0.0054029464 0.66182804
vt 0.008291505 0.66182804
vt 0.053786315 0.73259777
vt 0.055230595 0.7304313
vt 0.08917117 0.7311535
vt 0.093504004 0.744152
vt 0.064618416 0.744152
vt 0.048731335 0.6574952
vt 0.029233562 0.6574952
vt 0.029233562 0.66182804
vt 0.048731335 0.66182804
vt 0.024178583 0.6574952
vt 0.024178583 0.66182804
vt 0.029233562 0.6574952
vt 0.024178583 0.6574952
vt 0.024178583 0.66182804
vt 0.029233562 0.66182804
vt 0.03139998 0.6517181
vt 0.03139998 0.6466631
vt 0.017679324 0.6466631
vt 0.017679324 0.6517181
vt 0.03139998 0.6466631
vt 0.018401464 0.6466631
vt 0.018401464 0.6517181
vt 0.03139998 0.6517181
vn -0.003921509 -0.18431234 -0.9828599
vn -0.003921509 -0.18431234 -0.9828599
vn -0.003921509 -0.18431234 -0.9828599
vn -0.003921509 -0.18431234 -0.9828599
vn 0.0039215684 0.9764631 0.21564901
vn 0.0039215684 0.9764631 0.21564901
vn 0.0039215684 0.64705384 0.76243424
vn 0.0039215684 0.64705384 0.76243424
vn 0.9999924 0.003921509 -0
vn 0.9999924 0.003921509 -0
vn 0.9999924 0.003921509 -0
vn 0.9999924 0.003921509 -0
vn 0.9999924 0.003921509 -0
vn -0.003921509 -0.9999924 -0
vn -0.003921509 -0.9999924 -0
vn -0.003921509 -0.9999924 -0
vn -0.003921509 -0.9999924 -0
vn -0.003921509 -0.9999924 -0
vn -0.003921509 -0.9999924 -0
vn -0.003921509 -0.9999924 -0
vn -0.003921509 -0.9999924 -0
vn 0.0039215684 0.99214923 0.12499809
vn 0.0039215684 0.99214923 0.12499809
vn -0.003921509 0.35685992 -0.9341497
vn -0.003921509 0.35685992 -0.9341497
vn -0.003921509 0.35685992 -0.9341497
vn -0.003921509 0.35685992 -0.9341497
vn 0.0039215684 -0.49019235 0.87160546
vn 0.0039215684 -0.49019235 0.87160546
vn 0.0039215684 -0.49019235 0.87160546
vn 0.0039215684 -0.49019235 0.87160546
vn 0.0039215684 0.65489686 0.7557081
vn 0.0039215684 0.65489686 0.7557081
vn 0.0039215684 0.65489686 0.7557081
vn 0.0039215684 0.65489686 0.7557081
vn 0.0039215684 0.9764631 0.21564901
vn 0.0039215684 0.64705384 0.76243424
vn 0.0039215684 0.64705384 0.76243424
vn 0.0039215684 0.9764631 0.21564901
vn -0.99999225 0.003921509 -0.00034492963
vn -0.99999225 0.003921509 -0.00034492963
vn -0.99999225 0.003921509 -0.00034492963
vn -0.99999225 0.003921509 -0.00034492963
vn -0.99999225 0.003921509 -0.00034492963
vn -0.003921509 -0.9999924 -0
vn -0.003921509 -0.9999924 -0
vn -0.003921509 -0.9999924 -0
vn -0.003921509 -0.9999924 -0
vn 0.0039215684 0.99214923 0.12499809
vn 0.0039215684 0.99214923 0.12499809
vn -0.003921509 0.35685992 -0.9341497
vn -0.003921509 0.35685992 -0.9341497
vn -0.003921509 0.35685992 -0.9341497
vn -0.003921509 0.35685992 -0.9341497
vn 0.0039215684 0.70979846 0.7043939
vn 0.0039215684 0.70979846 0.7043939
vn 0.0039215684 0.70979846 0.7043939
vn 0.0039215684 0.70979846 0.7043939
vn -0.003921509 0.19215536 -0.9813567
vn -0.003921509 0.19215536 -0.9813567
vn -0.003921509 0.19215536 -0.9813567
vn -0.003921509 0.19215536 -0.9813567
g LightShassi_04_0
f 3/3/3 2/2/2 1/1/1
f 4/4/4 3/3/3 1/1/1
f 7/7/7 6/6/6 5/5/5
f 8/8/8 7/7/7 5/5/5
f 11/11/11 10/10/10 9/9/9
f 9/9/9 12/12/12 11/11/11
f 12/12/12 13/13/13 11/11/11
f 16/16/16 15/15/15 14/14/14
f 17/17/17 16/16/16 14/14/14
f 20/20/20 19/19/19 18/18/18
f 21/21/21 20/20/20 18/18/18
f 6/6/6 23/23/23 22/22/22
f 5/5/5 6/6/6 22/22/22
f 26/26/26 25/25/25 24/24/24
f 27/27/27 26/26/26 24/24/24
f 30/30/30 29/29/29 28/28/28
f 31/31/31 30/30/30 28/28/28
f 34/34/34 33/33/33 32/32/32
f 35/35/35 34/34/34 32/32/32
f 38/38/38 37/37/37 36/36/36
f 39/39/39 38/38/38 36/36/36
f 42/42/42 41/41/41 40/40/40
f 40/40/40 43/43/43 42/42/42
f 40/40/40 44/44/44 43/43/43
f 47/47/47 46/46/46 45/45/45
f 48/48/48 47/47/47 45/45/45
f 39/39/39 36/36/36 49/49/49
f 50/50/50 39/39/39 49/49/49
f 53/53/53 52/52/52 51/51/51
f 54/54/54 53/53/53 51/51/51
f 57/57/57 56/56/56 55/55/55
f 58/58/58 57/57/57 55/55/55
f 61/61/61 60/60/60 59/59/59
f 62/62/62 61/61/61 59/59/59
