g LightMachineGunTurret_07_CorpsePart
v 0.00036120415 -0.7367045 0.67473036
v 0.062781096 -0.7367045 0.61204594
v 0.00036120415 -0.7367045 0.5493836
v 0.09566617 -0.7367045 0.61204594
v 0.00036120415 -0.7367045 0.67473036
v 0.00036120415 -0.7367045 0.70774764
v 0.062781096 -0.7367045 0.61204594
v 0.00036120415 -0.7367045 0.5163663
v 0.00036120415 -0.7367045 0.5493836
v -0.094965816 -0.7367045 0.61204594
v -0.062058687 -0.7367045 0.61204594
v -0.062058687 -0.7367045 0.61204594
v 0.00036120415 0.23975265 0.70774764
v 0.09566617 -0.7367045 0.61204594
v 0.00036120415 -0.7367045 0.70774764
v 0.09566617 0.23975265 0.61204594
v 0.00036120415 -0.7367045 0.5163663
v 0.00036120415 0.23975265 0.51634425
v 0.00036120415 0.23975265 0.51634425
v -0.094965816 -0.7367045 0.61204594
v 0.00036120415 -0.7367045 0.5163663
v -0.094965816 0.23975265 0.61204594
v 0.00036120415 0.23975265 0.70774764
v -0.094965816 0.23975265 0.61204594
v 0.00036120415 0.23975265 0.51634425
v 0.09566617 0.23975265 0.61204594
vt 0.28147388 0.6826676
vt 0.28492498 0.6792165
vt 0.28147388 0.6766281
vt 0.28147388 0.6981977
vt 0.2793169 0.69474655
vt 0.27802274 0.69474655
vt 0.28147388 0.6969035
vt 0.28492498 0.69474655
vt 0.2840622 0.69474655
vt 0.28147388 0.69129544
vt 0.28147388 0.69258964
vt 0.27845412 0.6792165
vt 0.2659438 0.65850973
vt 0.26162988 0.6891385
vt 0.2659438 0.6891385
vt 0.26162988 0.65850973
vt 0.25688457 0.6891385
vt 0.25688457 0.65850973
vt 0.27500302 0.65850973
vt 0.2706891 0.6891385
vt 0.27500302 0.6891385
vt 0.2706891 0.65850973
vt 0.2659438 0.65850973
vt 0.2706891 0.65850973
vt 0.27500302 0.65850973
vt 0.26162988 0.65850973
vn -0.003921509 -0.9999924 -0
vn -0.003921509 -0.9999924 -0
vn -0.003921509 -0.9999924 -0
vn -0.003921509 -0.9999924 -0
vn -0.003921509 -0.9999924 -0
vn -0.003921509 -0.9999924 -0
vn -0.003921509 -0.9999924 -0
vn -0.003921509 -0.9999924 -0
vn -0.003921509 -0.9999924 -0
vn -0.003921509 -0.9999924 -0
vn -0.003921509 -0.9999924 -0
vn -0.003921509 -0.9999924 -0
vn -0.003921509 0.003921509 0.9999846
vn 0.9999924 0.003921509 -0
vn -0.003921509 0.003921509 0.9999846
vn 0.9999924 0.003921509 -0
vn -0.003921509 0.003921509 -0.9999846
vn -0.003921509 0.003921509 -0.9999846
vn -0.003921509 0.003921509 -0.9999846
vn -0.99999225 0.003921509 -0.00034492963
vn -0.003921509 0.003921509 -0.9999846
vn -0.99999225 0.003921509 -0.00034492963
vn -0.003921509 0.99999225 -0.00034526698
vn -0.003921509 0.99999225 -0.00034526698
vn -0.003921509 0.99999225 -0.00034526698
vn -0.003921509 0.99999225 -0.00034526698
g LightMachineGunTurret_07_CorpsePart_0
f 3/3/3 2/2/2 1/1/1
f 6/6/6 5/5/5 4/4/4
f 7/7/7 4/4/4 5/5/5
f 4/4/4 7/7/7 8/8/8
f 9/9/9 8/8/8 7/7/7
f 8/8/8 9/9/9 10/10/10
f 11/11/11 10/10/10 9/9/9
f 10/10/10 11/11/11 6/6/6
f 5/5/5 6/6/6 11/11/11
f 3/3/3 1/1/1 12/12/12
f 15/15/15 14/14/14 13/13/13
f 16/16/16 13/13/13 14/14/14
f 14/14/14 17/17/17 16/16/16
f 18/18/18 16/16/16 17/17/17
f 21/21/21 20/20/20 19/19/19
f 22/22/22 19/19/19 20/20/20
f 20/20/20 15/15/15 22/22/22
f 13/13/13 22/22/22 15/15/15
f 25/25/25 24/24/24 23/23/23
f 26/26/26 25/25/25 23/23/23
