g LightShassis_CustomizePart
v -0.5023689 40.90899 21.38742
v -0.27220535 40.90899 21.387253
v -0.27218437 41.059124 21.416832
v -0.50234604 41.059124 21.416996
v 0.50136185 40.90898 21.3867
v 0.502121 40.90898 22.442291
v 0.5020218 41.05912 22.297045
v 0.5013809 41.05912 21.416279
v 0.50227356 40.90898 22.65194
v 0.27210808 40.90898 22.652107
v 0.27199936 41.05912 22.502262
v 0.50216293 41.05912 22.502094
v -0.27157402 41.08972 22.268002
v -0.27145386 41.08972 22.431288
v -0.46502686 41.08972 22.431429
v -0.4651451 41.08972 22.268143
v 0.27195358 40.908985 22.44246
v 0.27210808 40.90898 22.652107
v 0.50227356 40.90898 22.65194
v 0.502121 40.90898 22.442291
v -0.5014572 40.90899 22.652664
v -0.5016098 40.90899 22.443012
v -0.5017128 41.059124 22.297768
v -0.501564 41.059124 22.502823
v 0.50227356 40.90898 22.65194
v 0.50216293 41.05912 22.502094
v -0.5016098 40.90899 22.443012
v -0.5014572 40.90899 22.652664
v -0.27129364 40.90899 22.652496
v -0.27144432 40.90899 22.442848
v -0.27129745 40.684803 22.654877
v -0.27116013 40.684803 22.844124
v 0.2722473 40.6848 22.843735
v 0.27210617 40.6848 22.654484
v 0.4648285 41.089718 21.463158
v 0.4654045 41.089718 22.267471
v 0.2718315 41.08972 22.267612
v 0.27125168 41.08972 21.463295
v 0.27194977 41.08972 22.430897
v 0.46552277 41.089718 22.430754
v -0.27215195 41.08972 21.463688
v -0.27220535 40.90899 21.387253
v 0.27119446 40.90898 21.386868
v -0.5023689 40.90899 21.38742
v -0.27129364 40.90899 22.652496
v -0.27140045 41.059124 22.502651
v 0.27119446 40.90898 21.386868
v 0.50136185 40.90898 21.3867
v 0.5013809 41.05912 21.416279
v 0.27121925 41.05912 21.41644
v -0.5023689 40.90899 21.38742
v -0.50234604 41.059124 21.416996
v 0.50136185 40.90898 21.3867
v -0.23701286 40.94364 21.394058
v -0.23694992 40.9434 21.481335
v -0.23694992 41.024235 21.481323
v -0.23700142 41.02447 21.40998
v -0.46572495 41.08972 21.463825
v -0.27114868 40.705822 22.855972
v -0.27116013 40.684803 22.844124
v -0.27129745 40.684803 22.654877
v -0.27144432 40.90899 22.442848
v -0.27129364 40.90899 22.652496
v 0.27195358 40.908985 22.44246
v 0.27210617 40.6848 22.654484
v 0.2722473 40.6848 22.843735
v 0.27225304 40.705822 22.855583
v 0.27210808 40.90898 22.652107
v -0.27144432 40.90899 22.442848
v -0.27129745 40.684803 22.654877
v 0.27210617 40.6848 22.654484
v 0.27195358 40.908985 22.44246
v -0.27116013 40.684803 22.844124
v -0.27114868 40.705822 22.855972
v 0.27225304 40.705822 22.855583
v 0.2722473 40.6848 22.843735
v -0.17160988 40.757133 22.79831
v -0.17171478 40.757023 22.652466
v 0.17252731 40.75702 22.65221
v 0.17263222 40.757133 22.798065
v -0.4651451 41.08972 22.268143
v -0.49101257 41.08076 22.276829
v -0.4916191 41.08076 21.433212
v -0.46572495 41.08972 21.463825
v -0.5017128 41.059124 22.297768
v -0.50234604 41.059124 21.416996
v 0.27125168 41.08972 21.463295
v 0.2712326 41.080757 21.43266
v 0.49067688 41.080757 21.432503
v 0.4648285 41.089718 21.463158
v 0.27121925 41.05912 21.41644
v 0.5013809 41.05912 21.416279
v 0.4654045 41.089718 22.267471
v 0.49128342 41.080757 22.276123
v 0.49142456 41.080757 22.468552
v 0.46552277 41.089718 22.430754
v 0.5020218 41.05912 22.297045
v 0.50216293 41.05912 22.502094
v -0.27145386 41.08972 22.431288
v -0.27142715 41.08076 22.469097
v -0.49087143 41.08076 22.469257
v -0.46502686 41.08972 22.431429
v -0.501564 41.059124 22.502823
v -0.46572495 41.08972 21.463825
v -0.4916191 41.08076 21.433212
v -0.27217293 41.08076 21.433056
v -0.27215195 41.08972 21.463688
v -0.50234604 41.059124 21.416996
v -0.27218437 41.059124 21.416832
v 0.46552277 41.089718 22.430754
v 0.49142456 41.080757 22.468552
v 0.27197647 41.080757 22.468708
v 0.27194977 41.08972 22.430897
v -0.46502686 41.08972 22.431429
v -0.49087143 41.08076 22.469257
v -0.501564 41.059124 22.502823
v 0.4648285 41.089718 21.463158
v 0.49067688 41.080757 21.432503
v 0.5013809 41.05912 21.416279
v -0.5014572 40.90899 22.652664
v -0.17165756 40.822426 22.733109
v -0.17171478 40.822315 22.652462
v -0.17171478 40.757023 22.652466
v -0.17160988 40.757133 22.79831
v 0.17263222 40.757133 22.798065
v 0.17252731 40.75702 22.65221
v 0.17252731 40.82231 22.652222
v 0.17258644 40.822426 22.73286
v 0.17258644 40.822426 22.73286
v 0.17252731 40.82231 22.652222
v -0.17171478 40.822315 22.652462
v -0.17165756 40.822426 22.733109
v 0.17252731 40.82231 22.652222
v 0.17252731 40.75702 22.65221
v -0.17171478 40.757023 22.652466
v -0.17171478 40.822315 22.652462
v 0.17957687 40.82849 22.732788
v 0.27225304 40.705822 22.855583
v 0.17963028 40.753532 22.807861
v -0.17859459 40.753532 22.80812
v -0.27114868 40.705822 22.855972
v -0.17865181 40.82849 22.733047
v -0.17165756 40.822426 22.733109
v -0.17865181 40.82849 22.733047
v 0.17957687 40.82849 22.732788
v 0.17258644 40.822426 22.73286
v 0.17263222 40.757133 22.798065
v 0.17963028 40.753532 22.807861
v -0.17859459 40.753532 22.80812
v -0.17160988 40.757133 22.79831
v 0.17963028 40.753532 22.807861
v 0.17263222 40.757133 22.798065
v 0.17258644 40.822426 22.73286
v 0.17957687 40.82849 22.732788
v -0.17865181 40.82849 22.733047
v -0.17165756 40.822426 22.733109
v -0.17160988 40.757133 22.79831
v -0.17859459 40.753532 22.80812
v -0.23701286 40.94364 21.394058
v 0.23601341 40.943634 21.393723
v 0.23602486 41.024467 21.409637
v -0.23700142 41.02447 21.40998
v -0.23694992 40.9434 21.481335
v 0.23607635 40.943398 21.480991
v 0.23607635 41.02423 21.48098
v -0.23694992 41.024235 21.481323
v 0.23601341 40.943634 21.393723
v 0.23607635 40.943398 21.480991
v -0.23694992 40.9434 21.481335
v -0.23701286 40.94364 21.394058
v 0.23602486 41.024467 21.409637
v 0.23607635 41.02423 21.48098
v 0.23607635 40.943398 21.480991
v 0.23601341 40.943634 21.393723
v -0.23700142 41.02447 21.40998
v -0.23694992 41.024235 21.481323
v 0.23607635 41.02423 21.48098
v 0.23602486 41.024467 21.409637
vt 0.035841446 0.8795449
vt 0.11859472 0.8795449
vt 0.11859472 0.8277536
vt 0.035841446 0.8277536
vt 0.03149296 0.9080296
vt 0.35257214 0.9080296
vt 0.30839297 0.9589883
vt 0.040489215 0.9589883
vt 0.38927883 0.42612544
vt 0.30604607 0.42612544
vt 0.30604607 0.4895644
vt 0.38927883 0.48933876
vt 0.11859477 0.5621035
vt 0.11859477 0.5116259
vt 0.051819913 0.5116259
vt 0.051819913 0.5621035
vt 0.88149214 0.25764602
vt 0.88149214 0.23746729
vt 0.85677224 0.23746729
vt 0.85677224 0.2576459
vt 0.41577062 0.9080296
vt 0.35200208 0.9080296
vt 0.307823 0.9589883
vt 0.3701924 0.9589883
vt 0.41634068 0.9080296
vt 0.3707624 0.9589883
vt 0.96457595 0.25764602
vt 0.96457595 0.23746729
vt 0.93985546 0.23746729
vt 0.93985546 0.25764602
vt 0.93985546 0.23723844
vt 0.93985546 0.21902326
vt 0.8814925 0.21902326
vt 0.88149214 0.23723844
vt 0.3728211 0.8107465
vt 0.3728211 0.56210315
vt 0.30604607 0.56210315
vt 0.30604616 0.8107465
vt 0.30604607 0.5116259
vt 0.3728211 0.5116259
vt 0.11859484 0.8107465
vt 0.93985546 0.35924697
vt 0.88149214 0.35924697
vt 0.96457595 0.35924697
vt 0.11859477 0.42612544
vt 0.11859477 0.4895644
vt 0.30604592 0.8795449
vt 0.3892788 0.8795449
vt 0.3892788 0.8277536
vt 0.30604592 0.8277536
vt 0.03092296 0.9080296
vt 0.039919086 0.9589883
vt 0.85677224 0.35924697
vt 0.96707064 0.58163136
vt 0.9364215 0.5822575
vt 0.9364215 0.613413
vt 0.9615707 0.6127868
vt 0.051820017 0.8107465
vt 0.44685882 0.33842772
vt 0.44325522 0.3312929
vt 0.38569143 0.3312929
vt 0.32119983 0.4073848
vt 0.38496816 0.4073849
vt 0.32119983 0.4073848
vt 0.38569143 0.3312929
vt 0.44325522 0.3312929
vt 0.44685882 0.33842772
vt 0.38496816 0.4073849
vt 0.93985546 0.25764602
vt 0.93985546 0.23723844
vt 0.88149214 0.23723844
vt 0.88149214 0.25764602
vt 0.11859477 0.33403972
vt 0.11859477 0.3419843
vt 0.30604607 0.3419843
vt 0.30604607 0.33403972
vt 0.77775884 0.40573156
vt 0.77775884 0.45564616
vt 0.9092238 0.45564616
vt 0.9092238 0.40573186
vt 0.051819913 0.5621035
vt 0.04302438 0.55966663
vt 0.042895257 0.8202165
vt 0.051820017 0.8107465
vt 0.035560694 0.5531959
vt 0.035841446 0.8277536
vt 0.30604616 0.8107465
vt 0.30604616 0.8202165
vt 0.38183084 0.82022023
vt 0.3728211 0.8107465
vt 0.30604592 0.8277536
vt 0.3892788 0.8277536
vt 0.3728211 0.56210315
vt 0.38183084 0.5594269
vt 0.38183084 0.49994034
vt 0.3728211 0.5116259
vt 0.3892946 0.5529559
vt 0.38927883 0.48933876
vt 0.11859477 0.5116259
vt 0.11859477 0.4999364
vt 0.04302438 0.5001803
vt 0.051819913 0.5116259
vt 0.03556063 0.48980823
vt 0.051820017 0.8107465
vt 0.042895257 0.8202165
vt 0.11859484 0.8202165
vt 0.11859484 0.8107465
vt 0.035841446 0.8277536
vt 0.11859472 0.8277536
vt 0.3728211 0.5116259
vt 0.38183084 0.49994034
vt 0.30604607 0.4999364
vt 0.30604607 0.5116259
vt 0.051819913 0.5116259
vt 0.04302438 0.5001803
vt 0.03556063 0.48980823
vt 0.3728211 0.8107465
vt 0.38183084 0.82022023
vt 0.3892788 0.8277536
vt 0.035841603 0.42612544
vt 0.74965763 0.48183927
vt 0.77775884 0.48260027
vt 0.77775884 0.45564616
vt 0.72734404 0.45690456
vt 0.96080494 0.45690456
vt 0.9092238 0.45564616
vt 0.9092238 0.48260027
vt 0.9384912 0.48183927
vt 0.9092238 0.51022995
vt 0.9092238 0.48260027
vt 0.77775884 0.48260027
vt 0.77775884 0.5102296
vt 0.9092238 0.48260027
vt 0.9092238 0.45564616
vt 0.77775884 0.45564616
vt 0.77775884 0.48260027
vt 0.27410695 0.3925017
vt 0.30604607 0.3419843
vt 0.27410695 0.36078537
vt 0.15053388 0.36078537
vt 0.11859477 0.3419843
vt 0.15053388 0.3925017
vt 0.15294571 0.3900107
vt 0.15053388 0.3925017
vt 0.27410695 0.3925017
vt 0.27169502 0.3900107
vt 0.27169502 0.36304086
vt 0.27410695 0.36078537
vt 0.15053388 0.36078537
vt 0.15294571 0.36304086
vt 0.27410695 0.36078537
vt 0.27169502 0.36304086
vt 0.27169502 0.3900107
vt 0.27410695 0.3925017
vt 0.15053388 0.3925017
vt 0.15294571 0.3900107
vt 0.15294571 0.36304086
vt 0.15053388 0.36078537
vt 0.13073322 0.867591
vt 0.2939074 0.867591
vt 0.2939074 0.8397073
vt 0.13073322 0.8397073
vt 0.9364215 0.5822575
vt 0.75359726 0.5815404
vt 0.75359446 0.612696
vt 0.9364215 0.613413
vt 0.7541007 0.5510251
vt 0.75359726 0.5815404
vt 0.9364215 0.5822575
vt 0.9364215 0.551025
vt 0.72895205 0.6127868
vt 0.75359446 0.612696
vt 0.75359726 0.5815404
vt 0.723452 0.58163136
vt 0.9364215 0.63747084
vt 0.9364215 0.613413
vt 0.75359446 0.612696
vt 0.7541007 0.63747084
vn -0.00070402597 0.19328946 -0.9811415
vn -0.00070402597 0.19328947 -0.9811415
vn -0.0007040261 0.19328949 -0.9811415
vn -0.00070402597 0.19328946 -0.9811415
vn 0.99999976 -1.1891306E-05 -0.00072301197
vn 0.99999976 0 -0.0007173567
vn 0.99999976 -1.088166E-05 -0.0007220062
vn 0.99999976 -1.1891306E-05 -0.00072301185
vn 0.0005127541 0.7064167 0.70779604
vn 0.0005135919 0.70664704 0.70756596
vn 0.00049652345 0.7297254 0.6837401
vn 0.0004979989 0.7261135 0.6875746
vn -0 1 0
vn -0 1 0
vn -0 1 0
vn -0 1 0
vn -0 -1 0
vn -0 -1 0
vn -0 -1 0
vn -0 -1 0
vn -0.99999976 1.5556427E-05 0.00072667963
vn -0.99999976 1.2039029E-05 0.000721987
vn -0.99999976 1.0232146E-05 0.00071957643
vn -0.99999976 1.5556428E-05 0.00072667963
vn 0.99999976 0 -0.0007083057
vn 0.99999976 0 -0.00070830574
vn -0 -1 0
vn -0 -1 -1.1097737E-05
vn -0 -1 -1.1097738E-05
vn -0 -1 0
vn -0 -1 0
vn -0 -1 0
vn -0 -1 0
vn -0 -1 0
vn 1.9706558E-05 1 0
vn 1.9706573E-05 1 0
vn -0 1 0
vn -0 1 0
vn -0 1 0
vn 1.970664E-05 1 0
vn -0 1 0
vn -0 -1 0
vn -0 -1 0
vn -0 -1 0
vn 0.000516482 0.7066476 0.7075654
vn 0.0004994413 0.7297304 0.68373483
vn -0.0006972395 0.1932739 -0.9811446
vn -0.00069723953 0.1932739 -0.9811446
vn -0.0006972395 0.1932739 -0.9811446
vn -0.00069723953 0.19327389 -0.9811446
vn -0.99999976 0 0.00071905495
vn -0.99999976 0 0.00071905483
vn -0 -1 0
vn 0.99999976 0 -0.00072148466
vn 0.99999976 0 -0.0007214847
vn 0.99999976 0 -0.00072148466
vn 0.99999976 0 -0.00072148466
vn -0 1 0
vn -0.99999976 2.9380497E-05 0.0007276906
vn -0.99999976 2.9380493E-05 0.0007276905
vn -0.99999976 2.9380493E-05 0.0007276905
vn -0.99999976 2.9380495E-05 0.00072769047
vn -0.99999976 2.9380493E-05 0.0007276905
vn 0.99999976 0 -0.0007334077
vn 0.99999976 0 -0.0007334077
vn 0.99999976 0 -0.0007334077
vn 0.99999976 0 -0.0007334077
vn 0.99999976 0 -0.0007334077
vn -0.00052609557 -0.6871215 -0.72654235
vn -0.0005260955 -0.68712157 -0.7265423
vn -0.0005260955 -0.68712157 -0.72654223
vn -0.0005260955 -0.6871215 -0.7265423
vn 0.0006227308 -0.49100366 0.8711573
vn 0.0006227309 -0.4910037 0.8711572
vn 0.00062273093 -0.49100378 0.8711572
vn 0.0006227309 -0.49100375 0.8711572
vn -0 0.99999976 -0.0007840772
vn -0 0.99999976 -0.0007840771
vn -0 0.99999976 -0.00078407716
vn -0 0.99999976 -0.00078407716
vn -0.32726446 0.9449327 0.00023094614
vn -0.70778316 0.70642954 0.0005074249
vn -0.7896629 0.6135406 0.00056800345
vn -0.32726443 0.9449327 0.00023249215
vn -0.896124 0.44380316 0.0006481064
vn -0.8961303 0.44379044 0.00064564863
vn -0.00019796389 0.95975816 -0.28082758
vn -0.00039189518 0.8350461 -0.5501797
vn -0.00045736082 0.7530571 -0.6579551
vn -0.00018988547 0.95977473 -0.2807708
vn -0.0005723482 0.5997785 -0.8001659
vn -0.0005588594 0.59972644 -0.8002049
vn 0.32727763 0.9449282 -0.00023556946
vn 0.7077385 0.7064743 -0.0005099329
vn 0.8202219 0.57204515 -0.0005774945
vn 0.3272605 0.9449342 -0.00022030942
vn 0.8960635 0.4439254 -0.0006427468
vn 0.896069 0.4439144 -0.0006334487
vn 0.00016925903 0.9730209 0.2307167
vn 0.0002894249 0.9182442 0.39601463
vn 0.00033108762 0.89470667 0.44665408
vn 0.00017084027 0.973019 0.2307249
vn 0.0005078258 0.726126 0.6875615
vn -0.00019896106 0.9597909 -0.280716
vn -0.00046735848 0.75312203 -0.65788084
vn -0.0003947023 0.8350627 -0.5501546
vn -0.00020046296 0.9597627 -0.28081253
vn -0.0005686099 0.59988225 -0.8000881
vn -0.00057520095 0.5998241 -0.8001318
vn 0.0001745348 0.97303593 0.23065332
vn 0.00032548583 0.8946966 0.4466743
vn 0.00028841244 0.9182438 0.39601535
vn 0.00017027659 0.9730257 0.230697
vn -0.32726505 0.9449326 0.00022031045
vn -0.8202629 0.5719864 0.0005931293
vn -0.8961139 0.4438237 0.0006521031
vn 0.32728007 0.9449274 -0.00023778745
vn 0.789607 0.6136126 -0.00057169213
vn 0.89606017 0.44393218 -0.0006484631
vn 0.00052253244 0.7064206 0.70779216
vn 0.99999976 0 -0.0007158025
vn 0.99999976 0 -0.0007158025
vn 0.99999976 0 -0.0007158025
vn 0.99999976 0 -0.00071580254
vn -0.99999976 1.1078498E-05 0.00072425685
vn -0.99999976 1.1078498E-05 0.0007242568
vn -0.99999976 1.1078496E-05 0.00072425674
vn -0.99999976 1.1078498E-05 0.00072425685
vn -0 -0.99999905 0.0014089405
vn -0 -0.99999905 0.0014089404
vn -0 -0.99999905 0.0014089405
vn -0 -0.99999905 0.0014089404
vn 0.0007160131 -5.842532E-05 0.99999976
vn 0.00071601296 -5.8425318E-05 0.99999976
vn 0.000716013 -5.8425318E-05 0.99999976
vn 0.0007160131 -5.8425325E-05 0.99999976
vn 0.00051039027 0.70764273 0.7065702
vn 0.0005065573 0.7076748 0.70653814
vn 0.0005072444 0.7076815 0.70653147
vn 0.00051174883 0.707678 0.70653486
vn 0.000512735 0.70767003 0.7065429
vn 0.0005140446 0.70763993 0.706573
vn 0.00072064914 0.011009638 0.9999392
vn 0.00072064914 0.011009639 0.9999392
vn 0.0007206492 0.011009639 0.9999392
vn 0.0007206492 0.01100964 0.9999392
vn 0.0002457475 0.9386485 0.34487516
vn 0.0002457475 0.9386485 0.34487516
vn 0.00024574753 0.9386485 0.34487516
vn 0.00024574753 0.9386485 0.3448752
vn -0.5245893 0.6018651 0.6021332
vn -0.52458936 0.6018652 0.6021332
vn -0.52458936 0.6018651 0.60213315
vn -0.52458936 0.6018652 0.60213315
vn 0.52555734 0.6018271 0.6013266
vn 0.5255574 0.60182714 0.60132647
vn 0.52555734 0.6018271 0.6013265
vn 0.5255574 0.6018271 0.6013265
vn -0.00069731614 0.19337964 -0.98112375
vn -0.0006973161 0.19337964 -0.98112375
vn -0.00070733856 0.19328897 -0.9811416
vn -0.0007073386 0.193289 -0.9811416
vn -0.0007276561 -0.00014157516 -0.99999976
vn -0.0007276562 -0.00014157516 -0.99999976
vn -0.0007276561 -0.00014157516 -0.99999976
vn -0.0007276562 -0.00014157516 -0.99999976
vn 1.4066023E-05 0.9999962 0.0027784286
vn 1.4066024E-05 0.9999962 0.0027784286
vn 1.4066024E-05 0.9999962 0.0027784288
vn 1.4066024E-05 0.9999962 0.0027784286
vn -0.99999976 0 0.0007215358
vn -0.99999976 0 0.00072153576
vn -0.99999976 0 0.0007215358
vn -0.99999976 0 0.0007215359
vn -1.0473114E-05 -0.9999944 -0.003353977
vn -1.0473115E-05 -0.9999944 -0.0033539773
vn -1.0473114E-05 -0.9999944 -0.003353977
vn -1.0473115E-05 -0.9999944 -0.0033539773
g LightShassis_CustomizePart_0
f 3/3/3 2/2/2 1/1/1
f 4/4/4 3/3/3 1/1/1
f 7/7/7 6/6/6 5/5/5
f 8/8/8 7/7/7 5/5/5
f 11/11/11 10/10/10 9/9/9
f 12/12/12 11/11/11 9/9/9
f 15/15/15 14/14/14 13/13/13
f 16/16/16 15/15/15 13/13/13
f 19/19/19 18/18/18 17/17/17
f 20/20/20 19/19/19 17/17/17
f 23/23/23 22/22/22 21/21/21
f 24/24/24 23/23/23 21/21/21
f 26/26/26 25/25/25 6/6/6
f 7/7/7 26/26/26 6/6/6
f 29/29/29 28/28/28 27/27/27
f 30/30/30 29/29/29 27/27/27
f 33/33/33 32/32/32 31/31/31
f 34/34/34 33/33/33 31/31/31
f 37/37/37 36/36/36 35/35/35
f 38/38/38 37/37/37 35/35/35
f 14/14/14 39/39/39 37/37/37
f 13/13/13 14/14/14 37/37/37
f 39/39/39 40/40/40 36/36/36
f 37/37/37 39/39/39 36/36/36
f 13/13/13 37/37/37 38/38/38
f 41/41/41 13/13/13 38/38/38
f 17/17/17 30/30/30 42/42/42
f 43/43/43 17/17/17 42/42/42
f 30/30/30 27/27/27 44/44/44
f 42/42/42 30/30/30 44/44/44
f 46/46/46 45/45/45 10/10/10
f 11/11/11 46/46/46 10/10/10
f 49/49/49 48/48/48 47/47/47
f 50/50/50 49/49/49 47/47/47
f 52/52/52 51/51/51 22/22/22
f 23/23/23 52/52/52 22/22/22
f 20/20/20 17/17/17 43/43/43
f 53/53/53 20/20/20 43/43/43
f 56/56/56 55/55/55 54/54/54
f 57/57/57 56/56/56 54/54/54
f 16/16/16 13/13/13 41/41/41
f 58/58/58 16/16/16 41/41/41
f 61/61/61 60/60/60 59/59/59
f 59/59/59 62/62/62 61/61/61
f 59/59/59 63/63/63 62/62/62
f 66/66/66 65/65/65 64/64/64
f 64/64/64 67/67/67 66/66/66
f 64/64/64 68/68/68 67/67/67
f 71/71/71 70/70/70 69/69/69
f 72/72/72 71/71/71 69/69/69
f 75/75/75 74/74/74 73/73/73
f 76/76/76 75/75/75 73/73/73
f 79/79/79 78/78/78 77/77/77
f 80/80/80 79/79/79 77/77/77
f 83/83/83 82/82/82 81/81/81
f 84/84/84 83/83/83 81/81/81
f 86/86/86 85/85/85 82/82/82
f 83/83/83 86/86/86 82/82/82
f 89/89/89 88/88/88 87/87/87
f 90/90/90 89/89/89 87/87/87
f 92/92/92 91/91/91 88/88/88
f 89/89/89 92/92/92 88/88/88
f 95/95/95 94/94/94 93/93/93
f 96/96/96 95/95/95 93/93/93
f 98/98/98 97/97/97 94/94/94
f 95/95/95 98/98/98 94/94/94
f 101/101/101 100/100/100 99/99/99
f 102/102/102 101/101/101 99/99/99
f 103/103/103 46/46/46 100/100/100
f 101/101/101 103/103/103 100/100/100
f 106/106/106 105/105/105 104/104/104
f 107/107/107 106/106/106 104/104/104
f 109/109/109 108/108/108 105/105/105
f 106/106/106 109/109/109 105/105/105
f 88/88/88 106/106/106 107/107/107
f 87/87/87 88/88/88 107/107/107
f 91/91/91 109/109/109 106/106/106
f 88/88/88 91/91/91 106/106/106
f 112/112/112 111/111/111 110/110/110
f 113/113/113 112/112/112 110/110/110
f 11/11/11 12/12/12 111/111/111
f 112/112/112 11/11/11 111/111/111
f 100/100/100 112/112/112 113/113/113
f 99/99/99 100/100/100 113/113/113
f 46/46/46 11/11/11 112/112/112
f 100/100/100 46/46/46 112/112/112
f 82/82/82 115/115/115 114/114/114
f 81/81/81 82/82/82 114/114/114
f 85/85/85 116/116/116 115/115/115
f 82/82/82 85/85/85 115/115/115
f 94/94/94 118/118/118 117/117/117
f 93/93/93 94/94/94 117/117/117
f 97/97/97 119/119/119 118/118/118
f 94/94/94 97/97/97 118/118/118
f 103/103/103 120/120/120 45/45/45
f 46/46/46 103/103/103 45/45/45
f 123/123/123 122/122/122 121/121/121
f 124/124/124 123/123/123 121/121/121
f 127/127/127 126/126/126 125/125/125
f 128/128/128 127/127/127 125/125/125
f 131/131/131 130/130/130 129/129/129
f 132/132/132 131/131/131 129/129/129
f 135/135/135 134/134/134 133/133/133
f 136/136/136 135/135/135 133/133/133
f 138/138/138 10/10/10 137/137/137
f 139/139/139 138/138/138 137/137/137
f 45/45/45 141/141/141 140/140/140
f 142/142/142 45/45/45 140/140/140
f 141/141/141 138/138/138 139/139/139
f 140/140/140 141/141/141 139/139/139
f 145/145/145 144/144/144 143/143/143
f 146/146/146 145/145/145 143/143/143
f 149/149/149 148/148/148 147/147/147
f 150/150/150 149/149/149 147/147/147
f 153/153/153 152/152/152 151/151/151
f 154/154/154 153/153/153 151/151/151
f 157/157/157 156/156/156 155/155/155
f 158/158/158 157/157/157 155/155/155
f 10/10/10 45/45/45 142/142/142
f 137/137/137 10/10/10 142/142/142
f 47/47/47 2/2/2 159/159/159
f 160/160/160 47/47/47 159/159/159
f 3/3/3 50/50/50 161/161/161
f 162/162/162 3/3/3 161/161/161
f 2/2/2 3/3/3 162/162/162
f 159/159/159 2/2/2 162/162/162
f 50/50/50 47/47/47 160/160/160
f 161/161/161 50/50/50 160/160/160
f 165/165/165 164/164/164 163/163/163
f 166/166/166 165/165/165 163/163/163
f 169/169/169 168/168/168 167/167/167
f 170/170/170 169/169/169 167/167/167
f 173/173/173 172/172/172 171/171/171
f 174/174/174 173/173/173 171/171/171
f 177/177/177 176/176/176 175/175/175
f 178/178/178 177/177/177 175/175/175
