g LightArtTurret_03_CorpsePart
v 0.38897753 -0.0009241104 -0.27201644
v 0.39656103 0.17916608 -0.21918705
v 0.10632762 0.17916608 -0.21918705
v 0.10632762 -0.0009241104 -0.27201644
v 0.33736953 0.10489869 0.28156173
v 0.44262725 0.18013227 0.10550028
v 0.4469112 0.00029730797 0.13559735
v 0.337406 0.00073480606 0.2829107
v 0.10933551 -0.00077825785 -0.22303352
v 0.10933551 0.13711041 -0.18343881
v -0.10932851 0.13711041 -0.18343881
v -0.10932851 -0.00077825785 -0.22303352
v 0.10632762 0.00073480606 0.2829107
v 0.10632762 -0.0009241104 -0.27201644
v 0.10632762 0.17916608 -0.21918705
v 0.10632762 0.10489869 0.28156173
v 0.10632762 0.18018693 0.12363875
v 0.44262725 0.18013227 0.10550028
v 0.39656103 0.17916608 -0.21918705
v 0.38897753 -0.0009241104 -0.27201644
v 0.4469112 0.00029730797 0.13559735
v 0.10632762 0.17916608 -0.21918705
v 0.39656103 0.17916608 -0.21918705
v 0.44262725 0.18013227 0.10550028
v 0.10632762 0.18018693 0.12363875
v 0.4469112 0.00029730797 0.13559735
v 0.38897753 -0.0009241104 -0.27201644
v 0.10632762 -0.0009241104 -0.27201644
v 0.10632762 0.00073480606 0.2829107
v 0.337406 0.00073480606 0.2829107
v 0.33736953 0.10489869 0.28156173
v 0.10632762 0.10489869 0.28156173
v 0.10632762 0.18018693 0.12363875
v 0.44262725 0.18013227 0.10550028
v 0.10933551 0.115544796 0.16419959
v -0.10932851 0.115544796 0.16419959
v -0.10932851 0.13711041 -0.18343881
v 0.10933551 0.13711041 -0.18343881
v 0.10933551 0.115544796 0.16419959
v 0.10933551 0.0006071925 0.24213111
v -0.10932851 0.0006071925 0.24213111
v -0.10932851 0.115544796 0.16419959
v 0.33736953 0.10489869 0.28156173
v 0.337406 0.00073480606 0.2829107
v 0.10632762 0.00073480606 0.2829107
v 0.10632762 0.10489869 0.28156173
v 0.400608 0.3999083 -0.1517011
v 0.400608 0.4006557 0.09817201
v 0.58855516 0.4606493 0.09798968
v 0.58855516 0.4599201 -0.1518834
v 0.400608 0.1792208 0.098828256
v 0.400608 0.4006557 0.09817201
v 0.400608 0.3999083 -0.1517011
v 0.400608 0.17847335 -0.1510266
v 0.36010185 0.6051188 0.09755218
v 0.36010185 0.6043715 -0.15230268
v 0.3704745 0.6044261 -0.15230268
v 0.58855516 0.6061215 0.09755218
v 0.58855516 0.60537404 -0.15230268
v 0.36010185 0.6051188 0.09755218
v 0.14579469 0.1792208 0.098828256
v 0.14579469 0.17847335 -0.15104482
v 0.36010185 0.6043715 -0.15230268
v 0.400608 0.1792208 0.098828256
v 0.14579469 0.1792208 0.098828256
v 0.36010185 0.6051188 0.09755218
v 0.400608 0.4006557 0.09817201
v 0.58855516 0.6061215 0.09755218
v 0.58855516 0.60537404 -0.15230268
v 0.58855516 0.4599201 -0.1518834
v 0.58855516 0.4606493 0.09798968
v 0.3704745 0.6044261 -0.15230268
v 0.400608 0.3999083 -0.1517011
v 0.58855516 0.4599201 -0.1518834
v 0.58855516 0.60537404 -0.15230268
v -0.38897055 -0.0009241104 -0.27201644
v -0.10633886 -0.0009241104 -0.27201644
v -0.10632062 0.17916608 -0.21918705
v -0.3965723 0.17916608 -0.21918705
v -0.33738077 0.10489869 0.28156173
v -0.337399 0.00073480606 0.2829107
v -0.44692236 0.00029730797 0.13559735
v -0.44262022 0.18013227 0.10550028
v -0.10632062 0.17916608 -0.21918705
v -0.10633886 -0.0009241104 -0.27201644
v -0.10632062 0.00073480606 0.2829107
v -0.10632062 0.10489869 0.28156173
v -0.10632062 0.18018693 0.12363875
v -0.38897055 -0.0009241104 -0.27201644
v -0.3965723 0.17916608 -0.21918705
v -0.44262022 0.18013227 0.10550028
v -0.44692236 0.00029730797 0.13559735
v -0.10632062 0.17916608 -0.21918705
v -0.10632062 0.18018693 0.12363875
v -0.44262022 0.18013227 0.10550028
v -0.3965723 0.17916608 -0.21918705
v -0.10632062 0.00073480606 0.2829107
v -0.10633886 -0.0009241104 -0.27201644
v -0.38897055 -0.0009241104 -0.27201644
v -0.44692236 0.00029730797 0.13559735
v -0.337399 0.00073480606 0.2829107
v -0.33738077 0.10489869 0.28156173
v -0.44262022 0.18013227 0.10550028
v -0.10632062 0.18018693 0.12363875
v -0.10632062 0.10489869 0.28156173
v -0.10632062 0.10489869 0.28156173
v -0.10632062 0.00073480606 0.2829107
v -0.337399 0.00073480606 0.2829107
v -0.33738077 0.10489869 0.28156173
v 0.10933551 0.0006071925 0.24213111
v 0.10933551 -0.00077825785 -0.22303352
v -0.10932851 -0.00077825785 -0.22303352
v -0.10932851 0.0006071925 0.24213111
v -0.40061927 0.3999083 -0.1517011
v -0.58856636 0.4599201 -0.1518834
v -0.58856636 0.4606493 0.09798968
v -0.40061927 0.4006557 0.09817201
v -0.20960951 0.27122557 -0.11797634
v 0.20961651 0.27122557 -0.11797634
v 0.34869012 0.55812293 -0.118833125
v -0.34870136 0.55812293 -0.118833125
v -0.40061927 0.1792208 0.098828256
v -0.40061927 0.17847335 -0.15104482
v -0.40061927 0.3999083 -0.1517011
v -0.40061927 0.4006557 0.09817201
v -0.36011308 0.6051188 0.09755218
v -0.58856636 0.6061215 0.09755218
v -0.58856636 0.60537404 -0.15230268
v -0.36011308 0.6043715 -0.15230268
v -0.14578772 0.1792208 0.098828256
v -0.36011308 0.6051188 0.09755218
v -0.36011308 0.6043715 -0.15230268
v -0.14578772 0.17847335 -0.15104482
v -0.40061927 0.17847335 -0.15104482
v -0.14578772 0.17847335 -0.15104482
v -0.36011308 0.6043715 -0.15230268
v -0.40061927 0.3999083 -0.1517011
v -0.20960951 0.27177244 0.06548631
v 0.20961651 0.27177244 0.06548631
v 0.20961651 0.27122557 -0.11797634
v -0.20960951 0.27122557 -0.11797634
v -0.20960951 0.27177244 0.06548631
v -0.34870136 0.55866987 0.064629555
v 0.34869012 0.55866987 0.064629555
v 0.20961651 0.27177244 0.06548631
v -0.58856636 0.4599201 -0.1518834
v -0.58856636 0.60537404 -0.15230268
v -0.58856636 0.6061215 0.09755218
v -0.58856636 0.4606493 0.09798968
v 0.34869012 0.55866987 0.064629555
v -0.34870136 0.55866987 0.064629555
v -0.34870136 0.55812293 -0.118833125
v 0.34869012 0.55812293 -0.118833125
v -0.36011308 0.6051188 0.09755218
v -0.40061927 0.4006557 0.09817201
v -0.58856636 0.4606493 0.09798968
v -0.58856636 0.6061215 0.09755218
v -0.14578772 0.1792208 0.098828256
v -0.40061927 0.1792208 0.098828256
v -0.58856636 0.60537404 -0.15230268
v -0.58856636 0.4599201 -0.1518834
v 0.14579469 0.17847335 -0.15104482
v 0.400608 0.17847335 -0.1510266
v 0.36010185 0.6043715 -0.15230268
v 0.58855516 0.6061215 0.09755218
v 0.58855516 0.4606493 0.09798968
vt 0.9804297 0.8041198
vt 0.9804297 0.81096476
vt 0.99080086 0.81096476
vt 0.99080086 0.8039124
vt 0.97337735 0.8188469
vt 0.98063713 0.8215434
vt 0.98001486 0.8153207
vt 0.97337735 0.8153207
vt 0.9654952 0.8028753
vt 0.96570265 0.80702376
vt 0.96902144 0.80702376
vt 0.96902144 0.8028753
vt 0.9644581 0.79934907
vt 0.9644581 0.7862814
vt 0.9636284 0.78648883
vt 0.963421 0.79934907
vt 0.963421 0.79333377
vt 0.98063713 0.8215434
vt 0.9930825 0.82216567
vt 0.9953642 0.8153207
vt 0.98001486 0.8153207
vt 0.98001486 0.80017877
vt 0.99163055 0.80017877
vt 0.9930825 0.78918535
vt 0.98001486 0.78752595
vt 0.9723402 0.7960303
vt 0.97088826 0.7862814
vt 0.9644581 0.7862814
vt 0.9644581 0.79934907
vt 0.96985114 0.79934907
vt 0.9878969 0.78317004
vt 0.98001486 0.78317004
vt 0.98001486 0.78752595
vt 0.9930825 0.78918535
vt 0.95719826 0.8209211
vt 0.96051705 0.8209211
vt 0.9603096 0.83378136
vt 0.95699084 0.83378136
vt 0.95719826 0.8209211
vt 0.95699084 0.81511325
vt 0.9603096 0.81511325
vt 0.9592725 0.81698006
vt 0.97337735 0.8188469
vt 0.97337735 0.8153207
vt 0.9650804 0.8153207
vt 0.9650804 0.8190543
vt 0.97068083 0.83108485
vt 0.96404326 0.83108485
vt 0.96404326 0.8364779
vt 0.97068083 0.8364779
vt 0.96404326 0.82278794
vt 0.96404326 0.83108485
vt 0.97068083 0.83108485
vt 0.97068083 0.82278794
vt 0.98437077 0.84290797
vt 0.9752441 0.84290797
vt 0.9752441 0.8431154
vt 0.98437077 0.84954554
vt 0.9752441 0.84954554
vt 0.98437077 0.84290797
vt 0.98437077 0.8256918
vt 0.9752441 0.8254844
vt 0.9752441 0.84290797
vt 0.98437077 0.85473114
vt 0.97462183 0.85473114
vt 0.98333365 0.8680062
vt 0.98437077 0.8624058
vt 0.9627987 0.84518963
vt 0.9719254 0.84518963
vt 0.97068083 0.83979666
vt 0.96383584 0.83979666
vt 0.98333365 0.8680062
vt 0.98437077 0.8624058
vt 0.98976374 0.86489487
vt 0.98914146 0.8688359
vt 0.98063713 0.8039124
vt 0.9910083 0.8039124
vt 0.9910083 0.81096476
vt 0.98063713 0.81096476
vt 0.9731699 0.8190543
vt 0.9731699 0.8153207
vt 0.98001486 0.8153207
vt 0.9804297 0.8215434
vt 0.9636284 0.78648883
vt 0.9642507 0.7862814
vt 0.9642507 0.79934907
vt 0.963421 0.79934907
vt 0.963421 0.79333377
vt 0.9953642 0.8153207
vt 0.99328995 0.82216567
vt 0.9804297 0.8215434
vt 0.98001486 0.8153207
vt 0.97980744 0.80017877
vt 0.97980744 0.78752595
vt 0.9930825 0.78918535
vt 0.99142313 0.80017877
vt 0.9642507 0.79934907
vt 0.9642507 0.7862814
vt 0.97088826 0.7862814
vt 0.9721328 0.7960303
vt 0.9696437 0.79934907
vt 0.9876895 0.78317004
vt 0.9930825 0.78918535
vt 0.97980744 0.78752595
vt 0.97980744 0.78317004
vt 0.96487296 0.8190543
vt 0.96487296 0.8153207
vt 0.9731699 0.8153207
vt 0.9731699 0.8190543
vt 0.9642507 0.7985194
vt 0.9642507 0.78752595
vt 0.9642507 0.78752595
vt 0.9642507 0.7985194
vt 0.97068083 0.8308774
vt 0.97068083 0.8364779
vt 0.96404326 0.8364779
vt 0.96404326 0.8308774
vt 0.9669472 0.8485084
vt 0.9723402 0.84871584
vt 0.9723402 0.8565979
vt 0.96217644 0.8565979
vt 0.96404326 0.82278794
vt 0.97068083 0.82278794
vt 0.97068083 0.8308774
vt 0.96404326 0.8308774
vt 0.98437077 0.84270054
vt 0.98437077 0.8493381
vt 0.9752441 0.8493381
vt 0.9752441 0.84270054
vt 0.98437077 0.8254844
vt 0.98437077 0.84270054
vt 0.9752441 0.84270054
vt 0.9752441 0.8254844
vt 0.98416334 0.85473114
vt 0.9744144 0.85473114
vt 0.98333365 0.8680062
vt 0.98416334 0.8624058
vt 0.9928751 0.8263141
vt 0.9928751 0.8298403
vt 0.9885192 0.8298403
vt 0.9885192 0.8263141
vt 0.9731699 0.8592944
vt 0.98001486 0.8700805
vt 0.9686066 0.8700805
vt 0.9686066 0.8592944
vt 0.97068083 0.83979666
vt 0.9719254 0.84518963
vt 0.9627987 0.84518963
vt 0.96383584 0.83979666
vt 0.9947419 0.84187084
vt 0.9947419 0.84892327
vt 0.98810434 0.84892327
vt 0.98810434 0.84187084
vt 0.98333365 0.8680062
vt 0.98416334 0.8624058
vt 0.9895563 0.86489487
vt 0.98914146 0.8688359
vt 0.9744144 0.85473114
vt 0.98416334 0.85473114
vt 0.98914146 0.8688359
vt 0.9895563 0.86468744
vt 0.97462183 0.85473114
vt 0.98437077 0.85473114
vt 0.98333365 0.8680062
vt 0.98914146 0.8688359
vt 0.98976374 0.86489487
vn -0.003921509 0.27842915 -0.96044874
vn -0.003921509 0.27842915 -0.96044874
vn -0.003921509 0.27842915 -0.96044874
vn -0.003921509 0.27842915 -0.96044874
vn 0.8196016 0.074509144 0.5680683
vn 0.8196016 0.074509144 0.5680683
vn 0.8196016 0.074509144 0.5680683
vn 0.8196016 0.074509144 0.5680683
vn -0.003921509 0.27842915 -0.96044874
vn -0.003921509 0.27842915 -0.96044874
vn -0.003921509 0.27842915 -0.96044874
vn -0.003921509 0.27842915 -0.96044874
vn -0.99999225 0.003921509 -0.00034492963
vn -0.99999225 0.003921509 -0.00034492963
vn -0.99999225 0.003921509 -0.00034492963
vn -0.99999225 0.003921509 -0.00034492963
vn -0.99999225 0.003921509 -0.00034492963
vn 0.9921493 -0.0039215684 -0.12499761
vn 0.9921493 -0.0039215684 -0.12499761
vn 0.9921493 -0.0039215684 -0.12499761
vn 0.9921493 -0.0039215684 -0.12499761
vn -0.003921509 0.99999225 -0.00034526698
vn -0.003921509 0.99999225 -0.00034526698
vn -0.003921509 0.99999225 -0.00034526698
vn -0.003921509 0.99999225 -0.00034526698
vn -0.003921509 -0.9999924 -0
vn -0.003921509 -0.9999924 -0
vn -0.003921509 -0.9999924 -0
vn -0.003921509 -0.9999924 -0
vn -0.003921509 -0.9999924 -0
vn 0.011764646 0.91371846 0.40617752
vn 0.011764646 0.91371846 0.40617752
vn 0.011764646 0.91371846 0.40617752
vn 0.011764646 0.91371846 0.40617752
vn -0.003921509 0.99999225 -0.00034526698
vn -0.003921509 0.99999225 -0.00034526698
vn -0.003921509 0.99999225 -0.00034526698
vn -0.003921509 0.99999225 -0.00034526698
vn -0.003921509 0.5607799 0.8279556
vn -0.003921509 0.5607799 0.8279556
vn -0.003921509 0.5607799 0.8279556
vn -0.003921509 0.5607799 0.8279556
vn -0.003921509 0.011764526 0.9999231
vn -0.003921509 0.011764526 0.9999231
vn -0.003921509 0.011764526 0.9999231
vn -0.003921509 0.011764526 0.9999231
vn 0.3019585 -0.9529339 0.02716661
vn 0.3019585 -0.9529339 0.02716661
vn 0.3019585 -0.9529339 0.02716661
vn 0.3019585 -0.9529339 0.02716661
vn 0.9999924 0.003921509 -0
vn 0.9999924 0.003921509 -0
vn 0.9999924 0.003921509 -0
vn 0.9999924 0.003921509 -0
vn -0.003921509 0.99999225 -0.00034526698
vn -0.003921509 0.99999225 -0.00034526698
vn -0.003921509 0.99999225 -0.00034526698
vn -0.003921509 0.99999225 -0.00034526698
vn -0.003921509 0.99999225 -0.00034526698
vn -0.8901892 0.45097685 -0.06467688
vn -0.8901892 0.45097685 -0.06467688
vn -0.8901892 0.45097685 -0.06467688
vn -0.8901892 0.45097685 -0.06467688
vn -0.003921509 0.003921509 0.9999846
vn -0.003921509 0.003921509 0.9999846
vn -0.003921509 0.003921509 0.9999846
vn -0.003921509 0.003921509 0.9999846
vn 0.9999924 0.003921509 -0
vn 0.9999924 0.003921509 -0
vn 0.9999924 0.003921509 -0
vn 0.9999924 0.003921509 -0
vn -0.003921509 -0.0039215684 -0.9999846
vn -0.003921509 -0.0039215684 -0.9999846
vn -0.003921509 -0.0039215684 -0.9999846
vn -0.003921509 -0.0039215684 -0.9999846
vn -0.003921509 0.27842915 -0.96044874
vn -0.003921509 0.27842915 -0.96044874
vn -0.003921509 0.27842915 -0.96044874
vn -0.003921509 0.27842915 -0.96044874
vn -0.81960154 0.074509144 0.5680684
vn -0.81960154 0.074509144 0.5680684
vn -0.81960154 0.074509144 0.5680684
vn -0.81960154 0.074509144 0.5680684
vn 0.9999924 0.003921509 -0
vn 0.9999924 0.003921509 -0
vn 0.9999924 0.003921509 -0
vn 0.9999924 0.003921509 -0
vn 0.9999924 0.003921509 -0
vn -0.99214923 -0.0039215684 -0.124998085
vn -0.99214923 -0.0039215684 -0.124998085
vn -0.99214923 -0.0039215684 -0.124998085
vn -0.99214923 -0.0039215684 -0.124998085
vn -0.003921509 0.99999225 -0.00034526698
vn -0.003921509 0.99999225 -0.00034526698
vn -0.003921509 0.99999225 -0.00034526698
vn -0.003921509 0.99999225 -0.00034526698
vn -0.003921509 -0.9999924 -0
vn -0.003921509 -0.9999924 -0
vn -0.003921509 -0.9999924 -0
vn -0.003921509 -0.9999924 -0
vn -0.003921509 -0.9999924 -0
vn -0.011764526 0.91371846 0.40617752
vn -0.011764526 0.91371846 0.40617752
vn -0.011764526 0.91371846 0.40617752
vn -0.011764526 0.91371846 0.40617752
vn -0.003921509 0.011764526 0.9999231
vn -0.003921509 0.011764526 0.9999231
vn -0.003921509 0.011764526 0.9999231
vn -0.003921509 0.011764526 0.9999231
vn -0.003921509 -0.9999924 -0
vn -0.003921509 -0.9999924 -0
vn -0.003921509 -0.9999924 -0
vn -0.003921509 -0.9999924 -0
vn -0.30195844 -0.9529339 0.027167708
vn -0.30195844 -0.9529339 0.027167708
vn -0.30195844 -0.9529339 0.027167708
vn -0.30195844 -0.9529339 0.027167708
vn -0.003921509 -0.0039215684 -0.9999846
vn -0.003921509 -0.0039215684 -0.9999846
vn -0.003921509 -0.0039215684 -0.9999846
vn -0.003921509 -0.0039215684 -0.9999846
vn -0.99999225 0.003921509 -0.00034492963
vn -0.99999225 0.003921509 -0.00034492963
vn -0.99999225 0.003921509 -0.00034492963
vn -0.99999225 0.003921509 -0.00034492963
vn 0.0039215684 0.99999225 -0.00034526698
vn 0.0039215684 0.99999225 -0.00034526698
vn 0.0039215684 0.99999225 -0.00034526698
vn 0.0039215684 0.99999225 -0.00034526698
vn 0.8901893 0.45097685 -0.064675495
vn 0.8901893 0.45097685 -0.064675495
vn 0.8901893 0.45097685 -0.064675495
vn 0.8901893 0.45097685 -0.064675495
vn -0.003921509 -0.0039215684 -0.9999846
vn -0.003921509 -0.0039215684 -0.9999846
vn -0.003921509 -0.0039215684 -0.9999846
vn -0.003921509 -0.0039215684 -0.9999846
vn -0.003921509 -0.9999924 -0
vn -0.003921509 -0.9999924 -0
vn -0.003921509 -0.9999924 -0
vn -0.003921509 -0.9999924 -0
vn -0.003921509 0.003921509 0.9999846
vn -0.003921509 0.003921509 0.9999846
vn -0.003921509 0.003921509 0.9999846
vn -0.003921509 0.003921509 0.9999846
vn -0.99999225 0.003921509 -0.00034492963
vn -0.99999225 0.003921509 -0.00034492963
vn -0.99999225 0.003921509 -0.00034492963
vn -0.99999225 0.003921509 -0.00034492963
vn -0.003921509 0.99999225 -0.00034526698
vn -0.003921509 0.99999225 -0.00034526698
vn -0.003921509 0.99999225 -0.00034526698
vn -0.003921509 0.99999225 -0.00034526698
vn -0.003921509 0.003921509 0.9999846
vn -0.003921509 0.003921509 0.9999846
vn -0.003921509 0.003921509 0.9999846
vn -0.003921509 0.003921509 0.9999846
vn -0.003921509 0.003921509 0.9999846
vn -0.003921509 0.003921509 0.9999846
vn -0.003921509 -0.0039215684 -0.9999846
vn -0.003921509 -0.0039215684 -0.9999846
vn -0.003921509 -0.0039215684 -0.9999846
vn -0.003921509 -0.0039215684 -0.9999846
vn -0.003921509 -0.0039215684 -0.9999846
vn -0.003921509 0.003921509 0.9999846
vn -0.003921509 0.003921509 0.9999846
g LightArtTurret_03_CorpsePart_0
f 3/3/3 2/2/2 1/1/1
f 4/4/4 3/3/3 1/1/1
f 7/7/7 6/6/6 5/5/5
f 8/8/8 7/7/7 5/5/5
f 11/11/11 10/10/10 9/9/9
f 12/12/12 11/11/11 9/9/9
f 15/15/15 14/14/14 13/13/13
f 13/13/13 16/16/16 15/15/15
f 16/16/16 17/17/17 15/15/15
f 20/20/20 19/19/19 18/18/18
f 21/21/21 20/20/20 18/18/18
f 24/24/24 23/23/23 22/22/22
f 25/25/25 24/24/24 22/22/22
f 28/28/28 27/27/27 26/26/26
f 26/26/26 29/29/29 28/28/28
f 26/26/26 30/30/30 29/29/29
f 33/33/33 32/32/32 31/31/31
f 34/34/34 33/33/33 31/31/31
f 37/37/37 36/36/36 35/35/35
f 38/38/38 37/37/37 35/35/35
f 41/41/41 40/40/40 39/39/39
f 42/42/42 41/41/41 39/39/39
f 45/45/45 44/44/44 43/43/43
f 46/46/46 45/45/45 43/43/43
f 49/49/49 48/48/48 47/47/47
f 50/50/50 49/49/49 47/47/47
f 53/53/53 52/52/52 51/51/51
f 54/54/54 53/53/53 51/51/51
f 57/57/57 56/56/56 55/55/55
f 55/55/55 58/58/58 57/57/57
f 59/59/59 57/57/57 58/58/58
f 62/62/62 61/61/61 60/60/60
f 63/63/63 62/62/62 60/60/60
f 66/66/66 65/65/65 64/64/64
f 67/67/67 66/66/66 64/64/64
f 70/70/70 69/69/69 68/68/68
f 71/71/71 70/70/70 68/68/68
f 74/74/74 73/73/73 72/72/72
f 75/75/75 74/74/74 72/72/72
f 78/78/78 77/77/77 76/76/76
f 79/79/79 78/78/78 76/76/76
f 82/82/82 81/81/81 80/80/80
f 83/83/83 82/82/82 80/80/80
f 86/86/86 85/85/85 84/84/84
f 84/84/84 87/87/87 86/86/86
f 84/84/84 88/88/88 87/87/87
f 91/91/91 90/90/90 89/89/89
f 92/92/92 91/91/91 89/89/89
f 95/95/95 94/94/94 93/93/93
f 96/96/96 95/95/95 93/93/93
f 99/99/99 98/98/98 97/97/97
f 97/97/97 100/100/100 99/99/99
f 97/97/97 101/101/101 100/100/100
f 104/104/104 103/103/103 102/102/102
f 105/105/105 104/104/104 102/102/102
f 108/108/108 107/107/107 106/106/106
f 109/109/109 108/108/108 106/106/106
f 112/112/112 111/111/111 110/110/110
f 113/113/113 112/112/112 110/110/110
f 116/116/116 115/115/115 114/114/114
f 117/117/117 116/116/116 114/114/114
f 120/120/120 119/119/119 118/118/118
f 121/121/121 120/120/120 118/118/118
f 124/124/124 123/123/123 122/122/122
f 125/125/125 124/124/124 122/122/122
f 128/128/128 127/127/127 126/126/126
f 129/129/129 128/128/128 126/126/126
f 132/132/132 131/131/131 130/130/130
f 133/133/133 132/132/132 130/130/130
f 136/136/136 135/135/135 134/134/134
f 137/137/137 136/136/136 134/134/134
f 140/140/140 139/139/139 138/138/138
f 141/141/141 140/140/140 138/138/138
f 144/144/144 143/143/143 142/142/142
f 145/145/145 144/144/144 142/142/142
f 148/148/148 147/147/147 146/146/146
f 149/149/149 148/148/148 146/146/146
f 152/152/152 151/151/151 150/150/150
f 153/153/153 152/152/152 150/150/150
f 156/156/156 155/155/155 154/154/154
f 157/157/157 156/156/156 154/154/154
f 158/158/158 154/154/154 155/155/155
f 159/159/159 158/158/158 155/155/155
f 160/160/160 136/136/136 137/137/137
f 161/161/161 160/160/160 137/137/137
f 73/73/73 163/163/163 162/162/162
f 162/162/162 72/72/72 73/73/73
f 162/162/162 164/164/164 72/72/72
f 165/165/165 66/66/66 67/67/67
f 166/166/166 165/165/165 67/67/67
