g LightShassi_03_CorpsePart
v 0.7391738 -0.015268743 0.6015273
v 0.7391738 -0.37835714 0.55836457
v 0.73898053 -0.29072678 0.65991527
v 0.738908 -0.18736356 0.696722
v 0.73898053 -0.08489454 0.6859917
v 0.7393672 0.2142232 -0.42637742
v 0.7394155 -0.39005408 -0.4825179
v 0.73946387 -0.3979326 0.42812735
v 0.73946387 0.030044794 0.47539848
v 0.7407447 0.21011478 -0.64542913
v 0.7407447 -0.35667914 -0.6631921
v 0.74014056 -0.2599619 -0.7964985
v 0.7402372 -0.07650846 -0.8332327
v 0.74014056 0.107186615 -0.7915442
v 0.5297165 0.0074000955 0.5379191
v 0.5293782 -0.08489454 0.68543583
v 0.5293782 -0.29072678 0.6593836
v 0.5297165 -0.38814488 0.4927264
v 0.5317465 0.21216899 -0.5365317
v 0.5317707 -0.37335452 -0.57345915
v 0.5324474 -0.25993776 -0.7970785
v 0.5324474 0.107186615 -0.7921484
v 0.8128356 -0.27129632 0.40164012
v 0.81269056 -0.28729504 0.4613815
v 0.81254554 -0.27129632 0.5210987
v 0.8129322 -0.2275778 0.35792154
v 0.81244886 -0.2275778 0.56481725
v 0.8124005 -0.16783643 0.58081585
v 0.81298053 -0.16783643 0.34192282
v 0.8129322 -0.10811925 0.35792154
v 0.81244886 -0.10811925 0.56481725
v 0.81254554 -0.06440073 0.5210987
v 0.8128356 -0.06440073 0.40164012
v 0.81269056 -0.048377812 0.4613815
v 0.7882575 -0.27487308 0.13369805
v 0.78767747 -0.27487308 0.37957543
v 0.7875808 -0.23992729 0.41452128
v 0.78832996 -0.23992729 0.09875226
v 0.7875808 -0.0877704 0.41452128
v 0.78832996 -0.033418298 0.09875226
v 0.78767747 -0.04864365 0.37981707
v 0.7882575 -0.0026776195 0.13345635
v 0.81592894 -0.2851925 -0.07597679
v 0.81573564 -0.30771637 0.008028448
v 0.81551814 -0.2851925 0.092033744
v 0.81607395 -0.22371107 -0.1374582
v 0.81539726 -0.22371107 0.15351516
v 0.8153248 -0.13970578 0.17601484
v 0.8161223 -0.13970578 -0.15995795
v 0.81539726 -0.05572468 0.15351516
v 0.81607395 -0.05572468 -0.1374582
v 0.8155423 0.005756736 0.092033744
v 0.81592894 0.005756736 -0.07597679
v 0.81573564 0.028280616 0.008028448
v 0.7894175 -0.27612978 -0.29918534
v 0.7889825 -0.27612978 -0.107660055
v 0.78888583 -0.241184 -0.07271421
v 0.7895142 -0.241184 -0.33413112
v 0.78888583 -0.0034026504 -0.07271421
v 0.7895142 0.038914204 -0.33413112
v 0.7889825 0.035748303 -0.10739422
v 0.7894175 0.06967908 -0.29945117
v 0.81667817 -0.29761446 -0.5966597
v 0.8164123 -0.3301435 -0.47526774
v 0.8161223 -0.29761446 -0.35385156
v 0.81689566 -0.20872736 -0.68554676
v 0.8159048 -0.20872736 -0.26498866
v 0.81583226 -0.08733541 -0.2324596
v 0.81696814 -0.08733541 -0.7180759
v 0.8159048 0.034080744 -0.26498866
v 0.81689566 0.034080744 -0.68554676
v 0.8161223 0.12296778 -0.35385156
v 0.81667817 0.12296778 -0.5966597
v 0.8164123 0.1554969 -0.47526774
v 0.4825179 -0.07747519 -0.85831827
v 0.8298976 -0.07747519 -0.85831827
v 0.8298976 0.118593514 -0.8074946
v 0.4825179 0.118593514 -0.8074946
v 0.8298976 -0.17636746 0.725481
v 0.4825179 -0.17636746 0.725481
v 0.4825179 -0.054564655 0.6889643
v 0.8298976 -0.054564655 0.6889643
v 0.4825179 -0.38427812 0.57578915
v 0.4825179 -0.29790443 0.68840843
v 0.8298976 -0.29790443 0.68840843
v 0.8298976 -0.38427812 0.57578915
v 0.8298976 0.022770464 0.5726474
v 0.4825179 0.022770464 0.5726474
v 0.4825179 -0.27849817 -0.8033137
v 0.8298976 -0.27849817 -0.8033137
v 0.8298976 0.22524351 -0.41726637
v 0.8298976 0.060713053 0.43547422
v 0.4825179 0.060713053 0.43547422
v 0.4825179 0.22524351 -0.41726637
v 0.4825179 -0.40498942 -0.44109526
v 0.4825179 -0.4047961 0.44241017
v 0.8298976 -0.4047961 0.44241017
v 0.8298976 -0.40498942 -0.44109526
v 0.4825179 -0.3771246 -0.6476042
v 0.8298976 -0.3771246 -0.6476042
v 0.8298976 0.22372097 -0.6409099
v 0.4825179 0.22372097 -0.6409099
vt 0.057925705 0.66341966
vt 0.057925705 0.6539292
vt 0.054762203 0.6558272
vt 0.054129504 0.65835804
vt 0.054762203 0.66088885
vt 0.09082611 0.66974664
vt 0.09082611 0.65266377
vt 0.061721906 0.65266377
vt 0.061721906 0.66405237
vt 0.09652041 0.66911393
vt 0.09652041 0.6539292
vt 0.10094931 0.6564599
vt 0.10221471 0.66152155
vt 0.10094931 0.6665832
vt 0.060456503 0.66405237
vt 0.056660306 0.66152155
vt 0.057293005 0.6558272
vt 0.061721906 0.65266377
vt 0.090193406 0.66911393
vt 0.09082611 0.6532965
vt 0.09715311 0.6564599
vt 0.09715311 0.6665832
vt 0.0781721 0.67544097
vt 0.07753941 0.6773391
vt 0.0781721 0.67986983
vt 0.07943751 0.67417556
vt 0.07943751 0.68113524
vt 0.08196831 0.68176794
vt 0.08196831 0.67354286
vt 0.08386641 0.67417556
vt 0.08386641 0.68113524
vt 0.08513181 0.67986983
vt 0.08513181 0.67544097
vt 0.08576451 0.6773391
vt 0.08639721 0.688095
vt 0.08639721 0.6994836
vt 0.084499106 0.700749
vt 0.084499106 0.68682957
vt 0.0781721 0.700749
vt 0.07500861 0.68682957
vt 0.075641304 0.6994836
vt 0.07374321 0.688095
vt 0.0781721 0.67544097
vt 0.07753941 0.6773391
vt 0.0781721 0.67986983
vt 0.07943751 0.67417556
vt 0.07943751 0.68113524
vt 0.08196831 0.68176794
vt 0.08196831 0.67354286
vt 0.08386641 0.68113524
vt 0.08386641 0.67417556
vt 0.08513181 0.67986983
vt 0.08513181 0.67544097
vt 0.08576451 0.6773391
vt 0.056027602 0.6994836
vt 0.056027602 0.69125843
vt 0.057925705 0.6893604
vt 0.057925705 0.7013817
vt 0.068681605 0.6893604
vt 0.07057971 0.7013817
vt 0.07057971 0.69125843
vt 0.07184511 0.7001163
vt 0.0781721 0.67544097
vt 0.07753941 0.6773391
vt 0.0781721 0.67986983
vt 0.07943751 0.67417556
vt 0.07943751 0.68113524
vt 0.08196831 0.68176794
vt 0.08196831 0.67354286
vt 0.08386641 0.68113524
vt 0.08386641 0.67417556
vt 0.08513181 0.67986983
vt 0.08513181 0.67544097
vt 0.08576451 0.6773391
vt 0.37427574 0.080070205
vt 0.39262405 0.080070205
vt 0.39262405 0.080070205
vt 0.37427574 0.080070205
vt 0.39262405 0.080070205
vt 0.37427574 0.080070205
vt 0.37427574 0.080070205
vt 0.39262405 0.080070205
vt 0.37427574 0.080070205
vt 0.37427574 0.080070205
vt 0.39262405 0.080070205
vt 0.39262405 0.080070205
vt 0.39262405 0.080070205
vt 0.37427574 0.080070205
vt 0.37427574 0.080070205
vt 0.39262405 0.080070205
vt 0.39262405 0.080070205
vt 0.39262405 0.080070205
vt 0.37427574 0.080070205
vt 0.37427574 0.080070205
vt 0.37427574 0.080070205
vt 0.37427574 0.080070205
vt 0.39262405 0.080070205
vt 0.39262405 0.080070205
vt 0.37427574 0.080070205
vt 0.39262405 0.080070205
vt 0.39262405 0.080070205
vt 0.37427574 0.080070205
vn 0.9999924 -0.0039215684 -0
vn 0.9999924 -0.0039215684 -0
vn 0.9999924 -0.0039215684 -0
vn 0.9999924 -0.0039215684 -0
vn 0.9999924 -0.0039215684 -0
vn 0.9999924 -0.0039215684 -0
vn 0.9999924 -0.0039215684 -0
vn 0.9999924 0.003921509 -0
vn 0.9999924 0.003921509 -0
vn 0.9999924 -0.0039215684 -0
vn 0.9999924 -0.0039215684 -0
vn 0.9999924 0.003921509 -0
vn 0.9999924 0.003921509 -0
vn 0.9999924 0.003921509 -0
vn -0.99999225 0.003921509 -0.00034492963
vn -0.99999225 0.003921509 -0.00034492963
vn -0.99999225 0.003921509 -0.00034492963
vn -0.99999225 0.003921509 -0.00034492963
vn -0.99999225 0.003921509 -0.00034492963
vn -0.99999225 0.003921509 -0.00034492963
vn -0.99999225 0.003921509 -0.00034492963
vn -0.99999225 0.003921509 -0.00034492963
vn 0.9999924 0.003921509 -0
vn 0.9999924 0.003921509 -0
vn 0.9999924 0.003921509 -0
vn 0.9999924 0.003921509 -0
vn 0.9999924 0.003921509 -0
vn 0.9999924 0.003921509 -0
vn 0.9999924 0.003921509 -0
vn 0.9999924 0.003921509 -0
vn 0.9999924 0.003921509 -0
vn 0.9999924 0.003921509 -0
vn 0.9999924 0.003921509 -0
vn 0.9999924 0.003921509 -0
vn 0.9999924 0.003921509 -0
vn 0.9999924 0.003921509 -0
vn 0.9999924 0.003921509 -0
vn 0.9999924 0.003921509 -0
vn 0.9999924 0.003921509 -0
vn 0.9999924 0.003921509 -0
vn 0.9999924 0.003921509 -0
vn 0.9999924 0.003921509 -0
vn 0.9999924 0.003921509 -0
vn 0.9999924 0.003921509 -0
vn 0.9999924 0.003921509 -0
vn 0.9999924 0.003921509 -0
vn 0.9999924 0.003921509 -0
vn 0.9999924 0.003921509 -0
vn 0.9999924 0.003921509 -0
vn 0.9999924 0.003921509 -0
vn 0.9999924 0.003921509 -0
vn 0.9999924 0.003921509 -0
vn 0.9999924 0.003921509 -0
vn 0.9999924 0.003921509 -0
vn 0.9999924 0.003921509 -0
vn 0.9999924 0.003921509 -0
vn 0.9999924 0.003921509 -0
vn 0.9999924 0.003921509 -0
vn 0.9999924 0.003921509 -0
vn 0.9999924 0.003921509 -0
vn 0.9999924 0.003921509 -0
vn 0.9999924 0.003921509 -0
vn 0.9999924 0.003921509 -0
vn 0.9999924 0.003921509 -0
vn 0.9999924 0.003921509 -0
vn 0.9999924 0.003921509 -0
vn 0.9999924 0.003921509 -0
vn 0.9999924 0.003921509 -0
vn 0.9999924 0.003921509 -0
vn 0.9999924 0.003921509 -0
vn 0.9999924 0.003921509 -0
vn 0.9999924 0.003921509 -0
vn 0.9999924 0.003921509 -0
vn 0.9999924 0.003921509 -0
vn -0.003921509 -0.011764646 -0.9999231
vn -0.003921509 -0.011764646 -0.9999231
vn -0.003921509 0.5843092 -0.81152165
vn -0.003921509 0.5843092 -0.81152165
vn -0.003921509 -0.0039215684 0.9999846
vn -0.003921509 -0.0039215684 0.9999846
vn -0.003921509 0.6078384 0.7940511
vn -0.003921509 0.6078384 0.7940511
vn -0.003921509 -0.9137185 0.40632877
vn -0.003921509 -0.5843093 0.8115216
vn -0.003921509 -0.5843093 0.8115216
vn -0.003921509 -0.9137185 0.40632877
vn -0.003921509 0.91371846 0.40632892
vn -0.003921509 0.91371846 0.40632892
vn -0.003921509 -0.5764662 -0.81711155
vn -0.003921509 -0.5764662 -0.81711155
vn -0.003921509 0.99214923 0.12499809
vn -0.003921509 0.9764631 0.21564901
vn -0.003921509 0.9764631 0.21564901
vn -0.003921509 0.99214923 0.12499809
vn -0.003921509 -0.9999924 -0
vn -0.003921509 -0.9999924 -0
vn -0.003921509 -0.9999924 -0
vn -0.003921509 -0.9999924 -0
vn -0.003921509 -0.94509083 -0.32678422
vn -0.003921509 -0.94509083 -0.32678422
vn -0.003921509 0.9607769 -0.27729464
vn -0.003921509 0.9607769 -0.27729464
g LightShassi_03_CorpsePart_0
f 3/3/3 2/2/2 1/1/1
f 1/1/1 4/4/4 3/3/3
f 1/1/1 5/5/5 4/4/4
f 8/8/8 7/7/7 6/6/6
f 9/9/9 8/8/8 6/6/6
f 2/2/2 8/8/8 9/9/9
f 1/1/1 2/2/2 9/9/9
f 7/7/7 11/11/11 10/10/10
f 6/6/6 7/7/7 10/10/10
f 10/10/10 11/11/11 12/12/12
f 12/12/12 13/13/13 10/10/10
f 13/13/13 14/14/14 10/10/10
f 17/17/17 16/16/16 15/15/15
f 18/18/18 17/17/17 15/15/15
f 18/18/18 15/15/15 19/19/19
f 20/20/20 18/18/18 19/19/19
f 19/19/19 22/22/22 21/21/21
f 20/20/20 19/19/19 21/21/21
f 25/25/25 24/24/24 23/23/23
f 23/23/23 26/26/26 25/25/25
f 26/26/26 27/27/27 25/25/25
f 26/26/26 28/28/28 27/27/27
f 26/26/26 29/29/29 28/28/28
f 29/29/29 30/30/30 28/28/28
f 30/30/30 31/31/31 28/28/28
f 30/30/30 32/32/32 31/31/31
f 30/30/30 33/33/33 32/32/32
f 33/33/33 34/34/34 32/32/32
f 37/37/37 36/36/36 35/35/35
f 35/35/35 38/38/38 37/37/37
f 38/38/38 39/39/39 37/37/37
f 38/38/38 40/40/40 39/39/39
f 40/40/40 41/41/41 39/39/39
f 40/40/40 42/42/42 41/41/41
f 45/45/45 44/44/44 43/43/43
f 43/43/43 46/46/46 45/45/45
f 46/46/46 47/47/47 45/45/45
f 46/46/46 48/48/48 47/47/47
f 46/46/46 49/49/49 48/48/48
f 49/49/49 50/50/50 48/48/48
f 49/49/49 51/51/51 50/50/50
f 51/51/51 52/52/52 50/50/50
f 51/51/51 53/53/53 52/52/52
f 53/53/53 54/54/54 52/52/52
f 57/57/57 56/56/56 55/55/55
f 55/55/55 58/58/58 57/57/57
f 58/58/58 59/59/59 57/57/57
f 58/58/58 60/60/60 59/59/59
f 60/60/60 61/61/61 59/59/59
f 60/60/60 62/62/62 61/61/61
f 65/65/65 64/64/64 63/63/63
f 63/63/63 66/66/66 65/65/65
f 66/66/66 67/67/67 65/65/65
f 66/66/66 68/68/68 67/67/67
f 66/66/66 69/69/69 68/68/68
f 69/69/69 70/70/70 68/68/68
f 69/69/69 71/71/71 70/70/70
f 71/71/71 72/72/72 70/70/70
f 71/71/71 73/73/73 72/72/72
f 73/73/73 74/74/74 72/72/72
f 77/77/77 76/76/76 75/75/75
f 78/78/78 77/77/77 75/75/75
f 81/81/81 80/80/80 79/79/79
f 82/82/82 81/81/81 79/79/79
f 85/85/85 84/84/84 83/83/83
f 86/86/86 85/85/85 83/83/83
f 81/81/81 82/82/82 87/87/87
f 88/88/88 81/81/81 87/87/87
f 80/80/80 84/84/84 85/85/85
f 79/79/79 80/80/80 85/85/85
f 76/76/76 90/90/90 89/89/89
f 75/75/75 76/76/76 89/89/89
f 93/93/93 92/92/92 91/91/91
f 94/94/94 93/93/93 91/91/91
f 97/97/97 96/96/96 95/95/95
f 98/98/98 97/97/97 95/95/95
f 98/98/98 95/95/95 99/99/99
f 100/100/100 98/98/98 99/99/99
f 94/94/94 91/91/91 101/101/101
f 102/102/102 94/94/94 101/101/101
f 88/88/88 87/87/87 92/92/92
f 93/93/93 88/88/88 92/92/92
f 86/86/86 83/83/83 96/96/96
f 97/97/97 86/86/86 96/96/96
f 102/102/102 101/101/101 77/77/77
f 78/78/78 102/102/102 77/77/77
f 100/100/100 99/99/99 89/89/89
f 90/90/90 100/100/100 89/89/89
