g LightShassi_DefaultPart_CorpsePart
v 0.5013639 0.24859661 -0.7315242
v 0.5022607 0.24859661 0.5337076
v 0.502171 0.3987187 0.38387692
v 0.5013863 0.3987187 -0.7019527
v 0.5022607 0.24859661 0.5337076
v 0.2721003 0.24859661 0.5338869
v 0.502171 0.3987187 0.38387692
v -0.50146806 0.24859661 0.53444743
v -0.5023649 0.24859661 -0.7308068
v -0.50234246 0.39874113 -0.70123523
v -0.5015578 0.39874113 0.38459432
v -0.2712853 0.024399877 0.5366446
v -0.27115083 0.045429528 0.737749
v 0.27225724 0.045429528 0.73736787
v 0.2721003 0.024399877 0.53626347
v -0.50234246 0.39874113 -0.70123523
v 0.5013863 0.3987187 -0.7019527
v 0.502171 0.3987187 0.38387692
v -0.5015578 0.39874113 0.38459432
v 0.5013639 0.24859661 -0.7315242
v -0.5023649 0.24859661 -0.7308068
v -0.2714423 0.24859661 0.32462168
v 0.27196577 0.24859661 0.32424057
v -0.2712853 0.24859661 0.53426814
v -0.27115083 0.045429528 0.737749
v -0.2712853 0.024399877 0.5366446
v -0.2714423 0.24859661 0.32462168
v 0.27196577 0.24859661 0.32424057
v 0.2721003 0.024399877 0.53626347
v 0.27225724 0.045429528 0.73736787
v 0.2721003 0.24859661 0.5338869
v 0.17257935 0.16203427 0.6146426
v 0.27225724 0.045429528 0.73736787
v 0.17262423 0.09674817 0.679839
v -0.17160743 0.09674817 0.68008566
v -0.27115083 0.045429528 0.737749
v -0.2712853 0.24859661 0.53426814
v -0.17165232 0.16203427 0.61488926
v -0.23700565 0.28325748 -0.72417057
v -0.5023649 0.24859661 -0.7308068
v 0.5013639 0.24859661 -0.7315242
v 0.23600462 0.28323495 -0.72450686
v -0.23700565 0.3640803 -0.7082526
v 0.23602703 0.3640803 -0.7085889
v 0.5013863 0.3987187 -0.7019527
v -0.50234246 0.39874113 -0.70123523
v -0.5015578 0.39874113 0.38459432
v -0.50146806 0.24859661 0.53444743
v 0.5022607 0.24859661 0.5337076
v -0.50146806 0.24859661 0.53444743
v 0.2721003 0.24859661 0.5338869
v -0.2712853 0.24859661 0.53426814
v 0.2721003 0.024399877 0.53626347
v 0.17206371 0.09706205 0.4676144
v -0.17133844 0.09706205 0.46786106
v -0.2712853 0.024399877 0.5366446
v -0.17140567 0.17593443 0.39327073
v -0.2714423 0.24859661 0.32462168
v 0.17199647 0.17593443 0.3930242
v 0.27196577 0.24859661 0.32424057
v 0.17257935 0.16203427 0.6146426
v 0.17199647 0.17593443 0.3930242
v -0.17140567 0.17593443 0.39327073
v -0.17165232 0.16203427 0.61488926
v -0.17160743 0.09674817 0.68008566
v -0.17133844 0.09706205 0.46786106
v 0.17206371 0.09706205 0.4676144
v 0.17262423 0.09674817 0.679839
v 0.17257935 0.16203427 0.6146426
v 0.17262423 0.09674817 0.679839
v 0.17206371 0.09706205 0.4676144
v 0.17199647 0.17593443 0.3930242
v -0.17160743 0.09674817 0.68008566
v -0.17165232 0.16203427 0.61488926
v -0.17140567 0.17593443 0.39327073
v -0.17133844 0.09706205 0.46786106
vt 0.0038594245 0.73815006
vt 0.05237764 0.73815006
vt 0.04658442 0.7446674
vt 0.0053077294 0.7446674
vt 0.04875688 0.6780454
vt 0.03789459 0.6780454
vt 0.04875688 0.6860111
vt 0.05165349 0.73815006
vt 0.0038594245 0.73815006
vt 0.0053077294 0.7446674
vt 0.04658442 0.7446674
vt 0.11755137 0.65414834
vt 0.11755137 0.6519759
vt 0.11030985 0.6519759
vt 0.11030985 0.65414834
vt 0.004583577 0.7280119
vt 0.04875688 0.7280119
vt 0.04875688 0.6860111
vt 0.004583577 0.6860111
vt 0.10741323 0.6693556
vt 0.12044798 0.6693556
vt 0.11755137 0.65704495
vt 0.11030985 0.65704495
vt 0.048032727 0.6758729
vt 0.05527425 0.66645896
vt 0.048032727 0.66645896
vt 0.04006705 0.6758729
vt 0.04006705 0.6758729
vt 0.048032727 0.66645896
vt 0.05527425 0.66645896
vt 0.048032727 0.6758729
vt 0.03427383 0.67370045
vt 0.03789459 0.6671831
vt 0.03427383 0.6700797
vt 0.019066628 0.6700797
vt 0.014721712 0.6671831
vt 0.014721712 0.6780454
vt 0.019066628 0.67370045
vt 0.016170017 0.733081
vt 0.004583577 0.7345293
vt 0.04875688 0.7345293
vt 0.03644629 0.733081
vt 0.016170017 0.72946024
vt 0.03644629 0.72946024
vt 0.04875688 0.7280119
vt 0.004583577 0.7280119
vt 0.004583577 0.6860111
vt 0.004583577 0.6780454
vt 0.10741323 0.65414834
vt 0.12044798 0.65414834
vt 0.11030985 0.65414834
vt 0.11755137 0.65414834
vt 0.113930605 0.6534242
vt 0.113930605 0.6534242
vt 0.113930605 0.6534242
vt 0.113930605 0.6534242
vt 0.113930605 0.6534242
vt 0.113930605 0.6534242
vt 0.113930605 0.6534242
vt 0.113930605 0.6534242
vt 0.113930605 0.6534242
vt 0.113930605 0.6534242
vt 0.113930605 0.6534242
vt 0.113930605 0.6534242
vt 0.113930605 0.6534242
vt 0.113930605 0.6534242
vt 0.113930605 0.6534242
vt 0.113930605 0.6534242
vt 0.113930605 0.6534242
vt 0.113930605 0.6534242
vt 0.113930605 0.6534242
vt 0.113930605 0.6534242
vt 0.113930605 0.6534242
vt 0.113930605 0.6534242
vt 0.113930605 0.6534242
vt 0.113930605 0.6534242
vn 0.9999924 0.003921509 -0
vn 0.9999924 0.003921509 -0
vn 0.9999924 0.003921509 -0
vn 0.9999924 0.003921509 -0
vn 0.0039215684 0.70979846 0.7043939
vn -0.003921509 0.7019553 0.71221024
vn 0.0039215684 0.70979846 0.7043939
vn -0.99999225 0.003921509 -0.00034492963
vn -0.99999225 0.003921509 -0.00034492963
vn -0.99999225 0.003921509 -0.00034492963
vn -0.99999225 0.003921509 -0.00034492963
vn 0.0039215684 -0.9921493 0.124997616
vn 0.0039215684 -0.9921493 0.124997616
vn 0.0039215684 -0.9921493 0.124997616
vn 0.0039215684 -0.9921493 0.124997616
vn -0.003921509 0.99999225 -0.00034526698
vn -0.003921509 0.99999225 -0.00034526698
vn -0.003921509 0.99999225 -0.00034526698
vn -0.003921509 0.99999225 -0.00034526698
vn -0.003921509 -0.9999924 -0
vn -0.003921509 -0.9999924 -0
vn -0.003921509 -0.9999924 -0
vn -0.003921509 -0.9999924 -0
vn -0.99999225 0.003921509 -0.00034492963
vn -0.99999225 0.003921509 -0.00034492963
vn -0.99999225 0.003921509 -0.00034492963
vn -0.99999225 0.003921509 -0.00034492963
vn 0.9999924 0.003921509 -0
vn 0.9999924 0.003921509 -0
vn 0.9999924 0.003921509 -0
vn 0.9999924 0.003921509 -0
vn -0.011764526 0.68626916 0.7272525
vn -0.019607663 0.7333276 0.6795926
vn -0.011764526 0.7333276 0.6797736
vn 0.011764646 0.7333276 0.6797736
vn 0.019607723 0.7333276 0.6795926
vn 0.0039215684 0.7019553 0.71221024
vn 0.011764646 0.68626916 0.7272525
vn -0.003921509 0.19215536 -0.9813567
vn -0.003921509 0.19215536 -0.9813567
vn -0.003921509 0.19215536 -0.9813567
vn -0.003921509 0.19215536 -0.9813567
vn -0.003921509 0.19215536 -0.9813567
vn -0.003921509 0.19215536 -0.9813567
vn -0.003921509 0.19215536 -0.9813567
vn -0.003921509 0.19215536 -0.9813567
vn 0.0039215684 0.70979846 0.7043939
vn 0.0039215684 0.70979846 0.7043939
vn -0.003921509 -0.9999924 -0
vn -0.003921509 -0.9999924 -0
vn -0.003921509 -0.9999924 -0
vn -0.003921509 -0.9999924 -0
vn -0.003921509 -0.6862693 -0.727337
vn -0.003921509 -0.6862693 -0.727337
vn -0.003921509 -0.6862693 -0.727337
vn -0.003921509 -0.6862693 -0.727337
vn -0.003921509 -0.6862693 -0.727337
vn -0.003921509 -0.6862693 -0.727337
vn -0.003921509 -0.6862693 -0.727337
vn -0.003921509 -0.6862693 -0.727337
vn -0.003921509 -0.9999924 -0
vn -0.003921509 -0.9999924 -0
vn -0.003921509 -0.9999924 -0
vn -0.003921509 -0.9999924 -0
vn -0.003921509 0.99999225 -0.00034526698
vn -0.003921509 0.99999225 -0.00034526698
vn -0.003921509 0.99999225 -0.00034526698
vn -0.003921509 0.99999225 -0.00034526698
vn -0.99999225 0.003921509 -0.00034492963
vn -0.99999225 0.003921509 -0.00034492963
vn -0.99999225 0.003921509 -0.00034492963
vn -0.99999225 0.003921509 -0.00034492963
vn 0.9999924 0.003921509 -0
vn 0.9999924 0.003921509 -0
vn 0.9999924 0.003921509 -0
vn 0.9999924 0.003921509 -0
g LightShassi_DefaultPart_CorpsePart_0
f 3/3/3 2/2/2 1/1/1
f 4/4/4 3/3/3 1/1/1
f 7/7/7 6/6/6 5/5/5
f 10/10/10 9/9/9 8/8/8
f 11/11/11 10/10/10 8/8/8
f 14/14/14 13/13/13 12/12/12
f 15/15/15 14/14/14 12/12/12
f 18/18/18 17/17/17 16/16/16
f 19/19/19 18/18/18 16/16/16
f 22/22/22 21/21/21 20/20/20
f 23/23/23 22/22/22 20/20/20
f 26/26/26 25/25/25 24/24/24
f 27/27/27 26/26/26 24/24/24
f 30/30/30 29/29/29 28/28/28
f 31/31/31 30/30/30 28/28/28
f 33/33/33 6/6/6 32/32/32
f 34/34/34 33/33/33 32/32/32
f 37/37/37 36/36/36 35/35/35
f 38/38/38 37/37/37 35/35/35
f 36/36/36 33/33/33 34/34/34
f 35/35/35 36/36/36 34/34/34
f 6/6/6 37/37/37 38/38/38
f 32/32/32 6/6/6 38/38/38
f 41/41/41 40/40/40 39/39/39
f 42/42/42 41/41/41 39/39/39
f 45/45/45 44/44/44 43/43/43
f 46/46/46 45/45/45 43/43/43
f 48/48/48 37/37/37 47/47/47
f 6/6/6 7/7/7 47/47/47
f 37/37/37 6/6/6 47/47/47
f 41/41/41 42/42/42 44/44/44
f 45/45/45 41/41/41 44/44/44
f 39/39/39 40/40/40 46/46/46
f 43/43/43 39/39/39 46/46/46
f 49/49/49 23/23/23 20/20/20
f 50/50/50 21/21/21 22/22/22
f 51/51/51 23/23/23 49/49/49
f 52/52/52 50/50/50 22/22/22
f 55/55/55 54/54/54 53/53/53
f 56/56/56 55/55/55 53/53/53
f 57/57/57 55/55/55 56/56/56
f 58/58/58 57/57/57 56/56/56
f 59/59/59 57/57/57 58/58/58
f 60/60/60 59/59/59 58/58/58
f 54/54/54 59/59/59 60/60/60
f 53/53/53 54/54/54 60/60/60
f 63/63/63 62/62/62 61/61/61
f 64/64/64 63/63/63 61/61/61
f 67/67/67 66/66/66 65/65/65
f 68/68/68 67/67/67 65/65/65
f 71/71/71 70/70/70 69/69/69
f 72/72/72 71/71/71 69/69/69
f 75/75/75 74/74/74 73/73/73
f 76/76/76 75/75/75 73/73/73
