g LightArtTurret_06_CorpsePart
v 0.42715445 1.0367665 0.52558136
v 0.33797324 1.0092791 0.5334159
v 0.30363396 1.039263 0.546801
v 0.44045994 1.0814368 0.53479683
v 0.48191673 0.9636793 0.5464027
v 0.52446234 0.96930957 0.566746
v 0.42654362 0.8910171 0.5671178
v 0.43955696 0.8578198 0.5985091
v 0.33760145 0.91919494 0.5590973
v 0.30304968 0.90105593 0.5861863
v 0.4299696 0.7080867 -0.6590309
v 0.49094638 0.6267135 -0.6358459
v 0.53835213 0.6382396 -0.59470785
v 0.4448154 0.763088 -0.63029534
v 0.42930564 0.54579186 -0.61276716
v 0.44377965 0.5140817 -0.5593328
v 0.33024493 0.57715666 -0.62171715
v 0.29178917 0.5622046 -0.5730632
v 0.33066985 0.67746556 -0.6502934
v 0.29242656 0.71610725 -0.6169102
v 0.4448154 0.763088 -0.63029534
v 0.53835213 0.6382396 -0.59470785
v 0.52446234 0.96930957 0.566746
v 0.44045994 1.0814368 0.53479683
v 0.44377965 0.5140817 -0.5593328
v 0.43955696 0.8578198 0.5985091
v 0.29178917 0.5622046 -0.5730632
v 0.30304968 0.90105593 0.5861863
v 0.29178917 0.5622046 -0.5730632
v 0.29242656 0.71610725 -0.6169102
v 0.30363396 1.039263 0.546801
v 0.30304968 0.90105593 0.5861863
v -0.3890741 1.0367665 0.52558136
v -0.47828186 1.0092791 0.5334159
v -0.51262105 1.039263 0.546801
v -0.37576854 1.0814368 0.53479683
v -0.33433837 0.9636793 0.5464027
v -0.2917661 0.96930957 0.566746
v -0.38968492 0.8910171 0.5671178
v -0.37669814 0.8578198 0.5985091
v -0.47865367 0.91919494 0.5590973
v -0.5131788 0.90105593 0.5861863
v -0.38625896 0.7080867 -0.6590309
v -0.3252821 0.6267135 -0.6358459
v -0.27787638 0.6382396 -0.59470785
v -0.3714397 0.763088 -0.63029534
v -0.38692284 0.54579186 -0.61276716
v -0.3724488 0.5140817 -0.5593328
v -0.4859836 0.57715666 -0.62171715
v -0.52443933 0.5622046 -0.5730632
v -0.4855852 0.67746556 -0.6502934
v -0.5238285 0.71610725 -0.6169102
v -0.3714397 0.763088 -0.63029534
v -0.27787638 0.6382396 -0.59470785
v -0.2917661 0.96930957 0.566746
v -0.37576854 1.0814368 0.53479683
v -0.3724488 0.5140817 -0.5593328
v -0.37669814 0.8578198 0.5985091
v -0.52443933 0.5622046 -0.5730632
v -0.5131788 0.90105593 0.5861863
v -0.52443933 0.5622046 -0.5730632
v -0.5238285 0.71610725 -0.6169102
v -0.51262105 1.039263 0.546801
v -0.5131788 0.90105593 0.5861863
v -0.120893 1.0367665 0.52558136
v -0.21007425 1.0092791 0.5334159
v -0.2444135 1.039263 0.546801
v -0.107587576 1.0814368 0.53479683
v -0.06613076 0.9636793 0.5464027
v -0.023558557 0.96930957 0.566746
v -0.121477306 0.8910171 0.5671178
v -0.10849053 0.8578198 0.5985091
v -0.21044606 0.91919494 0.5590973
v -0.2449978 0.90105593 0.5861863
v -0.11805135 0.7080867 -0.6590309
v -0.057074547 0.6267135 -0.6358459
v -0.009668827 0.6382396 -0.59470785
v -0.103232086 0.763088 -0.63029534
v -0.118715286 0.54579186 -0.61276716
v -0.10424125 0.5140817 -0.5593328
v -0.21780258 0.57715666 -0.62171715
v -0.2562583 0.5622046 -0.5730632
v -0.21737766 0.67746556 -0.6502934
v -0.2556209 0.71610725 -0.6169102
v -0.103232086 0.763088 -0.63029534
v -0.009668827 0.6382396 -0.59470785
v -0.023558557 0.96930957 0.566746
v -0.107587576 1.0814368 0.53479683
v -0.10424125 0.5140817 -0.5593328
v -0.10849053 0.8578198 0.5985091
v -0.2562583 0.5622046 -0.5730632
v -0.2449978 0.90105593 0.5861863
v -0.2562583 0.5622046 -0.5730632
v -0.2556209 0.71610725 -0.6169102
v -0.2444135 1.039263 0.546801
v -0.2449978 0.90105593 0.5861863
v 0.15706128 1.0367665 0.52558136
v 0.067880094 1.0092791 0.5334159
v 0.033540785 1.039263 0.546801
v 0.17036676 1.0814368 0.53479683
v 0.21182352 0.9636793 0.5464027
v 0.25436917 0.96930957 0.566746
v 0.15645045 0.8910171 0.5671178
v 0.16946378 0.8578198 0.5985091
v 0.06750828 0.91919494 0.5590973
v 0.03295654 0.90105593 0.5861863
v 0.15990296 0.7080867 -0.6590309
v 0.22085321 0.6267135 -0.6358459
v 0.26825893 0.6382396 -0.59470785
v 0.17472222 0.763088 -0.63029534
v 0.15921247 0.54579186 -0.61276716
v 0.17368647 0.5140817 -0.5593328
v 0.060151756 0.57715666 -0.62171715
v 0.021695971 0.5622046 -0.5730632
v 0.060576677 0.67746556 -0.6502934
v 0.022333384 0.71610725 -0.6169102
v 0.17472222 0.763088 -0.63029534
v 0.26825893 0.6382396 -0.59470785
v 0.25436917 0.96930957 0.566746
v 0.17036676 1.0814368 0.53479683
v 0.17368647 0.5140817 -0.5593328
v 0.16946378 0.8578198 0.5985091
v 0.021695971 0.5622046 -0.5730632
v 0.03295654 0.90105593 0.5861863
v 0.021695971 0.5622046 -0.5730632
v 0.022333384 0.71610725 -0.6169102
v 0.033540785 1.039263 0.546801
v 0.03295654 0.90105593 0.5861863
v 0.42930564 0.54579186 -0.61276716
v 0.49094638 0.6267135 -0.6358459
v 0.4299696 0.7080867 -0.6590309
v 0.33066985 0.67746556 -0.6502934
v 0.33024493 0.57715666 -0.62171715
v -0.38692284 0.54579186 -0.61276716
v -0.3252821 0.6267135 -0.6358459
v -0.38625896 0.7080867 -0.6590309
v -0.4855852 0.67746556 -0.6502934
v -0.4859836 0.57715666 -0.62171715
v -0.118715286 0.54579186 -0.61276716
v -0.057074547 0.6267135 -0.6358459
v -0.11805135 0.7080867 -0.6590309
v -0.21737766 0.67746556 -0.6502934
v -0.21780258 0.57715666 -0.62171715
v 0.15921247 0.54579186 -0.61276716
v 0.22085321 0.6267135 -0.6358459
v 0.15990296 0.7080867 -0.6590309
v 0.060576677 0.67746556 -0.6502934
v 0.060151756 0.57715666 -0.62171715
v 0.42715445 1.0367665 0.52558136
v 0.48191673 0.9636793 0.5464027
v 0.42654362 0.8910171 0.5671178
v 0.33797324 1.0092791 0.5334159
v 0.33760145 0.91919494 0.5590973
v -0.3890741 1.0367665 0.52558136
v -0.33433837 0.9636793 0.5464027
v -0.38968492 0.8910171 0.5671178
v -0.47828186 1.0092791 0.5334159
v -0.47865367 0.91919494 0.5590973
v -0.120893 1.0367665 0.52558136
v -0.06613076 0.9636793 0.5464027
v -0.121477306 0.8910171 0.5671178
v -0.21007425 1.0092791 0.5334159
v -0.21044606 0.91919494 0.5590973
v 0.15706128 1.0367665 0.52558136
v 0.21182352 0.9636793 0.5464027
v 0.15645045 0.8910171 0.5671178
v 0.067880094 1.0092791 0.5334159
v 0.06750828 0.91919494 0.5590973
vt 0.89930916 0.7656586
vt 0.8963075 0.7647107
vt 0.8947277 0.7659746
vt 0.8999411 0.76755434
vt 0.9012049 0.76313096
vt 0.9032586 0.76313096
vt 0.89930916 0.7606033
vt 0.8999411 0.7585496
vt 0.8963075 0.76155114
vt 0.8947277 0.76028734
vt 0.9102097 0.76850224
vt 0.907998 0.76550066
vt 0.9056283 0.76550066
vt 0.90941983 0.770714
vt 0.9102097 0.762657
vt 0.90941983 0.7604453
vt 0.91352725 0.7637629
vt 0.91542304 0.762341
vt 0.91352725 0.7673964
vt 0.91542304 0.76866025
vt 0.8958336 0.77324164
vt 0.88998836 0.77324164
vt 0.88998836 0.79646456
vt 0.8958336 0.79646456
vt 0.8843011 0.77324164
vt 0.8843011 0.79646456
vt 0.8790878 0.77324164
vt 0.8794037 0.79646456
vt 0.90705013 0.77324164
vt 0.9013629 0.77324164
vt 0.9013629 0.79646456
vt 0.90705013 0.79646456
vt 0.89930916 0.7656586
vt 0.8963075 0.7647107
vt 0.8947277 0.7659746
vt 0.8999411 0.76755434
vt 0.9012049 0.76313096
vt 0.9032586 0.76313096
vt 0.89930916 0.7606033
vt 0.8999411 0.7585496
vt 0.8963075 0.76155114
vt 0.8947277 0.76028734
vt 0.9102097 0.76850224
vt 0.907998 0.76550066
vt 0.9056283 0.76550066
vt 0.90941983 0.770714
vt 0.9102097 0.762657
vt 0.90941983 0.7604453
vt 0.91352725 0.7637629
vt 0.91542304 0.762341
vt 0.91352725 0.7673964
vt 0.91542304 0.76866025
vt 0.8958336 0.77324164
vt 0.88998836 0.77324164
vt 0.88998836 0.79646456
vt 0.8958336 0.79646456
vt 0.8843011 0.77324164
vt 0.8843011 0.79646456
vt 0.8790878 0.77324164
vt 0.8794037 0.79646456
vt 0.90705013 0.77324164
vt 0.9013629 0.77324164
vt 0.9013629 0.79646456
vt 0.90705013 0.79646456
vt 0.89930916 0.7656586
vt 0.8963075 0.7647107
vt 0.8947277 0.7659746
vt 0.8999411 0.76755434
vt 0.9012049 0.76313096
vt 0.9032586 0.76313096
vt 0.89930916 0.7606033
vt 0.8999411 0.7585496
vt 0.8963075 0.76155114
vt 0.8947277 0.76028734
vt 0.9102097 0.76850224
vt 0.907998 0.76550066
vt 0.9056283 0.76550066
vt 0.90941983 0.770714
vt 0.9102097 0.762657
vt 0.90941983 0.7604453
vt 0.91352725 0.7637629
vt 0.91542304 0.762341
vt 0.91352725 0.7673964
vt 0.91542304 0.76866025
vt 0.8958336 0.77324164
vt 0.88998836 0.77324164
vt 0.88998836 0.79646456
vt 0.8958336 0.79646456
vt 0.8843011 0.77324164
vt 0.8843011 0.79646456
vt 0.8790878 0.77324164
vt 0.8794037 0.79646456
vt 0.90705013 0.77324164
vt 0.9013629 0.77324164
vt 0.9013629 0.79646456
vt 0.90705013 0.79646456
vt 0.89930916 0.7656586
vt 0.8963075 0.7647107
vt 0.8947277 0.7659746
vt 0.8999411 0.76755434
vt 0.9012049 0.76313096
vt 0.9032586 0.76313096
vt 0.89930916 0.7606033
vt 0.8999411 0.7585496
vt 0.8963075 0.76155114
vt 0.8947277 0.76028734
vt 0.9102097 0.76850224
vt 0.907998 0.76550066
vt 0.9056283 0.76550066
vt 0.90941983 0.770714
vt 0.9102097 0.762657
vt 0.90941983 0.7604453
vt 0.91352725 0.7637629
vt 0.91542304 0.762341
vt 0.91352725 0.7673964
vt 0.91542304 0.76866025
vt 0.8958336 0.77324164
vt 0.88998836 0.77324164
vt 0.88998836 0.79646456
vt 0.8958336 0.79646456
vt 0.8843011 0.77324164
vt 0.8843011 0.79646456
vt 0.8790878 0.77324164
vt 0.8794037 0.79646456
vt 0.90705013 0.77324164
vt 0.9013629 0.77324164
vt 0.9013629 0.79646456
vt 0.90705013 0.79646456
vt 0.8846171 0.75381017
vt 0.8822474 0.75381017
vt 0.88003564 0.75381017
vt 0.88935643 0.75381017
vt 0.88698673 0.75381017
vt 0.8846171 0.75381017
vt 0.8822474 0.75381017
vt 0.88003564 0.75381017
vt 0.88935643 0.75381017
vt 0.88698673 0.75381017
vt 0.8846171 0.75381017
vt 0.8822474 0.75381017
vt 0.88003564 0.75381017
vt 0.88935643 0.75381017
vt 0.88698673 0.75381017
vt 0.8846171 0.75381017
vt 0.8822474 0.75381017
vt 0.88003564 0.75381017
vt 0.88935643 0.75381017
vt 0.88698673 0.75381017
vt 0.88619685 0.76755434
vt 0.8877767 0.7651847
vt 0.8865128 0.7632889
vt 0.8836692 0.76629055
vt 0.88398516 0.7637629
vt 0.88619685 0.76755434
vt 0.8877767 0.7651847
vt 0.8865128 0.7632889
vt 0.8836692 0.76629055
vt 0.88398516 0.7637629
vt 0.88619685 0.76755434
vt 0.8877767 0.7651847
vt 0.8865128 0.7632889
vt 0.8836692 0.76629055
vt 0.88398516 0.7637629
vt 0.88619685 0.76755434
vt 0.8877767 0.7651847
vt 0.8865128 0.7632889
vt 0.8836692 0.76629055
vt 0.88398516 0.7637629
vn -0.05977118 0.09734905 0.99345386
vn 0.15066516 0.16498935 0.9747197
vn 0.36110157 -0.007869065 0.93249327
vn -0.14244258 -0.15818077 0.97708184
vn -0.18753612 0.27020752 0.9443612
vn -0.443066 0.24766076 0.86160123
vn -0.05977118 0.43555033 0.8981778
vn -0.13492703 0.65350235 0.7448016
vn 0.15066516 0.3754257 0.9145248
vn 0.36110157 0.4956751 0.78988093
vn 0.09805608 0.029708862 -0.9947373
vn 0.31600803 -0.26339895 -0.9114603
vn 0.6692405 -0.20327425 -0.71470046
vn 0.21078986 0.405488 -0.8894645
vn 0.09805608 -0.54899114 -0.8300564
vn 0.20327425 -0.8195522 -0.5357367
vn -0.2551763 -0.43625736 -0.86288154
vn -0.5407686 -0.5790535 -0.61013633
vn -0.2551763 -0.08302492 -0.96332335
vn -0.5407686 0.18002057 -0.82168233
vn 0.31600803 0.9165478 -0.24511038
vn 0.9999262 -0.00035351515 0.012143152
vn 0.9999262 -0.00035351515 0.012143152
vn 0.31600803 0.9165478 -0.24511038
vn 0.30849248 -0.9097392 0.27786142
vn 0.30849248 -0.9097392 0.27786142
vn -0.8113296 -0.55650675 0.17900985
vn -0.8113296 -0.55650675 0.17900985
vn -0.8113296 -0.55650675 0.17900985
vn -0.80381405 0.57083094 -0.1674366
vn -0.80381405 0.57083094 -0.1674366
vn -0.8113296 -0.55650675 0.17900985
vn -0.05977118 0.09734905 0.99345386
vn 0.15066516 0.16498935 0.9747197
vn 0.36110157 -0.007869065 0.93249327
vn -0.14244258 -0.15818077 0.97708184
vn -0.18753612 0.27020752 0.9443612
vn -0.443066 0.24766076 0.86160123
vn -0.05977118 0.43555033 0.8981778
vn -0.13492703 0.65350235 0.7448016
vn 0.15066516 0.3754257 0.9145248
vn 0.36110157 0.4956751 0.78988093
vn 0.09805608 0.029708862 -0.9947373
vn 0.31600803 -0.26339895 -0.9114603
vn 0.6692405 -0.20327425 -0.71470046
vn 0.21078986 0.405488 -0.8894645
vn 0.09805608 -0.54899114 -0.8300564
vn 0.20327425 -0.8195522 -0.5357367
vn -0.2551763 -0.43625736 -0.86288154
vn -0.5407686 -0.5790535 -0.61013633
vn -0.2551763 -0.08302492 -0.96332335
vn -0.5407686 0.18002057 -0.82168233
vn 0.31600803 0.9165478 -0.24511038
vn 0.9999262 -0.00035351515 0.012143152
vn 0.9999262 -0.00035351515 0.012143152
vn 0.31600803 0.9165478 -0.24511038
vn 0.30849248 -0.9097392 0.27786142
vn 0.30849248 -0.9097392 0.27786142
vn -0.8113296 -0.55650675 0.17900985
vn -0.8113296 -0.55650675 0.17900985
vn -0.8113296 -0.55650675 0.17900985
vn -0.80381405 0.57083094 -0.1674366
vn -0.80381405 0.57083094 -0.1674366
vn -0.8113296 -0.55650675 0.17900985
vn -0.05977118 0.09734905 0.99345386
vn 0.15066516 0.16498935 0.9747197
vn 0.36110157 -0.007869065 0.93249327
vn -0.14244258 -0.15818077 0.97708184
vn -0.18753612 0.27020752 0.9443612
vn -0.443066 0.24766076 0.86160123
vn -0.05977118 0.43555033 0.8981778
vn -0.13492703 0.65350235 0.7448016
vn 0.15066516 0.3754257 0.9145248
vn 0.36110157 0.4956751 0.78988093
vn 0.09805608 0.029708862 -0.9947373
vn 0.31600803 -0.26339895 -0.9114603
vn 0.6692405 -0.20327425 -0.71470046
vn 0.21078986 0.405488 -0.8894645
vn 0.09805608 -0.54899114 -0.8300564
vn 0.20327425 -0.8195522 -0.5357367
vn -0.2551763 -0.43625736 -0.86288154
vn -0.5407686 -0.5790535 -0.61013633
vn -0.2551763 -0.08302492 -0.96332335
vn -0.5407686 0.18002057 -0.82168233
vn 0.31600803 0.9165478 -0.24511038
vn 0.9999262 -0.00035351515 0.012143152
vn 0.9999262 -0.00035351515 0.012143152
vn 0.31600803 0.9165478 -0.24511038
vn 0.30849248 -0.9097392 0.27786142
vn 0.30849248 -0.9097392 0.27786142
vn -0.8113296 -0.55650675 0.17900985
vn -0.8113296 -0.55650675 0.17900985
vn -0.8113296 -0.55650675 0.17900985
vn -0.80381405 0.57083094 -0.1674366
vn -0.80381405 0.57083094 -0.1674366
vn -0.8113296 -0.55650675 0.17900985
vn -0.05977118 0.09734905 0.99345386
vn 0.15066516 0.16498935 0.9747197
vn 0.36110157 -0.007869065 0.93249327
vn -0.14244258 -0.15818077 0.97708184
vn -0.18753612 0.27020752 0.9443612
vn -0.443066 0.24766076 0.86160123
vn -0.05977118 0.43555033 0.8981778
vn -0.13492703 0.65350235 0.7448016
vn 0.15066516 0.3754257 0.9145248
vn 0.36110157 0.4956751 0.78988093
vn 0.09805608 0.029708862 -0.9947373
vn 0.31600803 -0.26339895 -0.9114603
vn 0.6692405 -0.20327425 -0.71470046
vn 0.21078986 0.405488 -0.8894645
vn 0.09805608 -0.54899114 -0.8300564
vn 0.20327425 -0.8195522 -0.5357367
vn -0.2551763 -0.43625736 -0.86288154
vn -0.5407686 -0.5790535 -0.61013633
vn -0.2551763 -0.08302492 -0.96332335
vn -0.5407686 0.18002057 -0.82168233
vn 0.31600803 0.9165478 -0.24511038
vn 0.9999262 -0.00035351515 0.012143152
vn 0.9999262 -0.00035351515 0.012143152
vn 0.31600803 0.9165478 -0.24511038
vn 0.30849248 -0.9097392 0.27786142
vn 0.30849248 -0.9097392 0.27786142
vn -0.8113296 -0.55650675 0.17900985
vn -0.8113296 -0.55650675 0.17900985
vn -0.8113296 -0.55650675 0.17900985
vn -0.80381405 0.57083094 -0.1674366
vn -0.80381405 0.57083094 -0.1674366
vn -0.8113296 -0.55650675 0.17900985
vn 0.09805608 -0.54899114 -0.8300564
vn 0.31600803 -0.26339895 -0.9114603
vn 0.09805608 0.029708862 -0.9947373
vn -0.2551763 -0.08302492 -0.96332335
vn -0.2551763 -0.43625736 -0.86288154
vn 0.09805608 -0.54899114 -0.8300564
vn 0.31600803 -0.26339895 -0.9114603
vn 0.09805608 0.029708862 -0.9947373
vn -0.2551763 -0.08302492 -0.96332335
vn -0.2551763 -0.43625736 -0.86288154
vn 0.09805608 -0.54899114 -0.8300564
vn 0.31600803 -0.26339895 -0.9114603
vn 0.09805608 0.029708862 -0.9947373
vn -0.2551763 -0.08302492 -0.96332335
vn -0.2551763 -0.43625736 -0.86288154
vn 0.09805608 -0.54899114 -0.8300564
vn 0.31600803 -0.26339895 -0.9114603
vn 0.09805608 0.029708862 -0.9947373
vn -0.2551763 -0.08302492 -0.96332335
vn -0.2551763 -0.43625736 -0.86288154
vn -0.05977118 0.09734905 0.99345386
vn -0.18753612 0.27020752 0.9443612
vn -0.05977118 0.43555033 0.8981778
vn 0.15066516 0.16498935 0.9747197
vn 0.15066516 0.3754257 0.9145248
vn -0.05977118 0.09734905 0.99345386
vn -0.18753612 0.27020752 0.9443612
vn -0.05977118 0.43555033 0.8981778
vn 0.15066516 0.16498935 0.9747197
vn 0.15066516 0.3754257 0.9145248
vn -0.05977118 0.09734905 0.99345386
vn -0.18753612 0.27020752 0.9443612
vn -0.05977118 0.43555033 0.8981778
vn 0.15066516 0.16498935 0.9747197
vn 0.15066516 0.3754257 0.9145248
vn -0.05977118 0.09734905 0.99345386
vn -0.18753612 0.27020752 0.9443612
vn -0.05977118 0.43555033 0.8981778
vn 0.15066516 0.16498935 0.9747197
vn 0.15066516 0.3754257 0.9145248
g LightArtTurret_06_CorpsePart_0
f 3/3/3 2/2/2 1/1/1
f 4/4/4 3/3/3 1/1/1
f 4/4/4 1/1/1 5/5/5
f 6/6/6 4/4/4 5/5/5
f 6/6/6 5/5/5 7/7/7
f 8/8/8 6/6/6 7/7/7
f 8/8/8 7/7/7 9/9/9
f 10/10/10 8/8/8 9/9/9
f 10/10/10 9/9/9 2/2/2
f 3/3/3 10/10/10 2/2/2
f 13/13/13 12/12/12 11/11/11
f 14/14/14 13/13/13 11/11/11
f 16/16/16 15/15/15 12/12/12
f 13/13/13 16/16/16 12/12/12
f 18/18/18 17/17/17 15/15/15
f 16/16/16 18/18/18 15/15/15
f 20/20/20 19/19/19 17/17/17
f 18/18/18 20/20/20 17/17/17
f 14/14/14 11/11/11 19/19/19
f 20/20/20 14/14/14 19/19/19
f 23/23/23 22/22/22 21/21/21
f 24/24/24 23/23/23 21/21/21
f 26/26/26 25/25/25 22/22/22
f 23/23/23 26/26/26 22/22/22
f 28/28/28 27/27/27 25/25/25
f 26/26/26 28/28/28 25/25/25
f 31/31/31 30/30/30 29/29/29
f 32/32/32 31/31/31 29/29/29
f 24/24/24 21/21/21 30/30/30
f 31/31/31 24/24/24 30/30/30
f 35/35/35 34/34/34 33/33/33
f 36/36/36 35/35/35 33/33/33
f 36/36/36 33/33/33 37/37/37
f 38/38/38 36/36/36 37/37/37
f 38/38/38 37/37/37 39/39/39
f 40/40/40 38/38/38 39/39/39
f 40/40/40 39/39/39 41/41/41
f 42/42/42 40/40/40 41/41/41
f 42/42/42 41/41/41 34/34/34
f 35/35/35 42/42/42 34/34/34
f 45/45/45 44/44/44 43/43/43
f 46/46/46 45/45/45 43/43/43
f 48/48/48 47/47/47 44/44/44
f 45/45/45 48/48/48 44/44/44
f 50/50/50 49/49/49 47/47/47
f 48/48/48 50/50/50 47/47/47
f 52/52/52 51/51/51 49/49/49
f 50/50/50 52/52/52 49/49/49
f 46/46/46 43/43/43 51/51/51
f 52/52/52 46/46/46 51/51/51
f 55/55/55 54/54/54 53/53/53
f 56/56/56 55/55/55 53/53/53
f 58/58/58 57/57/57 54/54/54
f 55/55/55 58/58/58 54/54/54
f 60/60/60 59/59/59 57/57/57
f 58/58/58 60/60/60 57/57/57
f 63/63/63 62/62/62 61/61/61
f 64/64/64 63/63/63 61/61/61
f 56/56/56 53/53/53 62/62/62
f 63/63/63 56/56/56 62/62/62
f 67/67/67 66/66/66 65/65/65
f 68/68/68 67/67/67 65/65/65
f 68/68/68 65/65/65 69/69/69
f 70/70/70 68/68/68 69/69/69
f 70/70/70 69/69/69 71/71/71
f 72/72/72 70/70/70 71/71/71
f 72/72/72 71/71/71 73/73/73
f 74/74/74 72/72/72 73/73/73
f 74/74/74 73/73/73 66/66/66
f 67/67/67 74/74/74 66/66/66
f 77/77/77 76/76/76 75/75/75
f 78/78/78 77/77/77 75/75/75
f 80/80/80 79/79/79 76/76/76
f 77/77/77 80/80/80 76/76/76
f 82/82/82 81/81/81 79/79/79
f 80/80/80 82/82/82 79/79/79
f 84/84/84 83/83/83 81/81/81
f 82/82/82 84/84/84 81/81/81
f 78/78/78 75/75/75 83/83/83
f 84/84/84 78/78/78 83/83/83
f 87/87/87 86/86/86 85/85/85
f 88/88/88 87/87/87 85/85/85
f 90/90/90 89/89/89 86/86/86
f 87/87/87 90/90/90 86/86/86
f 92/92/92 91/91/91 89/89/89
f 90/90/90 92/92/92 89/89/89
f 95/95/95 94/94/94 93/93/93
f 96/96/96 95/95/95 93/93/93
f 88/88/88 85/85/85 94/94/94
f 95/95/95 88/88/88 94/94/94
f 99/99/99 98/98/98 97/97/97
f 100/100/100 99/99/99 97/97/97
f 100/100/100 97/97/97 101/101/101
f 102/102/102 100/100/100 101/101/101
f 102/102/102 101/101/101 103/103/103
f 104/104/104 102/102/102 103/103/103
f 104/104/104 103/103/103 105/105/105
f 106/106/106 104/104/104 105/105/105
f 106/106/106 105/105/105 98/98/98
f 99/99/99 106/106/106 98/98/98
f 109/109/109 108/108/108 107/107/107
f 110/110/110 109/109/109 107/107/107
f 112/112/112 111/111/111 108/108/108
f 109/109/109 112/112/112 108/108/108
f 114/114/114 113/113/113 111/111/111
f 112/112/112 114/114/114 111/111/111
f 116/116/116 115/115/115 113/113/113
f 114/114/114 116/116/116 113/113/113
f 110/110/110 107/107/107 115/115/115
f 116/116/116 110/110/110 115/115/115
f 119/119/119 118/118/118 117/117/117
f 120/120/120 119/119/119 117/117/117
f 122/122/122 121/121/121 118/118/118
f 119/119/119 122/122/122 118/118/118
f 124/124/124 123/123/123 121/121/121
f 122/122/122 124/124/124 121/121/121
f 127/127/127 126/126/126 125/125/125
f 128/128/128 127/127/127 125/125/125
f 120/120/120 117/117/117 126/126/126
f 127/127/127 120/120/120 126/126/126
f 131/131/131 130/130/130 129/129/129
f 129/129/129 132/132/132 131/131/131
f 129/129/129 133/133/133 132/132/132
f 136/136/136 135/135/135 134/134/134
f 134/134/134 137/137/137 136/136/136
f 134/134/134 138/138/138 137/137/137
f 141/141/141 140/140/140 139/139/139
f 139/139/139 142/142/142 141/141/141
f 139/139/139 143/143/143 142/142/142
f 146/146/146 145/145/145 144/144/144
f 144/144/144 147/147/147 146/146/146
f 144/144/144 148/148/148 147/147/147
f 151/151/151 150/150/150 149/149/149
f 149/149/149 152/152/152 151/151/151
f 152/152/152 153/153/153 151/151/151
f 156/156/156 155/155/155 154/154/154
f 154/154/154 157/157/157 156/156/156
f 157/157/157 158/158/158 156/156/156
f 161/161/161 160/160/160 159/159/159
f 159/159/159 162/162/162 161/161/161
f 162/162/162 163/163/163 161/161/161
f 166/166/166 165/165/165 164/164/164
f 164/164/164 167/167/167 166/166/166
f 167/167/167 168/168/168 166/166/166
