g LightShassi_CustomizePart_CorpsePart
v 0.5013639 0.24859661 -0.7315242
v 0.5022607 0.24859661 0.5337076
v 0.502171 0.3987187 0.38387692
v 0.5013863 0.3987187 -0.7019527
v 0.5022607 0.24859661 0.5337076
v 0.2721003 0.24859661 0.5338869
v 0.502171 0.3987187 0.38387692
v -0.50146806 0.24859661 0.53444743
v -0.5023649 0.24859661 -0.7308068
v -0.50234246 0.39874113 -0.70123523
v -0.5015578 0.39874113 0.38459432
v -0.2712853 0.024399877 0.5366446
v -0.27115083 0.045429528 0.737749
v 0.27225724 0.045429528 0.73736787
v 0.2721003 0.024399877 0.53626347
v -0.50234246 0.39874113 -0.70123523
v 0.5013863 0.3987187 -0.7019527
v 0.502171 0.3987187 0.38387692
v -0.5015578 0.39874113 0.38459432
v 0.5013639 0.24859661 -0.7315242
v -0.5023649 0.24859661 -0.7308068
v -0.2714423 0.24859661 0.32462168
v 0.27196577 0.24859661 0.32424057
v -0.2712853 0.24859661 0.53426814
v -0.27115083 0.045429528 0.737749
v -0.2712853 0.024399877 0.5366446
v -0.2714423 0.24859661 0.32462168
v 0.27196577 0.24859661 0.32424057
v 0.2721003 0.024399877 0.53626347
v 0.27225724 0.045429528 0.73736787
v 0.2721003 0.24859661 0.5338869
v 0.17257935 0.16203427 0.6146426
v 0.2721003 0.24859661 0.5338869
v 0.27225724 0.045429528 0.73736787
v 0.17262423 0.09674817 0.679839
v -0.17160743 0.09674817 0.68008566
v -0.27115083 0.045429528 0.737749
v -0.2712853 0.24859661 0.53426814
v -0.17165232 0.16203427 0.61488926
v -0.23700565 0.28325748 -0.72417057
v -0.5023649 0.24859661 -0.7308068
v 0.5013639 0.24859661 -0.7315242
v 0.23600462 0.28323495 -0.72450686
v -0.23700565 0.3640803 -0.7082526
v 0.23602703 0.3640803 -0.7085889
v 0.5013863 0.3987187 -0.7019527
v -0.50234246 0.39874113 -0.70123523
v -0.5015578 0.39874113 0.38459432
v -0.2712853 0.24859661 0.53426814
v -0.50146806 0.24859661 0.53444743
v 0.5022607 0.24859661 0.5337076
v -0.50146806 0.24859661 0.53444743
v 0.2721003 0.24859661 0.5338869
v -0.2712853 0.24859661 0.53426814
v 0.2721003 0.024399877 0.53626347
v 0.17206371 0.09706205 0.4676144
v -0.17133844 0.09706205 0.46786106
v -0.2712853 0.024399877 0.5366446
v -0.17140567 0.17593443 0.39327073
v -0.2714423 0.24859661 0.32462168
v 0.17199647 0.17593443 0.3930242
v 0.27196577 0.24859661 0.32424057
v 0.17257935 0.16203427 0.6146426
v 0.17199647 0.17593443 0.3930242
v -0.17140567 0.17593443 0.39327073
v -0.17165232 0.16203427 0.61488926
v -0.17160743 0.09674817 0.68008566
v -0.17133844 0.09706205 0.46786106
v 0.17206371 0.09706205 0.4676144
v 0.17262423 0.09674817 0.679839
v 0.17257935 0.16203427 0.6146426
v 0.17262423 0.09674817 0.679839
v 0.17206371 0.09706205 0.4676144
v 0.17199647 0.17593443 0.3930242
v -0.17160743 0.09674817 0.68008566
v -0.17165232 0.16203427 0.61488926
v -0.17140567 0.17593443 0.39327073
v -0.17133844 0.09706205 0.46786106
vt 0.6304978 0.58477336
vt 0.6304978 0.3319034
vt 0.6000148 0.36169356
vt 0.6000148 0.5785382
vt 0.6000148 0.31943312
vt 0.5542904 0.31943312
vt 0.6000148 0.36169356
vt 0.3700071 0.3319034
vt 0.3700071 0.58477336
vt 0.39979726 0.5785382
vt 0.39979726 0.36169356
vt 0.44552168 0.22174913
vt 0.44552168 0.26193118
vt 0.5542904 0.26193118
vt 0.5542904 0.22174913
vt 0.39979726 0.5785382
vt 0.6000148 0.5785382
vt 0.6000148 0.36169356
vt 0.39979726 0.36169356
vt 0.6000148 0.6090212
vt 0.39979726 0.6090212
vt 0.44552168 0.8203234
vt 0.5542904 0.8203234
vt 0.44552168 0.31943312
vt 0.44552168 0.26193118
vt 0.41503873 0.2868718
vt 0.41503873 0.34853047
vt 0.58477336 0.34853047
vt 0.58477336 0.2868718
vt 0.5542904 0.26193118
vt 0.5542904 0.31943312
vt 0.53419936 0.2958781
vt 0.5542904 0.31943312
vt 0.5542904 0.26193118
vt 0.53419936 0.27717265
vt 0.46561274 0.27717265
vt 0.44552168 0.26193118
vt 0.44552168 0.31943312
vt 0.46561274 0.2958781
vt 0.45244962 0.6020932
vt 0.39979726 0.6090212
vt 0.6000148 0.6090212
vt 0.54736245 0.6020932
vt 0.45244962 0.58546615
vt 0.54736245 0.58546615
vt 0.6000148 0.5785382
vt 0.39979726 0.5785382
vt 0.39979726 0.36169356
vt 0.44552168 0.31943312
vt 0.39979726 0.31943312
vt 0.6000148 0.8618911
vt 0.39979726 0.8618911
vt 0.5542904 0.8618911
vt 0.44552168 0.8618911
vt 0.4462145 0.15316248
vt 0.46491992 0.17186792
vt 0.53419936 0.17186792
vt 0.55359757 0.15316248
vt 0.53419936 0.1995797
vt 0.55359757 0.21828514
vt 0.46491992 0.1995797
vt 0.4462145 0.21828514
vt 0.46630552 0.18503103
vt 0.46491992 0.1995797
vt 0.53419936 0.1995797
vt 0.53419936 0.18503103
vt 0.5328138 0.18918778
vt 0.53419936 0.17186792
vt 0.46491992 0.17186792
vt 0.46561274 0.18918778
vt 0.478083 0.1995797
vt 0.478083 0.17117514
vt 0.46491992 0.17186792
vt 0.46491992 0.1995797
vt 0.5217291 0.17256072
vt 0.5217291 0.1988869
vt 0.53419936 0.1995797
vt 0.53419936 0.17186792
vn 0.9999924 0.003921509 -0
vn 0.9999924 0.003921509 -0
vn 0.9999924 0.003921509 -0
vn 0.9999924 0.003921509 -0
vn 0.0039215684 0.70979846 0.7043939
vn -0.003921509 0.7019553 0.71221024
vn 0.0039215684 0.70979846 0.7043939
vn -0.99999225 0.003921509 -0.00034492963
vn -0.99999225 0.003921509 -0.00034492963
vn -0.99999225 0.003921509 -0.00034492963
vn -0.99999225 0.003921509 -0.00034492963
vn 0.0039215684 -0.9921493 0.124997616
vn 0.0039215684 -0.9921493 0.124997616
vn 0.0039215684 -0.9921493 0.124997616
vn 0.0039215684 -0.9921493 0.124997616
vn -0.003921509 0.99999225 -0.00034526698
vn -0.003921509 0.99999225 -0.00034526698
vn -0.003921509 0.99999225 -0.00034526698
vn -0.003921509 0.99999225 -0.00034526698
vn -0.003921509 -0.9999924 -0
vn -0.003921509 -0.9999924 -0
vn -0.003921509 -0.9999924 -0
vn -0.003921509 -0.9999924 -0
vn -0.99999225 0.003921509 -0.00034492963
vn -0.99999225 0.003921509 -0.00034492963
vn -0.99999225 0.003921509 -0.00034492963
vn -0.99999225 0.003921509 -0.00034492963
vn 0.9999924 0.003921509 -0
vn 0.9999924 0.003921509 -0
vn 0.9999924 0.003921509 -0
vn 0.9999924 0.003921509 -0
vn -0.011764526 0.68626916 0.7272525
vn -0.003921509 0.7019553 0.71221024
vn -0.019607663 0.7333276 0.6795926
vn -0.011764526 0.7333276 0.6797736
vn 0.011764646 0.7333276 0.6797736
vn 0.019607723 0.7333276 0.6795926
vn 0.0039215684 0.7019553 0.71221024
vn 0.011764646 0.68626916 0.7272525
vn -0.003921509 0.19215536 -0.9813567
vn -0.003921509 0.19215536 -0.9813567
vn -0.003921509 0.19215536 -0.9813567
vn -0.003921509 0.19215536 -0.9813567
vn -0.003921509 0.19215536 -0.9813567
vn -0.003921509 0.19215536 -0.9813567
vn -0.003921509 0.19215536 -0.9813567
vn -0.003921509 0.19215536 -0.9813567
vn 0.0039215684 0.70979846 0.7043939
vn 0.0039215684 0.7019553 0.71221024
vn 0.0039215684 0.70979846 0.7043939
vn -0.003921509 -0.9999924 -0
vn -0.003921509 -0.9999924 -0
vn -0.003921509 -0.9999924 -0
vn -0.003921509 -0.9999924 -0
vn -0.003921509 -0.6862693 -0.727337
vn -0.003921509 -0.6862693 -0.727337
vn -0.003921509 -0.6862693 -0.727337
vn -0.003921509 -0.6862693 -0.727337
vn -0.003921509 -0.6862693 -0.727337
vn -0.003921509 -0.6862693 -0.727337
vn -0.003921509 -0.6862693 -0.727337
vn -0.003921509 -0.6862693 -0.727337
vn -0.003921509 -0.9999924 -0
vn -0.003921509 -0.9999924 -0
vn -0.003921509 -0.9999924 -0
vn -0.003921509 -0.9999924 -0
vn -0.003921509 0.99999225 -0.00034526698
vn -0.003921509 0.99999225 -0.00034526698
vn -0.003921509 0.99999225 -0.00034526698
vn -0.003921509 0.99999225 -0.00034526698
vn -0.99999225 0.003921509 -0.00034492963
vn -0.99999225 0.003921509 -0.00034492963
vn -0.99999225 0.003921509 -0.00034492963
vn -0.99999225 0.003921509 -0.00034492963
vn 0.9999924 0.003921509 -0
vn 0.9999924 0.003921509 -0
vn 0.9999924 0.003921509 -0
vn 0.9999924 0.003921509 -0
g LightShassi_CustomizePart_CorpsePart_0
f 3/3/3 2/2/2 1/1/1
f 4/4/4 3/3/3 1/1/1
f 7/7/7 6/6/6 5/5/5
f 10/10/10 9/9/9 8/8/8
f 11/11/11 10/10/10 8/8/8
f 14/14/14 13/13/13 12/12/12
f 15/15/15 14/14/14 12/12/12
f 18/18/18 17/17/17 16/16/16
f 19/19/19 18/18/18 16/16/16
f 22/22/22 21/21/21 20/20/20
f 23/23/23 22/22/22 20/20/20
f 26/26/26 25/25/25 24/24/24
f 27/27/27 26/26/26 24/24/24
f 30/30/30 29/29/29 28/28/28
f 31/31/31 30/30/30 28/28/28
f 34/34/34 33/33/33 32/32/32
f 35/35/35 34/34/34 32/32/32
f 38/38/38 37/37/37 36/36/36
f 39/39/39 38/38/38 36/36/36
f 37/37/37 34/34/34 35/35/35
f 36/36/36 37/37/37 35/35/35
f 33/33/33 38/38/38 39/39/39
f 32/32/32 33/33/33 39/39/39
f 42/42/42 41/41/41 40/40/40
f 43/43/43 42/42/42 40/40/40
f 46/46/46 45/45/45 44/44/44
f 47/47/47 46/46/46 44/44/44
f 50/50/50 49/49/49 48/48/48
f 6/6/6 7/7/7 48/48/48
f 49/49/49 6/6/6 48/48/48
f 42/42/42 43/43/43 45/45/45
f 46/46/46 42/42/42 45/45/45
f 40/40/40 41/41/41 47/47/47
f 44/44/44 40/40/40 47/47/47
f 51/51/51 23/23/23 20/20/20
f 52/52/52 21/21/21 22/22/22
f 53/53/53 23/23/23 51/51/51
f 54/54/54 52/52/52 22/22/22
f 57/57/57 56/56/56 55/55/55
f 58/58/58 57/57/57 55/55/55
f 59/59/59 57/57/57 58/58/58
f 60/60/60 59/59/59 58/58/58
f 61/61/61 59/59/59 60/60/60
f 62/62/62 61/61/61 60/60/60
f 56/56/56 61/61/61 62/62/62
f 55/55/55 56/56/56 62/62/62
f 65/65/65 64/64/64 63/63/63
f 66/66/66 65/65/65 63/63/63
f 69/69/69 68/68/68 67/67/67
f 70/70/70 69/69/69 67/67/67
f 73/73/73 72/72/72 71/71/71
f 74/74/74 73/73/73 71/71/71
f 77/77/77 76/76/76 75/75/75
f 78/78/78 77/77/77 75/75/75
