g LowCyllRing
v 1.6914791 -0.81527245 -0.5496185
v 1.71615 0.81527245 -0.5576035
v 1.060661 0.81527245 -1.459858
v 1.0454068 -0.81527245 -1.4388765
v -2.7537346E-05 0.81527245 -1.8044811
v -2.7537346E-05 -0.81527245 -1.7785436
v -1.060661 0.81527245 -1.459858
v -1.0454069 -0.81527245 -1.4388765
v -1.7161502 0.81527245 -0.5576035
v -1.6914791 -0.81527245 -0.5496185
v -1.7161502 0.81527245 0.5576035
v -1.6914791 -0.81527245 0.5496186
v -1.060661 0.81527245 1.4598581
v -1.0454069 -0.81527245 1.4388765
v -2.7537346E-05 0.81527245 1.8044811
v -2.7537346E-05 -0.81527245 1.7785436
v 1.060661 0.81527245 1.4598581
v 1.0454068 -0.81527245 1.4388765
v 1.71615 0.81527245 0.5576035
v 1.6914791 -0.81527245 0.5496186
vt 0.5326278 0.06652811
vt 0.5411023 0.93347347
vt 0.5250007 0.93347347
vt 0.51991594 0.06652811
vt 0.49957708 0.93347347
vt 0.49957708 0.06652811
vt 0.47500092 0.93347347
vt 0.48008564 0.06652811
vt 0.4588993 0.93347347
vt 0.46737382 0.06652811
vt 0.4588993 0.93347347
vt 0.46737382 0.06652811
vt 0.47500092 0.93347347
vt 0.48008564 0.06652811
vt 0.49957708 0.93347347
vt 0.49957708 0.06652811
vt 0.5250007 0.93347347
vt 0.51991594 0.06652811
vt 0.5411023 0.93347347
vt 0.5326278 0.06652811
vn 0.90652454 -0.30217487 -0.29479414
vn 0.90652454 -0.30217487 -0.29479414
vn 0.5581347 -0.30217487 -0.77277166
vn 0.5581347 -0.30217487 -0.77277166
vn -0.0035549998 -0.30217487 -0.9532459
vn -0.0035549998 -0.30217487 -0.9532459
vn -0.5581347 -0.30217487 -0.77277166
vn -0.5581347 -0.30217487 -0.77277166
vn -0.90652454 -0.30217487 -0.29479414
vn -0.90652454 -0.30217487 -0.29479414
vn -0.90652454 -0.30217487 0.29479414
vn -0.90652454 -0.30217487 0.29479414
vn -0.5581347 -0.30217487 0.77277166
vn -0.5581347 -0.30217487 0.77277166
vn -0.0035549998 -0.30217487 0.9532459
vn -0.0035549998 -0.30217487 0.9532459
vn 0.5581347 -0.30217487 0.77277166
vn 0.5581347 -0.30217487 0.77277166
vn 0.90652454 -0.30217487 0.29479414
vn 0.90652454 -0.30217487 0.29479414
g LowCyllRing_0
f 3/3/3 2/2/2 1/1/1
f 4/4/4 3/3/3 1/1/1
f 4/4/4 6/6/6 5/5/5
f 3/3/3 4/4/4 5/5/5
f 6/6/6 8/8/8 7/7/7
f 5/5/5 6/6/6 7/7/7
f 8/8/8 10/10/10 9/9/9
f 7/7/7 8/8/8 9/9/9
f 10/10/10 12/12/12 11/11/11
f 9/9/9 10/10/10 11/11/11
f 12/12/12 14/14/14 13/13/13
f 11/11/11 12/12/12 13/13/13
f 14/14/14 16/16/16 15/15/15
f 13/13/13 14/14/14 15/15/15
f 16/16/16 18/18/18 17/17/17
f 15/15/15 16/16/16 17/17/17
f 18/18/18 20/20/20 19/19/19
f 17/17/17 18/18/18 19/19/19
f 20/20/20 1/1/1 2/2/2
f 19/19/19 20/20/20 2/2/2
