g lvl_Football_01_layout_mesh
v 32.680393 0.002494812 18.194004
v -32.65945 0.002494812 18.194004
v -32.65945 0.002494812 17.64846
v 32.680393 0.002494812 17.64846
v 32.680393 0.002494812 -17.643473
v -32.65945 0.002494812 -17.643473
v -32.65945 0.002494812 -18.189018
v 32.680393 0.002494812 -18.189018
v -0.21891785 -0.02942276 17.69334
v -0.21891785 -0.02942276 -17.683367
v 0.32662964 -0.02942276 -17.683367
v 0.32662964 -0.02942276 17.69334
v -6.953964 0.02942276 -1.9163914
v -7.4286995 0.02942276 -2.0440521
v -7.1025696 0.02942276 -3.0034943
v -6.6477814 0.02942276 -2.8149967
v -6.6547623 0.02942276 -3.9120731
v -6.228897 0.02942276 -3.666727
v -7.1384735 0.02942276 -0.98587227
v -7.626175 0.02942276 -1.0497017
v -7.2003098 0.02942276 -0.038398743
v -7.692997 0.02942276 -0.038398743
v -7.1384735 0.02942276 0.9090767
v -7.626175 0.02942276 0.972908
v -6.953964 0.02942276 1.8395958
v -7.4286995 0.02942276 1.9672585
v -6.6477814 0.02942276 2.7382011
v -7.1025696 0.02942276 2.9267006
v -6.228897 0.02942276 3.5899315
v -6.6547623 0.02942276 3.8352776
v -5.7013054 0.02942276 4.37883
v -6.091263 0.02942276 4.678032
v -5.0759697 0.02942276 5.092926
v -5.423046 0.02942276 5.4399986
v -4.3618736 0.02942276 5.718258
v -4.6610756 0.02942276 6.108219
v -3.5729752 0.02942276 6.2458534
v -3.8183212 0.02942276 6.6717186
v -2.7212486 0.02942276 6.6647377
v -2.9097443 0.02942276 7.119522
v -1.8226433 0.02942276 6.9709206
v -1.9503021 0.02942276 7.445656
v -0.8921242 0.02942276 7.15543
v -0.9559517 0.02942276 7.6431274
v 0.055351257 0.02942276 7.2172623
v 0.055351257 0.02942276 7.7099495
v 1.0028267 0.02942276 7.15543
v 1.0666561 0.02942276 7.6431274
v 1.9333458 0.02942276 6.9709206
v 2.0610065 0.02942276 7.445656
v 2.8319511 0.02942276 6.6647377
v 3.0204487 0.02942276 7.119522
v 3.6836815 0.02942276 6.2458534
v 3.9290276 0.02942276 6.6717186
v 4.472578 0.02942276 5.718258
v 4.771782 0.02942276 6.108219
v 5.186676 0.02942276 5.092926
v 5.5337505 0.02942276 5.4399986
v 5.812008 0.02942276 4.37883
v 6.201969 0.02942276 4.678032
v 6.3396015 0.02942276 3.5899315
v 6.7654667 0.02942276 3.8352776
v 6.758486 0.02942276 2.7382011
v 7.213274 0.02942276 2.9267006
v 7.0646687 0.02942276 1.8395958
v 7.539404 0.02942276 1.9672585
v 7.249178 0.02942276 0.9090767
v 7.7368774 0.02942276 0.972908
v 7.3110123 0.02942276 -0.038398743
v 7.8036995 0.02942276 -0.038398743
v 7.249178 0.02942276 -0.98587227
v 7.7368774 0.02942276 -1.0497017
v 7.0646687 0.02942276 -1.9163914
v 7.539404 0.02942276 -2.0440521
v 6.758486 0.02942276 -2.8149967
v 7.213274 0.02942276 -3.0034943
v 6.3396015 0.02942276 -3.666727
v 6.7654667 0.02942276 -3.9120731
v 7.213274 0.02942276 -3.0034943
v 6.758486 0.02942276 -2.8149967
v 5.812008 0.02942276 -4.4556236
v 6.201969 0.02942276 -4.7548256
v 5.186676 0.02942276 -5.1697197
v 5.5337505 0.02942276 -5.516796
v 4.472578 0.02942276 -5.7950535
v 4.771782 0.02942276 -6.1850147
v 3.6836815 0.02942276 -6.322647
v 3.9290276 0.02942276 -6.7485123
v 2.8319511 0.02942276 -6.7415314
v 3.0204487 0.02942276 -7.1963177
v 1.9333458 0.02942276 -7.047714
v 2.0610065 0.02942276 -7.5224495
v 1.0028267 0.02942276 -7.2322235
v 1.0666561 0.02942276 -7.719923
v 0.055351257 0.02942276 -7.294058
v 0.055351257 0.02942276 -7.786745
v -0.8921242 0.02942276 -7.2322235
v -0.9559517 0.02942276 -7.719923
v -1.8226433 0.02942276 -7.047714
v -1.9503021 0.02942276 -7.5224495
v -2.7212486 0.02942276 -6.7415314
v -2.9097443 0.02942276 -7.1963177
v -3.5729752 0.02942276 -6.322647
v -3.8183212 0.02942276 -6.7485123
v -4.3618736 0.02942276 -5.7950535
v -4.6610756 0.02942276 -6.1850147
v -5.0759697 0.02942276 -5.1697197
v -5.423046 0.02942276 -5.516796
v -5.7013054 0.02942276 -4.4556236
v -6.091263 0.02942276 -4.7548256
v -32.680393 -0.02942276 18.15511
v -32.680393 -0.02942276 -18.194004
v -32.134846 -0.02942276 -18.194004
v -32.134846 -0.02942276 18.15511
v 32.12687 -0.02942276 18.15511
v 32.12687 -0.02942276 -18.194004
v 32.672413 -0.02942276 -18.194004
v 32.672413 -0.02942276 18.15511
vt 0.0016403198 -21.201
vt 0.0016403198 22.201
vt 0.9976959 22.201
vt 0.9976959 -21.201
vt 0.0016403198 -21.201
vt 0.0016403198 22.201
vt 0.9976959 22.201
vt 0.9976959 -21.201
vt 0.0076007843 -19.277761
vt 0.0076007843 20.27776
vt 0.9923992 20.27776
vt 0.9923992 -19.277761
vt 0.9910736 2.8639793
vt 0.005613327 2.8639793
vt 0.005613327 3.4348583
vt 0.9910736 3.4348583
vt 0.005613327 4.0057373
vt 0.9910736 4.0057373
vt 0.9910736 2.2931004
vt 0.005613327 2.2931004
vt 0.9910736 1.7228851
vt 0.005613327 1.7228851
vt 0.9910736 1.1520061
vt 0.005613327 1.1520061
vt 0.9910736 0.58112717
vt 0.005613327 0.58112717
vt 0.9910736 0.0109119415
vt 0.005613327 0.0109119415
vt 0.9910736 -0.55996704
vt 0.005613327 -0.55996704
vt 0.9910736 -1.130846
vt 0.005613327 -1.130846
vt 0.9910736 -1.7010612
vt 0.005613327 -1.7010612
vt 0.9910736 -2.2719402
vt 0.005613327 -2.2719402
vt 0.9910736 -2.8428192
vt 0.005613327 -2.8428192
vt 0.9910736 -3.4130344
vt 0.005613327 -3.4130344
vt 0.9910736 -3.9839134
vt 0.005613327 -3.9839134
vt 0.9910736 -4.5547924
vt 0.005613327 -4.5547924
vt 0.9910736 -5.1250076
vt 0.005613327 -5.1250076
vt 0.9910736 -5.6958866
vt 0.005613327 -5.6958866
vt 0.9910736 -6.2667656
vt 0.005613327 -6.2667656
vt 0.9910736 -6.836982
vt 0.005613327 -6.836982
vt 0.9910736 -7.40786
vt 0.005613327 -7.40786
vt 0.9910736 -7.978739
vt 0.005613327 -7.978739
vt 0.9910736 -8.549617
vt 0.005613327 -8.549617
vt 0.9910736 -9.119833
vt 0.005613327 -9.119833
vt 0.9910736 -9.690712
vt 0.005613327 -9.690712
vt 0.9910736 -10.26159
vt 0.005613327 -10.26159
vt 0.9910736 -10.831807
vt 0.005613327 -10.831807
vt 0.9910736 -11.402685
vt 0.005613327 -11.402685
vt 0.9910736 -11.973564
vt 0.005613327 -11.973564
vt 0.9910736 -12.54378
vt 0.005613327 -12.54378
vt 0.9910736 -13.114658
vt 0.005613327 -13.114658
vt 0.9910736 -13.685537
vt 0.005613327 -13.685537
vt 0.9910736 13.136482
vt 0.005613327 13.136482
vt 0.005613327 13.706699
vt 0.9910736 13.706699
vt 0.9910736 12.565601
vt 0.005613327 12.565601
vt 0.9910736 11.994724
vt 0.005613327 11.994724
vt 0.9910736 11.423847
vt 0.005613327 11.423847
vt 0.9910736 10.85363
vt 0.005613327 10.85363
vt 0.9910736 10.282751
vt 0.005613327 10.282751
vt 0.9910736 9.711872
vt 0.005613327 9.711872
vt 0.9910736 9.141657
vt 0.005613327 9.141657
vt 0.9910736 8.570778
vt 0.005613327 8.570778
vt 0.9910736 7.999899
vt 0.005613327 7.999899
vt 0.9910736 7.4296837
vt 0.005613327 7.4296837
vt 0.9910736 6.8588047
vt 0.005613327 6.8588047
vt 0.9910736 6.2879257
vt 0.005613327 6.2879257
vt 0.9910736 5.7177105
vt 0.005613327 5.7177105
vt 0.9910736 5.1468315
vt 0.005613327 5.1468315
vt 0.9910736 4.5759525
vt 0.005613327 4.5759525
vt 0.0076007843 -19.277761
vt 0.0076007843 20.27776
vt 0.9923992 20.27776
vt 0.9923992 -19.277761
vt 0.0076007843 -19.277761
vt 0.0076007843 20.27776
vt 0.9923992 20.27776
vt 0.9923992 -19.277761
vn -0 1 -0
vn -0 1 -0
vn -0 1 -0
vn -0 1 -0
vn -0 1 -0
vn -0 1 -0
vn -0 1 -0
vn -0 1 -0
vn -0 1 -0
vn -0 1 -0
vn -0 1 -0
vn -0 1 -0
vn -0 1 -0
vn -0 1 -0
vn -0 1 -0
vn -0 1 -0
vn -0 1 -0
vn -0 1 -0
vn -0 1 -0
vn -0 1 -0
vn -0 1 -0
vn -0 1 -0
vn -0 1 -0
vn -0 1 -0
vn -0 1 -0
vn -0 1 -0
vn -0 1 -0
vn -0 1 -0
vn -0 1 -0
vn -0 1 -0
vn -0 1 -0
vn -0 1 -0
vn -0 1 -0
vn -0 1 -0
vn -0 1 -0
vn -0 1 -0
vn -0 1 -0
vn -0 1 -0
vn -0 1 -0
vn -0 1 -0
vn -0 1 -0
vn -0 1 -0
vn -0 1 -0
vn -0 1 -0
vn -0 1 -0
vn -0 1 -0
vn -0 1 -0
vn -0 1 -0
vn -0 1 -0
vn -0 1 -0
vn -0 1 -0
vn -0 1 -0
vn -0 1 -0
vn -0 1 -0
vn -0 1 -0
vn -0 1 -0
vn -0 1 -0
vn -0 1 -0
vn -0 1 -0
vn -0 1 -0
vn -0 1 -0
vn -0 1 -0
vn -0 1 -0
vn -0 1 -0
vn -0 1 -0
vn -0 1 -0
vn -0 1 -0
vn -0 1 -0
vn -0 1 -0
vn -0 1 -0
vn -0 1 -0
vn -0 1 -0
vn -0 1 -0
vn -0 1 -0
vn -0 1 -0
vn -0 1 -0
vn -0 1 -0
vn -0 1 -0
vn -0 1 -0
vn -0 1 -0
vn -0 1 -0
vn -0 1 -0
vn -0 1 -0
vn -0 1 -0
vn -0 1 -0
vn -0 1 -0
vn -0 1 -0
vn -0 1 -0
vn -0 1 -0
vn -0 1 -0
vn -0 1 -0
vn -0 1 -0
vn -0 1 -0
vn -0 1 -0
vn -0 1 -0
vn -0 1 -0
vn -0 1 -0
vn -0 1 -0
vn -0 1 -0
vn -0 1 -0
vn -0 1 -0
vn -0 1 -0
vn -0 1 -0
vn -0 1 -0
vn -0 1 -0
vn -0 1 -0
vn -0 1 -0
vn -0 1 -0
vn -0 1 -0
vn -0 1 -0
vn -0 1 -0
vn -0 1 -0
vn -0 1 -0
vn -0 1 -0
vn -0 1 -0
vn -0 1 -0
vn -0 1 -0
vn -0 1 -0
g lvl_Football_01_layout_mesh_0
f 3/3/3 2/2/2 1/1/1
f 4/4/4 3/3/3 1/1/1
f 7/7/7 6/6/6 5/5/5
f 8/8/8 7/7/7 5/5/5
f 11/11/11 10/10/10 9/9/9
f 12/12/12 11/11/11 9/9/9
f 15/15/15 14/14/14 13/13/13
f 16/16/16 15/15/15 13/13/13
f 17/17/17 15/15/15 16/16/16
f 18/18/18 17/17/17 16/16/16
f 13/13/13 14/14/14 19/19/19
f 14/14/14 20/20/20 19/19/19
f 19/19/19 20/20/20 21/21/21
f 20/20/20 22/22/22 21/21/21
f 21/21/21 22/22/22 23/23/23
f 22/22/22 24/24/24 23/23/23
f 23/23/23 24/24/24 25/25/25
f 24/24/24 26/26/26 25/25/25
f 25/25/25 26/26/26 27/27/27
f 26/26/26 28/28/28 27/27/27
f 27/27/27 28/28/28 29/29/29
f 28/28/28 30/30/30 29/29/29
f 29/29/29 30/30/30 31/31/31
f 30/30/30 32/32/32 31/31/31
f 31/31/31 32/32/32 33/33/33
f 32/32/32 34/34/34 33/33/33
f 33/33/33 34/34/34 35/35/35
f 34/34/34 36/36/36 35/35/35
f 35/35/35 36/36/36 37/37/37
f 36/36/36 38/38/38 37/37/37
f 37/37/37 38/38/38 39/39/39
f 38/38/38 40/40/40 39/39/39
f 39/39/39 40/40/40 41/41/41
f 40/40/40 42/42/42 41/41/41
f 41/41/41 42/42/42 43/43/43
f 42/42/42 44/44/44 43/43/43
f 43/43/43 44/44/44 45/45/45
f 44/44/44 46/46/46 45/45/45
f 45/45/45 46/46/46 47/47/47
f 46/46/46 48/48/48 47/47/47
f 47/47/47 48/48/48 49/49/49
f 48/48/48 50/50/50 49/49/49
f 49/49/49 50/50/50 51/51/51
f 50/50/50 52/52/52 51/51/51
f 51/51/51 52/52/52 53/53/53
f 52/52/52 54/54/54 53/53/53
f 53/53/53 54/54/54 55/55/55
f 54/54/54 56/56/56 55/55/55
f 55/55/55 56/56/56 57/57/57
f 56/56/56 58/58/58 57/57/57
f 57/57/57 58/58/58 59/59/59
f 58/58/58 60/60/60 59/59/59
f 59/59/59 60/60/60 61/61/61
f 60/60/60 62/62/62 61/61/61
f 61/61/61 62/62/62 63/63/63
f 62/62/62 64/64/64 63/63/63
f 63/63/63 64/64/64 65/65/65
f 64/64/64 66/66/66 65/65/65
f 65/65/65 66/66/66 67/67/67
f 66/66/66 68/68/68 67/67/67
f 67/67/67 68/68/68 69/69/69
f 68/68/68 70/70/70 69/69/69
f 69/69/69 70/70/70 71/71/71
f 70/70/70 72/72/72 71/71/71
f 71/71/71 72/72/72 73/73/73
f 72/72/72 74/74/74 73/73/73
f 73/73/73 74/74/74 75/75/75
f 74/74/74 76/76/76 75/75/75
f 79/79/79 78/78/78 77/77/77
f 80/80/80 79/79/79 77/77/77
f 77/77/77 78/78/78 81/81/81
f 78/78/78 82/82/82 81/81/81
f 81/81/81 82/82/82 83/83/83
f 82/82/82 84/84/84 83/83/83
f 83/83/83 84/84/84 85/85/85
f 84/84/84 86/86/86 85/85/85
f 85/85/85 86/86/86 87/87/87
f 86/86/86 88/88/88 87/87/87
f 87/87/87 88/88/88 89/89/89
f 88/88/88 90/90/90 89/89/89
f 89/89/89 90/90/90 91/91/91
f 90/90/90 92/92/92 91/91/91
f 91/91/91 92/92/92 93/93/93
f 92/92/92 94/94/94 93/93/93
f 93/93/93 94/94/94 95/95/95
f 94/94/94 96/96/96 95/95/95
f 95/95/95 96/96/96 97/97/97
f 96/96/96 98/98/98 97/97/97
f 97/97/97 98/98/98 99/99/99
f 98/98/98 100/100/100 99/99/99
f 99/99/99 100/100/100 101/101/101
f 100/100/100 102/102/102 101/101/101
f 101/101/101 102/102/102 103/103/103
f 102/102/102 104/104/104 103/103/103
f 103/103/103 104/104/104 105/105/105
f 104/104/104 106/106/106 105/105/105
f 105/105/105 106/106/106 107/107/107
f 106/106/106 108/108/108 107/107/107
f 107/107/107 108/108/108 109/109/109
f 108/108/108 110/110/110 109/109/109
f 109/109/109 110/110/110 17/17/17
f 18/18/18 109/109/109 17/17/17
f 113/113/113 112/112/112 111/111/111
f 114/114/114 113/113/113 111/111/111
f 117/117/117 116/116/116 115/115/115
f 118/118/118 117/117/117 115/115/115
