g MediumTurret_02_CorpsePart
v 0.12161126 0.24322648 0.6046405
v 0.12196749 0.24292962 0.74544984
v 0.15592799 0.34861088 0.74558836
v 0.15604672 0.34861088 0.6047988
v 0.17140414 0.20053838 1.066986
v 0.17140414 0.20053838 0.7423427
v -0.17350458 0.20053838 0.7423427
v -0.17350458 0.20053838 1.066986
v -0.22129862 0.34861088 0.74248123
v -0.22129862 0.34861088 1.0671047
v -0.17350458 0.20053838 1.066986
v -0.17350458 0.20053838 0.7423427
v 0.21919818 0.34861088 0.74248123
v 0.21919818 0.34861088 1.0671047
v 0.17140414 0.49668336 1.066986
v 0.172928 0.48852962 0.7388002
v -0.12373148 0.45399523 0.6046405
v 0.12161126 0.45399523 0.6046405
v 0.12196749 0.45429212 0.74544984
v -0.124087706 0.45429212 0.74544984
v -0.12373148 0.24322648 0.6046405
v -0.124087706 0.24292962 0.74544984
v 0.21462658 0.34861088 0.60782677
v 0.1723343 0.19972698 0.6076882
v -0.17445453 0.19972698 0.6076882
v -0.216727 0.34861088 0.60782677
v -0.15802841 0.34861088 0.74558836
v -0.15814714 0.34861088 0.6047988
v -0.17350458 0.49668336 1.066986
v -0.17350458 0.49668336 0.7423427
v -0.17350458 0.49668336 1.066986
v 0.17140414 0.49668336 1.066986
v 0.11082544 0.44455516 1.0775936
v -0.11294566 0.44455516 1.0775936
v 0.21919818 0.34861088 1.0671047
v 0.12932956 0.34861088 1.0777718
v -0.17350458 0.20053838 1.066986
v -0.11294566 0.25266653 1.0775936
v 0.11082544 0.25266653 1.0775936
v 0.17140414 0.20053838 1.066986
v -0.22129862 0.34861088 1.0671047
v -0.13144977 0.34861088 1.0777718
v -0.11294566 0.25266653 1.0775936
v -0.17350458 0.20053838 1.066986
v 0.21919818 0.34861088 0.74248123
v -0.22129862 0.34861088 0.74248123
v -0.17350458 0.20053838 0.7423427
v 0.17140414 0.20053838 0.7423427
v -0.124087706 0.24292962 0.74544984
v -0.12373148 0.24322648 0.6046405
v 0.21462658 0.34861088 0.60782677
v 0.1723343 0.49747497 0.6076882
v 0.17235409 0.49749476 0.22499944
v 0.21496302 0.34861088 0.22509839
v 0.17235409 0.19972698 0.22519733
v 0.1723343 0.19972698 0.6076882
v -0.17445453 0.49747497 0.6076882
v -0.17445453 0.49749476 0.22499944
v -0.17445453 0.19972698 0.22521712
v -0.17445453 0.19972698 0.6076882
v -0.216727 0.34861088 0.60782677
v -0.21708323 0.34861088 0.22509839
v -0.17445453 0.19972698 0.6076882
v -0.17445453 0.19972698 0.22521712
v 0.11082544 0.44455516 1.0775936
v 0.11082544 0.25266653 1.0775936
v -0.11294566 0.25266653 1.0775936
v -0.11294566 0.44455516 1.0775936
v 0.12932956 0.34861088 1.0777718
v -0.13144977 0.34861088 1.0777718
v 0.1723343 0.49747497 0.6076882
v -0.17445453 0.49747497 0.6076882
v -0.17350458 0.49668336 0.7423427
v 0.172928 0.48852962 0.7388002
v 0.17235409 0.49749476 0.22499944
v -0.17445453 0.49749476 0.22499944
v -0.21708323 0.34861088 0.22509839
v 0.21496302 0.34861088 0.22509839
v -0.17445453 0.19972698 0.22521712
v 0.17235409 0.19972698 0.22519733
vt 0.5954162 0.7315225
vt 0.59998024 0.7315225
vt 0.59998024 0.7251654
vt 0.5954162 0.7251654
vt 0.6153024 0.7313595
vt 0.6024253 0.7313595
vt 0.6024253 0.7450516
vt 0.6153024 0.7450516
vt 0.6024253 0.6985962
vt 0.6153024 0.6985962
vt 0.6153024 0.6924021
vt 0.6024253 0.6924021
vt 0.6024253 0.7251654
vt 0.6153024 0.7251654
vt 0.6153024 0.7191344
vt 0.6024253 0.7191344
vt 0.5954162 0.70495325
vt 0.5954162 0.7189714
vt 0.59998024 0.7189714
vt 0.59998024 0.70495325
vt 0.5954162 0.7450516
vt 0.5998172 0.7450516
vt 0.59362316 0.7251654
vt 0.59362316 0.7315225
vt 0.59362316 0.6924021
vt 0.59362316 0.6985962
vt 0.59998024 0.6985962
vt 0.5954162 0.6985962
vt 0.6153024 0.70495325
vt 0.6024253 0.70495325
vt 0.6153024 0.70495325
vt 0.6153024 0.7191344
vt 0.62068146 0.7191344
vt 0.62068146 0.70495325
vt 0.6153024 0.7251654
vt 0.62068146 0.7251654
vt 0.6153024 0.7450516
vt 0.62068146 0.7450516
vt 0.62068146 0.7313595
vt 0.6153024 0.7313595
vt 0.6153024 0.6985962
vt 0.62068146 0.6985962
vt 0.62068146 0.6924021
vt 0.6153024 0.6924021
vt 0.6024253 0.7251654
vt 0.6024253 0.6985962
vt 0.6024253 0.6924021
vt 0.6024253 0.7313595
vt 0.59998024 0.6924021
vt 0.5954162 0.6924021
vt 0.59362316 0.7251654
vt 0.59362316 0.7189714
vt 0.57846403 0.7189714
vt 0.57846403 0.7251654
vt 0.57846403 0.7315225
vt 0.59362316 0.7315225
vt 0.59362316 0.70495325
vt 0.57846403 0.70495325
vt 0.57846403 0.74521464
vt 0.59362316 0.74521464
vt 0.59362316 0.6985962
vt 0.57846403 0.6985962
vt 0.59362316 0.6924021
vt 0.57846403 0.6924021
vt 0.58058304 0.64219767
vt 0.58889616 0.6423606
vt 0.58889616 0.63241756
vt 0.58058304 0.63241756
vt 0.5846581 0.64317566
vt 0.5848211 0.6316025
vt 0.59362316 0.7189714
vt 0.59362316 0.70495325
vt 0.6024253 0.70495325
vt 0.6024253 0.7191344
vt 0.57846403 0.7189714
vt 0.57846403 0.70495325
vt 0.57846403 0.6985962
vt 0.57846403 0.7251654
vt 0.57846403 0.6924021
vt 0.57846403 0.7315225
vn 0.34897402 -0.9371325 -0
vn 0.3558327 -0.93454957 -0
vn 0.9999924 0.003921509 -0
vn 0.9999924 0.003921509 -0
vn 0.34897402 -0.9371325 -0
vn 0.34897402 -0.9371325 -0
vn -0.34897396 -0.9371325 -0
vn -0.3558326 -0.9345497 -0
vn -0.99999225 0.003921509 -0.00034492963
vn -0.99999225 0.003921509 -0.00034492963
vn -0.3558326 -0.9345497 -0
vn -0.34897396 -0.9371325 -0
vn 0.9999924 0.003921509 -0
vn 0.9999924 -0.0039215684 -0
vn 0.34897408 0.9371324 -0
vn 0.35583273 0.93454957 -0
vn -0.34897402 0.9371324 -0
vn 0.34897408 0.9371324 -0
vn 0.35583273 0.93454957 -0
vn -0.35583267 0.9345497 -0
vn -0.34897396 -0.9371325 -0
vn -0.3558326 -0.9345497 -0
vn -0.003921509 0.003921509 0.9999846
vn -0.003921509 -0.0039215684 0.9999846
vn -0.003921509 -0.0039215684 0.9999846
vn -0.003921509 0.003921509 0.9999846
vn -0.99999225 0.003921509 -0.00034492963
vn -0.99999225 0.003921509 -0.00034492963
vn -0.34117377 0.93724763 -0.071884386
vn -0.34117377 0.93724763 -0.071884386
vn -0.066666126 0.11372459 0.9912731
vn 0.066666186 0.11372459 0.9912731
vn 0.019607723 0.066666126 0.9975827
vn -0.019607663 0.066666126 0.9975827
vn 0.1294108 0.003921509 0.9915833
vn 0.11372465 0.003921509 0.9935046
vn -0.066666126 -0.11372465 0.9912731
vn -0.019607663 -0.066666186 0.9975827
vn 0.019607723 -0.066666186 0.9975827
vn 0.066666186 -0.11372465 0.9912731
vn -0.12941074 0.003921509 0.99158335
vn -0.11372459 0.003921509 0.9935046
vn -0.019607663 -0.066666186 0.9975827
vn -0.066666126 -0.11372465 0.9912731
vn -0.003921509 -0.0039215684 -0.9999846
vn -0.003921509 -0.0039215684 -0.9999846
vn -0.003921509 0.003921509 -0.9999846
vn -0.003921509 0.003921509 -0.9999846
vn -0.3558326 -0.9345497 -0
vn -0.34897396 -0.9371325 -0
vn 0.9999924 0.003921509 -0
vn 0.35583273 0.93454957 -0
vn 0.35583273 0.93454957 -0
vn 0.9999924 0.003921509 -0
vn 0.3558327 -0.93454957 -0
vn 0.3558327 -0.93454957 -0
vn -0.35583267 0.9345497 -0
vn -0.35583267 0.9345497 -0
vn -0.3558326 -0.9345497 -0
vn -0.3558326 -0.9345497 -0
vn -0.99999225 0.003921509 -0.00034492963
vn -0.99999225 0.003921509 -0.00034492963
vn -0.3558326 -0.9345497 -0
vn -0.3558326 -0.9345497 -0
vn 0.019607723 0.066666126 0.9975827
vn 0.019607723 -0.066666186 0.9975827
vn -0.019607663 -0.066666186 0.9975827
vn -0.019607663 0.066666126 0.9975827
vn 0.11372465 0.003921509 0.9935046
vn -0.11372459 0.003921509 0.9935046
vn -0.003921509 0.003921509 0.9999846
vn -0.003921509 0.003921509 0.9999846
vn -0.003921509 -0.011764646 -0.9999231
vn -0.003921509 -0.011764646 -0.9999231
vn -0.003921509 -0.0039215684 -0.9999846
vn -0.003921509 -0.0039215684 -0.9999846
vn -0.003921509 -0.0039215684 -0.9999846
vn -0.003921509 -0.0039215684 -0.9999846
vn -0.003921509 -0.0039215684 -0.9999846
vn -0.003921509 -0.0039215684 -0.9999846
g MediumTurret_02_CorpsePart_0
f 3/3/3 2/2/2 1/1/1
f 4/4/4 3/3/3 1/1/1
f 7/7/7 6/6/6 5/5/5
f 8/8/8 7/7/7 5/5/5
f 11/11/11 10/10/10 9/9/9
f 12/12/12 11/11/11 9/9/9
f 15/15/15 14/14/14 13/13/13
f 16/16/16 15/15/15 13/13/13
f 19/19/19 18/18/18 17/17/17
f 20/20/20 19/19/19 17/17/17
f 21/21/21 1/1/1 2/2/2
f 22/22/22 21/21/21 2/2/2
f 25/25/25 24/24/24 23/23/23
f 26/26/26 25/25/25 23/23/23
f 27/27/27 20/20/20 17/17/17
f 28/28/28 27/27/27 17/17/17
f 19/19/19 3/3/3 4/4/4
f 18/18/18 19/19/19 4/4/4
f 29/29/29 15/15/15 16/16/16
f 30/30/30 29/29/29 16/16/16
f 33/33/33 32/32/32 31/31/31
f 34/34/34 33/33/33 31/31/31
f 35/35/35 32/32/32 33/33/33
f 36/36/36 35/35/35 33/33/33
f 39/39/39 38/38/38 37/37/37
f 40/40/40 39/39/39 37/37/37
f 43/43/43 42/42/42 41/41/41
f 44/44/44 43/43/43 41/41/41
f 40/40/40 35/35/35 36/36/36
f 39/39/39 40/40/40 36/36/36
f 41/41/41 42/42/42 34/34/34
f 31/31/31 41/41/41 34/34/34
f 10/10/10 29/29/29 30/30/30
f 9/9/9 10/10/10 30/30/30
f 14/14/14 5/5/5 6/6/6
f 13/13/13 14/14/14 6/6/6
f 47/47/47 46/46/46 45/45/45
f 48/48/48 47/47/47 45/45/45
f 49/49/49 27/27/27 28/28/28
f 50/50/50 49/49/49 28/28/28
f 53/53/53 52/52/52 51/51/51
f 54/54/54 53/53/53 51/51/51
f 55/55/55 54/54/54 51/51/51
f 56/56/56 55/55/55 51/51/51
f 58/58/58 57/57/57 52/52/52
f 53/53/53 58/58/58 52/52/52
f 56/56/56 60/60/60 59/59/59
f 55/55/55 56/56/56 59/59/59
f 58/58/58 62/62/62 61/61/61
f 57/57/57 58/58/58 61/61/61
f 64/64/64 63/63/63 61/61/61
f 62/62/62 64/64/64 61/61/61
f 67/67/67 66/66/66 65/65/65
f 68/68/68 67/67/67 65/65/65
f 69/69/69 65/65/65 66/66/66
f 70/70/70 67/67/67 68/68/68
f 26/26/26 23/23/23 71/71/71
f 72/72/72 26/26/26 71/71/71
f 45/45/45 46/46/46 73/73/73
f 74/74/74 45/45/45 73/73/73
f 77/77/77 76/76/76 75/75/75
f 78/78/78 77/77/77 75/75/75
f 80/80/80 79/79/79 77/77/77
f 78/78/78 80/80/80 77/77/77
