g MediumShassis_DefaultPart_1_CorpsePart
v -0.5206644 0.4994648 -0.6863117
v 0.5206861 0.4994648 -0.6863117
v 0.52065694 0.5054801 0.35264438
v -0.5206644 0.5054801 0.35264438
v 0.5206861 0.4634897 0.58738774
v 0.30971205 0.47622114 0.5979875
v 0.19349378 0.35538918 -0.7471365
v 0.173433 0.2992074 -0.7075697
v 0.18879247 0.12905562 -0.73609865
v 0.21848947 0.13457453 -0.83397895
v 0.19349378 0.35538918 -0.7471365
v 0.21848947 0.13457453 -0.83397895
v 0.52065694 0.13457453 -0.80635524
v 0.5206861 0.4994648 -0.6863117
v 0.30971205 0.47622114 0.5979875
v 0.26246554 0.20518154 0.8707208
v 0.23875463 0.21446735 1.07968
v 0.52065694 0.5054801 0.35264438
v 0.5206861 0.4994648 -0.6863117
v 0.52065694 0.13457453 -0.80635524
v 0.5206861 0.3059526 0.75701374
v 0.173433 0.2992074 -0.7075697
v 0.19349378 0.35538918 -0.7471365
v -0.19347209 0.35538918 -0.7471365
v -0.17344052 0.2992074 -0.7075697
v 0.18879247 0.12905562 -0.73609865
v 0.17524344 0.096380234 0.86937755
v 0.5206861 0.3059526 0.75701374
v 0.5206861 0.3059526 0.75701374
v 0.26246554 0.20518154 0.8707208
v 0.30971205 0.47622114 0.5979875
v 0.23898828 0.08899248 0.954614
v 0.26246554 0.20518154 0.8707208
v 0.17524344 0.096380234 0.86937755
v 0.17524344 0.096380234 0.86937755
v -0.17525095 0.096380234 0.86937755
v -0.23899573 0.08899248 0.954614
v 0.23898828 0.08899248 0.954614
v -0.5206644 0.4634897 0.58738774
v -0.3096903 0.47622114 0.5979875
v -0.19347209 0.35538918 -0.7471365
v -0.21849698 0.13457453 -0.83397895
v -0.18877083 0.12905562 -0.73609865
v -0.17344052 0.2992074 -0.7075697
v -0.26247305 0.20518154 0.8707208
v -0.3096903 0.47622114 0.5979875
v -0.238733 0.21446735 1.07968
v -0.5206644 0.13457453 -0.80635524
v -0.5206644 0.4994648 -0.6863117
v -0.5206644 0.5054801 0.35264438
v -0.5206644 0.3059526 0.75701374
v -0.18877083 0.12905562 -0.73609865
v -0.21849698 0.13457453 -0.83397895
v -0.5206644 0.13457453 -0.80635524
v -0.5206644 0.3059526 0.75701374
v -0.5206644 0.4634897 0.58738774
v -0.3096903 0.47622114 0.5979875
v 0.23875463 0.21446735 1.07968
v 0.23898828 0.08899248 0.954614
v -0.23899573 0.08899248 0.954614
v -0.238733 0.21446735 1.07968
v 0.17098016 0.27990574 0.9592568
v 0.30971205 0.47622114 0.5979875
v 0.23875463 0.21446735 1.07968
v 0.16508162 0.24717194 1.0194685
v -0.26247305 0.20518154 0.8707208
v -0.17525095 0.096380234 0.86937755
v -0.5206644 0.3059526 0.75701374
v -0.19347209 0.35538918 -0.7471365
v -0.5206644 0.4994648 -0.6863117
v -0.5206644 0.13457453 -0.80635524
v -0.21849698 0.13457453 -0.83397895
v -0.26247305 0.20518154 0.8707208
v 0.5206861 0.4634897 0.58738774
v 0.5206861 0.4634897 0.58738774
v -0.5206644 0.4634897 0.58738774
v -0.23899573 0.08899248 0.954614
v 0.5206861 0.3059526 0.75701374
v 0.23898828 0.08899248 0.954614
v -0.23899573 0.08899248 0.954614
v -0.238733 0.21446735 1.07968
v -0.16508913 0.24717194 1.0194685
v -0.17098767 0.27990574 0.9592568
v -0.3096903 0.47622114 0.5979875
v -0.17344052 0.2992074 -0.7075697
v 0.173433 0.2992074 -0.7075697
v 0.173433 0.2992074 -0.7075697
v 0.17524344 0.096380234 0.86937755
v 0.18879247 0.12905562 -0.73609865
v -0.18877083 0.12905562 -0.73609865
v -0.17525095 0.096380234 0.86937755
v -0.17344052 0.2992074 -0.7075697
v 0.52065694 0.13457453 -0.80635524
v 0.21848947 0.13457453 -0.83397895
v -0.5206644 0.3059526 0.75701374
v -0.17525095 0.096380234 0.86937755
v 0.16508162 0.24717194 1.0194685
v 0.1420424 0.2055319 0.99140674
v 0.14712328 0.23368126 0.93957573
v 0.17098016 0.27990574 0.9592568
v -0.16508913 0.24717194 1.0194685
v -0.14204991 0.2055319 0.99140674
v 0.1420424 0.2055319 0.99140674
v 0.16508162 0.24717194 1.0194685
v -0.17098767 0.27990574 0.9592568
v -0.14713079 0.23368126 0.93957573
v -0.14204991 0.2055319 0.99140674
v -0.16508913 0.24717194 1.0194685
v 0.17098016 0.27990574 0.9592568
v 0.14712328 0.23368126 0.93957573
v -0.14713079 0.23368126 0.93957573
v -0.17098767 0.27990574 0.9592568
v 0.1420424 0.2055319 0.99140674
v -0.14204991 0.2055319 0.99140674
v -0.14713079 0.23368126 0.93957573
v 0.14712328 0.23368126 0.93957573
vt 0.3931701 0.7421016
vt 0.4308732 0.7421016
vt 0.4308732 0.7040428
vt 0.3931701 0.7040428
vt 0.43158457 0.69586194
vt 0.42304802 0.6951506
vt 0.41628993 0.65317917
vt 0.41735697 0.6510451
vt 0.41700128 0.64393127
vt 0.41522285 0.64357555
vt 0.41628993 0.65317917
vt 0.41522285 0.64357555
vt 0.40241802 0.64357555
vt 0.40241802 0.65922594
vt 0.4337187 0.6738092
vt 0.4241151 0.6738092
vt 0.42055818 0.67772174
vt 0.4308732 0.7040428
vt 0.4308732 0.7421016
vt 0.44225526 0.7460142
vt 0.43585283 0.68839246
vt 0.41735697 0.6510451
vt 0.41628993 0.65317917
vt 0.43300733 0.65317917
vt 0.43194026 0.6510451
vt 0.41273302 0.66633976
vt 0.41273302 0.66633976
vt 0.41273302 0.66633976
vt 0.43585283 0.68839246
vt 0.42198095 0.6844799
vt 0.42304802 0.6951506
vt 0.41273302 0.66633976
vt 0.41273302 0.66633976
vt 0.41273302 0.66633976
vt 0.41273302 0.66633976
vt 0.41273302 0.66633976
vt 0.41273302 0.66633976
vt 0.41273302 0.66633976
vt 0.3924587 0.6955063
vt 0.40099525 0.6951506
vt 0.43300733 0.65317917
vt 0.4340744 0.64357555
vt 0.43194026 0.64393127
vt 0.43194026 0.6510451
vt 0.39992818 0.6738092
vt 0.39032456 0.6738092
vt 0.4034851 0.67772174
vt 0.3821437 0.7460142
vt 0.3931701 0.7421016
vt 0.3931701 0.7040428
vt 0.38819042 0.68839246
vt 0.41273302 0.66633976
vt 0.41273302 0.66633976
vt 0.41273302 0.66633976
vt 0.38819042 0.68839246
vt 0.3924587 0.6955063
vt 0.40099525 0.6951506
vt 0.42055818 0.67772174
vt 0.42055818 0.6727421
vt 0.4034851 0.6727421
vt 0.4034851 0.67772174
vt 0.41913542 0.68234575
vt 0.42304802 0.6951506
vt 0.42055818 0.67772174
vt 0.41913542 0.67985594
vt 0.41273302 0.66633976
vt 0.41273302 0.66633976
vt 0.41273302 0.66633976
vt 0.43300733 0.65317917
vt 0.4468792 0.65922594
vt 0.4468792 0.64357555
vt 0.4340744 0.64357555
vt 0.40206233 0.6844799
vt 0.43158457 0.69586194
vt 0.43158457 0.69586194
vt 0.3924587 0.6955063
vt 0.41273302 0.66633976
vt 0.41273302 0.66633976
vt 0.42055818 0.6727421
vt 0.4034851 0.6727421
vt 0.4034851 0.67772174
vt 0.40561923 0.67985594
vt 0.40561923 0.68234575
vt 0.40099525 0.6951506
vt 0.41273302 0.66633976
vt 0.41273302 0.66633976
vt 0.41273302 0.66633976
vt 0.41273302 0.66633976
vt 0.41273302 0.66633976
vt 0.41273302 0.66633976
vt 0.41273302 0.66633976
vt 0.41273302 0.66633976
vt 0.41273302 0.66633976
vt 0.41273302 0.66633976
vt 0.41273302 0.66633976
vt 0.41273302 0.66633976
vt 0.42482647 0.6745206
vt 0.42482647 0.6745206
vt 0.42482647 0.6745206
vt 0.42482647 0.6745206
vt 0.42482647 0.6745206
vt 0.42482647 0.6745206
vt 0.42482647 0.6745206
vt 0.42482647 0.6745206
vt 0.42482647 0.6745206
vt 0.42482647 0.6745206
vt 0.42482647 0.6745206
vt 0.42482647 0.6745206
vt 0.42482647 0.6745206
vt 0.42482647 0.6745206
vt 0.42482647 0.6745206
vt 0.42482647 0.6745206
vt 0.42482647 0.6745206
vt 0.42482647 0.6745206
vt 0.42482647 0.6745206
vt 0.42482647 0.6745206
vn -0.003921509 0.99999225 -0.00034526698
vn -0.003921509 0.99999225 -0.00034526698
vn 0.0039215684 0.99999225 -0.00034526698
vn -0.003921509 0.99999225 -0.00034526698
vn 0.066666186 0.9843061 0.16339265
vn 0.0039215684 0.99214923 0.12499809
vn -0.93724763 0.003921509 -0.34864238
vn -0.93724763 0.003921509 -0.34864238
vn -0.93724763 0.003921509 -0.34864238
vn -0.93724763 0.003921509 -0.34864238
vn 0.019607723 0.36470306 -0.93091744
vn 0.05882311 0.33333075 -0.94097316
vn 0.05882311 0.33333075 -0.94097316
vn 0.035293877 0.3490169 -0.93645155
vn 0.9921493 -0.05882311 0.11036134
vn 0.9921493 -0.066666186 0.105808325
vn 0.9921493 -0.08235234 0.09411628
vn 0.9999924 0.003921509 -0
vn 0.9999924 0.003921509 -0
vn 0.9999924 0.003921509 -0
vn 0.9999924 0.003921509 -0
vn -0.003921509 -0.5764662 -0.81711155
vn -0.003921509 -0.5764662 -0.81711155
vn -0.003921509 -0.5764662 -0.81711155
vn -0.003921509 -0.5764662 -0.81711155
vn 0.121567726 -0.9921493 0.029343631
vn 0.51334274 -0.8581836 -0
vn 0.4736329 -0.88072234 -0
vn 0.043136954 0.70979846 0.70308274
vn 0.035293877 0.7019553 0.7113459
vn 0.05098003 0.7176415 0.6945443
vn 0.66274005 -0.52156466 -0.53735083
vn 0.59215236 -0.48234928 0.64551896
vn 0.7803862 -0.62352467 -0.047056798
vn -0.003921509 -0.9921493 -0.124997616
vn -0.003921509 -0.9921493 -0.124997616
vn -0.003921509 -0.9999924 -0
vn -0.003921509 -0.9999924 -0
vn -0.066666126 0.9843061 0.16339265
vn -0.003921509 0.99214923 0.12499809
vn 0.93724775 0.003921509 -0.34864205
vn 0.93724775 0.003921509 -0.34864205
vn 0.93724775 0.003921509 -0.34864205
vn 0.93724775 0.003921509 -0.34864205
vn -0.99214923 -0.066666186 0.10580889
vn -0.99214923 -0.05882311 0.110361874
vn -0.99214923 -0.08235234 0.09411691
vn -0.99999225 0.003921509 -0.00034492963
vn -0.99999225 0.003921509 -0.00034492963
vn -0.99999225 0.003921509 -0.00034492963
vn -0.99999225 0.003921509 -0.00034492963
vn -0.12156761 -0.9921493 0.029344646
vn -0.003921509 -0.9999924 -0
vn -0.035293818 -0.9921493 0.11997543
vn -0.043136835 0.70979846 0.70308274
vn -0.074509144 0.7333276 0.67578024
vn -0.050979972 0.7176415 0.6945443
vn -0.003921509 -0.7097985 0.70439386
vn -0.003921509 -0.7097985 0.70439386
vn -0.003921509 -0.7097985 0.70439386
vn -0.003921509 -0.7097985 0.70439386
vn -0.003921509 0.88234615 0.47058466
vn -0.003921509 0.88234615 0.47058466
vn -0.003921509 0.88234615 0.47058466
vn -0.003921509 0.88234615 0.47058466
vn -0.59215224 -0.48234928 0.64551914
vn -0.7803861 -0.62352467 -0.047058698
vn -0.4980353 -0.4039185 0.76734
vn -0.019607663 0.36470306 -0.93091744
vn -0.035293818 0.3490169 -0.93645155
vn -0.05882299 0.33333075 -0.94097316
vn -0.05882299 0.33333075 -0.94097316
vn -0.035293818 0.7019553 0.7113459
vn 0.07450926 0.7333276 0.67578024
vn 0.9999924 -0.0039215684 -0
vn -0.99999225 -0.0039215684 -0.00034425134
vn -0.66274 -0.52156466 -0.5373509
vn 0.49803543 -0.4039185 0.76733994
vn 0.9843062 -0.11372465 0.13493697
vn -0.9843061 -0.11372465 0.13493785
vn -0.003921509 0.88234615 0.47058466
vn -0.003921509 0.88234615 0.47058466
vn -0.003921509 0.88234615 0.47058466
vn -0.003921509 0.88234615 0.47058466
vn -0.003921509 -0.9921493 -0.124997616
vn -0.003921509 -0.9921493 -0.124997616
vn -0.99214923 -0.09019542 -0.0866296
vn -0.99214923 -0.09019542 -0.0866296
vn -0.99214923 -0.09019542 -0.0866296
vn 0.9921493 -0.09019542 -0.086628914
vn 0.9921493 -0.09019542 -0.086628914
vn 0.9921493 -0.09019542 -0.086628914
vn 0.035293877 -0.9921493 0.11997543
vn 0.0039215684 -0.9999924 -0
vn -0.47363284 -0.88072234 -0
vn -0.5133427 -0.85818374 -0
vn -0.9058753 0.41176152 0.09920855
vn -0.9058753 0.41176152 0.09920855
vn -0.9058753 0.41176152 0.09920855
vn -0.9058753 0.41176152 0.09920855
vn -0.003921509 0.5607799 -0.8279556
vn -0.003921509 0.5607799 -0.8279556
vn -0.003921509 0.5607799 -0.8279556
vn -0.003921509 0.5607799 -0.8279556
vn 0.90587544 0.41176152 0.09920735
vn 0.90587544 0.41176152 0.09920735
vn 0.90587544 0.41176152 0.09920735
vn 0.90587544 0.41176152 0.09920735
vn -0.003921509 -0.38823235 0.9215532
vn -0.003921509 -0.38823235 0.9215532
vn -0.003921509 -0.38823235 0.9215532
vn -0.003921509 -0.38823235 0.9215532
vn -0.003921509 0.88234615 0.47058466
vn -0.003921509 0.88234615 0.47058466
vn -0.003921509 0.88234615 0.47058466
vn -0.003921509 0.88234615 0.47058466
g MediumShassis_DefaultPart_1_CorpsePart_0
f 3/3/3 2/2/2 1/1/1
f 4/4/4 3/3/3 1/1/1
f 6/6/6 5/5/5 3/3/3
f 9/9/9 8/8/8 7/7/7
f 10/10/10 9/9/9 7/7/7
f 13/13/13 12/12/12 11/11/11
f 14/14/14 13/13/13 11/11/11
f 17/17/17 16/16/16 15/15/15
f 20/20/20 19/19/19 18/18/18
f 21/21/21 20/20/20 18/18/18
f 24/24/24 23/23/23 22/22/22
f 25/25/25 24/24/24 22/22/22
f 28/28/28 27/27/27 26/26/26
f 31/31/31 30/30/30 29/29/29
f 34/34/34 33/33/33 32/32/32
f 37/37/37 36/36/36 35/35/35
f 38/38/38 37/37/37 35/35/35
f 40/40/40 4/4/4 39/39/39
f 43/43/43 42/42/42 41/41/41
f 44/44/44 43/43/43 41/41/41
f 47/47/47 46/46/46 45/45/45
f 50/50/50 49/49/49 48/48/48
f 51/51/51 50/50/50 48/48/48
f 54/54/54 53/53/53 52/52/52
f 57/57/57 56/56/56 55/55/55
f 60/60/60 59/59/59 58/58/58
f 61/61/61 60/60/60 58/58/58
f 64/64/64 63/63/63 62/62/62
f 65/65/65 64/64/64 62/62/62
f 68/68/68 67/67/67 66/66/66
f 40/40/40 6/6/6 3/3/3
f 4/4/4 40/40/40 3/3/3
f 71/71/71 70/70/70 69/69/69
f 72/72/72 71/71/71 69/69/69
f 70/70/70 14/14/14 11/11/11
f 69/69/69 70/70/70 11/11/11
f 73/73/73 57/57/57 55/55/55
f 74/74/74 31/31/31 29/29/29
f 75/75/75 21/21/21 18/18/18
f 76/76/76 50/50/50 51/51/51
f 77/77/77 66/66/66 67/67/67
f 34/34/34 78/78/78 33/33/33
f 79/79/79 16/16/16 17/17/17
f 80/80/80 47/47/47 45/45/45
f 81/81/81 64/64/64 65/65/65
f 82/82/82 81/81/81 65/65/65
f 83/83/83 62/62/62 63/63/63
f 84/84/84 83/83/83 63/63/63
f 83/83/83 84/84/84 81/81/81
f 82/82/82 83/83/83 81/81/81
f 35/35/35 36/36/36 85/85/85
f 86/86/86 35/35/35 85/85/85
f 89/89/89 88/88/88 87/87/87
f 92/92/92 91/91/91 90/90/90
f 94/94/94 93/93/93 26/26/26
f 54/54/54 52/52/52 95/95/95
f 93/93/93 28/28/28 26/26/26
f 52/52/52 96/96/96 95/95/95
f 99/99/99 98/98/98 97/97/97
f 100/100/100 99/99/99 97/97/97
f 103/103/103 102/102/102 101/101/101
f 104/104/104 103/103/103 101/101/101
f 107/107/107 106/106/106 105/105/105
f 108/108/108 107/107/107 105/105/105
f 111/111/111 110/110/110 109/109/109
f 112/112/112 111/111/111 109/109/109
f 115/115/115 114/114/114 113/113/113
f 116/116/116 115/115/115 113/113/113
