g MediumShassi_02
v 0.44930092 -0.2845602 -0.7999769
v -0.4493189 -0.2845602 -0.7999769
v -0.4493189 -0.2845602 0.81423986
v 0.44930092 -0.2845602 0.81423986
v -0.4493189 -0.11255282 0.98708355
v -0.4493189 0.29481494 0.69402206
v 0.44930092 0.29481494 0.69402206
v 0.44930092 -0.11255282 0.98708355
v 0.44930092 0.21594822 -0.75802034
v 0.44930092 -0.11255282 -0.87030816
v 0.44930092 -0.11255282 0.98708355
v 0.44930092 0.29481494 0.69402206
v 0.44930092 -0.2845602 -0.7999769
v 0.44930092 -0.2845602 0.81423986
v -0.4493189 -0.11255282 -0.87030816
v -0.4493189 -0.2845602 -0.7999769
v 0.44930092 -0.2845602 -0.7999769
v 0.44930092 -0.11255282 -0.87030816
v -0.22707891 0.21594822 -0.75755894
v -0.4493189 -0.11255282 -0.87030816
v 0.44930092 -0.11255282 -0.87030816
v 0.22708982 0.21594822 -0.75755894
v -0.4493189 -0.11255282 0.98708355
v -0.4493189 -0.11255282 -0.87030816
v -0.4493189 0.21594822 -0.75802034
v -0.4493189 0.29481494 0.69402206
v -0.4493189 -0.2845602 -0.7999769
v -0.4493189 -0.2845602 0.81423986
v -0.4493189 -0.2845602 0.81423986
v -0.4493189 -0.11255282 0.98708355
v 0.44930092 -0.11255282 0.98708355
v 0.44930092 -0.2845602 0.81423986
v -0.20530772 0.32474685 -0.7023378
v 0.20531857 0.32474685 -0.7023378
v 0.44930092 0.21594822 -0.75802034
v -0.4493189 0.21594822 -0.75802034
v 0.17100358 0.27990675 0.95925665
v 0.16506338 0.24717772 1.0194665
v -0.16508126 0.24717772 1.0194665
v -0.17099273 0.27990675 0.95925665
vt 0.39668044 0.66880393
vt 0.39668044 0.6599342
vt 0.38248888 0.6599342
vt 0.38248888 0.66880393
vt 0.45131803 0.72769904
vt 0.45131803 0.74543846
vt 0.49424756 0.74543846
vt 0.49424756 0.72769904
vt 0.43003067 0.6705779
vt 0.42825672 0.6656109
vt 0.4566399 0.6656109
vt 0.45202762 0.6716423
vt 0.42932108 0.66277254
vt 0.45380157 0.66277254
vt 0.49637628 0.6539028
vt 0.49637628 0.64716184
vt 0.45983297 0.64716184
vt 0.45983297 0.6539028
vt 0.48715177 0.6666752
vt 0.49637628 0.6539028
vt 0.45983297 0.6539028
vt 0.46870273 0.6666752
vt 0.4566399 0.6656109
vt 0.42825672 0.6656109
vt 0.43003067 0.6705779
vt 0.45202762 0.6716423
vt 0.42932108 0.66277254
vt 0.45380157 0.66277254
vt 0.45131803 0.71953887
vt 0.45131803 0.72769904
vt 0.49424756 0.72769904
vt 0.49424756 0.71953887
vt 0.48644218 0.6709327
vt 0.4697671 0.6709327
vt 0.45983297 0.6666752
vt 0.49637628 0.6666752
vt 0.41796783 0.6705779
vt 0.41761303 0.66844916
vt 0.40590498 0.66844916
vt 0.40555018 0.6705779
vn -0.003921509 -0.9999924 -0
vn -0.003921509 -0.9999924 -0
vn -0.003921509 -0.9999924 -0
vn -0.003921509 -0.9999924 -0
vn -0.003921509 0.5843092 0.81152165
vn -0.003921509 0.5843092 0.81152165
vn -0.003921509 0.5843092 0.81152165
vn -0.003921509 0.5843092 0.81152165
vn 0.9999924 0.003921509 -0
vn 0.9999924 0.003921509 -0
vn 0.9999924 0.003921509 -0
vn 0.9999924 0.003921509 -0
vn 0.9999924 0.003921509 -0
vn 0.9999924 0.003921509 -0
vn -0.003921509 -0.38038927 -0.92481816
vn -0.003921509 -0.38038927 -0.92481816
vn -0.003921509 -0.38038927 -0.92481816
vn -0.003921509 -0.38038927 -0.92481816
vn 0.0039215684 0.34117377 -0.9399921
vn 0.0039215684 0.3254876 -0.94553816
vn -0.003921509 0.3254876 -0.94553816
vn -0.003921509 0.34117377 -0.9399921
vn -0.99999225 0.003921509 -0.00034492963
vn -0.99999225 0.003921509 -0.00034492963
vn -0.99999225 0.003921509 -0.00034492963
vn -0.99999225 0.003921509 -0.00034492963
vn -0.99999225 0.003921509 -0.00034492963
vn -0.99999225 0.003921509 -0.00034492963
vn -0.003921509 -0.7097985 0.70439386
vn -0.003921509 -0.7097985 0.70439386
vn -0.003921509 -0.7097985 0.70439386
vn -0.003921509 -0.7097985 0.70439386
vn -0.003921509 0.45097685 -0.89252704
vn -0.003921509 0.45097685 -0.89252704
vn -0.003921509 0.3254876 -0.94553816
vn 0.0039215684 0.3254876 -0.94553816
vn -0.003921509 0.88234615 0.47058466
vn -0.003921509 0.88234615 0.47058466
vn -0.003921509 0.88234615 0.47058466
vn -0.003921509 0.88234615 0.47058466
g MediumShassi_02_0
f 3/3/3 2/2/2 1/1/1
f 4/4/4 3/3/3 1/1/1
f 7/7/7 6/6/6 5/5/5
f 8/8/8 7/7/7 5/5/5
f 11/11/11 10/10/10 9/9/9
f 12/12/12 11/11/11 9/9/9
f 11/11/11 14/14/14 13/13/13
f 10/10/10 11/11/11 13/13/13
f 17/17/17 16/16/16 15/15/15
f 18/18/18 17/17/17 15/15/15
f 21/21/21 20/20/20 19/19/19
f 22/22/22 21/21/21 19/19/19
f 25/25/25 24/24/24 23/23/23
f 26/26/26 25/25/25 23/23/23
f 23/23/23 24/24/24 27/27/27
f 28/28/28 23/23/23 27/27/27
f 31/31/31 30/30/30 29/29/29
f 32/32/32 31/31/31 29/29/29
f 22/22/22 19/19/19 33/33/33
f 34/34/34 22/22/22 33/33/33
f 35/35/35 21/21/21 22/22/22
f 36/36/36 19/19/19 20/20/20
f 39/39/39 38/38/38 37/37/37
f 40/40/40 39/39/39 37/37/37
