g MosinTurret_DefaultPart_CorpsePart
v 0.29001504 -0.2985068 0.44144046
v 0.19361988 -0.24579191 0.70639145
v 0.3452891 -0.12436736 0.70906687
v 0.4475587 -0.17760572 0.44460064
v 0.32735556 -0.31694442 0.18176287
v 0.4851319 -0.21132076 0.1742599
v 0.44955564 0.3629982 0.43731087
v 0.50707865 -0.009650916 0.16778445
v -0.32846886 0.49795532 0.69014466
v 0.32849944 0.49795532 0.69014466
v -0.16728038 0.45035875 0.7368882
v 0.32849944 0.49795532 0.69014466
v -0.18187922 -0.05146998 0.76348794
v 0.3452891 -0.12436736 0.70906687
v 0.19361988 -0.24579191 0.70639145
v -0.19358933 -0.24579191 0.70641077
v 0.19361988 -0.24579191 0.70639145
v 0.29001504 -0.2985068 0.44144046
v 0.24352357 -0.20364326 0.41290188
v 0.16446093 -0.17085883 0.66013265
v 0.32735556 -0.31694442 0.18176287
v 0.4851319 -0.21132076 0.1742599
v 0.50707865 -0.009650916 0.16778445
v 0.32735556 -0.31694442 0.18176287
v 0.27752942 -0.23406243 0.16379058
v 0.44955564 0.3629982 0.43731087
v 0.2921283 0.37370014 0.42899358
v 0.40273458 -0.013780475 0.1573345
v 0.32849944 0.49795532 0.69014466
v 0.20081267 0.49436855 0.6541419
v -0.2899651 -0.2985068 0.44144046
v -0.44752818 -0.17760572 0.44460064
v -0.34525853 -0.12436736 0.70906687
v -0.19358933 -0.24579191 0.70641077
v -0.42354572 -0.085805416 0.5667038
v -0.35745335 -0.04922101 0.71193624
v -0.32732505 -0.31694442 0.18176287
v -0.48508197 -0.21132076 0.1742599
v -0.50704813 -0.009650916 0.16778445
v -0.44952506 0.3629982 0.43731087
v -0.41361922 0.36507267 0.56049967
v -0.32846886 0.49795532 0.69014466
v -0.33996576 0.42560077 0.6986946
v -0.24347365 -0.20364326 0.41290188
v -0.2899651 -0.2985068 0.44144046
v -0.19358933 -0.24579191 0.70641077
v -0.16441101 -0.17085883 0.66013265
v -0.32732505 -0.31694442 0.18176287
v -0.2774989 -0.23406243 0.16379058
v -0.2774989 -0.23406243 0.16379058
v -0.402704 -0.013780475 0.1573345
v -0.50704813 -0.009650916 0.16778445
v -0.32732505 -0.31694442 0.18176287
v -0.44952506 0.3629982 0.43731087
v -0.29209775 0.37370014 0.42899358
v -0.32846886 0.49795532 0.69014466
v -0.20076275 0.49436855 0.6541419
v -0.16441101 -0.17085883 0.66013265
v -0.19358933 -0.24579191 0.70641077
v 0.19361988 -0.24579191 0.70639145
v 0.16446093 -0.17085883 0.66013265
v -0.33996576 0.42560077 0.6986946
v -0.42354572 -0.085805416 0.5667038
v -0.41361922 0.36507267 0.56049967
v -0.25733578 0.37497973 0.5538498
v -0.28761923 -0.09030333 0.5609262
v -0.21753299 -0.056045443 0.6665112
v -0.18187922 -0.05146998 0.76348794
v -0.35745335 -0.04922101 0.71193624
v -0.42354572 -0.085805416 0.5667038
v -0.28761923 -0.09030333 0.5609262
v -0.16728038 0.45035875 0.7368882
v -0.19717604 0.4382221 0.6665112
v -0.33996576 0.42560077 0.6986946
v -0.41361922 0.36507267 0.56049967
v -0.25733578 0.37497973 0.5538498
v -0.21753299 -0.056045443 0.6665112
v -0.19717604 0.4382221 0.6665112
v -0.16728038 0.45035875 0.7368882
v -0.18187922 -0.05146998 0.76348794
v -0.34525853 -0.12436736 0.70906687
v -0.35745335 -0.04922101 0.71193624
v -0.20076275 0.49436855 0.6541419
v -0.16441101 -0.17085883 0.66013265
v 0.16446093 -0.17085883 0.66013265
v 0.20081267 0.49436855 0.6541419
v 0.24352357 -0.20364326 0.41290188
v 0.2921283 0.37370014 0.42899358
v -0.29209775 0.37370014 0.42899358
v -0.24347365 -0.20364326 0.41290188
v -0.2774989 -0.23406243 0.16379058
v 0.27752942 -0.23406243 0.16379058
v -0.402704 -0.013780475 0.1573345
v 0.40273458 -0.013780475 0.1573345
v -0.48508197 -0.21132076 0.1742599
v 0.27752942 -0.23406243 0.16379058
v -0.25733578 0.37497973 0.5538498
v -0.22263193 0.16487628 0.6020473
v -0.28761923 -0.09030333 0.5609262
v -0.21753299 -0.056045443 0.6665112
v -0.19717604 0.4382221 0.6665112
vt 0.6801863 0.6294794
vt 0.6693001 0.6327262
vt 0.67369276 0.6385513
vt 0.6832421 0.63625944
vt 0.6891627 0.627856
vt 0.6910725 0.6341586
vt 0.68448347 0.65602654
vt 0.69326884 0.64151156
vt 0.64857805 0.66108763
vt 0.67378825 0.66108763
vt 0.6548806 0.6596553
vt 0.67378825 0.66108763
vt 0.6545941 0.6408431
vt 0.67369276 0.6385513
vt 0.6693001 0.6327262
vt 0.65297073 0.6328217
vt 0.6693001 0.6327262
vt 0.6801863 0.6294794
vt 0.67961335 0.6270921
vt 0.6687271 0.63043433
vt 0.6891627 0.627856
vt 0.6910725 0.6341586
vt 0.69326884 0.64151156
vt 0.6891627 0.627856
vt 0.69049954 0.6257552
vt 0.68448347 0.65602654
vt 0.68477 0.656504
vt 0.69460577 0.6413206
vt 0.67378825 0.66108763
vt 0.67378825 0.6618516
vt 0.64208454 0.6295749
vt 0.6390287 0.63625944
vt 0.64857805 0.6385513
vt 0.65297073 0.6328217
vt 0.64303946 0.6397927
vt 0.6482916 0.6412251
vt 0.63310814 0.62795156
vt 0.6311028 0.63463604
vt 0.629002 0.64160705
vt 0.63778734 0.65602654
vt 0.642562 0.656313
vt 0.64857805 0.66108763
vt 0.6483871 0.6585094
vt 0.64265746 0.6271876
vt 0.64208454 0.6295749
vt 0.65297073 0.6328217
vt 0.6535437 0.63043433
vt 0.63310814 0.62795156
vt 0.63177127 0.6258507
vt 0.63177127 0.6258507
vt 0.6271876 0.6412251
vt 0.629002 0.64160705
vt 0.63310814 0.62795156
vt 0.63778734 0.65602654
vt 0.6375008 0.65698147
vt 0.64857805 0.66108763
vt 0.64867353 0.6617561
vt 0.6535437 0.63043433
vt 0.65297073 0.6328217
vt 0.6693001 0.6327262
vt 0.6687271 0.63043433
vt 0.6483871 0.6585094
vt 0.62861997 0.6751252
vt 0.64323044 0.6751252
vt 0.64323044 0.67216486
vt 0.62861997 0.67216486
vt 0.7137044 0.68658435
vt 0.7137044 0.68925816
vt 0.7187655 0.68925816
vt 0.7234447 0.68925816
vt 0.7234447 0.68658435
vt 0.66108763 0.6289065
vt 0.65717244 0.62642366
vt 0.65717244 0.6289065
vt 0.6538302 0.6289065
vt 0.6538302 0.62642366
vt 0.64323044 0.67226034
vt 0.62871546 0.67226034
vt 0.62871546 0.6751252
vt 0.64323044 0.6751252
vt 0.64857805 0.6385513
vt 0.6482916 0.6412251
vt 0.66242456 0.6498195
vt 0.66242456 0.6498195
vt 0.66242456 0.6498195
vt 0.66242456 0.6498195
vt 0.66242456 0.6498195
vt 0.66242456 0.6498195
vt 0.66242456 0.6498195
vt 0.66242456 0.6498195
vt 0.66242456 0.6498195
vt 0.66242456 0.6498195
vt 0.66242456 0.6498195
vt 0.66242456 0.6498195
vt 0.6311028 0.63463604
vt 0.69049954 0.6257552
vt 0.6948922 0.6382648
vt 0.6948922 0.6382648
vt 0.6948922 0.6382648
vt 0.6948922 0.6382648
vt 0.6948922 0.6382648
vn 0.57364035 -0.76813453 0.28443995
vn 0.57364035 -0.7370155 0.35741422
vn 0.8926108 -0.18465203 0.41127804
vn 0.9159501 -0.23911041 0.3222756
vn 0.57364035 -0.7992536 0.17924976
vn 0.9315096 -0.31690806 0.17849119
vn 0.9315096 0.009842157 0.3635835
vn 0.9781882 -0.029056668 0.20567818
vn -0.12653863 0.44550908 0.88628983
vn 0.0990746 0.048740983 0.9938856
vn 0.091294825 0.11097908 0.98962057
vn 0.92372984 0.017621875 0.3826391
vn 0.07573527 -0.013497174 0.99703664
vn 0.091294825 0.009842157 0.9957753
vn 0.044616222 -0.2079913 0.9771126
vn 0.013497174 -0.21577108 0.97635067
vn -0.8578367 -0.47250336 -0.20213048
vn -0.86561644 -0.48028314 -0.14154951
vn -0.86561644 -0.48028314 -0.14154951
vn -0.8578367 -0.47250336 -0.20213048
vn 0.0990746 -0.0990746 -0.9901356
vn -0.025401711 -0.029056668 -0.99925494
vn 0.08351505 0.42994952 -0.898982
vn -0.86561644 -0.48806292 -0.111815676
vn -0.86561644 -0.48806292 -0.111815676
vn 0.08351505 0.7022414 -0.7070235
vn 0.08351505 0.7566998 -0.64840627
vn 0.0990746 0.36771142 -0.9246473
vn 0.08351505 0.90451527 -0.41818345
vn 0.044616222 0.95897365 -0.27996236
vn -0.5777651 -0.76813453 0.2759653
vn -0.89673555 -0.3558069 0.26318586
vn -0.6633426 -0.6436583 0.3816813
vn -0.5699854 -0.7370155 0.36321455
vn -0.95897365 -0.052396 0.27861118
vn -0.8733963 -0.24689019 0.41979063
vn -0.5777651 -0.7992536 0.16547278
vn -0.92785466 -0.31690806 0.19660872
vn -0.98231304 -0.029056668 0.18497792
vn -0.9745332 0.009842157 0.22402717
vn -0.95897365 0.08763981 0.2696086
vn -0.9122951 0.27435422 0.30405164
vn -0.9122951 0.27435422 0.30405164
vn 0.86149174 -0.48028314 -0.16480319
vn 0.86149174 -0.48028314 -0.16480319
vn 0.85371196 -0.47250336 -0.2188982
vn 0.85371196 -0.47250336 -0.2188982
vn 0.8692715 -0.48806292 -0.07849577
vn 0.8692715 -0.48806292 -0.07849577
vn -0.12653863 -0.10685438 -0.9861897
vn -0.095419526 0.36771142 -0.92503154
vn -0.07986009 0.42994952 -0.89931405
vn -0.095419526 -0.0990746 -0.9904945
vn -0.07986009 0.7022414 -0.7074456
vn -0.07986009 0.7566998 -0.64886653
vn -0.08763981 0.90451527 -0.41733852
vn -0.048740983 0.95897365 -0.27927384
vn -0.0020623803 -0.5269618 -0.8498865
vn -0.0020623803 -0.5269618 -0.8498865
vn -0.0020623803 -0.5269618 -0.8498865
vn -0.0020623803 -0.5269618 -0.8498865
vn -0.2354554 0.1498779 0.960259
vn 0.044616222 0.009842157 0.9989557
vn 0.060175776 -0.17687225 0.98239255
vn -0.12653863 -0.285789 0.9499014
vn -0.095419526 0.03318143 0.99488395
vn 0.0057173967 0.98231304 -0.18715891
vn 0.029056668 0.9978725 -0.058362886
vn -0.0020623803 0.9667535 -0.25570196
vn -0.009842157 0.9667535 -0.2555208
vn -0.009842157 0.9667535 -0.2555208
vn 0.1146341 -0.985968 0.1213514
vn 0.12241387 -0.9392894 0.32054687
vn 0.12241387 -0.92372984 0.3629574
vn 0.060175776 -0.17687225 0.98239255
vn -0.12653863 -0.285789 0.9499014
vn -0.92785466 0.040961266 0.3706857
vn -0.92785466 0.040961266 0.3706857
vn -0.92785466 0.040961266 0.3706857
vn -0.92785466 0.040961266 0.3706857
vn -0.22767556 -0.2079913 0.95126414
vn -0.28213394 -0.08351505 0.95573306
vn 0.36358666 0.017621875 -0.9313937
vn 0.4491641 0.025401711 -0.8930881
vn -0.44550908 0.025401711 -0.894917
vn -0.3599316 0.017621875 -0.9328123
vn -0.95897365 0.072080255 -0.2741787
vn -0.92785466 0.07986009 -0.3642912
vn 0.9315096 0.07986009 -0.35484108
vn 0.95484895 0.072080255 -0.2882151
vn 0.92372984 0.1732173 -0.3416416
vn -0.92785466 0.1732173 -0.33027485
vn 0.6125392 0.3288126 -0.7188032
vn -0.61666393 0.3288126 -0.7152677
vn 0.029056668 -0.029056668 -0.99915534
vn 0.12241387 -0.10685438 -0.9867102
vn -0.12653863 -0.285789 0.9499014
vn -0.8733963 0.048740983 0.48456502
vn -0.095419526 0.03318143 0.99488395
vn -0.8733963 0.11875892 0.47230843
vn -0.90451527 -0.013497174 0.42622763
g MosinTurret_DefaultPart_CorpsePart_0
f 3/3/3 2/2/2 1/1/1
f 4/4/4 3/3/3 1/1/1
f 4/4/4 1/1/1 5/5/5
f 6/6/6 4/4/4 5/5/5
f 8/8/8 7/7/7 4/4/4
f 6/6/6 8/8/8 4/4/4
f 11/11/11 10/10/10 9/9/9
f 4/4/4 7/7/7 12/12/12
f 3/3/3 4/4/4 12/12/12
f 15/15/15 14/14/14 13/13/13
f 16/16/16 15/15/15 13/13/13
f 19/19/19 18/18/18 17/17/17
f 20/20/20 19/19/19 17/17/17
f 23/23/23 22/22/22 21/21/21
f 24/24/24 18/18/18 19/19/19
f 25/25/25 24/24/24 19/19/19
f 27/27/27 26/26/26 23/23/23
f 28/28/28 27/27/27 23/23/23
f 29/29/29 26/26/26 27/27/27
f 30/30/30 29/29/29 27/27/27
f 33/33/33 32/32/32 31/31/31
f 34/34/34 33/33/33 31/31/31
f 35/35/35 32/32/32 33/33/33
f 36/36/36 35/35/35 33/33/33
f 37/37/37 31/31/31 32/32/32
f 38/38/38 37/37/37 32/32/32
f 32/32/32 40/40/40 39/39/39
f 38/38/38 32/32/32 39/39/39
f 42/42/42 40/40/40 41/41/41
f 43/43/43 42/42/42 41/41/41
f 32/32/32 35/35/35 41/41/41
f 40/40/40 32/32/32 41/41/41
f 46/46/46 45/45/45 44/44/44
f 47/47/47 46/46/46 44/44/44
f 44/44/44 45/45/45 48/48/48
f 49/49/49 44/44/44 48/48/48
f 52/52/52 51/51/51 50/50/50
f 53/53/53 52/52/52 50/50/50
f 51/51/51 52/52/52 54/54/54
f 55/55/55 51/51/51 54/54/54
f 56/56/56 29/29/29 30/30/30
f 57/57/57 56/56/56 30/30/30
f 55/55/55 54/54/54 56/56/56
f 57/57/57 55/55/55 56/56/56
f 60/60/60 59/59/59 58/58/58
f 61/61/61 60/60/60 58/58/58
f 9/9/9 62/62/62 11/11/11
f 65/65/65 64/64/64 63/63/63
f 66/66/66 65/65/65 63/63/63
f 69/69/69 68/68/68 67/67/67
f 70/70/70 69/69/69 67/67/67
f 71/71/71 70/70/70 67/67/67
f 74/74/74 73/73/73 72/72/72
f 73/73/73 74/74/74 75/75/75
f 76/76/76 73/73/73 75/75/75
f 79/79/79 78/78/78 77/77/77
f 80/80/80 79/79/79 77/77/77
f 82/82/82 81/81/81 13/13/13
f 81/81/81 16/16/16 13/13/13
f 10/10/10 11/11/11 13/13/13
f 14/14/14 10/10/10 13/13/13
f 85/85/85 84/84/84 83/83/83
f 86/86/86 85/85/85 83/83/83
f 86/86/86 88/88/88 87/87/87
f 85/85/85 86/86/86 87/87/87
f 89/89/89 83/83/83 84/84/84
f 90/90/90 89/89/89 84/84/84
f 91/91/91 89/89/89 90/90/90
f 87/87/87 88/88/88 92/92/92
f 91/91/91 93/93/93 89/89/89
f 88/88/88 94/94/94 92/92/92
f 95/95/95 52/52/52 53/53/53
f 21/21/21 96/96/96 28/28/28
f 23/23/23 21/21/21 28/28/28
f 99/99/99 98/98/98 97/97/97
f 100/100/100 98/98/98 99/99/99
f 101/101/101 98/98/98 100/100/100
f 97/97/97 98/98/98 101/101/101
