g MosinTurret_02_CorpsePart
v 0.14159358 -0.6630391 0.57681036
v 0.004254937 -0.6630391 0.6609931
v 0.0040649176 -0.23801959 0.6546433
v 0.13604224 -0.23801959 0.5737686
v 0.14159358 -0.6630391 0.57681036
v 0.13737297 -0.6630391 0.41578364
v 3.4451485E-05 -0.6839137 0.49996614
v -0.13194287 -0.23801959 0.5808029
v -0.13730419 -0.6630391 0.58411074
v -0.1415627 -0.6630391 0.42308402
v -0.13597333 -0.23801959 0.42612576
v -0.13730419 -0.6630391 0.58411074
v 0.004254937 -0.6630391 0.6609931
v -0.1415627 -0.6630391 0.42308402
v -0.0040340424 -0.23801959 0.34525108
v -0.004224181 -0.6630391 0.33893943
v 0.13737297 -0.6630391 0.41578364
v 0.13197374 -0.23801959 0.4190917
v -0.004224181 -0.6630391 0.33893943
v -0.004224181 -0.6630391 0.33893943
v -0.0040340424 -0.23801959 0.34525108
v 0.0040649176 -0.15881789 0.6546433
v 0.13604224 -0.15881789 0.5737686
v -0.13597333 -0.15881789 0.42612576
v -0.13194287 -0.15881789 0.5808029
v 0.13197374 -0.15881789 0.4190917
v -0.0040340424 -0.15881789 0.34525108
v -0.0040340424 -0.15881789 0.34525108
v 0.049882412 -0.45912254 0.6105368
v 0.080718994 -0.5539895 0.6105368
v 0.080718994 -0.5539895 0.69319844
v 0.049882412 -0.45912254 0.69319844
v -0.049851537 -0.45912254 0.6105368
v 0.049882412 -0.45912254 0.6105368
v 0.049882412 -0.45912254 0.69319844
v -0.049851537 -0.45912254 0.69319844
v -0.08065009 -0.5539895 0.6105368
v -0.08065009 -0.5539895 0.69319844
v 3.4451485E-05 -0.61262083 0.6105368
v 3.4451485E-05 -0.61262083 0.69319844
v 0.049882412 -0.45912254 0.69319844
v 0.080718994 -0.5539895 0.69319844
v 3.4451485E-05 -0.61262083 0.69319844
v -0.049851537 -0.45912254 0.69319844
v -0.08065009 -0.5539895 0.69319844
v 0.15269625 -0.15866578 0.29950976
v 0.15269625 -0.15866578 0.18411028
v 0.18246818 -0.912241 0.17277944
v 0.18246818 -0.9127353 0.3108406
v 0.091251254 -0.91197485 0.10372996
v 0.091251254 -1.7342954 0.10372996
v 0.18246818 -1.7465386 0.17277944
v -0.1824373 -0.912241 0.17277944
v -0.1824373 -1.7465386 0.17277944
v -0.09122038 -1.7342954 0.10372996
v -0.09122038 -0.91197485 0.10372996
v 0.091251254 -1.7833068 0.37985206
v 0.091251254 -0.9130014 0.37985206
v 0.18246818 -1.7710634 0.3108406
v -0.07631552 -0.15866578 0.35719037
v -0.09122038 -0.9130014 0.37985206
v -0.1824373 -0.9127353 0.3108406
v -0.15266538 -0.15866578 0.29950976
v 0.07634628 -0.15866578 0.12642956
v -0.15266538 -0.15866578 0.18411028
v -0.09122038 -1.7833068 0.37985206
v 0.04851353 -1.7981737 0.3397379
v 0.091251254 -1.7833068 0.37985206
v 0.18246818 -1.7710634 0.3108406
v 0.1061182 -1.7875654 0.28125882
v -0.09122038 -1.7833068 0.37985206
v -0.04220891 -1.79863 0.34236145
v 0.10353267 -1.7721661 0.19608748
v 0.18246818 -1.7465386 0.17277944
v -0.1824373 -1.7465386 0.17277944
v -0.10608733 -1.7733067 0.20236135
v -0.048482776 -1.7627364 0.14384413
v -0.09122038 -1.7342954 0.10372996
v 0.042239785 -1.7622421 0.14125848
v 0.091251254 -1.7342954 0.10372996
v -0.10346377 -1.7887061 0.28753257
v -0.1824373 -1.7710634 0.3108406
v -0.1824373 -1.7710634 0.3108406
v 0.07634628 -0.15866578 0.35719037
v -0.07631552 -0.15866578 0.12642956
v -0.09122038 -0.91197485 0.10372996
v -0.09122038 -1.7342954 0.10372996
v -0.07631552 -0.15866578 0.12642956
v 0.1061182 -1.7875654 0.28125882
v 0.10353267 -1.7721661 0.19608748
v 3.4451485E-05 -0.2934569 0.24179101
v 0.04851353 -1.7981737 0.3397379
v -0.04220891 -1.79863 0.34236145
v 0.04851353 -1.7981737 0.3397379
v -0.10346377 -1.7887061 0.28753257
v 0.042239785 -1.7622421 0.14125848
v -0.048482776 -1.7627364 0.14384413
v -0.10608733 -1.7733067 0.20236135
v 0.051175237 -1.6907972 0.36251354
v -0.05114436 -1.6907972 0.36251354
v -0.05114436 -1.6907972 0.441221
v 0.051175237 -1.6907972 0.441221
v 0.059996486 -1.5397323 0.36251354
v 0.051175237 -1.6152457 0.5199282
v 0.051175237 -1.5397323 0.5199282
v 0.051175237 -1.5397323 0.5199282
v -0.05114436 -1.5397323 0.5199282
v -0.059927583 -1.5397323 0.36251354
v 0.059996486 -1.5397323 0.36251354
v -0.059927583 -1.5397323 0.36251354
v -0.05114436 -1.6152457 0.5199282
v -0.05114436 -1.6907972 0.441221
v 0.051175237 -1.5397323 0.5199282
v 0.051175237 -1.6152457 0.5199282
v -0.05114436 -1.6152457 0.5199282
v -0.05114436 -1.5397323 0.5199282
v 0.051175237 -1.6907972 0.441221
v -0.05114436 -1.6907972 0.441221
v -0.05114436 -1.6152457 0.5199282
v 0.051175237 -1.6152457 0.5199282
v 0.051175237 -1.6907972 0.441221
v 0.051175237 -1.6907972 0.36251354
v -0.05114436 -1.5397323 0.5199282
v -0.05114436 -1.6907972 0.36251354
v 0.0040649176 -0.15881789 0.6546433
v -0.13194287 -0.15881789 0.5808029
v -0.13597333 -0.15881789 0.42612576
v -0.0040340424 -0.15881789 0.34525108
v -0.07631552 -0.15866578 0.35719037
v -0.15266538 -0.15866578 0.29950976
v -0.15266538 -0.15866578 0.18411028
v -0.07631552 -0.15866578 0.12642956
v 0.13197374 -0.15881789 0.4190917
v 0.13604224 -0.15881789 0.5737686
v 0.07634628 -0.15866578 0.35719037
v 0.07634628 -0.15866578 0.12642956
v 0.15269625 -0.15866578 0.29950976
v 0.15269625 -0.15866578 0.18411028
vt 0.7307 0.6501084
vt 0.7307 0.6439184
vt 0.7464785 0.6439184
vt 0.7464785 0.6501084
vt 0.6985362 0.6513221
vt 0.6927103 0.6545992
vt 0.6985362 0.65787625
vt 0.7464785 0.6377284
vt 0.7307 0.6377284
vt 0.7307 0.631417
vt 0.7464785 0.631417
vt 0.7043621 0.66103196
vt 0.7043621 0.65447783
vt 0.6986576 0.664309
vt 0.7464785 0.6626098
vt 0.7307 0.6626098
vt 0.7307 0.6564198
vt 0.7464785 0.6564198
vt 0.6928317 0.6611534
vt 0.7307 0.625227
vt 0.7464785 0.62546974
vt 0.74939144 0.6439184
vt 0.74939144 0.6501084
vt 0.74939144 0.631417
vt 0.74939144 0.6377284
vt 0.74939144 0.6564198
vt 0.74939144 0.6626098
vt 0.74939144 0.625227
vt 0.7464785 0.72936493
vt 0.7464785 0.7258451
vt 0.7492701 0.7258451
vt 0.7492701 0.72936493
vt 0.7464785 0.7143147
vt 0.7464785 0.71043074
vt 0.7492701 0.71043074
vt 0.7492701 0.7143147
vt 0.7464785 0.7181986
vt 0.7492701 0.7181986
vt 0.7464785 0.72196114
vt 0.7492701 0.72196114
vt 0.7270588 0.6995072
vt 0.72972906 0.6970797
vt 0.7330061 0.6987789
vt 0.7286367 0.70278424
vt 0.7323992 0.70229876
vt 0.6487733 0.7481777
vt 0.65338546 0.7481777
vt 0.65338546 0.71358645
vt 0.6487733 0.71358645
vt 0.6575122 0.71358645
vt 0.6575122 0.6882195
vt 0.65338546 0.6882195
vt 0.6298391 0.71358645
vt 0.6298391 0.6882195
vt 0.62571245 0.6882195
vt 0.62571245 0.71358645
vt 0.64464664 0.6882195
vt 0.64464664 0.71358645
vt 0.6487733 0.6882195
vt 0.638578 0.7481777
vt 0.638578 0.71358645
vt 0.6343299 0.71358645
vt 0.6343299 0.7481777
vt 0.6575122 0.7481777
vt 0.6298391 0.7481777
vt 0.638578 0.6882195
vt 0.7013278 0.66697925
vt 0.69962853 0.66564417
vt 0.69635147 0.66831434
vt 0.6992644 0.66928536
vt 0.7069109 0.66564417
vt 0.7049689 0.6668579
vt 0.6992644 0.672441
vt 0.69635147 0.6735334
vt 0.7103094 0.673412
vt 0.7073964 0.67207694
vt 0.7052117 0.6742616
vt 0.7069109 0.67596084
vt 0.7015705 0.67450434
vt 0.69974995 0.67596084
vt 0.70727503 0.66892123
vt 0.710188 0.668193
vt 0.6343299 0.6882195
vt 0.64464664 0.7481777
vt 0.62571245 0.7481777
vt 0.6634594 0.71358645
vt 0.6634594 0.6882195
vt 0.6634594 0.7481777
vt 0.6532641 0.6840928
vt 0.6532641 0.6828791
vt 0.62571245 0.6811799
vt 0.6532641 0.6851852
vt 0.6532641 0.6770532
vt 0.6532641 0.6760822
vt 0.6532641 0.67826694
vt 0.6532641 0.6817867
vt 0.6532641 0.680573
vt 0.6532641 0.67935926
vt 0.68591344 0.6735334
vt 0.68081576 0.6735334
vt 0.68081576 0.6762036
vt 0.68591344 0.6762036
vt 0.6913752 0.6820295
vt 0.68591344 0.6794807
vt 0.68591344 0.6820295
vt 0.68591344 0.6820295
vt 0.68081576 0.6820295
vt 0.68045163 0.6872485
vt 0.6863989 0.6872485
vt 0.67547536 0.6820295
vt 0.68081576 0.6794807
vt 0.6781455 0.6769318
vt 0.68591344 0.6820295
vt 0.68591344 0.6794807
vt 0.68081576 0.6794807
vt 0.68081576 0.6820295
vt 0.68591344 0.6762036
vt 0.68081576 0.6762036
vt 0.68081576 0.6794807
vt 0.68591344 0.6794807
vt 0.68870497 0.6769318
vt 0.6913752 0.6769318
vt 0.68081576 0.6820295
vt 0.67547536 0.6769318
vt 0.74939144 0.6439184
vt 0.74939144 0.6377284
vt 0.74939144 0.631417
vt 0.74939144 0.625227
vt 0.638578 0.7481777
vt 0.6343299 0.7481777
vt 0.6298391 0.7481777
vt 0.62571245 0.7481777
vt 0.74939144 0.6564198
vt 0.74939144 0.6501084
vt 0.64464664 0.7481777
vt 0.6575122 0.7481777
vt 0.6487733 0.7481777
vt 0.65338546 0.7481777
vn 0.8823462 0.011764526 0.4704538
vn 0.0274508 0.011764526 0.9995539
vn 0.0274508 0.011764526 0.9995539
vn 0.8823462 0.011764526 0.4704538
vn 0.11372465 -0.9921493 0.052023727
vn 0.10588157 -0.9921493 -0.0665497
vn -0.003921509 -0.9999924 -0
vn -0.85097384 0.011764526 0.52507627
vn -0.85097384 0.011764526 0.52507627
vn -0.88234615 0.011764526 -0.47045392
vn -0.88234615 0.011764526 -0.47045392
vn -0.10588145 -0.9921493 0.06655016
vn 0.0039215684 -0.9921493 0.124997616
vn -0.11372459 -0.9921493 -0.052024297
vn -0.02745068 0.011764526 -0.9995539
vn -0.02745068 0.011764526 -0.9995539
vn 0.8509739 0.011764526 -0.5250762
vn 0.8509739 0.011764526 -0.5250762
vn -0.003921509 -0.9921493 -0.124997616
vn -0.02745068 0.011764526 -0.9995539
vn -0.02745068 0.011764526 -0.9995539
vn 0.0274508 0.003921509 0.9996155
vn 0.8823462 0.003921509 0.4705845
vn -0.88234615 0.003921509 -0.47058466
vn -0.85097384 0.003921509 0.5251934
vn 0.8509739 0.003921509 -0.52519333
vn -0.02745068 0.003921509 -0.9996155
vn -0.02745068 0.003921509 -0.9996155
vn 0.5842015 0.8116087 -0
vn 0.9510053 -0.30917457 -0
vn 0.9510053 -0.30917457 -0
vn 0.5842015 0.8116087 -0
vn -0.5842015 0.81160873 -0
vn 0.5842015 0.8116087 -0
vn 0.5842015 0.8116087 -0
vn -0.5842015 0.81160873 -0
vn -0.9510053 -0.30917463 -0
vn -0.9510053 -0.30917463 -0
vn -0.003921509 -0.9999924 -0
vn -0.003921509 -0.9999924 -0
vn -0.003921509 0.003921509 0.9999846
vn -0.003921509 0.003921509 0.9999846
vn -0.003921509 0.003921509 0.9999846
vn -0.003921509 0.003921509 0.9999846
vn -0.003921509 0.003921509 0.9999846
vn 0.9137185 0.043136835 0.40405157
vn 0.9137185 0.043136835 -0.40405157
vn 0.9137185 0.019607663 -0.40587434
vn 0.9137185 0.019607663 0.40587434
vn 0.24705696 0.011764526 -0.9689295
vn 0.25490004 0.003921509 -0.9669595
vn 0.93724775 0.003921509 -0.34864205
vn -0.91371846 0.019607663 -0.4058745
vn -0.93724763 0.003921509 -0.34864238
vn -0.25489998 0.003921509 -0.9669595
vn -0.24705684 0.011764526 -0.9689296
vn 0.2313708 0.003921509 0.9728577
vn 0.24705696 0.011764526 0.9689295
vn 0.8901893 0.003921509 0.455574
vn -0.23921382 0.035293818 0.97032523
vn -0.24705684 0.011764526 0.9689296
vn -0.91371846 0.019607663 0.4058745
vn -0.91371846 0.043136835 0.40405172
vn 0.23921388 0.035293818 -0.97032523
vn -0.91371846 0.043136835 -0.40405172
vn -0.23137069 0.003921509 0.9728578
vn 0.098038495 -0.96862006 0.22839352
vn 0.16078311 -0.97646314 0.14376566
vn 0.24705696 -0.96862006 -0.02716661
vn 0.24705696 -0.96862006 -0.02716661
vn -0.16078305 -0.97646314 0.14376566
vn -0.08235228 -0.960777 0.26481256
vn 0.2313708 -0.9294047 -0.28753164
vn 0.23921388 -0.93724775 -0.25366
vn -0.23921382 -0.93724775 -0.25366
vn -0.23921382 -0.93724775 -0.25366
vn -0.0901953 -0.858817 -0.5042799
vn -0.12941074 -0.8823462 -0.4524578
vn 0.07450926 -0.8509739 -0.519896
vn 0.13725388 -0.8823462 -0.45014057
vn -0.23921382 -0.96862006 -0.067467675
vn -0.24705684 -0.96862006 -0.027167708
vn -0.8901892 0.003921509 0.45557418
vn 0.23921388 0.035293818 0.97032523
vn -0.23921382 0.035293818 -0.97032523
vn -0.24705684 0.011764526 -0.9689296
vn -0.25489998 0.003921509 -0.9669595
vn -0.23921382 0.035293818 -0.97032523
vn -0.91371846 -0.07450926 -0.39945832
vn -0.9294046 -0.07450926 0.36146286
vn -0.003921509 -0.9921493 -0.124997616
vn -0.35685992 -0.07450926 -0.93118167
vn 0.30980158 -0.07450926 -0.9478773
vn -0.35685992 -0.07450926 -0.93118167
vn 0.8823462 -0.07450926 -0.46466497
vn -0.34117377 -0.07450926 0.9370426
vn 0.4039185 -0.07450926 0.91175556
vn 0.9529339 -0.07450926 0.2938798
vn -0.003921509 -0.9999924 -0
vn -0.003921509 -0.9999924 -0
vn -0.003921509 -0.9999924 -0
vn -0.003921509 -0.9999924 -0
vn 0.9993777 -0.035272185 -0
vn 0.9996234 -0.027440673 -0
vn 0.9999924 0.003921509 -0
vn -0.003921509 0.99999225 -0.00034526698
vn -0.003921509 0.99999225 -0.00034526698
vn -0.003921509 0.99999225 -0.00034526698
vn -0.003921509 0.99999225 -0.00034526698
vn -0.9993777 -0.03527219 -0
vn -0.9996234 -0.027440675 -0
vn -0.9990709 -0.04309721 -0
vn -0.003921509 0.003921509 0.9999846
vn -0.003921509 0.003921509 0.9999846
vn -0.003921509 0.003921509 0.9999846
vn -0.003921509 0.003921509 0.9999846
vn -0.003921509 -0.7176416 0.6964016
vn -0.003921509 -0.7176416 0.6964016
vn -0.003921509 -0.7176416 0.6964016
vn -0.003921509 -0.7176416 0.6964016
vn 0.9990709 -0.043097205 -0
vn 0.9982743 -0.05872205 -0
vn -0.99999225 0.003921509 -0.00034492963
vn -0.9982743 -0.058722056 -0
vn -0.003921509 0.99999225 -0.00034526698
vn -0.003921509 0.99999225 -0.00034526698
vn -0.003921509 0.99999225 -0.00034526698
vn -0.003921509 0.99999225 -0.00034526698
vn -0.003921509 0.99999225 -0.00034526698
vn 0.0039215684 0.99999225 -0.00034526698
vn 0.0039215684 0.99999225 -0.00034526698
vn -0.003921509 0.99999225 -0.00034526698
vn -0.003921509 0.99999225 -0.00034526698
vn -0.003921509 0.99999225 -0.00034526698
vn -0.003921509 0.99999225 -0.00034526698
vn -0.003921509 0.99999225 -0.00034526698
vn -0.003921509 0.99999225 -0.00034526698
vn -0.003921509 0.99999225 -0.00034526698
g MosinTurret_02_CorpsePart_0
f 3/3/3 2/2/2 1/1/1
f 4/4/4 3/3/3 1/1/1
f 7/7/7 6/6/6 5/5/5
f 10/10/10 9/9/9 8/8/8
f 11/11/11 10/10/10 8/8/8
f 9/9/9 2/2/2 3/3/3
f 8/8/8 9/9/9 3/3/3
f 7/7/7 13/13/13 12/12/12
f 14/14/14 7/7/7 12/12/12
f 17/17/17 16/16/16 15/15/15
f 18/18/18 17/17/17 15/15/15
f 7/7/7 19/19/19 6/6/6
f 20/20/20 10/10/10 11/11/11
f 21/21/21 20/20/20 11/11/11
f 22/22/22 3/3/3 4/4/4
f 23/23/23 22/22/22 4/4/4
f 24/24/24 11/11/11 8/8/8
f 25/25/25 24/24/24 8/8/8
f 25/25/25 8/8/8 3/3/3
f 22/22/22 25/25/25 3/3/3
f 23/23/23 4/4/4 18/18/18
f 26/26/26 23/23/23 18/18/18
f 26/26/26 18/18/18 15/15/15
f 27/27/27 26/26/26 15/15/15
f 28/28/28 21/21/21 11/11/11
f 24/24/24 28/28/28 11/11/11
f 17/17/17 18/18/18 4/4/4
f 1/1/1 17/17/17 4/4/4
f 13/13/13 7/7/7 5/5/5
f 19/19/19 7/7/7 14/14/14
f 31/31/31 30/30/30 29/29/29
f 32/32/32 31/31/31 29/29/29
f 35/35/35 34/34/34 33/33/33
f 36/36/36 35/35/35 33/33/33
f 36/36/36 33/33/33 37/37/37
f 38/38/38 36/36/36 37/37/37
f 38/38/38 37/37/37 39/39/39
f 40/40/40 38/38/38 39/39/39
f 40/40/40 39/39/39 30/30/30
f 31/31/31 40/40/40 30/30/30
f 43/43/43 42/42/42 41/41/41
f 41/41/41 44/44/44 43/43/43
f 44/44/44 45/45/45 43/43/43
f 48/48/48 47/47/47 46/46/46
f 49/49/49 48/48/48 46/46/46
f 52/52/52 51/51/51 50/50/50
f 48/48/48 52/52/52 50/50/50
f 55/55/55 54/54/54 53/53/53
f 56/56/56 55/55/55 53/53/53
f 49/49/49 58/58/58 57/57/57
f 59/59/59 49/49/49 57/57/57
f 62/62/62 61/61/61 60/60/60
f 63/63/63 62/62/62 60/60/60
f 48/48/48 50/50/50 64/64/64
f 47/47/47 48/48/48 64/64/64
f 62/62/62 63/63/63 65/65/65
f 53/53/53 62/62/62 65/65/65
f 66/66/66 57/57/57 58/58/58
f 61/61/61 66/66/66 58/58/58
f 69/69/69 68/68/68 67/67/67
f 70/70/70 69/69/69 67/67/67
f 67/67/67 68/68/68 71/71/71
f 72/72/72 67/67/67 71/71/71
f 69/69/69 70/70/70 73/73/73
f 74/74/74 69/69/69 73/73/73
f 77/77/77 76/76/76 75/75/75
f 78/78/78 77/77/77 75/75/75
f 80/80/80 79/79/79 77/77/77
f 78/78/78 80/80/80 77/77/77
f 75/75/75 76/76/76 81/81/81
f 82/82/82 75/75/75 81/81/81
f 83/83/83 66/66/66 61/61/61
f 62/62/62 83/83/83 61/61/61
f 49/49/49 46/46/46 84/84/84
f 58/58/58 49/49/49 84/84/84
f 53/53/53 65/65/65 85/85/85
f 56/56/56 53/53/53 85/85/85
f 81/81/81 72/72/72 71/71/71
f 82/82/82 81/81/81 71/71/71
f 80/80/80 74/74/74 73/73/73
f 79/79/79 80/80/80 73/73/73
f 51/51/51 87/87/87 86/86/86
f 50/50/50 51/51/51 86/86/86
f 54/54/54 83/83/83 62/62/62
f 53/53/53 54/54/54 62/62/62
f 49/49/49 59/59/59 52/52/52
f 48/48/48 49/49/49 52/52/52
f 84/84/84 60/60/60 61/61/61
f 58/58/58 84/84/84 61/61/61
f 88/88/88 64/64/64 50/50/50
f 86/86/86 88/88/88 50/50/50
f 91/91/91 90/90/90 89/89/89
f 92/92/92 91/91/91 89/89/89
f 91/91/91 94/94/94 93/93/93
f 95/95/95 91/91/91 93/93/93
f 91/91/91 97/97/97 96/96/96
f 90/90/90 91/91/91 96/96/96
f 91/91/91 95/95/95 98/98/98
f 91/91/91 98/98/98 97/97/97
f 101/101/101 100/100/100 99/99/99
f 102/102/102 101/101/101 99/99/99
f 105/105/105 104/104/104 103/103/103
f 108/108/108 107/107/107 106/106/106
f 109/109/109 108/108/108 106/106/106
f 112/112/112 111/111/111 110/110/110
f 115/115/115 114/114/114 113/113/113
f 116/116/116 115/115/115 113/113/113
f 119/119/119 118/118/118 117/117/117
f 120/120/120 119/119/119 117/117/117
f 122/122/122 103/103/103 121/121/121
f 104/104/104 121/121/121 103/103/103
f 123/123/123 110/110/110 111/111/111
f 124/124/124 112/112/112 110/110/110
f 127/127/127 126/126/126 125/125/125
f 128/128/128 127/127/127 125/125/125
f 131/131/131 130/130/130 129/129/129
f 132/132/132 131/131/131 129/129/129
f 133/133/133 128/128/128 125/125/125
f 134/134/134 133/133/133 125/125/125
f 132/132/132 129/129/129 135/135/135
f 136/136/136 132/132/132 135/135/135
f 136/136/136 135/135/135 137/137/137
f 138/138/138 136/136/136 137/137/137
