g MotoShassis_DefaultPart_2
v 35.055336 20.592636 -8.139824
v 35.12501 11.498241 -23.409706
v 34.79378 4.8403816 24.150429
v 34.79378 -20.77486 12.154274
v 35.055336 -6.054888 -20.620499
v 35.055336 20.592636 -8.139824
v 17.508638 4.8403816 24.150429
v 17.246012 20.592636 -8.139824
v 34.79378 4.8403816 24.150429
v 35.12501 11.498241 -23.409706
v 17.177406 11.498241 -23.409706
v 17.508638 4.8403816 24.150429
v 17.177406 11.498241 -23.409706
v 17.246012 20.592636 -8.139824
v 17.508638 -20.77486 12.154274
v 34.79378 4.8403816 24.150429
v 34.79378 -20.77486 12.154274
v 17.508638 4.8403816 24.150429
v 17.508638 -20.77486 12.154274
v 35.055336 -6.054888 -20.620499
v 17.246012 -6.054888 -20.620499
v 34.79378 -20.77486 12.154274
v 17.246012 -6.054888 -20.620499
v 17.508638 -20.77486 12.154274
v -35.055347 20.592636 -8.139824
v -34.79379 4.8403816 24.150429
v -35.12502 11.498241 -23.409706
v -34.79379 -20.77486 12.154274
v -35.055347 -6.054888 -20.620499
v -35.055347 20.592636 -8.139824
v -17.508648 4.8403816 24.150429
v -34.79379 4.8403816 24.150429
v -17.246021 20.592636 -8.139824
v -35.12502 11.498241 -23.409706
v -17.177414 11.498241 -23.409706
v -17.177414 11.498241 -23.409706
v -17.508648 4.8403816 24.150429
v -17.246021 20.592636 -8.139824
v -34.79379 4.8403816 24.150429
v -17.508648 -20.77486 12.154274
v -34.79379 -20.77486 12.154274
v -17.508648 4.8403816 24.150429
v -17.508648 -20.77486 12.154274
v -35.055347 -6.054888 -20.620499
v -34.79379 -20.77486 12.154274
v -17.246021 -6.054888 -20.620499
v -17.246021 -6.054888 -20.620499
v -17.508648 -20.77486 12.154274
vt 0.95295197 0.50048614
vt 0.94953895 0.50536186
vt 0.96514124 0.5009737
vt 0.9646537 0.5102376
vt 0.95295197 0.5102376
vt 0.99342036 0.52535224
vt 0.99927115 0.5375415
vt 0.99927115 0.52535224
vt 0.99342036 0.5375415
vt 0.99342036 0.5190138
vt 0.99927115 0.5190138
vt 0.8754282 0.51998895
vt 0.8832293 0.52242684
vt 0.881279 0.51998895
vt 0.88956773 0.5190138
vt 0.88517964 0.51072514
vt 0.88517964 0.5190138
vt 0.88956773 0.51072514
vt 0.99927115 0.50048614
vt 0.99342036 0.5126754
vt 0.99927115 0.5126754
vt 0.99342036 0.50048614
vt 0.881279 0.5248647
vt 0.8754282 0.5248647
vt 0.95295197 0.50048614
vt 0.96514124 0.5009737
vt 0.94953895 0.50536186
vt 0.9646537 0.5102376
vt 0.95295197 0.5102376
vt 0.99342036 0.52535224
vt 0.99927115 0.5375415
vt 0.99342036 0.5375415
vt 0.99927115 0.52535224
vt 0.99342036 0.5190138
vt 0.99927115 0.5190138
vt 0.8832293 0.52242684
vt 0.8754282 0.51998895
vt 0.881279 0.51998895
vt 0.88517964 0.51072514
vt 0.88956773 0.5190138
vt 0.88517964 0.5190138
vt 0.88956773 0.51072514
vt 0.99927115 0.50048614
vt 0.99342036 0.5126754
vt 0.99342036 0.50048614
vt 0.99927115 0.5126754
vt 0.881279 0.5248647
vt 0.8754282 0.5248647
vn 0.9999739 -0.003921449 0.006069259
vn 0.9999739 -0.003921449 0.006069259
vn 0.9999739 -0.003921449 0.006069259
vn 0.9999739 -0.003921449 0.006069259
vn 0.9999739 -0.003921449 0.006069259
vn -0.003921509 0.992131 0.12514274
vn -0.003921509 0.89801586 0.4399456
vn -0.003921509 0.992131 0.12514274
vn -0.003921509 0.89801586 0.4399456
vn -0.003921509 0.4274398 -0.9040353
vn -0.003921509 0.4274398 -0.9040353
vn -0.9999739 -0.003921449 0.006069259
vn -0.9999739 -0.003921449 0.006069259
vn -0.9999739 -0.003921449 0.006069259
vn -0.003921509 -0.4274398 0.9040353
vn -0.003921509 -0.4274398 0.9040353
vn -0.003921509 -0.4274398 0.9040353
vn -0.003921509 -0.4274398 0.9040353
vn -0.003921509 -0.91370165 -0.4063667
vn -0.003921509 -0.7411571 -0.6713202
vn -0.003921509 -0.7411571 -0.6713202
vn -0.003921509 -0.91370165 -0.4063667
vn -0.9999739 -0.003921449 0.006069259
vn -0.9999739 -0.003921449 0.006069259
vn -0.9999739 -0.003921449 0.006069259
vn -0.9999739 -0.003921449 0.006069259
vn -0.9999739 -0.003921449 0.006069259
vn -0.9999739 -0.003921449 0.006069259
vn -0.9999739 -0.003921449 0.006069259
vn -0.003921509 0.992131 0.12514274
vn -0.003921509 0.89801586 0.4399456
vn -0.003921509 0.89801586 0.4399456
vn -0.003921509 0.992131 0.12514274
vn -0.003921509 0.4274398 -0.9040353
vn -0.003921509 0.4274398 -0.9040353
vn 0.9999739 -0.003921449 0.006069259
vn 0.9999739 -0.003921449 0.006069259
vn 0.9999739 -0.003921449 0.006069259
vn -0.003921509 -0.4274398 0.9040353
vn -0.003921509 -0.4274398 0.9040353
vn -0.003921509 -0.4274398 0.9040353
vn -0.003921509 -0.4274398 0.9040353
vn -0.003921509 -0.91370165 -0.4063667
vn -0.003921509 -0.7411571 -0.6713202
vn -0.003921509 -0.91370165 -0.4063667
vn -0.003921509 -0.7411571 -0.6713202
vn 0.9999739 -0.003921449 0.006069259
vn 0.9999739 -0.003921449 0.006069259
g MotoShassis_DefaultPart_2_0
f 3/3/3 2/2/2 1/1/1
f 5/5/5 2/2/2 4/4/4
f 8/8/8 7/7/7 6/6/6
f 9/9/9 6/6/6 7/7/7
f 6/6/6 10/10/10 8/8/8
f 11/11/11 8/8/8 10/10/10
f 14/14/14 13/13/13 12/12/12
f 17/17/17 16/16/16 15/15/15
f 18/18/18 15/15/15 16/16/16
f 21/21/21 20/20/20 19/19/19
f 22/22/22 19/19/19 20/20/20
f 11/11/11 10/10/10 21/21/21
f 20/20/20 21/21/21 10/10/10
f 24/24/24 13/13/13 23/23/23
f 12/12/12 13/13/13 24/24/24
f 4/4/4 2/2/2 3/3/3
f 27/27/27 26/26/26 25/25/25
f 29/29/29 28/28/28 27/27/27
f 32/32/32 31/31/31 30/30/30
f 33/33/33 30/30/30 31/31/31
f 35/35/35 34/34/34 33/33/33
f 30/30/30 33/33/33 34/34/34
f 38/38/38 37/37/37 36/36/36
f 41/41/41 40/40/40 39/39/39
f 42/42/42 39/39/39 40/40/40
f 45/45/45 44/44/44 43/43/43
f 46/46/46 43/43/43 44/44/44
f 44/44/44 34/34/34 46/46/46
f 35/35/35 46/46/46 34/34/34
f 36/36/36 48/48/48 47/47/47
f 26/26/26 27/27/27 28/28/28
f 48/48/48 36/36/36 37/37/37
