g MotoShassi_04
v 0.32628143 -0.0025257468 -0.13341714
v 0.19673471 -0.12229709 -0.053390265
v 0.32628143 -0.12229709 -0.053390265
v 0.19673471 -0.0025257468 -0.13341714
v 0.19673471 -0.09419882 0.087884516
v 0.32628143 -0.09419882 0.087884516
v 0.19673471 0.4087637 0.036949813
v 0.32628143 0.4087637 0.036949813
v 0.32628143 0.4087637 0.036949813
v 0.32628143 -0.09419882 0.087884516
v 0.32628143 0.31709063 0.25825143
v 0.32628143 -0.0025257468 -0.13341714
v 0.19673471 0.31709063 0.25825143
v 0.19673471 -0.0025257468 -0.13341714
v 0.19673471 0.4087637 0.036949813
v 0.19673471 -0.09419882 0.087884516
v 0.32628143 0.31709063 0.25825143
v 0.19673471 0.31709063 0.25825143
v 0.32628143 -0.12229709 -0.053390265
v 0.19673471 -0.12229709 -0.053390265
v -0.3262813 -0.0025257468 -0.13341714
v -0.1967346 -0.12229709 -0.053390265
v -0.1967346 -0.0025257468 -0.13341714
v -0.3262813 -0.12229709 -0.053390265
v -0.1967346 -0.09419882 0.087884516
v -0.3262813 -0.09419882 0.087884516
v -0.1967346 0.4087637 0.036949813
v -0.3262813 0.4087637 0.036949813
v -0.3262813 0.4087637 0.036949813
v -0.3262813 -0.09419882 0.087884516
v -0.3262813 -0.0025257468 -0.13341714
v -0.3262813 0.31709063 0.25825143
v -0.1967346 0.31709063 0.25825143
v -0.1967346 -0.0025257468 -0.13341714
v -0.1967346 -0.09419882 0.087884516
v -0.1967346 0.4087637 0.036949813
v -0.3262813 0.31709063 0.25825143
v -0.1967346 0.31709063 0.25825143
v -0.3262813 -0.12229709 -0.053390265
v -0.1967346 -0.12229709 -0.053390265
v 0.3575368 0.007869333 0.07517421
v -0.35753667 -0.06571469 0.04470226
v -0.35753667 0.007869333 0.07517421
v 0.3575368 -0.06571469 0.04470226
v 0.3575368 0.07104659 0.026695043
v -0.35753667 0.07104659 0.026695043
v 0.3575368 0.06065151 -0.052256048
v -0.35753667 0.06065151 -0.052256048
v 0.3575368 -0.012920827 -0.08273968
v -0.35753667 -0.012920827 -0.08273968
v 0.3575368 -0.07610977 -0.03426054
v -0.35753667 -0.07610977 -0.03426054
v -0.35753667 -0.07610977 -0.03426054
v 0.3575368 -0.07610977 -0.03426054
v 0.3575368 0.007869333 0.07517421
v 0.3575368 -0.07610977 -0.03426054
v 0.3575368 -0.06571469 0.04470226
v 0.3575368 0.06065151 -0.052256048
v 0.3575368 -0.012920827 -0.08273968
v 0.3575368 0.07104659 0.026695043
v -0.35753667 -0.07610977 -0.03426054
v -0.35753667 0.007869333 0.07517421
v -0.35753667 -0.06571469 0.04470226
v -0.35753667 0.06065151 -0.052256048
v -0.35753667 0.07104659 0.026695043
v -0.35753667 -0.012920827 -0.08273968
vt 0.9703209 0.62457556
vt 0.96558464 0.6203129
vt 0.96558464 0.62457556
vt 0.9703209 0.6203129
vt 0.96084845 0.6203129
vt 0.96084845 0.62457556
vt 0.98500323 0.6203129
vt 0.98500323 0.62457556
vt 0.88364774 0.5180102
vt 0.87559617 0.5033279
vt 0.87559617 0.5180102
vt 0.88364774 0.5033279
vt 0.88506866 0.50048614
vt 0.8893312 0.5080641
vt 0.8888576 0.50048614
vt 0.88506866 0.5080641
vt 0.94616604 0.62457556
vt 0.94616604 0.6203129
vt 0.8793851 0.50048614
vt 0.8869631 0.509485
vt 0.9703209 0.62457556
vt 0.96558464 0.6203129
vt 0.9703209 0.6203129
vt 0.96558464 0.62457556
vt 0.96084845 0.6203129
vt 0.96084845 0.62457556
vt 0.98500323 0.6203129
vt 0.98500323 0.62457556
vt 0.88364774 0.5180102
vt 0.87559617 0.5033279
vt 0.88364774 0.5033279
vt 0.87559617 0.5180102
vt 0.88506866 0.50048614
vt 0.8893312 0.5080641
vt 0.88506866 0.5080641
vt 0.8888576 0.50048614
vt 0.94616604 0.62457556
vt 0.94616604 0.6203129
vt 0.8793851 0.50048614
vt 0.8869631 0.509485
vt 0.9527968 0.5213256
vt 0.9504287 0.5213256
vt 0.9527968 0.5213256
vt 0.9504287 0.5213256
vt 0.9546913 0.5213256
vt 0.9546913 0.5213256
vt 0.95658576 0.5213256
vt 0.95658576 0.5213256
vt 0.9589539 0.5213256
vt 0.9589539 0.5213256
vt 0.96084845 0.5213256
vt 0.96084845 0.5213256
vt 0.9485342 0.5213256
vt 0.9485342 0.5213256
vt 0.92532665 0.5871593
vt 0.9224849 0.58337027
vt 0.9229585 0.58621204
vt 0.9272211 0.58289665
vt 0.92437935 0.5819494
vt 0.9272211 0.5852648
vt 0.9224849 0.58337027
vt 0.92532665 0.5871593
vt 0.9229585 0.58621204
vt 0.9272211 0.58289665
vt 0.9272211 0.5852648
vt 0.92437935 0.5819494
vn -0.003921509 0.16862607 -0.9856723
vn -0.003921509 -0.9215616 -0.38821238
vn -0.003921509 -0.9215616 -0.38821238
vn -0.003921509 0.16862607 -0.9856723
vn -0.003921509 -0.5764662 0.81711155
vn -0.003921509 -0.5764662 0.81711155
vn -0.003921509 0.3803892 -0.9248182
vn -0.003921509 0.3803892 -0.9248182
vn 0.9999924 0.003921509 -0
vn 0.9999924 0.003921509 -0
vn 0.9999924 0.003921509 -0
vn 0.9999924 0.003921509 -0
vn -0.99999225 0.003921509 -0.00034492963
vn -0.99999225 0.003921509 -0.00034492963
vn -0.99999225 0.003921509 -0.00034492963
vn -0.99999225 0.003921509 -0.00034492963
vn -0.003921509 -0.38038927 0.92481816
vn -0.003921509 -0.38038927 0.92481816
vn 0.9999924 0.003921509 -0
vn -0.99999225 0.003921509 -0.00034492963
vn -0.003921509 0.16862607 -0.9856723
vn -0.003921509 -0.9215616 -0.38821238
vn -0.003921509 0.16862607 -0.9856723
vn -0.003921509 -0.9215616 -0.38821238
vn -0.003921509 -0.5764662 0.81711155
vn -0.003921509 -0.5764662 0.81711155
vn -0.003921509 0.3803892 -0.9248182
vn -0.003921509 0.3803892 -0.9248182
vn -0.99999225 0.003921509 -0.00034492963
vn -0.99999225 0.003921509 -0.00034492963
vn -0.99999225 0.003921509 -0.00034492963
vn -0.99999225 0.003921509 -0.00034492963
vn 0.9999924 0.003921509 -0
vn 0.9999924 0.003921509 -0
vn 0.9999924 0.003921509 -0
vn 0.9999924 0.003921509 -0
vn -0.003921509 -0.38038927 0.92481816
vn -0.003921509 -0.38038927 0.92481816
vn -0.99999225 0.003921509 -0.00034492963
vn 0.9999924 0.003921509 -0
vn -0.003921509 0.12941074 0.99158335
vn -0.003921509 -0.79607236 0.6051888
vn -0.003921509 0.12941074 0.99158335
vn -0.003921509 -0.79607236 0.6051888
vn -0.003921509 0.9215615 0.38821262
vn -0.003921509 0.9215615 0.38821262
vn -0.003921509 0.79607224 -0.6051889
vn -0.003921509 0.79607224 -0.6051889
vn -0.003921509 -0.1294108 -0.9915833
vn -0.003921509 -0.1294108 -0.9915833
vn -0.003921509 -0.9215616 -0.38821238
vn -0.003921509 -0.9215616 -0.38821238
vn -0.003921509 -0.9215616 -0.38821238
vn -0.003921509 -0.9215616 -0.38821238
vn 0.9999924 0.003921509 -0
vn 0.9999924 0.003921509 -0
vn 0.9999924 0.003921509 -0
vn 0.9999924 0.003921509 -0
vn 0.9999924 0.003921509 -0
vn 0.9999924 0.003921509 -0
vn -0.99999225 0.003921509 -0.00034492963
vn -0.99999225 0.003921509 -0.00034492963
vn -0.99999225 0.003921509 -0.00034492963
vn -0.99999225 0.003921509 -0.00034492963
vn -0.99999225 0.003921509 -0.00034492963
vn -0.99999225 0.003921509 -0.00034492963
g MotoShassi_04_0
f 3/3/3 2/2/2 1/1/1
f 4/4/4 1/1/1 2/2/2
f 6/6/6 5/5/5 3/3/3
f 2/2/2 3/3/3 5/5/5
f 8/8/8 1/1/1 7/7/7
f 4/4/4 7/7/7 1/1/1
f 11/11/11 10/10/10 9/9/9
f 12/12/12 9/9/9 10/10/10
f 15/15/15 14/14/14 13/13/13
f 16/16/16 13/13/13 14/14/14
f 18/18/18 5/5/5 17/17/17
f 6/6/6 17/17/17 5/5/5
f 12/12/12 10/10/10 19/19/19
f 16/16/16 14/14/14 20/20/20
f 23/23/23 22/22/22 21/21/21
f 24/24/24 21/21/21 22/22/22
f 22/22/22 25/25/25 24/24/24
f 26/26/26 24/24/24 25/25/25
f 23/23/23 21/21/21 27/27/27
f 28/28/28 27/27/27 21/21/21
f 31/31/31 30/30/30 29/29/29
f 32/32/32 29/29/29 30/30/30
f 35/35/35 34/34/34 33/33/33
f 36/36/36 33/33/33 34/34/34
f 26/26/26 25/25/25 37/37/37
f 38/38/38 37/37/37 25/25/25
f 31/31/31 39/39/39 30/30/30
f 35/35/35 40/40/40 34/34/34
f 43/43/43 42/42/42 41/41/41
f 44/44/44 41/41/41 42/42/42
f 46/46/46 43/43/43 45/45/45
f 41/41/41 45/45/45 43/43/43
f 48/48/48 46/46/46 47/47/47
f 45/45/45 47/47/47 46/46/46
f 50/50/50 48/48/48 49/49/49
f 47/47/47 49/49/49 48/48/48
f 52/52/52 50/50/50 51/51/51
f 49/49/49 51/51/51 50/50/50
f 42/42/42 53/53/53 44/44/44
f 54/54/54 44/44/44 53/53/53
f 57/57/57 56/56/56 55/55/55
f 59/59/59 58/58/58 56/56/56
f 56/56/56 58/58/58 55/55/55
f 55/55/55 58/58/58 60/60/60
f 63/63/63 62/62/62 61/61/61
f 65/65/65 64/64/64 62/62/62
f 62/62/62 64/64/64 61/61/61
f 64/64/64 66/66/66 61/61/61
