g MotoShassi_02
v 0.44004524 0.78594524 0.7887172
v 2.2649765E-06 0.78594524 0.7887172
v 2.2649765E-06 0.57058316 0.3578874
v 0.44004524 0.57058316 0.3578874
v 0.44004524 0.57058316 0.3578874
v 0.44004524 0.13938385 0.3578874
v 0.44004524 0.32562798 0.7887172
v 0.44004524 0.78594524 0.7887172
v 2.2649765E-06 0.57058316 0.3578874
v 2.2649765E-06 0.13938385 0.3578874
v 0.44004524 0.13938385 0.3578874
v 0.44004524 0.57058316 0.3578874
v -0.4400407 0.78594524 0.7887172
v -0.4400407 0.57058316 0.3578874
v -0.4400407 0.57058316 0.3578874
v -0.4400407 0.78594524 0.7887172
v -0.4400407 0.32562798 0.7887172
v -0.4400407 0.13938385 0.3578874
v -0.4400407 0.57058316 0.3578874
v -0.4400407 0.13938385 0.3578874
v 0.01927343 0.29780352 0.81635684
v 0.016369551 0.2417059 0.65363413
v 0.016369551 1.1056094 0.65363413
v 0.04509154 0.9442858 1.0448656
v 0.04509154 1.2447314 1.0448656
v 0.4525055 0.3004434 0.81635684
v 0.45614856 0.2417059 0.65363413
v 0.45614856 1.1056094 0.65363413
v 0.4336831 0.9364453 1.0213969
v 0.4336567 1.2447314 1.0213969
v 0.045540333 1.1056094 0.65363413
v 0.045540333 0.2417059 0.65363413
v 0.04918337 0.3004434 0.81635684
v 0.068032175 0.9364453 1.0213969
v 0.068032175 1.2447314 1.0213969
v 0.04509154 1.2447314 1.0448656
v 0.068032175 1.2447314 1.0213969
v 0.4336567 1.2447314 1.0213969
v 0.45659733 1.2447314 1.0448656
v 0.45614856 1.1056094 0.65363413
v 0.48531932 1.1056094 0.65363413
v 0.48531932 0.2417059 0.65363413
v 0.48531932 1.1056094 0.65363413
v 0.45614856 1.1056094 0.65363413
v 0.45614856 0.2417059 0.65363413
v 0.45659733 0.9442858 1.0448656
v 0.04509154 0.9442858 1.0448656
v 0.04509154 1.2447314 1.0448656
v 0.45659733 1.2447314 1.0448656
v 0.068032175 0.9364453 1.0213969
v 0.4336831 0.9364453 1.0213969
v 0.4336567 1.2447314 1.0213969
v 0.068032175 1.2447314 1.0213969
v 0.016369551 1.1056094 0.65363413
v 0.016369551 0.2417059 0.65363413
v 0.045540333 0.2417059 0.65363413
v 0.045540333 1.1056094 0.65363413
v 0.48531932 1.1056094 0.65363413
v 0.48531932 0.2417059 0.65363413
v 0.48241544 0.29780352 0.81635684
v 0.45659733 0.9442858 1.0448656
v 0.45659733 1.2447314 1.0448656
v 0.016369551 1.1056094 0.65363413
v 0.045540333 1.1056094 0.65363413
v -0.016365051 1.1056094 0.65363413
v -0.016365051 0.2417059 0.65363413
v -0.01926893 0.29780352 0.81635684
v -0.04508704 0.9442858 1.0448656
v -0.04508704 1.2447314 1.0448656
v -0.45614403 1.1056094 0.65363413
v -0.45614403 0.2417059 0.65363413
v -0.452501 0.3004434 0.81635684
v -0.43367863 0.9364453 1.0213969
v -0.43367863 1.2447314 1.0213969
v -0.04917884 0.3004434 0.81635684
v -0.045535803 0.2417059 0.65363413
v -0.045535803 1.1056094 0.65363413
v -0.068027675 0.9364453 1.0213969
v -0.068027675 1.2447314 1.0213969
v -0.43367863 1.2447314 1.0213969
v -0.068027675 1.2447314 1.0213969
v -0.04508704 1.2447314 1.0448656
v -0.45659286 1.2447314 1.0448656
v -0.4853148 1.1056094 0.65363413
v -0.45614403 1.1056094 0.65363413
v -0.4853148 0.2417059 0.65363413
v -0.45614403 0.2417059 0.65363413
v -0.45614403 1.1056094 0.65363413
v -0.4853148 1.1056094 0.65363413
v -0.04508704 0.9442858 1.0448656
v -0.45659286 0.9442858 1.0448656
v -0.45659286 1.2447314 1.0448656
v -0.04508704 1.2447314 1.0448656
v -0.43367863 0.9364453 1.0213969
v -0.068027675 0.9364453 1.0213969
v -0.068027675 1.2447314 1.0213969
v -0.43367863 1.2447314 1.0213969
v -0.016365051 1.1056094 0.65363413
v -0.045535803 1.1056094 0.65363413
v -0.045535803 0.2417059 0.65363413
v -0.016365051 0.2417059 0.65363413
v -0.4824109 0.29780352 0.81635684
v -0.4853148 0.2417059 0.65363413
v -0.4853148 1.1056094 0.65363413
v -0.45659286 0.9442858 1.0448656
v -0.45659286 1.2447314 1.0448656
v -0.016365051 1.1056094 0.65363413
v -0.045535803 1.1056094 0.65363413
v 0.075951844 0.8283947 0.9531295
v 0.10467383 0.6677311 0.6353397
v 0.10467383 1.1580639 0.635366
v 0.075951844 1.04212 0.9531295
v 0.39659268 0.8283947 0.9531295
v 0.3741008 0.67961055 0.65883464
v 0.3741008 1.1580639 0.65883464
v 0.39659268 1.04212 0.9531295
v 0.105122596 0.8283947 0.9531295
v 0.105122596 1.04212 0.9531295
v 0.12758806 1.1580639 0.65883464
v 0.12758806 0.67961055 0.65883464
v 0.3741008 1.1580639 0.65883464
v 0.12758806 1.1580639 0.65883464
v 0.10467383 1.1580639 0.635366
v 0.39704144 1.1580639 0.635366
v 0.42576343 1.04212 0.9531295
v 0.39659268 1.04212 0.9531295
v 0.42576343 0.8283947 0.9531295
v 0.39659268 0.8283947 0.9531295
v 0.39659268 1.04212 0.9531295
v 0.42576343 1.04212 0.9531295
v 0.105122596 1.04212 0.9531295
v 0.075951844 1.04212 0.9531295
v 0.39704144 1.1580639 0.635366
v 0.39704144 0.6677311 0.6353397
v 0.42576343 0.8283947 0.9531295
v 0.42576343 1.04212 0.9531295
v 0.39704144 1.1580639 0.635366
v 0.10467383 1.1580639 0.635366
v 0.10467383 0.6677311 0.6353397
v 0.39704144 0.6677311 0.6353397
v 0.12758806 1.1580639 0.65883464
v 0.3741008 1.1580639 0.65883464
v 0.3741008 0.67961055 0.65883464
v 0.12758806 0.67961055 0.65883464
v 0.075951844 1.04212 0.9531295
v 0.105122596 1.04212 0.9531295
v 0.105122596 0.8283947 0.9531295
v 0.075951844 0.8283947 0.9531295
v -0.10466933 0.6677311 0.6353397
v -0.075947344 0.8283947 0.9531295
v -0.075947344 1.04212 0.9531295
v -0.10466933 1.1580639 0.635366
v -0.37409633 0.67961055 0.65883464
v -0.39658815 0.8283947 0.9531295
v -0.39658815 1.04212 0.9531295
v -0.37409633 1.1580639 0.65883464
v -0.12758356 1.1580639 0.65883464
v -0.105118096 1.04212 0.9531295
v -0.105118096 0.8283947 0.9531295
v -0.12758356 0.67961055 0.65883464
v -0.10466933 1.1580639 0.635366
v -0.12758356 1.1580639 0.65883464
v -0.37409633 1.1580639 0.65883464
v -0.39703697 1.1580639 0.635366
v -0.39658815 1.04212 0.9531295
v -0.42575896 1.04212 0.9531295
v -0.42575896 0.8283947 0.9531295
v -0.42575896 1.04212 0.9531295
v -0.39658815 1.04212 0.9531295
v -0.39658815 0.8283947 0.9531295
v -0.075947344 1.04212 0.9531295
v -0.105118096 1.04212 0.9531295
v -0.42575896 0.8283947 0.9531295
v -0.39703697 0.6677311 0.6353397
v -0.39703697 1.1580639 0.635366
v -0.42575896 1.04212 0.9531295
v -0.10466933 1.1580639 0.635366
v -0.39703697 1.1580639 0.635366
v -0.39703697 0.6677311 0.6353397
v -0.10466933 0.6677311 0.6353397
v -0.37409633 1.1580639 0.65883464
v -0.12758356 1.1580639 0.65883464
v -0.12758356 0.67961055 0.65883464
v -0.37409633 0.67961055 0.65883464
v -0.075947344 1.04212 0.9531295
v -0.075947344 0.8283947 0.9531295
v -0.105118096 0.8283947 0.9531295
v -0.105118096 1.04212 0.9531295
v 0.3674219 0.80637807 0.42985076
v 0.3674219 0.5851026 0.42985076
v 0.3674219 0.687187 0.62195545
v 0.3674219 1.0217402 0.62195545
v 0.3674219 1.0217402 0.62195545
v 0.13426697 1.0217402 0.62195545
v 0.13426697 0.80637807 0.42985076
v 0.3674219 0.80637807 0.42985076
v 0.13426697 0.80637807 0.42985076
v 0.13426697 1.0217402 0.62195545
v 0.13426697 0.687187 0.62195545
v 0.13426697 0.5851026 0.42985076
v 0.3674219 0.80637807 0.42985076
v 0.13426697 0.80637807 0.42985076
v 0.13426697 0.5851026 0.42985076
v 0.3674219 0.5851026 0.42985076
v -0.3674174 0.80637807 0.42985076
v -0.3674174 1.0217402 0.62195545
v -0.3674174 0.687187 0.62195545
v -0.3674174 0.5851026 0.42985076
v -0.3674174 1.0217402 0.62195545
v -0.3674174 0.80637807 0.42985076
v -0.13428885 0.80637807 0.42985076
v -0.13428885 1.0217402 0.62195545
v -0.13428885 0.80637807 0.42985076
v -0.13428885 0.5851026 0.42985076
v -0.13428885 0.687187 0.62195545
v -0.13428885 1.0217402 0.62195545
v -0.3674174 0.80637807 0.42985076
v -0.3674174 0.5851026 0.42985076
v -0.13428885 0.5851026 0.42985076
v -0.13428885 0.80637807 0.42985076
vt 0.97651345 0.5731583
vt 0.97651345 0.5843762
vt 0.98870677 0.5843762
vt 0.98870677 0.5731583
vt 0.98870677 0.5731583
vt 0.9935841 0.56340367
vt 0.9818785 0.5629159
vt 0.97651345 0.5731583
vt 0.98870677 0.5843762
vt 0.9994369 0.5843762
vt 0.9994369 0.5731583
vt 0.98870677 0.5731583
vt 0.97651345 0.5731583
vt 0.98870677 0.5731583
vt 0.98870677 0.5731583
vt 0.97651345 0.5731583
vt 0.9818785 0.5629159
vt 0.9935841 0.56340367
vt 0.98870677 0.5731583
vt 0.9994369 0.5731583
vt 0.88140553 0.5848639
vt 0.87604046 0.582913
vt 0.87604046 0.60876286
vt 0.8892093 0.6033978
vt 0.8892093 0.6136402
vt 0.95554096 0.58974123
vt 0.95700413 0.5858394
vt 0.93505615 0.5858394
vt 0.93944573 0.5951063
vt 0.93164206 0.5951063
vt 0.93505615 0.6136402
vt 0.95700413 0.6136402
vt 0.95554096 0.6097383
vt 0.93944573 0.6043732
vt 0.93164206 0.6043732
vt 0.9433476 0.5931554
vt 0.94432306 0.5941309
vt 0.9565164 0.5941309
vt 0.9574919 0.5931554
vt 0.9579796 0.6072996
vt 0.95895505 0.6068119
vt 0.99602276 0.539017
vt 0.99602276 0.56779325
vt 0.99699825 0.56779325
vt 0.99699825 0.539017
vt 0.9033535 0.6033978
vt 0.8892093 0.6033978
vt 0.8892093 0.6136402
vt 0.9033535 0.6136402
vt 0.93944573 0.6043732
vt 0.93944573 0.5951063
vt 0.93164206 0.5951063
vt 0.93164206 0.6043732
vt 0.9994369 0.56779325
vt 0.9994369 0.539017
vt 0.9984614 0.539017
vt 0.9984614 0.56779325
vt 0.91652226 0.60876286
vt 0.91652226 0.582913
vt 0.91115725 0.5848639
vt 0.9033535 0.6033978
vt 0.9033535 0.6136402
vt 0.9418844 0.6068119
vt 0.9428599 0.6072996
vt 0.87604046 0.60876286
vt 0.87604046 0.582913
vt 0.88140553 0.5848639
vt 0.8892093 0.6033978
vt 0.8892093 0.6136402
vt 0.93505615 0.5858394
vt 0.95700413 0.5858394
vt 0.95554096 0.58974123
vt 0.93944573 0.5951063
vt 0.93164206 0.5951063
vt 0.95554096 0.6097383
vt 0.95700413 0.6136402
vt 0.93505615 0.6136402
vt 0.93944573 0.6043732
vt 0.93164206 0.6043732
vt 0.9565164 0.5941309
vt 0.94432306 0.5941309
vt 0.9433476 0.5931554
vt 0.9574919 0.5931554
vt 0.95895505 0.6068119
vt 0.9579796 0.6072996
vt 0.99602276 0.539017
vt 0.99699825 0.539017
vt 0.99699825 0.56779325
vt 0.99602276 0.56779325
vt 0.8892093 0.6033978
vt 0.9033535 0.6033978
vt 0.9033535 0.6136402
vt 0.8892093 0.6136402
vt 0.93944573 0.5951063
vt 0.93944573 0.6043732
vt 0.93164206 0.6043732
vt 0.93164206 0.5951063
vt 0.9994369 0.56779325
vt 0.9984614 0.56779325
vt 0.9984614 0.539017
vt 0.9994369 0.539017
vt 0.91115725 0.5848639
vt 0.91652226 0.582913
vt 0.91652226 0.60876286
vt 0.9033535 0.6033978
vt 0.9033535 0.6136402
vt 0.9418844 0.6068119
vt 0.9428599 0.6072996
vt 0.98041534 0.50048614
vt 0.9750503 0.5112163
vt 0.9916332 0.5112163
vt 0.98773134 0.50048614
vt 0.87604046 0.57169515
vt 0.88335645 0.57510924
vt 0.88335645 0.5629159
vt 0.87604046 0.56584233
vt 0.89750075 0.57169515
vt 0.89750075 0.56584233
vt 0.88969696 0.5629159
vt 0.88969696 0.57510924
vt 0.98773134 0.6068119
vt 0.99602276 0.6068119
vt 0.99699825 0.6063242
vt 0.9872436 0.60583645
vt 0.9852927 0.617542
vt 0.9862681 0.617542
vt 0.9638324 0.5195077
vt 0.96480787 0.5195077
vt 0.96480787 0.5121917
vt 0.9638324 0.5121917
vt 0.997486 0.617542
vt 0.9984614 0.617542
vt 0.9916332 0.5214586
vt 0.9750503 0.5214586
vt 0.98041534 0.5326765
vt 0.98773134 0.5326765
vt 0.9916332 0.5214586
vt 0.9916332 0.5112163
vt 0.9750503 0.5112163
vt 0.9750503 0.5214586
vt 0.88969696 0.5629159
vt 0.88335645 0.5629159
vt 0.88335645 0.57510924
vt 0.88969696 0.57510924
vt 0.95993054 0.5234096
vt 0.95993054 0.5224341
vt 0.95261455 0.5224341
vt 0.95261455 0.5234096
vt 0.9750503 0.5112163
vt 0.98041534 0.50048614
vt 0.98773134 0.50048614
vt 0.9916332 0.5112163
vt 0.88335645 0.57510924
vt 0.87604046 0.57169515
vt 0.87604046 0.56584233
vt 0.88335645 0.5629159
vt 0.88969696 0.5629159
vt 0.89750075 0.56584233
vt 0.89750075 0.57169515
vt 0.88969696 0.57510924
vt 0.99699825 0.6063242
vt 0.99602276 0.6068119
vt 0.98773134 0.6068119
vt 0.9872436 0.60583645
vt 0.9862681 0.617542
vt 0.9852927 0.617542
vt 0.9638324 0.5195077
vt 0.9638324 0.5121917
vt 0.96480787 0.5121917
vt 0.96480787 0.5195077
vt 0.9984614 0.617542
vt 0.997486 0.617542
vt 0.98041534 0.5326765
vt 0.9750503 0.5214586
vt 0.9916332 0.5214586
vt 0.98773134 0.5326765
vt 0.9916332 0.5112163
vt 0.9916332 0.5214586
vt 0.9750503 0.5214586
vt 0.9750503 0.5112163
vt 0.88335645 0.5629159
vt 0.88969696 0.5629159
vt 0.88969696 0.57510924
vt 0.88335645 0.57510924
vt 0.95993054 0.5234096
vt 0.95261455 0.5234096
vt 0.95261455 0.5224341
vt 0.95993054 0.5224341
vt 0.9492004 0.5785234
vt 0.9531023 0.582913
vt 0.9550532 0.5775479
vt 0.9492004 0.5712074
vt 0.9492004 0.5712074
vt 0.9433476 0.5712074
vt 0.9433476 0.5785234
vt 0.9492004 0.5785234
vt 0.9433476 0.5785234
vt 0.9433476 0.5712074
vt 0.93798256 0.5775479
vt 0.9399335 0.582913
vt 0.9492004 0.5785234
vt 0.9433476 0.5785234
vt 0.9433476 0.5843762
vt 0.9492004 0.5843762
vt 0.9492004 0.5785234
vt 0.9492004 0.5712074
vt 0.9550532 0.5775479
vt 0.9531023 0.582913
vt 0.9492004 0.5712074
vt 0.9492004 0.5785234
vt 0.9433476 0.5785234
vt 0.9433476 0.5712074
vt 0.9433476 0.5785234
vt 0.9399335 0.582913
vt 0.93798256 0.5775479
vt 0.9433476 0.5712074
vt 0.9492004 0.5785234
vt 0.9492004 0.5843762
vt 0.9433476 0.5843762
vt 0.9433476 0.5785234
vn -0.003921509 0.8980323 -0.439912
vn -0.003921509 0.8980323 -0.439912
vn -0.003921509 0.8980323 -0.439912
vn -0.003921509 0.8980323 -0.439912
vn 0.9999924 0.003921509 -0
vn 0.9999924 0.003921509 -0
vn 0.9999924 0.003921509 -0
vn 0.9999924 0.003921509 -0
vn -0.003921509 0.003921509 -0.9999846
vn -0.003921509 0.003921509 -0.9999846
vn -0.003921509 0.003921509 -0.9999846
vn -0.003921509 0.003921509 -0.9999846
vn -0.003921509 0.8980323 -0.439912
vn -0.003921509 0.8980323 -0.439912
vn -0.99999225 0.003921509 -0.00034492963
vn -0.99999225 0.003921509 -0.00034492963
vn -0.99999225 0.003921509 -0.00034492963
vn -0.99999225 0.003921509 -0.00034492963
vn -0.003921509 0.003921509 -0.9999846
vn -0.003921509 0.003921509 -0.9999846
vn -0.99999225 0.003921509 -0.00034492963
vn -0.99999225 0.003921509 -0.00034492963
vn -0.99999225 0.003921509 -0.00034492963
vn -0.99999225 0.003921509 -0.00034492963
vn -0.99999225 0.003921509 -0.00034492963
vn -0.99999225 -0.0039215684 -0.00034425134
vn -0.99999225 -0.0039215684 -0.00034425134
vn -0.99999225 -0.0039215684 -0.00034425134
vn -0.99999225 -0.0039215684 -0.00034425134
vn -0.99999225 -0.0039215684 -0.00034425134
vn 0.9999924 -0.0039215684 -0
vn 0.9999924 -0.0039215684 -0
vn 0.9999924 -0.0039215684 -0
vn 0.9999924 -0.0039215684 -0
vn 0.9999924 -0.0039215684 -0
vn -0.0901953 0.9764631 -0.19592008
vn -0.08235228 0.9764631 -0.19934392
vn 0.08235234 0.9764631 -0.19934377
vn 0.09019542 0.9764631 -0.19592008
vn 0.15294003 0.9294046 -0.33588153
vn 0.15294003 0.9294046 -0.33588153
vn -0.003921509 0.003921509 -0.9999846
vn -0.003921509 0.003921509 -0.9999846
vn -0.003921509 0.003921509 -0.9999846
vn -0.003921509 0.003921509 -0.9999846
vn -0.003921509 0.003921509 0.9999846
vn -0.003921509 0.003921509 0.9999846
vn -0.003921509 0.003921509 0.9999846
vn -0.003921509 0.003921509 0.9999846
vn -0.003921509 -0.0039215684 -0.9999846
vn -0.003921509 -0.0039215684 -0.9999846
vn -0.003921509 -0.0039215684 -0.9999846
vn -0.003921509 -0.0039215684 -0.9999846
vn -0.003921509 0.003921509 -0.9999846
vn -0.003921509 0.003921509 -0.9999846
vn -0.003921509 0.003921509 -0.9999846
vn -0.003921509 0.003921509 -0.9999846
vn 0.9999924 0.003921509 -0
vn 0.9999924 0.003921509 -0
vn 0.9999924 0.003921509 -0
vn 0.9999924 0.003921509 -0
vn 0.9999924 0.003921509 -0
vn -0.15293992 0.9294046 -0.3358816
vn -0.15293992 0.9294046 -0.3358816
vn 0.9999924 0.003921509 -0
vn 0.9999924 0.003921509 -0
vn 0.9999924 0.003921509 -0
vn 0.9999924 0.003921509 -0
vn 0.9999924 0.003921509 -0
vn 0.9999924 -0.0039215684 -0
vn 0.9999924 -0.0039215684 -0
vn 0.9999924 -0.0039215684 -0
vn 0.9999924 -0.0039215684 -0
vn 0.9999924 -0.0039215684 -0
vn -0.99999225 -0.0039215684 -0.00034425134
vn -0.99999225 -0.0039215684 -0.00034425134
vn -0.99999225 -0.0039215684 -0.00034425134
vn -0.99999225 -0.0039215684 -0.00034425134
vn -0.99999225 -0.0039215684 -0.00034425134
vn -0.08235228 0.9764631 -0.19934392
vn 0.08235234 0.9764631 -0.19934377
vn 0.09019542 0.9764631 -0.19592008
vn -0.0901953 0.9764631 -0.19592008
vn -0.15293992 0.9294046 -0.3358816
vn -0.15293992 0.9294046 -0.3358816
vn -0.003921509 0.003921509 -0.9999846
vn -0.003921509 0.003921509 -0.9999846
vn -0.003921509 0.003921509 -0.9999846
vn -0.003921509 0.003921509 -0.9999846
vn -0.003921509 0.003921509 0.9999846
vn -0.003921509 0.003921509 0.9999846
vn -0.003921509 0.003921509 0.9999846
vn -0.003921509 0.003921509 0.9999846
vn -0.003921509 -0.0039215684 -0.9999846
vn -0.003921509 -0.0039215684 -0.9999846
vn -0.003921509 -0.0039215684 -0.9999846
vn -0.003921509 -0.0039215684 -0.9999846
vn -0.003921509 0.003921509 -0.9999846
vn -0.003921509 0.003921509 -0.9999846
vn -0.003921509 0.003921509 -0.9999846
vn -0.003921509 0.003921509 -0.9999846
vn -0.99999225 0.003921509 -0.00034492963
vn -0.99999225 0.003921509 -0.00034492963
vn -0.99999225 0.003921509 -0.00034492963
vn -0.99999225 0.003921509 -0.00034492963
vn -0.99999225 0.003921509 -0.00034492963
vn 0.15294003 0.9294046 -0.33588153
vn 0.15294003 0.9294046 -0.33588153
vn -0.99214923 0.003921509 -0.12499809
vn -0.99214923 0.003921509 -0.12499809
vn -0.99214923 0.003921509 -0.12499809
vn -0.99214923 0.003921509 -0.12499809
vn -0.99999225 0.003921509 -0.00034492963
vn -0.99999225 0.003921509 -0.00034492963
vn -0.99999225 0.003921509 -0.00034492963
vn -0.99999225 0.003921509 -0.00034492963
vn 0.9999924 0.003921509 -0
vn 0.9999924 0.003921509 -0
vn 0.9999924 0.003921509 -0
vn 0.9999924 0.003921509 -0
vn 0.09019542 0.9764631 0.19592008
vn -0.0901953 0.9764631 0.19592008
vn -0.098038435 0.96861994 0.22839405
vn 0.098038495 0.96861994 0.22839405
vn 0.15294003 0.9294046 0.33588153
vn 0.15294003 0.9294046 0.33588153
vn -0.003921509 0.003921509 0.9999846
vn -0.003921509 0.003921509 0.9999846
vn -0.003921509 0.003921509 0.9999846
vn -0.003921509 0.003921509 0.9999846
vn -0.15293992 0.9294046 0.3358816
vn -0.15293992 0.9294046 0.3358816
vn 0.9921493 0.003921509 -0.124997616
vn 0.9921493 0.003921509 -0.124997616
vn 0.9921493 0.003921509 -0.124997616
vn 0.9921493 0.003921509 -0.124997616
vn -0.003921509 0.003921509 -0.9999846
vn -0.003921509 0.003921509 -0.9999846
vn -0.003921509 0.003921509 -0.9999846
vn -0.003921509 0.003921509 -0.9999846
vn -0.003921509 -0.0039215684 0.9999846
vn -0.003921509 -0.0039215684 0.9999846
vn -0.003921509 -0.0039215684 0.9999846
vn -0.003921509 -0.0039215684 0.9999846
vn -0.003921509 0.003921509 0.9999846
vn -0.003921509 0.003921509 0.9999846
vn -0.003921509 0.003921509 0.9999846
vn -0.003921509 0.003921509 0.9999846
vn 0.9921493 0.003921509 -0.124997616
vn 0.9921493 0.003921509 -0.124997616
vn 0.9921493 0.003921509 -0.124997616
vn 0.9921493 0.003921509 -0.124997616
vn 0.9999924 0.003921509 -0
vn 0.9999924 0.003921509 -0
vn 0.9999924 0.003921509 -0
vn 0.9999924 0.003921509 -0
vn -0.99999225 0.003921509 -0.00034492963
vn -0.99999225 0.003921509 -0.00034492963
vn -0.99999225 0.003921509 -0.00034492963
vn -0.99999225 0.003921509 -0.00034492963
vn 0.098038495 0.96861994 0.22839405
vn 0.011764646 0.16862607 0.9856099
vn -0.011764526 0.16862607 0.9856099
vn -0.098038435 0.96861994 0.22839405
vn -0.15293992 0.9294046 0.3358816
vn -0.15293992 0.9294046 0.3358816
vn -0.003921509 0.003921509 0.9999846
vn -0.003921509 0.003921509 0.9999846
vn -0.003921509 0.003921509 0.9999846
vn -0.003921509 0.003921509 0.9999846
vn 0.15294003 0.9294046 0.33588153
vn 0.15294003 0.9294046 0.33588153
vn -0.99214923 0.003921509 -0.12499809
vn -0.99214923 0.003921509 -0.12499809
vn -0.99214923 0.003921509 -0.12499809
vn -0.99214923 0.003921509 -0.12499809
vn -0.003921509 0.003921509 -0.9999846
vn -0.003921509 0.003921509 -0.9999846
vn -0.003921509 0.003921509 -0.9999846
vn -0.003921509 0.003921509 -0.9999846
vn -0.011764526 0.16862607 0.9856099
vn 0.011764646 0.16862607 0.9856099
vn -0.003921509 -0.0039215684 0.9999846
vn -0.003921509 -0.0039215684 0.9999846
vn -0.003921509 0.003921509 0.9999846
vn -0.003921509 0.003921509 0.9999846
vn -0.003921509 0.003921509 0.9999846
vn -0.003921509 0.003921509 0.9999846
vn 0.9999924 0.003921509 -0
vn 0.9999924 0.003921509 -0
vn 0.9999924 0.003921509 -0
vn 0.9999924 0.003921509 -0
vn -0.003921509 0.66274 -0.7488393
vn -0.003921509 0.66274 -0.7488393
vn -0.003921509 0.66274 -0.7488393
vn -0.003921509 0.66274 -0.7488393
vn -0.99999225 0.003921509 -0.00034492963
vn -0.99999225 0.003921509 -0.00034492963
vn -0.99999225 0.003921509 -0.00034492963
vn -0.99999225 0.003921509 -0.00034492963
vn -0.003921509 0.003921509 -0.9999846
vn -0.003921509 0.003921509 -0.9999846
vn -0.003921509 0.003921509 -0.9999846
vn -0.003921509 0.003921509 -0.9999846
vn -0.99999225 0.003921509 -0.00034492963
vn -0.99999225 0.003921509 -0.00034492963
vn -0.99999225 0.003921509 -0.00034492963
vn -0.99999225 0.003921509 -0.00034492963
vn -0.003921509 0.66274 -0.7488393
vn -0.003921509 0.66274 -0.7488393
vn -0.003921509 0.66274 -0.7488393
vn -0.003921509 0.66274 -0.7488393
vn 0.9999924 0.003921509 -0
vn 0.9999924 0.003921509 -0
vn 0.9999924 0.003921509 -0
vn 0.9999924 0.003921509 -0
vn -0.003921509 0.003921509 -0.9999846
vn -0.003921509 0.003921509 -0.9999846
vn -0.003921509 0.003921509 -0.9999846
vn -0.003921509 0.003921509 -0.9999846
g MotoShassi_02_0
f 3/3/3 2/2/2 1/1/1
f 4/4/4 3/3/3 1/1/1
f 7/7/7 6/6/6 5/5/5
f 8/8/8 7/7/7 5/5/5
f 11/11/11 10/10/10 9/9/9
f 12/12/12 11/11/11 9/9/9
f 3/3/3 14/14/14 13/13/13
f 2/2/2 3/3/3 13/13/13
f 17/17/17 16/16/16 15/15/15
f 18/18/18 17/17/17 15/15/15
f 20/20/20 19/19/19 9/9/9
f 10/10/10 20/20/20 9/9/9
f 23/23/23 22/22/22 21/21/21
f 21/21/21 24/24/24 23/23/23
f 24/24/24 25/25/25 23/23/23
f 28/28/28 27/27/27 26/26/26
f 26/26/26 29/29/29 28/28/28
f 29/29/29 30/30/30 28/28/28
f 33/33/33 32/32/32 31/31/31
f 31/31/31 34/34/34 33/33/33
f 31/31/31 35/35/35 34/34/34
f 38/38/38 37/37/37 36/36/36
f 39/39/39 38/38/38 36/36/36
f 39/39/39 41/41/41 40/40/40
f 38/38/38 39/39/39 40/40/40
f 44/44/44 43/43/43 42/42/42
f 45/45/45 44/44/44 42/42/42
f 48/48/48 47/47/47 46/46/46
f 49/49/49 48/48/48 46/46/46
f 52/52/52 51/51/51 50/50/50
f 53/53/53 52/52/52 50/50/50
f 56/56/56 55/55/55 54/54/54
f 57/57/57 56/56/56 54/54/54
f 60/60/60 59/59/59 58/58/58
f 58/58/58 61/61/61 60/60/60
f 58/58/58 62/62/62 61/61/61
f 63/63/63 36/36/36 37/37/37
f 64/64/64 63/63/63 37/37/37
f 67/67/67 66/66/66 65/65/65
f 65/65/65 68/68/68 67/67/67
f 65/65/65 69/69/69 68/68/68
f 72/72/72 71/71/71 70/70/70
f 70/70/70 73/73/73 72/72/72
f 70/70/70 74/74/74 73/73/73
f 77/77/77 76/76/76 75/75/75
f 75/75/75 78/78/78 77/77/77
f 78/78/78 79/79/79 77/77/77
f 82/82/82 81/81/81 80/80/80
f 83/83/83 82/82/82 80/80/80
f 84/84/84 83/83/83 80/80/80
f 85/85/85 84/84/84 80/80/80
f 88/88/88 87/87/87 86/86/86
f 89/89/89 88/88/88 86/86/86
f 92/92/92 91/91/91 90/90/90
f 93/93/93 92/92/92 90/90/90
f 96/96/96 95/95/95 94/94/94
f 97/97/97 96/96/96 94/94/94
f 100/100/100 99/99/99 98/98/98
f 101/101/101 100/100/100 98/98/98
f 104/104/104 103/103/103 102/102/102
f 102/102/102 105/105/105 104/104/104
f 105/105/105 106/106/106 104/104/104
f 81/81/81 82/82/82 107/107/107
f 108/108/108 81/81/81 107/107/107
f 111/111/111 110/110/110 109/109/109
f 112/112/112 111/111/111 109/109/109
f 115/115/115 114/114/114 113/113/113
f 116/116/116 115/115/115 113/113/113
f 119/119/119 118/118/118 117/117/117
f 120/120/120 119/119/119 117/117/117
f 123/123/123 122/122/122 121/121/121
f 124/124/124 123/123/123 121/121/121
f 126/126/126 125/125/125 124/124/124
f 121/121/121 126/126/126 124/124/124
f 129/129/129 128/128/128 127/127/127
f 130/130/130 129/129/129 127/127/127
f 132/132/132 131/131/131 122/122/122
f 123/123/123 132/132/132 122/122/122
f 135/135/135 134/134/134 133/133/133
f 136/136/136 135/135/135 133/133/133
f 139/139/139 138/138/138 137/137/137
f 140/140/140 139/139/139 137/137/137
f 143/143/143 142/142/142 141/141/141
f 144/144/144 143/143/143 141/141/141
f 147/147/147 146/146/146 145/145/145
f 148/148/148 147/147/147 145/145/145
f 151/151/151 150/150/150 149/149/149
f 152/152/152 151/151/151 149/149/149
f 155/155/155 154/154/154 153/153/153
f 156/156/156 155/155/155 153/153/153
f 159/159/159 158/158/158 157/157/157
f 160/160/160 159/159/159 157/157/157
f 163/163/163 162/162/162 161/161/161
f 164/164/164 163/163/163 161/161/161
f 164/164/164 166/166/166 165/165/165
f 163/163/163 164/164/164 165/165/165
f 169/169/169 168/168/168 167/167/167
f 170/170/170 169/169/169 167/167/167
f 162/162/162 172/172/172 171/171/171
f 161/161/161 162/162/162 171/171/171
f 175/175/175 174/174/174 173/173/173
f 176/176/176 175/175/175 173/173/173
f 179/179/179 178/178/178 177/177/177
f 180/180/180 179/179/179 177/177/177
f 183/183/183 182/182/182 181/181/181
f 184/184/184 183/183/183 181/181/181
f 187/187/187 186/186/186 185/185/185
f 188/188/188 187/187/187 185/185/185
f 191/191/191 190/190/190 189/189/189
f 192/192/192 191/191/191 189/189/189
f 195/195/195 194/194/194 193/193/193
f 196/196/196 195/195/195 193/193/193
f 199/199/199 198/198/198 197/197/197
f 200/200/200 199/199/199 197/197/197
f 203/203/203 202/202/202 201/201/201
f 204/204/204 203/203/203 201/201/201
f 207/207/207 206/206/206 205/205/205
f 208/208/208 207/207/207 205/205/205
f 211/211/211 210/210/210 209/209/209
f 212/212/212 211/211/211 209/209/209
f 215/215/215 214/214/214 213/213/213
f 216/216/216 215/215/215 213/213/213
f 219/219/219 218/218/218 217/217/217
f 220/220/220 219/219/219 217/217/217
