g MotoShassis_DefaultPart_1_CorpsePart
v 0.17177695 -0.6097507 0.78328484
v 0.17177695 -0.34495252 0.2930752
v -0.17176837 -0.34495252 0.2930752
v -0.17176837 -0.6097507 0.78328484
v 0.17177695 -0.39249453 1.1087625
v 0.5238971 0.09671861 1.1087625
v 0.5238971 -0.10892081 0.78328484
v 0.17177695 -0.6097507 0.78328484
v 0.5238971 -0.10892081 0.78328484
v 0.5238971 -0.10892081 0.2930752
v 0.17177695 -0.10892081 0.2930752
v 0.17177695 -0.10892081 0.78328484
v 0.17177695 -0.6097507 0.78328484
v 0.17177695 -0.10892081 0.78328484
v 0.17177695 -0.10892081 0.2930752
v 0.17177695 -0.34495252 0.2930752
v 0.17177695 -0.6097507 0.78328484
v 0.5238971 -0.10892081 0.78328484
v 0.17177695 -0.10892081 0.78328484
v 0.5238971 0.8936042 0.78328484
v 0.5238971 0.33164895 0.78328484
v 0.5238971 0.09671861 1.1087625
v 0.5238971 1.004422 1.1087625
v -0.5238885 1.004422 1.1087625
v 0.5238971 1.004422 1.1087625
v 0.5238971 0.09671861 1.1087625
v -0.5238885 0.09671861 1.1087625
v 0.5238971 0.116280854 0.2930752
v 0.5238971 0.33164895 0.78328484
v -0.5238885 0.33164895 0.78328484
v -0.5238885 0.116280854 0.2930752
v 0.5238971 0.8936042 0.78328484
v 0.5238971 1.004422 1.1087625
v -0.5238885 1.004422 1.1087625
v -0.5238885 0.8936042 0.78328484
v 0.17177695 -0.39249453 1.1087625
v 0.17177695 -0.6097507 0.78328484
v -0.17176837 -0.6097507 0.78328484
v -0.17176837 -0.39249453 1.1087625
v -0.17176837 -0.39249453 1.1087625
v -0.17176837 -0.6097507 0.78328484
v -0.5238885 -0.10892081 0.78328484
v -0.5238885 0.09671861 1.1087625
v -0.17176837 -0.34495252 0.2930752
v 0.17177695 -0.34495252 0.2930752
v 0.17177695 -0.10892081 0.2930752
v -0.17176837 -0.10892081 0.2930752
v -0.5238885 -0.10892081 0.78328484
v -0.17176837 -0.10892081 0.78328484
v -0.17176837 -0.10892081 0.2930752
v -0.5238885 -0.10892081 0.2930752
v -0.17176837 -0.6097507 0.78328484
v -0.17176837 -0.34495252 0.2930752
v -0.17176837 -0.10892081 0.2930752
v -0.17176837 -0.10892081 0.78328484
v -0.17176837 -0.10892081 0.78328484
v -0.5238885 -0.10892081 0.78328484
v -0.17176837 -0.6097507 0.78328484
v -0.5238885 0.8936042 0.78328484
v -0.5238885 0.33164895 0.78328484
v 0.5238971 0.33164895 0.78328484
v 0.5238971 0.8936042 0.78328484
v -0.5238885 0.8936042 0.78328484
v -0.5238885 1.004422 1.1087625
v -0.5238885 0.09671861 1.1087625
v -0.5238885 0.33164895 0.78328484
v 0.5238971 -0.10892081 0.78328484
v 0.17177695 -0.39249453 1.1087625
v -0.17176837 -0.39249453 1.1087625
v -0.5238885 -0.10892081 0.78328484
v 0.5238971 0.116280854 0.2930752
v 0.5238971 -0.10892081 0.2930752
v -0.5238885 0.116280854 0.2930752
v -0.5238885 -0.10892081 0.2930752
v -0.5238885 0.116280854 0.2930752
v 0.5238971 0.116280854 0.2930752
v -0.5238885 -0.10892081 0.2930752
v 0.5238971 -0.10892081 0.2930752
vt 0.914448 0.56079525
vt 0.914448 0.5796117
vt 0.9260273 0.5796117
vt 0.9260273 0.56079525
vt 0.914448 0.5477685
vt 0.9028686 0.5313644
vt 0.8965965 0.5424613
vt 0.90865827 0.55934787
vt 0.8917718 0.538119
vt 0.87536764 0.538119
vt 0.87536764 0.55018085
vt 0.8917718 0.55018085
vt 0.914448 0.56079525
vt 0.89997375 0.5689973
vt 0.9076934 0.5834715
vt 0.914448 0.5796117
vt 0.90865827 0.55934787
vt 0.8965965 0.5424613
vt 0.8927367 0.5535582
vt 0.8917718 0.5043459
vt 0.8917718 0.52316236
vt 0.9028686 0.5313644
vt 0.9028686 0.50048614
vt 0.9376067 0.50048614
vt 0.9028686 0.50048614
vt 0.9028686 0.5313644
vt 0.9376067 0.5313644
vt 0.976687 0.5429438
vt 0.976687 0.5516283
vt 0.994056 0.5516283
vt 0.994056 0.5429438
vt 0.8830873 0.58588386
vt 0.8830873 0.5945684
vt 0.90962327 0.5945684
vt 0.90962327 0.58588386
vt 0.914448 0.5477685
vt 0.914448 0.56079525
vt 0.9260273 0.56079525
vt 0.9260273 0.5477685
vt 0.9260273 0.5477685
vt 0.931817 0.55934787
vt 0.9438788 0.5424613
vt 0.9376067 0.5313644
vt 0.98826635 0.5347417
vt 0.9824767 0.5347417
vt 0.9824767 0.53908396
vt 0.98826635 0.53908396
vt 0.9487035 0.538119
vt 0.9487035 0.55018085
vt 0.9651077 0.55018085
vt 0.9651077 0.538119
vt 0.9260273 0.56079525
vt 0.9260273 0.5796117
vt 0.93278193 0.5834715
vt 0.940984 0.5689973
vt 0.94773865 0.5535582
vt 0.9438788 0.5424613
vt 0.931817 0.55934787
vt 0.994056 0.56127775
vt 0.994056 0.5516283
vt 0.976687 0.5516283
vt 0.976687 0.56127775
vt 0.9487035 0.5043459
vt 0.9376067 0.50048614
vt 0.9376067 0.5313644
vt 0.9487035 0.52316236
vt 0.8917718 0.538119
vt 0.914448 0.5477685
vt 0.9260273 0.5477685
vt 0.9487035 0.538119
vt 0.87536764 0.53039944
vt 0.87536764 0.538119
vt 0.9651077 0.53039944
vt 0.9651077 0.538119
vt 0.994056 0.5429438
vt 0.976687 0.5429438
vt 0.994056 0.53908396
vt 0.976687 0.53908396
vn -0.003921509 -0.8823462 -0.4705845
vn -0.003921509 -0.8823462 -0.4705845
vn -0.003921509 -0.8823462 -0.4705845
vn -0.003921509 -0.8823462 -0.4705845
vn 0.76470006 -0.5450939 0.34366623
vn 0.76470006 -0.5450939 0.34366623
vn 0.76470006 -0.5450939 0.34366623
vn 0.76470006 -0.5450939 0.34366623
vn -0.003921509 -0.9999924 -0
vn -0.003921509 -0.9999924 -0
vn -0.003921509 -0.9999924 -0
vn -0.003921509 -0.9999924 -0
vn 0.9999924 0.003921509 -0
vn 0.9999924 0.003921509 -0
vn 0.9999924 0.003921509 -0
vn 0.9999924 0.003921509 -0
vn -0.003921509 0.003921509 -0.9999846
vn -0.003921509 0.003921509 -0.9999846
vn -0.003921509 0.003921509 -0.9999846
vn 0.9999924 0.003921509 -0
vn 0.9999924 0.003921509 -0
vn 0.9999924 0.003921509 -0
vn 0.9999924 0.003921509 -0
vn -0.003921509 0.003921509 0.9999846
vn -0.003921509 0.003921509 0.9999846
vn -0.003921509 0.003921509 0.9999846
vn -0.003921509 0.003921509 0.9999846
vn -0.003921509 0.91371846 -0.40632892
vn -0.003921509 0.91371846 -0.40632892
vn -0.003921509 0.91371846 -0.40632892
vn -0.003921509 0.91371846 -0.40632892
vn -0.003921509 0.9450908 -0.3267844
vn -0.003921509 0.9450908 -0.3267844
vn -0.003921509 0.9450908 -0.3267844
vn -0.003921509 0.9450908 -0.3267844
vn -0.003921509 -0.83528775 0.549799
vn -0.003921509 -0.83528775 0.549799
vn -0.003921509 -0.83528775 0.549799
vn -0.003921509 -0.83528775 0.549799
vn -0.76469994 -0.5450939 0.3436665
vn -0.76469994 -0.5450939 0.3436665
vn -0.76469994 -0.5450939 0.3436665
vn -0.76469994 -0.5450939 0.3436665
vn -0.003921509 0.003921509 -0.9999846
vn -0.003921509 0.003921509 -0.9999846
vn -0.003921509 0.003921509 -0.9999846
vn -0.003921509 0.003921509 -0.9999846
vn -0.003921509 -0.9999924 -0
vn -0.003921509 -0.9999924 -0
vn -0.003921509 -0.9999924 -0
vn -0.003921509 -0.9999924 -0
vn -0.99999225 0.003921509 -0.00034492963
vn -0.99999225 0.003921509 -0.00034492963
vn -0.99999225 0.003921509 -0.00034492963
vn -0.99999225 0.003921509 -0.00034492963
vn -0.003921509 0.003921509 -0.9999846
vn -0.003921509 0.003921509 -0.9999846
vn -0.003921509 0.003921509 -0.9999846
vn -0.003921509 0.003921509 -0.9999846
vn -0.003921509 0.003921509 -0.9999846
vn -0.003921509 0.003921509 -0.9999846
vn -0.003921509 0.003921509 -0.9999846
vn -0.99999225 0.003921509 -0.00034492963
vn -0.99999225 0.003921509 -0.00034492963
vn -0.99999225 0.003921509 -0.00034492963
vn -0.99999225 0.003921509 -0.00034492963
vn 0.9999924 0.003921509 -0
vn -0.003921509 0.003921509 0.9999846
vn -0.003921509 0.003921509 0.9999846
vn -0.99999225 0.003921509 -0.00034492963
vn 0.9999924 0.003921509 -0
vn 0.9999924 0.003921509 -0
vn -0.99999225 0.003921509 -0.00034492963
vn -0.99999225 0.003921509 -0.00034492963
vn -0.003921509 0.003921509 -0.9999846
vn -0.003921509 0.003921509 -0.9999846
vn -0.003921509 0.003921509 -0.9999846
vn -0.003921509 0.003921509 -0.9999846
g MotoShassis_DefaultPart_1_CorpsePart_0
f 3/3/3 2/2/2 1/1/1
f 4/4/4 3/3/3 1/1/1
f 7/7/7 6/6/6 5/5/5
f 8/8/8 7/7/7 5/5/5
f 11/11/11 10/10/10 9/9/9
f 12/12/12 11/11/11 9/9/9
f 15/15/15 14/14/14 13/13/13
f 16/16/16 15/15/15 13/13/13
f 19/19/19 18/18/18 17/17/17
f 22/22/22 21/21/21 20/20/20
f 23/23/23 22/22/22 20/20/20
f 26/26/26 25/25/25 24/24/24
f 27/27/27 26/26/26 24/24/24
f 30/30/30 29/29/29 28/28/28
f 31/31/31 30/30/30 28/28/28
f 34/34/34 33/33/33 32/32/32
f 35/35/35 34/34/34 32/32/32
f 38/38/38 37/37/37 36/36/36
f 39/39/39 38/38/38 36/36/36
f 42/42/42 41/41/41 40/40/40
f 43/43/43 42/42/42 40/40/40
f 46/46/46 45/45/45 44/44/44
f 47/47/47 46/46/46 44/44/44
f 50/50/50 49/49/49 48/48/48
f 51/51/51 50/50/50 48/48/48
f 54/54/54 53/53/53 52/52/52
f 55/55/55 54/54/54 52/52/52
f 58/58/58 57/57/57 56/56/56
f 61/61/61 60/60/60 59/59/59
f 62/62/62 61/61/61 59/59/59
f 65/65/65 64/64/64 63/63/63
f 66/66/66 65/65/65 63/63/63
f 67/67/67 21/21/21 22/22/22
f 68/68/68 26/26/26 27/27/27
f 69/69/69 68/68/68 27/27/27
f 70/70/70 65/65/65 66/66/66
f 71/71/71 21/21/21 67/67/67
f 72/72/72 71/71/71 67/67/67
f 70/70/70 66/66/66 73/73/73
f 74/74/74 70/70/70 73/73/73
f 46/46/46 47/47/47 75/75/75
f 76/76/76 46/46/46 75/75/75
f 77/77/77 75/75/75 47/47/47
f 78/78/78 46/46/46 76/76/76
