g NapalmTurret_04_CorpsePart1
v -0.065294564 0.2448526 0.42529178
v 0.10274023 -0.11326927 0.21975017
v 0.044130266 0.2448526 0.1611402
v 0.01760441 -0.11326927 0.42529178
v 0.30828187 0.2448526 0.051715314
v 0.51382345 -0.11326927 0.21975017
v 0.5724334 0.2448526 0.1611402
v 0.30828187 -0.11326927 0.13461429
v 0.6818583 0.2448526 0.42529178
v 0.51382345 -0.11326927 0.6308334
v 0.5724334 0.2448526 0.68944335
v 0.5989593 -0.11326927 0.42529178
v 0.30828187 0.2448526 0.7988682
v 0.10274023 -0.11326927 0.6308334
v 0.044130266 0.2448526 0.68944335
v 0.30828187 -0.11326927 0.7159692
v 0.10274023 -0.11326927 0.21975017
v 0.044130266 0.2448526 0.1611402
v 0.10274023 -0.11326927 0.21975017
v 0.51382345 -0.11326927 0.21975017
v 0.30828187 -0.11326927 0.13461429
v 0.10274023 -0.11326927 0.6308334
v 0.5989593 -0.11326927 0.42529178
v 0.01760441 -0.11326927 0.42529178
v 0.51382345 -0.11326927 0.6308334
v 0.10274023 0.6029744 0.21975017
v 0.01760441 0.6029744 0.42529178
v 0.51382345 0.6029744 0.21975017
v 0.30828187 0.6029744 0.13461429
v 0.51382345 0.6029744 0.6308334
v 0.5989593 0.6029744 0.42529178
v 0.10274023 0.6029744 0.6308334
v 0.30828187 0.6029744 0.7159692
v 0.10274023 0.6029744 0.21975017
v 0.51382345 0.6029744 0.21975017
v 0.01760441 0.6029744 0.42529178
v 0.10274023 0.6029744 0.21975017
v 0.5989593 0.6029744 0.42529178
v 0.10274023 0.6029744 0.6308334
v 0.51382345 0.6029744 0.6308334
v 0.30828187 0.6029744 0.7159692
v -0.10273355 -0.11326927 0.21975017
v 0.0653013 0.2448526 0.42529178
v -0.04412359 0.2448526 0.1611402
v -0.017597735 -0.11326927 0.42529178
v -0.5138167 -0.11326927 0.21975017
v -0.30827516 0.2448526 0.051715314
v -0.5724493 0.2448526 0.1611402
v -0.30827516 -0.11326927 0.13461429
v -0.5138167 -0.11326927 0.6308334
v -0.6818516 0.2448526 0.42529178
v -0.5724493 0.2448526 0.68944335
v -0.59895265 -0.11326927 0.42529178
v -0.10273355 -0.11326927 0.6308334
v -0.30827516 0.2448526 0.7988682
v -0.04412359 0.2448526 0.68944335
v -0.30827516 -0.11326927 0.7159692
v -0.04412359 0.2448526 0.1611402
v -0.10273355 -0.11326927 0.21975017
v -0.5138167 -0.11326927 0.21975017
v -0.10273355 -0.11326927 0.21975017
v -0.30827516 -0.11326927 0.13461429
v -0.017597735 -0.11326927 0.42529178
v -0.5138167 -0.11326927 0.6308334
v -0.10273355 -0.11326927 0.6308334
v -0.59895265 -0.11326927 0.42529178
v -0.017597735 0.6029744 0.42529178
v -0.10273355 0.6029744 0.21975017
v -0.30827516 0.6029744 0.13461429
v -0.5138167 0.6029744 0.21975017
v -0.59895265 0.6029744 0.42529178
v -0.5138167 0.6029744 0.6308334
v -0.30827516 0.6029744 0.7159692
v -0.10273355 0.6029744 0.6308334
v -0.10273355 0.6029744 0.21975017
v -0.10273355 0.6029744 0.21975017
v -0.59895265 0.6029744 0.42529178
v -0.5138167 0.6029744 0.21975017
v -0.017597735 0.6029744 0.42529178
v -0.5138167 0.6029744 0.6308334
v -0.10273355 0.6029744 0.6308334
v -0.30827516 0.6029744 0.7159692
v 0.60481125 0.20307547 0.20928895
v 0.63210535 0.32307458 0.27298266
v 0.60481125 0.28308237 0.20928895
v 0.65937686 0.28308237 0.33665383
v 0.63210535 0.16308331 0.27298266
v 0.65937686 0.20307547 0.33665383
v 0.5206244 0.28308237 0.24537224
v 0.60481125 0.20307547 0.20928895
v 0.60481125 0.28308237 0.20928895
v 0.5206244 0.20307547 0.24537224
v 0.63210535 0.32307458 0.27298266
v 0.5478959 0.32307458 0.30904335
v 0.65937686 0.28308237 0.33665383
v 0.57518995 0.28308237 0.37273705
v 0.65937686 0.20307547 0.33665383
v 0.57518995 0.20307547 0.37273705
v 0.63210535 0.16308331 0.27298266
v 0.5478959 0.16308331 0.30904335
v 0.5478959 0.16308331 0.30904335
v 0.63210535 0.16308331 0.27298266
v -0.6320987 0.16308331 0.27298266
v -0.6593927 0.28308237 0.33665383
v -0.6593927 0.20307547 0.33665383
v -0.6048045 0.28308237 0.20928895
v -0.6320987 0.32307458 0.27298266
v -0.6048045 0.20307547 0.20928895
v -0.5206177 0.20307547 0.24537224
v -0.6048045 0.28308237 0.20928895
v -0.6048045 0.20307547 0.20928895
v -0.5206177 0.28308237 0.24537224
v -0.6320987 0.32307458 0.27298266
v -0.54791176 0.32307458 0.30904335
v -0.6593927 0.28308237 0.33665383
v -0.5751833 0.28308237 0.37273705
v -0.6593927 0.20307547 0.33665383
v -0.5751833 0.20307547 0.37273705
v -0.6320987 0.16308331 0.27298266
v -0.54791176 0.16308331 0.30904335
v -0.54791176 0.16308331 0.30904335
v -0.6320987 0.16308331 0.27298266
v 0.28927994 0.53141785 0.735536
v -0.28927326 0.43848693 0.735649
v -0.28927326 0.53141785 0.7355586
v 0.28927994 0.43848693 0.73562634
v 3.33786E-06 0.53119195 0.4532863
v 0.28927994 0.53141785 0.735536
v -0.28927326 0.53141785 0.7355586
v 3.33786E-06 0.43828356 0.45337665
v -0.28927326 0.43848693 0.735649
v 0.28927994 0.43848693 0.73562634
v 0.28927994 -0.0417127 0.735536
v -0.28927326 0.043423176 0.735649
v 0.28927994 0.043423176 0.73562634
v -0.28927326 -0.0417127 0.7355586
v 0.28927994 -0.0417127 0.735536
v 3.33786E-06 -0.04148674 0.4532863
v -0.28927326 -0.0417127 0.7355586
v -0.28927326 0.043423176 0.735649
v -0.0010811687 0.043626487 0.45620096
v 0.28927994 0.043423176 0.73562634
v 0.30828187 0.6029744 0.13461429
v -0.30827516 0.6029744 0.13461429
v 0.30828187 -0.11326927 0.7159692
v -0.30827516 -0.11326927 0.7159692
vt 0.8569296 0.67912436
vt 0.87068963 0.67095435
vt 0.8569296 0.67095435
vt 0.87068963 0.67912436
vt 0.8569296 0.7259944
vt 0.87068963 0.7180394
vt 0.8569296 0.7180394
vt 0.87068963 0.7259944
vt 0.8569296 0.7102994
vt 0.87068963 0.7023444
vt 0.8569296 0.7023444
vt 0.87068963 0.7102994
vt 0.8569296 0.6946044
vt 0.87068963 0.6868644
vt 0.8569296 0.6868644
vt 0.87068963 0.6946044
vt 0.87068963 0.7300794
vt 0.8569296 0.7300794
vt 0.7984495 0.7096544
vt 0.7984495 0.6952494
vt 0.79543954 0.7023444
vt 0.8130696 0.7096544
vt 0.80575955 0.6922394
vt 0.80575955 0.7126644
vt 0.8130696 0.6952494
vt 0.8429546 0.67095435
vt 0.8429546 0.67912436
vt 0.8429546 0.7180394
vt 0.8429546 0.7259944
vt 0.8429546 0.7023444
vt 0.8429546 0.7102994
vt 0.8429546 0.6868644
vt 0.8429546 0.6946044
vt 0.8429546 0.7300794
vt 0.7902795 0.6763294
vt 0.79758954 0.69374436
vt 0.7902795 0.6907344
vt 0.79758954 0.67331934
vt 0.8048995 0.6907344
vt 0.8048995 0.6763294
vt 0.80790955 0.68342435
vt 0.87068963 0.67095435
vt 0.8569296 0.67912436
vt 0.8569296 0.67095435
vt 0.87068963 0.67912436
vt 0.87068963 0.7180394
vt 0.8569296 0.7259944
vt 0.8569296 0.7180394
vt 0.87068963 0.7259944
vt 0.87068963 0.7023444
vt 0.8569296 0.7102994
vt 0.8569296 0.7023444
vt 0.87068963 0.7102994
vt 0.87068963 0.6868644
vt 0.8569296 0.6946044
vt 0.8569296 0.6868644
vt 0.87068963 0.6946044
vt 0.8569296 0.7300794
vt 0.87068963 0.7300794
vt 0.7984495 0.6952494
vt 0.7984495 0.7096544
vt 0.79543954 0.7023444
vt 0.80575955 0.7126644
vt 0.8130696 0.6952494
vt 0.8130696 0.7096544
vt 0.80575955 0.6922394
vt 0.8429546 0.67912436
vt 0.8429546 0.67095435
vt 0.8429546 0.7259944
vt 0.8429546 0.7180394
vt 0.8429546 0.7102994
vt 0.8429546 0.7023444
vt 0.8429546 0.6946044
vt 0.8429546 0.6868644
vt 0.8429546 0.7300794
vt 0.7902795 0.6907344
vt 0.79758954 0.67331934
vt 0.7902795 0.6763294
vt 0.79758954 0.69374436
vt 0.8048995 0.6763294
vt 0.8048995 0.6907344
vt 0.80790955 0.68342435
vt 0.75157946 0.6576243
vt 0.7532995 0.6546143
vt 0.75157946 0.6556893
vt 0.7552345 0.6556893
vt 0.7532995 0.65869933
vt 0.7552345 0.6576243
vt 0.7567395 0.6507443
vt 0.75458944 0.6531093
vt 0.7567395 0.6531093
vt 0.75458944 0.6507443
vt 0.7588895 0.6531093
vt 0.7588895 0.6507443
vt 0.7610395 0.6531093
vt 0.7610395 0.6507443
vt 0.7634045 0.6531093
vt 0.7634045 0.6507443
vt 0.7653395 0.6531093
vt 0.7653395 0.6507443
vt 0.75222445 0.6507443
vt 0.75222445 0.6531093
vt 0.7532995 0.65869933
vt 0.7552345 0.6556893
vt 0.7552345 0.6576243
vt 0.75157946 0.6556893
vt 0.7532995 0.6546143
vt 0.75157946 0.6576243
vt 0.75458944 0.6507443
vt 0.7567395 0.6531093
vt 0.75458944 0.6531093
vt 0.7567395 0.6507443
vt 0.7588895 0.6531093
vt 0.7588895 0.6507443
vt 0.7610395 0.6531093
vt 0.7610395 0.6507443
vt 0.7634045 0.6531093
vt 0.7634045 0.6507443
vt 0.7653395 0.6531093
vt 0.7653395 0.6507443
vt 0.75222445 0.6507443
vt 0.75222445 0.6531093
vt 0.7866245 0.67331934
vt 0.7722195 0.6698793
vt 0.7722195 0.67331934
vt 0.7866245 0.6698793
vt 0.7795295 0.67912436
vt 0.7866245 0.67331934
vt 0.7722195 0.67331934
vt 0.7795295 0.66407436
vt 0.7722195 0.6698793
vt 0.7866245 0.6698793
vt 0.80188954 0.66256934
vt 0.7874845 0.6591293
vt 0.80188954 0.6591293
vt 0.7874845 0.66256934
vt 0.80188954 0.66256934
vt 0.7947945 0.66837436
vt 0.7874845 0.66256934
vt 0.7874845 0.6591293
vt 0.7947945 0.6533243
vt 0.80188954 0.6591293
vt 0.78726953 0.68342435
vt 0.78726953 0.68342435
vt 0.81607956 0.7023444
vt 0.81607956 0.7023444
vn -0.99999225 0.003921509 -0.00034492963
vn -0.68626916 -0.22352773 -0.6921488
vn -0.70979846 -0.0039215684 -0.7043939
vn -0.97478557 -0.22314373 -0
vn -0.011764526 0.003921509 -0.9999231
vn 0.6705831 -0.22352773 -0.70735675
vn 0.69411236 0.003921509 -0.71985596
vn -0.003921509 -0.22352773 -0.97468966
vn 0.9999924 0.003921509 -0
vn 0.70195544 -0.22352773 0.6762351
vn 0.7176416 0.003921509 0.6964016
vn 0.9747855 -0.2231437 -0
vn 0.019607723 0.003921509 0.9998001
vn -0.670583 -0.22352773 0.70735687
vn -0.6941123 0.003921509 0.7198561
vn 0.019607723 -0.22352773 0.9745003
vn -0.68626916 -0.22352773 -0.6921488
vn -0.70979846 -0.0039215684 -0.7043939
vn -0.003921509 -0.9999924 -0
vn -0.003921509 -0.9999924 -0
vn -0.003921509 -0.9999924 -0
vn -0.003921509 -0.9999924 -0
vn -0.003921509 -0.9999924 -0
vn -0.003921509 -0.9999924 -0
vn -0.003921509 -0.9999924 -0
vn -0.7019553 0.22352767 -0.6762353
vn -0.97478557 0.22314367 -0
vn 0.6705831 0.22352767 -0.7073568
vn -0.019607663 0.22352767 -0.97450036
vn 0.70195544 0.22352767 0.67623514
vn 0.9747855 0.22314364 -0
vn -0.670583 0.22352767 0.7073569
vn 0.019607723 0.22352767 0.97450036
vn -0.7019553 0.22352767 -0.6762353
vn -0.003921509 0.99999225 -0.00034526698
vn -0.003921509 0.99999225 -0.00034526698
vn -0.003921509 0.99999225 -0.00034526698
vn -0.003921509 0.99999225 -0.00034526698
vn -0.003921509 0.99999225 -0.00034526698
vn -0.003921509 0.99999225 -0.00034526698
vn -0.003921509 0.99999225 -0.00034526698
vn 0.70195544 -0.22352773 -0.6762351
vn 0.9999924 0.003921509 -0
vn 0.7097985 0.003921509 -0.70439386
vn 0.9747855 -0.2231437 -0
vn -0.670583 -0.22352773 -0.70735687
vn -0.003921509 0.003921509 -0.9999846
vn -0.70979846 0.003921509 -0.7043939
vn 0.019607723 -0.22352773 -0.9745003
vn -0.7019553 -0.22352773 0.67623526
vn -0.99999225 0.003921509 -0.00034492963
vn -0.70979846 0.003921509 0.7043939
vn -0.97478557 -0.22314373 -0
vn 0.6705831 -0.22352773 0.70735675
vn -0.003921509 0.003921509 0.9999846
vn 0.7097985 0.003921509 0.70439386
vn -0.019607663 -0.22352773 0.9745003
vn 0.7097985 0.003921509 -0.70439386
vn 0.70195544 -0.22352773 -0.6762351
vn -0.003921509 -0.9999924 -0
vn -0.003921509 -0.9999924 -0
vn -0.003921509 -0.9999924 -0
vn -0.003921509 -0.9999924 -0
vn -0.003921509 -0.9999924 -0
vn -0.003921509 -0.9999924 -0
vn -0.003921509 -0.9999924 -0
vn 0.9747855 0.22314364 -0
vn 0.6705831 0.22352767 -0.7073568
vn -0.019607663 0.22352767 -0.97450036
vn -0.7019553 0.22352767 -0.6762353
vn -0.97478557 0.22314367 -0
vn -0.670583 0.22352767 0.7073569
vn 0.019607723 0.22352767 0.97450036
vn 0.70195544 0.22352767 0.67623514
vn 0.6705831 0.22352767 -0.7073568
vn -0.003921509 0.99999225 -0.00034526698
vn -0.003921509 0.99999225 -0.00034526698
vn -0.003921509 0.99999225 -0.00034526698
vn -0.003921509 0.99999225 -0.00034526698
vn -0.003921509 0.99999225 -0.00034526698
vn -0.003921509 0.99999225 -0.00034526698
vn -0.003921509 0.99999225 -0.00034526698
vn 0.9215616 0.003921509 -0.38821238
vn 0.9215616 0.003921509 -0.38821238
vn 0.9215616 0.003921509 -0.38821238
vn 0.9215616 0.003921509 -0.38821238
vn 0.9215616 0.003921509 -0.38821238
vn 0.9215616 0.003921509 -0.38821238
vn -0.34117377 0.4980353 -0.797221
vn -0.34117377 -0.49803543 -0.7972209
vn -0.34117377 0.4980353 -0.797221
vn -0.34117377 -0.49803543 -0.7972209
vn -0.003921509 0.99999225 -0.00034526698
vn -0.003921509 0.99999225 -0.00034526698
vn 0.3411739 0.4980353 0.7972209
vn 0.3411739 0.4980353 0.7972209
vn 0.3411739 -0.49803543 0.7972208
vn 0.3411739 -0.49803543 0.7972208
vn -0.003921509 -0.9999924 -0
vn -0.003921509 -0.9999924 -0
vn -0.003921509 -0.9999924 -0
vn -0.003921509 -0.9999924 -0
vn -0.9215615 0.003921509 -0.38821262
vn -0.9215615 0.003921509 -0.38821262
vn -0.9215615 0.003921509 -0.38821262
vn -0.9215615 0.003921509 -0.38821262
vn -0.9215615 0.003921509 -0.38821262
vn -0.9215615 0.003921509 -0.38821262
vn 0.3411739 -0.49803543 -0.7972208
vn 0.3411739 0.4980353 -0.7972209
vn 0.3411739 -0.49803543 -0.7972208
vn 0.3411739 0.4980353 -0.7972209
vn -0.003921509 0.99999225 -0.00034526698
vn -0.003921509 0.99999225 -0.00034526698
vn -0.34117377 0.4980353 0.797221
vn -0.34117377 0.4980353 0.797221
vn -0.34117377 -0.49803543 0.7972209
vn -0.34117377 -0.49803543 0.7972209
vn -0.003921509 -0.9999924 -0
vn -0.003921509 -0.9999924 -0
vn -0.003921509 -0.9999924 -0
vn -0.003921509 -0.9999924 -0
vn 0.0039215684 0.003921509 0.9999846
vn 0.0039215684 0.003921509 0.9999846
vn 0.0039215684 0.003921509 0.9999846
vn 0.0039215684 0.003921509 0.9999846
vn -0.003921509 0.99999225 -0.00034526698
vn -0.003921509 0.99999225 -0.00034526698
vn -0.003921509 0.99999225 -0.00034526698
vn -0.003921509 -0.9999924 -0
vn -0.003921509 -0.9999924 -0
vn -0.003921509 -0.9999924 -0
vn 0.0039215684 -0.0039215684 0.9999846
vn 0.0039215684 -0.0039215684 0.9999846
vn 0.0039215684 -0.0039215684 0.9999846
vn 0.0039215684 -0.0039215684 0.9999846
vn -0.003921509 -0.9999924 -0
vn -0.003921509 -0.9999924 -0
vn -0.003921509 -0.9999924 -0
vn -0.003921509 0.99999225 -0.00034526698
vn -0.003921509 0.99999225 -0.00034526698
vn -0.003921509 0.99999225 -0.00034526698
vn -0.003921509 0.99999225 -0.00034526698
vn -0.003921509 0.99999225 -0.00034526698
vn -0.003921509 -0.9999924 -0
vn -0.003921509 -0.9999924 -0
g NapalmTurret_04_CorpsePart1_0
f 3/3/3 2/2/2 1/1/1
f 4/4/4 1/1/1 2/2/2
f 7/7/7 6/6/6 5/5/5
f 8/8/8 5/5/5 6/6/6
f 11/11/11 10/10/10 9/9/9
f 12/12/12 9/9/9 10/10/10
f 15/15/15 14/14/14 13/13/13
f 16/16/16 13/13/13 14/14/14
f 9/9/9 12/12/12 7/7/7
f 6/6/6 7/7/7 12/12/12
f 1/1/1 4/4/4 15/15/15
f 14/14/14 15/15/15 4/4/4
f 13/13/13 16/16/16 11/11/11
f 10/10/10 11/11/11 16/16/16
f 8/8/8 17/17/17 5/5/5
f 18/18/18 5/5/5 17/17/17
f 21/21/21 20/20/20 19/19/19
f 24/24/24 23/23/23 22/22/22
f 25/25/25 22/22/22 23/23/23
f 3/3/3 1/1/1 26/26/26
f 27/27/27 26/26/26 1/1/1
f 7/7/7 5/5/5 28/28/28
f 29/29/29 28/28/28 5/5/5
f 11/11/11 9/9/9 30/30/30
f 31/31/31 30/30/30 9/9/9
f 15/15/15 13/13/13 32/32/32
f 33/33/33 32/32/32 13/13/13
f 9/9/9 7/7/7 31/31/31
f 28/28/28 31/31/31 7/7/7
f 1/1/1 15/15/15 27/27/27
f 32/32/32 27/27/27 15/15/15
f 13/13/13 11/11/11 33/33/33
f 30/30/30 33/33/33 11/11/11
f 5/5/5 18/18/18 29/29/29
f 34/34/34 29/29/29 18/18/18
f 37/37/37 36/36/36 35/35/35
f 38/38/38 35/35/35 36/36/36
f 41/41/41 40/40/40 39/39/39
f 44/44/44 43/43/43 42/42/42
f 45/45/45 42/42/42 43/43/43
f 48/48/48 47/47/47 46/46/46
f 49/49/49 46/46/46 47/47/47
f 52/52/52 51/51/51 50/50/50
f 53/53/53 50/50/50 51/51/51
f 56/56/56 55/55/55 54/54/54
f 57/57/57 54/54/54 55/55/55
f 51/51/51 48/48/48 53/53/53
f 46/46/46 53/53/53 48/48/48
f 43/43/43 56/56/56 45/45/45
f 54/54/54 45/45/45 56/56/56
f 55/55/55 52/52/52 57/57/57
f 50/50/50 57/57/57 52/52/52
f 47/47/47 58/58/58 49/49/49
f 59/59/59 49/49/49 58/58/58
f 62/62/62 61/61/61 60/60/60
f 65/65/65 64/64/64 63/63/63
f 66/66/66 63/63/63 64/64/64
f 68/68/68 67/67/67 44/44/44
f 43/43/43 44/44/44 67/67/67
f 70/70/70 69/69/69 48/48/48
f 47/47/47 48/48/48 69/69/69
f 72/72/72 71/71/71 52/52/52
f 51/51/51 52/52/52 71/71/71
f 74/74/74 73/73/73 56/56/56
f 55/55/55 56/56/56 73/73/73
f 71/71/71 70/70/70 51/51/51
f 48/48/48 51/51/51 70/70/70
f 67/67/67 74/74/74 43/43/43
f 56/56/56 43/43/43 74/74/74
f 73/73/73 72/72/72 55/55/55
f 52/52/52 55/55/55 72/72/72
f 69/69/69 75/75/75 47/47/47
f 58/58/58 47/47/47 75/75/75
f 78/78/78 77/77/77 76/76/76
f 79/79/79 76/76/76 77/77/77
f 82/82/82 81/81/81 80/80/80
f 85/85/85 84/84/84 83/83/83
f 84/84/84 86/86/86 83/83/83
f 88/88/88 87/87/87 86/86/86
f 86/86/86 87/87/87 83/83/83
f 91/91/91 90/90/90 89/89/89
f 92/92/92 89/89/89 90/90/90
f 94/94/94 93/93/93 89/89/89
f 91/91/91 89/89/89 93/93/93
f 96/96/96 95/95/95 94/94/94
f 93/93/93 94/94/94 95/95/95
f 98/98/98 97/97/97 96/96/96
f 95/95/95 96/96/96 97/97/97
f 100/100/100 99/99/99 98/98/98
f 97/97/97 98/98/98 99/99/99
f 92/92/92 90/90/90 101/101/101
f 102/102/102 101/101/101 90/90/90
f 105/105/105 104/104/104 103/103/103
f 107/107/107 106/106/106 104/104/104
f 104/104/104 106/106/106 103/103/103
f 106/106/106 108/108/108 103/103/103
f 111/111/111 110/110/110 109/109/109
f 112/112/112 109/109/109 110/110/110
f 110/110/110 113/113/113 112/112/112
f 114/114/114 112/112/112 113/113/113
f 113/113/113 115/115/115 114/114/114
f 116/116/116 114/114/114 115/115/115
f 115/115/115 117/117/117 116/116/116
f 118/118/118 116/116/116 117/117/117
f 117/117/117 119/119/119 118/118/118
f 120/120/120 118/118/118 119/119/119
f 122/122/122 111/111/111 121/121/121
f 109/109/109 121/121/121 111/111/111
f 125/125/125 124/124/124 123/123/123
f 126/126/126 123/123/123 124/124/124
f 129/129/129 128/128/128 127/127/127
f 132/132/132 131/131/131 130/130/130
f 135/135/135 134/134/134 133/133/133
f 136/136/136 133/133/133 134/134/134
f 139/139/139 138/138/138 137/137/137
f 142/142/142 141/141/141 140/140/140
f 36/36/36 39/39/39 38/38/38
f 40/40/40 38/38/38 39/39/39
f 143/143/143 37/37/37 35/35/35
f 77/77/77 80/80/80 79/79/79
f 81/81/81 79/79/79 80/80/80
f 144/144/144 78/78/78 76/76/76
f 145/145/145 22/22/22 25/25/25
f 146/146/146 64/64/64 65/65/65
f 24/24/24 19/19/19 23/23/23
f 20/20/20 23/23/23 19/19/19
f 66/66/66 60/60/60 63/63/63
f 61/61/61 63/63/63 60/60/60
