g NapalmTurret_03_CorpsePart
v 0.14151067 -0.5991608 -0.084804356
v 0.14059138 -0.5997414 0.09576553
v 0.14273638 -0.5082146 0.20788783
v 0.14138162 -0.50729525 -0.20237797
v 0.14138162 -0.50729525 -0.20237797
v -0.1407628 -0.50729525 -0.20237797
v -0.1394887 -0.7457649 -0.20339406
v 0.14010751 -0.7457649 -0.20339406
v 0.14010751 -0.7457649 -0.20339406
v 0.14088166 -0.6866072 -0.085062385
v 0.14284927 -0.84896845 0.20798463
v 0.14078492 -0.68944573 0.09574938
v 0.10169047 -0.689365 0.09560424
v 0.1019001 -0.84093666 0.17730898
v 0.09923899 -0.7531032 -0.1699928
v 0.100480855 -0.6866233 -0.08519143
v 0.10178721 -0.50884354 0.17679292
v 0.101496935 -0.599693 0.09563649
v 0.10038406 -0.5082146 -0.169509
v 0.10107756 -0.5990479 -0.08494949
v -0.09862018 -0.7531032 -0.1699928
v -0.09974915 -0.5082146 -0.169509
v 0.10038406 -0.5082146 -0.169509
v 0.09923899 -0.7531032 -0.1699928
v 0.1019001 -0.84093666 0.17730898
v -0.10126519 -0.84093666 0.17730898
v -0.14221436 -0.84896845 0.20798463
v 0.14284927 -0.84896845 0.20798463
v 0.14273638 -0.5082146 0.20788783
v 0.10178721 -0.50884354 0.17679292
v 0.10038406 -0.5082146 -0.169509
v 0.14138162 -0.50729525 -0.20237797
v -0.09974915 -0.5082146 -0.169509
v -0.1407628 -0.50729525 -0.20237797
v 0.14010751 -0.7457649 -0.20339406
v 0.09923899 -0.7531032 -0.1699928
v 0.10169047 -0.689365 0.09560424
v 0.14078492 -0.68944573 0.09574938
v 0.14059138 -0.5997414 0.09576553
v 0.101496935 -0.599693 0.09563649
v 0.14078492 -0.68944573 0.09574938
v 0.10169047 -0.689365 0.09560424
v 0.100480855 -0.6866233 -0.08519143
v 0.14088166 -0.6866072 -0.085062385
v 0.10107756 -0.5990479 -0.08494949
v 0.14151067 -0.5991608 -0.084804356
v 0.14088166 -0.6866072 -0.085062385
v 0.100480855 -0.6866233 -0.08519143
v 0.14151067 -0.5991608 -0.084804356
v 0.10107756 -0.5990479 -0.08494949
v 0.101496935 -0.599693 0.09563649
v 0.14059138 -0.5997414 0.09576553
v -0.1394887 -0.7457649 -0.20339406
v -0.09862018 -0.7531032 -0.1699928
v -0.1408757 -0.5991608 -0.084804356
v -0.1407628 -0.50729525 -0.20237797
v -0.14211756 -0.5082146 0.20788783
v -0.13995641 -0.5997414 0.09576553
v -0.1394887 -0.7457649 -0.20339406
v -0.14024675 -0.6866072 -0.085062385
v -0.14221436 -0.84896845 0.20798463
v -0.14014995 -0.68944573 0.09574938
v -0.14221436 -0.84896845 0.20798463
v -0.14211756 -0.5082146 0.20788783
v 0.14273638 -0.5082146 0.20788783
v 0.14284927 -0.84896845 0.20798463
v -0.1010555 -0.689365 0.09560424
v -0.099845886 -0.6866233 -0.08519143
v -0.09862018 -0.7531032 -0.1699928
v -0.10126519 -0.84093666 0.17730898
v -0.1011523 -0.50884354 0.17679292
v -0.10087812 -0.599693 0.09563649
v -0.1004588 -0.5990479 -0.08494949
v -0.09974915 -0.5082146 -0.169509
v -0.14211756 -0.5082146 0.20788783
v -0.1011523 -0.50884354 0.17679292
v -0.1010555 -0.689365 0.09560424
v -0.10087812 -0.599693 0.09563649
v -0.13995641 -0.5997414 0.09576553
v -0.14014995 -0.68944573 0.09574938
v -0.14014995 -0.68944573 0.09574938
v -0.14024675 -0.6866072 -0.085062385
v -0.099845886 -0.6866233 -0.08519143
v -0.1010555 -0.689365 0.09560424
v -0.1004588 -0.5990479 -0.08494949
v -0.099845886 -0.6866233 -0.08519143
v -0.14024675 -0.6866072 -0.085062385
v -0.1408757 -0.5991608 -0.084804356
v -0.1408757 -0.5991608 -0.084804356
v -0.13995641 -0.5997414 0.09576553
v -0.10087812 -0.599693 0.09563649
v -0.1004588 -0.5990479 -0.08494949
v -0.1011523 -0.50884354 0.17679292
v -0.10126519 -0.84093666 0.17730898
v 0.1019001 -0.84093666 0.17730898
v 0.10178721 -0.50884354 0.17679292
v 0.101771116 -0.7475874 0.17661554
v -0.10121679 -0.74595845 0.1770348
v -0.10311991 -0.02113074 0.17888957
v 0.10360968 -0.019276023 0.1784702
v -0.102829576 -0.02113074 -0.17208946
v -0.10311991 -0.02113074 0.17888957
v -0.10121679 -0.74595845 0.1770348
v -0.10094261 -0.6834138 -0.17023474
v 0.10360968 -0.019276023 0.1784702
v 0.1055128 -0.01925987 -0.17304105
v 0.10367423 -0.6849621 -0.17118633
v 0.101771116 -0.7475874 0.17661554
v 0.1055128 -0.01925987 -0.17304105
v -0.102829576 -0.02113074 -0.17208946
v -0.10094261 -0.6834138 -0.17023474
v 0.10367423 -0.6849621 -0.17118633
v -0.10094261 -0.6834138 -0.17023474
v -0.10121679 -0.74595845 0.1770348
v 0.101771116 -0.7475874 0.17661554
v 0.10367423 -0.6849621 -0.17118633
v -0.10311991 -0.02113074 0.17888957
v -0.102829576 -0.02113074 -0.17208946
v 0.1055128 -0.01925987 -0.17304105
v 0.10360968 -0.019276023 0.1784702
vt 0.7640088 0.7260078
vt 0.7704215 0.7260078
vt 0.7739841 0.72292024
vt 0.7602087 0.72292024
vt 0.7602087 0.72292024
vt 0.750471 0.7226827
vt 0.750471 0.73147047
vt 0.7599712 0.73147047
vt 0.7599712 0.73147047
vt 0.7640088 0.7290954
vt 0.7739841 0.73455805
vt 0.7704215 0.7293329
vt 0.8335982 0.66805625
vt 0.8376358 0.6701938
vt 0.8354982 0.66093105
vt 0.8335982 0.6633061
vt 0.82884806 0.6701938
vt 0.83122313 0.66805625
vt 0.82884806 0.66093105
vt 0.83122313 0.6633061
vt 0.83526075 0.6559434
vt 0.82884806 0.6557059
vt 0.82884806 0.66093105
vt 0.8354982 0.66093105
vt 0.8601989 0.7476209
vt 0.8601989 0.7407332
vt 0.8594864 0.7395457
vt 0.8594864 0.74880844
vt 0.8566363 0.74880844
vt 0.8559238 0.7476209
vt 0.84357345 0.7476209
vt 0.84309846 0.74880844
vt 0.84357345 0.7407332
vt 0.84286094 0.7395457
vt 0.8734993 0.74880844
vt 0.87278676 0.7476209
vt 0.76804644 0.6476307
vt 0.76804644 0.64881825
vt 0.7708965 0.64881825
vt 0.7708965 0.6476307
vt 0.76804644 0.64881825
vt 0.76804644 0.6476307
vt 0.7613963 0.6476307
vt 0.7613963 0.64881825
vt 0.7580712 0.6476307
vt 0.7580712 0.64881825
vt 0.7613963 0.64881825
vt 0.7613963 0.6476307
vt 0.7580712 0.64881825
vt 0.7580712 0.6476307
vt 0.751421 0.6476307
vt 0.751421 0.64881825
vt 0.8734993 0.7395457
vt 0.87278676 0.7407332
vt 0.79417217 0.7260078
vt 0.79797226 0.72292024
vt 0.7839594 0.72292024
vt 0.7877595 0.7262453
vt 0.79797226 0.73170793
vt 0.79417217 0.7290954
vt 0.7839594 0.73455805
vt 0.7877595 0.7293329
vt 0.7839594 0.73455805
vt 0.7839594 0.72292024
vt 0.7739841 0.72292024
vt 0.7739841 0.73455805
vt 0.8335982 0.677794
vt 0.8335982 0.6825441
vt 0.8354982 0.6849192
vt 0.8376358 0.67565644
vt 0.82884806 0.67565644
vt 0.83122313 0.677794
vt 0.83122313 0.6825441
vt 0.82884806 0.6849192
vt 0.8566363 0.7395457
vt 0.8559238 0.7404957
vt 0.76804644 0.63195527
vt 0.7708965 0.63195527
vt 0.7708965 0.63053024
vt 0.76804644 0.63053024
vt 0.76804644 0.63053024
vt 0.7613963 0.63053024
vt 0.7613963 0.63195527
vt 0.76804644 0.63195527
vt 0.7580712 0.63171774
vt 0.7613963 0.63195527
vt 0.7613963 0.63053024
vt 0.7580712 0.63053024
vt 0.7580712 0.63053024
vt 0.751421 0.63053024
vt 0.751421 0.63171774
vt 0.7580712 0.63171774
vt 0.82884806 0.67565644
vt 0.8376358 0.67565644
vt 0.8376358 0.6701938
vt 0.82884806 0.6701938
vt 0.8271855 0.678744
vt 0.8271855 0.6735189
vt 0.8079475 0.6735189
vt 0.8079475 0.678744
vt 0.8079475 0.6644937
vt 0.8079475 0.6735189
vt 0.8271855 0.6735189
vt 0.825523 0.6644937
vt 0.8079475 0.678744
vt 0.8079475 0.6877693
vt 0.825523 0.6877693
vt 0.8271855 0.678744
vt 0.8079475 0.6877693
vt 0.8079475 0.6927569
vt 0.825523 0.6927569
vt 0.825523 0.6877693
vt 0.7594962 0.6856317
vt 0.7754091 0.6856317
vt 0.7754091 0.67921907
vt 0.7594962 0.67921907
vt 0.8079475 0.6735189
vt 0.8079475 0.6644937
vt 0.8079475 0.6877693
vt 0.8079475 0.678744
vn 0.99993086 -0.011763922 -0
vn 0.9999924 -0.0039215684 -0
vn 0.9999924 -0.0039215684 -0
vn 0.99993086 -0.011763922 -0
vn -0.003921509 0.003921509 -0.9999846
vn -0.003921509 0.003921509 -0.9999846
vn -0.003921509 0.003921509 -0.9999846
vn -0.003921509 0.003921509 -0.9999846
vn 0.9999924 0.003921509 -0
vn 0.9999924 0.003921509 -0
vn 0.9999924 0.003921509 -0
vn 0.9999924 0.003921509 -0
vn -0.99999225 0.003921509 -0.00034492963
vn -0.99999225 0.003921509 -0.00034492963
vn -0.99999225 0.003921509 -0.00034492963
vn -0.99999225 0.003921509 -0.00034492963
vn -0.99999225 -0.0039215684 -0.00034425134
vn -0.99999225 -0.0039215684 -0.00034425134
vn -0.99999225 0.003921509 -0.00034492963
vn -0.99999225 0.003921509 -0.00034492963
vn -0.003921509 -0.0039215684 0.9999846
vn -0.003921509 -0.0039215684 0.9999846
vn -0.003921509 -0.0039215684 0.9999846
vn -0.003921509 -0.0039215684 0.9999846
vn -0.011764526 -0.96862006 -0.24826749
vn 0.011764646 -0.96862006 -0.24826749
vn 0.011764646 -0.96862006 -0.24826749
vn -0.011764526 -0.96862006 -0.24826749
vn -0.011763804 0.99993086 -0
vn -0.011763804 0.99993086 -0
vn -0.011763804 0.99993086 -0
vn -0.011763804 0.99993086 -0
vn 0.011763923 0.99993086 -0
vn 0.011763923 0.99993086 -0
vn -0.011764526 -0.96862006 -0.24826749
vn -0.011764526 -0.96862006 -0.24826749
vn 0.0039215684 0.003921509 -0.9999846
vn 0.0039215684 0.003921509 -0.9999846
vn 0.0039215684 0.003921509 -0.9999846
vn 0.0039215684 0.003921509 -0.9999846
vn 0.0039215684 0.99999225 -0.00034526698
vn 0.0039215684 0.99999225 -0.00034526698
vn 0.0039215684 0.99999225 -0.00034526698
vn 0.0039215684 0.99999225 -0.00034526698
vn -0.003921509 -0.0039215684 0.9999846
vn -0.003921509 -0.0039215684 0.9999846
vn -0.003921509 -0.0039215684 0.9999846
vn -0.003921509 -0.0039215684 0.9999846
vn -0.003921509 -0.9999924 -0
vn -0.003921509 -0.9999924 -0
vn -0.003921509 -0.9999924 -0
vn -0.003921509 -0.9999924 -0
vn 0.011764646 -0.96862006 -0.24826749
vn 0.011764646 -0.96862006 -0.24826749
vn -0.99993086 -0.011763923 -0
vn -0.99993086 -0.011763923 -0
vn -0.99999225 -0.0039215684 -0.00034425134
vn -0.99999225 -0.0039215684 -0.00034425134
vn -0.99999225 0.003921509 -0.00034492963
vn -0.99999225 0.003921509 -0.00034492963
vn -0.99999225 0.003921509 -0.00034492963
vn -0.99999225 0.003921509 -0.00034492963
vn -0.003921509 0.003921509 0.9999846
vn -0.003921509 0.003921509 0.9999846
vn -0.003921509 0.003921509 0.9999846
vn -0.003921509 0.003921509 0.9999846
vn 0.9999924 0.003921509 -0
vn 0.9999924 0.003921509 -0
vn 0.9999924 0.003921509 -0
vn 0.9999924 0.003921509 -0
vn 0.9999924 -0.0039215684 -0
vn 0.9999924 -0.0039215684 -0
vn 0.9999924 0.003921509 -0
vn 0.9999924 0.003921509 -0
vn 0.011763923 0.99993086 -0
vn 0.011763923 0.99993086 -0
vn -0.003921509 0.003921509 -0.9999846
vn -0.003921509 0.003921509 -0.9999846
vn -0.003921509 0.003921509 -0.9999846
vn -0.003921509 0.003921509 -0.9999846
vn -0.003921509 0.99999225 -0.00034526698
vn -0.003921509 0.99999225 -0.00034526698
vn -0.003921509 0.99999225 -0.00034526698
vn -0.003921509 0.99999225 -0.00034526698
vn 0.0039215684 -0.0039215684 0.9999846
vn 0.0039215684 -0.0039215684 0.9999846
vn 0.0039215684 -0.0039215684 0.9999846
vn 0.0039215684 -0.0039215684 0.9999846
vn 0.0039215684 -0.9999924 -0
vn 0.0039215684 -0.9999924 -0
vn 0.0039215684 -0.9999924 -0
vn 0.0039215684 -0.9999924 -0
vn -0.003921509 -0.0039215684 -0.9999846
vn -0.003921509 -0.0039215684 -0.9999846
vn -0.003921509 -0.0039215684 -0.9999846
vn -0.003921509 -0.0039215684 -0.9999846
vn 0.0039215684 -0.0039215684 0.9999846
vn 0.0039215684 -0.0039215684 0.9999846
vn 0.0039215684 -0.0039215684 0.9999846
vn 0.0039215684 -0.0039215684 0.9999846
vn -0.99999225 -0.0039215684 -0.00034425134
vn -0.99999225 -0.0039215684 -0.00034425134
vn -0.99999225 -0.0039215684 -0.00034425134
vn -0.99999225 -0.0039215684 -0.00034425134
vn 0.9999924 -0.0039215684 -0
vn 0.9999924 -0.0039215684 -0
vn 0.9999924 -0.0039215684 -0
vn 0.9999924 -0.0039215684 -0
vn -0.003921509 -0.0039215684 -0.9999846
vn -0.003921509 -0.0039215684 -0.9999846
vn -0.003921509 -0.0039215684 -0.9999846
vn -0.003921509 -0.0039215684 -0.9999846
vn -0.011764526 -0.9843062 -0.17607634
vn -0.011764526 -0.9843062 -0.17607634
vn -0.011764526 -0.9843062 -0.17607634
vn -0.011764526 -0.9843062 -0.17607634
vn -0.011763804 0.99993086 -0
vn -0.011763804 0.99993086 -0
vn -0.011763804 0.99993086 -0
vn -0.011763804 0.99993086 -0
g NapalmTurret_03_CorpsePart_0
f 3/3/3 2/2/2 1/1/1
f 4/4/4 3/3/3 1/1/1
f 7/7/7 6/6/6 5/5/5
f 8/8/8 7/7/7 5/5/5
f 1/1/1 10/10/10 9/9/9
f 4/4/4 1/1/1 9/9/9
f 10/10/10 12/12/12 11/11/11
f 9/9/9 10/10/10 11/11/11
f 2/2/2 3/3/3 11/11/11
f 12/12/12 2/2/2 11/11/11
f 15/15/15 14/14/14 13/13/13
f 16/16/16 15/15/15 13/13/13
f 13/13/13 14/14/14 17/17/17
f 18/18/18 13/13/13 17/17/17
f 20/20/20 19/19/19 15/15/15
f 16/16/16 20/20/20 15/15/15
f 23/23/23 22/22/22 21/21/21
f 24/24/24 23/23/23 21/21/21
f 27/27/27 26/26/26 25/25/25
f 28/28/28 27/27/27 25/25/25
f 31/31/31 30/30/30 29/29/29
f 32/32/32 31/31/31 29/29/29
f 34/34/34 33/33/33 31/31/31
f 32/32/32 34/34/34 31/31/31
f 25/25/25 36/36/36 35/35/35
f 28/28/28 25/25/25 35/35/35
f 39/39/39 38/38/38 37/37/37
f 40/40/40 39/39/39 37/37/37
f 43/43/43 42/42/42 41/41/41
f 44/44/44 43/43/43 41/41/41
f 47/47/47 46/46/46 45/45/45
f 48/48/48 47/47/47 45/45/45
f 51/51/51 50/50/50 49/49/49
f 52/52/52 51/51/51 49/49/49
f 36/36/36 54/54/54 53/53/53
f 35/35/35 36/36/36 53/53/53
f 57/57/57 56/56/56 55/55/55
f 58/58/58 57/57/57 55/55/55
f 55/55/55 56/56/56 59/59/59
f 60/60/60 55/55/55 59/59/59
f 60/60/60 59/59/59 61/61/61
f 62/62/62 60/60/60 61/61/61
f 58/58/58 62/62/62 61/61/61
f 57/57/57 58/58/58 61/61/61
f 65/65/65 64/64/64 63/63/63
f 66/66/66 65/65/65 63/63/63
f 69/69/69 68/68/68 67/67/67
f 70/70/70 69/69/69 67/67/67
f 67/67/67 72/72/72 71/71/71
f 70/70/70 67/67/67 71/71/71
f 73/73/73 68/68/68 69/69/69
f 74/74/74 73/73/73 69/69/69
f 33/33/33 34/34/34 75/75/75
f 76/76/76 33/33/33 75/75/75
f 26/26/26 27/27/27 53/53/53
f 54/54/54 26/26/26 53/53/53
f 79/79/79 78/78/78 77/77/77
f 80/80/80 79/79/79 77/77/77
f 83/83/83 82/82/82 81/81/81
f 84/84/84 83/83/83 81/81/81
f 87/87/87 86/86/86 85/85/85
f 88/88/88 87/87/87 85/85/85
f 91/91/91 90/90/90 89/89/89
f 92/92/92 91/91/91 89/89/89
f 95/95/95 94/94/94 93/93/93
f 96/96/96 95/95/95 93/93/93
f 29/29/29 30/30/30 76/76/76
f 75/75/75 29/29/29 76/76/76
f 99/99/99 98/98/98 97/97/97
f 100/100/100 99/99/99 97/97/97
f 103/103/103 102/102/102 101/101/101
f 104/104/104 103/103/103 101/101/101
f 107/107/107 106/106/106 105/105/105
f 108/108/108 107/107/107 105/105/105
f 111/111/111 110/110/110 109/109/109
f 112/112/112 111/111/111 109/109/109
f 115/115/115 114/114/114 113/113/113
f 116/116/116 115/115/115 113/113/113
f 119/119/119 118/118/118 117/117/117
f 120/120/120 119/119/119 117/117/117
