g NapalmTurret_DefaultPart_2_CorpsePart
v -0.37633663 -0.056162238 0.41325182
v 0.3756787 0.43756604 0.40647322
v 0.37803498 -0.057647735 0.40946126
v -0.37565362 0.43756604 0.40647322
v 0.25118798 -0.05011785 0.68743527
v 0.13487601 -0.103441745 0.7313682
v 0.14691359 -0.049571455 0.73587584
v 0.24060175 -0.11892837 0.67882967
v 0.37803498 -0.057647735 0.40946126
v 0.3484618 -0.19742016 0.40708792
v 0.17394263 -0.08122772 0.58102655
v 0.07287824 -0.15073828 0.66974604
v 0.18738031 -0.17377189 0.5955912
v 0.06376043 -0.08057889 0.65330327
v 0.3756787 0.43756604 0.40647322
v 0.35121083 -0.25381747 0.21158409
v 0.3831061 0.43840265 0.21475995
v 0.26443785 0.31514132 0.00025212765
v 0.35121083 -0.25381747 0.21158409
v 0.3831061 0.43840265 0.21475995
v 0.28424436 -0.32814306 -0.00031131506
v 0.22086355 -0.08457434 0.20065635
v 0.21719252 -0.2484902 0.35536903
v 0.23542815 -0.2969649 0.19961482
v 0.20240594 -0.08325958 0.35029787
v 0.24615099 -0.3528841 0.038243055
v -0.28423637 -0.32814306 -0.00031131506
v -0.25468028 -0.35037416 0.04577294
v 0.28424436 -0.32814306 -0.00031131506
v 0.22776167 -0.085769564 0.06530625
v 0.24615099 -0.3528841 0.038243055
v 0.3484618 -0.19742016 0.40708792
v 0.18738031 -0.17377189 0.5955912
v 0.24060175 -0.11892837 0.67882967
v 0.21719252 -0.2484902 0.35536903
v 0.07287824 -0.15073828 0.66974604
v 0.13487601 -0.103441745 0.7313682
v 0.19120502 0.50186884 0.20460057
v 0.26443785 0.31514132 0.00025212765
v 0.3831061 0.43840265 0.21475995
v 0.26443785 0.31514132 0.00025212765
v -0.19119704 0.50186884 0.20460057
v -0.26442987 0.31514132 0.00025212765
v 0.19120502 0.50186884 0.20460057
v 0.35121083 -0.25381747 0.21158409
v 0.23542815 -0.2969649 0.19961482
v -0.06376952 -0.08057889 0.65330327
v -0.072870284 -0.15073828 0.66974604
v -0.25118 -0.05011785 0.68743527
v -0.13486803 -0.103441745 0.7313682
v -0.24059379 -0.11892837 0.67882967
v -0.1469056 -0.049571455 0.73587584
v -0.37633663 -0.056162238 0.41325182
v -0.34847093 -0.19742016 0.40708792
v -0.17393464 -0.08122772 0.58102655
v -0.18738943 -0.17377189 0.5955912
v -0.37565362 0.43756604 0.40647322
v -0.35120285 -0.25381747 0.21158409
v -0.38309813 0.43840265 0.21475995
v -0.13486803 -0.103441745 0.7313682
v -0.072870284 -0.15073828 0.66974604
v -0.26442987 0.31514132 0.00025212765
v -0.35120285 -0.25381747 0.21158409
v -0.28423637 -0.32814306 -0.00031131506
v -0.38309813 0.43840265 0.21475995
v -0.2208556 -0.08457434 0.20065635
v -0.21720159 -0.2484902 0.35536903
v -0.20239794 -0.08325958 0.35029787
v -0.23542017 -0.2969649 0.19961482
v -0.2277537 -0.085769564 0.06530625
v -0.25468028 -0.35037416 0.04577294
v -0.35120285 -0.25381747 0.21158409
v -0.23542017 -0.2969649 0.19961482
v -0.34847093 -0.19742016 0.40708792
v -0.18738943 -0.17377189 0.5955912
v -0.21720159 -0.2484902 0.35536903
v -0.24059379 -0.11892837 0.67882967
v -0.38309813 0.43840265 0.21475995
v 0.22776167 -0.085769564 0.06530625
v -0.25468028 -0.35037416 0.04577294
v -0.2277537 -0.085769564 0.06530625
v 0.24615099 -0.3528841 0.038243055
v 0.28424436 -0.32814306 -0.00031131506
v -0.26442987 0.31514132 0.00025212765
v -0.28423637 -0.32814306 -0.00031131506
v 0.26443785 0.31514132 0.00025212765
v 0.31900817 0.68687177 0.21516973
v 0.31753975 0.6828934 0.40659273
v -0.31900018 0.68687177 0.21516973
v -0.31748056 0.6828934 0.40659273
v 0.31900817 0.68687177 0.21516973
v 0.18311167 0.7179475 0.40659273
v 0.18498988 0.72238696 0.21505022
v 0.31753975 0.6828934 0.40659273
v -0.18306953 0.7179475 0.40659273
v 0.18498988 0.72238696 0.21505022
v 0.18311167 0.7179475 0.40659273
v -0.18498188 0.72238696 0.21505022
v -0.31748056 0.6828934 0.40659273
v -0.31900018 0.68687177 0.21516973
v 0.31753975 0.6828934 0.40659273
v 0.18311167 0.7179475 0.40659273
v -0.31748056 0.6828934 0.40659273
v -0.18306953 0.7179475 0.40659273
v 0.18498988 0.72238696 0.21505022
v 0.3831061 0.43840265 0.21475995
v 0.31900817 0.68687177 0.21516973
v 0.19120502 0.50186884 0.20460057
v -0.19119704 0.50186884 0.20460057
v -0.18498188 0.72238696 0.21505022
v -0.31900018 0.68687177 0.21516973
v -0.38309813 0.43840265 0.21475995
v -0.25118 -0.05011785 0.68743527
v 0.37803498 -0.057647735 0.40946126
v 0.25118798 -0.05011785 0.68743527
v -0.37633663 -0.056162238 0.41325182
v -0.1469056 -0.049571455 0.73587584
v 0.14691359 -0.049571455 0.73587584
v 0.22776167 -0.085769564 0.06530625
v 0.20240594 -0.08325958 0.35029787
v 0.22086355 -0.08457434 0.20065635
v 0.06376043 -0.08057889 0.65330327
v 0.17394263 -0.08122772 0.58102655
v -0.17393464 -0.08122772 0.58102655
v -0.06376952 -0.08057889 0.65330327
v -0.20239794 -0.08325958 0.35029787
v -0.2208556 -0.08457434 0.20065635
v -0.2277537 -0.085769564 0.06530625
vt 0.8007653 0.7343751
vt 0.81075954 0.7151005
vt 0.8007653 0.71533847
vt 0.81075954 0.7343751
vt 0.8264647 0.6556111
vt 0.8212297 0.65537316
vt 0.8219435 0.65751475
vt 0.82479906 0.6534695
vt 0.8343173 0.64680666
vt 0.8295582 0.64371324
vt 0.768641 0.62895983
vt 0.77149653 0.62610435
vt 0.768641 0.62610435
vt 0.77149653 0.62895983
vt 0.8519262 0.656325
vt 0.8309859 0.63633657
vt 0.8557335 0.64966214
vt 0.85620946 0.6380022
vt 0.8309859 0.63633657
vt 0.8557335 0.64966214
vt 0.83074796 0.6270562
vt 0.7617402 0.62895983
vt 0.7643578 0.62610435
vt 0.7617402 0.62610435
vt 0.7643578 0.62895983
vt 0.82741654 0.628008
vt 0.8050485 0.62610435
vt 0.8052865 0.62824595
vt 0.83074796 0.6270562
vt 0.7591227 0.62895983
vt 0.7591227 0.62610435
vt 0.8295582 0.64371324
vt 0.82360923 0.6501381
vt 0.82479906 0.6534695
vt 0.8257508 0.64085776
vt 0.819564 0.6534695
vt 0.8212297 0.65537316
vt 0.8621584 0.64680666
vt 0.85620946 0.6380022
vt 0.8557335 0.64966214
vt 0.7595986 0.63395697
vt 0.77078265 0.6463308
vt 0.77149653 0.6372884
vt 0.75555336 0.64228547
vt 0.8309859 0.63633657
vt 0.8267027 0.63467085
vt 0.7736381 0.62895983
vt 0.7736381 0.62610435
vt 0.80671424 0.6556111
vt 0.8117114 0.65537316
vt 0.808142 0.6534695
vt 0.8112354 0.65751475
vt 0.7986237 0.64680666
vt 0.8033828 0.64371324
vt 0.7764936 0.62895983
vt 0.7764936 0.62610435
vt 0.78077686 0.65608704
vt 0.8019551 0.63633657
vt 0.77744544 0.64918625
vt 0.8117114 0.65537316
vt 0.813615 0.6534695
vt 0.77149653 0.6372884
vt 0.8019551 0.63633657
vt 0.8050485 0.62610435
vt 0.77744544 0.64918625
vt 0.7831564 0.62895983
vt 0.7805389 0.62610435
vt 0.7805389 0.62895983
vt 0.7831564 0.62610435
vt 0.785774 0.62895983
vt 0.785774 0.62610435
vt 0.8019551 0.63633657
vt 0.8062383 0.63443285
vt 0.8033828 0.64371324
vt 0.8093318 0.64990014
vt 0.8074281 0.64061975
vt 0.808142 0.6534695
vt 0.77744544 0.64918625
vt 0.7591227 0.62895983
vt 0.7512701 0.62610435
vt 0.7512701 0.62895983
vt 0.7591227 0.62610435
vt 0.82003987 0.7443693
vt 0.8378867 0.7303298
vt 0.82003987 0.7298539
vt 0.8378867 0.7438934
vt 0.8650139 0.65537316
vt 0.86073065 0.6613221
vt 0.76768917 0.6548972
vt 0.7719724 0.6608462
vt 0.8650139 0.65537316
vt 0.8650139 0.6648915
vt 0.8695351 0.6584666
vt 0.86073065 0.6613221
vt 0.7674512 0.6641776
vt 0.7512701 0.6670331
vt 0.75602925 0.67298204
vt 0.76293004 0.6579907
vt 0.7719724 0.6608462
vt 0.76768917 0.6548972
vt 0.8148048 0.71676624
vt 0.8155187 0.72009766
vt 0.8148048 0.73294735
vt 0.8155187 0.7296159
vt 0.7843462 0.706772
vt 0.7917229 0.70153695
vt 0.7850601 0.7034406
vt 0.7900572 0.706534
vt 0.791247 0.7165283
vt 0.7843462 0.7165283
vt 0.785536 0.72009766
vt 0.79196084 0.7215254
vt 0.8643 0.64514095
vt 0.86905915 0.63443285
vt 0.8643 0.6365745
vt 0.86905915 0.6472826
vt 0.8635861 0.6434753
vt 0.8635861 0.6382402
vt 0.83979034 0.65584904
vt 0.8447875 0.656325
vt 0.84216994 0.65608704
vt 0.8502605 0.6587046
vt 0.8488327 0.6568009
vt 0.8488327 0.6629878
vt 0.8502605 0.6610841
vt 0.8447875 0.6634637
vt 0.84216994 0.66370165
vt 0.83979034 0.66370165
vn 0.003934741 0.011750698 0.99992317
vn 0.003934741 0.003908038 0.9999846
vn 0.003934741 0.003908038 0.9999846
vn -0.003908038 0.011750698 0.9999233
vn 0.80389315 -0.19216025 0.56287676
vn 0.12157565 -0.113732934 0.9860447
vn 0.15294659 -0.113732934 0.98166806
vn 0.8274213 -0.19216025 0.5276821
vn 0.9987024 -0.05092692 -0
vn 0.9450623 -0.20784569 0.25230432
vn -0.9058219 -0.20000297 -0.37347752
vn -0.32545996 -0.23921663 -0.91479576
vn -0.9371928 -0.15294659 -0.3134916
vn -0.27056074 -0.25490206 -0.9283436
vn 0.9993782 0.03525834 -0
vn 0.9990703 -0.043109946 -0
vn 0.9993782 0.03525834 -0
vn 0.8980059 -0.0274629 -0.43912548
vn 0.93721956 0.011750698 -0.3485419
vn 0.8823204 -0.03530568 -0.46932313
vn 0.952905 0.027436137 -0.30202535
vn -0.9920919 -0.07451928 -0.10099784
vn -0.9920919 -0.082362056 -0.09471103
vn -0.9920919 -0.06667656 -0.10633872
vn -0.9920919 -0.098047495 -0.07836055
vn 0.20000297 -0.92937684 -0.31025386
vn -0.24703264 -0.92153406 -0.29958272
vn -0.2313472 -0.9450623 -0.23094542
vn 0.286273 -0.9058486 -0.3122276
vn -0.99778414 -0.066533156 -0
vn -0.99778414 -0.066533156 -0
vn 0.24705935 -0.92153406 0.29956076
vn 0.25490206 -0.8823204 0.39564583
vn 0.2313739 -0.8744777 0.4263272
vn 0.25490206 -0.92153406 0.29291615
vn 0.0431484 -0.8195786 0.5713398
vn 0.06667656 -0.8274213 0.5576093
vn 0.06667656 0.7489673 -0.65924364
vn 0.058833838 0.7489673 -0.65998983
vn 0.27843028 0.75681007 -0.5913672
vn 0.058833838 0.7489673 -0.65998983
vn -0.058807135 0.7489673 -0.6599922
vn -0.050964355 0.7489673 -0.66064405
vn 0.06667656 0.7489673 -0.65924364
vn 0.30195844 -0.9058486 0.29708484
vn 0.30195844 -0.8980059 0.32001016
vn 0.26274478 -0.25490206 -0.9305859
vn 0.30980116 -0.23921663 -0.9202166
vn -0.8038664 -0.19216025 0.56291497
vn -0.11370623 -0.105890214 0.9878553
vn -0.8273946 -0.19216025 0.527724
vn -0.14507711 -0.113732934 0.9828619
vn -0.99870235 -0.050928276 -0
vn -0.9450356 -0.20000297 0.25866312
vn 0.9058486 -0.20000297 -0.3734128
vn 0.93721956 -0.15294659 -0.31341165
vn -0.9993782 0.035259284 -0
vn -0.9990703 -0.0431111 -0
vn -0.9993782 0.035259284 -0
vn -0.08233523 -0.8274213 0.55551314
vn -0.058807135 -0.8274213 0.55849415
vn -0.89797914 -0.0274629 -0.43918017
vn -0.9371928 0.011750698 -0.34861377
vn -0.95287824 0.027436137 -0.3021098
vn -0.8822937 -0.03530568 -0.46937332
vn 0.99211866 -0.07451928 -0.100734584
vn 0.99211866 -0.082362056 -0.094430245
vn 0.99211866 -0.098047495 -0.078020945
vn 0.99211866 -0.082362056 -0.094430245
vn 0.99211866 -0.082362056 -0.094430245
vn 0.99211866 -0.090204775 -0.086969405
vn -0.30193174 -0.9058486 0.29711193
vn -0.30193174 -0.8980059 0.3200353
vn -0.24703264 -0.92153406 0.29958272
vn -0.2548753 -0.8823204 0.39566308
vn -0.2548753 -0.92153406 0.29293945
vn -0.2313472 -0.8744777 0.42634174
vn -0.27840352 0.75681007 -0.59137976
vn 0.011777461 -0.090204775 0.9958536
vn 0.003934741 -0.082362056 0.9965947
vn -0.003908038 -0.07451928 0.99721193
vn 0.011777461 -0.098047495 0.99511206
vn -0.003908038 0.003908038 -0.99998474
vn -0.003908038 0.003908038 -0.99998474
vn -0.003908038 0.003908038 -0.99998474
vn -0.003908038 0.003908038 -0.99998474
vn 0.96859044 0.23918986 0.06797615
vn 0.9730609 0.2305482 -0
vn -0.9685637 0.23918986 0.068356514
vn -0.9730595 0.23055418 -0
vn 0.25450906 0.9670704 -0
vn 0.066533156 0.99778414 -0
vn 0.07431805 0.9972346 -0
vn 0.25450906 0.9670704 -0
vn -0.06650657 0.9977859 -0
vn 0.07431805 0.9972346 -0
vn 0.066533156 0.99778414 -0
vn -0.06650657 0.9977859 -0
vn -0.2544841 0.967077 -0
vn -0.2544841 0.967077 -0
vn -0.003908038 -0.003934741 0.9999846
vn -0.003908038 0.003908038 0.99998474
vn -0.003908038 -0.003934741 0.9999846
vn -0.003908038 0.003908038 0.99998474
vn 0.011777461 0.043121696 -0.99900043
vn 0.050991118 0.035278916 -0.9980758
vn 0.003934741 0.003908038 -0.9999846
vn 0.0274629 0.050964355 -0.9983228
vn -0.019593477 0.035278916 -0.9991854
vn -0.003908038 0.050964355 -0.9986928
vn -0.035278916 0.035278916 -0.9987546
vn -0.058807135 0.019593477 -0.99807703
vn 0.003934741 0.9999347 -0.010731084
vn 0.003934741 0.9999347 -0.010731084
vn -0.003908038 0.9999347 -0.0107421875
vn 0.003934741 0.9999347 -0.010731084
vn -0.003908038 0.9999347 -0.0107421875
vn -0.003908038 0.9999347 -0.0107421875
vn -0.003908038 -0.9999614 0.007873299
vn -0.003908038 -0.9999614 0.007873299
vn -0.003908038 -0.9999614 0.007873299
vn -0.003908038 -0.9999614 0.007873299
vn 0.003934741 -0.9999614 0.007858143
vn -0.003908038 -0.9999614 0.007873299
vn -0.003908038 -0.9999614 0.007873299
vn -0.003908038 -0.9999614 0.007873299
vn -0.003908038 -0.9999614 0.007873299
vn -0.003908038 -0.9999614 0.007873299
g NapalmTurret_DefaultPart_2_CorpsePart_0
f 3/3/3 2/2/2 1/1/1
f 4/4/4 1/1/1 2/2/2
f 7/7/7 6/6/6 5/5/5
f 8/8/8 5/5/5 6/6/6
f 10/10/10 9/9/9 8/8/8
f 5/5/5 8/8/8 9/9/9
f 13/13/13 12/12/12 11/11/11
f 14/14/14 11/11/11 12/12/12
f 9/9/9 16/16/16 15/15/15
f 17/17/17 15/15/15 16/16/16
f 20/20/20 19/19/19 18/18/18
f 21/21/21 18/18/18 19/19/19
f 24/24/24 23/23/23 22/22/22
f 25/25/25 22/22/22 23/23/23
f 28/28/28 27/27/27 26/26/26
f 29/29/29 26/26/26 27/27/27
f 11/11/11 25/25/25 13/13/13
f 23/23/23 13/13/13 25/25/25
f 31/31/31 24/24/24 30/30/30
f 22/22/22 30/30/30 24/24/24
f 34/34/34 33/33/33 32/32/32
f 35/35/35 32/32/32 33/33/33
f 37/37/37 36/36/36 34/34/34
f 33/33/33 34/34/34 36/36/36
f 40/40/40 39/39/39 38/38/38
f 43/43/43 42/42/42 41/41/41
f 44/44/44 41/41/41 42/42/42
f 29/29/29 45/45/45 26/26/26
f 46/46/46 26/26/26 45/45/45
f 32/32/32 35/35/35 45/45/45
f 46/46/46 45/45/45 35/35/35
f 48/48/48 47/47/47 12/12/12
f 14/14/14 12/12/12 47/47/47
f 51/51/51 50/50/50 49/49/49
f 52/52/52 49/49/49 50/50/50
f 54/54/54 51/51/51 53/53/53
f 49/49/49 53/53/53 51/51/51
f 47/47/47 48/48/48 55/55/55
f 56/56/56 55/55/55 48/48/48
f 59/59/59 58/58/58 57/57/57
f 53/53/53 57/57/57 58/58/58
f 61/61/61 36/36/36 60/60/60
f 37/37/37 60/60/60 36/36/36
f 64/64/64 63/63/63 62/62/62
f 65/65/65 62/62/62 63/63/63
f 68/68/68 67/67/67 66/66/66
f 69/69/69 66/66/66 67/67/67
f 6/6/6 7/7/7 50/50/50
f 52/52/52 50/50/50 7/7/7
f 55/55/55 56/56/56 68/68/68
f 67/67/67 68/68/68 56/56/56
f 66/66/66 69/69/69 70/70/70
f 71/71/71 70/70/70 69/69/69
f 73/73/73 72/72/72 28/28/28
f 27/27/27 28/28/28 72/72/72
f 76/76/76 75/75/75 74/74/74
f 77/77/77 74/74/74 75/75/75
f 75/75/75 61/61/61 77/77/77
f 60/60/60 77/77/77 61/61/61
f 42/42/42 43/43/43 78/78/78
f 74/74/74 72/72/72 76/76/76
f 73/73/73 76/76/76 72/72/72
f 54/54/54 53/53/53 58/58/58
f 81/81/81 80/80/80 79/79/79
f 82/82/82 79/79/79 80/80/80
f 85/85/85 84/84/84 83/83/83
f 86/86/86 83/83/83 84/84/84
f 88/88/88 15/15/15 87/87/87
f 17/17/17 87/87/87 15/15/15
f 90/90/90 89/89/89 57/57/57
f 59/59/59 57/57/57 89/89/89
f 93/93/93 92/92/92 91/91/91
f 94/94/94 91/91/91 92/92/92
f 97/97/97 96/96/96 95/95/95
f 98/98/98 95/95/95 96/96/96
f 100/100/100 99/99/99 98/98/98
f 95/95/95 98/98/98 99/99/99
f 2/2/2 101/101/101 4/4/4
f 104/104/104 103/103/103 102/102/102
f 102/102/102 103/103/103 101/101/101
f 101/101/101 103/103/103 4/4/4
f 107/107/107 106/106/106 105/105/105
f 108/108/108 105/105/105 106/106/106
f 110/110/110 105/105/105 109/109/109
f 108/108/108 109/109/109 105/105/105
f 110/110/110 109/109/109 111/111/111
f 112/112/112 111/111/111 109/109/109
f 115/115/115 114/114/114 113/113/113
f 116/116/116 113/113/113 114/114/114
f 118/118/118 115/115/115 117/117/117
f 113/113/113 117/117/117 115/115/115
f 121/121/121 120/120/120 119/119/119
f 123/123/123 122/122/122 120/120/120
f 125/125/125 124/124/124 122/122/122
f 122/122/122 124/124/124 120/120/120
f 120/120/120 124/124/124 119/119/119
f 124/124/124 126/126/126 119/119/119
f 126/126/126 127/127/127 119/119/119
f 127/127/127 128/128/128 119/119/119
f 10/10/10 16/16/16 9/9/9
