g PaintTubeOffer_sign
v 0.055759713 0.1515956 -0.050510332
v -0.11182569 0.12711395 -0.050343096
v -0.020356357 0.061171472 -0.04961375
v 0.066853106 0.061371222 -0.049567297
v -0.11084552 -0.00445047 -0.048977323
v -0.0208209 0.03404191 -0.049330384
v -0.045432612 -0.021462187 -0.048768282
v 0.04337953 0.007846087 -0.049028426
v -0.04118201 -0.058444798 -0.048382707
v 0.0446942 -0.052707642 -0.04839664
v 0.048122555 -0.07589319 -0.048155077
v -0.03925413 -0.07868512 -0.04817366
v -0.03837149 -0.15233909 -0.047407158
v 0.05616852 -0.14885962 -0.047397867
v 0.05573649 0.15210195 -0.0015470535
v 0.066829875 0.061882228 -0.00060866773
v -0.020379573 0.06167783 -0.0006504804
v -0.111853585 0.12762032 -0.0013798177
v -0.110873386 -0.003944114 -1.8686056E-05
v -0.020848766 0.034548268 -0.000367105
v 0.0433563 0.008352444 -6.514788E-05
v -0.045455843 -0.020951197 0.0001949966
v 0.04467097 -0.052196637 0.0005619973
v -0.041205227 -0.05793844 0.00058057904
v 0.04809933 -0.07538684 0.0008082092
v 0.056140646 -0.14835326 0.0015654117
v -0.03839937 -0.15183273 0.0015514791
v -0.03927736 -0.07817876 0.00078962743
v 0.05573649 0.15210195 -0.0015470535
v -0.111853585 0.12762032 -0.0013798177
v -0.11182569 0.12711395 -0.050343096
v 0.055759713 0.1515956 -0.050510332
v -0.020379573 0.06167783 -0.0006504804
v 0.066829875 0.061882228 -0.00060866773
v 0.066853106 0.061371222 -0.049567297
v -0.020356357 0.061171472 -0.04961375
v 0.066829875 0.061882228 -0.00060866773
v 0.05573649 0.15210195 -0.0015470535
v 0.055759713 0.1515956 -0.050510332
v 0.066853106 0.061371222 -0.049567297
v -0.111853585 0.12762032 -0.0013798177
v -0.110873386 -0.003944114 -1.8686056E-05
v -0.11084552 -0.00445047 -0.048977323
v -0.11182569 0.12711395 -0.050343096
v -0.020848766 0.034548268 -0.000367105
v -0.020379573 0.06167783 -0.0006504804
v -0.020356357 0.061171472 -0.04961375
v -0.0208209 0.03404191 -0.049330384
v -0.110873386 -0.003944114 -1.8686056E-05
v -0.045455843 -0.020951197 0.0001949966
v -0.045432612 -0.021462187 -0.048768282
v -0.11084552 -0.00445047 -0.048977323
v 0.0433563 0.008352444 -6.514788E-05
v -0.020848766 0.034548268 -0.000367105
v -0.0208209 0.03404191 -0.049330384
v 0.04337953 0.007846087 -0.049028426
v -0.045455843 -0.020951197 0.0001949966
v -0.041205227 -0.05793844 0.00058057904
v -0.04118201 -0.058444798 -0.048382707
v -0.045432612 -0.021462187 -0.048768282
v -0.041205227 -0.05793844 0.00058057904
v 0.04467097 -0.052196637 0.0005619973
v 0.0446942 -0.052707642 -0.04839664
v -0.04118201 -0.058444798 -0.048382707
v 0.04467097 -0.052196637 0.0005619973
v 0.0433563 0.008352444 -6.514788E-05
v 0.04337953 0.007846087 -0.049028426
v 0.0446942 -0.052707642 -0.04839664
v 0.04809933 -0.07538684 0.0008082092
v -0.03927736 -0.07817876 0.00078962743
v -0.03925413 -0.07868512 -0.04817366
v 0.048122555 -0.07589319 -0.048155077
v -0.03927736 -0.07817876 0.00078962743
v -0.03839937 -0.15183273 0.0015514791
v -0.03837149 -0.15233909 -0.047407158
v -0.03925413 -0.07868512 -0.04817366
v -0.03839937 -0.15183273 0.0015514791
v 0.056140646 -0.14835326 0.0015654117
v 0.05616852 -0.14885962 -0.047397867
v -0.03837149 -0.15233909 -0.047407158
v 0.056140646 -0.14835326 0.0015654117
v 0.04809933 -0.07538684 0.0008082092
v 0.048122555 -0.07589319 -0.048155077
v 0.05616852 -0.14885962 -0.047397867
vt 0.036168132 1
vt 0.5894428 0.9188661
vt 0.28739002 0.70185727
vt 0 0.70185727
vt 0.5855327 0.4848485
vt 0.28934506 0.6119257
vt 0.370479 0.42913002
vt 0.07722385 0.5259042
vt 0.35679373 0.3079179
vt 0.07331378 0.32746822
vt 0.062561095 0.2512219
vt 0.34995112 0.24144672
vt 0.34701857 0
vt 0.037145652 0.012707722
vt 0.051808406 0.9990225
vt 0.016617792 0.7106549
vt 0.29618767 0.7096774
vt 0.5884653 0.92082113
vt 0.5855327 0.49951124
vt 0.29716522 0.6226784
vt 0.09188661 0.53958946
vt 0.37634408 0.4457478
vt 0.088954054 0.34604105
vt 0.36265886 0.32746822
vt 0.07820137 0.27272728
vt 0.052785926 0.0400782
vt 0.35386118 0.028347997
vt 0.35679373 0.2629521
vt 0.051808406 0.9990225
vt 0.5884653 0.92082113
vt 0.5894428 0.9188661
vt 0.036168132 1
vt 0.29618767 0.7096774
vt 0.016617792 0.7106549
vt 0 0.70185727
vt 0.28739002 0.70185727
vt 0.016617792 0.7106549
vt 0.051808406 0.9990225
vt 0.036168132 1
vt 0 0.70185727
vt 0.5884653 0.92082113
vt 0.5855327 0.49951124
vt 0.5855327 0.4848485
vt 0.5894428 0.9188661
vt 0.29716522 0.6226784
vt 0.29618767 0.7096774
vt 0.28739002 0.70185727
vt 0.28934506 0.6119257
vt 0.5855327 0.49951124
vt 0.37634408 0.4457478
vt 0.370479 0.42913002
vt 0.5855327 0.4848485
vt 0.09188661 0.53958946
vt 0.29716522 0.6226784
vt 0.28934506 0.6119257
vt 0.07722385 0.5259042
vt 0.37634408 0.4457478
vt 0.36265886 0.32746822
vt 0.35679373 0.3079179
vt 0.370479 0.42913002
vt 0.36265886 0.32746822
vt 0.088954054 0.34604105
vt 0.07331378 0.32746822
vt 0.35679373 0.3079179
vt 0.088954054 0.34604105
vt 0.09188661 0.53958946
vt 0.07722385 0.5259042
vt 0.07331378 0.32746822
vt 0.07820137 0.27272728
vt 0.35679373 0.2629521
vt 0.34995112 0.24144672
vt 0.062561095 0.2512219
vt 0.35679373 0.2629521
vt 0.35386118 0.028347997
vt 0.34701857 0
vt 0.34995112 0.24144672
vt 0.35386118 0.028347997
vt 0.052785926 0.0400782
vt 0.037145652 0.012707722
vt 0.34701857 0
vt 0.052785926 0.0400782
vt 0.07820137 0.27272728
vt 0.062561095 0.2512219
vt 0.037145652 0.012707722
vn 0.0039070845 -0.011749864 -0.99992335
vn 0.0039070845 -0.011749864 -0.99992335
vn 0.0039070845 -0.011749864 -0.99992335
vn 0.0039070845 -0.011749864 -0.99992335
vn 0.0039070845 -0.011749864 -0.99992335
vn 0.0039070845 -0.011749864 -0.99992335
vn 0.0039070845 -0.011749864 -0.99992335
vn 0.0039070845 -0.011749864 -0.99992335
vn 0.0039070845 -0.011749864 -0.99992335
vn 0.0039070845 -0.011749864 -0.99992335
vn 0.0039070845 -0.011749864 -0.99992335
vn 0.0039070845 -0.011749864 -0.99992335
vn 0.0039070845 -0.011749864 -0.99992335
vn 0.0039070845 -0.011749864 -0.99992335
vn -0.0039356947 0.011778474 0.9999229
vn -0.0039356947 0.011778474 0.9999229
vn -0.0039356947 0.011778474 0.9999229
vn -0.0039356947 0.011778474 0.9999229
vn -0.0039356947 0.011778474 0.9999229
vn -0.0039356947 0.011778474 0.9999229
vn -0.0039356947 0.011778474 0.9999229
vn -0.0039356947 0.011778474 0.9999229
vn -0.0039356947 0.011778474 0.9999229
vn -0.0039356947 0.011778474 0.9999229
vn -0.0039356947 0.011778474 0.9999229
vn -0.0039356947 0.011778474 0.9999229
vn -0.0039356947 0.011778474 0.9999229
vn -0.0039356947 0.011778474 0.9999229
vn -0.1447178 0.98947304 -0
vn -0.1447178 0.98947304 -0
vn -0.1447178 0.98947304 -0
vn -0.1447178 0.98947304 -0
vn 0.0039070845 -0.9999436 0.0098748775
vn 0.0039070845 -0.9999436 0.0098748775
vn 0.0039070845 -0.9999436 0.0098748775
vn 0.0039070845 -0.9999436 0.0098748775
vn 0.99210083 0.12157786 -0.030899
vn 0.99210083 0.12157786 -0.030899
vn 0.99210083 0.12157786 -0.030899
vn 0.99210083 0.12157786 -0.030899
vn -0.9999722 -0.0039070845 -0.0063471426
vn -0.9999722 -0.0039070845 -0.0063471426
vn -0.9999722 -0.0039070845 -0.0063471426
vn -0.9999722 -0.0039070845 -0.0063471426
vn 0.9998081 -0.019590046 -0
vn 0.9998081 -0.019590046 -0
vn 0.9998081 -0.019590046 -0
vn 0.9998081 -0.019590046 -0
vn -0.25451022 -0.9670701 -0
vn -0.25451022 -0.9670701 -0
vn -0.25451022 -0.9670701 -0
vn -0.25451022 -0.9670701 -0
vn 0.3787677 0.92549175 -0
vn 0.3787677 0.92549175 -0
vn 0.3787677 0.92549175 -0
vn 0.3787677 0.92549175 -0
vn -0.99212945 -0.11370641 0.05244075
vn -0.99212945 -0.11370641 0.05244075
vn -0.99212945 -0.11370641 0.05244075
vn -0.99212945 -0.11370641 0.05244075
vn 0.066505745 -0.99778605 -0
vn 0.066505745 -0.99778605 -0
vn 0.066505745 -0.99778605 -0
vn 0.066505745 -0.99778605 -0
vn 0.9998075 0.019618701 -0
vn 0.9998075 0.019618701 -0
vn 0.9998075 0.019618701 -0
vn 0.9998075 0.019618701 -0
vn -0.035285924 0.99937725 -0
vn -0.035285924 0.99937725 -0
vn -0.035285924 0.99937725 -0
vn -0.035285924 0.99937725 -0
vn -0.999931 -0.011749379 -0
vn -0.999931 -0.011749379 -0
vn -0.999931 -0.011749379 -0
vn -0.999931 -0.011749379 -0
vn 0.03525837 -0.9993782 -0
vn 0.03525837 -0.9993782 -0
vn 0.03525837 -0.9993782 -0
vn 0.03525837 -0.9993782 -0
vn 0.99210083 0.10589218 -0.06725154
vn 0.99210083 0.10589218 -0.06725154
vn 0.99210083 0.10589218 -0.06725154
vn 0.99210083 0.10589218 -0.06725154
g PaintTubeOffer_sign_0
f 3/3/3 2/2/2 1/1/1
f 4/4/4 3/3/3 1/1/1
f 5/5/5 2/2/2 3/3/3
f 6/6/6 5/5/5 3/3/3
f 7/7/7 5/5/5 6/6/6
f 8/8/8 7/7/7 6/6/6
f 9/9/9 7/7/7 8/8/8
f 10/10/10 9/9/9 8/8/8
f 13/13/13 12/12/12 11/11/11
f 14/14/14 13/13/13 11/11/11
f 17/17/17 16/16/16 15/15/15
f 18/18/18 17/17/17 15/15/15
f 18/18/18 19/19/19 17/17/17
f 19/19/19 20/20/20 17/17/17
f 22/22/22 21/21/21 20/20/20
f 19/19/19 22/22/22 20/20/20
f 24/24/24 23/23/23 21/21/21
f 22/22/22 24/24/24 21/21/21
f 27/27/27 26/26/26 25/25/25
f 28/28/28 27/27/27 25/25/25
f 31/31/31 30/30/30 29/29/29
f 32/32/32 31/31/31 29/29/29
f 35/35/35 34/34/34 33/33/33
f 36/36/36 35/35/35 33/33/33
f 39/39/39 38/38/38 37/37/37
f 40/40/40 39/39/39 37/37/37
f 43/43/43 42/42/42 41/41/41
f 44/44/44 43/43/43 41/41/41
f 47/47/47 46/46/46 45/45/45
f 48/48/48 47/47/47 45/45/45
f 51/51/51 50/50/50 49/49/49
f 52/52/52 51/51/51 49/49/49
f 55/55/55 54/54/54 53/53/53
f 56/56/56 55/55/55 53/53/53
f 59/59/59 58/58/58 57/57/57
f 60/60/60 59/59/59 57/57/57
f 63/63/63 62/62/62 61/61/61
f 64/64/64 63/63/63 61/61/61
f 67/67/67 66/66/66 65/65/65
f 68/68/68 67/67/67 65/65/65
f 71/71/71 70/70/70 69/69/69
f 72/72/72 71/71/71 69/69/69
f 75/75/75 74/74/74 73/73/73
f 76/76/76 75/75/75 73/73/73
f 79/79/79 78/78/78 77/77/77
f 80/80/80 79/79/79 77/77/77
f 83/83/83 82/82/82 81/81/81
f 84/84/84 83/83/83 81/81/81
