g PlasmaTurret_DefaultPart_3_CorpsePart
v 0.44187 0.16769323 0.5102228
v 0.3088363 0.18011484 0.19322088
v 0.33124346 -0.16281736 0.5137056
v 0.2655923 0.17119625 0.8774948
v 0.2829463 0.59312725 0.5228859
v 0.18111753 0.5831014 0.81454146
v 0.11707696 -0.13712865 0.82192993
v -0.26559624 0.17119625 0.8774948
v -0.18110129 0.5831014 0.81454146
v -0.44187394 0.16769323 0.5102228
v -0.2829502 0.59312725 0.5228859
v -0.33124736 -0.16281736 0.5137056
v -0.11708084 -0.13712865 0.82192993
v -0.30884025 0.18011484 0.19322088
v 0.27823535 0.25214788 0.16555926
v 0.35051 0.17516229 0.16602227
v 0.3088363 0.18011484 0.19322088
v 0.29941446 0.2783802 0.1335893
v 0.38268128 -0.18607005 0.5106455
v 0.14395347 -0.22790481 0.8534771
v 0.13495436 -0.1511004 0.85120213
v 0.3514965 -0.32763982 0.47899774
v 0.19764608 -0.3558853 0.47527328
v 0.14395347 -0.22790481 0.8534771
v 0.3514965 -0.32763982 0.47899774
v 0.09511271 -0.2755175 0.78635633
v -0.21293035 0.26485136 0.00051534176
v 0.29941446 0.2783802 0.1335893
v -0.29941836 0.2783802 0.1335893
v 0.21294656 0.26485136 0.00051534176
v -0.23386785 -0.23907818 0.00077703595
v 0.23388407 -0.23907818 0.00077703595
v 0.21294656 0.26485136 0.00051534176
v -0.23386785 -0.23907818 0.00077703595
v -0.3826852 -0.18607005 0.5106455
v -0.35150042 -0.32763982 0.47899774
v -0.14395735 -0.22790481 0.8534771
v -0.13493815 -0.1511004 0.85120213
v -0.35150042 -0.32763982 0.47899774
v -0.095116585 -0.2755175 0.78635633
v -0.19764999 -0.3558853 0.47527328
v -0.14395735 -0.22790481 0.8534771
v 0.21312776 -0.36494482 0.23241833
v 0.23388407 -0.23907818 0.00077703595
v -0.23386785 -0.23907818 0.00077703595
v -0.2131317 -0.36494482 0.23241833
v -0.13493815 -0.1511004 0.85120213
v 0.11707696 -0.13712865 0.82192993
v 0.13495436 -0.1511004 0.85120213
v -0.11708084 -0.13712865 0.82192993
v -0.30884025 0.18011484 0.19322088
v -0.3826852 -0.18607005 0.5106455
v -0.3505139 0.17516229 0.16602227
v -0.33124736 -0.16281736 0.5137056
v 0.38268128 -0.18607005 0.5106455
v 0.33124346 -0.16281736 0.5137056
v -0.27823928 0.25214788 0.16555926
v -0.29941836 0.2783802 0.1335893
v 0.23388407 -0.23907818 0.00077703595
v 0.35051 0.17516229 0.16602227
v 0.21294656 0.26485136 0.00051534176
v 0.29941446 0.2783802 0.1335893
v -0.29941836 0.2783802 0.1335893
v -0.3505139 0.17516229 0.16602227
v -0.21293035 0.26485136 0.00051534176
v 0.33124346 -0.16281736 0.5137056
v 0.38268128 -0.18607005 0.5106455
v -0.33124736 -0.16281736 0.5137056
v -0.3826852 -0.18607005 0.5106455
v -0.14395735 -0.22790481 0.8534771
v 0.13495436 -0.1511004 0.85120213
v 0.14395347 -0.22790481 0.8534771
v -0.13493815 -0.1511004 0.85120213
v 0.19764608 -0.3558853 0.47527328
v -0.2131317 -0.36494482 0.23241833
v -0.19764999 -0.3558853 0.47527328
v 0.21312776 -0.36494482 0.23241833
v 0.09511271 -0.2755175 0.78635633
v -0.095116585 -0.2755175 0.78635633
v -0.29941836 0.2783802 0.1335893
v -0.21293035 0.26485136 0.00051534176
v 0.29941446 0.2783802 0.1335893
v 0.18111753 0.5831014 0.81454146
v -0.18110129 0.5831014 0.81454146
v -0.2829502 0.59312725 0.5228859
v 0.2829463 0.59312725 0.5228859
v -0.30884025 0.18011484 0.19322088
v 0.3088363 0.18011484 0.19322088
v 0.27823535 0.25214788 0.16555926
v 0.3088363 0.18011484 0.19322088
v -0.30884025 0.18011484 0.19322088
v -0.27823928 0.25214788 0.16555926
vt 0.95556843 0.6588487
vt 0.9405994 0.6611772
vt 0.9575643 0.67315245
vt 0.9715354 0.65785074
vt 0.9552358 0.6392226
vt 0.9705374 0.6385573
vt 0.97486186 0.67082393
vt 0.9715354 0.65785074
vt 0.9705374 0.6385573
vt 0.95556843 0.6588487
vt 0.9552358 0.6392226
vt 0.9575643 0.67315245
vt 0.97486186 0.67082393
vt 0.9405994 0.6611772
vt 0.92862415 0.7366877
vt 0.92662823 0.7360224
vt 0.92563033 0.73635507
vt 0.92962205 0.73635507
vt 0.9046737 0.73469186
vt 0.88471496 0.73901623
vt 0.88571286 0.7423427
vt 0.9023452 0.7287042
vt 0.8990187 0.7263757
vt 0.88471496 0.73901623
vt 0.9023452 0.7287042
vt 0.8853802 0.73568976
vt 0.93827087 0.732696
vt 0.92962205 0.73635507
vt 0.92962205 0.73635507
vt 0.93827087 0.732696
vt 0.92696095 0.67315245
vt 0.92696095 0.67315245
vt 0.92795885 0.68845415
vt 0.92064065 0.7144005
vt 0.9046737 0.73469186
vt 0.9023452 0.7287042
vt 0.88471496 0.73901623
vt 0.88571286 0.7423427
vt 0.9023452 0.7287042
vt 0.8853802 0.73568976
vt 0.8990187 0.7263757
vt 0.88471496 0.73901623
vt 0.9086654 0.71373516
vt 0.92064065 0.7144005
vt 0.92064065 0.7144005
vt 0.9086654 0.71373516
vt 0.88571286 0.7423427
vt 0.88571286 0.74300796
vt 0.88571286 0.7423427
vt 0.88571286 0.74300796
vt 0.92563033 0.73635507
vt 0.9046737 0.73469186
vt 0.92662823 0.7360224
vt 0.90533894 0.73535717
vt 0.9046737 0.73469186
vt 0.90533894 0.73535717
vt 0.92862415 0.7366877
vt 0.92962205 0.73635507
vt 0.92064065 0.7144005
vt 0.92662823 0.7360224
vt 0.93827087 0.732696
vt 0.92962205 0.73635507
vt 0.92962205 0.73635507
vt 0.92662823 0.7360224
vt 0.93827087 0.732696
vt 0.90533894 0.73535717
vt 0.9046737 0.73469186
vt 0.90533894 0.73535717
vt 0.9046737 0.73469186
vt 0.88471496 0.73901623
vt 0.88571286 0.7423427
vt 0.88471496 0.73901623
vt 0.88571286 0.7423427
vt 0.91332245 0.71706164
vt 0.9096633 0.7147331
vt 0.9096633 0.71706164
vt 0.91332245 0.7147331
vt 0.91232455 0.72005546
vt 0.9106613 0.72005546
vt 0.92962205 0.73635507
vt 0.92795885 0.68845415
vt 0.92962205 0.73635507
vt 0.9788536 0.65618753
vt 0.9788536 0.65618753
vt 0.9788536 0.65618753
vt 0.9788536 0.65618753
vt 0.9788536 0.65618753
vt 0.9788536 0.65618753
vt 0.9788536 0.65618753
vt 0.9788536 0.65618753
vt 0.9788536 0.65618753
vt 0.9788536 0.65618753
vn 0.99684155 0.0599972 0.05203155
vn 0.91855717 0.09913933 -0.38265407
vn 0.90290034 -0.37056673 0.21783319
vn 0.519307 0.013026595 0.85448843
vn 0.93421406 0.31050718 0.17558305
vn 0.43319422 0.22439432 0.87292033
vn 0.45667952 -0.3627383 0.8123206
vn -0.5218749 -0.010458708 0.8529579
vn -0.5218749 0.2557081 0.81379354
vn -0.9993333 0.036509115 -0
vn -0.9289535 0.34182084 0.1421402
vn -0.89763975 -0.37056673 0.23858583
vn -0.33399248 -0.32359612 0.8852878
vn -0.92112505 0.09913933 -0.37643066
vn 0.026115596 0.45924735 0.8879245
vn 0.48016483 0.60798764 0.6322917
vn 0.159199 0.45924735 0.8739265
vn 0.5036501 0.4749043 0.72166646
vn 0.9801743 -0.1981369 -0
vn 0.82461596 -0.010458708 0.5655963
vn 0.8089591 0.11479628 0.5765474
vn 0.97335625 -0.22182643 0.058057267
vn 0.06525773 -0.98118466 0.18170887
vn 0.159199 -0.88724345 0.43296045
vn 0.2766255 -0.94987094 0.14568283
vn 0.096571505 -0.92638564 0.36398298
vn 0.0026302934 0.99158096 -0.12946154
vn 0.0026302934 0.99158096 -0.12946154
vn 0.0026302934 0.99158096 -0.12946154
vn 0.0026302934 0.99158096 -0.12946154
vn 0.0026302934 -0.0026302934 -0.9999931
vn 0.0026302934 -0.0026302934 -0.9999931
vn 0.0026302934 -0.0026302934 -0.9999931
vn -0.936782 -0.12788522 -0.32570672
vn -0.97592413 -0.19834113 -0.09073518
vn -0.9751274 -0.22164534 -0
vn -0.81935537 -0.010458708 0.57319057
vn -0.811527 0.11479628 0.57292736
vn -0.3026787 -0.94987094 0.078299515
vn -0.07565403 -0.9420425 0.32685214
vn -0.052168727 -0.98118466 0.18589012
vn -0.2087375 -0.86375815 0.45863986
vn 0.2061696 -0.9420425 -0.2646695
vn 0.08874309 -0.87941504 -0.46771133
vn -0.09131098 -0.87941504 -0.4672168
vn -0.21656597 -0.9420425 -0.2562324
vn -0.27136493 0.92112505 0.27908733
vn 0.22965491 0.9289535 0.29035136
vn 0.26096863 0.92112505 0.2888322
vn -0.24787962 0.92112505 0.3001406
vn -0.16176689 0.45924735 0.87345487
vn -0.3496493 0.65495825 0.6699068
vn -0.48273265 0.60798764 0.6303334
vn -0.33399248 0.65495825 0.6778486
vn 0.34708142 0.65495825 0.67124075
vn 0.339253 0.65495825 0.6752311
vn -0.02085507 0.46707582 0.8839713
vn -0.4983896 0.4749043 0.7253094
vn 0.93421406 -0.12788522 -0.33300072
vn 0.90290034 -0.08091462 -0.42216563
vn 0.77764535 0.044340372 -0.62713766
vn 0.0026302934 0.77238476 0.6351495
vn 0.0026302934 0.77238476 0.6351495
vn -0.9054682 -0.08091462 -0.41662943
vn -0.78021324 0.044340372 -0.6239401
vn 0.40970892 0.8898114 0.20093352
vn 0.40970892 0.8898114 0.20093352
vn -0.41227674 0.8898114 0.19561073
vn -0.41227674 0.8898114 0.19561073
vn 0.0026302934 0.028683424 0.9995851
vn 0.0026302934 0.028683424 0.9995851
vn 0.0026302934 0.028683424 0.9995851
vn 0.0026302934 0.028683424 0.9995851
vn 0.06525773 -0.98118466 0.18170887
vn -0.21656597 -0.9420425 -0.2562324
vn -0.052168727 -0.98118466 0.18589012
vn 0.2061696 -0.9420425 -0.2646695
vn 0.096571505 -0.92638564 0.36398298
vn -0.07565403 -0.9420425 0.32685214
vn -0.80369854 0.22439432 -0.5511042
vn 0.0026302934 -0.0026302934 -0.9999931
vn 0.8089591 0.22439432 -0.54335284
vn 0.0026302934 0.99940944 0.03426155
vn 0.0026302934 0.99940944 0.03426155
vn 0.0026302934 0.78021324 -0.6255081
vn 0.0026302934 0.78021324 -0.6255081
vn 0.0026302934 0.6236446 -0.7817036
vn 0.0026302934 0.6236446 -0.7817036
vn 0.026115596 0.45924735 0.8879245
vn 0.159199 0.45924735 0.8739265
vn -0.16176689 0.45924735 0.87345487
vn -0.02085507 0.46707582 0.8839713
g PlasmaTurret_DefaultPart_3_CorpsePart_0
f 3/3/3 2/2/2 1/1/1
f 1/1/1 5/5/5 4/4/4
f 6/6/6 4/4/4 5/5/5
f 7/7/7 3/3/3 4/4/4
f 1/1/1 4/4/4 3/3/3
f 2/2/2 5/5/5 1/1/1
f 9/9/9 8/8/8 6/6/6
f 4/4/4 6/6/6 8/8/8
f 8/8/8 9/9/9 10/10/10
f 11/11/11 10/10/10 9/9/9
f 10/10/10 12/12/12 8/8/8
f 13/13/13 8/8/8 12/12/12
f 11/11/11 14/14/14 10/10/10
f 17/17/17 16/16/16 15/15/15
f 18/18/18 15/15/15 16/16/16
f 21/21/21 20/20/20 19/19/19
f 22/22/22 19/19/19 20/20/20
f 25/25/25 24/24/24 23/23/23
f 26/26/26 23/23/23 24/24/24
f 29/29/29 28/28/28 27/27/27
f 30/30/30 27/27/27 28/28/28
f 33/33/33 32/32/32 31/31/31
f 36/36/36 35/35/35 34/34/34
f 38/38/38 35/35/35 37/37/37
f 36/36/36 37/37/37 35/35/35
f 41/41/41 40/40/40 39/39/39
f 42/42/42 39/39/39 40/40/40
f 40/40/40 26/26/26 42/42/42
f 24/24/24 42/42/42 26/26/26
f 23/23/23 43/43/43 25/25/25
f 44/44/44 25/25/25 43/43/43
f 46/46/46 45/45/45 43/43/43
f 44/44/44 43/43/43 45/45/45
f 39/39/39 46/46/46 41/41/41
f 8/8/8 13/13/13 4/4/4
f 7/7/7 4/4/4 13/13/13
f 49/49/49 48/48/48 47/47/47
f 50/50/50 47/47/47 48/48/48
f 53/53/53 52/52/52 51/51/51
f 54/54/54 51/51/51 52/52/52
f 10/10/10 14/14/14 12/12/12
f 56/56/56 55/55/55 17/17/17
f 16/16/16 17/17/17 55/55/55
f 58/58/58 53/53/53 57/57/57
f 51/51/51 57/57/57 53/53/53
f 61/61/61 60/60/60 59/59/59
f 15/15/15 62/62/62 57/57/57
f 63/63/63 57/57/57 62/62/62
f 60/60/60 19/19/19 59/59/59
f 65/65/65 34/34/34 64/64/64
f 48/48/48 49/49/49 66/66/66
f 67/67/67 66/66/66 49/49/49
f 50/50/50 68/68/68 47/47/47
f 69/69/69 47/47/47 68/68/68
f 72/72/72 71/71/71 70/70/70
f 73/73/73 70/70/70 71/71/71
f 76/76/76 75/75/75 74/74/74
f 77/77/77 74/74/74 75/75/75
f 79/79/79 74/74/74 78/78/78
f 76/76/76 74/74/74 79/79/79
f 39/39/39 45/45/45 46/46/46
f 59/59/59 19/19/19 22/22/22
f 34/34/34 35/35/35 64/64/64
f 65/65/65 64/64/64 80/80/80
f 81/81/81 33/33/33 31/31/31
f 61/61/61 82/82/82 60/60/60
f 85/85/85 84/84/84 83/83/83
f 86/86/86 85/85/85 83/83/83
f 87/87/87 85/85/85 86/86/86
f 88/88/88 87/87/87 86/86/86
f 91/91/91 90/90/90 89/89/89
f 92/92/92 91/91/91 89/89/89
