g polySurface22
v 0.2836043 0.6441766 0.47456086
v 0.33416644 0.7769773 0.42771363
v 0.36086005 0.7897457 0.45440722
v 0.41177812 0.71351314 0.6363019
v 0.33416644 0.7769773 0.42771363
v 0.42821693 0.7769773 0.3336631
v 0.45491052 0.7897457 0.3603568
v 0.36086005 0.7897457 0.45440722
v 0.42821693 0.7769773 0.3336631
v 0.47504196 0.6441766 0.28312325
v 0.636783 0.71351314 0.41129708
v 0.45491052 0.7897457 0.3603568
v 0.6355818 -0.005768299 0.5269027
v 0.5274059 -0.005768299 0.63507843
v 0.5598831 0.009758472 0.6675557
v 0.668059 0.009758472 0.5593798
v 0.41177812 0.71351314 0.6363019
v 0.36086005 0.7897457 0.45440722
v 0.45491052 0.7897457 0.3603568
v 0.636783 0.71351314 0.41129708
v 0.47504196 0.6441766 0.28312325
v 0.42821693 0.7769773 0.3336631
v 0.33416644 0.7769773 0.42771363
v 0.2836043 0.6441766 0.47456086
v 0.2836043 0.6441766 0.47456086
v 0.41177812 0.71351314 0.6363019
v 0.4694363 0.55248404 0.6659763
v 0.668059 0.009758472 0.5593798
v 0.5598831 0.009758472 0.6675557
v 0.4694363 0.55248404 0.6659763
v 0.66647965 0.55248404 0.46895528
v 0.66647965 0.55248404 0.46895528
v 0.5875333 0.08946115 0.45756602
v 0.6355818 -0.005768299 0.5269027
v 0.668059 0.009758472 0.5593798
v 0.5875333 0.08946115 0.45756602
v 0.47504196 0.6441766 0.28312325
v 0.2836043 0.6441766 0.47456086
v 0.45804703 0.08946115 0.58702993
v 0.6355818 -0.005768299 0.5269027
v 0.5875333 0.08946115 0.45756602
v 0.45804703 0.08946115 0.58702993
v 0.5274059 -0.005768299 0.63507843
v 0.636783 0.71351314 0.41129708
v 0.66647965 0.55248404 0.46895528
v 0.4694363 0.55248404 0.6659763
v 0.41177812 0.71351314 0.6363019
v 0.45804703 0.08946115 0.58702993
v 0.5598831 0.009758472 0.6675557
v 0.5274059 -0.005768299 0.63507843
v 0.636783 0.71351314 0.41129708
v 0.47504196 0.6441766 0.28312325
vt 0.015198827 0.5409548
vt 0.01034756 0.5409548
vt 0.01034756 0.539742
vt 0.01398601 0.53428435
vt 0.009134743 0.5894675
vt 0.0048898854 0.5894675
vt 0.0048898854 0.5906803
vt 0.009134743 0.5906803
vt 0.01034756 0.5409548
vt 0.015198827 0.5409548
vt 0.01398601 0.53428435
vt 0.01034756 0.539742
vt 0.004283477 0.6210007
vt 0.009741152 0.6210007
vt 0.009741152 0.6191815
vt 0.004283477 0.6191815
vt 0.012166785 0.5967444
vt 0.009134743 0.5906803
vt 0.0048898854 0.5906803
vt 0.001857844 0.5967444
vt 0.00064502744 0.5536894
vt 0.0024642523 0.55732787
vt 0.006102702 0.55732787
vt 0.008528335 0.5536894
vt 0.015198827 0.5409548
vt 0.01398601 0.53428435
vt 0.019443683 0.5330715
vt 0.004283477 0.6191815
vt 0.009741152 0.6191815
vt 0.011560377 0.60220206
vt 0.0024642523 0.60220206
vt 0.019443683 0.5330715
vt 0.033997484 0.5373164
vt 0.037029523 0.5354972
vt 0.037029523 0.53367794
vt 0.001857844 0.5373164
vt 0.00064502744 0.5536894
vt 0.008528335 0.5536894
vt 0.007315519 0.5373164
vt 0.0024642523 0.53367794
vt 0.001857844 0.5373164
vt 0.007315519 0.5373164
vt 0.0067091105 0.53367794
vt 0.001857844 0.5967444
vt 0.0024642523 0.60220206
vt 0.011560377 0.60220206
vt 0.012166785 0.5967444
vt 0.033997484 0.5373164
vt 0.037029523 0.53367794
vt 0.037029523 0.5354972
vt 0.01398601 0.53428435
vt 0.015198827 0.5409548
vn -0.7689502 0.4717666 0.43145317
vn -0.7689502 0.4717666 0.43145317
vn -0.7689502 0.4717666 0.43145317
vn -0.7689502 0.4717666 0.43145317
vn -0.22659004 0.9472604 -0.2266159
vn -0.22659004 0.9472604 -0.2266159
vn -0.22659004 0.9472604 -0.2266159
vn -0.22659004 0.9472604 -0.2266159
vn 0.42721385 0.4717666 -0.77131355
vn 0.42721385 0.4717666 -0.77131355
vn 0.42721385 0.4717666 -0.77131355
vn 0.42721385 0.4717666 -0.77131355
vn 0.22661489 -0.9472852 0.22648738
vn 0.22661489 -0.9472852 0.22648738
vn 0.22661489 -0.9472852 0.22648738
vn 0.22661489 -0.9472852 0.22648738
vn 0.29348123 0.9101124 0.2925137
vn 0.29348123 0.9101124 0.2925137
vn 0.29348123 0.9101124 0.2925137
vn 0.29348123 0.9101124 0.2925137
vn -0.7095134 0.018561542 -0.7044474
vn -0.7095134 0.018561542 -0.7044474
vn -0.7095134 0.018561542 -0.7044474
vn -0.7095134 0.018561542 -0.7044474
vn -0.7392318 -0.107741475 0.66477674
vn -0.7466614 -0.14488941 0.6492332
vn -0.7318022 -0.100311875 0.6740942
vn 0.7021087 0.12257588 0.70144033
vn 0.7021087 0.12257588 0.70144033
vn 0.7021087 0.12257588 0.70144033
vn 0.7021087 0.12257588 0.70144033
vn 0.67239034 -0.100311875 -0.7333681
vn 0.7169679 -0.107741475 -0.6887299
vn 0.7392566 -0.107741475 -0.66474915
vn 0.7392566 -0.107741475 -0.66474915
vn -0.66493595 -0.34548837 -0.6621918
vn -0.66493595 -0.34548837 -0.6621918
vn -0.66493595 -0.34548837 -0.6621918
vn -0.66493595 -0.34548837 -0.6621918
vn -0.53120327 -0.65753114 -0.53429943
vn -0.53120327 -0.65753114 -0.53429943
vn -0.53120327 -0.65753114 -0.53429943
vn -0.53120327 -0.65753114 -0.53429943
vn 0.65753114 0.3603227 0.66168
vn 0.65753114 0.3603227 0.66168
vn 0.65753114 0.3603227 0.66168
vn 0.65753114 0.3603227 0.66168
vn -0.68722475 -0.107741475 0.7184107
vn -0.66493595 -0.107741475 0.7390886
vn -0.66493595 -0.107741475 0.7390886
vn 0.65010154 -0.14488941 -0.7459055
vn 0.66496074 -0.107741475 -0.7390663
g polySurface22_0
f 3/3/3 2/2/2 1/1/1
f 4/4/4 3/3/3 1/1/1
f 7/7/7 6/6/6 5/5/5
f 8/8/8 7/7/7 5/5/5
f 11/11/11 10/10/10 9/9/9
f 12/12/12 11/11/11 9/9/9
f 15/15/15 14/14/14 13/13/13
f 16/16/16 15/15/15 13/13/13
f 19/19/19 18/18/18 17/17/17
f 20/20/20 19/19/19 17/17/17
f 23/23/23 22/22/22 21/21/21
f 24/24/24 23/23/23 21/21/21
f 27/27/27 26/26/26 25/25/25
f 30/30/30 29/29/29 28/28/28
f 31/31/31 30/30/30 28/28/28
f 34/34/34 33/33/33 32/32/32
f 35/35/35 34/34/34 32/32/32
f 38/38/38 37/37/37 36/36/36
f 39/39/39 38/38/38 36/36/36
f 42/42/42 41/41/41 40/40/40
f 43/43/43 42/42/42 40/40/40
f 46/46/46 45/45/45 44/44/44
f 47/47/47 46/46/46 44/44/44
f 27/27/27 25/25/25 48/48/48
f 49/49/49 27/27/27 48/48/48
f 50/50/50 49/49/49 48/48/48
f 52/52/52 51/51/51 32/32/32
f 33/33/33 52/52/52 32/32/32
