g polySurface5
v -0.18696702 0.6242482 -0.18746369
v -0.18696702 0.6381268 -0.18746369
v -0.18696702 0.6381268 0.18747124
v -0.18696702 0.6242482 0.18747124
v 0.1879679 0.6381268 -0.18746369
v 0.1879679 0.6242482 -0.18746369
v 0.1879679 0.6242482 0.18747124
v 0.1879679 0.6381268 0.18747124
v -0.18696702 0.6242482 0.18747124
v -0.18696702 0.6381268 0.18747124
v 0.1879679 0.6381268 0.18747124
v 0.1879679 0.6242482 0.18747124
v 0.1879679 0.6242482 -0.18746369
v 0.1879679 0.6381268 -0.18746369
v -0.18696702 0.6381268 -0.18746369
v -0.18696702 0.6242482 -0.18746369
v -0.18696702 0.6242482 -0.18746369
v -0.18696702 0.5634272 -0.037497282
v -0.038248554 0.5634272 -0.18746369
v -0.18696702 0.5634272 0.03749223
v -0.18696702 0.6242482 0.18747124
v -0.038248554 0.5634272 0.18747124
v 0.1879679 0.5634272 -0.037497282
v 0.1879679 0.6242482 -0.18746369
v 0.03923683 0.5634272 -0.18746369
v -0.18696702 0.5634272 0.03749223
v -0.18696702 0.5634272 -0.037497282
v 0.1879679 0.6242482 0.18747124
v 0.1879679 0.5634272 0.03749223
v 0.03923683 0.5634272 0.18747124
v -0.038248554 0.5634272 -0.18746369
v 0.03923683 0.5634272 -0.18746369
v 0.03923683 0.5634272 0.18747124
v -0.038248554 0.5634272 0.18747124
v 0.1879679 0.47794998 -0.037497282
v 0.037988886 0.47794998 -0.18746369
v -0.03700061 0.47794998 -0.18746369
v -0.18696702 0.47794998 -0.037497282
v 0.1879679 0.47794998 0.03749223
v -0.18696702 0.47794998 0.03749223
v 0.037988886 0.47794998 0.18747124
v -0.03700061 0.47794998 0.18747124
v 0.1879679 0.5634272 -0.037497282
v 0.1879679 0.5634272 0.03749223
v -0.18696702 0.47794998 0.03749223
v -0.18696702 0.47794998 -0.037497282
v -0.03700061 0.47794998 0.18747124
v -0.18696702 0.47794998 0.03749223
v 0.037988886 0.47794998 0.18747124
v -0.03700061 0.47794998 0.18747124
v 0.1879679 0.47794998 0.03749223
v 0.037988886 0.47794998 0.18747124
v 0.1879679 0.47794998 -0.037497282
v 0.1879679 0.47794998 0.03749223
v 0.037988886 0.47794998 -0.18746369
v 0.1879679 0.47794998 -0.037497282
v -0.03700061 0.47794998 -0.18746369
v 0.037988886 0.47794998 -0.18746369
v -0.18696702 0.47794998 -0.037497282
v -0.03700061 0.47794998 -0.18746369
vt 0.05042595 0.5587199
vt 0.05042595 0.55816317
vt 0.04207501 0.55816317
vt 0.04207501 0.5587199
vt 0.04207501 0.55816317
vt 0.04207501 0.5587199
vt 0.05042595 0.5587199
vt 0.05042595 0.55816317
vt 0.05042595 0.5587199
vt 0.05042595 0.55816317
vt 0.04207501 0.55816317
vt 0.04207501 0.5587199
vt 0.05042595 0.5587199
vt 0.05042595 0.55816317
vt 0.04207501 0.55816317
vt 0.04207501 0.5587199
vt 0.046528842 0.5743083
vt 0.044301927 0.57709193
vt 0.04875576 0.57709193
vt 0.04875576 0.57709193
vt 0.046528842 0.5743083
vt 0.044301927 0.57709193
vt 0.04875576 0.57709193
vt 0.046528842 0.5743083
vt 0.044301927 0.57709193
vt 0.045415387 0.5603901
vt 0.047085572 0.5603901
vt 0.046528842 0.5743083
vt 0.044301927 0.57709193
vt 0.04875576 0.57709193
vt 0.045415387 0.5603901
vt 0.047085572 0.5603901
vt 0.045415387 0.5603901
vt 0.047085572 0.5603901
vt 0.045972113 0.60325825
vt 0.042631738 0.6065986
vt 0.042631738 0.60826886
vt 0.045972113 0.6116092
vt 0.0476423 0.60325825
vt 0.0476423 0.6116092
vt 0.05098268 0.6065986
vt 0.05098268 0.60826886
vt 0.045415387 0.5603901
vt 0.047085572 0.5603901
vt 0.045415387 0.5631738
vt 0.047085572 0.5631738
vt 0.044301927 0.5798756
vt 0.04875576 0.5798756
vt 0.045415387 0.5631738
vt 0.047085572 0.5631738
vt 0.044301927 0.5798756
vt 0.04875576 0.5798756
vt 0.045415387 0.5631738
vt 0.047085572 0.5631738
vt 0.044301927 0.5798756
vt 0.04875576 0.5798756
vt 0.045415387 0.5631738
vt 0.047085572 0.5631738
vt 0.044301927 0.5798756
vt 0.04875576 0.5798756
vn -0.99999225 0.003921509 -0.00034492963
vn -0.99999225 0.003921509 -0.00034492963
vn -0.99999225 0.003921509 -0.00034492963
vn -0.99999225 0.003921509 -0.00034492963
vn 0.9999924 0.003921509 -0
vn 0.9999924 0.003921509 -0
vn 0.9999924 0.003921509 -0
vn 0.9999924 0.003921509 -0
vn -0.003921509 0.003921509 0.9999846
vn -0.003921509 0.003921509 0.9999846
vn -0.003921509 0.003921509 0.9999846
vn -0.003921509 0.003921509 0.9999846
vn -0.003921509 0.003921509 -0.9999846
vn -0.003921509 0.003921509 -0.9999846
vn -0.003921509 0.003921509 -0.9999846
vn -0.003921509 0.003921509 -0.9999846
vn -0.35685992 -0.86666006 -0.34864214
vn -0.67842615 -0.2705862 -0.68302345
vn -0.67842615 -0.27842927 -0.679864
vn -0.67842615 -0.2705862 0.68302345
vn -0.35685992 -0.86666006 0.34864214
vn -0.67842615 -0.27842927 0.679864
vn 0.6784262 -0.2705862 -0.6830234
vn 0.35686004 -0.86666006 -0.34864205
vn 0.6784262 -0.27842927 -0.679864
vn -0.99999225 0.003921509 -0.00034492963
vn -0.99999225 0.003921509 -0.00034492963
vn 0.35686004 -0.86666006 0.34864205
vn 0.6784262 -0.2705862 0.6830234
vn 0.6784262 -0.27842927 0.679864
vn -0.003921509 0.003921509 -0.9999846
vn -0.003921509 0.003921509 -0.9999846
vn -0.003921509 0.003921509 0.9999846
vn -0.003921509 0.003921509 0.9999846
vn -0.003921509 -0.9999924 -0
vn -0.003921509 -0.9999924 -0
vn -0.003921509 -0.9999924 -0
vn -0.003921509 -0.9999924 -0
vn -0.003921509 -0.9999924 -0
vn -0.003921509 -0.9999924 -0
vn -0.003921509 -0.9999924 -0
vn -0.003921509 -0.9999924 -0
vn 0.9999924 -0.0039215684 -0
vn 0.9999924 -0.0039215684 -0
vn -0.99999225 0.003921509 -0.00034492963
vn -0.99999225 0.003921509 -0.00034492963
vn -0.70979846 -0.0039215684 0.7043939
vn -0.70979846 -0.0039215684 0.7043939
vn -0.003921509 0.003921509 0.9999846
vn -0.003921509 0.003921509 0.9999846
vn 0.7097985 -0.0039215684 0.70439386
vn 0.7097985 -0.0039215684 0.70439386
vn 0.9999924 0.003921509 -0
vn 0.9999924 0.003921509 -0
vn 0.7097985 -0.0039215684 -0.70439386
vn 0.7097985 -0.0039215684 -0.70439386
vn -0.003921509 0.003921509 -0.9999846
vn -0.003921509 0.003921509 -0.9999846
vn -0.70979846 -0.0039215684 -0.7043939
vn -0.70979846 -0.0039215684 -0.7043939
g polySurface5_0
f 3/3/3 2/2/2 1/1/1
f 4/4/4 3/3/3 1/1/1
f 7/7/7 6/6/6 5/5/5
f 8/8/8 7/7/7 5/5/5
f 11/11/11 10/10/10 9/9/9
f 12/12/12 11/11/11 9/9/9
f 15/15/15 14/14/14 13/13/13
f 16/16/16 15/15/15 13/13/13
f 19/19/19 18/18/18 17/17/17
f 22/22/22 21/21/21 20/20/20
f 25/25/25 24/24/24 23/23/23
f 26/26/26 4/4/4 1/1/1
f 27/27/27 26/26/26 1/1/1
f 30/30/30 29/29/29 28/28/28
f 31/31/31 16/16/16 13/13/13
f 32/32/32 31/31/31 13/13/13
f 33/33/33 12/12/12 9/9/9
f 34/34/34 33/33/33 9/9/9
f 37/37/37 36/36/36 35/35/35
f 35/35/35 38/38/38 37/37/37
f 35/35/35 39/39/39 38/38/38
f 39/39/39 40/40/40 38/38/38
f 39/39/39 41/41/41 40/40/40
f 41/41/41 42/42/42 40/40/40
f 44/44/44 43/43/43 6/6/6
f 7/7/7 44/44/44 6/6/6
f 46/46/46 45/45/45 26/26/26
f 27/27/27 46/46/46 26/26/26
f 20/20/20 48/48/48 47/47/47
f 22/22/22 20/20/20 47/47/47
f 50/50/50 49/49/49 33/33/33
f 34/34/34 50/50/50 33/33/33
f 52/52/52 51/51/51 29/29/29
f 30/30/30 52/52/52 29/29/29
f 54/54/54 53/53/53 43/43/43
f 44/44/44 54/54/54 43/43/43
f 23/23/23 56/56/56 55/55/55
f 25/25/25 23/23/23 55/55/55
f 58/58/58 57/57/57 31/31/31
f 32/32/32 58/58/58 31/31/31
f 60/60/60 59/59/59 18/18/18
f 19/19/19 60/60/60 18/18/18
