g RailTurret_03_CorpsePart
v -0.11828753 -0.08522162 0.22965091
v -0.11828753 0.23511928 0.06430489
v 0.11828752 0.23511928 0.06430489
v 0.11828752 -0.08522162 0.22965091
v -0.11828753 0.27026367 -0.061327398
v -0.11828753 0.21030954 -0.17893447
v 0.11828752 0.21030954 -0.17893447
v 0.11828752 0.27026367 -0.061327398
v -0.11828753 0.08522162 -0.22965091
v -0.11828753 -0.23511104 -0.06431314
v 0.11828752 -0.23511104 -0.06431314
v 0.11828752 0.08522162 -0.22965091
v -0.11828753 -0.27026367 0.061327398
v -0.11828753 -0.21029305 0.17892623
v 0.11828752 -0.21029305 0.17892623
v 0.11828752 -0.27026367 0.061327398
v 0.11828752 0.23511928 0.06430489
v 0.11828752 0.27026367 -0.061327398
v 0.11828752 0.21030954 -0.17893447
v 0.11828752 0.08522162 -0.22965091
v -0.11828753 0.27026367 -0.061327398
v 0.11828752 0.27026367 -0.061327398
v 0.11828752 -0.08522162 0.22965091
v 0.11828752 -0.23511104 -0.06431314
v 0.11828752 -0.27026367 0.061327398
v 0.11828752 -0.21029305 0.17892623
vt 0.9836627 0.9593821
vt 0.9836627 0.9498314
vt 0.9773906 0.9498314
vt 0.9773906 0.9593821
vt 0.9836627 0.9865612
vt 0.9836627 0.983045
vt 0.9773906 0.983045
vt 0.9773906 0.9865612
vt 0.9836627 0.9794813
vt 0.9836627 0.96993065
vt 0.9773906 0.96993065
vt 0.9773906 0.9794813
vt 0.9836627 0.96646196
vt 0.9836627 0.9629458
vt 0.9773906 0.9629458
vt 0.9773906 0.96646196
vt 0.9862285 0.9767254
vt 0.9887469 0.9790537
vt 0.9922631 0.9790537
vt 0.99497145 0.9767254
vt 0.9836627 0.9463628
vt 0.9773906 0.9463628
vt 0.986181 0.9671747
vt 0.99492395 0.9671747
vt 0.9923581 0.9647989
vt 0.98888946 0.9647989
vn -0.0013308525 0.25166333 0.9678139
vn -0.0013308525 0.63498497 0.77252334
vn -0.0013308525 0.63498497 0.77252334
vn -0.0013308525 0.25166333 0.9678139
vn -0.0013308525 0.9948379 -0.101468265
vn -0.0013308525 0.67409945 -0.73863935
vn -0.0013308525 0.67409945 -0.73863935
vn -0.0013308525 0.9948379 -0.101468265
vn -0.0013308525 -0.24900168 -0.96850216
vn -0.0013308525 -0.63232327 -0.7747035
vn -0.0013308525 -0.63232327 -0.7747035
vn -0.0013308525 -0.24900168 -0.96850216
vn -0.0013308525 -0.9921763 0.12483753
vn -0.0013308525 -0.67143774 0.7410597
vn -0.0013308525 -0.67143774 0.7410597
vn -0.0013308525 -0.9921763 0.12483753
vn 0.99999917 0.0013308525 -0
vn 0.99999917 0.0013308525 -0
vn 0.99999917 0.0013308525 -0
vn 0.99999917 0.0013308525 -0
vn -0.0013308525 0.9948379 -0.101468265
vn -0.0013308525 0.9948379 -0.101468265
vn 0.99999917 0.0013308525 -0
vn 0.99999917 0.0013308525 -0
vn 0.99999917 0.0013308525 -0
vn 0.99999917 0.0013308525 -0
g RailTurret_03_CorpsePart_0
f 3/3/3 2/2/2 1/1/1
f 4/4/4 3/3/3 1/1/1
f 7/7/7 6/6/6 5/5/5
f 8/8/8 7/7/7 5/5/5
f 11/11/11 10/10/10 9/9/9
f 12/12/12 11/11/11 9/9/9
f 15/15/15 14/14/14 13/13/13
f 16/16/16 15/15/15 13/13/13
f 19/19/19 18/18/18 17/17/17
f 20/20/20 19/19/19 17/17/17
f 15/15/15 4/4/4 1/1/1
f 14/14/14 15/15/15 1/1/1
f 3/3/3 22/22/22 21/21/21
f 2/2/2 3/3/3 21/21/21
f 7/7/7 12/12/12 9/9/9
f 6/6/6 7/7/7 9/9/9
f 11/11/11 16/16/16 13/13/13
f 10/10/10 11/11/11 13/13/13
f 20/20/20 17/17/17 23/23/23
f 24/24/24 20/20/20 23/23/23
f 25/25/25 24/24/24 23/23/23
f 26/26/26 25/25/25 23/23/23
