g ReaperTurret_03_CorpsePart
v 0.5808443 0.7187696 0.057202876
v 0.5445194 0.67978555 0.123579025
v 0.65912217 0.35732824 0.0450688
v 0.701669 0.3747807 -0.026548207
v 0.6535456 0.7618069 0.06768465
v 0.7867884 0.3747807 -0.026548207
v 0.68989635 0.765886 0.14454257
v 0.829361 0.35732824 0.0450688
v 0.6535456 0.72690195 0.21094447
v 0.68989635 0.765886 0.14454257
v 0.829361 0.35732824 0.0450688
v 0.7867884 0.33990163 0.11668581
v 0.5808443 0.68386465 0.20046276
v 0.701669 0.33990163 0.11668581
v 0.5445194 0.67978555 0.123579025
v 0.65912217 0.35732824 0.0450688
v 0.19645149 0.69716054 0.12781304
v 0.52136135 0.69716054 0.12781304
v 0.52136135 0.75594634 0.06626475
v 0.19645149 0.75594634 0.06626475
v 0.52136135 0.8386648 0.08640218
v 0.19645149 0.8386648 0.08640218
v 0.52136135 0.86257154 0.1680879
v 0.19645149 0.86257154 0.1680879
v 0.19645149 0.86257154 0.1680879
v 0.52136135 0.86257154 0.1680879
v 0.52136135 0.80378574 0.229662
v 0.19645149 0.80378574 0.229662
v 0.52136135 0.72106725 0.20952457
v 0.19645149 0.72106725 0.20952457
v 0.52136135 0.69716054 0.12781304
v 0.19645149 0.69716054 0.12781304
v 0.3080852 0.21835405 -0.06465447
v 0.6341311 0.21835405 -0.06465447
v 0.6341311 0.30104667 -0.04451704
v 0.3080852 0.30104667 -0.04451704
v 0.3080852 0.15956825 -0.003080368
v 0.6341311 0.15956825 -0.003080368
v 0.3080852 0.18347496 0.078605354
v 0.6341311 0.18347496 0.078605354
v 0.6341311 0.15956825 -0.003080368
v 0.3080852 0.15956825 -0.003080368
v 0.3080852 0.26616758 0.09874284
v 0.6341311 0.26616758 0.09874284
v 0.3080852 0.3249535 0.03719455
v 0.6341311 0.3249535 0.03719455
v 0.6341311 0.3249535 0.03719455
v 0.3080852 0.3249535 0.03719455
v 0.52136135 0.75594634 0.06626475
v 0.52136135 0.69716054 0.12781304
v 0.52136135 0.8386648 0.08640218
v 0.52136135 0.86257154 0.1680879
v 0.52136135 0.80378574 0.229662
v 0.52136135 0.86257154 0.1680879
v 0.52136135 0.72106725 0.20952457
v 0.52136135 0.69716054 0.12781304
v 0.654346 0.33569342 0.039802074
v 0.6844747 0.32348186 -0.039043784
v 0.6844747 0.28860277 0.1042161
v 0.654346 0.33569342 0.039802074
v 0.74473214 0.22927481 0.089758396
v 0.77486086 0.21703738 0.010912597
v 0.74473214 0.2641539 -0.053501427
v 0.77486086 0.21703738 0.010912597
v 0.6341311 0.21835405 -0.06465447
v 0.6341311 0.30104667 -0.04451704
v 0.6341311 0.15956825 -0.003080368
v 0.6341311 0.18347496 0.078605354
v 0.6341311 0.15956825 -0.003080368
v 0.6341311 0.26616758 0.09874284
v 0.6844747 0.28860277 0.1042161
v 0.6341311 0.3249535 0.03719455
v 0.654346 0.33569342 0.039802074
v 0.654346 0.33569342 0.039802074
v 0.6341311 0.3249535 0.03719455
v 0.19645149 0.86257154 0.1680879
v 0.19645149 0.80378574 0.229662
v 0.19645149 0.72106725 0.20952457
v 0.19645149 0.69716054 0.12781304
v 0.3080852 0.21835405 -0.06465447
v 0.3080852 0.30104667 -0.04451704
v 0.3080852 0.3249535 0.03719455
v 0.3080852 0.15956825 -0.003080368
v 0.19645149 0.75594634 0.06626475
v 0.19645149 0.8386648 0.08640218
v 0.3080852 0.26616758 0.09874284
v 0.3080852 0.18347496 0.078605354
vt 0.7677932 0.2281378
vt 0.76496774 0.22757272
vt 0.76496774 0.21683612
vt 0.7677932 0.21627104
vt 0.77061856 0.22870289
vt 0.77061856 0.21570596
vt 0.77287894 0.22926797
vt 0.773444 0.21514086
vt 0.7564915 0.22870289
vt 0.75366604 0.22926797
vt 0.753101 0.21514086
vt 0.7559264 0.21570596
vt 0.7587518 0.2281378
vt 0.7587518 0.21627104
vt 0.76157725 0.22757272
vt 0.76157725 0.21683612
vt 0.76553285 0.24735066
vt 0.76553285 0.23830932
vt 0.76835823 0.23830932
vt 0.76835823 0.24735066
vt 0.77118367 0.23830932
vt 0.77118367 0.24735066
vt 0.773444 0.23830932
vt 0.773444 0.24735066
vt 0.75423115 0.24735066
vt 0.75423115 0.23830932
vt 0.7564915 0.23830932
vt 0.7564915 0.24735066
vt 0.7593169 0.23830932
vt 0.7593169 0.24735066
vt 0.7621423 0.23830932
vt 0.7621423 0.24735066
vt 0.7700535 0.19536293
vt 0.7700535 0.20553444
vt 0.7677932 0.20553444
vt 0.7677932 0.19536293
vt 0.77287894 0.19536293
vt 0.77287894 0.20553444
vt 0.7559264 0.19536293
vt 0.7559264 0.20553444
vt 0.75366604 0.20553444
vt 0.75366604 0.19536293
vt 0.7587518 0.19536293
vt 0.7587518 0.20553444
vt 0.76157725 0.19536293
vt 0.76157725 0.20553444
vt 0.76496774 0.20553444
vt 0.76496774 0.19536293
vt 0.766663 0.22983307
vt 0.76496774 0.2281378
vt 0.7677932 0.23265848
vt 0.7694884 0.23491882
vt 0.7587518 0.23265848
vt 0.7570566 0.23491882
vt 0.7604471 0.22983307
vt 0.76157725 0.2281378
vt 0.76496774 0.21627104
vt 0.76722807 0.21457578
vt 0.7593169 0.21457578
vt 0.76157725 0.21627104
vt 0.75762165 0.21231546
vt 0.7559264 0.2106202
vt 0.76892334 0.21288054
vt 0.77118367 0.2106202
vt 0.7660979 0.21118528
vt 0.7660979 0.2140107
vt 0.766663 0.20835987
vt 0.76101214 0.21118528
vt 0.7604471 0.20835987
vt 0.76101214 0.2140107
vt 0.7593169 0.21457578
vt 0.76157725 0.21570596
vt 0.76157725 0.21627104
vt 0.76496774 0.21627104
vt 0.76496774 0.21570596
vt 0.773444 0.24735066
vt 0.7564915 0.24735066
vt 0.7593169 0.24735066
vt 0.7621423 0.24735066
vt 0.7700535 0.19536293
vt 0.7677932 0.19536293
vt 0.76496774 0.19536293
vt 0.75366604 0.19536293
vt 0.76835823 0.24735066
vt 0.77118367 0.24735066
vt 0.7587518 0.19536293
vt 0.7559264 0.19536293
vn -0.3689587 0.06512582 -0.92716134
vn -0.9142996 -0.3867281 -0.12040601
vn -0.9610431 -0.2620787 -0.0878115
vn -0.3689587 0.11966002 -0.9217109
vn 0.5269586 0.48581743 -0.6973493
vn 0.6048645 0.28326225 -0.7442455
vn 0.86974436 0.4702363 0.14974172
vn 0.98660314 0.15861285 0.038160373
vn 0.5269586 0.111869335 0.8424962
vn 0.86974436 0.4702363 0.14974172
vn 0.98660314 0.15861285 0.038160373
vn 0.6048645 -0.090685844 0.7911479
vn -0.3689587 -0.37114692 0.8521264
vn -0.3689587 -0.31661284 0.87385684
vn -0.9142996 -0.3867281 -0.12040601
vn -0.9610431 -0.2620787 -0.0878115
vn -0.00280118 -0.97102195 -0.23897389
vn -0.08849764 -0.97102195 -0.2220013
vn -0.026172996 -0.21533519 -0.9761894
vn -0.00280118 -0.2776599 -0.96067536
vn 0.1140576 0.73511624 -0.6682776
vn -0.00280118 0.68837273 -0.7253517
vn 0.16080111 0.9610431 0.22480911
vn -0.00280118 0.9688338 0.24769579
vn -0.00280118 0.9688338 0.24769579
vn 0.16080111 0.9610431 0.22480911
vn 0.1140576 0.3455869 0.9314293
vn -0.00280118 0.28326225 0.9590384
vn -0.026172996 -0.6360268 0.77122295
vn -0.00280118 -0.69056094 0.72326875
vn -0.08849764 -0.97102195 -0.2220013
vn -0.00280118 -0.97102195 -0.23897389
vn -0.00280118 -0.2776599 -0.96067536
vn 0.06731409 -0.33219397 -0.94080603
vn -0.01838231 0.6494198 -0.7602079
vn -0.00280118 0.68837273 -0.7253517
vn -0.00280118 -0.97102195 -0.23897389
vn 0.106267035 -0.9632314 -0.24676423
vn -0.00280118 -0.69056094 0.72326875
vn 0.06731409 -0.7295138 0.6806455
vn 0.106267035 -0.9632314 -0.24676423
vn -0.00280118 -0.97102195 -0.23897389
vn -0.00280118 0.28326225 0.9590384
vn -0.01838231 0.22872818 0.9733167
vn -0.00280118 0.9688338 0.24769579
vn -0.057335258 0.9688338 0.24098498
vn -0.057335258 0.9688338 0.24098498
vn -0.00280118 0.9688338 0.24769579
vn -0.026172996 -0.21533519 -0.9761894
vn -0.08849764 -0.97102195 -0.2220013
vn 0.1140576 0.73511624 -0.6682776
vn 0.16080111 0.9610431 0.22480911
vn 0.1140576 0.3455869 0.9314293
vn 0.16080111 0.9610431 0.22480911
vn -0.026172996 -0.6360268 0.77122295
vn -0.08849764 -0.97102195 -0.2220013
vn -0.9610431 0.2754717 0.022615481
vn -0.16640353 0.3689587 -0.9144284
vn -0.22093761 -0.16859168 0.9606058
vn -0.9610431 0.2754717 0.022615481
vn 0.49579626 -0.62823623 0.59958756
vn 0.7217232 -0.67497975 -0.15335558
vn 0.49579626 -0.28545046 -0.8201854
vn 0.7217232 -0.67497975 -0.15335558
vn 0.06731409 -0.33219397 -0.94080603
vn -0.01838231 0.6494198 -0.7602079
vn 0.106267035 -0.9632314 -0.24676423
vn 0.06731409 -0.7295138 0.6806455
vn 0.106267035 -0.9632314 -0.24676423
vn -0.01838231 0.22872818 0.9733167
vn -0.111869335 -0.0049893856 0.9937104
vn -0.057335258 0.9688338 0.24098498
vn -0.43907392 0.8753468 0.20244028
vn -0.43907392 0.8753468 0.20244028
vn -0.057335258 0.9688338 0.24098498
vn -0.99999607 0.00280118 -0.00014561579
vn -0.99999607 0.00280118 -0.00014561579
vn -0.99999607 0.00280118 -0.00014561579
vn -0.99999607 0.00280118 -0.00014561579
vn -0.99999607 0.00280118 -0.00014561579
vn -0.99999607 0.00280118 -0.00014561579
vn -0.99999607 0.00280118 -0.00014561579
vn -0.99999607 0.00280118 -0.00014561579
vn -0.99999607 0.00280118 -0.00014561579
vn -0.99999607 0.00280118 -0.00014561579
vn -0.99999607 0.00280118 -0.00014561579
vn -0.99999607 0.00280118 -0.00014561579
g ReaperTurret_03_CorpsePart_0
f 3/3/3 2/2/2 1/1/1
f 4/4/4 3/3/3 1/1/1
f 4/4/4 1/1/1 5/5/5
f 6/6/6 4/4/4 5/5/5
f 6/6/6 5/5/5 7/7/7
f 8/8/8 6/6/6 7/7/7
f 11/11/11 10/10/10 9/9/9
f 12/12/12 11/11/11 9/9/9
f 12/12/12 9/9/9 13/13/13
f 14/14/14 12/12/12 13/13/13
f 14/14/14 13/13/13 15/15/15
f 16/16/16 14/14/14 15/15/15
f 19/19/19 18/18/18 17/17/17
f 20/20/20 19/19/19 17/17/17
f 21/21/21 19/19/19 20/20/20
f 22/22/22 21/21/21 20/20/20
f 23/23/23 21/21/21 22/22/22
f 24/24/24 23/23/23 22/22/22
f 27/27/27 26/26/26 25/25/25
f 28/28/28 27/27/27 25/25/25
f 29/29/29 27/27/27 28/28/28
f 30/30/30 29/29/29 28/28/28
f 31/31/31 29/29/29 30/30/30
f 32/32/32 31/31/31 30/30/30
f 35/35/35 34/34/34 33/33/33
f 36/36/36 35/35/35 33/33/33
f 34/34/34 38/38/38 37/37/37
f 33/33/33 34/34/34 37/37/37
f 41/41/41 40/40/40 39/39/39
f 42/42/42 41/41/41 39/39/39
f 40/40/40 44/44/44 43/43/43
f 39/39/39 40/40/40 43/43/43
f 44/44/44 46/46/46 45/45/45
f 43/43/43 44/44/44 45/45/45
f 47/47/47 35/35/35 36/36/36
f 48/48/48 47/47/47 36/36/36
f 50/50/50 49/49/49 1/1/1
f 2/2/2 50/50/50 1/1/1
f 49/49/49 51/51/51 5/5/5
f 1/1/1 49/49/49 5/5/5
f 51/51/51 52/52/52 7/7/7
f 5/5/5 51/51/51 7/7/7
f 54/54/54 53/53/53 9/9/9
f 10/10/10 54/54/54 9/9/9
f 53/53/53 55/55/55 13/13/13
f 9/9/9 53/53/53 13/13/13
f 55/55/55 56/56/56 15/15/15
f 13/13/13 55/55/55 15/15/15
f 4/4/4 58/58/58 57/57/57
f 3/3/3 4/4/4 57/57/57
f 16/16/16 60/60/60 59/59/59
f 14/14/14 16/16/16 59/59/59
f 59/59/59 61/61/61 12/12/12
f 14/14/14 59/59/59 12/12/12
f 61/61/61 62/62/62 11/11/11
f 12/12/12 61/61/61 11/11/11
f 64/64/64 63/63/63 6/6/6
f 8/8/8 64/64/64 6/6/6
f 6/6/6 63/63/63 58/58/58
f 4/4/4 6/6/6 58/58/58
f 58/58/58 63/63/63 65/65/65
f 66/66/66 58/58/58 65/65/65
f 63/63/63 64/64/64 67/67/67
f 65/65/65 63/63/63 67/67/67
f 62/62/62 61/61/61 68/68/68
f 69/69/69 62/62/62 68/68/68
f 70/70/70 68/68/68 61/61/61
f 71/71/71 70/70/70 61/61/61
f 71/71/71 73/73/73 72/72/72
f 70/70/70 71/71/71 72/72/72
f 74/74/74 58/58/58 66/66/66
f 75/75/75 74/74/74 66/66/66
f 78/78/78 77/77/77 76/76/76
f 79/79/79 78/78/78 76/76/76
f 82/82/82 81/81/81 80/80/80
f 83/83/83 82/82/82 80/80/80
f 76/76/76 85/85/85 84/84/84
f 79/79/79 76/76/76 84/84/84
f 87/87/87 86/86/86 82/82/82
f 83/83/83 87/87/87 82/82/82
