g ReaperTurret_01
v -0.30955124 0.12520447 0.25790507
v 0.30955124 0.12520447 0.25790507
v 0.30955124 4.708767E-06 0.25790507
v -0.30955124 4.708767E-06 0.25790507
v -0.30955124 4.708767E-06 -0.21022655
v 0.30955124 4.708767E-06 -0.21022655
v 0.30955124 0.12520447 -0.21022655
v -0.30955124 0.12520447 -0.21022655
v 0.30955124 0.12520447 0.25790507
v 0.30955124 0.12520447 -0.21022655
v 0.30955124 4.708767E-06 -0.21022655
v 0.30955124 4.708767E-06 0.25790507
v -0.30955124 0.12520447 -0.21022655
v -0.30955124 0.12520447 0.25790507
v -0.30955124 4.708767E-06 0.25790507
v -0.30955124 4.708767E-06 -0.21022655
v -0.30955124 4.708767E-06 -0.21022655
v -0.30955124 4.708767E-06 0.25790507
v 0.30955124 4.708767E-06 0.25790507
v 0.30955124 4.708767E-06 -0.21022655
vt 0.7727736 0.17056742
vt 0.7918265 0.17056742
vt 0.7918265 0.16648467
vt 0.7727736 0.16648467
vt 0.7918265 0.16036054
vt 0.7727736 0.16036054
vt 0.7727736 0.1644433
vt 0.7918265 0.1644433
vt 0.7918265 0.1760111
vt 0.7768564 0.1760111
vt 0.7768564 0.17192835
vt 0.7918265 0.17192835
vt 0.7768564 0.1760111
vt 0.7918265 0.1760111
vt 0.7918265 0.17192835
vt 0.7768564 0.17192835
vt 0.84286094 0.23725241
vt 0.84286094 0.24745929
vt 0.8564701 0.24745929
vt 0.8564701 0.23725241
vn -0.6031345 -0.00039851665 0.7976394
vn 0.6039315 -0.00039851665 0.7970361
vn 0.6039315 -0.00039851665 0.7970361
vn -0.6031345 -0.00039851665 0.7976394
vn -0.6031345 -0.00039851665 -0.7976394
vn 0.6039315 -0.00039851665 -0.7970361
vn 0.6039315 -0.00039851665 -0.7970361
vn -0.6031345 -0.00039851665 -0.7976394
vn 0.6039315 -0.00039851665 0.7970361
vn 0.6039315 -0.00039851665 -0.7970361
vn 0.6039315 -0.00039851665 -0.7970361
vn 0.6039315 -0.00039851665 0.7970361
vn -0.6031345 -0.00039851665 -0.7976394
vn -0.6031345 -0.00039851665 0.7976394
vn -0.6031345 -0.00039851665 0.7976394
vn -0.6031345 -0.00039851665 -0.7976394
vn 0.00039851665 -1 -0
vn 0.00039851665 -1 -0
vn 0.00039851665 -1 -0
vn 0.00039851665 -1 -0
g ReaperTurret_01_0
f 3/3/3 2/2/2 1/1/1
f 4/4/4 3/3/3 1/1/1
f 7/7/7 6/6/6 5/5/5
f 8/8/8 7/7/7 5/5/5
f 11/11/11 10/10/10 9/9/9
f 12/12/12 11/11/11 9/9/9
f 15/15/15 14/14/14 13/13/13
f 16/16/16 15/15/15 13/13/13
f 19/19/19 18/18/18 17/17/17
f 20/20/20 19/19/19 17/17/17
