g ReaperTurret_05_CustomizePart_CorpsePart
v 0.2803421 0.24682343 0.057675213
v -0.28034633 0.24682343 0.057675213
v -0.24018216 0.20096672 1.603809
v 0.2500968 0.20096672 1.603809
v 0.25906688 0.4971236 0.06923282
v 0.2803421 0.24682343 0.057675213
v 0.2500968 0.20096672 1.603809
v 0.23054658 0.48254716 1.4199508
v -0.28034633 0.24682343 0.057675213
v -0.25904232 0.4971236 0.06923282
v -0.23032075 0.48254716 1.4199508
v -0.24018216 0.20096672 1.603809
v -0.24018216 0.20096672 1.603809
v -0.10212317 0.31645668 1.5278507
v 0.1052815 0.31769294 1.5272182
v 0.2500968 0.20096672 1.603809
v -0.10885075 0.3836174 0.057675213
v 0.108846545 0.3836174 0.057675213
v 0.1052815 0.31769294 1.5272182
v -0.10212317 0.31645668 1.5278507
v -0.11609581 0.48142594 1.4195195
v -0.11997712 0.4971236 0.06923282
v -0.10885075 0.3836174 0.057675213
v -0.10212317 0.31645668 1.5278507
v 0.11695413 0.48125345 1.419577
v 0.1052815 0.31769294 1.5272182
v 0.108846545 0.3836174 0.057675213
v 0.12000166 0.4971236 0.06923282
v 0.23054658 0.48254716 1.4199508
v 0.11695413 0.48125345 1.419577
v 0.12000166 0.4971236 0.06923282
v 0.25906688 0.4971236 0.06923282
v 0.23054658 0.48254716 1.4199508
v 0.11695413 0.48125345 1.419577
v -0.23032075 0.48254716 1.4199508
v -0.25904232 0.4971236 0.06923282
v -0.11997712 0.4971236 0.06923282
v -0.11609581 0.48142594 1.4195195
v -0.23032075 0.48254716 1.4199508
v -0.11609581 0.48142594 1.4195195
v -0.28034633 0.24682343 0.057675213
v -0.10885075 0.3836174 0.057675213
v -0.11997712 0.4971236 0.06923282
v -0.25904232 0.4971236 0.06923282
v 0.2803421 0.24682343 0.057675213
v 0.25906688 0.4971236 0.06923282
v 0.12000166 0.4971236 0.06923282
v 0.108846545 0.3836174 0.057675213
vt 0.9022585 0.19364364
vt 0.7676066 0.19364364
vt 0.7758813 0.4531682
vt 0.89398384 0.4531682
vt 0.6931344 0.6908777
vt 0.75933194 0.6931344
vt 0.7623409 0.43210533
vt 0.6908777 0.47724006
vt 0.63972497 0.6976478
vt 0.7066748 0.69463885
vt 0.70893157 0.4817535
vt 0.636716 0.43737105
vt 0.7758813 0.4531682
vt 0.8089801 0.48626697
vt 0.8593805 0.48626697
vt 0.89398384 0.4531682
vt 0.8082279 0.7345078
vt 0.8593805 0.7345078
vt 0.8593805 0.48626697
vt 0.8089801 0.48626697
vt 0.73676455 0.48100126
vt 0.73225117 0.69463885
vt 0.76534986 0.6976478
vt 0.76986337 0.45015922
vt 0.6630446 0.47724006
vt 0.62994576 0.44865474
vt 0.63445926 0.6931344
vt 0.6675581 0.6908777
vt 0.88947034 0.5389241
vt 0.86163723 0.53591514
vt 0.6675581 0.6908777
vt 0.6931344 0.6908777
vt 0.6908777 0.47724006
vt 0.6630446 0.47724006
vt 0.70893157 0.4817535
vt 0.7066748 0.69463885
vt 0.73225117 0.69463885
vt 0.73676455 0.48100126
vt 0.7766336 0.5381719
vt 0.8044666 0.5351629
vt 0.7676066 0.19364364
vt 0.8082279 0.16054487
vt 0.80597115 0.1327118
vt 0.7721201 0.13346404
vt 0.9022585 0.19364364
vt 0.8969928 0.1327118
vt 0.863894 0.1327118
vt 0.860885 0.16054487
vn 0.0035496354 -0.999106 -0.042126816
vn 0.0035496354 -0.999106 -0.042126816
vn 0.0035496354 -0.999106 -0.042126816
vn 0.0035496354 -0.999106 -0.042126816
vn 0.9959209 0.090230085 -0
vn 0.9959209 0.090230085 -0
vn 0.9959209 0.090230085 -0
vn 0.9959209 0.090230085 -0
vn -0.99776226 0.06686203 -0
vn -0.99776226 0.06686203 -0
vn -0.99776226 0.06686203 -0
vn -0.99776226 0.06686203 -0
vn 0.0035496354 0.54518217 0.83831006
vn 0.0035496354 0.54518217 0.83831006
vn -0.004289329 0.54518217 0.8383066
vn -0.004289329 0.54518217 0.8383066
vn -0.004289329 0.9998457 0.017035699
vn -0.004289329 0.9998457 0.017035699
vn -0.004289329 0.9998457 0.017035699
vn -0.004289329 0.9998457 0.017035699
vn 0.9959209 0.090230085 -0
vn 0.9959209 0.090230085 -0
vn 0.9959209 0.090230085 -0
vn 0.9959209 0.090230085 -0
vn -0.9965984 0.08241117 -0
vn -0.9965984 0.08241117 -0
vn -0.9965984 0.08241117 -0
vn -0.9965984 0.08241117 -0
vn -0.004289329 0.54518217 0.8383066
vn -0.004289329 0.54518217 0.8383066
vn -0.004289329 0.9998457 0.017035699
vn -0.004289329 0.9998457 0.017035699
vn -0.004289329 0.9998457 0.017035699
vn -0.004289329 0.9998457 0.017035699
vn 0.0035496354 0.9998457 0.017206285
vn 0.0035496354 0.9998457 0.017206285
vn 0.0035496354 0.9998457 0.017206285
vn 0.0035496354 0.9998457 0.017206285
vn 0.0035496354 0.54518217 0.83831006
vn 0.0035496354 0.54518217 0.83831006
vn -0.012128413 0.02780646 -0.99953973
vn -0.012128413 0.019967377 -0.9997271
vn -0.02780646 0.06700164 -0.9973653
vn -0.02780646 0.06700164 -0.9973653
vn 0.0113886595 0.02780646 -0.99954844
vn 0.027066708 0.06700164 -0.9973857
vn 0.027066708 0.06700164 -0.9973857
vn 0.0113886595 0.019967377 -0.9997358
g ReaperTurret_05_CustomizePart_CorpsePart_0
f 3/3/3 2/2/2 1/1/1
f 4/4/4 3/3/3 1/1/1
f 7/7/7 6/6/6 5/5/5
f 8/8/8 7/7/7 5/5/5
f 11/11/11 10/10/10 9/9/9
f 12/12/12 11/11/11 9/9/9
f 15/15/15 14/14/14 13/13/13
f 16/16/16 15/15/15 13/13/13
f 19/19/19 18/18/18 17/17/17
f 20/20/20 19/19/19 17/17/17
f 23/23/23 22/22/22 21/21/21
f 24/24/24 23/23/23 21/21/21
f 27/27/27 26/26/26 25/25/25
f 28/28/28 27/27/27 25/25/25
f 15/15/15 16/16/16 29/29/29
f 30/30/30 15/15/15 29/29/29
f 33/33/33 32/32/32 31/31/31
f 34/34/34 33/33/33 31/31/31
f 37/37/37 36/36/36 35/35/35
f 38/38/38 37/37/37 35/35/35
f 39/39/39 13/13/13 14/14/14
f 40/40/40 39/39/39 14/14/14
f 43/43/43 42/42/42 41/41/41
f 44/44/44 43/43/43 41/41/41
f 47/47/47 46/46/46 45/45/45
f 48/48/48 47/47/47 45/45/45
f 48/48/48 45/45/45 41/41/41
f 42/42/42 48/48/48 41/41/41
