g ReaperTurret_12_DefaultPart_CorpsePart
v -0.35400814 -0.1921528 -0.4965162
v -0.39083678 -0.1921528 -0.15309155
v -0.34798908 -0.1921528 -0.14514357
v -0.34414905 -0.07548702 -0.58524793
v -0.39083678 -0.1921528 -0.15309155
v -0.35400814 -0.1921528 -0.4965162
v 0.35414892 -0.1921528 -0.4965162
v 0.34425414 -0.07548702 -0.58524793
v -0.34414905 -0.07548702 -0.58524793
v -0.35400814 -0.1921528 -0.4965162
v -0.34414905 -0.07548702 -0.58524793
v -0.3204301 0.19215488 -0.49501592
v -0.3550083 0.13760847 -0.1337842
v -0.39083678 -0.1921528 -0.15309155
v -0.39083678 -0.1921528 -0.15309155
v -0.3550083 0.13760847 -0.1337842
v -0.31587565 0.101869285 -0.12576476
v -0.34798908 -0.1921528 -0.14514357
v 0.35414892 -0.1921528 -0.4965162
v 0.3408249 -0.1921528 -0.14514357
v 0.39083472 -0.1921528 -0.15330589
v -0.25947165 0.040767968 0.54718894
v -0.29045993 -0.1921528 0.58524996
v -0.34798908 -0.1921528 -0.14514357
v -0.31587565 0.101869285 -0.12576476
v -0.12941039 -0.1921528 0.3576874
v -0.090795696 -0.1921528 0.269045
v 7.933378E-05 -0.1921528 0.23139471
v -0.29045993 -0.1921528 0.58524996
v -0.3204301 0.19215488 -0.49501592
v 0.31973144 0.19127971 -0.49531955
v 0.35472047 0.1382693 -0.13394493
v -0.3550083 0.13760847 -0.1337842
v 0.34425414 -0.07548702 -0.58524793
v 0.35414892 -0.1921528 -0.4965162
v 0.39083472 -0.1921528 -0.15330589
v -0.3550083 0.13760847 -0.1337842
v 0.35472047 0.1382693 -0.13394493
v 0.30937228 0.10204786 -0.12576476
v -0.31587565 0.101869285 -0.12576476
v 0.35472047 0.1382693 -0.13394493
v 0.31973144 0.19127971 -0.49531955
v 0.34425414 -0.07548702 -0.58524793
v 0.39083472 -0.1921528 -0.15330589
v 0.09095433 -0.1921528 0.269045
v -0.08466947 0.06941646 0.27551055
v -0.11976564 0.061397016 0.35992002
v -0.31587565 0.101869285 -0.12576476
v 7.933378E-05 0.07266712 0.24055725
v 0.30937228 0.10204786 -0.12576476
v -0.090795696 -0.1921528 0.269045
v -0.08466947 0.06941646 0.27551055
v 7.933378E-05 0.07266712 0.24055725
v 7.933378E-05 -0.1921528 0.23139471
v 0.30937228 0.10204786 -0.12576476
v 0.35472047 0.1382693 -0.13394493
v 0.39083472 -0.1921528 -0.15330589
v 0.3408249 -0.1921528 -0.14514357
v -0.25947165 0.040767968 0.54718894
v 0.12953335 -0.1921528 0.3576874
v 7.933378E-05 0.07266712 0.24055725
v 0.08481026 0.06941646 0.27551055
v 0.09095433 -0.1921528 0.269045
v 7.933378E-05 -0.1921528 0.23139471
v -0.12458801 -0.06537789 0.35879475
v -0.090795696 -0.1921528 0.269045
v -0.12941039 -0.1921528 0.3576874
v 0.12471098 -0.06537789 0.35879475
v 0.09095433 -0.1921528 0.269045
v 0.08481026 0.06941646 0.27551055
v 0.119906455 0.061397016 0.35992002
v -0.11976564 0.061397016 0.35992002
v -0.12458801 -0.06537789 0.35879475
v -0.087634325 -0.065663636 0.4474551
v -0.08466947 0.05337763 0.44431156
v 0.12803307 -0.1921528 0.58524996
v 0.2838137 -0.1921528 0.58524996
v 0.08481026 0.06941646 0.27551055
v -0.08466947 0.05337763 0.44431156
v 0.3408249 -0.1921528 -0.14514357
v 0.2838137 -0.1921528 0.58524996
v 0.25355774 0.040767968 0.54718894
v 0.30937228 0.10204786 -0.12576476
v -0.087634325 -0.065663636 0.4474551
v 7.933378E-05 -0.065663636 0.4836586
v 7.933378E-05 0.050073385 0.4792828
v -0.08466947 0.05337763 0.44431156
v 0.119906455 0.061397016 0.35992002
v 7.933378E-05 0.050073385 0.4792828
v 7.933378E-05 0.050073385 0.4792828
v 7.933378E-05 -0.065663636 0.4836586
v 0.08779299 -0.065663636 0.4474551
v 0.08481026 0.05337763 0.44431156
v 0.08779299 -0.065663636 0.4474551
v 0.12471098 -0.06537789 0.35879475
v 0.119906455 0.061397016 0.35992002
v 0.08481026 0.05337763 0.44431156
v -0.3204301 0.19215488 -0.49501592
v -0.34414905 -0.07548702 -0.58524793
v 0.34425414 -0.07548702 -0.58524793
v 0.31973144 0.19127971 -0.49531955
v 0.25355774 0.040767968 0.54718894
v 0.25355774 0.040767968 0.54718894
v -0.25947165 0.040767968 0.54718894
v 0.08481026 0.05337763 0.44431156
v -0.12787437 -0.1921528 0.58524996
v 0.25355774 0.040767968 0.54718894
v 0.2838137 -0.1921528 0.58524996
v 0.12803307 -0.1921528 0.58524996
v 0.11822757 -0.065663636 0.56458527
v -0.118086755 -0.065663636 0.56458527
v -0.12458801 -0.06537789 0.35879475
v -0.12941039 -0.1921528 0.3576874
v -0.12787437 -0.1921528 0.58524996
v 0.12471098 -0.06537789 0.35879475
v 0.11822757 -0.065663636 0.56458527
v 0.12803307 -0.1921528 0.58524996
v 0.12953335 -0.1921528 0.3576874
v -0.118086755 -0.065663636 0.56458527
v -0.087634325 -0.065663636 0.4474551
v -0.12458801 -0.06537789 0.35879475
v 7.933378E-05 -0.065663636 0.4836586
v 0.11822757 -0.065663636 0.56458527
v 0.08779299 -0.065663636 0.4474551
v 0.12471098 -0.06537789 0.35879475
v -0.25947165 0.040767968 0.54718894
v -0.118086755 -0.065663636 0.56458527
v -0.12787437 -0.1921528 0.58524996
v -0.29045993 -0.1921528 0.58524996
v 0.12953335 -0.1921528 0.3576874
v -0.11976564 0.061397016 0.35992002
v -0.08466947 0.06941646 0.27551055
v 0.28190258 -0.09693766 0.14784259
v 0.34264666 -0.09572315 0.152022
v 0.3314302 0.018942237 0.18000966
v 0.270954 0.021942854 0.17686617
v 0.32271418 0.05200231 0.29322833
v 0.26459563 0.056253135 0.29426426
v 0.3251075 -0.02942437 0.37847722
v 0.2691858 -0.028191984 0.38271022
v 0.33628827 -0.14401835 0.35063243
v 0.28013438 -0.14707252 0.35384738
v 0.34505785 -0.17723915 0.23771739
v 0.28649276 -0.1815257 0.23637784
v 0.3720453 -0.0853461 0.18765402
v 0.34264666 -0.09572315 0.152022
v 0.34505785 -0.17723915 0.23771739
v 0.37400997 -0.14123207 0.24616551
v 0.36118603 -0.006741345 0.20680064
v 0.3314302 0.018942237 0.18000966
v 0.3523093 0.015977383 0.28444088
v 0.32271418 0.05200231 0.29322833
v 0.35427397 -0.039908588 0.34295237
v 0.3251075 -0.02942437 0.37847722
v 0.36513323 -0.118495464 0.32380575
v 0.33628827 -0.14401835 0.35063243
v -0.34250587 -0.09572315 0.152022
v -0.3719045 -0.0853461 0.18765402
v -0.37386918 -0.14123207 0.24616551
v -0.34491706 -0.17723915 0.23771739
v -0.33127153 0.018942237 0.18000966
v -0.36104524 -0.006741345 0.20680064
v -0.32255548 0.05200231 0.29322833
v -0.3521685 0.015977383 0.28444088
v -0.32496673 -0.02942437 0.37847722
v -0.35413313 -0.039908588 0.34295237
v -0.3361296 -0.14401835 0.35063243
v -0.36499244 -0.118495464 0.32380575
v -0.34491706 -0.17723915 0.23771739
v -0.2863341 -0.1815257 0.23637784
v -0.28176177 -0.09693766 0.14784259
v -0.34250587 -0.09572315 0.152022
v -0.27081323 0.021942854 0.17686617
v -0.33127153 0.018942237 0.18000966
v -0.26445478 0.056253135 0.29426426
v -0.32255548 0.05200231 0.29322833
v -0.269045 -0.028191984 0.38271022
v -0.32496673 -0.02942437 0.37847722
v -0.2799936 -0.14707252 0.35384738
v -0.3361296 -0.14401835 0.35063243
vt 0.588118 0.7849728
vt 0.5840508 0.8427277
vt 0.5897449 0.84354115
vt 0.66620916 0.36685976
vt 0.56046075 0.34001595
vt 0.64424604 0.34001595
vt 0.81263006 0.49782515
vt 0.8134435 0.53199
vt 0.97125274 0.53199
vt 0.9728796 0.49782515
vt 0.66620916 0.36685976
vt 0.6474998 0.43112224
vt 0.55964726 0.41892052
vt 0.56046075 0.34001595
vt 0.56046075 0.34001595
vt 0.55964726 0.41892052
vt 0.548259 0.41078603
vt 0.548259 0.34001595
vt 0.70850855 0.7849728
vt 0.70688164 0.84354115
vt 0.7133892 0.8427277
vt 0.54256487 0.20742366
vt 0.5384976 0.14804184
vt 0.71664304 0.14641495
vt 0.7142027 0.21311781
vt 0.6198425 0.93058026
vt 0.6304174 0.9151247
vt 0.6483133 0.90780365
vt 0.59137183 0.96718544
vt 0.97857374 0.620656
vt 0.8061225 0.620656
vt 0.8061225 0.7101354
vt 0.97857374 0.7101354
vt 0.66620916 0.36685976
vt 0.64424604 0.34001595
vt 0.56046075 0.34001595
vt 0.97857374 0.7101354
vt 0.8061225 0.7101354
vt 0.8101897 0.7215237
vt 0.97694683 0.7223372
vt 0.55964726 0.41892052
vt 0.6474998 0.43112224
vt 0.66620916 0.36685976
vt 0.56046075 0.34001595
vt 0.6670226 0.9151247
vt 0.42054743 0.31235865
vt 0.41078603 0.28795516
vt 0.370927 0.40753222
vt 0.44413745 0.3213066
vt 0.51653445 0.40753222
vt 0.51978827 0.80937624
vt 0.51978827 0.8557429
vt 0.53605723 0.8557429
vt 0.5368707 0.80937624
vt 0.548259 0.41078603
vt 0.55964726 0.41892052
vt 0.56046075 0.34001595
vt 0.548259 0.34001595
vt 0.3758077 0.24321544
vt 0.67759746 0.9297668
vt 0.53605723 0.8557429
vt 0.51978827 0.8557429
vt 0.51978827 0.80937624
vt 0.5368707 0.80937624
vt 0.5035193 0.8329663
vt 0.51978827 0.80937624
vt 0.5035193 0.80937624
vt 0.5035193 0.8329663
vt 0.51978827 0.80937624
vt 0.51978827 0.8557429
vt 0.5035193 0.8557429
vt 0.5035193 0.8557429
vt 0.5035193 0.8329663
vt 0.48643684 0.8345932
vt 0.48643684 0.8557429
vt 0.67759746 0.9679989
vt 0.7044413 0.96718544
vt 0.46772748 0.31235865
vt 0.42054743 0.26436514
vt 0.71664304 0.14641495
vt 0.5384976 0.14804184
vt 0.54256487 0.20742366
vt 0.7150161 0.21230435
vt 0.48643684 0.8345932
vt 0.4693544 0.8345932
vt 0.47016782 0.8557429
vt 0.48643684 0.8557429
vt 0.47830236 0.28795516
vt 0.44413745 0.25460374
vt 0.47016782 0.8557429
vt 0.4693544 0.8345932
vt 0.48643684 0.8345932
vt 0.48643684 0.8557429
vt 0.48643684 0.8345932
vt 0.5035193 0.8329663
vt 0.5035193 0.8557429
vt 0.48643684 0.8557429
vt 0.96881235 0.597066
vt 0.97125274 0.53199
vt 0.8134435 0.53199
vt 0.81913763 0.597066
vt 0.5116538 0.2440289
vt 0.5116538 0.2440289
vt 0.3758077 0.24321544
vt 0.46854097 0.26436514
vt 0.6198425 0.9679989
vt 0.5116538 0.22369266
vt 0.5116538 0.16268393
vt 0.47748888 0.16268393
vt 0.47748888 0.19603537
vt 0.46528715 0.8313394
vt 0.5035193 0.8329663
vt 0.5035193 0.80937624
vt 0.46528715 0.80937624
vt 0.5035193 0.8329663
vt 0.46528715 0.8313394
vt 0.46528715 0.80937624
vt 0.5035193 0.80937624
vt 0.23833475 0.8264587
vt 0.2440289 0.8061225
vt 0.23833475 0.78985345
vt 0.2594844 0.81263006
vt 0.2806341 0.8264587
vt 0.27493995 0.8061225
vt 0.2806341 0.78985345
vt 0.38312876 0.22369266
vt 0.41892052 0.19603537
vt 0.41892052 0.16268393
vt 0.38312876 0.16268393
vt 0.5035193 0.80937624
vt 0.5035193 0.8557429
vt 0.51978827 0.8557429
vt 0.25460374 0.7312851
vt 0.25460374 0.74511373
vt 0.28388792 0.74511373
vt 0.28388792 0.7312851
vt 0.31398553 0.74511373
vt 0.31398553 0.7312851
vt 0.28388792 0.74511373
vt 0.28388792 0.7312851
vt 0.25460374 0.74511373
vt 0.25460374 0.7312851
vt 0.22531955 0.74511373
vt 0.22531955 0.7312851
vt 0.2505365 0.7687038
vt 0.2505365 0.7573155
vt 0.22531955 0.7573155
vt 0.22531955 0.7687038
vt 0.27575344 0.7687038
vt 0.27575344 0.7573155
vt 0.30097035 0.7687038
vt 0.30097035 0.7573155
vt 0.27575344 0.7687038
vt 0.27575344 0.7573155
vt 0.2505365 0.7687038
vt 0.2505365 0.7573155
vt 0.2505365 0.7573155
vt 0.2505365 0.7687038
vt 0.22531955 0.7687038
vt 0.22531955 0.7573155
vt 0.27575344 0.7573155
vt 0.27575344 0.7687038
vt 0.30097035 0.7573155
vt 0.30097035 0.7687038
vt 0.27575344 0.7573155
vt 0.27575344 0.7687038
vt 0.2505365 0.7573155
vt 0.2505365 0.7687038
vt 0.22531955 0.74511373
vt 0.22531955 0.7312851
vt 0.25460374 0.7312851
vt 0.25460374 0.74511373
vt 0.28388792 0.7312851
vt 0.28388792 0.74511373
vt 0.31398553 0.7312851
vt 0.31398553 0.74511373
vt 0.28388792 0.7312851
vt 0.28388792 0.74511373
vt 0.25460374 0.7312851
vt 0.25460374 0.74511373
vn -0.0029644966 -0.9999956 -0.00024414062
vn -0.0029644966 -0.9999956 -0.00024414062
vn -0.0029644966 -0.9999956 -0.00024414062
vn -0.99808896 0.0029644966 -0.061722476
vn -0.99808896 0.0029644966 -0.061722476
vn -0.99808896 0.0029644966 -0.061722476
vn -0.0029644966 -0.6082143 -0.79376733
vn -0.0029644966 -0.6082143 -0.79376733
vn -0.0029644966 -0.6082143 -0.79376733
vn -0.0029644966 -0.6082143 -0.79376733
vn -0.9902533 0.11266327 -0.081886016
vn -0.9902533 0.11266327 -0.081886016
vn -0.9902533 0.11266327 -0.081886016
vn -0.9902533 0.11266327 -0.081886016
vn -0.20669079 -0.036213636 0.9777359
vn -0.20669079 -0.036213636 0.9777359
vn -0.20669079 -0.036213636 0.9777359
vn -0.20669079 -0.036213636 0.9777359
vn -0.0029644966 -0.9999956 -0.00024414062
vn -0.0029644966 -0.9999956 -0.00024414062
vn -0.0029644966 -0.9999956 -0.00024414062
vn -0.9902533 0.120498896 0.06984517
vn -0.9902533 0.120498896 0.06984517
vn -0.9902533 0.120498896 0.06984517
vn -0.9902533 0.120498896 0.06984517
vn -0.0029644966 -0.9999956 -0.00024414062
vn -0.0029644966 -0.9999956 -0.00024414062
vn -0.0029644966 -0.9999956 -0.00024414062
vn -0.0029644966 -0.9999956 -0.00024414062
vn -0.0029644966 0.9902533 0.13924643
vn -0.0029644966 0.9902533 0.13924643
vn -0.0029644966 0.9902533 0.13924643
vn -0.0029644966 0.9902533 0.13924643
vn 0.99215996 0.0029644966 -0.12493932
vn 0.99215996 0.0029644966 -0.12493932
vn 0.99215996 0.0029644966 -0.12493932
vn -0.0029644966 0.22236204 0.9749597
vn -0.0029644966 0.22236204 0.9749597
vn -0.0029644966 0.22236204 0.9749597
vn -0.0029644966 0.22236204 0.9749597
vn 0.99215996 0.11266327 -0.05408891
vn 0.99215996 0.11266327 -0.05408891
vn 0.99215996 0.11266327 -0.05408891
vn 0.99215996 0.11266327 -0.05408891
vn -0.0029644966 -0.9999956 -0.00024414062
vn -0.010800123 0.99808896 0.06084247
vn -0.010800123 0.99808896 0.06084247
vn -0.010800123 0.99808896 0.06084247
vn -0.0029644966 0.99808896 0.06172269
vn -0.0029644966 0.99808896 0.06172269
vn 0.3809812 -0.02837801 0.9241472
vn 0.3809812 -0.02837801 0.9241472
vn 0.3809812 -0.02837801 0.9241472
vn 0.3809812 -0.02837801 0.9241472
vn 0.18509054 -0.044049263 0.9817338
vn 0.18509054 -0.044049263 0.9817338
vn 0.18509054 -0.044049263 0.9817338
vn 0.18509054 -0.044049263 0.9817338
vn -0.026471376 0.99808896 0.055836726
vn -0.0029644966 -0.9999956 -0.00024414062
vn -0.37907445 -0.02837801 0.92493093
vn -0.37907445 -0.02837801 0.92493093
vn -0.37907445 -0.02837801 0.92493093
vn -0.37907445 -0.02837801 0.92493093
vn 0.9138037 -0.036213636 0.4045385
vn 0.9138037 -0.036213636 0.4045385
vn 0.9138037 -0.036213636 0.4045385
vn -0.9197327 -0.036213636 0.3908713
vn -0.9197327 -0.036213636 0.3908713
vn -0.9197327 -0.036213636 0.3908713
vn -0.9197327 -0.036213636 0.3908713
vn 0.9216393 -0.036213636 -0.38635415
vn 0.9216393 -0.036213636 -0.38635415
vn 0.9216393 -0.036213636 -0.38635415
vn 0.9216393 -0.036213636 -0.38635415
vn -0.0029644966 -0.9999956 -0.00024414062
vn -0.0029644966 -0.9999956 -0.00024414062
vn 0.00487113 0.99808896 0.061601378
vn -0.010800123 0.99808896 0.06084247
vn 0.99215996 0.120498896 0.033145715
vn 0.99215996 0.120498896 0.033145715
vn 0.99215996 0.120498896 0.033145715
vn 0.99215996 0.120498896 0.033145715
vn 0.3809812 -0.036213636 -0.9238733
vn 0.3809812 -0.036213636 -0.9238733
vn 0.3809812 -0.036213636 -0.9238733
vn 0.3809812 -0.036213636 -0.9238733
vn 0.012706757 0.99808896 0.060473
vn -0.0029644966 0.9902533 0.13924643
vn -0.37907445 -0.036213636 -0.9246573
vn -0.37907445 -0.036213636 -0.9246573
vn -0.37907445 -0.036213636 -0.9246573
vn -0.37907445 -0.036213636 -0.9246573
vn -0.9197327 -0.036213636 -0.3908713
vn -0.9197327 -0.036213636 -0.3908713
vn -0.9197327 -0.036213636 -0.3908713
vn -0.9197327 -0.036213636 -0.3908713
vn -0.0029644966 0.31638944 -0.9486248
vn -0.0029644966 0.31638944 -0.9486248
vn -0.0029644966 0.31638944 -0.9486248
vn -0.0029644966 0.31638944 -0.9486248
vn 0.020542383 0.99808896 0.058279082
vn -0.0029644966 0.9902533 0.13924643
vn -0.0029644966 0.9902533 0.13924643
vn 0.00487113 0.9902533 0.1391927
vn -0.0029644966 -0.9999956 -0.00024414062
vn -0.0029644966 0.15967703 0.98716486
vn -0.0029644966 0.15967703 0.98716486
vn -0.0029644966 0.15967703 0.98716486
vn -0.0029644966 0.15967703 0.98716486
vn 0.99822146 -0.059614565 -0
vn 0.99822146 -0.059614565 -0
vn 0.99822146 -0.059614565 -0
vn 0.99822146 -0.059614565 -0
vn -0.99808896 -0.059720516 -0.015871745
vn -0.99808896 -0.059720516 -0.015871745
vn -0.99808896 -0.059720516 -0.015871745
vn -0.99808896 -0.059720516 -0.015871745
vn -0.0029644966 -0.9999956 -0.00024414062
vn -0.0029644966 -0.9999956 -0.00024414062
vn -0.0029644966 -0.9999956 -0.00024414062
vn -0.0029644966 -0.9999956 -0.00024414062
vn -0.0029644966 -0.9999956 -0.00024414062
vn -0.0029644966 -0.9999956 -0.00024414062
vn 0.004871094 -0.9999882 -0
vn -0.0029644966 0.15967703 0.98716486
vn -0.0029644966 0.15967703 0.98716486
vn -0.0029644966 0.15967703 0.98716486
vn -0.0029644966 0.15967703 0.98716486
vn -0.9197327 -0.036213636 0.3908713
vn 0.9216393 -0.036213636 0.38635415
vn 0.9216393 -0.036213636 0.38635415
vn 0.07539177 -0.24777555 -0.96587956
vn 0.07539177 -0.2947893 -0.95258355
vn 0.07539177 0.66899264 -0.73943555
vn 0.07539177 0.7081708 -0.70200443
vn 0.07539177 0.9745821 0.2109642
vn 0.07539177 0.96674645 0.24437147
vn 0.07539177 0.26937568 0.9600796
vn 0.07539177 0.3085538 0.9482145
vn 0.07539177 -0.7100774 0.7000758
vn 0.07539177 -0.67089933 0.73770607
vn 0.07539177 -0.96081746 -0.26673186
vn 0.07539177 -0.9686531 -0.23670085
vn 0.99215996 0.04214263 -0.11765467
vn 0.7884337 -0.1145699 -0.60435593
vn 0.7962693 -0.59254307 -0.1218521
vn 0.99215996 -0.09889865 0.07640471
vn 0.9686531 0.23803318 -0.071073204
vn 0.78059804 0.48877323 -0.38957337
vn 0.9529818 0.28504694 0.102829225
vn 0.7727624 0.61414325 0.16020705
vn 0.9529818 0.1518414 0.26223996
vn 0.7727624 0.23019767 0.5914789
vn 0.9764887 -0.036213636 0.21250501
vn 0.7884337 -0.35747433 0.5005841
vn -0.79436266 -0.1145699 -0.59654146
vn -0.9902533 0.04214263 -0.13274913
vn -0.99512666 -0.098605126 -0
vn -0.79436266 -0.59254307 -0.13371865
vn -0.7786914 0.48877323 -0.3933706
vn -0.96674645 0.23803318 -0.09349612
vn -0.7708558 0.61414325 0.16914329
vn -0.9510752 0.28504694 0.11918133
vn -0.7786914 0.23019767 0.5836512
vn -0.9589108 0.1518414 0.23965442
vn -0.78652704 -0.35747433 0.50357455
vn -0.9745821 -0.036213636 0.22108452
vn -0.073485136 -0.96081746 -0.2672634
vn -0.073485136 -0.9686531 -0.23729967
vn -0.073485136 -0.24777555 -0.9660265
vn -0.073485136 -0.2947893 -0.9527325
vn -0.073485136 0.7081708 -0.7022066
vn -0.073485136 0.66899264 -0.7396275
vn -0.073485136 0.96674645 0.24495153
vn -0.073485136 0.9745821 0.21163584
vn -0.08132076 0.3085538 0.94772434
vn -0.08132076 0.26937568 0.95959556
vn -0.073485136 -0.67089933 0.7378984
vn -0.073485136 -0.7100774 0.7002785
g ReaperTurret_12_DefaultPart_CorpsePart_0
f 3/3/3 2/2/2 1/1/1
f 6/6/6 5/5/5 4/4/4
f 9/9/9 8/8/8 7/7/7
f 10/10/10 9/9/9 7/7/7
f 13/13/13 12/12/12 11/11/11
f 14/14/14 13/13/13 11/11/11
f 17/17/17 16/16/16 15/15/15
f 18/18/18 17/17/17 15/15/15
f 21/21/21 20/20/20 19/19/19
f 24/24/24 23/23/23 22/22/22
f 25/25/25 24/24/24 22/22/22
f 27/27/27 26/26/26 3/3/3
f 3/3/3 28/28/28 27/27/27
f 28/28/28 3/3/3 20/20/20
f 26/26/26 29/29/29 3/3/3
f 32/32/32 31/31/31 30/30/30
f 33/33/33 32/32/32 30/30/30
f 36/36/36 35/35/35 34/34/34
f 39/39/39 38/38/38 37/37/37
f 40/40/40 39/39/39 37/37/37
f 43/43/43 42/42/42 41/41/41
f 44/44/44 43/43/43 41/41/41
f 20/20/20 45/45/45 28/28/28
f 48/48/48 47/47/47 46/46/46
f 46/46/46 49/49/49 48/48/48
f 50/50/50 48/48/48 49/49/49
f 53/53/53 52/52/52 51/51/51
f 54/54/54 53/53/53 51/51/51
f 57/57/57 56/56/56 55/55/55
f 58/58/58 57/57/57 55/55/55
f 47/47/47 48/48/48 59/59/59
f 20/20/20 60/60/60 45/45/45
f 63/63/63 62/62/62 61/61/61
f 64/64/64 63/63/63 61/61/61
f 67/67/67 66/66/66 65/65/65
f 70/70/70 69/69/69 68/68/68
f 71/71/71 70/70/70 68/68/68
f 74/74/74 73/73/73 72/72/72
f 75/75/75 74/74/74 72/72/72
f 77/77/77 76/76/76 60/60/60
f 49/49/49 78/78/78 50/50/50
f 59/59/59 79/79/79 47/47/47
f 82/82/82 81/81/81 80/80/80
f 83/83/83 82/82/82 80/80/80
f 86/86/86 85/85/85 84/84/84
f 87/87/87 86/86/86 84/84/84
f 78/78/78 88/88/88 50/50/50
f 59/59/59 89/89/89 79/79/79
f 19/19/19 20/20/20 3/3/3
f 1/1/1 19/19/19 3/3/3
f 92/92/92 91/91/91 90/90/90
f 93/93/93 92/92/92 90/90/90
f 96/96/96 95/95/95 94/94/94
f 97/97/97 96/96/96 94/94/94
f 100/100/100 99/99/99 98/98/98
f 101/101/101 100/100/100 98/98/98
f 50/50/50 88/88/88 102/102/102
f 89/89/89 104/104/104 103/103/103
f 89/89/89 103/103/103 105/105/105
f 88/88/88 105/105/105 103/103/103
f 26/26/26 106/106/106 29/29/29
f 109/109/109 108/108/108 107/107/107
f 110/110/110 109/109/109 107/107/107
f 113/113/113 112/112/112 111/111/111
f 114/114/114 113/113/113 111/111/111
f 117/117/117 116/116/116 115/115/115
f 118/118/118 117/117/117 115/115/115
f 121/121/121 120/120/120 119/119/119
f 20/20/20 77/77/77 60/60/60
f 120/120/120 122/122/122 119/119/119
f 119/119/119 122/122/122 123/123/123
f 122/122/122 124/124/124 123/123/123
f 124/124/124 125/125/125 123/123/123
f 128/128/128 127/127/127 126/126/126
f 129/129/129 128/128/128 126/126/126
f 110/110/110 107/107/107 126/126/126
f 127/127/127 110/110/110 126/126/126
f 69/69/69 130/130/130 68/68/68
f 132/132/132 131/131/131 65/65/65
f 66/66/66 132/132/132 65/65/65
f 135/135/135 134/134/134 133/133/133
f 136/136/136 135/135/135 133/133/133
f 137/137/137 135/135/135 136/136/136
f 138/138/138 137/137/137 136/136/136
f 139/139/139 137/137/137 138/138/138
f 140/140/140 139/139/139 138/138/138
f 141/141/141 139/139/139 140/140/140
f 142/142/142 141/141/141 140/140/140
f 143/143/143 141/141/141 142/142/142
f 144/144/144 143/143/143 142/142/142
f 144/144/144 133/133/133 134/134/134
f 143/143/143 144/144/144 134/134/134
f 147/147/147 146/146/146 145/145/145
f 148/148/148 147/147/147 145/145/145
f 146/146/146 150/150/150 149/149/149
f 145/145/145 146/146/146 149/149/149
f 150/150/150 152/152/152 151/151/151
f 149/149/149 150/150/150 151/151/151
f 152/152/152 154/154/154 153/153/153
f 151/151/151 152/152/152 153/153/153
f 154/154/154 156/156/156 155/155/155
f 153/153/153 154/154/154 155/155/155
f 155/155/155 156/156/156 147/147/147
f 148/148/148 155/155/155 147/147/147
f 159/159/159 158/158/158 157/157/157
f 160/160/160 159/159/159 157/157/157
f 158/158/158 162/162/162 161/161/161
f 157/157/157 158/158/158 161/161/161
f 162/162/162 164/164/164 163/163/163
f 161/161/161 162/162/162 163/163/163
f 164/164/164 166/166/166 165/165/165
f 163/163/163 164/164/164 165/165/165
f 166/166/166 168/168/168 167/167/167
f 165/165/165 166/166/166 167/167/167
f 167/167/167 168/168/168 159/159/159
f 160/160/160 167/167/167 159/159/159
f 171/171/171 170/170/170 169/169/169
f 172/172/172 171/171/171 169/169/169
f 172/172/172 174/174/174 173/173/173
f 171/171/171 172/172/172 173/173/173
f 174/174/174 176/176/176 175/175/175
f 173/173/173 174/174/174 175/175/175
f 176/176/176 178/178/178 177/177/177
f 175/175/175 176/176/176 177/177/177
f 178/178/178 180/180/180 179/179/179
f 177/177/177 178/178/178 179/179/179
f 180/180/180 169/169/169 170/170/170
f 179/179/179 180/180/180 170/170/170
f 155/155/155 148/148/148 145/145/145
f 145/145/145 153/153/153 155/155/155
f 145/145/145 149/149/149 153/153/153
f 149/149/149 151/151/151 153/153/153
f 158/158/158 159/159/159 168/168/168
f 168/168/168 166/166/166 158/158/158
f 166/166/166 162/162/162 158/158/158
f 166/166/166 164/164/164 162/162/162
