g ReaperTurret_04_CustomizePart
v 0.24315903 -0.09738782 -0.09234628
v 0.24315903 0.09738785 -0.09015113
v 0.24953938 0.07939261 0.08105704
v 0.24953938 -0.08220282 0.07922375
v -0.24315906 0.09738785 -0.09015113
v -0.24315906 -0.09738782 -0.09234628
v -0.24953938 -0.08220282 0.07922375
v -0.24953938 0.07939261 0.08105704
v -0.28113967 -0.0013689399 0.09194827
v -0.24953938 -0.0013689399 0.07843977
v -0.24953938 -0.08220282 0.07922375
v -0.3015592 -0.036744326 0.09155026
v 0.30155915 -0.036744326 0.09155026
v 0.34242237 -0.036744326 0.09155026
v 0.34424362 -0.07041907 0.08053842
v 0.24953938 -0.08220282 0.07922375
v 0.2811396 -0.0013689399 0.09194827
v 0.24953938 -0.0013689399 0.07843977
v 0.24953938 0.07939261 0.08105704
v 0.30155915 0.034006447 0.09234628
v -0.3015592 -0.036744326 0.09155026
v -0.24953938 -0.08220282 0.07922375
v -0.34424365 -0.07041907 0.08053842
v -0.34242243 -0.036744326 0.09155026
v -0.34242243 -0.036744326 0.09155026
v -0.34424365 -0.07041907 0.08053842
v -0.38218808 -0.0013689399 0.08249232
v -0.36284196 -0.0013689399 0.09194827
v -0.36284196 -0.0013689399 0.09194827
v -0.38218808 -0.0013689399 0.08249232
v -0.34424365 0.06759679 0.08211842
v -0.34242243 0.034006447 0.09234628
v -0.24953938 0.07939261 0.08105704
v -0.3015592 0.034006447 0.09234628
v -0.34242243 0.034006447 0.09234628
v -0.34424365 0.06759679 0.08211842
v -0.38218808 -0.0013689399 0.08249232
v -0.34424365 -0.07041907 0.08053842
v -0.34651113 -0.08434972 -0.09220153
v -0.39521408 6.0498714E-06 -0.09124869
v -0.34424365 0.06759679 0.08211842
v -0.38218808 -0.0013689399 0.08249232
v -0.39521408 6.0498714E-06 -0.09124869
v -0.34651113 0.08433768 -0.09029588
v -0.34424365 -0.07041907 0.08053842
v -0.24953938 -0.08220282 0.07922375
v -0.24315906 -0.09738782 -0.09234628
v -0.34651113 -0.08434972 -0.09220153
v -0.24315906 0.09738785 -0.09015113
v -0.24953938 0.07939261 0.08105704
v -0.34424365 0.06759679 0.08211842
v -0.34651113 0.08433768 -0.09029588
v -0.3015592 0.034006447 0.09234628
v -0.24953938 0.07939261 0.08105704
v -0.24953938 -0.0013689399 0.07843977
v -0.28113967 -0.0013689399 0.09194827
v 0.24953938 -0.08220282 0.07922375
v 0.34424362 -0.07041907 0.08053842
v 0.34651113 -0.08434972 -0.09220153
v 0.24315903 -0.09738782 -0.09234628
v 0.34651113 0.08433768 -0.09029588
v 0.34424362 0.06759679 0.08211842
v 0.24953938 0.07939261 0.08105704
v 0.24315903 0.09738785 -0.09015113
v 0.34424362 0.06759679 0.08211842
v 0.34242237 0.034006447 0.09234628
v 0.30155915 0.034006447 0.09234628
v 0.24953938 0.07939261 0.08105704
v 0.36284193 -0.0013689399 0.09194827
v 0.38218802 -0.0013689399 0.08249232
v 0.34424362 -0.07041907 0.08053842
v 0.34242237 -0.036744326 0.09155026
v 0.34242237 0.034006447 0.09234628
v 0.34424362 0.06759679 0.08211842
v 0.38218802 -0.0013689399 0.08249232
v 0.36284193 -0.0013689399 0.09194827
v 0.34424362 -0.07041907 0.08053842
v 0.38218802 -0.0013689399 0.08249232
v 0.39521408 6.0498714E-06 -0.09124869
v 0.34651113 -0.08434972 -0.09220153
v 0.38218802 -0.0013689399 0.08249232
v 0.34424362 0.06759679 0.08211842
v 0.34651113 0.08433768 -0.09029588
v 0.39521408 6.0498714E-06 -0.09124869
v 0.30155915 -0.036744326 0.09155026
v 0.24953938 -0.08220282 0.07922375
v 0.24953938 -0.0013689399 0.07843977
v 0.2811396 -0.0013689399 0.09194827
vt 0.661889 0.47418445
vt 0.5705831 0.47418445
vt 0.5705831 0.43271482
vt 0.661889 0.43271482
vt 0.6640716 0.38869882
vt 0.57240194 0.38869882
vt 0.57240194 0.34759298
vt 0.6640716 0.34759298
vt 0.6564325 0.33376977
vt 0.6640716 0.333406
vt 0.6640716 0.31376252
vt 0.65097594 0.32576686
vt 0.5847701 0.4097974
vt 0.594228 0.4108887
vt 0.5960469 0.40252203
vt 0.5705831 0.3974293
vt 0.5793135 0.4178003
vt 0.5705831 0.416709
vt 0.5705831 0.43271482
vt 0.583315 0.426167
vt 0.65097594 0.32576686
vt 0.6640716 0.31376252
vt 0.6400629 0.31812772
vt 0.641518 0.3264944
vt 0.641518 0.3264944
vt 0.6400629 0.31812772
vt 0.6316962 0.33522487
vt 0.6371528 0.33522487
vt 0.6371528 0.33522487
vt 0.6316962 0.33522487
vt 0.64115417 0.34759298
vt 0.6418817 0.34322777
vt 0.6640716 0.34759298
vt 0.6517035 0.34213644
vt 0.6418817 0.34322777
vt 0.64115417 0.34759298
vt 0.61860055 0.34759298
vt 0.59641063 0.34759298
vt 0.59641063 0.38869882
vt 0.61860055 0.38869882
vt 0.64115417 0.34759298
vt 0.61860055 0.34759298
vt 0.61860055 0.38869882
vt 0.64115417 0.38869882
vt 0.59641063 0.34759298
vt 0.57240194 0.34759298
vt 0.57240194 0.38869882
vt 0.59641063 0.38869882
vt 0.6640716 0.38869882
vt 0.6640716 0.34759298
vt 0.64115417 0.34759298
vt 0.64115417 0.38869882
vt 0.6517035 0.34213644
vt 0.6640716 0.34759298
vt 0.6640716 0.333406
vt 0.6564325 0.33376977
vt 0.661889 0.43271482
vt 0.6378803 0.43271482
vt 0.6378803 0.47418445
vt 0.661889 0.47418445
vt 0.59277296 0.47418445
vt 0.59277296 0.43271482
vt 0.5705831 0.43271482
vt 0.5705831 0.47418445
vt 0.59277296 0.43271482
vt 0.59277296 0.42762208
vt 0.583315 0.426167
vt 0.5705831 0.43271482
vt 0.5985933 0.41961914
vt 0.60368603 0.4199829
vt 0.5960469 0.40252203
vt 0.594228 0.4108887
vt 0.59277296 0.42762208
vt 0.59277296 0.43271482
vt 0.60368603 0.4199829
vt 0.5985933 0.41961914
vt 0.6378803 0.43271482
vt 0.6156904 0.43271482
vt 0.6156904 0.47418445
vt 0.6378803 0.47418445
vt 0.6156904 0.43271482
vt 0.59277296 0.43271482
vt 0.59277296 0.47418445
vt 0.6156904 0.47418445
vt 0.5847701 0.4097974
vt 0.5705831 0.3974293
vt 0.5705831 0.416709
vt 0.5793135 0.4178003
vn -0.99930835 -0.003918886 0.03697932
vn -0.99930835 -0.003918886 0.03697932
vn -0.99930835 -0.003918886 0.03697932
vn -0.99930835 -0.003918886 0.03697932
vn 0.99930835 -0.003918886 0.03697932
vn 0.99930835 -0.003918886 0.03697932
vn 0.99930835 -0.003918886 0.03697932
vn 0.99930835 -0.003918886 0.03697932
vn 0.27040112 -0.04310745 0.9617822
vn 0.27040112 -0.04310745 0.9617822
vn 0.27040112 -0.04310745 0.9617822
vn 0.27040112 -0.04310745 0.9617822
vn 0.019594312 -0.29391426 0.95563096
vn 0.019594312 -0.29391426 0.95563096
vn 0.019594312 -0.29391426 0.95563096
vn 0.019594312 -0.29391426 0.95563096
vn -0.270401 0.019594312 0.9625484
vn -0.270401 0.019594312 0.9625484
vn -0.270401 0.019594312 0.9625484
vn -0.270401 0.019594312 0.9625484
vn -0.019594312 -0.29391426 0.95563096
vn -0.019594312 -0.29391426 0.95563096
vn -0.019594312 -0.29391426 0.95563096
vn -0.019594312 -0.29391426 0.95563096
vn -0.42715526 -0.2547257 0.86755586
vn -0.42715526 -0.2547257 0.86755586
vn -0.42715526 -0.2547257 0.86755586
vn -0.42715526 -0.2547257 0.86755586
vn -0.42715526 0.23905015 0.8720054
vn -0.42715526 0.23905015 0.8720054
vn -0.42715526 0.23905015 0.8720054
vn -0.42715526 0.23905015 0.8720054
vn -0.019594312 0.270401 0.9625484
vn -0.019594312 0.270401 0.9625484
vn -0.019594312 0.270401 0.9625484
vn -0.019594312 0.270401 0.9625484
vn -0.8660672 -0.48985702 0.09983859
vn -0.8660672 -0.48985702 0.09983859
vn -0.8660672 -0.48985702 0.09983859
vn -0.8660672 -0.48985702 0.09983859
vn -0.8660672 0.48985696 0.09983889
vn -0.8660672 0.48985696 0.09983889
vn -0.8660672 0.48985696 0.09983889
vn -0.8660672 0.48985696 0.09983889
vn -0.12148452 -0.99147063 0.047196243
vn -0.12148452 -0.99147063 0.047196243
vn -0.12148452 -0.99147063 0.047196243
vn -0.12148452 -0.99147063 0.047196243
vn -0.12148452 0.9836329 0.13307075
vn -0.12148452 0.9836329 0.13307075
vn -0.12148452 0.9836329 0.13307075
vn -0.12148452 0.9836329 0.13307075
vn 0.27040112 0.019594312 0.9625483
vn 0.27040112 0.019594312 0.9625483
vn 0.27040112 0.019594312 0.9625483
vn 0.27040112 0.019594312 0.9625483
vn 0.12148458 -0.99147063 0.04719561
vn 0.12148458 -0.99147063 0.04719561
vn 0.12148458 -0.99147063 0.04719561
vn 0.12148458 -0.99147063 0.04719561
vn 0.12148458 0.9836329 0.13307053
vn 0.12148458 0.9836329 0.13307053
vn 0.12148458 0.9836329 0.13307053
vn 0.12148458 0.9836329 0.13307053
vn 0.019594312 0.270401 0.9625484
vn 0.019594312 0.270401 0.9625484
vn 0.019594312 0.270401 0.9625484
vn 0.019594312 0.270401 0.9625484
vn 0.42715532 -0.2547257 0.86755586
vn 0.42715532 -0.2547257 0.86755586
vn 0.42715532 -0.2547257 0.86755586
vn 0.42715532 -0.2547257 0.86755586
vn 0.42715532 0.23905015 0.87200534
vn 0.42715532 0.23905015 0.87200534
vn 0.42715532 0.23905015 0.87200534
vn 0.42715532 0.23905015 0.87200534
vn 0.86606723 -0.48985702 0.099838294
vn 0.86606723 -0.48985702 0.099838294
vn 0.86606723 -0.48985702 0.099838294
vn 0.86606723 -0.48985702 0.099838294
vn 0.86606723 0.48985696 0.09983859
vn 0.86606723 0.48985696 0.09983859
vn 0.86606723 0.48985696 0.09983859
vn 0.86606723 0.48985696 0.09983859
vn -0.270401 -0.04310745 0.9617822
vn -0.270401 -0.04310745 0.9617822
vn -0.270401 -0.04310745 0.9617822
vn -0.270401 -0.04310745 0.9617822
g ReaperTurret_04_CustomizePart_0
f 3/3/3 2/2/2 1/1/1
f 4/4/4 3/3/3 1/1/1
f 7/7/7 6/6/6 5/5/5
f 8/8/8 7/7/7 5/5/5
f 11/11/11 10/10/10 9/9/9
f 12/12/12 11/11/11 9/9/9
f 15/15/15 14/14/14 13/13/13
f 16/16/16 15/15/15 13/13/13
f 19/19/19 18/18/18 17/17/17
f 20/20/20 19/19/19 17/17/17
f 23/23/23 22/22/22 21/21/21
f 24/24/24 23/23/23 21/21/21
f 27/27/27 26/26/26 25/25/25
f 28/28/28 27/27/27 25/25/25
f 31/31/31 30/30/30 29/29/29
f 32/32/32 31/31/31 29/29/29
f 35/35/35 34/34/34 33/33/33
f 36/36/36 35/35/35 33/33/33
f 39/39/39 38/38/38 37/37/37
f 40/40/40 39/39/39 37/37/37
f 43/43/43 42/42/42 41/41/41
f 44/44/44 43/43/43 41/41/41
f 47/47/47 46/46/46 45/45/45
f 48/48/48 47/47/47 45/45/45
f 51/51/51 50/50/50 49/49/49
f 52/52/52 51/51/51 49/49/49
f 55/55/55 54/54/54 53/53/53
f 56/56/56 55/55/55 53/53/53
f 59/59/59 58/58/58 57/57/57
f 60/60/60 59/59/59 57/57/57
f 63/63/63 62/62/62 61/61/61
f 64/64/64 63/63/63 61/61/61
f 67/67/67 66/66/66 65/65/65
f 68/68/68 67/67/67 65/65/65
f 71/71/71 70/70/70 69/69/69
f 72/72/72 71/71/71 69/69/69
f 75/75/75 74/74/74 73/73/73
f 76/76/76 75/75/75 73/73/73
f 79/79/79 78/78/78 77/77/77
f 80/80/80 79/79/79 77/77/77
f 83/83/83 82/82/82 81/81/81
f 84/84/84 83/83/83 81/81/81
f 87/87/87 86/86/86 85/85/85
f 88/88/88 87/87/87 85/85/85
