g ReaperTurret_08
v -0.23615295 0.14480591 -0.35408396
v -0.23615295 0.14480591 -0.1962786
v 0.23614979 0.14480591 -0.1962786
v 0.23614979 0.14480591 -0.35408396
v 0.23614979 0.14480591 -0.35408396
v 0.23590448 0.49972165 -0.55728924
v -0.23590767 0.49972165 -0.55728924
v -0.23615295 0.14480591 -0.35408396
v 0.23590448 0.49972165 -0.55728924
v 0.23614979 0.6793213 -0.55728924
v -0.23615295 0.6793213 -0.55728924
v -0.23590767 0.49972165 -0.55728924
v -0.23481321 0.46951163 -0.35408396
v 0.23481005 0.46951163 -0.35408396
v 0.23481005 0.46951163 -0.1962786
v -0.23481321 0.46951163 -0.1962786
v -0.23481321 0.46951163 -0.35408396
v -0.23481321 0.6793213 -0.3926909
v 0.23481005 0.6793213 -0.3926909
v 0.23481005 0.46951163 -0.35408396
v 0.23614979 0.14480591 -0.1962786
v 0.23481005 0.46951163 -0.1962786
v 0.23481005 0.46951163 -0.35408396
v 0.23614979 0.14480591 -0.35408396
v -0.23615295 0.14480591 -0.35408396
v -0.23481321 0.46951163 -0.35408396
v -0.23481321 0.46951163 -0.1962786
v -0.23615295 0.14480591 -0.1962786
v 0.23590448 0.49972165 -0.55728924
v -0.23590767 0.49972165 -0.55728924
v 0.23481005 0.6793213 -0.3926909
v 0.23614979 0.6793213 -0.55728924
v -0.23615295 0.6793213 -0.55728924
v -0.23481321 0.6793213 -0.3926909
vt 0.9754245 0.20999813
vt 0.9754245 0.1723156
vt 0.86394703 0.1723156
vt 0.86394703 0.20921308
vt 0.86394703 0.20921308
vt 0.86394703 0.30655962
vt 0.9754245 0.30655962
vt 0.9754245 0.20999813
vt 0.86394703 0.30655962
vt 0.86394703 0.34895247
vt 0.9754245 0.34895247
vt 0.9754245 0.30655962
vt 0.86394703 0.4148969
vt 0.9746395 0.4148969
vt 0.9746395 0.37799942
vt 0.86394703 0.37799942
vt 0.86394703 0.4148969
vt 0.86394703 0.46514025
vt 0.9746395 0.46514025
vt 0.9746395 0.4148969
vt 0.401551 0.6566931
vt 0.401551 0.7344133
vt 0.43844846 0.7351984
vt 0.4392335 0.6559081
vt 0.4392335 0.6559081
vt 0.43844846 0.7351984
vt 0.401551 0.7344133
vt 0.401551 0.6566931
vt 0.48869184 0.74069375
vt 0.48869184 0.74069375
vt 0.44708404 0.78387165
vt 0.48869184 0.78387165
vt 0.48869184 0.78387165
vt 0.44708404 0.78387165
vn -0.003921509 -0.9999924 -0
vn -0.003921509 -0.9999924 -0
vn -0.003921509 -0.9999924 -0
vn -0.003921509 -0.9999924 -0
vn -0.003921509 -0.49803543 -0.8671478
vn -0.003921509 -0.49803543 -0.8671478
vn -0.003921509 -0.49803543 -0.8671478
vn -0.003921509 -0.49803543 -0.8671478
vn -0.003921509 0.003921509 -0.9999846
vn -0.003921509 0.003921509 -0.9999846
vn -0.003921509 0.003921509 -0.9999846
vn -0.003921509 0.003921509 -0.9999846
vn -0.003921509 0.99999225 -0.00034526698
vn -0.003921509 0.99999225 -0.00034526698
vn -0.003921509 0.99999225 -0.00034526698
vn -0.003921509 0.99999225 -0.00034526698
vn -0.003921509 0.18431222 0.9828599
vn -0.003921509 0.18431222 0.9828599
vn -0.003921509 0.18431222 0.9828599
vn -0.003921509 0.18431222 0.9828599
vn 0.9999924 0.003921509 -0
vn 0.9999924 0.003921509 -0
vn 0.9999924 0.003921509 -0
vn 0.9999924 0.003921509 -0
vn -0.99999225 0.003921509 -0.00034492963
vn -0.99999225 0.003921509 -0.00034492963
vn -0.99999225 0.003921509 -0.00034492963
vn -0.99999225 0.003921509 -0.00034492963
vn 0.9999924 0.003921509 -0
vn -0.99999225 0.003921509 -0.00034492963
vn 0.9999924 0.003921509 -0
vn 0.9999924 0.003921509 -0
vn -0.99999225 0.003921509 -0.00034492963
vn -0.99999225 0.003921509 -0.00034492963
g ReaperTurret_08_0
f 3/3/3 2/2/2 1/1/1
f 4/4/4 3/3/3 1/1/1
f 7/7/7 6/6/6 5/5/5
f 8/8/8 7/7/7 5/5/5
f 11/11/11 10/10/10 9/9/9
f 12/12/12 11/11/11 9/9/9
f 15/15/15 14/14/14 13/13/13
f 16/16/16 15/15/15 13/13/13
f 19/19/19 18/18/18 17/17/17
f 20/20/20 19/19/19 17/17/17
f 23/23/23 22/22/22 21/21/21
f 24/24/24 23/23/23 21/21/21
f 27/27/27 26/26/26 25/25/25
f 28/28/28 27/27/27 25/25/25
f 24/24/24 29/29/29 23/23/23
f 26/26/26 30/30/30 25/25/25
f 32/32/32 31/31/31 23/23/23
f 29/29/29 32/32/32 23/23/23
f 34/34/34 33/33/33 30/30/30
f 26/26/26 34/34/34 30/30/30
