g ReaperTurret_13_DefaultPart_CorpsePart
v 0.42656076 0.097964644 0.3004328
v -0.42656076 0.097964644 0.3004328
v -0.12651682 0.34866524 0.37418604
v 0.12651682 0.34866524 0.37418604
v 0.15000612 0.48477614 0.06396866
v 0.1428006 0.48477614 0.41467333
v 0.13837257 0.34377688 0.08239502
v 0.13837257 0.34377688 0.08239502
v 0.12651682 0.34866524 0.37418604
v -0.12651682 0.34866524 0.37418604
v -0.13837254 0.34377688 0.08239502
v -0.15000612 0.48477614 0.06396866
v 0.15000612 0.48477614 0.06396866
v 0.13837257 0.34377688 0.08239502
v -0.13837254 0.34377688 0.08239502
v -0.13837254 0.34377688 0.08239502
v -0.12651682 0.34866524 0.37418604
v -0.14280063 0.48477614 0.41467333
v 0.40115106 0.48477614 -0.25058153
v -0.40107173 0.48477614 -0.2504387
v -0.42656076 0.097964644 -0.2495023
v 0.42656076 0.097964644 -0.2495023
v 0.42656076 0.097964644 0.3004328
v 0.4006908 0.48477614 0.41476852
v 0.40115106 0.48477614 -0.25058153
v 0.42656076 0.097964644 -0.2495023
v -0.40107173 0.48477614 -0.2504387
v -0.40062732 0.48477614 0.41492724
v -0.42656076 0.097964644 0.3004328
v -0.42656076 0.097964644 -0.2495023
v 0.1428006 0.48477614 0.41467333
v 0.15000612 0.48477614 0.06396866
v 0.4006908 0.48477614 0.41476852
v 0.4006908 0.48477614 0.41476852
v 0.1428006 0.48477614 0.41467333
v -0.15000612 0.48477614 0.06396866
v -0.40062732 0.48477614 0.41492724
v -0.40107173 0.48477614 -0.2504387
v -0.40062732 0.48477614 0.41492724
v -0.14280063 0.48477614 0.41467333
v 0.40115106 0.48477614 -0.25058153
v -0.14280063 0.48477614 0.41467333
v 0.42656076 0.097964644 -0.2495023
v -0.42656076 0.097964644 -0.2495023
v -0.42656076 0.097964644 0.3004328
v 0.42656076 0.097964644 0.3004328
v -0.15000612 0.48477614 0.06396866
v 0.12651682 0.34866524 0.37418604
v 0.47715798 0.3310324 -0.075840265
v 0.42059323 0.33384156 -0.078792274
v 0.42762414 0.2050631 -0.11020127
v 0.4844111 0.20671374 -0.106598526
v 0.43262357 0.11345488 -0.014323711
v 0.48982316 0.117406785 -0.013530135
v 0.43059206 0.1507203 0.11294699
v 0.48785514 0.15387869 0.11016953
v 0.42356113 0.27954638 0.14426076
v 0.48052266 0.2788639 0.14003903
v 0.41857758 0.37105942 0.04839903
v 0.47520584 0.3670916 0.047430933
v 0.5097573 0.292894 -0.03597194
v 0.47715798 0.3310324 -0.075840265
v 0.4844111 0.20671374 -0.106598526
v 0.51577246 0.22166431 -0.05330324
v 0.50801146 0.3134789 0.034384847
v 0.47520584 0.3670916 0.047430933
v 0.48982316 0.117406785 -0.013530135
v 0.5200577 0.17103541 -0.00029361248
v 0.48785514 0.15387869 0.11016953
v 0.51831186 0.19162023 0.070063174
v 0.48052266 0.2788639 0.14003903
v 0.5122967 0.26284993 0.08741033
v -0.51577246 0.22166431 -0.05330324
v -0.48441112 0.20671374 -0.106598526
v -0.477158 0.3310324 -0.075840265
v -0.5097573 0.292894 -0.03597194
v -0.47520584 0.3670916 0.047430933
v -0.50801146 0.3134789 0.034384847
v -0.5200577 0.17103541 -0.00029361248
v -0.4898231 0.117406785 -0.013530135
v -0.51831186 0.19162023 0.070063174
v -0.4878552 0.15387869 0.11016953
v -0.5122967 0.26284993 0.08741033
v -0.48052263 0.2788639 0.14003903
v -0.4185776 0.37105942 0.04839903
v -0.47520584 0.3670916 0.047430933
v -0.477158 0.3310324 -0.075840265
v -0.42059326 0.33384156 -0.078792274
v -0.48441112 0.20671374 -0.106598526
v -0.42762417 0.2050631 -0.11020127
v -0.4898231 0.117406785 -0.013530135
v -0.43262357 0.11345488 -0.014323711
v -0.4878552 0.15387869 0.11016953
v -0.43059206 0.1507203 0.11294699
v -0.48052263 0.2788639 0.14003903
v -0.42356116 0.27954638 0.14426076
v 0.51577246 0.22166431 -0.05330324
v 0.5200577 0.17103541 -0.00029361248
v 0.51831186 0.19162023 0.070063174
v 0.5122967 0.26284993 0.08741033
v 0.5097573 0.292894 -0.03597194
v 0.50801146 0.3134789 0.034384847
v -0.51831186 0.19162023 0.070063174
v -0.5200577 0.17103541 -0.00029361248
v -0.51577246 0.22166431 -0.05330324
v -0.5122967 0.26284993 0.08741033
v -0.5097573 0.292894 -0.03597194
v -0.50801146 0.3134789 0.034384847
vt 0.8723646 0.12762211
vt 0.8476126 0.12762211
vt 0.85562056 0.1356301
vt 0.8643566 0.1356301
vt 0.78937274 0.2222619
vt 0.78937274 0.2288139
vt 0.7922847 0.2222619
vt 0.7922847 0.2222619
vt 0.7922847 0.2295419
vt 0.7981087 0.2295419
vt 0.7981087 0.2222619
vt 0.7981087 0.21934992
vt 0.7922847 0.21934992
vt 0.7922847 0.2222619
vt 0.7981087 0.2222619
vt 0.7981087 0.2222619
vt 0.7981087 0.2295419
vt 0.8010207 0.2288139
vt 0.81922066 0.1399981
vt 0.8439726 0.1399981
vt 0.84470063 0.12762211
vt 0.81849265 0.12762211
vt 0.7988367 0.12762211
vt 0.7951967 0.1399981
vt 0.8163087 0.1399981
vt 0.8163087 0.12762211
vt 0.8163087 0.1399981
vt 0.7951967 0.1399981
vt 0.7988367 0.12762211
vt 0.8163087 0.12762211
vt 0.79010075 0.23245388
vt 0.79010075 0.24046187
vt 0.7959247 0.23245388
vt 0.8723646 0.1399981
vt 0.8643566 0.1399981
vt 0.7835488 0.24046187
vt 0.77845275 0.23245388
vt 0.77845275 0.24774185
vt 0.84834063 0.1399981
vt 0.85562056 0.1399981
vt 0.7959247 0.24774185
vt 0.7835488 0.23245388
vt 0.8199487 0.23536588
vt 0.8010207 0.23536588
vt 0.8010207 0.24701387
vt 0.8199487 0.24701387
vt 0.8010207 0.2222619
vt 0.7922847 0.2295419
vt 0.7842767 0.21061394
vt 0.7842767 0.20842993
vt 0.7799088 0.20842993
vt 0.7799088 0.21061394
vt 0.77554077 0.20842993
vt 0.77554077 0.21061394
vt 0.7799088 0.20842993
vt 0.7799088 0.21061394
vt 0.7842767 0.20842993
vt 0.7842767 0.21061394
vt 0.7879167 0.20842993
vt 0.7879167 0.21061394
vt 0.78500473 0.21425393
vt 0.78500473 0.21206993
vt 0.78136474 0.21206993
vt 0.78136474 0.21425393
vt 0.7879167 0.21425393
vt 0.7879167 0.21206993
vt 0.77772474 0.21206993
vt 0.77772474 0.21425393
vt 0.78136474 0.21206993
vt 0.78136474 0.21425393
vt 0.78500473 0.21206993
vt 0.78500473 0.21425393
vt 0.78136474 0.21425393
vt 0.78136474 0.21206993
vt 0.78500473 0.21206993
vt 0.78500473 0.21425393
vt 0.7879167 0.21206993
vt 0.7879167 0.21425393
vt 0.77772474 0.21425393
vt 0.77772474 0.21206993
vt 0.78136474 0.21425393
vt 0.78136474 0.21206993
vt 0.78500473 0.21425393
vt 0.78500473 0.21206993
vt 0.7879167 0.20842993
vt 0.7879167 0.21061394
vt 0.7842767 0.21061394
vt 0.7842767 0.20842993
vt 0.7799088 0.21061394
vt 0.7799088 0.20842993
vt 0.77554077 0.21061394
vt 0.77554077 0.20842993
vt 0.7799088 0.21061394
vt 0.7799088 0.20842993
vt 0.7842767 0.21061394
vt 0.7842767 0.20842993
vt 0.78136474 0.21425393
vt 0.77772474 0.21425393
vt 0.78136474 0.21425393
vt 0.78500473 0.21425393
vt 0.78500473 0.21425393
vt 0.7879167 0.21425393
vt 0.78136474 0.21425393
vt 0.77772474 0.21425393
vt 0.78136474 0.21425393
vt 0.78500473 0.21425393
vt 0.78500473 0.21425393
vt 0.7879167 0.21425393
vn -0.003921509 -0.28627235 0.95814025
vn 0.0039215684 -0.28627235 0.95814025
vn 0.0039215684 -0.28627235 0.95814025
vn -0.003921509 -0.28627235 0.95814025
vn -0.9966261 0.08207507 -0
vn -0.99214923 0.11372459 -0.052025177
vn -0.99214923 0.0901953 -0.086629726
vn -0.003921509 0.99999225 -0.00034526698
vn -0.003921509 0.99999225 -0.00034526698
vn -0.003921509 0.99999225 -0.00034526698
vn -0.003921509 0.99999225 -0.00034526698
vn -0.003921509 0.12941074 0.99158335
vn -0.003921509 0.12941074 0.99158335
vn -0.003921509 0.12941074 0.99158335
vn -0.003921509 0.12941074 0.99158335
vn 0.9921493 0.0901953 -0.08662903
vn 0.99160045 0.12933916 -0
vn 0.9921493 0.11372459 -0.05202403
vn -0.003921509 -0.0039215684 -0.9999846
vn -0.003921509 -0.0039215684 -0.9999846
vn -0.003921509 -0.0039215684 -0.9999846
vn -0.003921509 -0.0039215684 -0.9999846
vn 0.9977852 0.066518985 -0
vn 0.9977852 0.066518985 -0
vn 0.9977852 0.066518985 -0
vn 0.9977852 0.066518985 -0
vn -0.9977852 0.06651899 -0
vn -0.9977852 0.06651899 -0
vn -0.9977852 0.06651899 -0
vn -0.9977852 0.06651899 -0
vn -0.003921509 0.99999225 -0.00034526698
vn -0.003921509 0.99999225 -0.00034526698
vn -0.003921509 0.99999225 -0.00034526698
vn -0.003921509 -0.28627235 0.95814025
vn -0.003921509 -0.28627235 0.95814025
vn -0.003921509 0.99999225 -0.00034526698
vn -0.003921509 0.99999225 -0.00034526698
vn -0.003921509 0.99999225 -0.00034526698
vn 0.0039215684 -0.28627235 0.95814025
vn 0.0039215684 -0.28627235 0.95814025
vn -0.003921509 0.99999225 -0.00034526698
vn -0.003921509 0.99999225 -0.00034526698
vn -0.003921509 -0.9999924 -0
vn -0.003921509 -0.9999924 -0
vn -0.003921509 -0.9999924 -0
vn -0.003921509 -0.9999924 -0
vn 0.9966261 0.08207506 -0
vn -0.9916004 0.12933916 -0
vn 0.066666186 0.67842615 -0.7316376
vn 0.066666186 0.7019553 -0.7090941
vn 0.066666186 -0.26274312 -0.96256
vn 0.066666186 -0.29411542 -0.9534421
vn 0.07450926 -0.96862006 -0.23711498
vn 0.07450926 -0.96862006 -0.23711498
vn 0.07450926 -0.6784262 0.73088044
vn 0.07450926 -0.69411236 0.71600026
vn 0.07450926 0.2941153 0.95286125
vn 0.07450926 0.27058613 0.95980805
vn 0.07450926 0.96861994 0.23711547
vn 0.07450926 0.96861994 0.23711547
vn 0.858817 0.3803892 -0.34312892
vn 0.858817 0.3803892 -0.34312892
vn 0.86666006 -0.08235234 -0.49205533
vn 0.86666006 -0.098038495 -0.48917156
vn 0.858817 0.50587845 0.08074894
vn 0.858817 0.50587845 0.08074894
vn 0.8823462 -0.45882004 -0.10463911
vn 0.8823462 -0.45882004 -0.10463911
vn 0.87450314 -0.3019585 0.3795594
vn 0.87450314 -0.30980158 0.3731853
vn 0.86666006 0.19215536 0.46040925
vn 0.86666006 0.18431222 0.46360475
vn -0.86666 -0.098038495 -0.48917168
vn -0.86666 -0.08235234 -0.49205545
vn -0.85881686 0.3803892 -0.3431292
vn -0.85881686 0.3803892 -0.3431292
vn -0.85881686 0.50587845 0.08075004
vn -0.85881686 0.50587845 0.08075004
vn -0.88234615 -0.45882004 -0.10463968
vn -0.88234615 -0.45882004 -0.10463968
vn -0.874503 -0.30980158 0.37318555
vn -0.874503 -0.3019585 0.37955964
vn -0.86666 0.18431222 0.46360487
vn -0.86666 0.19215536 0.46040937
vn -0.074509144 0.96861994 0.23711547
vn -0.074509144 0.96861994 0.23711547
vn -0.066666126 0.67842615 -0.7316376
vn -0.066666126 0.7019553 -0.7090941
vn -0.066666126 -0.29411542 -0.9534421
vn -0.066666126 -0.26274312 -0.96256
vn -0.074509144 -0.96862006 -0.23711498
vn -0.074509144 -0.96862006 -0.23711498
vn -0.074509144 -0.69411236 0.71600026
vn -0.074509144 -0.6784262 0.73088044
vn -0.074509144 0.27058613 0.95980805
vn -0.074509144 0.2941153 0.95286125
vn 0.9966261 0.08207506 -0
vn 0.9966261 0.08207506 -0
vn 0.9966261 0.08207506 -0
vn 0.9966261 0.08207506 -0
vn 0.9966261 0.08207506 -0
vn 0.9966261 0.08207506 -0
vn -0.9966261 0.08207507 -0
vn -0.9966261 0.08207507 -0
vn -0.9966261 0.08207507 -0
vn -0.9966261 0.08207507 -0
vn -0.9966261 0.08207507 -0
vn -0.9966261 0.08207507 -0
g ReaperTurret_13_DefaultPart_CorpsePart_0
f 3/3/3 2/2/2 1/1/1
f 4/4/4 3/3/3 1/1/1
f 7/7/7 6/6/6 5/5/5
f 10/10/10 9/9/9 8/8/8
f 11/11/11 10/10/10 8/8/8
f 14/14/14 13/13/13 12/12/12
f 15/15/15 14/14/14 12/12/12
f 18/18/18 17/17/17 16/16/16
f 21/21/21 20/20/20 19/19/19
f 22/22/22 21/21/21 19/19/19
f 25/25/25 24/24/24 23/23/23
f 26/26/26 25/25/25 23/23/23
f 29/29/29 28/28/28 27/27/27
f 30/30/30 29/29/29 27/27/27
f 33/33/33 32/32/32 31/31/31
f 4/4/4 1/1/1 34/34/34
f 35/35/35 4/4/4 34/34/34
f 38/38/38 37/37/37 36/36/36
f 3/3/3 40/40/40 39/39/39
f 2/2/2 3/3/3 39/39/39
f 32/32/32 41/41/41 38/38/38
f 36/36/36 32/32/32 38/38/38
f 33/33/33 41/41/41 32/32/32
f 42/42/42 36/36/36 37/37/37
f 45/45/45 44/44/44 43/43/43
f 46/46/46 45/45/45 43/43/43
f 16/16/16 47/47/47 18/18/18
f 7/7/7 48/48/48 6/6/6
f 51/51/51 50/50/50 49/49/49
f 52/52/52 51/51/51 49/49/49
f 53/53/53 51/51/51 52/52/52
f 54/54/54 53/53/53 52/52/52
f 55/55/55 53/53/53 54/54/54
f 56/56/56 55/55/55 54/54/54
f 57/57/57 55/55/55 56/56/56
f 58/58/58 57/57/57 56/56/56
f 59/59/59 57/57/57 58/58/58
f 60/60/60 59/59/59 58/58/58
f 60/60/60 49/49/49 50/50/50
f 59/59/59 60/60/60 50/50/50
f 63/63/63 62/62/62 61/61/61
f 64/64/64 63/63/63 61/61/61
f 62/62/62 66/66/66 65/65/65
f 61/61/61 62/62/62 65/65/65
f 68/68/68 67/67/67 63/63/63
f 64/64/64 68/68/68 63/63/63
f 70/70/70 69/69/69 67/67/67
f 68/68/68 70/70/70 67/67/67
f 72/72/72 71/71/71 69/69/69
f 70/70/70 72/72/72 69/69/69
f 65/65/65 66/66/66 71/71/71
f 72/72/72 65/65/65 71/71/71
f 75/75/75 74/74/74 73/73/73
f 76/76/76 75/75/75 73/73/73
f 78/78/78 77/77/77 75/75/75
f 76/76/76 78/78/78 75/75/75
f 74/74/74 80/80/80 79/79/79
f 73/73/73 74/74/74 79/79/79
f 80/80/80 82/82/82 81/81/81
f 79/79/79 80/80/80 81/81/81
f 82/82/82 84/84/84 83/83/83
f 81/81/81 82/82/82 83/83/83
f 84/84/84 77/77/77 78/78/78
f 83/83/83 84/84/84 78/78/78
f 87/87/87 86/86/86 85/85/85
f 88/88/88 87/87/87 85/85/85
f 88/88/88 90/90/90 89/89/89
f 87/87/87 88/88/88 89/89/89
f 90/90/90 92/92/92 91/91/91
f 89/89/89 90/90/90 91/91/91
f 92/92/92 94/94/94 93/93/93
f 91/91/91 92/92/92 93/93/93
f 94/94/94 96/96/96 95/95/95
f 93/93/93 94/94/94 95/95/95
f 96/96/96 85/85/85 86/86/86
f 95/95/95 96/96/96 86/86/86
f 99/99/99 98/98/98 97/97/97
f 97/97/97 100/100/100 99/99/99
f 97/97/97 101/101/101 100/100/100
f 101/101/101 102/102/102 100/100/100
f 105/105/105 104/104/104 103/103/103
f 103/103/103 106/106/106 105/105/105
f 106/106/106 107/107/107 105/105/105
f 106/106/106 108/108/108 107/107/107
