g ReaperCaptainAmericaFXCracked
v -0.11717081 0.0179497 0.15203822
v -0.2278325 0.017905474 -0.0068629384
v -0.051342845 0.02941984 -0.0140428245
v 0.17166135 0.02941984 0.144018
v 0.22830433 0.017699063 0.31363738
v 0.041479737 0.017920196 0.2629506
v 0.42126206 0.01768434 0.29719883
v 0.44698876 0.02941984 0.120001435
v -0.12070912 0.02941984 -0.27984622
v -0.27731037 0.018111885 -0.19399714
v 0.27910906 0.037115753 -0.2419417
v -0.1696415 -0.0012457967 0.29037273
v -0.25355923 -0.00075927377 0.20562941
v 0.041332304 -0.0011278689 0.41138417
v -0.06921148 -0.00120157 0.3599602
v 0.15621057 -0.0014964342 0.44283116
v 0.3993833 -0.0013785064 0.4420793
v 0.27791488 -0.0016143918 0.45281225
v -0.2606064 0.018097162 -0.38677794
v -0.40648943 -0.0007740259 -0.36287937
v -0.37498343 -0.0004349351 -0.4778166
v -0.40576702 -0.0006118715 -0.119795084
v -0.41651475 -0.0006708205 -0.24118981
v -0.37557316 -0.0009804368 -0.0045335293
v -0.32342678 -0.0010246634 0.10583335
v -0.38157362 -0.037115782 -0.420348
v -0.40548688 -0.020986825 -0.48309463
v -0.43709612 -0.021045804 -0.36083007
v -0.44698876 -0.021119505 -0.23493873
v -0.4348699 -0.021207958 -0.10923904
v -0.40283316 -0.037115782 -0.18438464
v -0.34210628 -0.037115782 0.044619977
v -0.40112293 -0.021311164 0.012435794
v -0.34675038 -0.021429121 0.12641472
v -0.27340347 -0.02154705 0.22921836
v -0.20672041 -0.037115782 0.239052
v -0.18332309 -0.021679759 0.3177212
v -0.07925153 -0.021797687 0.38924003
v 0.035670966 -0.021915644 0.44159275
v -0.01301077 -0.037115782 0.37544048
v 0.2838121 -0.022136778 0.48309457
v 0.3916137 -0.022210509 0.47270072
v 0.37759298 -0.037115782 0.42362094
v 0.21566948 -0.037115782 0.43736148
v 0.15792075 -0.022033572 0.473202
v -0.4348699 -0.021207958 -0.10923904
v -0.44698876 -0.021119505 -0.23493873
v -0.27340347 -0.02154705 0.22921836
v -0.34675038 -0.021429121 0.12641472
v 0.035670966 -0.021915644 0.44159275
v -0.07925153 -0.021797687 0.38924003
v 0.3916137 -0.022210509 0.47270072
v 0.2838121 -0.022136778 0.48309457
v -0.40112293 -0.021311164 0.012435794
v -0.18332309 -0.021679759 0.3177212
v 0.15792075 -0.022033572 0.473202
v -0.43709612 -0.021045804 -0.36083007
v -0.40548688 -0.020986825 -0.48309463
vt 0.5737587 0.7033188
vt 0.61186457 0.71273315
vt 0.6002087 0.67866206
vt 0.5540333 0.64817727
vt 0.5177206 0.64997053
vt 0.54103243 0.6818001
vt 0.506513 0.61276126
vt 0.5383426 0.594829
vt 0.6553502 0.67193747
vt 0.6508671 0.70825016
vt 0.61858916 0.5997604
vt 0.55134344 0.7234925
vt 0.5737587 0.73335516
vt 0.51278925 0.69300777
vt 0.5307214 0.7100433
vt 0.4984435 0.6732824
vt 0.4805113 0.62755525
vt 0.4876842 0.65131545
vt 0.6858349 0.6907662
vt 0.69211113 0.7203543
vt 0.71138823 0.7055603
vt 0.6463841 0.73783827
vt 0.6701442 0.7311137
vt 0.62217563 0.74097633
vt 0.59751886 0.7391832
vt 0.2993962 0.637418
vt 0.2895335 0.6405561
vt 0.30746567 0.64683235
vt 0.32629448 0.64997053
vt 0.3451233 0.6495222
vt 0.33436397 0.64324594
vt 0.36933175 0.637418
vt 0.3639521 0.6463841
vt 0.38143596 0.6396595
vt 0.39802325 0.6297968
vt 0.40026477 0.6199341
vt 0.412369 0.6176926
vt 0.42447323 0.6028985
vt 0.43388763 0.5863112
vt 0.4231283 0.5925875
vt 0.44330204 0.5499985
vt 0.44330204 0.5307214
vt 0.43523252 0.5239969
vt 0.43523252 0.55941296
vt 0.4401639 0.56837904
vt 0.64683235 0.74545944
vt 0.6714891 0.73828655
vt 0.5701723 0.74007976
vt 0.5952773 0.746356
vt 0.506513 0.6970425
vt 0.5253418 0.7149747
vt 0.47333843 0.6280036
vt 0.48006302 0.65266037
vt 0.6208307 0.7481493
vt 0.5464121 0.72932047
vt 0.49171895 0.6759722
vt 0.694801 0.7270789
vt 0.71587133 0.7118366
vn -0.0624637 0.99216837 0.10816752
vn -0.08551425 0.99216837 0.09104514
vn -0.031718373 0.99949694 -0
vn -0.008679092 0.9998519 0.014862531
vn -0.000995636 0.99216837 0.12490364
vn -0.04709667 0.99216837 0.11568866
vn 0.0066878796 0.9998519 0.015859747
vn 0.0066878796 0.9998519 0.015859747
vn -0.04705148 0.9988924 -0
vn -0.09319776 0.99216837 0.08316313
vn -0.008679092 0.9998519 0.014862531
vn -0.14698225 0.96911794 0.19800678
vn -0.18539983 0.96911794 0.16259564
vn -0.07783073 0.96911794 0.23399322
vn -0.123931825 0.96911794 0.21319321
vn -0.04709667 0.96911794 0.24205863
vn 0.014371395 0.98448485 0.17488003
vn 0.0066878796 0.96911794 0.24650708
vn -0.11624831 0.99216837 -0.04569736
vn -0.23150092 0.96911794 -0.08495743
vn -0.30833596 0.9460674 -0.0994255
vn -0.22381741 0.96911794 0.10351908
vn -0.23150092 0.96911794 -0.08495743
vn -0.22381741 0.96911794 0.10351908
vn -0.20076686 0.96911794 0.14318904
vn -0.33907002 -0.9363926 -0.0905561
vn -0.36980408 -0.9210256 -0.12229813
vn -0.30819464 -0.9513234 -0
vn -0.31512034 -0.94905174 -0
vn -0.30065256 -0.95175964 0.061331797
vn -0.323703 -0.9440761 0.06274272
vn -0.29296905 -0.95175964 0.09122892
vn -0.30065256 -0.95175964 0.061331797
vn -0.24686795 -0.95175964 0.18223557
vn -0.24686795 -0.95175964 0.18223557
vn -0.22381741 -0.95175964 0.20990317
vn -0.1700328 -0.95175964 0.25542593
vn -0.1700328 -0.95175964 0.25542593
vn -0.07783073 -0.95944315 0.27094507
vn -0.13161534 -0.95175964 0.277184
vn 0.02205491 -0.95944315 0.2810381
vn 0.02205491 -0.95944315 0.2810381
vn 0.02205491 -0.95944315 0.2810381
vn -0.03172964 -0.95175964 0.30519962
vn -0.07014722 -0.95944315 0.27303514
vn -0.5465248 0.83081466 0.1051552
vn -0.55420834 0.83081466 0.05099092
vn -0.4235887 0.82313114 0.37819007
vn -0.47737318 0.83081466 0.2861151
vn -0.18539983 0.82313114 0.53673273
vn -0.2699185 0.82313114 0.49959895
vn 0.052788973 0.82313114 0.56539226
vn 0.0066878796 0.82313114 0.56781197
vn -0.5234743 0.83081466 0.18900174
vn -0.35443705 0.82313114 0.44365472
vn -0.08551425 0.82313114 0.56137544
vn -0.55420834 0.83081466 -0.05099092
vn -0.5465248 0.82313114 -0.15416142
g ReaperCaptainAmericaFXCracked_0
f 3/3/3 2/2/2 1/1/1
f 6/6/6 5/5/5 4/4/4
f 4/4/4 5/5/5 7/7/7
f 8/8/8 4/4/4 7/7/7
f 2/2/2 3/3/3 9/9/9
f 10/10/10 2/2/2 9/9/9
f 9/9/9 3/3/3 11/11/11
f 13/13/13 12/12/12 1/1/1
f 6/6/6 15/15/15 14/14/14
f 14/14/14 16/16/16 5/5/5
f 6/6/6 14/14/14 5/5/5
f 5/5/5 18/18/18 17/17/17
f 7/7/7 5/5/5 17/17/17
f 21/21/21 20/20/20 19/19/19
f 10/10/10 23/23/23 22/22/22
f 22/22/22 24/24/24 2/2/2
f 10/10/10 22/22/22 2/2/2
f 2/2/2 25/25/25 13/13/13
f 1/1/1 2/2/2 13/13/13
f 28/28/28 27/27/27 26/26/26
f 31/31/31 30/30/30 29/29/29
f 30/30/30 31/31/31 32/32/32
f 33/33/33 30/30/30 32/32/32
f 36/36/36 35/35/35 34/34/34
f 32/32/32 36/36/36 34/34/34
f 37/37/37 35/35/35 36/36/36
f 40/40/40 39/39/39 38/38/38
f 43/43/43 42/42/42 41/41/41
f 44/44/44 43/43/43 41/41/41
f 39/39/39 40/40/40 44/44/44
f 45/45/45 39/39/39 44/44/44
f 23/23/23 47/47/47 46/46/46
f 22/22/22 23/23/23 46/46/46
f 25/25/25 49/49/49 48/48/48
f 13/13/13 25/25/25 48/48/48
f 15/15/15 51/51/51 50/50/50
f 14/14/14 15/15/15 50/50/50
f 18/18/18 53/53/53 52/52/52
f 17/17/17 18/18/18 52/52/52
f 46/46/46 54/54/54 24/24/24
f 22/22/22 46/46/46 24/24/24
f 48/48/48 55/55/55 12/12/12
f 13/13/13 48/48/48 12/12/12
f 50/50/50 56/56/56 16/16/16
f 14/14/14 50/50/50 16/16/16
f 58/58/58 57/57/57 20/20/20
f 21/21/21 58/58/58 20/20/20
f 9/9/9 19/19/19 10/10/10
f 19/19/19 20/20/20 23/23/23
f 10/10/10 19/19/19 23/23/23
f 20/20/20 57/57/57 47/47/47
f 23/23/23 20/20/20 47/47/47
f 29/29/29 28/28/28 26/26/26
f 31/31/31 29/29/29 26/26/26
f 2/2/2 24/24/24 25/25/25
f 24/24/24 54/54/54 49/49/49
f 25/25/25 24/24/24 49/49/49
f 34/34/34 33/33/33 32/32/32
f 3/3/3 1/1/1 6/6/6
f 4/4/4 3/3/3 6/6/6
f 1/1/1 12/12/12 15/15/15
f 6/6/6 1/1/1 15/15/15
f 12/12/12 55/55/55 51/51/51
f 15/15/15 12/12/12 51/51/51
f 38/38/38 37/37/37 36/36/36
f 40/40/40 38/38/38 36/36/36
f 5/5/5 16/16/16 18/18/18
f 16/16/16 56/56/56 53/53/53
f 18/18/18 16/16/16 53/53/53
f 41/41/41 45/45/45 44/44/44
f 3/3/3 4/4/4 11/11/11
f 4/4/4 8/8/8 11/11/11
