g ReaperTurret_Disk
v -0.3945939 0.01794058 0.3933558
v -0.50526625 0.017918468 0.2344659
v -0.32877845 0.029414594 0.22728086
v -0.105775476 0.029414594 0.3853528
v -0.04913491 0.017697394 0.55496496
v -0.23594713 0.017918468 0.50427145
v 0.14382333 0.01767528 0.53853875
v 0.16955698 0.029414594 0.3613214
v 0.36364275 0.029414594 0.16537857
v 0.45647407 0.017564774 0.31876355
v 0.32508647 0.017719507 0.45161027
v 0.54134655 0.01767528 0.1349138
v 0.38506538 0.029414594 -0.110771954
v 0.5015522 0.01774162 -0.24437031
v 0.55445653 0.017785847 -0.058132887
v 0.3879394 0.017896354 -0.40120417
v 0.22816518 0.029414594 -0.33083454
v -0.032266557 0.029414594 -0.39959028
v 0.04979819 0.01794058 -0.55551773
v 0.2345765 0.017962694 -0.50639385
v -0.14316005 0.01807326 -0.5390915
v -0.2806273 0.029414594 -0.28531426
v -0.45578867 0.01807326 -0.3207533
v -0.31840986 0.018095374 -0.45715943
v -0.5380524 0.018095374 -0.14543724
v -0.39815325 0.029414594 -0.038523138
v -0.55474395 0.018117428 0.04734415
v 0.0016691685 0.037108183 -0.0006079674
v -0.44707817 -0.0012491345 0.53170747
v -0.53099996 -0.00076276064 0.44696766
v -0.23610193 -0.0011385679 0.6527043
v -0.34664172 -0.0012049079 0.6012811
v -0.12122899 -0.0015144348 0.68416387
v 0.121958554 -0.0013817549 0.68341225
v 0.00049746037 -0.0016249418 0.69413453
v 0.23716313 -0.0018681288 0.6531685
v 0.4534453 -0.0014702082 0.5259593
v 0.3507317 -0.0017797351 0.59860605
v 0.53115475 -0.0019344687 0.44827193
v 0.6557331 -0.0014259815 0.22889471
v 0.602674 -0.0018017888 0.34372348
v 0.68591046 -0.0018681288 0.11364591
v 0.68235105 -0.0012712479 -0.12949735
v 0.69451046 -0.0016691685 -0.008168936
v 0.6509799 -0.0014702082 -0.24441454
v 0.5262689 -0.0010059476 -0.45315787
v 0.5974344 -0.0014259815 -0.35418054
v 0.44163963 -0.0012049079 -0.53699124
v 0.23663253 -0.0007406473 -0.6527043
v 0.3440109 -0.0011606812 -0.60366887
v 0.12173748 -0.00096172094 -0.6842524
v -0.12131739 -0.0005195737 -0.6835007
v 9.948015E-05 -0.000895381 -0.69420093
v -0.23663253 -0.00076276064 -0.6533233
v -0.44672447 -0.00040900707 -0.53115475
v -0.34692913 -0.0007406473 -0.60112643
v -0.5315084 -0.00069642067 -0.44734347
v -0.6524169 -0.0004311204 -0.2364999
v -0.60101587 -0.00056380033 -0.34699547
v -0.6839207 -0.00076276064 -0.12156063
v -0.6831911 -0.0006079674 0.12153846
v -0.6939356 -0.00067430735 0.000121593475
v -0.65301377 -0.0009838343 0.23678726
v -0.60086113 -0.0010280609 0.34715015
v 0.61848116 -0.037108243 -0.28741452
v 0.67921174 -0.037108243 -0.0584203
v 0.71230733 -0.022141159 -0.13208401
v 0.6785485 -0.022030592 -0.2537662
v 0.624185 -0.021920085 -0.36773273
v 0.55083084 -0.021787405 -0.47053474
v 0.48309207 -0.037108243 -0.48185402
v 0.460763 -0.021676898 -0.559055
v 0.35667875 -0.021544218 -0.6305521
v 0.2417616 -0.021411598 -0.6829259
v 0.28938213 -0.037108243 -0.618238
v 0.060697436 -0.037108243 -0.6801624
v 0.11950457 -0.021301031 -0.71451813
v -0.006378114 -0.021212578 -0.7244225
v -0.13208395 -0.021124184 -0.71230733
v -0.17537135 -0.037108243 -0.6601326
v -0.25376618 -0.02103573 -0.6785485
v -0.3677327 -0.020991504 -0.624185
v -0.47053474 -0.020947337 -0.55083084
v -0.3903491 -0.037108243 -0.5605583
v -0.5583033 -0.037108243 -0.39346638
v -0.55903286 -0.020947337 -0.460763
v -0.6305521 -0.020947337 -0.35667875
v -0.6829259 -0.020991504 -0.2417616
v -0.659005 -0.037108243 -0.17901921
v -0.71451813 -0.02103573 -0.11950457
v -0.7244225 -0.021124184 0.006378114
v -0.7123073 -0.021212578 0.13208395
v -0.6802729 -0.037108243 0.056939006
v -0.6195423 -0.037108243 0.28595537
v -0.6785485 -0.021301031 0.25376618
v -0.624185 -0.021433711 0.3677327
v -0.5508308 -0.021544218 0.47053474
v -0.4841532 -0.037108243 0.48037273
v -0.46076304 -0.021676898 0.5590549
v -0.35667866 -0.021809518 0.6305521
v -0.24176157 -0.021920085 0.6829259
v -0.29044324 -0.037108243 0.6167788
v 0.006378174 -0.022141159 0.7244225
v 0.13208401 -0.022229552 0.7123073
v 0.1743102 -0.037108243 0.6586513
v -0.061758578 -0.037108243 0.6786811
v -0.11950457 -0.022030592 0.71451813
v 0.2537662 -0.022295892 0.6785485
v 0.36773273 -0.022362232 0.624185
v 0.47053474 -0.022384346 0.5508308
v 0.38928798 -0.037108243 0.5590771
v 0.55724216 -0.037108243 0.39200717
v 0.5590329 -0.022406459 0.46076304
v 0.6305521 -0.022384346 0.35667866
v 0.6829259 -0.022340119 0.24176157
v 0.6579439 -0.037108243 0.17753792
v 0.7244225 -0.022229552 -0.006378174
v 0.71451813 -0.022295892 0.11950457
v 0.55083084 -0.021787405 -0.47053474
v 0.624185 -0.021920085 -0.36773273
v 0.2417616 -0.021411598 -0.6829259
v 0.35667875 -0.021544218 -0.6305521
v -0.13208395 -0.021124184 -0.71230733
v -0.006378114 -0.021212578 -0.7244225
v -0.47053474 -0.020947337 -0.55083084
v -0.3677327 -0.020991504 -0.624185
v -0.6829259 -0.020991504 -0.2417616
v -0.6305521 -0.020947337 -0.35667875
v -0.7123073 -0.021212578 0.13208395
v -0.7244225 -0.021124184 0.006378114
v -0.5508308 -0.021544218 0.47053474
v -0.624185 -0.021433711 0.3677327
v -0.24176157 -0.021920085 0.6829259
v -0.35667866 -0.021809518 0.6305521
v 0.13208401 -0.022229552 0.7123073
v 0.006378174 -0.022141159 0.7244225
v 0.47053474 -0.022384346 0.5508308
v 0.36773273 -0.022362232 0.624185
v 0.6829259 -0.022340119 0.24176157
v 0.6305521 -0.022384346 0.35667866
v 0.71230733 -0.022141159 -0.13208401
v 0.7244225 -0.022229552 -0.006378174
v -0.00018787384 -0.037108243 -0.00045323372
v -0.6785485 -0.021301031 0.25376618
v -0.46076304 -0.021676898 0.5590549
v -0.11950457 -0.022030592 0.71451813
v 0.2537662 -0.022295892 0.6785485
v 0.5590329 -0.022406459 0.46076304
v 0.71451813 -0.022295892 0.11950457
v -0.71451813 -0.02103573 -0.11950457
v -0.55903286 -0.020947337 -0.460763
v -0.25376618 -0.02103573 -0.6785485
v 0.11950457 -0.021301031 -0.71451813
v 0.460763 -0.021676898 -0.559055
v 0.6785485 -0.022030592 -0.2537662
vt 0.57343525 0.70347595
vt 0.61202455 0.71246254
vt 0.6003949 0.67863077
vt 0.5538762 0.64849937
vt 0.51793003 0.6500853
vt 0.5411893 0.6818025
vt 0.50682896 0.6125532
vt 0.53801763 0.59458005
vt 0.56074834 0.5438324
vt 0.5248021 0.537489
vt 0.5094721 0.57184935
vt 0.55334765 0.50788623
vt 0.6114959 0.5195159
vt 0.6278832 0.48727
vt 0.5887652 0.49097037
vt 0.66594386 0.4973138
vt 0.664358 0.5327314
vt 0.6966039 0.5766069
vt 0.71986324 0.5496473
vt 0.6971325 0.51845866
vt 0.7309643 0.58717936
vt 0.69343215 0.6315835
vt 0.7129912 0.66224355
vt 0.7283212 0.6262973
vt 0.68603146 0.6907891
vt 0.6553715 0.67228734
vt 0.6506139 0.7082336
vt 0.6188966 0.5998663
vt 0.5512331 0.72356355
vt 0.57343525 0.7330788
vt 0.51317245 0.6929036
vt 0.53061694 0.70981944
vt 0.49837106 0.6733446
vt 0.48039794 0.62735456
vt 0.48779863 0.6511425
vt 0.47775483 0.6035666
vt 0.48568416 0.55334765
vt 0.4798693 0.57819283
vt 0.4946707 0.5327314
vt 0.52691656 0.49308485
vt 0.5094721 0.51158655
vt 0.5464755 0.47881204
vt 0.5929942 0.46136758
vt 0.56920624 0.46823967
vt 0.6167821 0.45872447
vt 0.6654153 0.4671824
vt 0.6416273 0.46083897
vt 0.68761736 0.47669756
vt 0.7246208 0.50682896
vt 0.7071763 0.49044174
vt 0.73889357 0.52638793
vt 0.7568667 0.572378
vt 0.74999464 0.54859006
vt 0.7595098 0.5961659
vt 0.7521091 0.6453277
vt 0.75792396 0.6210111
vt 0.74259394 0.66752976
vt 0.7114053 0.7055905
vt 0.7288498 0.68761736
vt 0.69237494 0.72039187
vt 0.6463849 0.73783636
vt 0.67017287 0.7309643
vt 0.62206835 0.7410081
vt 0.5977518 0.73889357
vt 0.30013818 0.44498032
vt 0.33502716 0.43916547
vt 0.32445475 0.43282205
vt 0.3054244 0.4365224
vt 0.2879799 0.44286585
vt 0.27159265 0.452381
vt 0.26894954 0.46295345
vt 0.25731987 0.46506792
vt 0.2451616 0.47934067
vt 0.23564643 0.49625653
vt 0.24621885 0.4899131
vt 0.23406056 0.52321625
vt 0.22930297 0.513701
vt 0.22613125 0.5327314
vt 0.22613125 0.55176175
vt 0.23406056 0.5586338
vt 0.22983159 0.5702635
vt 0.23617505 0.58823663
vt 0.24621885 0.60462385
vt 0.24621885 0.59193695
vt 0.26894954 0.61942524
vt 0.25837713 0.6188966
vt 0.27317852 0.6310549
vt 0.28956577 0.6405701
vt 0.29960954 0.63739836
vt 0.30753887 0.6469135
vt 0.32604063 0.6500853
vt 0.34507096 0.64955664
vt 0.33449855 0.6432132
vt 0.3693875 0.63739836
vt 0.36410132 0.6463849
vt 0.3815458 0.63951284
vt 0.39793307 0.6299977
vt 0.40004754 0.6199539
vt 0.41220582 0.6178394
vt 0.4243641 0.603038
vt 0.4338793 0.5866507
vt 0.42277825 0.5924656
vt 0.44339448 0.5496473
vt 0.44339448 0.53061694
vt 0.43546516 0.5237448
vt 0.43493652 0.55916244
vt 0.44022274 0.5686776
vt 0.4396941 0.5121152
vt 0.43282205 0.49414206
vt 0.42330688 0.47828346
vt 0.42330688 0.49044174
vt 0.40057617 0.46348205
vt 0.41114858 0.46348205
vt 0.3963472 0.45132378
vt 0.37995994 0.44233721
vt 0.36991614 0.44550896
vt 0.34348512 0.43282205
vt 0.36198682 0.4359938
vt 0.66752976 0.4597817
vt 0.64215595 0.45343828
vt 0.7309643 0.50312865
vt 0.71246254 0.48515552
vt 0.7642674 0.57184935
vt 0.7573953 0.54700416
vt 0.75898117 0.64849937
vt 0.764796 0.6236542
vt 0.7156343 0.7119339
vt 0.7336074 0.69343215
vt 0.6469135 0.7457657
vt 0.6717587 0.738365
vt 0.5702635 0.73995084
vt 0.5951087 0.7462943
vt 0.50682896 0.6971325
vt 0.5253307 0.71510565
vt 0.47299725 0.6278832
vt 0.48039794 0.6527284
vt 0.47881204 0.5512331
vt 0.4724686 0.5766069
vt 0.52163035 0.48779863
vt 0.5036573 0.50630033
vt 0.59087974 0.4544955
vt 0.56603456 0.46136758
vt 0.33449855 0.5411893
vt 0.6210111 0.7484088
vt 0.5464755 0.7293784
vt 0.49149895 0.67598766
vt 0.47035414 0.60198075
vt 0.48938447 0.52797383
vt 0.5427752 0.47299725
vt 0.6944894 0.7272639
vt 0.7484088 0.67228734
vt 0.7669105 0.5977518
vt 0.7457657 0.5237448
vt 0.6907891 0.47035414
vt 0.6162535 0.45185238
vn -0.066666126 0.99214923 0.10580898
vn -0.0901953 0.99214923 0.08662968
vn -0.03527213 0.9993777 -0
vn -0.011763804 0.99993086 -0
vn -0.003921509 0.99214923 0.12499809
vn -0.043136835 0.99214923 0.11738443
vn 0.019607723 0.99214923 0.12351296
vn 0.019604107 0.9998079 -0
vn 0.03527219 0.9993777 -0
vn 0.07450926 0.99214923 0.10044035
vn 0.05882311 0.99214923 0.11036182
vn 0.098038495 0.99214923 0.07764248
vn 0.04309721 0.9990709 -0
vn 0.08235234 0.99214923 -0.09411676
vn 0.098038495 0.99214923 -0.07764248
vn 0.066666186 0.99214923 -0.10580898
vn 0.027440675 0.9996234 -0
vn -0.003921509 0.99999225 -0.00034526698
vn 0.011764646 0.99214923 -0.12450501
vn 0.035293877 0.99214923 -0.11997593
vn -0.02745068 0.99214923 -0.122009754
vn -0.027440555 0.9996234 -0
vn -0.08235228 0.99214923 -0.09411708
vn -0.050979972 0.99214923 -0.11419702
vn -0.0901953 0.99214923 -0.08662968
vn -0.04309709 0.9990709 -0
vn -0.0901953 0.99214923 0.08662968
vn 0.0039215684 0.99999225 -0.00034526698
vn -0.1450969 0.96861994 0.20179754
vn -0.18431222 0.96861994 0.16674644
vn -0.074509144 0.96861994 0.23711547
vn -0.12156761 0.96861994 0.21678725
vn -0.043136835 0.96861994 0.24477457
vn 0.035293877 0.96861994 0.24602786
vn 0.0039215684 0.96861994 0.2485156
vn 0.09019542 0.96861994 0.23160352
vn 0.16078311 0.96861994 0.1895368
vn 0.11372465 0.96861994 0.22100243
vn 0.17646927 0.96861994 0.17502567
vn 0.21568465 0.96861994 0.1235132
vn 0.20784158 0.96861994 0.1362985
vn 0.23921388 0.96861994 0.06746945
vn 0.2313708 0.96861994 -0.09079044
vn 0.23921388 0.96861994 0.06746945
vn 0.22352773 0.96861994 -0.108677134
vn 0.18431234 0.96861994 -0.16674626
vn 0.1999985 0.96861994 -0.1475668
vn 0.14509696 0.96861994 -0.20179754
vn 0.07450926 0.96861994 -0.23711547
vn 0.121567726 0.96861994 -0.21678711
vn 0.043136954 0.96861994 -0.24477457
vn -0.035293818 0.96861994 -0.24602786
vn -0.003921509 0.96861994 -0.2485156
vn -0.08235228 0.96861994 -0.23450695
vn -0.15293992 0.9764631 -0.15208314
vn -0.11372459 0.9764631 -0.18326654
vn -0.1764692 0.9764631 -0.12400998
vn -0.21568453 0.9764631 -0.00024414062
vn -0.19999838 0.9764631 -0.080749676
vn -0.2305637 0.97305727 -0
vn -0.22314367 0.97478557 -0
vn -0.2305637 0.97305727 -0
vn -0.22352767 0.96861994 0.10867741
vn -0.19999838 0.96861994 0.147567
vn 0.019604106 -0.9998079 -0
vn 0.027440673 -0.9996234 -0
vn 0.27834368 -0.9604816 -0
vn 0.27842927 -0.9529339 -0.11997543
vn 0.24705696 -0.9529339 -0.17572665
vn 0.23921388 -0.9529339 -0.1862625
vn 0.019604106 -0.9998079 -0
vn 0.17646927 -0.9529339 -0.24652703
vn 0.16862619 -0.9529339 -0.25195667
vn 0.08235234 -0.9529339 -0.2917791
vn 0.011763922 -0.99993086 -0
vn 0.0039215684 -0.9999924 -0
vn 0.07450926 -0.9529339 -0.2938798
vn -0.02745068 -0.9529339 -0.30193287
vn -0.035293818 -0.9529339 -0.30111676
vn -0.003921509 -0.9999924 -0
vn -0.12941074 -0.94509083 -0.30009362
vn -0.13725376 -0.94509083 -0.29658845
vn -0.22352767 -0.94509083 -0.23840867
vn -0.011763803 -0.99993086 -0
vn -0.019604046 -0.9998079 -0
vn -0.23137069 -0.94509083 -0.23080485
vn -0.2862723 -0.94509083 -0.15764359
vn -0.2862723 -0.94509083 -0.15764359
vn -0.027440554 -0.9996234 -0
vn -0.3091745 -0.9510054 -0
vn -0.3091745 -0.9510054 -0
vn -0.30195844 -0.9529339 0.027167708
vn -0.027440554 -0.9996234 -0
vn -0.027440554 -0.9996234 -0
vn -0.2941153 -0.9529339 0.07357428
vn -0.24705684 -0.9529339 0.17572682
vn -0.24705684 -0.9529339 0.17572682
vn -0.019604046 -0.9998079 -0
vn -0.1764692 -0.9529339 0.24652703
vn -0.16862607 -0.9529339 0.2519568
vn -0.08235228 -0.9529339 0.2917792
vn -0.011763803 -0.99993086 -0
vn 0.019607723 -0.960777 0.27662814
vn 0.0274508 -0.960777 0.27596024
vn 0.0039215684 -0.9999924 -0
vn -0.003921509 -0.9999924 -0
vn -0.074509144 -0.9529339 0.2938798
vn 0.11372465 -0.960777 0.25293133
vn 0.121567726 -0.960777 0.24925658
vn 0.1999985 -0.960777 0.19211493
vn 0.011763922 -0.99993086 -0
vn 0.019604106 -0.9998079 -0
vn 0.1999985 -0.960777 0.19211493
vn 0.25490004 -0.960777 0.10924086
vn 0.26274312 -0.960777 0.08873361
vn 0.019604106 -0.9998079 -0
vn 0.28555307 -0.95836294 -0
vn 0.28555307 -0.95836294 -0
vn 0.4352908 0.81960154 -0.37252548
vn 0.49019235 0.81960154 -0.29658857
vn 0.18431234 0.81960154 -0.5424779
vn 0.27842927 0.81960154 -0.5007299
vn -0.10588145 0.82744455 -0.551475
vn -0.011764526 0.82744455 -0.5614242
vn -0.36470306 0.82744455 -0.4269979
vn -0.2862723 0.82744455 -0.48309803
vn -0.5294076 0.82744455 -0.1872514
vn -0.4901923 0.82744455 -0.2739471
vn -0.5529369 0.82744455 0.09796064
vn -0.5607799 0.82744455 0.029349724
vn -0.42744768 0.82744455 0.36417583
vn -0.48234916 0.82744455 0.28753227
vn -0.18431222 0.82744455 0.530438
vn -0.27058613 0.82744455 0.49205554
vn 0.10588157 0.82744455 0.5514749
vn 0.011764646 0.82744455 0.5614242
vn 0.36470312 0.81960154 0.44186532
vn 0.28627235 0.82744455 0.48309797
vn 0.5372508 0.81960154 0.19903481
vn 0.49019235 0.82744455 0.273947
vn 0.56078005 0.81960154 -0.11738443
vn 0.5686231 0.81960154 -0.0701504
vn -0.003921509 -0.9999924 -0
vn -0.5215646 0.82744455 0.20810063
vn -0.35685992 0.82744455 0.43357408
vn -0.0901953 0.82744455 0.55425656
vn 0.1999985 0.82744455 0.5247248
vn 0.4431339 0.81960154 0.36316073
vn 0.56078005 0.81960154 0.11738443
vn -0.5529369 0.82744455 -0.09796064
vn -0.4352907 0.82744455 -0.35476404
vn -0.19999838 0.82744455 -0.52472484
vn 0.09019542 0.82744455 -0.55425656
vn 0.36470312 0.81960154 -0.44186532
vn 0.5372508 0.81960154 -0.19903481
g ReaperTurret_Disk_0
f 3/3/3 2/2/2 1/1/1
f 6/6/6 5/5/5 4/4/4
f 4/4/4 5/5/5 7/7/7
f 8/8/8 4/4/4 7/7/7
f 10/10/10 9/9/9 8/8/8
f 11/11/11 10/10/10 8/8/8
f 9/9/9 10/10/10 12/12/12
f 15/15/15 14/14/14 13/13/13
f 13/13/13 14/14/14 16/16/16
f 17/17/17 13/13/13 16/16/16
f 19/19/19 18/18/18 17/17/17
f 20/20/20 19/19/19 17/17/17
f 18/18/18 19/19/19 21/21/21
f 24/24/24 23/23/23 22/22/22
f 22/22/22 23/23/23 25/25/25
f 26/26/26 22/22/22 25/25/25
f 2/2/2 3/3/3 26/26/26
f 27/27/27 2/2/2 26/26/26
f 17/17/17 18/18/18 28/28/28
f 18/18/18 22/22/22 28/28/28
f 22/22/22 26/26/26 28/28/28
f 8/8/8 9/9/9 28/28/28
f 26/26/26 3/3/3 28/28/28
f 30/30/30 29/29/29 1/1/1
f 6/6/6 32/32/32 31/31/31
f 31/31/31 33/33/33 5/5/5
f 6/6/6 31/31/31 5/5/5
f 5/5/5 35/35/35 34/34/34
f 7/7/7 5/5/5 34/34/34
f 34/34/34 36/36/36 7/7/7
f 11/11/11 38/38/38 37/37/37
f 37/37/37 39/39/39 10/10/10
f 11/11/11 37/37/37 10/10/10
f 10/10/10 41/41/41 40/40/40
f 12/12/12 10/10/10 40/40/40
f 40/40/40 42/42/42 12/12/12
f 15/15/15 44/44/44 43/43/43
f 43/43/43 45/45/45 14/14/14
f 15/15/15 43/43/43 14/14/14
f 14/14/14 47/47/47 46/46/46
f 16/16/16 14/14/14 46/46/46
f 46/46/46 48/48/48 16/16/16
f 20/20/20 50/50/50 49/49/49
f 49/49/49 51/51/51 19/19/19
f 20/20/20 49/49/49 19/19/19
f 19/19/19 53/53/53 52/52/52
f 21/21/21 19/19/19 52/52/52
f 52/52/52 54/54/54 21/21/21
f 24/24/24 56/56/56 55/55/55
f 55/55/55 57/57/57 23/23/23
f 24/24/24 55/55/55 23/23/23
f 23/23/23 59/59/59 58/58/58
f 25/25/25 23/23/23 58/58/58
f 58/58/58 60/60/60 25/25/25
f 27/27/27 62/62/62 61/61/61
f 61/61/61 63/63/63 2/2/2
f 27/27/27 61/61/61 2/2/2
f 2/2/2 64/64/64 30/30/30
f 1/1/1 2/2/2 30/30/30
f 67/67/67 66/66/66 65/65/65
f 68/68/68 67/67/67 65/65/65
f 71/71/71 70/70/70 69/69/69
f 65/65/65 71/71/71 69/69/69
f 72/72/72 70/70/70 71/71/71
f 75/75/75 74/74/74 73/73/73
f 74/74/74 75/75/75 76/76/76
f 77/77/77 74/74/74 76/76/76
f 80/80/80 79/79/79 78/78/78
f 76/76/76 80/80/80 78/78/78
f 81/81/81 79/79/79 80/80/80
f 84/84/84 83/83/83 82/82/82
f 83/83/83 84/84/84 85/85/85
f 86/86/86 83/83/83 85/85/85
f 89/89/89 88/88/88 87/87/87
f 85/85/85 89/89/89 87/87/87
f 90/90/90 88/88/88 89/89/89
f 93/93/93 92/92/92 91/91/91
f 92/92/92 93/93/93 94/94/94
f 95/95/95 92/92/92 94/94/94
f 98/98/98 97/97/97 96/96/96
f 94/94/94 98/98/98 96/96/96
f 99/99/99 97/97/97 98/98/98
f 102/102/102 101/101/101 100/100/100
f 105/105/105 104/104/104 103/103/103
f 106/106/106 105/105/105 103/103/103
f 101/101/101 102/102/102 106/106/106
f 107/107/107 101/101/101 106/106/106
f 108/108/108 104/104/104 105/105/105
f 111/111/111 110/110/110 109/109/109
f 110/110/110 111/111/111 112/112/112
f 113/113/113 110/110/110 112/112/112
f 116/116/116 115/115/115 114/114/114
f 112/112/112 116/116/116 114/114/114
f 66/66/66 67/67/67 117/117/117
f 118/118/118 115/115/115 116/116/116
f 47/47/47 120/120/120 119/119/119
f 46/46/46 47/47/47 119/119/119
f 50/50/50 122/122/122 121/121/121
f 49/49/49 50/50/50 121/121/121
f 53/53/53 124/124/124 123/123/123
f 52/52/52 53/53/53 123/123/123
f 56/56/56 126/126/126 125/125/125
f 55/55/55 56/56/56 125/125/125
f 59/59/59 128/128/128 127/127/127
f 58/58/58 59/59/59 127/127/127
f 62/62/62 130/130/130 129/129/129
f 61/61/61 62/62/62 129/129/129
f 64/64/64 132/132/132 131/131/131
f 30/30/30 64/64/64 131/131/131
f 32/32/32 134/134/134 133/133/133
f 31/31/31 32/32/32 133/133/133
f 35/35/35 136/136/136 135/135/135
f 34/34/34 35/35/35 135/135/135
f 38/38/38 138/138/138 137/137/137
f 37/37/37 38/38/38 137/137/137
f 41/41/41 140/140/140 139/139/139
f 40/40/40 41/41/41 139/139/139
f 44/44/44 142/142/142 141/141/141
f 43/43/43 44/44/44 141/141/141
f 66/66/66 143/143/143 65/65/65
f 143/143/143 71/71/71 65/65/65
f 75/75/75 143/143/143 76/76/76
f 143/143/143 80/80/80 76/76/76
f 84/84/84 143/143/143 85/85/85
f 143/143/143 89/89/89 85/85/85
f 93/93/93 143/143/143 94/94/94
f 143/143/143 98/98/98 94/94/94
f 102/102/102 143/143/143 106/106/106
f 143/143/143 105/105/105 106/106/106
f 111/111/111 143/143/143 112/112/112
f 143/143/143 116/116/116 112/112/112
f 102/102/102 98/98/98 143/143/143
f 111/111/111 105/105/105 143/143/143
f 66/66/66 116/116/116 143/143/143
f 75/75/75 71/71/71 143/143/143
f 84/84/84 80/80/80 143/143/143
f 93/93/93 89/89/89 143/143/143
f 129/129/129 144/144/144 63/63/63
f 61/61/61 129/129/129 63/63/63
f 131/131/131 145/145/145 29/29/29
f 30/30/30 131/131/131 29/29/29
f 133/133/133 146/146/146 33/33/33
f 31/31/31 133/133/133 33/33/33
f 135/135/135 147/147/147 36/36/36
f 34/34/34 135/135/135 36/36/36
f 137/137/137 148/148/148 39/39/39
f 37/37/37 137/137/137 39/39/39
f 139/139/139 149/149/149 42/42/42
f 40/40/40 139/139/139 42/42/42
f 127/127/127 150/150/150 60/60/60
f 58/58/58 127/127/127 60/60/60
f 125/125/125 151/151/151 57/57/57
f 55/55/55 125/125/125 57/57/57
f 123/123/123 152/152/152 54/54/54
f 52/52/52 123/123/123 54/54/54
f 121/121/121 153/153/153 51/51/51
f 49/49/49 121/121/121 51/51/51
f 119/119/119 154/154/154 48/48/48
f 46/46/46 119/119/119 48/48/48
f 141/141/141 155/155/155 45/45/45
f 43/43/43 141/141/141 45/45/45
f 14/14/14 45/45/45 47/47/47
f 45/45/45 155/155/155 120/120/120
f 47/47/47 45/45/45 120/120/120
f 69/69/69 68/68/68 65/65/65
f 17/17/17 16/16/16 20/20/20
f 16/16/16 48/48/48 50/50/50
f 20/20/20 16/16/16 50/50/50
f 48/48/48 154/154/154 122/122/122
f 50/50/50 48/48/48 122/122/122
f 73/73/73 72/72/72 71/71/71
f 75/75/75 73/73/73 71/71/71
f 19/19/19 51/51/51 53/53/53
f 51/51/51 153/153/153 124/124/124
f 53/53/53 51/51/51 124/124/124
f 78/78/78 77/77/77 76/76/76
f 18/18/18 21/21/21 24/24/24
f 22/22/22 18/18/18 24/24/24
f 21/21/21 54/54/54 56/56/56
f 24/24/24 21/21/21 56/56/56
f 54/54/54 152/152/152 126/126/126
f 56/56/56 54/54/54 126/126/126
f 82/82/82 81/81/81 80/80/80
f 84/84/84 82/82/82 80/80/80
f 23/23/23 57/57/57 59/59/59
f 57/57/57 151/151/151 128/128/128
f 59/59/59 57/57/57 128/128/128
f 87/87/87 86/86/86 85/85/85
f 26/26/26 25/25/25 27/27/27
f 25/25/25 60/60/60 62/62/62
f 27/27/27 25/25/25 62/62/62
f 60/60/60 150/150/150 130/130/130
f 62/62/62 60/60/60 130/130/130
f 91/91/91 90/90/90 89/89/89
f 93/93/93 91/91/91 89/89/89
f 2/2/2 63/63/63 64/64/64
f 63/63/63 144/144/144 132/132/132
f 64/64/64 63/63/63 132/132/132
f 96/96/96 95/95/95 94/94/94
f 3/3/3 1/1/1 6/6/6
f 4/4/4 3/3/3 6/6/6
f 1/1/1 29/29/29 32/32/32
f 6/6/6 1/1/1 32/32/32
f 29/29/29 145/145/145 134/134/134
f 32/32/32 29/29/29 134/134/134
f 100/100/100 99/99/99 98/98/98
f 102/102/102 100/100/100 98/98/98
f 5/5/5 33/33/33 35/35/35
f 33/33/33 146/146/146 136/136/136
f 35/35/35 33/33/33 136/136/136
f 103/103/103 107/107/107 106/106/106
f 8/8/8 7/7/7 11/11/11
f 7/7/7 36/36/36 38/38/38
f 11/11/11 7/7/7 38/38/38
f 36/36/36 147/147/147 138/138/138
f 38/38/38 36/36/36 138/138/138
f 109/109/109 108/108/108 105/105/105
f 111/111/111 109/109/109 105/105/105
f 10/10/10 39/39/39 41/41/41
f 39/39/39 148/148/148 140/140/140
f 41/41/41 39/39/39 140/140/140
f 114/114/114 113/113/113 112/112/112
f 9/9/9 12/12/12 15/15/15
f 13/13/13 9/9/9 15/15/15
f 12/12/12 42/42/42 44/44/44
f 15/15/15 12/12/12 44/44/44
f 42/42/42 149/149/149 142/142/142
f 44/44/44 42/42/42 142/142/142
f 117/117/117 118/118/118 116/116/116
f 66/66/66 117/117/117 116/116/116
f 3/3/3 4/4/4 28/28/28
f 4/4/4 8/8/8 28/28/28
f 9/9/9 13/13/13 28/28/28
f 13/13/13 17/17/17 28/28/28
