g ReaperTurret_13_DefaultPart_CorpsePart
v 0.42656076 0.097964644 0.3004328
v -0.42656076 0.097964644 0.3004328
v -0.12651682 0.34866524 0.37418604
v 0.12651682 0.34866524 0.37418604
v 0.15000612 0.48477614 0.06396866
v 0.1428006 0.48477614 0.41467333
v 0.13837257 0.34377688 0.08239502
v 0.13837257 0.34377688 0.08239502
v 0.12651682 0.34866524 0.37418604
v -0.12651682 0.34866524 0.37418604
v -0.13837254 0.34377688 0.08239502
v -0.15000612 0.48477614 0.06396866
v 0.15000612 0.48477614 0.06396866
v 0.13837257 0.34377688 0.08239502
v -0.13837254 0.34377688 0.08239502
v -0.13837254 0.34377688 0.08239502
v -0.12651682 0.34866524 0.37418604
v -0.14280063 0.48477614 0.41467333
v 0.40115106 0.48477614 -0.25058153
v -0.40107173 0.48477614 -0.2504387
v -0.42656076 0.097964644 -0.2495023
v 0.42656076 0.097964644 -0.2495023
v 0.42656076 0.097964644 0.3004328
v 0.4006908 0.48477614 0.41476852
v 0.40115106 0.48477614 -0.25058153
v 0.42656076 0.097964644 -0.2495023
v -0.40107173 0.48477614 -0.2504387
v -0.40062732 0.48477614 0.41492724
v -0.42656076 0.097964644 0.3004328
v -0.42656076 0.097964644 -0.2495023
v 0.1428006 0.48477614 0.41467333
v 0.15000612 0.48477614 0.06396866
v 0.4006908 0.48477614 0.41476852
v 0.4006908 0.48477614 0.41476852
v 0.1428006 0.48477614 0.41467333
v -0.15000612 0.48477614 0.06396866
v -0.40062732 0.48477614 0.41492724
v -0.40107173 0.48477614 -0.2504387
v -0.40062732 0.48477614 0.41492724
v -0.14280063 0.48477614 0.41467333
v 0.40115106 0.48477614 -0.25058153
v -0.14280063 0.48477614 0.41467333
v 0.42656076 0.097964644 -0.2495023
v -0.42656076 0.097964644 -0.2495023
v -0.42656076 0.097964644 0.3004328
v 0.42656076 0.097964644 0.3004328
v -0.14280063 0.48477614 0.41467333
v -0.15000612 0.48477614 0.06396866
v -0.13837254 0.34377688 0.08239502
v 0.1428006 0.48477614 0.41467333
v 0.12651682 0.34866524 0.37418604
v 0.13837257 0.34377688 0.08239502
v 0.47715798 0.3310324 -0.075840265
v 0.42059323 0.33384156 -0.078792274
v 0.42762414 0.2050631 -0.11020127
v 0.4844111 0.20671374 -0.106598526
v 0.43262357 0.11345488 -0.014323711
v 0.48982316 0.117406785 -0.013530135
v 0.43059206 0.1507203 0.11294699
v 0.48785514 0.15387869 0.11016953
v 0.42356113 0.27954638 0.14426076
v 0.48052266 0.2788639 0.14003903
v 0.41857758 0.37105942 0.04839903
v 0.47520584 0.3670916 0.047430933
v 0.5097573 0.292894 -0.03597194
v 0.47715798 0.3310324 -0.075840265
v 0.4844111 0.20671374 -0.106598526
v 0.51577246 0.22166431 -0.05330324
v 0.50801146 0.3134789 0.034384847
v 0.47520584 0.3670916 0.047430933
v 0.48982316 0.117406785 -0.013530135
v 0.5200577 0.17103541 -0.00029361248
v 0.48785514 0.15387869 0.11016953
v 0.51831186 0.19162023 0.070063174
v 0.48052266 0.2788639 0.14003903
v 0.5122967 0.26284993 0.08741033
v -0.51577246 0.22166431 -0.05330324
v -0.48441112 0.20671374 -0.106598526
v -0.477158 0.3310324 -0.075840265
v -0.5097573 0.292894 -0.03597194
v -0.47520584 0.3670916 0.047430933
v -0.50801146 0.3134789 0.034384847
v -0.5200577 0.17103541 -0.00029361248
v -0.4898231 0.117406785 -0.013530135
v -0.51831186 0.19162023 0.070063174
v -0.4878552 0.15387869 0.11016953
v -0.5122967 0.26284993 0.08741033
v -0.48052263 0.2788639 0.14003903
v -0.4185776 0.37105942 0.04839903
v -0.47520584 0.3670916 0.047430933
v -0.477158 0.3310324 -0.075840265
v -0.42059326 0.33384156 -0.078792274
v -0.48441112 0.20671374 -0.106598526
v -0.42762417 0.2050631 -0.11020127
v -0.4898231 0.117406785 -0.013530135
v -0.43262357 0.11345488 -0.014323711
v -0.4878552 0.15387869 0.11016953
v -0.43059206 0.1507203 0.11294699
v -0.48052263 0.2788639 0.14003903
v -0.42356116 0.27954638 0.14426076
vt 0.9753533 0.020326901
vt 0.7877088 0.020326901
vt 0.84932345 0.08100796
vt 0.9137387 0.08100796
vt 0.31626374 0.7774397
vt 0.31626374 0.8297188
vt 0.33866906 0.7774397
vt 0.33866906 0.7774397
vt 0.33866906 0.83065236
vt 0.38254613 0.83065236
vt 0.38254613 0.7774397
vt 0.38254613 0.755968
vt 0.33866906 0.755968
vt 0.33866906 0.7774397
vt 0.38254613 0.7774397
vt 0.38254613 0.7774397
vt 0.38254613 0.83065236
vt 0.40401787 0.8297188
vt 0.54871887 0.115549475
vt 0.7410311 0.115549475
vt 0.74383175 0.022194011
vt 0.54591817 0.022194011
vt 0.39094812 0.021260455
vt 0.36387503 0.113682374
vt 0.5225793 0.11274882
vt 0.52537996 0.021260455
vt 0.5225793 0.11274882
vt 0.36387503 0.113682374
vt 0.39188167 0.021260455
vt 0.52537996 0.021260455
vt 0.3293335 0.8549248
vt 0.3293335 0.91467226
vt 0.37227702 0.8558583
vt 0.97348624 0.113682374
vt 0.9137387 0.113682374
vt 0.2798551 0.91467226
vt 0.23597802 0.8558583
vt 0.23691158 0.9678849
vt 0.78957593 0.113682374
vt 0.84838986 0.113682374
vt 0.37134346 0.9678849
vt 0.2798551 0.8549248
vt 0.55525374 0.8735959
vt 0.41055277 0.8735959
vt 0.41055277 0.9660178
vt 0.55525374 0.9660178
vt 0.40401787 0.8297188
vt 0.40495142 0.7774397
vt 0.38254613 0.7774397
vt 0.31626374 0.8297188
vt 0.33866906 0.83065236
vt 0.33866906 0.7774397
vt 0.2798551 0.6850178
vt 0.2798551 0.6719481
vt 0.24811423 0.6719481
vt 0.24811423 0.6850178
vt 0.21637337 0.6719481
vt 0.21637337 0.6850178
vt 0.24811423 0.6719481
vt 0.24811423 0.6850178
vt 0.2798551 0.6719481
vt 0.2798551 0.6850178
vt 0.31159598 0.6719481
vt 0.31159598 0.6850178
vt 0.28545645 0.7130245
vt 0.28545645 0.69715405
vt 0.26025045 0.69715405
vt 0.26025045 0.7130245
vt 0.31159598 0.7130245
vt 0.31159598 0.69715405
vt 0.2341109 0.69715405
vt 0.2341109 0.7130245
vt 0.26025045 0.69715405
vt 0.26025045 0.7130245
vt 0.28545645 0.69715405
vt 0.28545645 0.7130245
vt 0.26025045 0.7130245
vt 0.26025045 0.69715405
vt 0.28545645 0.69715405
vt 0.28545645 0.7130245
vt 0.31159598 0.69715405
vt 0.31159598 0.7130245
vt 0.2341109 0.7130245
vt 0.2341109 0.69715405
vt 0.26025045 0.7130245
vt 0.26025045 0.69715405
vt 0.28545645 0.7130245
vt 0.28545645 0.69715405
vt 0.31159598 0.6719481
vt 0.31159598 0.6850178
vt 0.2798551 0.6850178
vt 0.2798551 0.6719481
vt 0.24811423 0.6850178
vt 0.24811423 0.6719481
vt 0.21637337 0.6850178
vt 0.21637337 0.6719481
vt 0.24811423 0.6850178
vt 0.24811423 0.6719481
vt 0.2798551 0.6850178
vt 0.2798551 0.6719481
vn -0.003921509 -0.27842927 0.96044874
vn -0.003921509 -0.27842927 0.96044874
vn -0.003921509 -0.27842927 0.96044874
vn -0.003921509 -0.27842927 0.96044874
vn -0.9966261 0.08207507 -0
vn -0.9966261 0.08207507 -0
vn -0.9966261 0.08207507 -0
vn -0.003921509 0.99999225 -0.00034526698
vn -0.003921509 0.99999225 -0.00034526698
vn -0.003921509 0.99999225 -0.00034526698
vn -0.003921509 0.99999225 -0.00034526698
vn -0.003921509 0.12941074 0.99158335
vn -0.003921509 0.12941074 0.99158335
vn -0.003921509 0.12941074 0.99158335
vn -0.003921509 0.12941074 0.99158335
vn 0.99160045 0.12933916 -0
vn 0.99160045 0.12933916 -0
vn 0.99160045 0.12933916 -0
vn -0.003921509 -0.0039215684 -0.9999846
vn -0.003921509 -0.0039215684 -0.9999846
vn -0.003921509 -0.0039215684 -0.9999846
vn -0.003921509 -0.0039215684 -0.9999846
vn 0.9977852 0.066518985 -0
vn 0.9977852 0.066518985 -0
vn 0.9977852 0.066518985 -0
vn 0.9977852 0.066518985 -0
vn -0.9977852 0.06651899 -0
vn -0.9977852 0.06651899 -0
vn -0.9977852 0.06651899 -0
vn -0.9977852 0.06651899 -0
vn -0.003921509 0.99999225 -0.00034526698
vn -0.003921509 0.99999225 -0.00034526698
vn -0.003921509 0.99999225 -0.00034526698
vn -0.003921509 -0.28627235 0.95814025
vn -0.003921509 -0.28627235 0.95814025
vn -0.003921509 0.99999225 -0.00034526698
vn -0.003921509 0.99999225 -0.00034526698
vn -0.003921509 0.99999225 -0.00034526698
vn 0.0039215684 -0.28627235 0.95814025
vn 0.0039215684 -0.28627235 0.95814025
vn -0.003921509 0.99999225 -0.00034526698
vn -0.003921509 0.99999225 -0.00034526698
vn -0.003921509 -0.9999924 -0
vn -0.003921509 -0.9999924 -0
vn -0.003921509 -0.9999924 -0
vn -0.003921509 -0.9999924 -0
vn 0.9966261 0.08207506 -0
vn 0.9966261 0.08207506 -0
vn 0.9966261 0.08207506 -0
vn -0.9916004 0.12933916 -0
vn -0.9916004 0.12933916 -0
vn -0.9916004 0.12933916 -0
vn 0.41176158 0.6392107 -0.6495091
vn 0.066666186 0.7019553 -0.7090941
vn 0.066666186 -0.26274312 -0.96256
vn 0.41960466 -0.23921388 -0.875619
vn 0.07450926 -0.96862006 -0.23711498
vn 0.42744774 -0.87450314 -0.22920007
vn 0.07450926 -0.6784262 0.73088044
vn 0.42744774 -0.6156816 0.66198534
vn 0.07450926 0.2941153 0.95286125
vn 0.41176158 0.27058613 0.8701928
vn 0.07450926 0.96861994 0.23711547
vn 0.4039185 0.8901892 0.210744
vn 0.960777 0.21568453 -0.17432085
vn 0.41176158 0.6392107 -0.6495091
vn 0.41960466 -0.23921388 -0.875619
vn 0.97646314 0.003921509 -0.21564874
vn 0.9604816 0.27834356 -0
vn 0.4039185 0.8901892 0.210744
vn 0.42744774 -0.87450314 -0.22920007
vn 0.9843062 -0.15294003 -0.08803764
vn 0.42744774 -0.6156816 0.66198534
vn 0.9843062 -0.09019542 0.1516775
vn 0.41176158 0.27058613 0.8701928
vn 0.96862006 0.12941074 0.21219803
vn -0.9764631 0.003921509 -0.21564901
vn -0.41960454 -0.23921388 -0.8756191
vn -0.41176152 0.6392107 -0.64950913
vn -0.9607769 0.21568453 -0.17432119
vn -0.4039184 0.8901892 0.21074428
vn -0.9604815 0.27834356 -0
vn -0.9843061 -0.15294003 -0.088038996
vn -0.42744768 -0.87450314 -0.22920033
vn -0.9843061 -0.09019542 0.1516783
vn -0.42744768 -0.6156816 0.6619854
vn -0.96861994 0.12941074 0.2121986
vn -0.41176152 0.27058613 0.8701928
vn -0.074509144 0.96861994 0.23711547
vn -0.4039184 0.8901892 0.21074428
vn -0.41176152 0.6392107 -0.64950913
vn -0.066666126 0.7019553 -0.7090941
vn -0.41960454 -0.23921388 -0.8756191
vn -0.066666126 -0.26274312 -0.96256
vn -0.42744768 -0.87450314 -0.22920033
vn -0.074509144 -0.96862006 -0.23711498
vn -0.42744768 -0.6156816 0.6619854
vn -0.074509144 -0.6784262 0.73088044
vn -0.41176152 0.27058613 0.8701928
vn -0.074509144 0.2941153 0.95286125
g ReaperTurret_13_DefaultPart_CorpsePart_0
f 3/3/3 2/2/2 1/1/1
f 4/4/4 3/3/3 1/1/1
f 7/7/7 6/6/6 5/5/5
f 10/10/10 9/9/9 8/8/8
f 11/11/11 10/10/10 8/8/8
f 14/14/14 13/13/13 12/12/12
f 15/15/15 14/14/14 12/12/12
f 18/18/18 17/17/17 16/16/16
f 21/21/21 20/20/20 19/19/19
f 22/22/22 21/21/21 19/19/19
f 25/25/25 24/24/24 23/23/23
f 26/26/26 25/25/25 23/23/23
f 29/29/29 28/28/28 27/27/27
f 30/30/30 29/29/29 27/27/27
f 33/33/33 32/32/32 31/31/31
f 4/4/4 1/1/1 34/34/34
f 35/35/35 4/4/4 34/34/34
f 38/38/38 37/37/37 36/36/36
f 3/3/3 40/40/40 39/39/39
f 2/2/2 3/3/3 39/39/39
f 32/32/32 41/41/41 38/38/38
f 36/36/36 32/32/32 38/38/38
f 33/33/33 41/41/41 32/32/32
f 42/42/42 36/36/36 37/37/37
f 45/45/45 44/44/44 43/43/43
f 46/46/46 45/45/45 43/43/43
f 49/49/49 48/48/48 47/47/47
f 52/52/52 51/51/51 50/50/50
f 55/55/55 54/54/54 53/53/53
f 56/56/56 55/55/55 53/53/53
f 57/57/57 55/55/55 56/56/56
f 58/58/58 57/57/57 56/56/56
f 59/59/59 57/57/57 58/58/58
f 60/60/60 59/59/59 58/58/58
f 61/61/61 59/59/59 60/60/60
f 62/62/62 61/61/61 60/60/60
f 63/63/63 61/61/61 62/62/62
f 64/64/64 63/63/63 62/62/62
f 64/64/64 53/53/53 54/54/54
f 63/63/63 64/64/64 54/54/54
f 67/67/67 66/66/66 65/65/65
f 68/68/68 67/67/67 65/65/65
f 66/66/66 70/70/70 69/69/69
f 65/65/65 66/66/66 69/69/69
f 72/72/72 71/71/71 67/67/67
f 68/68/68 72/72/72 67/67/67
f 74/74/74 73/73/73 71/71/71
f 72/72/72 74/74/74 71/71/71
f 76/76/76 75/75/75 73/73/73
f 74/74/74 76/76/76 73/73/73
f 69/69/69 70/70/70 75/75/75
f 76/76/76 69/69/69 75/75/75
f 79/79/79 78/78/78 77/77/77
f 80/80/80 79/79/79 77/77/77
f 82/82/82 81/81/81 79/79/79
f 80/80/80 82/82/82 79/79/79
f 78/78/78 84/84/84 83/83/83
f 77/77/77 78/78/78 83/83/83
f 84/84/84 86/86/86 85/85/85
f 83/83/83 84/84/84 85/85/85
f 86/86/86 88/88/88 87/87/87
f 85/85/85 86/86/86 87/87/87
f 88/88/88 81/81/81 82/82/82
f 87/87/87 88/88/88 82/82/82
f 91/91/91 90/90/90 89/89/89
f 92/92/92 91/91/91 89/89/89
f 92/92/92 94/94/94 93/93/93
f 91/91/91 92/92/92 93/93/93
f 94/94/94 96/96/96 95/95/95
f 93/93/93 94/94/94 95/95/95
f 96/96/96 98/98/98 97/97/97
f 95/95/95 96/96/96 97/97/97
f 98/98/98 100/100/100 99/99/99
f 97/97/97 98/98/98 99/99/99
f 100/100/100 89/89/89 90/90/90
f 99/99/99 100/100/100 90/90/90
f 74/74/74 72/72/72 68/68/68
f 68/68/68 76/76/76 74/74/74
f 68/68/68 65/65/65 76/76/76
f 65/65/65 69/69/69 76/76/76
f 77/77/77 83/83/83 85/85/85
f 85/85/85 87/87/87 77/77/77
f 87/87/87 80/80/80 77/77/77
f 87/87/87 82/82/82 80/80/80
