g ReaperTurret_CustomizePart_3_CorpsePart
v 0.42656076 0.097964644 0.3004328
v -0.42656076 0.097964644 0.3004328
v -0.12651682 0.34866524 0.37418604
v 0.12651682 0.34866524 0.37418604
v 0.15000612 0.48477614 0.06396866
v 0.1428006 0.48477614 0.41467333
v 0.13837257 0.34377688 0.08239502
v 0.13837257 0.34377688 0.08239502
v 0.12651682 0.34866524 0.37418604
v -0.12651682 0.34866524 0.37418604
v -0.13837254 0.34377688 0.08239502
v -0.15000612 0.48477614 0.06396866
v 0.15000612 0.48477614 0.06396866
v 0.13837257 0.34377688 0.08239502
v -0.13837254 0.34377688 0.08239502
v -0.13837254 0.34377688 0.08239502
v -0.12651682 0.34866524 0.37418604
v -0.14280063 0.48477614 0.41467333
v 0.40115106 0.48477614 -0.25058153
v -0.40107173 0.48477614 -0.2504387
v -0.42656076 0.097964644 -0.2495023
v 0.42656076 0.097964644 -0.2495023
v 0.42656076 0.097964644 0.3004328
v 0.4006908 0.48477614 0.41476852
v 0.40115106 0.48477614 -0.25058153
v 0.42656076 0.097964644 -0.2495023
v -0.40107173 0.48477614 -0.2504387
v -0.40062732 0.48477614 0.41492724
v -0.42656076 0.097964644 0.3004328
v -0.42656076 0.097964644 -0.2495023
v 0.1428006 0.48477614 0.41467333
v 0.15000612 0.48477614 0.06396866
v 0.4006908 0.48477614 0.41476852
v 0.4006908 0.48477614 0.41476852
v 0.1428006 0.48477614 0.41467333
v -0.15000612 0.48477614 0.06396866
v -0.40062732 0.48477614 0.41492724
v -0.40107173 0.48477614 -0.2504387
v -0.40062732 0.48477614 0.41492724
v -0.14280063 0.48477614 0.41467333
v 0.40115106 0.48477614 -0.25058153
v -0.14280063 0.48477614 0.41467333
v 0.42656076 0.097964644 -0.2495023
v -0.42656076 0.097964644 -0.2495023
v -0.42656076 0.097964644 0.3004328
v 0.42656076 0.097964644 0.3004328
v -0.15000612 0.48477614 0.06396866
v 0.12651682 0.34866524 0.37418604
v 0.47715798 0.3310324 -0.075840265
v 0.42059323 0.33384156 -0.078792274
v 0.42762414 0.2050631 -0.11020127
v 0.4844111 0.20671374 -0.106598526
v 0.43262357 0.11345488 -0.014323711
v 0.48982316 0.117406785 -0.013530135
v 0.48982316 0.117406785 -0.013530135
v 0.43262357 0.11345488 -0.014323711
v 0.43059206 0.1507203 0.11294699
v 0.48785514 0.15387869 0.11016953
v 0.42356113 0.27954638 0.14426076
v 0.48052266 0.2788639 0.14003903
v 0.41857758 0.37105942 0.04839903
v 0.47520584 0.3670916 0.047430933
v 0.5097573 0.292894 -0.03597194
v 0.47715798 0.3310324 -0.075840265
v 0.4844111 0.20671374 -0.106598526
v 0.51577246 0.22166431 -0.05330324
v 0.50801146 0.3134789 0.034384847
v 0.47520584 0.3670916 0.047430933
v 0.48982316 0.117406785 -0.013530135
v 0.5200577 0.17103541 -0.00029361248
v 0.48982316 0.117406785 -0.013530135
v 0.48785514 0.15387869 0.11016953
v 0.51831186 0.19162023 0.070063174
v 0.5200577 0.17103541 -0.00029361248
v 0.48052266 0.2788639 0.14003903
v 0.5122967 0.26284993 0.08741033
v -0.51577246 0.22166431 -0.05330324
v -0.48441112 0.20671374 -0.106598526
v -0.477158 0.3310324 -0.075840265
v -0.5097573 0.292894 -0.03597194
v -0.47520584 0.3670916 0.047430933
v -0.50801146 0.3134789 0.034384847
v -0.5200577 0.17103541 -0.00029361248
v -0.4898231 0.117406785 -0.013530135
v -0.51831186 0.19162023 0.070063174
v -0.4878552 0.15387869 0.11016953
v -0.4898231 0.117406785 -0.013530135
v -0.5200577 0.17103541 -0.00029361248
v -0.5122967 0.26284993 0.08741033
v -0.48052263 0.2788639 0.14003903
v -0.4185776 0.37105942 0.04839903
v -0.47520584 0.3670916 0.047430933
v -0.477158 0.3310324 -0.075840265
v -0.42059326 0.33384156 -0.078792274
v -0.48441112 0.20671374 -0.106598526
v -0.42762417 0.2050631 -0.11020127
v -0.4898231 0.117406785 -0.013530135
v -0.43262357 0.11345488 -0.014323711
v -0.4878552 0.15387869 0.11016953
v -0.43059206 0.1507203 0.11294699
v -0.43262357 0.11345488 -0.014323711
v -0.4898231 0.117406785 -0.013530135
v -0.48052263 0.2788639 0.14003903
v -0.42356116 0.27954638 0.14426076
v 0.51577246 0.22166431 -0.05330324
v 0.5200577 0.17103541 -0.00029361248
v 0.51831186 0.19162023 0.070063174
v 0.5122967 0.26284993 0.08741033
v 0.5097573 0.292894 -0.03597194
v 0.50801146 0.3134789 0.034384847
v -0.51831186 0.19162023 0.070063174
v -0.5200577 0.17103541 -0.00029361248
v -0.51577246 0.22166431 -0.05330324
v -0.5122967 0.26284993 0.08741033
v -0.5097573 0.292894 -0.03597194
v -0.50801146 0.3134789 0.034384847
vt 0.60350686 0.7046497
vt 0.3983313 0.7036864
vt 0.46961296 0.7672619
vt 0.5312619 0.7672619
vt 0.5360783 0.87514764
vt 0.6189191 0.8578089
vt 0.53318846 0.84047014
vt 0.53318846 0.84047014
vt 0.5312619 0.7672619
vt 0.46961296 0.7672619
vt 0.46672314 0.84047014
vt 0.46383336 0.87514764
vt 0.5360783 0.87514764
vt 0.53318846 0.84047014
vt 0.46672314 0.84047014
vt 0.46672314 0.84047014
vt 0.39544153 0.82602113
vt 0.38099253 0.85588235
vt 0.40314764 1.0398661
vt 0.59772724 1.0398661
vt 0.60350686 0.9464293
vt 0.39736804 0.9464293
vt 0.26443744 0.9541354
vt 0.24228232 1.0494987
vt 0.40314764 1.0398661
vt 0.39736804 0.9464293
vt 0.59772724 1.0398661
vt 0.7576293 1.050462
vt 0.73643744 0.9550987
vt 0.60350686 0.9464293
vt 0.46575987 1.2007314
vt 0.46383336 1.115964
vt 0.40314764 1.2007314
vt 0.59772724 0.8009762
vt 0.535115 0.8019395
vt 0.5360783 1.115964
vt 0.59676397 1.2007314
vt 0.59772724 1.0398661
vt 0.40218437 0.8009762
vt 0.4647966 0.8009762
vt 0.40314764 1.0398661
vt 0.535115 1.2007314
vt 0.60350686 0.5717191
vt 0.3983313 0.5717191
vt 0.3983313 0.7036864
vt 0.60350686 0.7046497
vt 0.46383336 0.87514764
vt 0.60543334 0.8269844
vt 0.3203068 0.2759966
vt 0.32993948 0.284666
vt 0.33860886 0.24709864
vt 0.32512313 0.24806191
vt 0.31934357 0.21531089
vt 0.30585784 0.223017
vt 0.27118027 0.21916395
vt 0.2567313 0.21531089
vt 0.24902517 0.24902517
vt 0.26347417 0.24709864
vt 0.25962108 0.284666
vt 0.26925376 0.27503335
vt 0.29526192 0.30200475
vt 0.29429865 0.28948233
vt 0.30874762 0.26636395
vt 0.3203068 0.2759966
vt 0.32512313 0.24806191
vt 0.31067416 0.24998844
vt 0.29429865 0.27407008
vt 0.29429865 0.28948233
vt 0.30585784 0.223017
vt 0.2981517 0.23842925
vt 0.27118027 0.21916395
vt 0.26347417 0.24709864
vt 0.2788864 0.24709864
vt 0.28273946 0.22975987
vt 0.26925376 0.27503335
vt 0.28081292 0.26540068
vt 0.28659254 0.24806191
vt 0.27118027 0.24806191
vt 0.2788864 0.27695987
vt 0.28948233 0.26636395
vt 0.30489457 0.28948233
vt 0.3039313 0.27503335
vt 0.29140884 0.22975987
vt 0.2788864 0.21916395
vt 0.31934357 0.24998844
vt 0.33379254 0.24709864
vt 0.3145272 0.223017
vt 0.3068211 0.23939252
vt 0.3183803 0.26636395
vt 0.32993948 0.2759966
vt 0.30489457 0.30200475
vt 0.30489457 0.28948233
vt 0.2788864 0.27695987
vt 0.270217 0.28659254
vt 0.27118027 0.24806191
vt 0.25769457 0.2509517
vt 0.2788864 0.21916395
vt 0.26347417 0.21627416
vt 0.33379254 0.24709864
vt 0.34727824 0.24613538
vt 0.32801294 0.21531089
vt 0.3145272 0.223017
vt 0.32993948 0.2759966
vt 0.33957213 0.284666
vt 0.31067416 0.24998844
vt 0.2981517 0.23842925
vt 0.2788864 0.24709864
vt 0.28081292 0.26540068
vt 0.30874762 0.26636395
vt 0.29429865 0.27407008
vt 0.31934357 0.24998844
vt 0.3068211 0.23939252
vt 0.28659254 0.24806191
vt 0.3183803 0.26636395
vt 0.28948233 0.26636395
vt 0.3039313 0.27503335
vn -0.003921509 -0.28627235 0.95814025
vn 0.0039215684 -0.28627235 0.95814025
vn 0.0039215684 -0.28627235 0.95814025
vn -0.003921509 -0.28627235 0.95814025
vn -0.9966261 0.08207507 -0
vn -0.99214923 0.11372459 -0.052025177
vn -0.99214923 0.0901953 -0.086629726
vn -0.003921509 0.99999225 -0.00034526698
vn -0.003921509 0.99999225 -0.00034526698
vn -0.003921509 0.99999225 -0.00034526698
vn -0.003921509 0.99999225 -0.00034526698
vn -0.003921509 0.12941074 0.99158335
vn -0.003921509 0.12941074 0.99158335
vn -0.003921509 0.12941074 0.99158335
vn -0.003921509 0.12941074 0.99158335
vn 0.9921493 0.0901953 -0.08662903
vn 0.99160045 0.12933916 -0
vn 0.9921493 0.11372459 -0.05202403
vn -0.003921509 -0.0039215684 -0.9999846
vn -0.003921509 -0.0039215684 -0.9999846
vn -0.003921509 -0.0039215684 -0.9999846
vn -0.003921509 -0.0039215684 -0.9999846
vn 0.9977852 0.066518985 -0
vn 0.9977852 0.066518985 -0
vn 0.9977852 0.066518985 -0
vn 0.9977852 0.066518985 -0
vn -0.9977852 0.06651899 -0
vn -0.9977852 0.06651899 -0
vn -0.9977852 0.06651899 -0
vn -0.9977852 0.06651899 -0
vn -0.003921509 0.99999225 -0.00034526698
vn -0.003921509 0.99999225 -0.00034526698
vn -0.003921509 0.99999225 -0.00034526698
vn -0.003921509 -0.28627235 0.95814025
vn -0.003921509 -0.28627235 0.95814025
vn -0.003921509 0.99999225 -0.00034526698
vn -0.003921509 0.99999225 -0.00034526698
vn -0.003921509 0.99999225 -0.00034526698
vn 0.0039215684 -0.28627235 0.95814025
vn 0.0039215684 -0.28627235 0.95814025
vn -0.003921509 0.99999225 -0.00034526698
vn -0.003921509 0.99999225 -0.00034526698
vn -0.003921509 -0.9999924 -0
vn -0.003921509 -0.9999924 -0
vn -0.003921509 -0.9999924 -0
vn -0.003921509 -0.9999924 -0
vn 0.9966261 0.08207506 -0
vn -0.9916004 0.12933916 -0
vn 0.066666186 0.67842615 -0.7316376
vn 0.066666186 0.7019553 -0.7090941
vn 0.066666186 -0.26274312 -0.96256
vn 0.066666186 -0.29411542 -0.9534421
vn 0.07450926 -0.96862006 -0.23711498
vn 0.07450926 -0.96862006 -0.23711498
vn 0.07450926 -0.96862006 -0.23711498
vn 0.07450926 -0.96862006 -0.23711498
vn 0.07450926 -0.6784262 0.73088044
vn 0.07450926 -0.69411236 0.71600026
vn 0.07450926 0.2941153 0.95286125
vn 0.07450926 0.27058613 0.95980805
vn 0.07450926 0.96861994 0.23711547
vn 0.07450926 0.96861994 0.23711547
vn 0.858817 0.3803892 -0.34312892
vn 0.858817 0.3803892 -0.34312892
vn 0.86666006 -0.08235234 -0.49205533
vn 0.86666006 -0.098038495 -0.48917156
vn 0.858817 0.50587845 0.08074894
vn 0.858817 0.50587845 0.08074894
vn 0.8823462 -0.45882004 -0.10463911
vn 0.8823462 -0.45882004 -0.10463911
vn 0.8823462 -0.45882004 -0.10463911
vn 0.87450314 -0.3019585 0.3795594
vn 0.87450314 -0.30980158 0.3731853
vn 0.8823462 -0.45882004 -0.10463911
vn 0.86666006 0.19215536 0.46040925
vn 0.86666006 0.18431222 0.46360475
vn -0.86666 -0.098038495 -0.48917168
vn -0.86666 -0.08235234 -0.49205545
vn -0.85881686 0.3803892 -0.3431292
vn -0.85881686 0.3803892 -0.3431292
vn -0.85881686 0.50587845 0.08075004
vn -0.85881686 0.50587845 0.08075004
vn -0.88234615 -0.45882004 -0.10463968
vn -0.88234615 -0.45882004 -0.10463968
vn -0.874503 -0.30980158 0.37318555
vn -0.874503 -0.3019585 0.37955964
vn -0.88234615 -0.45882004 -0.10463968
vn -0.88234615 -0.45882004 -0.10463968
vn -0.86666 0.18431222 0.46360487
vn -0.86666 0.19215536 0.46040937
vn -0.074509144 0.96861994 0.23711547
vn -0.074509144 0.96861994 0.23711547
vn -0.066666126 0.67842615 -0.7316376
vn -0.066666126 0.7019553 -0.7090941
vn -0.066666126 -0.29411542 -0.9534421
vn -0.066666126 -0.26274312 -0.96256
vn -0.074509144 -0.96862006 -0.23711498
vn -0.074509144 -0.96862006 -0.23711498
vn -0.074509144 -0.69411236 0.71600026
vn -0.074509144 -0.6784262 0.73088044
vn -0.074509144 -0.96862006 -0.23711498
vn -0.074509144 -0.96862006 -0.23711498
vn -0.074509144 0.27058613 0.95980805
vn -0.074509144 0.2941153 0.95286125
vn 0.9966261 0.08207506 -0
vn 0.9966261 0.08207506 -0
vn 0.9966261 0.08207506 -0
vn 0.9966261 0.08207506 -0
vn 0.9966261 0.08207506 -0
vn 0.9966261 0.08207506 -0
vn -0.9966261 0.08207507 -0
vn -0.9966261 0.08207507 -0
vn -0.9966261 0.08207507 -0
vn -0.9966261 0.08207507 -0
vn -0.9966261 0.08207507 -0
vn -0.9966261 0.08207507 -0
g ReaperTurret_CustomizePart_3_CorpsePart_0
f 3/3/3 2/2/2 1/1/1
f 4/4/4 3/3/3 1/1/1
f 7/7/7 6/6/6 5/5/5
f 10/10/10 9/9/9 8/8/8
f 11/11/11 10/10/10 8/8/8
f 14/14/14 13/13/13 12/12/12
f 15/15/15 14/14/14 12/12/12
f 18/18/18 17/17/17 16/16/16
f 21/21/21 20/20/20 19/19/19
f 22/22/22 21/21/21 19/19/19
f 25/25/25 24/24/24 23/23/23
f 26/26/26 25/25/25 23/23/23
f 29/29/29 28/28/28 27/27/27
f 30/30/30 29/29/29 27/27/27
f 33/33/33 32/32/32 31/31/31
f 4/4/4 1/1/1 34/34/34
f 35/35/35 4/4/4 34/34/34
f 38/38/38 37/37/37 36/36/36
f 3/3/3 40/40/40 39/39/39
f 2/2/2 3/3/3 39/39/39
f 32/32/32 41/41/41 38/38/38
f 36/36/36 32/32/32 38/38/38
f 33/33/33 41/41/41 32/32/32
f 42/42/42 36/36/36 37/37/37
f 45/45/45 44/44/44 43/43/43
f 46/46/46 45/45/45 43/43/43
f 16/16/16 47/47/47 18/18/18
f 7/7/7 48/48/48 6/6/6
f 51/51/51 50/50/50 49/49/49
f 52/52/52 51/51/51 49/49/49
f 53/53/53 51/51/51 52/52/52
f 54/54/54 53/53/53 52/52/52
f 57/57/57 56/56/56 55/55/55
f 58/58/58 57/57/57 55/55/55
f 59/59/59 57/57/57 58/58/58
f 60/60/60 59/59/59 58/58/58
f 61/61/61 59/59/59 60/60/60
f 62/62/62 61/61/61 60/60/60
f 62/62/62 49/49/49 50/50/50
f 61/61/61 62/62/62 50/50/50
f 65/65/65 64/64/64 63/63/63
f 66/66/66 65/65/65 63/63/63
f 64/64/64 68/68/68 67/67/67
f 63/63/63 64/64/64 67/67/67
f 70/70/70 69/69/69 65/65/65
f 66/66/66 70/70/70 65/65/65
f 73/73/73 72/72/72 71/71/71
f 74/74/74 73/73/73 71/71/71
f 76/76/76 75/75/75 72/72/72
f 73/73/73 76/76/76 72/72/72
f 67/67/67 68/68/68 75/75/75
f 76/76/76 67/67/67 75/75/75
f 79/79/79 78/78/78 77/77/77
f 80/80/80 79/79/79 77/77/77
f 82/82/82 81/81/81 79/79/79
f 80/80/80 82/82/82 79/79/79
f 78/78/78 84/84/84 83/83/83
f 77/77/77 78/78/78 83/83/83
f 87/87/87 86/86/86 85/85/85
f 88/88/88 87/87/87 85/85/85
f 86/86/86 90/90/90 89/89/89
f 85/85/85 86/86/86 89/89/89
f 90/90/90 81/81/81 82/82/82
f 89/89/89 90/90/90 82/82/82
f 93/93/93 92/92/92 91/91/91
f 94/94/94 93/93/93 91/91/91
f 94/94/94 96/96/96 95/95/95
f 93/93/93 94/94/94 95/95/95
f 96/96/96 98/98/98 97/97/97
f 95/95/95 96/96/96 97/97/97
f 101/101/101 100/100/100 99/99/99
f 102/102/102 101/101/101 99/99/99
f 100/100/100 104/104/104 103/103/103
f 99/99/99 100/100/100 103/103/103
f 104/104/104 91/91/91 92/92/92
f 103/103/103 104/104/104 92/92/92
f 107/107/107 106/106/106 105/105/105
f 105/105/105 108/108/108 107/107/107
f 105/105/105 109/109/109 108/108/108
f 109/109/109 110/110/110 108/108/108
f 113/113/113 112/112/112 111/111/111
f 111/111/111 114/114/114 113/113/113
f 114/114/114 115/115/115 113/113/113
f 114/114/114 116/116/116 115/115/115
