g ReaperTurret_02_CorpsePart
v 0.2803421 0.24682343 0.057675213
v -0.28034633 0.24682343 0.057675213
v -0.24018216 0.20096672 1.603809
v 0.2500968 0.20096672 1.603809
v 0.25906688 0.4971236 0.06923282
v 0.2803421 0.24682343 0.057675213
v 0.2500968 0.20096672 1.603809
v 0.23054658 0.48254716 1.4199508
v -0.28034633 0.24682343 0.057675213
v -0.25904232 0.4971236 0.06923282
v -0.23032075 0.48254716 1.4199508
v -0.24018216 0.20096672 1.603809
v -0.24018216 0.20096672 1.603809
v -0.10212317 0.31645668 1.5278507
v 0.1052815 0.31769294 1.5272182
v 0.2500968 0.20096672 1.603809
v -0.10885075 0.3836174 0.057675213
v 0.108846545 0.3836174 0.057675213
v 0.1052815 0.31769294 1.5272182
v -0.10212317 0.31645668 1.5278507
v -0.11609581 0.48142594 1.4195195
v -0.11997712 0.4971236 0.06923282
v -0.10885075 0.3836174 0.057675213
v -0.10212317 0.31645668 1.5278507
v 0.11695413 0.48125345 1.419577
v 0.1052815 0.31769294 1.5272182
v 0.108846545 0.3836174 0.057675213
v 0.12000166 0.4971236 0.06923282
v 0.23054658 0.48254716 1.4199508
v 0.11695413 0.48125345 1.419577
v 0.12000166 0.4971236 0.06923282
v 0.25906688 0.4971236 0.06923282
v 0.23054658 0.48254716 1.4199508
v 0.11695413 0.48125345 1.419577
v -0.23032075 0.48254716 1.4199508
v -0.25904232 0.4971236 0.06923282
v -0.11997712 0.4971236 0.06923282
v -0.11609581 0.48142594 1.4195195
v -0.23032075 0.48254716 1.4199508
v -0.11609581 0.48142594 1.4195195
v -0.28034633 0.24682343 0.057675213
v -0.10885075 0.3836174 0.057675213
v -0.11997712 0.4971236 0.06923282
v -0.25904232 0.4971236 0.06923282
v 0.2803421 0.24682343 0.057675213
v 0.25906688 0.4971236 0.06923282
v 0.12000166 0.4971236 0.06923282
v 0.108846545 0.3836174 0.057675213
v -0.28034633 0.24682343 0.057675213
v 0.2803421 0.24682343 0.057675213
v 0.108846545 0.3836174 0.057675213
v -0.10885075 0.3836174 0.057675213
vt 0.860734 0.9668003
vt 0.95296556 0.9668003
vt 0.9465093 0.74821156
vt 0.8644233 0.74821156
vt 0.029728007 0.091523126
vt 0.029728007 0.024194114
vt 0.35253832 0.0232718
vt 0.3027333 0.093367755
vt 0.029728007 0.024194114
vt 0.029728007 0.09060081
vt 0.3027333 0.093367755
vt 0.35253832 0.0232718
vt 0.031572636 0.29258785
vt 0.062009037 0.32302424
vt 0.11550332 0.32394657
vt 0.14501742 0.29258785
vt 0.34054822 0.20957947
vt 0.34054822 0.1570075
vt 0.031572636 0.1570075
vt 0.031572636 0.21050179
vt 0.06662062 0.2603068
vt 0.33409202 0.2603068
vt 0.33409202 0.22618115
vt 0.030650321 0.22618115
vt 0.06662062 0.2603068
vt 0.030650321 0.22618115
vt 0.33409202 0.22618115
vt 0.33409202 0.2603068
vt 0.14317277 0.37651852
vt 0.11550332 0.37282926
vt 0.30365562 0.14040583
vt 0.3027333 0.11181406
vt 0.029728007 0.11181406
vt 0.029728007 0.14040583
vt 0.029728007 0.14040583
vt 0.3027333 0.14040583
vt 0.30365562 0.11181406
vt 0.029728007 0.11181406
vt 0.033417266 0.37651852
vt 0.06108672 0.37282926
vt 0.94189775 0.9188399
vt 0.9197622 0.9363639
vt 0.92160684 0.9511209
vt 0.9391308 0.9511209
vt 0.86995715 0.91791755
vt 0.8718018 0.9501986
vt 0.8902481 0.9501986
vt 0.8911704 0.93544155
vt 0.94189775 0.9188399
vt 0.86995715 0.91791755
vt 0.8911704 0.93544155
vt 0.9197622 0.9363639
vn 0.003737092 -0.99956053 -0.029407546
vn 0.003737092 -0.99956053 -0.029407546
vn 0.003737092 -0.99956053 -0.029407546
vn 0.003737092 -0.99956053 -0.029407546
vn 0.9966099 0.08227172 -0
vn 0.9966099 0.08227172 -0
vn 0.9966099 0.08227172 -0
vn 0.9966099 0.08227172 -0
vn -0.9977739 0.06668913 -0
vn -0.9977739 0.06668913 -0
vn -0.9977739 0.06668913 -0
vn -0.9977739 0.06668913 -0
vn -0.004104078 0.545142 0.83833367
vn -0.004104078 0.545142 0.83833367
vn -0.004104078 0.545142 0.83833367
vn -0.004104078 0.545142 0.83833367
vn -0.004104078 0.99992746 0.011322968
vn -0.004104078 0.99992746 0.011322968
vn -0.004104078 0.99992746 0.011322968
vn -0.004104078 0.99992746 0.011322968
vn 0.9959391 0.09002916 -0
vn 0.9959391 0.09002916 -0
vn 0.9959391 0.09002916 -0
vn 0.9959391 0.09002916 -0
vn -0.9966124 0.08224174 -0
vn -0.9966124 0.08224174 -0
vn -0.9966124 0.08224174 -0
vn -0.9966124 0.08224174 -0
vn -0.004104078 0.545142 0.83833367
vn -0.004104078 0.545142 0.83833367
vn -0.004104078 0.99992746 0.011322968
vn -0.004104078 0.99992746 0.011322968
vn -0.004104078 0.99992746 0.011322968
vn -0.004104078 0.99992746 0.011322968
vn 0.003737092 0.99992746 0.01145121
vn 0.003737092 0.99992746 0.01145121
vn 0.003737092 0.99992746 0.01145121
vn 0.003737092 0.99992746 0.01145121
vn 0.003737092 0.545142 0.8383354
vn 0.003737092 0.545142 0.8383354
vn -0.027627409 0.06683308 -0.99738157
vn -0.027627409 0.06683308 -0.99738157
vn -0.027627409 0.06683308 -0.99738157
vn -0.027627409 0.06683308 -0.99738157
vn 0.027260482 0.06683308 -0.9973917
vn 0.027260482 0.06683308 -0.9973917
vn 0.027260482 0.06683308 -0.9973917
vn 0.027260482 0.06683308 -0.9973917
vn 0.003737092 -0.003737092 -0.99998605
vn 0.003737092 -0.003737092 -0.99998605
vn 0.003737092 -0.003737092 -0.99998605
vn 0.003737092 -0.003737092 -0.99998605
g ReaperTurret_02_CorpsePart_0
f 3/3/3 2/2/2 1/1/1
f 4/4/4 3/3/3 1/1/1
f 7/7/7 6/6/6 5/5/5
f 8/8/8 7/7/7 5/5/5
f 11/11/11 10/10/10 9/9/9
f 12/12/12 11/11/11 9/9/9
f 15/15/15 14/14/14 13/13/13
f 16/16/16 15/15/15 13/13/13
f 19/19/19 18/18/18 17/17/17
f 20/20/20 19/19/19 17/17/17
f 23/23/23 22/22/22 21/21/21
f 24/24/24 23/23/23 21/21/21
f 27/27/27 26/26/26 25/25/25
f 28/28/28 27/27/27 25/25/25
f 15/15/15 16/16/16 29/29/29
f 30/30/30 15/15/15 29/29/29
f 33/33/33 32/32/32 31/31/31
f 34/34/34 33/33/33 31/31/31
f 37/37/37 36/36/36 35/35/35
f 38/38/38 37/37/37 35/35/35
f 39/39/39 13/13/13 14/14/14
f 40/40/40 39/39/39 14/14/14
f 43/43/43 42/42/42 41/41/41
f 44/44/44 43/43/43 41/41/41
f 47/47/47 46/46/46 45/45/45
f 48/48/48 47/47/47 45/45/45
f 51/51/51 50/50/50 49/49/49
f 52/52/52 51/51/51 49/49/49
