g RoboShassis_01_CorpsePart
v 0.3284274 0.48325753 -0.2875355
v 0.32812062 0.16229379 -0.286561
v 0.43865153 0.16229379 -0.13441631
v 0.43968016 0.48325753 -0.13441631
v 0.43968016 0.48325753 -0.13441631
v 0.43865153 0.16229379 -0.13441631
v 0.32812062 0.16229379 0.017728388
v 0.3284274 0.48325753 0.018720865
v 0.3284274 0.48325753 0.018720865
v 0.32812062 0.16229379 0.017728388
v 0.14925003 0.16229379 -0.040379316
v 0.14841992 0.48325753 -0.039783806
v 0.14841992 0.48325753 -0.039783806
v 0.14925003 0.16229379 -0.040379316
v 0.14925003 0.16229379 -0.22845331
v 0.14841992 0.48325753 -0.22904882
v 0.14841992 0.48325753 -0.22904882
v 0.3284274 0.48325753 -0.2875355
v 0.43968016 0.48325753 -0.13441631
v 0.14841992 0.48325753 -0.039783806
v 0.3284274 0.48325753 0.018720865
v 0.14925003 0.16229379 -0.22845331
v 0.32812062 0.16229379 -0.286561
v 0.3284274 0.48325753 -0.2875355
v 0.14841992 0.48325753 -0.22904882
v 0.43865153 0.16229379 -0.13441631
v 0.32812062 0.16229379 -0.286561
v 0.14925003 0.16229379 -0.22845331
v 0.14925003 0.16229379 -0.040379316
v 0.32812062 0.16229379 0.017728388
v 0.52801466 0.35493338 -0.23971394
v 0.38875473 0.35493338 -0.23971394
v 0.38875473 0.23113877 -0.19948971
v 0.52801466 0.23113877 -0.19948971
v 0.52801466 0.23113877 -0.19948971
v 0.38875473 0.23113877 -0.19948971
v 0.38875473 0.23113877 -0.06934294
v 0.52801466 0.23113877 -0.06934294
v 0.52801466 0.23113877 -0.06934294
v 0.38875473 0.23113877 -0.06934294
v 0.38875473 0.35491532 -0.029118687
v 0.52801466 0.35491532 -0.029118687
v 0.52801466 0.35491532 -0.029118687
v 0.38875473 0.35491532 -0.029118687
v 0.38875473 0.4314298 -0.13441631
v 0.52801466 0.4314298 -0.13441631
v 0.52801466 0.4314298 -0.13441631
v 0.38875473 0.4314298 -0.13441631
v 0.38875473 0.35493338 -0.23971394
v 0.52801466 0.35493338 -0.23971394
v -0.43877447 0.16229379 -0.13441631
v -0.3281533 0.16229379 -0.2866873
v -0.3284601 0.48325753 -0.2876618
v -0.43980306 0.48325753 -0.13441631
v -0.3281533 0.16229379 0.01785469
v -0.43877447 0.16229379 -0.13441631
v -0.43980306 0.48325753 -0.13441631
v -0.3284601 0.48325753 0.018829167
v -0.14915639 0.16229379 -0.040307134
v -0.3281533 0.16229379 0.01785469
v -0.3284601 0.48325753 0.018829167
v -0.14832628 0.48325753 -0.039711624
v -0.14915639 0.16229379 -0.22852549
v -0.14915639 0.16229379 -0.040307134
v -0.14832628 0.48325753 -0.039711624
v -0.14832628 0.48325753 -0.229121
v -0.43980306 0.48325753 -0.13441631
v -0.3284601 0.48325753 -0.2876618
v -0.14832628 0.48325753 -0.229121
v -0.14832628 0.48325753 -0.039711624
v -0.3284601 0.48325753 0.018829167
v -0.3284601 0.48325753 -0.2876618
v -0.3281533 0.16229379 -0.2866873
v -0.14915639 0.16229379 -0.22852549
v -0.14832628 0.48325753 -0.229121
v -0.14915639 0.16229379 -0.22852549
v -0.3281533 0.16229379 -0.2866873
v -0.43877447 0.16229379 -0.13441631
v -0.14915639 0.16229379 -0.040307134
v -0.3281533 0.16229379 0.01785469
v -0.5280113 0.35491532 -0.23971394
v -0.5280113 0.23113877 -0.19948971
v -0.38875133 0.23113877 -0.19948971
v -0.38875133 0.35491532 -0.23971394
v -0.5280113 0.23113877 -0.19948971
v -0.5280113 0.23113877 -0.06934294
v -0.38875133 0.23113877 -0.06934294
v -0.38875133 0.23113877 -0.19948971
v -0.5280113 0.23113877 -0.06934294
v -0.5280113 0.35491532 -0.029118687
v -0.38875133 0.35491532 -0.029118687
v -0.38875133 0.23113877 -0.06934294
v -0.5280113 0.35491532 -0.029118687
v -0.5280113 0.4314298 -0.13441631
v -0.38875133 0.43141174 -0.13441631
v -0.38875133 0.35491532 -0.029118687
v -0.5280113 0.4314298 -0.13441631
v -0.5280113 0.35491532 -0.23971394
v -0.38875133 0.35491532 -0.23971394
v -0.38875133 0.43141174 -0.13441631
v -0.41170567 0.4210354 0.44875383
v 0.4141994 0.4210354 0.44875383
v 0.44707894 0.27800387 0.34091175
v -0.4445852 0.27800387 0.34091175
v 0.3379917 0.654621 0.3588674
v 0.4141994 0.4210354 0.44875383
v -0.41170567 0.4210354 0.44875383
v -0.33549798 0.654621 0.3588674
v 0.3379917 0.654621 0.04885745
v 0.44711506 0.27802193 0.049795866
v 0.44707894 0.27800387 0.34091175
v 0.3379917 0.654621 0.3588674
v -0.46611392 0.26282728 -0.45081446
v 0.46860766 0.26282728 -0.45081446
v 0.3379917 0.654621 -0.48815134
v -0.33549798 0.654621 -0.48815134
v -0.33549798 0.654621 0.04885745
v 0.3379917 0.654621 0.04885745
v 0.3379917 0.654621 0.3588674
v -0.33549798 0.654621 0.3588674
v -0.46611392 0.26282728 -0.3193323
v 0.46860766 0.26282728 -0.3193323
v 0.46860766 0.26282728 -0.45081446
v -0.46611392 0.26282728 -0.45081446
v -0.46611392 0.26282728 -0.3193323
v -0.33549798 0.654621 -0.3197654
v 0.3379917 0.654621 -0.3197654
v 0.46860766 0.26282728 -0.3193323
v -0.33549798 0.654621 -0.48815134
v 0.3379917 0.654621 -0.48815134
v 0.3379917 0.654621 -0.3197654
v -0.33549798 0.654621 -0.3197654
v 0.3379917 0.654621 -0.3197654
v 0.3379917 0.654621 -0.48815134
v 0.46860766 0.26282728 -0.45081446
v 0.46860766 0.26282728 -0.3193323
v -0.23411632 0.34632552 0.049831927
v 0.23661005 0.34632552 0.049831927
v 0.23653787 0.34623528 -0.3193323
v -0.23404413 0.34623528 -0.3193323
v 0.23661005 0.34632552 0.049831927
v 0.31510955 0.6254951 0.04885745
v 0.3151276 0.62547696 -0.3197654
v 0.23653787 0.34623528 -0.3193323
v -0.31263387 0.62547696 -0.3197654
v 0.3151276 0.62547696 -0.3197654
v 0.31510955 0.6254951 0.04885745
v -0.3126158 0.6254951 0.04885745
v 0.3379917 0.654621 0.04885745
v -0.33549798 0.654621 0.04885745
v -0.44462132 0.27802193 0.049795866
v 0.44711506 0.27802193 0.049795866
v -0.4445852 0.27800387 0.34091175
v 0.44707894 0.27800387 0.34091175
v 0.44711506 0.27802193 0.049795866
v -0.44462132 0.27802193 0.049795866
v -0.4445852 0.27800387 0.34091175
v -0.33549798 0.654621 0.3588674
v -0.41170567 0.4210354 0.44875383
v -0.46611392 0.26282728 -0.45081446
v -0.33549798 0.654621 -0.48815134
v -0.33549798 0.654621 -0.3197654
v -0.46611392 0.26282728 -0.3193323
v -0.23404413 0.34623528 -0.3193323
v -0.31263387 0.62547696 -0.3197654
v -0.3126158 0.6254951 0.04885745
v -0.23411632 0.34632552 0.049831927
v -0.33549798 0.654621 0.04885745
v -0.33549798 0.654621 0.3588674
v -0.4445852 0.27800387 0.34091175
v -0.44462132 0.27802193 0.049795866
v 0.3379917 0.654621 0.3588674
v 0.44707894 0.27800387 0.34091175
v 0.4141994 0.4210354 0.44875383
v 0.52801466 0.23113877 -0.19948971
v 0.52801466 0.23113877 -0.06934294
v 0.52801466 0.35491532 -0.029118687
v 0.52801466 0.35493338 -0.23971394
v 0.52801466 0.4314298 -0.13441631
v -0.5280113 0.35491532 -0.029118687
v -0.5280113 0.23113877 -0.06934294
v -0.5280113 0.23113877 -0.19948971
v -0.5280113 0.35491532 -0.23971394
v -0.5280113 0.4314298 -0.13441631
vt 0.864486 0.6211156
vt 0.8662754 0.61002076
vt 0.8594754 0.61002076
vt 0.8594754 0.6211156
vt 0.8594754 0.6211156
vt 0.8594754 0.61002076
vt 0.85231745 0.61002076
vt 0.85231745 0.6211156
vt 0.85231745 0.6211156
vt 0.85231745 0.61002076
vt 0.84515953 0.61002076
vt 0.84515953 0.6211156
vt 0.84515953 0.6211156
vt 0.84515953 0.61002076
vt 0.83800155 0.61002076
vt 0.83800155 0.6211156
vt 0.83692783 0.60071546
vt 0.8358542 0.60393655
vt 0.8383595 0.6060839
vt 0.8401489 0.60071546
vt 0.8408647 0.60393655
vt 0.83800155 0.61002076
vt 0.832991 0.61002076
vt 0.832991 0.6211156
vt 0.83800155 0.6211156
vt 0.8383595 0.6060839
vt 0.8358542 0.60393655
vt 0.83692783 0.60071546
vt 0.8401489 0.60071546
vt 0.8408647 0.60393655
vt 0.8143803 0.6218314
vt 0.8143803 0.61717874
vt 0.80972767 0.61717874
vt 0.80972767 0.6218314
vt 0.80972767 0.6218314
vt 0.80972767 0.61717874
vt 0.8065065 0.61717874
vt 0.8065065 0.6218314
vt 0.8272646 0.6218314
vt 0.8272646 0.61717874
vt 0.82296985 0.61717874
vt 0.82296985 0.6218314
vt 0.82296985 0.6218314
vt 0.82296985 0.61717874
vt 0.81867504 0.61717874
vt 0.81867504 0.6218314
vt 0.81867504 0.6218314
vt 0.81867504 0.61717874
vt 0.8143803 0.61717874
vt 0.8143803 0.6218314
vt 0.8594754 0.61002076
vt 0.8662754 0.61002076
vt 0.864486 0.6211156
vt 0.8594754 0.6211156
vt 0.85231745 0.61002076
vt 0.8594754 0.61002076
vt 0.8594754 0.6211156
vt 0.85231745 0.6211156
vt 0.84515953 0.61002076
vt 0.85231745 0.61002076
vt 0.85231745 0.6211156
vt 0.84515953 0.6211156
vt 0.83800155 0.61002076
vt 0.84515953 0.61002076
vt 0.84515953 0.6211156
vt 0.83800155 0.6211156
vt 0.8383595 0.6060839
vt 0.8358542 0.60393655
vt 0.83692783 0.60071546
vt 0.8401489 0.60071546
vt 0.8408647 0.60393655
vt 0.832991 0.6211156
vt 0.832991 0.61002076
vt 0.83800155 0.61002076
vt 0.83800155 0.6211156
vt 0.83692783 0.60071546
vt 0.8358542 0.60393655
vt 0.8383595 0.6060839
vt 0.8401489 0.60071546
vt 0.8408647 0.60393655
vt 0.8143803 0.6218314
vt 0.80972767 0.6218314
vt 0.80972767 0.61717874
vt 0.8143803 0.61717874
vt 0.80972767 0.6218314
vt 0.8065065 0.6218314
vt 0.8065065 0.61717874
vt 0.80972767 0.61717874
vt 0.8272646 0.6218314
vt 0.82296985 0.6218314
vt 0.82296985 0.61717874
vt 0.8272646 0.61717874
vt 0.82296985 0.6218314
vt 0.81867504 0.6218314
vt 0.81867504 0.61717874
vt 0.82296985 0.61717874
vt 0.81867504 0.6218314
vt 0.8143803 0.6218314
vt 0.8143803 0.61717874
vt 0.81867504 0.61717874
vt 0.8430121 0.5477466
vt 0.86878073 0.5477466
vt 0.86985445 0.54166234
vt 0.8422963 0.54166234
vt 0.8662754 0.5556204
vt 0.86878073 0.5477466
vt 0.8430121 0.5477466
vt 0.8455174 0.5556204
vt 0.82440144 0.5194727
vt 0.82440144 0.5062305
vt 0.815454 0.5062305
vt 0.81473815 0.5194727
vt 0.83943313 0.54130447
vt 0.8104434 0.54130447
vt 0.8143803 0.55597824
vt 0.8351383 0.55597824
vt 0.84909636 0.51553583
vt 0.86985445 0.51553583
vt 0.86985445 0.5040831
vt 0.84909636 0.5040831
vt 0.83084357 0.5237675
vt 0.84587526 0.5237675
vt 0.84587526 0.5216201
vt 0.83084357 0.5216201
vt 0.8254751 0.55848354
vt 0.8286962 0.56814677
vt 0.84336996 0.56814677
vt 0.8462332 0.55848354
vt 0.8494543 0.53844124
vt 0.8702123 0.53844124
vt 0.8702123 0.5330728
vt 0.8494543 0.5330728
vt 0.83943313 0.5187569
vt 0.8444437 0.5187569
vt 0.84336996 0.5051568
vt 0.83943313 0.5051568
vt 0.8351383 0.5319991
vt 0.8430121 0.5319991
vt 0.8430121 0.5255569
vt 0.8351383 0.5255569
vt 0.82619095 0.50980943
vt 0.82619095 0.5169674
vt 0.8376436 0.5169674
vt 0.8376436 0.50980943
vt 0.85017 0.5302096
vt 0.86985445 0.5302096
vt 0.86985445 0.5180411
vt 0.85017 0.5180411
vt 0.85160166 0.56814677
vt 0.86663336 0.56814677
vt 0.86878073 0.5588414
vt 0.84909636 0.5588414
vt 0.8315594 0.53844124
vt 0.8455174 0.53844124
vt 0.8455174 0.5337886
vt 0.8315594 0.5337886
vt 0.815454 0.5062305
vt 0.81473815 0.5194727
vt 0.811875 0.5112411
vt 0.84336996 0.5051568
vt 0.8444437 0.5187569
vt 0.83943313 0.5187569
vt 0.83943313 0.5051568
vt 0.8376436 0.50766206
vt 0.8376436 0.5144621
vt 0.82619095 0.5144621
vt 0.82619095 0.50766206
vt 0.82440144 0.5194727
vt 0.81473815 0.5194727
vt 0.815454 0.5062305
vt 0.82440144 0.5062305
vt 0.81473815 0.5194727
vt 0.815454 0.5062305
vt 0.811875 0.5112411
vt 0.80972767 0.6218314
vt 0.8065065 0.6218314
vt 0.82296985 0.6218314
vt 0.8143803 0.6218314
vt 0.81867504 0.6218314
vt 0.82296985 0.6218314
vt 0.8272646 0.6218314
vt 0.80972767 0.6218314
vt 0.8143803 0.6218314
vt 0.81867504 0.6218314
vn 0.8117585 -0.0039215684 -0.5839801
vn 0.8117585 -0.0039215684 -0.5839801
vn 0.8117585 -0.0039215684 -0.5839801
vn 0.8117585 -0.0039215684 -0.5839801
vn 0.8117585 -0.0039215684 0.5839801
vn 0.8117585 -0.0039215684 0.5839801
vn 0.8117585 -0.0039215684 0.5839801
vn 0.8117585 -0.0039215684 0.5839801
vn -0.30980146 -0.0039215684 0.9507932
vn -0.30980146 -0.0039215684 0.9507932
vn -0.30980146 -0.0039215684 0.9507932
vn -0.30980146 -0.0039215684 0.9507932
vn -0.99999225 -0.0039215684 -0.00034425134
vn -0.99999225 -0.0039215684 -0.00034425134
vn -0.99999225 -0.0039215684 -0.00034425134
vn -0.99999225 -0.0039215684 -0.00034425134
vn -0.003921509 0.99999225 -0.00034526698
vn -0.003921509 0.99999225 -0.00034526698
vn -0.003921509 0.99999225 -0.00034526698
vn -0.003921509 0.99999225 -0.00034526698
vn -0.003921509 0.99999225 -0.00034526698
vn -0.30980146 -0.0039215684 -0.9507932
vn -0.30980146 -0.0039215684 -0.9507932
vn -0.30980146 -0.0039215684 -0.9507932
vn -0.30980146 -0.0039215684 -0.9507932
vn -0.003921509 -0.9999924 -0
vn -0.003921509 -0.9999924 -0
vn -0.003921509 -0.9999924 -0
vn -0.003921509 -0.9999924 -0
vn -0.003921509 -0.9999924 -0
vn -0.003921509 -0.30980158 -0.95079315
vn -0.003921509 -0.30980158 -0.95079315
vn -0.003921509 -0.30980158 -0.95079315
vn -0.003921509 -0.30980158 -0.95079315
vn -0.003921509 -0.9999924 -0
vn -0.003921509 -0.9999924 -0
vn -0.003921509 -0.9999924 -0
vn -0.003921509 -0.9999924 -0
vn -0.003921509 -0.30980158 0.95079315
vn -0.003921509 -0.30980158 0.95079315
vn -0.003921509 -0.30980158 0.95079315
vn -0.003921509 -0.30980158 0.95079315
vn -0.003921509 0.8117584 0.58398026
vn -0.003921509 0.8117584 0.58398026
vn -0.003921509 0.8117584 0.58398026
vn -0.003921509 0.8117584 0.58398026
vn -0.003921509 0.8117584 -0.58398026
vn -0.003921509 0.8117584 -0.58398026
vn -0.003921509 0.8117584 -0.58398026
vn -0.003921509 0.8117584 -0.58398026
vn -0.8117584 -0.0039215684 -0.58398026
vn -0.8117584 -0.0039215684 -0.58398026
vn -0.8117584 -0.0039215684 -0.58398026
vn -0.8117584 -0.0039215684 -0.58398026
vn -0.8117584 -0.0039215684 0.58398026
vn -0.8117584 -0.0039215684 0.58398026
vn -0.8117584 -0.0039215684 0.58398026
vn -0.8117584 -0.0039215684 0.58398026
vn 0.30980158 -0.0039215684 0.95079315
vn 0.30980158 -0.0039215684 0.95079315
vn 0.30980158 -0.0039215684 0.95079315
vn 0.30980158 -0.0039215684 0.95079315
vn 0.9999924 -0.0039215684 -0
vn 0.9999924 -0.0039215684 -0
vn 0.9999924 -0.0039215684 -0
vn 0.9999924 -0.0039215684 -0
vn -0.003921509 0.99999225 -0.00034526698
vn -0.003921509 0.99999225 -0.00034526698
vn -0.003921509 0.99999225 -0.00034526698
vn -0.003921509 0.99999225 -0.00034526698
vn -0.003921509 0.99999225 -0.00034526698
vn 0.30980158 -0.0039215684 -0.95079315
vn 0.30980158 -0.0039215684 -0.95079315
vn 0.30980158 -0.0039215684 -0.95079315
vn 0.30980158 -0.0039215684 -0.95079315
vn -0.003921509 -0.9999924 -0
vn -0.003921509 -0.9999924 -0
vn -0.003921509 -0.9999924 -0
vn -0.003921509 -0.9999924 -0
vn -0.003921509 -0.9999924 -0
vn -0.003921509 -0.30980158 -0.95079315
vn -0.003921509 -0.30980158 -0.95079315
vn -0.003921509 -0.30980158 -0.95079315
vn -0.003921509 -0.30980158 -0.95079315
vn -0.003921509 -0.9999924 -0
vn -0.003921509 -0.9999924 -0
vn -0.003921509 -0.9999924 -0
vn -0.003921509 -0.9999924 -0
vn -0.003921509 -0.30980158 0.95079315
vn -0.003921509 -0.30980158 0.95079315
vn -0.003921509 -0.30980158 0.95079315
vn -0.003921509 -0.30980158 0.95079315
vn -0.003921509 0.8117584 0.58398026
vn -0.003921509 0.8117584 0.58398026
vn -0.003921509 0.8117584 0.58398026
vn -0.003921509 0.8117584 0.58398026
vn -0.003921509 0.8117584 -0.58398026
vn -0.003921509 0.8117584 -0.58398026
vn -0.003921509 0.8117584 -0.58398026
vn -0.003921509 0.8117584 -0.58398026
vn -0.003921509 -0.59999543 0.7999938
vn -0.003921509 -0.59999543 0.7999938
vn -0.003921509 -0.59999543 0.7999938
vn -0.003921509 -0.59999543 0.7999938
vn -0.003921509 0.35685992 0.9341497
vn -0.003921509 0.35685992 0.9341497
vn -0.003921509 0.35685992 0.9341497
vn -0.003921509 0.35685992 0.9341497
vn 0.9604816 0.27834356 -0
vn 0.9604816 0.27834356 -0
vn 0.9604816 0.27834356 -0
vn 0.9604816 0.27834356 -0
vn -0.003921509 -0.098038495 -0.9951749
vn -0.003921509 -0.098038495 -0.9951749
vn -0.003921509 -0.098038495 -0.9951749
vn -0.003921509 -0.098038495 -0.9951749
vn -0.003921509 0.99999225 -0.00034526698
vn -0.003921509 0.99999225 -0.00034526698
vn -0.003921509 0.99999225 -0.00034526698
vn -0.003921509 0.99999225 -0.00034526698
vn -0.003921509 -0.9999924 -0
vn -0.003921509 -0.9999924 -0
vn -0.003921509 -0.9999924 -0
vn -0.003921509 -0.9999924 -0
vn -0.003921509 0.003921509 0.9999846
vn -0.003921509 0.003921509 0.9999846
vn -0.003921509 0.003921509 0.9999846
vn -0.003921509 0.003921509 0.9999846
vn -0.003921509 0.99999225 -0.00034526698
vn -0.003921509 0.99999225 -0.00034526698
vn -0.003921509 0.99999225 -0.00034526698
vn -0.003921509 0.99999225 -0.00034526698
vn 0.94509083 0.3176446 -0.07684537
vn 0.94509083 0.3176446 -0.07684537
vn 0.94509083 0.3176446 -0.07684537
vn 0.94509083 0.3176446 -0.07684537
vn -0.003921509 -0.9999924 -0
vn -0.003921509 -0.9999924 -0
vn -0.003921509 -0.9999924 -0
vn -0.003921509 -0.9999924 -0
vn 0.960777 -0.2705862 -0.060751047
vn 0.960777 -0.2705862 -0.060751047
vn 0.960777 -0.2705862 -0.060751047
vn 0.960777 -0.2705862 -0.060751047
vn -0.003921509 0.99999225 -0.00034526698
vn -0.003921509 0.99999225 -0.00034526698
vn -0.003921509 0.99999225 -0.00034526698
vn -0.003921509 0.99999225 -0.00034526698
vn -0.003921509 -0.0039215684 -0.9999846
vn -0.003921509 -0.0039215684 -0.9999846
vn -0.003921509 -0.0039215684 -0.9999846
vn -0.003921509 -0.0039215684 -0.9999846
vn -0.003921509 -0.9999924 -0
vn -0.003921509 -0.9999924 -0
vn -0.003921509 -0.9999924 -0
vn -0.003921509 -0.9999924 -0
vn -0.9529338 0.27842915 -0.11997677
vn -0.9529338 0.27842915 -0.11997677
vn -0.9529338 0.27842915 -0.11997677
vn -0.9450908 0.3176446 -0.076846145
vn -0.9450908 0.3176446 -0.076846145
vn -0.9450908 0.3176446 -0.076846145
vn -0.9450908 0.3176446 -0.076846145
vn -0.9607769 -0.2705862 -0.06075203
vn -0.9607769 -0.2705862 -0.06075203
vn -0.9607769 -0.2705862 -0.06075203
vn -0.9607769 -0.2705862 -0.06075203
vn -0.9604815 0.27834356 -0
vn -0.9604815 0.27834356 -0
vn -0.9604815 0.27834356 -0
vn -0.9604815 0.27834356 -0
vn 0.9529339 0.27842915 -0.119975775
vn 0.9529339 0.27842915 -0.119975775
vn 0.9529339 0.27842915 -0.119975775
vn 0.9999924 0.003921509 -0
vn 0.9999924 0.003921509 -0
vn 0.9999924 0.003921509 -0
vn 0.9999924 0.003921509 -0
vn 0.9999924 0.003921509 -0
vn -0.99999225 0.003921509 -0.00034492963
vn -0.99999225 0.003921509 -0.00034492963
vn -0.99999225 0.003921509 -0.00034492963
vn -0.99999225 0.003921509 -0.00034492963
vn -0.99999225 0.003921509 -0.00034492963
g RoboShassis_01_CorpsePart_0
f 3/3/3 2/2/2 1/1/1
f 4/4/4 3/3/3 1/1/1
f 7/7/7 6/6/6 5/5/5
f 8/8/8 7/7/7 5/5/5
f 11/11/11 10/10/10 9/9/9
f 12/12/12 11/11/11 9/9/9
f 15/15/15 14/14/14 13/13/13
f 16/16/16 15/15/15 13/13/13
f 19/19/19 18/18/18 17/17/17
f 17/17/17 20/20/20 19/19/19
f 20/20/20 21/21/21 19/19/19
f 24/24/24 23/23/23 22/22/22
f 25/25/25 24/24/24 22/22/22
f 28/28/28 27/27/27 26/26/26
f 26/26/26 29/29/29 28/28/28
f 26/26/26 30/30/30 29/29/29
f 33/33/33 32/32/32 31/31/31
f 34/34/34 33/33/33 31/31/31
f 37/37/37 36/36/36 35/35/35
f 38/38/38 37/37/37 35/35/35
f 41/41/41 40/40/40 39/39/39
f 42/42/42 41/41/41 39/39/39
f 45/45/45 44/44/44 43/43/43
f 46/46/46 45/45/45 43/43/43
f 49/49/49 48/48/48 47/47/47
f 50/50/50 49/49/49 47/47/47
f 53/53/53 52/52/52 51/51/51
f 54/54/54 53/53/53 51/51/51
f 57/57/57 56/56/56 55/55/55
f 58/58/58 57/57/57 55/55/55
f 61/61/61 60/60/60 59/59/59
f 62/62/62 61/61/61 59/59/59
f 65/65/65 64/64/64 63/63/63
f 66/66/66 65/65/65 63/63/63
f 69/69/69 68/68/68 67/67/67
f 67/67/67 70/70/70 69/69/69
f 67/67/67 71/71/71 70/70/70
f 74/74/74 73/73/73 72/72/72
f 75/75/75 74/74/74 72/72/72
f 78/78/78 77/77/77 76/76/76
f 76/76/76 79/79/79 78/78/78
f 79/79/79 80/80/80 78/78/78
f 83/83/83 82/82/82 81/81/81
f 84/84/84 83/83/83 81/81/81
f 87/87/87 86/86/86 85/85/85
f 88/88/88 87/87/87 85/85/85
f 91/91/91 90/90/90 89/89/89
f 92/92/92 91/91/91 89/89/89
f 95/95/95 94/94/94 93/93/93
f 96/96/96 95/95/95 93/93/93
f 99/99/99 98/98/98 97/97/97
f 100/100/100 99/99/99 97/97/97
f 103/103/103 102/102/102 101/101/101
f 104/104/104 103/103/103 101/101/101
f 107/107/107 106/106/106 105/105/105
f 108/108/108 107/107/107 105/105/105
f 111/111/111 110/110/110 109/109/109
f 112/112/112 111/111/111 109/109/109
f 115/115/115 114/114/114 113/113/113
f 116/116/116 115/115/115 113/113/113
f 119/119/119 118/118/118 117/117/117
f 120/120/120 119/119/119 117/117/117
f 123/123/123 122/122/122 121/121/121
f 124/124/124 123/123/123 121/121/121
f 127/127/127 126/126/126 125/125/125
f 128/128/128 127/127/127 125/125/125
f 131/131/131 130/130/130 129/129/129
f 132/132/132 131/131/131 129/129/129
f 135/135/135 134/134/134 133/133/133
f 136/136/136 135/135/135 133/133/133
f 139/139/139 138/138/138 137/137/137
f 140/140/140 139/139/139 137/137/137
f 143/143/143 142/142/142 141/141/141
f 144/144/144 143/143/143 141/141/141
f 147/147/147 146/146/146 145/145/145
f 148/148/148 147/147/147 145/145/145
f 151/151/151 150/150/150 149/149/149
f 152/152/152 151/151/151 149/149/149
f 155/155/155 154/154/154 153/153/153
f 156/156/156 155/155/155 153/153/153
f 159/159/159 158/158/158 157/157/157
f 162/162/162 161/161/161 160/160/160
f 163/163/163 162/162/162 160/160/160
f 166/166/166 165/165/165 164/164/164
f 167/167/167 166/166/166 164/164/164
f 170/170/170 169/169/169 168/168/168
f 171/171/171 170/170/170 168/168/168
f 174/174/174 173/173/173 172/172/172
f 177/177/177 176/176/176 175/175/175
f 175/175/175 178/178/178 177/177/177
f 178/178/178 179/179/179 177/177/177
f 182/182/182 181/181/181 180/180/180
f 180/180/180 183/183/183 182/182/182
f 180/180/180 184/184/184 183/183/183
