g RoboShassis_DefaultPart_3_CorpsePart
v -0.94421226 -0.6546188 0.46201545
v -0.94421226 -0.5519376 0.4509371
v -0.8110536 -0.5460812 0.51550335
v -0.8110536 -0.6546188 0.527216
v -0.8114684 -0.5621129 -0.32407692
v -0.9445295 -0.5621129 -0.25350797
v -0.9445295 -0.6545456 -0.25350797
v -0.8114684 -0.6545456 -0.32407692
v -0.8114684 -0.6545456 -0.32407692
v -0.9445295 -0.6545456 -0.25350797
v -0.94421226 -0.6546188 0.46201545
v -0.8110536 -0.6546188 0.527216
v -0.56425744 -0.6545456 -0.32419893
v -0.5638426 -0.6546188 0.52709407
v -0.44508082 -0.6546188 0.46055132
v -0.4454468 -0.65457 -0.25370318
v -0.5638426 -0.5460812 0.5153814
v -0.44510525 -0.5530356 0.44957072
v -0.44508082 -0.6546188 0.46055132
v -0.5638426 -0.6546188 0.52709407
v -0.8110048 -0.6546188 0.61188906
v -0.56379384 -0.6546188 0.611767
v -0.44539803 -0.56213737 -0.25362998
v -0.56425744 -0.5621129 -0.32419893
v -0.56425744 -0.6545456 -0.32419893
v -0.4454468 -0.65457 -0.25370318
v -0.4454468 -0.65457 -0.25370318
v -0.44508082 -0.6546188 0.46055132
v -0.44510525 -0.5530356 0.44957072
v -0.44539803 -0.56213737 -0.25362998
v -0.44525164 -0.46667892 0.27756494
v -0.8114684 -0.5621129 -0.32407692
v -0.56425744 -0.5621129 -0.32419893
v -0.44539803 -0.56213737 -0.25362998
v -0.9445295 -0.5621129 -0.25350797
v -0.44525164 -0.46667892 0.27756494
v -0.9443831 -0.4641412 0.27771133
v -0.8110536 -0.5460812 0.51550335
v -0.5638426 -0.5460812 0.5153814
v -0.56379384 -0.6546188 0.611767
v -0.8110048 -0.6546188 0.61188906
v -0.74963516 -0.65452117 -0.6155033
v -0.62635905 -0.65452117 -0.61555207
v -0.62635905 -0.65452117 -0.61555207
v -0.74963516 -0.65452117 -0.6155033
v -0.56425744 -0.6545456 -0.32419893
v -0.56425744 -0.5621129 -0.32419893
v -0.62635905 -0.65452117 -0.61555207
v -0.5638426 -0.6546188 0.52709407
v -0.56379384 -0.6546188 0.611767
v -0.5638426 -0.5460812 0.5153814
v -0.8110536 -0.6546188 0.527216
v -0.8110536 -0.5460812 0.51550335
v -0.8110048 -0.6546188 0.61188906
v -0.9443831 -0.4641412 0.27771133
v -0.44525164 -0.46667892 0.27756494
v -0.74963516 -0.65452117 -0.6155033
v -0.8114684 -0.5621129 -0.32407692
v -0.8114684 -0.6545456 -0.32407692
v -0.94421226 -0.5519376 0.4509371
v -0.94421226 -0.6546188 0.46201545
v -0.9445295 -0.6545456 -0.25350797
v -0.9445295 -0.5621129 -0.25350797
v -0.9443831 -0.4641412 0.27771133
v -0.94421226 -0.5519376 0.4509371
v -0.44510525 -0.5530356 0.44957072
vt 0.7729782 0.5084524
vt 0.7719116 0.51165235
vt 0.76764506 0.5097857
vt 0.76897836 0.50658584
vt 0.758312 0.55538446
vt 0.75857866 0.55858433
vt 0.756712 0.55858433
vt 0.7553787 0.55538446
vt 0.7727116 0.55538446
vt 0.7745782 0.5564511
vt 0.7748449 0.56871736
vt 0.7727116 0.56978405
vt 0.76897836 0.55538446
vt 0.76897836 0.56978405
vt 0.7671117 0.56871736
vt 0.7668451 0.55671775
vt 0.7599119 0.5097857
vt 0.75591207 0.51165235
vt 0.75457877 0.5084524
vt 0.75857866 0.50658584
vt 0.7727116 0.57138395
vt 0.76897836 0.57138395
vt 0.7588453 0.60791624
vt 0.7588453 0.6108495
vt 0.75591207 0.6108495
vt 0.75591207 0.60791624
vt 0.75591207 0.60791624
vt 0.75591207 0.58525026
vt 0.7588453 0.5855169
vt 0.7588453 0.60791624
vt 0.76124525 0.59058344
vt 0.7673784 0.53911823
vt 0.7599119 0.53911823
vt 0.75591207 0.5367183
vt 0.77164495 0.5367183
vt 0.75617874 0.51831883
vt 0.77164495 0.5185855
vt 0.76764506 0.5097857
vt 0.7599119 0.5097857
vt 0.7599119 0.50631917
vt 0.76764506 0.50631917
vt 0.76551175 0.54925126
vt 0.7615119 0.54925126
vt 0.7697783 0.55058455
vt 0.7719116 0.55058455
vt 0.75591207 0.6108495
vt 0.7588453 0.6108495
vt 0.75617874 0.6207159
vt 0.76631176 0.5991165
vt 0.76897836 0.5985832
vt 0.76657844 0.6028497
vt 0.7791114 0.5988499
vt 0.7788447 0.6025831
vt 0.7764448 0.5999165
vt 0.77164495 0.5185855
vt 0.75617874 0.51831883
vt 0.7556454 0.54551804
vt 0.758312 0.55538446
vt 0.7553787 0.55538446
vt 0.758312 0.5809837
vt 0.7553787 0.58125037
vt 0.756712 0.55858433
vt 0.75857866 0.55858433
vt 0.7609786 0.5756505
vt 0.7719116 0.51165235
vt 0.75591207 0.51165235
vn -0.4352907 0.098038435 0.894936
vn -0.4352907 0.098038435 0.894936
vn -0.4352907 0.098038435 0.894936
vn -0.4352907 0.098038435 0.894936
vn -0.466663 0.003921509 -0.8844265
vn -0.466663 0.003921509 -0.8844265
vn -0.466663 0.003921509 -0.8844265
vn -0.466663 0.003921509 -0.8844265
vn -0.003921509 -0.9999924 -0
vn -0.003921509 -0.9999924 -0
vn -0.003921509 -0.9999924 -0
vn -0.003921509 -0.9999924 -0
vn -0.003921509 -0.9999924 -0
vn -0.003921509 -0.9999924 -0
vn -0.003921509 -0.9999924 -0
vn -0.003921509 -0.9999924 -0
vn 0.49019235 0.0901953 0.86693496
vn 0.49019235 0.0901953 0.86693496
vn 0.49019235 0.0901953 0.86693496
vn 0.49019235 0.0901953 0.86693496
vn -0.003921509 -0.9999924 -0
vn -0.003921509 -0.9999924 -0
vn 0.5137216 0.003921509 -0.857948
vn 0.5137216 0.003921509 -0.857948
vn 0.5137216 0.003921509 -0.857948
vn 0.5137216 0.003921509 -0.857948
vn 0.9999924 0.003921509 -0
vn 0.9999924 0.003921509 -0
vn 0.9999924 0.003921509 -0
vn 0.9999924 0.003921509 -0
vn 0.9999924 0.003921509 -0
vn 0.0039215684 0.9843061 -0.17642602
vn 0.0039215684 0.9843061 -0.17642602
vn 0.0039215684 0.9843061 -0.17642602
vn 0.0039215684 0.9843061 -0.17642602
vn 0.0039215684 0.9843061 -0.17642602
vn 0.0039215684 0.9843061 -0.17642602
vn -0.019607663 0.8431307 0.5373511
vn 0.019607723 0.874503 0.48462358
vn 0.0039215684 0.66274 0.7488393
vn 0.0039215684 0.66274 0.7488393
vn -0.003921509 0.9529338 -0.30315316
vn -0.003921509 0.9529338 -0.30315316
vn -0.003921509 -0.9999924 -0
vn -0.003921509 -0.9999924 -0
vn 0.97646314 0.003921509 -0.21564874
vn 0.97646314 0.003921509 -0.21564874
vn 0.97646314 0.003921509 -0.21564874
vn 0.9999924 0.003921509 -0
vn 0.9999924 0.003921509 -0
vn 0.9999924 0.003921509 -0
vn -0.99999225 0.003921509 -0.00034492963
vn -0.99999225 0.003921509 -0.00034492963
vn -0.99999225 0.003921509 -0.00034492963
vn -0.02745068 0.9450908 0.32565302
vn 0.0274508 0.9450908 0.32565302
vn -0.9764631 0.003921509 -0.21564901
vn -0.9764631 0.003921509 -0.21564901
vn -0.9764631 0.003921509 -0.21564901
vn -0.99999225 -0.0039215684 -0.00034425134
vn -0.99999225 -0.0039215684 -0.00034425134
vn -0.99999225 -0.0039215684 -0.00034425134
vn -0.99999225 -0.0039215684 -0.00034425134
vn -0.99999225 -0.0039215684 -0.00034425134
vn -0.24705684 0.86666 0.43343213
vn 0.28627235 0.85881686 0.42483142
g RoboShassis_DefaultPart_3_CorpsePart_0
f 3/3/3 2/2/2 1/1/1
f 4/4/4 3/3/3 1/1/1
f 7/7/7 6/6/6 5/5/5
f 8/8/8 7/7/7 5/5/5
f 11/11/11 10/10/10 9/9/9
f 12/12/12 11/11/11 9/9/9
f 15/15/15 14/14/14 13/13/13
f 16/16/16 15/15/15 13/13/13
f 9/9/9 13/13/13 14/14/14
f 12/12/12 9/9/9 14/14/14
f 19/19/19 18/18/18 17/17/17
f 20/20/20 19/19/19 17/17/17
f 21/21/21 12/12/12 14/14/14
f 22/22/22 21/21/21 14/14/14
f 25/25/25 24/24/24 23/23/23
f 26/26/26 25/25/25 23/23/23
f 29/29/29 28/28/28 27/27/27
f 27/27/27 30/30/30 29/29/29
f 30/30/30 31/31/31 29/29/29
f 34/34/34 33/33/33 32/32/32
f 32/32/32 35/35/35 34/34/34
f 35/35/35 36/36/36 34/34/34
f 35/35/35 37/37/37 36/36/36
f 40/40/40 39/39/39 38/38/38
f 41/41/41 40/40/40 38/38/38
f 43/43/43 42/42/42 32/32/32
f 33/33/33 43/43/43 32/32/32
f 9/9/9 45/45/45 44/44/44
f 13/13/13 9/9/9 44/44/44
f 48/48/48 47/47/47 46/46/46
f 51/51/51 50/50/50 49/49/49
f 54/54/54 53/53/53 52/52/52
f 39/39/39 56/56/56 55/55/55
f 59/59/59 58/58/58 57/57/57
f 62/62/62 61/61/61 60/60/60
f 60/60/60 63/63/63 62/62/62
f 60/60/60 64/64/64 63/63/63
f 65/65/65 38/38/38 55/55/55
f 38/38/38 39/39/39 55/55/55
f 66/66/66 56/56/56 39/39/39
