g RoboShassis_CustomizePart_1_CorpsePart
v 49.70984 -7.020344 46.374306
v 36.397697 -7.020344 52.901146
v 36.397697 3.8346329 51.726875
v 49.70984 3.2465591 45.26558
v -0.20132446 3.1360626 45.153214
v -0.20132446 -7.020344 46.250694
v -0.20132446 -7.020344 -25.173775
v -0.20132446 2.2258644 -25.173775
v -0.20132446 11.773598 27.945564
v 36.397697 2.2258644 -32.23063
v 36.397697 -7.020344 -32.23063
v 49.70984 -7.020344 -25.173775
v 49.70984 2.2258644 -25.173775
v 49.70984 -7.020344 -25.173775
v 36.397697 -7.020344 -32.23063
v 36.397697 -7.020344 52.901146
v 49.70984 -7.020344 46.374306
v 11.67622 -7.020344 -32.23063
v -0.20132446 -7.020344 -25.173775
v -0.20132446 -7.020344 46.250694
v 11.67622 -7.020344 52.901146
v 11.67622 3.8346329 51.726875
v 11.67622 -7.020344 52.901146
v -0.20132446 -7.020344 46.250694
v -0.20132446 3.1360626 45.153214
v 11.67622 -7.020344 61.368256
v 36.397697 -7.020344 61.368256
v -0.20132446 2.2258644 -25.173775
v -0.20132446 -7.020344 -25.173775
v 11.67622 -7.020344 -32.23063
v 11.67622 2.2258644 -32.23063
v 11.67622 2.2258644 -32.23063
v 36.397697 2.2258644 -32.23063
v 49.70984 2.2258644 -25.173775
v -0.20132446 2.2258644 -25.173775
v -0.20132446 11.773598 27.945564
v 49.70984 12.018944 27.947441
v 11.67622 -7.020344 61.368256
v 11.67622 3.8346329 51.726875
v 36.397697 3.8346329 51.726875
v 36.397697 -7.020344 61.368256
v 17.873447 -7.018471 -61.368263
v 30.200474 -7.018471 -61.368263
v 17.873447 -7.018471 -61.368263
v 30.200474 -7.018471 -61.368263
v 11.67622 -7.020344 -32.23063
v 17.873447 -7.018471 -61.368263
v 11.67622 2.2258644 -32.23063
v 11.67622 -7.020344 52.901146
v 11.67622 3.8346329 51.726875
v 11.67622 -7.020344 61.368256
v 36.397697 -7.020344 52.901146
v 36.397697 -7.020344 61.368256
v 36.397697 3.8346329 51.726875
v -0.20132446 11.773598 27.945564
v 49.70984 12.018944 27.947441
v 36.397697 2.2258644 -32.23063
v 30.200474 -7.018471 -61.368263
v 36.397697 -7.020344 -32.23063
v 49.70984 -7.020344 -25.173775
v 49.70984 -7.020344 46.374306
v 49.70984 3.2465591 45.26558
v 49.70984 2.2258644 -25.173775
v 49.70984 12.018944 27.947441
v 49.70984 3.2465591 45.26558
v -0.20132446 3.1360626 45.153214
vt 0.9123704 0.15790373
vt 0.87675583 0.1419709
vt 0.8655091 0.167276
vt 0.9020609 0.18320882
vt 0.7380464 0.19445553
vt 0.71086687 0.19632998
vt 0.7436698 0.379089
vt 0.77084935 0.37721455
vt 0.77084935 0.23381901
vt 0.8673836 0.39595905
vt 0.8805047 0.41751525
vt 0.9123704 0.4006452
vt 0.9011237 0.37721455
vt 0.9254916 0.38190067
vt 0.9554828 0.40626854
vt 0.9985952 0.18508328
vt 0.9601689 0.19632998
vt 1.0201514 0.41845247
vt 1.0538914 0.4053313
vt 1.0885688 0.2188234
vt 1.0613892 0.19539276
vt 0.8017778 0.167276
vt 0.78771937 0.1419709
vt 0.75772816 0.15790373
vt 0.7699121 0.1822716
vt 1.0651381 0.1747738
vt 1.0023441 0.1635271
vt 0.77084935 0.37721455
vt 0.75679094 0.4006452
vt 0.78771937 0.41845247
vt 0.8017778 0.39595905
vt 0.8017778 0.39595905
vt 0.8673836 0.39595905
vt 0.9011237 0.37721455
vt 0.77084935 0.37721455
vt 0.77084935 0.23381901
vt 0.9011237 0.23381901
vt 0.8017778 0.12978697
vt 0.8017778 0.167276
vt 0.8655091 0.167276
vt 0.8655091 0.12978697
vt 0.8167734 0.47843492
vt 0.8505135 0.47656047
vt 0.9892229 0.49155608
vt 0.9592317 0.48499548
vt 0.77834713 0.4090802
vt 0.8167734 0.47843492
vt 0.8017778 0.39595905
vt 0.7849077 0.14290813
vt 0.8017778 0.167276
vt 0.8017778 0.12978697
vt 0.88144195 0.14384535
vt 0.8655091 0.12978697
vt 0.8655091 0.167276
vt 0.77084935 0.23381901
vt 0.9011237 0.23381901
vt 0.8673836 0.39595905
vt 0.8505135 0.47656047
vt 0.8870653 0.4090802
vt 0.9254916 0.38190067
vt 0.9601689 0.19632998
vt 0.93298936 0.19445553
vt 0.9011237 0.37721455
vt 0.9020609 0.23381901
vt 0.9020609 0.18320882
vt 0.7699121 0.1822716
vn 0.4352908 0.098038435 0.89493597
vn 0.4352908 0.098038435 0.89493597
vn 0.4352908 0.098038435 0.89493597
vn 0.4352908 0.098038435 0.89493597
vn -0.99999225 0.003921509 -0.00034492963
vn -0.99999225 0.003921509 -0.00034492963
vn -0.99999225 0.003921509 -0.00034492963
vn -0.99999225 0.003921509 -0.00034492963
vn -0.99999225 0.003921509 -0.00034492963
vn 0.46666312 0.003921509 -0.8844265
vn 0.46666312 0.003921509 -0.8844265
vn 0.46666312 0.003921509 -0.8844265
vn 0.46666312 0.003921509 -0.8844265
vn -0.003921509 -0.9999924 -0
vn -0.003921509 -0.9999924 -0
vn -0.003921509 -0.9999924 -0
vn -0.003921509 -0.9999924 -0
vn -0.003921509 -0.9999924 -0
vn -0.003921509 -0.9999924 -0
vn -0.003921509 -0.9999924 -0
vn -0.003921509 -0.9999924 -0
vn -0.4901923 0.0901953 0.866935
vn -0.4901923 0.0901953 0.866935
vn -0.4901923 0.0901953 0.866935
vn -0.4901923 0.0901953 0.866935
vn -0.003921509 -0.9999924 -0
vn -0.003921509 -0.9999924 -0
vn -0.51372147 0.003921509 -0.85794806
vn -0.51372147 0.003921509 -0.85794806
vn -0.51372147 0.003921509 -0.85794806
vn -0.51372147 0.003921509 -0.85794806
vn -0.003921509 0.9843061 -0.17642602
vn -0.003921509 0.9843061 -0.17642602
vn -0.003921509 0.9843061 -0.17642602
vn -0.003921509 0.9843061 -0.17642602
vn -0.003921509 0.9843061 -0.17642602
vn -0.003921509 0.9843061 -0.17642602
vn -0.003921509 0.66274 0.7488393
vn -0.019607663 0.874503 0.48462358
vn 0.019607723 0.8431307 0.5373511
vn -0.003921509 0.66274 0.7488393
vn -0.003921509 0.9529338 -0.30315316
vn -0.003921509 0.9529338 -0.30315316
vn -0.003921509 -0.9999924 -0
vn -0.003921509 -0.9999924 -0
vn -0.9764631 0.003921509 -0.21564901
vn -0.9764631 0.003921509 -0.21564901
vn -0.9764631 0.003921509 -0.21564901
vn -0.99999225 0.003921509 -0.00034492963
vn -0.99999225 0.003921509 -0.00034492963
vn -0.99999225 0.003921509 -0.00034492963
vn 0.9999924 0.003921509 -0
vn 0.9999924 0.003921509 -0
vn 0.9999924 0.003921509 -0
vn -0.02745068 0.9450908 0.32565302
vn 0.0274508 0.9450908 0.32565302
vn 0.97646314 0.003921509 -0.21564874
vn 0.97646314 0.003921509 -0.21564874
vn 0.97646314 0.003921509 -0.21564874
vn 0.9999924 0.003921509 -0
vn 0.9999924 0.003921509 -0
vn 0.9999924 0.003921509 -0
vn 0.9999924 0.003921509 -0
vn 0.9999924 0.003921509 -0
vn 0.24705696 0.86666 0.43343207
vn -0.2862723 0.85881686 0.42483148
g RoboShassis_CustomizePart_1_CorpsePart_0
f 3/3/3 2/2/2 1/1/1
f 4/4/4 3/3/3 1/1/1
f 7/7/7 6/6/6 5/5/5
f 5/5/5 8/8/8 7/7/7
f 5/5/5 9/9/9 8/8/8
f 12/12/12 11/11/11 10/10/10
f 13/13/13 12/12/12 10/10/10
f 16/16/16 15/15/15 14/14/14
f 17/17/17 16/16/16 14/14/14
f 20/20/20 19/19/19 18/18/18
f 21/21/21 20/20/20 18/18/18
f 15/15/15 16/16/16 21/21/21
f 18/18/18 15/15/15 21/21/21
f 24/24/24 23/23/23 22/22/22
f 25/25/25 24/24/24 22/22/22
f 26/26/26 21/21/21 16/16/16
f 27/27/27 26/26/26 16/16/16
f 30/30/30 29/29/29 28/28/28
f 31/31/31 30/30/30 28/28/28
f 34/34/34 33/33/33 32/32/32
f 32/32/32 35/35/35 34/34/34
f 35/35/35 36/36/36 34/34/34
f 36/36/36 37/37/37 34/34/34
f 40/40/40 39/39/39 38/38/38
f 41/41/41 40/40/40 38/38/38
f 42/42/42 32/32/32 33/33/33
f 43/43/43 42/42/42 33/33/33
f 15/15/15 18/18/18 44/44/44
f 45/45/45 15/15/15 44/44/44
f 48/48/48 47/47/47 46/46/46
f 51/51/51 50/50/50 49/49/49
f 54/54/54 53/53/53 52/52/52
f 39/39/39 56/56/56 55/55/55
f 59/59/59 58/58/58 57/57/57
f 62/62/62 61/61/61 60/60/60
f 60/60/60 63/63/63 62/62/62
f 63/63/63 64/64/64 62/62/62
f 65/65/65 56/56/56 40/40/40
f 40/40/40 56/56/56 39/39/39
f 66/66/66 39/39/39 55/55/55
