g RoboShassis_14
v 0.7897393 -0.63555074 -0.12728477
v 0.7831204 -0.52221394 0.13121861
v 0.7831204 -0.39125478 0.07379842
v 0.7897393 -0.5045775 -0.18470502
v 0.597116 -0.52221394 0.13121861
v 0.590497 -0.6355367 -0.12724262
v 0.590497 -0.50456345 -0.18466282
v 0.597116 -0.39125478 0.07379842
v 0.7831204 -0.52221394 0.13121861
v 0.597116 -0.52221394 0.13121861
v 0.597116 -0.39125478 0.07379842
v 0.7831204 -0.39125478 0.07379842
vt 0.7857877 0.5041379
vt 0.7936113 0.50769407
vt 0.7918333 0.5123171
vt 0.78400964 0.50840527
vt 0.7936113 0.50769407
vt 0.7857877 0.5041379
vt 0.78400964 0.50840527
vt 0.7918333 0.5123171
vt 0.8679356 0.5717054
vt 0.8618901 0.5717054
vt 0.8618901 0.5763284
vt 0.8679356 0.5763284
vn 0.9997255 0.0117614865 0.020262443
vn 0.9997255 0.0117614865 0.020262443
vn 0.9997255 0.0117614865 0.020262443
vn 0.9997255 0.0117614865 0.020262443
vn -0.9997255 0.0117614865 0.020262443
vn -0.9997255 0.0117614865 0.020262443
vn -0.9997255 0.0117614865 0.020262443
vn -0.9997255 0.0117614865 0.020262443
vn -0.0039204955 0.40381068 0.9148342
vn -0.0039204955 0.40381068 0.9148342
vn -0.0039204955 0.40381068 0.9148342
vn -0.0039204955 0.40381068 0.9148342
g RoboShassis_14_0
f 3/3/3 2/2/2 1/1/1
f 4/4/4 3/3/3 1/1/1
f 7/7/7 6/6/6 5/5/5
f 8/8/8 7/7/7 5/5/5
f 11/11/11 10/10/10 9/9/9
f 12/12/12 11/11/11 9/9/9
