g RoboShassis_09
v 0.62653446 0.61801016 -0.17139465
v 0.57984495 0.4889604 -0.07545149
v 0.57984495 0.53377104 -0.23110843
v 0.62653446 0.5920377 -0.081214726
v 0.755178 0.61801016 -0.17139465
v 0.57984495 0.53377104 -0.23110843
v 0.8018674 0.53377104 -0.23110843
v 0.62653446 0.61801016 -0.17139465
v 0.755178 0.5920377 -0.081214726
v 0.8018674 0.53377104 -0.23110843
v 0.8018674 0.4889604 -0.07545149
v 0.755178 0.61801016 -0.17139465
v 0.62653446 0.5920377 -0.081214726
v 0.8018674 0.4889604 -0.07545149
v 0.57984495 0.4889604 -0.07545149
v 0.755178 0.5920377 -0.081214726
v 0.755178 0.5920377 -0.081214726
v 0.62653446 0.61801016 -0.17139465
v 0.755178 0.61801016 -0.17139465
v 0.62653446 0.5920377 -0.081214726
v 1.0458256 0.30446208 -0.24809337
v 0.9520912 0.29326582 -0.08956754
v 0.9544524 0.35008526 -0.2852875
v 1.0445561 0.27376735 -0.14298493
v 1.0423981 0.24109244 -0.15291184
v 1.0458256 0.30446208 -0.24809337
v 1.043693 0.2708223 -0.25822335
v 1.0445561 0.27376735 -0.14298493
v 1.043693 0.2708223 -0.25822335
v 0.9544524 0.35008526 -0.2852875
v 0.94899386 0.2648306 -0.3100921
v 1.0458256 0.30446208 -0.24809337
v 1.0445561 0.27376735 -0.14298493
v 0.9466327 0.20948374 -0.11490524
v 0.9520912 0.29326582 -0.08956754
v 1.0423981 0.24109244 -0.15291184
v 1.0423981 0.24109244 -0.15291184
v 0.94899386 0.2648306 -0.3100921
v 0.9466327 0.20948374 -0.11490524
v 1.043693 0.2708223 -0.25822335
v 0.86544025 -0.1607315 -0.46925265
v 0.5192426 -0.25268865 -0.37727004
v 0.86544025 -0.25268865 -0.37727004
v 0.5192426 -0.1607315 -0.46925265
v 0.5192426 -0.21902353 -0.2516477
v 0.86544025 -0.21902353 -0.2516477
v 0.5192426 -0.09340119 -0.21798259
v 0.86544025 -0.09340119 -0.21798259
v 0.5192426 -0.0014439821 -0.30996513
v 0.86544025 -0.0014439821 -0.30996513
v 0.86544025 -0.0014439821 -0.30996513
v 0.5192426 -0.035109162 -0.43558747
v 0.86544025 -0.035109162 -0.43558747
v 0.5192426 -0.0014439821 -0.30996513
v 0.86544025 -0.25268865 -0.37727004
v 0.86544025 -0.035109162 -0.43558747
v 0.86544025 -0.1607315 -0.46925265
v 0.86544025 -0.0014439821 -0.30996513
v 0.86544025 -0.21902353 -0.2516477
v 0.86544025 -0.09340119 -0.21798259
v 0.5192426 -0.035109162 -0.43558747
v 0.5192426 -0.25268865 -0.37727004
v 0.5192426 -0.1607315 -0.46925265
v 0.5192426 -0.21902353 -0.2516477
v 0.5192426 -0.0014439821 -0.30996513
v 0.5192426 -0.09340119 -0.21798259
vt 0.8201829 0.5305611
vt 0.8170687 0.5264088
vt 0.8170687 0.5315991
vt 0.8201829 0.52744687
vt 0.8243352 0.5305611
vt 0.8187988 0.5340213
vt 0.8257193 0.5340213
vt 0.8201829 0.5305611
vt 0.8243352 0.52744687
vt 0.82744944 0.5315991
vt 0.82744944 0.5264088
vt 0.8243352 0.5305611
vt 0.8201829 0.52744687
vt 0.8257193 0.52398664
vt 0.8187988 0.52398664
vt 0.8243352 0.52744687
vt 0.8170687 0.51568204
vt 0.8170687 0.51568204
vt 0.8170687 0.51568204
vt 0.8170687 0.51568204
vt 0.8665501 0.6039181
vt 0.8623978 0.6070323
vt 0.86758816 0.6070323
vt 0.86343586 0.6039181
vt 0.86343586 0.602534
vt 0.8665501 0.6039181
vt 0.8665501 0.602534
vt 0.86343586 0.6039181
vt 0.8665501 0.602534
vt 0.8696643 0.60426414
vt 0.8696643 0.602188
vt 0.8665501 0.6039181
vt 0.86343586 0.6039181
vt 0.86032164 0.602188
vt 0.86032164 0.6039181
vt 0.86343586 0.602534
vt 0.86343586 0.602534
vt 0.86758816 0.5994198
vt 0.8623978 0.5994198
vt 0.8665501 0.602534
vt 0.7724316 0.6084164
vt 0.7765839 0.6198352
vt 0.7765839 0.6084164
vt 0.7724316 0.6198352
vt 0.78039014 0.6198352
vt 0.78039014 0.6084164
vt 0.78454244 0.6198352
vt 0.78454244 0.6084164
vt 0.78731066 0.6198352
vt 0.78731066 0.6084164
vt 0.76481915 0.6084164
vt 0.7686254 0.6198352
vt 0.7686254 0.6084164
vt 0.76481915 0.6198352
vt 0.7956152 0.60876244
vt 0.79353905 0.61637497
vt 0.792501 0.6118766
vt 0.79769135 0.61741304
vt 0.7994215 0.6098005
vt 0.80080557 0.6142988
vt 0.79353905 0.61637497
vt 0.7956152 0.60876244
vt 0.792501 0.6118766
vt 0.7994215 0.6098005
vt 0.79769135 0.61741304
vt 0.80080557 0.6142988
vn -0.8980323 0.41176152 0.15488832
vn -0.8980323 0.41176152 0.15488832
vn -0.8980323 0.41176152 0.15488832
vn -0.8980323 0.41176152 0.15488832
vn -0.003921509 0.5764661 -0.8171117
vn -0.003921509 0.5764661 -0.8171117
vn -0.003921509 0.5764661 -0.8171117
vn -0.003921509 0.5764661 -0.8171117
vn 0.89803237 0.41176152 0.15488814
vn 0.89803237 0.41176152 0.15488814
vn 0.89803237 0.41176152 0.15488814
vn 0.89803237 0.41176152 0.15488814
vn -0.003921509 0.05882299 0.99826074
vn -0.003921509 0.05882299 0.99826074
vn -0.003921509 0.05882299 0.99826074
vn -0.003921509 0.05882299 0.99826074
vn -0.003921509 0.9607769 0.27729464
vn -0.003921509 0.9607769 0.27729464
vn -0.003921509 0.9607769 0.27729464
vn -0.003921509 0.9607769 0.27729464
vn 0.3411739 0.8980323 0.27773783
vn 0.3411739 0.8980323 0.27773783
vn 0.3411739 0.8980323 0.27773783
vn 0.3411739 0.8980323 0.27773783
vn 0.9977852 -0.066519044 -0
vn 0.9982743 -0.05872205 -0
vn 0.9982743 -0.05872205 -0
vn 0.9977852 -0.066519044 -0
vn 0.45882004 0.22352767 -0.8599532
vn 0.45882004 0.22352767 -0.8599532
vn 0.45882004 0.22352767 -0.8599532
vn 0.45882004 0.23137069 -0.8578763
vn 0.4352908 -0.28627235 0.85356313
vn 0.4352908 -0.28627235 0.85356313
vn 0.4352908 -0.28627235 0.85356313
vn 0.4352908 -0.28627235 0.85356313
vn 0.20784158 -0.94509083 -0.2522007
vn 0.20784158 -0.94509083 -0.2522007
vn 0.20784158 -0.94509083 -0.2522007
vn 0.20784158 -0.94509083 -0.2522007
vn -0.003921509 -0.25490004 -0.9669595
vn -0.003921509 -0.96862006 -0.24851513
vn -0.003921509 -0.96862006 -0.24851513
vn -0.003921509 -0.25490004 -0.9669595
vn -0.003921509 -0.7097985 0.70439386
vn -0.003921509 -0.7097985 0.70439386
vn -0.003921509 0.25489998 0.9669595
vn -0.003921509 0.25489998 0.9669595
vn -0.003921509 0.96861994 0.2485156
vn -0.003921509 0.96861994 0.2485156
vn -0.003921509 0.96861994 0.2485156
vn -0.003921509 0.70979846 -0.7043939
vn -0.003921509 0.70979846 -0.7043939
vn -0.003921509 0.96861994 0.2485156
vn 0.9999924 0.003921509 -0
vn 0.9999924 0.003921509 -0
vn 0.9999924 0.003921509 -0
vn 0.9999924 0.003921509 -0
vn 0.9999924 0.003921509 -0
vn 0.9999924 0.003921509 -0
vn -0.99999225 0.003921509 -0.00034492963
vn -0.99999225 0.003921509 -0.00034492963
vn -0.99999225 0.003921509 -0.00034492963
vn -0.99999225 0.003921509 -0.00034492963
vn -0.99999225 0.003921509 -0.00034492963
vn -0.99999225 0.003921509 -0.00034492963
g RoboShassis_09_0
f 3/3/3 2/2/2 1/1/1
f 4/4/4 1/1/1 2/2/2
f 7/7/7 6/6/6 5/5/5
f 8/8/8 5/5/5 6/6/6
f 11/11/11 10/10/10 9/9/9
f 12/12/12 9/9/9 10/10/10
f 15/15/15 14/14/14 13/13/13
f 16/16/16 13/13/13 14/14/14
f 19/19/19 18/18/18 17/17/17
f 20/20/20 17/17/17 18/18/18
f 23/23/23 22/22/22 21/21/21
f 24/24/24 21/21/21 22/22/22
f 27/27/27 26/26/26 25/25/25
f 28/28/28 25/25/25 26/26/26
f 31/31/31 30/30/30 29/29/29
f 32/32/32 29/29/29 30/30/30
f 35/35/35 34/34/34 33/33/33
f 36/36/36 33/33/33 34/34/34
f 39/39/39 38/38/38 37/37/37
f 40/40/40 37/37/37 38/38/38
f 43/43/43 42/42/42 41/41/41
f 44/44/44 41/41/41 42/42/42
f 46/46/46 45/45/45 43/43/43
f 42/42/42 43/43/43 45/45/45
f 48/48/48 47/47/47 46/46/46
f 45/45/45 46/46/46 47/47/47
f 50/50/50 49/49/49 48/48/48
f 47/47/47 48/48/48 49/49/49
f 53/53/53 52/52/52 51/51/51
f 54/54/54 51/51/51 52/52/52
f 57/57/57 56/56/56 55/55/55
f 56/56/56 58/58/58 55/55/55
f 60/60/60 59/59/59 58/58/58
f 58/58/58 59/59/59 55/55/55
f 41/41/41 44/44/44 53/53/53
f 52/52/52 53/53/53 44/44/44
f 63/63/63 62/62/62 61/61/61
f 62/62/62 64/64/64 61/61/61
f 61/61/61 64/64/64 65/65/65
f 64/64/64 66/66/66 65/65/65
