g RoboShassis_CustomizePart_6_CorpsePart
v 7.4366302 62.58767 -4.88192
v 0.36958694 52.717278 29.397438
v 0.36958694 62.58767 -4.88192
v 35.247787 13.811775 -20.733736
v 43.881973 13.811775 -20.733736
v 39.122753 62.58767 -4.88192
v 1.0157089 39.434174 35.063675
v 0.36958694 62.58767 -4.88192
v 0.36958694 52.717278 29.397438
v 3.92062 -5.706642 -24.899368
v 36.877968 -0.087677 -25.247818
v 1.0157089 39.434174 35.063675
v 35.247787 9.814236 19.49202
v 11.313347 9.814236 19.49202
v 43.687614 9.814236 19.49202
v 49.50444 34.55414 32.612274
v 48.301502 9.59536 19.49202
v 43.881973 13.811775 -20.733736
v 42.73682 -7.776325 10.246735
v 43.687614 9.814236 19.49202
v 42.84363 -5.706642 -24.90112
v 35.247787 10.859585 9.129593
v 37.706192 -7.776325 10.246735
v 37.706192 -2.0120277 3.0186005
v 35.247787 9.814236 19.49202
v 11.313347 13.811775 -20.733736
v 0.36958694 62.58767 -4.88192
v 3.92062 -5.706642 -24.899368
v 7.4366302 62.58767 -4.88192
v 39.122753 62.58767 -4.88192
v 14.519432 63.94645 -21.514683
v 32.039955 63.94645 -21.514683
v 4.0274315 -7.776325 10.246735
v 9.089577 -5.706642 -24.90112
v 3.92062 -5.706642 -24.899368
v 8.854942 -7.776325 10.246735
v 37.706192 -7.776325 10.246735
v 42.73682 -7.776325 10.246735
v 8.854942 -7.776325 10.246735
v 4.0274315 -7.776325 10.246735
v 9.730442 -0.07892227 -25.247818
v 8.854942 -2.0120277 3.0186005
v 36.877968 -0.087677 -25.247818
v 9.730442 -0.07892227 -25.247818
v 37.706192 -2.0120277 3.0186005
v 8.854942 -2.0120277 3.0186005
v 35.247787 10.859585 9.129593
v 37.706192 -2.0120277 3.0186005
v 11.313347 10.859585 9.129593
v 35.247787 9.814236 19.49202
v 11.313347 10.859585 9.129593
v 11.313347 9.814236 19.49202
v 35.247787 10.859585 9.129593
v 11.313347 10.859585 9.129593
v 8.854942 -7.776325 10.246735
v 11.313347 9.814236 19.49202
v 8.854942 -2.0120277 3.0186005
v 9.089577 -5.706642 -24.90112
v 9.730442 -0.07892227 -25.247818
v 50.40971 53.956985 24.335289
v 50.805435 62.368797 -4.883671
v 49.50444 34.55414 32.612274
v 0.36958694 52.717278 29.397438
v 50.40971 53.956985 24.335289
v 1.0157089 39.434174 35.063675
v 14.519432 63.94645 -21.514683
v 11.313347 13.811775 -20.733736
v 17.245739 22.256851 -35.06393
v 7.4366302 62.58767 -4.88192
v 11.313347 13.811775 -20.733736
v 29.315393 22.256851 -35.06393
v 17.245739 22.256851 -35.06393
v 35.247787 13.811775 -20.733736
v 35.247787 13.811775 -20.733736
v 32.039955 63.94645 -21.514683
v 29.315393 22.256851 -35.06393
v 39.122753 62.58767 -4.88192
v 29.315393 22.256851 -35.06393
v 14.519432 63.94645 -21.514683
v 17.245739 22.256851 -35.06393
v 32.039955 63.94645 -21.514683
v 42.84363 -5.706642 -24.90112
v 37.706192 -7.776325 10.246735
v 42.73682 -7.776325 10.246735
v 37.483818 -5.706642 -24.90112
v 48.301502 9.59536 19.49202
v 43.881973 13.811775 -20.733736
v 43.687614 9.814236 19.49202
v 48.495865 13.5928955 -20.733736
v 49.50444 34.55414 32.612274
v 48.495865 13.5928955 -20.733736
v 48.301502 9.59536 19.49202
v 50.805435 62.368797 -4.883671
v 50.40971 53.956985 24.335289
v 50.805435 62.368797 -4.883671
v 48.495865 13.5928955 -20.733736
v 42.84363 -5.706642 -24.90112
v 37.483818 -5.706642 -24.90112
v 9.089577 -5.706642 -24.90112
v 4.0274315 -7.776325 10.246735
v 36.877968 -0.087677 -25.247818
v 37.483818 -5.706642 -24.90112
vt 0.45838743 0.6330567
vt 0.43671793 0.54309547
vt 0.4400012 0.63371336
vt 0.46955052 0.15501447
vt 0.44722435 0.15501447
vt 0.45970073 0.2883147
vt 0.39075235 0.86091477
vt 0.41110852 0.9817386
vt 0.41898835 0.8871808
vt 0.22199291 0.967949
vt 0.4656106 0.11758534
vt 0.43803126 0.50697964
vt 0.52864915 0.42555487
vt 0.46758056 0.42292827
vt 0.549662 0.4262115
vt 0.5614817 0.49778652
vt 0.5614817 0.4262115
vt 0.38155922 0.15435782
vt 0.2856881 0.124808505
vt 0.27649498 0.17734063
vt 0.376306 0.10116905
vt 1.0303309 1.4157853
vt 1.0782664 1.4276049
vt 1.0716999 1.4046221
vt 1.0303309 1.4453347
vt 0.5319324 0.15567112
vt 0.5588551 0.2883147
vt 0.5522886 0.103795655
vt 0.5404689 0.2883147
vt 0.5384989 0.62977344
vt 0.47808698 0.6744258
vt 0.5220826 0.6724558
vt 0.9915884 0.77949
vt 0.91541684 0.723018
vt 0.909507 0.7354944
vt 0.9974983 0.76832694
vt 0.53652894 0.3749927
vt 0.549662 0.37564936
vt 0.46364066 0.3723661
vt 0.45116428 0.37170944
vt 0.53587234 0.11758534
vt 0.5391556 0.25810874
vt 0.462984 0.33493698
vt 0.53652894 0.33493698
vt 0.46101403 0.25810874
vt 0.5391556 0.25810874
vt 0.46758056 0.21936631
vt 0.46101403 0.25810874
vt 0.5325891 0.21936631
vt 0.46758056 0.1911303
vt 0.5325891 0.21936631
vt 0.5325891 0.1911303
vt 0.46758056 0.21936631
vt 0.9869919 1.2030301
vt 1.0303309 1.1780775
vt 0.979112 1.1747942
vt 1.0296742 1.2023735
vt 1.0861462 1.250309
vt 1.0776098 1.2627854
vt 0.5641083 0.5509753
vt 0.56804824 0.62846017
vt 0.5614817 0.49778652
vt 0.43671793 0.54309547
vt 0.5641083 0.5509753
vt 0.43803126 0.50697964
vt 0.476117 0.7676703
vt 0.4386879 0.8970306
vt 0.4846535 0.8852109
vt 0.42818147 0.7597905
vt 0.46889386 0.92920655
vt 0.51682943 0.8845542
vt 0.4846535 0.8852109
vt 0.5325891 0.92920655
vt 0.56279504 0.8957173
vt 0.5233959 0.7676703
vt 0.51682943 0.8845542
vt 0.57067484 0.75847715
vt 0.51682943 0.8845542
vt 0.476117 0.7676703
vt 0.4846535 0.8852109
vt 0.5233959 0.7676703
vt 1.1367085 0.63896656
vt 1.0992792 0.7256446
vt 1.1117556 0.72892785
vt 1.1235754 0.63568336
vt 0.27912158 0.18916035
vt 0.38155922 0.15435782
vt 0.27649498 0.17734063
vt 0.38418582 0.16617754
vt 0.2666452 0.26336196
vt 0.38418582 0.16617754
vt 0.27912158 0.18916035
vt 0.3848425 0.30276105
vt 0.30407435 0.30604428
vt 0.42949477 0.28765807
vt 0.43540463 0.15501447
vt 0.4491943 0.103795655
vt 0.46364066 0.103139006
vt 0.5384989 0.103139006
vt 0.24957228 0.87864435
vt 1.1019058 1.331734
vt 1.1150389 1.3461802
vn -0.0038869977 0.96802527 0.25082263
vn 0.00395149 0.9601868 0.2793309
vn -0.0038869977 0.9601868 0.27933186
vn 0.00395149 0.30958945 -0.9508621
vn 0.011790037 0.30175084 -0.95331395
vn 0.00395149 0.30958945 -0.9508621
vn -0.99870133 -0.050948065 -0
vn -0.99870133 -0.050948065 -0
vn -0.9982724 -0.05875599 -0
vn -0.99870133 -0.050948065 -0
vn 0.05882114 0.27039677 -0.9609504
vn -0.0038869977 -0.4664243 0.8845526
vn -0.0038869977 -0.4664243 0.8845526
vn -0.0038869977 -0.4664243 0.8845526
vn -0.0038869977 -0.4664243 0.8845526
vn -0.0038869977 -0.4664243 0.8845526
vn -0.019564092 -0.4664243 0.88434476
vn 0.9987015 -0.050944787 -0
vn 0.9987015 -0.050944787 -0
vn 0.9987015 -0.050944787 -0
vn 0.9987015 -0.050944787 -0
vn -0.99154085 -0.12936783 -0.010520556
vn -0.99154085 -0.09017521 -0.093354955
vn -0.99937934 -0.027467072 -0.022057395
vn -0.99154085 -0.12936783 -0.010520556
vn -0.1293034 0.27823526 -0.9517698
vn -0.02740258 0.30175084 -0.952993
vn -0.19201154 0.2547198 -0.9477602
vn -0.0038869977 0.30958945 -0.9508624
vn 0.00395149 0.96802527 0.25082156
vn -0.0038869977 0.99937934 0.035012692
vn -0.0038869977 0.99937934 0.035012692
vn -0.0038869977 -0.9994438 -0.033120446
vn 0.00395149 -0.9994438 -0.033112347
vn 0.00395149 -0.9994438 -0.033112347
vn -0.0038869977 -0.9994438 -0.033120446
vn -0.0038869977 -0.4664243 0.8845526
vn -0.0038869977 -0.4664243 0.8845526
vn -0.0038869977 -0.4664243 0.8845526
vn -0.0038869977 -0.4664243 0.8845526
vn -0.097949326 0.30958945 -0.945812
vn -0.0038869977 -0.9994438 -0.033120446
vn -0.0038869977 -0.9994438 -0.033120446
vn -0.0038869977 -0.9994438 -0.033120446
vn -0.0038869977 -0.9994438 -0.033120446
vn -0.0038869977 -0.42723173 0.9041338
vn -0.0038869977 -0.42723173 0.9041338
vn -0.0038869977 -0.42723173 0.9041338
vn -0.0038869977 -0.42723173 0.9041338
vn -0.0038869977 -0.9916053 -0.12924358
vn -0.0038869977 -0.9916053 -0.12924358
vn -0.0038869977 -0.9916053 -0.12924358
vn -0.0038869977 -0.9916053 -0.12924358
vn 0.9915969 -0.12936674 -0
vn 0.9916053 -0.09017521 -0.09266831
vn 0.9915969 -0.12936674 -0
vn 0.9994438 -0.027467072 -0.018910415
vn 0.9916053 -0.11369079 -0.061590478
vn 0.9916053 -0.09801376 0.08433437
vn 0.00395149 0.9601868 0.2793309
vn 0.019628525 0.9601868 0.27866843
vn 0.082336724 0.38797468 0.9179849
vn 0.082336724 0.39581317 0.9146325
vn 0.082336724 0.38797468 0.9179849
vn 0.082336724 0.39581317 0.9146325
vn -0.9209941 0.050918162 -0.38623467
vn -0.9288327 0.050918162 -0.36698383
vn -0.9366712 0.050918162 -0.34648865
vn -0.9209941 0.050918162 -0.38623467
vn -0.0038869977 -0.8583504 -0.51304924
vn -0.0038869977 -0.8583504 -0.51304924
vn -0.0038869977 -0.8583504 -0.51304924
vn -0.0038869977 -0.8583504 -0.51304924
vn 0.92889714 0.050918162 -0.36682075
vn 0.9210586 0.050918162 -0.38608086
vn 0.93673563 0.050918162 -0.34631443
vn 0.9210586 0.050918162 -0.38608086
vn -0.0038869977 0.30958945 -0.9508624
vn -0.0038869977 0.30958945 -0.9508624
vn -0.0038869977 0.30958945 -0.9508624
vn -0.0038869977 0.30958945 -0.9508624
vn -0.0038869977 -0.9994438 -0.033120446
vn -0.0038869977 -0.9994438 -0.033120446
vn -0.0038869977 -0.9994438 -0.033120446
vn -0.0038869977 -0.9994438 -0.033120446
vn -0.050918162 -0.9916053 -0.11885411
vn -0.050918162 -0.9916053 -0.11885411
vn -0.050918162 -0.9916053 -0.11885411
vn -0.050918162 -0.9916053 -0.11885411
vn 0.9987015 -0.050944787 -0
vn 0.9987015 -0.050944787 -0
vn 0.9987015 -0.050944787 -0
vn 0.9987015 -0.050944787 -0
vn 0.9990696 -0.04312795 -0
vn 0.00395149 0.30958945 -0.9508621
vn 0.011790037 0.30958945 -0.9507972
vn 0.19991457 0.15281898 -0.96782255
vn -0.0038869977 -0.05882114 -0.998261
vn -0.0038869977 -0.05882114 -0.998261
vn -0.9977829 -0.066553205 -0
vn -0.99154085 -0.09801376 0.085088305
vn -0.99154085 -0.105852306 -0.07511329
g RoboShassis_CustomizePart_6_CorpsePart_0
f 3/3/3 2/2/2 1/1/1
f 6/6/6 5/5/5 4/4/4
f 9/9/9 8/8/8 7/7/7
f 10/10/10 7/7/7 8/8/8
f 4/4/4 5/5/5 11/11/11
f 14/14/14 13/13/13 12/12/12
f 17/17/17 16/16/16 15/15/15
f 15/15/15 16/16/16 13/13/13
f 13/13/13 16/16/16 12/12/12
f 20/20/20 19/19/19 18/18/18
f 21/21/21 18/18/18 19/19/19
f 24/24/24 23/23/23 22/22/22
f 25/25/25 22/22/22 23/23/23
f 28/28/28 27/27/27 26/26/26
f 29/29/29 26/26/26 27/27/27
f 32/32/32 31/31/31 30/30/30
f 1/1/1 30/30/30 31/31/31
f 35/35/35 34/34/34 33/33/33
f 36/36/36 33/33/33 34/34/34
f 38/38/38 15/15/15 37/37/37
f 13/13/13 37/37/37 15/15/15
f 14/14/14 40/40/40 39/39/39
f 26/26/26 41/41/41 28/28/28
f 44/44/44 43/43/43 42/42/42
f 45/45/45 42/42/42 43/43/43
f 48/48/48 47/47/47 46/46/46
f 49/49/49 46/46/46 47/47/47
f 52/52/52 51/51/51 50/50/50
f 53/53/53 50/50/50 51/51/51
f 56/56/56 55/55/55 54/54/54
f 57/57/57 54/54/54 55/55/55
f 59/59/59 55/55/55 58/58/58
f 59/59/59 57/57/57 55/55/55
f 26/26/26 4/4/4 41/41/41
f 11/11/11 41/41/41 4/4/4
f 1/1/1 2/2/2 30/30/30
f 2/2/2 60/60/60 30/30/30
f 60/60/60 61/61/61 30/30/30
f 64/64/64 63/63/63 62/62/62
f 65/65/65 62/62/62 63/63/63
f 12/12/12 40/40/40 14/14/14
f 68/68/68 67/67/67 66/66/66
f 69/69/69 66/66/66 67/67/67
f 72/72/72 71/71/71 70/70/70
f 73/73/73 70/70/70 71/71/71
f 76/76/76 75/75/75 74/74/74
f 77/77/77 74/74/74 75/75/75
f 80/80/80 79/79/79 78/78/78
f 81/81/81 78/78/78 79/79/79
f 84/84/84 83/83/83 82/82/82
f 85/85/85 82/82/82 83/83/83
f 88/88/88 87/87/87 86/86/86
f 89/89/89 86/86/86 87/87/87
f 92/92/92 91/91/91 90/90/90
f 91/91/91 93/93/93 90/90/90
f 90/90/90 93/93/93 94/94/94
f 96/96/96 5/5/5 95/95/95
f 6/6/6 95/95/95 5/5/5
f 98/98/98 11/11/11 97/97/97
f 5/5/5 97/97/97 11/11/11
f 99/99/99 28/28/28 41/41/41
f 100/100/100 7/7/7 10/10/10
f 102/102/102 23/23/23 101/101/101
f 24/24/24 101/101/101 23/23/23
