g RoboShassis_13
v -0.86543643 -0.16070452 -0.46926117
v -0.5192899 -0.2527375 -0.3772282
v -0.51924366 -0.16077387 -0.46921495
v -0.8654827 -0.25264502 -0.37729755
v -0.5192668 -0.21903136 -0.2516278
v -0.86545956 -0.21900824 -0.25165093
v -0.5192668 -0.09340787 -0.21799105
v -0.86543643 -0.09340787 -0.21799105
v -0.51924366 -0.0014442503 -0.30995467
v -0.86543643 -0.0014211237 -0.30997777
v -0.86543643 -0.0014211237 -0.30997777
v -0.51924366 -0.035127252 -0.43557817
v -0.51924366 -0.0014442503 -0.30995467
v -0.86543643 -0.03508103 -0.4356013
v -0.5192899 -0.2527375 -0.3772282
v -0.51924366 -0.035127252 -0.43557817
v -0.51924366 -0.16077387 -0.46921495
v -0.5192668 -0.21903136 -0.2516278
v -0.51924366 -0.0014442503 -0.30995467
v -0.5192668 -0.09340787 -0.21799105
v -0.86543643 -0.16070452 -0.46926117
v -0.86545956 -0.21900824 -0.25165093
v -0.8654827 -0.25264502 -0.37729755
v -0.86543643 -0.0014211237 -0.30997777
v -0.86543643 -0.09340787 -0.21799105
v -0.86543643 -0.03508103 -0.4356013
v -0.6265346 0.61800396 -0.17140818
v -0.57985914 0.488959 -0.075445145
v -0.6265346 0.59204245 -0.08120152
v -0.57985914 0.53378487 -0.231099
v -0.75516343 0.61800396 -0.17140818
v -0.57985914 0.53378487 -0.231099
v -0.6265346 0.61800396 -0.17140818
v -0.8018619 0.53378487 -0.231099
v -0.75516343 0.59204245 -0.08120152
v -0.8018619 0.53378487 -0.231099
v -0.75516343 0.61800396 -0.17140818
v -0.8018619 0.488959 -0.075445145
v -0.6265346 0.59204245 -0.08120152
v -0.8018619 0.488959 -0.075445145
v -0.75516343 0.59204245 -0.08120152
v -0.57985914 0.488959 -0.075445145
v -0.75516343 0.59204245 -0.08120152
v -0.6265346 0.61800396 -0.17140818
v -0.6265346 0.59204245 -0.08120152
v -0.75516343 0.61800396 -0.17140818
v -1.0457804 0.30447692 -0.24809076
v -0.9516206 0.2932647 -0.089570284
v -1.0445321 0.27377617 -0.14297298
v -0.95397866 0.35008883 -0.2852877
v -1.042359 0.24111038 -0.15291375
v -1.0457804 0.30447692 -0.24809076
v -1.0445321 0.27377617 -0.14297298
v -1.0436536 0.27084017 -0.25823957
v -1.0436536 0.27084017 -0.25823957
v -0.95397866 0.35008883 -0.2852877
v -1.0457804 0.30447692 -0.24809076
v -0.9485228 0.26485258 -0.31009337
v -1.0445321 0.27377617 -0.14297298
v -0.9461647 0.20948488 -0.11490765
v -1.042359 0.24111038 -0.15291375
v -0.9516206 0.2932647 -0.089570284
v -1.042359 0.24111038 -0.15291375
v -0.9485228 0.26485258 -0.31009337
v -1.0436536 0.27084017 -0.25823957
v -0.9461647 0.20948488 -0.11490765
vt 0.77242017 0.6083855
vt 0.77657294 0.61980563
vt 0.77242017 0.61980563
vt 0.77657294 0.6083855
vt 0.78037965 0.61980563
vt 0.78037965 0.6083855
vt 0.7845324 0.61980563
vt 0.7845324 0.6083855
vt 0.78730094 0.61980563
vt 0.78730094 0.6083855
vt 0.76480675 0.6083855
vt 0.76861346 0.61980563
vt 0.76480675 0.61980563
vt 0.76861346 0.6083855
vt 0.7956065 0.60873157
vt 0.7935301 0.616345
vt 0.7924919 0.61184615
vt 0.7994132 0.60976976
vt 0.7976829 0.6173832
vt 0.80079746 0.6142686
vt 0.7924919 0.61184615
vt 0.7994132 0.60976976
vt 0.7956065 0.60873157
vt 0.7976829 0.6173832
vt 0.80079746 0.6142686
vt 0.7935301 0.616345
vt 0.8201771 0.530521
vt 0.8170625 0.5263682
vt 0.8201771 0.5274064
vt 0.8170625 0.53155917
vt 0.82432985 0.530521
vt 0.8187928 0.5339816
vt 0.8201771 0.530521
vt 0.8257141 0.5339816
vt 0.82432985 0.5274064
vt 0.82744443 0.53155917
vt 0.82432985 0.530521
vt 0.82744443 0.5263682
vt 0.8201771 0.5274064
vt 0.8257141 0.52394575
vt 0.82432985 0.5274064
vt 0.8187928 0.52394575
vt 0.8170625 0.5156402
vt 0.8170625 0.5156402
vt 0.8170625 0.5156402
vt 0.8170625 0.5156402
vt 0.86654973 0.60388666
vt 0.86239696 0.60700125
vt 0.86343515 0.60388666
vt 0.8675879 0.60700125
vt 0.86343515 0.6025024
vt 0.86654973 0.60388666
vt 0.86343515 0.60388666
vt 0.86654973 0.6025024
vt 0.86654973 0.6025024
vt 0.8696643 0.6042327
vt 0.86654973 0.60388666
vt 0.8696643 0.6025024
vt 0.86343515 0.60388666
vt 0.86032057 0.6025024
vt 0.86343515 0.6025024
vt 0.86032057 0.6042327
vt 0.86343515 0.6025024
vt 0.8675879 0.5997339
vt 0.86654973 0.6025024
vt 0.86239696 0.5997339
vn 0.0039215684 -0.26274312 -0.9648579
vn -0.003921509 -0.96862006 -0.24851513
vn 0.0039215684 -0.26274312 -0.9648579
vn -0.003921509 -0.96862006 -0.24851513
vn -0.003921509 -0.7097985 0.70439386
vn -0.003921509 -0.7097985 0.70439386
vn -0.003921509 0.262743 0.9648579
vn -0.003921509 0.25489998 0.9669595
vn 0.0039215684 0.96861994 0.2485156
vn 0.0039215684 0.96861994 0.2485156
vn 0.0039215684 0.96861994 0.2485156
vn 0.0039215684 0.70979846 -0.7043939
vn 0.0039215684 0.96861994 0.2485156
vn 0.0039215684 0.70979846 -0.7043939
vn 0.9999924 -0.0039215684 -0
vn 0.9999924 -0.0039215684 -0
vn 0.9999924 -0.0039215684 -0
vn 0.9999924 -0.0039215684 -0
vn 0.9999924 -0.0039215684 -0
vn 0.9999924 -0.0039215684 -0
vn -0.99999225 0.003921509 -0.00034492963
vn -0.99999225 0.003921509 -0.00034492963
vn -0.99999225 0.003921509 -0.00034492963
vn -0.99999225 0.003921509 -0.00034492963
vn -0.99999225 0.003921509 -0.00034492963
vn -0.99999225 0.003921509 -0.00034492963
vn 0.89803237 0.41176152 0.15488814
vn 0.89803237 0.41176152 0.15488814
vn 0.89803237 0.41176152 0.15488814
vn 0.89803237 0.41176152 0.15488814
vn -0.003921509 0.5764661 -0.8171117
vn -0.003921509 0.5764661 -0.8171117
vn -0.003921509 0.5764661 -0.8171117
vn 0.0039215684 0.5764661 -0.8171117
vn -0.8980323 0.41176152 0.15488832
vn -0.8980323 0.41176152 0.15488832
vn -0.8980323 0.41176152 0.15488832
vn -0.8980323 0.41176152 0.15488832
vn -0.003921509 0.05882299 0.99826074
vn -0.003921509 0.05882299 0.99826074
vn -0.003921509 0.05882299 0.99826074
vn -0.003921509 0.05882299 0.99826074
vn 0.0039215684 0.9607769 0.27729464
vn 0.0039215684 0.9607769 0.27729464
vn 0.0039215684 0.9607769 0.27729464
vn 0.0039215684 0.9607769 0.27729464
vn -0.34117377 0.8980323 0.27773803
vn -0.34117377 0.8980323 0.27773803
vn -0.34117377 0.8980323 0.27773803
vn -0.34117377 0.8980323 0.27773803
vn -0.9977852 -0.06651905 -0
vn -0.9982743 -0.058722056 -0
vn -0.9977852 -0.06651905 -0
vn -0.9982743 -0.058722056 -0
vn -0.45882 0.22352767 -0.8599532
vn -0.45882 0.22352767 -0.8599532
vn -0.45882 0.23137069 -0.8578763
vn -0.45882 0.22352767 -0.8599532
vn -0.4352907 -0.28627235 0.8535632
vn -0.4352907 -0.28627235 0.8535632
vn -0.4352907 -0.28627235 0.8535632
vn -0.4352907 -0.28627235 0.8535632
vn -0.20784152 -0.94509083 -0.2522007
vn -0.20784152 -0.94509083 -0.2522007
vn -0.19999838 -0.94509083 -0.25846457
vn -0.20784152 -0.94509083 -0.2522007
g RoboShassis_13_0
f 3/3/3 2/2/2 1/1/1
f 4/4/4 1/1/1 2/2/2
f 2/2/2 5/5/5 4/4/4
f 6/6/6 4/4/4 5/5/5
f 5/5/5 7/7/7 6/6/6
f 8/8/8 6/6/6 7/7/7
f 7/7/7 9/9/9 8/8/8
f 10/10/10 8/8/8 9/9/9
f 13/13/13 12/12/12 11/11/11
f 14/14/14 11/11/11 12/12/12
f 12/12/12 3/3/3 14/14/14
f 1/1/1 14/14/14 3/3/3
f 17/17/17 16/16/16 15/15/15
f 15/15/15 16/16/16 18/18/18
f 16/16/16 19/19/19 18/18/18
f 19/19/19 20/20/20 18/18/18
f 23/23/23 22/22/22 21/21/21
f 25/25/25 24/24/24 22/22/22
f 22/22/22 24/24/24 21/21/21
f 24/24/24 26/26/26 21/21/21
f 29/29/29 28/28/28 27/27/27
f 30/30/30 27/27/27 28/28/28
f 33/33/33 32/32/32 31/31/31
f 34/34/34 31/31/31 32/32/32
f 37/37/37 36/36/36 35/35/35
f 38/38/38 35/35/35 36/36/36
f 41/41/41 40/40/40 39/39/39
f 42/42/42 39/39/39 40/40/40
f 45/45/45 44/44/44 43/43/43
f 46/46/46 43/43/43 44/44/44
f 49/49/49 48/48/48 47/47/47
f 50/50/50 47/47/47 48/48/48
f 53/53/53 52/52/52 51/51/51
f 54/54/54 51/51/51 52/52/52
f 57/57/57 56/56/56 55/55/55
f 58/58/58 55/55/55 56/56/56
f 61/61/61 60/60/60 59/59/59
f 62/62/62 59/59/59 60/60/60
f 65/65/65 64/64/64 63/63/63
f 66/66/66 63/63/63 64/64/64
