g RoboShassis_CustomizePart_2_CorpsePart
v -7.4365997 62.58696 -4.88249
v -0.36906052 62.58696 -4.88249
v -0.36906052 52.71839 29.396126
v -35.247467 13.812187 -20.733837
v -39.122673 62.58696 -4.88249
v -43.881706 13.812187 -20.733837
v -1.015686 39.4339 35.06315
v -0.36906052 62.58696 -4.88249
v -3.9194489 -5.7119217 -24.89761
v -0.36906052 52.71839 29.396126
v -36.879128 -0.087200165 -25.246605
v -49.504913 34.55552 32.612625
v -43.688324 9.813091 19.49281
v -48.302315 9.595535 19.491299
v -35.248978 9.813091 19.49281
v -1.015686 39.4339 35.06315
v -11.31332 9.813091 19.49281
v -42.73651 -7.7756786 10.246693
v -43.881706 13.812187 -20.733837
v -43.688324 9.813091 19.49281
v -42.84227 -5.7043667 -24.903652
v -35.248978 10.860081 9.1287
v -37.707054 -7.7756786 10.246693
v -35.248978 9.813091 19.49281
v -37.707054 -2.011963 3.017498
v -11.31332 13.812187 -20.733837
v -0.36906052 62.58696 -4.88249
v -7.4365997 62.58696 -4.88249
v -3.9194489 -5.7119217 -24.89761
v -14.519245 63.94668 -21.514923
v -39.122673 62.58696 -4.88249
v -32.04003 63.94668 -21.514923
v -4.0282288 -7.7756786 10.246693
v -9.087906 -5.7119217 -24.89912
v -8.855244 -7.7756786 10.246693
v -3.9194489 -5.7119217 -24.89761
v -37.707054 -7.7756786 10.246693
v -42.73651 -7.7756786 10.246693
v -8.855244 -7.7756786 10.246693
v -4.0282288 -7.7756786 10.246693
v -9.73151 -0.079647064 -25.248116
v -8.855244 -2.011963 3.017498
v -36.879128 -0.087200165 -25.246605
v -37.707054 -2.011963 3.017498
v -9.73151 -0.079647064 -25.248116
v -8.855244 -2.011963 3.017498
v -35.248978 10.860081 9.1287
v -11.31332 10.860081 9.1287
v -37.707054 -2.011963 3.017498
v -11.31332 10.860081 9.1287
v -8.855244 -7.7756786 10.246693
v -8.855244 -2.011963 3.017498
v -11.31332 9.813091 19.49281
v -9.087906 -5.7119217 -24.89912
v -9.73151 -0.079647064 -25.248116
v -50.40988 53.95574 24.33493
v -50.805717 62.36789 -4.88249
v -0.36906052 52.71839 29.396126
v -49.504913 34.55552 32.612625
v -50.40988 53.95574 24.33493
v -1.015686 39.4339 35.06315
v -11.31332 13.812187 -20.733837
v -14.519245 63.94668 -21.514923
v -17.244732 22.257576 -35.063805
v -7.4365997 62.58696 -4.88249
v -29.316048 22.257576 -35.063805
v -11.31332 13.812187 -20.733837
v -17.244732 22.257576 -35.063805
v -35.247467 13.812187 -20.733837
v -32.04003 63.94668 -21.514923
v -35.247467 13.812187 -20.733837
v -29.316048 22.257576 -35.063805
v -39.122673 62.58696 -4.88249
v -29.316048 22.257576 -35.063805
v -14.519245 63.94668 -21.514923
v -32.04003 63.94668 -21.514923
v -17.244732 22.257576 -35.063805
v -37.707054 -7.7756786 10.246693
v -42.84227 -5.7043667 -24.903652
v -42.73651 -7.7756786 10.246693
v -37.48043 -5.7058773 -24.903652
v -48.302315 9.595535 19.491299
v -43.881706 13.812187 -20.733837
v -48.495697 13.593121 -20.733837
v -43.688324 9.813091 19.49281
v -50.805717 62.36789 -4.88249
v -48.302315 9.595535 19.491299
v -48.495697 13.593121 -20.733837
v -50.40988 53.95574 24.33493
v -49.504913 34.55552 32.612625
v -50.805717 62.36789 -4.88249
v -48.495697 13.593121 -20.733837
v -42.84227 -5.7043667 -24.903652
v -37.48043 -5.7058773 -24.903652
v -9.087906 -5.7119217 -24.89912
v -4.0282288 -7.7756786 10.246693
v -11.31332 9.813091 19.49281
v -35.248978 10.860081 9.1287
v -35.248978 9.813091 19.49281
v -11.31332 10.860081 9.1287
v -36.879128 -0.087200165 -25.246605
v -37.48043 -5.7058773 -24.903652
vt 0.8793024 1.1350613
vt 0.89880306 1.1358113
vt 0.9025532 1.0383079
vt 0.86430186 0.061023943
vt 0.8703021 0.20202884
vt 0.8875527 0.06177397
vt 0.2755314 0.72254694
vt 0.2410302 0.83880097
vt 0.43003678 0.84705126
vt 0.24553035 0.74504775
vt 0.8695521 0.021272562
vt 0.7667985 0.9895562
vt 0.7787989 0.9115535
vt 0.76604843 0.9115535
vt 0.8020497 0.9108035
vt 0.9003031 0.99855655
vt 0.868052 0.90780336
vt 0.37303478 0.5117896
vt 0.2807816 0.54104066
vt 0.3820351 0.56204134
vt 0.28603175 0.49003887
vt 1.5138245 1.0435581
vt 1.503324 1.0908097
vt 1.5385753 1.0525584
vt 1.4883236 1.0713091
vt 0.79829955 0.058773868
vt 0.7645484 0.19902875
vt 0.7840491 0.19977877
vt 0.7787989 0.0040219636
vt 0.85830164 1.1800629
vt 0.7922994 1.1320611
vt 0.8103 1.1785628
vt 1.5093243 0.60254276
vt 1.4943237 0.5117896
vt 1.4988239 0.60479283
vt 1.5055741 0.5125396
vt 0.7930494 0.8568016
vt 0.7787989 0.8568016
vt 0.87180215 0.8530515
vt 0.8853026 0.8523015
vt 0.7952995 0.019022485
vt 0.20202884 0.59429246
vt 0.13077638 0.51853985
vt 0.12702623 0.59279245
vt 0.20127882 0.5207899
vt 0.20202884 0.59429246
vt 0.13302645 0.6317938
vt 0.19452858 0.6325438
vt 0.12702623 0.59279245
vt 1.3908201 1.041308
vt 1.3990705 1.0893097
vt 1.414071 1.072059
vt 1.3660693 1.0488083
vt 1.4913237 1.0675589
vt 1.4905736 1.0518084
vt 0.7645484 1.0473082
vt 0.7600483 1.1305611
vt 0.9025532 1.0383079
vt 0.7667985 0.9895562
vt 0.7645484 1.0473082
vt 0.9003031 0.99855655
vt 0.56054133 0.7495479
vt 0.52304 0.6227935
vt 0.51553977 0.73829746
vt 0.57029164 0.6145432
vt 0.48403865 0.73754746
vt 0.5342904 0.77954894
vt 0.51553977 0.73829746
vt 0.46903813 0.781799
vt 0.4765384 0.6227935
vt 0.43828705 0.74879783
vt 0.48403865 0.73754746
vt 0.43003678 0.61379313
vt 0.48403865 0.73754746
vt 0.52304 0.6227935
vt 0.4765384 0.6227935
vt 0.51553977 0.73829746
vt 0.3760349 0.4997892
vt 0.28603175 0.49003887
vt 0.37303478 0.5117896
vt 0.28903186 0.47728842
vt 0.37978503 0.5732918
vt 0.2807816 0.54104066
vt 0.2785315 0.55229104
vt 0.3820351 0.56204134
vt 0.28003156 0.6835456
vt 0.37978503 0.5732918
vt 0.2785315 0.55229104
vt 0.35803428 0.68579566
vt 0.39253548 0.64454424
vt 0.9025532 0.20277888
vt 0.9003031 0.06177397
vt 0.8875527 0.007022068
vt 0.87255216 0.0055220155
vt 0.7930494 0.0032719374
vt 0.4127862 0.7562981
vt 0.19602863 0.65954477
vt 0.13302645 0.6317938
vt 0.13227642 0.6587947
vt 0.19452858 0.6325438
vt 1.4193212 1.0495583
vt 1.415571 1.0638088
vn 0.0038865805 0.9680903 0.25057155
vn 0.0038865805 0.9602518 0.27910817
vn -0.003951907 0.9602518 0.27910718
vn 0.0038865805 0.30965436 -0.95084125
vn -0.003951907 0.30965436 -0.950841
vn -0.011790514 0.30181587 -0.9532933
vn 0.9987046 -0.050883383 -0
vn 0.9987046 -0.050883383 -0
vn 0.9987046 -0.050883383 -0
vn 0.9982762 -0.058691394 -0
vn -0.05882156 0.27046168 -0.9609321
vn 0.0038865805 -0.46635944 0.8845868
vn 0.0038865805 -0.46635944 0.8845868
vn 0.019563615 -0.46635944 0.88437897
vn 0.0038865805 -0.46635944 0.8845868
vn 0.0038865805 -0.46635944 0.8845868
vn 0.0038865805 -0.46635944 0.8845868
vn -0.9987048 -0.050880067 -0
vn -0.9987048 -0.050880067 -0
vn -0.9987048 -0.050880067 -0
vn -0.9987048 -0.050880067 -0
vn 0.9915405 -0.12930298 -0.011321322
vn 0.9915405 -0.09011036 -0.09342138
vn 0.9915405 -0.12930298 -0.011321322
vn 0.99937904 -0.027402163 -0.022151439
vn 0.12930298 0.2783003 -0.9517508
vn 0.027402163 0.30181587 -0.95297235
vn 0.0038865805 0.30965436 -0.95084125
vn 0.19201112 0.2547847 -0.9477428
vn 0.0038865805 0.99944437 0.033104245
vn -0.003951907 0.9680903 0.25057048
vn 0.0038865805 0.99944437 0.033104245
vn 0.0038865805 -0.99937904 -0.035021205
vn 0.0038865805 -0.99937904 -0.035021205
vn 0.0038865805 -0.99937904 -0.035021205
vn 0.0038865805 -0.99937904 -0.035021205
vn 0.0038865805 -0.46635944 0.8845868
vn 0.0038865805 -0.46635944 0.8845868
vn 0.0038865805 -0.46635944 0.8845868
vn 0.0038865805 -0.46635944 0.8845868
vn 0.09794885 0.30965436 -0.94579077
vn 0.0038865805 -0.99937904 -0.035021205
vn 0.0038865805 -0.99937904 -0.035021205
vn 0.0038865805 -0.99937904 -0.035021205
vn 0.0038865805 -0.99937904 -0.035021205
vn 0.0038865805 -0.42716682 0.9041645
vn 0.0038865805 -0.42716682 0.9041645
vn 0.0038865805 -0.42716682 0.9041645
vn 0.0038865805 -0.42716682 0.9041645
vn -0.99160516 -0.12930289 -0
vn -0.9916059 -0.09011036 -0.09272494
vn -0.99944437 -0.027402163 -0.018976102
vn -0.99160516 -0.12930289 -0
vn -0.9916059 -0.113625884 -0.061700482
vn -0.9916059 -0.09794885 0.084402695
vn -0.003951907 0.9602518 0.27910718
vn -0.019629002 0.9602518 0.27844417
vn -0.08233714 0.39587808 0.91460437
vn -0.08233714 0.3880396 0.9179574
vn -0.08233714 0.3880396 0.9179574
vn -0.08233714 0.39587808 0.91460437
vn 0.92883235 0.05098307 -0.36697572
vn 0.9209938 0.05098307 -0.3862268
vn 0.93667084 0.05098307 -0.34648013
vn 0.9209938 0.05098307 -0.3862268
vn 0.0038865805 -0.8582856 -0.5131576
vn 0.0038865805 -0.8582856 -0.5131576
vn 0.0038865805 -0.8582856 -0.5131576
vn 0.0038865805 -0.8582856 -0.5131576
vn -0.92105913 0.05098307 -0.38607097
vn -0.92889774 0.05098307 -0.36681017
vn -0.9367362 0.05098307 -0.34630325
vn -0.92105913 0.05098307 -0.38607097
vn 0.0038865805 0.30965436 -0.95084125
vn 0.0038865805 0.30965436 -0.95084125
vn 0.0038865805 0.30965436 -0.95084125
vn 0.0038865805 0.30965436 -0.95084125
vn 0.0038865805 -0.99937904 -0.035021205
vn -0.003951907 -0.99937904 -0.035013545
vn 0.0038865805 -0.99937904 -0.035021205
vn -0.003951907 -0.99937904 -0.035013545
vn 0.050917745 -0.9915405 -0.119393505
vn 0.050917745 -0.9915405 -0.119393505
vn 0.050917745 -0.9915405 -0.119393505
vn 0.050917745 -0.9915405 -0.119393505
vn -0.9987048 -0.050880067 -0
vn -0.9987048 -0.050880067 -0
vn -0.9987048 -0.050880067 -0
vn -0.9987048 -0.050880067 -0
vn -0.9987048 -0.050880067 -0
vn -0.003951907 0.30965436 -0.950841
vn -0.011790514 0.30965436 -0.9507761
vn -0.19991505 0.15288389 -0.9678122
vn 0.0038865805 -0.058756232 -0.9982648
vn 0.0038865805 -0.058756232 -0.9982648
vn 0.99778724 -0.066488706 -0
vn 0.0038865805 -0.9915405 -0.12973955
vn 0.0038865805 -0.9915405 -0.12973955
vn 0.0038865805 -0.9915405 -0.12973955
vn 0.0038865805 -0.9915405 -0.12973955
vn 0.9915405 -0.09794885 -0.085167214
vn 0.9915405 -0.1057874 0.07520943
g RoboShassis_CustomizePart_2_CorpsePart_0
f 3/3/3 2/2/2 1/1/1
f 6/6/6 5/5/5 4/4/4
f 9/9/9 8/8/8 7/7/7
f 10/10/10 7/7/7 8/8/8
f 6/6/6 4/4/4 11/11/11
f 14/14/14 13/13/13 12/12/12
f 13/13/13 15/15/15 12/12/12
f 17/17/17 16/16/16 15/15/15
f 15/15/15 16/16/16 12/12/12
f 20/20/20 19/19/19 18/18/18
f 21/21/21 18/18/18 19/19/19
f 24/24/24 23/23/23 22/22/22
f 25/25/25 22/22/22 23/23/23
f 28/28/28 27/27/27 26/26/26
f 29/29/29 26/26/26 27/27/27
f 32/32/32 31/31/31 30/30/30
f 1/1/1 30/30/30 31/31/31
f 35/35/35 34/34/34 33/33/33
f 36/36/36 33/33/33 34/34/34
f 15/15/15 13/13/13 37/37/37
f 38/38/38 37/37/37 13/13/13
f 40/40/40 17/17/17 39/39/39
f 41/41/41 26/26/26 29/29/29
f 44/44/44 43/43/43 42/42/42
f 45/45/45 42/42/42 43/43/43
f 48/48/48 47/47/47 46/46/46
f 49/49/49 46/46/46 47/47/47
f 52/52/52 51/51/51 50/50/50
f 53/53/53 50/50/50 51/51/51
f 55/55/55 54/54/54 51/51/51
f 52/52/52 55/55/55 51/51/51
f 11/11/11 4/4/4 41/41/41
f 26/26/26 41/41/41 4/4/4
f 57/57/57 56/56/56 31/31/31
f 56/56/56 3/3/3 31/31/31
f 3/3/3 1/1/1 31/31/31
f 60/60/60 59/59/59 58/58/58
f 61/61/61 58/58/58 59/59/59
f 40/40/40 16/16/16 17/17/17
f 64/64/64 63/63/63 62/62/62
f 65/65/65 62/62/62 63/63/63
f 68/68/68 67/67/67 66/66/66
f 69/69/69 66/66/66 67/67/67
f 72/72/72 71/71/71 70/70/70
f 73/73/73 70/70/70 71/71/71
f 76/76/76 75/75/75 74/74/74
f 77/77/77 74/74/74 75/75/75
f 80/80/80 79/79/79 78/78/78
f 81/81/81 78/78/78 79/79/79
f 84/84/84 83/83/83 82/82/82
f 85/85/85 82/82/82 83/83/83
f 88/88/88 87/87/87 86/86/86
f 86/86/86 87/87/87 89/89/89
f 89/89/89 87/87/87 90/90/90
f 5/5/5 6/6/6 91/91/91
f 92/92/92 91/91/91 6/6/6
f 6/6/6 11/11/11 93/93/93
f 94/94/94 93/93/93 11/11/11
f 29/29/29 95/95/95 41/41/41
f 7/7/7 96/96/96 9/9/9
f 99/99/99 98/98/98 97/97/97
f 100/100/100 97/97/97 98/98/98
f 102/102/102 101/101/101 23/23/23
f 25/25/25 23/23/23 101/101/101
