g Rush_Base04_CorpsePart
v -0.054024816 -0.017433763 0.4941783
v 0.3952322 0.55657756 0.39302254
v 0.3952322 0.55657756 -0.39302254
v -0.054024816 -0.017433763 -0.49417835
v -0.69777143 0.07417643 -0.54835784
v 0.0055903196 0.85500705 -0.39302254
v -0.033342957 0.884704 -0.26336288
v -0.76741827 0.08548963 -0.36743534
v -0.054024816 -0.017433763 -0.49417835
v 0.3952322 0.55657756 -0.39302254
v 0.0055903196 0.85500705 -0.39302254
v -0.69777143 0.07417643 -0.54835784
v 0.3952322 0.55657756 0.39302254
v -0.054024816 -0.017433763 0.4941783
v -0.6977273 0.07417643 0.54835784
v 0.0055903196 0.85500705 0.39302254
v -0.8961941 -0.22487164 -0.39452517
v -0.8152782 -0.22487164 -0.58883786
v -0.8152782 -0.22487164 -0.58883786
v -0.8152782 -0.22487164 0.58883774
v 1.1316496 1.3357729 0.110590816
v 1.1316938 1.3357288 -0.110723376
v 1.0612074 1.2412018 -0.2057364
v 1.0612074 1.2412018 0.2057364
v 1.0612074 1.2412018 0.2057364
v 0.9135615 1.4279135 0.20498514
v 1.0521038 1.4406852 0.1103698
v 1.1316496 1.3357729 0.110590816
v 1.1316938 1.3357288 -0.110723376
v 1.0523248 1.44042 -0.10997212
v 0.9135615 1.4279135 -0.20498514
v 1.0612074 1.2412018 -0.2057364
v 0.879622 1.4480652 -0.124599695
v 0.9135615 1.4279135 -0.20498514
v 1.0523248 1.44042 -0.10997212
v 1.1316938 1.3357288 -0.110723376
v 1.1316496 1.3357729 0.110590816
v 1.0521038 1.4406852 0.1103698
v -0.76741827 0.08548963 0.36743534
v -0.6977273 0.07417643 0.54835784
v -0.8152782 -0.22487164 0.58883774
v -0.8961941 -0.22487164 0.39452517
v -0.033342957 0.884704 0.26336288
v 0.0055903196 0.85500705 0.39302254
v 0.879622 1.4480652 0.124599695
v 0.9135615 1.4279135 0.20498514
v 0.095477104 -1.1000965 0.5543679
v 0.14355814 -1.4480652 -0.57372415
v 0.095477104 -1.1000965 0.5543679
v -0.7987062 -0.990721 0.61080134
v -0.8787824 -1.03235 0.41003656
v -0.8750702 -1.2044783 -0.41335094
v -0.7928287 -1.2641817 -0.6186233
v 0.14355814 -1.4480652 -0.57372415
v -0.7928287 -1.2641817 -0.6186233
v -1.0561253 -0.3516146 0.45776403
v -0.7306503 -0.26031363 0.6528722
v -0.7306503 -0.3685844 0.7694069
v -1.1316496 -0.47632474 0.5491091
v -1.1316496 -0.47632474 0.5491091
v -1.1316937 -0.47632474 -0.54910916
v -1.0561694 -0.3516146 -0.45776403
v -1.0561253 -0.3516146 0.45776403
v -1.1316937 -0.47632474 -0.54910916
v -0.7306503 -0.36867273 -0.76940686
v -0.7306503 -0.26031363 -0.6527839
v -1.0561694 -0.3516146 -0.45776403
v -1.1316496 -0.77895236 0.5491091
v -0.7306503 -0.88664854 0.7694069
v -0.77055585 -0.9949634 0.6384655
v -1.0561253 -0.90370667 0.45776403
v -1.0561253 -0.90370667 0.45776403
v -1.0561694 -0.90370667 -0.45776403
v -1.1316937 -0.77895236 -0.54910916
v -1.1316496 -0.77895236 0.5491091
v -1.0561694 -0.90370667 -0.45776403
v -0.77055585 -0.9949634 -0.6384656
v -0.7306503 -0.88664854 -0.76940686
v -1.1316937 -0.77895236 -0.54910916
v -0.43880558 -0.40601504 0.4990394
v -0.7306503 -0.3685844 0.7694069
v -0.43880558 -0.25947404 0.38263738
v -0.43880558 -0.25947404 -0.38263738
v -0.7306503 -0.36867273 -0.76940686
v -0.43880558 -0.40601504 -0.49903947
v -0.7306503 -0.88664854 0.7694069
v -0.43880558 -0.6991414 0.4990394
v -0.43880558 -0.84568244 0.38263738
v -0.43880558 -0.84568244 -0.38263738
v -0.43880558 -0.6991414 -0.49903947
v -0.7306503 -0.88664854 -0.76940686
v -0.7306503 -0.26031363 0.6528722
v -1.0561253 -0.3516146 0.45776403
v -1.0561694 -0.3516146 -0.45776403
v -0.7306503 -0.26031363 -0.6527839
v -1.0561253 -0.90370667 0.45776403
v -0.77055585 -0.9949634 0.6384655
v -0.77055585 -0.9949634 -0.6384656
v -1.0561694 -0.90370667 -0.45776403
v -0.43880558 -0.25947404 -0.38263738
v -0.43880558 -0.25947404 0.38263738
v -0.43880558 -0.84568244 0.38263738
v -0.43880558 -0.84568244 -0.38263738
v 0.52038425 -0.15071726 -0.24086916
v 0.7451454 -0.116954446 -0.13352644
v 0.7253473 -0.08000982 -0.028746963
v 0.48533994 -0.07616508 -0.028128266
v 0.7445267 -0.120357275 0.074530005
v 0.5195888 -0.15655053 0.18191683
v 0.7914587 -0.21435392 0.11576128
v 0.6030235 -0.34480894 0.26614702
v 0.8386559 -0.30693638 0.07081783
v 0.6867676 -0.530681 0.17528808
v 0.8584539 -0.343881 -0.033961654
v 0.7217677 -0.60523313 -0.037452817
v 0.8392746 -0.30353355 -0.13723862
v 0.68756306 -0.5248477 -0.24745381
v 0.79234254 -0.20953691 -0.1784699
v 0.6041283 -0.33658922 -0.3317281
v 0.8910235 -0.12742794 -0.030603051
v 0.22862792 -0.2629652 -0.2866963
v 0.29522538 -0.21771252 -0.29584408
v 0.26349545 -0.12141788 -0.027598023
v 0.21019983 -0.16225135 -0.03206134
v 0.294209 -0.22571123 0.23667085
v 0.227965 -0.26614702 0.22085011
v 0.36937976 -0.46947497 0.3422016
v 0.26915205 -0.51163423 0.3185588
v 0.44503665 -0.7099242 0.2271254
v 0.30587578 -0.75102293 0.20754826
v 0.47685504 -0.8062631 -0.04107654
v 0.3189566 -0.8466988 -0.037894726
v 0.44609737 -0.7019697 -0.30538964
v 0.30649447 -0.74792945 -0.2816584
v 0.3708824 -0.45820594 -0.41087615
v 0.2700801 -0.5071708 -0.38860333
v 0.12906313 -0.19981468 -0.36372316
v 0.22862792 -0.2629652 -0.2866963
v 0.21019983 -0.16225135 -0.03206134
v 0.10851371 -0.06158173 -0.019775987
v 0.10851371 -0.06158173 -0.019775987
v 0.21019983 -0.16225135 -0.03206134
v 0.227965 -0.26614702 0.22085011
v 0.12906313 -0.19981468 0.32412708
v 0.26915205 -0.51163423 0.3185588
v 0.17860246 -0.5336419 0.46660244
v 0.30587578 -0.75102293 0.20754826
v 0.22818601 -0.86738074 0.32412708
v 0.3189566 -0.8466988 -0.037894726
v 0.24873531 -1.0056579 -0.019775987
v 0.24873531 -1.0056579 -0.019775987
v 0.3189566 -0.8466988 -0.037894726
v 0.30649447 -0.74792945 -0.2816584
v 0.22818601 -0.86738074 -0.36372316
v 0.2700801 -0.5071708 -0.38860333
v 0.17860246 -0.5336419 -0.5061986
v -0.095609665 -0.30578732 -0.24462545
v 0.12906313 -0.19981468 -0.36372316
v 0.10851371 -0.06158173 -0.019775987
v -0.11151886 -0.19862151 -0.019775987
v 0.12906313 -0.19981468 0.32412708
v -0.095609665 -0.30578732 0.20502937
v 0.17860246 -0.5336419 0.46660244
v -0.05720663 -0.5643996 0.29814208
v 0.22818601 -0.86738074 0.32412708
v -0.018803716 -0.8230119 0.20502937
v 0.24873531 -1.0056579 -0.019775987
v -0.0028945208 -0.9301336 -0.019775987
v 0.22818601 -0.86738074 -0.36372316
v -0.018803716 -0.8230119 -0.24462545
v 0.17860246 -0.5336419 -0.5061986
v -0.05720663 -0.5643996 -0.33773828
v -0.7987062 -0.990721 0.61080134
v -0.7928287 -1.2641817 -0.6186233
v -0.8750702 -1.2044783 -0.41335094
v -0.8787824 -1.03235 0.41003656
v -0.7987062 -0.990721 0.61080134
v 0.095477104 -1.1000965 0.5543679
v 0.14355814 -1.4480652 -0.57372415
vt 0.15062599 0.7002012
vt 0.15303114 0.7146321
vt 0.16445556 0.7146321
vt 0.16686071 0.7002012
vt 0.1458157 0.7020051
vt 0.14401186 0.6803588
vt 0.142208 0.6803588
vt 0.14341056 0.7026064
vt 0.19211471 0.6887768
vt 0.18249413 0.7002012
vt 0.19091214 0.7062141
vt 0.20474172 0.69058067
vt 0.18249413 0.7002012
vt 0.19211471 0.6887768
vt 0.20474172 0.69058067
vt 0.19091214 0.7062141
vt 0.14341056 0.7092205
vt 0.14701828 0.70861924
vt 0.20714685 0.6845678
vt 0.20714685 0.6845678
vt 0.15663885 0.73627836
vt 0.16084786 0.73627836
vt 0.16265172 0.73387325
vt 0.154835 0.73387325
vt 0.16926585 0.7140308
vt 0.17227228 0.7182398
vt 0.16926585 0.7188411
vt 0.16746199 0.71643597
vt 0.16746199 0.71643597
vt 0.16926585 0.7188411
vt 0.17227228 0.7182398
vt 0.16926585 0.7140308
vt 0.14040413 0.6587125
vt 0.1416067 0.6587125
vt 0.13980284 0.6557061
vt 0.13980284 0.65269965
vt 0.13559385 0.65269965
vt 0.13559385 0.6557061
vt 0.13318871 0.7026064
vt 0.13018228 0.7020051
vt 0.12958099 0.70861924
vt 0.13258742 0.7092205
vt 0.13378999 0.6803588
vt 0.13198613 0.6803588
vt 0.13559385 0.6593138
vt 0.13378999 0.6587125
vt 0.15062599 0.67795366
vt 0.16686071 0.6707382
vt 0.18910828 0.66652924
vt 0.20714685 0.66893435
vt 0.13258742 0.7254552
vt 0.14401186 0.7284617
vt 0.14761956 0.72966427
vt 0.18790571 0.6599151
vt 0.20714685 0.6635228
vt 0.22518544 0.6418765
vt 0.21797001 0.6436804
vt 0.21797001 0.64067394
vt 0.226388 0.63887006
vt 0.22578672 0.65690863
vt 0.21075457 0.65690863
vt 0.21195716 0.6599151
vt 0.22458416 0.6599151
vt 0.226388 0.63887006
vt 0.21797001 0.64067394
vt 0.21797001 0.6436804
vt 0.22518544 0.6418765
vt 0.226388 0.6322559
vt 0.21797001 0.6304521
vt 0.21736872 0.62804693
vt 0.22518544 0.6292495
vt 0.22458416 0.6478894
vt 0.21195716 0.6478894
vt 0.21075457 0.6502945
vt 0.22578672 0.6502945
vt 0.22518544 0.6292495
vt 0.21736872 0.62804693
vt 0.21797001 0.6304521
vt 0.226388 0.6322559
vt 0.21075457 0.64067394
vt 0.21797001 0.64067394
vt 0.21075457 0.6436804
vt 0.21075457 0.6436804
vt 0.21797001 0.64067394
vt 0.21075457 0.64067394
vt 0.21797001 0.6304521
vt 0.21075457 0.6340598
vt 0.21015328 0.6310534
vt 0.21015328 0.6310534
vt 0.21075457 0.6340598
vt 0.21797001 0.6304521
vt 0.2269893 0.6707382
vt 0.22458416 0.6635228
vt 0.21195716 0.6635228
vt 0.209552 0.6707382
vt 0.21255843 0.6803588
vt 0.209552 0.6869729
vt 0.22759059 0.6869729
vt 0.22458416 0.6803588
vt 0.21315971 0.6761498
vt 0.22338158 0.6761498
vt 0.21315971 0.69358706
vt 0.22398287 0.69358706
vt 0.17768386 0.6767511
vt 0.18309543 0.67735237
vt 0.18369672 0.6749472
vt 0.17828514 0.6725421
vt 0.18309543 0.67735237
vt 0.17768386 0.6767511
vt 0.18369672 0.67975754
vt 0.17828514 0.68156135
vt 0.18489929 0.68156135
vt 0.180089 0.6857704
vt 0.18670315 0.6833652
vt 0.18309543 0.6893781
vt 0.18489929 0.68156135
vt 0.180089 0.6857704
vt 0.18369672 0.67975754
vt 0.17828514 0.68156135
vt 0.18730444 0.67795366
vt 0.17106971 0.67795366
vt 0.17227228 0.67735237
vt 0.17287357 0.6719408
vt 0.17227228 0.6719408
vt 0.17227228 0.67735237
vt 0.17106971 0.67795366
vt 0.17287357 0.6839665
vt 0.17046842 0.6845678
vt 0.17467743 0.6899794
vt 0.171671 0.69178325
vt 0.17768386 0.69418836
vt 0.17407614 0.6965935
vt 0.17467743 0.6899794
vt 0.171671 0.69178325
vt 0.17287357 0.6839665
vt 0.17046842 0.6845678
vt 0.19872886 0.7098218
vt 0.201134 0.7092205
vt 0.201134 0.70380896
vt 0.19872886 0.7032077
vt 0.201134 0.70380896
vt 0.19872886 0.7032077
vt 0.19872886 0.7098218
vt 0.201134 0.7092205
vt 0.20353915 0.71643597
vt 0.20534301 0.7146321
vt 0.21135587 0.71944237
vt 0.21135587 0.71703726
vt 0.21797001 0.7182398
vt 0.21676743 0.7158347
vt 0.21797001 0.7182398
vt 0.21676743 0.7158347
vt 0.21135587 0.71703726
vt 0.21135587 0.71944237
vt 0.20534301 0.7146321
vt 0.20353915 0.71643597
vt 0.188507 0.73687965
vt 0.19391857 0.73808223
vt 0.19031087 0.7446964
vt 0.18670315 0.74169
vt 0.19391857 0.73808223
vt 0.188507 0.73687965
vt 0.19512114 0.7302655
vt 0.18970957 0.7308668
vt 0.1933173 0.7224488
vt 0.18790571 0.72425264
vt 0.18910828 0.71643597
vt 0.18550058 0.72004366
vt 0.1933173 0.7224488
vt 0.18790571 0.72425264
vt 0.19512114 0.7302655
vt 0.18970957 0.7308668
vt 0.12958099 0.72425264
vt 0.14761956 0.72966427
vt 0.14401186 0.7284617
vt 0.13258742 0.7254552
vt 0.12958099 0.72425264
vt 0.13258742 0.7254552
vt 0.14401186 0.7284617
vn 0.9953482 -0.09624308 -0.0043820096
vn 0.75963664 -0.6503476 -0
vn 0.75963664 -0.6503476 -0
vn 0.9953482 -0.09624308 -0.0043820096
vn -0.73249733 0.5995861 -0.3224036
vn -0.5917678 0.73249733 -0.33653906
vn -0.6621325 0.7481339 -0.04331553
vn -0.7950437 0.5995861 -0.091662206
vn 0.0884248 0.07575965 -0.9931976
vn 0.104061365 0.12266946 -0.9869769
vn 0.104061365 0.12266946 -0.9869769
vn 0.09624308 0.107032895 -0.9895864
vn 0.104061365 0.12266946 0.9869769
vn 0.0884248 0.07575965 0.9931976
vn 0.09624308 0.107032895 0.9895864
vn 0.104061365 0.12266946 0.9869769
vn -0.9905014 0.08357799 -0.1091864
vn -0.9201367 0.08357799 -0.3825744
vn 0.08060646 0.052304745 -0.9953727
vn 0.0884248 0.052304745 0.99470866
vn 0.7998906 -0.5966146 0.06500837
vn 0.7998906 -0.5966146 0.06500837
vn 0.7217075 -0.69043434 0.049383137
vn 0.7217075 -0.69043434 0.049383137
vn 0.1431529 0.1539427 0.9776548
vn 0.010241747 0.34940028 0.93691754
vn 0.46370345 0.8341353 0.29865932
vn 0.71388924 0.544858 0.43987718
vn 0.7060709 0.544858 -0.4523203
vn 0.46370345 0.8341353 -0.29865932
vn 0.010241747 0.34940028 -0.93691754
vn 0.1431529 0.1539427 -0.9776548
vn -0.4823115 0.87322676 -0.069646865
vn 0.010241747 0.34940028 -0.93691754
vn 0.46370345 0.8341353 -0.29865932
vn 0.7060709 0.544858 -0.4523203
vn 0.71388924 0.544858 0.43987718
vn 0.46370345 0.8341353 0.29865932
vn -0.7950437 0.5995861 0.091662206
vn -0.73249733 0.5995861 0.3224036
vn -0.9201367 0.099214554 0.37882042
vn -0.9905014 0.08357799 0.1091864
vn -0.6621325 0.7481339 0.04331553
vn -0.5917678 0.73249733 0.33653906
vn -0.4823115 0.87322676 0.069646865
vn 0.010241747 0.34940028 0.93691754
vn 0.98752993 0.13830614 -0.07520662
vn 0.98752993 0.13830614 -0.07520662
vn 0.0884248 0.052304745 0.99470866
vn 0.0884248 0.052304745 0.99470866
vn -0.99831975 -0.018060029 0.05505946
vn -0.9905014 -0.018060029 -0.13631137
vn -0.9279549 -0.010241747 -0.37255174
vn 0.08060646 0.052304745 -0.9953727
vn 0.08060646 0.052304745 -0.9953727
vn -0.4741652 0.88043594 -0
vn -0.11485112 0.9748647 0.19091344
vn -0.51358473 0.19303417 0.83604336
vn -0.9201367 0.14612436 0.3633127
vn -0.9201367 0.14612436 0.3633127
vn -0.9201367 0.14612436 -0.3633127
vn -0.4741652 0.88043594 -0
vn -0.4741652 0.88043594 -0
vn -0.9201367 0.14612436 -0.3633127
vn -0.51358473 0.19303417 -0.83604336
vn -0.11485112 0.9748647 -0.19091344
vn -0.4741652 0.88043594 -0
vn -0.9201367 -0.1431529 0.36449376
vn -0.51358473 -0.15097123 0.84465283
vn 0.08060646 -0.9797116 0.18348788
vn -0.51358473 -0.8546187 0.076534875
vn -0.51358473 -0.8546187 0.076534875
vn -0.51358473 -0.8546187 -0.076534875
vn -0.9201367 -0.1431529 -0.36449376
vn -0.9201367 -0.1431529 0.36449376
vn -0.51358473 -0.8546187 -0.076534875
vn 0.08060646 -0.9797116 -0.18348788
vn -0.51358473 -0.15097123 -0.84465283
vn -0.9201367 -0.1431529 -0.36449376
vn 0.67479765 0.17739761 0.7163646
vn 0.67479765 0.1304878 0.7263753
vn 0.049333274 0.99831975 0.030396244
vn 0.049333274 0.99831975 -0.030396244
vn 0.67479765 0.1304878 -0.7263753
vn 0.67479765 0.17739761 -0.7163646
vn 0.71388924 -0.22915429 0.6617027
vn 0.71388924 -0.16660786 0.68015
vn 0.4558851 -0.8858919 0.08581534
vn 0.4558851 -0.8858919 -0.08581534
vn 0.71388924 -0.16660786 -0.68015
vn 0.71388924 -0.22915429 -0.6617027
vn -0.11485112 0.9748647 0.19091344
vn -0.4741652 0.88043594 -0
vn -0.4741652 0.88043594 -0
vn -0.11485112 0.9748647 -0.19091344
vn -0.51358473 -0.8546187 0.076534875
vn 0.08060646 -0.9797116 0.18348788
vn 0.08060646 -0.9797116 -0.18348788
vn -0.51358473 -0.8546187 -0.076534875
vn 0.049333274 0.99831975 -0.030396244
vn 0.049333274 0.99831975 0.030396244
vn 0.4558851 -0.8858919 0.08581534
vn 0.4558851 -0.8858919 -0.08581534
vn 0.02587831 0.75595224 -0.65411514
vn 0.19788104 0.7872255 -0.58405405
vn 0.057151556 0.99831975 0.009562088
vn -0.12266946 0.9905014 0.062122155
vn 0.20569938 0.7715888 0.6019456
vn 0.03369665 0.73249733 0.6799354
vn 0.5340682 0.24776232 0.8083223
vn 0.3620655 0.11485112 0.92505014
vn 0.80770886 -0.23697257 0.5398615
vn 0.6357062 -0.46370345 0.61713594
vn 0.90906125 -0.41666266 -0
vn 0.73734415 -0.67479765 -0.031173134
vn 0.80770886 -0.22133595 -0.5464584
vn 0.6357062 -0.44024855 -0.6340811
vn 0.5262499 0.27121723 -0.805917
vn 0.3620655 0.14612436 -0.9206282
vn 0.8679597 0.49663463 -0
vn -0.45885658 0.5214031 -0.7194369
vn -0.16176105 0.6855875 -0.7097909
vn -0.30249047 0.9514098 0.057609946
vn -0.59836346 0.8012248 -0
vn -0.16176105 0.6621325 0.73171985
vn -0.47449327 0.51358473 0.7149034
vn 0.15097123 -0.018060029 0.98837316
vn -0.14612436 -0.18224442 0.9723346
vn 0.4089753 -0.6357062 0.65468836
vn 0.7060709 -0.49497664 0.5064208
vn 0.50946224 -0.8604929 -0
vn 0.7217075 -0.69043434 -0.049383137
vn 0.4089753 -0.6122513 -0.6766739
vn 0.65134275 -0.5262499 -0.54663855
vn 0.1431529 0.013213158 -0.9896124
vn 0.502795 0.021031499 -0.8641498
vn 0.6982526 0.56049454 -0.44529673
vn 0.6982526 0.56049454 -0.44529673
vn 0.6977484 0.716343 -0
vn 0.6977484 0.716343 -0
vn 0.6977484 0.716343 -0
vn 0.6977484 0.716343 -0
vn 0.76079905 0.5214031 0.38642412
vn 0.76079905 0.49794817 0.41621196
vn 0.8389821 0.12266946 0.5301521
vn 0.84680045 0.107032895 0.52103066
vn 0.7060709 -0.49497664 0.5064208
vn 0.90152854 -0.23697257 0.36206397
vn 0.7217075 -0.69043434 -0.049383137
vn 0.9093469 -0.4089753 0.07633778
vn 0.9093469 -0.4089753 0.07633778
vn 0.7217075 -0.69043434 -0.049383137
vn 0.65134275 -0.5262499 -0.54663855
vn 0.87025535 -0.299519 -0.39108056
vn 0.502795 0.021031499 -0.8641498
vn 0.7764357 0.09139621 -0.6235338
vn -0.5761312 0.53703964 -0.6161666
vn -0.5761312 0.49012983 -0.65409905
vn -0.56049454 0.82631695 0.055191983
vn -0.56049454 0.82631695 -0.055191983
vn -0.5761312 0.49012983 0.65409905
vn -0.5761312 0.53703964 0.6161666
vn -0.544858 -0.0884248 0.833853
vn -0.5526763 -0.08060646 0.8294887
vn -0.42758334 -0.64352447 0.63486123
vn -0.41194677 -0.6669794 0.62083685
vn -0.31800947 -0.9480876 -0
vn -0.31800947 -0.9480876 -0
vn -0.42758334 -0.64352447 -0.63486123
vn -0.41194677 -0.6669794 -0.62083685
vn -0.544858 -0.0884248 -0.833853
vn -0.5526763 -0.08060646 -0.8294887
vn -0.9279549 -0.010241747 0.37255174
vn -0.1539427 -0.9562567 0.24874647
vn -0.099214554 -0.9718933 0.21349438
vn -0.099214554 -0.9718933 0.21349438
vn -0.1539427 -0.9562567 0.24874647
vn -0.1539427 -0.9562567 0.24874647
vn -0.1539427 -0.9562567 0.24874647
g Rush_Base04_CorpsePart_0
f 3/3/3 2/2/2 1/1/1
f 4/4/4 3/3/3 1/1/1
f 7/7/7 6/6/6 5/5/5
f 8/8/8 7/7/7 5/5/5
f 11/11/11 10/10/10 9/9/9
f 12/12/12 11/11/11 9/9/9
f 15/15/15 14/14/14 13/13/13
f 16/16/16 15/15/15 13/13/13
f 17/17/17 8/8/8 5/5/5
f 18/18/18 17/17/17 5/5/5
f 12/12/12 9/9/9 19/19/19
f 14/14/14 15/15/15 20/20/20
f 23/23/23 22/22/22 21/21/21
f 24/24/24 23/23/23 21/21/21
f 27/27/27 26/26/26 25/25/25
f 28/28/28 27/27/27 25/25/25
f 31/31/31 30/30/30 29/29/29
f 32/32/32 31/31/31 29/29/29
f 35/35/35 34/34/34 33/33/33
f 37/37/37 36/36/36 35/35/35
f 38/38/38 37/37/37 35/35/35
f 31/31/31 32/32/32 10/10/10
f 11/11/11 31/31/31 10/10/10
f 23/23/23 24/24/24 2/2/2
f 3/3/3 23/23/23 2/2/2
f 13/13/13 25/25/25 26/26/26
f 16/16/16 13/13/13 26/26/26
f 33/33/33 34/34/34 6/6/6
f 7/7/7 33/33/33 6/6/6
f 41/41/41 40/40/40 39/39/39
f 42/42/42 41/41/41 39/39/39
f 40/40/40 44/44/44 43/43/43
f 39/39/39 40/40/40 43/43/43
f 44/44/44 46/46/46 45/45/45
f 43/43/43 44/44/44 45/45/45
f 42/42/42 39/39/39 8/8/8
f 17/17/17 42/42/42 8/8/8
f 39/39/39 43/43/43 7/7/7
f 8/8/8 39/39/39 7/7/7
f 43/43/43 45/45/45 33/33/33
f 7/7/7 43/43/43 33/33/33
f 35/35/35 33/33/33 45/45/45
f 38/38/38 35/35/35 45/45/45
f 38/38/38 45/45/45 46/46/46
f 4/4/4 1/1/1 47/47/47
f 48/48/48 4/4/4 47/47/47
f 50/50/50 49/49/49 14/14/14
f 20/20/20 50/50/50 14/14/14
f 51/51/51 42/42/42 17/17/17
f 52/52/52 51/51/51 17/17/17
f 17/17/17 18/18/18 53/53/53
f 52/52/52 17/17/17 53/53/53
f 19/19/19 9/9/9 54/54/54
f 55/55/55 19/19/19 54/54/54
f 58/58/58 57/57/57 56/56/56
f 59/59/59 58/58/58 56/56/56
f 62/62/62 61/61/61 60/60/60
f 63/63/63 62/62/62 60/60/60
f 66/66/66 65/65/65 64/64/64
f 67/67/67 66/66/66 64/64/64
f 70/70/70 69/69/69 68/68/68
f 71/71/71 70/70/70 68/68/68
f 74/74/74 73/73/73 72/72/72
f 75/75/75 74/74/74 72/72/72
f 78/78/78 77/77/77 76/76/76
f 79/79/79 78/78/78 76/76/76
f 57/57/57 81/81/81 80/80/80
f 82/82/82 57/57/57 80/80/80
f 84/84/84 66/66/66 83/83/83
f 85/85/85 84/84/84 83/83/83
f 88/88/88 87/87/87 86/86/86
f 70/70/70 88/88/88 86/86/86
f 90/90/90 89/89/89 77/77/77
f 91/91/91 90/90/90 77/77/77
f 94/94/94 93/93/93 92/92/92
f 95/95/95 94/94/94 92/92/92
f 74/74/74 75/75/75 60/60/60
f 61/61/61 74/74/74 60/60/60
f 98/98/98 97/97/97 96/96/96
f 99/99/99 98/98/98 96/96/96
f 79/79/79 64/64/64 65/65/65
f 78/78/78 79/79/79 65/65/65
f 58/58/58 59/59/59 68/68/68
f 69/69/69 58/58/58 68/68/68
f 100/100/100 95/95/95 92/92/92
f 101/101/101 100/100/100 92/92/92
f 84/84/84 85/85/85 90/90/90
f 91/91/91 84/84/84 90/90/90
f 103/103/103 102/102/102 97/97/97
f 98/98/98 103/103/103 97/97/97
f 87/87/87 80/80/80 81/81/81
f 86/86/86 87/87/87 81/81/81
f 106/106/106 105/105/105 104/104/104
f 107/107/107 106/106/106 104/104/104
f 108/108/108 106/106/106 107/107/107
f 109/109/109 108/108/108 107/107/107
f 110/110/110 108/108/108 109/109/109
f 111/111/111 110/110/110 109/109/109
f 112/112/112 110/110/110 111/111/111
f 113/113/113 112/112/112 111/111/111
f 114/114/114 112/112/112 113/113/113
f 115/115/115 114/114/114 113/113/113
f 116/116/116 114/114/114 115/115/115
f 117/117/117 116/116/116 115/115/115
f 118/118/118 116/116/116 117/117/117
f 119/119/119 118/118/118 117/117/117
f 105/105/105 118/118/118 119/119/119
f 104/104/104 105/105/105 119/119/119
f 106/106/106 120/120/120 105/105/105
f 108/108/108 120/120/120 106/106/106
f 110/110/110 120/120/120 108/108/108
f 112/112/112 120/120/120 110/110/110
f 114/114/114 120/120/120 112/112/112
f 116/116/116 120/120/120 114/114/114
f 118/118/118 120/120/120 116/116/116
f 105/105/105 120/120/120 118/118/118
f 123/123/123 122/122/122 121/121/121
f 124/124/124 123/123/123 121/121/121
f 125/125/125 123/123/123 124/124/124
f 126/126/126 125/125/125 124/124/124
f 127/127/127 125/125/125 126/126/126
f 128/128/128 127/127/127 126/126/126
f 129/129/129 127/127/127 128/128/128
f 130/130/130 129/129/129 128/128/128
f 131/131/131 129/129/129 130/130/130
f 132/132/132 131/131/131 130/130/130
f 133/133/133 131/131/131 132/132/132
f 134/134/134 133/133/133 132/132/132
f 135/135/135 133/133/133 134/134/134
f 136/136/136 135/135/135 134/134/134
f 122/122/122 135/135/135 136/136/136
f 121/121/121 122/122/122 136/136/136
f 107/107/107 104/104/104 122/122/122
f 123/123/123 107/107/107 122/122/122
f 109/109/109 107/107/107 123/123/123
f 125/125/125 109/109/109 123/123/123
f 111/111/111 109/109/109 125/125/125
f 127/127/127 111/111/111 125/125/125
f 113/113/113 111/111/111 127/127/127
f 129/129/129 113/113/113 127/127/127
f 115/115/115 113/113/113 129/129/129
f 131/131/131 115/115/115 129/129/129
f 117/117/117 115/115/115 131/131/131
f 133/133/133 117/117/117 131/131/131
f 119/119/119 117/117/117 133/133/133
f 135/135/135 119/119/119 133/133/133
f 104/104/104 119/119/119 135/135/135
f 122/122/122 104/104/104 135/135/135
f 139/139/139 138/138/138 137/137/137
f 140/140/140 139/139/139 137/137/137
f 143/143/143 142/142/142 141/141/141
f 144/144/144 143/143/143 141/141/141
f 145/145/145 143/143/143 144/144/144
f 146/146/146 145/145/145 144/144/144
f 147/147/147 145/145/145 146/146/146
f 148/148/148 147/147/147 146/146/146
f 149/149/149 147/147/147 148/148/148
f 150/150/150 149/149/149 148/148/148
f 153/153/153 152/152/152 151/151/151
f 154/154/154 153/153/153 151/151/151
f 155/155/155 153/153/153 154/154/154
f 156/156/156 155/155/155 154/154/154
f 138/138/138 155/155/155 156/156/156
f 137/137/137 138/138/138 156/156/156
f 159/159/159 158/158/158 157/157/157
f 160/160/160 159/159/159 157/157/157
f 161/161/161 159/159/159 160/160/160
f 162/162/162 161/161/161 160/160/160
f 163/163/163 161/161/161 162/162/162
f 164/164/164 163/163/163 162/162/162
f 165/165/165 163/163/163 164/164/164
f 166/166/166 165/165/165 164/164/164
f 167/167/167 165/165/165 166/166/166
f 168/168/168 167/167/167 166/166/166
f 169/169/169 167/167/167 168/168/168
f 170/170/170 169/169/169 168/168/168
f 171/171/171 169/169/169 170/170/170
f 172/172/172 171/171/171 170/170/170
f 158/158/158 171/171/171 172/172/172
f 157/157/157 158/158/158 172/172/172
f 173/173/173 41/41/41 42/42/42
f 51/51/51 173/173/173 42/42/42
f 176/176/176 175/175/175 174/174/174
f 177/177/177 176/176/176 174/174/174
f 174/174/174 179/179/179 178/178/178
f 177/177/177 174/174/174 178/178/178
