g ShotgunTurret_DefaultPart_2_CorpsePart
v 15.896976 73.32706 27.116436
v 22.589432 92.57474 13.748211
v 33.888172 85.19562 13.748211
v 23.085346 70.07262 27.111668
v -15.896374 73.32706 27.116436
v -22.59122 92.57474 13.748211
v 46.224037 57.338596 13.748211
v 31.771 54.107998 27.116436
v 14.2709465 66.260284 20.32861
v -14.270351 66.260284 20.32861
v -15.896374 73.32706 27.116436
v 15.896976 73.32706 27.116436
v 25.93924 52.641712 19.122204
v 31.771 54.107998 27.116436
v 28.259068 6.178364 27.090206
v 23.46682 6.2403526 18.37833
v 42.85039 6.1592903 13.748211
v 28.259068 6.178364 27.090206
v 20.376892 63.49222 19.758785
v 23.085346 70.07262 27.111668
v 35.25432 54.756504 -23.378605
v 11.283543 6.2260475 -23.23317
v 42.85039 6.1592903 -11.300232
v 46.224037 57.338596 -23.452515
v 27.72739 76.51712 -23.662323
v 27.72739 76.51712 -63.674023
v 33.888172 85.19562 -63.674023
v 33.888172 85.19562 -23.662323
v 46.224037 57.338596 -63.674023
v 46.224037 57.338596 -23.452515
v 33.888172 85.19562 -23.662323
v 33.888172 85.19562 -63.674023
v 35.25432 54.756504 -63.674023
v 35.25432 54.756504 -23.378605
v 46.224037 57.338596 -23.452515
v 46.224037 57.338596 -63.674023
v 33.888172 85.19562 -23.662323
v 22.589432 92.57474 -23.659939
v -22.59122 92.57474 -23.659939
v -33.88757 85.19562 -23.662323
v 11.283543 6.2260475 -23.23317
v 23.46682 6.2403526 18.37833
v 42.85039 6.1592903 -11.300232
v 42.85039 6.1592903 13.748211
v 46.224037 57.338596 13.748211
v 42.85039 6.1592903 -11.300232
v 28.259068 6.178364 27.090206
v 42.85039 6.1592903 13.748211
v 22.589432 92.57474 13.748211
v -22.59122 92.57474 13.748211
v -22.59122 92.57474 -23.659939
v 22.589432 92.57474 -23.659939
v 33.888172 85.19562 13.748211
v 46.224037 57.338596 -63.674023
v 33.888172 85.19562 -63.674023
v 27.72739 76.51712 -63.674023
v 35.25432 54.756504 -63.674023
v -23.084751 70.07262 27.111668
v -33.88757 85.19562 13.748211
v -31.770397 54.107998 27.116436
v -46.22344 57.338596 13.748211
v -28.258465 6.178364 27.090206
v -42.84979 6.1592903 13.748211
v -20.376293 63.49222 19.758785
v -25.93864 52.641712 19.122204
v -31.770397 54.107998 27.116436
v -23.084751 70.07262 27.111668
v -35.256107 54.756504 -23.378605
v -46.22344 57.338596 -23.452515
v -42.84979 6.1592903 -11.300232
v -11.28294 6.2260475 -23.23317
v -33.88757 85.19562 -63.674023
v -27.726788 76.51712 -63.674023
v -27.726788 76.51712 -23.662323
v -33.88757 85.19562 -23.662323
v -33.88757 85.19562 13.748211
v -46.22344 57.338596 13.748211
v -46.22344 57.338596 -23.452515
v -33.88757 85.19562 -23.662323
v -46.22344 57.338596 -23.452515
v -35.256107 54.756504 -23.378605
v -35.256107 54.756504 -63.674023
v -46.22344 57.338596 -63.674023
v -23.468601 6.2403526 18.37833
v -28.258465 6.178364 27.090206
v -42.84979 6.1592903 13.748211
v -42.84979 6.1592903 -11.300232
v -46.22344 57.338596 -63.674023
v -35.256107 54.756504 -63.674023
v -27.726788 76.51712 -63.674023
v -33.88757 85.19562 -63.674023
v -46.22344 57.338596 -63.674023
v -33.88757 85.19562 -63.674023
v -23.468601 6.2403526 18.37833
v -42.84979 6.1592903 -11.300232
v -42.84979 6.1592903 13.748211
v -28.258465 6.178364 27.090206
v -11.28294 6.2260475 -23.23317
v 35.25432 54.756504 -23.378605
v 35.25432 54.756504 -63.674023
v 35.25432 54.756504 -23.378605
v -35.256107 54.756504 -23.378605
v -11.28294 6.2260475 -23.23317
v 11.283543 6.2260475 -23.23317
v -35.256107 54.756504 -63.674023
v -35.256107 54.756504 -23.378605
v 27.72739 76.51712 -23.662323
v -27.726788 76.51712 -23.662323
v 14.2709465 66.260284 20.32861
v -0.00089263916 36.741467 12.305767
v -14.270351 66.260284 20.32861
v -20.376293 63.49222 19.758785
v -25.93864 52.641712 19.122204
v -23.468601 6.2403526 18.37833
v 23.46682 6.2403526 18.37833
v 25.93924 52.641712 19.122204
v 20.376892 63.49222 19.758785
vt 0.1917739 0.58938634
vt 0.19362327 0.59724617
vt 0.19917135 0.59400976
vt 0.19501029 0.58799934
vt 0.17744136 0.58938634
vt 0.175592 0.59678376
vt 0.20518178 0.5838383
vt 0.19917135 0.5824512
vt 0.15894777 0.58476293
vt 0.15894777 0.58476293
vt 0.15894777 0.58476293
vt 0.15894777 0.58476293
vt 0.15894777 0.58476293
vt 0.15894777 0.58476293
vt 0.15894777 0.58476293
vt 0.15894777 0.58476293
vt 0.20379475 0.5621083
vt 0.19732198 0.5611836
vt 0.15894777 0.58476293
vt 0.15894777 0.58476293
vt 0.22829877 0.6018695
vt 0.22829877 0.5796772
vt 0.21627793 0.58661234
vt 0.2250624 0.6046436
vt 0.2019454 0.5782902
vt 0.2019454 0.5782902
vt 0.2019454 0.5782902
vt 0.2019454 0.5782902
vt 0.21535325 0.5371419
vt 0.21535325 0.519573
vt 0.20148304 0.519573
vt 0.20148304 0.5371419
vt 0.2019454 0.5782902
vt 0.2019454 0.5782902
vt 0.2019454 0.5782902
vt 0.2019454 0.5782902
vt 0.2019454 0.5782902
vt 0.2019454 0.5782902
vt 0.2019454 0.5782902
vt 0.2019454 0.5782902
vt 0.23338452 0.5348302
vt 0.23477153 0.54037833
vt 0.23847026 0.5339055
vt 0.23847026 0.50385344
vt 0.21535325 0.50385344
vt 0.23847026 0.5163366
vt 0.23569621 0.5422276
vt 0.23847026 0.5394536
vt 0.19547263 0.50385344
vt 0.17466733 0.50385344
vt 0.17466733 0.519573
vt 0.19547263 0.519573
vt 0.20148304 0.50385344
vt 0.16542053 0.54453933
vt 0.16958159 0.55517316
vt 0.17281796 0.55332386
vt 0.16958159 0.54407704
vt 0.17420499 0.58799934
vt 0.17004392 0.59493446
vt 0.17050627 0.5815266
vt 0.16449584 0.5838383
vt 0.17189328 0.5611836
vt 0.16542053 0.5621083
vt 0.15894777 0.58476293
vt 0.15894777 0.58476293
vt 0.15894777 0.58476293
vt 0.15894777 0.58476293
vt 0.22829877 0.6018695
vt 0.2250624 0.6046436
vt 0.21627793 0.58661234
vt 0.22829877 0.5796772
vt 0.2019454 0.5782902
vt 0.2019454 0.5782902
vt 0.2019454 0.5782902
vt 0.2019454 0.5782902
vt 0.1686569 0.50385344
vt 0.1547867 0.50385344
vt 0.1547867 0.519573
vt 0.1686569 0.519573
vt 0.2019454 0.5782902
vt 0.2019454 0.5782902
vt 0.2019454 0.5782902
vt 0.2019454 0.5782902
vt 0.15894777 0.58476293
vt 0.15894777 0.58476293
vt 0.1316697 0.50385344
vt 0.1316697 0.515412
vt 0.20610645 0.54546404
vt 0.2019454 0.54453933
vt 0.19824666 0.55378616
vt 0.20102072 0.5556356
vt 0.1547867 0.5366796
vt 0.1686569 0.5366796
vt 0.22367537 0.539916
vt 0.21905197 0.5339055
vt 0.21905197 0.5394536
vt 0.2227507 0.5422276
vt 0.2250624 0.5348302
vt 0.2019454 0.5782902
vt 0.2019454 0.5782902
vt 0.2019454 0.5782902
vt 0.2019454 0.5782902
vt 0.2019454 0.5782902
vt 0.2019454 0.5782902
vt 0.2019454 0.5782902
vt 0.2019454 0.5782902
vt 0.2019454 0.5782902
vt 0.2019454 0.5782902
vt 0.15894777 0.58476293
vt 0.15894777 0.58476293
vt 0.15894777 0.58476293
vt 0.15894777 0.58476293
vt 0.15894777 0.58476293
vt 0.15894777 0.58476293
vt 0.15894777 0.58476293
vt 0.15894777 0.58476293
vt 0.15894777 0.58476293
vn 0.05931133 0.5599716 0.8263861
vn 0.067150354 0.5599716 0.8257861
vn 0.47477967 0.371835 0.79769856
vn 0.5061357 0.35615695 0.78548
vn -0.05827403 0.5599716 0.8264599
vn -0.066112995 0.5599716 0.8258698
vn 0.6550772 0.066112995 0.7526639
vn 0.6550772 0.066112995 0.7526639
vn -0.050434947 -0.6864333 0.7254417
vn 0.051472306 -0.6864333 0.7253688
vn 0.051472306 -0.6864333 0.7253688
vn -0.050434947 -0.6864333 0.7254417
vn -0.8264984 -0.051472306 0.56058097
vn -0.8264984 -0.05931133 0.55980587
vn -0.84217644 0.050434947 0.5368381
vn -0.84217644 0.050434947 0.5368381
vn 0.6785943 -0.043633282 0.7332161
vn 0.6785943 -0.043633282 0.7332161
vn -0.6070057 -0.47477967 0.63728195
vn -0.53645456 -0.5139748 0.66936266
vn 0.106345475 -0.07498938 -0.99149746
vn 0.05931133 -0.043633282 -0.9972855
vn 0.27096498 -0.19257474 -0.9431293
vn 0.27096498 -0.19257474 -0.9431293
vn -0.9989569 -0.043633282 -0.013462036
vn -0.9989569 -0.043633282 -0.013462036
vn -0.8180152 0.5751966 -0
vn -0.8180152 0.5751966 -0
vn 0.913765 0.4031911 -0.04970376
vn 0.9686382 0.23857152 -0.069453076
vn 0.86673087 0.4894204 -0.09615244
vn 0.913765 0.4031911 -0.04970376
vn 0.23093711 -0.9729687 -0
vn 0.23093711 -0.9729687 -0
vn 0.23093711 -0.9729687 -0
vn 0.23093711 -0.9729687 -0
vn -0.0034008026 0.0034008026 -0.99998844
vn -0.0034008026 0.0034008026 -0.99998844
vn -0.0034008026 0.0034008026 -0.99998844
vn -0.0034008026 0.0034008026 -0.99998844
vn -0.0034008026 -0.9999943 -0
vn -0.0034008026 -0.9999943 -0
vn -0.0034008026 -0.9999943 -0
vn 0.9977529 -0.066999845 -0
vn 0.9906461 0.1364564 -0
vn 0.9977529 -0.066999845 -0
vn -0.0034008026 -0.9999943 -0
vn -0.0034008026 -0.9999943 -0
vn 0.12986255 0.99111795 -0.028650919
vn -0.12882519 0.99111795 -0.033003263
vn -0.12882519 0.99111795 -0.033003263
vn 0.12986255 0.99111795 -0.028650919
vn 0.82753575 0.5599716 -0.040204708
vn -0.0034008026 0.0034008026 -0.99998844
vn -0.0034008026 0.0034008026 -0.99998844
vn -0.0034008026 0.0034008026 -0.99998844
vn -0.0034008026 0.0034008026 -0.99998844
vn -0.50509846 0.35615695 0.7861475
vn -0.47374237 0.371835 0.79831505
vn -0.66187894 0.066112995 0.74668956
vn -0.65403986 0.066112995 0.7535655
vn -0.677557 -0.043633282 0.73417485
vn -0.677557 -0.043633282 0.73417485
vn 0.600204 -0.47477967 0.643692
vn 0.82753575 -0.051472306 0.5590485
vn 0.82753575 -0.05931133 0.5582712
vn 0.5374918 -0.5139748 0.6685301
vn -0.105308175 -0.07498938 -0.9916082
vn -0.2777667 -0.19257474 -0.9411486
vn -0.2777667 -0.19257474 -0.9411486
vn -0.05827403 -0.043633282 -0.9973466
vn 0.8118577 0.5756496 -0.097542815
vn 0.99904937 -0.043592054 -0
vn 0.99904937 -0.043592054 -0
vn 0.8118577 0.5756496 -0.097542815
vn -0.8264984 0.5599716 -0.05772571
vn -0.9906268 0.13659655 -0
vn -0.9676008 0.23857152 -0.08265765
vn -0.8724029 0.4887875 -0
vn -0.22995831 -0.9732005 -0
vn -0.22995831 -0.9732005 -0
vn -0.22995831 -0.9732005 -0
vn -0.22995831 -0.9732005 -0
vn 0.8432138 0.050434947 0.5352073
vn 0.8432138 0.050434947 0.5352073
vn -0.9977484 -0.06706911 -0
vn -0.9977484 -0.06706911 -0
vn -0.0034008026 0.0034008026 -0.99998844
vn -0.0034008026 0.0034008026 -0.99998844
vn -0.0034008026 0.0034008026 -0.99998844
vn -0.0034008026 0.0034008026 -0.99998844
vn -0.9127277 0.4031911 -0.066068575
vn -0.9127277 0.4031911 -0.066068575
vn 0.0044381437 -0.9999902 -0
vn 0.0044381437 -0.9999902 -0
vn 0.0044381437 -0.9999902 -0
vn 0.0044381437 -0.9999902 -0
vn -0.0034008026 -0.9999943 -0
vn -0.9440838 -0.3258382 -0.05035101
vn -0.9440838 -0.3258382 -0.05035101
vn 0.106345475 -0.07498938 -0.99149746
vn -0.105308175 -0.07498938 -0.9916082
vn -0.05827403 -0.043633282 -0.9973466
vn 0.05931133 -0.043633282 -0.9972855
vn 0.9451211 -0.3258382 -0.023990465
vn 0.9451211 -0.3258382 -0.023990465
vn -0.0034008026 -0.012277186 -0.9999188
vn -0.0034008026 -0.012277186 -0.9999188
vn -0.0034008026 -0.26312596 0.9647555
vn 0.004438162 0.01907885 0.99980813
vn 0.004438162 -0.26312596 0.9647513
vn 0.106345475 -0.19257474 0.9755027
vn 0.22393084 -0.051472306 0.97324485
vn 0.09850645 0.12098622 0.98775446
vn -0.09746909 0.12098622 0.98785734
vn -0.22289348 -0.051472306 0.97348297
vn -0.105308175 -0.19257474 0.97561526
g ShotgunTurret_DefaultPart_2_CorpsePart_0
f 3/3/3 2/2/2 1/1/1
f 4/4/4 3/3/3 1/1/1
f 6/6/6 5/5/5 1/1/1
f 2/2/2 6/6/6 1/1/1
f 4/4/4 8/8/8 7/7/7
f 3/3/3 4/4/4 7/7/7
f 11/11/11 10/10/10 9/9/9
f 12/12/12 11/11/11 9/9/9
f 15/15/15 14/14/14 13/13/13
f 16/16/16 15/15/15 13/13/13
f 17/17/17 7/7/7 8/8/8
f 18/18/18 17/17/17 8/8/8
f 19/19/19 13/13/13 14/14/14
f 20/20/20 19/19/19 14/14/14
f 20/20/20 12/12/12 9/9/9
f 19/19/19 20/20/20 9/9/9
f 23/23/23 22/22/22 21/21/21
f 24/24/24 23/23/23 21/21/21
f 27/27/27 26/26/26 25/25/25
f 28/28/28 27/27/27 25/25/25
f 31/31/31 30/30/30 29/29/29
f 32/32/32 31/31/31 29/29/29
f 35/35/35 34/34/34 33/33/33
f 36/36/36 35/35/35 33/33/33
f 39/39/39 38/38/38 37/37/37
f 40/40/40 39/39/39 37/37/37
f 43/43/43 42/42/42 41/41/41
f 30/30/30 45/45/45 44/44/44
f 46/46/46 30/30/30 44/44/44
f 48/48/48 47/47/47 42/42/42
f 43/43/43 48/48/48 42/42/42
f 51/51/51 50/50/50 49/49/49
f 52/52/52 51/51/51 49/49/49
f 52/52/52 49/49/49 53/53/53
f 31/31/31 52/52/52 53/53/53
f 56/56/56 55/55/55 54/54/54
f 57/57/57 56/56/56 54/54/54
f 59/59/59 58/58/58 5/5/5
f 6/6/6 59/59/59 5/5/5
f 61/61/61 60/60/60 58/58/58
f 59/59/59 61/61/61 58/58/58
f 63/63/63 62/62/62 60/60/60
f 61/61/61 63/63/63 60/60/60
f 66/66/66 65/65/65 64/64/64
f 67/67/67 66/66/66 64/64/64
f 67/67/67 64/64/64 10/10/10
f 11/11/11 67/67/67 10/10/10
f 70/70/70 69/69/69 68/68/68
f 71/71/71 70/70/70 68/68/68
f 74/74/74 73/73/73 72/72/72
f 75/75/75 74/74/74 72/72/72
f 78/78/78 77/77/77 76/76/76
f 79/79/79 78/78/78 76/76/76
f 82/82/82 81/81/81 80/80/80
f 83/83/83 82/82/82 80/80/80
f 85/85/85 84/84/84 65/65/65
f 66/66/66 85/85/85 65/65/65
f 87/87/87 86/86/86 77/77/77
f 78/78/78 87/87/87 77/77/77
f 76/76/76 50/50/50 51/51/51
f 79/79/79 76/76/76 51/51/51
f 90/90/90 89/89/89 88/88/88
f 91/91/91 90/90/90 88/88/88
f 79/79/79 93/93/93 92/92/92
f 78/78/78 79/79/79 92/92/92
f 31/31/31 53/53/53 45/45/45
f 30/30/30 31/31/31 45/45/45
f 96/96/96 95/95/95 94/94/94
f 97/97/97 96/96/96 94/94/94
f 95/95/95 98/98/98 94/94/94
f 41/41/41 42/42/42 94/94/94
f 98/98/98 41/41/41 94/94/94
f 26/26/26 100/100/100 99/99/99
f 25/25/25 26/26/26 99/99/99
f 103/103/103 102/102/102 101/101/101
f 104/104/104 103/103/103 101/101/101
f 105/105/105 73/73/73 74/74/74
f 106/106/106 105/105/105 74/74/74
f 107/107/107 101/101/101 102/102/102
f 108/108/108 107/107/107 102/102/102
f 37/37/37 107/107/107 108/108/108
f 40/40/40 37/37/37 108/108/108
f 111/111/111 110/110/110 109/109/109
f 112/112/112 110/110/110 111/111/111
f 113/113/113 110/110/110 112/112/112
f 114/114/114 110/110/110 113/113/113
f 115/115/115 110/110/110 114/114/114
f 116/116/116 110/110/110 115/115/115
f 109/109/109 110/110/110 117/117/117
f 116/116/116 117/117/117 110/110/110
