g ShotgunTurret_DefaultPart_1
v 22.843016 37.839935 57.854897
v 19.535725 9.179205 57.854897
v 0.0023784637 9.179205 57.854897
v -0.060440063 37.503662 57.880768
v -22.92571 37.713066 28.57459
v -22.92571 37.713066 57.854897
v -19.532198 9.179205 57.854897
v -19.532198 9.208765 28.57459
v -22.92571 37.713066 57.854897
v -0.060440063 37.503662 57.880768
v -19.532198 9.179205 57.854897
v 22.843016 37.839935 28.573359
v -0.060440063 37.503662 28.573359
v 0.0011482239 9.208765 28.57459
v 19.535725 9.208765 28.573359
v 22.843016 37.839935 57.854897
v 22.843016 37.839935 28.573359
v 19.535725 9.208765 28.573359
v 19.535725 9.179205 57.854897
v 19.535725 9.179205 57.854897
v 19.535725 9.208765 28.573359
v 0.0011482239 9.208765 28.57459
v 0.0023784637 9.179205 57.854897
v 22.843016 37.839935 57.854897
v -0.060440063 37.503662 57.880768
v -0.060440063 37.503662 28.573359
v 22.843016 37.839935 28.573359
v -22.92571 37.713066 28.57459
v -0.060440063 37.503662 28.573359
v -0.060440063 37.503662 57.880768
v -22.92571 37.713066 57.854897
v -19.532198 9.179205 57.854897
v -19.532198 9.208765 28.57459
v -0.060440063 37.503662 28.573359
v -22.92571 37.713066 28.57459
v -19.532198 9.208765 28.57459
vt 0.2076815 0.588661
vt 0.20645255 0.5968541
vt 0.20932013 0.6013603
vt 0.20932013 0.5902996
vt 0.20604289 0.60955346
vt 0.20604289 0.6218431
vt 0.21997117 0.6218431
vt 0.21997117 0.60955346
vt 0.22079048 0.6066859
vt 0.22038083 0.6042279
vt 0.2105491 0.6054569
vt 0.2076815 0.588661
vt 0.20932013 0.5902996
vt 0.20932013 0.6013603
vt 0.20645255 0.5968541
vt 0.24332152 0.6218431
vt 0.24332152 0.60955346
vt 0.22939324 0.60955346
vt 0.22939324 0.6218431
vt 0.22939324 0.6218431
vt 0.22939324 0.60955346
vt 0.22447738 0.60955346
vt 0.22447738 0.6218431
vt 0.24332152 0.6218431
vt 0.24618912 0.6218431
vt 0.24618912 0.60955346
vt 0.24332152 0.60955346
vt 0.20604289 0.60955346
vt 0.20276564 0.60955346
vt 0.20276564 0.6218431
vt 0.20604289 0.6218431
vt 0.21997117 0.6218431
vt 0.21997117 0.60955346
vt 0.22038083 0.6042279
vt 0.22079048 0.6066859
vt 0.2105491 0.6054569
vn 0.0039520264 -0.0039520264 0.9999844
vn 0.0039520264 -0.0039520264 0.9999844
vn -0.003890872 -0.0039520264 0.9999846
vn -0.003890872 -0.0039520264 0.9999846
vn -0.9920883 -0.12159461 -0.031233486
vn -0.9920883 -0.12159461 -0.031233486
vn -0.9920883 -0.12159461 -0.031233486
vn -0.9920883 -0.12159461 -0.031233486
vn -0.003890872 -0.0039520264 0.9999846
vn -0.003890872 -0.0039520264 0.9999846
vn -0.003890872 -0.0039520264 0.9999846
vn -0.003890872 0.003890872 -0.99998486
vn -0.003890872 0.003890872 -0.99998486
vn -0.003890872 0.003890872 -0.99998486
vn -0.003890872 0.003890872 -0.99998486
vn 0.99214953 -0.11375177 -0.051959984
vn 0.99214953 -0.11375177 -0.051959984
vn 0.99214953 -0.11375177 -0.051959984
vn 0.99214953 -0.11375177 -0.051959984
vn -0.003890872 -0.9999924 -0.00034526698
vn -0.003890872 -0.9999924 -0.00034526698
vn -0.003890872 -0.9999924 -0.00034526698
vn -0.003890872 -0.9999924 -0.00034526698
vn -0.011733651 0.9999312 -0
vn -0.011733651 0.9999312 -0
vn -0.011733651 0.9999312 -0
vn -0.011733651 0.9999312 -0
vn 0.011794857 0.9999305 -0
vn 0.011794857 0.9999305 -0
vn 0.011794857 0.9999305 -0
vn 0.011794857 0.9999305 -0
vn -0.003890872 -0.9999924 -0.00034526698
vn -0.003890872 -0.9999924 -0.00034526698
vn -0.003890872 0.003890872 -0.99998486
vn -0.003890872 0.003890872 -0.99998486
vn -0.003890872 0.003890872 -0.99998486
g ShotgunTurret_DefaultPart_1_0
f 3/3/3 2/2/2 1/1/1
f 4/4/4 3/3/3 1/1/1
f 7/7/7 6/6/6 5/5/5
f 8/8/8 7/7/7 5/5/5
f 3/3/3 10/10/10 9/9/9
f 11/11/11 3/3/3 9/9/9
f 14/14/14 13/13/13 12/12/12
f 15/15/15 14/14/14 12/12/12
f 18/18/18 17/17/17 16/16/16
f 19/19/19 18/18/18 16/16/16
f 22/22/22 21/21/21 20/20/20
f 23/23/23 22/22/22 20/20/20
f 26/26/26 25/25/25 24/24/24
f 27/27/27 26/26/26 24/24/24
f 30/30/30 29/29/29 28/28/28
f 31/31/31 30/30/30 28/28/28
f 22/22/22 23/23/23 32/32/32
f 33/33/33 22/22/22 32/32/32
f 35/35/35 34/34/34 14/14/14
f 36/36/36 35/35/35 14/14/14
