g ShotgunTurret_CustomizePart_2_CorpsePart
v 15.896976 73.32706 27.116436
v 22.589432 92.57474 13.748211
v 33.888172 85.19562 13.748211
v 23.085346 70.07262 27.111668
v -15.896374 73.32706 27.116436
v -22.59122 92.57474 13.748211
v 46.224037 57.338596 13.748211
v 31.771 54.107998 27.116436
v 23.085346 70.07262 27.111668
v 33.888172 85.19562 13.748211
v 14.2709465 66.260284 20.32861
v -14.270351 66.260284 20.32861
v -15.896374 73.32706 27.116436
v 15.896976 73.32706 27.116436
v 25.93924 52.641712 19.122204
v 31.771 54.107998 27.116436
v 28.259068 6.178364 27.090206
v 23.46682 6.2403526 18.37833
v 42.85039 6.1592903 13.748211
v 28.259068 6.178364 27.090206
v 20.376892 63.49222 19.758785
v 23.085346 70.07262 27.111668
v 23.085346 70.07262 27.111668
v 20.376892 63.49222 19.758785
v 35.25432 54.756504 -23.378605
v 11.283543 6.2260475 -23.23317
v 42.85039 6.1592903 -11.300232
v 46.224037 57.338596 -23.452515
v 27.72739 76.51712 -23.662323
v 27.72739 76.51712 -63.674023
v 33.888172 85.19562 -63.674023
v 33.888172 85.19562 -23.662323
v 46.224037 57.338596 -63.674023
v 46.224037 57.338596 -23.452515
v 33.888172 85.19562 -23.662323
v 33.888172 85.19562 -63.674023
v 35.25432 54.756504 -63.674023
v 35.25432 54.756504 -23.378605
v 46.224037 57.338596 -23.452515
v 46.224037 57.338596 -63.674023
v -27.726788 76.51712 -23.662323
v 27.72739 76.51712 -23.662323
v 22.589432 92.57474 -23.659939
v -22.59122 92.57474 -23.659939
v 11.283543 6.2260475 -23.23317
v 23.46682 6.2403526 18.37833
v 42.85039 6.1592903 -11.300232
v 42.85039 6.1592903 13.748211
v 46.224037 57.338596 13.748211
v 42.85039 6.1592903 -11.300232
v 28.259068 6.178364 27.090206
v 42.85039 6.1592903 13.748211
v 22.589432 92.57474 13.748211
v -22.59122 92.57474 13.748211
v -22.59122 92.57474 -23.659939
v 22.589432 92.57474 -23.659939
v 33.888172 85.19562 13.748211
v 33.888172 85.19562 -23.662323
v 46.224037 57.338596 -63.674023
v 33.888172 85.19562 -63.674023
v 27.72739 76.51712 -63.674023
v 35.25432 54.756504 -63.674023
v -23.084751 70.07262 27.111668
v -33.88757 85.19562 13.748211
v -31.770397 54.107998 27.116436
v -46.22344 57.338596 13.748211
v -28.258465 6.178364 27.090206
v -42.84979 6.1592903 13.748211
v -20.376293 63.49222 19.758785
v -25.93864 52.641712 19.122204
v -31.770397 54.107998 27.116436
v -23.084751 70.07262 27.111668
v -35.256107 54.756504 -23.378605
v -46.22344 57.338596 -23.452515
v -42.84979 6.1592903 -11.300232
v -11.28294 6.2260475 -23.23317
v -33.88757 85.19562 -63.674023
v -27.726788 76.51712 -63.674023
v -27.726788 76.51712 -23.662323
v -33.88757 85.19562 -23.662323
v -33.88757 85.19562 13.748211
v -46.22344 57.338596 13.748211
v -46.22344 57.338596 -23.452515
v -33.88757 85.19562 -23.662323
v -46.22344 57.338596 -23.452515
v -35.256107 54.756504 -23.378605
v -35.256107 54.756504 -63.674023
v -46.22344 57.338596 -63.674023
v -23.468601 6.2403526 18.37833
v -28.258465 6.178364 27.090206
v -42.84979 6.1592903 13.748211
v -42.84979 6.1592903 -11.300232
v -46.22344 57.338596 -63.674023
v -35.256107 54.756504 -63.674023
v -27.726788 76.51712 -63.674023
v -33.88757 85.19562 -63.674023
v -46.22344 57.338596 -63.674023
v -33.88757 85.19562 -63.674023
v 33.888172 85.19562 13.748211
v -23.468601 6.2403526 18.37833
v -42.84979 6.1592903 -11.300232
v -42.84979 6.1592903 13.748211
v -28.258465 6.178364 27.090206
v -11.28294 6.2260475 -23.23317
v -27.726788 76.51712 -23.662323
v -27.726788 76.51712 -63.674023
v -35.256107 54.756504 -63.674023
v -35.256107 54.756504 -23.378605
v 35.25432 54.756504 -23.378605
v 35.25432 54.756504 -63.674023
v 27.72739 76.51712 -63.674023
v 27.72739 76.51712 -23.662323
v -33.88757 85.19562 -23.662323
v 33.888172 85.19562 -23.662323
v -11.28294 6.2260475 -23.23317
v 11.283543 6.2260475 -23.23317
v 14.2709465 66.260284 20.32861
v -0.00089263916 43.526905 9.513866
v -14.270351 66.260284 20.32861
v -20.376293 63.49222 19.758785
v -25.93864 52.641712 19.122204
v -23.468601 6.2403526 18.37833
v 23.46682 6.2403526 18.37833
v 25.93924 52.641712 19.122204
v 20.376892 63.49222 19.758785
vt 0.63657373 0.4002652
vt 0.6492106 0.45207617
vt 0.6732205 0.4463896
vt 0.66563845 0.3977378
vt 0.5556981 0.41037464
vt 0.5556981 0.4634493
vt 0.8646684 0.44891694
vt 0.8602455 0.4053199
vt 0.8052754 0.40152887
vt 0.7995888 0.45081246
vt 0.6378374 0.37688705
vt 0.54811597 0.38762835
vt 0.5556981 0.41037464
vt 0.63657373 0.4002652
vt 0.84318584 0.38257363
vt 0.8602455 0.4053199
vt 0.9872456 0.41985226
vt 0.989773 0.4021607
vt 0.9821909 0.45649904
vt 0.9872456 0.41985226
vt 0.8046435 0.37688705
vt 0.8052754 0.40152887
vt 0.66563845 0.3977378
vt 0.65932006 0.3743597
vt 0.35224524 1.0131512
vt 0.45207617 0.82233506
vt 0.3181258 0.814753
vt 0.30928004 1.0238925
vt 0.3484542 1.2147086
vt 0.18417546 1.2709423
vt 0.19933966 1.3145394
vt 0.36298653 1.2583055
vt 0.866564 0.62014586
vt 0.8646684 0.5316881
vt 0.79769325 0.5329518
vt 0.79895693 0.6207777
vt 0.21387202 1.0965542
vt 0.32254872 1.0365293
vt 0.305489 1.0062009
vt 0.19744414 1.0662259
vt 0.5556981 0.5822354
vt 0.6776434 0.5670712
vt 0.6624792 0.5329518
vt 0.56264836 0.5455886
vt 1.0788627 0.75599176
vt 0.9278526 0.8008525
vt 1.0358975 0.8709868
vt 0.9821909 0.45649904
vt 0.8646684 0.44891694
vt 0.97587246 0.50199157
vt 0.8962605 0.81854403
vt 0.94491225 0.8709868
vt 0.6492106 0.45207617
vt 0.5556981 0.4634493
vt 0.56264836 0.5455886
vt 0.6624792 0.5329518
vt 0.6732205 0.4463896
vt 0.6921758 0.5266334
vt 0.866564 0.62014586
vt 0.79895693 0.6207777
vt 0.8115938 0.64099663
vt 0.8621411 0.64478767
vt 0.5266334 0.4147975
vt 0.5310563 0.46408114
vt 0.4710314 0.4173249
vt 0.4666085 0.46155378
vt 0.3440313 0.4312254
vt 0.3484542 0.46724033
vt 0.52726525 0.3901557
vt 0.48872295 0.39521044
vt 0.4710314 0.4173249
vt 0.5266334 0.4147975
vt 0.6687977 1.021997
vt 0.7149221 1.0308428
vt 0.6928076 0.8109619
vt 0.5525389 0.8273898
vt 0.723136 1.2298727
vt 0.7401957 1.1963851
vt 0.61509115 1.1306736
vt 0.59803146 1.1635294
vt 0.5310563 0.46408114
vt 0.4666085 0.46155378
vt 0.46534482 0.5436931
vt 0.53231996 0.5462205
vt 0.6890166 1.0024098
vt 0.6631111 1.0333701
vt 0.774947 1.124987
vt 0.8002206 1.0940268
vt 0.3421358 0.412902
vt 0.3440313 0.4312254
vt 0.3484542 0.46724033
vt 0.35414076 0.51336473
vt 0.46281746 0.6327827
vt 0.4666085 0.6567927
vt 0.51715577 0.6542653
vt 0.5297926 0.6340464
vt 0.46281746 0.6327827
vt 0.5297926 0.6340464
vt 0.7995888 0.45081246
vt 0.9272207 0.63025534
vt 1.0346338 0.55885726
vt 0.9436486 0.55948913
vt 0.8949968 0.6125638
vt 1.0788627 0.6738524
vt 0.36804128 0.14436948
vt 0.43375275 0.16774762
vt 0.44765326 0.12983713
vt 0.38130993 0.10582717
vt 0.2581009 0.10582717
vt 0.19175756 0.12983713
vt 0.20502624 0.16774762
vt 0.2707377 0.14436948
vt 0.5392702 0.56454384
vt 0.6890166 0.5462205
vt 0.3389766 0.021160446
vt 0.29980242 0.021160446
vt 0.36614576 0.28527007
vt 0.33581737 0.23598644
vt 0.30612084 0.28527007
vt 0.293484 0.27895167
vt 0.28147903 0.25683722
vt 0.2871656 0.16016552
vt 0.385101 0.16016552
vt 0.39078757 0.25683722
vt 0.37815073 0.27895167
vn 0.059900045 0.55899644 0.8270036
vn 0.06773418 0.55899644 0.8263988
vn 0.47510916 0.37881136 0.7942123
vn 0.50644565 0.355309 0.78566426
vn -0.057611942 0.55899644 0.82716614
vn -0.06544602 0.55899644 0.8265832
vn 0.6552942 0.06544602 0.7525333
vn 0.6552942 0.06544602 0.7525333
vn 0.50644565 0.355309 0.78566426
vn 0.47510916 0.37881136 0.7942123
vn -0.049777746 -0.6866307 0.72530025
vn 0.05206591 -0.6866307 0.72513956
vn 0.05206591 -0.6866307 0.72513956
vn -0.049777746 -0.6866307 0.72530025
vn -0.82535696 -0.05206591 0.56220555
vn -0.82535696 -0.059900045 0.56142485
vn -0.84102523 0.049777746 0.538701
vn -0.84102523 0.049777746 0.538701
vn 0.6787966 -0.044231772 0.732993
vn 0.6787966 -0.044231772 0.732993
vn -0.60600126 -0.46727502 0.64375186
vn -0.5354941 -0.51427984 0.66989726
vn -0.5354941 -0.51427984 0.66989726
vn -0.60600126 -0.46727502 0.64375186
vn 0.27142167 -0.1930803 -0.94289464
vn 0.27142167 -0.1930803 -0.94289464
vn 0.27142167 -0.1930803 -0.94289464
vn 0.27142167 -0.1930803 -0.94289464
vn -0.8144142 0.58028394 -0
vn -0.8144142 0.58028394 -0
vn -0.8144142 0.58028394 -0
vn -0.8144142 0.58028394 -0
vn 0.9138206 0.40231383 -0.055457015
vn 0.9686595 0.23779702 -0.07177265
vn 0.8668158 0.49632335 -0.047890317
vn 0.9138206 0.40231383 -0.055457015
vn 0.23138715 -0.9728617 -0
vn 0.23138715 -0.9728617 -0
vn 0.23138715 -0.9728617 -0
vn 0.23138715 -0.9728617 -0
vn -0.0027730465 0.0027730465 -0.9999923
vn -0.0027730465 0.0027730465 -0.9999923
vn -0.0027730465 0.0027730465 -0.9999923
vn -0.0027730465 0.0027730465 -0.9999923
vn -0.0027730465 -0.99999607 -0.00042286396
vn -0.0027730465 -0.99999607 -0.00042286396
vn -0.0027730465 -0.99999607 -0.00042286396
vn 0.9977139 -0.067579605 -0
vn 0.9907419 0.13575873 -0
vn 0.9977139 -0.067579605 -0
vn -0.0027730465 -0.99999607 -0.00042286396
vn -0.0027730465 -0.99999607 -0.00042286396
vn 0.13040727 0.98987377 -0.05607055
vn -0.12811911 0.98987377 -0.061118107
vn -0.12811911 0.98987377 -0.061118107
vn 0.13040727 0.98987377 -0.05607055
vn 0.8276451 0.55899644 -0.050264813
vn 0.8668158 0.49632335 -0.047890317
vn -0.0027730465 0.0027730465 -0.9999923
vn -0.0027730465 0.0027730465 -0.9999923
vn -0.0027730465 0.0027730465 -0.9999923
vn -0.0027730465 0.0027730465 -0.9999923
vn -0.50415754 0.355309 0.78713447
vn -0.472821 0.37881136 0.7955767
vn -0.66084015 0.06544602 0.7476678
vn -0.66084015 0.06544602 0.7476678
vn -0.6765084 -0.044231772 0.73510534
vn -0.6765084 -0.044231772 0.73510534
vn 0.6004553 -0.46727502 0.6489279
vn 0.8276451 -0.05206591 0.5588316
vn 0.8276451 -0.059900045 0.5580462
vn 0.5377822 -0.51427984 0.6680618
vn -0.27696764 -0.1930803 -0.9412805
vn -0.27696764 -0.1930803 -0.9412805
vn -0.27696764 -0.1930803 -0.9412805
vn -0.27696764 -0.1930803 -0.9412805
vn 0.81197685 0.5824989 -0.03726405
vn 0.81197685 0.5824989 -0.03726405
vn 0.81197685 0.5824989 -0.03726405
vn 0.81197685 0.5824989 -0.03726405
vn -0.8304203 0.5571374 -0
vn -0.98987377 0.1359533 -0.04082456
vn -0.9714776 0.23713116 -0
vn -0.8691726 0.49450886 -0
vn -0.22922787 -0.97337276 -0
vn -0.22922787 -0.97337276 -0
vn -0.22922787 -0.97337276 -0
vn -0.22922787 -0.97337276 -0
vn 0.8433134 0.049777746 0.53511184
vn 0.8433134 0.049777746 0.53511184
vn -0.99770343 -0.06773388 -0
vn -0.99770343 -0.06773388 -0
vn -0.0027730465 0.0027730465 -0.9999923
vn -0.0027730465 0.0027730465 -0.9999923
vn -0.0027730465 0.0027730465 -0.9999923
vn -0.0027730465 0.0027730465 -0.9999923
vn -0.9115325 0.40231383 -0.0851589
vn -0.9115325 0.40231383 -0.0851589
vn 0.8276451 0.55899644 -0.050264813
vn 0.005061105 -0.99998724 -0
vn 0.005061105 -0.99998724 -0
vn 0.005061105 -0.99998724 -0
vn 0.005061105 -0.99998724 -0
vn -0.0027730465 -0.99999607 -0.00042286396
vn 0.4594409 -0.16957796 -0.87187004
vn 0.9451571 -0.32626063 -0.01523191
vn 0.9451571 -0.32626063 -0.01523191
vn 0.30275822 -0.114739 -0.9461355
vn -0.3083042 -0.114739 -0.94434285
vn -0.94286895 -0.32626063 -0.067469664
vn -0.94286895 -0.32626063 -0.067469664
vn -0.46498692 -0.16957796 -0.86892486
vn -0.0027730465 0.0027730465 -0.9999923
vn -0.0027730465 0.0027730465 -0.9999923
vn -0.0027730465 -0.0050611496 -0.9999833
vn -0.0027730465 -0.0050611496 -0.9999833
vn -0.026275396 -0.41243607 0.9106076
vn -0.0027730465 0.010607123 0.99993986
vn 0.028563559 -0.41243607 0.9105387
vn 0.21658272 -0.26358753 0.9400072
vn 0.3340947 -0.044231772 0.9415011
vn 0.106904864 0.16728985 0.9800946
vn -0.11245084 0.16728985 0.9794738
vn -0.33180666 -0.044231772 0.94230986
vn -0.21429455 -0.26358753 0.9405315
g ShotgunTurret_CustomizePart_2_CorpsePart_0
f 3/3/3 2/2/2 1/1/1
f 4/4/4 3/3/3 1/1/1
f 6/6/6 5/5/5 1/1/1
f 2/2/2 6/6/6 1/1/1
f 9/9/9 8/8/8 7/7/7
f 10/10/10 9/9/9 7/7/7
f 13/13/13 12/12/12 11/11/11
f 14/14/14 13/13/13 11/11/11
f 17/17/17 16/16/16 15/15/15
f 18/18/18 17/17/17 15/15/15
f 19/19/19 7/7/7 8/8/8
f 20/20/20 19/19/19 8/8/8
f 21/21/21 15/15/15 16/16/16
f 22/22/22 21/21/21 16/16/16
f 23/23/23 14/14/14 11/11/11
f 24/24/24 23/23/23 11/11/11
f 27/27/27 26/26/26 25/25/25
f 28/28/28 27/27/27 25/25/25
f 31/31/31 30/30/30 29/29/29
f 32/32/32 31/31/31 29/29/29
f 35/35/35 34/34/34 33/33/33
f 36/36/36 35/35/35 33/33/33
f 39/39/39 38/38/38 37/37/37
f 40/40/40 39/39/39 37/37/37
f 43/43/43 42/42/42 41/41/41
f 44/44/44 43/43/43 41/41/41
f 47/47/47 46/46/46 45/45/45
f 34/34/34 49/49/49 48/48/48
f 50/50/50 34/34/34 48/48/48
f 52/52/52 51/51/51 46/46/46
f 47/47/47 52/52/52 46/46/46
f 55/55/55 54/54/54 53/53/53
f 56/56/56 55/55/55 53/53/53
f 56/56/56 53/53/53 57/57/57
f 58/58/58 56/56/56 57/57/57
f 61/61/61 60/60/60 59/59/59
f 62/62/62 61/61/61 59/59/59
f 64/64/64 63/63/63 5/5/5
f 6/6/6 64/64/64 5/5/5
f 66/66/66 65/65/65 63/63/63
f 64/64/64 66/66/66 63/63/63
f 68/68/68 67/67/67 65/65/65
f 66/66/66 68/68/68 65/65/65
f 71/71/71 70/70/70 69/69/69
f 72/72/72 71/71/71 69/69/69
f 72/72/72 69/69/69 12/12/12
f 13/13/13 72/72/72 12/12/12
f 75/75/75 74/74/74 73/73/73
f 76/76/76 75/75/75 73/73/73
f 79/79/79 78/78/78 77/77/77
f 80/80/80 79/79/79 77/77/77
f 83/83/83 82/82/82 81/81/81
f 84/84/84 83/83/83 81/81/81
f 87/87/87 86/86/86 85/85/85
f 88/88/88 87/87/87 85/85/85
f 90/90/90 89/89/89 70/70/70
f 71/71/71 90/90/90 70/70/70
f 92/92/92 91/91/91 82/82/82
f 83/83/83 92/92/92 82/82/82
f 81/81/81 54/54/54 55/55/55
f 84/84/84 81/81/81 55/55/55
f 95/95/95 94/94/94 93/93/93
f 96/96/96 95/95/95 93/93/93
f 84/84/84 98/98/98 97/97/97
f 83/83/83 84/84/84 97/97/97
f 35/35/35 99/99/99 49/49/49
f 34/34/34 35/35/35 49/49/49
f 102/102/102 101/101/101 100/100/100
f 103/103/103 102/102/102 100/100/100
f 101/101/101 104/104/104 100/100/100
f 45/45/45 46/46/46 100/100/100
f 104/104/104 45/45/45 100/100/100
f 107/107/107 106/106/106 105/105/105
f 108/108/108 107/107/107 105/105/105
f 111/111/111 110/110/110 109/109/109
f 112/112/112 111/111/111 109/109/109
f 105/105/105 112/112/112 109/109/109
f 108/108/108 105/105/105 109/109/109
f 113/113/113 44/44/44 41/41/41
f 43/43/43 114/114/114 42/42/42
f 115/115/115 108/108/108 109/109/109
f 116/116/116 115/115/115 109/109/109
f 119/119/119 118/118/118 117/117/117
f 120/120/120 118/118/118 119/119/119
f 121/121/121 118/118/118 120/120/120
f 122/122/122 118/118/118 121/121/121
f 123/123/123 118/118/118 122/122/122
f 124/124/124 118/118/118 123/123/123
f 125/125/125 118/118/118 124/124/124
f 117/117/117 118/118/118 125/125/125
