g ShotgunTurret_03_CorpsePart
v -8.53638 29.515858 62.511215
v -8.53638 34.84376 62.511215
v -5.2833166 39.15508 62.511215
v -5.2833166 25.20454 62.511215
v -8.53638 49.550735 62.511215
v -8.53638 54.879898 62.511215
v -5.2833166 59.189957 62.511215
v -5.2833166 45.24068 62.511215
v 5.2462015 25.20454 68.11568
v 9.46407 20.431023 68.11568
v -9.463302 20.431023 68.11568
v -5.2833166 25.20454 68.11568
v -14.642188 20.42976 68.09294
v -13.269486 61.653748 54.49347
v -13.124259 61.918945 68.11568
v -14.642188 20.42976 17.876308
v -13.269486 61.653748 17.876308
v -13.269486 61.653748 33.733727
v -14.642188 20.42976 68.09294
v 14.644219 20.42976 68.09294
v 14.644219 20.42976 17.876308
v -14.642188 20.42976 17.876308
v -5.9892416 65.80469 54.50231
v 5.991274 65.80469 54.517464
v 6.0076904 66.01558 68.11568
v -5.8932657 66.049675 68.11568
v 5.991274 65.80469 33.733727
v -5.9892416 65.80469 33.733727
v -5.9892416 65.80469 17.876308
v 5.991274 65.80469 17.876308
v -5.9892416 65.80469 39.956978
v 5.991274 65.80469 39.956978
v 5.991274 65.80469 48.15278
v -5.9892416 65.80469 48.15278
v 13.271518 61.653748 33.733727
v 13.271518 61.653748 17.876308
v 14.644219 20.42976 17.876308
v 5.991274 65.80469 39.956978
v -5.9892416 65.80469 39.956978
v -5.9892416 65.80469 33.733727
v 5.991274 65.80469 33.733727
v 5.991274 65.80469 54.517464
v -5.9892416 65.80469 54.50231
v -5.9892416 65.80469 48.15278
v 5.991274 65.80469 48.15278
v 9.46407 20.431023 68.11568
v 14.644219 20.42976 68.09294
v -14.642188 20.42976 68.09294
v -9.463302 20.431023 68.11568
v -8.53638 49.550735 68.11568
v -13.124259 61.918945 68.11568
v -8.53638 54.879898 68.11568
v -14.642188 20.42976 68.09294
v -8.53638 29.515858 68.11568
v 8.500526 29.515858 68.11568
v 8.500526 34.84376 68.11568
v 14.644219 20.42976 68.09294
v 5.2462015 39.15508 68.11568
v -5.2833166 39.15508 68.11568
v -5.2833166 45.24068 68.11568
v 5.2462015 45.24068 68.11568
v 8.500526 49.550735 68.11568
v -8.53638 34.84376 68.11568
v -5.2833166 59.189957 68.11568
v -5.8932657 66.049675 68.11568
v 8.500526 34.84376 62.511215
v 8.500526 29.515858 62.511215
v 5.2462015 25.20454 62.511215
v 5.2462015 39.15508 62.511215
v 8.500526 54.879898 62.511215
v 8.500526 49.550735 62.511215
v 5.2462015 45.24068 62.511215
v 5.2462015 59.189957 62.511215
v 13.271518 61.653748 39.956978
v 14.644219 20.42976 68.09294
v 13.271518 61.653748 48.15278
v 13.271518 61.653748 54.527573
v 13.238684 61.844437 68.11568
v -13.269486 61.653748 48.15278
v -13.269486 61.653748 39.956978
v 13.238684 61.844437 68.11568
v 8.500526 54.879898 68.11568
v -13.124259 61.918945 68.11568
v -13.269486 61.653748 54.49347
v 13.238684 61.844437 68.11568
v 13.271518 61.653748 54.527573
v 13.271518 61.653748 33.733727
v 13.271518 61.653748 17.876308
v -13.269486 61.653748 17.876308
v -13.269486 61.653748 33.733727
v -13.269486 61.653748 39.956978
v -13.269486 61.653748 48.15278
v 13.271518 61.653748 48.15278
v 13.271518 61.653748 39.956978
v 13.271518 61.653748 39.956978
v 13.271518 61.653748 33.733727
v -13.269486 61.653748 33.733727
v -13.269486 61.653748 39.956978
v 13.271518 61.653748 54.527573
v 13.271518 61.653748 48.15278
v -13.269486 61.653748 48.15278
v -13.269486 61.653748 54.49347
v 5.2462015 59.189957 68.11568
v 6.0076904 66.01558 68.11568
v -8.53638 29.515858 68.11568
v -8.53638 29.515858 62.511215
v -5.2833166 25.20454 62.511215
v -5.2833166 25.20454 68.11568
v -5.2833166 39.15508 68.11568
v -5.2833166 39.15508 62.511215
v -8.53638 34.84376 62.511215
v -8.53638 34.84376 68.11568
v 8.500526 34.84376 68.11568
v 8.500526 34.84376 62.511215
v 5.2462015 39.15508 62.511215
v 5.2462015 39.15508 68.11568
v 5.2462015 25.20454 68.11568
v 5.2462015 25.20454 62.511215
v 8.500526 29.515858 62.511215
v 8.500526 29.515858 68.11568
v -5.2833166 39.15508 62.511215
v -5.2833166 39.15508 68.11568
v -5.2833166 25.20454 68.11568
v -5.2833166 25.20454 62.511215
v -8.53638 49.550735 68.11568
v -8.53638 49.550735 62.511215
v -5.2833166 45.24068 62.511215
v -5.2833166 45.24068 68.11568
v -5.2833166 59.189957 68.11568
v -5.2833166 59.189957 62.511215
v -8.53638 54.879898 62.511215
v -8.53638 54.879898 68.11568
v 8.500526 54.879898 68.11568
v 8.500526 54.879898 62.511215
v 5.2462015 59.189957 62.511215
v 5.2462015 59.189957 68.11568
v 5.2462015 45.24068 68.11568
v 5.2462015 45.24068 62.511215
v 8.500526 49.550735 62.511215
v 8.500526 49.550735 68.11568
v -14.642188 20.42976 17.876308
v 14.644219 20.42976 17.876308
v 13.271518 61.653748 17.876308
v 5.991274 65.80469 17.876308
v -5.9892416 65.80469 17.876308
v -13.269486 61.653748 17.876308
vt 0.13359712 0.5966532
vt 0.13480614 0.5966532
vt 0.13541065 0.59544414
vt 0.13299261 0.59544414
vt 0.14085126 0.5966532
vt 0.14145577 0.5966532
vt 0.14266479 0.59544414
vt 0.13964224 0.59544414
vt 0.13178359 0.5918171
vt 0.13057455 0.59060806
vt 0.13057455 0.59786224
vt 0.13178359 0.5966532
vt 0.15112796 0.5355975
vt 0.14447834 0.5476877
vt 0.15112796 0.5476877
vt 0.12815651 0.5355975
vt 0.12815651 0.5476877
vt 0.13480614 0.5476877
vt 0.14085126 0.6184156
vt 0.14085126 0.61055696
vt 0.13661967 0.61055696
vt 0.13178359 0.6184156
vt 0.14447834 0.55131483
vt 0.14447834 0.5567554
vt 0.15112796 0.5567554
vt 0.15112796 0.55131483
vt 0.13480614 0.5567554
vt 0.13480614 0.55131483
vt 0.12815651 0.55131483
vt 0.12815651 0.5567554
vt 0.13782871 0.55131483
vt 0.13782871 0.5567554
vt 0.14145577 0.5567554
vt 0.14145577 0.55131483
vt 0.13480614 0.559778
vt 0.12815651 0.559778
vt 0.12815651 0.56945014
vt 0.13722418 0.52411175
vt 0.13722418 0.5289479
vt 0.13903773 0.5289479
vt 0.13903773 0.52411175
vt 0.13722418 0.52411175
vt 0.13722418 0.5289479
vt 0.13903773 0.5289479
vt 0.13903773 0.52411175
vt 0.13057455 0.59060806
vt 0.1323881 0.5875855
vt 0.1323881 0.6008848
vt 0.13057455 0.59786224
vt 0.14024675 0.59786224
vt 0.14447834 0.59907126
vt 0.14206028 0.59786224
vt 0.1323881 0.6008848
vt 0.13359712 0.59786224
vt 0.13359712 0.59060806
vt 0.13541065 0.59060806
vt 0.1323881 0.5875855
vt 0.13661967 0.5918171
vt 0.13661967 0.5966532
vt 0.13903773 0.5966532
vt 0.13903773 0.5918171
vt 0.14024675 0.59060806
vt 0.13541065 0.59786224
vt 0.14326932 0.5966532
vt 0.14447834 0.5966532
vt 0.13480614 0.5918171
vt 0.13359712 0.5918171
vt 0.13299261 0.5930261
vt 0.13541065 0.5930261
vt 0.14145577 0.5918171
vt 0.14085126 0.5918171
vt 0.13964224 0.5930261
vt 0.14266479 0.5930261
vt 0.13782871 0.559778
vt 0.15112796 0.56945014
vt 0.14145577 0.559778
vt 0.14447834 0.559778
vt 0.15112796 0.559778
vt 0.14145577 0.5476877
vt 0.13782871 0.5476877
vt 0.14447834 0.58939904
vt 0.14206028 0.59060806
vt 0.15112796 0.5476877
vt 0.14447834 0.5476877
vt 0.15112796 0.559778
vt 0.14447834 0.559778
vt 0.13480614 0.559778
vt 0.12815651 0.559778
vt 0.12815651 0.5476877
vt 0.13480614 0.5476877
vt 0.13782871 0.5476877
vt 0.14145577 0.5476877
vt 0.14145577 0.559778
vt 0.13782871 0.559778
vt 0.13722418 0.5210892
vt 0.13903773 0.5210892
vt 0.13903773 0.53197044
vt 0.13722418 0.53197044
vt 0.13722418 0.5210892
vt 0.13903773 0.5210892
vt 0.13903773 0.53197044
vt 0.13722418 0.53197044
vt 0.14326932 0.5918171
vt 0.14447834 0.5918171
vt 0.13359712 0.5966532
vt 0.13359712 0.5966532
vt 0.13299261 0.59544414
vt 0.13299261 0.59544414
vt 0.13541065 0.59544414
vt 0.13541065 0.59544414
vt 0.13480614 0.5966532
vt 0.13480614 0.5966532
vt 0 0
vt 0 0
vt 0 0
vt 0 0
vt 0 0
vt 0 0
vt 0 0
vt 0 0
vt 0 0
vt 0 0
vt 0 0
vt 0 0
vt 0 0
vt 0 0
vt 0 0
vt 0 0
vt 0 0
vt 0 0
vt 0 0
vt 0 0
vt 0 0
vt 0 0
vt 0 0
vt 0 0
vt 0 0
vt 0 0
vt 0 0
vt 0 0
vt 0.12815651 0.5615915
vt 0.12815651 0.5615915
vt 0.12815651 0.5615915
vt 0.12815651 0.5615915
vt 0.12815651 0.5615915
vt 0.12815651 0.5615915
vn -0.0038532019 0.0038532019 0.99998516
vn -0.0038532019 0.0038532019 0.99998516
vn -0.0038532019 0.0038532019 0.99998516
vn -0.0038532019 0.0038532019 0.99998516
vn -0.0038532019 0.0038532019 0.99998516
vn -0.0038532019 0.0038532019 0.99998516
vn -0.0038532019 0.0038532019 0.99998516
vn -0.0038532019 0.0038532019 0.99998516
vn 0.0039856434 0.0038532019 0.9999846
vn 0.0039856434 0.0038532019 0.9999846
vn -0.0038532019 0.0038532019 0.99998516
vn -0.0038532019 0.0038532019 0.99998516
vn -0.5428507 -0.8398292 -0
vn -0.9993787 0.035208344 -0.0016286569
vn -0.9993787 0.035208344 -0.0016286569
vn -0.5368904 -0.84273547 -0.03931498
vn -0.9993787 0.035208344 -0.0016286569
vn -0.9993787 0.035208344 -0.0016286569
vn -0.5428507 -0.8398292 -0
vn 0.5429438 -0.83976907 -0
vn 0.5370229 -0.84273547 -0.03746107
vn -0.5368904 -0.84273547 -0.03931498
vn -0.20766151 0.97586226 -0.067598306
vn 0.2156328 0.97586226 -0.03457328
vn 0.2156328 0.97586226 -0.03457328
vn -0.20766151 0.97586226 -0.067598306
vn 0.20779401 0.97586226 -0.06719014
vn -0.20766151 0.97586226 -0.067598306
vn -0.20766151 0.97586226 -0.067598306
vn 0.20779401 0.97586226 -0.06719014
vn -0.20766151 0.97586226 -0.067598306
vn 0.20779401 0.97586226 -0.06719014
vn 0.20779401 0.97586226 -0.06719014
vn -0.20766151 0.97586226 -0.067598306
vn 0.9993802 0.035203733 -0
vn 0.9993802 0.035203733 -0
vn 0.5370229 -0.84273547 -0.03746107
vn 0.20779401 0.97586226 -0.06719014
vn -0.20766151 0.97586226 -0.067598306
vn -0.20766151 0.97586226 -0.067598306
vn 0.20779401 0.97586226 -0.06719014
vn 0.2156328 0.97586226 -0.03457328
vn -0.20766151 0.97586226 -0.067598306
vn -0.20766151 0.97586226 -0.067598306
vn 0.20779401 0.97586226 -0.06719014
vn -0.0038532019 -0.9995111 0.031026999
vn 0.5429438 -0.83976907 -0
vn -0.5428507 -0.8398292 -0
vn -0.0038532019 -0.9995111 0.031026999
vn -0.0038532019 -0.0039856434 0.9999846
vn -0.0038532019 -0.0039856434 0.9999846
vn -0.0038532019 0.0038532019 0.99998516
vn -0.0038532019 -0.0039856434 0.9999846
vn -0.0038532019 0.0038532019 0.99998516
vn 0.0039856434 0.0038532019 0.9999846
vn 0.0039856434 -0.0039856434 0.9999841
vn 0.0039856434 -0.0039856434 0.9999841
vn -0.0038532019 0.0038532019 0.99998516
vn -0.0038532019 0.0038532019 0.99998516
vn -0.0038532019 0.0038532019 0.99998516
vn -0.0038532019 0.0038532019 0.99998516
vn 0.0039856434 -0.0039856434 0.9999841
vn -0.0038532019 -0.0039856434 0.9999846
vn -0.0038532019 0.0038532019 0.99998516
vn -0.0038532019 0.0038532019 0.99998516
vn -0.0038532019 0.0038532019 0.99998516
vn -0.0038532019 0.0038532019 0.99998516
vn -0.0038532019 0.0038532019 0.99998516
vn -0.0038532019 0.0038532019 0.99998516
vn -0.0038532019 0.0038532019 0.99998516
vn -0.0038532019 0.0038532019 0.99998516
vn -0.0038532019 0.0038532019 0.99998516
vn -0.0038532019 0.0038532019 0.99998516
vn 0.9993802 0.035203733 -0
vn 0.5429438 -0.83976907 -0
vn 0.9993802 0.035203733 -0
vn 0.9993802 0.035203733 -0
vn 0.9993802 0.035203733 -0
vn -0.9993787 0.035208344 -0.0016286569
vn -0.9993787 0.035208344 -0.0016286569
vn 0.0039856434 -0.0039856434 0.9999841
vn -0.0038532019 0.0038532019 0.99998516
vn -0.49769652 0.8661194 -0.046210345
vn -0.49769652 0.8661194 -0.046210345
vn 0.49782896 0.8661194 -0.04476104
vn 0.49782896 0.8661194 -0.04476104
vn 0.49782896 0.8661194 -0.04476104
vn 0.49782896 0.8661194 -0.04476104
vn -0.49769652 0.8661194 -0.046210345
vn -0.49769652 0.8661194 -0.046210345
vn -0.49769652 0.8661194 -0.046210345
vn -0.49769652 0.8661194 -0.046210345
vn 0.49782896 0.8661194 -0.04476104
vn 0.49782896 0.8661194 -0.04476104
vn 0.49782896 0.8661194 -0.04476104
vn 0.49782896 0.8661194 -0.04476104
vn -0.49769652 0.8661194 -0.046210345
vn -0.49769652 0.8661194 -0.046210345
vn 0.49782896 0.8661194 -0.04476104
vn 0.49782896 0.8661194 -0.04476104
vn -0.49769652 0.8661194 -0.046210345
vn -0.49769652 0.8661194 -0.046210345
vn -0.0038532019 0.0038532019 0.99998516
vn -0.0038532019 0.0038532019 0.99998516
vn 0.9446396 0.3174045 -0.083128676
vn 0.9446396 0.3174045 -0.083128676
vn 0.30185938 0.95234597 -0.04379586
vn 0.30185938 0.95234597 -0.04379586
vn 0.30185938 -0.9524784 -0.04081386
vn 0.30185938 -0.9524784 -0.04081386
vn 0.9446396 -0.31753695 -0.08262136
vn 0.9446396 -0.31753695 -0.08262136
vn -0.9445071 -0.31753695 -0.084122345
vn -0.9445071 -0.31753695 -0.084122345
vn -0.30172694 -0.9524784 -0.041782297
vn -0.30172694 -0.9524784 -0.041782297
vn -0.30172694 0.95234597 -0.044699743
vn -0.30172694 0.95234597 -0.044699743
vn -0.9445071 0.3174045 -0.08462066
vn -0.9445071 0.3174045 -0.08462066
vn 0.30185938 -0.9524784 -0.04081386
vn 0.30185938 -0.9524784 -0.04081386
vn 0.30185938 0.95234597 -0.04379586
vn 0.30185938 0.95234597 -0.04379586
vn 0.9446396 0.3174045 -0.083128676
vn 0.9446396 0.3174045 -0.083128676
vn 0.30185938 0.95234597 -0.04379586
vn 0.30185938 0.95234597 -0.04379586
vn 0.30185938 -0.9524784 -0.04081386
vn 0.30185938 -0.9524784 -0.04081386
vn 0.9446396 -0.31753695 -0.08262136
vn 0.9446396 -0.31753695 -0.08262136
vn -0.9445071 -0.31753695 -0.084122345
vn -0.9445071 -0.31753695 -0.084122345
vn -0.30172694 -0.9524784 -0.041782297
vn -0.30172694 -0.9524784 -0.041782297
vn -0.30172694 0.95234597 -0.044699743
vn -0.30172694 0.95234597 -0.044699743
vn -0.9445071 0.3174045 -0.08462066
vn -0.9445071 0.3174045 -0.08462066
vn -0.0038532019 0.0038532019 -0.99998516
vn -0.0038532019 0.0038532019 -0.99998516
vn -0.0038532019 0.0038532019 -0.99998516
vn -0.0038532019 0.0038532019 -0.99998516
vn -0.0038532019 0.0038532019 -0.99998516
vn -0.0038532019 0.0038532019 -0.99998516
g ShotgunTurret_03_CorpsePart_0
f 3/3/3 2/2/2 1/1/1
f 4/4/4 3/3/3 1/1/1
f 7/7/7 6/6/6 5/5/5
f 8/8/8 7/7/7 5/5/5
f 11/11/11 10/10/10 9/9/9
f 12/12/12 11/11/11 9/9/9
f 15/15/15 14/14/14 13/13/13
f 18/18/18 17/17/17 16/16/16
f 21/21/21 20/20/20 19/19/19
f 22/22/22 21/21/21 19/19/19
f 25/25/25 24/24/24 23/23/23
f 26/26/26 25/25/25 23/23/23
f 29/29/29 28/28/28 27/27/27
f 30/30/30 29/29/29 27/27/27
f 33/33/33 32/32/32 31/31/31
f 34/34/34 33/33/33 31/31/31
f 37/37/37 36/36/36 35/35/35
f 40/40/40 39/39/39 38/38/38
f 41/41/41 40/40/40 38/38/38
f 44/44/44 43/43/43 42/42/42
f 45/45/45 44/44/44 42/42/42
f 48/48/48 47/47/47 46/46/46
f 49/49/49 48/48/48 46/46/46
f 52/52/52 51/51/51 50/50/50
f 12/12/12 54/54/54 53/53/53
f 11/11/11 12/12/12 53/53/53
f 57/57/57 56/56/56 55/55/55
f 60/60/60 59/59/59 58/58/58
f 61/61/61 60/60/60 58/58/58
f 62/62/62 61/61/61 58/58/58
f 56/56/56 62/62/62 58/58/58
f 63/63/63 59/59/59 60/60/60
f 50/50/50 63/63/63 60/60/60
f 51/51/51 52/52/52 64/64/64
f 65/65/65 51/51/51 64/64/64
f 68/68/68 67/67/67 66/66/66
f 69/69/69 68/68/68 66/66/66
f 72/72/72 71/71/71 70/70/70
f 73/73/73 72/72/72 70/70/70
f 73/73/73 7/7/7 8/8/8
f 72/72/72 73/73/73 8/8/8
f 4/4/4 68/68/68 69/69/69
f 3/3/3 4/4/4 69/69/69
f 75/75/75 37/37/37 74/74/74
f 76/76/76 75/75/75 74/74/74
f 35/35/35 74/74/74 37/37/37
f 78/78/78 75/75/75 77/77/77
f 76/76/76 77/77/77 75/75/75
f 16/16/16 13/13/13 79/79/79
f 80/80/80 16/16/16 79/79/79
f 14/14/14 79/79/79 13/13/13
f 18/18/18 16/16/16 80/80/80
f 57/57/57 55/55/55 9/9/9
f 10/10/10 57/57/57 9/9/9
f 54/54/54 63/63/63 53/53/53
f 51/51/51 53/53/53 63/63/63
f 50/50/50 51/51/51 63/63/63
f 82/82/82 62/62/62 81/81/81
f 81/81/81 62/62/62 56/56/56
f 57/57/57 81/81/81 56/56/56
f 83/83/83 26/26/26 23/23/23
f 84/84/84 83/83/83 23/23/23
f 24/24/24 25/25/25 85/85/85
f 86/86/86 24/24/24 85/85/85
f 30/30/30 27/27/27 87/87/87
f 88/88/88 30/30/30 87/87/87
f 28/28/28 29/29/29 89/89/89
f 90/90/90 28/28/28 89/89/89
f 34/34/34 31/31/31 91/91/91
f 92/92/92 34/34/34 91/91/91
f 32/32/32 33/33/33 93/93/93
f 94/94/94 32/32/32 93/93/93
f 41/41/41 38/38/38 95/95/95
f 96/96/96 41/41/41 95/95/95
f 39/39/39 40/40/40 97/97/97
f 98/98/98 39/39/39 97/97/97
f 45/45/45 42/42/42 99/99/99
f 100/100/100 45/45/45 99/99/99
f 43/43/43 44/44/44 101/101/101
f 102/102/102 43/43/43 101/101/101
f 81/81/81 104/104/104 103/103/103
f 82/82/82 81/81/81 103/103/103
f 103/103/103 104/104/104 65/65/65
f 64/64/64 103/103/103 65/65/65
f 107/107/107 106/106/106 105/105/105
f 108/108/108 107/107/107 105/105/105
f 111/111/111 110/110/110 109/109/109
f 112/112/112 111/111/111 109/109/109
f 106/106/106 111/111/111 112/112/112
f 105/105/105 106/106/106 112/112/112
f 115/115/115 114/114/114 113/113/113
f 116/116/116 115/115/115 113/113/113
f 119/119/119 118/118/118 117/117/117
f 120/120/120 119/119/119 117/117/117
f 114/114/114 119/119/119 120/120/120
f 113/113/113 114/114/114 120/120/120
f 121/121/121 115/115/115 116/116/116
f 122/122/122 121/121/121 116/116/116
f 118/118/118 124/124/124 123/123/123
f 117/117/117 118/118/118 123/123/123
f 127/127/127 126/126/126 125/125/125
f 128/128/128 127/127/127 125/125/125
f 131/131/131 130/130/130 129/129/129
f 132/132/132 131/131/131 129/129/129
f 126/126/126 131/131/131 132/132/132
f 125/125/125 126/126/126 132/132/132
f 135/135/135 134/134/134 133/133/133
f 136/136/136 135/135/135 133/133/133
f 139/139/139 138/138/138 137/137/137
f 140/140/140 139/139/139 137/137/137
f 134/134/134 139/139/139 140/140/140
f 133/133/133 134/134/134 140/140/140
f 138/138/138 127/127/127 128/128/128
f 137/137/137 138/138/138 128/128/128
f 130/130/130 135/135/135 136/136/136
f 129/129/129 130/130/130 136/136/136
f 143/143/143 142/142/142 141/141/141
f 141/141/141 144/144/144 143/143/143
f 141/141/141 145/145/145 144/144/144
f 141/141/141 146/146/146 145/145/145
