g SixLegs_03
v 0.08024029 0.045258895 -0.057057917
v -0.0236426 0.045258895 0.11734319
v -0.1305173 0.045258895 0.05370672
v -0.02657266 0.045258895 -0.120699994
v -0.18392095 -0.06242971 0.021885678
v -0.08009982 -0.06242971 -0.15250981
v -0.1305173 -0.17012955 0.05370672
v -0.02657266 -0.17012955 -0.120699994
v -0.0236426 -0.17012955 0.11734319
v 0.08024029 -0.17012955 -0.057057917
v 0.08024029 -0.17012955 -0.057057917
v -0.0236426 -0.17012955 0.11734319
v 0.029761076 -0.06242971 0.14915863
v 0.13364395 -0.06242971 -0.025242478
v -0.1305173 0.045258895 0.05370672
v -0.0236426 0.045258895 0.11734319
v -0.077107996 -0.06242971 0.085522145
v -0.18392095 -0.06242971 0.021885678
v -0.1305173 -0.17012955 0.05370672
v -0.0236426 -0.17012955 0.11734319
v 0.029761076 -0.06242971 0.14915863
v 0.026831001 -0.06242971 -0.08887895
v 0.08024029 0.045258895 -0.057057917
v -0.02657266 0.045258895 -0.120699994
v -0.08009982 -0.06242971 -0.15250981
v -0.02657266 -0.17012955 -0.120699994
v 0.08024029 -0.17012955 -0.057057917
v 0.13364395 -0.06242971 -0.025242478
v 0.1297372 0.17011818 0.028301522
v 0.033791333 0.0121243745 -0.028795615
v 0.08725675 -0.04998532 0.002986133
v 0.18393794 0.107014954 0.060594067
v 0.18393794 0.107014954 0.060594067
v 0.08725675 -0.04998532 0.002986133
v 0.032449782 -0.04998532 0.09490737
v 0.1291871 0.107014954 0.15251529
v 0.1291871 0.107014954 0.15251529
v 0.032449782 -0.04998532 0.09490737
v -0.020897761 0.0121243745 0.06311439
v 0.074930236 0.17011818 0.120217144
v 0.074930236 0.17011818 0.120217144
v -0.020897761 0.0121243745 0.06311439
v 0.033791333 0.0121243745 -0.028795615
v 0.1297372 0.17011818 0.028301522
vt 0.95531774 0.87115264
vt 0.95531774 0.8663603
vt 0.9523225 0.8663603
vt 0.9523225 0.87115264
vt 0.9494771 0.8663603
vt 0.9494771 0.87115264
vt 0.9464819 0.8663603
vt 0.9464819 0.87115264
vt 0.9436364 0.8663603
vt 0.9436364 0.87115264
vt 0.96115834 0.87115264
vt 0.96115834 0.8663603
vt 0.95816314 0.8663603
vt 0.95816314 0.87115264
vt 0.9270131 0.81094915
vt 0.9277619 0.8094516
vt 0.9261145 0.8094516
vt 0.92521596 0.81094915
vt 0.9243174 0.8094516
vt 0.92521596 0.80795395
vt 0.9270131 0.80795395
vt 0.9261145 0.8094516
vt 0.92521596 0.80795395
vt 0.9243174 0.8094516
vt 0.92521596 0.81094915
vt 0.9270131 0.81094915
vt 0.9277619 0.8094516
vt 0.9270131 0.80795395
vt 0.90290177 0.8683072
vt 0.906496 0.8683072
vt 0.906496 0.8666598
vt 0.90290177 0.8666598
vt 0.90290177 0.8666598
vt 0.906496 0.8666598
vt 0.906496 0.86471295
vt 0.90290177 0.86471295
vt 0.90290177 0.87190145
vt 0.906496 0.87190145
vt 0.906496 0.8704038
vt 0.90290177 0.8702541
vt 0.90290177 0.8702541
vt 0.906496 0.8704038
vt 0.906496 0.8683072
vt 0.90290177 0.8683072
vn 0.43137872 0.8661597 0.2523486
vn 0.43137872 0.8661597 0.2523486
vn -0.43138242 0.8661597 -0.25234222
vn -0.43138242 0.8661597 -0.25234222
vn -0.8593663 -0.0033948421 -0.51134926
vn -0.8593663 -0.0033948421 -0.51134926
vn -0.43138242 -0.866156 -0.25235486
vn -0.43138242 -0.866156 -0.25235486
vn 0.43137872 -0.866156 0.25236124
vn 0.43137872 -0.866156 0.25236124
vn 0.43137872 -0.866156 0.25236124
vn 0.43137872 -0.866156 0.25236124
vn 0.8593626 -0.0033948421 0.5113554
vn 0.8593626 -0.0033948421 0.5113554
vn -0.5129031 0.0033985376 0.8584398
vn -0.5129031 0.0033985376 0.8584398
vn -0.5129031 -0.0033948421 0.8584398
vn -0.5129031 -0.0033948421 0.8584398
vn -0.5129031 -0.0033948421 0.8584398
vn -0.5129031 -0.0033948421 0.8584398
vn -0.5129031 -0.0033948421 0.8584398
vn 0.51289946 -0.0033948421 -0.858442
vn 0.51289946 0.0033985376 -0.85844195
vn 0.51289946 -0.0033948421 -0.858442
vn 0.51289946 -0.0033948421 -0.858442
vn 0.51289946 0.0033985376 -0.85844195
vn 0.51289946 -0.0033948421 -0.858442
vn 0.51289946 -0.0033948421 -0.858442
vn 0.51289946 0.0033985376 -0.85844195
vn 0.51289946 0.0033985376 -0.85844195
vn 0.51289946 0.0033985376 -0.85844195
vn 0.51289946 0.0033985376 -0.85844195
vn 0.6963211 -0.58083344 0.4216271
vn 0.6963211 -0.58083344 0.4216271
vn 0.6963211 -0.58083344 0.4216271
vn 0.6963211 -0.58083344 0.4216271
vn -0.5129031 -0.0033948421 0.8584398
vn -0.5129031 -0.0033948421 0.8584398
vn -0.5129031 -0.0033948421 0.8584398
vn -0.5129031 -0.0033948421 0.8584398
vn -0.7031182 0.57404363 -0.41964114
vn -0.7031182 0.57404363 -0.41964114
vn -0.7031182 0.57404363 -0.41964114
vn -0.7031182 0.57404363 -0.41964114
g SixLegs_03_0
f 3/3/3 2/2/2 1/1/1
f 4/4/4 3/3/3 1/1/1
f 5/5/5 3/3/3 4/4/4
f 6/6/6 5/5/5 4/4/4
f 7/7/7 5/5/5 6/6/6
f 8/8/8 7/7/7 6/6/6
f 9/9/9 7/7/7 8/8/8
f 10/10/10 9/9/9 8/8/8
f 13/13/13 12/12/12 11/11/11
f 14/14/14 13/13/13 11/11/11
f 2/2/2 13/13/13 14/14/14
f 1/1/1 2/2/2 14/14/14
f 17/17/17 16/16/16 15/15/15
f 17/17/17 15/15/15 18/18/18
f 17/17/17 18/18/18 19/19/19
f 17/17/17 19/19/19 20/20/20
f 17/17/17 20/20/20 21/21/21
f 17/17/17 21/21/21 16/16/16
f 24/24/24 23/23/23 22/22/22
f 25/25/25 24/24/24 22/22/22
f 26/26/26 25/25/25 22/22/22
f 27/27/27 26/26/26 22/22/22
f 28/28/28 27/27/27 22/22/22
f 23/23/23 28/28/28 22/22/22
f 31/31/31 30/30/30 29/29/29
f 32/32/32 31/31/31 29/29/29
f 35/35/35 34/34/34 33/33/33
f 36/36/36 35/35/35 33/33/33
f 39/39/39 38/38/38 37/37/37
f 40/40/40 39/39/39 37/37/37
f 43/43/43 42/42/42 41/41/41
f 44/44/44 43/43/43 41/41/41
