g SixLegs_09
v 0.08024029 0.045258895 0.057057783
v -0.02657266 0.045258895 0.12069985
v -0.1305173 0.045258895 -0.053712457
v -0.0236426 0.045258895 -0.11734894
v -0.08009982 -0.06242971 0.1525209
v -0.18392095 -0.06242971 -0.021885812
v -0.02657266 -0.17012955 0.12069985
v -0.1305173 -0.17012955 -0.053712457
v 0.08024029 -0.17012955 0.057057783
v -0.0236426 -0.17012955 -0.11734894
v 0.08024029 -0.17012955 0.057057783
v 0.13364395 -0.06242971 0.025247961
v 0.029761076 -0.06242971 -0.14916436
v -0.0236426 -0.17012955 -0.11734894
v -0.1305173 0.045258895 -0.053712457
v -0.077107996 -0.06242971 -0.08552789
v -0.0236426 0.045258895 -0.11734894
v -0.18392095 -0.06242971 -0.021885812
v -0.1305173 -0.17012955 -0.053712457
v -0.0236426 -0.17012955 -0.11734894
v 0.029761076 -0.06242971 -0.14916436
v 0.026831001 -0.06242971 0.08888444
v -0.02657266 0.045258895 0.12069985
v 0.08024029 0.045258895 0.057057783
v -0.08009982 -0.06242971 0.1525209
v -0.02657266 -0.17012955 0.12069985
v 0.08024029 -0.17012955 0.057057783
v 0.13364395 -0.06242971 0.025247961
v 0.1297372 0.17011818 -0.028307274
v 0.18393794 0.107014954 -0.06059982
v 0.08725675 -0.04998532 -0.002991885
v 0.033791333 0.0121243745 0.02879548
v 0.18393794 0.107014954 -0.06059982
v 0.1291871 0.107014954 -0.15252104
v 0.032449782 -0.04998532 -0.09490188
v 0.08725675 -0.04998532 -0.002991885
v 0.1291871 0.107014954 -0.15252104
v 0.074930236 0.17011818 -0.12022288
v -0.020897761 0.0121243745 -0.06312013
v 0.032449782 -0.04998532 -0.09490188
v 0.074930236 0.17011818 -0.12022288
v 0.1297372 0.17011818 -0.028307274
v 0.033791333 0.0121243745 0.02879548
v -0.020897761 0.0121243745 -0.06312013
vt 0.95531774 0.87115264
vt 0.9523225 0.87115264
vt 0.9523225 0.8663603
vt 0.95531774 0.8663603
vt 0.9494771 0.87115264
vt 0.9494771 0.8663603
vt 0.9464819 0.87115264
vt 0.9464819 0.8663603
vt 0.9436364 0.87115264
vt 0.9436364 0.8663603
vt 0.96115834 0.87115264
vt 0.95816314 0.87115264
vt 0.95816314 0.8663603
vt 0.96115834 0.8663603
vt 0.9270131 0.81094915
vt 0.9261145 0.8094516
vt 0.9277619 0.8094516
vt 0.92521596 0.81094915
vt 0.9243174 0.8094516
vt 0.92521596 0.80795395
vt 0.9270131 0.80795395
vt 0.9261145 0.8094516
vt 0.9243174 0.8094516
vt 0.92521596 0.80795395
vt 0.92521596 0.81094915
vt 0.9270131 0.81094915
vt 0.9277619 0.8094516
vt 0.9270131 0.80795395
vt 0.90290177 0.8683072
vt 0.90290177 0.8666598
vt 0.906496 0.8666598
vt 0.906496 0.8683072
vt 0.90290177 0.8666598
vt 0.90290177 0.86471295
vt 0.906496 0.86471295
vt 0.906496 0.8666598
vt 0.90290177 0.87190145
vt 0.90290177 0.8702541
vt 0.906496 0.8704038
vt 0.906496 0.87190145
vt 0.90290177 0.8702541
vt 0.90290177 0.8683072
vt 0.906496 0.8683072
vt 0.906496 0.8704038
vn 0.4313768 0.86615604 -0.25236443
vn -0.43138057 0.86615604 0.25235793
vn -0.43138057 0.86615604 0.25235793
vn 0.4313768 0.86615604 -0.25236443
vn -0.85936266 -0.0033947825 0.51135534
vn -0.85936266 -0.0033947825 0.51135534
vn -0.43138057 -0.8661522 0.25237092
vn -0.43138057 -0.8661522 0.25237092
vn 0.4313768 -0.8661522 -0.25237742
vn 0.4313768 -0.8661522 -0.25237742
vn 0.4313768 -0.8661522 -0.25237742
vn 0.85935885 -0.0033947825 -0.5113618
vn 0.85935885 -0.0033947825 -0.5113618
vn 0.4313768 -0.8661522 -0.25237742
vn -0.512901 0.0033985972 -0.858441
vn -0.512901 -0.0033947825 -0.85844105
vn -0.512901 0.0033985972 -0.858441
vn -0.512901 -0.0033947825 -0.85844105
vn -0.512901 -0.0033947825 -0.85844105
vn -0.512901 -0.0033947825 -0.85844105
vn -0.512901 -0.0033947825 -0.85844105
vn 0.51289725 -0.0033947825 0.8584433
vn 0.51289725 -0.0033947825 0.8584433
vn 0.51289725 0.0033985972 0.8584433
vn 0.51289725 -0.0033947825 0.8584433
vn 0.51289725 0.0033985972 0.8584433
vn 0.51289725 -0.0033947825 0.8584433
vn 0.51289725 -0.0033947825 0.8584433
vn 0.51289725 0.0033985972 0.8584433
vn 0.51289725 0.0033985972 0.8584433
vn 0.51289725 0.0033985972 0.8584433
vn 0.51289725 0.0033985972 0.8584433
vn 0.6963181 -0.5808309 -0.42163566
vn 0.6963181 -0.5808309 -0.42163566
vn 0.6963181 -0.5808309 -0.42163566
vn 0.6963181 -0.5808309 -0.42163566
vn -0.512901 -0.0033947825 -0.85844105
vn -0.512901 -0.0033947825 -0.85844105
vn -0.512901 -0.0033947825 -0.85844105
vn -0.512901 -0.0033947825 -0.85844105
vn -0.7031153 0.5740413 0.4196492
vn -0.7031153 0.5740413 0.4196492
vn -0.7031153 0.5740413 0.4196492
vn -0.7031153 0.5740413 0.4196492
g SixLegs_09_0
f 3/3/3 2/2/2 1/1/1
f 4/4/4 3/3/3 1/1/1
f 6/6/6 5/5/5 2/2/2
f 3/3/3 6/6/6 2/2/2
f 8/8/8 7/7/7 5/5/5
f 6/6/6 8/8/8 5/5/5
f 10/10/10 9/9/9 7/7/7
f 8/8/8 10/10/10 7/7/7
f 13/13/13 12/12/12 11/11/11
f 14/14/14 13/13/13 11/11/11
f 4/4/4 1/1/1 12/12/12
f 13/13/13 4/4/4 12/12/12
f 17/17/17 16/16/16 15/15/15
f 15/15/15 16/16/16 18/18/18
f 18/18/18 16/16/16 19/19/19
f 19/19/19 16/16/16 20/20/20
f 20/20/20 16/16/16 21/21/21
f 21/21/21 16/16/16 17/17/17
f 24/24/24 23/23/23 22/22/22
f 23/23/23 25/25/25 22/22/22
f 25/25/25 26/26/26 22/22/22
f 26/26/26 27/27/27 22/22/22
f 27/27/27 28/28/28 22/22/22
f 28/28/28 24/24/24 22/22/22
f 31/31/31 30/30/30 29/29/29
f 32/32/32 31/31/31 29/29/29
f 35/35/35 34/34/34 33/33/33
f 36/36/36 35/35/35 33/33/33
f 39/39/39 38/38/38 37/37/37
f 40/40/40 39/39/39 37/37/37
f 43/43/43 42/42/42 41/41/41
f 44/44/44 43/43/43 41/41/41
