g SixLegs_04_CorpsePart
v -0.029016495 0.200095 -0.10615033
v -0.14406478 0.200095 0.08695322
v -0.21694106 0.16041285 0.043529153
v -0.10189271 0.16041285 -0.14957446
v -0.22389859 0.06709087 0.039388776
v -0.10890716 0.06709087 -0.15372905
v -0.15797985 0.013422489 0.078686714
v -0.042931557 0.013422489 -0.11443108
v -0.042931557 0.013422489 -0.11443108
v -0.15797985 0.013422489 0.078686714
v -0.084989786 0.053090394 0.12212509
v 0.030030072 0.053090394 -0.07099274
v -0.07808918 0.14642662 0.12625122
v 0.03693068 0.14642662 -0.06686658
v -0.21694106 0.16041285 0.043529153
v -0.14406478 0.200095 0.08695322
v -0.1509654 0.10674453 0.08282709
v -0.22389859 0.06709087 0.039388776
v -0.15797985 0.013422489 0.078686714
v -0.084989786 0.053090394 0.12212509
v -0.07808918 0.14642662 0.12625122
v -0.035974026 0.10674453 -0.110290706
v -0.029016495 0.200095 -0.10615033
v -0.10189271 0.16041285 -0.14957446
v -0.10890716 0.06709087 -0.15372905
v -0.042931557 0.013422489 -0.11443108
v 0.030030072 0.053090394 -0.07099274
v 0.03693068 0.14642662 -0.06686658
v 0.1280616 -0.20230374 -0.04082918
v 0.2449453 -0.0152044 0.028760374
v 0.058898866 0.4662171 -0.19607183
v 0.0304569 -0.06894389 -0.14995861
v -0.009666294 -0.20230374 0.19039142
v 0.1280616 -0.20230374 -0.04082918
v 0.0304569 -0.06894389 -0.14995861
v -0.15211791 -0.06894389 0.15651435
v 0.10718897 -0.0152044 0.25998098
v -0.009666294 -0.20230374 0.19039142
v -0.15211791 -0.06894389 0.15651435
v -0.17910856 0.4662171 0.2034955
v 0.2449453 -0.0152044 0.028760374
v 0.10718897 -0.0152044 0.25998098
v -0.17910856 0.4662171 0.2034955
v 0.058898866 0.4662171 -0.19607183
v 0.058898866 0.4662171 -0.19607183
v -0.17910856 0.4662171 0.2034955
v -0.28634566 0.3552665 0.13958293
v -0.048366666 0.3552665 -0.2599702
v 0.2391687 -0.4662205 0.23563677
v 0.2863775 -0.4662205 0.15640056
v 0.23834348 -0.46580788 0.12780207
v 0.19116315 -0.46580788 0.20703828
v 0.2391687 -0.4662205 0.23563677
v 0.10718897 -0.0152044 0.25998098
v 0.2449453 -0.0152044 0.028760374
v 0.2863775 -0.4662205 0.15640056
v 0.19116315 -0.46580788 0.20703828
v 0.2391687 -0.4662205 0.23563677
v 0.23834348 -0.46580788 0.12780207
v 0.1280616 -0.20230374 -0.04082918
v -0.009666294 -0.20230374 0.19039142
v 0.19116315 -0.46580788 0.20703828
v 0.2863775 -0.4662205 0.15640056
v 0.23834348 -0.46580788 0.12780207
v -0.048366666 0.3552665 -0.2599702
v -0.048366666 0.3552665 -0.2599702
v -0.28634566 0.3552665 0.13958293
v -0.28634566 0.3552665 0.13958293
vt 0.8951218 0.8689587
vt 0.8951218 0.8647659
vt 0.89344466 0.8647659
vt 0.89344466 0.8689587
vt 0.89159983 0.8647659
vt 0.89159983 0.8689587
vt 0.88992274 0.8647659
vt 0.88992274 0.8689587
vt 0.9003209 0.8689587
vt 0.9003209 0.8647659
vt 0.89864373 0.8647659
vt 0.89864373 0.8689587
vt 0.8967989 0.8647659
vt 0.8967989 0.8689587
vt 0.9269871 0.8109303
vt 0.9278256 0.8094209
vt 0.92614853 0.8094209
vt 0.9251423 0.8109303
vt 0.9243037 0.8094209
vt 0.9251423 0.8079115
vt 0.9269871 0.8079115
vt 0.92614853 0.8094209
vt 0.9251423 0.8079115
vt 0.9243037 0.8094209
vt 0.9251423 0.8109303
vt 0.9269871 0.8109303
vt 0.9278256 0.8094209
vt 0.9269871 0.8079115
vt 0.9657286 0.8622502
vt 0.96958596 0.8605731
vt 0.96958596 0.85000724
vt 0.9645546 0.8587283
vt 0.9011594 0.7998613
vt 0.9011594 0.804725
vt 0.9046814 0.8055635
vt 0.9046814 0.79902273
vt 0.88237566 0.824515
vt 0.8785183 0.82267016
vt 0.8773443 0.82619214
vt 0.88237566 0.83491313
vt 0.92631626 0.80489266
vt 0.92631626 0.7998613
vt 0.9159181 0.7980165
vt 0.9159181 0.8065698
vt 0.9159181 0.8065698
vt 0.9159181 0.7980165
vt 0.91289926 0.7980165
vt 0.91289926 0.8065698
vt 0.9348695 0.80153847
vt 0.9348695 0.80321556
vt 0.93587583 0.80321556
vt 0.93587583 0.80153847
vt 0.9348695 0.80153847
vt 0.92631626 0.7998613
vt 0.92631626 0.80489266
vt 0.9348695 0.80321556
vt 0.8790214 0.8166325
vt 0.87986 0.8161294
vt 0.8952895 0.80321556
vt 0.9011594 0.804725
vt 0.9011594 0.7998613
vt 0.8952895 0.80137074
vt 0.9670703 0.868791
vt 0.9662317 0.86828786
vt 0.96656716 0.8506781
vt 0.91289926 0.8065698
vt 0.91289926 0.7980165
vt 0.87935686 0.8342423
vn 0.0762074 0.9962747 0.040362287
vn 0.0762074 0.9962747 0.040362287
vn -0.7066263 0.5735445 -0.4143983
vn -0.7066263 0.5735445 -0.4143983
vn -0.77708125 -0.42065424 -0.46818238
vn -0.77708125 -0.42065424 -0.46818238
vn -0.07234447 -0.9973797 -0
vn -0.07234447 -0.9973797 -0
vn -0.07234447 -0.9973797 -0
vn -0.07234447 -0.9973797 -0
vn 0.70247436 -0.5693926 0.4269916
vn 0.70247436 -0.5693926 0.4269916
vn 0.78075767 0.42480612 0.4582109
vn 0.78075767 0.42480612 0.4582109
vn -0.5109178 0.0020759106 0.85962707
vn -0.5109178 0.0020759106 0.85962707
vn -0.5109178 0.0020759106 0.85962707
vn -0.5109178 0.0020759106 0.85962707
vn -0.5109178 0.0020759106 0.85962707
vn -0.5109178 0.0020759106 0.85962707
vn -0.5109178 0.0020759106 0.85962707
vn 0.51459426 0.0020759106 -0.85743135
vn 0.51459426 0.0020759106 -0.85743135
vn 0.51459426 0.0020759106 -0.85743135
vn 0.51459426 0.0020759106 -0.85743135
vn 0.51459426 0.0020759106 -0.85743135
vn 0.51459426 0.0020759106 -0.85743135
vn 0.51459426 0.0020759106 -0.85743135
vn 0.647676 -0.13100576 -0.7505686
vn 0.647676 -0.115349114 -0.7531337
vn 0.6320193 -0.10752076 -0.7674574
vn 0.647676 -0.10752076 -0.7542911
vn -0.59702957 -0.7259593 -0.34137782
vn -0.59702957 -0.7259593 -0.34137782
vn -0.79273796 -0.38151252 -0.47541007
vn -0.79273796 -0.38151252 -0.47541007
vn -0.3465228 -0.115349114 0.9309224
vn -0.3465228 -0.13100576 0.92884845
vn -0.35435116 -0.10752076 0.9289104
vn -0.3778361 -0.10752076 0.9196081
vn 0.74944437 0.4952612 0.439374
vn 0.74944437 0.4952612 0.439374
vn 0.74944437 0.4952612 0.439374
vn 0.74944437 0.4952612 0.439374
vn -0.5735445 0.74576795 -0.338935
vn -0.5735445 0.74576795 -0.338935
vn -0.5735445 0.74576795 -0.338935
vn -0.5735445 0.74576795 -0.338935
vn -0.0099042645 -0.999951 -0
vn -0.0099042645 -0.999951 -0
vn -0.0099042645 -0.999951 -0
vn -0.0099042645 -0.999951 -0
vn 0.83555603 0.22126937 0.5028777
vn 0.83555603 0.22126937 0.5028777
vn 0.83555603 0.22126937 0.5028777
vn 0.83555603 0.22126937 0.5028777
vn -0.35435116 -0.17014742 0.9195026
vn -0.35435116 -0.17014742 0.9195026
vn -0.7066263 -0.5693926 -0.42008486
vn -0.7066263 -0.5693926 -0.42008486
vn -0.7066263 -0.5693926 -0.42008486
vn -0.7066263 -0.5693926 -0.42008486
vn 0.63984764 -0.17014742 -0.7494297
vn 0.63984764 -0.17014742 -0.7494297
vn 0.5850493 -0.099692404 -0.80484706
vn -0.82405126 -0.27974415 -0.49262843
vn -0.82405126 -0.27974415 -0.49262843
vn -0.43263447 -0.099692404 0.8960406
g SixLegs_04_CorpsePart_0
f 3/3/3 2/2/2 1/1/1
f 4/4/4 3/3/3 1/1/1
f 5/5/5 3/3/3 4/4/4
f 6/6/6 5/5/5 4/4/4
f 7/7/7 5/5/5 6/6/6
f 8/8/8 7/7/7 6/6/6
f 11/11/11 10/10/10 9/9/9
f 12/12/12 11/11/11 9/9/9
f 13/13/13 11/11/11 12/12/12
f 14/14/14 13/13/13 12/12/12
f 2/2/2 13/13/13 14/14/14
f 1/1/1 2/2/2 14/14/14
f 17/17/17 16/16/16 15/15/15
f 17/17/17 15/15/15 18/18/18
f 17/17/17 18/18/18 19/19/19
f 17/17/17 19/19/19 20/20/20
f 17/17/17 20/20/20 21/21/21
f 17/17/17 21/21/21 16/16/16
f 24/24/24 23/23/23 22/22/22
f 25/25/25 24/24/24 22/22/22
f 26/26/26 25/25/25 22/22/22
f 27/27/27 26/26/26 22/22/22
f 28/28/28 27/27/27 22/22/22
f 23/23/23 28/28/28 22/22/22
f 31/31/31 30/30/30 29/29/29
f 32/32/32 31/31/31 29/29/29
f 35/35/35 34/34/34 33/33/33
f 36/36/36 35/35/35 33/33/33
f 39/39/39 38/38/38 37/37/37
f 40/40/40 39/39/39 37/37/37
f 43/43/43 42/42/42 41/41/41
f 44/44/44 43/43/43 41/41/41
f 47/47/47 46/46/46 45/45/45
f 48/48/48 47/47/47 45/45/45
f 51/51/51 50/50/50 49/49/49
f 52/52/52 51/51/51 49/49/49
f 55/55/55 54/54/54 53/53/53
f 56/56/56 55/55/55 53/53/53
f 37/37/37 38/38/38 57/57/57
f 58/58/58 37/37/37 57/57/57
f 61/61/61 60/60/60 59/59/59
f 62/62/62 61/61/61 59/59/59
f 29/29/29 30/30/30 63/63/63
f 64/64/64 29/29/29 63/63/63
f 65/65/65 31/31/31 32/32/32
f 66/66/66 35/35/35 36/36/36
f 67/67/67 66/66/66 36/36/36
f 68/68/68 39/39/39 40/40/40
