g SixLegs_11
v -0.123658925 0.20841888 -0.07432553
v -0.004704535 0.28840834 -0.14522287
v 0.14312808 0.28840834 0.10293102
v 0.024112076 0.20841888 0.17382836
v 0.11432025 0.20841888 -0.21611142
v 0.2621441 0.20841888 0.032042503
v 0.11432025 0.04844877 -0.21611142
v 0.2621441 0.04844877 0.032042503
v -0.004704535 -0.031540662 -0.14522287
v 0.14312808 -0.031540662 0.10293102
v -0.004704535 -0.031540662 -0.14522287
v -0.123658925 0.04844877 -0.07432553
v 0.024112076 0.04844877 0.17382836
v 0.14312808 -0.031540662 0.10293102
v 0.14312808 0.28840834 0.10293102
v 0.14312808 0.12844703 0.10293102
v 0.024112076 0.20841888 0.17382836
v 0.2621441 0.20841888 0.032042503
v 0.2621441 0.04844877 0.032042503
v 0.14312808 -0.031540662 0.10293102
v 0.024112076 0.04844877 0.17382836
v -0.004704535 0.12844703 -0.14522287
v -0.004704535 0.28840834 -0.14522287
v -0.123658925 0.20841888 -0.07432553
v 0.11432025 0.20841888 -0.21611142
v 0.11432025 0.04844877 -0.21611142
v -0.004704535 -0.031540662 -0.14522287
v -0.123658925 0.04844877 -0.07432553
v 0.077274084 0.036663353 -0.13590191
v -0.008603692 0.23289627 -0.08474669
v -0.2621442 -0.21436869 0.112894505
v -0.18658197 -0.28840822 0.06786522
v -0.20062062 -0.21436869 0.21611154
v -0.2621442 -0.21436869 0.112894505
v -0.008603692 0.23289627 -0.08474669
v 0.09387401 0.23289627 0.08730808
v 0.09387401 0.23289627 0.08730808
v 0.17975177 0.036663353 0.03615287
v -0.12512001 -0.28840822 0.17108226
v -0.20062062 -0.21436869 0.21611154
v 0.17975177 0.036663353 0.03615287
v 0.077274084 0.036663353 -0.13590191
v -0.18658197 -0.28840822 0.06786522
v -0.12512001 -0.28840822 0.17108226
vt 0.89916015 0.856856
vt 0.90213567 0.856856
vt 0.90213567 0.8621602
vt 0.89916015 0.8621602
vt 0.9051112 0.856856
vt 0.9051112 0.8621602
vt 0.9080867 0.856856
vt 0.9080867 0.8621602
vt 0.91106224 0.856856
vt 0.91106224 0.8621602
vt 0.8933385 0.856856
vt 0.896314 0.856856
vt 0.896314 0.8621602
vt 0.8933385 0.8621602
vt 0.92697483 0.8109295
vt 0.92606926 0.8095064
vt 0.92775106 0.8095064
vt 0.9251636 0.8109295
vt 0.9243874 0.8095064
vt 0.9251636 0.80795395
vt 0.92697483 0.80795395
vt 0.92606926 0.8095064
vt 0.9251636 0.80795395
vt 0.92697483 0.80795395
vt 0.9243874 0.8095064
vt 0.9251636 0.8109295
vt 0.92697483 0.8109295
vt 0.92775106 0.8095064
vt 0.9403 0.861384
vt 0.93667763 0.8633245
vt 0.93667763 0.85310423
vt 0.9387475 0.85284555
vt 0.93447834 0.8529749
vt 0.93667763 0.85310423
vt 0.93667763 0.8633245
vt 0.9329259 0.8630658
vt 0.9329259 0.8630658
vt 0.9296916 0.86060774
vt 0.9324084 0.8524574
vt 0.93447834 0.8529749
vt 0.9296916 0.86060774
vt 0.926328 0.8591847
vt 0.93033844 0.85155183
vt 0.9324084 0.8524574
vn -0.74117076 0.4980353 0.45014077
vn 0.0039215684 0.99999225 -0.00034526698
vn 0.0039215684 0.99999225 -0.00034526698
vn -0.74117076 0.4980353 0.45014077
vn 0.7411708 0.4980353 -0.4501407
vn 0.7411708 0.4980353 -0.4501407
vn 0.7411708 -0.49803543 -0.45014057
vn 0.7411708 -0.49803543 -0.45014057
vn 0.0039215684 -0.9999924 -0
vn 0.0039215684 -0.9999924 -0
vn 0.0039215684 -0.9999924 -0
vn -0.74117076 -0.49803543 0.45014066
vn -0.74117076 -0.49803543 0.45014066
vn 0.0039215684 -0.9999924 -0
vn 0.5137216 0.003921509 0.857948
vn 0.5137216 0.003921509 0.857948
vn 0.5137216 0.003921509 0.857948
vn 0.5137216 0.003921509 0.857948
vn 0.5137216 0.003921509 0.857948
vn 0.5137216 0.003921509 0.857948
vn 0.5137216 0.003921509 0.857948
vn -0.51372147 0.003921509 -0.85794806
vn -0.51372147 0.003921509 -0.85794806
vn -0.51372147 0.003921509 -0.85794806
vn -0.51372147 0.003921509 -0.85794806
vn -0.51372147 0.003921509 -0.85794806
vn -0.51372147 0.003921509 -0.85794806
vn -0.51372147 0.003921509 -0.85794806
vn -0.56862307 -0.043136954 -0.8214664
vn -0.56862307 -0.043136954 -0.8214664
vn -0.56862307 -0.043136954 -0.8214664
vn -0.56862307 -0.043136954 -0.8214664
vn -0.7019553 0.5843092 0.40723646
vn -0.7019553 0.5843092 0.40723646
vn -0.7019553 0.5843092 0.40723646
vn -0.7019553 0.5843092 0.40723646
vn 0.45097697 -0.043136954 0.89149255
vn 0.45097697 -0.043136954 0.89149255
vn 0.45097697 -0.043136954 0.89149255
vn 0.45097697 -0.043136954 0.89149255
vn 0.59999543 -0.7097985 -0.36904138
vn 0.59999543 -0.7097985 -0.36904138
vn 0.59999543 -0.7097985 -0.36904138
vn 0.59999543 -0.7097985 -0.36904138
g SixLegs_11_0
f 3/3/3 2/2/2 1/1/1
f 4/4/4 3/3/3 1/1/1
f 6/6/6 5/5/5 2/2/2
f 3/3/3 6/6/6 2/2/2
f 8/8/8 7/7/7 5/5/5
f 6/6/6 8/8/8 5/5/5
f 10/10/10 9/9/9 7/7/7
f 8/8/8 10/10/10 7/7/7
f 13/13/13 12/12/12 11/11/11
f 14/14/14 13/13/13 11/11/11
f 4/4/4 1/1/1 12/12/12
f 13/13/13 4/4/4 12/12/12
f 17/17/17 16/16/16 15/15/15
f 15/15/15 16/16/16 18/18/18
f 18/18/18 16/16/16 19/19/19
f 19/19/19 16/16/16 20/20/20
f 20/20/20 16/16/16 21/21/21
f 21/21/21 16/16/16 17/17/17
f 24/24/24 23/23/23 22/22/22
f 23/23/23 25/25/25 22/22/22
f 25/25/25 26/26/26 22/22/22
f 26/26/26 27/27/27 22/22/22
f 27/27/27 28/28/28 22/22/22
f 28/28/28 24/24/24 22/22/22
f 31/31/31 30/30/30 29/29/29
f 32/32/32 31/31/31 29/29/29
f 35/35/35 34/34/34 33/33/33
f 36/36/36 35/35/35 33/33/33
f 39/39/39 38/38/38 37/37/37
f 40/40/40 39/39/39 37/37/37
f 43/43/43 42/42/42 41/41/41
f 44/44/44 43/43/43 41/41/41
