g SixLegs_07_CorpsePart
v -0.15565944 0.19692498 -0.10773277
v -0.15584481 0.19960564 0.11701757
v -0.24055749 0.15966624 0.117431045
v -0.24044347 0.15698552 -0.107319266
v -0.24834293 0.06631255 0.11854327
v -0.24822885 0.06363189 -0.10620704
v -0.17141563 0.012898356 0.11924195
v -0.17123026 0.010217667 -0.10552263
v -0.17123026 0.010217667 -0.10552263
v -0.17141563 0.012898356 0.11924195
v -0.08666015 0.052852094 0.11881417
v -0.08651757 0.050171375 -0.10593614
v -0.078846216 0.14620572 0.11771625
v -0.07873213 0.14351076 -0.10704833
v -0.24055749 0.15966624 0.117431045
v -0.15584481 0.19960564 0.11701757
v -0.16363025 0.106252015 0.11812973
v -0.24834293 0.06631255 0.11854327
v -0.17141563 0.012898356 0.11924195
v -0.08666015 0.052852094 0.11881417
v -0.078846216 0.14620572 0.11771625
v -0.16344488 0.103571296 -0.106634825
v -0.15565944 0.19692498 -0.10773277
v -0.24044347 0.15698552 -0.107319266
v -0.24822885 0.06363189 -0.10620704
v -0.17123026 0.010217667 -0.10552263
v -0.08651757 0.050171375 -0.10593614
v -0.07873213 0.14351076 -0.10704833
v 0.014036894 -0.20517877 -0.12709647
v 0.1494546 -0.01763016 -0.12923533
v -0.1269418 0.46167177 -0.23314065
v -0.12605774 -0.07279822 -0.17256844
v 0.013865799 -0.20195621 0.14201355
v 0.014036894 -0.20517877 -0.12709647
v -0.12605774 -0.07279822 -0.17256844
v -0.12630016 -0.06853479 0.18412042
v 0.1492407 -0.01442188 0.13987476
v 0.013865799 -0.20195621 0.14201355
v -0.12630016 -0.06853479 0.18412042
v -0.12728405 0.46723282 0.2319023
v 0.1494546 -0.01763016 -0.12923533
v 0.1492407 -0.01442188 0.13987476
v -0.12728405 0.46723282 0.2319023
v -0.1269418 0.46167177 -0.23314065
v -0.1269418 0.46167177 -0.23314065
v -0.12728405 0.46723282 0.2319023
v -0.25173658 0.3558843 0.23314285
v -0.25149417 0.35032326 -0.23190013
v 0.25174865 -0.46613267 0.056873083
v 0.25180566 -0.46723062 -0.035339832
v 0.19589615 -0.46700248 -0.0353826
v 0.19581059 -0.46589026 0.056830347
v 0.25174865 -0.46613267 0.056873083
v 0.1492407 -0.01442188 0.13987476
v 0.1494546 -0.01763016 -0.12923533
v 0.25180566 -0.46723062 -0.035339832
v 0.19581059 -0.46589026 0.056830347
v 0.25174865 -0.46613267 0.056873083
v 0.19589615 -0.46700248 -0.0353826
v 0.014036894 -0.20517877 -0.12709647
v 0.013865799 -0.20195621 0.14201355
v 0.19581059 -0.46589026 0.056830347
v 0.25180566 -0.46723062 -0.035339832
v 0.19589615 -0.46700248 -0.0353826
v -0.25149417 0.35032326 -0.23190013
v -0.25149417 0.35032326 -0.23190013
v -0.25173658 0.3558843 0.23314285
v -0.25173658 0.3558843 0.23314285
vt 0.8951218 0.8689587
vt 0.8951218 0.8647659
vt 0.89344466 0.8647659
vt 0.89344466 0.8689587
vt 0.89159983 0.8647659
vt 0.89159983 0.8689587
vt 0.88992274 0.8647659
vt 0.88992274 0.8689587
vt 0.9003209 0.8689587
vt 0.9003209 0.8647659
vt 0.89864373 0.8647659
vt 0.89864373 0.8689587
vt 0.8967989 0.8647659
vt 0.8967989 0.8689587
vt 0.9269871 0.8109303
vt 0.9278256 0.8094209
vt 0.92614853 0.8094209
vt 0.9251423 0.8109303
vt 0.9243037 0.8094209
vt 0.9251423 0.8079115
vt 0.9269871 0.8079115
vt 0.92614853 0.8094209
vt 0.9251423 0.8079115
vt 0.9243037 0.8094209
vt 0.9251423 0.8109303
vt 0.9269871 0.8109303
vt 0.9278256 0.8094209
vt 0.9269871 0.8079115
vt 0.9657286 0.8622502
vt 0.96958596 0.8605731
vt 0.96958596 0.85000724
vt 0.9645546 0.8587283
vt 0.9011594 0.7998613
vt 0.9011594 0.804725
vt 0.9046814 0.8055635
vt 0.9046814 0.79902273
vt 0.88237566 0.824515
vt 0.8785183 0.82267016
vt 0.8773443 0.82619214
vt 0.88237566 0.83491313
vt 0.92631626 0.80489266
vt 0.92631626 0.7998613
vt 0.9159181 0.7980165
vt 0.9159181 0.8065698
vt 0.9159181 0.8065698
vt 0.9159181 0.7980165
vt 0.91289926 0.7980165
vt 0.91289926 0.8065698
vt 0.9348695 0.80153847
vt 0.9348695 0.80321556
vt 0.93587583 0.80321556
vt 0.93587583 0.80153847
vt 0.9348695 0.80153847
vt 0.92631626 0.7998613
vt 0.92631626 0.80489266
vt 0.9348695 0.80321556
vt 0.8790214 0.8166325
vt 0.87986 0.8161294
vt 0.8952895 0.80321556
vt 0.9011594 0.804725
vt 0.9011594 0.7998613
vt 0.8952895 0.80137074
vt 0.9670703 0.868791
vt 0.9662317 0.86828786
vt 0.96656716 0.8506781
vt 0.91289926 0.8065698
vt 0.91289926 0.7980165
vt 0.87935686 0.8342423
vn 0.08392813 0.9964719 -0
vn 0.08392813 0.9964719 -0
vn -0.82075286 0.5712835 -0
vn -0.82075286 0.5712835 -0
vn -0.9025245 -0.42840368 0.04381661
vn -0.9025245 -0.42840368 0.04381661
vn -0.0802277 -0.9967766 -0
vn -0.0802277 -0.9967766 -0
vn -0.0802277 -0.9967766 -0
vn -0.0802277 -0.9967766 -0
vn 0.8198531 -0.56932545 0.06090489
vn 0.8198531 -0.56932545 0.06090489
vn 0.9053507 0.42466477 -0
vn 0.9053507 0.42466477 -0
vn -0.002190709 0.010019779 0.99994737
vn -0.002190709 0.010019779 0.99994737
vn -0.002190709 0.010019779 0.99994737
vn -0.002190709 0.010019779 0.99994737
vn -0.002190709 0.010019779 0.99994737
vn -0.002190709 0.010019779 0.99994737
vn -0.002190709 0.010019779 0.99994737
vn -0.002190709 -0.013467252 -0.9999069
vn -0.002190709 -0.013467252 -0.9999069
vn -0.002190709 -0.013467252 -0.9999069
vn -0.002190709 -0.013467252 -0.9999069
vn -0.002190709 -0.013467252 -0.9999069
vn -0.002190709 -0.013467252 -0.9999069
vn -0.002190709 -0.013467252 -0.9999069
vn 0.177876 -0.14656007 -0.9730777
vn 0.177876 -0.13090205 -0.9753075
vn 0.14656007 -0.11524409 -0.98246574
vn 0.17004704 -0.11524409 -0.978674
vn -0.6895523 -0.72423583 -0
vn -0.6895523 -0.72423583 -0
vn -0.9246321 -0.38086155 -0
vn -0.9246321 -0.38086155 -0
vn 0.177876 -0.10741508 0.97817284
vn 0.17004704 -0.1230731 0.9777203
vn 0.17004704 -0.09175712 0.98115474
vn 0.14656007 -0.09175712 0.98493695
vn 0.8668271 0.49541712 -0.056327082
vn 0.8668271 0.49541712 -0.056327082
vn 0.8668271 0.49541712 -0.056327082
vn 0.8668271 0.49541712 -0.056327082
vn -0.6669228 0.74512684 -0
vn -0.6669228 0.74512684 -0
vn -0.6669228 0.74512684 -0
vn -0.6669228 0.74512684 -0
vn -0.002190709 -0.9999199 0.0124655245
vn -0.002190709 -0.9999199 0.0124655245
vn -0.002190709 -0.9999199 0.0124655245
vn -0.002190709 -0.9999199 0.0124655245
vn 0.97524375 0.22113276 -0
vn 0.97524375 0.22113276 -0
vn 0.97524375 0.22113276 -0
vn 0.97524375 0.22113276 -0
vn 0.17004704 -0.16221803 0.97199243
vn 0.17004704 -0.16221803 0.97199243
vn -0.8227984 -0.5683334 -0
vn -0.8227984 -0.5683334 -0
vn -0.8227984 -0.5683334 -0
vn -0.8227984 -0.5683334 -0
vn 0.17004704 -0.185705 -0.96777976
vn 0.17004704 -0.185705 -0.96777976
vn 0.09175712 -0.11524409 -0.9890902
vn -0.9573275 -0.28748184 0.029636072
vn -0.9573275 -0.28748184 0.029636072
vn 0.09175712 -0.09175712 0.99154484
g SixLegs_07_CorpsePart_0
f 3/3/3 2/2/2 1/1/1
f 4/4/4 3/3/3 1/1/1
f 5/5/5 3/3/3 4/4/4
f 6/6/6 5/5/5 4/4/4
f 7/7/7 5/5/5 6/6/6
f 8/8/8 7/7/7 6/6/6
f 11/11/11 10/10/10 9/9/9
f 12/12/12 11/11/11 9/9/9
f 13/13/13 11/11/11 12/12/12
f 14/14/14 13/13/13 12/12/12
f 2/2/2 13/13/13 14/14/14
f 1/1/1 2/2/2 14/14/14
f 17/17/17 16/16/16 15/15/15
f 17/17/17 15/15/15 18/18/18
f 17/17/17 18/18/18 19/19/19
f 17/17/17 19/19/19 20/20/20
f 17/17/17 20/20/20 21/21/21
f 17/17/17 21/21/21 16/16/16
f 24/24/24 23/23/23 22/22/22
f 25/25/25 24/24/24 22/22/22
f 26/26/26 25/25/25 22/22/22
f 27/27/27 26/26/26 22/22/22
f 28/28/28 27/27/27 22/22/22
f 23/23/23 28/28/28 22/22/22
f 31/31/31 30/30/30 29/29/29
f 32/32/32 31/31/31 29/29/29
f 35/35/35 34/34/34 33/33/33
f 36/36/36 35/35/35 33/33/33
f 39/39/39 38/38/38 37/37/37
f 40/40/40 39/39/39 37/37/37
f 43/43/43 42/42/42 41/41/41
f 44/44/44 43/43/43 41/41/41
f 47/47/47 46/46/46 45/45/45
f 48/48/48 47/47/47 45/45/45
f 51/51/51 50/50/50 49/49/49
f 52/52/52 51/51/51 49/49/49
f 55/55/55 54/54/54 53/53/53
f 56/56/56 55/55/55 53/53/53
f 37/37/37 38/38/38 57/57/57
f 58/58/58 37/37/37 57/57/57
f 61/61/61 60/60/60 59/59/59
f 62/62/62 61/61/61 59/59/59
f 29/29/29 30/30/30 63/63/63
f 64/64/64 29/29/29 63/63/63
f 65/65/65 31/31/31 32/32/32
f 66/66/66 35/35/35 36/36/36
f 67/67/67 66/66/66 36/36/36
f 68/68/68 39/39/39 40/40/40
