g SixLegs_06
v 0.018590212 0.044394806 -0.10273763
v 0.018464684 0.046821743 0.100245506
v -0.105863005 0.046408534 0.10016182
v -0.10574272 0.043986842 -0.10282131
v -0.1676921 -0.061479874 0.10140666
v -0.16757181 -0.0639068 -0.10157124
v -0.10513073 -0.1689603 0.10273519
v -0.10501045 -0.17138723 -0.100242704
v 0.019196942 -0.16855232 0.10281888
v 0.019322485 -0.17097402 -0.10016425
v 0.019322485 -0.17097402 -0.10016425
v 0.019196942 -0.16855232 0.10281888
v 0.080994666 -0.060663924 0.10157403
v 0.08112019 -0.063085616 -0.10140909
v -0.105863005 0.046408534 0.10016182
v 0.018464684 0.046821743 0.100245506
v -0.043364406 -0.061066665 0.10149035
v -0.1676921 -0.061479874 0.10140666
v -0.10513073 -0.1689603 0.10273519
v 0.019196942 -0.16855232 0.10281888
v 0.080994666 -0.060663924 0.10157403
v -0.04323888 -0.063493595 -0.10149278
v 0.018590212 0.044394806 -0.10273763
v -0.10574272 0.043986842 -0.10282131
v -0.16757181 -0.0639068 -0.10157124
v -0.10501045 -0.17138723 -0.100242704
v 0.019322485 -0.17097402 -0.10016425
v 0.08112019 -0.063085616 -0.10140909
v 0.10437476 0.17009813 -0.05617097
v -0.006683305 0.011751592 -0.054356
v 0.055694997 -0.050150722 -0.05357144
v 0.16772592 0.10720199 -0.05537071
v 0.16772592 0.10720199 -0.05537071
v 0.055694997 -0.050150722 -0.05357144
v 0.05551193 -0.048874497 0.053406864
v 0.16763699 0.10848346 0.051602364
v 0.16763699 0.10848346 0.051602364
v 0.05551193 -0.048874497 0.053406864
v -0.0067408383 0.013033062 0.052622303
v 0.10431199 0.17139003 0.050807342
v 0.10431199 0.17139003 0.050807342
v -0.0067408383 0.013033062 0.052622303
v -0.006683305 0.011751592 -0.054356
v 0.10437476 0.17009813 -0.05617097
vt 0.95531774 0.87115264
vt 0.95531774 0.8663603
vt 0.9523225 0.8663603
vt 0.9523225 0.87115264
vt 0.9494771 0.8663603
vt 0.9494771 0.87115264
vt 0.9464819 0.8663603
vt 0.9464819 0.87115264
vt 0.9436364 0.8663603
vt 0.9436364 0.87115264
vt 0.96115834 0.87115264
vt 0.96115834 0.8663603
vt 0.95816314 0.8663603
vt 0.95816314 0.87115264
vt 0.9270131 0.81094915
vt 0.9277619 0.8094516
vt 0.9261145 0.8094516
vt 0.92521596 0.81094915
vt 0.9243174 0.8094516
vt 0.92521596 0.80795395
vt 0.9270131 0.80795395
vt 0.9261145 0.8094516
vt 0.92521596 0.80795395
vt 0.9243174 0.8094516
vt 0.92521596 0.81094915
vt 0.9270131 0.81094915
vt 0.9277619 0.8094516
vt 0.9270131 0.80795395
vt 0.90290177 0.8683072
vt 0.906496 0.8683072
vt 0.906496 0.8666598
vt 0.90290177 0.8666598
vt 0.90290177 0.8666598
vt 0.906496 0.8666598
vt 0.906496 0.86471295
vt 0.90290177 0.86471295
vt 0.90290177 0.87190145
vt 0.906496 0.87190145
vt 0.906496 0.8704038
vt 0.90290177 0.8702541
vt 0.90290177 0.8702541
vt 0.906496 0.8704038
vt 0.906496 0.8683072
vt 0.90290177 0.8683072
vn 0.49803543 0.86666 -0.029345663
vn 0.49803543 0.86666 -0.029345663
vn -0.5041139 0.8636371 -0
vn -0.5041139 0.8636371 -0
vn -0.99999225 -0.0039215684 -0.00034425134
vn -0.99999225 -0.0039215684 -0.00034425134
vn -0.4980353 -0.86666006 0.029345663
vn -0.4980353 -0.86666006 0.029345663
vn 0.504114 -0.86363715 -0
vn 0.504114 -0.86363715 -0
vn 0.504114 -0.86363715 -0
vn 0.504114 -0.86363715 -0
vn 0.9999924 0.003921509 -0
vn 0.9999924 0.003921509 -0
vn -0.003921509 0.011764526 0.9999231
vn -0.003921509 0.011764526 0.9999231
vn -0.003921509 0.011764526 0.9999231
vn -0.003921509 0.011764526 0.9999231
vn -0.003921509 0.011764526 0.9999231
vn -0.003921509 0.011764526 0.9999231
vn -0.003921509 0.011764526 0.9999231
vn 0.0039215684 -0.011764646 -0.9999231
vn 0.0039215684 -0.011764646 -0.9999231
vn 0.0039215684 -0.011764646 -0.9999231
vn 0.0039215684 -0.011764646 -0.9999231
vn 0.0039215684 -0.011764646 -0.9999231
vn 0.0039215684 -0.011764646 -0.9999231
vn 0.0039215684 -0.011764646 -0.9999231
vn 0.0039215684 -0.011764646 -0.9999231
vn 0.0039215684 -0.011764646 -0.9999231
vn 0.0039215684 -0.011764646 -0.9999231
vn 0.0039215684 -0.011764646 -0.9999231
vn 0.8117585 -0.5764662 0.09346043
vn 0.8117585 -0.5764662 0.09346043
vn 0.8117585 -0.5764662 0.09346043
vn 0.8117585 -0.5764662 0.09346043
vn -0.003921509 0.011764526 0.9999231
vn -0.003921509 0.011764526 0.9999231
vn -0.003921509 0.011764526 0.9999231
vn -0.003921509 0.011764526 0.9999231
vn -0.81794286 0.57529944 -0
vn -0.81794286 0.57529944 -0
vn -0.81794286 0.57529944 -0
vn -0.81794286 0.57529944 -0
g SixLegs_06_0
f 3/3/3 2/2/2 1/1/1
f 4/4/4 3/3/3 1/1/1
f 5/5/5 3/3/3 4/4/4
f 6/6/6 5/5/5 4/4/4
f 7/7/7 5/5/5 6/6/6
f 8/8/8 7/7/7 6/6/6
f 9/9/9 7/7/7 8/8/8
f 10/10/10 9/9/9 8/8/8
f 13/13/13 12/12/12 11/11/11
f 14/14/14 13/13/13 11/11/11
f 2/2/2 13/13/13 14/14/14
f 1/1/1 2/2/2 14/14/14
f 17/17/17 16/16/16 15/15/15
f 17/17/17 15/15/15 18/18/18
f 17/17/17 18/18/18 19/19/19
f 17/17/17 19/19/19 20/20/20
f 17/17/17 20/20/20 21/21/21
f 17/17/17 21/21/21 16/16/16
f 24/24/24 23/23/23 22/22/22
f 25/25/25 24/24/24 22/22/22
f 26/26/26 25/25/25 22/22/22
f 27/27/27 26/26/26 22/22/22
f 28/28/28 27/27/27 22/22/22
f 23/23/23 28/28/28 22/22/22
f 31/31/31 30/30/30 29/29/29
f 32/32/32 31/31/31 29/29/29
f 35/35/35 34/34/34 33/33/33
f 36/36/36 35/35/35 33/33/33
f 39/39/39 38/38/38 37/37/37
f 40/40/40 39/39/39 37/37/37
f 43/43/43 42/42/42 41/41/41
f 44/44/44 43/43/43 41/41/41
