g SixLegs_05
v 0.030590028 0.20615497 -0.14527415
v 0.030404717 0.20961395 0.14354065
v -0.10844803 0.2891349 0.14249942
v -0.10820097 0.28568473 -0.1463242
v -0.24669197 0.2087051 0.14335534
v -0.24644485 0.20524612 -0.14545946
v -0.24620661 0.04873675 0.14527014
v -0.24595955 0.045286626 -0.14354467
v -0.107353866 -0.03078416 0.14632016
v -0.107168555 -0.034234285 -0.14249463
v -0.107168555 -0.034234285 -0.14249463
v -0.107353866 -0.03078416 0.14632016
v 0.030898869 0.049654454 0.14545542
v 0.031075358 0.046195477 -0.14335936
v -0.10844803 0.2891349 0.14249942
v 0.030404717 0.20961395 0.14354065
v -0.10783917 0.12917536 0.1444054
v -0.24669197 0.2087051 0.14335534
v -0.24620661 0.04873675 0.14527014
v -0.107353866 -0.03078416 0.14632016
v 0.030898869 0.049654454 0.14545542
v -0.107653886 0.12572521 -0.14440942
v 0.030590028 0.20615497 -0.14527415
v -0.10820097 0.28568473 -0.1463242
v -0.24644485 0.20524612 -0.14545946
v -0.24595955 0.045286626 -0.14354467
v -0.107168555 -0.034234285 -0.14249463
v 0.031075358 0.046195477 -0.14335936
v -0.17308304 0.03433615 -0.09342496
v 0.15894236 -0.28913888 -0.04926139
v 0.24671361 -0.21481524 -0.050090834
v -0.07371721 0.23088834 -0.09570153
v 0.24659008 -0.21338578 0.070046455
v -0.07384074 0.23328844 0.10454786
v -0.07371721 0.23088834 -0.09570153
v 0.24671361 -0.21481524 -0.050090834
v -0.07384074 0.23328844 0.10454786
v 0.24659008 -0.21338578 0.070046455
v 0.15888941 -0.2877006 0.07087591
v -0.17320657 0.03672743 0.10682443
v -0.17320657 0.03672743 0.10682443
v 0.15888941 -0.2877006 0.07087591
v 0.15894236 -0.28913888 -0.04926139
v -0.17308304 0.03433615 -0.09342496
vt 0.89916015 0.856856
vt 0.89916015 0.8621602
vt 0.90213567 0.8621602
vt 0.90213567 0.856856
vt 0.9051112 0.8621602
vt 0.9051112 0.856856
vt 0.9080867 0.8621602
vt 0.9080867 0.856856
vt 0.91106224 0.8621602
vt 0.91106224 0.856856
vt 0.8933385 0.856856
vt 0.8933385 0.8621602
vt 0.896314 0.8621602
vt 0.896314 0.856856
vt 0.92697483 0.8109295
vt 0.92775106 0.8095064
vt 0.92606926 0.8095064
vt 0.9251636 0.8109295
vt 0.9243874 0.8095064
vt 0.9251636 0.80795395
vt 0.92697483 0.80795395
vt 0.92606926 0.8095064
vt 0.92697483 0.80795395
vt 0.9251636 0.80795395
vt 0.9243874 0.8095064
vt 0.9251636 0.8109295
vt 0.92697483 0.8109295
vt 0.92775106 0.8095064
vt 0.9403 0.861384
vt 0.9387475 0.85284555
vt 0.93667763 0.85310423
vt 0.93667763 0.8633245
vt 0.93447834 0.8529749
vt 0.9329259 0.8630658
vt 0.93667763 0.8633245
vt 0.93667763 0.85310423
vt 0.9329259 0.8630658
vt 0.93447834 0.8529749
vt 0.9324084 0.8524574
vt 0.9296916 0.86060774
vt 0.9296916 0.86060774
vt 0.9324084 0.8524574
vt 0.93033844 0.85155183
vt 0.926328 0.8591847
vn 0.86363727 0.50411373 -0
vn 0.86363727 0.50411373 -0
vn -0.003921032 0.9999229 -0.011784686
vn -0.003921032 0.9999229 -0.011784686
vn -0.8665998 0.49800074 -0.031623516
vn -0.8665998 0.49800074 -0.031623516
vn -0.8636369 -0.5041142 -0
vn -0.8636369 -0.5041142 -0
vn 0.003921509 -0.99992335 0.011744154
vn 0.003921509 -0.99992335 0.011744154
vn 0.003921509 -0.99992335 0.011744154
vn 0.003921509 -0.99992335 0.011744154
vn 0.8666003 -0.49800116 0.03160372
vn 0.8666003 -0.49800116 0.03160372
vn -0.003921032 0.011763573 0.9999231
vn -0.003921032 0.011763573 0.9999231
vn -0.003921032 0.011763573 0.9999231
vn -0.003921032 0.011763573 0.9999231
vn -0.003921032 0.011763573 0.9999231
vn -0.003921032 0.011763573 0.9999231
vn -0.003921032 0.011763573 0.9999231
vn 0.003921509 -0.0117640495 -0.9999231
vn 0.003921509 -0.0117640495 -0.9999231
vn 0.003921509 -0.0117640495 -0.9999231
vn 0.003921509 -0.0117640495 -0.9999231
vn 0.003921509 -0.0117640495 -0.9999231
vn 0.003921509 -0.0117640495 -0.9999231
vn 0.003921509 -0.0117640495 -0.9999231
vn 0.066661775 -0.058819234 -0.9960404
vn 0.066661775 -0.058819234 -0.9960404
vn 0.066661775 -0.058819234 -0.9960404
vn 0.066661775 -0.058819234 -0.9960404
vn 0.8116089 0.5842012 -0
vn 0.8116089 0.5842012 -0
vn 0.8116089 0.5842012 -0
vn 0.8116089 0.5842012 -0
vn 0.066661775 -0.035291612 0.9971513
vn 0.066661775 -0.035291612 0.9971513
vn 0.066661775 -0.035291612 0.9971513
vn 0.066661775 -0.035291612 0.9971513
vn -0.6992505 -0.7148768 -0
vn -0.6992505 -0.7148768 -0
vn -0.6992505 -0.7148768 -0
vn -0.6992505 -0.7148768 -0
g SixLegs_05_0
f 3/3/3 2/2/2 1/1/1
f 4/4/4 3/3/3 1/1/1
f 5/5/5 3/3/3 4/4/4
f 6/6/6 5/5/5 4/4/4
f 7/7/7 5/5/5 6/6/6
f 8/8/8 7/7/7 6/6/6
f 9/9/9 7/7/7 8/8/8
f 10/10/10 9/9/9 8/8/8
f 13/13/13 12/12/12 11/11/11
f 14/14/14 13/13/13 11/11/11
f 2/2/2 13/13/13 14/14/14
f 1/1/1 2/2/2 14/14/14
f 17/17/17 16/16/16 15/15/15
f 17/17/17 15/15/15 18/18/18
f 17/17/17 18/18/18 19/19/19
f 17/17/17 19/19/19 20/20/20
f 17/17/17 20/20/20 21/21/21
f 17/17/17 21/21/21 16/16/16
f 24/24/24 23/23/23 22/22/22
f 25/25/25 24/24/24 22/22/22
f 26/26/26 25/25/25 22/22/22
f 27/27/27 26/26/26 22/22/22
f 28/28/28 27/27/27 22/22/22
f 23/23/23 28/28/28 22/22/22
f 31/31/31 30/30/30 29/29/29
f 32/32/32 31/31/31 29/29/29
f 35/35/35 34/34/34 33/33/33
f 36/36/36 35/35/35 33/33/33
f 39/39/39 38/38/38 37/37/37
f 40/40/40 39/39/39 37/37/37
f 43/43/43 42/42/42 41/41/41
f 44/44/44 43/43/43 41/41/41
