g SixWheelsShassis_12
v 0.41822815 -0.06487709 0.19700193
v 0.096702814 -0.06487709 0.19700193
v 0.096702814 -0.07373124 -0.078457534
v 0.41822815 -0.07373124 -0.078457534
v 0.41822815 -0.07373124 -0.078457534
v 0.096702814 -0.07373124 -0.078457534
v 0.096702814 -0.34919065 -0.06960338
v 0.41822815 -0.34919065 -0.06960338
v 0.41822815 -0.34919065 -0.06960338
v 0.096702814 -0.34919065 -0.06960338
v 0.096702814 -0.34033653 0.20585603
v 0.41822815 -0.34033653 0.20585603
v 0.41822815 -0.34033653 0.20585603
v 0.096702814 -0.34033653 0.20585603
v 0.096702814 -0.06487709 0.19700193
v 0.41822815 -0.06487709 0.19700193
v 0.41822815 -0.34919065 -0.06960338
v 0.41822815 -0.34033653 0.20585603
v 0.41822815 -0.06487709 0.19700193
v 0.41822815 -0.07373124 -0.078457534
v 0.096702814 -0.07373124 -0.078457534
v 0.096702814 -0.06487709 0.19700193
v 0.096702814 -0.34033653 0.20585603
v 0.096702814 -0.34919065 -0.06960338
v 0.1494438 -0.13261026 0.064650655
v 0.6527162 -0.23692608 0.06527978
v 0.6527162 -0.3071298 0.14057809
v 0.1494438 -0.20281398 0.13996428
v 0.6527162 -0.31222436 -0.004939258
v 0.1494438 -0.20790857 -0.0055530667
v 0.6527162 -0.38242808 0.07035899
v 0.6527162 -0.31222436 -0.004939258
v 0.1494438 -0.20790857 -0.0055530667
v 0.1494438 -0.2781276 0.06974524
v 0.6527162 -0.3071298 0.14057809
v 0.6527162 -0.23692608 0.06527978
v 0.6527162 -0.31222436 -0.004939258
v 0.6527162 -0.38242808 0.07035899
v 0.7997834 -0.30742136 0.121181905
v 0.7997834 -0.36501142 0.065433264
v 0.64772904 -0.36501142 0.065433264
v 0.64772904 -0.30742136 0.121181905
v 0.7997834 -0.25168806 0.06357652
v 0.64772904 -0.25168806 0.06357652
v 0.7997834 -0.3092781 0.007843196
v 0.64772904 -0.3092781 0.007843196
v 0.7997834 -0.36501142 0.065433264
v 0.64772904 -0.36501142 0.065433264
vt 0.4573985 0.55523765
vt 0.45178235 0.55523765
vt 0.45178235 0.5502127
vt 0.4573985 0.5502127
vt 0.4573985 0.5502127
vt 0.45178235 0.5502127
vt 0.45178235 0.5450399
vt 0.4573985 0.5450399
vt 0.4573985 0.5450399
vt 0.45178235 0.5450399
vt 0.45178235 0.54060614
vt 0.4573985 0.54060614
vt 0.4573985 0.5604104
vt 0.45178235 0.5604104
vt 0.45178235 0.55523765
vt 0.4573985 0.55523765
vt 0.44513166 0.5395715
vt 0.4485309 0.5429708
vt 0.44513166 0.54651785
vt 0.44158462 0.5429708
vt 0.4485309 0.5429708
vt 0.44513166 0.54651785
vt 0.44158462 0.5429708
vt 0.44513166 0.5395715
vt 0.4133561 0.53306866
vt 0.42872658 0.53306866
vt 0.42872658 0.53617233
vt 0.4133561 0.53617233
vt 0.42872658 0.5301128
vt 0.4133561 0.5301128
vt 0.42872658 0.539276
vt 0.42872658 0.54178846
vt 0.4133561 0.54178846
vt 0.4133561 0.539276
vt 0.43345597 0.5367635
vt 0.43345597 0.5336598
vt 0.43655965 0.5336598
vt 0.43655965 0.5367635
vt 0.44128904 0.5542031
vt 0.44128904 0.55080384
vt 0.44616622 0.55080384
vt 0.44616622 0.5542031
vt 0.44128904 0.5577501
vt 0.44616622 0.5577501
vt 0.44128904 0.56114936
vt 0.44616622 0.56114936
vt 0.44128904 0.5645486
vt 0.44616622 0.5645486
vn -0.003921509 0.99999225 -0.00034526698
vn -0.003921509 0.99999225 -0.00034526698
vn -0.003921509 0.99999225 -0.00034526698
vn -0.003921509 0.99999225 -0.00034526698
vn -0.003921509 -0.035293877 -0.99936926
vn -0.003921509 -0.035293877 -0.99936926
vn -0.003921509 -0.035293877 -0.99936926
vn -0.003921509 -0.035293877 -0.99936926
vn -0.003921509 -0.9999924 -0
vn -0.003921509 -0.9999924 -0
vn -0.003921509 -0.9999924 -0
vn -0.003921509 -0.9999924 -0
vn -0.003921509 0.035293818 0.99936926
vn -0.003921509 0.035293818 0.99936926
vn -0.003921509 0.035293818 0.99936926
vn -0.003921509 0.035293818 0.99936926
vn 0.9999924 0.003921509 -0
vn 0.9999924 0.003921509 -0
vn 0.9999924 0.003921509 -0
vn 0.9999924 0.003921509 -0
vn -0.99999225 0.003921509 -0.00034492963
vn -0.99999225 0.003921509 -0.00034492963
vn -0.99999225 0.003921509 -0.00034492963
vn -0.99999225 0.003921509 -0.00034492963
vn 0.1999985 0.9764631 -0.0807493
vn 0.1999985 0.9764631 -0.0807493
vn -0.011764526 -0.05882311 0.9981991
vn 0.0274508 0.12941074 0.99121106
vn -0.02745068 -0.1294108 -0.99121106
vn 0.011764646 0.05882299 -0.9981991
vn -0.19999838 -0.97646314 0.08074894
vn -0.02745068 -0.1294108 -0.99121106
vn 0.011764646 0.05882299 -0.9981991
vn -0.19999838 -0.97646314 0.08074894
vn 0.9999924 0.003921509 -0
vn 0.9999924 0.003921509 -0
vn 0.9999924 0.003921509 -0
vn 0.9999924 0.003921509 -0
vn -0.003921509 0.019607663 0.9998001
vn -0.003921509 -0.9999924 -0
vn -0.003921509 -0.9999924 -0
vn -0.003921509 0.019607663 0.9998001
vn -0.003921509 0.99999225 -0.00034526698
vn -0.003921509 0.99999225 -0.00034526698
vn -0.003921509 -0.019607723 -0.9998001
vn -0.003921509 -0.019607723 -0.9998001
vn -0.003921509 -0.9999924 -0
vn -0.003921509 -0.9999924 -0
g SixWheelsShassis_12_0
f 3/3/3 2/2/2 1/1/1
f 4/4/4 3/3/3 1/1/1
f 7/7/7 6/6/6 5/5/5
f 8/8/8 7/7/7 5/5/5
f 11/11/11 10/10/10 9/9/9
f 12/12/12 11/11/11 9/9/9
f 15/15/15 14/14/14 13/13/13
f 16/16/16 15/15/15 13/13/13
f 19/19/19 18/18/18 17/17/17
f 20/20/20 19/19/19 17/17/17
f 23/23/23 22/22/22 21/21/21
f 24/24/24 23/23/23 21/21/21
f 27/27/27 26/26/26 25/25/25
f 28/28/28 27/27/27 25/25/25
f 25/25/25 26/26/26 29/29/29
f 30/30/30 25/25/25 29/29/29
f 33/33/33 32/32/32 31/31/31
f 34/34/34 33/33/33 31/31/31
f 34/34/34 31/31/31 27/27/27
f 28/28/28 34/34/34 27/27/27
f 37/37/37 36/36/36 35/35/35
f 38/38/38 37/37/37 35/35/35
f 41/41/41 40/40/40 39/39/39
f 42/42/42 41/41/41 39/39/39
f 42/42/42 39/39/39 43/43/43
f 44/44/44 42/42/42 43/43/43
f 44/44/44 43/43/43 45/45/45
f 46/46/46 44/44/44 45/45/45
f 46/46/46 45/45/45 47/47/47
f 48/48/48 46/46/46 47/47/47
