g SixWheelsShassis_10_CorpsePart
v -0.16597456 -5.954504E-05 0.35442787
v -0.16601789 0.15374792 0.3193276
v 0.16568248 0.15386689 0.31944656
v 0.16572577 5.9485435E-05 0.3545469
v -0.16601789 0.27708596 0.22096223
v 0.16567166 0.277205 0.22108126
v -0.16601789 0.27708596 0.22096223
v -0.16599625 0.34554464 0.078829676
v 0.16570412 0.34566367 0.07893786
v 0.16567166 0.277205 0.22108126
v -0.16594213 0.34554464 -0.07893792
v 0.16575822 0.34566367 -0.07881889
v -0.16586637 0.2770968 -0.22107047
v 0.16582315 0.27721584 -0.22096227
v -0.16579062 0.15374792 -0.3194358
v 0.16589889 0.15386689 -0.3193276
v -0.16572571 -5.954504E-05 -0.35454696
v 0.16597463 5.9485435E-05 -0.35442793
v -0.16568244 -0.15386696 -0.31944662
v 0.1660179 -0.15374793 -0.3193276
v -0.16567165 -0.27720505 -0.22108129
v 0.1660179 -0.27708602 -0.22096227
v -0.16567165 -0.27720505 -0.22108129
v -0.16570407 -0.34566367 -0.07893792
v 0.16599627 -0.34554467 -0.078829706
v 0.1660179 -0.27708602 -0.22096227
v -0.16575819 -0.34566367 0.07881886
v 0.16594216 -0.34554467 0.07893786
v -0.1658231 -0.27721587 0.22096223
v 0.16586642 -0.27709684 0.22107041
v 0.16568248 0.15386689 0.31944656
v 0.16586642 -0.27709684 0.22107041
v 0.16579068 -0.15374793 0.31943578
v 0.16572577 5.9485435E-05 0.3545469
v -0.16590965 -0.15386696 0.3193276
v 0.16579068 -0.15374793 0.31943578
v -0.16601789 0.15374792 0.3193276
v -0.16597456 -5.954504E-05 0.35442787
v -0.16590965 -0.15386696 0.3193276
v -0.16601789 0.27708596 0.22096223
v -0.16570407 -0.34566367 -0.07893792
v -0.16586637 0.2770968 -0.22107047
v -0.16594213 0.34554464 -0.07893792
v -0.16575819 -0.34566367 0.07881886
v -0.16567165 -0.27720505 -0.22108129
v -0.16579062 0.15374792 -0.3194358
v -0.16599625 0.34554464 0.078829676
v -0.1658231 -0.27721587 0.22096223
v 0.16582315 0.27721584 -0.22096227
v 0.16589889 0.15386689 -0.3193276
v 0.16597463 5.9485435E-05 -0.35442793
v 0.1660179 -0.15374793 -0.3193276
v 0.1660179 -0.27708602 -0.22096227
v 0.16575822 0.34566367 -0.07881889
v 0.16599627 -0.34554467 -0.078829706
v 0.16570412 0.34566367 0.07893786
v 0.16594216 -0.34554467 0.07893786
v 0.16567166 0.277205 0.22108126
v -0.16568244 -0.15386696 -0.31944662
v -0.16572571 -5.954504E-05 -0.35454696
vt 0.45403194 0.0845298
vt 0.45403194 0.08887689
vt 0.4370388 0.08887689
vt 0.4370388 0.0845298
vt 0.45403194 0.09322397
vt 0.4370388 0.09322397
vt 0.45403194 0.06279438
vt 0.45403194 0.067141466
vt 0.4370388 0.067141466
vt 0.4370388 0.06279438
vt 0.45403194 0.071488544
vt 0.4370388 0.071488544
vt 0.45403194 0.07583563
vt 0.4370388 0.07583563
vt 0.45403194 0.080182716
vt 0.4370388 0.080182716
vt 0.45403194 0.0845298
vt 0.4370388 0.0845298
vt 0.45403194 0.08887689
vt 0.4370388 0.08887689
vt 0.45403194 0.09322397
vt 0.4370388 0.09322397
vt 0.45403194 0.06279438
vt 0.45403194 0.067141466
vt 0.4370388 0.067141466
vt 0.4370388 0.06279438
vt 0.45403194 0.071488544
vt 0.4370388 0.071488544
vt 0.45403194 0.07583563
vt 0.4370388 0.07583563
vt 0.46391168 0.07662601
vt 0.45640308 0.074650064
vt 0.45837903 0.07662601
vt 0.46114537 0.0770212
vt 0.45403194 0.080182716
vt 0.4370388 0.080182716
vt 0.45837903 0.09085283
vt 0.46114537 0.09124802
vt 0.46391168 0.09085283
vt 0.45640308 0.08887689
vt 0.4670732 0.08373942
vt 0.45640308 0.08136828
vt 0.4552175 0.08373942
vt 0.4670732 0.08650575
vt 0.46588764 0.08136828
vt 0.45837903 0.07978752
vt 0.4552175 0.08650575
vt 0.46588764 0.08887689
vt 0.46588764 0.067141466
vt 0.46391168 0.065560706
vt 0.46114537 0.064770326
vt 0.45837903 0.065560706
vt 0.45640308 0.067141466
vt 0.4670732 0.0695126
vt 0.4552175 0.0695126
vt 0.4670732 0.072278924
vt 0.4552175 0.072278924
vt 0.46588764 0.074650064
vt 0.46391168 0.07978752
vt 0.46114537 0.07899715
vn -0.003921509 0.003921509 0.9999846
vn -0.003921509 0.4352907 0.9002814
vn -0.003921509 0.4352907 0.9002814
vn -0.003921509 0.003921509 0.9999846
vn -0.003921509 0.7803861 0.6252857
vn -0.003921509 0.7803861 0.6252857
vn -0.003921509 0.7803861 0.6252857
vn -0.003921509 0.9764631 0.21564901
vn -0.003921509 0.9764631 0.21564901
vn -0.003921509 0.7803861 0.6252857
vn -0.003921509 0.9764631 -0.21564901
vn -0.003921509 0.9764631 -0.21564901
vn -0.003921509 0.7803861 -0.6252857
vn -0.003921509 0.7803861 -0.6252857
vn 0.0039215684 0.4352907 -0.9002814
vn 0.0039215684 0.4352907 -0.9002814
vn 0.0039215684 0.003921509 -0.9999846
vn 0.0039215684 0.003921509 -0.9999846
vn 0.0039215684 -0.4352908 -0.90028137
vn 0.0039215684 -0.4352908 -0.90028137
vn 0.0039215684 -0.7803862 -0.6252855
vn 0.0039215684 -0.7803862 -0.6252855
vn 0.0039215684 -0.7803862 -0.6252855
vn 0.0039215684 -0.97646314 -0.21564874
vn 0.0039215684 -0.97646314 -0.21564874
vn 0.0039215684 -0.7803862 -0.6252855
vn 0.0039215684 -0.97646314 0.21564874
vn 0.0039215684 -0.97646314 0.21564874
vn 0.0039215684 -0.7803862 0.6252855
vn 0.0039215684 -0.7803862 0.6252855
vn 0.9999924 0.003921509 -0
vn 0.9999924 0.003921509 -0
vn 0.9999924 0.003921509 -0
vn 0.9999924 0.003921509 -0
vn -0.003921509 -0.4352908 0.90028137
vn -0.003921509 -0.4352908 0.90028137
vn -0.99999225 -0.0039215684 -0.00034425134
vn -0.99999225 -0.0039215684 -0.00034425134
vn -0.99999225 -0.0039215684 -0.00034425134
vn -0.99999225 -0.0039215684 -0.00034425134
vn -0.99999225 -0.0039215684 -0.00034425134
vn -0.99999225 -0.0039215684 -0.00034425134
vn -0.99999225 -0.0039215684 -0.00034425134
vn -0.99999225 -0.0039215684 -0.00034425134
vn -0.99999225 -0.0039215684 -0.00034425134
vn -0.99999225 -0.0039215684 -0.00034425134
vn -0.99999225 -0.0039215684 -0.00034425134
vn -0.99999225 -0.0039215684 -0.00034425134
vn 0.9999924 0.003921509 -0
vn 0.9999924 0.003921509 -0
vn 0.9999924 0.003921509 -0
vn 0.9999924 0.003921509 -0
vn 0.9999924 0.003921509 -0
vn 0.9999924 0.003921509 -0
vn 0.9999924 0.003921509 -0
vn 0.9999924 0.003921509 -0
vn 0.9999924 0.003921509 -0
vn 0.9999924 0.003921509 -0
vn -0.99999225 -0.0039215684 -0.00034425134
vn -0.99999225 -0.0039215684 -0.00034425134
g SixWheelsShassis_10_CorpsePart_0
f 3/3/3 2/2/2 1/1/1
f 4/4/4 3/3/3 1/1/1
f 6/6/6 5/5/5 2/2/2
f 3/3/3 6/6/6 2/2/2
f 9/9/9 8/8/8 7/7/7
f 10/10/10 9/9/9 7/7/7
f 12/12/12 11/11/11 8/8/8
f 9/9/9 12/12/12 8/8/8
f 14/14/14 13/13/13 11/11/11
f 12/12/12 14/14/14 11/11/11
f 16/16/16 15/15/15 13/13/13
f 14/14/14 16/16/16 13/13/13
f 18/18/18 17/17/17 15/15/15
f 16/16/16 18/18/18 15/15/15
f 20/20/20 19/19/19 17/17/17
f 18/18/18 20/20/20 17/17/17
f 22/22/22 21/21/21 19/19/19
f 20/20/20 22/22/22 19/19/19
f 25/25/25 24/24/24 23/23/23
f 26/26/26 25/25/25 23/23/23
f 28/28/28 27/27/27 24/24/24
f 25/25/25 28/28/28 24/24/24
f 30/30/30 29/29/29 27/27/27
f 28/28/28 30/30/30 27/27/27
f 33/33/33 32/32/32 31/31/31
f 34/34/34 33/33/33 31/31/31
f 36/36/36 35/35/35 29/29/29
f 30/30/30 36/36/36 29/29/29
f 4/4/4 1/1/1 35/35/35
f 36/36/36 4/4/4 35/35/35
f 39/39/39 38/38/38 37/37/37
f 40/40/40 39/39/39 37/37/37
f 43/43/43 42/42/42 41/41/41
f 44/44/44 43/43/43 41/41/41
f 46/46/46 45/45/45 41/41/41
f 42/42/42 46/46/46 41/41/41
f 44/44/44 48/48/48 47/47/47
f 43/43/43 44/44/44 47/47/47
f 39/39/39 40/40/40 47/47/47
f 48/48/48 39/39/39 47/47/47
f 51/51/51 50/50/50 49/49/49
f 52/52/52 51/51/51 49/49/49
f 53/53/53 52/52/52 49/49/49
f 54/54/54 53/53/53 49/49/49
f 55/55/55 53/53/53 54/54/54
f 56/56/56 55/55/55 54/54/54
f 57/57/57 55/55/55 56/56/56
f 58/58/58 57/57/57 56/56/56
f 32/32/32 57/57/57 58/58/58
f 31/31/31 32/32/32 58/58/58
f 59/59/59 45/45/45 46/46/46
f 60/60/60 59/59/59 46/46/46
