g SixWheelsShassis_CustomizePart
v 0.7605438 65.77986 13.256691
v 0.7605438 66.05463 13.188866
v 0.7605438 66.07738 13.085667
v 0.7605438 65.795044 13.545105
v 0.4633751 65.91601 11.656387
v 0.70874786 65.91104 11.715324
v 0.7605438 65.91694 11.657791
v 0.70838165 65.925354 11.83548
v 0.7605438 65.93474 11.83548
v 0.7605438 65.84971 12.97467
v 0.7605438 66.07738 12.974415
v 0.7605438 66.07738 12.974415
v -0.21901703 66.07738 13.085667
v -0.21901703 66.07738 12.974415
v 0.7605438 66.07738 13.085667
v 0.7092056 65.48499 13.457031
v -0.16767883 65.57216 13.509979
v 0.7092056 65.57216 13.509979
v -0.16767883 65.48499 13.457031
v -0.21901703 66.05463 13.188866
v 0.7605438 66.05463 13.188866
v 0.7605438 65.795044 13.545105
v -0.21901703 65.795044 13.545105
v 0.7605438 65.84971 12.97467
v 0.7092056 65.77986 13.256691
v 0.7605438 65.77986 13.256691
v 0.70941925 65.512924 11.730812
v 0.6065903 65.82938 11.83548
v 0.70838165 65.925354 11.83548
v 0.6041069 65.51301 11.761608
v 0.07815361 65.91601 11.656387
v -0.16721725 65.91104 11.715324
v 0.7092056 65.48499 13.457031
v -0.062202454 65.48499 13.360046
v -0.16767883 65.48499 13.457031
v 0.60373306 65.48499 13.360046
v 0.7605438 65.93627 12.32995
v 0.6065903 65.801025 12.662182
v 0.7605438 65.90195 12.662184
v 0.6065903 65.83458 12.32995
v 0.7605438 66.07738 12.331719
v -0.21901703 66.07738 12.6615715
v -0.21901703 66.07738 12.331719
v 0.7605438 66.07738 12.66157
v 0.7605438 65.93627 12.32995
v 0.7605438 66.07738 12.66157
v 0.7605438 66.07738 12.331719
v 0.7605438 65.90195 12.662184
v 0.7605438 65.93474 11.83548
v 0.7605438 66.07738 12.041412
v 0.7605438 66.07738 11.835636
v 0.7605438 65.947495 12.041241
v 0.7605438 65.947495 12.041241
v 0.6065903 65.82938 11.83548
v 0.6065903 65.84502 12.041241
v 0.7092056 65.77986 13.256691
v 0.60373306 65.48499 13.360046
v 0.7092056 65.48499 13.360046
v 0.6065903 65.67419 13.256691
v 0.70923233 65.65729 13.54184
v -0.16770172 65.65729 13.54184
v -0.16793823 65.76096 13.59124
v 0.709465 65.76096 13.59124
v 0.7605438 66.07738 12.041412
v -0.21901703 66.07738 12.041412
v 0.6065903 65.74637 12.974678
v 0.7092056 65.77986 13.256691
v 0.7092056 65.57216 13.509979
v 0.70923233 65.65729 13.54184
v 0.7605438 65.65729 13.54184
v 0.70923233 65.65729 13.54184
v 0.7605438 65.65729 13.54184
v 0.7092056 65.48499 13.360046
v 0.73487854 65.76561 13.585388
v 0.709465 65.76096 13.59124
v -0.16770172 65.65736 13.591705
v -0.16793823 65.76096 13.59124
v 0.70923233 65.657364 13.591705
v 0.73487854 65.65735 13.585854
v 0.73487854 65.76561 13.585388
v 0.73487854 65.65735 13.585854
v 0.70923233 65.657364 13.591705
v -0.16770172 65.65729 13.54184
v -0.16770172 65.65736 13.591705
v 0.73487854 65.76561 13.585388
v 0.73487854 65.65735 13.585854
v 0.7605438 65.91694 11.657791
v 0.4633751 65.91601 11.656387
v 0.07815361 66.07738 11.770412
v 0.07815361 65.91601 11.656387
v 0.4633751 66.07738 11.770412
v 0.76075745 65.90734 11.558678
v 0.76075745 66.07774 11.528908
v 0.7099457 65.5124 11.617981
v 0.70838165 65.925354 11.83548
v 0.70874786 65.91104 11.715324
v 0.70941925 65.512924 11.730812
v 0.6041069 65.51301 11.761608
v 0.70941925 65.512924 11.730812
v 0.7099457 65.5124 11.617981
v 0.70874786 65.91104 11.715324
v -0.16841507 65.5124 11.617981
v 0.7099457 65.5124 11.617981
v -0.16721725 65.91104 11.715324
v -0.16841507 65.5124 11.617981
v -0.06258011 65.51301 11.761608
v 0.4635868 65.90641 11.557274
v 0.76075745 65.90734 11.558678
v 0.4633751 65.91601 11.656387
v 0.4635868 66.07774 11.528908
v 0.4633751 66.07738 11.770412
v 0.4635868 65.90641 11.557274
v 0.4633751 66.07738 11.770412
v 0.76075745 66.07774 11.528908
v 0.7605438 66.07738 11.835636
v 0.4635868 66.07774 11.528908
v -0.21901703 65.77986 13.256691
v -0.21901703 66.05463 13.188866
v -0.21901703 65.795044 13.545105
v -0.21901703 66.07738 13.085667
v -0.21901703 65.91694 11.657791
v -0.16685104 65.925354 11.83548
v -0.21901703 65.93474 11.83548
v -0.21901703 65.84971 12.974674
v -0.21901703 66.07738 12.974415
v -0.21901703 65.84971 12.974674
v -0.06506348 65.67419 13.256691
v -0.06506348 65.74637 12.974678
v -0.16767883 65.77986 13.256691
v -0.16788864 65.512924 11.730812
v -0.06506348 65.82938 11.83548
v -0.06258011 65.51301 11.761608
v -0.16685104 65.925354 11.83548
v -0.21901703 65.93627 12.329949
v -0.06506348 65.801025 12.662182
v -0.06506348 65.83458 12.32995
v -0.21901703 65.90195 12.662182
v -0.21901703 65.93627 12.329949
v -0.21901703 66.07738 12.6615715
v -0.21901703 65.90195 12.662182
v -0.21901703 66.07738 12.331719
v -0.21901703 65.93474 11.83548
v -0.21901703 66.07738 12.041412
v -0.21901703 65.947495 12.041241
v -0.21901703 66.07738 11.835636
v -0.21901703 65.947495 12.041241
v -0.16767883 65.77986 13.256691
v -0.062202454 65.48499 13.360046
v -0.06506348 65.67419 13.256691
v -0.16767883 65.48499 13.360046
v -0.06506348 65.84502 12.041241
v -0.16767883 65.48499 13.360046
v -0.16767883 65.57216 13.509979
v -0.16767883 65.48499 13.457031
v -0.16767883 65.77986 13.256691
v -0.21901703 65.65729 13.54184
v -0.21901703 65.77986 13.256691
v -0.21901703 65.65729 13.54184
v -0.16767883 65.48499 13.360046
v -0.19334793 65.76561 13.585388
v -0.19334793 65.65735 13.585854
v -0.19334793 65.76561 13.585388
v -0.19334793 65.65735 13.585854
v -0.19334793 65.76561 13.585388
v -0.19334793 65.65735 13.585854
v -0.21901703 65.91694 11.657791
v -0.21922684 65.90734 11.558678
v -0.21922684 66.07774 11.528908
v -0.16841507 65.5124 11.617981
v -0.16685104 65.925354 11.83548
v -0.16788864 65.512924 11.730812
v -0.16721725 65.91104 11.715324
v -0.16788864 65.512924 11.730812
v 0.077941895 65.90641 11.557274
v -0.21922684 65.90734 11.558678
v 0.07815361 65.91601 11.656387
v 0.077941895 66.07774 11.528908
v 0.077941895 65.90641 11.557274
v 0.07815361 66.07738 11.770412
v 0.07815361 66.07738 11.770412
v -0.21922684 66.07774 11.528908
v 0.077941895 66.07774 11.528908
v -0.21901703 66.07738 11.835636
v -0.16770172 65.65729 13.54184
v 0.7092056 65.48499 13.360046
v 0.7092056 65.48499 13.457031
v 0.6065903 65.67419 13.256691
v -0.06506348 65.82938 11.83548
vt 0.41104367 0.5277272
vt 0.49295363 0.5452627
vt 0.49973777 0.571942
vt 0.4155694 0.4531641
vt 0.9382363 0.6753308
vt 0.9266463 0.7209762
vt 0.9379596 0.7306122
vt 0.89445394 0.7209083
vt 0.89445394 0.7306122
vt 0.4318669 0.6006385
vt 0.49973777 0.60070485
vt 0.2917379 0.5861273
vt 0.033328414 0.553427
vt 0.033328414 0.5861275
vt 0.29173785 0.553427
vt 0.2782951 0.30896991
vt 0.046971858 0.33169413
vt 0.2782951 0.33169413
vt 0.046971858 0.30896991
vt 0.033328414 0.5247054
vt 0.29173785 0.5247053
vt 0.29173785 0.41016048
vt 0.033328354 0.4101606
vt 0.67045534 0.7306122
vt 0.61500216 0.72106177
vt 0.61500216 0.7306119
vt 0.334571 0.8846788
vt 0.39543116 0.8621442
vt 0.4138903 0.8844513
vt 0.3345873 0.8615993
vt 0.9382363 0.6036692
vt 0.9266463 0.55802375
vt 0.58158165 0.71690106
vt 0.5995724 0.5814954
vt 0.58158165 0.5629844
vt 0.5995724 0.69839036
vt 0.7972265 0.7306122
vt 0.73190033 0.7019728
vt 0.73190033 0.7306122
vt 0.7972265 0.7019728
vt 0.2917379 0.7566606
vt 0.033328414 0.6694716
vt 0.033328414 0.7566606
vt 0.2917379 0.6694716
vt 0.45767176 0.7673201
vt 0.49973783 0.6815854
vt 0.4997379 0.7668626
vt 0.4474374 0.6814278
vt 0.45721397 0.89515746
vt 0.4997379 0.84191644
vt 0.4997379 0.8951167
vt 0.46101582 0.8419608
vt 0.8539948 0.7306122
vt 0.89445394 0.7019728
vt 0.8539948 0.7019728
vt 0.381485 0.5379908
vt 0.32477576 0.56110656
vt 0.32477576 0.5379908
vt 0.36116177 0.5604795
vt 0.27830136 0.35388613
vt 0.04696566 0.35388613
vt 0.046802968 0.3996197
vt 0.27826327 0.39912897
vt 0.2917379 0.83350766
vt 0.033328414 0.83350766
vt 0.67045534 0.7019728
vt 0.41104367 0.5277272
vt 0.34912556 0.46224517
vt 0.37450275 0.45400676
vt 0.37450156 0.45400676
vt 0.5589336 0.7210663
vt 0.5589339 0.7306119
vt 0.5995724 0.71690106
vt 0.28496683 0.40092438
vt 0.27826327 0.39912897
vt 0.046865195 0.3725744
vt 0.046802968 0.3996197
vt 0.27820104 0.3725744
vt 0.28496683 0.37257326
vt 0.28496683 0.40092438
vt 0.55028 0.72583735
vt 0.549129 0.7210663
vt 0.5589336 0.55793375
vt 0.549129 0.55793375
vt 0.40679488 0.44275075
vt 0.37452295 0.4426288
vt 0.45190758 0.94109464
vt 0.37314415 0.36432123
vt 0.4875834 0.40639067
vt 0.4875834 0.36432123
vt 0.37314415 0.40639067
vt 0.44904575 0.9667184
vt 0.49984422 0.97441465
vt 0.31481197 0.9623852
vt 0.4379195 0.9061563
vt 0.43365124 0.9372188
vt 0.3149683 0.93321645
vt 0.89607996 0.69841504
vt 0.9017939 0.71689695
vt 0.9227223 0.71700484
vt 0.70908666 0.4210132
vt 0.96806955 0.30670175
vt 0.7071316 0.30670175
vt 0.96771336 0.42101768
vt 0.9227223 0.56285506
vt 0.89607996 0.5814295
vt 0.95772475 0.6753702
vt 0.95744795 0.7306517
vt 0.3460517 0.36432123
vt 0.31723213 0.40648377
vt 0.37183022 0.40639067
vt 0.32364416 0.36181867
vt 0.21334428 0.9087943
vt 0.29179376 0.97320426
vt 0.29173797 0.8898424
vt 0.21340013 0.9732045
vt 0.41104367 0.5278146
vt 0.49295363 0.5453504
vt 0.4155694 0.45325154
vt 0.49973777 0.57202965
vt 0.9379596 0.5483875
vt 0.89445394 0.55809206
vt 0.89445394 0.5483875
vt 0.4318669 0.60072577
vt 0.49973777 0.6007925
vt 0.67045534 0.5483875
vt 0.61500216 0.57702714
vt 0.67045534 0.57702714
vt 0.61500216 0.55793774
vt 0.334571 0.8845058
vt 0.39543116 0.86197066
vt 0.3345873 0.86142606
vt 0.4138903 0.88427836
vt 0.7972266 0.5483875
vt 0.73190033 0.57702714
vt 0.7972266 0.57702714
vt 0.73190033 0.5483875
vt 0.45767176 0.7674081
vt 0.49973783 0.68167317
vt 0.4474374 0.6815152
vt 0.4997379 0.76695025
vt 0.45721397 0.8952449
vt 0.4997379 0.8420041
vt 0.46101582 0.8420482
vt 0.4997379 0.89520425
vt 0.85399514 0.5483875
vt 0.381485 0.5378172
vt 0.32477576 0.56093293
vt 0.36116177 0.5603061
vt 0.32477576 0.5378172
vt 0.85399514 0.57702726
vt 0.32313955 0.50109506
vt 0.34912556 0.46233302
vt 0.32313955 0.47602046
vt 0.41104367 0.5278146
vt 0.37450156 0.4540947
vt 0.61500216 0.5483875
vt 0.5589339 0.5483875
vt 0.5995724 0.5629844
vt 0.040099382 0.40092438
vt 0.040099382 0.37257326
vt 0.040099382 0.40092438
vt 0.55028 0.5531624
vt 0.40679488 0.4428382
vt 0.37452295 0.44271624
vt 0.45190758 0.94118255
vt 0.44904575 0.9668061
vt 0.49984422 0.97450227
vt 0.31481197 0.96247315
vt 0.4379195 0.90624374
vt 0.3149683 0.9333039
vt 0.43365124 0.9373061
vt 0.9017939 0.56294763
vt 0.95772475 0.6036297
vt 0.95744795 0.548348
vt 0.34622645 0.36432123
vt 0.31740713 0.40648377
vt 0.32381868 0.36181867
vt 0.37200522 0.40639067
vt 0.11172217 0.9087943
vt 0.033272624 0.9732045
vt 0.11166632 0.9732045
vt 0.033328414 0.8898424
vt 0.37450275 0.4540947
vt 0.32313955 0.5010071
vt 0.32313955 0.47593302
vt 0.61500216 0.7019728
vt 0.89445394 0.57702726
vn 1 0 0
vn 1 0 0
vn 1 0 0
vn 0.9995315 -0.00072529906 0.030599918
vn 0.0011893979 -0.99992144 -0.012481145
vn 0.064701885 -0.99704784 -0.041342795
vn 0.020628398 -0.99827397 0.054987565
vn 0.5282159 -0.84839 -0.034961946
vn 0.17652069 -0.9811974 0.07805202
vn 1 0 0
vn 1 0 0
vn -0 1 0
vn -0 0.994416 0.1055308
vn -0 1 0
vn -0 0.9944231 0.10546426
vn -0 -0.5192084 0.8546477
vn -0 -0.4416054 0.8972094
vn -0 -0.44163248 0.89719605
vn -0 -0.51910317 0.8547116
vn -0 0.85198253 0.52357024
vn -0 0.8519851 0.52356595
vn -0 0.80796415 0.5892316
vn -0 0.8079463 0.5892559
vn 0.5609779 -0.8139103 -0.15117466
vn 0.49019817 -0.85681474 -0.15991963
vn -0 -0.94697964 -0.32129353
vn 0.26199642 -0.22525072 0.9384135
vn 0.23094597 -0.23706253 0.9436447
vn 0.22544439 -0.23911726 0.9444563
vn 0.2735951 -0.22074346 0.93617207
vn -0.0006993841 -0.99910766 -0.042230148
vn -0.06042375 -0.99719363 -0.044201586
vn -0 -1 -7.9915204E-05
vn -0 -1 0
vn -0 -1 0
vn -0 -1 -0.00011259918
vn 0.5496786 -0.83323514 -0.059771106
vn 0.5450181 -0.8304025 -0.11570256
vn 0.5462113 -0.8301034 -0.11216801
vn 0.5506412 -0.8325641 -0.060259476
vn -0 1 0
vn -0 1 0
vn -0 1 0
vn -0 1 0
vn 1 0 0
vn 1 0 0
vn 1 0 0
vn 1 0 0
vn 1 0 0
vn 1 0 0
vn 1 -3.492218E-05 0.00026704627
vn 1 0 0
vn 0.5618184 -0.8271455 -0.0137970075
vn 0.61766124 -0.78637105 -0.01072826
vn 0.55408823 -0.8324085 0.009071282
vn 0.25133967 -0.39900577 -0.88182926
vn 0.07857276 -0.35467073 -0.9316839
vn -0 -0.33077544 -0.9437095
vn 0.44700912 -0.43407196 -0.7821537
vn -0 -0.35049677 0.9365639
vn -0 -0.3505423 0.93654686
vn 6.4471744E-05 0.8042904 0.59423655
vn -7.174479E-05 0.804401 0.5940868
vn -0 1 0
vn -0 1 0
vn 0.5472469 -0.818469 -0.1750123
vn 1 -5.132286E-05 -4.208096E-05
vn 1 -8.0775884E-05 -6.637211E-05
vn 1 -0.00023901383 -0.00019681791
vn 0.9964791 -0.00038731046 0.08384091
vn -0 -0.9947226 -0.1026016
vn -0 -0.93172497 -0.36316466
vn -0 -1 0
vn -0.013900967 0.81166965 0.5839514
vn 0.007459884 0.0044846 0.9999621
vn -0.006462004 0.004477109 0.9999691
vn -0.007456048 0.0044840095 0.9999622
vn 0.0064649824 0.0044779135 0.9999691
vn 0.7019475 0.002968194 0.71222246
vn 0.75005746 -0.007177393 0.6613337
vn -9.952151E-05 -0.99999905 0.0014205764
vn -0 -0.9999988 0.0015683022
vn -0 -0.9947221 -0.10260621
vn -0 -0.9999988 0.0015591837
vn 0.75005746 -0.007177393 0.6613337
vn 0.7019475 0.002968194 0.71222246
vn 0.9999969 -0.0018431913 0.0016626166
vn -0 0.5770618 -0.81670064
vn -0 0.57708037 -0.81668735
vn -0 0.5770946 -0.81667733
vn -0 0.57704747 -0.81671065
vn 0.99999964 -0.00014070774 0.0008575667
vn 0.99999976 0.00012147603 0.0006966336
vn 0.9999896 0.0015170594 0.0043097255
vn 0.99999285 0.002132869 0.0031407636
vn 0.99999344 0.0023280666 0.0027702264
vn 0.9999883 0.0013330048 0.0046591046
vn 1.5659045E-05 -0.99999106 0.0042443997
vn 0.0005682229 -0.99998903 0.0046613105
vn 3.3861066E-05 -0.99999094 0.004258766
vn -0 0.23722124 -0.97145563
vn -0 0.23721872 -0.97145635
vn -0 0.23722282 -0.9714552
vn -0 0.2372171 -0.97145665
vn -4.1398747E-05 -0.99999094 0.0042629973
vn -2.0056028E-05 -0.99999106 0.0042411485
vn 0.002662233 -0.9953465 0.09632389
vn 0.0026617937 -0.9953367 0.096424796
vn -0.9999993 0.00037090795 -0.0011902086
vn -0.9999993 0.0004273234 -0.0011186348
vn -0.9999994 0.0006187586 -0.000875763
vn -0.99999774 -0.0003480515 -0.0021023434
vn -6.523907E-05 0.9999999 0.0005904504
vn -0.00016327163 0.99999917 0.0013109872
vn -7.130922E-05 1 0.00031889233
vn -0 0.9999988 0.001541438
vn -1 0 0
vn -1 0 0
vn -0.99953127 -0.0007255662 0.030604342
vn -1 0 0
vn -0.020629577 -0.9982766 0.054938532
vn -0.4918243 -0.87028533 0.026690368
vn -0.17650822 -0.98120004 0.07804653
vn -1 0 0
vn -1 0 0
vn -0.56097883 -0.81391 -0.15117349
vn -0.6478963 -0.75300336 -0.11496275
vn -0.5472522 -0.81846595 -0.17501016
vn -0.49019495 -0.8568162 -0.15992199
vn -0.26200473 -0.22524926 0.93841153
vn -0.23095518 -0.23706342 0.94364226
vn -0.2736024 -0.2207414 0.9361704
vn -0.22545397 -0.23911844 0.9444538
vn -0.54967844 -0.8332353 -0.05977117
vn -0.545018 -0.83040243 -0.11570287
vn -0.55064 -0.83256495 -0.060259677
vn -0.54621124 -0.83010346 -0.1121677
vn -1 0 0
vn -1 0 0
vn -1 0 0
vn -1 0 0
vn -1 0 0
vn -1 0 0
vn -1 0 0
vn -1 -3.4400393E-05 0.0002622794
vn -0.54634804 -0.8367638 -0.03647131
vn -0.25132608 -0.39899936 -0.88183594
vn -0.078567706 -0.3546632 -0.93168724
vn -0.4470091 -0.43407187 -0.7821538
vn -0 -0.33076817 -0.943712
vn -0.57129866 -0.8203574 -0.025129281
vn -1 0 0
vn -1 -6.9456524E-05 -5.6890374E-05
vn -1 0 0
vn -1 -4.403653E-05 -3.6069392E-05
vn -0.9964779 -0.0003879053 0.083854854
vn -0 -0.94697887 -0.3212958
vn -0 -0.93172693 -0.36315957
vn -0 -1 0
vn 0.0139064 0.81182414 0.58373636
vn -0.70188403 0.0029657064 0.71228504
vn -0.75003785 -0.007178661 0.66135585
vn -0 -0.99999917 0.0013324386
vn -0.75003785 -0.007178661 0.66135585
vn -0.70188403 0.0029657064 0.71228504
vn -0.999997 -0.00181018 0.0016329755
vn -0.99999964 -0.00013799175 0.0008422594
vn -0.99999976 0.00011947995 0.00068419374
vn -0.9999896 0.0015173503 0.0043097255
vn -0.99999285 0.0021330607 0.0031407634
vn -0.9999883 0.0013333253 0.0046591046
vn -0.99999344 0.002328227 0.0027702264
vn -0.00056824315 -0.9999887 0.004741848
vn -0.0026622033 -0.99533916 0.09639861
vn -0.0026618438 -0.9953491 0.09629771
vn 0.9999993 0.0003709441 -0.001190208
vn 0.9999993 0.00042736216 -0.0011186342
vn 0.99999774 -0.00034805152 -0.0021023436
vn 0.9999994 0.00061880634 -0.0008757631
vn 9.7907454E-05 0.99999964 0.00088611536
vn 0.00016327201 0.99999917 0.001310987
vn -0 0.9999988 0.0015414482
vn 7.205171E-05 1 0.0003222127
vn -1 -0.00020596437 -0.00016870105
vn 1 0 0
vn 1 0 0
vn 0.64789385 -0.75300556 -0.11496146
vn -0.6849934 -0.72645444 0.055208653
g SixWheelsShassis_CustomizePart_0
f 3/3/3 2/2/2 1/1/1
f 4/4/4 1/1/1 2/2/2
f 7/7/7 6/6/6 5/5/5
f 9/9/9 8/8/8 7/7/7
f 6/6/6 7/7/7 8/8/8
f 11/11/11 3/3/3 10/10/10
f 1/1/1 10/10/10 3/3/3
f 14/14/14 13/13/13 12/12/12
f 15/15/15 12/12/12 13/13/13
f 18/18/18 17/17/17 16/16/16
f 19/19/19 16/16/16 17/17/17
f 13/13/13 20/20/20 15/15/15
f 21/21/21 15/15/15 20/20/20
f 21/21/21 20/20/20 22/22/22
f 23/23/23 22/22/22 20/20/20
f 26/26/26 25/25/25 24/24/24
f 29/29/29 28/28/28 27/27/27
f 30/30/30 27/27/27 28/28/28
f 32/32/32 31/31/31 6/6/6
f 5/5/5 6/6/6 31/31/31
f 35/35/35 34/34/34 33/33/33
f 36/36/36 33/33/33 34/34/34
f 39/39/39 38/38/38 37/37/37
f 40/40/40 37/37/37 38/38/38
f 43/43/43 42/42/42 41/41/41
f 44/44/44 41/41/41 42/42/42
f 47/47/47 46/46/46 45/45/45
f 48/48/48 45/45/45 46/46/46
f 51/51/51 50/50/50 49/49/49
f 52/52/52 49/49/49 50/50/50
f 55/55/55 54/54/54 53/53/53
f 8/8/8 53/53/53 54/54/54
f 58/58/58 57/57/57 56/56/56
f 59/59/59 56/56/56 57/57/57
f 61/61/61 17/17/17 60/60/60
f 18/18/18 60/60/60 17/17/17
f 23/23/23 62/62/62 22/22/22
f 63/63/63 22/22/22 62/62/62
f 50/50/50 47/47/47 52/52/52
f 45/45/45 52/52/52 47/47/47
f 65/65/65 43/43/43 64/64/64
f 41/41/41 64/64/64 43/43/43
f 37/37/37 40/40/40 53/53/53
f 55/55/55 53/53/53 40/40/40
f 24/24/24 66/66/66 39/39/39
f 38/38/38 39/39/39 66/66/66
f 42/42/42 14/14/14 44/44/44
f 12/12/12 44/44/44 14/14/14
f 46/46/46 11/11/11 48/48/48
f 10/10/10 48/48/48 11/11/11
f 69/69/69 68/68/68 67/67/67
f 1/1/1 4/4/4 70/70/70
f 72/72/72 71/71/71 26/26/26
f 25/25/25 26/26/26 71/71/71
f 73/73/73 33/33/33 36/36/36
f 63/63/63 74/74/74 22/22/22
f 77/77/77 76/76/76 75/75/75
f 78/78/78 75/75/75 76/76/76
f 78/78/78 79/79/79 75/75/75
f 80/80/80 75/75/75 79/79/79
f 72/72/72 81/81/81 71/71/71
f 82/82/82 71/71/71 81/81/81
f 84/84/84 83/83/83 82/82/82
f 71/71/71 82/82/82 83/83/83
f 4/4/4 85/85/85 70/70/70
f 86/86/86 70/70/70 85/85/85
f 87/87/87 51/51/51 49/49/49
f 90/90/90 89/89/89 88/88/88
f 91/91/91 88/88/88 89/89/89
f 87/87/87 92/92/92 51/51/51
f 93/93/93 51/51/51 92/92/92
f 96/96/96 95/95/95 94/94/94
f 97/97/97 94/94/94 95/95/95
f 100/100/100 99/99/99 98/98/98
f 103/103/103 102/102/102 101/101/101
f 104/104/104 101/101/101 102/102/102
f 106/106/106 105/105/105 98/98/98
f 100/100/100 98/98/98 105/105/105
f 5/5/5 107/107/107 7/7/7
f 108/108/108 7/7/7 107/107/107
f 111/111/111 110/110/110 109/109/109
f 112/112/112 109/109/109 110/110/110
f 115/115/115 114/114/114 113/113/113
f 116/116/116 113/113/113 114/114/114
f 119/119/119 118/118/118 117/117/117
f 120/120/120 117/117/117 118/118/118
f 32/32/32 121/121/121 31/31/31
f 32/32/32 122/122/122 121/121/121
f 123/123/123 121/121/121 122/122/122
f 117/117/117 120/120/120 124/124/124
f 125/125/125 124/124/124 120/120/120
f 128/128/128 127/127/127 126/126/126
f 129/129/129 126/126/126 127/127/127
f 132/132/132 131/131/131 130/130/130
f 133/133/133 130/130/130 131/131/131
f 136/136/136 135/135/135 134/134/134
f 137/137/137 134/134/134 135/135/135
f 140/140/140 139/139/139 138/138/138
f 141/141/141 138/138/138 139/139/139
f 144/144/144 143/143/143 142/142/142
f 145/145/145 142/142/142 143/143/143
f 123/123/123 122/122/122 146/146/146
f 149/149/149 148/148/148 147/147/147
f 150/150/150 147/147/147 148/148/148
f 138/138/138 141/141/141 144/144/144
f 143/143/143 144/144/144 141/141/141
f 151/151/151 136/136/136 146/146/146
f 134/134/134 146/146/146 136/136/136
f 135/135/135 128/128/128 137/137/137
f 126/126/126 137/137/137 128/128/128
f 124/124/124 125/125/125 140/140/140
f 139/139/139 140/140/140 125/125/125
f 154/154/154 153/153/153 152/152/152
f 155/155/155 152/152/152 153/153/153
f 119/119/119 117/117/117 156/156/156
f 129/129/129 83/83/83 157/157/157
f 158/158/158 157/157/157 83/83/83
f 35/35/35 159/159/159 34/34/34
f 160/160/160 62/62/62 23/23/23
f 162/162/162 161/161/161 77/77/77
f 76/76/76 77/77/77 161/161/161
f 84/84/84 163/163/163 83/83/83
f 158/158/158 83/83/83 163/163/163
f 165/165/165 164/164/164 156/156/156
f 119/119/119 156/156/156 164/164/164
f 145/145/145 166/166/166 142/142/142
f 168/168/168 167/167/167 145/145/145
f 166/166/166 145/145/145 167/167/167
f 171/171/171 170/170/170 169/169/169
f 172/172/172 169/169/169 170/170/170
f 173/173/173 105/105/105 106/106/106
f 175/175/175 174/174/174 121/121/121
f 31/31/31 121/121/121 174/174/174
f 178/178/178 177/177/177 176/176/176
f 179/179/179 176/176/176 177/177/177
f 182/182/182 181/181/181 180/180/180
f 183/183/183 180/180/180 181/181/181
f 184/184/184 155/155/155 153/153/153
f 186/186/186 185/185/185 68/68/68
f 67/67/67 68/68/68 185/185/185
f 180/180/180 183/183/183 113/113/113
f 115/115/115 113/113/113 183/183/183
f 65/65/65 64/64/64 183/183/183
f 115/115/115 183/183/183 64/64/64
f 66/66/66 24/24/24 187/187/187
f 25/25/25 187/187/187 24/24/24
f 9/9/9 53/53/53 8/8/8
f 188/188/188 151/151/151 122/122/122
f 146/146/146 122/122/122 151/151/151
f 157/157/157 126/126/126 129/129/129
