g smoke_mesh
v 1.4689732 1.862771 -2.834106
v 0.7358241 -0.03593731 -3.4602299
v 3.4652278 0.9490056 -2.959055
v 0.13779211 2.3272367 -3.1100278
v 0.7358241 -0.03593731 -3.4602299
v 1.4689732 1.862771 -2.834106
v -1.782114 0.42146254 -3.2492814
v -1.0398307 3.5489793 -2.5628374
v 3.4714322 -0.8871417 -3.132088
v -1.782114 0.42146254 -3.2492814
v -1.1911483 -0.90454817 -3.3342469
v 0.7358241 -0.03593731 -3.4602299
v -3.5570798 -0.6661973 -2.6796863
v -3.400247 -2.1423192 -2.3010476
v -5.0797343 -0.62069845 -1.3405771
v 3.4593682 2.25985 -2.0537348
v 2.1621387 3.0515962 -1.5251575
v 2.1621387 3.0515962 -1.5251575
v 0.6191478 3.5865502 -2.3889427
v 0.5465908 4.61906 -1.2795677
v -1.1504755 4.7343583 -1.0762024
v 3.610341 2.9786954 -0.58536816
v 4.7228184 2.005816 -0.8340597
v 4.680077 0.52710915 -2.2383146
v 2.3610232 3.3995576 0.13899136
v 2.3610232 3.3995576 0.13899136
v 1.3448858 4.5135865 -0.31444407
v 1.5408406 4.243179 1.1897697
v -0.24119091 5.150912 0.43680096
v 3.7792377 2.9202704 2.1664405
v -4.6428437 -2.5085492 -0.7022171
v -2.446671 -3.4757407 -0.9974413
v -3.934857 -3.2413538 0.8988538
v -4.9697795 -1.9489498 1.5449696
v -3.4126563 -2.1867838 2.92096
v -0.50091267 -2.6893375 -2.069418
v -0.24980831 -1.6933646 -3.029199
v -0.4816103 -3.2659988 -0.13020897
v -2.0096078 -3.6777272 0.5065999
v -4.0379176 -0.8297515 3.155519
v -5.376165 -1.3174834 0.11693144
v -0.6708436 -3.1081321 1.6378627
v -0.6708436 -3.1081321 1.6378627
v 1.0603471 -4.471714 0.75167274
v -0.4816103 -3.2659988 -0.13020897
v 0.8304405 -3.8102596 2.7805
v 1.4608731 -4.189415 -0.77339506
v -0.8200927 -2.2903624 2.7251773
v 0.3196144 -2.9554358 -1.5791006
v 0.3196144 -2.9554358 -1.5791006
v 3.2742712 -4.2617993 -0.02938795
v 2.6074743 -4.2778273 1.962213
v 0.29617596 -2.6055784 3.7592387
v -0.22792053 -0.91178656 4.138739
v 1.4638028 -1.1151519 4.8088107
v 0.6625781 0.58932495 4.4282756
v -0.790967 0.62965345 3.2640958
v 0.12848568 1.6476865 3.3986964
v 0.12848568 1.6476865 3.3986964
v -0.790967 0.62965345 3.2640958
v -1.1249685 2.4956164 3.316833
v -2.237101 1.7609158 2.9199262
v -0.790967 0.62965345 3.2640958
v -2.6286654 -0.07954025 3.744762
v -2.237101 1.7609158 2.9199262
v 0.36080456 3.5915484 2.931128
v -4.102719 1.2285471 2.6593423
v -3.4505715 2.581616 1.3190274
v -3.4505715 2.581616 1.3190274
v -1.9373956 3.3070092 2.8066964
v -1.1396179 4.61906 1.8450193
v -2.4240937 4.1144385 1.4915433
v -2.900106 4.067906 -0.1109066
v -1.6378627 4.8923974 0.27117872
v -3.4714246 2.5169864 -0.6138048
v -2.480105 3.6160216 -1.6489
v -2.602469 1.8827629 -2.35344
v 0.38441563 4.59183 1.7772884
v -4.3031545 0.67894363 -2.079931
v -2.602469 1.8827629 -2.35344
v -4.2979846 2.109222 -0.54142046
v -3.4714246 2.5169864 -0.6138048
v -4.7736526 1.4365654 1.5665126
v -5.443379 0.5745034 0.11141634
v -5.278274 -0.57623386 1.7971082
v -1.6780186 -2.1454215 3.1410422
v -0.8592148 -0.63000536 3.4083476
v -2.8530564 -3.2625518 1.9129229
v -0.8592148 -0.63000536 3.4083476
v -0.8200927 -2.2903624 2.7251773
v 5.851151 -0.55021 0.5908761
v 5.5448966 -2.1674814 1.4064054
v 5.543518 0.62103605 2.1936707
v 4.8217435 -1.2388949 3.3788762
v 4.5110083 0.29754734 3.762858
v 3.2613454 -1.2640567 4.4801517
v 4.785379 1.958077 2.447188
v 3.54261 1.3040333 4.0239587
v 4.6726665 2.54956 0.6170721
v 5.6122828 1.1625395 0.9057474
v 5.4756145 1.0088091 -0.52073956
v 2.6317747 -0.033869267 4.7788224
v 1.6740618 1.5258393 4.246454
v 2.6614177 2.5962644 3.1948133
v 1.1494484 2.6253905 2.882872
v 2.0635583 3.2947726 1.6218348
v 2.0635583 3.2947726 1.6218348
v 1.1494484 2.6253905 2.882872
v 2.0790691 -2.4134154 4.3476195
v 4.0849752 -2.6345322 3.3731894
v 2.330863 -3.5955195 3.2994266
v 3.736324 -3.6909978 2.3113809
v 4.1470184 -3.8180149 0.7542577
v 4.9889164 -2.5161324 -0.7015276
v 5.544552 -0.8021765 -0.917819
v 4.479986 -1.3950381 -2.2331443
v 3.8354216 -2.8084269 -1.8451991
v 1.9889336 -3.6125815 -1.7062902
v 2.5392263 -2.052356 -2.9087307
v 1.0641384 -1.8739805 -2.7320786
v 1.0641384 -1.8739805 -2.7320786
vt 0.45864272 0.23571374
vt 0.4597836 0.23274744
vt 0.4588709 0.23434468
vt 0.45909905 0.23639826
vt 0.4597836 0.23274744
vt 0.45864272 0.23571374
vt 0.45932725 0.23343197
vt 0.45818636 0.23822369
vt 0.45932725 0.23160654
vt 0.45932725 0.23343197
vt 0.45955545 0.23160654
vt 0.4597836 0.23274744
vt 0.45841455 0.23183472
vt 0.45773 0.22978114
vt 0.45613277 0.2320629
vt 0.45727366 0.23617008
vt 0.45658913 0.23731098
vt 0.45658913 0.23731098
vt 0.4579582 0.23822369
vt 0.45613277 0.23959275
vt 0.45567644 0.23982093
vt 0.45499188 0.23731098
vt 0.45522004 0.23594192
vt 0.45773 0.23366013
vt 0.45362282 0.2379955
vt 0.45362282 0.2379955
vt 0.45430738 0.23959275
vt 0.45179743 0.23913638
vt 0.45316648 0.24050546
vt 0.45020017 0.2370828
vt 0.45499188 0.22932477
vt 0.45567644 0.22772753
vt 0.45225376 0.2281839
vt 0.45134103 0.2300093
vt 0.4488311 0.22978114
vt 0.45750183 0.22886842
vt 0.45909905 0.23046567
vt 0.45407918 0.2281839
vt 0.4529383 0.22749937
vt 0.4486029 0.23160654
vt 0.45362282 0.23092201
vt 0.45111287 0.22841206
vt 0.45111287 0.22841206
vt 0.45271012 0.22635847
vt 0.45407918 0.2281839
vt 0.44905928 0.22727118
vt 0.45522004 0.22681482
vt 0.44928747 0.22955295
vt 0.45658913 0.22864024
vt 0.45658913 0.22864024
vt 0.45385098 0.22658665
vt 0.45042837 0.22658665
vt 0.44746202 0.22909659
vt 0.44677752 0.23160654
vt 0.44563663 0.23137836
vt 0.44632116 0.23388831
vt 0.44837475 0.23388831
vt 0.44814658 0.23525737
vt 0.44814658 0.23525737
vt 0.44837475 0.23388831
vt 0.44814658 0.23662645
vt 0.4488311 0.23548555
vt 0.44837475 0.23388831
vt 0.44746202 0.23274744
vt 0.4488311 0.23548555
vt 0.4488311 0.23822369
vt 0.44928747 0.23480102
vt 0.45156923 0.23662645
vt 0.45156923 0.23662645
vt 0.44905928 0.23776732
vt 0.45065653 0.23959275
vt 0.45134103 0.23890822
vt 0.45407918 0.23890822
vt 0.45339465 0.2400491
vt 0.45499188 0.23662645
vt 0.45658913 0.23822369
vt 0.4579582 0.23571374
vt 0.4508847 0.23959275
vt 0.45750183 0.23388831
vt 0.4579582 0.23571374
vt 0.4547637 0.23594192
vt 0.45499188 0.23662645
vt 0.45111287 0.2350292
vt 0.45362282 0.23366013
vt 0.4508847 0.2320629
vt 0.4486029 0.22978114
vt 0.44814658 0.2320629
vt 0.45065653 0.2281839
vt 0.44814658 0.2320629
vt 0.44928747 0.22955295
vt 0.4529383 0.2320629
vt 0.45156923 0.22978114
vt 0.45020017 0.23388831
vt 0.44814658 0.2311502
vt 0.44746202 0.23343197
vt 0.44632116 0.2311502
vt 0.4497438 0.23571374
vt 0.4470057 0.23480102
vt 0.4529383 0.23662645
vt 0.45225376 0.23457284
vt 0.4547637 0.23434468
vt 0.44563663 0.2329756
vt 0.44654936 0.23525737
vt 0.44837475 0.23662645
vt 0.44905928 0.23685461
vt 0.45111287 0.23776732
vt 0.45111287 0.23776732
vt 0.44905928 0.23685461
vt 0.44654936 0.22932477
vt 0.44814658 0.22909659
vt 0.44814658 0.22772753
vt 0.44997197 0.22749937
vt 0.45248193 0.22727118
vt 0.45499188 0.22932477
vt 0.45544824 0.23183472
vt 0.45773 0.23092201
vt 0.4570455 0.22886842
vt 0.4568173 0.22772753
vt 0.4588709 0.2300093
vt 0.45864272 0.23023748
vt 0.45864272 0.23023748
vn 0.11535549 0.43174398 -0.8945894
vn 0.06064558 0.025327206 -0.99783796
vn 0.29511678 0.29106128 -0.91004914
vn 0.013751328 0.2597984 -0.96556497
vn 0.013751328 0.15037858 -0.98853284
vn 0.37327385 0.33013976 -0.8669916
vn -0.18945706 0.2050885 -0.9602316
vn -0.22071993 0.50990105 -0.8314347
vn 0.3029325 -0.12317121 -0.9450189
vn -0.28324556 0.10348427 -0.95344794
vn -0.13474715 -0.24040681 -0.9612741
vn 0.05282986 -0.19351256 -0.9796744
vn -0.46300685 -0.091908395 -0.88157666
vn -0.37703407 -0.5530351 -0.7429654
vn -0.8459765 -0.08409268 -0.52654743
vn 0.39672095 0.65058374 -0.64757496
vn 0.209144 0.8225293 -0.52887076
vn 0.6233765 0.5802424 -0.5241379
vn 0.3263796 0.5880581 -0.7400433
vn 0.27166963 0.83816075 -0.4729505
vn -0.21290421 0.8694235 -0.44584143
vn 0.39672095 0.89287066 -0.2130598
vn 0.70153356 0.59587383 -0.39087725
vn 0.7327963 0.2050885 -0.64880526
vn 0.25603825 0.963212 -0.08165181
vn 0.77921623 0.6267551 -0
vn 0.5686665 0.8147136 -0.11340273
vn 0.5921136 0.74437225 0.30872545
vn 0.091908395 0.9944749 0.050720178
vn 0.38108957 0.8616079 0.33526492
vn -0.6662152 -0.65463924 -0.35721815
vn -0.13474715 -0.89692616 -0.42114922
vn -0.50990105 -0.850032 0.13208573
vn -0.7756351 -0.52177227 0.3551674
vn -0.3457712 -0.529588 0.774583
vn 0.013751328 -0.8031377 -0.5956347
vn 0.013751328 -0.52177227 -0.85297394
vn 0.21695971 -0.9672676 -0.13161285
vn 0.037198424 -0.9985304 0.039412647
vn -0.5724267 -0.091908395 0.81478864
vn -0.963212 -0.25603825 -0.08165172
vn 0.17788118 -0.89692616 0.40482306
vn -0.60368955 -0.7718749 0.19941941
vn -0.29029816 -0.9569363 -0
vn -0.56461096 -0.8031377 -0.19022158
vn -0.3457712 -0.8265848 0.44407186
vn -0.2050885 -0.89692616 -0.39174247
vn -0.6662152 -0.529588 0.52506566
vn -0.3926654 -0.69371784 -0.6037958
vn -0.009695768 -0.8891105 -0.45758986
vn 0.33419532 -0.9125576 -0.23569499
vn 0.12317121 -0.95945185 0.25353694
vn -0.4395597 -0.529588 0.72548175
vn -0.56461096 -0.11535549 0.8172561
vn -0.1660099 -0.1466183 0.97516346
vn -0.36140263 0.26761413 0.89318013
vn -0.61150527 0.27542984 0.74175453
vn -0.42392826 0.55679524 0.7143276
vn 0.045014143 0.11129999 0.99276686
vn -0.18945706 -0.06064558 0.9800143
vn -0.15037858 0.18945706 0.97030526
vn -0.54897964 0.095668554 0.83034265
vn 0.1466183 0.27542984 0.95007443
vn -0.13474715 0.095668554 0.9862509
vn -0.1660099 0.5333482 0.82944584
vn 0.20132828 0.5333482 0.82158786
vn -0.51771677 0.45519114 0.72441036
vn -0.50990105 0.79126644 0.33748835
vn -0.8459765 0.3926654 0.36074606
vn -0.46300685 0.45519114 0.760543
vn -0.18945706 0.8147136 0.54804
vn -0.65058374 0.65058374 0.3917673
vn -0.7678194 0.6349523 -0.08537525
vn -0.37703407 0.92413354 0.061826415
vn -0.9006864 0.3457712 -0.26307094
vn -0.619321 0.5333482 -0.5761781
vn -0.5411639 0.30669272 -0.78299505
vn 0.25603825 0.83816075 0.48159212
vn -0.642768 0.3535869 -0.67957747
vn -0.44737542 0.47082257 -0.76038235
vn -0.68966234 0.6662152 -0.28376615
vn -0.44737542 0.8459765 -0.29013625
vn -0.79126644 0.5411639 0.28467357
vn -0.9475807 0.30669272 -0.08961258
vn -0.9006864 0.0018800497 0.43446577
vn 0.06846124 -0.52177227 0.85033333
vn 0.17788118 -0.12317121 0.976313
vn -0.11911571 -0.86566335 0.4862494
vn -0.7678194 -0.091908395 0.63403964
vn 0.2638539 -0.59992933 0.75529194
vn 0.9985304 -0.05282986 0.012086531
vn 0.9047419 -0.39672095 0.15509556
vn 0.9203733 0.12693143 0.36986673
vn 0.7875063 -0.18569684 0.5876654
vn 0.66245496 0.15037858 0.7338526
vn 0.39672095 -0.21695971 0.89193106
vn 0.6859021 0.5724267 0.44929498
vn 0.38108957 0.47082257 0.7956738
vn 0.6468236 0.7600037 -0.063353434
vn 0.9264814 0.37634045 -0
vn 0.9047419 0.30669272 -0.295604
vn 0.18569684 0.15037858 0.9710319
vn -0.07222152 0.5411639 0.83781004
vn 0.13098693 0.78345084 0.60749257
vn -0.1660099 0.79126644 0.588505
vn 0.099724114 0.963212 0.24955495
vn 0.66245496 0.55679524 0.5011312
vn 0.4670623 0.33795547 0.81709176
vn 0.05282986 -0.51395655 0.8561879
vn 0.5764822 -0.529588 0.6222579
vn 0.11535549 -0.74842775 0.6531072
vn 0.5452194 -0.74842775 0.3776132
vn 0.63900787 -0.7640592 0.088783644
vn 0.7875063 -0.529588 -0.3152308
vn 0.9203733 -0.13098693 -0.36845002
vn 0.6859021 -0.27166963 -0.67508066
vn 0.45924664 -0.65463924 -0.60044986
vn 0.037198424 -0.74842775 -0.6621723
vn 0.091908395 -0.45924664 -0.8835414
vn -0.19727278 -0.49832517 -0.8442485
vn 0.13098693 -0.529588 -0.8380805
g smoke_mesh_0
f 3/3/3 2/2/2 1/1/1
f 6/6/6 5/5/5 4/4/4
f 4/4/4 5/5/5 7/7/7
f 7/7/7 8/8/8 4/4/4
f 9/9/9 2/2/2 3/3/3
f 12/12/12 11/11/11 10/10/10
f 11/11/11 13/13/13 10/10/10
f 13/13/13 11/11/11 14/14/14
f 15/15/15 13/13/13 14/14/14
f 1/1/1 16/16/16 3/3/3
f 17/17/17 16/16/16 1/1/1
f 19/19/19 18/18/18 6/6/6
f 8/8/8 19/19/19 4/4/4
f 6/6/6 4/4/4 19/19/19
f 8/8/8 20/20/20 19/19/19
f 19/19/19 20/20/20 18/18/18
f 8/8/8 21/21/21 20/20/20
f 17/17/17 22/22/22 16/16/16
f 16/16/16 22/22/22 23/23/23
f 24/24/24 16/16/16 23/23/23
f 25/25/25 22/22/22 17/17/17
f 18/18/18 27/27/27 26/26/26
f 18/18/18 20/20/20 27/27/27
f 27/27/27 28/28/28 26/26/26
f 27/27/27 29/29/29 28/28/28
f 21/21/21 29/29/29 20/20/20
f 29/29/29 27/27/27 20/20/20
f 25/25/25 30/30/30 22/22/22
f 15/15/15 14/14/14 31/31/31
f 14/14/14 32/32/32 31/31/31
f 31/31/31 32/32/32 33/33/33
f 31/31/31 33/33/33 34/34/34
f 33/33/33 35/35/35 34/34/34
f 36/36/36 32/32/32 14/14/14
f 36/36/36 14/14/14 37/37/37
f 38/38/38 32/32/32 36/36/36
f 38/38/38 39/39/39 32/32/32
f 39/39/39 33/33/33 32/32/32
f 34/34/34 35/35/35 40/40/40
f 31/31/31 34/34/34 41/41/41
f 39/39/39 38/38/38 42/42/42
f 45/45/45 44/44/44 43/43/43
f 43/43/43 44/44/44 46/46/46
f 45/45/45 47/47/47 44/44/44
f 46/46/46 48/48/48 43/43/43
f 49/49/49 47/47/47 45/45/45
f 50/50/50 38/38/38 36/36/36
f 51/51/51 44/44/44 47/47/47
f 52/52/52 44/44/44 51/51/51
f 52/52/52 46/46/46 44/44/44
f 48/48/48 46/46/46 53/53/53
f 53/53/53 54/54/54 48/48/48
f 54/54/54 53/53/53 55/55/55
f 54/54/54 55/55/55 56/56/56
f 57/57/57 54/54/54 56/56/56
f 58/58/58 57/57/57 56/56/56
f 61/61/61 60/60/60 59/59/59
f 61/61/61 62/62/62 60/60/60
f 65/65/65 64/64/64 63/63/63
f 61/61/61 59/59/59 66/66/66
f 67/67/67 64/64/64 65/65/65
f 65/65/65 68/68/68 67/67/67
f 70/70/70 69/69/69 62/62/62
f 62/62/62 61/61/61 70/70/70
f 70/70/70 61/61/61 66/66/66
f 66/66/66 71/71/71 70/70/70
f 72/72/72 69/69/69 70/70/70
f 72/72/72 70/70/70 71/71/71
f 69/69/69 72/72/72 73/73/73
f 72/72/72 74/74/74 73/73/73
f 72/72/72 71/71/71 74/74/74
f 73/73/73 75/75/75 69/69/69
f 76/76/76 75/75/75 73/73/73
f 76/76/76 77/77/77 75/75/75
f 76/76/76 73/73/73 21/21/21
f 73/73/73 74/74/74 21/21/21
f 66/66/66 78/78/78 71/71/71
f 78/78/78 29/29/29 71/71/71
f 74/74/74 29/29/29 21/21/21
f 71/71/71 29/29/29 74/74/74
f 76/76/76 8/8/8 77/77/77
f 76/76/76 21/21/21 8/8/8
f 7/7/7 77/77/77 8/8/8
f 80/80/80 10/10/10 79/79/79
f 81/81/81 80/80/80 79/79/79
f 82/82/82 80/80/80 81/81/81
f 81/81/81 68/68/68 82/82/82
f 83/83/83 68/68/68 81/81/81
f 84/84/84 83/83/83 81/81/81
f 81/81/81 79/79/79 84/84/84
f 79/79/79 15/15/15 84/84/84
f 83/83/83 84/84/84 85/85/85
f 41/41/41 85/85/85 84/84/84
f 15/15/15 41/41/41 84/84/84
f 10/10/10 13/13/13 79/79/79
f 79/79/79 13/13/13 15/15/15
f 34/34/34 85/85/85 41/41/41
f 40/40/40 85/85/85 34/34/34
f 85/85/85 40/40/40 67/67/67
f 83/83/83 85/85/85 67/67/67
f 40/40/40 64/64/64 67/67/67
f 35/35/35 64/64/64 40/40/40
f 64/64/64 35/35/35 86/86/86
f 86/86/86 87/87/87 64/64/64
f 88/88/88 86/86/86 35/35/35
f 88/88/88 42/42/42 86/86/86
f 35/35/35 33/33/33 88/88/88
f 63/63/63 64/64/64 87/87/87
f 57/57/57 89/89/89 54/54/54
f 54/54/54 89/89/89 48/48/48
f 90/90/90 87/87/87 86/86/86
f 42/42/42 90/90/90 86/86/86
f 42/42/42 88/88/88 39/39/39
f 39/39/39 88/88/88 33/33/33
f 67/67/67 68/68/68 83/83/83
f 93/93/93 92/92/92 91/91/91
f 94/94/94 92/92/92 93/93/93
f 94/94/94 93/93/93 95/95/95
f 94/94/94 95/95/95 96/96/96
f 93/93/93 97/97/97 95/95/95
f 97/97/97 98/98/98 95/95/95
f 30/30/30 98/98/98 97/97/97
f 97/97/97 99/99/99 30/30/30
f 100/100/100 99/99/99 97/97/97
f 93/93/93 91/91/91 100/100/100
f 100/100/100 97/97/97 93/93/93
f 101/101/101 99/99/99 100/100/100
f 101/101/101 100/100/100 91/91/91
f 102/102/102 95/95/95 98/98/98
f 95/95/95 102/102/102 96/96/96
f 98/98/98 103/103/103 102/102/102
f 104/104/104 103/103/103 98/98/98
f 30/30/30 104/104/104 98/98/98
f 104/104/104 105/105/105 103/103/103
f 105/105/105 104/104/104 106/106/106
f 30/30/30 106/106/106 104/104/104
f 66/66/66 108/108/108 107/107/107
f 107/107/107 28/28/28 66/66/66
f 22/22/22 30/30/30 99/99/99
f 23/23/23 22/22/22 99/99/99
f 23/23/23 99/99/99 101/101/101
f 26/26/26 28/28/28 107/107/107
f 106/106/106 30/30/30 25/25/25
f 66/66/66 28/28/28 78/78/78
f 28/28/28 29/29/29 78/78/78
f 56/56/56 102/102/102 103/103/103
f 56/56/56 55/55/55 102/102/102
f 55/55/55 96/96/96 102/102/102
f 109/109/109 96/96/96 55/55/55
f 110/110/110 96/96/96 109/109/109
f 111/111/111 110/110/110 109/109/109
f 46/46/46 111/111/111 109/109/109
f 53/53/53 109/109/109 55/55/55
f 46/46/46 109/109/109 53/53/53
f 94/94/94 96/96/96 110/110/110
f 110/110/110 92/92/92 94/94/94
f 110/110/110 112/112/112 92/92/92
f 110/110/110 111/111/111 112/112/112
f 113/113/113 92/92/92 112/112/112
f 114/114/114 92/92/92 113/113/113
f 115/115/115 92/92/92 114/114/114
f 116/116/116 115/115/115 114/114/114
f 24/24/24 115/115/115 116/116/116
f 24/24/24 101/101/101 115/115/115
f 116/116/116 114/114/114 117/117/117
f 117/117/117 114/114/114 51/51/51
f 114/114/114 113/113/113 51/51/51
f 117/117/117 51/51/51 118/118/118
f 119/119/119 117/117/117 118/118/118
f 119/119/119 118/118/118 120/120/120
f 119/119/119 120/120/120 2/2/2
f 37/37/37 12/12/12 121/121/121
f 9/9/9 117/117/117 119/119/119
f 9/9/9 119/119/119 2/2/2
f 116/116/116 117/117/117 9/9/9
f 9/9/9 24/24/24 116/116/116
f 3/3/3 24/24/24 9/9/9
f 3/3/3 16/16/16 24/24/24
f 49/49/49 120/120/120 118/118/118
f 121/121/121 36/36/36 37/37/37
f 121/121/121 50/50/50 36/36/36
f 91/91/91 115/115/115 101/101/101
f 12/12/12 37/37/37 11/11/11
f 37/37/37 14/14/14 11/11/11
f 49/49/49 118/118/118 47/47/47
f 118/118/118 51/51/51 47/47/47
f 91/91/91 92/92/92 115/115/115
f 46/46/46 52/52/52 111/111/111
f 111/111/111 52/52/52 112/112/112
f 52/52/52 113/113/113 112/112/112
f 52/52/52 51/51/51 113/113/113
f 58/58/58 56/56/56 103/103/103
f 105/105/105 58/58/58 103/103/103
f 66/66/66 59/59/59 108/108/108
f 23/23/23 101/101/101 24/24/24
f 31/31/31 41/41/41 15/15/15
