g SniperTurret_07
v -0.23867726 -0.2677493 -0.3622372
v -0.26711357 -0.28330088 0.19168144
v 0.26700503 -0.28330088 0.19168144
v 0.2386773 -0.2677493 -0.3622372
v -0.17349398 0.052306354 -0.50806236
v -0.21255124 -0.117768764 -0.50806236
v 0.21248922 -0.117768764 -0.50806236
v 0.17276523 0.05134505 -0.50806236
v -0.21402425 0.19290632 0.50806236
v -0.20095342 0.2588339 0.19548017
v -0.13406456 0.3308239 0.19168144
v -0.14774007 0.26450872 0.50806236
v -0.20095342 0.2588339 0.19548017
v -0.17349398 0.052306354 -0.50806236
v -0.10635704 0.124311924 -0.50806236
v -0.13406456 0.3308239 0.19168144
v 0.14767805 0.26450872 0.50806236
v 0.13394055 0.33035874 0.19701517
v 0.1992479 0.25773305 0.19548017
v 0.21267527 0.19171244 0.50806236
v 0.13394055 0.33035874 0.19701517
v 0.10629499 0.124311924 -0.50806236
v 0.17276523 0.05134505 -0.50806236
v 0.1992479 0.25773305 0.19548017
v 0.1992479 0.25773305 0.19548017
v 0.17276523 0.05134505 -0.50806236
v 0.21248922 -0.117768764 -0.50806236
v 0.28494442 -0.3308239 0.50806236
v 0.21267527 0.19171244 0.50806236
v 0.26700503 -0.28330088 0.19168144
v -0.20095342 0.2588339 0.19548017
v -0.21402425 0.19290632 0.50806236
v -0.28494442 -0.3308239 0.50806236
v -0.26711357 -0.28330088 0.19168144
v 0.10629499 0.124311924 -0.50806236
v -0.10635704 0.124311924 -0.50806236
v -0.21255124 -0.117768764 -0.50806236
v -0.23867726 -0.2677493 -0.3622372
v -0.23867726 -0.2677493 -0.3622372
v 0.2386773 -0.2677493 -0.3622372
v 0.21248922 -0.117768764 -0.50806236
v -0.21255124 -0.117768764 -0.50806236
v 0.2386773 -0.2677493 -0.3622372
v -0.17349398 0.052306354 -0.50806236
vt 0.8630862 0.8403725
vt 0.8638433 0.82641983
vt 0.85043144 0.82641983
vt 0.85118854 0.8403725
vt 0.8620046 0.8492417
vt 0.86243725 0.84567237
vt 0.8518375 0.84567237
vt 0.8522702 0.8492417
vt 0.78110063 0.7804517
vt 0.77958643 0.7729886
vt 0.7767742 0.7729886
vt 0.7776395 0.7804517
vt 0.77958643 0.7729886
vt 0.780668 0.75514215
vt 0.7767742 0.7553585
vt 0.7767742 0.7729886
vt 0.769852 0.7804517
vt 0.77071726 0.7730968
vt 0.7679051 0.7729886
vt 0.76639086 0.7804517
vt 0.77071726 0.7730968
vt 0.77071726 0.7553585
vt 0.7668235 0.75514215
vt 0.7679051 0.7729886
vt 0.7679051 0.7729886
vt 0.7668235 0.75514215
vt 0.76260525 0.75481766
vt 0.7531953 0.7804517
vt 0.76639086 0.7804517
vt 0.7553585 0.77179885
vt 0.77958643 0.7729886
vt 0.78110063 0.7804517
vt 0.7942962 0.7804517
vt 0.79213303 0.77179885
vt 0.85443336 0.8517294
vt 0.8598414 0.8517294
vt 0.78488624 0.75481766
vt 0.789429 0.75795436
vt 0.8630862 0.8403725
vt 0.85118854 0.8403725
vt 0.8518375 0.84567237
vt 0.86243725 0.84567237
vt 0.7580625 0.75795436
vt 0.780668 0.75514215
vn 0.00015306473 -0.9996063 -0.02805706
vn 0.00015306473 -0.9996063 -0.02805706
vn 0.00015306473 -0.9996063 -0.02805706
vn 0.00015306473 -0.9996063 -0.02805706
vn 0.00015306473 -0.00015306473 -1
vn 0.00015306473 -0.00015306473 -1
vn 0.00015306473 -0.00015306473 -1
vn 0.00015306473 -0.00015306473 -1
vn -0.7260122 0.6791628 0.1079085
vn -0.7260122 0.6791628 0.1079085
vn -0.17162794 0.9680672 0.18272845
vn -0.21847731 0.960259 0.17369589
vn -0.71820396 0.6635464 -0.20949769
vn -0.71820396 0.6635464 -0.20949769
vn -0.23409384 0.9290262 -0.28654912
vn -0.20286089 0.9368344 -0.2849365
vn 0.21878344 0.9524508 0.21206434
vn 0.17974234 0.9680672 0.17475268
vn 0.7419348 0.6635464 0.09611981
vn 0.7419348 0.6635464 0.09611981
vn 0.21097523 0.9368344 -0.27898172
vn 0.24220812 0.9290262 -0.279724
vn 0.7185101 0.6557382 -0.23184195
vn 0.7185101 0.6557382 -0.23184195
vn 0.9911823 0.13250446 -0
vn 0.9683734 0.22628552 -0.10510853
vn 0.99012905 0.14015883 -0
vn 0.9911823 0.13250446 -0
vn 0.9911823 0.13250446 -0
vn 0.9911823 0.13250446 -0
vn -0.991492 0.12477857 -0.03706753
vn -0.991492 0.12477857 -0.03706753
vn -0.991492 0.12477857 -0.03706753
vn -0.991492 0.12477857 -0.03706753
vn 0.00015306473 -0.00015306473 -1
vn 0.00015306473 -0.00015306473 -1
vn -0.99012303 0.14020127 -0
vn -0.991492 0.12477857 -0.03706753
vn 0.00015306473 -0.6950854 -0.7189272
vn 0.00015306473 -0.6950854 -0.7189272
vn 0.00015306473 -0.6950854 -0.7189272
vn 0.00015306473 -0.6950854 -0.7189272
vn 0.9917981 0.12477857 -0.027691318
vn -0.9680672 0.22628552 -0.10789203
g SniperTurret_07_0
f 3/3/3 2/2/2 1/1/1
f 4/4/4 3/3/3 1/1/1
f 7/7/7 6/6/6 5/5/5
f 8/8/8 7/7/7 5/5/5
f 11/11/11 10/10/10 9/9/9
f 12/12/12 11/11/11 9/9/9
f 15/15/15 14/14/14 13/13/13
f 16/16/16 15/15/15 13/13/13
f 19/19/19 18/18/18 17/17/17
f 20/20/20 19/19/19 17/17/17
f 23/23/23 22/22/22 21/21/21
f 24/24/24 23/23/23 21/21/21
f 22/22/22 15/15/15 16/16/16
f 21/21/21 22/22/22 16/16/16
f 27/27/27 26/26/26 25/25/25
f 17/17/17 18/18/18 11/11/11
f 12/12/12 17/17/17 11/11/11
f 25/25/25 29/29/29 28/28/28
f 30/30/30 25/25/25 28/28/28
f 33/33/33 32/32/32 31/31/31
f 34/34/34 33/33/33 31/31/31
f 35/35/35 8/8/8 5/5/5
f 36/36/36 35/35/35 5/5/5
f 34/34/34 31/31/31 37/37/37
f 38/38/38 34/34/34 37/37/37
f 41/41/41 40/40/40 39/39/39
f 42/42/42 41/41/41 39/39/39
f 43/43/43 27/27/27 25/25/25
f 30/30/30 43/43/43 25/25/25
f 31/31/31 44/44/44 37/37/37
