g SniperTurret_03_CorpsePart
v -0.02190721 0.08887851 -0.13501793
v -0.12664795 0.15804696 -0.13501793
v -0.12664795 0.15804696 0.16403377
v -0.02190721 0.08887851 0.16403377
v -0.053166687 0.26308995 -0.13501793
v -0.053166687 0.26308995 0.16403377
v -0.053166687 0.26308995 -0.13501793
v -0.12664795 0.15804696 -0.13501793
v -0.02190721 0.08887851 -0.13501793
v -0.12664795 0.15804696 0.16403377
v -0.053166687 0.26308995 0.16403377
v -0.02190721 0.08887851 0.16403377
v -0.0095847845 -0.11094266 -0.13501793
v -0.112360924 -0.02202347 -0.13501793
v -0.112360924 -0.02202347 0.16403377
v -0.0095847845 -0.11094266 0.16403377
v -0.0095847845 0.066907376 -0.13501793
v -0.0095847845 0.066907376 0.16403377
v -0.0095847845 0.066907376 -0.13501793
v -0.112360924 -0.02202347 -0.13501793
v -0.0095847845 -0.11094266 -0.13501793
v -0.112360924 -0.02202347 0.16403377
v -0.0095847845 0.066907376 0.16403377
v -0.0095847845 -0.11094266 0.16403377
v -0.09491187 -0.2969767 -0.13501793
v -0.14617789 -0.17989022 -0.13501793
v -0.14617789 -0.17989022 0.16403377
v -0.09491187 -0.2969767 0.16403377
v -0.032892793 -0.13398331 -0.13501793
v -0.032892793 -0.13398331 0.16403377
v -0.032892793 -0.13398331 -0.13501793
v -0.14617789 -0.17989022 -0.13501793
v -0.09491187 -0.2969767 -0.13501793
v -0.14617789 -0.17989022 0.16403377
v -0.032892793 -0.13398331 0.16403377
v -0.09491187 -0.2969767 0.16403377
v 0.14617787 -0.07487047 0.23058659
v -0.01812911 -0.034915537 0.23058659
v -0.07806733 0.32243532 0.23453909
v 0.081973314 0.3809204 0.23453909
v 0.081973314 0.3809204 0.23453909
v -0.07806733 0.32243532 0.23453909
v -0.07806733 0.32243532 -0.20252399
v 0.081973314 0.3809204 -0.20252399
v 0.081973314 0.3809204 -0.20252399
v -0.07806733 0.32243532 -0.20252399
v -0.01812911 -0.034915537 -0.23058662
v 0.14617787 -0.07487047 -0.23058662
v 0.048040092 -0.3809204 -0.24074681
v -0.116266906 -0.34094223 -0.24074681
v -0.116266906 -0.34094223 0.2407468
v 0.048040092 -0.3809204 0.2407468
v -0.01812911 -0.034915537 0.23058659
v -0.01812911 -0.034915537 -0.23058662
v -0.07806733 0.32243532 -0.20252399
v -0.07806733 0.32243532 0.23453909
v 0.14617787 -0.07487047 -0.23058662
v 0.14617787 -0.07487047 0.23058659
v 0.081973314 0.3809204 0.23453909
v 0.081973314 0.3809204 -0.20252399
v 0.048040092 -0.3809204 0.2407468
v -0.116266906 -0.34094223 0.2407468
v -0.116266906 -0.34094223 0.2407468
v -0.116266906 -0.34094223 -0.24074681
v -0.116266906 -0.34094223 -0.24074681
v 0.048040092 -0.3809204 -0.24074681
v 0.048040092 -0.3809204 -0.24074681
v 0.048040092 -0.3809204 0.2407468
vt 0.7634912 0.8657949
vt 0.7616458 0.86821693
vt 0.75495625 0.86821693
vt 0.7532262 0.8657949
vt 0.76326054 0.87110037
vt 0.75334156 0.87110037
vt 0.76326054 0.87110037
vt 0.7616458 0.86821693
vt 0.7634912 0.8657949
vt 0.75495625 0.86821693
vt 0.75334156 0.87110037
vt 0.7532262 0.8657949
vt 0.7633759 0.8657949
vt 0.7616458 0.8684476
vt 0.75495625 0.8684476
vt 0.7532262 0.8657949
vt 0.7633759 0.87110037
vt 0.7532262 0.87110037
vt 0.7633759 0.87110037
vt 0.7616458 0.8684476
vt 0.7633759 0.8657949
vt 0.75495625 0.8684476
vt 0.7532262 0.87110037
vt 0.7532262 0.8657949
vt 0.75334156 0.87110037
vt 0.75495625 0.8681016
vt 0.7616458 0.8681016
vt 0.76326054 0.87110037
vt 0.7531109 0.8657949
vt 0.7634912 0.8657949
vt 0.7531109 0.8657949
vt 0.75495625 0.8681016
vt 0.75334156 0.87110037
vt 0.7616458 0.8681016
vt 0.7634912 0.8657949
vt 0.76326054 0.87110037
vt 0.8091645 0.7547256
vt 0.8084725 0.7591084
vt 0.79913026 0.7591084
vt 0.7980922 0.7550716
vt 0.7948628 0.7588777
vt 0.79913026 0.7591084
vt 0.7988996 0.7698347
vt 0.79463214 0.7698347
vt 0.7974002 0.77375615
vt 0.7988996 0.7698347
vt 0.8081265 0.7709881
vt 0.8084725 0.7753709
vt 0.82058287 0.77144945
vt 0.8163154 0.7712188
vt 0.8166614 0.7593391
vt 0.8209289 0.7593391
vt 0.8084725 0.7591084
vt 0.8081265 0.7709881
vt 0.7988996 0.7698347
vt 0.79913026 0.7591084
vt 0.76487523 0.8424969
vt 0.76464456 0.85403055
vt 0.7532262 0.85403055
vt 0.7532262 0.8424969
vt 0.8168921 0.75541764
vt 0.8166614 0.7593391
vt 0.8166614 0.7593391
vt 0.8163154 0.7712188
vt 0.8163154 0.7712188
vt 0.8162001 0.77525556
vt 0.77283347 0.8424969
vt 0.77283347 0.85403055
vn -0.5527492 -0.83334774 -0
vn -0.98431885 -0.17569286 -0.015762204
vn -0.98431885 -0.17569286 -0.015762204
vn -0.5527492 -0.83334774 -0
vn -0.8178508 0.5754302 -0
vn -0.8178508 0.5754302 -0
vn 0.0032586455 -0.0032586455 -0.9999894
vn 0.0032586455 -0.0032586455 -0.9999894
vn 0.0032586455 -0.0032586455 -0.9999894
vn 0.0032586455 -0.0032586455 0.9999894
vn 0.0032586455 -0.0032586455 0.9999894
vn 0.0032586455 -0.0032586455 0.9999894
vn -0.6550375 -0.75559634 -0
vn -0.99999475 -0.0032586455 -0
vn -0.99999475 -0.0032586455 -0
vn -0.6550375 -0.75559634 -0
vn -0.65438443 0.756162 -0
vn -0.65438443 0.756162 -0
vn 0.0032586455 -0.0032586455 -0.9999894
vn 0.0032586455 -0.0032586455 -0.9999894
vn 0.0032586455 -0.0032586455 -0.9999894
vn 0.0032586455 -0.0032586455 0.9999894
vn 0.0032586455 -0.0032586455 0.9999894
vn 0.0032586455 -0.0032586455 0.9999894
vn -0.9137776 -0.40299243 -0.0510648
vn -0.9344141 0.35618868 -0
vn -0.9344141 0.35618868 -0
vn -0.9137776 -0.40299243 -0.0510648
vn -0.37240615 0.9280698 -0
vn -0.37240615 0.9280698 -0
vn 0.0032586455 -0.0032586455 -0.9999894
vn 0.0032586455 -0.0032586455 -0.9999894
vn 0.0032586455 -0.0032586455 -0.9999894
vn 0.0032586455 -0.0032586455 0.9999894
vn 0.0032586455 -0.0032586455 0.9999894
vn 0.0032586455 -0.0032586455 0.9999894
vn 0.0032586455 0.012417197 0.99991757
vn 0.0032586455 0.0045793056 0.9999842
vn 0.0032586455 -0.011096597 0.9999331
vn 0.0032586455 -0.011096597 0.9999331
vn -0.34160972 0.9372914 -0.06919309
vn -0.34160972 0.9372914 -0.06919309
vn -0.34160972 0.9372914 -0.06919309
vn -0.34160972 0.9372914 -0.06919309
vn -0.0045793056 0.06728256 -0.99772346
vn -0.0045793056 0.06728256 -0.99772346
vn 0.0032586455 0.051606774 -0.9986622
vn 0.0032586455 0.051606774 -0.9986622
vn -0.23971677 -0.96732247 -0.082602195
vn -0.23971677 -0.96732247 -0.082602195
vn -0.23971677 -0.96732247 -0.082602195
vn -0.23971677 -0.96732247 -0.082602195
vn -0.99774414 0.06713113 -0
vn -0.99719024 0.07490977 -0
vn -0.98431885 -0.1678549 -0.05423244
vn -0.98431885 -0.1678549 -0.05423244
vn 0.99831057 -0.058102906 -0
vn 0.99867415 -0.050286174 -0.011011973
vn 0.990464 0.13777204 -0
vn 0.990464 0.13777204 -0
vn 0.011096597 0.02809298 0.9995437
vn 0.011096597 0.02809298 0.9995437
vn -0.9529673 0.30242014 -0.019885663
vn -0.9529673 0.30242014 -0.019885663
vn 0.011096597 0.02809298 -0.9995437
vn 0.011096597 0.02809298 -0.9995437
vn 0.9511362 -0.30877173 -0
vn 0.9511362 -0.30877173 -0
g SniperTurret_03_CorpsePart_0
f 3/3/3 2/2/2 1/1/1
f 4/4/4 3/3/3 1/1/1
f 6/6/6 5/5/5 2/2/2
f 3/3/3 6/6/6 2/2/2
f 9/9/9 8/8/8 7/7/7
f 12/12/12 11/11/11 10/10/10
f 15/15/15 14/14/14 13/13/13
f 16/16/16 15/15/15 13/13/13
f 18/18/18 17/17/17 14/14/14
f 15/15/15 18/18/18 14/14/14
f 21/21/21 20/20/20 19/19/19
f 24/24/24 23/23/23 22/22/22
f 27/27/27 26/26/26 25/25/25
f 28/28/28 27/27/27 25/25/25
f 30/30/30 29/29/29 26/26/26
f 27/27/27 30/30/30 26/26/26
f 33/33/33 32/32/32 31/31/31
f 36/36/36 35/35/35 34/34/34
f 39/39/39 38/38/38 37/37/37
f 40/40/40 39/39/39 37/37/37
f 43/43/43 42/42/42 41/41/41
f 44/44/44 43/43/43 41/41/41
f 47/47/47 46/46/46 45/45/45
f 48/48/48 47/47/47 45/45/45
f 51/51/51 50/50/50 49/49/49
f 52/52/52 51/51/51 49/49/49
f 55/55/55 54/54/54 53/53/53
f 56/56/56 55/55/55 53/53/53
f 59/59/59 58/58/58 57/57/57
f 60/60/60 59/59/59 57/57/57
f 38/38/38 62/62/62 61/61/61
f 37/37/37 38/38/38 61/61/61
f 54/54/54 64/64/64 63/63/63
f 53/53/53 54/54/54 63/63/63
f 65/65/65 47/47/47 48/48/48
f 66/66/66 65/65/65 48/48/48
f 58/58/58 68/68/68 67/67/67
f 57/57/57 58/58/58 67/67/67
