g SniperTurret_CustomizePart_1
v -4.054283 -39.526367 18.172493
v -4.0579453 -1.8830986 -30.941746
v -22.599606 -1.8635788 -31.06252
v -26.455795 -39.64592 18.154194
v -26.635124 -28.19569 31.365997
v -17.934608 39.989655 -11.200895
v -4.0579453 39.979897 -11.080122
v -4.0530663 -28.074917 31.385513
v -4.0579453 -1.8830986 -30.941746
v -4.054283 -39.526367 18.172493
v -4.0530663 -28.074917 31.385513
v -4.0579453 39.979897 -11.080122
v -4.0652657 37.24604 -16.835735
v -4.0579453 -1.8830986 -30.941746
v -4.0652657 37.24604 -16.835735
v -18.22739 37.265564 -16.956509
v -22.599606 -1.8635788 -31.06252
v -26.635124 -28.19569 31.365997
v -26.455795 -39.64592 18.154194
v -22.599606 -1.8635788 -31.06252
v -17.934608 39.989655 -11.200895
v -18.22739 37.265564 -16.956509
v -4.0652657 37.24604 -16.835735
v -4.0579453 39.979897 -11.080122
v -17.934608 39.989655 -11.200895
v -18.22739 37.265564 -16.956509
v -4.0530663 -28.074917 31.385513
v -4.054283 -39.526367 18.172493
v -26.455795 -39.64592 18.154194
v -26.635124 -28.19569 31.365997
v 26.440216 -39.95822 18.270088
v 22.57915 -1.8635788 -31.37238
v 3.8703575 -1.895298 -31.251606
v 3.8752365 -39.83867 18.300587
v 22.57915 -1.8635788 -31.37238
v 26.440216 -39.95822 18.270088
v 26.635405 -28.505552 31.481888
v 18.064201 39.989655 -11.510757
v 18.342344 37.265564 -17.266369
v 3.8752365 -28.384779 31.51361
v 3.8654785 39.9738 -11.388763
v 18.064201 39.989655 -11.510757
v 26.635405 -28.505552 31.481888
v 22.57915 -1.8635788 -31.37238
v 18.342344 37.265564 -17.266369
v 3.8642578 37.23506 -17.145597
v 3.8703575 -1.895298 -31.251606
v 3.8752365 -28.384779 31.51361
v 3.8752365 -39.83867 18.300587
v 3.8703575 -1.895298 -31.251606
v 3.8654785 39.9738 -11.388763
v 3.8642578 37.23506 -17.145597
v 18.342344 37.265564 -17.266369
v 18.064201 39.989655 -11.510757
v 3.8654785 39.9738 -11.388763
v 3.8642578 37.23506 -17.145597
v 26.635405 -28.505552 31.481888
v 26.440216 -39.95822 18.270088
v 3.8752365 -39.83867 18.300587
v 3.8752365 -28.384779 31.51361
vt 0.7287458 0.5530995
vt 0.7262485 0.7004426
vt 0.7703681 0.7012751
vt 0.78202236 0.55393195
vt 0.7828549 0.5123097
vt 0.76454103 0.32167932
vt 0.73124313 0.3208469
vt 0.72957826 0.51147723
vt 0.6546581 0.82780695
vt 0.6097059 0.96765804
vt 0.6463336 0.9876368
vt 0.76454103 0.83779633
vt 0.7537192 0.82780695
vt 0.6546581 0.82780695
vt 0.7537192 0.82780695
vt 0.7537192 0.7936766
vt 0.6546581 0.78368735
vt 0.66215 0.6221926
vt 0.6238575 0.63884157
vt 0.6546581 0.78368735
vt 0.76537347 0.7845198
vt 0.7537192 0.7936766
vt 0.7537192 0.82780695
vt 0.7687032 0.82780695
vt 0.7687032 0.79450905
vt 0.7537192 0.7936766
vt 0.72957826 0.51147723
vt 0.7287458 0.5530995
vt 0.78202236 0.55393195
vt 0.7828549 0.5123097
vt 1.0375836 0.749557
vt 1.0517352 0.8977325
vt 1.0958549 0.8960676
vt 1.0916926 0.74789214
vt 0.6746368 0.45070857
vt 0.6430038 0.5963868
vt 0.68129635 0.6130357
vt 0.78535223 0.44987613
vt 0.77286553 0.43988678
vt 1.0908601 0.70626974
vt 1.0866979 0.514807
vt 1.0525676 0.5156394
vt 1.0367512 0.7079346
vt 0.6746368 0.45070857
vt 0.77286553 0.43988678
vt 0.77286553 0.40575647
vt 0.6746368 0.40575647
vt 0.6654799 0.24426177
vt 0.6288522 0.26507294
vt 0.6746368 0.40575647
vt 0.78368735 0.39493465
vt 0.77286553 0.40575647
vt 0.77286553 0.43988678
vt 0.788682 0.4390543
vt 0.788682 0.40575647
vt 0.77286553 0.40575647
vt 1.0367512 0.7079346
vt 1.0375836 0.749557
vt 1.0916926 0.74789214
vt 1.0908601 0.70626974
vn 0.0039215684 -0.79607236 -0.6051888
vn 0.0039215684 -0.79607236 -0.6051888
vn 0.0039215684 -0.79607236 -0.6051888
vn 0.0039215684 -0.79607236 -0.6051888
vn -0.003921509 0.5294076 0.8483585
vn -0.003921509 0.5294076 0.8483585
vn -0.003921509 0.5294076 0.8483585
vn -0.003921509 0.5294076 0.8483585
vn 0.9999924 0.003921509 -0
vn 0.9999924 0.003921509 -0
vn 0.9999924 0.003921509 -0
vn 0.9999924 0.003921509 -0
vn 0.9999924 0.003921509 -0
vn 0.0039215684 0.34117377 -0.9399921
vn 0.0039215684 0.34117377 -0.9399921
vn 0.0039215684 0.34117377 -0.9399921
vn 0.0039215684 0.34117377 -0.9399921
vn -0.99214923 0.098038435 -0.07764255
vn -0.99214923 0.098038435 -0.07764255
vn -0.99214923 0.098038435 -0.07764255
vn -0.99214923 0.098038435 -0.07764255
vn -0.99214923 0.098038435 -0.07764255
vn 0.0039215684 0.9058753 -0.4235263
vn 0.0039215684 0.9058753 -0.4235263
vn 0.0039215684 0.9058753 -0.4235263
vn 0.0039215684 0.9058753 -0.4235263
vn 0.0039215684 -0.756857 0.6535688
vn 0.0039215684 -0.756857 0.6535688
vn 0.0039215684 -0.756857 0.6535688
vn 0.0039215684 -0.756857 0.6535688
vn -0.003921509 -0.79607236 -0.6051888
vn -0.003921509 -0.79607236 -0.6051888
vn -0.003921509 -0.79607236 -0.6051888
vn -0.003921509 -0.79607236 -0.6051888
vn 0.9921493 0.098038435 -0.077641785
vn 0.9921493 0.098038435 -0.077641785
vn 0.9921493 0.098038435 -0.077641785
vn 0.9921493 0.098038435 -0.077641785
vn 0.9921493 0.098038435 -0.077641785
vn 0.0039215684 0.5294076 0.8483585
vn 0.0039215684 0.5294076 0.8483585
vn 0.0039215684 0.5294076 0.8483585
vn 0.0039215684 0.5294076 0.8483585
vn -0.003921509 0.34117377 -0.9399921
vn -0.003921509 0.34117377 -0.9399921
vn -0.003921509 0.34117377 -0.9399921
vn -0.003921509 0.34117377 -0.9399921
vn -0.99999225 -0.0039215684 -0.00034425134
vn -0.99999225 -0.0039215684 -0.00034425134
vn -0.99999225 -0.0039215684 -0.00034425134
vn -0.99999225 -0.0039215684 -0.00034425134
vn -0.99999225 -0.0039215684 -0.00034425134
vn -0.003921509 0.9058753 -0.4235263
vn -0.003921509 0.9058753 -0.4235263
vn -0.003921509 0.9058753 -0.4235263
vn -0.003921509 0.9058753 -0.4235263
vn -0.003921509 -0.756857 0.6535688
vn -0.003921509 -0.756857 0.6535688
vn -0.003921509 -0.756857 0.6535688
vn -0.003921509 -0.756857 0.6535688
g SniperTurret_CustomizePart_1_0
f 3/3/3 2/2/2 1/1/1
f 4/4/4 3/3/3 1/1/1
f 7/7/7 6/6/6 5/5/5
f 8/8/8 7/7/7 5/5/5
f 11/11/11 10/10/10 9/9/9
f 9/9/9 12/12/12 11/11/11
f 9/9/9 13/13/13 12/12/12
f 16/16/16 15/15/15 14/14/14
f 17/17/17 16/16/16 14/14/14
f 20/20/20 19/19/19 18/18/18
f 18/18/18 21/21/21 20/20/20
f 21/21/21 22/22/22 20/20/20
f 25/25/25 24/24/24 23/23/23
f 26/26/26 25/25/25 23/23/23
f 29/29/29 28/28/28 27/27/27
f 30/30/30 29/29/29 27/27/27
f 33/33/33 32/32/32 31/31/31
f 34/34/34 33/33/33 31/31/31
f 37/37/37 36/36/36 35/35/35
f 35/35/35 38/38/38 37/37/37
f 35/35/35 39/39/39 38/38/38
f 42/42/42 41/41/41 40/40/40
f 43/43/43 42/42/42 40/40/40
f 46/46/46 45/45/45 44/44/44
f 47/47/47 46/46/46 44/44/44
f 50/50/50 49/49/49 48/48/48
f 48/48/48 51/51/51 50/50/50
f 51/51/51 52/52/52 50/50/50
f 55/55/55 54/54/54 53/53/53
f 56/56/56 55/55/55 53/53/53
f 59/59/59 58/58/58 57/57/57
f 60/60/60 59/59/59 57/57/57
