g SniperTurret_DefaultPart_2_CorpsePart
v 0.41083574 0.2826736 0.72123605
v 0.6510538 0.28137136 0.3377269
v 0.57842034 0.03673017 0.31249034
v 0.33445272 0.037605762 0.6175285
v -0.48135477 0.77099055 0.38007206
v 0.48131377 0.77099055 0.38007206
v 0.36734545 0.7132655 0.5659104
v -0.3663985 0.7132655 0.5659104
v 0.36734545 0.7132655 0.5659104
v 0.48131377 0.77099055 0.38007206
v 0.41083574 0.2826736 0.72123605
v 0.31967905 0.32937455 0.46031684
v 0.28366542 0.6655317 0.45809406
v 0.36734545 0.7132655 0.5659104
v 0.45086834 0.8067797 -0.3517635
v -0.45093173 0.8067797 -0.3517635
v -0.2911381 0.72512037 -0.5245122
v 0.2910747 0.72512037 -0.5245122
v -0.35016543 0.28727633 -0.6646375
v 0.35010204 0.28727633 -0.6646375
v 0.2910747 0.72512037 -0.5245122
v -0.2911381 0.72512037 -0.5245122
v 0.6031629 0.28413302 -0.47702536
v 0.53791624 0.036977112 -0.44220173
v 0.6031629 0.28413302 -0.47702536
v 0.34444404 0.037965 -0.5775447
v 0.53791624 0.036977112 -0.44220173
v 0.45086834 0.8067797 -0.3517635
v 0.45086834 0.8067797 -0.3517635
v 0.33445272 0.037605762 0.6175285
v 0.27800742 0.1685481 0.45998007
v -0.2832349 0.6655317 0.45809406
v -0.3663985 0.7132655 0.5659104
v -0.34450752 0.037965 -0.5775447
v -0.27849746 0.1685481 0.45998007
v -0.33451617 0.037605762 0.6175285
v -0.4108767 0.2826736 0.72123605
v -0.33451617 0.037605762 0.6175285
v -0.57848376 0.03673017 0.31249034
v -0.65109473 0.28137136 0.3377269
v -0.3663985 0.7132655 0.5659104
v -0.48135477 0.77099055 0.38007206
v -0.3250637 0.32937455 0.46031684
v -0.4108767 0.2826736 0.72123605
v -0.53797966 0.036977112 -0.44220173
v -0.60322636 0.28413302 -0.47702536
v -0.60322636 0.28413302 -0.47702536
v -0.53797966 0.036977112 -0.44220173
v -0.45093173 0.8067797 -0.3517635
v -0.45093173 0.8067797 -0.3517635
v 0.57842034 0.03673017 0.31249034
v 0.53791624 0.036977112 -0.44220173
v -0.53797966 0.036977112 -0.44220173
v -0.57848376 0.03673017 0.31249034
v -0.33451617 0.037605762 0.6175285
v 0.33445272 0.037605762 0.6175285
v -0.34450752 0.037965 -0.5775447
v 0.34444404 0.037965 -0.5775447
vt 0.046599574 0.5127371
vt 0.059776608 0.5127371
vt 0.06032565 0.50559956
vt 0.048795745 0.50559956
vt 0.033971585 0.5577586
vt 0.0070684743 0.5577586
vt 0.0125589045 0.56270003
vt 0.030128282 0.56270003
vt 0.052090004 0.52481604
vt 0.05812948 0.52591413
vt 0.05154096 0.53140455
vt 0.05154096 0.53140455
vt 0.05154096 0.53140455
vt 0.05154096 0.53140455
vt 0.0070684743 0.53524786
vt 0.033971585 0.53524786
vt 0.029030196 0.5292084
vt 0.0125589045 0.52975744
vt 0.032873496 0.5127371
vt 0.0125589045 0.5127371
vt 0.013656991 0.52646315
vt 0.032324456 0.52646315
vt 0.08448354 0.5127371
vt 0.08338546 0.50559956
vt 0.004323259 0.5127371
vt 0.012009861 0.50559956
vt 0.005421345 0.50559956
vt 0.08064024 0.52646315
vt 0.0070684743 0.5270122
vt 0.05154096 0.53140455
vt 0.05154096 0.53140455
vt 0.05154096 0.53140455
vt 0.05154096 0.53140455
vt 0.03342254 0.50559956
vt 0.05154096 0.53140455
vt 0.05154096 0.53140455
vt 0.046599574 0.5127371
vt 0.048795745 0.50559956
vt 0.06032565 0.50559956
vt 0.059776608 0.5127371
vt 0.052090004 0.52481604
vt 0.05812948 0.52591413
vt 0.05154096 0.53140455
vt 0.05154096 0.53140455
vt 0.08338546 0.50559956
vt 0.08448354 0.5127371
vt 0.04110914 0.5127371
vt 0.040011056 0.50559956
vt 0.08064024 0.52646315
vt 0.03891297 0.5270122
vt 0.05154096 0.5517191
vt 0.04220723 0.5522682
vt 0.04220723 0.56544524
vt 0.05154096 0.56599426
vt 0.055384263 0.56270003
vt 0.055384263 0.5544644
vt 0.0405601 0.56324905
vt 0.0405601 0.5550134
vn 0.82857245 -0.010412097 0.559785
vn 0.98441255 0.098675966 0.14558505
vn 0.9298685 -0.32209224 0.17776713
vn 0.7584444 -0.36884427 0.53732294
vn -0.48048413 0.8700843 0.10994707
vn 0.47793233 0.8700843 0.12055727
vn 0.47014034 0.72982824 0.49630517
vn -0.47269213 0.72982824 0.49387535
vn 0.47014034 0.72982824 0.49630517
vn 0.47793233 0.8700843 0.12055727
vn -0.90904427 0.06750786 0.41119486
vn -0.90904427 0.05192387 0.41345185
vn -0.5428201 -0.64156437 0.54197925
vn -0.72203624 -0.4389723 0.5347588
vn 0.46234828 0.8778763 -0.124768995
vn -0.46490014 0.8778763 -0.11489586
vn -0.16880393 0.5428201 -0.8227099
vn 0.1662522 0.5428201 -0.8232293
vn -0.19217992 0.083091974 -0.97783566
vn 0.18962818 0.083091974 -0.9783337
vn 0.1662522 0.5428201 -0.8232293
vn -0.16880393 0.5428201 -0.8227099
vn 0.9532445 0.12984395 -0.27288362
vn 0.9220765 -0.29092425 -0.25522146
vn 0.9532445 0.12984395 -0.27288362
vn 0.17404419 -0.32209224 -0.9305725
vn 0.9220765 -0.29092425 -0.25522146
vn 0.46234828 0.8778763 -0.124768995
vn 0.46234828 0.8778763 -0.124768995
vn -0.32464397 0.68307614 0.65422726
vn -0.34802008 0.67528415 0.65028715
vn 0.5402683 -0.64935637 0.5352069
vn 0.71948445 -0.4467643 0.5317366
vn -0.17659593 -0.32209224 -0.9300916
vn 0.34546828 0.67528415 0.6516464
vn 0.32209224 0.68307614 0.65548724
vn -0.8311242 -0.010412097 0.5559894
vn -0.7609962 -0.36884427 0.53370273
vn -0.93242025 -0.32209224 0.1638568
vn -0.98696434 0.098675966 0.12713942
vn -0.47269213 0.72982824 0.49387535
vn -0.48048413 0.8700843 0.10994707
vn 0.9142845 0.05192387 0.40173087
vn 0.9142845 0.06750786 0.39940766
vn -0.91683626 -0.29092425 -0.27344894
vn -0.95579624 0.12984395 -0.26380694
vn -0.95579624 0.12984395 -0.26380694
vn -0.91683626 -0.29092425 -0.27344894
vn -0.46490014 0.8778763 -0.11489586
vn -0.46490014 0.8778763 -0.11489586
vn 0.002620101 -0.99999654 -0.00024414062
vn 0.002620101 -0.99999654 -0.00024414062
vn 0.002620101 -0.99999654 -0.00024414062
vn 0.002620101 -0.99999654 -0.00024414062
vn 0.002620101 -0.99999654 -0.00024414062
vn 0.002620101 -0.99999654 -0.00024414062
vn 0.002620101 -0.99999654 -0.00024414062
vn 0.002620101 -0.99999654 -0.00024414062
g SniperTurret_DefaultPart_2_CorpsePart_0
f 3/3/3 2/2/2 1/1/1
f 4/4/4 3/3/3 1/1/1
f 7/7/7 6/6/6 5/5/5
f 8/8/8 7/7/7 5/5/5
f 9/9/9 1/1/1 2/2/2
f 10/10/10 9/9/9 2/2/2
f 13/13/13 12/12/12 11/11/11
f 14/14/14 13/13/13 11/11/11
f 17/17/17 16/16/16 15/15/15
f 18/18/18 17/17/17 15/15/15
f 21/21/21 20/20/20 19/19/19
f 22/22/22 21/21/21 19/19/19
f 24/24/24 23/23/23 2/2/2
f 3/3/3 24/24/24 2/2/2
f 26/26/26 20/20/20 25/25/25
f 27/27/27 26/26/26 25/25/25
f 10/10/10 2/2/2 23/23/23
f 28/28/28 10/10/10 23/23/23
f 29/29/29 25/25/25 20/20/20
f 21/21/21 29/29/29 20/20/20
f 12/12/12 31/31/31 30/30/30
f 11/11/11 12/12/12 30/30/30
f 32/32/32 13/13/13 14/14/14
f 33/33/33 32/32/32 14/14/14
f 19/19/19 20/20/20 26/26/26
f 34/34/34 19/19/19 26/26/26
f 30/30/30 31/31/31 35/35/35
f 36/36/36 30/30/30 35/35/35
f 39/39/39 38/38/38 37/37/37
f 40/40/40 39/39/39 37/37/37
f 40/40/40 37/37/37 41/41/41
f 42/42/42 40/40/40 41/41/41
f 44/44/44 43/43/43 32/32/32
f 33/33/33 44/44/44 32/32/32
f 45/45/45 39/39/39 40/40/40
f 46/46/46 45/45/45 40/40/40
f 47/47/47 19/19/19 34/34/34
f 48/48/48 47/47/47 34/34/34
f 46/46/46 40/40/40 42/42/42
f 49/49/49 46/46/46 42/42/42
f 50/50/50 22/22/22 19/19/19
f 47/47/47 50/50/50 19/19/19
f 44/44/44 36/36/36 35/35/35
f 43/43/43 44/44/44 35/35/35
f 53/53/53 52/52/52 51/51/51
f 54/54/54 53/53/53 51/51/51
f 55/55/55 54/54/54 51/51/51
f 56/56/56 55/55/55 51/51/51
f 52/52/52 53/53/53 57/57/57
f 58/58/58 52/52/52 57/57/57
f 15/15/15 16/16/16 5/5/5
f 6/6/6 15/15/15 5/5/5
