g SniperTurret_05
v 0.31005388 -0.11029187 0.097938836
v 0.20702972 -0.08189365 0.15450197
v 0.20702972 0.07545638 0.15450197
v 0.31072646 0.10517222 0.098336875
v 0.11450562 0.20277482 0.15450197
v 0.18804726 0.27933604 0.09948987
v 6.854534E-06 0.24076718 0.15450197
v 6.854534E-06 0.33278346 0.097664356
v 6.854534E-06 -0.3498169 0.097664356
v 6.854534E-06 -0.25781435 0.15450197
v 0.11450562 -0.20919836 0.15450197
v 0.18615311 -0.286542 0.099256516
v 0.36859348 -0.12810767 -0.019414812
v 0.37243664 0.12821746 -0.019250125
v 0.24297701 0.33723056 -0.018742263
v 6.854534E-06 0.39043087 -0.019538343
v 0.23334165 -0.34693453 -0.018838346
v 6.854534E-06 -0.4074643 -0.019538343
v -0.31067157 0.10517222 0.098336875
v -0.37243664 0.12821746 -0.019250125
v -0.24304563 0.33723056 -0.018742263
v -0.1881159 0.27933604 0.09948987
v 6.854534E-06 -0.3498169 0.097664356
v 6.854534E-06 -0.4074643 -0.019538343
v -0.23327303 -0.34693453 -0.018838346
v -0.18615311 -0.286542 0.099256516
v -0.3686484 -0.12810767 -0.019414812
v -0.31005388 -0.11029187 0.097938836
v -0.11450565 0.20277482 0.15450197
v -0.2070297 0.07545638 0.15450197
v -0.11450565 -0.20919836 0.15450197
v 6.854534E-06 -0.25781435 0.15450197
v -0.2070297 -0.08189365 0.15450197
v -0.28271258 0.37977982 -0.15450194
v 6.854534E-06 0.4497528 -0.15450194
v -0.4166193 0.14504504 -0.15450194
v -0.41040158 -0.14132538 -0.15450194
v -0.26709282 -0.3917348 -0.15450194
v 6.854534E-06 -0.4497528 -0.15450194
v 0.26709282 -0.3917348 -0.15450194
v 6.854534E-06 -0.4497528 -0.15450194
v 0.41033295 -0.14132538 -0.15450194
v 0.41661927 0.14504504 -0.15450194
v 0.28271255 0.37977982 -0.15450194
v 0.20702972 0.07545638 0.15450197
v 0.18500018 0.06653476 0.048128724
v 0.10235849 0.1802786 0.048128724
v 0.11450562 0.20277482 0.15450197
v 6.854534E-06 0.21424937 0.048128724
v 6.854534E-06 0.24076718 0.15450197
v 6.854534E-06 -0.25781435 0.15450197
v 6.854534E-06 -0.23129654 0.048128724
v 0.10235849 -0.18784136 0.048128724
v 0.11450562 -0.20919836 0.15450197
v 0.18500018 -0.074083805 0.048128724
v 0.20702972 -0.08189365 0.15450197
v -0.11450565 0.20277482 0.15450197
v -0.102289855 0.1802786 0.048128724
v -0.18493158 0.06653476 0.048128724
v -0.2070297 0.07545638 0.15450197
v -0.11450565 -0.20919836 0.15450197
v -0.102289855 -0.18784136 0.048128724
v 6.854534E-06 -0.23129654 0.048128724
v 6.854534E-06 -0.25781435 0.15450197
v -0.2070297 -0.08189365 0.15450197
v -0.18493158 -0.074083805 0.048128724
vt 0.7649797 0.8024916
vt 0.7649797 0.8051169
vt 0.771397 0.8051169
vt 0.77133864 0.8024916
vt 0.7777559 0.8051169
vt 0.77752256 0.8026083
vt 0.7830648 0.8050002
vt 0.7830648 0.8026083
vt 0.7531953 0.8026083
vt 0.7531953 0.8050002
vt 0.7585041 0.8051169
vt 0.7586208 0.8026083
vt 0.7650381 0.7993413
vt 0.771222 0.7993413
vt 0.7772309 0.7993413
vt 0.7830064 0.79945797
vt 0.7587958 0.7993413
vt 0.7531953 0.7993997
vt 0.7947326 0.8024916
vt 0.7948492 0.7993413
vt 0.7888403 0.7993413
vt 0.78854865 0.8026083
vt 0.8128759 0.8026083
vt 0.8128759 0.7993997
vt 0.8072754 0.7993413
vt 0.8074504 0.80254996
vt 0.80103314 0.7993413
vt 0.8010915 0.80243325
vt 0.7883153 0.8051169
vt 0.7946742 0.8051169
vt 0.8075671 0.8051169
vt 0.8128759 0.8050002
vt 0.8010915 0.8051169
vt 0.78919035 0.7959577
vt 0.7830064 0.7959577
vt 0.79490757 0.79589933
vt 0.8009748 0.79589933
vt 0.80710036 0.79589933
vt 0.8128759 0.79589933
vt 0.75897086 0.7959577
vt 0.7531953 0.7959577
vt 0.7650964 0.7959577
vt 0.77116364 0.7959577
vt 0.77688086 0.7959577
vt 0.771397 0.8051169
vt 0.77145535 0.8074504
vt 0.77798927 0.8074504
vt 0.7777559 0.8051169
vt 0.7830648 0.8074504
vt 0.7830648 0.8050002
vt 0.7531953 0.8050002
vt 0.7531953 0.8074504
vt 0.75838745 0.8074504
vt 0.7585041 0.8051169
vt 0.76492137 0.8074504
vt 0.7649797 0.8051169
vt 0.7883153 0.8051169
vt 0.78808194 0.8074504
vt 0.79461586 0.8074504
vt 0.7946742 0.8051169
vt 0.8075671 0.8051169
vt 0.80768377 0.8074504
vt 0.8128759 0.8074504
vt 0.8128759 0.8050002
vt 0.8010915 0.8051169
vt 0.80114985 0.8074504
vn 0.72676194 -0.22449714 0.64916724
vn 0.43757915 -0.14078635 0.8880899
vn 0.43757915 0.14078629 0.8880899
vn 0.71915185 0.20927691 0.6625887
vn 0.27776766 0.38430858 0.8804272
vn 0.43757915 0.6126108 0.65820396
vn -0.0038049817 0.5060698 0.86248416
vn -0.0038049817 0.7876425 0.61612076
vn -0.0038049817 -0.7800324 0.62572753
vn -0.0038049817 -0.49845976 0.8669045
vn 0.3005979 -0.3766986 0.8762072
vn 0.4680195 -0.59739065 0.6512159
vn 0.87896335 -0.25493747 0.40302643
vn 0.87896335 0.23971725 0.41226092
vn 0.52128994 0.7267618 0.4472964
vn -0.0038049817 0.90940356 0.4158974
vn 0.5517303 -0.72676194 0.40915865
vn -0.0038049817 -0.9170137 0.39883754
vn -0.71915174 0.20927691 0.66258883
vn -0.87896323 0.23971725 0.41226113
vn -0.52128994 0.7267618 0.4472964
vn -0.43757915 0.6126108 0.65820396
vn -0.0038049817 -0.7800324 0.62572753
vn -0.0038049817 -0.9170137 0.39883754
vn -0.55173016 -0.72676194 0.4091588
vn -0.46801937 -0.59739065 0.65121603
vn -0.87896323 -0.25493747 0.40302667
vn -0.7267618 -0.22449714 0.64916736
vn -0.27776754 0.38430858 0.88042724
vn -0.43757915 0.14078629 0.8880899
vn -0.3005978 -0.3766986 0.87620723
vn -0.0038049817 -0.49845976 0.8669045
vn -0.43757915 -0.14078635 0.8880899
vn -0.5441201 0.741982 0.3916581
vn -0.0038049817 0.9246237 0.38086283
vn -0.90940356 0.23971725 0.33988348
vn -0.90940356 -0.2625475 0.32257396
vn -0.5669503 -0.7495921 0.341583
vn -0.0038049817 -0.93984395 0.34158283
vn 0.56695044 -0.7495921 0.34158283
vn -0.0038049817 -0.93984395 0.34158283
vn 0.9094036 -0.2625475 0.32257384
vn 0.9094036 0.23971725 0.3398834
vn 0.5441202 0.741982 0.39165795
vn -0.9246237 -0.30820793 0.22378302
vn -0.9322338 -0.3005979 0.20144737
vn -0.6126108 -0.7572022 0.22661155
vn -0.60500073 -0.7648123 0.22144133
vn -0.0038049817 -0.9702842 0.24193807
vn -0.0038049817 -0.9702842 0.24193807
vn -0.0038049817 0.9702841 0.24193856
vn -0.0038049817 0.9702841 0.24193856
vn -0.63544095 0.741982 0.21372291
vn -0.62783086 0.74959207 0.209619
vn -0.9322338 0.3005978 0.20144753
vn -0.9322338 0.3005978 0.20144753
vn 0.60500073 -0.7648123 0.22144133
vn 0.6126108 -0.7572022 0.22661155
vn 0.93223387 -0.3005979 0.20144707
vn 0.9246238 -0.30820793 0.22378275
vn 0.627831 0.74959207 0.20961872
vn 0.63544106 0.741982 0.21372263
vn -0.0038049817 0.9702841 0.24193856
vn -0.0038049817 0.9702841 0.24193856
vn 0.93223387 0.3005978 0.20144723
vn 0.93223387 0.3005978 0.20144723
g SniperTurret_05_0
f 3/3/3 2/2/2 1/1/1
f 4/4/4 3/3/3 1/1/1
f 5/5/5 3/3/3 4/4/4
f 6/6/6 5/5/5 4/4/4
f 7/7/7 5/5/5 6/6/6
f 8/8/8 7/7/7 6/6/6
f 11/11/11 10/10/10 9/9/9
f 12/12/12 11/11/11 9/9/9
f 2/2/2 11/11/11 12/12/12
f 1/1/1 2/2/2 12/12/12
f 4/4/4 1/1/1 13/13/13
f 14/14/14 4/4/4 13/13/13
f 14/14/14 15/15/15 6/6/6
f 4/4/4 14/14/14 6/6/6
f 15/15/15 16/16/16 8/8/8
f 6/6/6 15/15/15 8/8/8
f 18/18/18 17/17/17 12/12/12
f 9/9/9 18/18/18 12/12/12
f 17/17/17 13/13/13 1/1/1
f 12/12/12 17/17/17 1/1/1
f 21/21/21 20/20/20 19/19/19
f 22/22/22 21/21/21 19/19/19
f 16/16/16 21/21/21 22/22/22
f 8/8/8 16/16/16 22/22/22
f 25/25/25 24/24/24 23/23/23
f 26/26/26 25/25/25 23/23/23
f 27/27/27 25/25/25 26/26/26
f 28/28/28 27/27/27 26/26/26
f 28/28/28 19/19/19 20/20/20
f 27/27/27 28/28/28 20/20/20
f 29/29/29 22/22/22 19/19/19
f 30/30/30 29/29/29 19/19/19
f 7/7/7 8/8/8 22/22/22
f 29/29/29 7/7/7 22/22/22
f 31/31/31 26/26/26 23/23/23
f 32/32/32 31/31/31 23/23/23
f 33/33/33 28/28/28 26/26/26
f 31/31/31 33/33/33 26/26/26
f 30/30/30 19/19/19 28/28/28
f 33/33/33 30/30/30 28/28/28
f 34/34/34 21/21/21 16/16/16
f 35/35/35 34/34/34 16/16/16
f 36/36/36 20/20/20 21/21/21
f 34/34/34 36/36/36 21/21/21
f 27/27/27 20/20/20 36/36/36
f 37/37/37 27/27/27 36/36/36
f 38/38/38 25/25/25 27/27/27
f 37/37/37 38/38/38 27/27/27
f 39/39/39 24/24/24 25/25/25
f 38/38/38 39/39/39 25/25/25
f 40/40/40 17/17/17 18/18/18
f 41/41/41 40/40/40 18/18/18
f 42/42/42 13/13/13 17/17/17
f 40/40/40 42/42/42 17/17/17
f 14/14/14 13/13/13 42/42/42
f 43/43/43 14/14/14 42/42/42
f 44/44/44 15/15/15 14/14/14
f 43/43/43 44/44/44 14/14/14
f 35/35/35 16/16/16 15/15/15
f 44/44/44 35/35/35 15/15/15
f 47/47/47 46/46/46 45/45/45
f 48/48/48 47/47/47 45/45/45
f 49/49/49 47/47/47 48/48/48
f 50/50/50 49/49/49 48/48/48
f 53/53/53 52/52/52 51/51/51
f 54/54/54 53/53/53 51/51/51
f 55/55/55 53/53/53 54/54/54
f 56/56/56 55/55/55 54/54/54
f 46/46/46 55/55/55 56/56/56
f 45/45/45 46/46/46 56/56/56
f 59/59/59 58/58/58 57/57/57
f 60/60/60 59/59/59 57/57/57
f 58/58/58 49/49/49 50/50/50
f 57/57/57 58/58/58 50/50/50
f 63/63/63 62/62/62 61/61/61
f 64/64/64 63/63/63 61/61/61
f 62/62/62 66/66/66 65/65/65
f 61/61/61 62/62/62 65/65/65
f 66/66/66 59/59/59 60/60/60
f 65/65/65 66/66/66 60/60/60
