g SniperTurret_03_CorpsePart
v -3.9480627E-05 0.26706567 0.9320649
v 0.0703229 0.33275023 0.93044066
v 0.0703229 0.31930146 0.44583032
v -3.9480627E-05 0.25364938 0.44748703
v -3.9480627E-05 0.39840227 0.9287839
v -3.9480627E-05 0.38495353 0.44420603
v -3.9480627E-05 0.39840227 0.9287839
v 0.0703229 0.33275023 0.93044066
v -3.9480627E-05 0.26706567 0.9320649
v -0.07036938 0.33275023 0.93044066
v -0.07036938 0.33275023 0.93044066
v -3.9480627E-05 0.26706567 0.9320649
v -3.9480627E-05 0.25364938 0.44748703
v -0.07036938 0.31930146 0.44583032
v -0.1509645 0.41246825 1.4405516
v -0.10460849 0.1809806 1.4879797
v -0.10460849 0.19751543 2.0585775
v -0.1509645 0.35730883 2.0539322
v -0.1509645 0.420622 1.7220986
v -0.15554488 0.16035265 1.1308727
v -0.3216079 0.1567793 1.0985827
v -0.3216079 0.17886907 1.4149535
v -0.10460849 0.1809806 1.4879797
v -0.07943267 0.13498192 0.92940116
v -0.15554488 0.16035265 1.1308727
v -0.17214468 0.41591167 1.1234661
v -0.09603247 0.43403825 0.9207276
v -0.15554488 0.16035265 1.1308727
v -0.10460849 0.1809806 1.4879797
v -0.1509645 0.41246825 1.4405516
v -0.17214468 0.41591167 1.1234661
v -0.081511706 0.060039163 0.49124423
v -0.108506694 0.10408874 0.72575307
v -0.09707199 0.46330717 0.69248843
v -0.09811151 0.50612235 0.47828278
v -0.09603247 0.43403825 0.9207276
v -0.33921474 0.3990195 0.9217347
v -0.33921474 0.41805568 0.7166573
v -0.15317348 0.45612803 0.7383896
v -0.17214468 0.41591167 1.1234661
v -0.33921474 0.38596055 1.1243433
v -0.1509645 0.41246825 1.4405516
v -0.33921474 0.3852134 1.4413638
v -0.3216079 0.13153851 0.9058496
v -0.3216079 0.10408874 0.72575307
v -0.33921474 0.41805568 0.7166573
v -0.33921474 0.3990195 0.9217347
v -0.07943267 0.13498192 0.92940116
v -0.3216079 0.13153851 0.9058496
v -0.3216079 0.1567793 1.0985827
v -0.33921474 0.38596055 1.1243433
v -0.33921474 0.3852134 1.4413638
v -0.3216079 0.17886907 1.4149535
v -0.3216079 0.19751543 2.0585775
v -0.10460849 0.19751543 2.0585775
v -0.1509645 0.420622 1.7220986
v -0.1509645 0.35730883 2.0539322
v -0.21073678 0.43020502 2.0518205
v -0.108506694 0.10408874 0.72575307
v -0.3216079 0.10408874 0.72575307
v -0.3216079 0.19751543 2.0585775
v -0.33921474 0.40291768 2.0526328
v -0.1509645 0.420622 1.7220986
v -0.33921474 0.40291768 2.0526328
v -0.21073678 0.43020502 2.0518205
v -0.10460849 0.19751543 2.0585775
v -0.20453218 0.27080145 2.0564659
v -0.20742333 0.31433126 2.0551991
v -0.1509645 0.35730883 2.0539322
v -0.15317348 0.45612803 0.7383896
v -0.108506694 0.10408874 0.72575307
v -0.07943267 0.13498192 0.92940116
v -0.09603247 0.43403825 0.9207276
v -0.3216079 0.060039163 0.49124423
v -0.33921474 0.45385405 0.47980955
v -0.33921474 0.45385405 0.47980955
v -0.09811151 0.50612235 0.47828278
v -0.09707199 0.46330717 0.69248843
v -0.108506694 0.10408874 0.72575307
v -0.15317348 0.45612803 0.7383896
v -0.09707199 0.46330717 0.69248843
v -0.081511706 0.060039163 0.49124423
v -0.3216079 0.060039163 0.49124423
v -0.21073678 0.43020502 2.0518205
v -0.20742333 0.31433126 2.0551991
v -0.20453218 0.27080145 2.0564659
v -0.27687612 0.26696822 2.0565634
v -0.27687612 0.32618827 2.0548418
v -0.27687612 0.26696822 2.0565634
v -0.3216079 0.19751543 2.0585775
v -0.33921474 0.40291768 2.0526328
v -0.27687612 0.32618827 2.0548418
v -0.029340893 0.22996786 1.1726483
v -0.029340893 0.2782405 1.1712515
v -0.029340893 0.27528438 1.0686965
v -0.029340893 0.22701174 1.0700934
v -0.029340893 0.22701174 1.0700934
v -0.029340893 0.27528438 1.0686965
v -0.18789989 0.28025457 1.2400221
v -0.18789989 0.23344377 1.2927127
v -0.18789989 0.23344377 1.2927127
v -0.18789989 0.2832107 1.3425771
v -0.029340893 0.2782405 1.1712515
v -0.029340893 0.22996786 1.1726483
v -0.029340893 0.22701174 1.0700934
v -0.18789989 0.23344377 1.2927127
v -0.029340893 0.22996786 1.1726483
v -0.18789989 0.28025457 1.2400221
v -0.029340893 0.27528438 1.0686965
v -0.029340893 0.2782405 1.1712515
v -0.18789989 0.2832107 1.3425771
v -0.029340893 0.23623747 1.3887057
v -0.029340893 0.28451008 1.3873088
v -0.029340893 0.28152147 1.2847539
v -0.029340893 0.23324886 1.2861507
v -0.029340893 0.23324886 1.2861507
v -0.029340893 0.28152147 1.2847539
v -0.18789989 0.28649166 1.4561119
v -0.18789989 0.23821905 1.4575088
v -0.18789989 0.24120766 1.5600313
v -0.18789989 0.2894803 1.5586344
v -0.029340893 0.28451008 1.3873088
v -0.029340893 0.23623747 1.3887057
v -0.029340893 0.23324886 1.2861507
v -0.18789989 0.23821905 1.4575088
v -0.18789989 0.24120766 1.5600313
v -0.029340893 0.23623747 1.3887057
v -0.18789989 0.28649166 1.4561119
v -0.029340893 0.28152147 1.2847539
v -0.029340893 0.28451008 1.3873088
v -0.18789989 0.2894803 1.5586344
v -0.029340893 0.24250707 1.6047955
v -0.029340893 0.29077968 1.6033987
v -0.029340893 0.28779107 1.5008436
v -0.029340893 0.23951846 1.5022405
v -0.029340893 0.23951846 1.5022405
v -0.029340893 0.28779107 1.5008436
v -0.18789989 0.29276127 1.6721693
v -0.18789989 0.24448866 1.6735661
v -0.18789989 0.24747726 1.776121
v -0.18789989 0.29574987 1.7747242
v -0.029340893 0.29077968 1.6033987
v -0.029340893 0.24250707 1.6047955
v -0.029340893 0.23951846 1.5022405
v -0.18789989 0.24448866 1.6735661
v -0.18789989 0.24747726 1.776121
v -0.029340893 0.24250707 1.6047955
v -0.18789989 0.29276127 1.6721693
v -0.029340893 0.28779107 1.5008436
v -0.029340893 0.29077968 1.6033987
v -0.18789989 0.29574987 1.7747242
v -0.029340893 0.24877664 1.8208529
v -0.029340893 0.29704928 1.819456
v -0.029340893 0.29406065 1.7169011
v -0.029340893 0.24578804 1.7182978
v -0.029340893 0.24578804 1.7182978
v -0.029340893 0.29406065 1.7169011
v -0.18789989 0.29903087 1.888259
v -0.18789989 0.25075823 1.889656
v -0.18789989 0.25371438 1.9921783
v -0.18789989 0.301987 1.9907817
v -0.029340893 0.29704928 1.819456
v -0.029340893 0.24877664 1.8208529
v -0.029340893 0.24578804 1.7182978
v -0.18789989 0.25075823 1.889656
v -0.18789989 0.25371438 1.9921783
v -0.029340893 0.24877664 1.8208529
v -0.18789989 0.29903087 1.888259
v -0.029340893 0.29406065 1.7169011
v -0.029340893 0.29704928 1.819456
v -0.18789989 0.301987 1.9907817
v -0.09811151 0.50612235 0.47828278
v -0.33921474 0.45385405 0.47980955
v -0.3216079 0.060039163 0.49124423
v -0.081511706 0.060039163 0.49124423
v 0.0703229 0.31930146 0.44583032
v -3.9480627E-05 0.38495353 0.44420603
v -0.07036938 0.31930146 0.44583032
v -3.9480627E-05 0.25364938 0.44748703
vt 0.5141123 0.69373786
vt 0.5141123 0.6720745
vt 0.42745876 0.6720745
vt 0.42745876 0.69373786
vt 0.5141123 0.6504111
vt 0.42745876 0.6504111
vt 0.9130796 0.063694425
vt 0.93293774 0.08716309
vt 0.95279586 0.063694425
vt 0.93293774 0.040225755
vt 0.5141123 0.6287477
vt 0.5141123 0.60708433
vt 0.42745876 0.60708433
vt 0.42745876 0.6287477
vt 0.25054112 0.95550376
vt 0.27400976 0.89141625
vt 0.38954782 0.88509774
vt 0.38954782 0.9410615
vt 0.31372598 0.9564064
vt 0.19096681 0.605279
vt 0.18464832 0.6377741
vt 0.25956753 0.6377741
vt 0.27491242 0.5899342
vt 0.14583476 0.89954
vt 0.19457738 0.89592946
vt 0.18645361 0.95550376
vt 0.14041892 0.95550376
vt 0.19457738 0.89592946
vt 0.27400976 0.89141625
vt 0.25054112 0.95550376
vt 0.18645361 0.95550376
vt 0.04203104 0.9058585
vt 0.09438422 0.90224797
vt 0.08535781 0.9546011
vt 0.04293368 0.9546011
vt 0.14764005 0.8598238
vt 0.14764005 0.80386007
vt 0.09799478 0.80386007
vt 0.10431327 0.8489921
vt 0.19548002 0.84267366
vt 0.19548002 0.80386007
vt 0.26498336 0.8489921
vt 0.26498336 0.80386007
vt 0.13410042 0.72623295
vt 0.0961895 0.72171974
vt 0.091676295 0.78761256
vt 0.13410042 0.7849046
vt 0.14402947 0.58542097
vt 0.13771099 0.6377741
vt 0.17110871 0.7271356
vt 0.1774272 0.78309935
vt 0.2586649 0.7803914
vt 0.2523464 0.72623295
vt 0.39676896 0.6377741
vt 0.39676896 0.5899342
vt 0.32184976 0.84718686
vt 0.39135313 0.8489921
vt 0.39225575 0.8309393
vt 0.091676295 0.59264207
vt 0.09438422 0.6377741
vt 0.39045048 0.72623295
vt 0.39045048 0.77226764
vt 0.32184976 0.84718686
vt 0.3931584 0.80386007
vt 0.39225575 0.8309393
vt 0.4762014 0.84086835
vt 0.44731686 0.864337
vt 0.44641423 0.87065554
vt 0.4590512 0.8950268
vt 0.099800065 0.95550376
vt 0.09438422 0.90224797
vt 0.14583476 0.89954
vt 0.14041892 0.95550376
vt 0.036615193 0.71901184
vt 0.039323118 0.79032046
vt 0.0456416 0.80386007
vt 0.0456416 0.864337
vt 0.09077366 0.8634344
vt 0.09438422 0.90224797
vt 0.099800065 0.95550376
vt 0.08535781 0.9546011
vt 0.04203104 0.58632356
vt 0.04203104 0.6377741
vt 0.44731686 0.9031506
vt 0.5114044 0.8679476
vt 0.5041833 0.9591143
vt 0.49335155 0.96001697
vt 0.4852278 0.86885023
vt 0.43648517 0.864337
vt 0.4039901 0.84086835
vt 0.4130165 0.89954
vt 0.43648517 0.8679476
vt 0.45183006 0.79663897
vt 0.43829045 0.79663897
vt 0.43829045 0.82552344
vt 0.45183006 0.82552344
vt 0.45183006 0.79663897
vt 0.43829045 0.79663897
vt 0.43829045 0.72352505
vt 0.45183006 0.72352505
vt 0.45183006 0.72352505
vt 0.43829045 0.72352505
vt 0.43829045 0.79663897
vt 0.45183006 0.79663897
vt 0.49515685 0.72623295
vt 0.4852278 0.8074706
vt 0.4743961 0.74428576
vt 0.49515685 0.7975416
vt 0.49515685 0.72623295
vt 0.4743961 0.74428576
vt 0.4743961 0.816497
vt 0.45183006 0.79663897
vt 0.43829045 0.79663897
vt 0.43829045 0.82552344
vt 0.45183006 0.82552344
vt 0.45183006 0.79663897
vt 0.43829045 0.79663897
vt 0.43829045 0.72352505
vt 0.45183006 0.72352505
vt 0.45183006 0.72352505
vt 0.43829045 0.72352505
vt 0.43829045 0.79663897
vt 0.45183006 0.79663897
vt 0.49515685 0.72623295
vt 0.49515685 0.7975416
vt 0.4743961 0.816497
vt 0.4743961 0.74428576
vt 0.49515685 0.7975416
vt 0.49515685 0.72623295
vt 0.4743961 0.74428576
vt 0.4743961 0.816497
vt 0.45183006 0.79663897
vt 0.43829045 0.79663897
vt 0.43829045 0.82552344
vt 0.45183006 0.82552344
vt 0.45183006 0.79663897
vt 0.43829045 0.79663897
vt 0.43829045 0.72352505
vt 0.45183006 0.72352505
vt 0.45183006 0.72352505
vt 0.43829045 0.72352505
vt 0.43829045 0.79663897
vt 0.45183006 0.79663897
vt 0.49515685 0.72623295
vt 0.49515685 0.7975416
vt 0.4743961 0.816497
vt 0.4743961 0.74428576
vt 0.49515685 0.7975416
vt 0.49515685 0.72623295
vt 0.4743961 0.74428576
vt 0.4743961 0.816497
vt 0.45183006 0.79663897
vt 0.43829045 0.79663897
vt 0.43829045 0.82552344
vt 0.45183006 0.82552344
vt 0.45183006 0.79663897
vt 0.43829045 0.79663897
vt 0.43829045 0.72352505
vt 0.45183006 0.72352505
vt 0.45183006 0.72352505
vt 0.43829045 0.72352505
vt 0.43829045 0.79663897
vt 0.45183006 0.79663897
vt 0.49515685 0.72623295
vt 0.49515685 0.7975416
vt 0.4743961 0.816497
vt 0.4743961 0.74428576
vt 0.49515685 0.7975416
vt 0.49515685 0.72623295
vt 0.4743961 0.74428576
vt 0.4743961 0.816497
vt 0.04293368 0.9546011
vt 0.0456416 0.80386007
vt 0.036615193 0.71901184
vt 0.04203104 0.58632356
vt 0.42745876 0.6720745
vt 0.42745876 0.6504111
vt 0.42745876 0.6287477
vt 0.42745876 0.60708433
vn -0.003921509 -0.9999924 -0
vn 0.9999924 0.003921509 -0
vn 0.9999924 -0.0039215684 -0
vn -0.003921509 -0.9999924 -0
vn -0.003921509 0.99999225 -0.00034526698
vn -0.003921509 0.99999225 -0.00034526698
vn -0.003921509 0.02745068 0.9996155
vn -0.003921509 0.02745068 0.9996155
vn -0.003921509 0.02745068 0.9996155
vn -0.003921509 0.02745068 0.9996155
vn -0.99999225 0.003921509 -0.00034492963
vn -0.003921509 -0.9999924 -0
vn -0.003921509 -0.9999924 -0
vn -0.99999225 -0.0039215684 -0.00034425134
vn 0.97646314 0.21568453 -0
vn 0.97646314 0.21568453 -0
vn 0.97646314 0.21568453 -0
vn 0.97646314 0.21568453 -0
vn 0.97646314 0.21568453 -0
vn -0.003921509 -0.9999924 -0
vn -0.003921509 -0.9921493 0.124997616
vn -0.003921509 -0.9999924 -0
vn -0.003921509 -0.9999924 -0
vn 0.93724775 0.066666126 0.34223133
vn 0.93724775 0.066666126 0.34223133
vn 0.93724775 0.066666126 0.34223133
vn 0.93724775 0.066666126 0.34223133
vn 0.9843062 0.11372459 -0.13493702
vn 0.9843062 0.11372459 -0.13493702
vn 0.9843062 0.11372459 -0.13493702
vn 0.9843062 0.11372459 -0.13493702
vn 0.99993086 0.011763803 -0
vn 0.99993086 0.011763803 -0
vn 0.99993086 0.011763803 -0
vn 0.99993086 0.011763803 -0
vn -0.16862607 0.9843061 0.052026592
vn -0.16078305 0.9843061 0.072734654
vn -0.18431222 0.96861994 0.16674644
vn -0.1764692 0.9764631 0.12400998
vn -0.16078305 0.9843061 0.072734654
vn -0.16078305 0.9843061 0.072734654
vn -0.16078305 0.9843061 -0.072734654
vn -0.16078305 0.9843061 -0.072734654
vn -0.9977852 -0.06651905 -0
vn -0.998703 -0.050914306 -0
vn -0.998703 -0.050914306 -0
vn -0.9977852 -0.06651905 -0
vn -0.003921509 -0.9921493 0.124997616
vn -0.003921509 -0.9921493 0.124997616
vn -0.99723566 -0.07430387 -0
vn -0.99723566 -0.07430387 -0
vn -0.9966261 -0.08207513 -0
vn -0.9966261 -0.08207513 -0
vn -0.003921509 -0.9999924 -0
vn -0.003921509 -0.9999924 -0
vn 0.76470006 0.6313677 0.12887469
vn 0.76470006 0.6313677 0.12887469
vn 0.76470006 0.6313677 0.12887469
vn -0.003921509 -0.9843062 0.17642535
vn -0.003921509 -0.9843062 0.17642535
vn -0.9966261 -0.08207513 -0
vn -0.9966261 -0.08207513 -0
vn -0.15293992 0.9843061 -0.08803935
vn -0.15293992 0.9843061 -0.08803935
vn -0.15293992 0.9843061 -0.08803935
vn -0.003921509 0.02745068 0.9996155
vn -0.003921509 0.02745068 0.9996155
vn -0.003921509 0.02745068 0.9996155
vn -0.003921509 0.02745068 0.9996155
vn 0.96862006 0.0901953 -0.23160301
vn 0.96862006 0.0901953 -0.23160301
vn 0.96862006 0.0901953 -0.23160301
vn 0.96862006 0.0901953 -0.23160301
vn -0.998703 -0.050914306 -0
vn -0.998703 -0.050914306 -0
vn -0.18431222 0.96861994 0.16674644
vn -0.18431222 0.96861994 0.16674644
vn -0.18431222 0.96861994 0.16674644
vn 0.63136774 0.050979972 0.77380604
vn 0.63136774 0.050979972 0.77380604
vn 0.63136774 0.050979972 0.77380604
vn -0.003921509 -0.9843062 0.17642535
vn -0.003921509 -0.9843062 0.17642535
vn -0.003921509 0.02745068 0.9996155
vn -0.003921509 0.02745068 0.9996155
vn -0.003921509 0.02745068 0.9996155
vn -0.003921509 0.02745068 0.9996155
vn -0.003921509 0.02745068 0.9996155
vn -0.003921509 0.02745068 0.9996155
vn -0.003921509 0.02745068 0.9996155
vn -0.003921509 0.02745068 0.9996155
vn -0.003921509 0.02745068 0.9996155
vn 0.9999924 0.003921509 -0
vn 0.9999924 0.003921509 -0
vn 0.9999924 0.003921509 -0
vn 0.9999924 0.003921509 -0
vn -0.74117076 -0.3333308 -0.58271474
vn -0.74117076 -0.3333308 -0.58271474
vn -0.74117076 -0.3333308 -0.58271474
vn -0.74117076 -0.3333308 -0.58271474
vn 0.63136774 -0.3411739 0.69640154
vn 0.63136774 -0.3411739 0.69640154
vn 0.63136774 -0.3411739 0.69640154
vn 0.63136774 -0.3411739 0.69640154
vn -0.003921509 -0.9999924 -0
vn -0.003921509 -0.9999924 -0
vn -0.003921509 -0.9999924 -0
vn -0.003921509 0.99999225 -0.00034526698
vn -0.003921509 0.99999225 -0.00034526698
vn -0.003921509 0.99999225 -0.00034526698
vn -0.003921509 0.99999225 -0.00034526698
vn 0.9999924 0.003921509 -0
vn 0.9999924 0.003921509 -0
vn 0.9999924 0.003921509 -0
vn 0.9999924 0.003921509 -0
vn -0.7333276 -0.019607723 -0.6795926
vn -0.7333276 -0.019607723 -0.6795926
vn -0.7333276 -0.019607723 -0.6795926
vn -0.7333276 -0.019607723 -0.6795926
vn 0.73332775 0.019607663 0.67959255
vn 0.73332775 0.019607663 0.67959255
vn 0.73332775 0.019607663 0.67959255
vn 0.73332775 0.019607663 0.67959255
vn -0.003921509 -0.9999924 -0
vn -0.003921509 -0.9999924 -0
vn -0.003921509 -0.9999924 -0
vn -0.003921509 -0.9999924 -0
vn -0.003921509 0.99999225 -0.00034526698
vn -0.003921509 0.99999225 -0.00034526698
vn -0.003921509 0.99999225 -0.00034526698
vn -0.003921509 0.99999225 -0.00034526698
vn 0.9999924 0.003921509 -0
vn 0.9999924 0.003921509 -0
vn 0.9999924 0.003921509 -0
vn 0.9999924 0.003921509 -0
vn -0.7333276 -0.019607723 -0.6795926
vn -0.7333276 -0.019607723 -0.6795926
vn -0.7333276 -0.019607723 -0.6795926
vn -0.7333276 -0.019607723 -0.6795926
vn 0.73332775 0.019607663 0.67959255
vn 0.73332775 0.019607663 0.67959255
vn 0.73332775 0.019607663 0.67959255
vn 0.73332775 0.019607663 0.67959255
vn -0.003921509 -0.9999924 -0
vn -0.003921509 -0.9999924 -0
vn -0.003921509 -0.9999924 -0
vn -0.003921509 -0.9999924 -0
vn -0.003921509 0.99999225 -0.00034526698
vn -0.003921509 0.99999225 -0.00034526698
vn -0.003921509 0.99999225 -0.00034526698
vn -0.003921509 0.99999225 -0.00034526698
vn 0.9999924 0.003921509 -0
vn 0.9999924 0.003921509 -0
vn 0.9999924 0.003921509 -0
vn 0.9999924 0.003921509 -0
vn -0.7333276 -0.019607723 -0.6795926
vn -0.7333276 -0.019607723 -0.6795926
vn -0.7333276 -0.019607723 -0.6795926
vn -0.7333276 -0.019607723 -0.6795926
vn 0.73332775 0.019607663 0.67959255
vn 0.73332775 0.019607663 0.67959255
vn 0.73332775 0.019607663 0.67959255
vn 0.73332775 0.019607663 0.67959255
vn -0.003921509 -0.9999924 -0
vn -0.003921509 -0.9999924 -0
vn -0.003921509 -0.9999924 -0
vn -0.003921509 -0.9999924 -0
vn -0.003921509 0.99999225 -0.00034526698
vn -0.003921509 0.99999225 -0.00034526698
vn -0.003921509 0.99999225 -0.00034526698
vn -0.003921509 0.99999225 -0.00034526698
vn -0.003921509 -0.0274508 -0.9996155
vn -0.003921509 -0.0274508 -0.9996155
vn -0.003921509 -0.0274508 -0.9996155
vn -0.003921509 -0.0274508 -0.9996155
vn -0.003921509 -0.0274508 -0.9996155
vn -0.003921509 -0.0274508 -0.9996155
vn -0.003921509 -0.0274508 -0.9996155
vn -0.003921509 -0.0274508 -0.9996155
g SniperTurret_03_CorpsePart_0
f 3/3/3 2/2/2 1/1/1
f 4/4/4 3/3/3 1/1/1
f 6/6/6 5/5/5 2/2/2
f 3/3/3 6/6/6 2/2/2
f 9/9/9 8/8/8 7/7/7
f 10/10/10 9/9/9 7/7/7
f 13/13/13 12/12/12 11/11/11
f 14/14/14 13/13/13 11/11/11
f 14/14/14 11/11/11 5/5/5
f 6/6/6 14/14/14 5/5/5
f 17/17/17 16/16/16 15/15/15
f 15/15/15 18/18/18 17/17/17
f 15/15/15 19/19/19 18/18/18
f 22/22/22 21/21/21 20/20/20
f 23/23/23 22/22/22 20/20/20
f 26/26/26 25/25/25 24/24/24
f 27/27/27 26/26/26 24/24/24
f 30/30/30 29/29/29 28/28/28
f 31/31/31 30/30/30 28/28/28
f 34/34/34 33/33/33 32/32/32
f 35/35/35 34/34/34 32/32/32
f 38/38/38 37/37/37 36/36/36
f 39/39/39 38/38/38 36/36/36
f 37/37/37 41/41/41 40/40/40
f 36/36/36 37/37/37 40/40/40
f 42/42/42 40/40/40 41/41/41
f 43/43/43 42/42/42 41/41/41
f 46/46/46 45/45/45 44/44/44
f 47/47/47 46/46/46 44/44/44
f 21/21/21 49/49/49 48/48/48
f 20/20/20 21/21/21 48/48/48
f 47/47/47 44/44/44 50/50/50
f 51/51/51 47/47/47 50/50/50
f 52/52/52 51/51/51 50/50/50
f 53/53/53 52/52/52 50/50/50
f 55/55/55 54/54/54 22/22/22
f 23/23/23 55/55/55 22/22/22
f 58/58/58 57/57/57 56/56/56
f 49/49/49 60/60/60 59/59/59
f 48/48/48 49/49/49 59/59/59
f 52/52/52 53/53/53 61/61/61
f 62/62/62 52/52/52 61/61/61
f 63/63/63 42/42/42 43/43/43
f 43/43/43 64/64/64 63/63/63
f 64/64/64 65/65/65 63/63/63
f 68/68/68 67/67/67 66/66/66
f 69/69/69 68/68/68 66/66/66
f 72/72/72 71/71/71 70/70/70
f 73/73/73 72/72/72 70/70/70
f 46/46/46 75/75/75 74/74/74
f 45/45/45 46/46/46 74/74/74
f 78/78/78 77/77/77 76/76/76
f 38/38/38 78/78/78 76/76/76
f 81/81/81 80/80/80 79/79/79
f 60/60/60 83/83/83 82/82/82
f 59/59/59 60/60/60 82/82/82
f 39/39/39 78/78/78 38/38/38
f 84/84/84 68/68/68 69/69/69
f 87/87/87 86/86/86 85/85/85
f 88/88/88 87/87/87 85/85/85
f 66/66/66 67/67/67 89/89/89
f 90/90/90 66/66/66 89/89/89
f 92/92/92 91/91/91 90/90/90
f 89/89/89 92/92/92 90/90/90
f 91/91/91 92/92/92 68/68/68
f 84/84/84 91/91/91 68/68/68
f 95/95/95 94/94/94 93/93/93
f 96/96/96 95/95/95 93/93/93
f 99/99/99 98/98/98 97/97/97
f 100/100/100 99/99/99 97/97/97
f 103/103/103 102/102/102 101/101/101
f 104/104/104 103/103/103 101/101/101
f 107/107/107 106/106/106 105/105/105
f 110/110/110 109/109/109 108/108/108
f 111/111/111 110/110/110 108/108/108
f 114/114/114 113/113/113 112/112/112
f 115/115/115 114/114/114 112/112/112
f 118/118/118 117/117/117 116/116/116
f 119/119/119 118/118/118 116/116/116
f 122/122/122 121/121/121 120/120/120
f 123/123/123 122/122/122 120/120/120
f 126/126/126 125/125/125 124/124/124
f 127/127/127 126/126/126 124/124/124
f 130/130/130 129/129/129 128/128/128
f 131/131/131 130/130/130 128/128/128
f 134/134/134 133/133/133 132/132/132
f 135/135/135 134/134/134 132/132/132
f 138/138/138 137/137/137 136/136/136
f 139/139/139 138/138/138 136/136/136
f 142/142/142 141/141/141 140/140/140
f 143/143/143 142/142/142 140/140/140
f 146/146/146 145/145/145 144/144/144
f 147/147/147 146/146/146 144/144/144
f 150/150/150 149/149/149 148/148/148
f 151/151/151 150/150/150 148/148/148
f 154/154/154 153/153/153 152/152/152
f 155/155/155 154/154/154 152/152/152
f 158/158/158 157/157/157 156/156/156
f 159/159/159 158/158/158 156/156/156
f 162/162/162 161/161/161 160/160/160
f 163/163/163 162/162/162 160/160/160
f 166/166/166 165/165/165 164/164/164
f 167/167/167 166/166/166 164/164/164
f 170/170/170 169/169/169 168/168/168
f 171/171/171 170/170/170 168/168/168
f 174/174/174 173/173/173 172/172/172
f 175/175/175 174/174/174 172/172/172
f 178/178/178 177/177/177 176/176/176
f 179/179/179 178/178/178 176/176/176
