g SniperTurret_04
v -0.090942174 -0.31113037 0.06932029
v -0.023440003 -0.19015184 0.052167863
v 0.023440033 -0.19015184 0.052167863
v 0.09094219 -0.31113037 0.06932029
v 0.024655402 0.23089617 0.013815045
v 0.09302008 0.321167 0.0007007718
v -0.024655372 0.23089617 0.013815045
v -0.09302005 0.321167 0.0007007718
v -0.090824544 -0.321167 -0.00069102645
v 0.090824574 -0.321167 -0.00069102645
v 0.023312628 -0.20019826 -0.01785323
v -0.023312598 -0.20019826 -0.01785323
v 0.09289266 0.31113034 -0.06932032
v 0.024410367 0.22085959 -0.056196272
v -0.09289265 0.31113034 -0.06932032
v -0.024410337 0.22085959 -0.056196272
v -0.090824544 -0.321167 -0.00069102645
v -0.090942174 -0.31113037 0.06932029
v 0.09094219 -0.31113037 0.06932029
v 0.090824574 -0.321167 -0.00069102645
v 0.023312628 -0.20019826 -0.01785323
v 0.023440033 -0.19015184 0.052167863
v -0.023440003 -0.19015184 0.052167863
v -0.023312598 -0.20019826 -0.01785323
v 0.090824574 -0.321167 -0.00069102645
v 0.09094219 -0.31113037 0.06932029
v 0.09302008 0.321167 0.0007007718
v 0.09289266 0.31113034 -0.06932032
v 0.024410367 0.22085959 -0.056196272
v 0.024655402 0.23089617 0.013815045
v 0.023440033 -0.19015184 0.052167863
v 0.023312628 -0.20019826 -0.01785323
v 0.09289266 0.31113034 -0.06932032
v 0.09302008 0.321167 0.0007007718
v -0.09302005 0.321167 0.0007007718
v -0.09289265 0.31113034 -0.06932032
v -0.024410337 0.22085959 -0.056196272
v -0.024655372 0.23089617 0.013815045
v 0.024655402 0.23089617 0.013815045
v 0.024410367 0.22085959 -0.056196272
v -0.09289265 0.31113034 -0.06932032
v -0.09302005 0.321167 0.0007007718
v -0.090942174 -0.31113037 0.06932029
v -0.090824544 -0.321167 -0.00069102645
v -0.023312598 -0.20019826 -0.01785323
v -0.023440003 -0.19015184 0.052167863
v -0.024655372 0.23089617 0.013815045
v -0.024410337 0.22085959 -0.056196272
vt 0.8660699 0.83279645
vt 0.86779094 0.83589435
vt 0.86893827 0.83589435
vt 0.87065935 0.83279645
vt 0.86893827 0.84656477
vt 0.87065935 0.8488595
vt 0.8676762 0.84656477
vt 0.8659552 0.8488595
vt 0.8659552 0.8488595
vt 0.8705446 0.8488595
vt 0.8688235 0.84576166
vt 0.8676762 0.84576166
vt 0.87065935 0.83279645
vt 0.86893827 0.8350912
vt 0.8659552 0.83279645
vt 0.8676762 0.8350912
vt 0.8721509 0.77542853
vt 0.87031513 0.77542853
vt 0.87031513 0.780018
vt 0.8721509 0.780018
vt 0.7967694 0.777838
vt 0.7967694 0.779559
vt 0.79791677 0.779559
vt 0.79791677 0.777838
vt 0.8721509 0.780018
vt 0.87031513 0.780018
vt 0.87031513 0.796081
vt 0.8721509 0.796081
vt 0.8098493 0.777838
vt 0.8098493 0.779559
vt 0.82051975 0.779559
vt 0.82051975 0.777838
vt 0.8721509 0.75477606
vt 0.87031513 0.75477606
vt 0.87031513 0.75948024
vt 0.8721509 0.75948024
vt 0.8085872 0.777838
vt 0.8085872 0.779559
vt 0.8098493 0.779559
vt 0.8098493 0.777838
vt 0.8721509 0.75948024
vt 0.87031513 0.75948024
vt 0.87031513 0.77542853
vt 0.8721509 0.77542853
vt 0.79791677 0.777838
vt 0.79791677 0.779559
vt 0.8085872 0.779559
vt 0.8085872 0.777838
vn -0.003921509 0.13725376 0.99052817
vn -0.003921509 0.13725376 0.99052817
vn -0.003921509 0.13725376 0.99052817
vn -0.003921509 0.13725376 0.99052817
vn -0.003921509 0.098038435 0.9951749
vn -0.003921509 0.098038435 0.9951749
vn -0.003921509 0.1450969 0.9894097
vn -0.003921509 0.1450969 0.9894097
vn -0.003921509 -0.13725388 -0.9905281
vn -0.003921509 -0.13725388 -0.9905281
vn -0.003921509 -0.13725388 -0.9905281
vn -0.003921509 -0.13725388 -0.9905281
vn 0.0039215684 -0.098038495 -0.9951749
vn 0.0039215684 -0.098038495 -0.9951749
vn -0.003921509 -0.14509696 -0.9894097
vn -0.003921509 -0.14509696 -0.9894097
vn -0.003921509 -0.9921493 0.124997616
vn -0.003921509 -0.9921493 0.124997616
vn -0.003921509 -0.9921493 0.124997616
vn -0.003921509 -0.9921493 0.124997616
vn -0.003921509 0.99214923 -0.12499809
vn -0.003921509 0.99214923 -0.12499809
vn -0.003921509 0.99214923 -0.12499809
vn -0.003921509 0.99214923 -0.12499809
vn 0.9999924 -0.0039215684 -0
vn 0.9999924 -0.0039215684 -0
vn 0.9999924 -0.0039215684 -0
vn 0.9999924 -0.0039215684 -0
vn -0.99999225 0.003921509 -0.00034492963
vn -0.99999225 0.003921509 -0.00034492963
vn -0.99999225 0.003921509 -0.00034492963
vn -0.99999225 0.003921509 -0.00034492963
vn -0.003921509 0.99214923 -0.12499809
vn -0.003921509 0.99214923 -0.12499809
vn -0.003921509 0.99214923 -0.12499809
vn -0.003921509 0.99214923 -0.12499809
vn -0.003921509 -0.9921493 0.124997616
vn -0.003921509 -0.9921493 0.124997616
vn -0.003921509 -0.9921493 0.124997616
vn -0.003921509 -0.9921493 0.124997616
vn -0.99999225 -0.0039215684 -0.00034425134
vn -0.99999225 -0.0039215684 -0.00034425134
vn -0.99999225 -0.0039215684 -0.00034425134
vn -0.99999225 -0.0039215684 -0.00034425134
vn 0.9999924 0.003921509 -0
vn 0.9999924 0.003921509 -0
vn 0.9999924 0.003921509 -0
vn 0.9999924 0.003921509 -0
g SniperTurret_04_0
f 3/3/3 2/2/2 1/1/1
f 4/4/4 3/3/3 1/1/1
f 5/5/5 3/3/3 4/4/4
f 6/6/6 5/5/5 4/4/4
f 7/7/7 5/5/5 6/6/6
f 8/8/8 7/7/7 6/6/6
f 2/2/2 7/7/7 8/8/8
f 1/1/1 2/2/2 8/8/8
f 11/11/11 10/10/10 9/9/9
f 12/12/12 11/11/11 9/9/9
f 14/14/14 13/13/13 10/10/10
f 11/11/11 14/14/14 10/10/10
f 16/16/16 15/15/15 13/13/13
f 14/14/14 16/16/16 13/13/13
f 12/12/12 9/9/9 15/15/15
f 16/16/16 12/12/12 15/15/15
f 19/19/19 18/18/18 17/17/17
f 20/20/20 19/19/19 17/17/17
f 23/23/23 22/22/22 21/21/21
f 24/24/24 23/23/23 21/21/21
f 27/27/27 26/26/26 25/25/25
f 28/28/28 27/27/27 25/25/25
f 31/31/31 30/30/30 29/29/29
f 32/32/32 31/31/31 29/29/29
f 35/35/35 34/34/34 33/33/33
f 36/36/36 35/35/35 33/33/33
f 39/39/39 38/38/38 37/37/37
f 40/40/40 39/39/39 37/37/37
f 43/43/43 42/42/42 41/41/41
f 44/44/44 43/43/43 41/41/41
f 47/47/47 46/46/46 45/45/45
f 48/48/48 47/47/47 45/45/45
