g SniperTurret_07
v 42.32644 59.511078 -2.5715027
v 42.32644 44.991905 -17.09282
v 60.50055 44.991905 -17.186974
v 60.50055 59.511078 -2.667801
v 42.32644 30.470589 -2.5715027
v 42.32644 44.991905 11.94767
v 60.50055 44.991905 11.853516
v 60.50055 30.470589 -2.667801
v 42.32644 44.991905 -17.09282
v 60.50055 44.991905 -17.186974
v 60.50055 30.470589 -2.667801
v 60.50055 44.991905 11.853516
v 60.50055 59.511078 -2.667801
v 60.50055 44.991905 -17.186974
v 48.11913 41.767082 -72.97185
v 49.74759 45.852142 -76.94563
v 30.09053 47.69673 -80.72682
v 30.91439 43.279984 -76.17527
v 30.91439 52.11133 -76.17527
v 48.48077 50.256042 -72.75144
v 63.34233 43.091675 -56.419777
v 46.850174 46.170982 -68.77766
v 68.32186 45.974113 -58.150948
v 46.850174 46.170982 -68.77766
v 63.34233 43.091675 -56.419777
v 65.71761 37.80828 -59.456284
v 31.740387 47.69673 -71.62372
v 31.740387 47.69673 -71.62372
v 75.06467 44.48047 -34.69558
v 70.69928 40.688576 -61.189598
v 77.20028 38.59362 -34.960926
v 69.68283 42.21218 -34.830395
v 72.70436 41.865517 -8.336372
v 71.82059 36.325333 -35.09574
v 68.861115 38.927444 -12.472786
v 71.093025 47.549072 -10.758736
v 69.68283 42.21218 -34.830395
v 57.256474 44.63668 -8.0624695
v 67.247635 44.613144 -14.895149
v 57.87918 47.664627 -1.8032837
v 67.247635 44.613144 -14.895149
v 57.256474 44.63668 -8.0624695
v 56.896973 39.494514 -3.9453125
v 57.51754 42.52247 2.3138733
vt 0.8070548 0.49173233
vt 0.75434697 0.49173233
vt 0.75434697 0.5277956
vt 0.80659246 0.5277956
vt 0.9120082 0.49173233
vt 0.8593004 0.49173233
vt 0.8593004 0.5277956
vt 0.9120082 0.5277956
vt 0.9647161 0.49173233
vt 0.9647161 0.5277956
vt 0.82138765 0.7705292
vt 0.783475 0.8084419
vt 0.82138765 0.84635454
vt 0.85883796 0.8084419
vt 0.7196708 0.77838916
vt 0.70210147 0.7788515
vt 0.69609094 0.8236994
vt 0.717359 0.82000065
vt 0.6748228 0.81583947
vt 0.6859192 0.7751527
vt 0.68360746 0.717359
vt 0.671124 0.76821744
vt 0.70025206 0.71782136
vt 0.73446596 0.77838916
vt 0.74001414 0.7238319
vt 0.7256813 0.7238319
vt 0.7321542 0.8163018
vt 0.65864056 0.80428076
vt 0.7062626 0.66049
vt 0.71412253 0.7210578
vt 0.7210578 0.6609523
vt 0.69100505 0.6614147
vt 0.7196708 0.5999222
vt 0.73354125 0.66326404
vt 0.73261654 0.6068574
vt 0.70764965 0.60362095
vt 0.7446376 0.66372645
vt 0.6854569 0.5814282
vt 0.6937792 0.6105562
vt 0.69840264 0.56894475
vt 0.7441753 0.61101854
vt 0.75018585 0.5809658
vt 0.74093884 0.5707941
vt 0.7196708 0.5592354
vn 0.0039215684 0.99999225 -0.00034526698
vn -0.003921509 0.003921509 -0.9999846
vn -0.003921509 0.003921509 -0.9999846
vn -0.003921509 0.99999225 -0.00034526698
vn 0.0039215684 -0.9999924 -0
vn 0.0039215684 0.003921509 0.9999846
vn 0.0039215684 0.003921509 0.9999846
vn -0.003921509 -0.9999924 -0
vn -0.003921509 0.003921509 -0.9999846
vn -0.003921509 0.003921509 -0.9999846
vn 0.9999924 0.003921509 -0
vn 0.9999924 0.003921509 -0
vn 0.9999924 0.003921509 -0
vn 0.9999924 0.003921509 -0
vn -0.098038435 -0.9843062 -0.14673014
vn 0.4352908 0.035293818 -0.8995978
vn 0.1999985 0.066666126 -0.97752553
vn -0.050979972 -0.97646314 -0.20957294
vn 0.14509696 0.9607769 -0.2363357
vn 0.24705696 0.9529338 -0.17572732
vn -0.8039154 0.19215536 0.56284666
vn -0.42744768 0.050979972 0.90260154
vn 0.4431339 0.8901892 -0.105809264
vn -0.42744768 0.050979972 0.90260154
vn -0.8039154 0.19215536 0.56284666
vn -0.13725376 -0.9843062 -0.11091752
vn -0.1764692 0.035293818 0.98367316
vn -0.1764692 0.035293818 0.98367316
vn 0.56078005 0.82744455 -0.029347694
vn 0.8117585 -0.16862619 -0.55911833
vn 0.94509083 -0.31764466 -0.07684513
vn -0.94306254 0.3326154 -0
vn 0.83528775 -0.21568465 0.50574154
vn -0.25449327 -0.9670746 -0
vn -0.11372459 -0.9921493 0.052024297
vn 0.5686231 0.8039154 0.17432103
vn -0.94306254 0.3326154 -0
vn -0.5450938 0.3176446 -0.77587026
vn -0.8117584 0.42744768 -0.39791554
vn 0.3411739 0.8117584 0.47397116
vn -0.8117584 0.42744768 -0.39791554
vn -0.5450938 0.3176446 -0.77587026
vn 0.0039215684 -0.9999924 -0
vn 0.5450939 -0.22352773 0.8080272
g SniperTurret_07_0
f 3/3/3 2/2/2 1/1/1
f 4/4/4 3/3/3 1/1/1
f 7/7/7 6/6/6 5/5/5
f 8/8/8 7/7/7 5/5/5
f 4/4/4 1/1/1 6/6/6
f 7/7/7 4/4/4 6/6/6
f 8/8/8 5/5/5 9/9/9
f 10/10/10 8/8/8 9/9/9
f 13/13/13 12/12/12 11/11/11
f 14/14/14 13/13/13 11/11/11
f 17/17/17 16/16/16 15/15/15
f 18/18/18 17/17/17 15/15/15
f 16/16/16 17/17/17 19/19/19
f 20/20/20 16/16/16 19/19/19
f 20/20/20 22/22/22 21/21/21
f 23/23/23 20/20/20 21/21/21
f 25/25/25 24/24/24 15/15/15
f 26/26/26 25/25/25 15/15/15
f 15/15/15 24/24/24 27/27/27
f 18/18/18 15/15/15 27/27/27
f 28/28/28 22/22/22 20/20/20
f 19/19/19 28/28/28 20/20/20
f 30/30/30 23/23/23 29/29/29
f 31/31/31 30/30/30 29/29/29
f 32/32/32 29/29/29 23/23/23
f 21/21/21 32/32/32 23/23/23
f 30/30/30 26/26/26 15/15/15
f 16/16/16 30/30/30 15/15/15
f 20/20/20 23/23/23 30/30/30
f 16/16/16 20/20/20 30/30/30
f 34/34/34 31/31/31 33/33/33
f 35/35/35 34/34/34 33/33/33
f 36/36/36 33/33/33 31/31/31
f 29/29/29 36/36/36 31/31/31
f 30/30/30 31/31/31 34/34/34
f 26/26/26 30/30/30 34/34/34
f 37/37/37 25/25/25 26/26/26
f 34/34/34 37/37/37 26/26/26
f 36/36/36 39/39/39 38/38/38
f 40/40/40 36/36/36 38/38/38
f 42/42/42 41/41/41 35/35/35
f 43/43/43 42/42/42 35/35/35
f 32/32/32 39/39/39 36/36/36
f 29/29/29 32/32/32 36/36/36
f 41/41/41 37/37/37 34/34/34
f 35/35/35 41/41/41 34/34/34
f 44/44/44 43/43/43 35/35/35
f 33/33/33 44/44/44 35/35/35
f 36/36/36 40/40/40 44/44/44
f 33/33/33 36/36/36 44/44/44
