g SniperTurret_07
v 0.1608015 1.0066705 0.28953904
v 0.1608015 0.9690369 0.23579049
v -0.16188025 0.9690369 0.23579049
v -0.16188025 1.0066705 0.28953904
v 0.1608015 1.207073 0.14921671
v 0.1608015 1.1694396 0.09546816
v 0.1608015 0.9690369 0.23579049
v 0.1608015 1.0066705 0.28953904
v -0.16188025 1.207073 0.14921671
v -0.16188025 1.0066705 0.28953904
v -0.16188025 0.9690369 0.23579049
v -0.16188025 1.1694396 0.09546816
v 0.1608015 1.207073 0.14921671
v -0.16188025 1.207073 0.14921671
v -0.16188025 1.1694396 0.09546816
v 0.1608015 1.1694396 0.09546816
v 0.1608015 0.9690369 0.23579049
v 0.1608015 1.1694396 0.09546816
v -0.16188025 1.1694396 0.09546816
v -0.16188025 0.9690369 0.23579049
v -0.16188025 1.207073 0.14921671
v 0.1608015 1.207073 0.14921671
v 0.1608015 1.0066705 0.28953904
v -0.16188025 1.0066705 0.28953904
v -0.21486712 0.5257661 0.6785614
v -0.1358391 0.6023661 0.6786091
v -0.1358391 0.6027945 0.46611422
v -0.21486712 0.5261945 0.46609038
v -0.21486712 0.6789661 0.6786328
v -0.21486712 0.6793707 0.466138
v -0.1358391 0.6023661 0.6786091
v -0.21486712 0.6023661 0.7139812
v -0.21486712 0.6789661 0.6786328
v -0.21486712 0.5257661 0.6785614
v -0.29389507 0.6023661 0.6786091
v -0.29389507 0.6023661 0.6786091
v -0.21486712 0.5257661 0.6785614
v -0.21486712 0.5261945 0.46609038
v -0.29389507 0.6027945 0.46611422
v -3.9488077E-05 0.48237205 0.73783237
v 0.10638644 0.5868461 0.73788005
v 0.10638644 0.5873698 0.45385534
v -3.9488077E-05 0.48289573 0.4538077
v -3.9488077E-05 0.69134396 0.7379276
v -3.9488077E-05 0.6918438 0.45390296
v 0.10638644 0.5868461 0.73788005
v -3.9488077E-05 0.5868699 0.7848683
v -3.9488077E-05 0.69134396 0.7379276
v -3.9488077E-05 0.48237205 0.73783237
v -0.10644165 0.5868461 0.73788005
v -0.10644165 0.5868461 0.73788005
v -3.9488077E-05 0.48237205 0.73783237
v -3.9488077E-05 0.48289573 0.4538077
v -0.10644165 0.5873698 0.45385534
v 0.14287737 0.7622073 -0.30962166
v 0.14287737 0.7622073 -0.35289663
v 0.15765941 1.1223083 -0.3368768
v 0.15765941 1.1223083 -0.3256177
v 0.23390238 0.76030296 -0.35289663
v 0.21664476 1.120404 -0.3369006
v 0.23390238 0.76030296 -0.35289663
v 0.23390238 0.76030296 -0.30962166
v 0.21664476 1.120404 -0.3256177
v 0.21664476 1.120404 -0.3369006
v 0.23390238 0.76030296 -0.30962166
v 0.21664476 1.120404 -0.3256177
v 0.21664476 1.120404 -0.3369006
v 0.21664476 1.120404 -0.3256177
v 0.15765941 1.1223083 -0.3256177
v 0.15765941 1.1223083 -0.3368768
v 0.10369663 0.8879618 0.32336396
v 0.2024102 0.96756107 0.31893647
v 0.23673502 0.761041 0.3679005
v 0.1133371 0.8358795 0.33264732
v 0.22421432 0.96801335 -0.17322698
v 0.2024102 0.96756107 0.31893647
v -0.20246542 0.96756107 0.31893647
v -0.22426951 0.96801335 -0.17322698
v 0.26998866 0.7896767 -0.20933706
v 0.22421432 0.96801335 -0.17322698
v -0.22426951 0.96801335 -0.17322698
v -0.27004385 0.7896767 -0.20933706
v 0.2024102 0.96756107 0.31893647
v 0.22421432 0.96801335 -0.17322698
v 0.26998866 0.7896767 -0.20933706
v 0.23673502 0.761041 0.3679005
v -0.23679024 0.761041 0.3679005
v -0.11339229 0.8358795 0.33264732
v 0.3480645 0.28408802 0.487109
v -0.35345173 0.28408802 0.487109
v -0.30793923 0.6756336 0.48484766
v 0.30888376 0.6756336 0.48484766
v 0.3027186 0.09675357 0.48677576
v -0.30279762 0.09675357 0.48677576
v -0.10375184 0.8879618 0.32336396
v -0.20246542 0.96756107 0.31893647
v 0.1133371 0.8358795 0.33264732
v -0.11339229 0.8358795 0.33264732
v -0.10375184 0.8879618 0.32336396
v 0.10369663 0.8879618 0.32336396
v -0.22426951 0.96801335 -0.17322698
v -0.20246542 0.96756107 0.31893647
v -0.23679024 0.761041 0.3679005
v -0.27004385 0.7896767 -0.20933706
v 0.13554586 0.6023661 0.6786091
v 0.21455005 0.5257661 0.6785614
v 0.21455005 0.5261945 0.46609038
v 0.13554586 0.6027945 0.46611422
v 0.21455005 0.6789661 0.6786328
v 0.21455005 0.6793707 0.466138
v 0.13554586 0.6023661 0.6786091
v 0.21455005 0.6789661 0.6786328
v 0.21455005 0.6023661 0.7139812
v 0.21455005 0.5257661 0.6785614
v 0.29357803 0.6023661 0.6786091
v 0.21455005 0.5257661 0.6785614
v 0.29357803 0.6023661 0.6786091
v 0.29357803 0.6027945 0.46611422
v 0.21455005 0.5261945 0.46609038
vt 0.06099634 0.5300579
vt 0.06099634 0.52897084
vt 0.06969273 0.52897084
vt 0.06969273 0.5300579
vt 0.06099634 0.5300579
vt 0.06099634 0.52897084
vt 0.06969273 0.52897084
vt 0.06969273 0.5300579
vt 0.06099634 0.5300579
vt 0.06969273 0.5300579
vt 0.06969273 0.52897084
vt 0.06099634 0.52897084
vt 0.06099634 0.5300579
vt 0.06969273 0.5300579
vt 0.06969273 0.52897084
vt 0.06099634 0.52897084
vt 0.075671494 0.53168845
vt 0.08328084 0.53168845
vt 0.08328084 0.5414719
vt 0.075671494 0.5414719
vt 0.08328084 0.5414719
vt 0.08328084 0.53168845
vt 0.075671494 0.53168845
vt 0.075671494 0.5414719
vt 0.1180664 0.543646
vt 0.1180664 0.5403848
vt 0.11480525 0.5403848
vt 0.11480525 0.543646
vt 0.1180664 0.53658015
vt 0.11480525 0.53658015
vt 0.116435826 0.521905
vt 0.116435826 0.5246226
vt 0.11915345 0.5246226
vt 0.11426173 0.5246226
vt 0.116435826 0.52734023
vt 0.1180664 0.533319
vt 0.1180664 0.5300579
vt 0.11480525 0.5300579
vt 0.11480525 0.533319
vt 0.1180664 0.543646
vt 0.1180664 0.5403848
vt 0.11480525 0.5403848
vt 0.11480525 0.543646
vt 0.1180664 0.53658015
vt 0.11480525 0.53658015
vt 0.116435826 0.5126651
vt 0.116435826 0.51592624
vt 0.11915345 0.51592624
vt 0.113718204 0.51592624
vt 0.116435826 0.5191874
vt 0.1180664 0.533319
vt 0.1180664 0.5300579
vt 0.11480525 0.5300579
vt 0.11480525 0.533319
vt 0.07077978 0.54745066
vt 0.07023625 0.54745066
vt 0.07023625 0.5583211
vt 0.07077978 0.5583211
vt 0.07295388 0.54745066
vt 0.07295388 0.5583211
vt 0.07023625 0.54745066
vt 0.07077978 0.54745066
vt 0.07077978 0.5583211
vt 0.07023625 0.5583211
vt 0.07295388 0.54745066
vt 0.07295388 0.5583211
vt 0.07295388 0.5583211
vt 0.07295388 0.5577776
vt 0.07077978 0.5577776
vt 0.07077978 0.5583211
vt 0.09849952 0.58984554
vt 0.09686895 0.5871279
vt 0.0957819 0.5936502
vt 0.09849952 0.5909326
vt 0.0957819 0.5724528
vt 0.09686895 0.5871279
vt 0.10773943 0.5871279
vt 0.10828296 0.5724528
vt 0.09523837 0.56919163
vt 0.0957819 0.5724528
vt 0.10828296 0.5724528
vt 0.10937001 0.56919163
vt 0.08925961 0.56810457
vt 0.075127974 0.56538695
vt 0.074584454 0.5621258
vt 0.091977224 0.5621258
vt 0.10828296 0.5936502
vt 0.10556534 0.5909326
vt 0.058822244 0.5398413
vt 0.03762479 0.5398413
vt 0.039255366 0.5485377
vt 0.05719167 0.5485377
vt 0.05719167 0.53440607
vt 0.039255366 0.53440607
vt 0.10556534 0.58984554
vt 0.10773943 0.5871279
vt 0.05990929 0.5528859
vt 0.06643158 0.5528859
vt 0.06643158 0.5512553
vt 0.05990929 0.5512553
vt 0.075127974 0.56538695
vt 0.08925961 0.56810457
vt 0.091977224 0.5621258
vt 0.074584454 0.5621258
vt 0.1180664 0.5403848
vt 0.1180664 0.543646
vt 0.11480525 0.543646
vt 0.11480525 0.5403848
vt 0.1180664 0.53658015
vt 0.11480525 0.53658015
vt 0.116435826 0.521905
vt 0.11915345 0.5246226
vt 0.116435826 0.5246226
vt 0.11426173 0.5246226
vt 0.116435826 0.52734023
vt 0.1180664 0.5300579
vt 0.1180664 0.533319
vt 0.11480525 0.533319
vt 0.11480525 0.5300579
vn -0.003921509 -0.8196016 0.57292044
vn -0.003921509 -0.8196016 0.57292044
vn -0.003921509 -0.8196016 0.57292044
vn -0.003921509 -0.8196016 0.57292044
vn 0.9999924 0.003921509 -0
vn 0.9999924 0.003921509 -0
vn 0.9999924 0.003921509 -0
vn 0.9999924 0.003921509 -0
vn -0.99999225 0.003921509 -0.00034492963
vn -0.99999225 0.003921509 -0.00034492963
vn -0.99999225 0.003921509 -0.00034492963
vn -0.99999225 0.003921509 -0.00034492963
vn -0.003921509 0.81960154 -0.57292056
vn -0.003921509 0.81960154 -0.57292056
vn -0.003921509 0.81960154 -0.57292056
vn -0.003921509 0.81960154 -0.57292056
vn -0.003921509 -0.5764662 -0.81711155
vn -0.003921509 -0.5764662 -0.81711155
vn -0.003921509 -0.5764662 -0.81711155
vn -0.003921509 -0.5764662 -0.81711155
vn -0.003921509 0.5764661 0.8171117
vn -0.003921509 0.5764661 0.8171117
vn -0.003921509 0.5764661 0.8171117
vn -0.003921509 0.5764661 0.8171117
vn -0.003921509 -0.9999924 -0
vn 0.9999924 -0.0039215684 -0
vn 0.9999924 0.003921509 -0
vn -0.003921509 -0.9999924 -0
vn -0.003921509 0.99999225 -0.00034526698
vn -0.003921509 0.99999225 -0.00034526698
vn 0.41176158 -0.0039215684 0.91128314
vn -0.003921509 -0.0039215684 0.9999846
vn -0.003921509 0.41960454 0.9076986
vn -0.003921509 -0.41960466 0.9076985
vn -0.41176152 -0.0039215684 0.9112832
vn -0.99999225 -0.0039215684 -0.00034425134
vn -0.003921509 -0.9999924 -0
vn -0.003921509 -0.9999924 -0
vn -0.99999225 0.003921509 -0.00034492963
vn -0.003921509 -0.9999924 -0
vn 0.9999924 -0.0039215684 -0
vn 0.9999924 0.003921509 -0
vn -0.003921509 -0.9999924 -0
vn -0.003921509 0.99999225 -0.00034526698
vn -0.003921509 0.99999225 -0.00034526698
vn 0.4039185 -0.0039215684 0.9147866
vn -0.003921509 -0.0039215684 0.9999846
vn -0.003921509 0.41176152 0.9112832
vn -0.003921509 -0.41176158 0.91128314
vn -0.4039184 -0.0039215684 0.91478664
vn -0.99999225 -0.0039215684 -0.00034425134
vn -0.003921509 -0.9999924 -0
vn -0.003921509 -0.9999924 -0
vn -0.99999225 0.003921509 -0.00034492963
vn -0.33333075 0.05882299 0.94097316
vn -0.33333075 0.05882299 -0.94097316
vn -0.3490169 0.05882299 -0.9352684
vn -0.3490169 0.05882299 0.9352684
vn 0.34901696 0.05882299 -0.9352684
vn 0.3333308 0.05882299 -0.9409731
vn 0.34901696 0.05882299 -0.9352684
vn 0.34901696 0.05882299 0.9352684
vn 0.3333308 0.05882299 0.9409731
vn 0.3333308 0.05882299 -0.9409731
vn 0.34901696 0.05882299 0.9352684
vn 0.3333308 0.05882299 0.9409731
vn 0.03527219 0.9993777 -0
vn 0.03527219 0.9993777 -0
vn 0.03527219 0.9993777 -0
vn 0.03527219 0.9993777 -0
vn -0.050979972 0.10588145 0.9930711
vn -0.066666126 0.12156761 0.99034184
vn -0.05882299 0.33333075 0.94097316
vn -0.043136835 0.35685992 0.9331614
vn -0.003921509 0.99999225 -0.00034526698
vn -0.003921509 0.99999225 -0.00034526698
vn -0.003921509 0.99999225 -0.00034526698
vn -0.003921509 0.99999225 -0.00034526698
vn -0.003921509 0.19999838 -0.97978836
vn -0.003921509 0.19999838 -0.97978836
vn -0.003921509 0.19999838 -0.97978836
vn -0.003921509 0.19999838 -0.97978836
vn 0.97646314 0.20784152 0.057633866
vn 0.97646314 0.20784152 0.057633866
vn 0.97646314 0.20784152 0.057633866
vn 0.97646314 0.20784152 0.057633866
vn 0.05882311 0.33333075 0.94097316
vn 0.043136954 0.35685992 0.9331614
vn -0.003921509 0.003921509 0.9999846
vn -0.003921509 0.003921509 0.9999846
vn -0.003921509 0.003921509 0.9999846
vn -0.003921509 0.003921509 0.9999846
vn -0.003921509 -0.0039215684 0.9999846
vn -0.003921509 -0.0039215684 0.9999846
vn 0.05098003 0.10588145 0.9930711
vn 0.066666186 0.12156761 0.99034184
vn -0.003921509 0.1764692 0.98429835
vn -0.003921509 0.1764692 0.98429835
vn -0.003921509 0.1764692 0.98429835
vn -0.003921509 0.1764692 0.98429835
vn -0.9764631 0.20784152 0.0576349
vn -0.9764631 0.20784152 0.0576349
vn -0.9764631 0.20784152 0.0576349
vn -0.9764631 0.20784152 0.0576349
vn -0.99999225 -0.0039215684 -0.00034425134
vn -0.003921509 -0.9999924 -0
vn -0.003921509 -0.9999924 -0
vn -0.99999225 0.003921509 -0.00034492963
vn -0.003921509 0.99999225 -0.00034526698
vn -0.003921509 0.99999225 -0.00034526698
vn -0.41176152 -0.0039215684 0.9112832
vn -0.003921509 0.41960454 0.9076986
vn -0.003921509 -0.0039215684 0.9999846
vn -0.003921509 -0.41960466 0.9076985
vn 0.41176158 -0.0039215684 0.91128314
vn -0.003921509 -0.9999924 -0
vn 0.9999924 -0.0039215684 -0
vn 0.9999924 0.003921509 -0
vn -0.003921509 -0.9999924 -0
g SniperTurret_07_0
f 3/3/3 2/2/2 1/1/1
f 4/4/4 3/3/3 1/1/1
f 7/7/7 6/6/6 5/5/5
f 8/8/8 7/7/7 5/5/5
f 11/11/11 10/10/10 9/9/9
f 12/12/12 11/11/11 9/9/9
f 15/15/15 14/14/14 13/13/13
f 16/16/16 15/15/15 13/13/13
f 19/19/19 18/18/18 17/17/17
f 20/20/20 19/19/19 17/17/17
f 23/23/23 22/22/22 21/21/21
f 24/24/24 23/23/23 21/21/21
f 27/27/27 26/26/26 25/25/25
f 28/28/28 27/27/27 25/25/25
f 30/30/30 29/29/29 26/26/26
f 27/27/27 30/30/30 26/26/26
f 33/33/33 32/32/32 31/31/31
f 32/32/32 34/34/34 31/31/31
f 33/33/33 35/35/35 32/32/32
f 35/35/35 34/34/34 32/32/32
f 38/38/38 37/37/37 36/36/36
f 39/39/39 38/38/38 36/36/36
f 39/39/39 36/36/36 29/29/29
f 30/30/30 39/39/39 29/29/29
f 42/42/42 41/41/41 40/40/40
f 43/43/43 42/42/42 40/40/40
f 45/45/45 44/44/44 41/41/41
f 42/42/42 45/45/45 41/41/41
f 48/48/48 47/47/47 46/46/46
f 47/47/47 49/49/49 46/46/46
f 48/48/48 50/50/50 47/47/47
f 50/50/50 49/49/49 47/47/47
f 53/53/53 52/52/52 51/51/51
f 54/54/54 53/53/53 51/51/51
f 54/54/54 51/51/51 44/44/44
f 45/45/45 54/54/54 44/44/44
f 57/57/57 56/56/56 55/55/55
f 58/58/58 57/57/57 55/55/55
f 60/60/60 59/59/59 56/56/56
f 57/57/57 60/60/60 56/56/56
f 63/63/63 62/62/62 61/61/61
f 64/64/64 63/63/63 61/61/61
f 58/58/58 55/55/55 65/65/65
f 66/66/66 58/58/58 65/65/65
f 69/69/69 68/68/68 67/67/67
f 70/70/70 69/69/69 67/67/67
f 73/73/73 72/72/72 71/71/71
f 74/74/74 73/73/73 71/71/71
f 77/77/77 76/76/76 75/75/75
f 78/78/78 77/77/77 75/75/75
f 81/81/81 80/80/80 79/79/79
f 82/82/82 81/81/81 79/79/79
f 85/85/85 84/84/84 83/83/83
f 86/86/86 85/85/85 83/83/83
f 74/74/74 88/88/88 87/87/87
f 73/73/73 74/74/74 87/87/87
f 91/91/91 90/90/90 89/89/89
f 92/92/92 91/91/91 89/89/89
f 94/94/94 93/93/93 89/89/89
f 90/90/90 94/94/94 89/89/89
f 95/95/95 71/71/71 72/72/72
f 96/96/96 95/95/95 72/72/72
f 99/99/99 98/98/98 97/97/97
f 100/100/100 99/99/99 97/97/97
f 103/103/103 102/102/102 101/101/101
f 104/104/104 103/103/103 101/101/101
f 95/95/95 96/96/96 87/87/87
f 88/88/88 95/95/95 87/87/87
f 107/107/107 106/106/106 105/105/105
f 108/108/108 107/107/107 105/105/105
f 108/108/108 105/105/105 109/109/109
f 110/110/110 108/108/108 109/109/109
f 113/113/113 112/112/112 111/111/111
f 114/114/114 113/113/113 111/111/111
f 115/115/115 112/112/112 113/113/113
f 114/114/114 115/115/115 113/113/113
f 118/118/118 117/117/117 116/116/116
f 119/119/119 118/118/118 116/116/116
f 110/110/110 109/109/109 117/117/117
f 118/118/118 110/110/110 117/117/117
