g SpawnEffect_RingMesh
v 1.6032691 3.2663345E-05 -0.5209311
v 2.0344677 1.4289615 -0.66102993
v 1.7306376 1.4289615 -1.2573962
v 1.363874 3.2663345E-05 -0.99090827
v 1.2573962 1.4289615 -1.7306376
v 0.99090827 3.2663345E-05 -1.3638086
v 0.66102993 1.4289615 -2.0344677
v 0.5209311 3.2663345E-05 -1.6032691
v -3.2663345E-05 1.4289615 -2.1391828
v -3.2663345E-05 3.2663345E-05 -1.6857877
v -0.6610298 1.4289615 -2.0344677
v -0.520931 3.2663345E-05 -1.6032691
v -1.2573962 1.4289615 -1.7306376
v -0.99090815 3.2663345E-05 -1.3638086
v -1.7306376 1.4289615 -1.2573962
v -1.3638737 3.2663345E-05 -0.99090827
v -2.0344675 1.4289615 -0.66102993
v -1.6032691 3.2663345E-05 -0.5209311
v -2.1391828 1.4289615 3.2663345E-05
v -1.6857877 3.2663345E-05 3.2663345E-05
v -2.0344675 1.4289615 0.6610298
v -1.6032691 3.2663345E-05 0.520931
v -1.7306376 1.4289615 1.2573962
v -1.3638737 3.2663345E-05 0.99090815
v -1.2573962 1.4289615 1.7306376
v -0.99090815 3.2663345E-05 1.3638737
v -0.6610298 1.4289615 2.0344675
v -0.520931 3.2663345E-05 1.6032691
v -3.2663345E-05 1.4289615 2.1391828
v -3.2663345E-05 3.2663345E-05 1.6857877
v 0.66102993 1.4289615 2.0344675
v 0.5209311 3.2663345E-05 1.6032691
v 1.2573962 1.4289615 1.7306376
v 0.99090827 3.2663345E-05 1.3638737
v 1.7306376 1.4289615 1.2573962
v 1.363874 3.2663345E-05 0.99090815
v 2.0344677 1.4289615 0.6610298
v 1.6032691 3.2663345E-05 0.520931
v 2.1391828 1.4289615 3.2663345E-05
v 1.6857877 3.2663345E-05 3.2663345E-05
vt 0.8528469 0.026916742
vt 0.948111 0.97308314
vt 0.8805937 0.97308314
vt 0.800128 0.026916742
vt 0.7770056 0.97308314
vt 0.7178124 0.026916742
vt 0.6456707 0.97308314
vt 0.6142243 0.026916742
vt 0.5004624 0.97308314
vt 0.5004624 0.026916742
vt 0.35432914 0.97308314
vt 0.38577554 0.026916742
vt 0.22299422 0.97308314
vt 0.28218743 0.026916742
vt 0.11940613 0.97308314
vt 0.19987188 0.026916742
vt 0.051888876 0.97308314
vt 0.14715293 0.026916742
vt 0.029691424 0.97308314
vt 0.12865506 0.026916742
vt 0.051888876 0.97308314
vt 0.14715293 0.026916742
vt 0.11940613 0.97308314
vt 0.19987188 0.026916742
vt 0.22299422 0.97308314
vt 0.28218743 0.026916742
vt 0.35432914 0.97308314
vt 0.38577554 0.026916742
vt 0.5004624 0.97308314
vt 0.5004624 0.026916742
vt 0.6456707 0.97308314
vt 0.6142243 0.026916742
vt 0.7770056 0.97308314
vt 0.7178124 0.026916742
vt 0.8805937 0.97308314
vt 0.800128 0.026916742
vt 0.948111 0.97308314
vt 0.8528469 0.026916742
vt 0.9703084 0.97308314
vt 0.8713448 0.026916742
vn 0.90822256 -0.3027408 -0.28892872
vn 0.90822256 -0.3027408 -0.28892872
vn 0.77367103 -0.3027408 -0.5565798
vn 0.77367103 -0.3027408 -0.5565798
vn 0.55689365 -0.3027408 -0.7734452
vn 0.55689365 -0.3027408 -0.7734452
vn 0.29526573 -0.3027408 -0.90618217
vn 0.29526573 -0.3027408 -0.90618217
vn 0.0037375093 -0.3027408 -0.95306563
vn 0.0037375093 -0.3027408 -0.95306563
vn -0.2952658 -0.3027408 -0.90618217
vn -0.2952658 -0.3027408 -0.90618217
vn -0.5568937 -0.3027408 -0.7734452
vn -0.5568937 -0.3027408 -0.7734452
vn -0.77367103 -0.3027408 -0.5565798
vn -0.77367103 -0.3027408 -0.5565798
vn -0.90822256 -0.3027408 -0.28892872
vn -0.90822256 -0.3027408 -0.28892872
vn -0.9530729 -0.30274078 -0
vn -0.9530729 -0.30274078 -0
vn -0.90822256 -0.3027408 0.28892872
vn -0.90822256 -0.3027408 0.28892872
vn -0.77367103 -0.3027408 0.5565798
vn -0.77367103 -0.3027408 0.5565798
vn -0.5568937 -0.3027408 0.7734452
vn -0.5568937 -0.3027408 0.7734452
vn -0.2952658 -0.3027408 0.90618217
vn -0.2952658 -0.3027408 0.90618217
vn 0.0037375093 -0.3027408 0.95306563
vn 0.0037375093 -0.3027408 0.95306563
vn 0.29526573 -0.3027408 0.90618217
vn 0.29526573 -0.3027408 0.90618217
vn 0.55689365 -0.3027408 0.7734452
vn 0.55689365 -0.3027408 0.7734452
vn 0.77367103 -0.3027408 0.5565798
vn 0.77367103 -0.3027408 0.5565798
vn 0.90822256 -0.3027408 0.28892872
vn 0.90822256 -0.3027408 0.28892872
vn 0.9530729 -0.30274078 -0
vn 0.9530729 -0.30274078 -0
g SpawnEffect_RingMesh_0
f 3/3/3 2/2/2 1/1/1
f 4/4/4 3/3/3 1/1/1
f 5/5/5 3/3/3 4/4/4
f 6/6/6 5/5/5 4/4/4
f 7/7/7 5/5/5 6/6/6
f 8/8/8 7/7/7 6/6/6
f 9/9/9 7/7/7 8/8/8
f 10/10/10 9/9/9 8/8/8
f 11/11/11 9/9/9 10/10/10
f 12/12/12 11/11/11 10/10/10
f 13/13/13 11/11/11 12/12/12
f 14/14/14 13/13/13 12/12/12
f 15/15/15 13/13/13 14/14/14
f 16/16/16 15/15/15 14/14/14
f 17/17/17 15/15/15 16/16/16
f 18/18/18 17/17/17 16/16/16
f 19/19/19 17/17/17 18/18/18
f 20/20/20 19/19/19 18/18/18
f 21/21/21 19/19/19 20/20/20
f 22/22/22 21/21/21 20/20/20
f 23/23/23 21/21/21 22/22/22
f 24/24/24 23/23/23 22/22/22
f 25/25/25 23/23/23 24/24/24
f 26/26/26 25/25/25 24/24/24
f 27/27/27 25/25/25 26/26/26
f 28/28/28 27/27/27 26/26/26
f 29/29/29 27/27/27 28/28/28
f 30/30/30 29/29/29 28/28/28
f 31/31/31 29/29/29 30/30/30
f 32/32/32 31/31/31 30/30/30
f 33/33/33 31/31/31 32/32/32
f 34/34/34 33/33/33 32/32/32
f 35/35/35 33/33/33 34/34/34
f 36/36/36 35/35/35 34/34/34
f 37/37/37 35/35/35 36/36/36
f 38/38/38 37/37/37 36/36/36
f 39/39/39 37/37/37 38/38/38
f 40/40/40 39/39/39 38/38/38
f 2/2/2 39/39/39 40/40/40
f 1/1/1 2/2/2 40/40/40
