g SpawnEffect_RingMesh2
v 2.1206882 3.4332275E-05 -0.689044
v 2.0344684 0.16546488 -0.66107523
v 1.7306232 0.16546488 -1.2574009
v 1.8039817 3.4332275E-05 -1.3106843
v 1.2574009 0.16546488 -1.7306232
v 1.3106843 3.4332275E-05 -1.8039817
v 0.66107523 0.16546488 -2.0344684
v 0.689044 3.4332275E-05 -2.1206882
v 3.385544E-05 0.16546488 -2.1391978
v 3.385544E-05 3.4332275E-05 -2.229841
v -0.66107583 0.16546488 -2.0344684
v -0.6890445 3.4332275E-05 -2.1206882
v -1.2574015 0.16546488 -1.7306232
v -1.3106849 3.4332275E-05 -1.8039817
v -1.730624 0.16546488 -1.2574009
v -1.803982 3.4332275E-05 -1.3106843
v -2.034469 0.16546488 -0.66100717
v -2.1206887 3.4332275E-05 -0.689044
v -2.1391985 0.16546488 3.4332275E-05
v -2.2298415 3.4332275E-05 3.4332275E-05
v -2.034469 0.16546488 0.66107583
v -2.1206887 3.4332275E-05 0.6890445
v -1.730624 0.16546488 1.2574015
v -1.803982 3.4332275E-05 1.3106849
v -1.2574015 0.16546488 1.730624
v -1.3106849 3.4332275E-05 1.803982
v -0.66107583 0.16546488 2.034469
v -0.6890445 3.4332275E-05 2.1206887
v 3.385544E-05 0.16546488 2.1391985
v 3.385544E-05 3.4332275E-05 2.2298415
v 0.66107523 0.16546488 2.034469
v 0.689044 3.4332275E-05 2.1206887
v 1.2574009 0.16546488 1.730624
v 1.3106843 3.4332275E-05 1.803982
v 1.7306232 0.16546488 1.2574015
v 1.8039817 3.4332275E-05 1.3106849
v 2.0344684 0.16546488 0.66107583
v 2.1206882 3.4332275E-05 0.6890445
v 2.1391978 0.16546488 3.4332275E-05
v 2.229841 3.4332275E-05 3.4332275E-05
v 2.0344684 0.16546488 -0.66107523
v 1.6384151 0.16546488 -0.53232396
v 1.3937058 0.16546488 -1.0125556
v 1.7306232 0.16546488 -1.2574009
v 1.0125556 0.16546488 -1.3937058
v 1.2574009 0.16546488 -1.7306232
v 0.53232396 0.16546488 -1.6384151
v 0.66107523 0.16546488 -2.0344684
v 3.385544E-05 0.16546488 -1.7227294
v 3.385544E-05 0.16546488 -2.1391978
v -0.53232455 0.16546488 -1.6384151
v -0.66107583 0.16546488 -2.0344684
v -1.0125561 0.16546488 -1.3937058
v -1.2574015 0.16546488 -1.7306232
v -1.3937063 0.16546488 -1.0125556
v -1.730624 0.16546488 -1.2574009
v -1.6384156 0.16546488 -0.53232396
v -2.034469 0.16546488 -0.66100717
v -1.7227299 0.16546488 3.4332275E-05
v -2.1391985 0.16546488 3.4332275E-05
v -1.6384156 0.16546488 0.53232455
v -2.034469 0.16546488 0.66107583
v -1.3937063 0.16546488 1.0125561
v -1.730624 0.16546488 1.2574015
v -1.0125561 0.16546488 1.3937063
v -1.2574015 0.16546488 1.730624
v -0.53232455 0.16546488 1.6384156
v -0.66107583 0.16546488 2.034469
v 3.385544E-05 0.16546488 1.7227299
v 3.385544E-05 0.16546488 2.1391985
v 0.53232396 0.16546488 1.6384156
v 0.66107523 0.16546488 2.034469
v 1.0125556 0.16546488 1.3937063
v 1.2574009 0.16546488 1.730624
v 1.3937058 0.16546488 1.0125561
v 1.7306232 0.16546488 1.2574015
v 1.6384151 0.16546488 0.53232455
v 2.0344684 0.16546488 0.66107583
v 1.7227294 0.16546488 3.4332275E-05
v 2.1391978 0.16546488 3.4332275E-05
v 1.6384151 0.16546488 -0.53232396
v 1.6384151 3.4332275E-05 -0.53232396
v 1.3937058 3.4332275E-05 -1.0125556
v 1.3937058 0.16546488 -1.0125556
v 1.3937058 0.16546488 -1.0125556
v 1.3937058 3.4332275E-05 -1.0125556
v 1.0125556 3.4332275E-05 -1.3937058
v 1.0125556 0.16546488 -1.3937058
v 1.0125556 0.16546488 -1.3937058
v 1.0125556 3.4332275E-05 -1.3937058
v 0.53232396 3.4332275E-05 -1.6384151
v 0.53232396 0.16546488 -1.6384151
v 0.53232396 0.16546488 -1.6384151
v 0.53232396 3.4332275E-05 -1.6384151
v 3.385544E-05 3.4332275E-05 -1.7227294
v 3.385544E-05 0.16546488 -1.7227294
v 3.385544E-05 0.16546488 -1.7227294
v 3.385544E-05 3.4332275E-05 -1.7227294
v -0.53232455 3.4332275E-05 -1.6384151
v -0.53232455 0.16546488 -1.6384151
v -0.53232455 0.16546488 -1.6384151
v -0.53232455 3.4332275E-05 -1.6384151
v -1.0125561 3.4332275E-05 -1.3937058
v -1.0125561 0.16546488 -1.3937058
v -1.0125561 0.16546488 -1.3937058
v -1.0125561 3.4332275E-05 -1.3937058
v -1.3937063 3.4332275E-05 -1.0125556
v -1.3937063 0.16546488 -1.0125556
v -1.3937063 0.16546488 -1.0125556
v -1.3937063 3.4332275E-05 -1.0125556
v -1.6384156 3.4332275E-05 -0.53232396
v -1.6384156 0.16546488 -0.53232396
v -1.6384156 0.16546488 -0.53232396
v -1.6384156 3.4332275E-05 -0.53232396
v -1.7227299 3.4332275E-05 3.4332275E-05
v -1.7227299 0.16546488 3.4332275E-05
v -1.7227299 0.16546488 3.4332275E-05
v -1.7227299 3.4332275E-05 3.4332275E-05
v -1.6384156 3.4332275E-05 0.53232455
v -1.6384156 0.16546488 0.53232455
v -1.6384156 0.16546488 0.53232455
v -1.6384156 3.4332275E-05 0.53232455
v -1.3937063 3.4332275E-05 1.0125561
v -1.3937063 0.16546488 1.0125561
v -1.3937063 0.16546488 1.0125561
v -1.3937063 3.4332275E-05 1.0125561
v -1.0125561 3.4332275E-05 1.3937063
v -1.0125561 0.16546488 1.3937063
v -1.0125561 0.16546488 1.3937063
v -1.0125561 3.4332275E-05 1.3937063
v -0.53232455 3.4332275E-05 1.6384156
v -0.53232455 0.16546488 1.6384156
v -0.53232455 0.16546488 1.6384156
v -0.53232455 3.4332275E-05 1.6384156
v 3.385544E-05 3.4332275E-05 1.7227299
v 3.385544E-05 0.16546488 1.7227299
v 3.385544E-05 0.16546488 1.7227299
v 3.385544E-05 3.4332275E-05 1.7227299
v 0.53232396 3.4332275E-05 1.6384156
v 0.53232396 0.16546488 1.6384156
v 0.53232396 0.16546488 1.6384156
v 0.53232396 3.4332275E-05 1.6384156
v 1.0125556 3.4332275E-05 1.3937063
v 1.0125556 0.16546488 1.3937063
v 1.0125556 0.16546488 1.3937063
v 1.0125556 3.4332275E-05 1.3937063
v 1.3937058 3.4332275E-05 1.0125561
v 1.3937058 0.16546488 1.0125561
v 1.3937058 0.16546488 1.0125561
v 1.3937058 3.4332275E-05 1.0125561
v 1.6384151 3.4332275E-05 0.53232455
v 1.6384151 0.16546488 0.53232455
v 1.6384151 0.16546488 0.53232455
v 1.6384151 3.4332275E-05 0.53232455
v 1.7227294 3.4332275E-05 3.4332275E-05
v 1.7227294 0.16546488 3.4332275E-05
v 1.7227294 0.16546488 3.4332275E-05
v 1.7227294 3.4332275E-05 3.4332275E-05
v 1.6384151 3.4332275E-05 -0.53232396
v 1.6384151 0.16546488 -0.53232396
vt 0.5452561 0.5147443
vt 0.5433956 0.5140931
vt 0.53688395 0.52683735
vt 0.5384653 0.5279536
vt 0.52683735 0.53688395
vt 0.5279536 0.5384653
vt 0.5140931 0.5433956
vt 0.5147443 0.5452561
vt 0.5000465 0.5456282
vt 0.5000465 0.5475817
vt 0.4859069 0.5433956
vt 0.48525572 0.5452561
vt 0.47316262 0.53688395
vt 0.47204635 0.5384653
vt 0.46311605 0.52683735
vt 0.46153465 0.5279536
vt 0.4566044 0.5140931
vt 0.45474392 0.5147443
vt 0.45437184 0.5000465
vt 0.45241833 0.5000465
vt 0.4566044 0.4859069
vt 0.45474392 0.48525572
vt 0.46311605 0.47316262
vt 0.46153465 0.47204635
vt 0.47316262 0.46311605
vt 0.47204635 0.46153465
vt 0.4859069 0.4566044
vt 0.48525572 0.45474392
vt 0.5000465 0.45437184
vt 0.5000465 0.45241833
vt 0.5140931 0.4566044
vt 0.5147443 0.45474392
vt 0.52683735 0.46311605
vt 0.5279536 0.46153465
vt 0.53688395 0.47316262
vt 0.5384653 0.47204635
vt 0.5433956 0.4859069
vt 0.5452561 0.48525572
vt 0.5456282 0.5000465
vt 0.5475817 0.5000465
vt 0.5433956 0.5140931
vt 0.525442 0.50832564
vt 0.52172107 0.5157675
vt 0.53688395 0.52683735
vt 0.5157675 0.52172107
vt 0.52683735 0.53688395
vt 0.50832564 0.525442
vt 0.5140931 0.5433956
vt 0.5000465 0.52683735
vt 0.5000465 0.5456282
vt 0.49167436 0.525442
vt 0.4859069 0.5433956
vt 0.48423246 0.52172107
vt 0.47316262 0.53688395
vt 0.47827893 0.5157675
vt 0.46311605 0.52683735
vt 0.474558 0.50832564
vt 0.4566044 0.5140931
vt 0.47316262 0.5000465
vt 0.45437184 0.5000465
vt 0.474558 0.49167436
vt 0.4566044 0.4859069
vt 0.47827893 0.48423246
vt 0.46311605 0.47316262
vt 0.48423246 0.47827893
vt 0.47316262 0.46311605
vt 0.49167436 0.474558
vt 0.4859069 0.4566044
vt 0.5000465 0.47316262
vt 0.5000465 0.45437184
vt 0.50832564 0.474558
vt 0.5140931 0.4566044
vt 0.5157675 0.47827893
vt 0.52683735 0.46311605
vt 0.52172107 0.48423246
vt 0.53688395 0.47316262
vt 0.525442 0.49167436
vt 0.5433956 0.4859069
vt 0.52683735 0.5000465
vt 0.5456282 0.5000465
vt 0.525442 0.50832564
vt 0.52600014 0.5084187
vt 0.5220932 0.5160466
vt 0.52172107 0.5157675
vt 0.52172107 0.5157675
vt 0.5220932 0.5160466
vt 0.5160466 0.5220932
vt 0.5157675 0.52172107
vt 0.5157675 0.52172107
vt 0.5160466 0.5220932
vt 0.5084187 0.52600014
vt 0.50832564 0.525442
vt 0.50832564 0.525442
vt 0.5084187 0.52600014
vt 0.5000465 0.5273025
vt 0.5000465 0.52683735
vt 0.5000465 0.52683735
vt 0.5000465 0.5273025
vt 0.49158135 0.52600014
vt 0.49167436 0.525442
vt 0.49167436 0.525442
vt 0.49158135 0.52600014
vt 0.4839534 0.5220932
vt 0.48423246 0.52172107
vt 0.48423246 0.52172107
vt 0.4839534 0.5220932
vt 0.47790685 0.5160466
vt 0.47827893 0.5157675
vt 0.47827893 0.5157675
vt 0.47790685 0.5160466
vt 0.47399986 0.5084187
vt 0.474558 0.50832564
vt 0.474558 0.50832564
vt 0.47399986 0.5084187
vt 0.47269753 0.5000465
vt 0.47316262 0.5000465
vt 0.47316262 0.5000465
vt 0.47269753 0.5000465
vt 0.47399986 0.49158135
vt 0.474558 0.49167436
vt 0.474558 0.49167436
vt 0.47399986 0.49158135
vt 0.47790685 0.4839534
vt 0.47827893 0.48423246
vt 0.47827893 0.48423246
vt 0.47790685 0.4839534
vt 0.4839534 0.47790685
vt 0.48423246 0.47827893
vt 0.48423246 0.47827893
vt 0.4839534 0.47790685
vt 0.49158135 0.47399986
vt 0.49167436 0.474558
vt 0.49167436 0.474558
vt 0.49158135 0.47399986
vt 0.5000465 0.47269753
vt 0.5000465 0.47316262
vt 0.5000465 0.47316262
vt 0.5000465 0.47269753
vt 0.5084187 0.47399986
vt 0.50832564 0.474558
vt 0.50832564 0.474558
vt 0.5084187 0.47399986
vt 0.5160466 0.47790685
vt 0.5157675 0.47827893
vt 0.5157675 0.47827893
vt 0.5160466 0.47790685
vt 0.5220932 0.4839534
vt 0.52172107 0.48423246
vt 0.52172107 0.48423246
vt 0.5220932 0.4839534
vt 0.52600014 0.49158135
vt 0.525442 0.49167436
vt 0.525442 0.49167436
vt 0.52600014 0.49158135
vt 0.5273025 0.5000465
vt 0.52683735 0.5000465
vt 0.52683735 0.5000465
vt 0.5273025 0.5000465
vt 0.52600014 0.5084187
vt 0.525442 0.50832564
vn 0.90974015 -0.30174202 -0.28517473
vn 0.90974015 -0.30174202 -0.28517473
vn 0.7694329 -0.30174202 -0.5629607
vn 0.7694329 -0.30174202 -0.5629607
vn 0.558972 -0.30174202 -0.77233547
vn 0.558972 -0.30174202 -0.77233547
vn 0.29394716 -0.30174202 -0.9069437
vn 0.29394716 -0.30174202 -0.9069437
vn -0.002257049 -0.30174202 -0.95338696
vn -0.002257049 -0.30174202 -0.95338696
vn -0.2906664 -0.30174202 -0.90800047
vn -0.2906664 -0.30174202 -0.90800047
vn -0.56348604 -0.30174202 -0.7690483
vn -0.56348604 -0.30174202 -0.7690483
vn -0.77394694 -0.30174202 -0.5567387
vn -0.77394694 -0.30174202 -0.5567387
vn -0.9064594 -0.30174202 -0.2954372
vn -0.9064594 -0.30174202 -0.2954372
vn -0.9532284 -0.30174202 -0.017530376
vn -0.9532284 -0.30174202 -0.017530376
vn -0.9064594 -0.30174202 0.2954372
vn -0.9064594 -0.30174202 0.2954372
vn -0.77394694 -0.30174202 0.5567387
vn -0.77394694 -0.30174202 0.5567387
vn -0.56348604 -0.30174202 0.7690483
vn -0.56348604 -0.30174202 0.7690483
vn -0.2906664 -0.30174202 0.90800047
vn -0.2906664 -0.30174202 0.90800047
vn -0.002257049 -0.30174202 0.95338696
vn -0.002257049 -0.30174202 0.95338696
vn 0.29394716 -0.30174202 0.9069437
vn 0.29394716 -0.30174202 0.9069437
vn 0.558972 -0.30174202 0.77233547
vn 0.558972 -0.30174202 0.77233547
vn 0.7694329 -0.30174202 0.5629607
vn 0.7694329 -0.30174202 0.5629607
vn 0.90974015 -0.30174202 0.28517473
vn 0.90974015 -0.30174202 0.28517473
vn 0.9536724 -0.3008471 -0
vn 0.9536724 -0.3008471 -0
vn -0.0022570489 0.99999744 -0
vn -0.0022570489 0.99999744 -0
vn -0.0022570489 0.99999744 -0
vn -0.0022570489 0.99999744 -0
vn -0.0022570489 0.99999744 -0
vn -0.0022570489 0.99999744 -0
vn -0.0022570489 0.99999744 -0
vn -0.0022570489 0.99999744 -0
vn -0.0022570489 0.99999744 -0
vn -0.0022570489 0.99999744 -0
vn -0.0022570489 0.99999744 -0
vn -0.0022570489 0.99999744 -0
vn -0.0022570489 0.99999744 -0
vn -0.0022570489 0.99999744 -0
vn -0.0022570489 0.99999744 -0
vn -0.0022570489 0.99999744 -0
vn -0.0022570489 0.99999744 -0
vn -0.0022570489 0.99999744 -0
vn -0.0022570489 0.99999744 -0
vn -0.0022570489 0.99999744 -0
vn -0.0022570489 0.99999744 -0
vn -0.0022570489 0.99999744 -0
vn -0.0022570489 0.99999744 -0
vn -0.0022570489 0.99999744 -0
vn -0.0022570489 0.99999744 -0
vn -0.0022570489 0.99999744 -0
vn -0.0022570489 0.99999744 -0
vn -0.0022570489 0.99999744 -0
vn -0.0022570489 0.99999744 -0
vn -0.0022570489 0.99999744 -0
vn -0.0022570489 0.99999744 -0
vn -0.0022570489 0.99999744 -0
vn -0.0022570489 0.99999744 -0
vn -0.0022570489 0.99999744 -0
vn -0.0022570489 0.99999744 -0
vn -0.0022570489 0.99999744 -0
vn -0.0022570489 0.99999744 -0
vn -0.0022570489 0.99999744 -0
vn -0.0022570489 0.99999744 -0
vn -0.0022570489 0.99999744 -0
vn -0.8908697 0.002257049 0.45425338
vn -0.8908697 0.002257049 0.45425338
vn -0.8908697 0.002257049 0.45425338
vn -0.8908697 0.002257049 0.45425338
vn -0.70379335 0.002257049 0.7104012
vn -0.70379335 0.002257049 0.7104012
vn -0.70379335 0.002257049 0.7104012
vn -0.70379335 0.002257049 0.7104012
vn -0.45435816 0.002257049 0.8908163
vn -0.45435816 0.002257049 0.8908163
vn -0.45435816 0.002257049 0.8908163
vn -0.45435816 0.002257049 0.8908163
vn -0.15815395 0.002257049 0.9874119
vn -0.15815395 0.002257049 0.9874119
vn -0.15815395 0.002257049 0.9874119
vn -0.15815395 0.002257049 0.9874119
vn 0.15363991 0.002257049 0.9881243
vn 0.15363991 0.002257049 0.9881243
vn 0.15363991 0.002257049 0.9881243
vn 0.15363991 0.002257049 0.9881243
vn 0.45763898 0.002257049 0.88913524
vn 0.45763898 0.002257049 0.88913524
vn 0.45763898 0.002257049 0.88913524
vn 0.45763898 0.002257049 0.88913524
vn 0.70707405 0.002257049 0.7071359
vn 0.70707405 0.002257049 0.7071359
vn 0.70707405 0.002257049 0.7071359
vn 0.70707405 0.002257049 0.7071359
vn 0.89415044 0.002257049 0.447761
vn 0.89415044 0.002257049 0.447761
vn 0.89415044 0.002257049 0.447761
vn 0.89415044 0.002257049 0.447761
vn 0.9876886 0.002257049 0.15641652
vn 0.9876886 0.002257049 0.15641652
vn 0.9876886 0.002257049 0.15641652
vn 0.9876886 0.002257049 0.15641652
vn 0.9876886 0.002257049 -0.15641652
vn 0.9876886 0.002257049 -0.15641652
vn 0.9876886 0.002257049 -0.15641652
vn 0.9876886 0.002257049 -0.15641652
vn 0.89415044 0.002257049 -0.447761
vn 0.89415044 0.002257049 -0.447761
vn 0.89415044 0.002257049 -0.447761
vn 0.89415044 0.002257049 -0.447761
vn 0.70707405 0.002257049 -0.7071359
vn 0.70707405 0.002257049 -0.7071359
vn 0.70707405 0.002257049 -0.7071359
vn 0.70707405 0.002257049 -0.7071359
vn 0.45763898 0.002257049 -0.88913524
vn 0.45763898 0.002257049 -0.88913524
vn 0.45763898 0.002257049 -0.88913524
vn 0.45763898 0.002257049 -0.88913524
vn 0.15363991 0.002257049 -0.9881243
vn 0.15363991 0.002257049 -0.9881243
vn 0.15363991 0.002257049 -0.9881243
vn 0.15363991 0.002257049 -0.9881243
vn -0.15815395 0.002257049 -0.9874119
vn -0.15815395 0.002257049 -0.9874119
vn -0.15815395 0.002257049 -0.9874119
vn -0.15815395 0.002257049 -0.9874119
vn -0.45435816 0.002257049 -0.8908163
vn -0.45435816 0.002257049 -0.8908163
vn -0.45435816 0.002257049 -0.8908163
vn -0.45435816 0.002257049 -0.8908163
vn -0.70379335 0.002257049 -0.7104012
vn -0.70379335 0.002257049 -0.7104012
vn -0.70379335 0.002257049 -0.7104012
vn -0.70379335 0.002257049 -0.7104012
vn -0.8908697 0.002257049 -0.45425338
vn -0.8908697 0.002257049 -0.45425338
vn -0.8908697 0.002257049 -0.45425338
vn -0.8908697 0.002257049 -0.45425338
vn -0.98440784 0.002257049 -0.1758866
vn -0.98440784 0.002257049 -0.1758866
vn -0.98440784 0.002257049 -0.1758866
vn -0.98440784 0.002257049 -0.1758866
vn -0.98440784 0.002257049 0.1758866
vn -0.98440784 0.002257049 0.1758866
vn -0.98440784 0.002257049 0.1758866
vn -0.98440784 0.002257049 0.1758866
g SpawnEffect_RingMesh2_0
f 3/3/3 2/2/2 1/1/1
f 4/4/4 3/3/3 1/1/1
f 5/5/5 3/3/3 4/4/4
f 6/6/6 5/5/5 4/4/4
f 7/7/7 5/5/5 6/6/6
f 8/8/8 7/7/7 6/6/6
f 9/9/9 7/7/7 8/8/8
f 10/10/10 9/9/9 8/8/8
f 11/11/11 9/9/9 10/10/10
f 12/12/12 11/11/11 10/10/10
f 13/13/13 11/11/11 12/12/12
f 14/14/14 13/13/13 12/12/12
f 15/15/15 13/13/13 14/14/14
f 16/16/16 15/15/15 14/14/14
f 17/17/17 15/15/15 16/16/16
f 18/18/18 17/17/17 16/16/16
f 19/19/19 17/17/17 18/18/18
f 20/20/20 19/19/19 18/18/18
f 21/21/21 19/19/19 20/20/20
f 22/22/22 21/21/21 20/20/20
f 23/23/23 21/21/21 22/22/22
f 24/24/24 23/23/23 22/22/22
f 25/25/25 23/23/23 24/24/24
f 26/26/26 25/25/25 24/24/24
f 27/27/27 25/25/25 26/26/26
f 28/28/28 27/27/27 26/26/26
f 29/29/29 27/27/27 28/28/28
f 30/30/30 29/29/29 28/28/28
f 31/31/31 29/29/29 30/30/30
f 32/32/32 31/31/31 30/30/30
f 33/33/33 31/31/31 32/32/32
f 34/34/34 33/33/33 32/32/32
f 35/35/35 33/33/33 34/34/34
f 36/36/36 35/35/35 34/34/34
f 37/37/37 35/35/35 36/36/36
f 38/38/38 37/37/37 36/36/36
f 39/39/39 37/37/37 38/38/38
f 40/40/40 39/39/39 38/38/38
f 2/2/2 39/39/39 40/40/40
f 1/1/1 2/2/2 40/40/40
f 43/43/43 42/42/42 41/41/41
f 44/44/44 43/43/43 41/41/41
f 45/45/45 43/43/43 44/44/44
f 46/46/46 45/45/45 44/44/44
f 47/47/47 45/45/45 46/46/46
f 48/48/48 47/47/47 46/46/46
f 49/49/49 47/47/47 48/48/48
f 50/50/50 49/49/49 48/48/48
f 51/51/51 49/49/49 50/50/50
f 52/52/52 51/51/51 50/50/50
f 53/53/53 51/51/51 52/52/52
f 54/54/54 53/53/53 52/52/52
f 55/55/55 53/53/53 54/54/54
f 56/56/56 55/55/55 54/54/54
f 57/57/57 55/55/55 56/56/56
f 58/58/58 57/57/57 56/56/56
f 59/59/59 57/57/57 58/58/58
f 60/60/60 59/59/59 58/58/58
f 61/61/61 59/59/59 60/60/60
f 62/62/62 61/61/61 60/60/60
f 63/63/63 61/61/61 62/62/62
f 64/64/64 63/63/63 62/62/62
f 65/65/65 63/63/63 64/64/64
f 66/66/66 65/65/65 64/64/64
f 67/67/67 65/65/65 66/66/66
f 68/68/68 67/67/67 66/66/66
f 69/69/69 67/67/67 68/68/68
f 70/70/70 69/69/69 68/68/68
f 71/71/71 69/69/69 70/70/70
f 72/72/72 71/71/71 70/70/70
f 73/73/73 71/71/71 72/72/72
f 74/74/74 73/73/73 72/72/72
f 75/75/75 73/73/73 74/74/74
f 76/76/76 75/75/75 74/74/74
f 77/77/77 75/75/75 76/76/76
f 78/78/78 77/77/77 76/76/76
f 79/79/79 77/77/77 78/78/78
f 80/80/80 79/79/79 78/78/78
f 42/42/42 79/79/79 80/80/80
f 41/41/41 42/42/42 80/80/80
f 83/83/83 82/82/82 81/81/81
f 84/84/84 83/83/83 81/81/81
f 87/87/87 86/86/86 85/85/85
f 88/88/88 87/87/87 85/85/85
f 91/91/91 90/90/90 89/89/89
f 92/92/92 91/91/91 89/89/89
f 95/95/95 94/94/94 93/93/93
f 96/96/96 95/95/95 93/93/93
f 99/99/99 98/98/98 97/97/97
f 100/100/100 99/99/99 97/97/97
f 103/103/103 102/102/102 101/101/101
f 104/104/104 103/103/103 101/101/101
f 107/107/107 106/106/106 105/105/105
f 108/108/108 107/107/107 105/105/105
f 111/111/111 110/110/110 109/109/109
f 112/112/112 111/111/111 109/109/109
f 115/115/115 114/114/114 113/113/113
f 116/116/116 115/115/115 113/113/113
f 119/119/119 118/118/118 117/117/117
f 120/120/120 119/119/119 117/117/117
f 123/123/123 122/122/122 121/121/121
f 124/124/124 123/123/123 121/121/121
f 127/127/127 126/126/126 125/125/125
f 128/128/128 127/127/127 125/125/125
f 131/131/131 130/130/130 129/129/129
f 132/132/132 131/131/131 129/129/129
f 135/135/135 134/134/134 133/133/133
f 136/136/136 135/135/135 133/133/133
f 139/139/139 138/138/138 137/137/137
f 140/140/140 139/139/139 137/137/137
f 143/143/143 142/142/142 141/141/141
f 144/144/144 143/143/143 141/141/141
f 147/147/147 146/146/146 145/145/145
f 148/148/148 147/147/147 145/145/145
f 151/151/151 150/150/150 149/149/149
f 152/152/152 151/151/151 149/149/149
f 155/155/155 154/154/154 153/153/153
f 156/156/156 155/155/155 153/153/153
f 159/159/159 158/158/158 157/157/157
f 160/160/160 159/159/159 157/157/157
