g SpiderShassis_09
v 0.3849053 -0.04297328 0.27967095
v 0.38395983 -0.33108398 0.27967095
v 0.1402393 -0.27605718 0.728111
v 0.14002657 -0.04297328 0.7596663
v 0.18895507 -0.33108398 -0.7891207
v 0.38341618 -0.33108398 -0.39131093
v 0.3839362 -0.04297328 -0.3912873
v 0.1891678 -0.04297328 -0.78938067
v 0.1402393 -0.27605718 0.728111
v 0.38395983 -0.33108398 0.27967095
v -0.38395715 -0.33108398 0.27967095
v -0.14023662 -0.27605718 0.728111
v -0.18895239 -0.33108398 -0.7891207
v 0.18895507 -0.33108398 -0.7891207
v 0.1891678 -0.04297328 -0.78938067
v -0.18916512 -0.04297328 -0.78938067
v 0.1402393 -0.27605718 0.728111
v -0.14023662 -0.27605718 0.728111
v -0.14002389 -0.04297328 0.7596663
v 0.14002657 -0.04297328 0.7596663
v -0.14023662 -0.27605718 0.728111
v -0.38395715 -0.33108398 0.27967095
v -0.3849026 -0.04297328 0.27967095
v -0.14002389 -0.04297328 0.7596663
v -0.18895239 -0.33108398 -0.7891207
v -0.18916512 -0.04297328 -0.78938067
v -0.38393354 -0.04297328 -0.3912873
v -0.38343716 -0.33108398 -0.39131093
v -0.38343716 -0.33108398 -0.39131093
v 0.38341618 -0.33108398 -0.39131093
v -0.18895239 -0.33108398 -0.7891207
v 0.18895507 -0.33108398 -0.7891207
v 0.18902594 0.38844812 0.20013267
v 0.14581764 0.4966817 0.3613366
v 0.37046313 0.4967054 -0.15300328
v 0.39516374 0.43988216 -0.15267235
v 0.23270702 0.105112135 -0.665074
v 0.18384945 0.105112135 0.6106827
v 0.2500329 0.29605138 -0.15257782
v -0.23341346 0.105112135 -0.665074
v 0.23270702 0.105112135 -0.665074
v 0.16893458 0.4966817 -0.5579041
v -0.16964102 0.4966817 -0.5579041
v 0.37046313 0.4967054 -0.15300328
v 0.16893458 0.4966817 -0.5579041
v 0.1921224 0.38844812 -0.48812783
v 0.39516374 0.43988216 -0.15267235
v 0.39516374 0.43988216 -0.15267235
v -0.14652407 0.4966817 0.3613366
v -0.37116957 0.4967054 -0.15300328
v 0.37046313 0.4967054 -0.15300328
v 0.14581764 0.4966817 0.3613366
v 0.16893458 0.4966817 -0.5579041
v -0.16964102 0.4966817 -0.5579041
v 0.18384945 0.105112135 0.6106827
v -0.18455589 0.105112135 0.6106827
v -0.14652407 0.4966817 0.3613366
v 0.14581764 0.4966817 0.3613366
v -0.18973237 0.38844812 0.20013267
v -0.3958702 0.43988216 -0.15267235
v -0.37116957 0.4967054 -0.15300328
v -0.14652407 0.4966817 0.3613366
v -0.18455589 0.105112135 0.6106827
v -0.23341346 0.105112135 -0.665074
v -0.25073934 0.29605138 -0.15257782
v -0.19282883 0.38844812 -0.48812783
v -0.16964102 0.4966817 -0.5579041
v -0.37116957 0.4967054 -0.15300328
v -0.3958702 0.43988216 -0.15267235
v -0.3958702 0.43988216 -0.15267235
vt 0.36840457 0.5412018
vt 0.35875106 0.5412018
vt 0.36068177 0.55632555
vt 0.36840457 0.5572909
vt 0.35875106 0.5051621
vt 0.35875106 0.518677
vt 0.36840457 0.518677
vt 0.36840457 0.5051621
vt 0.3635778 0.6033058
vt 0.35521147 0.59847903
vt 0.35521147 0.61295927
vt 0.3635778 0.60845435
vt 0.3365481 0.5431324
vt 0.32367676 0.5431324
vt 0.32367676 0.55278593
vt 0.3365481 0.55278593
vt 0.35135007 0.5440978
vt 0.3420184 0.5440978
vt 0.3420184 0.5521424
vt 0.35135007 0.5521424
vt 0.36068177 0.55632555
vt 0.35875106 0.5412018
vt 0.36840457 0.5412018
vt 0.36840457 0.5572909
vt 0.35875106 0.5051621
vt 0.36840457 0.5051621
vt 0.36840457 0.518677
vt 0.35875106 0.518677
vt 0.34266195 0.61295927
vt 0.34266195 0.59847903
vt 0.33526096 0.6094197
vt 0.33526096 0.60234046
vt 0.29729062 0.577885
vt 0.29182032 0.5814246
vt 0.3088748 0.5814246
vt 0.3088748 0.5794939
vt 0.32560748 0.56855327
vt 0.28377575 0.56855327
vt 0.3088748 0.57498896
vt 0.29632527 0.58560777
vt 0.31144905 0.58560777
vt 0.30919656 0.5981573
vt 0.29825595 0.5981573
vt 0.3088748 0.5814246
vt 0.32206786 0.5814246
vt 0.3198154 0.577885
vt 0.3088748 0.5794939
vt 0.3088748 0.5794939
vt 0.35521147 0.55568194
vt 0.36261246 0.57273644
vt 0.338157 0.57273644
vt 0.345558 0.55568194
vt 0.34491444 0.5859295
vt 0.35585505 0.5859295
vt 0.338157 0.5888256
vt 0.32592925 0.5888256
vt 0.3272164 0.5759543
vt 0.33686987 0.5759543
vt 0.29729062 0.577885
vt 0.3088748 0.5794939
vt 0.3088748 0.5814246
vt 0.29182032 0.5814246
vt 0.28377575 0.56855327
vt 0.32560748 0.56855327
vt 0.3088748 0.57498896
vt 0.3198154 0.577885
vt 0.32206786 0.5814246
vt 0.3088748 0.5814246
vt 0.3088748 0.5794939
vt 0.3088748 0.5794939
vn 0.97646314 -0.011764646 0.2153633
vn 0.9843062 -0.011764646 0.17607632
vn 0.8823462 -0.0274508 0.46979955
vn 0.8823462 -0.0274508 0.46979955
vn 0.89803237 -0.0039215684 -0.43991193
vn 0.9843062 -0.0039215684 -0.17642535
vn 0.9843062 -0.0039215684 -0.17642535
vn 0.89803237 -0.0039215684 -0.43991193
vn -0.003921509 -0.9921493 0.124997616
vn -0.003921509 -0.9999924 -0
vn -0.003921509 -0.9999924 -0
vn -0.003921509 -0.9921493 0.124997616
vn -0.003921509 -0.0039215684 -0.9999846
vn -0.003921509 -0.0039215684 -0.9999846
vn -0.003921509 -0.0039215684 -0.9999846
vn -0.003921509 -0.0039215684 -0.9999846
vn -0.003921509 -0.13725388 0.9905281
vn -0.003921509 -0.13725388 0.9905281
vn -0.003921509 -0.13725388 0.9905281
vn -0.003921509 -0.13725388 0.9905281
vn -0.88234615 -0.0274508 0.46979967
vn -0.9843061 -0.011764646 0.17607701
vn -0.9764631 -0.011764646 0.21536358
vn -0.88234615 -0.0274508 0.46979967
vn -0.8980323 -0.0039215684 -0.439912
vn -0.8980323 -0.0039215684 -0.439912
vn -0.9843061 -0.0039215684 -0.17642602
vn -0.9843061 -0.0039215684 -0.17642602
vn -0.003921509 -0.9999924 -0
vn -0.003921509 -0.9999924 -0
vn -0.003921509 -0.9999924 -0
vn -0.003921509 -0.9999924 -0
vn 0.96862006 0.050979972 0.24326158
vn 0.96862006 0.12156761 0.21678668
vn 0.89803237 -0.05882311 0.43597907
vn 0.89803237 -0.05882311 0.43597907
vn 0.9999924 0.003921509 -0
vn 0.9921493 0.02745068 0.12200919
vn 0.9651236 -0.2617947 -0
vn -0.003921509 0.262743 -0.9648579
vn -0.003921509 0.262743 -0.9648579
vn -0.003921509 0.262743 -0.9648579
vn -0.003921509 0.262743 -0.9648579
vn 0.87450314 0.050979972 -0.4823332
vn 0.9294047 0.0901953 -0.35787112
vn 0.96862006 0.08235228 -0.2345064
vn 0.87450314 0.050979972 -0.4823332
vn 0.70195544 -0.7097985 0.058690816
vn -0.003921509 0.99999225 -0.00034526698
vn -0.003921509 0.99999225 -0.00034526698
vn -0.003921509 0.99999225 -0.00034526698
vn -0.003921509 0.99999225 -0.00034526698
vn -0.003921509 0.99999225 -0.00034526698
vn -0.003921509 0.99999225 -0.00034526698
vn -0.003921509 0.53725076 0.8434135
vn -0.003921509 0.53725076 0.8434135
vn -0.003921509 0.53725076 0.8434135
vn -0.003921509 0.53725076 0.8434135
vn -0.96861994 0.050979972 0.24326207
vn -0.8980323 -0.05882311 0.43597913
vn -0.8980323 -0.05882311 0.43597913
vn -0.96861994 0.12156761 0.21678723
vn -0.99214923 0.02745068 0.12200968
vn -0.99999225 0.003921509 -0.00034492963
vn -0.9651236 -0.26179472 -0
vn -0.96861994 0.08235228 -0.2345069
vn -0.9294046 0.0901953 -0.35787126
vn -0.874503 0.050979972 -0.4823334
vn -0.874503 0.050979972 -0.4823334
vn -0.7019553 -0.7097985 0.05869285
g SpiderShassis_09_0
f 3/3/3 2/2/2 1/1/1
f 4/4/4 3/3/3 1/1/1
f 7/7/7 6/6/6 5/5/5
f 8/8/8 7/7/7 5/5/5
f 11/11/11 10/10/10 9/9/9
f 12/12/12 11/11/11 9/9/9
f 15/15/15 14/14/14 13/13/13
f 16/16/16 15/15/15 13/13/13
f 19/19/19 18/18/18 17/17/17
f 20/20/20 19/19/19 17/17/17
f 23/23/23 22/22/22 21/21/21
f 24/24/24 23/23/23 21/21/21
f 27/27/27 26/26/26 25/25/25
f 28/28/28 27/27/27 25/25/25
f 10/10/10 11/11/11 29/29/29
f 30/30/30 10/10/10 29/29/29
f 6/6/6 7/7/7 1/1/1
f 2/2/2 6/6/6 1/1/1
f 23/23/23 27/27/27 28/28/28
f 22/22/22 23/23/23 28/28/28
f 30/30/30 29/29/29 31/31/31
f 32/32/32 30/30/30 31/31/31
f 35/35/35 34/34/34 33/33/33
f 36/36/36 35/35/35 33/33/33
f 39/39/39 38/38/38 37/37/37
f 42/42/42 41/41/41 40/40/40
f 43/43/43 42/42/42 40/40/40
f 46/46/46 45/45/45 44/44/44
f 47/47/47 46/46/46 44/44/44
f 39/39/39 48/48/48 33/33/33
f 51/51/51 50/50/50 49/49/49
f 52/52/52 51/51/51 49/49/49
f 46/46/46 48/48/48 39/39/39
f 50/50/50 51/51/51 53/53/53
f 54/54/54 50/50/50 53/53/53
f 57/57/57 56/56/56 55/55/55
f 58/58/58 57/57/57 55/55/55
f 61/61/61 60/60/60 59/59/59
f 62/62/62 61/61/61 59/59/59
f 65/65/65 64/64/64 63/63/63
f 68/68/68 67/67/67 66/66/66
f 69/69/69 68/68/68 66/66/66
f 70/70/70 65/65/65 59/59/59
f 70/70/70 66/66/66 65/65/65
f 67/67/67 64/64/64 66/66/66
f 62/62/62 59/59/59 63/63/63
f 59/59/59 65/65/65 63/63/63
f 66/66/66 64/64/64 65/65/65
f 33/33/33 38/38/38 39/39/39
f 46/46/46 39/39/39 37/37/37
f 34/34/34 38/38/38 33/33/33
f 45/45/45 46/46/46 37/37/37
