g SpiderShassis_11
v 0.6301546 0.08184546 0.6315276
v 0.5711827 0.14640611 0.8779821
v 0.5086682 0.08184546 0.8418843
v 0.69263864 0.14640611 0.66759485
v 0.67678857 0.1161719 0.8790204
v 0.6679932 0.021407545 0.93386954
v 0.6496084 0.1161719 0.92391366
v 0.74547213 0.1161719 0.76009923
v 0.77231646 0.1161719 0.71358746
v 0.78944916 0.021407545 0.7235128
v 0.60550916 -0.043153107 0.8978023
v 0.7269652 -0.043153107 0.68741506
v 0.5258314 -0.012918949 0.8518097
v 0.64728737 -0.012918949 0.64142233
v 0.5086682 0.08184546 0.8418843
v 0.60550916 -0.043153107 0.8978023
v 0.5258314 -0.012918949 0.8518097
v 0.6679932 0.021407545 0.93386954
v 0.5711827 0.14640611 0.8779821
v 0.6496084 0.1161719 0.92391366
v 0.69263864 0.14640611 0.66759485
v 0.78944916 0.021407545 0.7235128
v 0.77231646 0.1161719 0.71358746
v 0.7269652 -0.043153107 0.68741506
v 0.6301546 0.08184546 0.6315276
v 0.64728737 -0.012918949 0.64142233
v 0.67678857 0.1161719 0.8790204
v 0.74718237 0.11837083 0.7625119
v 0.6797509 0.118340194 0.8792953
v 0.74547213 0.1161719 0.76009923
v 0.69263864 0.14640611 0.66759485
v 0.77231646 0.1161719 0.71358746
v 0.6496084 0.1161719 0.92391366
v 0.5711827 0.14640611 0.8779821
v 0.7811424 0.15007085 0.7923185
v 0.74547213 0.1161719 0.76009923
v 0.75619155 0.107987344 0.7702995
v 0.73444736 0.19319278 0.7613819
v 0.70916057 0.14359647 0.739088
v 0.74547213 0.1161719 0.76009923
v 0.6797509 0.118340194 0.8792953
v 0.74718237 0.11837083 0.7625119
v 0.67678857 0.1161719 0.8790204
v 0.69102 0.107987344 0.8832043
v 0.67239094 0.19319278 0.86882013
v 0.7225369 0.15007085 0.8938016
v 0.67678857 0.1161719 0.8790204
v 0.6404159 0.14359647 0.85816187
v 0.7811424 0.15007085 0.7923185
v 0.83577776 -0.17035055 0.95283467
v 0.7225369 0.15007085 0.8938016
v 0.8888555 -0.17035055 0.8608493
v 0.83577776 -0.17035055 0.95283467
v 0.8888555 -0.17035055 0.8608493
v 0.73444736 0.19319278 0.7613819
v 0.67239094 0.19319278 0.86882013
v 0.70916057 0.14359647 0.739088
v 0.67239094 0.19319278 0.86882013
v 0.6404159 0.14359647 0.85816187
v 0.73444736 0.19319278 0.7613819
v 0.9140202 -0.5773212 0.98190826
v 0.7614138 -0.39185423 0.9422373
v 0.89780366 -0.35972655 1.0209684
v 0.84414554 -0.5776266 0.94675726
v 0.95472944 -0.5773212 0.9113924
v 0.89780366 -0.35972655 1.0209684
v 0.9804438 -0.35972655 0.8778599
v 0.9140202 -0.5773212 0.98190826
v 0.84414554 -0.5776266 0.94675726
v 0.844054 -0.39182365 0.7990983
v 0.7614138 -0.39185423 0.9422373
v 0.88934416 -0.5776266 0.8684842
v 0.88934416 -0.5776266 0.8684842
v 0.9804438 -0.35972655 0.8778599
v 0.844054 -0.39182365 0.7990983
v 0.95472944 -0.5773212 0.9113924
v 0.88934416 -0.5776266 0.8684842
v 0.9140202 -0.5773212 0.98190826
v 0.95472944 -0.5773212 0.9113924
v 0.84414554 -0.5776266 0.94675726
vt 0.30063528 0.5278458
vt 0.30767635 0.53055394
vt 0.30767635 0.5278458
vt 0.30063528 0.53055394
vt 0.3063223 0.5170134
vt 0.30767635 0.51972145
vt 0.30767635 0.5170134
vt 0.30226013 0.5170134
vt 0.30063528 0.5170134
vt 0.30063528 0.51972145
vt 0.30767635 0.5224296
vt 0.30063528 0.5224296
vt 0.30767635 0.52513766
vt 0.30063528 0.52513766
vt 0.30280176 0.5451777
vt 0.29711473 0.54003227
vt 0.29846877 0.5443653
vt 0.30009365 0.53705335
vt 0.30550987 0.54192793
vt 0.30415583 0.5378658
vt 0.30550987 0.54192793
vt 0.30009365 0.53705335
vt 0.30415583 0.5378658
vt 0.29711473 0.54003227
vt 0.30280176 0.5451777
vt 0.29846877 0.5443653
vt 0.30063528 0.52892905
vt 0.30794716 0.5281166
vt 0.30063528 0.5281166
vt 0.30794716 0.52892905
vt 0.30063528 0.5281166
vt 0.30063528 0.52892905
vt 0.30794716 0.52892905
vt 0.30794716 0.5281166
vt 0.29088607 0.5283874
vt 0.28871956 0.5286582
vt 0.28899038 0.5281166
vt 0.29034445 0.5308247
vt 0.28844878 0.5302831
vt 0.2941358 0.5256793
vt 0.2963023 0.5256793
vt 0.2941358 0.5256793
vt 0.2963023 0.5256793
vt 0.28899038 0.5281166
vt 0.29034445 0.5308247
vt 0.29088607 0.5283874
vt 0.28871956 0.5286582
vt 0.28844878 0.5302831
vt 0.2965731 0.5286582
vt 0.2941358 0.517555
vt 0.293865 0.5286582
vt 0.2963023 0.517555
vt 0.28844878 0.5167425
vt 0.28844878 0.5167425
vt 0.2965731 0.53055394
vt 0.293865 0.53055394
vt 0.29684392 0.5324496
vt 0.293865 0.5308247
vt 0.29359418 0.5324496
vt 0.2965731 0.5308247
vt 0.30415583 0.56359285
vt 0.29873958 0.5568226
vt 0.30415583 0.55573934
vt 0.3014477 0.56359285
vt 0.3114677 0.5630512
vt 0.31634232 0.5549269
vt 0.31011367 0.5549269
vt 0.31471744 0.5630512
vt 0.28844878 0.5641345
vt 0.29332337 0.5573642
vt 0.2870947 0.5573642
vt 0.2919693 0.5641345
vt 0.3014477 0.56359285
vt 0.30415583 0.55573934
vt 0.29873958 0.5568226
vt 0.30415583 0.56359285
vt 0.31038448 0.5514064
vt 0.30740553 0.5481566
vt 0.30740553 0.55113554
vt 0.31038448 0.5478858
vn -0.8235897 0.31143892 -0.47403148
vn -0.17952132 0.9787868 -0.09873428
vn -0.8235897 0.31143892 -0.47403148
vn -0.32695866 0.9244678 -0.19610542
vn 0.7051028 0.5675143 0.4251559
vn 0.76718163 -0.4645471 0.4422989
vn 0.4257478 0.8701488 0.24815306
vn 0.81374085 0.37351775 0.4453205
vn 0.79046124 0.39679742 0.46660778
vn 0.82150066 -0.3093499 0.4789982
vn 0.1774323 -0.97669786 0.12074377
vn 0.1774323 -0.97669786 0.12074377
vn -0.6451129 -0.6663035 -0.37399068
vn -0.6451129 -0.6663035 -0.37399068
vn -0.49767554 0.0010445118 0.8673627
vn -0.49767554 0.0010445118 0.8673627
vn -0.49767554 0.0010445118 0.8673627
vn -0.49767554 0.0010445118 0.8673627
vn -0.49767554 0.0010445118 0.8673627
vn -0.50543535 -0.0067153573 0.8628383
vn 0.50334644 0.0010445118 -0.86408406
vn 0.50334644 0.0010445118 -0.86408406
vn 0.50334644 0.0010445118 -0.86408406
vn 0.50334644 0.0010445118 -0.86408406
vn 0.50334644 0.0010445118 -0.86408406
vn 0.50334644 0.0010445118 -0.86408406
vn 0.7051028 0.5675143 0.4251559
vn 0.25503087 0.9555073 0.14820623
vn 0.5421457 -0.7749415 0.32487494
vn 0.81374085 0.37351775 0.4453205
vn -0.32695866 0.9244678 -0.19610542
vn 0.79046124 0.39679742 0.46660778
vn 0.4257478 0.8701488 0.24815306
vn -0.17952132 0.9787868 -0.09873428
vn 0.6197443 0.055363536 -0.78284854
vn 0.60422456 0.08640301 -0.7921156
vn 0.62750417 0.039843798 -0.7775931
vn 0.5887049 0.09416282 -0.8028449
vn 0.54990554 0.09416282 -0.829902
vn 0.81374085 0.37351775 0.4453205
vn 0.5421457 -0.7749415 0.32487494
vn 0.25503087 0.9555073 0.14820623
vn 0.7051028 0.5675143 0.4251559
vn -0.36575794 0.047603607 0.9294918
vn -0.41231704 0.07864308 0.90763974
vn -0.37351775 0.047603607 0.9264008
vn -0.33471847 0.10192263 0.93678993
vn -0.4433565 0.09416282 0.8913856
vn 0.7749415 0.45111644 0.4426733
vn 0.805981 0.37351775 0.45921582
vn 0.76718163 0.45887625 0.44817954
vn 0.805981 0.37351775 0.45921582
vn -0.36575794 0.039843798 0.9298568
vn 0.6197443 0.039843798 -0.7837917
vn 0.526626 0.7925502 0.30745614
vn 0.526626 0.7925502 0.30745614
vn -0.72271144 0.55199456 -0.4159209
vn -0.72271144 0.55199456 -0.4159209
vn -0.72271144 0.55199456 -0.4159209
vn -0.72271144 0.55199456 -0.4159209
vn -0.45111644 -0.18519217 0.8730394
vn -0.45887625 -0.18519217 0.8689859
vn -0.45887625 -0.19295204 0.86729586
vn -0.4433565 -0.1774323 0.8786084
vn 0.8680599 -0.022235096 0.49596134
vn 0.8680599 -0.022235096 0.49596134
vn 0.8680599 -0.022235096 0.49596134
vn 0.8680599 -0.022235096 0.49596134
vn -0.80806994 -0.3714288 -0.45723474
vn -0.80806994 -0.3714288 -0.45723474
vn -0.80806994 -0.3714288 -0.45723474
vn -0.80806994 -0.3714288 -0.45723474
vn 0.53438586 -0.18519217 -0.82470334
vn 0.526626 -0.18519217 -0.82968
vn 0.526626 -0.18519217 -0.82968
vn 0.5421457 -0.19295204 -0.81783104
vn 0.0067153573 -0.99997747 -0
vn 0.0067153573 -0.99997747 -0
vn 0.0067153573 -0.99997747 -0
vn 0.0067153573 -0.99997747 -0
g SpiderShassis_11_0
f 3/3/3 2/2/2 1/1/1
f 4/4/4 1/1/1 2/2/2
f 7/7/7 6/6/6 5/5/5
f 5/5/5 6/6/6 8/8/8
f 8/8/8 6/6/6 9/9/9
f 6/6/6 10/10/10 9/9/9
f 6/6/6 11/11/11 10/10/10
f 12/12/12 10/10/10 11/11/11
f 11/11/11 13/13/13 12/12/12
f 14/14/14 12/12/12 13/13/13
f 13/13/13 3/3/3 14/14/14
f 1/1/1 14/14/14 3/3/3
f 17/17/17 16/16/16 15/15/15
f 20/20/20 19/19/19 18/18/18
f 18/18/18 19/19/19 16/16/16
f 16/16/16 19/19/19 15/15/15
f 23/23/23 22/22/22 21/21/21
f 22/22/22 24/24/24 21/21/21
f 21/21/21 24/24/24 25/25/25
f 24/24/24 26/26/26 25/25/25
f 29/29/29 28/28/28 27/27/27
f 32/32/32 31/31/31 30/30/30
f 30/30/30 31/31/31 28/28/28
f 28/28/28 31/31/31 27/27/27
f 34/34/34 33/33/33 31/31/31
f 31/31/31 33/33/33 27/27/27
f 37/37/37 36/36/36 35/35/35
f 35/35/35 36/36/36 38/38/38
f 36/36/36 39/39/39 38/38/38
f 42/42/42 41/41/41 40/40/40
f 43/43/43 40/40/40 41/41/41
f 46/46/46 45/45/45 44/44/44
f 44/44/44 45/45/45 47/47/47
f 45/45/45 48/48/48 47/47/47
f 51/51/51 50/50/50 49/49/49
f 52/52/52 49/49/49 50/50/50
f 44/44/44 53/53/53 46/46/46
f 35/35/35 54/54/54 37/37/37
f 56/56/56 51/51/51 55/55/55
f 49/49/49 55/55/55 51/51/51
f 59/59/59 58/58/58 57/57/57
f 60/60/60 57/57/57 58/58/58
f 63/63/63 62/62/62 61/61/61
f 64/64/64 61/61/61 62/62/62
f 67/67/67 66/66/66 65/65/65
f 68/68/68 65/65/65 66/66/66
f 71/71/71 70/70/70 69/69/69
f 72/72/72 69/69/69 70/70/70
f 75/75/75 74/74/74 73/73/73
f 76/76/76 73/73/73 74/74/74
f 79/79/79 78/78/78 77/77/77
f 80/80/80 77/77/77 78/78/78
