g SpiderShassis_CustomizePart_5_CorpsePart
v -1.0032614 -0.44134703 0.11356428
v -0.9296466 0.11163786 0.052535325
v -0.793025 0.005273849 0.06617436
v -1.2419575 -0.3940342 0.11143234
v -0.79305065 0.0052995384 -0.12484929
v -1.2414953 -0.39411125 -0.16977337
v -1.0033128 -0.44134703 -0.17190528
v -0.9293127 0.111355335 -0.1109277
v -1.0032614 -0.44134703 0.11356428
v -0.79305065 0.0052995384 -0.12484929
v -1.0033128 -0.44134703 -0.17190528
v -0.793025 0.005273849 0.06617436
v -0.9296466 0.11163786 0.052535325
v -0.79305065 0.0052995384 -0.12484929
v -0.793025 0.005273849 0.06617436
v -0.9293127 0.111355335 -0.1109277
v -1.2414953 -0.39411125 -0.16977337
v -0.9296466 0.11163786 0.052535325
v -1.2419575 -0.3940342 0.11143234
v -0.9293127 0.111355335 -0.1109277
v -1.0032614 -0.44134703 0.11356428
v -1.2414953 -0.39411125 -0.16977337
v -1.2419575 -0.3940342 0.11143234
v -1.0033128 -0.44134703 -0.17190528
vt 0.25058436 0.3507231
vt 0.18461066 0.4638209
vt 0.22525519 0.4638209
vt 0.19933693 0.3253939
vt 0.1056778 0.4626428
vt 0.13395226 0.32480484
vt 0.082115754 0.34895593
vt 0.14632234 0.4638209
vt 0.018498238 0.3683946
vt 0.1056778 0.4626428
vt 0.082115754 0.34895593
vt 0.06267707 0.4756019
vt 0.18461066 0.4638209
vt 0.14219898 0.5038763
vt 0.18696687 0.5044654
vt 0.14632234 0.4638209
vt 0.13395226 0.32480484
vt 0.18461066 0.4638209
vt 0.19933693 0.3253939
vt 0.14632234 0.4638209
vt 0.20051505 0.26825592
vt 0.13395226 0.32480484
vt 0.19933693 0.3253939
vt 0.13395226 0.26766685
vn 0.011428773 0.11058813 0.99380064
vn -0.0029261708 0.11058813 0.993862
vn -0.010103643 0.11058813 0.99381495
vn 0.011428773 0.11058813 0.99380064
vn -0.0029261708 0.117765605 -0.9930371
vn 0.0042513013 0.10341066 -0.9946297
vn 0.011428773 0.09623319 -0.9952932
vn -0.010103643 0.117765605 -0.99299
vn 0.90143466 -0.42772186 -0.06685476
vn 0.90143466 -0.42772186 -0.06685476
vn 0.90143466 -0.42772186 -0.06685476
vn 0.90143466 -0.42772186 -0.06685476
vn 0.614336 0.78527004 0.07708583
vn 0.614336 0.78527004 0.07708583
vn 0.614336 0.78527004 -0.07708583
vn 0.614336 0.78527004 0.07708583
vn -0.8498673 0.5268813 -0.011030996
vn -0.8498673 0.5268813 -0.011030996
vn -0.8498673 0.5268813 -0.011030996
vn -0.8498673 0.5268813 -0.011030996
vn -0.1967178 -0.9803868 -0.011992748
vn -0.1967178 -0.9803868 -0.011992748
vn -0.1967178 -0.9803868 -0.011992748
vn -0.1967178 -0.9803868 -0.011992748
g SpiderShassis_CustomizePart_5_CorpsePart_0
f 3/3/3 2/2/2 1/1/1
f 4/4/4 1/1/1 2/2/2
f 7/7/7 6/6/6 5/5/5
f 8/8/8 5/5/5 6/6/6
f 11/11/11 10/10/10 9/9/9
f 12/12/12 9/9/9 10/10/10
f 15/15/15 14/14/14 13/13/13
f 16/16/16 13/13/13 14/14/14
f 19/19/19 18/18/18 17/17/17
f 20/20/20 17/17/17 18/18/18
f 23/23/23 22/22/22 21/21/21
f 24/24/24 21/21/21 22/22/22
