g SpiderShassis_23
v -0.45673144 -0.25584084 -0.6175886
v -0.27424216 -0.2917387 -0.8051292
v -0.4019873 -0.29235405 -0.58597285
v -0.32990956 -0.2546357 -0.8372578
v -0.5114757 -0.3653549 -0.6492044
v -0.3855512 -0.2917387 -0.8693864
v -0.5114757 -0.29235405 -0.6491787
v -0.3855512 -0.36594468 -0.8693864
v -0.45673144 -0.40184253 -0.6175886
v -0.32990956 -0.40304762 -0.8372578
v -0.4019873 -0.3653549 -0.58597285
v -0.27424216 -0.36594468 -0.8051292
v -0.27424216 -0.36594468 -0.8051292
v -0.4019873 -0.3653549 -0.58597285
v -0.32990956 -0.2546357 -0.8372578
v -0.45673144 -0.25584084 -0.6175886
v -0.32990956 -0.40304762 -0.8372578
v -0.3855512 -0.2917387 -0.8693864
v -0.3855512 -0.36594468 -0.8693864
v -0.32990956 -0.2546357 -0.8372578
v -0.27424216 -0.36594468 -0.8051292
v -0.27424216 -0.2917387 -0.8051292
v -0.4019873 -0.3653549 -0.58597285
v -0.45673144 -0.25584084 -0.6175886
v -0.4019873 -0.29235405 -0.58597285
v -0.5114757 -0.29235405 -0.6491787
v -0.45673144 -0.40184253 -0.6175886
v -0.5114757 -0.3653549 -0.6492044
v -0.5410402 -0.2918412 -0.7028203
v -0.40178216 -0.29994392 -0.6368965
v -0.46755207 -0.35658556 -0.67489696
v -0.4512955 -0.21212238 -0.6526659
v -0.40178216 -0.29994392 -0.6368965
v -0.35675597 -0.21214801 -0.8164883
v -0.31831968 -0.29994392 -0.7814366
v -0.4512955 -0.21212238 -0.6526659
v -0.61845136 0.08831704 -0.78697515
v -0.5410402 -0.2918412 -0.7028203
v -0.7244525 -0.0069405437 -0.84679633
v -0.4512955 -0.21212238 -0.6526659
v -0.38411522 -0.35658556 -0.819437
v -0.5410402 -0.2918412 -0.7028203
v -0.46755207 -0.35658556 -0.67489696
v -0.44503903 -0.2918412 -0.86910427
v -0.38411522 -0.35658556 -0.819437
v -0.35675597 -0.21214801 -0.8164883
v -0.44503903 -0.2918412 -0.86910427
v -0.31831968 -0.29994392 -0.7814366
v -0.35675597 -0.21214801 -0.8164883
v -0.6614262 -0.0069405437 -0.95595145
v -0.44503903 -0.2918412 -0.86910427
v -0.5566814 0.08826566 -0.89407897
v -0.5566814 0.08826566 -0.89407897
v -0.4512955 -0.21212238 -0.6526659
v -0.61845136 0.08831704 -0.78697515
v -0.35675597 -0.21214801 -0.8164883
v -0.44503903 -0.2918412 -0.86910427
v -0.7244525 -0.0069405437 -0.84679633
v -0.5410402 -0.2918412 -0.7028203
v -0.6614262 -0.0069405437 -0.95595145
vt 0.28653857 0.55308974
vt 0.27429006 0.5501734
vt 0.28653857 0.5501734
vt 0.27429006 0.55308974
vt 0.28653857 0.53821653
vt 0.27429006 0.53530025
vt 0.28653857 0.53530025
vt 0.27429006 0.53821653
vt 0.28653857 0.5417161
vt 0.27429006 0.5417161
vt 0.28653857 0.5452157
vt 0.27429006 0.5455073
vt 0.27429006 0.5466739
vt 0.28653857 0.5466739
vt 0.27458167 0.5320923
vt 0.28653857 0.5320923
vt 0.2912047 0.5367584
vt 0.29470426 0.5417161
vt 0.2944126 0.53821653
vt 0.2914963 0.5434659
vt 0.28741348 0.53821653
vt 0.28741348 0.5414245
vt 0.2877051 0.5385082
vt 0.2912047 0.54404914
vt 0.2877051 0.5422994
vt 0.2944126 0.5422994
vt 0.2912047 0.5364667
vt 0.2944126 0.5385082
vt 0.2570838 0.55163157
vt 0.26029173 0.5545479
vt 0.25766706 0.5545479
vt 0.26058337 0.55163157
vt 0.2570838 0.5495902
vt 0.26116663 0.5466739
vt 0.26116663 0.5495902
vt 0.25679216 0.5466739
vt 0.26204154 0.5323839
vt 0.25650054 0.5443408
vt 0.2562089 0.5323839
vt 0.26204154 0.5443408
vt 0.26116663 0.5495902
vt 0.25679216 0.5466739
vt 0.2570838 0.5495902
vt 0.26116663 0.5466739
vt 0.25766706 0.5545479
vt 0.26058337 0.55163157
vt 0.2570838 0.55163157
vt 0.26029173 0.5545479
vt 0.2617499 0.5443408
vt 0.25650054 0.5323839
vt 0.25679216 0.5443408
vt 0.26233315 0.5323839
vt 0.26699927 0.5326755
vt 0.27137375 0.54463243
vt 0.27049884 0.5326755
vt 0.26612437 0.54463243
vt 0.26612437 0.54463243
vt 0.27049884 0.5326755
vt 0.27137375 0.54463243
vt 0.26699927 0.5326755
vn -0.003921509 0.99998844 0.0027836314
vn 0.7490109 0.49803352 0.43697286
vn 0.7490109 0.49803352 0.43697286
vn -0.003921509 0.99998844 0.0027836314
vn -0.7490109 -0.49803346 -0.43697292
vn -0.7490109 0.49803352 -0.43697286
vn -0.7490109 0.49803352 -0.43697286
vn -0.7490109 -0.49803346 -0.43697292
vn -0.003921509 -0.99998844 0.0027836314
vn -0.003921509 -0.99998844 0.0027836314
vn 0.7490109 -0.49803346 0.43697292
vn 0.7490109 -0.49803346 0.43697292
vn 0.7490109 -0.49803346 0.43697292
vn 0.7490109 -0.49803346 0.43697292
vn -0.003921509 0.99998844 0.0027836314
vn -0.003921509 0.99998844 0.0027836314
vn 0.49803346 0.003921509 -0.86714894
vn 0.49803346 0.003921509 -0.86714894
vn 0.49803346 0.003921509 -0.86714894
vn 0.49803346 0.003921509 -0.86714894
vn 0.49803346 0.003921509 -0.86714894
vn 0.49803346 0.003921509 -0.86714894
vn -0.49803352 0.003921509 0.8671489
vn -0.49803352 0.003921509 0.8671489
vn -0.49803352 0.003921509 0.8671489
vn -0.49803352 0.003921509 0.8671489
vn -0.49803352 0.003921509 0.8671489
vn -0.49803352 0.003921509 0.8671489
vn -0.5215626 0.050979853 0.8516887
vn -0.427446 -0.090195 0.8995303
vn -0.427446 -0.09803808 0.8987093
vn -0.5215626 0.043136716 0.8521219
vn 0.7490109 0.49803352 0.43697286
vn 0.71763873 0.5607779 0.41294405
vn 0.7490109 0.49803352 0.43697286
vn 0.71763873 0.5607779 0.41294405
vn -0.53724873 0.074508905 0.84012634
vn -0.5215626 0.050979853 0.8516887
vn -0.53724873 0.074508905 0.84012634
vn -0.5215626 0.043136716 0.8521219
vn -0.55293477 -0.764697 -0.33091027
vn -0.6548945 -0.6627374 -0.36316982
vn -0.55293477 -0.764697 -0.33091027
vn -0.64705133 -0.6627374 -0.37696642
vn 0.5607778 -0.090195 -0.82303894
vn 0.4745043 0.050979853 -0.8787757
vn 0.48234737 0.043136716 -0.87491727
vn 0.55293477 -0.090195 -0.82832843
vn 0.4745043 0.050979853 -0.8787757
vn 0.4588182 0.074508905 -0.88540065
vn 0.48234737 0.043136716 -0.87491727
vn 0.4588182 0.074508905 -0.88540065
vn 0.7097957 0.57646394 0.4048202
vn 0.71763873 0.5607779 0.41294405
vn 0.7097957 0.57646394 0.4048202
vn 0.71763873 0.5607779 0.41294405
vn -0.64705133 -0.6627374 -0.37696642
vn -0.6705805 -0.63136524 -0.38948652
vn -0.6548945 -0.6627374 -0.36316982
vn -0.6705805 -0.63136524 -0.38948652
g SpiderShassis_23_0
f 3/3/3 2/2/2 1/1/1
f 4/4/4 1/1/1 2/2/2
f 7/7/7 6/6/6 5/5/5
f 8/8/8 5/5/5 6/6/6
f 5/5/5 8/8/8 9/9/9
f 10/10/10 9/9/9 8/8/8
f 9/9/9 10/10/10 11/11/11
f 12/12/12 11/11/11 10/10/10
f 14/14/14 13/13/13 3/3/3
f 2/2/2 3/3/3 13/13/13
f 16/16/16 15/15/15 7/7/7
f 6/6/6 7/7/7 15/15/15
f 19/19/19 18/18/18 17/17/17
f 18/18/18 20/20/20 17/17/17
f 17/17/17 20/20/20 21/21/21
f 20/20/20 22/22/22 21/21/21
f 25/25/25 24/24/24 23/23/23
f 28/28/28 27/27/27 26/26/26
f 26/26/26 27/27/27 24/24/24
f 24/24/24 27/27/27 23/23/23
f 31/31/31 30/30/30 29/29/29
f 32/32/32 29/29/29 30/30/30
f 35/35/35 34/34/34 33/33/33
f 36/36/36 33/33/33 34/34/34
f 39/39/39 38/38/38 37/37/37
f 40/40/40 37/37/37 38/38/38
f 43/43/43 42/42/42 41/41/41
f 44/44/44 41/41/41 42/42/42
f 47/47/47 46/46/46 45/45/45
f 48/48/48 45/45/45 46/46/46
f 51/51/51 50/50/50 49/49/49
f 52/52/52 49/49/49 50/50/50
f 55/55/55 54/54/54 53/53/53
f 56/56/56 53/53/53 54/54/54
f 59/59/59 58/58/58 57/57/57
f 60/60/60 57/57/57 58/58/58
