g SpiderShassis_CustomizePart_2_CorpsePart
v 0.8402691 -0.4413374 -0.821908
v 0.7460078 0.111632824 -0.83797145
v 1.0459245 -0.39401865 -0.9431265
v 0.6344947 0.0052695274 -0.7578325
v 0.7460078 0.111632824 -0.83797145
v 0.53902525 0.005309105 -0.9232998
v 0.6639675 0.11137533 -0.9793732
v 0.6344947 0.0052695274 -0.7578325
v 0.53902525 0.005309105 -0.9232998
v 0.9049189 -0.39411765 -1.1864152
v 0.6639675 0.11137533 -0.9793732
v 0.69757986 -0.4413374 -1.0691779
v 0.6344947 0.0052695274 -0.7578325
v 0.69757986 -0.4413374 -1.0691779
v 0.53902525 0.005309105 -0.9232998
v 0.8402691 -0.4413374 -0.821908
v 0.9049189 -0.39411765 -1.1864152
v 0.7460078 0.111632824 -0.83797145
v 0.6639675 0.11137533 -0.9793732
v 1.0459245 -0.39401865 -0.9431265
v 0.8402691 -0.4413374 -0.821908
v 0.9049189 -0.39411765 -1.1864152
v 0.69757986 -0.4413374 -1.0691779
v 1.0459245 -0.39401865 -0.9431265
vt 0.08177297 0.34881482
vt 0.14735183 0.4640209
vt 0.1331726 0.3234104
vt 0.10599579 0.4634301
vt 0.14735183 0.4640209
vt 0.18929866 0.50478613
vt 0.18575385 0.4640209
vt 0.14380702 0.50478613
vt 0.2265191 0.4628393
vt 0.19934227 0.3234104
vt 0.18575385 0.4640209
vt 0.2507419 0.34881482
vt 0.10599579 0.4634301
vt 0.017375708 0.36949283
vt 0.063458145 0.47701854
vt 0.08177297 0.34881482
vt 0.19934227 0.3234104
vt 0.14735183 0.4640209
vt 0.18575385 0.4640209
vt 0.1331726 0.3234104
vt 0.1325818 0.26610273
vt 0.19934227 0.3234104
vt 0.19993307 0.26610273
vt 0.1331726 0.3234104
vn 0.4880782 0.108870864 0.8659831
vn 0.50196075 0.108870864 0.8580108
vn 0.4880782 0.108870864 0.8659831
vn 0.508902 0.108870864 0.8539121
vn -0.5322882 0.7891152 0.30653962
vn -0.5322882 0.7891152 0.30653962
vn -0.5322882 0.7891152 0.30653962
vn -0.5322882 0.7891152 0.30653962
vn -0.49064064 0.11581218 -0.8636314
vn -0.50452316 0.101929545 -0.85736036
vn -0.49064064 0.12275338 -0.8626722
vn -0.50452316 0.101929545 -0.85736036
vn -0.7821739 -0.4256068 0.45504165
vn -0.7821739 -0.4256068 0.45504165
vn -0.7821739 -0.4256068 0.45504165
vn -0.7821739 -0.4256068 0.45504165
vn 0.7379639 0.525347 -0.42357975
vn 0.7379639 0.525347 -0.42357975
vn 0.7379639 0.525347 -0.42357975
vn 0.7379639 0.525347 -0.42357975
vn 0.16877985 -0.9809083 -0.09660413
vn 0.16877985 -0.9809083 -0.09660413
vn 0.16877985 -0.9809083 -0.09660413
vn 0.16877985 -0.9809083 -0.09660413
g SpiderShassis_CustomizePart_2_CorpsePart_0
f 3/3/3 2/2/2 1/1/1
f 4/4/4 1/1/1 2/2/2
f 7/7/7 6/6/6 5/5/5
f 8/8/8 5/5/5 6/6/6
f 11/11/11 10/10/10 9/9/9
f 12/12/12 9/9/9 10/10/10
f 15/15/15 14/14/14 13/13/13
f 16/16/16 13/13/13 14/14/14
f 19/19/19 18/18/18 17/17/17
f 20/20/20 17/17/17 18/18/18
f 23/23/23 22/22/22 21/21/21
f 24/24/24 21/21/21 22/22/22
