g Spider_mine_blue_04
v -0.23197702 -0.2030635 0.1899378
v -0.06412268 -0.07748374 0.046717465
v -0.2032859 -0.23174343 0.1899378
v -0.077717334 -0.063889086 0.046717465
v -0.22381797 -0.25226432 0.13142356
v -0.08744544 -0.07361716 0.019001395
v -0.25249788 -0.22358438 0.13142356
v -0.07385078 -0.08721185 0.019001395
v -0.07385078 -0.08721185 0.019001395
v -0.066734016 -0.074737936 0.028707057
v -0.07016352 -0.076598376 0.022117078
v -0.07385078 -0.08721185 0.019001395
v -0.06537792 -0.071823984 0.035745353
v -0.066734016 -0.074737936 0.028707057
v -0.07385078 -0.08721185 0.019001395
v -0.06412268 -0.07748374 0.046717465
v -0.06537792 -0.071823984 0.035745353
v -0.06412268 -0.07748374 0.046717465
v -0.22381797 -0.25226432 0.13142356
v -0.2032859 -0.23174343 0.1899378
v -0.07385078 -0.08721185 0.019001395
v -0.07496032 -0.066500425 0.028707057
v -0.07016352 -0.076598376 0.022117078
v -0.066734016 -0.074737936 0.028707057
v -0.07684317 -0.06991872 0.022117078
v -0.07684317 -0.06991872 0.022117078
v -0.07385078 -0.08721185 0.019001395
v -0.07016352 -0.076598376 0.022117078
v -0.08744544 -0.07361716 0.019001395
v -0.077717334 -0.063889086 0.046717465
v -0.07496032 -0.066500425 0.028707057
v -0.072057575 -0.06514433 0.035745353
v -0.077717334 -0.063889086 0.046717465
v -0.07684317 -0.06991872 0.022117078
v -0.07496032 -0.066500425 0.028707057
v -0.077717334 -0.063889086 0.046717465
v -0.08744544 -0.07361716 0.019001395
v -0.07684317 -0.06991872 0.022117078
v -0.077717334 -0.063889086 0.046717465
v -0.25249788 -0.22358438 0.13142356
v -0.08744544 -0.07361716 0.019001395
v -0.23197702 -0.2030635 0.1899378
v -0.06537792 -0.071823984 0.035745353
v -0.07496032 -0.066500425 0.028707057
v -0.066734016 -0.074737936 0.028707057
v -0.072057575 -0.06514433 0.035745353
v -0.06537792 -0.071823984 0.035745353
v -0.077717334 -0.063889086 0.046717465
v -0.072057575 -0.06514433 0.035745353
v -0.06412268 -0.07748374 0.046717465
v -0.26956686 -0.2693333 0.19569841
v -0.22381797 -0.25226432 0.13142356
v -0.2540221 -0.2814822 0.1577051
v -0.22381797 -0.25226432 0.13142356
v -0.2342073 -0.26166737 0.21417955
v -0.2032859 -0.23174343 0.1899378
v -0.26956686 -0.2693333 0.19569841
v -0.2342073 -0.26166737 0.21417955
v -0.22381797 -0.25226432 0.13142356
v -0.2342073 -0.26166737 0.21417955
v -0.26956686 -0.2693333 0.19569841
v -0.2618898 -0.23398492 0.21417955
v -0.25249788 -0.22358438 0.13142356
v -0.26956686 -0.2693333 0.19569841
v -0.28170457 -0.25379974 0.1577051
v -0.25249788 -0.22358438 0.13142356
v -0.2618898 -0.23398492 0.21417955
v -0.26956686 -0.2693333 0.19569841
v -0.25249788 -0.22358438 0.13142356
v -0.23197702 -0.2030635 0.1899378
v -0.2618898 -0.23398492 0.21417955
v -0.28170457 -0.25379974 0.1577051
v -0.26956686 -0.2693333 0.19569841
v -0.2540221 -0.2814822 0.1577051
v -0.23197702 -0.2030635 0.1899378
v -0.2342073 -0.26166737 0.21417955
v -0.2618898 -0.23398492 0.21417955
v -0.2032859 -0.23174343 0.1899378
v -0.2540221 -0.2814822 0.1577051
v -0.25249788 -0.22358438 0.13142356
v -0.28170457 -0.25379974 0.1577051
v -0.22381797 -0.25226432 0.13142356
v -0.26408646 -0.23834462 0.20184013
v -0.24494407 -0.2114579 0.21997383
v -0.30487046 -0.21576157 0.18868253
v -0.3074706 -0.20612314 0.22213688
v -0.24494407 -0.2114579 0.21997383
v -0.25447044 -0.22119719 0.26949963
v -0.30487046 -0.21576157 0.18868253
v -0.35708603 -0.26167858 0.27084455
v -0.31233463 -0.2792743 0.3228248
v -0.3319365 -0.30239534 0.3099586
v -0.3661529 -0.276125 0.2609147
v -0.2125769 -0.3074611 0.21426919
v -0.21465024 -0.2417517 0.21997383
v -0.21894273 -0.30163324 0.18861529
v -0.22440079 -0.25126684 0.26949963
v -0.241537 -0.26090527 0.20184013
v -0.21894273 -0.30163324 0.18861529
v -0.21465024 -0.2417517 0.21997383
v -0.2658908 -0.3552722 0.26546493
v -0.28246668 -0.30914223 0.3228248
v -0.30558768 -0.3287441 0.3099586
v -0.2793062 -0.3629269 0.26095954
v -0.3409361 -0.29115424 0.2575973
v -0.3319365 -0.30239534 0.3099586
v -0.32494304 -0.30344886 0.28234342
v -0.3661529 -0.276125 0.2609147
v -0.31589857 -0.23191154 0.16199753
v -0.31914875 -0.26383042 0.16365626
v -0.29973742 -0.25054955 0.17536804
v -0.3325641 -0.25102028 0.14853737
v -0.34936407 -0.29231983 0.20631191
v -0.36882028 -0.27961054 0.20395836
v -0.23509267 -0.3126726 0.16199753
v -0.26703402 -0.31594518 0.16362265
v -0.25416782 -0.32937172 0.1485934
v -0.25374195 -0.29652262 0.17534563
v -0.30663 -0.32175064 0.28234342
v -0.2793062 -0.3629269 0.26095954
v -0.29379746 -0.33829287 0.2575973
v -0.30558768 -0.3287441 0.3099586
v -0.29550096 -0.34617174 0.20632312
v -0.28282532 -0.36566153 0.20392469
v -0.30487046 -0.21576157 0.18868253
v -0.3325641 -0.25102028 0.14853737
v -0.31589857 -0.23191154 0.16199753
v -0.3074706 -0.20612314 0.22213688
v -0.35708603 -0.26167858 0.27084455
v -0.36882028 -0.27961054 0.20395836
v -0.3661529 -0.276125 0.2609147
v -0.2793062 -0.3629269 0.26095954
v -0.2658908 -0.3552722 0.26546493
v -0.28282532 -0.36566153 0.20392469
v -0.2125769 -0.3074611 0.21426919
v -0.25416782 -0.32937172 0.1485934
v -0.23509267 -0.3126726 0.16199753
v -0.21894273 -0.30163324 0.18861529
v -0.34238186 -0.23835583 0.25277808
v -0.30914047 -0.22921054 0.23964295
v -0.3303338 -0.25040388 0.256555
v -0.3235533 -0.21953848 0.23774889
v -0.30914047 -0.22921054 0.20579633
v -0.3235533 -0.21953848 0.20767924
v -0.3303338 -0.25040388 0.18886188
v -0.34238186 -0.23835583 0.1926612
v -0.35152712 -0.271586 0.20579633
v -0.36119917 -0.25717318 0.20767924
v -0.35152712 -0.271586 0.23964295
v -0.36119917 -0.25717318 0.23774889
v -0.34883735 -0.23188913 0.22270843
v -0.25013313 -0.33060455 0.256555
v -0.21927896 -0.32382405 0.23774889
v -0.23809633 -0.34264138 0.25277808
v -0.2289398 -0.30941123 0.23964295
v -0.21927896 -0.32382405 0.20767924
v -0.2289398 -0.30941123 0.20579633
v -0.23809633 -0.34264138 0.1926612
v -0.25013313 -0.33060455 0.18886188
v -0.25691363 -0.36145872 0.20767924
v -0.27131525 -0.35179788 0.20579633
v -0.25691363 -0.36145872 0.23774889
v -0.27131525 -0.35179788 0.23964295
v -0.23162958 -0.3491081 0.22270843
vt 0.54864156 0.9038172
vt 0.5458115 0.896742
vt 0.5472265 0.904171
vt 0.546519 0.89638823
vt 0.5451039 0.904171
vt 0.5443964 0.896742
vt 0.5443964 0.904171
vt 0.54475015 0.896742
vt 0.54475015 0.896742
vt 0.54545766 0.89638823
vt 0.5451039 0.89638823
vt 0.54475015 0.896742
vt 0.54545766 0.89638823
vt 0.54545766 0.89638823
vt 0.54475015 0.896742
vt 0.5458115 0.896742
vt 0.54545766 0.89638823
vt 0.5458115 0.896742
vt 0.5451039 0.904171
vt 0.5472265 0.904171
vt 0.54475015 0.896742
vt 0.55111784 0.8988645
vt 0.5507641 0.8988645
vt 0.5507641 0.8992183
vt 0.55111784 0.8988645
vt 0.55111784 0.8988645
vt 0.5507641 0.8985108
vt 0.5507641 0.8988645
vt 0.55111784 0.8985108
vt 0.546519 0.89638823
vt 0.54687274 0.8960345
vt 0.54687274 0.89638823
vt 0.546519 0.89638823
vt 0.5472265 0.8960345
vt 0.54687274 0.8960345
vt 0.546519 0.89638823
vt 0.54758024 0.8960345
vt 0.5472265 0.8960345
vt 0.546519 0.89638823
vt 0.55041033 0.90310967
vt 0.54758024 0.8960345
vt 0.54864156 0.9038172
vt 0.5507641 0.8992183
vt 0.55111784 0.8988645
vt 0.5507641 0.8992183
vt 0.55111784 0.8992183
vt 0.5507641 0.8992183
vt 0.5514716 0.8995721
vt 0.55111784 0.8992183
vt 0.5507641 0.8995721
vt 0.546519 0.90593976
vt 0.5451039 0.904171
vt 0.54545766 0.90593976
vt 0.5451039 0.904171
vt 0.5472265 0.905586
vt 0.5472265 0.904171
vt 0.546519 0.90593976
vt 0.5472265 0.905586
vt 0.5451039 0.904171
vt 0.5458115 0.89497316
vt 0.5451039 0.89461946
vt 0.5443964 0.895327
vt 0.55041033 0.90310967
vt 0.5497028 0.90523225
vt 0.5507641 0.9045247
vt 0.55041033 0.90310967
vt 0.5489953 0.90523225
vt 0.5497028 0.90523225
vt 0.55041033 0.90310967
vt 0.54864156 0.9038172
vt 0.5489953 0.90523225
vt 0.54404265 0.8932044
vt 0.54475015 0.89355814
vt 0.54545766 0.89285064
vt 0.54864156 0.9038172
vt 0.5472265 0.905586
vt 0.5489953 0.90523225
vt 0.5472265 0.904171
vt 0.54545766 0.90593976
vt 0.5443964 0.904171
vt 0.5443964 0.90593976
vt 0.5451039 0.904171
vt 0.56951344 0.904171
vt 0.57022095 0.904171
vt 0.5691596 0.9034634
vt 0.57305104 0.87763894
vt 0.57234347 0.8769314
vt 0.57234347 0.87763894
vt 0.57305104 0.8769314
vt 0.57305104 0.8794077
vt 0.57234347 0.8794077
vt 0.57234347 0.8801153
vt 0.57305104 0.87976146
vt 0.57092845 0.87763894
vt 0.57163596 0.8769314
vt 0.57092845 0.8769314
vt 0.57163596 0.87763894
vt 0.56951344 0.9048785
vt 0.5691596 0.905586
vt 0.57022095 0.9048785
vt 0.57092845 0.8794077
vt 0.57163596 0.8794077
vt 0.57163596 0.8801153
vt 0.57092845 0.87976146
vt 0.56632954 0.9038172
vt 0.5652683 0.904171
vt 0.56562203 0.904171
vt 0.5659758 0.9034634
vt 0.5688059 0.9034634
vt 0.5684521 0.9034634
vt 0.5688059 0.9038172
vt 0.5684521 0.90310967
vt 0.5670371 0.9038172
vt 0.5670371 0.90310967
vt 0.5688059 0.90593976
vt 0.5684521 0.905586
vt 0.5684521 0.90593976
vt 0.5688059 0.90523225
vt 0.56562203 0.9048785
vt 0.5659758 0.905586
vt 0.56632954 0.90523225
vt 0.5652683 0.9048785
vt 0.5670371 0.905586
vt 0.5670371 0.90593976
vt 0.56809837 0.87799263
vt 0.56739086 0.8772851
vt 0.56739086 0.87763894
vt 0.5684521 0.87799263
vt 0.56951344 0.8769314
vt 0.56809837 0.8765776
vt 0.5688059 0.8765776
vt 0.5688059 0.8765776
vt 0.56951344 0.8769314
vt 0.56809837 0.8765776
vt 0.5684521 0.87799263
vt 0.56739086 0.8772851
vt 0.56739086 0.87763894
vt 0.56809837 0.87799263
vt 0.57234347 0.88259155
vt 0.57305104 0.88259155
vt 0.57234347 0.8829453
vt 0.57305104 0.8822378
vt 0.57305104 0.88188404
vt 0.57305104 0.88188404
vt 0.57234347 0.8815303
vt 0.57234347 0.8815303
vt 0.57163596 0.88188404
vt 0.5719897 0.88188404
vt 0.57163596 0.88259155
vt 0.5719897 0.8822378
vt 0.57234347 0.8822378
vt 0.57234347 0.8829453
vt 0.57305104 0.8822378
vt 0.57234347 0.88259155
vt 0.57305104 0.88259155
vt 0.57305104 0.88188404
vt 0.57305104 0.88188404
vt 0.57234347 0.8815303
vt 0.57234347 0.8815303
vt 0.5719897 0.88188404
vt 0.57163596 0.88188404
vt 0.5719897 0.8822378
vt 0.57163596 0.88259155
vt 0.57234347 0.8822378
vn 0.39935935 0.40326065 0.8233425
vn 0.39935935 0.40326065 0.8233425
vn 0.39935935 0.40326065 0.8233425
vn 0.39935935 0.40326065 0.8233425
vn -0.3191766 -0.31527537 -0.8937157
vn -0.3191766 -0.31527537 -0.8937157
vn -0.3191766 -0.31527537 -0.8937157
vn -0.3191766 -0.31527537 -0.8937157
vn 0.8885754 -0.19297135 -0.41616803
vn 0.8885754 -0.19297135 -0.41616803
vn 0.8885754 -0.19297135 -0.41616803
vn 0.8489682 -0.5284439 -0
vn 0.8489682 -0.5284439 -0
vn 0.8489682 -0.5284439 -0
vn 0.93443936 -0.2541234 -0.24948822
vn 0.93443936 -0.2541234 -0.24948822
vn 0.93443936 -0.2541234 -0.24948822
vn 0.7332696 -0.67993796 -0
vn 0.7332696 -0.67993796 -0
vn 0.7332696 -0.67993796 -0
vn 0.7332696 -0.67993796 -0
vn 0.6133914 0.6172926 -0.49264678
vn 0.6133914 0.6172926 -0.49264678
vn 0.6133914 0.6172926 -0.49264678
vn 0.6133914 0.6172926 -0.49264678
vn 0.2082594 0.20451659 -0.9564523
vn 0.2082594 0.20451659 -0.9564523
vn 0.2082594 0.20451659 -0.9564523
vn 0.2082594 0.20451659 -0.9564523
vn -0.08221263 0.9842046 -0.15678771
vn -0.08221263 0.9842046 -0.15678771
vn -0.08221263 0.9842046 -0.15678771
vn -0.6325806 0.7472406 -0.20365001
vn -0.6325806 0.7472406 -0.20365001
vn -0.6325806 0.7472406 -0.20365001
vn -0.25802463 0.9383406 -0.23008735
vn -0.25802463 0.9383406 -0.23008735
vn -0.25802463 0.9383406 -0.23008735
vn -0.67844456 0.7319526 -0.06291538
vn -0.67844456 0.7319526 -0.06291538
vn -0.67844456 0.7319526 -0.06291538
vn -0.67844456 0.7319526 -0.06291538
vn 0.6516113 0.6478686 -0.39454907
vn 0.6516113 0.6478686 -0.39454907
vn 0.6516113 0.6478686 -0.39454907
vn 0.6516113 0.6478686 -0.39454907
vn 0.6821873 0.67844456 0.27264157
vn 0.6821873 0.67844456 0.27264157
vn 0.6821873 0.67844456 0.27264157
vn 0.6821873 0.67844456 0.27264157
vn 0.78920335 -0.40700334 0.45989823
vn 0.78920335 -0.40700334 0.45989823
vn 0.78920335 -0.40700334 0.45989823
vn 0.6974754 -0.71276337 0.074138395
vn 0.6974754 -0.71276337 0.074138395
vn 0.6974754 -0.71276337 0.074138395
vn 0.24647939 -0.96501535 -0.08940515
vn 0.24647939 -0.96501535 -0.08940515
vn 0.24647939 -0.96501535 -0.08940515
vn -0.3650406 -0.36878335 0.85483575
vn -0.3650406 -0.36878335 0.85483575
vn -0.3650406 -0.36878335 0.85483575
vn -0.4109046 0.7931046 0.44960263
vn -0.4109046 0.7931046 0.44960263
vn -0.4109046 0.7931046 0.44960263
vn -0.96127254 0.25038058 -0.11517232
vn -0.96127254 0.25038058 -0.11517232
vn -0.96127254 0.25038058 -0.11517232
vn -0.71468866 0.6994428 -0
vn -0.71468866 0.6994428 -0
vn -0.71468866 0.6994428 -0
vn -0.70902056 -0.7051194 -0.009823437
vn -0.70902056 -0.7051194 -0.009823437
vn -0.70902056 -0.7051194 -0.009823437
vn 0.34585136 0.3497526 0.8706664
vn 0.34585136 0.3497526 0.8706664
vn 0.34585136 0.3497526 0.8706664
vn 0.34585136 0.3497526 0.8706664
vn -0.37268466 -0.37642735 -0.8481796
vn -0.37268466 -0.37642735 -0.8481796
vn -0.37268466 -0.37642735 -0.8481796
vn -0.37268466 -0.37642735 -0.8481796
vn 0.40700334 0.3191766 -0.8558473
vn 0.37642735 0.3191766 -0.86972916
vn 0.52930737 0.34210855 -0.7763991
vn -0.5102766 0.84661263 0.15121117
vn 0.33820736 0.9230526 0.18327482
vn 0.09359938 0.7778166 0.6214825
vn -0.32682055 0.90012056 -0.28804746
vn -0.6020046 0.7166646 0.35211122
vn -0.14336461 0.57907265 0.8025718
vn -0.5867166 0.03634864 0.8089762
vn -0.88483256 0.3650406 0.28951114
vn 0.8656434 -0.46815535 0.17746018
vn 0.93443936 0.28860062 0.20864502
vn 0.94972736 -0.13946337 -0.28029966
vn 0.79684734 0.051636636 0.60197
vn 0.31527537 0.4109046 -0.85542905
vn 0.33820736 0.53320855 -0.7754382
vn 0.31527537 0.3803286 -0.8694548
vn 0.73569536 -0.56752735 0.36968237
vn 0.5981034 -0.17003936 0.78317237
vn 0.06302339 -0.5981034 0.7989371
vn 0.38407135 -0.8656434 0.32117096
vn -0.5102766 -0.8579993 -0.0587786
vn -0.6172926 -0.77391535 -0.14143878
vn -0.59436065 -0.78920335 -0.15457533
vn -0.5167837 -0.85611594 -0
vn 0.73569536 0.11278862 -0.66785556
vn 0.18532735 -0.63632333 -0.74883
vn 0.59045935 0.25802463 -0.7647098
vn 0.14710736 -0.63632333 -0.7572661
vn -0.46441263 -0.8350674 -0.29492936
vn -0.48734456 -0.81213534 -0.3208294
vn 0.108887374 0.7319526 -0.67259866
vn -0.67844456 0.059280574 -0.73225594
vn -0.69373256 0.120432556 -0.71009237
vn 0.2541234 0.5867166 -0.7688855
vn -0.80074865 -0.5828154 -0.13830335
vn -0.8588619 -0.51220715 -0
vn -0.8619006 -0.5063754 0.0266695
vn -0.7778166 -0.6133914 -0.13693917
vn -0.8236806 -0.48344338 -0.296366
vn -0.83132464 -0.4605114 -0.31117296
vn -0.32682055 0.90012056 -0.28804746
vn -0.75488454 0.6478686 -0.10205691
vn -0.69373256 0.7013766 -0.16372538
vn -0.5102766 0.84661263 0.15121117
vn -0.6020046 0.7166646 0.35211122
vn -0.6860886 0.72430855 -0.068260774
vn -0.88483256 0.3650406 0.28951114
vn 0.38407135 -0.8656434 0.32117096
vn 0.73569536 -0.56752735 0.36968237
vn 0.6439674 -0.75862736 -0.09894716
vn 0.8656434 -0.46815535 0.17746018
vn 0.6516113 -0.74333936 -0.15115972
vn 0.73569536 -0.62103534 -0.27030993
vn 0.94972736 -0.13946337 -0.28029966
vn -0.48734456 0.50263256 0.7140418
vn 0.4452234 0.75488454 0.48158637
vn -0.13572067 0.16629666 0.976691
vn -0.059280574 0.9383406 0.34059176
vn 0.4299354 0.73959655 -0.5178345
vn -0.06692463 0.9230526 -0.37880728
vn -0.16629666 0.13572067 -0.976691
vn -0.50263256 0.48734456 -0.7140418
vn -0.75488454 -0.4452234 -0.48158637
vn -0.9383406 0.059280574 -0.34059173
vn -0.73959655 -0.4299354 0.5178345
vn -0.9230526 0.06692463 0.37880734
vn -0.70710677 0.70710677 -0
vn 0.13946337 -0.17003936 0.97551864
vn 0.92679536 -0.070667386 0.3688583
vn 0.48344338 -0.5063754 0.71404934
vn 0.74333936 0.43383664 0.50914866
vn 0.93443936 -0.06302339 -0.35050124
vn 0.75862736 0.44912463 -0.4719869
vn 0.5063754 -0.48344338 -0.71404934
vn 0.17003936 -0.13946337 -0.97551864
vn 0.070667386 -0.92679536 -0.36885834
vn -0.43383664 -0.74333936 -0.50914866
vn 0.06302339 -0.93443936 0.35050127
vn -0.44912463 -0.75862736 0.47198686
vn 0.7051194 -0.7051194 -0.07492214
g Spider_mine_blue_04_0
f 3/3/3 2/2/2 1/1/1
f 4/4/4 1/1/1 2/2/2
f 7/7/7 6/6/6 5/5/5
f 8/8/8 5/5/5 6/6/6
f 11/11/11 10/10/10 9/9/9
f 14/14/14 13/13/13 12/12/12
f 17/17/17 16/16/16 15/15/15
f 20/20/20 19/19/19 18/18/18
f 18/18/18 19/19/19 21/21/21
f 24/24/24 23/23/23 22/22/22
f 25/25/25 22/22/22 23/23/23
f 28/28/28 27/27/27 26/26/26
f 29/29/29 26/26/26 27/27/27
f 32/32/32 31/31/31 30/30/30
f 35/35/35 34/34/34 33/33/33
f 38/38/38 37/37/37 36/36/36
f 41/41/41 40/40/40 39/39/39
f 40/40/40 42/42/42 39/39/39
f 45/45/45 44/44/44 43/43/43
f 46/46/46 43/43/43 44/44/44
f 49/49/49 48/48/48 47/47/47
f 50/50/50 47/47/47 48/48/48
f 53/53/53 52/52/52 51/51/51
f 56/56/56 55/55/55 54/54/54
f 59/59/59 58/58/58 57/57/57
f 62/62/62 61/61/61 60/60/60
f 65/65/65 64/64/64 63/63/63
f 68/68/68 67/67/67 66/66/66
f 71/71/71 70/70/70 69/69/69
f 74/74/74 73/73/73 72/72/72
f 77/77/77 76/76/76 75/75/75
f 78/78/78 75/75/75 76/76/76
f 81/81/81 80/80/80 79/79/79
f 82/82/82 79/79/79 80/80/80
f 85/85/85 84/84/84 83/83/83
f 88/88/88 87/87/87 86/86/86
f 89/89/89 86/86/86 87/87/87
f 91/91/91 88/88/88 90/90/90
f 86/86/86 90/90/90 88/88/88
f 91/91/91 90/90/90 92/92/92
f 93/93/93 92/92/92 90/90/90
f 96/96/96 95/95/95 94/94/94
f 97/97/97 94/94/94 95/95/95
f 100/100/100 99/99/99 98/98/98
f 94/94/94 97/97/97 101/101/101
f 102/102/102 101/101/101 97/97/97
f 102/102/102 103/103/103 101/101/101
f 104/104/104 101/101/101 103/103/103
f 98/98/98 83/83/83 100/100/100
f 84/84/84 100/100/100 83/83/83
f 95/95/95 87/87/87 97/97/97
f 88/88/88 97/97/97 87/87/87
f 97/97/97 88/88/88 102/102/102
f 91/91/91 102/102/102 88/88/88
f 102/102/102 91/91/91 103/103/103
f 92/92/92 103/103/103 91/91/91
f 107/107/107 106/106/106 105/105/105
f 108/108/108 105/105/105 106/106/106
f 111/111/111 110/110/110 109/109/109
f 112/112/112 109/109/109 110/110/110
f 83/83/83 111/111/111 85/85/85
f 109/109/109 85/85/85 111/111/111
f 114/114/114 113/113/113 108/108/108
f 105/105/105 108/108/108 113/113/113
f 110/110/110 113/113/113 112/112/112
f 114/114/114 112/112/112 113/113/113
f 117/117/117 116/116/116 115/115/115
f 118/118/118 115/115/115 116/116/116
f 115/115/115 118/118/118 99/99/99
f 98/98/98 99/99/99 118/118/118
f 121/121/121 120/120/120 119/119/119
f 122/122/122 119/119/119 120/120/120
f 121/121/121 123/123/123 120/120/120
f 124/124/124 120/120/120 123/123/123
f 123/123/123 116/116/116 124/124/124
f 117/117/117 124/124/124 116/116/116
f 107/107/107 119/119/119 106/106/106
f 122/122/122 106/106/106 119/119/119
f 127/127/127 126/126/126 125/125/125
f 128/128/128 125/125/125 126/126/126
f 130/130/130 129/129/129 126/126/126
f 128/128/128 126/126/126 129/129/129
f 130/130/130 131/131/131 129/129/129
f 134/134/134 133/133/133 132/132/132
f 133/133/133 134/134/134 135/135/135
f 136/136/136 135/135/135 134/134/134
f 138/138/138 135/135/135 137/137/137
f 136/136/136 137/137/137 135/135/135
f 141/141/141 140/140/140 139/139/139
f 142/142/142 139/139/139 140/140/140
f 140/140/140 143/143/143 142/142/142
f 144/144/144 142/142/142 143/143/143
f 143/143/143 145/145/145 144/144/144
f 146/146/146 144/144/144 145/145/145
f 145/145/145 147/147/147 146/146/146
f 148/148/148 146/146/146 147/147/147
f 147/147/147 149/149/149 148/148/148
f 150/150/150 148/148/148 149/149/149
f 149/149/149 141/141/141 150/150/150
f 139/139/139 150/150/150 141/141/141
f 142/142/142 151/151/151 139/139/139
f 144/144/144 151/151/151 142/142/142
f 146/146/146 151/151/151 144/144/144
f 148/148/148 151/151/151 146/146/146
f 150/150/150 151/151/151 148/148/148
f 139/139/139 151/151/151 150/150/150
f 154/154/154 153/153/153 152/152/152
f 155/155/155 152/152/152 153/153/153
f 153/153/153 156/156/156 155/155/155
f 157/157/157 155/155/155 156/156/156
f 156/156/156 158/158/158 157/157/157
f 159/159/159 157/157/157 158/158/158
f 158/158/158 160/160/160 159/159/159
f 161/161/161 159/159/159 160/160/160
f 160/160/160 162/162/162 161/161/161
f 163/163/163 161/161/161 162/162/162
f 162/162/162 154/154/154 163/163/163
f 152/152/152 163/163/163 154/154/154
f 153/153/153 154/154/154 164/164/164
f 156/156/156 153/153/153 164/164/164
f 158/158/158 156/156/156 164/164/164
f 160/160/160 158/158/158 164/164/164
f 162/162/162 160/160/160 164/164/164
f 154/154/154 162/162/162 164/164/164
