g Spider_mine_blue_08
v 0.3182551 -0.30840713 -0.09346622
v 0.33458334 -0.3230515 -0.0916293
v 0.3705871 -0.32477617 0.13826212
v 0.30922353 -0.27227068 0.10378915
v 0.28365964 -0.28374127 0.09745175
v 0.31129518 -0.3113768 -0.09372136
v 0.28365964 -0.28374127 0.09745175
v 0.27219924 -0.30929497 0.10378915
v 0.3083357 -0.31832653 -0.09346622
v 0.31129518 -0.3113768 -0.09372136
v 0.24729867 -0.24738032 0.2072796
v 0.22866407 -0.27692422 0.21695408
v 0.32470477 -0.37065855 0.13826212
v 0.32296988 -0.33465478 -0.0916293
v 0.280394 -0.34029824 0.2746642
v 0.35914713 -0.3592288 0.147508
v 0.3313687 -0.33145034 -0.09112924
v 0.3220208 -0.32210243 0.2900332
v 0.3182551 -0.30840713 -0.09346622
v 0.3204798 -0.32056147 -0.1023345
v 0.33458334 -0.3230515 -0.0916293
v 0.32296988 -0.33465478 -0.0916293
v 0.3083357 -0.31832653 -0.09346622
v 0.31129518 -0.3113768 -0.09372136
v 0.26742324 -0.24147153 0.2559888
v 0.2768426 -0.22874571 0.21693364
v 0.34021658 -0.28048584 0.2746642
v 0.30094716 -0.27498525 0.29216602
v 0.2911502 -0.29123187 0.29813603
v 0.24987037 -0.24995202 0.25344768
v 0.24729867 -0.24738032 0.2072796
v 0.22866407 -0.27692422 0.21695408
v 0.2414001 -0.26750487 0.2559888
v 0.27491382 -0.3010186 0.29216602
v 0.280394 -0.34029824 0.2746642
v 0.3220208 -0.32210243 0.2900332
v 0.2768426 -0.22874571 0.21693364
v 0.34021658 -0.28048584 0.2746642
v 0.24729867 -0.24738032 0.2072796
vt 0.5697148 0.8948213
vt 0.5693789 0.8948213
vt 0.5676996 0.89952326
vt 0.5693789 0.89952326
vt 0.5700506 0.89918745
vt 0.5700506 0.89515716
vt 0.5650128 0.89717233
vt 0.5653487 0.89750814
vt 0.5680355 0.8941496
vt 0.5680355 0.8941496
vt 0.5629977 0.8988516
vt 0.5633335 0.89952326
vt 0.56635624 0.8988516
vt 0.5687072 0.8944855
vt 0.56467694 0.9015384
vt 0.5670279 0.89952326
vt 0.56904304 0.8948213
vt 0.5656845 0.9022101
vt 0.5697148 0.8934779
vt 0.5693789 0.8934779
vt 0.5697148 0.8938137
vt 0.56904304 0.8938137
vt 0.5693789 0.89314204
vt 0.5697148 0.89314204
vt 0.5629977 0.9028818
vt 0.5626618 0.9022101
vt 0.56165427 0.90422523
vt 0.5626618 0.90422523
vt 0.5626618 0.90456104
vt 0.5633335 0.9028818
vt 0.5636694 0.9022101
vt 0.5643411 0.9028818
vt 0.5636694 0.9032177
vt 0.5629977 0.90422523
vt 0.5636694 0.9052328
vt 0.56232595 0.9052328
vt 0.5693789 0.9022101
vt 0.5670279 0.9025459
vt 0.5700506 0.90187424
vn 0.47781113 0.86422426 -0.15752123
vn 0.87128747 0.4707479 -0.13876082
vn 0.9132412 0.40741938 -0
vn 0.5059166 0.8501715 -0.14579692
vn -0.66748613 0.66748613 -0.33003712
vn -0.6885652 0.6885652 -0.2274993
vn -0.66748613 0.66748613 -0.33003712
vn -0.8501715 -0.5059166 -0.14579703
vn -0.86422426 -0.47781113 -0.15752128
vn -0.6885652 0.6885652 -0.2274993
vn -0.66748613 0.66748613 -0.33003712
vn -0.878277 -0.47078475 -0.08361371
vn -0.40741938 -0.9132412 -0
vn -0.4707479 -0.87128747 -0.13876082
vn -0.4707479 -0.8642611 0.17733923
vn 0.7026547 -0.7026547 0.11203887
vn 0.6956284 -0.6956284 -0.17944984
vn 0.6183384 -0.6183384 0.485093
vn 0.47781113 0.86422426 -0.15752123
vn 0.03515023 -0.03515023 -0.9987637
vn 0.87128747 0.4707479 -0.13876082
vn -0.4707479 -0.87128747 -0.13876082
vn -0.86422426 -0.47781113 -0.15752128
vn -0.6885652 0.6885652 -0.2274993
vn 0.03515023 0.87125057 0.4895783
vn 0.47078475 0.878277 -0.0836138
vn 0.8642611 0.4707479 0.17733923
vn 0.23891479 0.66748613 0.7052531
vn -0.09132427 0.09132427 0.99162483
vn -0.6323542 0.6323542 0.4475001
vn -0.66748613 0.66748613 -0.33003712
vn -0.878277 -0.47078475 -0.08361371
vn -0.87125057 -0.03515023 0.4895783
vn -0.66748613 -0.23891479 0.7052531
vn -0.4707479 -0.8642611 0.17733923
vn 0.6183384 -0.6183384 0.485093
vn 0.47078475 0.878277 -0.0836138
vn 0.8642611 0.4707479 0.17733923
vn -0.66748613 0.66748613 -0.33003712
g Spider_mine_blue_08_0
f 3/3/3 2/2/2 1/1/1
f 4/4/4 3/3/3 1/1/1
f 5/5/5 4/4/4 1/1/1
f 6/6/6 5/5/5 1/1/1
f 9/9/9 8/8/8 7/7/7
f 10/10/10 9/9/9 7/7/7
f 11/11/11 7/7/7 8/8/8
f 12/12/12 11/11/11 8/8/8
f 14/14/14 13/13/13 8/8/8
f 9/9/9 14/14/14 8/8/8
f 12/12/12 8/8/8 13/13/13
f 15/15/15 12/12/12 13/13/13
f 17/17/17 16/16/16 13/13/13
f 14/14/14 17/17/17 13/13/13
f 15/15/15 13/13/13 16/16/16
f 18/18/18 15/15/15 16/16/16
f 16/16/16 17/17/17 2/2/2
f 3/3/3 16/16/16 2/2/2
f 21/21/21 20/20/20 19/19/19
f 17/17/17 20/20/20 21/21/21
f 20/20/20 17/17/17 22/22/22
f 20/20/20 22/22/22 23/23/23
f 20/20/20 23/23/23 24/24/24
f 19/19/19 20/20/20 24/24/24
f 27/27/27 26/26/26 25/25/25
f 28/28/28 27/27/27 25/25/25
f 25/25/25 30/30/30 29/29/29
f 28/28/28 25/25/25 29/29/29
f 30/30/30 25/25/25 26/26/26
f 31/31/31 30/30/30 26/26/26
f 30/30/30 31/31/31 32/32/32
f 33/33/33 30/30/30 32/32/32
f 29/29/29 30/30/30 33/33/33
f 34/34/34 29/29/29 33/33/33
f 32/32/32 35/35/35 34/34/34
f 33/33/33 32/32/32 34/34/34
f 34/34/34 35/35/35 36/36/36
f 29/29/29 34/34/34 36/36/36
f 28/28/28 29/29/29 36/36/36
f 27/27/27 28/28/28 36/36/36
f 3/3/3 4/4/4 37/37/37
f 38/38/38 3/3/3 37/37/37
f 4/4/4 5/5/5 39/39/39
f 37/37/37 4/4/4 39/39/39
f 18/18/18 16/16/16 3/3/3
f 38/38/38 18/18/18 3/3/3
