g SpiderShassis_CustomizePart_3_CorpsePart
v 0.7053281 -0.44801062 0.99495804
v 0.6648622 0.11162639 0.8854065
v 0.9058955 -0.39403433 1.0925659
v 0.5397116 0.0052728653 0.8289174
v 0.6352633 0.0053055286 0.6634966
v 1.0460902 -0.3940996 0.8488239
v 0.7463162 0.11136532 0.74367785
v 0.86177456 -0.44797796 0.72422814
v 0.9058955 -0.39403433 1.0925659
v 0.86177456 -0.44797796 0.72422814
v 0.7053281 -0.44801062 0.99495804
v 1.0460902 -0.3940996 0.8488239
v 1.0460902 -0.3940996 0.8488239
v 0.6648622 0.11162639 0.8854065
v 0.7463162 0.11136532 0.74367785
v 0.9058955 -0.39403433 1.0925659
v 0.7463162 0.11136532 0.74367785
v 0.5397116 0.0052728653 0.8289174
v 0.6352633 0.0053055286 0.6634966
v 0.6648622 0.11162639 0.8854065
v 0.86177456 -0.44797796 0.72422814
v 0.5397116 0.0052728653 0.8289174
v 0.7053281 -0.44801062 0.99495804
v 0.6352633 0.0053055286 0.6634966
vt 0.08648777 0.6555578
vt 0.14814293 0.7717813
vt 0.13538669 0.63500607
vt 0.10845685 0.7710727
vt 0.22538905 0.7710727
vt 0.19987658 0.63500607
vt 0.18570298 0.7717813
vt 0.24806681 0.6562665
vt 0.13538669 0.63500607
vt 0.20341997 0.58256376
vt 0.1318433 0.58256376
vt 0.19987658 0.63500607
vt 0.19987658 0.63500607
vt 0.14814293 0.7717813
vt 0.18570298 0.7717813
vt 0.13538669 0.63500607
vt 0.18570298 0.7717813
vt 0.14530821 0.8114674
vt 0.18853769 0.8114674
vt 0.14814293 0.7717813
vt 0.24806681 0.6562665
vt 0.2672012 0.78453755
vt 0.3161001 0.6782356
vt 0.22538905 0.7710727
vn -0.46455353 0.13999003 0.87441
vn -0.48527032 0.13308448 0.86417663
vn -0.46455353 0.13999003 0.87441
vn -0.49908155 0.13308448 0.8562746
vn 0.50913686 0.12617892 -0.85138625
vn 0.5160425 0.13999003 -0.8450461
vn 0.50223124 0.119273245 -0.85646814
vn 0.522948 0.1468957 -0.83961123
vn 0.2052902 -0.9718124 0.115916155
vn 0.2052902 -0.9718124 0.115916155
vn 0.2052902 -0.9718124 0.115916155
vn 0.2052902 -0.9718124 0.115916155
vn 0.7370218 0.526704 0.4235348
vn 0.7370218 0.526704 0.4235348
vn 0.7370218 0.526704 0.4235348
vn 0.7370218 0.526704 0.4235348
vn -0.53360957 0.78911704 -0.3042288
vn -0.53360957 0.78911704 -0.3042288
vn -0.53360957 0.78911704 -0.3042288
vn -0.53360957 0.78911704 -0.3042288
vn -0.7753058 -0.44698638 -0.44621083
vn -0.7753058 -0.44698638 -0.44621083
vn -0.7753058 -0.44698638 -0.44621083
vn -0.7753058 -0.44698638 -0.44621083
g SpiderShassis_CustomizePart_3_CorpsePart_0
f 3/3/3 2/2/2 1/1/1
f 4/4/4 1/1/1 2/2/2
f 7/7/7 6/6/6 5/5/5
f 8/8/8 5/5/5 6/6/6
f 11/11/11 10/10/10 9/9/9
f 12/12/12 9/9/9 10/10/10
f 15/15/15 14/14/14 13/13/13
f 16/16/16 13/13/13 14/14/14
f 19/19/19 18/18/18 17/17/17
f 20/20/20 17/17/17 18/18/18
f 23/23/23 22/22/22 21/21/21
f 24/24/24 21/21/21 22/22/22
