g SpiderShassis_DefaultPart_7_CorpsePart
v 1.003264 -0.44134164 0.11356878
v 0.9296496 0.11162448 0.052550912
v 1.2419573 -0.39401662 0.111438274
v 0.79301107 0.0052673817 0.06618178
v 0.79305243 0.0053087473 -0.124835014
v 1.2415023 -0.39412004 -0.1697607
v 0.9292979 0.111376286 -0.11093533
v 1.0033053 -0.44134164 -0.17191184
v 1.003264 -0.44134164 0.11356878
v 0.79305243 0.0053087473 -0.124835014
v 0.79301107 0.0052673817 0.06618178
v 1.0033053 -0.44134164 -0.17191184
v 0.9296496 0.11162448 0.052550912
v 0.79305243 0.0053087473 -0.124835014
v 0.9292979 0.111376286 -0.11093533
v 0.79301107 0.0052673817 0.06618178
v 1.2415023 -0.39412004 -0.1697607
v 0.9296496 0.11162448 0.052550912
v 0.9292979 0.111376286 -0.11093533
v 1.2419573 -0.39401662 0.111438274
v 1.003264 -0.44134164 0.11356878
v 1.2415023 -0.39412004 -0.1697607
v 1.0033053 -0.44134164 -0.17191184
v 1.2419573 -0.39401662 0.111438274
vt 0.32824236 0.50560904
vt 0.33160582 0.5273595
vt 0.3365389 0.5044879
vt 0.32600003 0.5253414
vt 0.32600003 0.5253414
vt 0.3365389 0.5044879
vt 0.33160582 0.5273595
vt 0.32824236 0.50560904
vt 0.3228608 0.50516057
vt 0.3134431 0.5242202
vt 0.32084274 0.5242202
vt 0.31142503 0.50516057
vt 0.33967814 0.532741
vt 0.3524593 0.5408133
vt 0.3524593 0.532741
vt 0.33967814 0.5408133
vt 0.35290778 0.50493634
vt 0.34416276 0.5282564
vt 0.35066545 0.5282564
vt 0.3416962 0.50493634
vt 0.3154612 0.5405891
vt 0.32106698 0.5334137
vt 0.3154612 0.5334137
vt 0.32106698 0.5405891
vn -0.010152936 0.10625255 0.9942874
vn 0.0046316385 0.11364484 0.99351066
vn -0.010152936 0.10625255 0.9942874
vn 0.012023866 0.11364484 0.9934487
vn 0.0046316385 0.11364484 -0.99351066
vn -0.010152936 0.10625255 -0.9942874
vn 0.0046316385 0.121037126 -0.99263716
vn -0.010152936 0.098860264 -0.99504954
vn -0.9046185 -0.42599142 -0.01402428
vn -0.9046185 -0.42599142 -0.01402428
vn -0.9046185 -0.42599142 -0.01402428
vn -0.9046185 -0.42599142 -0.01402428
vn -0.61631966 0.78634214 0.042615652
vn -0.61631966 0.78634214 0.042615652
vn -0.61631966 0.78634214 0.042615652
vn -0.61631966 0.78634214 -0.042615652
vn 0.84735125 0.5276123 -0.06017534
vn 0.84735125 0.5276123 -0.06017534
vn 0.84735125 0.5276123 -0.06017534
vn 0.84735125 0.5276123 -0.06017534
vn 0.19683081 -0.98041224 -0.0070336233
vn 0.19683081 -0.98041224 -0.0070336233
vn 0.19683081 -0.98041224 -0.0070336233
vn 0.19683081 -0.98041224 -0.0070336233
g SpiderShassis_DefaultPart_7_CorpsePart_0
f 3/3/3 2/2/2 1/1/1
f 4/4/4 1/1/1 2/2/2
f 7/7/7 6/6/6 5/5/5
f 8/8/8 5/5/5 6/6/6
f 11/11/11 10/10/10 9/9/9
f 12/12/12 9/9/9 10/10/10
f 15/15/15 14/14/14 13/13/13
f 16/16/16 13/13/13 14/14/14
f 19/19/19 18/18/18 17/17/17
f 20/20/20 17/17/17 18/18/18
f 23/23/23 22/22/22 21/21/21
f 24/24/24 21/21/21 22/22/22
