g SpiderShassis_19
v 0.3293804 -0.25585634 0.74509764
v 0.40055537 -0.29174656 0.49328506
v 0.45620698 -0.25464547 0.5254215
v 0.27462482 -0.292352 0.71346974
v 0.38411176 -0.36534327 0.77670145
v 0.5118586 -0.29174656 0.55753386
v 0.5118586 -0.3659487 0.55753386
v 0.38411176 -0.292352 0.77670145
v 0.3293804 -0.4018389 0.74509764
v 0.45620698 -0.40304977 0.5254215
v 0.27462482 -0.36534327 0.71346974
v 0.45620698 -0.40304977 0.5254215
v 0.40055537 -0.3659487 0.49328506
v 0.3293804 -0.4018389 0.74509764
v 0.45620698 -0.25464547 0.5254215
v 0.3293804 -0.25585634 0.74509764
v 0.40055537 -0.3659487 0.49328506
v 0.45620698 -0.25464547 0.5254215
v 0.40055537 -0.29174656 0.49328506
v 0.5118586 -0.29174656 0.55753386
v 0.45620698 -0.40304977 0.5254215
v 0.5118586 -0.3659487 0.55753386
v 0.3293804 -0.4018389 0.74509764
v 0.38411176 -0.292352 0.77670145
v 0.38411176 -0.36534327 0.77670145
v 0.3293804 -0.25585634 0.74509764
v 0.27462482 -0.36534327 0.71346974
v 0.27462482 -0.292352 0.71346974
v 0.44533336 -0.2918434 0.7754663
v 0.31862786 -0.29995626 0.68782353
v 0.35703668 -0.2121439 0.72284186
v 0.3844266 -0.35657656 0.72582066
v 0.31862786 -0.29995626 0.68782353
v 0.4516299 -0.21216816 0.5590595
v 0.35703668 -0.2121439 0.72284186
v 0.40208107 -0.29995626 0.54329395
v 0.5569272 0.08832151 0.80043447
v 0.44533336 -0.2918434 0.7754663
v 0.35703668 -0.2121439 0.72284186
v 0.6617402 -0.0069497824 0.86233413
v 0.46785557 -0.35657656 0.5812669
v 0.44533336 -0.2918434 0.7754663
v 0.5413312 -0.2918434 0.6091896
v 0.3844266 -0.35657656 0.72582066
v 0.46785557 -0.35657656 0.5812669
v 0.4516299 -0.21216816 0.5590595
v 0.40208107 -0.29995626 0.54329395
v 0.5413312 -0.2918434 0.6091896
v 0.4516299 -0.21216816 0.5590595
v 0.72475386 -0.0069497824 0.75318635
v 0.61880267 0.08827305 0.69339347
v 0.5413312 -0.2918434 0.6091896
v 0.61880267 0.08827305 0.69339347
v 0.35703668 -0.2121439 0.72284186
v 0.4516299 -0.21216816 0.5590595
v 0.5569272 0.08832151 0.80043447
v 0.5413312 -0.2918434 0.6091896
v 0.6617402 -0.0069497824 0.86233413
v 0.72475386 -0.0069497824 0.75318635
v 0.44533336 -0.2918434 0.7754663
vt 0.28653857 0.55308974
vt 0.27429006 0.5501734
vt 0.27429006 0.55308974
vt 0.28653857 0.5501734
vt 0.28653857 0.53821653
vt 0.27429006 0.53530025
vt 0.27429006 0.53821653
vt 0.28653857 0.53530025
vt 0.28653857 0.5417161
vt 0.27429006 0.5417161
vt 0.28653857 0.54579896
vt 0.27429006 0.5428827
vt 0.27429006 0.54579896
vt 0.28653857 0.5428827
vt 0.27458167 0.53150904
vt 0.28653857 0.53150904
vt 0.2877051 0.5385082
vt 0.2912047 0.54404914
vt 0.2877051 0.5422994
vt 0.2944126 0.5422994
vt 0.2912047 0.5367584
vt 0.2944126 0.5385082
vt 0.2912047 0.5364667
vt 0.2944126 0.5422994
vt 0.2944126 0.5385082
vt 0.2912047 0.54404914
vt 0.2877051 0.5385082
vt 0.2877051 0.5422994
vt 0.2570838 0.55163157
vt 0.26029173 0.5545479
vt 0.26058337 0.55163157
vt 0.25766706 0.5545479
vt 0.2570838 0.5495902
vt 0.26116663 0.5466739
vt 0.25679216 0.5466739
vt 0.26116663 0.5495902
vt 0.26233315 0.5323839
vt 0.25650054 0.5443408
vt 0.2617499 0.5443408
vt 0.2562089 0.5323839
vt 0.26116663 0.5495902
vt 0.25679216 0.5466739
vt 0.26116663 0.5466739
vt 0.2570838 0.5495902
vt 0.25766706 0.5545479
vt 0.26058337 0.55163157
vt 0.26029173 0.5545479
vt 0.2570838 0.55163157
vt 0.26145828 0.5443408
vt 0.25650054 0.5323839
vt 0.2626248 0.5323839
vt 0.25679216 0.5443408
vt 0.26699927 0.5326755
vt 0.27137375 0.54463243
vt 0.26612437 0.54463243
vt 0.27049884 0.5326755
vt 0.26612437 0.54463243
vt 0.27049884 0.5326755
vt 0.26699927 0.5326755
vt 0.27137375 0.54463243
vn -0.003921509 0.99998844 0.0027836314
vn -0.7490109 0.49803352 -0.43697286
vn -0.003921509 0.99998844 0.0027836314
vn -0.7490109 0.49803352 -0.43697286
vn 0.7490109 -0.49803346 0.43697292
vn 0.7490109 0.49803352 0.43697286
vn 0.7490109 -0.49803346 0.43697292
vn 0.7490109 0.49803352 0.43697286
vn -0.003921509 -0.99998844 0.0027836314
vn -0.003921509 -0.99998844 0.0027836314
vn -0.7490109 -0.49803346 -0.43697292
vn -0.003921509 -0.99998844 0.0027836314
vn -0.7490109 -0.49803346 -0.43697292
vn -0.003921509 -0.99998844 0.0027836314
vn -0.003921509 0.99998844 0.0027836314
vn -0.003921509 0.99998844 0.0027836314
vn 0.49803346 0.003921509 -0.86714894
vn 0.49803346 0.003921509 -0.86714894
vn 0.49803346 0.003921509 -0.86714894
vn 0.49803346 0.003921509 -0.86714894
vn 0.49803346 0.003921509 -0.86714894
vn 0.49803346 0.003921509 -0.86714894
vn -0.49803352 0.003921509 0.8671489
vn -0.49803352 0.003921509 0.8671489
vn -0.49803352 0.003921509 0.8671489
vn -0.49803352 0.003921509 0.8671489
vn -0.49803352 0.003921509 0.8671489
vn -0.49803352 0.003921509 0.8671489
vn -0.47450435 0.050979853 0.87877566
vn -0.5607779 -0.090195 0.8230389
vn -0.48234737 0.043136716 0.87491727
vn -0.5607779 -0.09803808 0.8221415
vn -0.7490109 0.49803352 -0.43697286
vn -0.71763873 0.5607779 -0.41294405
vn -0.71763873 0.5607779 -0.41294405
vn -0.7490109 0.49803352 -0.43697286
vn -0.4588182 0.074508905 0.88540065
vn -0.47450435 0.050979853 0.87877566
vn -0.48234737 0.043136716 0.87491727
vn -0.4588182 0.074508905 0.88540065
vn 0.55293477 -0.764697 0.33091027
vn 0.65489435 -0.6627374 0.36317
vn 0.64705133 -0.6627374 0.37696642
vn 0.55293477 -0.764697 0.33091027
vn 0.427446 -0.090195 -0.8995303
vn 0.5215626 0.050979853 -0.8516887
vn 0.4431321 -0.090195 -0.8919074
vn 0.5215626 0.043136716 -0.8521219
vn 0.5215626 0.050979853 -0.8516887
vn 0.5372487 0.074508905 -0.84012634
vn 0.5372487 0.074508905 -0.84012634
vn 0.5215626 0.043136716 -0.8521219
vn -0.7097957 0.57646394 -0.4048202
vn -0.71763873 0.5607779 -0.41294405
vn -0.71763873 0.5607779 -0.41294405
vn -0.7097957 0.57646394 -0.4048202
vn 0.64705133 -0.6627374 0.37696642
vn 0.6705805 -0.63136524 0.38948652
vn 0.6705805 -0.63136524 0.38948652
vn 0.65489435 -0.6627374 0.36317
g SpiderShassis_19_0
f 3/3/3 2/2/2 1/1/1
f 4/4/4 1/1/1 2/2/2
f 7/7/7 6/6/6 5/5/5
f 8/8/8 5/5/5 6/6/6
f 10/10/10 7/7/7 9/9/9
f 5/5/5 9/9/9 7/7/7
f 13/13/13 12/12/12 11/11/11
f 14/14/14 11/11/11 12/12/12
f 2/2/2 13/13/13 4/4/4
f 11/11/11 4/4/4 13/13/13
f 6/6/6 15/15/15 8/8/8
f 16/16/16 8/8/8 15/15/15
f 19/19/19 18/18/18 17/17/17
f 22/22/22 21/21/21 20/20/20
f 20/20/20 21/21/21 18/18/18
f 18/18/18 21/21/21 17/17/17
f 25/25/25 24/24/24 23/23/23
f 24/24/24 26/26/26 23/23/23
f 23/23/23 26/26/26 27/27/27
f 26/26/26 28/28/28 27/27/27
f 31/31/31 30/30/30 29/29/29
f 32/32/32 29/29/29 30/30/30
f 35/35/35 34/34/34 33/33/33
f 36/36/36 33/33/33 34/34/34
f 39/39/39 38/38/38 37/37/37
f 40/40/40 37/37/37 38/38/38
f 43/43/43 42/42/42 41/41/41
f 44/44/44 41/41/41 42/42/42
f 47/47/47 46/46/46 45/45/45
f 48/48/48 45/45/45 46/46/46
f 51/51/51 50/50/50 49/49/49
f 52/52/52 49/49/49 50/50/50
f 55/55/55 54/54/54 53/53/53
f 56/56/56 53/53/53 54/54/54
f 59/59/59 58/58/58 57/57/57
f 60/60/60 57/57/57 58/58/58
