g SpiderShassis_CustomizePart_6_CorpsePart
v -0.70532864 -0.44799477 0.9949642
v -0.66487235 0.111624 0.8854194
v -0.53971857 0.005276233 0.82890743
v -0.90589434 -0.39402163 1.0925672
v -0.6352529 0.005299747 0.66348535
v -1.046093 -0.39411566 0.84881824
v -0.8617708 -0.44797125 0.7242287
v -0.7463022 0.11136544 0.74366933
v -0.90589434 -0.39402163 1.0925672
v -0.8617708 -0.44797125 0.7242287
v -1.046093 -0.39411566 0.84881824
v -0.70532864 -0.44799477 0.9949642
v -1.046093 -0.39411566 0.84881824
v -0.66487235 0.111624 0.8854194
v -0.90589434 -0.39402163 1.0925672
v -0.7463022 0.11136544 0.74366933
v -0.7463022 0.11136544 0.74366933
v -0.53971857 0.005276233 0.82890743
v -0.66487235 0.111624 0.8854194
v -0.6352529 0.005299747 0.66348535
v -0.8617708 -0.44797125 0.7242287
v -0.53971857 0.005276233 0.82890743
v -0.6352529 0.005299747 0.66348535
v -0.70532864 -0.44799477 0.9949642
vt 0.24633157 0.6549995
vt 0.18591976 0.77155876
vt 0.22572047 0.77084804
vt 0.19800213 0.6350992
vt 0.10845053 0.7722695
vt 0.13332598 0.6358099
vt 0.084996544 0.65713173
vt 0.14825124 0.7722695
vt 0.19800213 0.6350992
vt 0.12906161 0.58321613
vt 0.13332598 0.6358099
vt 0.20084503 0.5825054
vt 0.13332598 0.6358099
vt 0.18591976 0.77155876
vt 0.19800213 0.6350992
vt 0.14825124 0.7722695
vt 0.14825124 0.7722695
vt 0.1894734 0.81135947
vt 0.18591976 0.77155876
vt 0.14540833 0.8120702
vt 0.31527206 0.6763213
vt 0.22572047 0.77084804
vt 0.26765338 0.7836411
vt 0.24633157 0.6549995
vn 0.46770328 0.13998991 0.8727293
vn 0.48842007 0.13308436 0.86240035
vn 0.49532568 0.13308436 0.8584527
vn 0.46079767 0.13998991 0.87639505
vn -0.505987 0.1261788 -0.853262
vn -0.5197982 0.13998991 -0.84274113
vn -0.5267039 0.14689559 -0.83726025
vn -0.505987 0.119273126 -0.8542547
vn -0.20214039 -0.9718124 0.12132561
vn -0.20214039 -0.9718124 0.12132561
vn -0.20214039 -0.9718124 0.12132561
vn -0.20214039 -0.9718124 0.12132561
vn -0.74077755 0.5267039 0.4169312
vn -0.74077755 0.5267039 0.4169312
vn -0.74077755 0.5267039 0.4169312
vn -0.74077755 0.5267039 0.4169312
vn 0.5298537 0.7891168 -0.31072456
vn 0.5298537 0.7891168 -0.31072456
vn 0.5298537 0.7891168 -0.31072456
vn 0.5298537 0.7891168 -0.31072456
vn 0.7715499 -0.44698644 -0.45267415
vn 0.7715499 -0.44698644 -0.45267415
vn 0.7715499 -0.44698644 -0.45267415
vn 0.7715499 -0.44698644 -0.45267415
g SpiderShassis_CustomizePart_6_CorpsePart_0
f 3/3/3 2/2/2 1/1/1
f 4/4/4 1/1/1 2/2/2
f 7/7/7 6/6/6 5/5/5
f 8/8/8 5/5/5 6/6/6
f 11/11/11 10/10/10 9/9/9
f 12/12/12 9/9/9 10/10/10
f 15/15/15 14/14/14 13/13/13
f 16/16/16 13/13/13 14/14/14
f 19/19/19 18/18/18 17/17/17
f 20/20/20 17/17/17 18/18/18
f 23/23/23 22/22/22 21/21/21
f 24/24/24 21/21/21 22/22/22
