g SpiderShassis_DefaultPart_4_CorpsePart
v -0.8402754 -0.44135177 -0.8219057
v -0.7460227 0.11162996 -0.8379835
v -0.6344998 0.005284667 -0.7578328
v -1.045915 -0.39403802 -0.9431025
v -0.7460227 0.11162996 -0.8379835
v -0.53902066 0.005318761 -0.92327774
v -0.6344998 0.005284667 -0.7578328
v -0.6639645 0.11135745 -0.9793798
v -0.53902066 0.005318761 -0.92327774
v -0.9049274 -0.39410615 -1.1864158
v -0.69758487 -0.44135177 -1.0691704
v -0.6639645 0.11135745 -0.9793798
v -0.6344998 0.005284667 -0.7578328
v -0.69758487 -0.44135177 -1.0691704
v -0.8402754 -0.44135177 -0.8219057
v -0.53902066 0.005318761 -0.92327774
v -0.9049274 -0.39410615 -1.1864158
v -0.7460227 0.11162996 -0.8379835
v -1.045915 -0.39403802 -0.9431025
v -0.6639645 0.11135745 -0.9793798
v -0.8402754 -0.44135177 -0.8219057
v -0.9049274 -0.39410615 -1.1864158
v -1.045915 -0.39403802 -0.9431025
v -0.69758487 -0.44135177 -1.0691704
vt 0.32822126 0.5055896
vt 0.33158052 0.52731276
vt 0.32598177 0.52552116
vt 0.33673137 0.5044699
vt 0.33941877 0.54030186
vt 0.35240787 0.5324636
vt 0.33941877 0.5324636
vt 0.35240787 0.54030186
vt 0.32598177 0.52552116
vt 0.33673137 0.5044699
vt 0.32822126 0.5055896
vt 0.33158052 0.52731276
vt 0.32083094 0.52417743
vt 0.31142503 0.50514174
vt 0.32284647 0.50514174
vt 0.3134406 0.52417743
vt 0.35285577 0.50491774
vt 0.34412172 0.5284325
vt 0.34188223 0.50491774
vt 0.35061628 0.5284325
vt 0.32105488 0.5405258
vt 0.31545612 0.5333594
vt 0.31545612 0.5405258
vt 0.32105488 0.5333594
vn -0.49064052 0.108870745 0.86453396
vn -0.49758172 0.108870745 0.86055773
vn -0.50452304 0.108870745 0.85650665
vn -0.4836992 0.108870745 0.86843663
vn 0.5297259 0.78911495 0.310947
vn 0.5297259 0.78911495 0.310947
vn 0.5297259 0.78911495 0.310947
vn 0.5297259 0.78911495 0.310947
vn 0.49501953 0.11581206 -0.86112905
vn 0.5019608 0.101929545 -0.858863
vn 0.5089021 0.101929545 -0.8547684
vn 0.48807827 0.12275326 -0.86412454
vn 0.7865528 -0.42560685 0.44742993
vn 0.7865528 -0.42560685 0.44742993
vn 0.7865528 -0.42560685 0.44742993
vn 0.7865528 -0.42560685 0.44742993
vn -0.7335849 0.5253469 -0.4311193
vn -0.7335849 0.5253469 -0.4311193
vn -0.7335849 0.5253469 -0.4311193
vn -0.7335849 0.5253469 -0.4311193
vn -0.17134213 -0.9809083 -0.091982715
vn -0.17134213 -0.9809083 -0.091982715
vn -0.17134213 -0.9809083 -0.091982715
vn -0.17134213 -0.9809083 -0.091982715
g SpiderShassis_DefaultPart_4_CorpsePart_0
f 3/3/3 2/2/2 1/1/1
f 4/4/4 1/1/1 2/2/2
f 7/7/7 6/6/6 5/5/5
f 8/8/8 5/5/5 6/6/6
f 11/11/11 10/10/10 9/9/9
f 12/12/12 9/9/9 10/10/10
f 15/15/15 14/14/14 13/13/13
f 16/16/16 13/13/13 14/14/14
f 19/19/19 18/18/18 17/17/17
f 20/20/20 17/17/17 18/18/18
f 23/23/23 22/22/22 21/21/21
f 24/24/24 21/21/21 22/22/22
