g SpiderShassis_13
v -0.77264184 0.08184606 -0.14996463
v -0.84481496 0.14640057 0.092935026
v -0.84481496 0.14640057 -0.14996463
v -0.77264184 0.08184606 0.092935026
v -0.93678015 0.11617029 -0.14996463
v -0.9565993 0.021412611 0.092935026
v -0.9565993 0.021412611 -0.14996463
v -0.93678015 0.11617029 0.04104197
v -0.9356956 0.11617029 0.09350437
v -0.93678015 0.11617029 -0.096282154
v -0.8844262 -0.0431419 0.092935026
v -0.8844262 -0.0431419 -0.14996463
v -0.792461 -0.012911618 0.092935026
v -0.792461 -0.012911618 -0.14996463
v -0.84481496 0.14640057 0.092935026
v -0.9565993 0.021412611 0.092935026
v -0.9356956 0.11617029 0.09350437
v -0.8844262 -0.0431419 0.092935026
v -0.77264184 0.08184606 0.092935026
v -0.792461 -0.012911618 0.092935026
v -0.77264184 0.08184606 -0.14996463
v -0.8844262 -0.0431419 -0.14996463
v -0.792461 -0.012911618 -0.14996463
v -0.9565993 0.021412611 -0.14996463
v -0.84481496 0.14640057 -0.14996463
v -0.93678015 0.11617029 -0.14996463
v -0.9356956 0.11617029 0.09350437
v -0.84481496 0.14640057 -0.14996463
v -0.84481496 0.14640057 0.092935026
v -0.93678015 0.11617029 0.04104197
v -0.93678015 0.11617029 -0.096282154
v -0.93678015 0.11617029 -0.14996463
v -0.93949133 0.11839354 -0.09503499
v -0.93949133 0.1183393 0.039794803
v -0.92788726 0.19319654 -0.089666724
v -0.93678015 0.11617029 -0.096282154
v -0.8948373 0.14360803 -0.096309274
v -0.98379296 0.15006077 -0.08622345
v -0.9511768 0.1079824 -0.09281176
v -0.93678015 0.11617029 -0.096282154
v -0.93949133 0.1183393 0.039794803
v -0.93678015 0.11617029 0.04104197
v -0.93949133 0.11839354 -0.09503499
v -0.93678015 0.11617029 0.04104197
v -0.92788726 0.19319654 0.03442651
v -0.8948373 0.14360803 0.04115039
v -0.9511768 0.1079824 0.03754443
v -0.98379296 0.15006077 0.03098327
v -0.98379296 0.15006077 -0.08622345
v -1.1085639 -0.17197987 0.025479436
v -1.1085639 -0.17197987 -0.08071965
v -0.98379296 0.15006077 0.03098327
v -1.1085639 -0.17197987 0.025479436
v -1.1085639 -0.17197987 -0.08071965
v -0.92788726 0.19319654 -0.089666724
v -0.92788726 0.19319654 0.03442651
v -0.8948373 0.14360803 -0.096309274
v -0.92788726 0.19319654 0.03442651
v -0.92788726 0.19319654 -0.089666724
v -0.8948373 0.14360803 0.04115039
v -1.1936698 -0.5773367 0.011543691
v -1.0416777 -0.391834 0.053459406
v -1.115586 -0.577635 0.016017258
v -1.1991735 -0.35973296 0.053459406
v -1.1936698 -0.5773367 -0.069874704
v -1.1991735 -0.35973296 0.053459406
v -1.1936698 -0.5773367 0.011543691
v -1.1991735 -0.35973296 -0.11179042
v -1.115586 -0.577635 0.016017258
v -1.0416777 -0.391834 -0.11181754
v -1.115586 -0.577635 -0.07434827
v -1.0416777 -0.391834 0.053459406
v -1.115586 -0.577635 -0.07434827
v -1.1991735 -0.35973296 -0.11179042
v -1.1936698 -0.5773367 -0.069874704
v -1.0416777 -0.391834 -0.11181754
v -1.115586 -0.577635 -0.07434827
v -1.1936698 -0.5773367 0.011543691
v -1.115586 -0.577635 0.016017258
v -1.1936698 -0.5773367 -0.069874704
vt 0.30056706 0.5277995
vt 0.3078797 0.53050786
vt 0.30056706 0.53050786
vt 0.3078797 0.5277995
vt 0.30056706 0.516966
vt 0.3078797 0.51967436
vt 0.30056706 0.51967436
vt 0.30625466 0.516966
vt 0.3078797 0.516966
vt 0.3021921 0.516966
vt 0.3078797 0.52238274
vt 0.30056706 0.52238274
vt 0.3078797 0.5250911
vt 0.30056706 0.5250911
vt 0.30571297 0.541883
vt 0.3000254 0.5370079
vt 0.30435878 0.53782046
vt 0.29704618 0.540258
vt 0.30273378 0.5451331
vt 0.29840037 0.5443206
vt 0.30273378 0.5451331
vt 0.29704618 0.540258
vt 0.29840037 0.5443206
vt 0.3000254 0.5370079
vt 0.30571297 0.541883
vt 0.30435878 0.53782046
vt 0.30056706 0.5291537
vt 0.3078797 0.52807033
vt 0.30056706 0.52807033
vt 0.3078797 0.5291537
vt 0.30056706 0.5291537
vt 0.3078797 0.5291537
vt 0.30056706 0.52807033
vt 0.3078797 0.52807033
vt 0.29027525 0.5307787
vt 0.2889211 0.528612
vt 0.2883794 0.530237
vt 0.29081693 0.5283412
vt 0.2889211 0.52807033
vt 0.29406697 0.52590364
vt 0.29650453 0.5256328
vt 0.29650453 0.52590364
vt 0.29406697 0.5256328
vt 0.2889211 0.528612
vt 0.29027525 0.5307787
vt 0.2883794 0.530237
vt 0.2889211 0.52807033
vt 0.29081693 0.5283412
vt 0.29650453 0.528612
vt 0.29406697 0.5175077
vt 0.29623368 0.5175077
vt 0.29379615 0.528612
vt 0.2883794 0.516966
vt 0.2883794 0.516966
vt 0.29650453 0.53050786
vt 0.29379615 0.53050786
vt 0.29677534 0.5324037
vt 0.29379615 0.5307787
vt 0.29650453 0.5307787
vt 0.29379615 0.5324037
vt 0.30408797 0.56355
vt 0.29894206 0.5570499
vt 0.30165043 0.56355
vt 0.30435878 0.55596656
vt 0.31140056 0.5630083
vt 0.31627563 0.55488324
vt 0.3146506 0.5630083
vt 0.31004637 0.55488324
vt 0.2883794 0.5640917
vt 0.29325446 0.5573207
vt 0.29190028 0.5640917
vt 0.2870252 0.5573207
vt 0.30165043 0.56355
vt 0.30435878 0.55596656
vt 0.30408797 0.56355
vt 0.29894206 0.5570499
vt 0.31031722 0.55136234
vt 0.30760884 0.5481123
vt 0.31031722 0.5478414
vt 0.30760884 0.5510915
vn 0.9510778 0.30895123 -0
vn 0.20798951 0.97609425 -0.0630904
vn 0.372291 0.92811614 -0
vn 0.9510778 0.30895123 -0
vn -0.9133613 0.39581478 -0.09540332
vn -0.88199484 -0.46676284 0.064942785
vn -0.9509327 -0.30939797 -0
vn -0.819262 0.5683303 0.07622604
vn -0.49775577 0.86631167 0.041753042
vn -0.928245 0.37196946 -0
vn -0.20761609 -0.9764678 -0.058362886
vn -0.20761609 -0.9764678 -0.058362886
vn 0.748911 -0.66267055 -0
vn 0.748911 -0.66267055 -0
vn 0.004107535 -0.004107535 0.99998313
vn 0.004107535 -0.004107535 0.99998313
vn 0.011949182 -0.004107535 0.9999201
vn -0.0037341118 0.0037341118 0.99998605
vn -0.0037341118 0.0037341118 0.99998605
vn -0.0037341118 0.0037341118 0.99998605
vn -0.0037341118 0.0037341118 -0.99998605
vn -0.0037341118 0.0037341118 -0.99998605
vn -0.0037341118 0.0037341118 -0.99998605
vn -0.0037341118 0.0037341118 -0.99998605
vn -0.0037341118 0.0037341118 -0.99998605
vn -0.0037341118 0.0037341118 -0.99998605
vn -0.49775577 0.86631167 0.041753042
vn 0.372291 0.92811614 -0
vn 0.20798951 0.97609425 -0.0630904
vn -0.819262 0.5683303 0.07622604
vn -0.928245 0.37196946 -0
vn -0.9133613 0.39581478 -0.09540332
vn -0.30171537 0.9525695 0.039739463
vn -0.6372856 -0.77062774 -0
vn -0.1056751 0.097833395 -0.9895764
vn -0.121358275 0.08215022 -0.98920345
vn -0.05862534 0.08999181 -0.99421555
vn -0.14488316 0.050783753 -0.98814464
vn -0.15272474 0.03510046 -0.98764527
vn -0.928245 0.37196946 -0
vn -0.6372856 -0.77062774 -0
vn -0.819262 0.5683303 0.07622604
vn -0.30171537 0.9525695 0.039739463
vn -0.17624962 0.1056751 0.97865665
vn -0.097833395 0.08215022 0.9918064
vn -0.06646693 0.08999181 0.9937221
vn -0.14488316 0.042942166 0.98851645
vn -0.13704145 0.050783753 0.9892627
vn -0.88983655 0.45070612 -0.071097866
vn -0.9290446 0.3644483 -0.063667364
vn -0.9290446 0.3644483 -0.063667364
vn -0.88983655 0.45070612 -0.071097866
vn -0.14488316 0.042942166 0.98851645
vn -0.14488316 0.042942166 -0.98851645
vn -0.60753834 0.78789556 -0.10058712
vn -0.60753834 0.78789556 -0.10058712
vn 0.8339953 0.5517716 -0
vn 0.8339953 0.5517716 -0
vn 0.8339953 0.5517716 -0
vn 0.8339953 0.5517716 -0
vn -0.042942166 -0.1844647 0.9819006
vn -0.042942166 -0.19230628 0.98039496
vn -0.05862534 -0.17662305 0.98253113
vn -0.03510046 -0.19230628 0.98070705
vn -0.9996182 -0.02763239 -0
vn -0.9996182 -0.02763239 -0
vn -0.9996182 -0.02763239 -0
vn -0.9996182 -0.02763239 -0
vn 0.92816776 -0.3721621 -0
vn 0.92816776 -0.3721621 -0
vn 0.92816776 -0.3721621 -0
vn 0.92816776 -0.3721621 -0
vn -0.042942166 -0.1844647 -0.9819006
vn -0.042942166 -0.1844647 -0.9819006
vn -0.05862534 -0.19230628 -0.97958225
vn -0.03510046 -0.1844647 -0.9822122
vn -0.0037341118 -0.9999926 -0.0009134906
vn -0.0037341118 -0.9999926 -0.0009134906
vn -0.0037341118 -0.9999926 -0.0009134906
vn -0.0037341118 -0.9999926 -0.0009134906
g SpiderShassis_13_0
f 3/3/3 2/2/2 1/1/1
f 4/4/4 1/1/1 2/2/2
f 7/7/7 6/6/6 5/5/5
f 9/9/9 8/8/8 6/6/6
f 8/8/8 10/10/10 6/6/6
f 6/6/6 10/10/10 5/5/5
f 12/12/12 11/11/11 7/7/7
f 6/6/6 7/7/7 11/11/11
f 14/14/14 13/13/13 12/12/12
f 11/11/11 12/12/12 13/13/13
f 1/1/1 4/4/4 14/14/14
f 13/13/13 14/14/14 4/4/4
f 17/17/17 16/16/16 15/15/15
f 16/16/16 18/18/18 15/15/15
f 15/15/15 18/18/18 19/19/19
f 18/18/18 20/20/20 19/19/19
f 23/23/23 22/22/22 21/21/21
f 26/26/26 25/25/25 24/24/24
f 24/24/24 25/25/25 22/22/22
f 22/22/22 25/25/25 21/21/21
f 29/29/29 28/28/28 27/27/27
f 27/27/27 28/28/28 30/30/30
f 32/32/32 31/31/31 28/28/28
f 31/31/31 33/33/33 28/28/28
f 28/28/28 33/33/33 30/30/30
f 33/33/33 34/34/34 30/30/30
f 37/37/37 36/36/36 35/35/35
f 39/39/39 38/38/38 36/36/36
f 36/36/36 38/38/38 35/35/35
f 42/42/42 41/41/41 40/40/40
f 43/43/43 40/40/40 41/41/41
f 46/46/46 45/45/45 44/44/44
f 48/48/48 47/47/47 45/45/45
f 45/45/45 47/47/47 44/44/44
f 51/51/51 50/50/50 49/49/49
f 52/52/52 49/49/49 50/50/50
f 53/53/53 47/47/47 48/48/48
f 54/54/54 38/38/38 39/39/39
f 49/49/49 52/52/52 55/55/55
f 56/56/56 55/55/55 52/52/52
f 59/59/59 58/58/58 57/57/57
f 60/60/60 57/57/57 58/58/58
f 63/63/63 62/62/62 61/61/61
f 64/64/64 61/61/61 62/62/62
f 67/67/67 66/66/66 65/65/65
f 68/68/68 65/65/65 66/66/66
f 71/71/71 70/70/70 69/69/69
f 72/72/72 69/69/69 70/70/70
f 75/75/75 74/74/74 73/73/73
f 76/76/76 73/73/73 74/74/74
f 79/79/79 78/78/78 77/77/77
f 80/80/80 77/77/77 78/78/78
