g SpiderShassis_08
v -0.35138792 -0.09242362 -0.5810123
v -0.35138792 -0.31190324 -0.5810123
v -0.24502534 -0.31190324 -0.7652448
v -0.24502534 -0.09242362 -0.7652448
v -0.24502534 -0.09242362 -0.7652448
v -0.24502534 -0.31190324 -0.7652448
v -0.15221041 -0.31190324 -0.6564754
v -0.15221041 -0.09242362 -0.6564754
v -0.15221041 -0.09242362 -0.6564754
v -0.15221041 -0.31190324 -0.6564754
v -0.21078748 -0.31190324 -0.55500394
v -0.21078748 -0.09242362 -0.55500394
v -0.21078748 -0.09242362 -0.55500394
v -0.21078748 -0.31190324 -0.55500394
v -0.35138792 -0.31190324 -0.5810123
v -0.35138792 -0.09242362 -0.5810123
v -0.24502534 -0.31190324 -0.7652448
v -0.35138792 -0.31190324 -0.5810123
v -0.21078748 -0.31190324 -0.55500394
v -0.15221041 -0.31190324 -0.6564754
v -0.35138792 -0.09242362 -0.5810123
v -0.24502534 -0.09242362 -0.7652448
v -0.15221041 -0.09242362 -0.6564754
v -0.21078748 -0.09242362 -0.55500394
v -0.33762687 -0.1556201 -0.6079329
v -0.26769537 -0.23950684 -0.5675423
v -0.40903336 -0.36023226 -0.6409092
v -0.45798343 -0.29870498 -0.66916907
v -0.19122297 -0.23950684 -0.70001036
v -0.3254184 -0.36023226 -0.7857409
v -0.40903336 -0.36023226 -0.6409092
v -0.26769537 -0.23950684 -0.5675423
v -0.3743685 -0.29870498 -0.8140008
v -0.3254184 -0.36023226 -0.7857409
v -0.19122297 -0.23950684 -0.70001036
v -0.26115447 -0.1556201 -0.74038154
v -0.3743685 -0.29870498 -0.8140008
v -0.26115447 -0.1556201 -0.74038154
v -0.33762687 -0.1556201 -0.6079329
v -0.45798343 -0.29870498 -0.66916907
vt 0.2856336 0.50591576
vt 0.2856336 0.51827306
vt 0.2746195 0.51827306
vt 0.2746195 0.50591576
vt 0.27381358 0.50457263
vt 0.27381358 0.5145122
vt 0.26656038 0.5145122
vt 0.26656038 0.50457263
vt 0.26656038 0.50457263
vt 0.26656038 0.5145122
vt 0.26065037 0.5145122
vt 0.26065037 0.50457263
vt 0.26065037 0.50457263
vt 0.26065037 0.5145122
vt 0.25420308 0.5145122
vt 0.25420308 0.50457263
vt 0.26118764 0.52391446
vt 0.25662082 0.52391446
vt 0.25662082 0.52794397
vt 0.26118764 0.52794397
vt 0.26548582 0.5247203
vt 0.2719331 0.51746714
vt 0.27515677 0.5247203
vt 0.27166447 0.5290185
vt 0.3025577 0.50430393
vt 0.30739316 0.50430393
vt 0.3063186 0.5134376
vt 0.30282634 0.5134376
vt 0.29127496 0.5137062
vt 0.2907377 0.50430393
vt 0.29772225 0.50430393
vt 0.29772225 0.5137062
vt 0.30282634 0.5134376
vt 0.3063186 0.5134376
vt 0.30739316 0.50430393
vt 0.3025577 0.50430393
vt 0.29100633 0.50430393
vt 0.29127496 0.5137062
vt 0.29772225 0.5137062
vt 0.2979909 0.50430393
vn -0.86666 0.003921509 -0.49888384
vn -0.86666 0.003921509 -0.49888384
vn -0.86666 0.003921509 -0.49888384
vn -0.86666 0.003921509 -0.49888384
vn 0.756857 0.003921509 -0.6535688
vn 0.756857 0.003921509 -0.6535688
vn 0.756857 0.003921509 -0.6535688
vn 0.756857 0.003921509 -0.6535688
vn 0.86666006 0.003921509 0.49888372
vn 0.86666006 0.003921509 0.49888372
vn 0.86666006 0.003921509 0.49888372
vn 0.86666006 0.003921509 0.49888372
vn -0.18431222 0.003921509 0.9828599
vn -0.18431222 0.003921509 0.9828599
vn -0.18431222 0.003921509 0.9828599
vn -0.18431222 0.003921509 0.9828599
vn -0.003921509 -0.9999924 -0
vn -0.003921509 -0.9999924 -0
vn -0.003921509 -0.9999924 -0
vn -0.003921509 -0.9999924 -0
vn -0.003921509 0.99999225 -0.00034526698
vn -0.003921509 0.99999225 -0.00034526698
vn -0.003921509 0.99999225 -0.00034526698
vn -0.003921509 0.99999225 -0.00034526698
vn -0.47450614 0.02745068 0.8798241
vn -0.47450614 0.02745068 0.8798241
vn -0.47450614 0.02745068 0.8798241
vn -0.47450614 0.02745068 0.8798241
vn 0.52156466 -0.79607236 0.3069839
vn 0.52156466 -0.79607236 0.3069839
vn 0.52156466 -0.79607236 0.3069839
vn 0.52156466 -0.79607236 0.3069839
vn 0.52156466 0.02745068 -0.8527701
vn 0.52156466 0.02745068 -0.8527701
vn 0.52156466 0.02745068 -0.8527701
vn 0.52156466 0.02745068 -0.8527701
vn -0.6313677 0.68626916 -0.36112258
vn -0.6313677 0.68626916 -0.36112258
vn -0.6313677 0.68626916 -0.36112258
vn -0.6313677 0.68626916 -0.36112258
g SpiderShassis_08_0
f 3/3/3 2/2/2 1/1/1
f 4/4/4 3/3/3 1/1/1
f 7/7/7 6/6/6 5/5/5
f 8/8/8 7/7/7 5/5/5
f 11/11/11 10/10/10 9/9/9
f 12/12/12 11/11/11 9/9/9
f 15/15/15 14/14/14 13/13/13
f 16/16/16 15/15/15 13/13/13
f 19/19/19 18/18/18 17/17/17
f 20/20/20 19/19/19 17/17/17
f 23/23/23 22/22/22 21/21/21
f 24/24/24 23/23/23 21/21/21
f 27/27/27 26/26/26 25/25/25
f 28/28/28 27/27/27 25/25/25
f 31/31/31 30/30/30 29/29/29
f 32/32/32 31/31/31 29/29/29
f 35/35/35 34/34/34 33/33/33
f 36/36/36 35/35/35 33/33/33
f 39/39/39 38/38/38 37/37/37
f 40/40/40 39/39/39 37/37/37
