g SpiderShassis_10
v 0.50876164 0.08185148 -0.93484306
v 0.6927368 0.14641047 -0.7605497
v 0.63023394 0.08185148 -0.7244574
v 0.57126445 0.14641047 -0.9709354
v 0.7464361 0.11616719 -0.8514793
v 0.7895354 0.021404743 -0.816445
v 0.77172875 0.11616719 -0.8055254
v 0.6777649 0.11616719 -0.97043633
v 0.65091515 0.11616719 -1.0169291
v 0.668083 0.021404743 -1.0268307
v 0.72705245 -0.04313433 -0.7803526
v 0.60558015 -0.04313433 -0.9907383
v 0.6473818 -0.012910962 -0.73437876
v 0.52592945 -0.012910962 -0.94474447
v 0.63023394 0.08185148 -0.7244574
v 0.72705245 -0.04313433 -0.7803526
v 0.6473818 -0.012910962 -0.73437876
v 0.7895354 0.021404743 -0.816445
v 0.6927368 0.14641047 -0.7605497
v 0.77172875 0.11616719 -0.8055254
v 0.57126445 0.14641047 -0.9709354
v 0.668083 0.021404743 -1.0268307
v 0.65091515 0.11616719 -1.0169291
v 0.60558015 -0.04313433 -0.9907383
v 0.50876164 0.08185148 -0.93484306
v 0.52592945 -0.012910962 -0.94474447
v 0.7464361 0.11616719 -0.8514793
v 0.6807393 0.11838293 -0.97069585
v 0.748153 0.118342996 -0.85393465
v 0.6777649 0.11616719 -0.97043633
v 0.57126445 0.14641047 -0.9709354
v 0.65091515 0.11616719 -1.0169291
v 0.77172875 0.11616719 -0.8055254
v 0.6927368 0.14641047 -0.7605497
v 0.7234992 0.15006363 -0.98520863
v 0.6777649 0.11616719 -0.97043633
v 0.6919782 0.108002424 -0.97460854
v 0.6733731 0.19320273 -0.9602355
v 0.641433 0.14361572 -0.94947565
v 0.6777649 0.11616719 -0.97043633
v 0.748153 0.118342996 -0.85393465
v 0.6807393 0.11838293 -0.97069585
v 0.7464361 0.11616719 -0.8514793
v 0.7571561 0.10798252 -0.8617201
v 0.7354168 0.19320273 -0.8527769
v 0.78210926 0.15006363 -0.8836989
v 0.7464361 0.11616719 -0.8514793
v 0.7101642 0.14361572 -0.83041877
v 0.7234992 0.15006363 -0.98520863
v 0.8857351 -0.17313069 -0.94989485
v 0.78210926 0.15006363 -0.8836989
v 0.83263457 -0.17313069 -1.0418625
v 0.8857351 -0.17313069 -0.94989485
v 0.83263457 -0.17313069 -1.0418625
v 0.6733731 0.19320273 -0.9602355
v 0.7354168 0.19320273 -0.8527769
v 0.641433 0.14361572 -0.94947565
v 0.7354168 0.19320273 -0.8527769
v 0.7101642 0.14361572 -0.83041877
v 0.6733731 0.19320273 -0.9602355
v 0.95414686 -0.5773331 -1.0054706
v 0.84347427 -0.39184076 -0.8931612
v 0.97987866 -0.35972095 -0.97193354
v 0.8887694 -0.57763255 -0.9625711
v 0.91344315 -0.5773331 -1.0759985
v 0.97987866 -0.35972095 -0.97193354
v 0.8972535 -0.35972095 -1.1150453
v 0.95414686 -0.5773331 -1.0054706
v 0.8887694 -0.57763255 -0.9625711
v 0.7608292 -0.39184076 -1.0362929
v 0.84347427 -0.39184076 -0.8931612
v 0.8435941 -0.57763255 -1.0408244
v 0.8435941 -0.57763255 -1.0408244
v 0.8972535 -0.35972095 -1.1150453
v 0.7608292 -0.39184076 -1.0362929
v 0.91344315 -0.5773331 -1.0759985
v 0.8435941 -0.57763255 -1.0408244
v 0.95414686 -0.5773331 -1.0054706
v 0.91344315 -0.5773331 -1.0759985
v 0.8887694 -0.57763255 -0.9625711
vt 0.30047897 0.52781934
vt 0.30779505 0.53052896
vt 0.30779505 0.52781934
vt 0.30047897 0.53052896
vt 0.30616927 0.5169807
vt 0.30779505 0.51969033
vt 0.30779505 0.5169807
vt 0.30210477 0.5169807
vt 0.30047897 0.5169807
vt 0.30047897 0.51969033
vt 0.30779505 0.5224
vt 0.30047897 0.5224
vt 0.30779505 0.52510965
vt 0.30047897 0.52510965
vt 0.3026467 0.5451611
vt 0.29695642 0.5400128
vt 0.29831123 0.54434824
vt 0.29993704 0.5370321
vt 0.30562732 0.5419096
vt 0.3042725 0.537845
vt 0.30562732 0.5419096
vt 0.29993704 0.5370321
vt 0.3042725 0.537845
vt 0.29695642 0.5400128
vt 0.3026467 0.5451611
vt 0.29831123 0.54434824
vt 0.30047897 0.5289032
vt 0.30779505 0.5280903
vt 0.30047897 0.5280903
vt 0.30779505 0.5289032
vt 0.30047897 0.5280903
vt 0.30047897 0.5289032
vt 0.30779505 0.5289032
vt 0.30779505 0.5280903
vt 0.2907242 0.52836126
vt 0.28882745 0.5286322
vt 0.2890984 0.5280903
vt 0.29045323 0.5307999
vt 0.28828552 0.530258
vt 0.2939758 0.5256516
vt 0.2964145 0.5256516
vt 0.2939758 0.5256516
vt 0.2964145 0.5256516
vt 0.2890984 0.5280903
vt 0.29045323 0.5307999
vt 0.2907242 0.52836126
vt 0.28882745 0.5286322
vt 0.28828552 0.530258
vt 0.2964145 0.5286322
vt 0.2939758 0.51752263
vt 0.2939758 0.5286322
vt 0.2964145 0.51752263
vt 0.2885565 0.5167097
vt 0.2885565 0.5167097
vt 0.29668546 0.53052896
vt 0.2939758 0.53052896
vt 0.29668546 0.53242576
vt 0.2939758 0.5307999
vt 0.29370484 0.53242576
vt 0.29668546 0.5307999
vt 0.30400154 0.56358683
vt 0.2988532 0.5570836
vt 0.30400154 0.55599976
vt 0.30129188 0.56358683
vt 0.3113176 0.5630449
vt 0.31619498 0.55518687
vt 0.30996278 0.55518687
vt 0.3145692 0.5630449
vt 0.28828552 0.56412876
vt 0.29316288 0.55735457
vt 0.28693068 0.55735457
vt 0.29180807 0.56412876
vt 0.30129188 0.56358683
vt 0.30400154 0.55599976
vt 0.2988532 0.5570836
vt 0.30400154 0.56358683
vt 0.3105047 0.5513934
vt 0.30752409 0.5481417
vt 0.30752409 0.5511224
vt 0.3105047 0.54787076
vn -0.82358944 0.3114388 0.47403198
vn -0.17952108 0.9787866 0.098737
vn -0.82358944 0.3114388 0.47403198
vn -0.3191986 0.9244677 0.2084988
vn 0.7128627 0.56751406 -0.4120129
vn 0.7671817 -0.46454716 -0.44229877
vn 0.43350774 0.87014866 -0.2343338
vn 0.7904613 0.37351763 -0.48544365
vn 0.7904613 0.39679718 -0.4666079
vn 0.8215007 -0.30935 -0.47899804
vn 0.17743242 -0.9766979 -0.12074303
vn 0.17743242 -0.9766979 -0.12074303
vn -0.64511263 -0.6663035 0.37399107
vn -0.64511263 -0.6663035 0.37399107
vn 0.50334644 0.0010443926 0.86408406
vn 0.50334644 0.0010443926 0.86408406
vn 0.50334644 0.0010443926 0.86408406
vn 0.49558663 0.0010443926 0.8685579
vn 0.49558663 0.0010443926 0.8685579
vn 0.49558663 -0.0067154765 0.86853254
vn -0.49767542 0.0010443926 -0.86736274
vn -0.49767542 0.0010443926 -0.86736274
vn -0.49767542 0.0010443926 -0.86736274
vn -0.49767542 0.0010443926 -0.86736274
vn -0.49767542 0.0010443926 -0.86736274
vn -0.49767542 0.0010443926 -0.86736274
vn 0.7128627 0.56751406 -0.4120129
vn 0.27055073 0.95550704 -0.11750978
vn 0.55766547 -0.77494156 -0.29744706
vn 0.7904613 0.37351763 -0.48544365
vn -0.3191986 0.9244677 0.2084988
vn 0.7904613 0.39679718 -0.4666079
vn 0.43350774 0.87014866 -0.2343338
vn -0.17952108 0.9787866 0.098737
vn -0.3657577 0.055363417 -0.929062
vn -0.38903737 0.086402774 -0.9171611
vn -0.3657577 0.03984368 -0.9298569
vn -0.4045571 0.0941627 -0.90965205
vn -0.4433564 0.0941627 -0.89138573
vn 0.7904613 0.37351763 -0.48544365
vn 0.55766547 -0.77494156 -0.29744706
vn 0.27055073 0.95550704 -0.11750978
vn 0.7128627 0.56751406 -0.4120129
vn 0.61974436 0.047603488 0.7833587
vn 0.5809451 0.078642964 0.81013465
vn 0.6119845 0.047603488 0.7894358
vn 0.64302397 0.10192251 0.7590336
vn 0.54990566 0.0941627 0.8299019
vn 0.77494156 0.4433564 -0.45044497
vn 0.805981 0.3579979 -0.47141507
vn 0.77494156 0.4433564 -0.45044497
vn 0.805981 0.3579979 -0.47141507
vn 0.61974436 0.03984368 0.7837917
vn -0.3657577 0.03984368 -0.9298569
vn 0.52662605 0.79254997 -0.3074566
vn 0.52662605 0.79254997 -0.3074566
vn -0.7227113 0.5519943 0.4159214
vn -0.7227113 0.5519943 0.4159214
vn -0.7227113 0.5519943 0.4159214
vn -0.7227113 0.5519943 0.4159214
vn 0.52662605 -0.18519223 0.82967997
vn 0.52662605 -0.18519223 0.82967997
vn 0.52662605 -0.1929521 0.8279097
vn 0.5421457 -0.17743242 0.8213378
vn 0.8680599 -0.022235215 -0.49596134
vn 0.8680599 -0.022235215 -0.49596134
vn 0.8680599 -0.022235215 -0.49596134
vn 0.8680599 -0.022235215 -0.49596134
vn -0.8080697 -0.37142885 0.45723516
vn -0.8080697 -0.37142885 0.45723516
vn -0.8080697 -0.37142885 0.45723516
vn -0.8080697 -0.37142885 0.45723516
vn -0.4511162 -0.18519223 -0.87303954
vn -0.458876 -0.18519223 -0.868986
vn -0.458876 -0.18519223 -0.868986
vn -0.4433564 -0.1929521 -0.87533116
vn 0.0067154765 -0.99997747 -0
vn 0.0067154765 -0.99997747 -0
vn 0.0067154765 -0.99997747 -0
vn 0.0067154765 -0.99997747 -0
g SpiderShassis_10_0
f 3/3/3 2/2/2 1/1/1
f 4/4/4 1/1/1 2/2/2
f 7/7/7 6/6/6 5/5/5
f 5/5/5 6/6/6 8/8/8
f 8/8/8 6/6/6 9/9/9
f 6/6/6 10/10/10 9/9/9
f 6/6/6 11/11/11 10/10/10
f 12/12/12 10/10/10 11/11/11
f 11/11/11 13/13/13 12/12/12
f 14/14/14 12/12/12 13/13/13
f 13/13/13 3/3/3 14/14/14
f 1/1/1 14/14/14 3/3/3
f 17/17/17 16/16/16 15/15/15
f 20/20/20 19/19/19 18/18/18
f 18/18/18 19/19/19 16/16/16
f 16/16/16 19/19/19 15/15/15
f 23/23/23 22/22/22 21/21/21
f 22/22/22 24/24/24 21/21/21
f 21/21/21 24/24/24 25/25/25
f 24/24/24 26/26/26 25/25/25
f 29/29/29 28/28/28 27/27/27
f 32/32/32 31/31/31 30/30/30
f 30/30/30 31/31/31 28/28/28
f 28/28/28 31/31/31 27/27/27
f 34/34/34 33/33/33 31/31/31
f 31/31/31 33/33/33 27/27/27
f 37/37/37 36/36/36 35/35/35
f 35/35/35 36/36/36 38/38/38
f 36/36/36 39/39/39 38/38/38
f 42/42/42 41/41/41 40/40/40
f 43/43/43 40/40/40 41/41/41
f 46/46/46 45/45/45 44/44/44
f 44/44/44 45/45/45 47/47/47
f 45/45/45 48/48/48 47/47/47
f 51/51/51 50/50/50 49/49/49
f 52/52/52 49/49/49 50/50/50
f 44/44/44 53/53/53 46/46/46
f 35/35/35 54/54/54 37/37/37
f 56/56/56 51/51/51 55/55/55
f 49/49/49 55/55/55 51/51/51
f 59/59/59 58/58/58 57/57/57
f 60/60/60 57/57/57 58/58/58
f 63/63/63 62/62/62 61/61/61
f 64/64/64 61/61/61 62/62/62
f 67/67/67 66/66/66 65/65/65
f 68/68/68 65/65/65 66/66/66
f 71/71/71 70/70/70 69/69/69
f 72/72/72 69/69/69 70/70/70
f 75/75/75 74/74/74 73/73/73
f 76/76/76 73/73/73 74/74/74
f 79/79/79 78/78/78 77/77/77
f 80/80/80 77/77/77 78/78/78
