g Splitter_leg_016_CorpsePart
v -0.34431827 0.7511182 -0.44240946
v -0.40689844 0.71165335 -0.5049896
v -0.26577199 0.20311517 -0.3342502
v -0.17653054 0.2593702 -0.24502793
v -0.17653054 0.2593702 -0.24502793
v -0.24453497 0.2593702 -0.17704266
v -0.44191653 0.7511182 -0.3448112
v -0.34431827 0.7511182 -0.44240946
v -0.24453497 0.2593702 -0.17704266
v -0.33375728 0.20311517 -0.26626492
v -0.5044967 0.71165335 -0.40739137
v -0.44191653 0.7511182 -0.3448112
v -0.33375728 0.20311517 -0.26626492
v -0.26577199 0.20311517 -0.3342502
v -0.40689844 0.71165335 -0.5049896
v -0.5044967 0.71165335 -0.40739137
vt 0.08725579 0.6219373
vt 0.090991095 0.6219373
vt 0.090991095 0.60432804
vt 0.08725579 0.60432804
vt 0.08725579 0.60432804
vt 0.083520494 0.60432804
vt 0.083520494 0.6219373
vt 0.08725579 0.6219373
vt 0.083520494 0.60432804
vt 0.07978519 0.60432804
vt 0.07978519 0.6219373
vt 0.083520494 0.6219373
vt 0.07978519 0.60432804
vt 0.076049894 0.60432804
vt 0.076049894 0.6219373
vt 0.07978519 0.6219373
vn 0.71747583 -0.03580451 -0.6956626
vn 0.71747583 -0.03580451 -0.6956626
vn 0.71747583 -0.03580451 -0.6956626
vn 0.71747583 -0.03580451 -0.6956626
vn 0.62880313 0.46297938 0.6247053
vn 0.62880313 0.46297938 0.6247053
vn 0.62880313 0.46297938 0.6247053
vn 0.62880313 0.46297938 0.6247053
vn -0.69574517 -0.03580451 0.7173957
vn -0.69574517 -0.03580451 0.7173957
vn -0.69574517 -0.03580451 0.7173957
vn -0.69574517 -0.03580451 0.7173957
vn -0.65140885 -0.39603734 -0.6471638
vn -0.65140885 -0.39603734 -0.6471638
vn -0.65140885 -0.39603734 -0.6471638
vn -0.65140885 -0.39603734 -0.6471638
g Splitter_leg_016_CorpsePart_0
f 3/3/3 2/2/2 1/1/1
f 4/4/4 3/3/3 1/1/1
f 7/7/7 6/6/6 5/5/5
f 8/8/8 7/7/7 5/5/5
f 11/11/11 10/10/10 9/9/9
f 12/12/12 11/11/11 9/9/9
f 15/15/15 14/14/14 13/13/13
f 16/16/16 15/15/15 13/13/13
