g Splitter_leg_06
v -0.08733839 0.591496 -0.20313653
v -0.20264408 0.591496 -0.08783083
v -0.23972291 0.5850662 -0.12490967
v -0.124417216 0.5850662 -0.24021538
v -0.057902247 0.55896884 -0.17371342
v -0.17320794 0.55896884 -0.058407724
v -0.05336356 0.50652635 -0.1691617
v -0.16866925 0.50652635 -0.053856
v -0.07636991 0.46489578 -0.19216807
v -0.19167563 0.46489578 -0.076862365
v -0.11344877 0.45847905 -0.22924691
v -0.22875449 0.45847905 -0.11394122
v -0.19167563 0.46489578 -0.076862365
v -0.07636991 0.46489578 -0.19216807
v -0.14288491 0.4910192 -0.2586831
v -0.25817758 0.4910192 -0.14337736
v -0.1474236 0.5434487 -0.26322174
v -0.2627293 0.5434487 -0.14791603
v -0.20264408 0.591496 -0.08783083
v -0.21569929 0.524994 -0.10088602
v -0.23972291 0.5850662 -0.12490967
v -0.17320794 0.55896884 -0.058407724
v -0.16866925 0.50652635 -0.053856
v -0.19167563 0.46489578 -0.076862365
v -0.22875449 0.45847905 -0.11394122
v -0.25817758 0.4910192 -0.14337736
v -0.2627293 0.5434487 -0.14791603
v -0.124417216 0.5850662 -0.24021538
v -0.10039356 0.524994 -0.21619172
v -0.08733839 0.591496 -0.20313653
v -0.057902247 0.55896884 -0.17371342
v -0.05336356 0.50652635 -0.1691617
v -0.07636991 0.46489578 -0.19216807
v -0.11344877 0.45847905 -0.22924691
v -0.14288491 0.4910192 -0.2586831
v -0.1474236 0.5434487 -0.26322174
vt 0.0848252 0.59570795
vt 0.08986847 0.59570795
vt 0.08986847 0.59419495
vt 0.0848252 0.59419495
vt 0.0848252 0.5972209
vt 0.08986847 0.5972209
vt 0.0848252 0.5992382
vt 0.08986847 0.5992382
vt 0.0848252 0.6007512
vt 0.08986847 0.6007512
vt 0.0848252 0.5891517
vt 0.08986847 0.5891517
vt 0.08986847 0.5871344
vt 0.0848252 0.5871344
vt 0.0848252 0.5906647
vt 0.08986847 0.5906647
vt 0.0848252 0.5921777
vt 0.08986847 0.5921777
vt 0.08885981 0.5846127
vt 0.08835549 0.5820911
vt 0.08734684 0.5841084
vt 0.09037279 0.5836041
vt 0.09037279 0.5815868
vt 0.08936414 0.58057815
vt 0.08785116 0.58007383
vt 0.086338185 0.58108246
vt 0.086338185 0.5830998
vt 0.09037279 0.5836041
vt 0.08835549 0.5820911
vt 0.08885981 0.5846127
vt 0.08734684 0.5841084
vt 0.086338185 0.5830998
vt 0.086338185 0.58108246
vt 0.08785116 0.58007383
vt 0.08936414 0.58057815
vt 0.09037279 0.5815868
vn 0.1927033 0.96356666 0.18548502
vn 0.1927033 0.96356666 0.18548502
vn -0.35142374 0.8728788 -0.33850253
vn -0.35142374 0.8728788 -0.33850253
vn 0.6159133 0.49501288 0.61287284
vn 0.6159133 0.49501288 0.61287284
vn 0.6839291 -0.2682765 0.67843103
vn 0.6839291 -0.2682765 0.67843103
vn 0.35140705 -0.8728621 0.33856285
vn 0.35140705 -0.8728621 0.33856285
vn -0.19272006 -0.96355 -0.18555443
vn -0.19272006 -0.96355 -0.18555443
vn 0.35140705 -0.8728621 0.33856285
vn 0.35140705 -0.8728621 0.33856285
vn -0.61592996 -0.49499613 -0.61286956
vn -0.61592996 -0.49499613 -0.61286956
vn -0.6839458 0.26829326 -0.67840767
vn -0.6839458 0.26829326 -0.67840767
vn -0.70661783 0.0037870407 0.7075852
vn -0.70661783 -0.0037702918 0.7075854
vn -0.70661783 0.0037870407 0.7075852
vn -0.70661783 0.0037870407 0.7075852
vn -0.70661783 -0.0037702918 0.7075854
vn -0.70661783 -0.0037702918 0.7075854
vn -0.70661783 -0.0037702918 0.7075854
vn -0.70661783 -0.0037702918 0.7075854
vn -0.70661783 -0.0037702918 0.7075854
vn 0.7066011 0.0037870407 -0.70760196
vn 0.7066011 -0.0037702918 -0.7076021
vn 0.7066011 -0.0037702918 -0.7076021
vn 0.7066011 -0.0037702918 -0.7076021
vn 0.7066011 -0.0037702918 -0.7076021
vn 0.7066011 -0.0037702918 -0.7076021
vn 0.7066011 -0.0037702918 -0.7076021
vn 0.7066011 -0.0037702918 -0.7076021
vn 0.7066011 -0.0037702918 -0.7076021
g Splitter_leg_06_0
f 3/3/3 2/2/2 1/1/1
f 4/4/4 3/3/3 1/1/1
f 2/2/2 6/6/6 5/5/5
f 1/1/1 2/2/2 5/5/5
f 6/6/6 8/8/8 7/7/7
f 5/5/5 6/6/6 7/7/7
f 8/8/8 10/10/10 9/9/9
f 7/7/7 8/8/8 9/9/9
f 13/13/13 12/12/12 11/11/11
f 14/14/14 13/13/13 11/11/11
f 12/12/12 16/16/16 15/15/15
f 11/11/11 12/12/12 15/15/15
f 16/16/16 18/18/18 17/17/17
f 15/15/15 16/16/16 17/17/17
f 17/17/17 18/18/18 3/3/3
f 4/4/4 17/17/17 3/3/3
f 21/21/21 20/20/20 19/19/19
f 19/19/19 20/20/20 22/22/22
f 22/22/22 20/20/20 23/23/23
f 23/23/23 20/20/20 24/24/24
f 24/24/24 20/20/20 25/25/25
f 25/25/25 20/20/20 26/26/26
f 26/26/26 20/20/20 27/27/27
f 27/27/27 20/20/20 21/21/21
f 30/30/30 29/29/29 28/28/28
f 31/31/31 29/29/29 30/30/30
f 32/32/32 29/29/29 31/31/31
f 33/33/33 29/29/29 32/32/32
f 34/34/34 29/29/29 33/33/33
f 35/35/35 29/29/29 34/34/34
f 36/36/36 29/29/29 35/35/35
f 28/28/28 29/29/29 36/36/36
