g Splitter_leg_05
v -0.1247492 0.3641399 0.05407343
v -0.053765066 0.3641399 0.12505756
v -0.07659403 0.36018175 0.14788148
v -0.14757816 0.36018175 0.07689734
v -0.106631614 0.34410644 0.035955843
v -0.03564748 0.34410644 0.10693998
v -0.10383613 0.31182438 0.03316036
v -0.032851994 0.31182438 0.10413943
v -0.117995545 0.286205 0.047319777
v -0.047016468 0.286205 0.11830391
v -0.14082451 0.2822519 0.070148736
v -0.06984038 0.2822519 0.14113288
v -0.047016468 0.286205 0.11830391
v -0.117995545 0.286205 0.047319777
v -0.15894209 0.3022803 0.08826633
v -0.08795796 0.3022803 0.15925045
v -0.16173758 0.33456236 0.091061816
v -0.09075345 0.33456236 0.16204594
v -0.053765066 0.3641399 0.12505756
v -0.061802723 0.32319337 0.13309522
v -0.07659403 0.36018175 0.14788148
v -0.03564748 0.34410644 0.10693998
v -0.032851994 0.31182438 0.10413943
v -0.047016468 0.286205 0.11830391
v -0.06984038 0.2822519 0.14113288
v -0.08795796 0.3022803 0.15925045
v -0.09075345 0.33456236 0.16204594
v -0.14757816 0.36018175 0.07689734
v -0.13278686 0.32319337 0.062111087
v -0.1247492 0.3641399 0.05407343
v -0.106631614 0.34410644 0.035955843
v -0.10383613 0.31182438 0.03316036
v -0.117995545 0.286205 0.047319777
v -0.14082451 0.2822519 0.070148736
v -0.15894209 0.3022803 0.08826633
v -0.16173758 0.33456236 0.091061816
vt 0.21691991 0.60448533
vt 0.22074583 0.60448533
vt 0.22074583 0.6033375
vt 0.21691991 0.6033375
vt 0.21691991 0.6060157
vt 0.22074583 0.6060157
vt 0.21691991 0.6071634
vt 0.22074583 0.6071634
vt 0.21691991 0.60831124
vt 0.22074583 0.60831124
vt 0.21691991 0.5998942
vt 0.22074583 0.5998942
vt 0.22074583 0.5987464
vt 0.21691991 0.5987464
vt 0.21691991 0.601042
vt 0.22074583 0.601042
vt 0.21691991 0.6021898
vt 0.22074583 0.6021898
vt 0.21998064 0.59645087
vt 0.21959805 0.5949205
vt 0.21883287 0.59645087
vt 0.22074583 0.5956857
vt 0.22112842 0.5945379
vt 0.22036324 0.59377277
vt 0.21921547 0.59339017
vt 0.21806769 0.5941553
vt 0.21806769 0.5953031
vt 0.22074583 0.5956857
vt 0.21959805 0.5949205
vt 0.21998064 0.59645087
vt 0.21883287 0.59645087
vt 0.21806769 0.5953031
vt 0.21806769 0.5941553
vt 0.21921547 0.59339017
vt 0.22036324 0.59377277
vt 0.22112842 0.5945379
vn 0.19271183 0.9635564 -0.18552953
vn 0.19271183 0.9635564 -0.18552953
vn -0.35141432 0.87286866 0.33853847
vn -0.35141432 0.87286866 0.33853847
vn 0.61592114 0.49500322 -0.61287266
vn 0.61592114 0.49500322 -0.61287266
vn 0.68393695 -0.26828498 -0.67841977
vn 0.68393695 -0.26828498 -0.67841977
vn 0.35141534 -0.8728697 -0.33853486
vn 0.35141534 -0.8728697 -0.33853486
vn -0.19271088 -0.96355736 0.1855255
vn -0.19271088 -0.96355736 0.1855255
vn 0.35141534 -0.8728697 -0.33853486
vn 0.35141534 -0.8728697 -0.33853486
vn -0.6159202 -0.4950042 0.61287284
vn -0.6159202 -0.4950042 0.61287284
vn -0.683936 0.26828396 0.6784212
vn -0.683936 0.26828396 0.6784212
vn 0.7066089 0.0037781596 0.7075943
vn 0.7066089 0.0037781596 0.7075943
vn 0.7066089 0.0037781596 0.7075943
vn 0.7066089 -0.0037791133 0.7075942
vn 0.7066089 -0.0037791133 0.7075942
vn 0.7066089 0.0037781596 0.7075943
vn 0.7066089 0.0037781596 0.7075943
vn 0.7066089 0.0037781596 0.7075943
vn 0.7066089 0.0037781596 0.7075943
vn -0.70660794 -0.0037791133 -0.70759517
vn -0.70660794 0.0037781596 -0.7075952
vn -0.70660794 0.0037781596 -0.7075952
vn -0.70660794 0.0037781596 -0.7075952
vn -0.70660794 -0.0037791133 -0.70759517
vn -0.70660794 0.0037781596 -0.7075952
vn -0.70660794 0.0037781596 -0.7075952
vn -0.70660794 0.0037781596 -0.7075952
vn -0.70660794 -0.0037791133 -0.70759517
g Splitter_leg_05_0
f 3/3/3 2/2/2 1/1/1
f 4/4/4 3/3/3 1/1/1
f 2/2/2 6/6/6 5/5/5
f 1/1/1 2/2/2 5/5/5
f 6/6/6 8/8/8 7/7/7
f 5/5/5 6/6/6 7/7/7
f 8/8/8 10/10/10 9/9/9
f 7/7/7 8/8/8 9/9/9
f 13/13/13 12/12/12 11/11/11
f 14/14/14 13/13/13 11/11/11
f 12/12/12 16/16/16 15/15/15
f 11/11/11 12/12/12 15/15/15
f 16/16/16 18/18/18 17/17/17
f 15/15/15 16/16/16 17/17/17
f 17/17/17 18/18/18 3/3/3
f 4/4/4 17/17/17 3/3/3
f 21/21/21 20/20/20 19/19/19
f 19/19/19 20/20/20 22/22/22
f 22/22/22 20/20/20 23/23/23
f 23/23/23 20/20/20 24/24/24
f 24/24/24 20/20/20 25/25/25
f 25/25/25 20/20/20 26/26/26
f 26/26/26 20/20/20 27/27/27
f 27/27/27 20/20/20 21/21/21
f 30/30/30 29/29/29 28/28/28
f 31/31/31 29/29/29 30/30/30
f 32/32/32 29/29/29 31/31/31
f 33/33/33 29/29/29 32/32/32
f 34/34/34 29/29/29 33/33/33
f 35/35/35 29/29/29 34/34/34
f 36/36/36 29/29/29 35/35/35
f 28/28/28 29/29/29 36/36/36
