g Splitter_leg_015_CorpsePart
v -0.27205247 0.46240652 0.212275
v -0.3105691 0.43811232 0.25079703
v -0.20546874 0.1250458 0.16391869
v -0.15054366 0.15967624 0.1089882
v -0.15054366 0.15967624 0.1089882
v -0.10868055 0.15967624 0.15084592
v -0.21196735 0.46240652 0.27235472
v -0.27205247 0.46240652 0.212275
v -0.10868055 0.15967624 0.15084592
v -0.16361102 0.1250458 0.2057764
v -0.25049478 0.43811232 0.31088215
v -0.21196735 0.46240652 0.27235472
v -0.16361102 0.1250458 0.2057764
v -0.20546874 0.1250458 0.16391869
v -0.3105691 0.43811232 0.25079703
v -0.25049478 0.43811232 0.31088215
vt 0.21866582 0.62358963
vt 0.22149181 0.62358963
vt 0.22149181 0.6106708
vt 0.21866582 0.6106708
vt 0.21866582 0.6106708
vt 0.21583983 0.6106708
vt 0.21583983 0.62358963
vt 0.21866582 0.62358963
vt 0.21583983 0.6106708
vt 0.21341756 0.6106708
vt 0.21341756 0.62358963
vt 0.21583983 0.62358963
vt 0.21341756 0.6106708
vt 0.21059157 0.6106708
vt 0.21059157 0.62358963
vt 0.21341756 0.62358963
vn -0.6957547 -0.035792768 -0.7173871
vn -0.6957547 -0.035792768 -0.7173871
vn -0.6957547 -0.035792768 -0.7173871
vn -0.6957547 -0.035792768 -0.7173871
vn 0.6287896 0.4629895 -0.62471145
vn 0.6287896 0.4629895 -0.62471145
vn 0.6287896 0.4629895 -0.62471145
vn 0.6287896 0.4629895 -0.62471145
vn 0.717462 -0.035792768 0.69567746
vn 0.717462 -0.035792768 0.69567746
vn 0.717462 -0.035792768 0.69567746
vn 0.717462 -0.035792768 0.69567746
vn -0.6514185 -0.3960245 0.6471619
vn -0.6514185 -0.3960245 0.6471619
vn -0.6514185 -0.3960245 0.6471619
vn -0.6514185 -0.3960245 0.6471619
g Splitter_leg_015_CorpsePart_0
f 3/3/3 2/2/2 1/1/1
f 4/4/4 3/3/3 1/1/1
f 7/7/7 6/6/6 5/5/5
f 8/8/8 7/7/7 5/5/5
f 11/11/11 10/10/10 9/9/9
f 12/12/12 11/11/11 9/9/9
f 15/15/15 14/14/14 13/13/13
f 16/16/16 15/15/15 13/13/13
