g Splitter_leg_09
v 0.19345936 0.3375907 0.31832677
v 0.31882516 0.3375907 0.19296098
v 0.37200227 0.30644155 0.24612606
v 0.24662445 0.30644155 0.3715039
v 0.14179644 0.30644155 0.2636475
v 0.2682919 0.30644155 0.13714004
v 0.118254304 0.2312485 0.24313372
v 0.24363212 0.2312485 0.11775595
v 0.14028224 0.15604347 0.2651617
v 0.26566005 0.15604347 0.13978386
v 0.19345936 0.12489426 0.31832677
v 0.31882516 0.12489426 0.19296098
v 0.24662445 0.15604347 0.3715039
v 0.37200227 0.15604347 0.24612606
v 0.31882516 0.12489426 0.19296098
v 0.19345936 0.12489426 0.31832677
v 0.2686524 0.2312485 0.3935318
v 0.3940302 0.2312485 0.26815403
v 0.31882516 0.3375907 0.19296098
v 0.31882516 0.2312485 0.19296098
v 0.37200227 0.30644155 0.24612606
v 0.2682919 0.30644155 0.13714004
v 0.24363212 0.2312485 0.11775595
v 0.26566005 0.15604347 0.13978386
v 0.31882516 0.12489426 0.19296098
v 0.37200227 0.15604347 0.24612606
v 0.3940302 0.2312485 0.26815403
v 0.24662445 0.30644155 0.3715039
v 0.19345936 0.2312485 0.31832677
v 0.19345936 0.3375907 0.31832677
v 0.14179644 0.30644155 0.2636475
v 0.118254304 0.2312485 0.24313372
v 0.14028224 0.15604347 0.2651617
v 0.19345936 0.12489426 0.31832677
v 0.24662445 0.15604347 0.3715039
v 0.2686524 0.2312485 0.3935318
vt 0.023250941 0.6159311
vt 0.023250941 0.6218817
vt 0.026226241 0.6218817
vt 0.026226241 0.6159311
vt 0.020870699 0.6159311
vt 0.020870699 0.6218817
vt 0.018490456 0.6159311
vt 0.018490456 0.6218817
vt 0.015515154 0.6159311
vt 0.015515154 0.6218817
vt 0.013134913 0.6159311
vt 0.013134913 0.6218817
vt 0.031581786 0.6159311
vt 0.031581786 0.6218817
vt 0.033962026 0.6218817
vt 0.033962026 0.6159311
vt 0.028606484 0.6159311
vt 0.028606484 0.6218817
vt 0.046458296 0.59034353
vt 0.046458296 0.58677316
vt 0.044078056 0.5891534
vt 0.048838537 0.5891534
vt 0.05002866 0.58677316
vt 0.048838537 0.5843929
vt 0.046458296 0.5832028
vt 0.044078056 0.5843929
vt 0.042887934 0.58677316
vt 0.048838537 0.5843929
vt 0.046458296 0.58677316
vt 0.05002866 0.58677316
vt 0.048838537 0.5891534
vt 0.046458296 0.59034353
vt 0.044078056 0.5891534
vt 0.042887934 0.58677316
vt 0.044078056 0.5843929
vt 0.046458296 0.5832028
vn 0.0039215684 0.99999225 -0.00034526698
vn -0.003921509 0.99999225 -0.00034526698
vn 0.49803543 0.70979846 0.49814337
vn 0.49803543 0.70979846 0.49814337
vn -0.4980353 0.70979846 -0.4981435
vn -0.4980353 0.70979846 -0.4981435
vn -0.70979846 -0.0039215684 -0.7043939
vn -0.70979846 0.003921509 -0.7043939
vn -0.4980353 -0.7097985 -0.49814343
vn -0.4980353 -0.7097985 -0.49814343
vn -0.003921509 -0.9999924 -0
vn -0.003921509 -0.9999924 -0
vn 0.49803543 -0.7097985 0.49814332
vn 0.49803543 -0.7097985 0.49814332
vn -0.003921509 -0.9999924 -0
vn -0.003921509 -0.9999924 -0
vn 0.7097985 0.003921509 0.70439386
vn 0.7097985 0.003921509 0.70439386
vn 0.72548467 0.003921509 -0.6882271
vn 0.7097985 -0.0039215684 -0.70439386
vn 0.7097985 0.003921509 -0.70439386
vn 0.72548467 -0.0274508 -0.6876906
vn 0.7097985 -0.0274508 -0.7038697
vn 0.7097985 0.003921509 -0.70439386
vn 0.7097985 0.003921509 -0.70439386
vn 0.7097985 0.003921509 -0.70439386
vn 0.7097985 0.003921509 -0.70439386
vn -0.70979846 0.003921509 0.7043939
vn -0.70979846 0.003921509 0.7043939
vn -0.7176415 0.003921509 0.6964017
vn -0.7176415 0.011764526 0.6963134
vn -0.70979846 0.011764526 0.70430654
vn -0.70979846 -0.0039215684 0.7043939
vn -0.70979846 0.003921509 0.7043939
vn -0.70979846 -0.0039215684 0.7043939
vn -0.70979846 0.003921509 0.7043939
g Splitter_leg_09_0
f 3/3/3 2/2/2 1/1/1
f 4/4/4 3/3/3 1/1/1
f 2/2/2 6/6/6 5/5/5
f 1/1/1 2/2/2 5/5/5
f 6/6/6 8/8/8 7/7/7
f 5/5/5 6/6/6 7/7/7
f 8/8/8 10/10/10 9/9/9
f 7/7/7 8/8/8 9/9/9
f 10/10/10 12/12/12 11/11/11
f 9/9/9 10/10/10 11/11/11
f 15/15/15 14/14/14 13/13/13
f 16/16/16 15/15/15 13/13/13
f 14/14/14 18/18/18 17/17/17
f 13/13/13 14/14/14 17/17/17
f 17/17/17 18/18/18 3/3/3
f 4/4/4 17/17/17 3/3/3
f 21/21/21 20/20/20 19/19/19
f 19/19/19 20/20/20 22/22/22
f 22/22/22 20/20/20 23/23/23
f 23/23/23 20/20/20 24/24/24
f 24/24/24 20/20/20 25/25/25
f 25/25/25 20/20/20 26/26/26
f 26/26/26 20/20/20 27/27/27
f 27/27/27 20/20/20 21/21/21
f 30/30/30 29/29/29 28/28/28
f 31/31/31 29/29/29 30/30/30
f 32/32/32 29/29/29 31/31/31
f 33/33/33 29/29/29 32/32/32
f 34/34/34 29/29/29 33/33/33
f 35/35/35 29/29/29 34/34/34
f 36/36/36 29/29/29 35/35/35
f 28/28/28 29/29/29 36/36/36
