g SplitterTurretMesh_03
v 0.09133753 0.9849995 0.39930588
v 0.048720814 0.96021396 0.41071278
v 0.027030818 1.0314326 0.43354768
v 0.051625535 1.0458078 0.42712337
v 0.07064404 1.0692575 0.41662824
v 0.123013824 1.0231423 0.38189876
v 0.08135122 1.0989408 0.40333432
v 0.13986969 1.0701056 0.36078125
v 0.08147844 1.1310201 0.3889804
v 0.13982728 1.1201856 0.3385824
v 0.071025684 1.1608729 0.37562287
v 0.12288661 1.1672971 0.31803733
v 0.051879965 1.1843863 0.36510652
v 0.091189116 1.2056947 0.3015207
v 0.027264044 1.1990159 0.35855502
v 0.048614807 1.2307134 0.2908559
v 0.00029467046 1.2038713 0.35639238
v 0.0003158599 1.2393851 0.2871455
v -0.02656871 1.1988039 0.35863984
v -0.04800427 1.2307134 0.2908559
v -0.05103621 1.1841531 0.36521256
v -0.090578586 1.2056947 0.3015207
v -0.07011832 1.1607456 0.37568647
v -0.1222761 1.1672971 0.31803733
v -0.08069828 1.1309776 0.38900155
v -0.13919556 1.1201856 0.3385824
v -0.080719486 1.0989408 0.40333432
v -0.13925916 1.0700634 0.36076003
v -0.07018192 1.0691938 0.4166494
v -0.122403294 1.0231423 0.38189876
v -0.05103621 1.0458078 0.42712337
v -0.090727 0.9849995 0.39930588
v -0.026505098 1.0313265 0.43361127
v -0.04811029 0.96021396 0.41071278
v 0.00029467046 1.0264924 0.4357739
v 0.0003158599 0.95160574 0.41467762
v 0.0003158599 1.1273308 0.42498195
v 0.098079875 0.9632035 0.3711068
v 0.13204603 1.0043359 0.35270315
v 0.15011042 1.0547764 0.33012265
v 0.15011042 1.1084607 0.3061004
v 0.13204603 1.1589434 0.2834987
v 0.098079875 1.2000761 0.26511627
v 0.05232522 1.226897 0.25309455
v 0.0003158599 1.2362473 0.24891767
v -0.05171469 1.226897 0.25309455
v -0.097469345 1.2000761 0.26511627
v -0.13143548 1.1589434 0.2834987
v -0.1494999 1.1084607 0.3061004
v -0.1494999 1.0547764 0.33012265
v -0.13143548 1.0043359 0.35270315
v -0.097469345 0.9632035 0.3711068
v -0.05171469 0.93636125 0.38312852
v 0.0003158599 0.9270323 0.38730538
v 0.05232522 0.93636125 0.38312852
vt 0.19279228 0.56397605
vt 0.19125529 0.5632075
vt 0.19048679 0.5651288
vt 0.19125529 0.5658973
vt 0.19202378 0.56666577
vt 0.19394502 0.565513
vt 0.19240803 0.5678185
vt 0.19471352 0.56743425
vt 0.19240803 0.5693555
vt 0.19471352 0.56973976
vt 0.19202378 0.57050824
vt 0.19394502 0.571661
vt 0.19125529 0.5712767
vt 0.19279228 0.57319796
vt 0.19048679 0.57204527
vt 0.19125529 0.5739665
vt 0.18933405 0.57204527
vt 0.18933405 0.5743507
vt 0.18856555 0.57204527
vt 0.1874128 0.5739665
vt 0.1874128 0.5712767
vt 0.18587582 0.57319796
vt 0.18664432 0.57050824
vt 0.18472306 0.571661
vt 0.18626006 0.5693555
vt 0.18395457 0.56973976
vt 0.18626006 0.5678185
vt 0.18395457 0.56743425
vt 0.18664432 0.56666577
vt 0.18472306 0.565513
vt 0.1874128 0.5658973
vt 0.18587582 0.56397605
vt 0.18856555 0.5651288
vt 0.1874128 0.5632075
vt 0.18933405 0.5651288
vt 0.18933405 0.5628233
vt 0.18933405 0.568587
vt 0.19356078 0.5632075
vt 0.19509777 0.5651288
vt 0.19586627 0.56743425
vt 0.19586627 0.56973976
vt 0.19509777 0.5724295
vt 0.19356078 0.5743507
vt 0.19163954 0.57550347
vt 0.18933405 0.57588774
vt 0.18702856 0.57550347
vt 0.18510732 0.5743507
vt 0.18357033 0.5724295
vt 0.18280183 0.56973976
vt 0.18280183 0.56743425
vt 0.18357033 0.5651288
vt 0.18510732 0.5632075
vt 0.18702856 0.5620548
vt 0.18933405 0.5612863
vt 0.19163954 0.5620548
vn 0.54957217 -0.29060417 0.78327495
vn 0.30583763 -0.43532157 0.846734
vn 0.21443713 -0.13827008 0.9669013
vn 0.38962138 -0.039252937 0.92013824
vn 0.5114887 0.09784776 0.8537009
vn 0.7171397 -0.09256983 0.69075423
vn 0.57242227 0.25018185 0.78085965
vn 0.79330677 0.12831455 0.59514683
vn 0.5648056 0.4101327 0.7160906
vn 0.79330677 0.35681576 0.49330202
vn 0.5038719 0.57008356 0.6489359
vn 0.70952296 0.5777002 0.4035339
vn 0.38200468 0.70718426 0.5949478
vn 0.54957217 0.7757346 0.31017122
vn 0.20682043 0.8062014 0.55431455
vn 0.29822087 0.92045194 0.2526511
vn 0.0011693835 0.8366682 0.54770887
vn 0.0011693835 0.9737689 0.2275363
vn -0.21209842 0.8062014 0.5523165
vn -0.3034988 0.92045194 0.24628586
vn -0.38728255 0.70718426 0.59152573
vn -0.5472334 0.7757346 0.31427917
vn -0.5015332 0.57008356 0.6507451
vn -0.70718426 0.5777002 0.4076186
vn -0.57008356 0.41774946 0.70745325
vn -0.790968 0.35681576 0.4970434
vn -0.57008356 0.25018185 0.7825687
vn -0.790968 0.12831455 0.59825164
vn -0.50914985 0.09784776 0.8550978
vn -0.7148009 -0.09256983 0.69317424
vn -0.38728255 -0.039252937 0.9211251
vn -0.5472334 -0.29060417 0.7849107
vn -0.21209842 -0.13827008 0.967417
vn -0.3034988 -0.43532157 0.8475751
vn 0.0011693835 -0.16873688 0.98566043
vn 0.0011693835 -0.48863852 0.8724855
vn 0.0011693835 0.4101327 0.9120251
vn 0.6485894 -0.5191053 0.556652
vn 0.84662366 -0.28298748 0.45071775
vn 0.94564086 -0.016402781 0.3247989
vn 0.94564086 0.2577986 0.19825047
vn 0.84662366 0.532 0.014296304
vn 0.6407001 0.7677913 -0
vn 0.35153782 0.93568534 -0.030234035
vn 0.0011693835 0.99661905 -0.082152866
vn -0.34919912 0.93568534 -0.050526492
vn -0.6437944 0.7651986 -0
vn -0.84428495 0.532 0.06448964
vn -0.9433021 0.2577986 0.20909573
vn -0.9433021 -0.016402781 0.33152995
vn -0.8519016 -0.28298748 0.4406606
vn -0.64625055 -0.5191053 0.55936563
vn -0.35681576 -0.68667287 0.6333742
vn 0.0011693835 -0.7476065 0.6641409
vn 0.35915452 -0.68667287 0.632051
g SplitterTurretMesh_03_0
f 3/3/3 2/2/2 1/1/1
f 4/4/4 3/3/3 1/1/1
f 6/6/6 5/5/5 4/4/4
f 1/1/1 6/6/6 4/4/4
f 8/8/8 7/7/7 5/5/5
f 6/6/6 8/8/8 5/5/5
f 10/10/10 9/9/9 7/7/7
f 8/8/8 10/10/10 7/7/7
f 12/12/12 11/11/11 9/9/9
f 10/10/10 12/12/12 9/9/9
f 14/14/14 13/13/13 11/11/11
f 12/12/12 14/14/14 11/11/11
f 16/16/16 15/15/15 13/13/13
f 14/14/14 16/16/16 13/13/13
f 18/18/18 17/17/17 15/15/15
f 16/16/16 18/18/18 15/15/15
f 20/20/20 19/19/19 17/17/17
f 18/18/18 20/20/20 17/17/17
f 22/22/22 21/21/21 19/19/19
f 20/20/20 22/22/22 19/19/19
f 24/24/24 23/23/23 21/21/21
f 22/22/22 24/24/24 21/21/21
f 26/26/26 25/25/25 23/23/23
f 24/24/24 26/26/26 23/23/23
f 28/28/28 27/27/27 25/25/25
f 26/26/26 28/28/28 25/25/25
f 30/30/30 29/29/29 27/27/27
f 28/28/28 30/30/30 27/27/27
f 32/32/32 31/31/31 29/29/29
f 30/30/30 32/32/32 29/29/29
f 34/34/34 33/33/33 31/31/31
f 32/32/32 34/34/34 31/31/31
f 36/36/36 35/35/35 33/33/33
f 34/34/34 36/36/36 33/33/33
f 2/2/2 3/3/3 35/35/35
f 36/36/36 2/2/2 35/35/35
f 4/4/4 37/37/37 3/3/3
f 5/5/5 37/37/37 4/4/4
f 7/7/7 37/37/37 5/5/5
f 9/9/9 37/37/37 7/7/7
f 11/11/11 37/37/37 9/9/9
f 13/13/13 37/37/37 11/11/11
f 15/15/15 37/37/37 13/13/13
f 17/17/17 37/37/37 15/15/15
f 19/19/19 37/37/37 17/17/17
f 21/21/21 37/37/37 19/19/19
f 23/23/23 37/37/37 21/21/21
f 25/25/25 37/37/37 23/23/23
f 27/27/27 37/37/37 25/25/25
f 29/29/29 37/37/37 27/27/27
f 31/31/31 37/37/37 29/29/29
f 33/33/33 37/37/37 31/31/31
f 35/35/35 37/37/37 33/33/33
f 3/3/3 37/37/37 35/35/35
f 6/6/6 1/1/1 38/38/38
f 39/39/39 6/6/6 38/38/38
f 8/8/8 6/6/6 39/39/39
f 40/40/40 8/8/8 39/39/39
f 10/10/10 8/8/8 40/40/40
f 41/41/41 10/10/10 40/40/40
f 12/12/12 10/10/10 41/41/41
f 42/42/42 12/12/12 41/41/41
f 14/14/14 12/12/12 42/42/42
f 43/43/43 14/14/14 42/42/42
f 16/16/16 14/14/14 43/43/43
f 44/44/44 16/16/16 43/43/43
f 18/18/18 16/16/16 44/44/44
f 45/45/45 18/18/18 44/44/44
f 20/20/20 18/18/18 45/45/45
f 46/46/46 20/20/20 45/45/45
f 22/22/22 20/20/20 46/46/46
f 47/47/47 22/22/22 46/46/46
f 24/24/24 22/22/22 47/47/47
f 48/48/48 24/24/24 47/47/47
f 26/26/26 24/24/24 48/48/48
f 49/49/49 26/26/26 48/48/48
f 28/28/28 26/26/26 49/49/49
f 50/50/50 28/28/28 49/49/49
f 30/30/30 28/28/28 50/50/50
f 51/51/51 30/30/30 50/50/50
f 32/32/32 30/30/30 51/51/51
f 52/52/52 32/32/32 51/51/51
f 34/34/34 32/32/32 52/52/52
f 53/53/53 34/34/34 52/52/52
f 36/36/36 34/34/34 53/53/53
f 54/54/54 36/36/36 53/53/53
f 2/2/2 36/36/36 54/54/54
f 55/55/55 2/2/2 54/54/54
f 1/1/1 2/2/2 55/55/55
f 38/38/38 1/1/1 55/55/55
