g Splitter_leg_011
v -0.19566816 0.20782928 0.11879051
v -0.11848167 0.20782928 0.1959718
v -0.15121755 0.18865333 0.22870508
v -0.22840403 0.18865333 0.15152378
v -0.16200061 0.18865333 0.086988896
v -0.0841238 0.18865333 0.16486311
v -0.14937496 0.14236012 0.07249729
v -0.07219106 0.14236012 0.14968118
v -0.16293229 0.096066914 0.08605462
v -0.08575099 0.096066914 0.16323853
v -0.19566816 0.07689097 0.11879051
v -0.11848167 0.07689097 0.1959718
v -0.22840403 0.096066914 0.15152378
v -0.15121755 0.096066914 0.22870508
v -0.11848167 0.07689097 0.1959718
v -0.19566816 0.07689097 0.11879051
v -0.24196137 0.14236012 0.1650837
v -0.16477749 0.14236012 0.24226761
v -0.11848167 0.20782928 0.1959718
v -0.11848167 0.14236012 0.1959718
v -0.15121755 0.18865333 0.22870508
v -0.0841238 0.18865333 0.16486311
v -0.07219106 0.14236012 0.14968118
v -0.08575099 0.096066914 0.16323853
v -0.11848167 0.07689097 0.1959718
v -0.15121755 0.096066914 0.22870508
v -0.16477749 0.14236012 0.24226761
v -0.22840403 0.18865333 0.15152378
v -0.19566816 0.14236012 0.11879051
v -0.19566816 0.20782928 0.11879051
v -0.16200061 0.18865333 0.086988896
v -0.14937496 0.14236012 0.07249729
v -0.16293229 0.096066914 0.08605462
v -0.19566816 0.07689097 0.11879051
v -0.22840403 0.096066914 0.15152378
v -0.24196137 0.14236012 0.1650837
vt 0.1728366 0.6195173
vt 0.1728366 0.6235496
vt 0.1746287 0.6235496
vt 0.1746287 0.6195173
vt 0.17104451 0.6195173
vt 0.17104451 0.6235496
vt 0.16880438 0.6195173
vt 0.16880438 0.6235496
vt 0.16701229 0.6195173
vt 0.16701229 0.6235496
vt 0.16522019 0.6195173
vt 0.16522019 0.6235496
vt 0.17821291 0.6195173
vt 0.17821291 0.6235496
vt 0.180005 0.6235496
vt 0.180005 0.6195173
vt 0.17642081 0.6195173
vt 0.17642081 0.6235496
vt 0.18941352 0.6007003
vt 0.18941352 0.59801215
vt 0.18762143 0.5998042
vt 0.19120562 0.5998042
vt 0.19165365 0.59801215
vt 0.19120562 0.59666806
vt 0.18941352 0.595772
vt 0.18762143 0.59666806
vt 0.18672538 0.59801215
vt 0.19120562 0.59666806
vt 0.18941352 0.59801215
vt 0.19165365 0.59801215
vt 0.19120562 0.5998042
vt 0.18941352 0.6007003
vt 0.18762143 0.5998042
vt 0.18672538 0.59801215
vt 0.18762143 0.59666806
vt 0.18941352 0.595772
vn -0.003921509 0.99999225 -0.00034526698
vn 0.0039215684 0.99999225 -0.00034526698
vn -0.4980353 0.70979846 0.4981435
vn -0.4980353 0.70979846 0.4981435
vn 0.49803543 0.70979846 -0.49814337
vn 0.49803543 0.70979846 -0.49814337
vn 0.7097985 -0.0039215684 -0.70439386
vn 0.7097985 0.003921509 -0.70439386
vn 0.49803543 -0.7097985 -0.49814332
vn 0.49803543 -0.7097985 -0.49814332
vn -0.003921509 -0.9999924 -0
vn -0.003921509 -0.9999924 -0
vn -0.4980353 -0.7097985 0.49814343
vn -0.4980353 -0.7097985 0.49814343
vn -0.003921509 -0.9999924 -0
vn -0.003921509 -0.9999924 -0
vn -0.70979846 0.003921509 0.7043939
vn -0.70979846 0.003921509 0.7043939
vn 0.6862693 0.003921509 0.727337
vn 0.70195544 -0.0039215684 0.71221006
vn 0.7097985 0.003921509 0.70439386
vn 0.6862693 -0.0274508 0.7268294
vn 0.7097985 -0.0274508 0.7038697
vn 0.7097985 -0.0039215684 0.70439386
vn 0.7097985 0.003921509 0.70439386
vn 0.7097985 0.003921509 0.70439386
vn 0.7097985 0.003921509 0.70439386
vn -0.70979846 -0.0039215684 -0.7043939
vn -0.7019553 0.003921509 -0.71221024
vn -0.6941123 0.003921509 -0.7198561
vn -0.6941123 0.011764526 -0.7197706
vn -0.70979846 0.011764526 -0.70430654
vn -0.70979846 -0.0039215684 -0.7043939
vn -0.70979846 0.003921509 -0.7043939
vn -0.70979846 0.003921509 -0.7043939
vn -0.70979846 0.003921509 -0.7043939
g Splitter_leg_011_0
f 3/3/3 2/2/2 1/1/1
f 4/4/4 3/3/3 1/1/1
f 2/2/2 6/6/6 5/5/5
f 1/1/1 2/2/2 5/5/5
f 6/6/6 8/8/8 7/7/7
f 5/5/5 6/6/6 7/7/7
f 8/8/8 10/10/10 9/9/9
f 7/7/7 8/8/8 9/9/9
f 10/10/10 12/12/12 11/11/11
f 9/9/9 10/10/10 11/11/11
f 15/15/15 14/14/14 13/13/13
f 16/16/16 15/15/15 13/13/13
f 14/14/14 18/18/18 17/17/17
f 13/13/13 14/14/14 17/17/17
f 17/17/17 18/18/18 3/3/3
f 4/4/4 17/17/17 3/3/3
f 21/21/21 20/20/20 19/19/19
f 19/19/19 20/20/20 22/22/22
f 22/22/22 20/20/20 23/23/23
f 23/23/23 20/20/20 24/24/24
f 24/24/24 20/20/20 25/25/25
f 25/25/25 20/20/20 26/26/26
f 26/26/26 20/20/20 27/27/27
f 27/27/27 20/20/20 21/21/21
f 30/30/30 29/29/29 28/28/28
f 31/31/31 29/29/29 30/30/30
f 32/32/32 29/29/29 31/31/31
f 33/33/33 29/29/29 32/32/32
f 34/34/34 29/29/29 33/33/33
f 35/35/35 29/29/29 34/34/34
f 36/36/36 29/29/29 35/35/35
f 28/28/28 29/29/29 36/36/36
