g Splitter_leg_017_CorpsePart
v 0.44289857 0.75111806 -0.34480172
v 0.5054842 0.7116569 -0.40738738
v 0.3347543 0.20311022 -0.2662629
v 0.24553522 0.2593683 -0.17704383
v 0.24553522 0.2593683 -0.17704383
v 0.1775232 0.2593683 -0.24503669
v 0.34530026 0.75111806 -0.44240004
v 0.44289857 0.75111806 -0.34480172
v 0.1775232 0.2593683 -0.24503669
v 0.26676142 0.20311022 -0.33425575
v 0.4078859 0.7116569 -0.5049857
v 0.34530026 0.75111806 -0.44240004
v 0.26676142 0.20311022 -0.33425575
v 0.3347543 0.20311022 -0.2662629
v 0.5054842 0.7116569 -0.40738738
v 0.4078859 0.7116569 -0.5049857
vt 0.08725579 0.6219373
vt 0.090991095 0.6219373
vt 0.090991095 0.60432804
vt 0.08725579 0.60432804
vt 0.08725579 0.60432804
vt 0.083520494 0.60432804
vt 0.083520494 0.6219373
vt 0.08725579 0.6219373
vt 0.083520494 0.60432804
vt 0.07978519 0.60432804
vt 0.07978519 0.6219373
vt 0.083520494 0.6219373
vt 0.07978519 0.60432804
vt 0.076049894 0.60432804
vt 0.076049894 0.6219373
vt 0.07978519 0.6219373
vn 0.69573057 -0.036236167 0.7173883
vn 0.69573057 -0.036236167 0.7173883
vn 0.69573057 -0.036236167 0.7173883
vn 0.69573057 -0.036236167 0.7173883
vn -0.6288003 0.4625411 0.6250328
vn -0.6288003 0.4625411 0.6250328
vn -0.6288003 0.4625411 0.6250328
vn -0.6288003 0.4625411 0.6250328
vn -0.7174717 -0.036236167 -0.6956445
vn -0.7174717 -0.036236167 -0.6956445
vn -0.7174717 -0.036236167 -0.6956445
vn -0.7174717 -0.036236167 -0.6956445
vn 0.6513948 -0.3964642 -0.6469165
vn 0.6513948 -0.3964642 -0.6469165
vn 0.6513948 -0.3964642 -0.6469165
vn 0.6513948 -0.3964642 -0.6469165
g Splitter_leg_017_CorpsePart_0
f 3/3/3 2/2/2 1/1/1
f 4/4/4 3/3/3 1/1/1
f 7/7/7 6/6/6 5/5/5
f 8/8/8 7/7/7 5/5/5
f 11/11/11 10/10/10 9/9/9
f 12/12/12 11/11/11 9/9/9
f 15/15/15 14/14/14 13/13/13
f 16/16/16 15/15/15 13/13/13
