g SplitterTurretMesh_03
v 0.14836842 1.6000121 0.64858866
v 0.079142675 1.5597509 0.66715217
v 0.043909878 1.6754372 0.70424473
v 0.08386105 1.6987879 0.6938092
v 0.114754334 1.7368793 0.6767611
v 0.19982278 1.6619709 0.62034726
v 0.13214687 1.7850963 0.65520126
v 0.22720312 1.7382225 0.5860444
v 0.13235351 1.837205 0.6318505
v 0.22709979 1.8196403 0.55001944
v 0.115339816 1.8856975 0.61015284
v 0.19961613 1.8961331 0.516612
v 0.08427434 1.9238921 0.59307027
v 0.14812733 1.9584705 0.4897827
v 0.044288725 1.9476563 0.5824281
v 0.07897048 1.9991449 0.47245908
v 0.00048018992 1.9555086 0.5789152
v 0.0005146265 2.0132313 0.46643192
v -0.043156147 1.9473118 0.5826003
v -0.07797566 1.9991449 0.47245908
v -0.08290067 1.9235133 0.59324247
v -0.14713252 1.9584705 0.4897827
v -0.113897264 1.8854564 0.6102562
v -0.1986213 1.8961331 0.516612
v -0.13108316 1.8371705 0.63188493
v -0.22610497 1.8196403 0.55001944
v -0.13111761 1.7850963 0.6551668
v -0.2262083 1.7382225 0.5860099
v -0.11400059 1.736776 0.67679554
v -0.19882795 1.6619709 0.62034726
v -0.08290067 1.6987879 0.6938092
v -0.14737359 1.6000121 0.64858866
v -0.043052822 1.6752305 0.7043481
v -0.07814786 1.5597509 0.66715217
v 0.00048018992 1.6674125 0.707861
v 0.0005146265 1.545768 0.67359257
v 0.0005146265 1.8312124 0.69033074
v 0.15932056 1.5646071 0.602817
v 0.2144945 1.631422 0.57292247
v 0.24383795 1.7133564 0.5362432
v 0.24383795 1.8005944 0.4972219
v 0.2144945 1.8825632 0.46054262
v 0.15932056 1.9493438 0.43061364
v 0.084997594 1.9929801 0.41112024
v 0.0005146265 2.0080996 0.40433544
v -0.08400276 1.9929801 0.41112024
v -0.15832573 1.9493438 0.43061364
v -0.21349967 1.8825632 0.46054262
v -0.24284312 1.8005944 0.4972219
v -0.24284312 1.7133564 0.5362432
v -0.21349967 1.631422 0.57292247
v -0.15832573 1.5646071 0.602817
v -0.08400276 1.5210052 0.62234485
v 0.0005146265 1.5058513 0.62912965
v 0.084997594 1.5210052 0.62234485
vt 0.05104453 0.53994906
vt 0.04901588 0.53893477
vt 0.047494397 0.5414705
vt 0.04901588 0.5424849
vt 0.050030205 0.54349923
vt 0.052566018 0.5424849
vt 0.05053737 0.5455279
vt 0.053580344 0.5450207
vt 0.05053737 0.54704934
vt 0.053580344 0.5475565
vt 0.050030205 0.5485708
vt 0.052566018 0.55009234
vt 0.04901588 0.55009234
vt 0.05104453 0.5526281
vt 0.047494397 0.55110663
vt 0.04901588 0.55364245
vt 0.04648007 0.55110663
vt 0.04648007 0.5541496
vt 0.044958584 0.55110663
vt 0.04394426 0.55364245
vt 0.04394426 0.55009234
vt 0.041915607 0.5526281
vt 0.042929932 0.5485708
vt 0.03988696 0.55009234
vt 0.04242277 0.54704934
vt 0.038872633 0.5475565
vt 0.04242277 0.5455279
vt 0.038872633 0.5450207
vt 0.042929932 0.54349923
vt 0.03988696 0.5424849
vt 0.04394426 0.5424849
vt 0.041408446 0.53994906
vt 0.044958584 0.5414705
vt 0.04394426 0.53893477
vt 0.04648007 0.5414705
vt 0.04648007 0.5384276
vt 0.04648007 0.546035
vt 0.052058857 0.53893477
vt 0.054087505 0.5414705
vt 0.055608995 0.5445135
vt 0.055608995 0.5480637
vt 0.054087505 0.55110663
vt 0.052058857 0.55364245
vt 0.049523044 0.5556711
vt 0.04648007 0.5561783
vt 0.043437093 0.5556711
vt 0.04039412 0.55364245
vt 0.038365472 0.55110663
vt 0.037351146 0.5480637
vt 0.037351146 0.5445135
vt 0.038365472 0.5414705
vt 0.04039412 0.53893477
vt 0.043437093 0.5369061
vt 0.04648007 0.53639895
vt 0.049523044 0.5369061
vn 0.5495578 -0.29059106 0.7832899
vn 0.3058244 -0.43530774 0.8467459
vn 0.21442437 -0.13825774 0.9669059
vn 0.38960773 -0.039241076 0.9201445
vn 0.51147443 0.097858906 0.8537081
vn 0.71712446 -0.09255773 0.6907717
vn 0.5724078 0.25019228 0.7808669
vn 0.7932911 0.12832558 0.5951654
vn 0.5647911 0.4101423 0.7160966
vn 0.7932911 0.3568257 0.49332008
vn 0.50385773 0.5700923 0.6489392
vn 0.70950776 0.57770896 0.4035481
vn 0.3819911 0.7071923 0.594947
vn 0.5495578 0.7757424 0.31017727
vn 0.20680773 0.8062091 0.5543081
vn 0.29820776 0.92045903 0.2526406
vn 0.001157701 0.83667564 0.5476975
vn 0.001157701 0.97377574 0.2275071
vn -0.21210897 0.8062091 0.5523012
vn -0.303509 0.92045903 0.24624665
vn -0.3872924 0.7071923 0.59150964
vn -0.5472423 0.7757424 0.31424445
vn -0.5015423 0.5700923 0.6507304
vn -0.7071923 0.57770896 0.4075922
vn -0.5700923 0.41775894 0.7074406
vn -0.7909757 0.3568257 0.49702403
vn -0.5700923 0.25019228 0.7825589
vn -0.7909757 0.12832558 0.59823906
vn -0.50915897 0.097858906 0.85509104
vn -0.71480906 -0.09255773 0.6931674
vn -0.3872924 -0.039241076 0.9211215
vn -0.5472423 -0.29059106 0.78490937
vn -0.21210897 -0.13825774 0.9674164
vn -0.303509 -0.43530774 0.8475786
vn 0.001157701 -0.16872442 0.9856626
vn 0.001157701 -0.48862442 0.8724935
vn 0.001157701 0.4101423 0.9120208
vn 0.6485745 -0.5190911 0.55668265
vn 0.8466078 -0.28297442 0.4507557
vn 0.9456245 -0.016391039 0.3248472
vn 0.9456245 0.25780892 0.19831522
vn 0.8466078 0.532009 0.014887574
vn 0.64068747 0.76780176 -0
vn 0.3515244 0.9356924 -0.030169895
vn 0.001157701 0.99662566 -0.08207302
vn -0.34920895 0.9356924 -0.050326735
vn -0.64379555 0.7651976 -0
vn -0.8442924 0.532009 0.06431773
vn -0.94330907 0.25780892 0.20905152
vn -0.94330907 -0.016391039 0.33151066
vn -0.85190904 -0.28297442 0.44065458
vn -0.64625907 -0.5190911 0.5593689
vn -0.3568257 -0.6866578 0.63338494
vn 0.001157701 -0.74759114 0.6641583
vn 0.35914105 -0.6866578 0.632075
g SplitterTurretMesh_03_0
f 3/3/3 2/2/2 1/1/1
f 4/4/4 3/3/3 1/1/1
f 6/6/6 5/5/5 4/4/4
f 1/1/1 6/6/6 4/4/4
f 8/8/8 7/7/7 5/5/5
f 6/6/6 8/8/8 5/5/5
f 10/10/10 9/9/9 7/7/7
f 8/8/8 10/10/10 7/7/7
f 12/12/12 11/11/11 9/9/9
f 10/10/10 12/12/12 9/9/9
f 14/14/14 13/13/13 11/11/11
f 12/12/12 14/14/14 11/11/11
f 16/16/16 15/15/15 13/13/13
f 14/14/14 16/16/16 13/13/13
f 18/18/18 17/17/17 15/15/15
f 16/16/16 18/18/18 15/15/15
f 20/20/20 19/19/19 17/17/17
f 18/18/18 20/20/20 17/17/17
f 22/22/22 21/21/21 19/19/19
f 20/20/20 22/22/22 19/19/19
f 24/24/24 23/23/23 21/21/21
f 22/22/22 24/24/24 21/21/21
f 26/26/26 25/25/25 23/23/23
f 24/24/24 26/26/26 23/23/23
f 28/28/28 27/27/27 25/25/25
f 26/26/26 28/28/28 25/25/25
f 30/30/30 29/29/29 27/27/27
f 28/28/28 30/30/30 27/27/27
f 32/32/32 31/31/31 29/29/29
f 30/30/30 32/32/32 29/29/29
f 34/34/34 33/33/33 31/31/31
f 32/32/32 34/34/34 31/31/31
f 36/36/36 35/35/35 33/33/33
f 34/34/34 36/36/36 33/33/33
f 2/2/2 3/3/3 35/35/35
f 36/36/36 2/2/2 35/35/35
f 4/4/4 37/37/37 3/3/3
f 5/5/5 37/37/37 4/4/4
f 7/7/7 37/37/37 5/5/5
f 9/9/9 37/37/37 7/7/7
f 11/11/11 37/37/37 9/9/9
f 13/13/13 37/37/37 11/11/11
f 15/15/15 37/37/37 13/13/13
f 17/17/17 37/37/37 15/15/15
f 19/19/19 37/37/37 17/17/17
f 21/21/21 37/37/37 19/19/19
f 23/23/23 37/37/37 21/21/21
f 25/25/25 37/37/37 23/23/23
f 27/27/27 37/37/37 25/25/25
f 29/29/29 37/37/37 27/27/27
f 31/31/31 37/37/37 29/29/29
f 33/33/33 37/37/37 31/31/31
f 35/35/35 37/37/37 33/33/33
f 3/3/3 37/37/37 35/35/35
f 6/6/6 1/1/1 38/38/38
f 39/39/39 6/6/6 38/38/38
f 8/8/8 6/6/6 39/39/39
f 40/40/40 8/8/8 39/39/39
f 10/10/10 8/8/8 40/40/40
f 41/41/41 10/10/10 40/40/40
f 12/12/12 10/10/10 41/41/41
f 42/42/42 12/12/12 41/41/41
f 14/14/14 12/12/12 42/42/42
f 43/43/43 14/14/14 42/42/42
f 16/16/16 14/14/14 43/43/43
f 44/44/44 16/16/16 43/43/43
f 18/18/18 16/16/16 44/44/44
f 45/45/45 18/18/18 44/44/44
f 20/20/20 18/18/18 45/45/45
f 46/46/46 20/20/20 45/45/45
f 22/22/22 20/20/20 46/46/46
f 47/47/47 22/22/22 46/46/46
f 24/24/24 22/22/22 47/47/47
f 48/48/48 24/24/24 47/47/47
f 26/26/26 24/24/24 48/48/48
f 49/49/49 26/26/26 48/48/48
f 28/28/28 26/26/26 49/49/49
f 50/50/50 28/28/28 49/49/49
f 30/30/30 28/28/28 50/50/50
f 51/51/51 30/30/30 50/50/50
f 32/32/32 30/30/30 51/51/51
f 52/52/52 32/32/32 51/51/51
f 34/34/34 32/32/32 52/52/52
f 53/53/53 34/34/34 52/52/52
f 36/36/36 34/34/34 53/53/53
f 54/54/54 36/36/36 53/53/53
f 2/2/2 36/36/36 54/54/54
f 55/55/55 2/2/2 54/54/54
f 1/1/1 2/2/2 55/55/55
f 38/38/38 1/1/1 55/55/55
