g Splitter_leg_014_CorpsePart
v 0.34530026 0.75111806 0.44240826
v 0.4078859 0.7116569 0.5049939
v 0.26676142 0.20311022 0.33426398
v 0.1775232 0.2593683 0.24502575
v 0.1775232 0.2593683 0.24502575
v 0.24553522 0.2593683 0.17703289
v 0.44289857 0.75111806 0.34480995
v 0.34530026 0.75111806 0.44240826
v 0.24553522 0.2593683 0.17703289
v 0.3347543 0.20311022 0.2662711
v 0.5054842 0.7116569 0.4073956
v 0.44289857 0.75111806 0.34480995
v 0.3347543 0.20311022 0.2662711
v 0.26676142 0.20311022 0.33426398
v 0.4078859 0.7116569 0.5049939
v 0.5054842 0.7116569 0.4073956
vt 0.08725579 0.6219373
vt 0.090991095 0.6219373
vt 0.090991095 0.60432804
vt 0.08725579 0.60432804
vt 0.08725579 0.60432804
vt 0.083520494 0.60432804
vt 0.083520494 0.6219373
vt 0.08725579 0.6219373
vt 0.083520494 0.60432804
vt 0.07978519 0.60432804
vt 0.07978519 0.6219373
vt 0.083520494 0.6219373
vt 0.07978519 0.60432804
vt 0.076049894 0.60432804
vt 0.076049894 0.6219373
vt 0.07978519 0.6219373
vn -0.71747166 -0.036236227 0.69564456
vn -0.71747166 -0.036236227 0.69564456
vn -0.71747166 -0.036236227 0.69564456
vn -0.71747166 -0.036236227 0.69564456
vn -0.6288002 0.46254104 -0.6250329
vn -0.6288002 0.46254104 -0.6250329
vn -0.6288002 0.46254104 -0.6250329
vn -0.6288002 0.46254104 -0.6250329
vn 0.6957306 -0.036236227 -0.7173882
vn 0.6957306 -0.036236227 -0.7173882
vn 0.6957306 -0.036236227 -0.7173882
vn 0.6957306 -0.036236227 -0.7173882
vn 0.65139484 -0.39646426 0.64691645
vn 0.65139484 -0.39646426 0.64691645
vn 0.65139484 -0.39646426 0.64691645
vn 0.65139484 -0.39646426 0.64691645
g Splitter_leg_014_CorpsePart_0
f 3/3/3 2/2/2 1/1/1
f 4/4/4 3/3/3 1/1/1
f 7/7/7 6/6/6 5/5/5
f 8/8/8 7/7/7 5/5/5
f 11/11/11 10/10/10 9/9/9
f 12/12/12 11/11/11 9/9/9
f 15/15/15 14/14/14 13/13/13
f 16/16/16 15/15/15 13/13/13
