g Splitter_leg_016_CorpsePart
v -0.21197104 0.46240652 -0.27235675
v -0.25049686 0.43811107 -0.31088257
v -0.16361615 0.12504315 -0.20577142
v -0.10867706 0.15967509 -0.15084411
v -0.10867706 0.15967509 -0.15084411
v -0.15054217 0.15967509 -0.1089908
v -0.2720548 0.46240652 -0.21227302
v -0.21197104 0.46240652 -0.27235675
v -0.15054217 0.15967509 -0.1089908
v -0.20546949 0.12504315 -0.16391811
v -0.3105688 0.43811107 -0.25079882
v -0.2720548 0.46240652 -0.21227302
v -0.20546949 0.12504315 -0.16391811
v -0.16361615 0.12504315 -0.20577142
v -0.25049686 0.43811107 -0.31088257
v -0.3105688 0.43811107 -0.25079882
vt 0.21866582 0.62358963
vt 0.22149181 0.62358963
vt 0.22149181 0.6106708
vt 0.21866582 0.6106708
vt 0.21866582 0.6106708
vt 0.21583983 0.6106708
vt 0.21583983 0.62358963
vt 0.21866582 0.62358963
vt 0.21583983 0.6106708
vt 0.21341756 0.6106708
vt 0.21341756 0.62358963
vt 0.21583983 0.62358963
vt 0.21341756 0.6106708
vt 0.21059157 0.6106708
vt 0.21059157 0.62358963
vt 0.21341756 0.62358963
vn 0.7174618 -0.03579259 -0.69567764
vn 0.7174618 -0.03579259 -0.69567764
vn 0.7174618 -0.03579259 -0.69567764
vn 0.7174618 -0.03579259 -0.69567764
vn 0.6287894 0.4629897 0.62471145
vn 0.6287894 0.4629897 0.62471145
vn 0.6287894 0.4629897 0.62471145
vn 0.6287894 0.4629897 0.62471145
vn -0.6957549 -0.03579259 0.71738696
vn -0.6957549 -0.03579259 0.71738696
vn -0.6957549 -0.03579259 0.71738696
vn -0.6957549 -0.03579259 0.71738696
vn -0.6514187 -0.39602432 -0.64716184
vn -0.6514187 -0.39602432 -0.64716184
vn -0.6514187 -0.39602432 -0.64716184
vn -0.6514187 -0.39602432 -0.64716184
g Splitter_leg_016_CorpsePart_0
f 3/3/3 2/2/2 1/1/1
f 4/4/4 3/3/3 1/1/1
f 7/7/7 6/6/6 5/5/5
f 8/8/8 7/7/7 5/5/5
f 11/11/11 10/10/10 9/9/9
f 12/12/12 11/11/11 9/9/9
f 15/15/15 14/14/14 13/13/13
f 16/16/16 15/15/15 13/13/13
