g Splitter_leg_05
v -0.20263855 0.59149593 0.08783546
v -0.08733457 0.59149593 0.20313945
v -0.1244171 0.58507466 0.24021377
v -0.23971286 0.58507466 0.12490977
v -0.17320903 0.5589625 0.058405932
v -0.05790504 0.5589625 0.17370991
v -0.16866814 0.50652474 0.053865045
v -0.053364154 0.50652474 0.16916081
v -0.19167638 0.46490133 0.07686508
v -0.0763724 0.46490133 0.19216907
v -0.22875069 0.45848003 0.1139476
v -0.11344671 0.45848003 0.2292516
v -0.0763724 0.46490133 0.19216907
v -0.19167638 0.46490133 0.07686508
v -0.25818023 0.49101347 0.14337714
v -0.14287624 0.49101347 0.25868112
v -0.2627211 0.54345125 0.14791802
v -0.14741713 0.54345125 0.263222
v -0.08733457 0.59149593 0.20313945
v -0.10039064 0.5249921 0.21619552
v -0.1244171 0.58507466 0.24021377
v -0.05790504 0.5589625 0.17370991
v -0.053364154 0.50652474 0.16916081
v -0.0763724 0.46490133 0.19216907
v -0.11344671 0.45848003 0.2292516
v -0.14287624 0.49101347 0.25868112
v -0.14741713 0.54345125 0.263222
v -0.23971286 0.58507466 0.12490977
v -0.21569462 0.5249921 0.10089153
v -0.20263855 0.59149593 0.08783546
v -0.17320903 0.5589625 0.058405932
v -0.16866814 0.50652474 0.053865045
v -0.19167638 0.46490133 0.07686508
v -0.22875069 0.45848003 0.1139476
v -0.25818023 0.49101347 0.14337714
v -0.2627211 0.54345125 0.14791802
vt 0.0848252 0.59570795
vt 0.08986847 0.59570795
vt 0.08986847 0.59419495
vt 0.0848252 0.59419495
vt 0.0848252 0.5972209
vt 0.08986847 0.5972209
vt 0.0848252 0.5992382
vt 0.08986847 0.5992382
vt 0.0848252 0.6007512
vt 0.08986847 0.6007512
vt 0.0848252 0.5891517
vt 0.08986847 0.5891517
vt 0.08986847 0.5871344
vt 0.0848252 0.5871344
vt 0.0848252 0.5906647
vt 0.08986847 0.5906647
vt 0.0848252 0.5921777
vt 0.08986847 0.5921777
vt 0.08885981 0.5846127
vt 0.08835549 0.5820911
vt 0.08734684 0.5841084
vt 0.09037279 0.5836041
vt 0.09037279 0.5815868
vt 0.08936414 0.58057815
vt 0.08785116 0.58007383
vt 0.086338185 0.58108246
vt 0.086338185 0.5830998
vt 0.09037279 0.5836041
vt 0.08835549 0.5820911
vt 0.08885981 0.5846127
vt 0.08734684 0.5841084
vt 0.086338185 0.5830998
vt 0.086338185 0.58108246
vt 0.08785116 0.58007383
vt 0.08936414 0.58057815
vt 0.09037279 0.5815868
vn 0.19270337 0.9635666 -0.18548535
vn 0.19270337 0.9635666 -0.18548535
vn -0.35142368 0.87287873 0.3385027
vn -0.35142368 0.87287873 0.3385027
vn 0.6159133 0.49501282 -0.61287284
vn 0.6159133 0.49501282 -0.61287284
vn 0.6839292 -0.26827657 -0.678431
vn 0.6839292 -0.26827657 -0.678431
vn 0.3514071 -0.8728622 -0.33856258
vn 0.3514071 -0.8728622 -0.33856258
vn -0.19272 -0.96355003 0.18555427
vn -0.19272 -0.96355003 0.18555427
vn 0.3514071 -0.8728622 -0.33856258
vn 0.3514071 -0.8728622 -0.33856258
vn -0.6159299 -0.4949962 0.6128696
vn -0.6159299 -0.4949962 0.6128696
vn -0.6839457 0.2682932 0.67840767
vn -0.6839457 0.2682932 0.67840767
vn 0.70660114 -0.0037703514 0.707602
vn 0.70660114 -0.0037703514 0.707602
vn 0.70660114 0.003786981 0.7076019
vn 0.70660114 -0.0037703514 0.707602
vn 0.70660114 -0.0037703514 0.707602
vn 0.70660114 -0.0037703514 0.707602
vn 0.70660114 -0.0037703514 0.707602
vn 0.70660114 -0.0037703514 0.707602
vn 0.70660114 -0.0037703514 0.707602
vn -0.7066178 0.003786981 -0.7075853
vn -0.7066178 -0.0037703514 -0.7075854
vn -0.7066178 0.003786981 -0.7075853
vn -0.7066178 0.003786981 -0.7075853
vn -0.7066178 -0.0037703514 -0.7075854
vn -0.7066178 -0.0037703514 -0.7075854
vn -0.7066178 -0.0037703514 -0.7075854
vn -0.7066178 -0.0037703514 -0.7075854
vn -0.7066178 -0.0037703514 -0.7075854
g Splitter_leg_05_0
f 3/3/3 2/2/2 1/1/1
f 4/4/4 3/3/3 1/1/1
f 2/2/2 6/6/6 5/5/5
f 1/1/1 2/2/2 5/5/5
f 6/6/6 8/8/8 7/7/7
f 5/5/5 6/6/6 7/7/7
f 8/8/8 10/10/10 9/9/9
f 7/7/7 8/8/8 9/9/9
f 13/13/13 12/12/12 11/11/11
f 14/14/14 13/13/13 11/11/11
f 12/12/12 16/16/16 15/15/15
f 11/11/11 12/12/12 15/15/15
f 16/16/16 18/18/18 17/17/17
f 15/15/15 16/16/16 17/17/17
f 17/17/17 18/18/18 3/3/3
f 4/4/4 17/17/17 3/3/3
f 21/21/21 20/20/20 19/19/19
f 19/19/19 20/20/20 22/22/22
f 22/22/22 20/20/20 23/23/23
f 23/23/23 20/20/20 24/24/24
f 24/24/24 20/20/20 25/25/25
f 25/25/25 20/20/20 26/26/26
f 26/26/26 20/20/20 27/27/27
f 27/27/27 20/20/20 21/21/21
f 30/30/30 29/29/29 28/28/28
f 31/31/31 29/29/29 30/30/30
f 32/32/32 29/29/29 31/31/31
f 33/33/33 29/29/29 32/32/32
f 34/34/34 29/29/29 33/33/33
f 35/35/35 29/29/29 34/34/34
f 36/36/36 29/29/29 35/35/35
f 28/28/28 29/29/29 36/36/36
