g Splitter_leg_07
v 0.31351492 0.91064453 -0.13522816
v 0.13599163 0.91064453 -0.31275147
v 0.1930699 0.9007598 -0.36982974
v 0.37059322 0.9007598 -0.19230644
v 0.26820993 0.8605578 -0.08992314
v 0.09068662 0.8605578 -0.26742637
v 0.2611982 0.7798326 -0.08293152
v 0.083694965 0.7798326 -0.26043475
v 0.29661846 0.7157426 -0.11835179
v 0.11911526 0.7157426 -0.29585502
v 0.35371685 0.7058579 -0.17543007
v 0.17619354 0.7058579 -0.35295337
v 0.11911526 0.7157426 -0.29585502
v 0.29661846 0.7157426 -0.11835179
v 0.39902186 0.7559445 -0.22073509
v 0.22149855 0.7559445 -0.3982584
v 0.4060135 0.8366698 -0.22772673
v 0.22849019 0.8366698 -0.40525004
v 0.13599163 0.91064453 -0.31275147
v 0.15610263 0.80826116 -0.33284238
v 0.1930699 0.9007598 -0.36982974
v 0.09068662 0.8605578 -0.26742637
v 0.083694965 0.7798326 -0.26043475
v 0.11911526 0.7157426 -0.29585502
v 0.17619354 0.7058579 -0.35295337
v 0.22149855 0.7559445 -0.3982584
v 0.22849019 0.8366698 -0.40525004
v 0.37059322 0.9007598 -0.19230644
v 0.33360583 0.80826116 -0.15531906
v 0.31351492 0.91064453 -0.13522816
v 0.26820993 0.8605578 -0.08992314
v 0.2611982 0.7798326 -0.08293152
v 0.29661846 0.7157426 -0.11835179
v 0.35371685 0.7058579 -0.17543007
v 0.39902186 0.7559445 -0.22073509
v 0.4060135 0.8366698 -0.22772673
vt 0.113443576 0.7121153
vt 0.12054245 0.7121153
vt 0.12054245 0.709749
vt 0.113443576 0.709749
vt 0.113443576 0.71388996
vt 0.12054245 0.71388996
vt 0.113443576 0.71625626
vt 0.12054245 0.71625626
vt 0.113443576 0.71862257
vt 0.12054245 0.71862257
vt 0.113443576 0.70265007
vt 0.12054245 0.70265007
vt 0.12054245 0.7008754
vt 0.113443576 0.7008754
vt 0.113443576 0.7050164
vt 0.12054245 0.7050164
vt 0.113443576 0.7073827
vt 0.12054245 0.7073827
vt 0.11876773 0.69673437
vt 0.11817616 0.69436806
vt 0.11699301 0.69673437
vt 0.12054245 0.6955512
vt 0.12113402 0.6931849
vt 0.11935931 0.6914102
vt 0.117584586 0.6914102
vt 0.115809865 0.69259334
vt 0.1152183 0.69495964
vt 0.12054245 0.6955512
vt 0.11817616 0.69436806
vt 0.11876773 0.69673437
vt 0.11699301 0.69673437
vt 0.1152183 0.69495964
vt 0.115809865 0.69259334
vt 0.117584586 0.6914102
vt 0.11935931 0.6914102
vt 0.12113402 0.6931849
vn -0.19271237 0.96356064 0.18550704
vn -0.19271237 0.96356064 0.18550704
vn 0.3514158 0.87287253 -0.33852693
vn 0.3514158 0.87287253 -0.33852693
vn -0.6159231 0.4950058 0.61286867
vn -0.6159231 0.4950058 0.61286867
vn -0.68393916 -0.26828516 0.6784175
vn -0.68393916 -0.26828516 0.6784175
vn -0.3514164 -0.872872 0.3385277
vn -0.3514164 -0.872872 0.3385277
vn 0.19271177 -0.96356004 -0.18551074
vn 0.19271177 -0.96356004 -0.18551074
vn -0.3514164 -0.872872 0.3385277
vn -0.3514164 -0.872872 0.3385277
vn 0.6159226 -0.49500522 -0.6128697
vn 0.6159226 -0.49500522 -0.6128697
vn 0.6839386 0.2682857 -0.67841786
vn 0.6839386 0.2682857 -0.67841786
vn -0.7066112 -0.003778398 -0.7075919
vn -0.7066112 -0.003778398 -0.7075919
vn -0.7066112 -0.003778398 -0.7075919
vn -0.7066112 -0.003778398 -0.7075919
vn -0.7066112 -0.003778398 -0.7075919
vn -0.7066112 -0.003778398 -0.7075919
vn -0.7066112 0.0037789345 -0.7075919
vn -0.7066112 0.0037789345 -0.7075919
vn -0.7066112 -0.003778398 -0.7075919
vn 0.7066106 -0.003778398 0.7075925
vn 0.7066106 -0.003778398 0.7075925
vn 0.7066106 -0.003778398 0.7075925
vn 0.7066106 -0.003778398 0.7075925
vn 0.7066106 -0.003778398 0.7075925
vn 0.7066106 -0.003778398 0.7075925
vn 0.7066106 0.0037789345 0.7075925
vn 0.7066106 -0.003778398 0.7075925
vn 0.7066106 -0.003778398 0.7075925
g Splitter_leg_07_0
f 3/3/3 2/2/2 1/1/1
f 4/4/4 3/3/3 1/1/1
f 2/2/2 6/6/6 5/5/5
f 1/1/1 2/2/2 5/5/5
f 6/6/6 8/8/8 7/7/7
f 5/5/5 6/6/6 7/7/7
f 8/8/8 10/10/10 9/9/9
f 7/7/7 8/8/8 9/9/9
f 13/13/13 12/12/12 11/11/11
f 14/14/14 13/13/13 11/11/11
f 12/12/12 16/16/16 15/15/15
f 11/11/11 12/12/12 15/15/15
f 16/16/16 18/18/18 17/17/17
f 15/15/15 16/16/16 17/17/17
f 17/17/17 18/18/18 3/3/3
f 4/4/4 17/17/17 3/3/3
f 21/21/21 20/20/20 19/19/19
f 19/19/19 20/20/20 22/22/22
f 22/22/22 20/20/20 23/23/23
f 23/23/23 20/20/20 24/24/24
f 24/24/24 20/20/20 25/25/25
f 25/25/25 20/20/20 26/26/26
f 26/26/26 20/20/20 27/27/27
f 27/27/27 20/20/20 21/21/21
f 30/30/30 29/29/29 28/28/28
f 31/31/31 29/29/29 30/30/30
f 32/32/32 29/29/29 31/31/31
f 33/33/33 29/29/29 32/32/32
f 34/34/34 29/29/29 33/33/33
f 35/35/35 29/29/29 34/34/34
f 36/36/36 29/29/29 35/35/35
f 28/28/28 29/29/29 36/36/36
