g Splitter_leg_07
v 0.12536441 0.3641399 -0.05407293
v 0.05437821 0.3641399 -0.12505913
v 0.07720209 0.36017925 -0.14788301
v 0.1481883 0.36017925 -0.07689681
v 0.107248306 0.34410375 -0.03595683
v 0.03626211 0.34410375 -0.106943026
v 0.10444453 0.31182414 -0.033161074
v 0.03346637 0.31182414 -0.104139246
v 0.11860803 0.28620452 -0.047324583
v 0.047629863 0.28620452 -0.11830275
v 0.14143191 0.28225192 -0.07014846
v 0.07045374 0.28225192 -0.14113466
v 0.047629863 0.28620452 -0.11830275
v 0.11860803 0.28620452 -0.047324583
v 0.15955605 0.30228004 -0.08826456
v 0.08856984 0.30228004 -0.15925077
v 0.16235179 0.33455965 -0.0910603
v 0.09136559 0.33455965 -0.1620465
v 0.05437821 0.3641399 -0.12505913
v 0.062419996 0.32319188 -0.13309288
v 0.07720209 0.36017925 -0.14788301
v 0.03626211 0.34410375 -0.106943026
v 0.03346637 0.31182414 -0.104139246
v 0.047629863 0.28620452 -0.11830275
v 0.07045374 0.28225192 -0.14113466
v 0.08856984 0.30228004 -0.15925077
v 0.09136559 0.33455965 -0.1620465
v 0.1481883 0.36017925 -0.07689681
v 0.13339816 0.32319188 -0.062106676
v 0.12536441 0.3641399 -0.05407293
v 0.107248306 0.34410375 -0.03595683
v 0.10444453 0.31182414 -0.033161074
v 0.11860803 0.28620452 -0.047324583
v 0.14143191 0.28225192 -0.07014846
v 0.15955605 0.30228004 -0.08826456
v 0.16235179 0.33455965 -0.0910603
vt 0.21691991 0.60448533
vt 0.22074583 0.60448533
vt 0.22074583 0.6033375
vt 0.21691991 0.6033375
vt 0.21691991 0.6060157
vt 0.22074583 0.6060157
vt 0.21691991 0.6071634
vt 0.22074583 0.6071634
vt 0.21691991 0.60831124
vt 0.22074583 0.60831124
vt 0.21691991 0.5998942
vt 0.22074583 0.5998942
vt 0.22074583 0.5987464
vt 0.21691991 0.5987464
vt 0.21691991 0.601042
vt 0.22074583 0.601042
vt 0.21691991 0.6021898
vt 0.22074583 0.6021898
vt 0.21998064 0.59645087
vt 0.21959805 0.5949205
vt 0.21883287 0.59645087
vt 0.22074583 0.5956857
vt 0.22112842 0.5945379
vt 0.22036324 0.59377277
vt 0.21921547 0.59339017
vt 0.21806769 0.5941553
vt 0.21806769 0.5953031
vt 0.22074583 0.5956857
vt 0.21959805 0.5949205
vt 0.21998064 0.59645087
vt 0.21883287 0.59645087
vt 0.21806769 0.5953031
vt 0.21806769 0.5941553
vt 0.21921547 0.59339017
vt 0.22036324 0.59377277
vt 0.22112842 0.5945379
vn -0.19270968 0.96355414 0.1855435
vn -0.19270968 0.96355414 0.1855435
vn 0.35141587 0.87286663 -0.33854207
vn 0.35141587 0.87286663 -0.33854207
vn -0.6159184 0.49500167 0.6128768
vn -0.6159184 0.49500167 0.6128768
vn -0.6839341 -0.26828557 0.67842245
vn -0.6839341 -0.26828557 0.67842245
vn -0.3514129 -0.87286955 0.33853757
vn -0.3514129 -0.87286955 0.33853757
vn 0.1927126 -0.9635571 -0.18552487
vn 0.1927126 -0.9635571 -0.18552487
vn -0.3514129 -0.87286955 0.33853757
vn -0.3514129 -0.87286955 0.33853757
vn 0.6159214 -0.49500456 -0.6128714
vn 0.6159214 -0.49500456 -0.6128714
vn 0.6839371 0.26828265 -0.6784206
vn 0.6839371 0.26828265 -0.6784206
vn -0.70660603 0.003777206 -0.70759714
vn -0.70660603 0.003777206 -0.70759714
vn -0.70660603 0.003777206 -0.70759714
vn -0.70660603 0.003777206 -0.70759714
vn -0.70660603 -0.0037801266 -0.7075971
vn -0.70660603 0.003777206 -0.70759714
vn -0.70660603 0.003777206 -0.70759714
vn -0.70660603 0.003777206 -0.70759714
vn -0.70660603 0.003777206 -0.70759714
vn 0.70660895 0.003777206 0.7075942
vn 0.70660895 0.003777206 0.7075942
vn 0.70660895 -0.0037801266 0.70759416
vn 0.70660895 -0.0037801266 0.70759416
vn 0.70660895 0.003777206 0.7075942
vn 0.70660895 0.003777206 0.7075942
vn 0.70660895 0.003777206 0.7075942
vn 0.70660895 0.003777206 0.7075942
vn 0.70660895 0.003777206 0.7075942
g Splitter_leg_07_0
f 3/3/3 2/2/2 1/1/1
f 4/4/4 3/3/3 1/1/1
f 2/2/2 6/6/6 5/5/5
f 1/1/1 2/2/2 5/5/5
f 6/6/6 8/8/8 7/7/7
f 5/5/5 6/6/6 7/7/7
f 8/8/8 10/10/10 9/9/9
f 7/7/7 8/8/8 9/9/9
f 13/13/13 12/12/12 11/11/11
f 14/14/14 13/13/13 11/11/11
f 12/12/12 16/16/16 15/15/15
f 11/11/11 12/12/12 15/15/15
f 16/16/16 18/18/18 17/17/17
f 15/15/15 16/16/16 17/17/17
f 17/17/17 18/18/18 3/3/3
f 4/4/4 17/17/17 3/3/3
f 21/21/21 20/20/20 19/19/19
f 19/19/19 20/20/20 22/22/22
f 22/22/22 20/20/20 23/23/23
f 23/23/23 20/20/20 24/24/24
f 24/24/24 20/20/20 25/25/25
f 25/25/25 20/20/20 26/26/26
f 26/26/26 20/20/20 27/27/27
f 27/27/27 20/20/20 21/21/21
f 30/30/30 29/29/29 28/28/28
f 31/31/31 29/29/29 30/30/30
f 32/32/32 29/29/29 31/31/31
f 33/33/33 29/29/29 32/32/32
f 34/34/34 29/29/29 33/33/33
f 35/35/35 29/29/29 34/34/34
f 36/36/36 29/29/29 35/35/35
f 28/28/28 29/29/29 36/36/36
