g Splitter_leg_020
v -0.3247589 0.25544953 -0.26149744
v -0.25418305 0.25544953 -0.3320732
v -0.14847937 0.5415921 -0.21986385
v -0.22262794 0.5415921 -0.1457286
v -0.24929047 0.20704365 -0.1860424
v -0.3247589 0.25544953 -0.26149744
v -0.22262794 0.5415921 -0.1457286
v -0.17086262 0.50838387 -0.09396325
v -0.17872804 0.20704365 -0.25660485
v -0.24929047 0.20704365 -0.1860424
v -0.17086262 0.50838387 -0.09396325
v -0.09671402 0.50838387 -0.1680985
v -0.25418305 0.25544953 -0.3320732
v -0.17872804 0.20704365 -0.25660485
v -0.09671402 0.50838387 -0.1680985
v -0.14847937 0.5415921 -0.21986385
vt 0.079538226 0.54070336
vt 0.079538226 0.5439027
vt 0.090050414 0.5439027
vt 0.090050414 0.54070336
vt 0.079538226 0.53750396
vt 0.079538226 0.54070336
vt 0.090050414 0.54070336
vt 0.090050414 0.53750396
vt 0.079538226 0.5343046
vt 0.079538226 0.53750396
vt 0.090050414 0.53750396
vt 0.090050414 0.5343046
vt 0.079538226 0.5439027
vt 0.079538226 0.5471021
vt 0.090050414 0.5471021
vt 0.090050414 0.5439027
vn -0.62036824 0.47490537 -0.624186
vn -0.62036824 0.47490537 -0.624186
vn -0.62036824 0.47490537 -0.624186
vn -0.62036824 0.47490537 -0.624186
vn -0.71547866 -0.028619885 0.6980481
vn -0.71547866 -0.028619885 0.6980481
vn -0.71547866 -0.028619885 0.6980481
vn -0.71547866 -0.028619885 0.6980481
vn 0.65522915 -0.36989814 0.658673
vn 0.65522915 -0.36989814 0.658673
vn 0.65522915 -0.36989814 0.658673
vn 0.65522915 -0.36989814 0.658673
vn 0.7111764 0.010543227 -0.70293456
vn 0.7111764 0.010543227 -0.70293456
vn 0.7111764 0.010543227 -0.70293456
vn 0.7111764 0.010543227 -0.70293456
g Splitter_leg_020_0
f 3/3/3 2/2/2 1/1/1
f 4/4/4 3/3/3 1/1/1
f 7/7/7 6/6/6 5/5/5
f 8/8/8 7/7/7 5/5/5
f 11/11/11 10/10/10 9/9/9
f 12/12/12 11/11/11 9/9/9
f 15/15/15 14/14/14 13/13/13
f 16/16/16 15/15/15 13/13/13
