g SplitterTurretMesh_03
v 0.2284225 2.4633288 0.99854743
v 0.12184471 2.401344 1.0271271
v 0.06760141 2.5794508 1.0842338
v 0.12910898 2.615401 1.0681676
v 0.1766713 2.6740453 1.0419208
v 0.30764 2.5587187 0.9550679
v 0.2034483 2.7482786 1.0087279
v 0.34979388 2.6761131 0.90225625
v 0.20376644 2.8285036 0.97277784
v 0.3496348 2.8014083 0.84674037
v 0.17762572 2.903161 0.9393729
v 0.30732185 2.9192271 0.7953603
v 0.12974526 2.9620173 0.91307306
v 0.22805132 3.0152001 0.7540548
v 0.068184674 2.9985507 0.8966887
v 0.12157962 3.0778213 0.72738385
v 0.00073844194 3.0106401 0.8912803
v 0.0007914603 3.099508 0.7181047
v -0.06644267 2.9980204 0.8969009
v -0.120049685 3.0778213 0.72738385
v -0.12763208 2.961381 0.9133382
v -0.22652137 3.0152001 0.7540548
v -0.17535347 2.9027898 0.9395319
v -0.3057919 2.9192271 0.7953603
v -0.20181233 2.8284504 0.9728309
v -0.3481049 2.8014083 0.84674037
v -0.20186538 2.7482786 1.008675
v -0.34826398 2.6761131 0.9022032
v -0.17551255 2.6738863 1.0419738
v -0.30611008 2.5587187 0.9550679
v -0.12763208 2.615401 1.0681676
v -0.22689259 2.4633288 0.99854743
v -0.06628358 2.5791328 1.0843929
v -0.12031481 2.401344 1.0271271
v 0.00073844194 2.5670962 1.0898013
v 0.0007914603 2.3798163 1.0370426
v 0.0007914603 2.8192773 1.0628122
v 0.24528405 2.4088204 0.9280788
v 0.33022812 2.5116866 0.8820542
v 0.37540436 2.63783 0.8255838
v 0.37540436 2.7721393 0.76550794
v 0.33022812 2.8982828 0.70903766
v 0.24528405 3.001149 0.66295993
v 0.13085876 3.068277 0.6329485
v 0.0007914603 3.0916073 0.62250286
v -0.12932885 3.068277 0.6329485
v -0.24375415 3.001149 0.66295993
v -0.32869822 2.8982828 0.70903766
v -0.37387443 2.7721393 0.76550794
v -0.37387443 2.63783 0.8255838
v -0.32869822 2.5116866 0.8820542
v -0.24375415 2.4088204 0.9280788
v -0.12932885 2.3416393 0.95814323
v 0.0007914603 2.3183618 0.96858895
v 0.13085876 2.3416393 0.95814323
vt 0.06789321 0.63691735
vt 0.06491713 0.6345365
vt 0.0631315 0.638703
vt 0.06491713 0.6398934
vt 0.06610756 0.64167905
vt 0.070274055 0.6392982
vt 0.06729799 0.6434647
vt 0.07146449 0.6428695
vt 0.06729799 0.64644074
vt 0.07146449 0.64703596
vt 0.066702776 0.6482264
vt 0.070274055 0.6506072
vt 0.06491713 0.650012
vt 0.06789321 0.6529881
vt 0.0631315 0.65120244
vt 0.06491713 0.6553689
vt 0.061345853 0.65179765
vt 0.061345853 0.65596414
vt 0.059560213 0.65120244
vt 0.058369786 0.6553689
vt 0.058369786 0.650012
vt 0.05539372 0.6529881
vt 0.056584146 0.6482264
vt 0.053012863 0.6506072
vt 0.055988934 0.64644074
vt 0.05182244 0.64703596
vt 0.055988934 0.6434647
vt 0.05182244 0.6428695
vt 0.056584146 0.64167905
vt 0.053012863 0.6392982
vt 0.058369786 0.6398934
vt 0.05539372 0.63691735
vt 0.059560213 0.638703
vt 0.058369786 0.6345365
vt 0.061345853 0.6381078
vt 0.061345853 0.63394123
vt 0.061345853 0.6446551
vt 0.06967884 0.6345365
vt 0.0720597 0.6381078
vt 0.07384534 0.6428695
vt 0.07384534 0.64703596
vt 0.0720597 0.65179765
vt 0.06967884 0.6553689
vt 0.06610756 0.65774983
vt 0.061345853 0.65834504
vt 0.057179358 0.65774983
vt 0.05360808 0.6553689
vt 0.05063201 0.65179765
vt 0.049441583 0.64703596
vt 0.049441583 0.6428695
vt 0.05063201 0.6381078
vt 0.05360808 0.6345365
vt 0.057179358 0.6327508
vt 0.061345853 0.6315604
vt 0.06610756 0.6327508
vn 0.5495607 -0.2905965 0.78328586
vn 0.30582964 -0.4353118 0.8467419
vn 0.21443051 -0.13826454 0.96690357
vn 0.3896122 -0.039248824 0.9201423
vn 0.5114777 0.097849905 0.8537072
vn 0.71712583 -0.092565 0.6907693
vn 0.57241046 0.25018185 0.7808683
vn 0.7932918 0.12831634 0.5951663
vn 0.56479394 0.41013032 0.7161012
vn 0.7932918 0.3568142 0.49332717
vn 0.5038612 0.5700789 0.6489483
vn 0.70950925 0.5776954 0.4035649
vn 0.38199562 0.7071776 0.5949615
vn 0.5495607 0.775727 0.3102107
vn 0.20681393 0.8061933 0.55432874
vn 0.29821306 0.9204423 0.25269544
vn 0.0011658072 0.8366597 0.54772174
vn 0.0011658072 0.9737584 0.22758123
vn -0.2120989 0.8061933 0.55232817
vn -0.30349797 0.9204423 0.246323
vn -0.38728052 0.7071776 0.591535
vn -0.5472291 0.775727 0.3143055
vn -0.5015295 0.5700789 0.650752
vn -0.7071776 0.5776954 0.4076369
vn -0.5700789 0.41774696 0.7074585
vn -0.79096013 0.3568142 0.49705705
vn -0.5700789 0.25018185 0.7825721
vn -0.79096013 0.12831634 0.59826165
vn -0.50914603 0.097849905 0.85509986
vn -0.7147942 -0.092565 0.69318175
vn -0.38728052 -0.039248824 0.9211261
vn -0.5472291 -0.2905965 0.7849166
vn -0.2120989 -0.13826454 0.9674177
vn -0.30349797 -0.4353118 0.8475805
vn 0.0011658072 -0.16873091 0.98566145
vn 0.0011658072 -0.48862794 0.8724915
vn 0.0011658072 0.41013032 0.91202617
vn 0.6485765 -0.51909435 0.5566773
vn 0.8466079 -0.28297985 0.4507521
vn 0.9456237 -0.016399026 0.324849
vn 0.9456237 0.25779837 0.19833255
vn 0.8466079 0.53199583 0.015344972
vn 0.6406963 0.7677945 -0
vn 0.35152924 0.93567544 -0.03063746
vn 0.0011658072 0.9966082 -0.08228444
vn -0.34919757 0.93567544 -0.050720178
vn -0.6437948 0.7651983 -0
vn -0.84427625 0.53199583 0.06463759
vn -0.9432921 0.25779837 0.20914122
vn -0.9432921 -0.016399026 0.33155861
vn -0.8518929 -0.28297985 0.44068235
vn -0.6462448 -0.51909435 0.55938244
vn -0.3568142 -0.68665946 0.63338965
vn 0.0011658072 -0.7475922 0.66415703
vn 0.35914582 -0.68665946 0.6320705
g SplitterTurretMesh_03_0
f 3/3/3 2/2/2 1/1/1
f 4/4/4 3/3/3 1/1/1
f 6/6/6 5/5/5 4/4/4
f 1/1/1 6/6/6 4/4/4
f 8/8/8 7/7/7 5/5/5
f 6/6/6 8/8/8 5/5/5
f 10/10/10 9/9/9 7/7/7
f 8/8/8 10/10/10 7/7/7
f 12/12/12 11/11/11 9/9/9
f 10/10/10 12/12/12 9/9/9
f 14/14/14 13/13/13 11/11/11
f 12/12/12 14/14/14 11/11/11
f 16/16/16 15/15/15 13/13/13
f 14/14/14 16/16/16 13/13/13
f 18/18/18 17/17/17 15/15/15
f 16/16/16 18/18/18 15/15/15
f 20/20/20 19/19/19 17/17/17
f 18/18/18 20/20/20 17/17/17
f 22/22/22 21/21/21 19/19/19
f 20/20/20 22/22/22 19/19/19
f 24/24/24 23/23/23 21/21/21
f 22/22/22 24/24/24 21/21/21
f 26/26/26 25/25/25 23/23/23
f 24/24/24 26/26/26 23/23/23
f 28/28/28 27/27/27 25/25/25
f 26/26/26 28/28/28 25/25/25
f 30/30/30 29/29/29 27/27/27
f 28/28/28 30/30/30 27/27/27
f 32/32/32 31/31/31 29/29/29
f 30/30/30 32/32/32 29/29/29
f 34/34/34 33/33/33 31/31/31
f 32/32/32 34/34/34 31/31/31
f 36/36/36 35/35/35 33/33/33
f 34/34/34 36/36/36 33/33/33
f 2/2/2 3/3/3 35/35/35
f 36/36/36 2/2/2 35/35/35
f 4/4/4 37/37/37 3/3/3
f 5/5/5 37/37/37 4/4/4
f 7/7/7 37/37/37 5/5/5
f 9/9/9 37/37/37 7/7/7
f 11/11/11 37/37/37 9/9/9
f 13/13/13 37/37/37 11/11/11
f 15/15/15 37/37/37 13/13/13
f 17/17/17 37/37/37 15/15/15
f 19/19/19 37/37/37 17/17/17
f 21/21/21 37/37/37 19/19/19
f 23/23/23 37/37/37 21/21/21
f 25/25/25 37/37/37 23/23/23
f 27/27/27 37/37/37 25/25/25
f 29/29/29 37/37/37 27/27/27
f 31/31/31 37/37/37 29/29/29
f 33/33/33 37/37/37 31/31/31
f 35/35/35 37/37/37 33/33/33
f 3/3/3 37/37/37 35/35/35
f 6/6/6 1/1/1 38/38/38
f 39/39/39 6/6/6 38/38/38
f 8/8/8 6/6/6 39/39/39
f 40/40/40 8/8/8 39/39/39
f 10/10/10 8/8/8 40/40/40
f 41/41/41 10/10/10 40/40/40
f 12/12/12 10/10/10 41/41/41
f 42/42/42 12/12/12 41/41/41
f 14/14/14 12/12/12 42/42/42
f 43/43/43 14/14/14 42/42/42
f 16/16/16 14/14/14 43/43/43
f 44/44/44 16/16/16 43/43/43
f 18/18/18 16/16/16 44/44/44
f 45/45/45 18/18/18 44/44/44
f 20/20/20 18/18/18 45/45/45
f 46/46/46 20/20/20 45/45/45
f 22/22/22 20/20/20 46/46/46
f 47/47/47 22/22/22 46/46/46
f 24/24/24 22/22/22 47/47/47
f 48/48/48 24/24/24 47/47/47
f 26/26/26 24/24/24 48/48/48
f 49/49/49 26/26/26 48/48/48
f 28/28/28 26/26/26 49/49/49
f 50/50/50 28/28/28 49/49/49
f 30/30/30 28/28/28 50/50/50
f 51/51/51 30/30/30 50/50/50
f 32/32/32 30/30/30 51/51/51
f 52/52/52 32/32/32 51/51/51
f 34/34/34 32/32/32 52/52/52
f 53/53/53 34/34/34 52/52/52
f 36/36/36 34/34/34 53/53/53
f 54/54/54 36/36/36 53/53/53
f 2/2/2 36/36/36 54/54/54
f 55/55/55 2/2/2 54/54/54
f 1/1/1 2/2/2 55/55/55
f 38/38/38 1/1/1 55/55/55
