g Spruce_Destroy2
v 0.1273191 1.0466495 -0.5620775
v -0.15920782 1.008249 -0.5675825
v -0.115033865 0.9078169 -0.44365358
v 0.10227823 0.9577644 -0.44170666
v -0.112751245 0.54287744 -0.54972494
v 0.26521194 0.4540596 -0.7020515
v 0.10227823 0.9577644 -0.44170666
v -0.115033865 0.9078169 -0.44365358
v -0.49715948 1.1014979 -0.21741271
v -0.15920782 1.008249 -0.5675825
v -0.102479935 1.6419921 -0.3003229
v -0.25950575 1.6606553 -0.13040733
v 0.4467417 1.0597405 -0.3498677
v 0.52354276 1.0628958 -0.19270754
v 0.21184063 1.6748874 -0.16196012
v 0.12496948 1.6548817 -0.2737379
v -0.30938625 1.0879369 -0.058506966
v -0.3355012 0.9187596 0.17370868
v -0.5653002 0.49709225 0.033869028
v 0.3340912 1.1209667 0.08932161
v 0.25218797 0.91815543 0.27071714
v 0.3758484 1.0978725 0.41485333
v 0.4211638 1.3225694 0.13644958
v 0.100465536 1.1028404 0.51320434
v 0.06897998 0.9215121 0.36571145
v -0.042865038 1.1586957 0.27682638
v -0.07515645 1.3235092 0.35631275
v -0.5653002 0.49709225 0.033869028
v -0.43177104 0.43391943 0.6251836
v -0.25561213 0.22808719 0.41559196
v -0.46809053 0.3591323 0.014534473
v -0.54254174 0.21942687 -0.17800522
v -0.72977805 0.37396884 -0.25238943
v 0.4095496 0.94373345 -0.14195418
v 0.52354276 1.0628958 -0.19270754
v 0.4467417 1.0597405 -0.3498677
v 0.34751797 0.9453447 -0.28327096
v 0.5209917 0.53240466 -0.4899087
v 0.34751797 0.9453447 -0.28327096
v 0.6422353 0.46574068 0.28884315
v 0.7297778 0.5261612 0.088918924
v 0.62108815 0.33167458 0.008626699
v 0.55610263 0.3042841 0.25729036
v 0.12268686 0.28072 0.51662827
v 0.09825015 0.4661436 0.70205164
v -0.17196321 0.94004107 0.3126757
v -0.43177104 0.43391943 0.6251836
v 0.42337918 0.3452356 -0.3862542
v 0.46903014 0.557647 -0.16430974
v 0.5019257 0.75045514 -0.18854523
v 0.5209917 0.53240466 -0.4899087
v 0.6422353 0.46574068 0.28884315
v 0.40122497 0.6072588 0.36228752
v 0.3340912 1.1209667 0.08932161
v 0.7297778 0.5261612 0.088918924
v -0.30938625 1.0879369 -0.058506966
v -0.3794067 0.93285775 -0.22580445
v -0.49715948 1.1014979 -0.21741271
v -0.45990014 1.1970963 -0.066361666
v -0.3794067 0.93285775 -0.22580445
v -0.49715948 1.1014979 -0.21741271
v 0.1273191 1.0466495 -0.5620775
v 0.24084234 1.2575169 -0.37329733
v -0.28414392 1.0807536 0.41102672
v -0.17196321 0.94004107 0.3126757
v -0.3355012 0.9187596 0.17370868
v -0.4780934 1.0678637 0.22204518
v 0.5019257 0.75045514 -0.18854523
v 0.4095496 0.94373345 -0.14195418
v 0.55610263 0.3042841 0.25729036
v 0.3649056 0.4931314 0.3190534
v 0.40122497 0.6072588 0.36228752
v 0.6422353 0.46574068 0.28884315
v -0.11315417 0.40840864 -0.5090419
v -0.112751245 0.54287744 -0.54972494
v -0.40424633 0.32247734 -0.67257977
v -0.3111987 0.20720863 -0.5393193
v 0.2038517 0.29602647 -0.5751015
v 0.26521194 0.4540596 -0.7020515
v 0.26521194 0.4540596 -0.7020515
v 0.2038517 0.29602647 -0.5751015
v 0.100465536 1.1028404 0.51320434
v 0.3758484 1.0978725 0.41485333
v 0.25218797 0.91815543 0.27071714
v 0.06897998 0.9215121 0.36571145
v -0.45990014 1.1970963 -0.066361666
v -0.4780934 1.0678637 0.22204518
v -0.3355012 0.9187596 0.17370868
v -0.30938625 1.0879369 -0.058506966
v -0.45990014 1.1970963 -0.066361666
v -0.24043989 1.6871731 0.051861048
v -0.4780934 1.0678637 0.22204518
v -0.28414392 1.0807536 0.41102672
v -0.07515645 1.3235092 0.35631275
v 0.19559431 1.1132462 -0.30045724
v 0.24084234 1.2575169 -0.37329733
v 0.24084234 1.2575169 -0.37329733
v 0.19559431 1.1132462 -0.30045724
v 0.34751797 0.9453447 -0.28327096
v 0.4467417 1.0597405 -0.3498677
v 0.06897998 0.9215121 0.36571145
v 0.09825015 0.4661436 0.70205164
v -0.28414392 1.0807536 0.41102672
v -0.07985568 1.7123482 0.15343428
v -0.07515645 1.3235092 0.35631275
v 0.100465536 1.1028404 0.51320434
v -0.40424633 0.32247734 -0.67257977
v -0.3111987 0.20720863 -0.5393193
v -0.09952593 2.1445553 -0.09751177
v -0.09912324 2.1998065 -0.20519435
v -0.019368172 2.130256 -0.13282418
v -0.0227921 2.107498 -0.22211206
v -0.102614164 2.092191 -0.239164
v -0.17015076 2.1185749 -0.19693685
v -0.15376997 2.1454284 -0.13806057
v -0.40424633 0.32247734 -0.67257977
v -0.72977805 0.37396884 -0.25238943
v -0.3794067 0.93285775 -0.22580445
v 0.18129468 1.7175846 0.045818806
v 0.4211638 1.3225694 0.13644958
v 0.3758484 1.0978725 0.41485333
v 0.25218797 0.91815543 0.27071714
v -0.042865038 1.1586957 0.27682638
v 0.19559431 1.1132462 -0.30045724
v -0.21231079 -2.1998065 0.2901187
v -0.12382841 -1.027986 0.13685226
v 0.102479696 -1.027986 0.13685226
v 0.19096208 -2.1998065 0.2901187
v 0.21560001 -1.027986 -0.05911112
v 0.39256477 -2.1998065 -0.05911112
v 0.102479696 -1.027986 -0.25507474
v 0.19096208 -2.1998065 -0.40827405
v -0.12382841 -1.027986 -0.25507474
v -0.21231079 -2.1998065 -0.40827405
v -0.23694873 -1.027986 -0.05911112
v -0.4139135 -2.1998065 -0.05911112
v 0.19096208 -2.1998065 0.2901187
v 0.39256477 -2.1998065 -0.05911112
v 0.19096208 -2.1998065 -0.40827405
v -0.21231079 -2.1998065 0.2901187
v -0.21231079 -2.1998065 -0.40827405
v -0.4139135 -2.1998065 -0.05911112
vt 0.618672 0.9755434
vt 0.6170224 0.97499347
vt 0.6170224 0.97334385
vt 0.618672 0.9744436
vt 0.6175723 0.9793925
vt 0.61592263 0.98104215
vt 0.6164725 0.9738937
vt 0.6175723 0.9744436
vt 0.614273 0.9804923
vt 0.6170224 0.9793925
vt 0.6170224 0.98874044
vt 0.61592263 0.98929036
vt 0.62142146 0.9799424
vt 0.6219713 0.9799424
vt 0.6197718 0.98929036
vt 0.618672 0.98929036
vt 0.61812216 0.97169423
vt 0.61812216 0.9744436
vt 0.6192219 0.9799424
vt 0.62032163 0.97664315
vt 0.6197718 0.9738937
vt 0.62087154 0.97664315
vt 0.62087154 0.9799424
vt 0.618672 0.97664315
vt 0.618672 0.9738937
vt 0.6175723 0.977193
vt 0.6175723 0.9799424
vt 0.6192219 0.9755434
vt 0.618672 0.97609323
vt 0.61812216 0.9793925
vt 0.618672 0.977193
vt 0.618672 0.9793925
vt 0.6197718 0.977193
vt 0.62087154 0.9738937
vt 0.6219713 0.97609323
vt 0.62142146 0.9755434
vt 0.62032163 0.9738937
vt 0.6153728 0.9799424
vt 0.61592263 0.9738937
vt 0.61482286 0.9755434
vt 0.614273 0.97499347
vt 0.61482286 0.97774285
vt 0.61482286 0.97829276
vt 0.6164725 0.97829276
vt 0.6164725 0.9755434
vt 0.6175723 0.9738937
vt 0.618672 0.98104215
vt 0.6153728 0.97774285
vt 0.6153728 0.9744436
vt 0.6153728 0.97169423
vt 0.6153728 0.97499347
vt 0.61482286 0.9804923
vt 0.6153728 0.9788426
vt 0.61592263 0.9711443
vt 0.614273 0.9799424
vt 0.61592263 0.97609323
vt 0.6153728 0.9738937
vt 0.614273 0.97664315
vt 0.61482286 0.97774285
vt 0.6153728 0.9738937
vt 0.614273 0.97664315
vt 0.618672 0.9799424
vt 0.6197718 0.9832417
vt 0.61592263 0.97609323
vt 0.6170224 0.9738937
vt 0.6153728 0.9738937
vt 0.61482286 0.97609323
vt 0.6153728 0.97664315
vt 0.6153728 0.9738937
vt 0.61482286 0.97829276
vt 0.61592263 0.9755434
vt 0.6153728 0.9738937
vt 0.61482286 0.9755434
vt 0.6175723 0.97664315
vt 0.6175723 0.9744436
vt 0.61812216 0.97774285
vt 0.61812216 0.9793925
vt 0.6164725 0.97829276
vt 0.61592263 0.97609323
vt 0.61592263 0.97609323
vt 0.6164725 0.97829276
vt 0.618672 0.97664315
vt 0.62087154 0.97664315
vt 0.6197718 0.9738937
vt 0.618672 0.9738937
vt 0.61482286 0.97774285
vt 0.61482286 0.97609323
vt 0.6153728 0.9738937
vt 0.61592263 0.97609323
vt 0.61482286 0.9821419
vt 0.6164725 0.9898402
vt 0.61482286 0.9804923
vt 0.61592263 0.97609323
vt 0.6175723 0.9799424
vt 0.6192219 0.97664315
vt 0.6197718 0.9788426
vt 0.6197718 0.9788426
vt 0.6192219 0.97664315
vt 0.62032163 0.9738937
vt 0.62142146 0.9755434
vt 0.6164725 0.9744436
vt 0.6164725 0.9804923
vt 0.61592263 0.9804923
vt 0.6175723 0.9898402
vt 0.6175723 0.98434144
vt 0.618672 0.98104215
vt 0.61812216 0.97774285
vt 0.61812216 0.9793925
vt 0.6170224 0.99643874
vt 0.6170224 0.9975385
vt 0.61812216 0.99643874
vt 0.6175723 0.9958889
vt 0.6170224 0.9958889
vt 0.6170224 0.99643874
vt 0.6170224 0.99643874
vt 0.61812216 0.98269176
vt 0.6197718 0.9821419
vt 0.61812216 0.9738937
vt 0.6192219 0.99039006
vt 0.62087154 0.98434144
vt 0.62087154 0.9804923
vt 0.61592263 0.9744436
vt 0.6170224 0.9711443
vt 0.6164725 0.97169423
vt 0.43501252 0.91725624
vt 0.43501252 0.9321029
vt 0.43501252 0.9321029
vt 0.4355624 0.91725624
vt 0.4355624 0.9321029
vt 0.4355624 0.91725624
vt 0.43501252 0.9321029
vt 0.4355624 0.91725624
vt 0.43501252 0.9321029
vt 0.43501252 0.91725624
vt 0.43501252 0.9321029
vt 0.43501252 0.91725624
vt 0.4355624 0.91725624
vt 0.4355624 0.91725624
vt 0.4355624 0.91725624
vt 0.43501252 0.91725624
vt 0.43501252 0.91725624
vt 0.43501252 0.91725624
vn 0.64123565 -0.64903486 -0.4093539
vn -0.49744666 0.11528611 -0.8597999
vn -0.37265956 -0.7114284 -0.5958141
vn 0.5788421 -0.68023163 -0.44969627
vn -0.07629013 0.32586432 -0.9423334
vn 0.22007918 0.4896474 -0.84368867
vn 0.17328405 0.47404897 -0.86327875
vn -0.45845068 0.44285226 -0.7705225
vn -0.70802486 0.24787235 -0.66125643
vn -0.49744666 0.11528611 -0.8597999
vn -0.3804587 0.34146273 -0.85945004
vn -0.8406111 0.34926188 -0.41399172
vn 0.5866413 0.28686833 -0.75733644
vn 0.8284163 0.46624982 -0.31038287
vn 0.85961306 0.46624982 -0.20898916
vn 0.46965343 0.3804587 -0.7966661
vn -0.87180793 0.4506514 0.19200069
vn -0.8250127 0.47404897 0.30762255
vn -0.8796071 0.44285226 0.17370446
vn 0.86741227 -0.46185422 0.18516654
vn 0.89860904 -0.42285824 -0.11701578
vn 0.89860904 -0.42285824 -0.11701578
vn 0.8752115 -0.46185422 0.14385943
vn -0.84841037 -0.29027194 0.4426534
vn 0.0017017722 0.52864337 0.8488423
vn -0.2790692 -0.29027194 0.91534835
vn -0.84841037 -0.29027194 0.4426534
vn -0.7236233 -0.63343644 0.27409425
vn -0.4350531 -0.77382195 0.46035677
vn -0.42725384 -0.77382195 0.46760425
vn -0.7236233 -0.63343644 0.27409425
vn -0.6360441 -0.77165276 -0
vn -0.6300329 -0.77382195 0.06525455
vn 0.7504244 -0.5710429 0.33282617
vn 0.7504244 -0.5710429 0.33282617
vn 0.63343644 -0.7192276 -0.28542933
vn 0.63343644 -0.7192276 -0.28542933
vn 0.5008502 0.5364425 -0.6792485
vn 0.5788421 0.52864337 -0.62086874
vn 0.8362155 -0.51644856 0.1844574
vn 0.8518139 -0.33706713 -0.40099725
vn 0.8518139 -0.34486634 -0.39430985
vn 0.8362155 -0.51644856 0.1844574
vn 0.24347681 -0.68023163 0.69137836
vn 0.22007918 -0.68803084 0.69150466
vn -0.1542821 0.5208442 0.8395942
vn -0.4194547 0.58323777 0.6956231
vn 0.81281793 -0.51644856 -0.2694586
vn 0.91420746 -0.22787839 -0.33510622
vn 0.9220066 -0.2356776 -0.30718058
vn 0.86741227 -0.46965343 -0.16438253
vn 0.6256373 0.48184824 0.61351466
vn 0.56324375 0.49744666 0.6597752
vn 0.78942037 0.55204093 0.2684517
vn 0.73482597 0.52864337 0.42493176
vn -0.56763935 -0.54764533 0.61471146
vn -0.56763935 -0.54764533 0.61471146
vn -0.56763935 -0.54764533 0.61471146
vn -0.56763935 -0.54764533 0.61471146
vn -0.6144345 -0.59444046 -0.5187589
vn -0.70802486 0.24787235 -0.66125643
vn 0.09529209 0.40385628 -0.9098459
vn 0.25907516 0.32586432 -0.9092263
vn -0.45845068 -0.68803084 0.56252694
vn -0.45845068 -0.68803084 0.56252694
vn -0.45845068 -0.68803084 0.56252694
vn -0.45845068 -0.68803084 0.56252694
vn 0.8206171 0.51304495 -0.25173894
vn 0.8284163 0.51304495 -0.2247472
vn 0.07189453 -0.29027194 0.9542397
vn 0.5710429 -0.40725988 0.7127759
vn 0.5788421 -0.40725988 0.7064568
vn 0.07189453 -0.29027194 0.9542397
vn 0.08749294 -0.41505903 -0.9055777
vn -0.03729415 -0.42285824 -0.9054281
vn 0.5320469 -0.33706713 -0.7767315
vn 0.5320469 -0.33706713 -0.7767315
vn 0.59444046 -0.6178381 -0.51470053
vn 0.59444046 -0.6178381 -0.51470053
vn -0.3804587 -0.39946067 -0.83407575
vn -0.3804587 -0.39946067 -0.83407575
vn 0.27467358 -0.6724324 0.6873056
vn 0.27467358 -0.6724324 0.6873056
vn 0.27467358 -0.6724324 0.6873056
vn 0.27467358 -0.6724324 0.6873056
vn -0.6300329 -0.64903486 -0.42639455
vn -0.6300329 -0.64903486 -0.42639455
vn -0.6300329 -0.64903486 -0.42639455
vn -0.6300329 -0.64903486 -0.42639455
vn -0.91860306 0.38825786 0.073649384
vn -0.7860168 0.4194547 0.45413136
vn -0.74702084 0.44285226 0.4958243
vn 0.5320469 -0.22787839 0.8154738
vn 0.5320469 -0.22787839 0.8154738
vn 0.91420746 -0.39166147 -0.10404824
vn 0.91420746 -0.39166147 -0.10404824
vn 0.25907516 0.32586432 -0.9092263
vn -0.24787235 -0.34486634 -0.90533227
vn -0.24787235 -0.34486634 -0.90533227
vn 0.5866413 0.28686833 -0.75733644
vn 0.0017017722 0.52864337 0.8488423
vn 0.025099397 0.58323777 0.81191367
vn -0.5754385 0.44285226 0.68757
vn -0.06849098 0.5442418 0.83612794
vn -0.25567162 0.44285226 0.8593683
vn 0.28247273 0.55204093 0.7845126
vn -0.52864337 -0.78942037 -0.31201237
vn -0.52864337 -0.78942037 -0.31201237
vn -0.060691714 0.5208442 0.8514915
vn 0.08749294 0.91860306 -0.38537434
vn 0.6646333 0.5598402 0.49481466
vn 0.6646333 0.39605713 -0.63356245
vn -0.31806517 0.12308526 -0.94004494
vn -0.91860306 0.16988051 -0.3568039
vn -0.8094144 0.3648603 0.46013618
vn -0.58323777 0.48184824 -0.6539541
vn -0.7392216 0.51304495 -0.43627554
vn -0.7860168 0.5208442 -0.33301476
vn 0.64123565 0.58323777 0.49864876
vn 0.8440147 0.51304495 0.15628204
vn 0.33706713 0.55204093 0.762651
vn 0.493051 0.49744666 0.71375597
vn -0.2790692 -0.29027194 0.91534835
vn 0.51644856 0.38825786 -0.76324093
vn -0.49744666 0.14648294 0.85503775
vn -0.49744666 0.14648294 0.85503775
vn 0.493051 0.14648294 0.85758
vn 0.493051 0.14648294 0.85758
vn 0.989277 0.14605151 -0
vn 0.989277 0.14605151 -0
vn 0.493051 0.14648294 -0.85758
vn 0.493051 0.14648294 -0.85758
vn -0.49744666 0.14648294 -0.85503775
vn -0.49744666 0.14648294 -0.85503775
vn -0.98879576 0.14648294 -0.028735083
vn -0.98879576 0.14648294 -0.028735083
vn 0.0017017722 -0.99999857 -0
vn 0.0017017722 -0.99999857 -0
vn 0.0017017722 -0.99999857 -0
vn 0.0017017722 -0.99999857 -0
vn 0.0017017722 -0.99999857 -0
vn 0.0017017722 -0.99999857 -0
g Spruce_Destroy2_0
f 3/3/3 2/2/2 1/1/1
f 4/4/4 3/3/3 1/1/1
f 7/7/7 6/6/6 5/5/5
f 8/8/8 7/7/7 5/5/5
f 11/11/11 10/10/10 9/9/9
f 12/12/12 11/11/11 9/9/9
f 15/15/15 14/14/14 13/13/13
f 16/16/16 15/15/15 13/13/13
f 19/19/19 18/18/18 17/17/17
f 22/22/22 21/21/21 20/20/20
f 23/23/23 22/22/22 20/20/20
f 26/26/26 25/25/25 24/24/24
f 27/27/27 26/26/26 24/24/24
f 30/30/30 29/29/29 28/28/28
f 31/31/31 30/30/30 28/28/28
f 33/33/33 32/32/32 31/31/31
f 28/28/28 33/33/33 31/31/31
f 36/36/36 35/35/35 34/34/34
f 37/37/37 36/36/36 34/34/34
f 38/38/38 6/6/6 7/7/7
f 39/39/39 38/38/38 7/7/7
f 42/42/42 41/41/41 40/40/40
f 43/43/43 42/42/42 40/40/40
f 29/29/29 30/30/30 44/44/44
f 45/45/45 29/29/29 44/44/44
f 47/47/47 46/46/46 18/18/18
f 50/50/50 49/49/49 48/48/48
f 51/51/51 50/50/50 48/48/48
f 54/54/54 53/53/53 52/52/52
f 55/55/55 54/54/54 52/52/52
f 58/58/58 57/57/57 56/56/56
f 59/59/59 58/58/58 56/56/56
f 2/2/2 3/3/3 60/60/60
f 61/61/61 2/2/2 60/60/60
f 49/49/49 50/50/50 41/41/41
f 42/42/42 49/49/49 41/41/41
f 16/16/16 63/63/63 62/62/62
f 11/11/11 16/16/16 62/62/62
f 66/66/66 65/65/65 64/64/64
f 67/67/67 66/66/66 64/64/64
f 54/54/54 55/55/55 68/68/68
f 69/69/69 54/54/54 68/68/68
f 72/72/72 71/71/71 70/70/70
f 73/73/73 72/72/72 70/70/70
f 76/76/76 75/75/75 74/74/74
f 77/77/77 76/76/76 74/74/74
f 51/51/51 48/48/48 78/78/78
f 79/79/79 51/51/51 78/78/78
f 45/45/45 44/44/44 71/71/71
f 72/72/72 45/45/45 71/71/71
f 74/74/74 75/75/75 80/80/80
f 81/81/81 74/74/74 80/80/80
f 84/84/84 83/83/83 82/82/82
f 85/85/85 84/84/84 82/82/82
f 88/88/88 87/87/87 86/86/86
f 89/89/89 88/88/88 86/86/86
f 91/91/91 12/12/12 90/90/90
f 92/92/92 91/91/91 90/90/90
f 68/68/68 38/38/38 39/39/39
f 69/69/69 68/68/68 39/39/39
f 94/94/94 93/93/93 46/46/46
f 26/26/26 94/94/94 46/46/46
f 1/1/1 96/96/96 95/95/95
f 4/4/4 1/1/1 95/95/95
f 99/99/99 98/98/98 97/97/97
f 100/100/100 99/99/99 97/97/97
f 34/34/34 35/35/35 23/23/23
f 20/20/20 34/34/34 23/23/23
f 102/102/102 101/101/101 46/46/46
f 47/47/47 102/102/102 46/46/46
f 91/91/91 92/92/92 103/103/103
f 104/104/104 91/91/91 103/103/103
f 106/106/106 104/104/104 105/105/105
f 32/32/32 33/33/33 107/107/107
f 108/108/108 32/32/32 107/107/107
f 111/111/111 110/110/110 109/109/109
f 112/112/112 110/110/110 111/111/111
f 113/113/113 110/110/110 112/112/112
f 114/114/114 110/110/110 113/113/113
f 109/109/109 110/110/110 115/115/115
f 115/115/115 110/110/110 114/114/114
f 8/8/8 5/5/5 116/116/116
f 8/8/8 116/116/116 117/117/117
f 118/118/118 8/8/8 117/117/117
f 121/121/121 120/120/120 119/119/119
f 109/109/109 115/115/115 91/91/91
f 104/104/104 109/109/109 91/91/91
f 115/115/115 114/114/114 12/12/12
f 91/91/91 115/115/115 12/12/12
f 12/12/12 114/114/114 113/113/113
f 11/11/11 12/12/12 113/113/113
f 112/112/112 16/16/16 11/11/11
f 113/113/113 112/112/112 11/11/11
f 16/16/16 112/112/112 15/15/15
f 15/15/15 112/112/112 111/111/111
f 119/119/119 15/15/15 111/111/111
f 111/111/111 109/109/109 104/104/104
f 119/119/119 111/111/111 104/104/104
f 119/119/119 120/120/120 14/14/14
f 15/15/15 119/119/119 14/14/14
f 105/105/105 104/104/104 103/103/103
f 121/121/121 119/119/119 104/104/104
f 106/106/106 121/121/121 104/104/104
f 10/10/10 11/11/11 62/62/62
f 63/63/63 16/16/16 13/13/13
f 12/12/12 9/9/9 90/90/90
f 122/122/122 101/101/101 102/102/102
f 53/53/53 122/122/122 102/102/102
f 101/101/101 123/123/123 46/46/46
f 17/17/17 118/118/118 117/117/117
f 19/19/19 17/17/17 117/117/117
f 124/124/124 39/39/39 7/7/7
f 54/54/54 122/122/122 53/53/53
f 19/19/19 47/47/47 18/18/18
f 127/127/127 126/126/126 125/125/125
f 128/128/128 127/127/127 125/125/125
f 129/129/129 127/127/127 128/128/128
f 130/130/130 129/129/129 128/128/128
f 131/131/131 129/129/129 130/130/130
f 132/132/132 131/131/131 130/130/130
f 133/133/133 131/131/131 132/132/132
f 134/134/134 133/133/133 132/132/132
f 135/135/135 133/133/133 134/134/134
f 136/136/136 135/135/135 134/134/134
f 126/126/126 135/135/135 136/136/136
f 125/125/125 126/126/126 136/136/136
f 139/139/139 138/138/138 137/137/137
f 140/140/140 139/139/139 137/137/137
f 140/140/140 142/142/142 141/141/141
f 139/139/139 140/140/140 141/141/141
