g StonePlatesMesh2
v -3.327776 0.20153987 -0.0076748133
v -3.3245015 -0.09343672 -0.013666272
v -2.0915775 -0.031780124 -1.2379514
v -2.0986838 0.2629875 -1.2281978
v -3.3245015 -0.09343672 -0.013666272
v -3.327776 0.20153987 -0.0076748133
v -2.7033367 0.19227386 0.62066567
v -2.6793013 -0.10298133 0.63564444
v 1.1012617 -0.063130975 1.478355
v 1.0979873 0.23184562 1.4843465
v 1.1033518 0.28918278 -0.41321534
v 1.1066263 -0.005584717 -0.4240139
v 0.5228736 0.20307255 2.0554194
v 1.0979873 0.23184562 1.4843465
v 1.1012617 -0.063130975 1.478355
v 0.5179968 -0.09232211 2.0575094
v -3.327776 0.20153987 -0.0076748133
v -2.0986838 0.2629875 -1.2281978
v 1.1033518 0.28918278 -0.41321534
v 1.0979873 0.23184562 1.4843465
v -2.7033367 0.19227386 0.62066567
v 0.5228736 0.20307255 2.0554194
v 0.5179968 -0.09232211 2.0575094
v -2.6793013 -0.10298133 0.63564444
v -2.0915775 -0.031780124 -1.2379514
v 1.1066263 -0.005584717 -0.4240139
v 1.1033518 0.28918278 -0.41321534
v -2.0986838 0.2629875 -1.2281978
v -2.7033367 0.19227386 0.62066567
v 0.5228736 0.20307255 2.0554194
vt 0.41055197 0.16697028
vt 0.41084725 0.16697028
vt 0.42354298 0.16933228
vt 0.42324775 0.16933228
vt 0.41084725 0.16697028
vt 0.41055197 0.16697028
vt 0.41173297 0.16047478
vt 0.4120282 0.16047478
vt 0.43151474 0.13892148
vt 0.43151474 0.13892148
vt 0.43978179 0.15043625
vt 0.43978179 0.1507315
vt 0.42560977 0.13774048
vt 0.43151474 0.13892148
vt 0.43151474 0.13892148
vt 0.42560977 0.13803573
vt 0.41055197 0.16697028
vt 0.42324775 0.16933228
vt 0.43978179 0.15043625
vt 0.43151474 0.13892148
vt 0.41173297 0.16047478
vt 0.42560977 0.13774048
vt 0.42560977 0.13803573
vt 0.4120282 0.16047478
vt 0.42354298 0.16933228
vt 0.43978179 0.1507315
vt 0.43978179 0.15043625
vt 0.42324775 0.16933228
vt 0.41173297 0.16047478
vt 0.42560977 0.13774048
vn -0.7014297 0.0036352873 -0.71272933
vn -0.7014297 0.0036352873 -0.71272933
vn -0.7014297 0.0036352873 -0.71272933
vn -0.7014297 0.0036352873 -0.71272933
vn -0.7092701 -0.019885898 0.70465624
vn -0.7092701 -0.019885898 0.70465624
vn -0.7092701 -0.019885898 0.70465624
vn -0.7092701 -0.019885898 0.70465624
vn 0.9999342 0.011475682 -0
vn 0.9999342 0.011475682 -0
vn 0.9999342 0.011475682 -0
vn 0.9999342 0.011475682 -0
vn 0.70199955 -0.0042051077 0.712165
vn 0.70199955 -0.0042051077 0.712165
vn 0.70199955 -0.0042051077 0.712165
vn 0.70199955 -0.0042051077 0.712165
vn -0.019316077 0.9993644 0.029961735
vn -0.019316077 0.9993644 0.029961735
vn -0.019316077 0.9993644 0.029961735
vn -0.019316077 0.9993644 0.029961735
vn -0.40349495 0.011475682 0.9149099
vn -0.40349495 0.011475682 0.9149099
vn -0.40349495 0.011475682 0.9149099
vn -0.40349495 0.011475682 0.9149099
vn 0.24725705 0.034996867 -0.9683177
vn 0.24725705 0.034996867 -0.9683177
vn 0.24725705 0.034996867 -0.9683177
vn 0.24725705 0.034996867 -0.9683177
vn -0.019316077 0.9993644 0.029961735
vn -0.019316077 0.9993644 0.029961735
g StonePlatesMesh2_0
f 3/3/3 2/2/2 1/1/1
f 4/4/4 3/3/3 1/1/1
f 7/7/7 6/6/6 5/5/5
f 8/8/8 7/7/7 5/5/5
f 11/11/11 10/10/10 9/9/9
f 12/12/12 11/11/11 9/9/9
f 15/15/15 14/14/14 13/13/13
f 16/16/16 15/15/15 13/13/13
f 19/19/19 18/18/18 17/17/17
f 20/20/20 19/19/19 17/17/17
f 23/23/23 22/22/22 21/21/21
f 24/24/24 23/23/23 21/21/21
f 27/27/27 26/26/26 25/25/25
f 28/28/28 27/27/27 25/25/25
f 20/20/20 17/17/17 29/29/29
f 30/30/30 20/20/20 29/29/29
