g TaserTurret_04
v 15.840954 -12.89299 44.16431
v 15.889256 11.176739 13.448463
v 16.352657 -13.517906 13.493748
v 15.450005 10.784279 44.12054
v 15.450005 10.784279 44.12054
v -15.860569 11.215984 13.448463
v 15.889256 11.176739 13.448463
v -15.419811 10.822014 44.12054
v -10.012951 -7.1917915 44.30469
v 15.840954 -12.89299 44.16431
v -15.905849 -12.9095955 44.16431
v 9.963146 -7.175186 44.30469
v -9.448414 4.7751503 44.283558
v 15.450005 10.784279 44.12054
v 9.466534 4.7570343 44.283558
v -15.419811 10.822014 44.12054
v 9.466534 4.7570343 44.283558
v -10.012951 -7.1917915 44.30469
v -9.448414 4.7751503 44.283558
v 9.963146 -7.175186 44.30469
v 48.552296 -42.583923 26.254658
v 26.900711 -35.740067 -32.896255
v 26.900711 -42.692604 -32.88267
v 48.552296 -35.631386 26.24107
v 26.900711 -42.692604 -32.88267
v 20.4795 -42.552223 43.29034
v 48.552296 -42.583923 26.254658
v 11.030327 -42.689583 -31.717373
v 48.552296 -42.583923 26.254658
v 20.4795 -35.601196 43.278263
v 48.552296 -35.631386 26.24107
v 20.4795 -42.552223 43.29034
v 48.552296 -35.631386 26.24107
v 11.030327 -35.737045 -31.729448
v 26.900711 -35.740067 -32.896255
v 20.4795 -35.601196 43.278263
v 26.900711 -35.740067 -32.896255
v 11.030327 -42.689583 -31.717373
v 26.900711 -42.692604 -32.88267
v 11.030327 -35.737045 -31.729448
v 20.4795 -42.552223 43.29034
v 11.030327 -35.737045 -31.729448
v 20.4795 -35.601196 43.278263
v 11.030327 -42.689583 -31.717373
v 26.890144 -17.059082 -43.895638
v 49.460987 -23.890862 22.062908
v 49.460987 -16.938324 22.05083
v 26.890144 -24.01162 -43.88356
v 22.111217 -23.863693 37.181583
v 49.460987 -16.938324 22.05083
v 49.460987 -23.890862 22.062908
v 22.111217 -16.911156 37.169506
v 11.872601 -17.05606 -42.736378
v 26.890144 -24.01162 -43.88356
v 26.890144 -17.059082 -43.895638
v 11.872601 -24.0086 -42.7243
v 11.872601 -24.0086 -42.7243
v 22.111217 -16.911156 37.169506
v 22.111217 -23.863693 37.181583
v 11.872601 -17.05606 -42.736378
v 26.890144 -24.01162 -43.88356
v 22.111217 -23.863693 37.181583
v 49.460987 -23.890862 22.062908
v 11.872601 -24.0086 -42.7243
v 49.460987 -16.938324 22.05083
v 11.872601 -17.05606 -42.736378
v 26.890144 -17.059082 -43.895638
v 22.111217 -16.911156 37.169506
v -26.9007 -35.740067 -32.896255
v -48.552288 -42.583923 26.254658
v -26.9007 -42.692604 -32.88267
v -48.552288 -35.631386 26.24107
v -20.479496 -42.552223 43.29034
v -26.9007 -42.692604 -32.88267
v -48.552288 -42.583923 26.254658
v -11.030319 -42.689583 -31.717373
v -20.479496 -35.601196 43.278263
v -48.552288 -42.583923 26.254658
v -48.552288 -35.631386 26.24107
v -20.479496 -42.552223 43.29034
v -11.030319 -35.737045 -31.729448
v -48.552288 -35.631386 26.24107
v -26.9007 -35.740067 -32.896255
v -20.479496 -35.601196 43.278263
v -11.030319 -42.689583 -31.717373
v -26.9007 -35.740067 -32.896255
v -26.9007 -42.692604 -32.88267
v -11.030319 -35.737045 -31.729448
v -11.030319 -35.737045 -31.729448
v -20.479496 -42.552223 43.29034
v -20.479496 -35.601196 43.278263
v -11.030319 -42.689583 -31.717373
v -49.46098 -23.890862 22.062908
v -26.89014 -17.059082 -43.895638
v -49.46098 -16.938324 22.05083
v -26.89014 -24.01162 -43.88356
v -49.46098 -16.938324 22.05083
v -22.11121 -23.863693 37.181583
v -49.46098 -23.890862 22.062908
v -22.11121 -16.911156 37.169506
v -26.89014 -24.01162 -43.88356
v -11.872593 -17.05606 -42.736378
v -26.89014 -17.059082 -43.895638
v -11.872593 -24.0086 -42.7243
v -22.11121 -16.911156 37.169506
v -11.872593 -24.0086 -42.7243
v -22.11121 -23.863693 37.181583
v -11.872593 -17.05606 -42.736378
v -22.11121 -23.863693 37.181583
v -26.89014 -24.01162 -43.88356
v -49.46098 -23.890862 22.062908
v -11.872593 -24.0086 -42.7243
v -11.872593 -17.05606 -42.736378
v -49.46098 -16.938324 22.05083
v -26.89014 -17.059082 -43.895638
v -22.11121 -16.911156 37.169506
v 16.352657 -13.517906 13.493748
v -15.905849 -12.9095955 44.16431
v 15.840954 -12.89299 44.16431
v -16.420574 -13.536018 13.493748
v -16.420574 -13.536018 13.493748
v -15.419811 10.822014 44.12054
v -15.905849 -12.9095955 44.16431
v -15.860569 11.215984 13.448463
v 13.23111 42.494854 -44.369606
v 13.23111 42.666935 -43.142418
v 12.31789 8.115566 -26.719576
v 12.31789 8.109531 -30.180752
v 14.547352 42.494854 -44.369606
v 15.460571 8.109531 -30.180752
v 14.547352 42.666935 -43.142418
v 14.547352 42.494854 -44.369606
v 15.460571 8.109531 -30.180752
v 15.460571 8.115566 -26.719576
v 13.23111 42.666935 -43.142418
v 13.23111 42.494854 -44.369606
v 14.547352 42.494854 -44.369606
v 14.547352 42.666935 -43.142418
v 16.75417 10.847675 -33.137768
v 16.75417 10.861263 -26.090136
v 11.024288 10.861263 -26.090136
v 11.024288 10.847675 -33.137768
v 16.75417 10.861263 -26.090136
v 16.75417 6.1895065 -26.081078
v 11.024288 6.1895065 -26.081078
v 11.024288 10.861263 -26.090136
v 16.75417 10.847675 -33.137768
v 16.75417 6.177429 -33.12871
v 16.75417 6.1895065 -26.081078
v 16.75417 10.861263 -26.090136
v 11.024288 10.847675 -33.137768
v 11.024288 6.177429 -33.12871
v 16.75417 6.177429 -33.12871
v 16.75417 10.847675 -33.137768
v 11.024288 10.861263 -26.090136
v 11.024288 6.1895065 -26.081078
v 11.024288 6.177429 -33.12871
v 11.024288 10.847675 -33.137768
v -22.488575 7.742733 -18.07947
v -20.89761 2.6271973 -41.59674
v -20.814594 5.7079926 -41.51674
v -22.38895 11.222019 -18.170038
v 20.885542 2.6271973 -41.59674
v 22.476505 7.742733 -18.07947
v 22.372353 11.222019 -18.170038
v 20.799503 5.7079926 -41.51674
v 22.476505 7.742733 -18.07947
v -22.488575 7.742733 -18.07947
v -22.38895 11.222019 -18.170038
v 22.372353 11.222019 -18.170038
v -20.89761 2.6271973 -41.59674
v 20.885542 2.6271973 -41.59674
v 20.799503 5.7079926 -41.51674
v -20.814594 5.7079926 -41.51674
v 20.799503 5.7079926 -41.51674
v 22.372353 11.222019 -18.170038
v -22.38895 11.222019 -18.170038
v -20.814594 5.7079926 -41.51674
vt 0.5310272 0.5843611
vt 0.52263093 0.5955955
vt 0.5310272 0.5955955
vt 0.52263093 0.5843611
vt 0.52263093 0.5843611
vt 0.5117513 0.5955955
vt 0.52263093 0.5955955
vt 0.5117513 0.5843611
vt 0.5271247 0.5381226
vt 0.52523255 0.5287803
vt 0.5251143 0.5400147
vt 0.52700645 0.53067243
vt 0.5312637 0.5381226
vt 0.5326828 0.52937156
vt 0.53114545 0.5307907
vt 0.5326828 0.53954166
vt 0.62019295 0.5305541
vt 0.61333406 0.52641517
vt 0.6134523 0.53043586
vt 0.6203112 0.52641517
vt 0.5398964 0.5145894
vt 0.5628383 0.51730937
vt 0.5628383 0.5145894
vt 0.5398964 0.5174276
vt 0.52807075 0.6030457
vt 0.54817444 0.60635686
vt 0.54427195 0.59926146
vt 0.52807075 0.60730296
vt 0.5072575 0.5980789
vt 0.5045376 0.60552907
vt 0.5089131 0.59902495
vt 0.502882 0.604583
vt 0.5089131 0.59902495
vt 0.52594215 0.60730296
vt 0.52594215 0.6030457
vt 0.5045376 0.60552907
vt 0.52594215 0.6030457
vt 0.52807075 0.60730296
vt 0.52807075 0.6030457
vt 0.52594215 0.60730296
vt 0.5396599 0.52405
vt 0.553969 0.52263093
vt 0.5396599 0.52263093
vt 0.553969 0.52416825
vt 0.5653217 0.5123426
vt 0.5398964 0.5095044
vt 0.5398964 0.5122243
vt 0.5653217 0.5095044
vt 0.5558611 0.6218486
vt 0.5620105 0.6148714
vt 0.56023663 0.6140436
vt 0.557635 0.6227946
vt 0.5808134 0.6238589
vt 0.582942 0.6198382
vt 0.5808134 0.6198382
vt 0.582942 0.6238589
vt 0.5549151 0.52097535
vt 0.5396599 0.5195562
vt 0.5396599 0.52097535
vt 0.5549151 0.51943797
vt 0.582942 0.6198382
vt 0.60612035 0.6227946
vt 0.6017449 0.6148714
vt 0.582942 0.6238589
vt 0.5620105 0.6148714
vt 0.5808134 0.6238589
vt 0.5808134 0.6198382
vt 0.557635 0.6227946
vt 0.5628383 0.51730937
vt 0.5398964 0.5145894
vt 0.5628383 0.5145894
vt 0.5398964 0.5174276
vt 0.54817444 0.60635686
vt 0.52807075 0.6030457
vt 0.54427195 0.59926146
vt 0.52807075 0.60730296
vt 0.5045376 0.60552907
vt 0.5072575 0.5980789
vt 0.5089131 0.59902495
vt 0.502882 0.604583
vt 0.52594215 0.60730296
vt 0.5089131 0.59902495
vt 0.52594215 0.6030457
vt 0.5045376 0.60552907
vt 0.52807075 0.60730296
vt 0.52594215 0.6030457
vt 0.52807075 0.6030457
vt 0.52594215 0.60730296
vt 0.553969 0.52263093
vt 0.5396599 0.52405
vt 0.5396599 0.52263093
vt 0.553969 0.52416825
vt 0.5398964 0.5095044
vt 0.5653217 0.5123426
vt 0.5398964 0.5122243
vt 0.5653217 0.5095044
vt 0.5620105 0.6148714
vt 0.5558611 0.6218486
vt 0.56023663 0.6140436
vt 0.557635 0.6227946
vt 0.582942 0.6198382
vt 0.5808134 0.6238589
vt 0.5808134 0.6198382
vt 0.582942 0.6238589
vt 0.5396599 0.5195562
vt 0.5549151 0.52097535
vt 0.5396599 0.52097535
vt 0.5549151 0.51943797
vt 0.60612035 0.6227946
vt 0.582942 0.6198382
vt 0.6017449 0.6148714
vt 0.582942 0.6238589
vt 0.5808134 0.6238589
vt 0.5620105 0.6148714
vt 0.5808134 0.6198382
vt 0.557635 0.6227946
vt 0.5310272 0.5955955
vt 0.5428529 0.5843611
vt 0.5310272 0.5843611
vt 0.5428529 0.5955955
vt 0.503355 0.5955955
vt 0.5117513 0.5843611
vt 0.503355 0.5843611
vt 0.5117513 0.5955955
vt 0.5615375 0.5195562
vt 0.5610645 0.51979274
vt 0.56141925 0.53410184
vt 0.5626018 0.53351057
vt 0.5620105 0.5195562
vt 0.56378436 0.5333923
vt 0.5605914 0.51979274
vt 0.5601184 0.5195562
vt 0.55917233 0.53351057
vt 0.56023663 0.53410184
vt 0.5610645 0.51979274
vt 0.5610645 0.5193197
vt 0.5605914 0.5193197
vt 0.5605914 0.51979274
vt 0.59110177 0.60505605
vt 0.59110177 0.60233617
vt 0.5889731 0.60233617
vt 0.5889731 0.60505605
vt 0.59110177 0.60233617
vt 0.59110177 0.60068053
vt 0.5889731 0.60068053
vt 0.5889731 0.60233617
vt 0.59110177 0.60505605
vt 0.5928756 0.60505605
vt 0.5928756 0.60233617
vt 0.59110177 0.60233617
vt 0.5889731 0.60505605
vt 0.5889731 0.6067117
vt 0.59110177 0.6067117
vt 0.59110177 0.60505605
vt 0.5889731 0.60233617
vt 0.5871993 0.60233617
vt 0.5871993 0.60505605
vt 0.5889731 0.60505605
vt 0.5260604 0.5253508
vt 0.5350479 0.52475953
vt 0.53492963 0.523577
vt 0.5258239 0.52416825
vt 0.5352844 0.50666624
vt 0.5262969 0.50607497
vt 0.52570564 0.5072575
vt 0.5348114 0.50773054
vt 0.524523 0.50713927
vt 0.524523 0.52405
vt 0.5258239 0.52416825
vt 0.52570564 0.5072575
vt 0.53611225 0.523577
vt 0.53611225 0.50796705
vt 0.5350479 0.50796705
vt 0.53492963 0.523577
vt 0.5348114 0.50773054
vt 0.52570564 0.5072575
vt 0.5258239 0.52416825
vt 0.53492963 0.523577
vn 0.9998079 0.019604046 -0
vn 0.9998079 0.019604046 -0
vn 0.9998079 0.019604046 -0
vn 0.9998079 0.019604046 -0
vn 0.0039215684 0.99999225 -0.00034526698
vn 0.0039215684 0.99999225 -0.00034526698
vn 0.0039215684 0.99999225 -0.00034526698
vn 0.0039215684 0.99999225 -0.00034526698
vn -0.003921509 -0.011764646 0.9999231
vn 0.011764646 -0.011764646 0.9998616
vn -0.011764526 -0.011764646 0.9998616
vn 0.0039215684 -0.0039215684 0.9999846
vn -0.003921509 0.011764526 0.9999231
vn 0.011764646 0.011764526 0.9998616
vn 0.011764646 0.011764526 0.9998616
vn -0.011764526 0.019607663 0.9997385
vn 0.011764646 0.011764526 0.9998616
vn -0.003921509 -0.011764646 0.9999231
vn -0.003921509 0.011764526 0.9999231
vn 0.0039215684 -0.0039215684 0.9999846
vn 0.93724775 -0.0039215684 -0.34864205
vn 0.93724775 -0.0039215684 -0.34864205
vn 0.93724775 -0.0039215684 -0.34864205
vn 0.93724775 -0.0039215684 -0.34864205
vn -0.003921509 -0.9999924 -0
vn -0.003921509 -0.9999924 -0
vn -0.003921509 -0.9999924 -0
vn -0.003921509 -0.9999924 -0
vn 0.52156466 0.003921509 0.85320276
vn 0.52156466 0.003921509 0.85320276
vn 0.52156466 0.003921509 0.85320276
vn 0.52156466 0.003921509 0.85320276
vn -0.003921509 0.99999225 -0.00034526698
vn -0.003921509 0.99999225 -0.00034526698
vn -0.003921509 0.99999225 -0.00034526698
vn -0.003921509 0.99999225 -0.00034526698
vn -0.074509144 -0.0039215684 -0.9972126
vn -0.074509144 -0.0039215684 -0.9972126
vn -0.074509144 -0.0039215684 -0.9972126
vn -0.074509144 -0.0039215684 -0.9972126
vn -0.99214923 0.003921509 0.12499809
vn -0.99214923 0.003921509 0.12499809
vn -0.99214923 0.003921509 0.12499809
vn -0.99214923 0.003921509 0.12499809
vn 0.94509083 -0.0039215684 -0.32678422
vn 0.94509083 -0.0039215684 -0.32678422
vn 0.94509083 -0.0039215684 -0.32678422
vn 0.94509083 -0.0039215684 -0.32678422
vn 0.48234928 0.003921509 0.8759702
vn 0.48234928 0.003921509 0.8759702
vn 0.48234928 0.003921509 0.8759702
vn 0.48234928 0.003921509 0.8759702
vn -0.074509144 -0.0039215684 -0.9972126
vn -0.074509144 -0.0039215684 -0.9972126
vn -0.074509144 -0.0039215684 -0.9972126
vn -0.074509144 -0.0039215684 -0.9972126
vn -0.99214923 0.003921509 0.12499809
vn -0.99214923 0.003921509 0.12499809
vn -0.99214923 0.003921509 0.12499809
vn -0.99214923 0.003921509 0.12499809
vn -0.003921509 -0.9999924 -0
vn -0.003921509 -0.9999924 -0
vn -0.003921509 -0.9999924 -0
vn -0.003921509 -0.9999924 -0
vn -0.003921509 0.99999225 -0.00034526698
vn -0.003921509 0.99999225 -0.00034526698
vn -0.003921509 0.99999225 -0.00034526698
vn -0.003921509 0.99999225 -0.00034526698
vn -0.93724763 -0.0039215684 -0.34864238
vn -0.93724763 -0.0039215684 -0.34864238
vn -0.93724763 -0.0039215684 -0.34864238
vn -0.93724763 -0.0039215684 -0.34864238
vn -0.003921509 -0.9999924 -0
vn -0.003921509 -0.9999924 -0
vn -0.003921509 -0.9999924 -0
vn -0.003921509 -0.9999924 -0
vn -0.5215646 0.003921509 0.85320276
vn -0.5215646 0.003921509 0.85320276
vn -0.5215646 0.003921509 0.85320276
vn -0.5215646 0.003921509 0.85320276
vn -0.003921509 0.99999225 -0.00034526698
vn -0.003921509 0.99999225 -0.00034526698
vn -0.003921509 0.99999225 -0.00034526698
vn -0.003921509 0.99999225 -0.00034526698
vn 0.07450926 -0.0039215684 -0.9972126
vn 0.07450926 -0.0039215684 -0.9972126
vn 0.07450926 -0.0039215684 -0.9972126
vn 0.07450926 -0.0039215684 -0.9972126
vn 0.9921493 0.003921509 0.124997616
vn 0.9921493 0.003921509 0.124997616
vn 0.9921493 0.003921509 0.124997616
vn 0.9921493 0.003921509 0.124997616
vn -0.9450908 -0.0039215684 -0.3267844
vn -0.9450908 -0.0039215684 -0.3267844
vn -0.9450908 -0.0039215684 -0.3267844
vn -0.9450908 -0.0039215684 -0.3267844
vn -0.48234916 0.003921509 0.87597024
vn -0.48234916 0.003921509 0.87597024
vn -0.48234916 0.003921509 0.87597024
vn -0.48234916 0.003921509 0.87597024
vn 0.07450926 -0.0039215684 -0.9972126
vn 0.07450926 -0.0039215684 -0.9972126
vn 0.07450926 -0.0039215684 -0.9972126
vn 0.07450926 -0.0039215684 -0.9972126
vn 0.9921493 0.003921509 0.124997616
vn 0.9921493 0.003921509 0.124997616
vn 0.9921493 0.003921509 0.124997616
vn 0.9921493 0.003921509 0.124997616
vn -0.003921509 -0.9999924 -0
vn -0.003921509 -0.9999924 -0
vn -0.003921509 -0.9999924 -0
vn -0.003921509 -0.9999924 -0
vn -0.003921509 0.99999225 -0.00034526698
vn -0.003921509 0.99999225 -0.00034526698
vn -0.003921509 0.99999225 -0.00034526698
vn -0.003921509 0.99999225 -0.00034526698
vn 0.0039215684 -0.9999924 -0
vn 0.0039215684 -0.9999924 -0
vn 0.0039215684 -0.9999924 -0
vn 0.0039215684 -0.9999924 -0
vn -0.9998079 0.019604048 -0
vn -0.9998079 0.019604048 -0
vn -0.9998079 0.019604048 -0
vn -0.9998079 0.019604048 -0
vn -0.6392107 -0.27842927 -0.716859
vn -0.7490138 0.30195844 0.5897453
vn -0.56862307 0.36470306 0.7373327
vn -0.7882292 -0.21568465 -0.5763461
vn 0.6392108 -0.27842927 -0.7168589
vn 0.7882293 -0.21568465 -0.576346
vn 0.7490139 0.30195844 0.5897451
vn 0.6392108 -0.27842927 -0.7168589
vn 0.7882293 -0.21568465 -0.576346
vn 0.5686231 0.36470306 0.73733264
vn -0.003921509 0.99214923 -0.12499809
vn -0.003921509 0.99214923 -0.12499809
vn -0.003921509 0.99214923 -0.12499809
vn -0.003921509 0.99214923 -0.12499809
vn -0.003921509 0.99999225 -0.00034526698
vn -0.003921509 0.99999225 -0.00034526698
vn -0.003921509 0.99999225 -0.00034526698
vn -0.003921509 0.99999225 -0.00034526698
vn -0.003921509 0.003921509 0.9999846
vn -0.003921509 0.003921509 0.9999846
vn -0.003921509 0.003921509 0.9999846
vn -0.003921509 0.003921509 0.9999846
vn 0.9999924 0.003921509 -0
vn 0.9999924 0.003921509 -0
vn 0.9999924 0.003921509 -0
vn 0.9999924 0.003921509 -0
vn -0.003921509 -0.0039215684 -0.9999846
vn -0.003921509 -0.0039215684 -0.9999846
vn -0.003921509 -0.0039215684 -0.9999846
vn -0.003921509 -0.0039215684 -0.9999846
vn -0.99999225 0.003921509 -0.00034492963
vn -0.99999225 0.003921509 -0.00034492963
vn -0.99999225 0.003921509 -0.00034492963
vn -0.99999225 0.003921509 -0.00034492963
vn -0.9996234 0.027440555 -0
vn -0.9996234 0.027440555 -0
vn -0.9996234 0.027440555 -0
vn -0.9996234 0.027440555 -0
vn 0.9996234 0.027440554 -0
vn 0.9996234 0.027440554 -0
vn 0.9996234 0.027440554 -0
vn 0.9996234 0.027440554 -0
vn -0.003921509 0.02745068 0.9996155
vn -0.003921509 0.02745068 0.9996155
vn -0.003921509 0.02745068 0.9996155
vn -0.003921509 0.02745068 0.9996155
vn -0.003921509 0.02745068 -0.9996155
vn -0.003921509 0.02745068 -0.9996155
vn -0.003921509 0.02745068 -0.9996155
vn -0.003921509 0.02745068 -0.9996155
vn -0.003921509 0.9764631 -0.21564901
vn -0.003921509 0.9764631 -0.21564901
vn -0.003921509 0.9764631 -0.21564901
vn -0.003921509 0.9764631 -0.21564901
g TaserTurret_04_0
f 3/3/3 2/2/2 1/1/1
f 4/4/4 1/1/1 2/2/2
f 7/7/7 6/6/6 5/5/5
f 8/8/8 5/5/5 6/6/6
f 11/11/11 10/10/10 9/9/9
f 12/12/12 9/9/9 10/10/10
f 15/15/15 14/14/14 13/13/13
f 16/16/16 13/13/13 14/14/14
f 14/14/14 15/15/15 10/10/10
f 12/12/12 10/10/10 15/15/15
f 19/19/19 18/18/18 17/17/17
f 20/20/20 17/17/17 18/18/18
f 23/23/23 22/22/22 21/21/21
f 24/24/24 21/21/21 22/22/22
f 27/27/27 26/26/26 25/25/25
f 28/28/28 25/25/25 26/26/26
f 31/31/31 30/30/30 29/29/29
f 32/32/32 29/29/29 30/30/30
f 35/35/35 34/34/34 33/33/33
f 36/36/36 33/33/33 34/34/34
f 39/39/39 38/38/38 37/37/37
f 40/40/40 37/37/37 38/38/38
f 43/43/43 42/42/42 41/41/41
f 44/44/44 41/41/41 42/42/42
f 47/47/47 46/46/46 45/45/45
f 48/48/48 45/45/45 46/46/46
f 51/51/51 50/50/50 49/49/49
f 52/52/52 49/49/49 50/50/50
f 55/55/55 54/54/54 53/53/53
f 56/56/56 53/53/53 54/54/54
f 59/59/59 58/58/58 57/57/57
f 60/60/60 57/57/57 58/58/58
f 63/63/63 62/62/62 61/61/61
f 64/64/64 61/61/61 62/62/62
f 67/67/67 66/66/66 65/65/65
f 68/68/68 65/65/65 66/66/66
f 71/71/71 70/70/70 69/69/69
f 72/72/72 69/69/69 70/70/70
f 75/75/75 74/74/74 73/73/73
f 76/76/76 73/73/73 74/74/74
f 79/79/79 78/78/78 77/77/77
f 80/80/80 77/77/77 78/78/78
f 83/83/83 82/82/82 81/81/81
f 84/84/84 81/81/81 82/82/82
f 87/87/87 86/86/86 85/85/85
f 88/88/88 85/85/85 86/86/86
f 91/91/91 90/90/90 89/89/89
f 92/92/92 89/89/89 90/90/90
f 95/95/95 94/94/94 93/93/93
f 96/96/96 93/93/93 94/94/94
f 99/99/99 98/98/98 97/97/97
f 100/100/100 97/97/97 98/98/98
f 103/103/103 102/102/102 101/101/101
f 104/104/104 101/101/101 102/102/102
f 107/107/107 106/106/106 105/105/105
f 108/108/108 105/105/105 106/106/106
f 111/111/111 110/110/110 109/109/109
f 112/112/112 109/109/109 110/110/110
f 115/115/115 114/114/114 113/113/113
f 116/116/116 113/113/113 114/114/114
f 119/119/119 118/118/118 117/117/117
f 120/120/120 117/117/117 118/118/118
f 123/123/123 122/122/122 121/121/121
f 124/124/124 121/121/121 122/122/122
f 11/11/11 9/9/9 16/16/16
f 13/13/13 16/16/16 9/9/9
f 127/127/127 126/126/126 125/125/125
f 128/128/128 127/127/127 125/125/125
f 128/128/128 125/125/125 129/129/129
f 130/130/130 128/128/128 129/129/129
f 133/133/133 132/132/132 131/131/131
f 134/134/134 133/133/133 131/131/131
f 134/134/134 131/131/131 126/126/126
f 127/127/127 134/134/134 126/126/126
f 137/137/137 136/136/136 135/135/135
f 138/138/138 137/137/137 135/135/135
f 141/141/141 140/140/140 139/139/139
f 142/142/142 141/141/141 139/139/139
f 145/145/145 144/144/144 143/143/143
f 146/146/146 145/145/145 143/143/143
f 149/149/149 148/148/148 147/147/147
f 150/150/150 149/149/149 147/147/147
f 153/153/153 152/152/152 151/151/151
f 154/154/154 153/153/153 151/151/151
f 157/157/157 156/156/156 155/155/155
f 158/158/158 157/157/157 155/155/155
f 161/161/161 160/160/160 159/159/159
f 162/162/162 161/161/161 159/159/159
f 165/165/165 164/164/164 163/163/163
f 166/166/166 165/165/165 163/163/163
f 169/169/169 168/168/168 167/167/167
f 170/170/170 169/169/169 167/167/167
f 173/173/173 172/172/172 171/171/171
f 174/174/174 173/173/173 171/171/171
f 177/177/177 176/176/176 175/175/175
f 178/178/178 177/177/177 175/175/175
