g TaserTurret_DefaultPart_CorpsePart
v 36.314465 -32.264038 40.790684
v -35.79398 12.871967 32.681385
v 35.79401 12.871967 32.681385
v -36.314434 -32.264038 40.792377
v -32.34511 33.793262 2.2938728
v 32.343456 33.793262 2.2938728
v 35.79401 12.871967 32.681385
v 49.276848 23.156033 1.1262283
v 54.559135 9.046276 22.054287
v 32.343456 33.793262 2.2938728
v 55.370235 -32.111954 28.200054
v 36.314465 -32.264038 40.790684
v 25.166916 21.391888 -49.584393
v 32.360355 10.893223 -49.43738
v -25.166882 21.391888 -49.582703
v 32.343456 33.793262 2.2938728
v -32.34511 33.793262 2.2938728
v 25.166916 21.391888 -49.584393
v -32.34511 33.793262 2.2938728
v -54.5591 9.046276 22.054287
v -49.276814 23.156033 1.1262283
v -35.79398 12.871967 32.681385
v -36.314434 -32.264038 40.792377
v -55.370205 -32.111954 28.200054
v -25.166882 21.391888 -49.582703
v -32.360325 10.893223 -49.43738
v 33.254253 9.685017 27.96011
v -29.703968 28.17471 1.7903175
v -33.254223 9.685017 27.96011
v 29.704004 28.17471 1.7903175
v 46.993942 19.083637 0.90486526
v 52.335373 6.672123 18.652737
v 53.21237 -32.350216 24.496037
v 34.230953 -32.536095 36.46313
v -22.062733 18.140736 -48.203835
v 22.06277 18.140736 -48.203835
v 29.332249 8.485268 -47.705345
v -34.230923 -32.536095 36.46313
v -46.993908 19.083637 0.90486526
v -52.33534 6.672123 18.652737
v -29.332218 8.485268 -47.705345
v -53.212337 -32.350216 24.496037
v 49.276848 23.156033 1.1262283
v 52.335373 6.672123 18.652737
v 54.559135 9.046276 22.054287
v 46.993942 19.083637 0.90486526
v 25.166916 21.391888 -49.584393
v 29.332249 8.485268 -47.705345
v 32.360355 10.893223 -49.43738
v 22.06277 18.140736 -48.203835
v 22.06277 18.140736 -48.203835
v -25.166882 21.391888 -49.582703
v -22.062733 18.140736 -48.203835
v 25.166916 21.391888 -49.584393
v 53.21237 -32.350216 24.496037
v 55.370235 -32.111954 28.200054
v 55.370235 -32.111954 28.200054
v 34.230953 -32.536095 36.46313
v 36.314465 -32.264038 40.790684
v 53.21237 -32.350216 24.496037
v 32.360355 10.893223 -49.43738
v 29.332249 8.485268 -47.705345
v -34.230923 -32.536095 36.46313
v 36.314465 -32.264038 40.790684
v 34.230953 -32.536095 36.46313
v -36.314434 -32.264038 40.792377
v -46.993908 19.083637 0.90486526
v -54.5591 9.046276 22.054287
v -52.33534 6.672123 18.652737
v -49.276814 23.156033 1.1262283
v -22.062733 18.140736 -48.203835
v -32.360325 10.893223 -49.43738
v -29.332218 8.485268 -47.705345
v -25.166882 21.391888 -49.582703
v -29.332218 8.485268 -47.705345
v -32.360325 10.893223 -49.43738
v -55.370205 -32.111954 28.200054
v -53.212337 -32.350216 24.496037
v -36.314434 -32.264038 40.792377
v -53.212337 -32.350216 24.496037
v -55.370205 -32.111954 28.200054
v -34.230923 -32.536095 36.46313
v 43.256126 -30.78547 49.584362
v 43.256126 9.36903 49.584362
v 43.256126 9.36903 40.471317
v 43.256126 -30.78547 40.471317
v 43.256126 -30.78547 40.471317
v 43.256126 9.36903 40.471317
v -43.256092 9.36903 40.471317
v -43.256092 -30.78547 40.471317
v 43.256126 -30.78547 49.584362
v -43.256092 -30.78547 49.584362
v -43.256092 9.36903 49.584362
v 43.256126 9.36903 49.584362
v -43.256092 -30.78547 40.471317
v -43.256092 9.36903 40.471317
v -43.256092 9.36903 49.584362
v -43.256092 -30.78547 49.584362
v -43.256092 -30.78547 49.584362
v 43.256126 -30.78547 49.584362
v 43.256126 -30.78547 40.471317
v -43.256092 -30.78547 40.471317
v -43.256092 9.36903 40.471317
v 43.256126 9.36903 40.471317
v 43.256126 9.36903 49.584362
v -43.256092 9.36903 49.584362
v 25.54543 -40.533875 -1.1110535
v 23.046227 29.185207 -43.644775
v 23.445019 -6.888447 -34.560463
v 29.217344 40.53384 10.012836
v 30.712809 -39.374676 44.28686
v 31.679369 10.87125 44.373043
v -29.217312 40.53384 10.012836
v 31.679369 10.87125 44.373043
v -31.660748 11.503231 44.050297
v 29.217344 40.53384 10.012836
v -23.444988 -6.888447 -34.560463
v 25.54543 -40.533875 -1.1110535
v 23.445019 -6.888447 -34.560463
v -25.545399 -40.533875 -1.1110535
v -30.712772 -39.374676 44.28686
v 30.712809 -39.374676 44.28686
v -30.712772 -39.374676 44.28686
v -29.217312 40.53384 10.012836
v -31.660748 11.503231 44.050297
v -25.545399 -40.533875 -1.1110535
v -22.998882 28.63602 -43.991184
v -23.444988 -6.888447 -34.560463
v -22.998882 28.63602 -43.991184
v 23.445019 -6.888447 -34.560463
v 23.046227 29.185207 -43.644775
v -23.444988 -6.888447 -34.560463
v -29.217312 40.53384 10.012836
v 23.046227 29.185207 -43.644775
v 29.217344 40.53384 10.012836
v -22.998882 28.63602 -43.991184
v -30.712772 -39.374676 44.28686
v 25.54543 -40.533875 -1.1110535
v -25.545399 -40.533875 -1.1110535
v 30.712809 -39.374676 44.28686
vt 0.53788966 0.5813951
vt 0.5264725 0.56481016
vt 0.5259918 0.579352
vt 0.5380099 0.56360835
vt 0.51685804 0.56529087
vt 0.5164975 0.5789915
vt 0.6041092 0.5877647
vt 0.5917306 0.59401405
vt 0.6025469 0.59593695
vt 0.5912499 0.58644265
vt 0.6208143 0.59906167
vt 0.6208143 0.58908665
vt 0.57238156 0.58463997
vt 0.56973755 0.5894472
vt 0.5054409 0.5661321
vt 0.5164975 0.5789915
vt 0.51685804 0.56529087
vt 0.5052005 0.5786309
vt 0.5240689 0.62201613
vt 0.53548604 0.6127622
vt 0.52479 0.6144448
vt 0.5368081 0.62093455
vt 0.5532728 0.6200933
vt 0.5537535 0.6104788
vt 0.5053207 0.62321794
vt 0.5027969 0.6185309
vt 0.6149255 0.57658786
vt 0.6041092 0.5705788
vt 0.60350835 0.5763475
vt 0.6144448 0.570699
vt 0.6185309 0.5712999
vt 0.6191318 0.57610714
vt 0.6196125 0.5835583
vt 0.6158869 0.5845198
vt 0.60398906 0.5606038
vt 0.61480534 0.5600029
vt 0.61720896 0.5606038
vt 0.60230654 0.5845198
vt 0.60014325 0.57093936
vt 0.599302 0.57562643
vt 0.6018258 0.56120473
vt 0.59846073 0.583318
vt 0.5917306 0.59401405
vt 0.6021863 0.59785986
vt 0.6025469 0.59593695
vt 0.5913701 0.59569657
vt 0.57238156 0.58463997
vt 0.5679349 0.5882454
vt 0.5691367 0.58884627
vt 0.5710595 0.5837987
vt 0.5042391 0.57803005
vt 0.5054409 0.5661321
vt 0.50435925 0.56661284
vt 0.5052005 0.5786309
vt 0.6208143 0.60110474
vt 0.6208143 0.59906167
vt 0.6208143 0.59906167
vt 0.6223767 0.58884627
vt 0.6208143 0.58908665
vt 0.62285745 0.5987011
vt 0.56973755 0.5894472
vt 0.569377 0.5911297
vt 0.5392117 0.56384873
vt 0.53788966 0.5813951
vt 0.53909147 0.5811547
vt 0.5380099 0.56360835
vt 0.52442944 0.6127622
vt 0.53548604 0.6127622
vt 0.5352457 0.61095953
vt 0.52479 0.6144448
vt 0.5039987 0.62393904
vt 0.5027969 0.6185309
vt 0.5012346 0.61949235
vt 0.5053207 0.62321794
vt 0.5026767 0.6167282
vt 0.5027969 0.6185309
vt 0.5537535 0.6104788
vt 0.55363333 0.6083156
vt 0.5532728 0.6200933
vt 0.55555624 0.61083937
vt 0.5537535 0.6104788
vt 0.55483514 0.6203336
vt 0.5015951 0.5039987
vt 0.5170984 0.5039987
vt 0.5170984 0.5009942
vt 0.5015951 0.5009942
vt 0.6113201 0.50207585
vt 0.6000231 0.5019556
vt 0.5995424 0.5265927
vt 0.61095953 0.5267129
vt 0.5059216 0.50580144
vt 0.5053207 0.53861076
vt 0.52046347 0.53885114
vt 0.5210644 0.5059216
vt 0.56529087 0.5009942
vt 0.5497876 0.5009942
vt 0.5497876 0.5039987
vt 0.56529087 0.5039987
vt 0.56529087 0.5039987
vt 0.5976195 0.5039987
vt 0.5976195 0.5009942
vt 0.56529087 0.5009942
vt 0.5497876 0.5009942
vt 0.5170984 0.5009942
vt 0.5170984 0.5039987
vt 0.5497876 0.5039987
vt 0.5762273 0.57971257
vt 0.5691367 0.5537535
vt 0.5681752 0.5662523
vt 0.5865629 0.56108457
vt 0.59100956 0.58415926
vt 0.5934132 0.57045865
vt 0.58956736 0.533443
vt 0.60651284 0.5566379
vt 0.60651284 0.53320265
vt 0.589327 0.5559168
vt 0.55603695 0.5364475
vt 0.5395722 0.5544746
vt 0.55603695 0.553393
vt 0.540774 0.53548604
vt 0.62285745 0.53368336
vt 0.62285745 0.55627733
vt 0.59100956 0.5056813
vt 0.5882454 0.52935684
vt 0.59353334 0.51974237
vt 0.57562643 0.5110894
vt 0.56877613 0.536087
vt 0.5681752 0.5235882
vt 0.56877613 0.536087
vt 0.55603695 0.553393
vt 0.5684156 0.553393
vt 0.55603695 0.5364475
vt 0.58956736 0.533443
vt 0.5691367 0.5537535
vt 0.589327 0.5559168
vt 0.56877613 0.536087
vt 0.6099981 0.60134506
vt 0.6224969 0.6169686
vt 0.6224969 0.6026671
vt 0.6099981 0.61829054
vn -0.003921509 0.1764692 0.98429835
vn -0.003921509 0.4901923 0.8716055
vn -0.003921509 0.48234916 0.87597024
vn -0.003921509 0.1764692 0.98429835
vn -0.003921509 0.82744455 0.56153375
vn -0.003921509 0.82744455 0.56153375
vn 0.52940774 0.4039184 0.7460411
vn 0.5450939 0.8352877 0.07188273
vn 0.5137216 0.42744768 0.7438942
vn 0.52823925 0.8490956 -0
vn 0.5372508 0.15293992 0.8294401
vn 0.5450939 0.15293992 0.824307
vn 0.70195544 0.62352455 -0.34420297
vn 0.76470006 0.5215646 -0.37842333
vn -0.003921509 0.9764631 -0.21564901
vn -0.003921509 0.9764631 -0.21564901
vn -0.003921509 0.9764631 -0.21564901
vn -0.003921509 0.9764631 -0.21564901
vn -0.51334274 0.8581837 -0
vn -0.5215646 0.4352907 0.7338204
vn -0.551987 0.8338527 -0
vn -0.50587845 0.44313383 0.74008065
vn -0.53725076 0.1450969 0.83084804
vn -0.5450938 0.13725376 0.82706356
vn -0.7019553 0.62352455 -0.3442033
vn -0.76469994 0.5215646 -0.37842357
vn -0.10588145 -0.46666312 -0.8780744
vn 0.11372465 -0.9843062 -0.1349369
vn 0.10588157 -0.4745062 -0.87386096
vn -0.12156761 -0.9843062 -0.12791641
vn -0.47450614 -0.87450314 -0.100440055
vn -0.45097685 -0.41176158 -0.79187894
vn -0.50587845 -0.16862619 -0.8459623
vn -0.12941074 -0.1999985 -0.9712124
vn 0.13725388 -0.960777 0.24097496
vn -0.16078305 -0.9529339 0.25703266
vn -0.7490138 -0.5450939 0.37663114
vn 0.11372465 -0.19215542 -0.9747528
vn 0.4745062 -0.87450314 -0.100439765
vn 0.46666312 -0.41960466 -0.7785612
vn 0.7490139 -0.5450939 0.3766309
vn 0.52940774 -0.13725388 -0.83719105
vn 0.8509739 -0.45097697 -0.26918992
vn 0.86666006 -0.14509696 -0.47733346
vn 0.87450314 -0.13725388 -0.4651942
vn 0.8431308 -0.46666312 -0.2671253
vn -0.08235228 -0.3333308 -0.9392064
vn -0.30195844 -0.2313708 -0.92481816
vn -0.33333075 -0.23921388 -0.911958
vn -0.043136835 -0.35686004 -0.9331614
vn -0.043136835 -0.35686004 -0.9331614
vn 0.09019542 -0.31764466 -0.9439103
vn 0.05882311 -0.34901696 -0.9352684
vn -0.08235228 -0.3333308 -0.9392064
vn 0.86666006 -0.05882311 -0.4954192
vn 0.86666006 -0.05882311 -0.4954192
vn 0.035272185 -0.9993777 -0
vn 0.011763922 -0.99993086 -0
vn 0.011763922 -0.99993086 -0
vn 0.035272185 -0.9993777 -0
vn 0.62352467 -0.7803862 -0.047057115
vn 0.6068687 -0.7948022 -0
vn -0.011763803 -0.99993086 -0
vn 0.011763922 -0.99993086 -0
vn 0.011763922 -0.99993086 -0
vn -0.011763803 -0.99993086 -0
vn -0.8431307 -0.45097697 -0.2928317
vn -0.85881686 -0.1294108 -0.49566767
vn -0.86666 -0.11372465 -0.48576453
vn -0.8352877 -0.46666312 -0.2907233
vn 0.05882311 -0.34901696 -0.9352684
vn 0.28627235 -0.25490004 -0.9236201
vn 0.3019585 -0.27842927 -0.91175556
vn 0.09019542 -0.31764466 -0.9439103
vn -0.6313677 -0.77254313 -0.06746812
vn -0.6155679 -0.78808385 -0
vn -0.86666 -0.05882311 -0.49541932
vn -0.86666 -0.05882311 -0.49541932
vn -0.011763803 -0.99993086 -0
vn -0.035272125 -0.9993777 -0
vn -0.035272125 -0.9993777 -0
vn -0.011763803 -0.99993086 -0
vn 0.9999924 0.003921509 -0
vn 0.9999924 0.003921509 -0
vn 0.9999924 0.003921509 -0
vn 0.9999924 0.003921509 -0
vn -0.003921509 0.003921509 -0.9999846
vn -0.003921509 0.003921509 -0.9999846
vn -0.003921509 0.003921509 -0.9999846
vn -0.003921509 0.003921509 -0.9999846
vn -0.003921509 0.003921509 0.9999846
vn -0.003921509 0.003921509 0.9999846
vn -0.003921509 0.003921509 0.9999846
vn -0.003921509 0.003921509 0.9999846
vn -0.99999225 0.003921509 -0.00034492963
vn -0.99999225 0.003921509 -0.00034492963
vn -0.99999225 0.003921509 -0.00034492963
vn -0.99999225 0.003921509 -0.00034492963
vn -0.003921509 -0.9999924 -0
vn -0.003921509 -0.9999924 -0
vn -0.003921509 -0.9999924 -0
vn -0.003921509 -0.9999924 -0
vn -0.003921509 0.99999225 -0.00034526698
vn -0.003921509 0.99999225 -0.00034526698
vn -0.003921509 0.99999225 -0.00034526698
vn -0.003921509 0.99999225 -0.00034526698
vn 0.9921493 -0.0274508 -0.122009166
vn 0.9921493 -0.0274508 -0.122009166
vn 0.9999924 -0.0039215684 -0
vn 0.9921493 -0.0274508 -0.122009166
vn 0.9921493 -0.0274508 -0.122009166
vn 0.9921493 -0.019607723 -0.123512425
vn 0.0039215684 0.7568569 0.6535688
vn -0.003921509 0.3803892 0.9248182
vn -0.003921509 0.38823223 0.9215532
vn -0.003921509 0.7568569 0.6535688
vn -0.003921509 -0.70195544 -0.71221006
vn -0.003921509 -0.70195544 -0.71221006
vn -0.003921509 -0.70195544 -0.71221006
vn -0.003921509 -0.70195544 -0.71221006
vn -0.003921509 0.003921509 0.9999846
vn -0.003921509 -0.0039215684 0.9999846
vn -0.99214923 -0.0274508 -0.12200965
vn -0.99214923 -0.0274508 -0.12200965
vn -0.99214923 -0.019607723 -0.12351291
vn -0.99214923 -0.0274508 -0.12200965
vn -0.99214923 -0.0274508 -0.12200965
vn -0.99999225 -0.0039215684 -0.00034425134
vn 0.0039215684 -0.25490004 -0.9669595
vn 0.0039215684 -0.24705696 -0.968993
vn 0.011764646 -0.24705696 -0.9689295
vn -0.003921509 -0.25490004 -0.9669595
vn -0.003921509 0.9764631 -0.21564901
vn -0.003921509 0.9764631 -0.21564901
vn -0.003921509 0.9764631 -0.21564901
vn -0.011764526 0.9764631 -0.21536359
vn -0.003921509 -0.9999924 -0
vn -0.003921509 -0.9999924 -0
vn -0.003921509 -0.9999924 -0
vn -0.003921509 -0.9999924 -0
g TaserTurret_DefaultPart_CorpsePart_0
f 3/3/3 2/2/2 1/1/1
f 4/4/4 1/1/1 2/2/2
f 6/6/6 5/5/5 3/3/3
f 2/2/2 3/3/3 5/5/5
f 9/9/9 8/8/8 7/7/7
f 10/10/10 7/7/7 8/8/8
f 12/12/12 11/11/11 7/7/7
f 9/9/9 7/7/7 11/11/11
f 10/10/10 8/8/8 13/13/13
f 14/14/14 13/13/13 8/8/8
f 17/17/17 16/16/16 15/15/15
f 18/18/18 15/15/15 16/16/16
f 21/21/21 20/20/20 19/19/19
f 22/22/22 19/19/19 20/20/20
f 22/22/22 20/20/20 23/23/23
f 24/24/24 23/23/23 20/20/20
f 19/19/19 25/25/25 21/21/21
f 26/26/26 21/21/21 25/25/25
f 29/29/29 28/28/28 27/27/27
f 30/30/30 27/27/27 28/28/28
f 30/30/30 31/31/31 27/27/27
f 32/32/32 27/27/27 31/31/31
f 34/34/34 27/27/27 33/33/33
f 32/32/32 33/33/33 27/27/27
f 28/28/28 35/35/35 30/30/30
f 36/36/36 30/30/30 35/35/35
f 37/37/37 31/31/31 36/36/36
f 30/30/30 36/36/36 31/31/31
f 34/34/34 38/38/38 27/27/27
f 29/29/29 27/27/27 38/38/38
f 28/28/28 29/29/29 39/39/39
f 40/40/40 39/39/39 29/29/29
f 28/28/28 39/39/39 35/35/35
f 41/41/41 35/35/35 39/39/39
f 29/29/29 38/38/38 40/40/40
f 42/42/42 40/40/40 38/38/38
f 45/45/45 44/44/44 43/43/43
f 46/46/46 43/43/43 44/44/44
f 49/49/49 48/48/48 47/47/47
f 50/50/50 47/47/47 48/48/48
f 53/53/53 52/52/52 51/51/51
f 54/54/54 51/51/51 52/52/52
f 44/44/44 45/45/45 55/55/55
f 56/56/56 55/55/55 45/45/45
f 59/59/59 58/58/58 57/57/57
f 60/60/60 57/57/57 58/58/58
f 43/43/43 46/46/46 61/61/61
f 62/62/62 61/61/61 46/46/46
f 65/65/65 64/64/64 63/63/63
f 66/66/66 63/63/63 64/64/64
f 69/69/69 68/68/68 67/67/67
f 70/70/70 67/67/67 68/68/68
f 73/73/73 72/72/72 71/71/71
f 74/74/74 71/71/71 72/72/72
f 67/67/67 70/70/70 75/75/75
f 76/76/76 75/75/75 70/70/70
f 68/68/68 69/69/69 77/77/77
f 78/78/78 77/77/77 69/69/69
f 81/81/81 80/80/80 79/79/79
f 82/82/82 79/79/79 80/80/80
f 85/85/85 84/84/84 83/83/83
f 86/86/86 85/85/85 83/83/83
f 89/89/89 88/88/88 87/87/87
f 90/90/90 89/89/89 87/87/87
f 93/93/93 92/92/92 91/91/91
f 94/94/94 93/93/93 91/91/91
f 97/97/97 96/96/96 95/95/95
f 98/98/98 97/97/97 95/95/95
f 101/101/101 100/100/100 99/99/99
f 102/102/102 101/101/101 99/99/99
f 105/105/105 104/104/104 103/103/103
f 106/106/106 105/105/105 103/103/103
f 109/109/109 108/108/108 107/107/107
f 108/108/108 110/110/110 107/107/107
f 112/112/112 111/111/111 110/110/110
f 110/110/110 111/111/111 107/107/107
f 115/115/115 114/114/114 113/113/113
f 116/116/116 113/113/113 114/114/114
f 119/119/119 118/118/118 117/117/117
f 120/120/120 117/117/117 118/118/118
f 115/115/115 121/121/121 114/114/114
f 122/122/122 114/114/114 121/121/121
f 125/125/125 124/124/124 123/123/123
f 123/123/123 124/124/124 126/126/126
f 124/124/124 127/127/127 126/126/126
f 126/126/126 127/127/127 128/128/128
f 131/131/131 130/130/130 129/129/129
f 132/132/132 129/129/129 130/130/130
f 135/135/135 134/134/134 133/133/133
f 136/136/136 133/133/133 134/134/134
f 139/139/139 138/138/138 137/137/137
f 140/140/140 137/137/137 138/138/138
