g TaserTurret_03
v 0.06615421 -0.13672033 -0.16212836
v 0.3774648 -0.13672033 -0.16212836
v 0.38705632 -0.048483163 -0.1721215
v 0.05656272 -0.048483163 -0.1721215
v 0.06615421 -0.13672033 0.16212842
v 0.05656272 -0.048483163 0.1721215
v 0.38705632 -0.048483163 0.1721215
v 0.3774648 -0.13672033 0.16212842
v 0.06615421 -0.13672033 -0.16212836
v 0.06615421 -0.13672033 0.16212842
v 0.3774648 -0.13672033 0.16212842
v 0.3774648 -0.13672033 -0.16212836
v 0.38705632 -0.048483163 0.1721215
v 0.38705632 -0.048483163 -0.1721215
v 0.3774648 -0.13672033 -0.16212836
v 0.3774648 -0.13672033 0.16212842
v 0.06615421 -0.13672033 0.16212842
v 0.06615421 -0.13672033 -0.16212836
v 0.05656272 -0.048483163 -0.1721215
v 0.05656272 -0.048483163 0.1721215
v -0.38705638 -0.048483163 -0.1721215
v -0.37746486 -0.13672033 -0.16212836
v -0.06615424 -0.13672033 -0.16212836
v -0.05656275 -0.048483163 -0.1721215
v -0.38705638 -0.048483163 0.1721215
v -0.05656275 -0.048483163 0.1721215
v -0.06615424 -0.13672033 0.16212842
v -0.37746486 -0.13672033 0.16212842
v -0.37746486 -0.13672033 0.16212842
v -0.06615424 -0.13672033 0.16212842
v -0.06615424 -0.13672033 -0.16212836
v -0.37746486 -0.13672033 -0.16212836
v -0.37746486 -0.13672033 -0.16212836
v -0.38705638 -0.048483163 -0.1721215
v -0.38705638 -0.048483163 0.1721215
v -0.37746486 -0.13672033 0.16212842
v -0.05656275 -0.048483163 -0.1721215
v -0.06615424 -0.13672033 -0.16212836
v -0.06615424 -0.13672033 0.16212842
v -0.05656275 -0.048483163 0.1721215
vt 0.50322586 0.5306895
vt 0.50322586 0.51847625
vt 0.501158 0.51847625
vt 0.501158 0.5306895
vt 0.50322586 0.5441305
vt 0.501158 0.5441305
vt 0.501158 0.55634373
vt 0.50322586 0.55634373
vt 0.5525311 0.56719995
vt 0.5651321 0.56726456
vt 0.5652613 0.5557622
vt 0.55259573 0.5556975
vt 0.501158 0.50542295
vt 0.501158 0.51847625
vt 0.50322586 0.51847625
vt 0.50322586 0.50542295
vt 0.50322586 0.5441305
vt 0.50322586 0.5306895
vt 0.501158 0.5306895
vt 0.501158 0.5441305
vt 0.501158 0.51847625
vt 0.50322586 0.51847625
vt 0.50322586 0.5306895
vt 0.501158 0.5306895
vt 0.501158 0.55634373
vt 0.501158 0.5441305
vt 0.50322586 0.5441305
vt 0.50322586 0.55634373
vt 0.5652613 0.5557622
vt 0.5651321 0.56726456
vt 0.5525311 0.56719995
vt 0.55259573 0.5556975
vt 0.50322586 0.51847625
vt 0.501158 0.51847625
vt 0.501158 0.50542295
vt 0.50322586 0.50542295
vt 0.501158 0.5306895
vt 0.50322586 0.5306895
vt 0.50322586 0.5441305
vt 0.501158 0.5441305
vn -0.0009588003 -0.116341054 -0.9932089
vn -0.0009588003 -0.116341054 -0.9932089
vn -0.0009588003 -0.116341054 -0.9932089
vn -0.0009588003 -0.116341054 -0.9932089
vn -0.0009588003 -0.116341054 0.9932089
vn -0.0009588003 -0.116341054 0.9932089
vn -0.0009588003 -0.116341054 0.9932089
vn -0.0009588003 -0.116341054 0.9932089
vn -0.0009588003 -0.9999995 -0.00024414062
vn -0.0009588003 -0.9999995 -0.00024414062
vn -0.0009588003 -0.9999995 -0.00024414062
vn -0.0009588003 -0.9999995 -0.00024414062
vn 0.9921795 -0.108521044 -0.06166849
vn 0.9921795 -0.108521044 -0.06166849
vn 0.9921795 -0.108521044 -0.06166849
vn 0.9921795 -0.108521044 -0.06166849
vn -0.99409413 -0.108520724 -0
vn -0.99409413 -0.108520724 -0
vn -0.99409413 -0.108520724 -0
vn -0.99409413 -0.108520724 -0
vn -0.0009588003 -0.116341054 -0.9932089
vn -0.0009588003 -0.116341054 -0.9932089
vn -0.0009588003 -0.116341054 -0.9932089
vn -0.0009588003 -0.116341054 -0.9932089
vn -0.0009588003 -0.116341054 0.9932089
vn -0.0009588003 -0.116341054 0.9932089
vn -0.0009588003 -0.116341054 0.9932089
vn -0.0009588003 -0.116341054 0.9932089
vn -0.0009588003 -0.9999995 -0.00024414062
vn -0.0009588003 -0.9999995 -0.00024414062
vn -0.0009588003 -0.9999995 -0.00024414062
vn -0.0009588003 -0.9999995 -0.00024414062
vn -0.99409413 -0.108520724 -0
vn -0.99409413 -0.108520724 -0
vn -0.99409413 -0.108520724 -0
vn -0.99409413 -0.108520724 -0
vn 0.9921795 -0.108521044 -0.06166849
vn 0.9921795 -0.108521044 -0.06166849
vn 0.9921795 -0.108521044 -0.06166849
vn 0.9921795 -0.108521044 -0.06166849
g TaserTurret_03_0
f 3/3/3 2/2/2 1/1/1
f 4/4/4 3/3/3 1/1/1
f 7/7/7 6/6/6 5/5/5
f 8/8/8 7/7/7 5/5/5
f 11/11/11 10/10/10 9/9/9
f 12/12/12 11/11/11 9/9/9
f 15/15/15 14/14/14 13/13/13
f 16/16/16 15/15/15 13/13/13
f 19/19/19 18/18/18 17/17/17
f 20/20/20 19/19/19 17/17/17
f 23/23/23 22/22/22 21/21/21
f 24/24/24 23/23/23 21/21/21
f 27/27/27 26/26/26 25/25/25
f 28/28/28 27/27/27 25/25/25
f 31/31/31 30/30/30 29/29/29
f 32/32/32 31/31/31 29/29/29
f 35/35/35 34/34/34 33/33/33
f 36/36/36 35/35/35 33/33/33
f 39/39/39 38/38/38 37/37/37
f 40/40/40 39/39/39 37/37/37
