g TeslaTurret_04
v 2.4844131 72.308266 9.159607
v 6.8676453 82.12423 13.395355
v 2.4844131 82.12423 8.247292
v 6.047928 72.308266 13.395355
v 2.4844131 82.12423 18.543419
v 2.4844131 72.308266 17.631104
v -2.4750137 72.308266 17.631104
v -6.858238 82.12423 13.395355
v -2.4750137 82.12423 18.543419
v -6.0385284 72.308266 13.395355
v -2.4750137 82.12423 8.247292
v -2.4750137 72.308266 9.159607
v -6.858238 82.12423 13.395355
v 2.4844131 82.12423 18.543419
v -2.4750137 82.12423 18.543419
v 6.8676453 82.12423 13.395355
v -2.4750137 82.12423 8.247292
v 2.4844131 82.12423 8.247292
v -3.8331985 49.514107 -88.56442
v 0.7249527 39.39634 -72.454865
v 0.7249527 46.657127 -91.688934
v -3.8331985 43.954475 -72.454865
v 0.7249527 48.51606 -72.454865
v 0.7249527 52.36767 -85.443344
v -2.6499329 73.525826 -96.850716
v 1.9082184 74.4896 -92.95451
v 0.7249527 52.36767 -85.443344
v 6.466362 73.525826 -96.850716
v 5.286522 49.514107 -88.56442
v 1.9082184 74.4896 -92.95451
v 5.286522 43.954475 -72.454865
v 0.7249527 48.51606 -72.454865
v 4.8680954 97.9457 -84.52417
v 9.426239 95.56202 -81.18702
v 9.426239 95.56202 -81.18702
v 13.987816 97.9457 -84.52417
v 1.9082184 72.5655 -100.743484
v 13.380753 120.2837 -56.592243
v 8.822601 116.143974 -55.268356
v 9.426239 100.32595 -87.86133
v 13.380753 112.0077 -53.94104
v 17.942322 116.143974 -55.268356
v 13.89521 114.07583 -20.583237
v 18.425919 118.270424 -19.482285
v 13.380753 112.0077 -53.94104
v 13.89521 122.461586 -18.377907
v 6.569252 101.58466 3.7200165
v 9.367935 118.270424 -19.482285
v 2.2649078 104.174126 6.875389
v 13.89521 114.07583 -20.583237
v 10.873596 104.174126 6.875389
v 6.569252 101.58466 3.7200165
v -0.8253021 79.42158 9.543739
v 3.1463547 79.43873 13.515396
v -0.8253021 79.452446 17.487053
v 6.569252 106.7636 10.030762
v -4.796959 79.43873 13.515396
v -0.8253021 79.42158 9.543739
v 13.528229 45.00399 -89.01029
v 12.770256 32.451073 -72.454865
v 18.065796 40.97059 -90.28616
v 8.397316 37.009224 -72.454865
v 12.770256 41.570793 -72.454865
v 18.065796 49.04081 -87.73442
v 27.127213 66.16558 -98.411255
v 31.688782 67.12934 -94.51848
v 22.59993 45.00399 -89.01029
v 31.688782 67.12934 -94.51848
v 36.246933 66.16558 -98.411255
v 18.065796 49.04081 -87.73442
v 17.143188 37.009224 -72.454865
v 12.770256 41.570793 -72.454865
v 36.346397 94.26557 -88.176865
v 40.904537 91.88532 -84.83971
v 40.904537 91.88532 -84.83971
v 45.466114 94.26557 -88.176865
v 31.688782 65.20524 -102.30746
v 46.68025 112.36439 -62.69378
v 42.1221 108.228096 -61.369892
v 40.904537 96.649254 -91.51745
v 46.68025 104.08839 -60.042576
v 56.924927 106.461784 -27.144356
v 46.68025 104.08839 -60.042576
v 52.322197 102.43525 -28.248741
v 51.24182 108.228096 -61.369892
v 52.510834 110.79356 -26.043404
v 52.322197 102.43525 -28.248741
v 48.90616 90.83924 0.7086868
v 52.366783 87.08022 -2.4466858
v 47.91153 106.7636 -27.144356
v 56.966084 88.33552 0.7086868
v 52.366783 87.08022 -2.4466858
v 38.534576 68.74476 8.59713
v 41.357265 65.952934 12.568787
v 53.502033 92.094536 3.8674927
v 38.555157 68.76876 16.540443
v 35.729034 71.560585 12.568787
v 38.534576 68.74476 8.59713
v -22.816895 45.60076 -81.91413
v -15.82019 32.451073 -72.454865
v -19.510612 42.586006 -84.25665
v -19.0373 37.009224 -72.454865
v -15.82019 41.570793 -72.454865
v -19.510612 48.61895 -79.58533
v -33.442284 64.90685 -87.213104
v -30.48925 66.2033 -83.97541
v -19.510612 48.61895 -79.58533
v -27.275581 66.88239 -87.12736
v -16.204323 45.60076 -81.931274
v -30.48925 66.2033 -83.97541
v -12.5996475 37.009224 -72.454865
v -15.82019 41.570793 -72.454865
v -46.526802 84.902336 -75.09235
v -49.44895 87.368324 -78.11396
v -43.604637 87.368324 -76.85867
v -46.526802 84.902336 -75.09235
v -30.232033 65.585945 -90.36848
v -58.249702 101.86248 -51.162937
v -61.343346 98.3847 -51.056618
v -46.526802 89.837746 -79.876854
v -58.249702 94.91036 -49.818474
v -58.081642 98.10003 -20.785591
v -58.249702 94.91036 -49.818474
v -61.597145 94.64626 -21.735634
v -55.15606 98.3847 -49.921368
v -61.652016 101.16967 -20.12365
v -61.597145 94.64626 -21.735634
v -56.003212 82.83419 3.4113388
v -53.303993 82.552956 -0.07329559
v -65.16752 97.71247 -21.077118
v -50.92031 85.70832 3.0443497
v -53.303993 82.552956 -0.07329559
v -33.91558 68.20286 12.448746
v -31.864586 70.363594 15.388046
v -53.622963 85.98957 6.525551
v -33.89501 68.22343 18.327347
v -35.94599 66.06269 15.388046
v -33.91558 68.20286 12.448746
v 34.21309 60.887184 9.159607
v 43.25392 65.78144 13.395355
v 41.15491 67.829 8.247292
v 35.82164 59.33007 13.395355
v 41.15491 67.829 18.543419
v 34.21309 60.887184 17.631104
v 30.707878 64.39239 17.631104
v 35.58499 73.34406 13.395355
v 37.649704 71.33422 18.543419
v 29.065025 65.9838 13.395355
v 37.649704 71.33422 8.247292
v 30.707878 64.39239 9.159607
v 35.58499 73.34406 13.395355
v 41.15491 67.829 18.543419
v 37.649704 71.33422 18.543419
v 43.25392 65.78144 13.395355
v 37.649704 71.33422 8.247292
v 41.15491 67.829 8.247292
v -28.74694 66.04211 9.807831
v -33.4217 75.391624 14.019569
v -35.73678 72.93249 8.895515
v -26.980614 67.93191 14.019569
v -35.73678 72.93249 19.18821
v -28.74694 66.04211 18.275894
v -32.22471 62.512886 18.275894
v -41.461052 67.01273 14.064156
v -39.21798 69.40327 19.18821
v -34.05964 60.554497 14.06073
v -39.21798 69.40327 8.895515
v -32.22471 62.512886 9.807831
v -41.461052 67.01273 14.064156
v -35.73678 72.93249 19.18821
v -39.21798 69.40327 19.18821
v -33.4217 75.391624 14.019569
v -39.21798 69.40327 8.895515
v -35.73678 72.93249 8.895515
v 2.4844131 72.308266 9.159607
v 2.4844131 82.12423 8.247292
v 34.21309 60.887184 9.159607
v 41.15491 67.829 8.247292
v -28.74694 66.04211 9.807831
v -35.73678 72.93249 8.895515
vt 0.70461 0.5549544
vt 0.7023549 0.55802953
vt 0.70461 0.55802953
vt 0.7023549 0.5549544
vt 0.7000998 0.55802953
vt 0.7000998 0.5549544
vt 0.69784474 0.5549544
vt 0.69558966 0.55802953
vt 0.69784474 0.55802953
vt 0.69558966 0.5549544
vt 0.6933346 0.55802953
vt 0.6935396 0.5549544
vt 0.70912015 0.5379388
vt 0.7121953 0.5365037
vt 0.71076024 0.5365037
vt 0.71383536 0.5379388
vt 0.71076024 0.5395788
vt 0.7121953 0.5395788
vt 0.6644285 0.5098527
vt 0.66237843 0.50431746
vt 0.6625834 0.50903267
vt 0.6652485 0.5051375
vt 0.6672986 0.50636756
vt 0.6664786 0.51067275
vt 0.6644285 0.51723295
vt 0.6664786 0.517848
vt 0.6586883 0.51067275
vt 0.66073835 0.517438
vt 0.66073835 0.5098527
vt 0.65848327 0.517438
vt 0.6597133 0.50534254
vt 0.6576632 0.50636756
vt 0.6644285 0.5260483
vt 0.6664786 0.5264583
vt 0.65807325 0.52625334
vt 0.66012335 0.5264583
vt 0.6625834 0.517028
vt 0.6619684 0.53711873
vt 0.6642235 0.5369137
vt 0.6621734 0.5260483
vt 0.6662736 0.53711873
vt 0.6599183 0.53711873
vt 0.65786827 0.54818916
vt 0.6599183 0.54818916
vt 0.6576632 0.5369137
vt 0.6621734 0.54818916
vt 0.6664786 0.5574145
vt 0.6642235 0.54818916
vt 0.6644285 0.55802953
vt 0.6664786 0.5479841
vt 0.66073835 0.5576195
vt 0.6588933 0.55802953
vt 0.6588933 0.5658198
vt 0.6609434 0.5658198
vt 0.6631985 0.56663984
vt 0.6625834 0.5578245
vt 0.66545355 0.5662298
vt 0.6672986 0.5652048
vt 0.6759089 0.5104677
vt 0.67406386 0.5041125
vt 0.67406386 0.5102627
vt 0.67672896 0.5047275
vt 0.678574 0.5061626
vt 0.677549 0.51190275
vt 0.6754989 0.51887304
vt 0.67734396 0.51989806
vt 0.6722188 0.51128775
vt 0.6697587 0.51928306
vt 0.6716038 0.5196931
vt 0.6701687 0.51128775
vt 0.6718088 0.50534254
vt 0.6697587 0.50575256
vt 0.6752939 0.5287134
vt 0.67734396 0.5293284
vt 0.6693487 0.5291234
vt 0.67139876 0.5293284
vt 0.6734488 0.519078
vt 0.6734488 0.5385538
vt 0.6754989 0.5385538
vt 0.6732438 0.5289184
vt 0.677754 0.53875875
vt 0.67139876 0.5498292
vt 0.6691437 0.5389638
vt 0.6693487 0.5496242
vt 0.6711937 0.5389638
vt 0.67365384 0.54941916
vt 0.677754 0.54941916
vt 0.6759089 0.5594646
vt 0.677959 0.55905455
vt 0.67570394 0.54941916
vt 0.67201376 0.5598746
vt 0.6701687 0.5600796
vt 0.6711937 0.5684849
vt 0.6732438 0.5688949
vt 0.67406386 0.5598746
vt 0.6754989 0.5688949
vt 0.67734396 0.56766486
vt 0.6791891 0.5668448
vt 0.65274304 0.5102627
vt 0.651513 0.5045225
vt 0.651308 0.5094427
vt 0.6533581 0.50595754
vt 0.6549981 0.50698256
vt 0.6543831 0.5102627
vt 0.6529481 0.517643
vt 0.6543831 0.51723295
vt 0.6484379 0.5104677
vt 0.65007794 0.51682293
vt 0.64987296 0.5094427
vt 0.64884794 0.517643
vt 0.64946294 0.50534254
vt 0.6480279 0.50698256
vt 0.6545881 0.5260483
vt 0.65315306 0.5264583
vt 0.65007794 0.5258433
vt 0.6486429 0.52625334
vt 0.651513 0.517028
vt 0.651103 0.5358887
vt 0.65274304 0.5360937
vt 0.651718 0.52625334
vt 0.6543831 0.5362987
vt 0.6482329 0.544909
vt 0.64782286 0.5356837
vt 0.64659286 0.544499
vt 0.64946294 0.5356837
vt 0.64987296 0.54511404
vt 0.65315306 0.54572904
vt 0.6492579 0.55433935
vt 0.650898 0.5545444
vt 0.651513 0.545319
vt 0.6463878 0.55372435
vt 0.6449528 0.5526993
vt 0.6426977 0.5608996
vt 0.6437227 0.56171966
vt 0.6476179 0.55433935
vt 0.64515775 0.5627447
vt 0.64679784 0.5627447
vt 0.6482329 0.5627447
vt 0.70461 0.5549544
vt 0.7023549 0.55802953
vt 0.70461 0.55802953
vt 0.7023549 0.5549544
vt 0.7000998 0.55802953
vt 0.7000998 0.5549544
vt 0.69784474 0.5549544
vt 0.69558966 0.55802953
vt 0.69784474 0.55802953
vt 0.69558966 0.5549544
vt 0.6933346 0.55802953
vt 0.6935396 0.5549544
vt 0.70912015 0.5379388
vt 0.7121953 0.5365037
vt 0.71076024 0.5365037
vt 0.71383536 0.5379388
vt 0.71076024 0.5395788
vt 0.7121953 0.5395788
vt 0.70461 0.5549544
vt 0.7023549 0.55802953
vt 0.70461 0.55802953
vt 0.7023549 0.5549544
vt 0.7000998 0.55802953
vt 0.7000998 0.5549544
vt 0.69784474 0.5549544
vt 0.69558966 0.55802953
vt 0.69784474 0.55802953
vt 0.69558966 0.5549544
vt 0.6933346 0.55802953
vt 0.6935396 0.5549544
vt 0.70912015 0.5379388
vt 0.7121953 0.5365037
vt 0.71076024 0.5365037
vt 0.71383536 0.5379388
vt 0.71076024 0.5395788
vt 0.7121953 0.5395788
vt 0.69189954 0.5549544
vt 0.69189954 0.55802953
vt 0.69189954 0.5549544
vt 0.69189954 0.55802953
vt 0.69189954 0.5549544
vt 0.69189954 0.55802953
vn 0.46394205 -0.08034283 -0.8822147
vn 0.9962838 -0.08034283 0.03104099
vn 0.47177064 -0.08034283 -0.87805325
vn 0.9962838 -0.08034283 0.03104099
vn 0.46394205 -0.08034283 0.8822147
vn 0.45611352 -0.08034283 0.8862875
vn -0.46765608 -0.08034283 0.8802516
vn -0.996788 -0.08008495 -0
vn -0.47548455 -0.08034283 0.8760477
vn -0.9921692 -0.08034283 -0.095631026
vn -0.45982748 -0.08034283 -0.88436633
vn -0.4519989 -0.08034283 -0.8883929
vn 0.002057314 0.9999978 -0.00042286396
vn 0.002057314 0.9999978 -0.00042286396
vn 0.002057314 0.9999978 -0.00042286396
vn 0.002057314 0.9999978 -0.00042286396
vn 0.002057314 0.9999978 -0.00042286396
vn 0.002057314 0.9999978 -0.00042286396
vn -0.96085507 -0.17428553 -0.21536505
vn 0.072514296 -0.9336554 -0.3507553
vn -0.037085474 -0.63617027 -0.7706569
vn -0.9843407 -0.14297128 -0.10311424
vn 0.002057314 0.9451979 0.3264915
vn -0.013599813 0.61639863 0.78731686
vn -0.9373694 0.22497076 -0.26594505
vn -0.0762282 -0.12731415 0.9889289
vn -0.013599813 0.61639863 0.78731686
vn 0.96496964 -0.10382849 -0.24094239
vn 0.97279817 -0.18211406 -0.14317192
vn -0.0762282 -0.12731415 0.9889289
vn 0.97279817 -0.21342832 -0.09006711
vn 0.002057314 0.9451979 0.3264915
vn -0.9530265 0.29542786 -0.06680515
vn 0.04120004 -0.7222844 0.69036794
vn 0.04120004 -0.7222844 0.69036794
vn 0.97279817 -0.002057314 -0.2316452
vn -0.05274254 0.044914067 -0.99759763
vn 0.033371508 0.9530265 -0.301043
vn -0.9921692 0.12319964 0.02054538
vn 0.017714381 0.679027 -0.73389953
vn 0.009885848 -0.95714104 0.2894534
vn 0.9884553 0.12319964 -0.088192865
vn 0.08034283 -0.9806267 -0.17865139
vn 0.9884553 0.107542455 0.10672747
vn 0.009885848 -0.95714104 0.2894534
vn 0.025542974 0.97651213 0.21394297
vn -0.02925688 -0.6674845 -0.74404866
vn -0.97615755 0.21706344 -0
vn -0.9426859 0.33368143 -0
vn 0.08034283 -0.9806267 -0.17865139
vn 0.9336554 -0.04120004 0.35579512
vn -0.02925688 -0.6674845 -0.74404866
vn -0.12319964 -0.22908539 -0.96557844
vn 0.95714104 -0.2760567 0.08759976
vn -0.16234237 0.28759927 0.94389176
vn 0.033371508 0.6398843 0.7677463
vn -0.9373694 0.30325633 0.17138904
vn -0.12319964 -0.22908539 -0.96557844
vn -0.819941 0.0057712197 -0.572419
vn -0.11537105 -0.87885547 -0.4629283
vn -0.06839973 -0.67531306 -0.7343526
vn -0.90605515 -0.19777119 -0.3740997
vn -0.107542455 0.90605515 0.409266
vn -0.107542455 0.65554136 0.74746245
vn -0.84342664 0.42068475 -0.33414942
vn 0.017714381 -0.095999956 0.9952237
vn 0.91799825 -0.33868515 0.20632876
vn 0.017714381 -0.095999956 0.9952237
vn 0.92582685 -0.33868515 -0.167741
vn -0.107542455 0.65554136 0.74746245
vn 0.95714104 -0.19777119 0.2115835
vn -0.107542455 0.90605515 0.409266
vn -0.9341681 0.3568334 -0
vn 0.049028635 -0.6831416 0.7286383
vn 0.049028635 -0.6831416 0.7286383
vn 0.95714104 -0.033371508 -0.28769317
vn 0.025542974 -0.049028635 -0.9984707
vn 0.009885848 0.97651213 -0.21523541
vn -0.96868354 0.17017096 0.18081489
vn 0.017714381 0.6398843 -0.76826704
vn 0.002057314 -0.9806267 0.19587505
vn 0.9884553 0.13885671 -0.06062134
vn 0.002057314 -0.9806267 0.19587505
vn -0.0057712197 -0.95714104 -0.28956467
vn 0.9806267 0.09188539 -0.1729981
vn 0.04120004 0.96085507 0.27397105
vn -0.0057712197 -0.95714104 -0.28956467
vn -0.91388375 0.40502757 0.027733881
vn -0.13102812 -0.7222844 -0.67907065
vn -0.97651213 0.1466853 0.15782095
vn 0.96496964 -0.16645694 0.20279467
vn -0.13102812 -0.7222844 -0.67907065
vn -0.19365662 -0.38565654 -0.90208983
vn 0.8631984 -0.45611352 0.2164463
vn 0.33085662 0.592913 0.7341581
vn 0.37782794 0.24062794 0.89406055
vn -0.749484 0.60857004 0.26060745
vn -0.19365662 -0.38565654 -0.90208983
vn -0.9217122 -0.35434228 0.15775977
vn 0.20559973 -0.71445584 -0.6687912
vn 0.033371508 -0.46394205 -0.8852368
vn -0.96085507 -0.21342832 0.17665192
vn 0.11948562 0.749484 0.65115047
vn 0.10382849 0.43634182 0.8937704
vn -0.84342664 -0.5109134 -0.16612957
vn 0.072514296 -0.11165708 0.99109757
vn 0.10382849 0.43634182 0.8937704
vn 0.80056995 0.5694272 -0.18665592
vn 0.8475413 0.16234237 -0.50529075
vn 0.072514296 -0.11165708 0.99109757
vn 0.8240556 -0.26039964 -0.50311464
vn 0.11948562 0.749484 0.65115047
vn -0.18582803 -0.80056995 0.5696979
vn -0.8747409 -0.18211406 -0.44906884
vn 0.8553698 0.46765608 0.222801
vn -0.18582803 -0.80056995 0.5696979
vn 0.017714381 0.11537105 -0.9931645
vn -0.02925688 0.97651213 -0.21346673
vn -0.96085507 0.037085474 -0.27455822
vn 0.10382849 0.749484 -0.6538298
vn -0.09971398 -0.9884553 0.11407561
vn 0.9884553 0.13885671 -0.06062134
vn -0.09971398 -0.9884553 0.11407561
vn -0.021428406 -0.97279817 -0.23066108
vn 0.96496964 0.13885671 0.2226037
vn -0.18582803 0.9451979 0.26845646
vn -0.021428406 -0.97279817 -0.23066108
vn -0.8669123 -0.4013136 0.29565254
vn 0.22908539 -0.6831416 -0.69342446
vn -0.9843407 0.12319964 0.12607609
vn 0.7770843 0.60857004 -0.16056928
vn 0.22908539 -0.6831416 -0.69342446
vn 0.3699994 -0.2838853 -0.8845957
vn 0.58137035 0.78862685 0.2001904
vn -0.35805625 0.5067988 0.7841879
vn -0.28759927 0.28759927 0.91354984
vn -0.6868556 -0.6831416 0.24808653
vn 0.3699994 -0.2838853 -0.8845957
vn 0.3151995 -0.43262786 -0.8446789
vn 0.65865 -0.7524494 -0
vn 0.3230281 -0.43262786 -0.8417161
vn 0.65865 -0.7524494 -0
vn 0.30737096 -0.43262786 0.847559
vn 0.30737096 -0.42479926 0.85150963
vn -0.43634182 0.31891352 0.8413679
vn -0.74881554 0.6627783 -0
vn -0.42851323 0.31891352 0.8453819
vn -0.74881554 0.6627783 -0
vn -0.42851323 0.31108493 -0.8482939
vn -0.42068475 0.31108493 -0.8522033
vn 0.6987987 0.7103413 0.08423559
vn 0.705251 0.7089578 -0
vn 0.705251 0.7089578 -0
vn 0.6987987 0.7103413 0.08423559
vn 0.705251 0.7089578 -0
vn 0.705251 0.7089578 -0
vn 0.41697073 0.30325633 -0.85683775
vn 0.75359863 0.65554136 0.048524447
vn 0.41697073 0.31108493 -0.8540267
vn 0.75359863 0.65554136 0.048524447
vn 0.41697073 0.29542786 0.85956836
vn 0.4091422 0.30325633 0.86060345
vn -0.30325633 -0.41697073 0.85683775
vn -0.65554136 -0.75359863 -0.048524447
vn -0.30325633 -0.41697073 0.85683775
vn -0.65554136 -0.75359863 -0.048524447
vn -0.29542786 -0.41697073 -0.85956836
vn -0.29542786 -0.4091422 -0.8633221
vn -0.71816975 0.6946841 0.040573277
vn -0.71816975 0.6946841 0.040573277
vn -0.7103413 0.7025127 -0.04348788
vn -0.71816975 0.6946841 0.040573277
vn -0.71816975 0.6946841 0.040573277
vn -0.7103413 0.7025127 -0.04348788
vn 0.46394205 -0.08034283 -0.8822147
vn 0.47177064 -0.08034283 -0.87805325
vn 0.3151995 -0.43262786 -0.8446789
vn 0.3230281 -0.43262786 -0.8417161
vn 0.41697073 0.30325633 -0.85683775
vn 0.41697073 0.31108493 -0.8540267
g TeslaTurret_04_0
f 3/3/3 2/2/2 1/1/1
f 4/4/4 1/1/1 2/2/2
f 2/2/2 5/5/5 4/4/4
f 6/6/6 4/4/4 5/5/5
f 9/9/9 8/8/8 7/7/7
f 10/10/10 7/7/7 8/8/8
f 8/8/8 11/11/11 10/10/10
f 12/12/12 10/10/10 11/11/11
f 15/15/15 14/14/14 13/13/13
f 14/14/14 16/16/16 13/13/13
f 18/18/18 17/17/17 16/16/16
f 16/16/16 17/17/17 13/13/13
f 21/21/21 20/20/20 19/19/19
f 22/22/22 19/19/19 20/20/20
f 24/24/24 19/19/19 23/23/23
f 22/22/22 23/23/23 19/19/19
f 26/26/26 25/25/25 24/24/24
f 19/19/19 24/24/24 25/25/25
f 29/29/29 28/28/28 27/27/27
f 30/30/30 27/27/27 28/28/28
f 20/20/20 21/21/21 31/31/31
f 29/29/29 31/31/31 21/21/21
f 27/27/27 32/32/32 29/29/29
f 31/31/31 29/29/29 32/32/32
f 34/34/34 33/33/33 26/26/26
f 25/25/25 26/26/26 33/33/33
f 36/36/36 35/35/35 28/28/28
f 30/30/30 28/28/28 35/35/35
f 25/25/25 37/37/37 19/19/19
f 21/21/21 19/19/19 37/37/37
f 21/21/21 37/37/37 29/29/29
f 28/28/28 29/29/29 37/37/37
f 39/39/39 38/38/38 33/33/33
f 40/40/40 33/33/33 38/38/38
f 39/39/39 33/33/33 41/41/41
f 34/34/34 41/41/41 33/33/33
f 33/33/33 40/40/40 25/25/25
f 37/37/37 25/25/25 40/40/40
f 37/37/37 40/40/40 28/28/28
f 36/36/36 28/28/28 40/40/40
f 44/44/44 43/43/43 42/42/42
f 45/45/45 42/42/42 43/43/43
f 38/38/38 46/46/46 42/42/42
f 44/44/44 42/42/42 46/46/46
f 42/42/42 45/45/45 36/36/36
f 35/35/35 36/36/36 45/45/45
f 40/40/40 38/38/38 36/36/36
f 42/42/42 36/36/36 38/38/38
f 49/49/49 48/48/48 47/47/47
f 50/50/50 47/47/47 48/48/48
f 44/44/44 51/51/51 43/43/43
f 52/52/52 43/43/43 51/51/51
f 39/39/39 48/48/48 38/38/38
f 46/46/46 38/38/38 48/48/48
f 50/50/50 48/48/48 41/41/41
f 39/39/39 41/41/41 48/48/48
f 54/54/54 53/53/53 51/51/51
f 52/52/52 51/51/51 53/53/53
f 56/56/56 55/55/55 51/51/51
f 54/54/54 51/51/51 55/55/55
f 49/49/49 56/56/56 48/48/48
f 46/46/46 48/48/48 56/56/56
f 56/56/56 51/51/51 46/46/46
f 44/44/44 46/46/46 51/51/51
f 55/55/55 56/56/56 57/57/57
f 49/49/49 57/57/57 56/56/56
f 57/57/57 49/49/49 58/58/58
f 47/47/47 58/58/58 49/49/49
f 61/61/61 60/60/60 59/59/59
f 62/62/62 59/59/59 60/60/60
f 64/64/64 59/59/59 63/63/63
f 62/62/62 63/63/63 59/59/59
f 66/66/66 65/65/65 64/64/64
f 59/59/59 64/64/64 65/65/65
f 69/69/69 68/68/68 67/67/67
f 70/70/70 67/67/67 68/68/68
f 60/60/60 61/61/61 71/71/71
f 67/67/67 71/71/71 61/61/61
f 70/70/70 72/72/72 67/67/67
f 71/71/71 67/67/67 72/72/72
f 74/74/74 73/73/73 66/66/66
f 65/65/65 66/66/66 73/73/73
f 76/76/76 75/75/75 69/69/69
f 68/68/68 69/69/69 75/75/75
f 65/65/65 77/77/77 59/59/59
f 61/61/61 59/59/59 77/77/77
f 61/61/61 77/77/77 67/67/67
f 69/69/69 67/67/67 77/77/77
f 79/79/79 78/78/78 73/73/73
f 80/80/80 73/73/73 78/78/78
f 79/79/79 73/73/73 81/81/81
f 74/74/74 81/81/81 73/73/73
f 73/73/73 80/80/80 65/65/65
f 77/77/77 65/65/65 80/80/80
f 77/77/77 80/80/80 69/69/69
f 76/76/76 69/69/69 80/80/80
f 84/84/84 83/83/83 82/82/82
f 85/85/85 82/82/82 83/83/83
f 78/78/78 86/86/86 85/85/85
f 82/82/82 85/85/85 86/86/86
f 85/85/85 83/83/83 76/76/76
f 75/75/75 76/76/76 83/83/83
f 80/80/80 78/78/78 76/76/76
f 85/85/85 76/76/76 78/78/78
f 89/89/89 88/88/88 87/87/87
f 90/90/90 87/87/87 88/88/88
f 92/92/92 84/84/84 91/91/91
f 82/82/82 91/91/91 84/84/84
f 79/79/79 90/90/90 78/78/78
f 86/86/86 78/78/78 90/90/90
f 87/87/87 90/90/90 81/81/81
f 79/79/79 81/81/81 90/90/90
f 94/94/94 93/93/93 91/91/91
f 92/92/92 91/91/91 93/93/93
f 96/96/96 94/94/94 95/95/95
f 91/91/91 95/95/95 94/94/94
f 88/88/88 95/95/95 90/90/90
f 86/86/86 90/90/90 95/95/95
f 86/86/86 95/95/95 82/82/82
f 91/91/91 82/82/82 95/95/95
f 96/96/96 95/95/95 97/97/97
f 88/88/88 97/97/97 95/95/95
f 97/97/97 88/88/88 98/98/98
f 89/89/89 98/98/98 88/88/88
f 101/101/101 100/100/100 99/99/99
f 102/102/102 99/99/99 100/100/100
f 104/104/104 99/99/99 103/103/103
f 102/102/102 103/103/103 99/99/99
f 106/106/106 105/105/105 104/104/104
f 99/99/99 104/104/104 105/105/105
f 109/109/109 108/108/108 107/107/107
f 110/110/110 107/107/107 108/108/108
f 100/100/100 101/101/101 111/111/111
f 109/109/109 111/111/111 101/101/101
f 107/107/107 112/112/112 109/109/109
f 111/111/111 109/109/109 112/112/112
f 114/114/114 105/105/105 113/113/113
f 106/106/106 113/113/113 105/105/105
f 108/108/108 115/115/115 110/110/110
f 116/116/116 110/110/110 115/115/115
f 105/105/105 117/117/117 99/99/99
f 101/101/101 99/99/99 117/117/117
f 101/101/101 117/117/117 109/109/109
f 108/108/108 109/109/109 117/117/117
f 119/119/119 118/118/118 114/114/114
f 120/120/120 114/114/114 118/118/118
f 113/113/113 121/121/121 114/114/114
f 119/119/119 114/114/114 121/121/121
f 114/114/114 120/120/120 105/105/105
f 117/117/117 105/105/105 120/120/120
f 120/120/120 115/115/115 117/117/117
f 108/108/108 117/117/117 115/115/115
f 124/124/124 123/123/123 122/122/122
f 125/125/125 122/122/122 123/123/123
f 118/118/118 126/126/126 125/125/125
f 122/122/122 125/125/125 126/126/126
f 125/125/125 123/123/123 115/115/115
f 116/116/116 115/115/115 123/123/123
f 120/120/120 118/118/118 115/115/115
f 125/125/125 115/115/115 118/118/118
f 129/129/129 128/128/128 127/127/127
f 130/130/130 127/127/127 128/128/128
f 132/132/132 124/124/124 131/131/131
f 122/122/122 131/131/131 124/124/124
f 126/126/126 118/118/118 130/130/130
f 119/119/119 130/130/130 118/118/118
f 127/127/127 130/130/130 121/121/121
f 119/119/119 121/121/121 130/130/130
f 134/134/134 133/133/133 131/131/131
f 132/132/132 131/131/131 133/133/133
f 136/136/136 134/134/134 135/135/135
f 131/131/131 135/135/135 134/134/134
f 128/128/128 135/135/135 130/130/130
f 126/126/126 130/130/130 135/135/135
f 135/135/135 131/131/131 126/126/126
f 122/122/122 126/126/126 131/131/131
f 128/128/128 137/137/137 135/135/135
f 136/136/136 135/135/135 137/137/137
f 138/138/138 137/137/137 129/129/129
f 128/128/128 129/129/129 137/137/137
f 141/141/141 140/140/140 139/139/139
f 142/142/142 139/139/139 140/140/140
f 140/140/140 143/143/143 142/142/142
f 144/144/144 142/142/142 143/143/143
f 147/147/147 146/146/146 145/145/145
f 148/148/148 145/145/145 146/146/146
f 146/146/146 149/149/149 148/148/148
f 150/150/150 148/148/148 149/149/149
f 153/153/153 152/152/152 151/151/151
f 152/152/152 154/154/154 151/151/151
f 156/156/156 155/155/155 154/154/154
f 154/154/154 155/155/155 151/151/151
f 159/159/159 158/158/158 157/157/157
f 160/160/160 157/157/157 158/158/158
f 158/158/158 161/161/161 160/160/160
f 162/162/162 160/160/160 161/161/161
f 165/165/165 164/164/164 163/163/163
f 166/166/166 163/163/163 164/164/164
f 164/164/164 167/167/167 166/166/166
f 168/168/168 166/166/166 167/167/167
f 171/171/171 170/170/170 169/169/169
f 170/170/170 172/172/172 169/169/169
f 174/174/174 173/173/173 172/172/172
f 172/172/172 173/173/173 169/169/169
f 12/12/12 11/11/11 175/175/175
f 176/176/176 175/175/175 11/11/11
f 9/9/9 7/7/7 5/5/5
f 6/6/6 5/5/5 7/7/7
f 150/150/150 149/149/149 177/177/177
f 178/178/178 177/177/177 149/149/149
f 147/147/147 145/145/145 143/143/143
f 144/144/144 143/143/143 145/145/145
f 168/168/168 167/167/167 179/179/179
f 180/180/180 179/179/179 167/167/167
f 165/165/165 163/163/163 161/161/161
f 162/162/162 161/161/161 163/163/163
