g Thorn_10_CorpsePart
v 6.1885724 1.3670464 -0.45196247
v 6.0519576 1.3917298 -0.55375147
v 5.9878044 1.3540936 -0.48959875
v 6.1069455 1.3193898 -0.37045765
v 5.9236517 1.3917298 -0.42544556
v 6.0254407 1.3670464 -0.28895283
v 5.8971353 1.4825215 -0.39880705
v 5.9915924 1.4825215 -0.25510454
v 5.9236517 1.5731907 -0.42544556
v 6.0254407 1.5977521 -0.28895283
v 5.9878044 1.610827 -0.48959875
v 6.1069455 1.6455307 -0.37045765
v 6.1069455 1.6455307 -0.37045765
v 5.9878044 1.610827 -0.48959875
v 6.0519576 1.5731907 -0.55375147
v 6.1885724 1.5977521 -0.45196247
v 6.078596 1.4825215 -0.5802679
v 6.2222986 1.4825215 -0.48581076
v 6.0519576 1.3917298 -0.55375147
v 5.9878044 1.4825215 -0.48959875
v 5.9878044 1.3540936 -0.48959875
v 5.9236517 1.3917298 -0.42544556
v 5.8971353 1.4825215 -0.39880705
v 5.9236517 1.5731907 -0.42544556
v 5.9878044 1.610827 -0.48959875
v 6.0519576 1.5731907 -0.55375147
v 6.078596 1.4825215 -0.5802679
v 6.2715435 1.3335648 -0.4164033
v 6.2160664 1.3484726 -0.4508624
v 6.1212425 1.2929955 -0.35616064
v 6.1663327 1.2719779 -0.31107044
v 6.0265408 1.3484726 -0.2613368
v 6.061122 1.3335648 -0.20585966
v 5.9873157 1.4825215 -0.2221117
v 6.017498 1.4825215 -0.16223574
v 6.0265408 1.6164484 -0.2613368
v 6.061122 1.6313562 -0.20585966
v 6.1212425 1.6719251 -0.35616064
v 6.1663327 1.6929426 -0.31107044
v 6.1663327 1.6929426 -0.31107044
v 6.1212425 1.6719251 -0.35616064
v 6.2160664 1.6164484 -0.4508624
v 6.2715435 1.6313562 -0.4164033
v 6.2552915 1.4825215 -0.4900875
v 6.3151674 1.4825215 -0.45990515
v 6.1069455 1.3193898 -0.37045765
v 6.1212425 1.2929955 -0.35616064
v 6.2160664 1.3484726 -0.4508624
v 6.1885724 1.3670464 -0.45196247
v 6.0254407 1.3670464 -0.28895283
v 6.0265408 1.3484726 -0.2613368
v 5.9915924 1.4825215 -0.25510454
v 5.9873157 1.4825215 -0.2221117
v 6.0254407 1.5977521 -0.28895283
v 6.0265408 1.6164484 -0.2613368
v 6.1069455 1.6455307 -0.37045765
v 6.1212425 1.6719251 -0.35616064
v 6.1885724 1.5977521 -0.45196247
v 6.2160664 1.6164484 -0.4508624
v 6.1212425 1.6719251 -0.35616064
v 6.1069455 1.6455307 -0.37045765
v 6.2222986 1.4825215 -0.48581076
v 6.2552915 1.4825215 -0.4900875
vt 0.7375937 0.6456508
vt 0.7325806 0.6456508
vt 0.7325806 0.65034395
vt 0.7375937 0.65034395
vt 0.7325806 0.6550371
vt 0.7375937 0.6550371
vt 0.7325806 0.65973026
vt 0.7375937 0.65973026
vt 0.7325806 0.66442335
vt 0.7375937 0.66442335
vt 0.7325806 0.6691165
vt 0.7375937 0.6691165
vt 0.7375937 0.6314647
vt 0.7325806 0.6314647
vt 0.7325806 0.6361579
vt 0.7375937 0.6361579
vt 0.7325806 0.640851
vt 0.7375937 0.640851
vt 0.7038884 0.6646367
vt 0.70079523 0.6615435
vt 0.70079523 0.6659166
vt 0.6978087 0.6646367
vt 0.69652873 0.6615435
vt 0.6978087 0.65855694
vt 0.70079523 0.657277
vt 0.7038884 0.65855694
vt 0.70506173 0.6615435
vt 0.74058026 0.6456508
vt 0.73866034 0.6456508
vt 0.73866034 0.65034395
vt 0.74058026 0.65034395
vt 0.73866034 0.6550371
vt 0.74058026 0.6550371
vt 0.73866034 0.65973026
vt 0.74058026 0.65973026
vt 0.73866034 0.66442335
vt 0.74058026 0.66442335
vt 0.73866034 0.6691165
vt 0.74058026 0.6691165
vt 0.74058026 0.6314647
vt 0.73866034 0.6314647
vt 0.73866034 0.6361579
vt 0.74058026 0.6361579
vt 0.73866034 0.640851
vt 0.74058026 0.640851
vt 0.7375937 0.65034395
vt 0.73866034 0.65034395
vt 0.73866034 0.6456508
vt 0.7375937 0.6456508
vt 0.7375937 0.6550371
vt 0.73866034 0.6550371
vt 0.7375937 0.65973026
vt 0.73866034 0.65973026
vt 0.7375937 0.66442335
vt 0.73866034 0.66442335
vt 0.7375937 0.6691165
vt 0.73866034 0.6691165
vt 0.7375937 0.6361579
vt 0.73866034 0.6361579
vt 0.73866034 0.6314647
vt 0.7375937 0.6314647
vt 0.7375937 0.640851
vt 0.73866034 0.640851
vn 0.34559643 -0.6933723 -0.6322957
vn 0.34559643 -0.6933723 -0.6322957
vn -0.14128983 -0.97932136 -0.14479947
vn -0.14128983 -0.97932136 -0.14479947
vn -0.63590443 -0.6933723 0.33891055
vn -0.63590443 -0.6933723 0.33891055
vn -0.8368416 0.0021794438 0.54744077
vn -0.8368416 0.0021794438 0.54744077
vn -0.63590443 0.6900029 0.3457188
vn -0.63590443 0.6900029 0.3457188
vn -0.14128983 0.9759519 -0.16599731
vn -0.14128983 0.9759519 -0.16599731
vn -0.14128983 0.9759519 -0.16599731
vn -0.14128983 0.9759519 -0.16599731
vn 0.34559643 0.6900029 -0.63597095
vn 0.34559643 0.6900029 -0.63597095
vn 0.5465336 0.0021794438 -0.83743435
vn 0.5465336 0.0021794438 -0.83743435
vn -0.7054596 0.0021794438 -0.70874673
vn -0.7054596 0.0021794438 -0.70874673
vn -0.7054596 0.0021794438 -0.70874673
vn -0.7054596 0.0021794438 -0.70874673
vn -0.7054596 0.0021794438 -0.70874673
vn -0.7054596 0.0021794438 -0.70874673
vn -0.7054596 0.0021794438 -0.70874673
vn -0.7054596 0.0021794438 -0.70874673
vn -0.7054596 0.0021794438 -0.70874673
vn 0.2528562 -0.67018723 -0.6977914
vn 0.2528562 -0.67018723 -0.6977914
vn -0.21857333 -0.94840795 -0.22966938
vn -0.21857333 -0.94840795 -0.22966938
vn -0.69773126 -0.67018723 0.25302204
vn -0.69773126 -0.67018723 0.25302204
vn -0.89094007 0.0021794438 0.4541157
vn -0.89094007 0.0021794438 0.4541157
vn -0.69773126 0.6745461 0.24116096
vn -0.69773126 0.6745461 0.24116096
vn -0.21857333 0.9527669 -0.21085766
vn -0.21857333 0.9527669 -0.21085766
vn -0.21857333 0.9527669 -0.21085766
vn -0.21857333 0.9527669 -0.21085766
vn 0.2528562 0.6745461 -0.6935786
vn 0.2528562 0.6745461 -0.6935786
vn 0.45379335 0.0021794438 -0.8911043
vn 0.45379335 0.0021794438 -0.8911043
vn -0.5586209 -0.6083604 -0.5637732
vn -0.5586209 -0.6083604 -0.5637732
vn -0.25721514 -0.43060833 -0.8651109
vn -0.25721514 -0.43060833 -0.8651109
vn -0.86775494 -0.43060833 -0.24814877
vn -0.86775494 -0.43060833 -0.24814877
vn -0.9914086 0.0021794438 -0.13078336
vn -0.9914086 0.0021794438 -0.13078336
vn -0.86775494 0.42723882 -0.25390616
vn -0.86775494 0.42723882 -0.25390616
vn -0.5586209 0.60499096 -0.56738746
vn -0.5586209 0.60499096 -0.56738746
vn -0.25721514 0.42723882 -0.86677986
vn -0.25721514 0.42723882 -0.86677986
vn -0.5586209 0.60499096 -0.56738746
vn -0.5586209 0.60499096 -0.56738746
vn -0.13356149 0.0021794438 -0.99103814
vn -0.13356149 0.0021794438 -0.99103814
g Thorn_10_CorpsePart_0
f 3/3/3 2/2/2 1/1/1
f 4/4/4 3/3/3 1/1/1
f 5/5/5 3/3/3 4/4/4
f 6/6/6 5/5/5 4/4/4
f 7/7/7 5/5/5 6/6/6
f 8/8/8 7/7/7 6/6/6
f 9/9/9 7/7/7 8/8/8
f 10/10/10 9/9/9 8/8/8
f 11/11/11 9/9/9 10/10/10
f 12/12/12 11/11/11 10/10/10
f 15/15/15 14/14/14 13/13/13
f 16/16/16 15/15/15 13/13/13
f 17/17/17 15/15/15 16/16/16
f 18/18/18 17/17/17 16/16/16
f 2/2/2 17/17/17 18/18/18
f 1/1/1 2/2/2 18/18/18
f 21/21/21 20/20/20 19/19/19
f 22/22/22 20/20/20 21/21/21
f 23/23/23 20/20/20 22/22/22
f 24/24/24 20/20/20 23/23/23
f 25/25/25 20/20/20 24/24/24
f 26/26/26 20/20/20 25/25/25
f 27/27/27 20/20/20 26/26/26
f 19/19/19 20/20/20 27/27/27
f 30/30/30 29/29/29 28/28/28
f 31/31/31 30/30/30 28/28/28
f 32/32/32 30/30/30 31/31/31
f 33/33/33 32/32/32 31/31/31
f 34/34/34 32/32/32 33/33/33
f 35/35/35 34/34/34 33/33/33
f 36/36/36 34/34/34 35/35/35
f 37/37/37 36/36/36 35/35/35
f 38/38/38 36/36/36 37/37/37
f 39/39/39 38/38/38 37/37/37
f 42/42/42 41/41/41 40/40/40
f 43/43/43 42/42/42 40/40/40
f 44/44/44 42/42/42 43/43/43
f 45/45/45 44/44/44 43/43/43
f 29/29/29 44/44/44 45/45/45
f 28/28/28 29/29/29 45/45/45
f 48/48/48 47/47/47 46/46/46
f 49/49/49 48/48/48 46/46/46
f 47/47/47 51/51/51 50/50/50
f 46/46/46 47/47/47 50/50/50
f 51/51/51 53/53/53 52/52/52
f 50/50/50 51/51/51 52/52/52
f 53/53/53 55/55/55 54/54/54
f 52/52/52 53/53/53 54/54/54
f 55/55/55 57/57/57 56/56/56
f 54/54/54 55/55/55 56/56/56
f 60/60/60 59/59/59 58/58/58
f 61/61/61 60/60/60 58/58/58
f 59/59/59 63/63/63 62/62/62
f 58/58/58 59/59/59 62/62/62
f 63/63/63 48/48/48 49/49/49
f 62/62/62 63/63/63 49/49/49
