g Thorn_02_CorpsePart
v 7.5693235 1.3671427 0.119923115
v 7.737836 1.3917503 0.14453077
v 7.737836 1.4824104 0.10697174
v 7.5693235 1.4824104 0.07214689
v 7.737836 1.5732145 0.14453077
v 7.5693235 1.5978222 0.119923115
v 7.737836 1.6107731 0.2353344
v 7.5693235 1.6455984 0.2353344
v 7.737836 1.5732145 0.3259945
v 7.5693235 1.5978222 0.35060215
v 7.737836 1.4824104 0.36355305
v 7.5693235 1.4824104 0.39837837
v 7.5693235 1.4824104 0.39837837
v 7.737836 1.4824104 0.36355305
v 7.737836 1.3917503 0.3259945
v 7.5693235 1.3671427 0.35060215
v 7.737836 1.3541918 0.2353344
v 7.5693235 1.3193665 0.2353344
v 7.737836 1.3917503 0.14453077
v 7.737836 1.4824104 0.2353344
v 7.737836 1.4824104 0.10697174
v 7.737836 1.5732145 0.14453077
v 7.737836 1.6107731 0.2353344
v 7.737836 1.5732145 0.3259945
v 7.737836 1.4824104 0.36355305
v 7.737836 1.3917503 0.3259945
v 7.737836 1.3541918 0.2353344
v 7.4854274 1.3336134 0.08639336
v 7.549177 1.3484354 0.10135937
v 7.549177 1.4824104 0.04581213
v 7.4854274 1.4824104 0.024802208
v 7.549177 1.6163855 0.10135937
v 7.4854274 1.6313515 0.08639336
v 7.549177 1.6719322 0.2353344
v 7.4854274 1.6929426 0.2353344
v 7.549177 1.6163855 0.36930943
v 7.4854274 1.6313515 0.38413143
v 7.549177 1.4824104 0.42471218
v 7.4854274 1.4824104 0.44572258
v 7.4854274 1.4824104 0.44572258
v 7.549177 1.4824104 0.42471218
v 7.549177 1.3484354 0.36930943
v 7.4854274 1.3336134 0.38413143
v 7.549177 1.2930317 0.2353344
v 7.4854274 1.2720222 0.2353344
v 7.5693235 1.4824104 0.07214689
v 7.549177 1.4824104 0.04581213
v 7.549177 1.3484354 0.10135937
v 7.5693235 1.3671427 0.119923115
v 7.5693235 1.5978222 0.119923115
v 7.549177 1.6163855 0.10135937
v 7.5693235 1.6455984 0.2353344
v 7.549177 1.6719322 0.2353344
v 7.5693235 1.5978222 0.35060215
v 7.549177 1.6163855 0.36930943
v 7.5693235 1.4824104 0.39837837
v 7.549177 1.4824104 0.42471218
v 7.5693235 1.3671427 0.35060215
v 7.549177 1.3484354 0.36930943
v 7.549177 1.4824104 0.42471218
v 7.5693235 1.4824104 0.39837837
v 7.5693235 1.3193665 0.2353344
v 7.549177 1.2930317 0.2353344
vt 0.7375937 0.6456508
vt 0.7325806 0.6456508
vt 0.7325806 0.65034395
vt 0.7375937 0.65034395
vt 0.7325806 0.6550371
vt 0.7375937 0.6550371
vt 0.7325806 0.65973026
vt 0.7375937 0.65973026
vt 0.7325806 0.66442335
vt 0.7375937 0.66442335
vt 0.7325806 0.6691165
vt 0.7375937 0.6691165
vt 0.7375937 0.6314647
vt 0.7325806 0.6314647
vt 0.7325806 0.6361579
vt 0.7375937 0.6361579
vt 0.7325806 0.640851
vt 0.7375937 0.640851
vt 0.7038884 0.6646367
vt 0.70079523 0.6615435
vt 0.70079523 0.6659166
vt 0.6978087 0.6646367
vt 0.69652873 0.6615435
vt 0.6978087 0.65855694
vt 0.70079523 0.657277
vt 0.7038884 0.65855694
vt 0.70506173 0.6615435
vt 0.74058026 0.6456508
vt 0.73866034 0.6456508
vt 0.73866034 0.65034395
vt 0.74058026 0.65034395
vt 0.73866034 0.6550371
vt 0.74058026 0.6550371
vt 0.73866034 0.65973026
vt 0.74058026 0.65973026
vt 0.73866034 0.66442335
vt 0.74058026 0.66442335
vt 0.73866034 0.6691165
vt 0.74058026 0.6691165
vt 0.74058026 0.6314647
vt 0.73866034 0.6314647
vt 0.73866034 0.6361579
vt 0.74058026 0.6361579
vt 0.73866034 0.640851
vt 0.74058026 0.640851
vt 0.7375937 0.65034395
vt 0.73866034 0.65034395
vt 0.73866034 0.6456508
vt 0.7375937 0.6456508
vt 0.7375937 0.6550371
vt 0.73866034 0.6550371
vt 0.7375937 0.65973026
vt 0.73866034 0.65973026
vt 0.7375937 0.66442335
vt 0.73866034 0.66442335
vt 0.7375937 0.6691165
vt 0.73866034 0.6691165
vt 0.7375937 0.6361579
vt 0.73866034 0.6361579
vt 0.73866034 0.6314647
vt 0.7375937 0.6314647
vt 0.7375937 0.640851
vt 0.73866034 0.640851
vn 0.2005074 -0.6895169 -0.6959621
vn 0.2005074 -0.6895169 -0.6959621
vn 0.2005074 0.001306057 -0.9796913
vn 0.2005074 0.001306057 -0.9796913
vn 0.2005074 0.692129 -0.69336444
vn 0.2005074 0.692129 -0.69336444
vn 0.2005074 0.97932506 -0.026818823
vn 0.2005074 0.97932506 -0.026818823
vn 0.2005074 0.692129 0.69336444
vn 0.2005074 0.692129 0.69336444
vn 0.2005074 0.001306057 0.9796913
vn 0.2005074 0.001306057 0.9796913
vn 0.2005074 0.001306057 0.9796913
vn 0.2005074 0.001306057 0.9796913
vn 0.2005074 -0.6895169 0.6959621
vn 0.2005074 -0.6895169 0.6959621
vn 0.2005074 -0.976713 -0.07634461
vn 0.2005074 -0.976713 -0.07634461
vn 0.99999917 0.001306057 -0
vn 0.99999917 0.001306057 -0
vn 0.99999917 0.001306057 -0
vn 0.99999917 0.001306057 -0
vn 0.99999917 0.001306057 -0
vn 0.99999917 0.001306057 -0
vn 0.99999917 0.001306057 -0
vn 0.99999917 0.001306057 -0
vn 0.99999917 0.001306057 -0
vn 0.3091762 -0.6739928 -0.6709275
vn 0.3091762 -0.6739928 -0.6709275
vn 0.3091762 0.001306057 -0.95100385
vn 0.3091762 0.001306057 -0.95100385
vn 0.3091762 0.6688428 -0.6760617
vn 0.3091762 0.6688428 -0.6760617
vn 0.3091762 0.9482769 -0.07197926
vn 0.3091762 0.9482769 -0.07197926
vn 0.3091762 0.6688428 0.6760617
vn 0.3091762 0.6688428 0.6760617
vn 0.3091762 0.001306057 0.95100385
vn 0.3091762 0.001306057 0.95100385
vn 0.3091762 0.001306057 0.95100385
vn 0.3091762 0.001306057 0.95100385
vn 0.3091762 -0.6739928 0.6709275
vn 0.3091762 -0.6739928 0.6709275
vn 0.3084656 -0.9512355 -0
vn 0.3084656 -0.9512355 -0
vn 0.79042363 0.001306057 -0.6125592
vn 0.79042363 0.001306057 -0.6125592
vn 0.79042363 -0.4333691 -0.4329223
vn 0.79042363 -0.4333691 -0.4329223
vn 0.79042363 0.42821908 -0.43801704
vn 0.79042363 0.42821908 -0.43801704
vn 0.79042363 0.60674644 -0.08419773
vn 0.79042363 0.60674644 -0.08419773
vn 0.79042363 0.42821908 0.43801704
vn 0.79042363 0.42821908 0.43801704
vn 0.79042363 0.001306057 0.6125592
vn 0.79042363 0.001306057 0.6125592
vn 0.79042363 -0.4333691 0.4329223
vn 0.79042363 -0.4333691 0.4329223
vn 0.79042363 0.001306057 0.6125592
vn 0.79042363 0.001306057 0.6125592
vn 0.79042363 -0.6118964 -0.02851851
vn 0.79042363 -0.6118964 -0.02851851
g Thorn_02_CorpsePart_0
f 3/3/3 2/2/2 1/1/1
f 4/4/4 3/3/3 1/1/1
f 5/5/5 3/3/3 4/4/4
f 6/6/6 5/5/5 4/4/4
f 7/7/7 5/5/5 6/6/6
f 8/8/8 7/7/7 6/6/6
f 9/9/9 7/7/7 8/8/8
f 10/10/10 9/9/9 8/8/8
f 11/11/11 9/9/9 10/10/10
f 12/12/12 11/11/11 10/10/10
f 15/15/15 14/14/14 13/13/13
f 16/16/16 15/15/15 13/13/13
f 17/17/17 15/15/15 16/16/16
f 18/18/18 17/17/17 16/16/16
f 2/2/2 17/17/17 18/18/18
f 1/1/1 2/2/2 18/18/18
f 21/21/21 20/20/20 19/19/19
f 22/22/22 20/20/20 21/21/21
f 23/23/23 20/20/20 22/22/22
f 24/24/24 20/20/20 23/23/23
f 25/25/25 20/20/20 24/24/24
f 26/26/26 20/20/20 25/25/25
f 27/27/27 20/20/20 26/26/26
f 19/19/19 20/20/20 27/27/27
f 30/30/30 29/29/29 28/28/28
f 31/31/31 30/30/30 28/28/28
f 32/32/32 30/30/30 31/31/31
f 33/33/33 32/32/32 31/31/31
f 34/34/34 32/32/32 33/33/33
f 35/35/35 34/34/34 33/33/33
f 36/36/36 34/34/34 35/35/35
f 37/37/37 36/36/36 35/35/35
f 38/38/38 36/36/36 37/37/37
f 39/39/39 38/38/38 37/37/37
f 42/42/42 41/41/41 40/40/40
f 43/43/43 42/42/42 40/40/40
f 44/44/44 42/42/42 43/43/43
f 45/45/45 44/44/44 43/43/43
f 29/29/29 44/44/44 45/45/45
f 28/28/28 29/29/29 45/45/45
f 48/48/48 47/47/47 46/46/46
f 49/49/49 48/48/48 46/46/46
f 47/47/47 51/51/51 50/50/50
f 46/46/46 47/47/47 50/50/50
f 51/51/51 53/53/53 52/52/52
f 50/50/50 51/51/51 52/52/52
f 53/53/53 55/55/55 54/54/54
f 52/52/52 53/53/53 54/54/54
f 55/55/55 57/57/57 56/56/56
f 54/54/54 55/55/55 56/56/56
f 60/60/60 59/59/59 58/58/58
f 61/61/61 60/60/60 58/58/58
f 59/59/59 63/63/63 62/62/62
f 58/58/58 59/59/59 62/62/62
f 63/63/63 48/48/48 49/49/49
f 62/62/62 63/63/63 49/49/49
