g Thorn_06
v 6.828073 1.3671484 -0.62140894
v 6.8034873 1.3917341 -0.7898278
v 6.712638 1.3541327 -0.7898278
v 6.712638 1.3192911 -0.62140894
v 6.6220517 1.3917341 -0.7898278
v 6.5973344 1.3671484 -0.62140894
v 6.5844502 1.4824514 -0.7898278
v 6.549609 1.4824514 -0.62140894
v 6.6220517 1.5731697 -0.7898278
v 6.5973344 1.5977554 -0.62140894
v 6.712638 1.6107712 -0.7898278
v 6.712638 1.6456118 -0.62140894
v 6.712638 1.6456118 -0.62140894
v 6.712638 1.6107712 -0.7898278
v 6.8034873 1.5731697 -0.7898278
v 6.828073 1.5977554 -0.62140894
v 6.841089 1.4824514 -0.7898278
v 6.875798 1.4824514 -0.62140894
v 6.8034873 1.3917341 -0.7898278
v 6.712638 1.4824514 -0.7898278
v 6.712638 1.3541327 -0.7898278
v 6.6220517 1.3917341 -0.7898278
v 6.5844502 1.4824514 -0.7898278
v 6.6220517 1.5731697 -0.7898278
v 6.712638 1.6107712 -0.7898278
v 6.8034873 1.5731697 -0.7898278
v 6.841089 1.4824514 -0.7898278
v 6.861599 1.333622 -0.53739643
v 6.846742 1.3484793 -0.6011615
v 6.712638 1.2929964 -0.6011615
v 6.712638 1.2719603 -0.53739643
v 6.5786653 1.3484793 -0.6011615
v 6.56394 1.333622 -0.53739643
v 6.523183 1.4824514 -0.6011615
v 6.5022783 1.4824514 -0.53739643
v 6.5786653 1.6164246 -0.6011615
v 6.56394 1.6312809 -0.53739643
v 6.712638 1.6719065 -0.6011615
v 6.712638 1.6929426 -0.53739643
v 6.712638 1.6929426 -0.53739643
v 6.712638 1.6719065 -0.6011615
v 6.846742 1.6164246 -0.6011615
v 6.861599 1.6312809 -0.53739643
v 6.9022245 1.4824514 -0.6011615
v 6.9232607 1.4824514 -0.53739643
v 6.712638 1.3192911 -0.62140894
v 6.712638 1.2929964 -0.6011615
v 6.846742 1.3484793 -0.6011615
v 6.828073 1.3671484 -0.62140894
v 6.5973344 1.3671484 -0.62140894
v 6.5786653 1.3484793 -0.6011615
v 6.549609 1.4824514 -0.62140894
v 6.523183 1.4824514 -0.6011615
v 6.5973344 1.5977554 -0.62140894
v 6.5786653 1.6164246 -0.6011615
v 6.712638 1.6456118 -0.62140894
v 6.712638 1.6719065 -0.6011615
v 6.828073 1.5977554 -0.62140894
v 6.846742 1.6164246 -0.6011615
v 6.712638 1.6719065 -0.6011615
v 6.712638 1.6456118 -0.62140894
v 6.875798 1.4824514 -0.62140894
v 6.9022245 1.4824514 -0.6011615
vt 0.7377957 0.64601463
vt 0.7327914 0.64601463
vt 0.7327914 0.6506995
vt 0.7377957 0.6506995
vt 0.7327914 0.6553844
vt 0.7377957 0.6553844
vt 0.7327914 0.66017574
vt 0.7377957 0.66017574
vt 0.7327914 0.66486067
vt 0.7377957 0.66486067
vt 0.7327914 0.66954553
vt 0.7377957 0.66954553
vt 0.7377957 0.6318535
vt 0.7327914 0.6318535
vt 0.7327914 0.6365384
vt 0.7377957 0.6365384
vt 0.7327914 0.64132977
vt 0.7377957 0.64132977
vt 0.70404327 0.6649671
vt 0.7009555 0.6619858
vt 0.7009555 0.6662448
vt 0.6979742 0.6649671
vt 0.6966965 0.6619858
vt 0.6979742 0.65889806
vt 0.7009555 0.6577268
vt 0.70404327 0.65889806
vt 0.70532095 0.6619858
vt 0.740777 0.64601463
vt 0.7388605 0.64601463
vt 0.7388605 0.6506995
vt 0.740777 0.6506995
vt 0.7388605 0.6553844
vt 0.740777 0.6553844
vt 0.7388605 0.66017574
vt 0.740777 0.66017574
vt 0.7388605 0.66486067
vt 0.740777 0.66486067
vt 0.7388605 0.66954553
vt 0.740777 0.66954553
vt 0.740777 0.6318535
vt 0.7388605 0.6318535
vt 0.7388605 0.6365384
vt 0.740777 0.6365384
vt 0.7388605 0.64132977
vt 0.740777 0.64132977
vt 0.7377957 0.6506995
vt 0.7388605 0.6506995
vt 0.7388605 0.64601463
vt 0.7377957 0.64601463
vt 0.7377957 0.6553844
vt 0.7388605 0.6553844
vt 0.7377957 0.66017574
vt 0.7388605 0.66017574
vt 0.7377957 0.66486067
vt 0.7388605 0.66486067
vt 0.7377957 0.66954553
vt 0.7388605 0.66954553
vt 0.7377957 0.6365384
vt 0.7388605 0.6365384
vt 0.7388605 0.6318535
vt 0.7377957 0.6318535
vt 0.7377957 0.64132977
vt 0.7388605 0.64132977
vn 0.6951675 -0.6951675 -0.18298727
vn 0.6951675 -0.6951675 -0.18298727
vn -0.0038208961 -0.97937155 -0.20203164
vn -0.0038208961 -0.97937155 -0.20203164
vn -0.6951281 -0.6951675 -0.18313688
vn -0.6951281 -0.6951675 -0.18313688
vn -0.9793322 0.0038208961 -0.20222215
vn -0.9793322 0.0038208961 -0.20222215
vn -0.6951281 0.6951281 -0.18328637
vn -0.6951281 0.6951281 -0.18328637
vn -0.0038208961 0.9793322 -0.20222214
vn -0.0038208961 0.9793322 -0.20222214
vn -0.0038208961 0.9793322 -0.20222214
vn -0.0038208961 0.9793322 -0.20222214
vn 0.6951675 0.6951281 -0.18313688
vn 0.6951675 0.6951281 -0.18313688
vn 0.97937155 0.0038208961 -0.20203166
vn 0.97937155 0.0038208961 -0.20203166
vn -0.0038208961 0.0038208961 -0.9999854
vn -0.0038208961 0.0038208961 -0.9999854
vn -0.0038208961 0.0038208961 -0.9999854
vn -0.0038208961 0.0038208961 -0.9999854
vn -0.0038208961 0.0038208961 -0.9999854
vn -0.0038208961 0.0038208961 -0.9999854
vn -0.0038208961 0.0038208961 -0.9999854
vn -0.0038208961 0.0038208961 -0.9999854
vn -0.0038208961 0.0038208961 -0.9999854
vn 0.6721239 -0.6721239 -0.31064278
vn 0.6721239 -0.6721239 -0.31064278
vn -0.0038208961 -0.9486468 -0.31631422
vn -0.0038208961 -0.9486468 -0.31631422
vn -0.67208457 -0.6721239 -0.31072778
vn -0.67208457 -0.6721239 -0.31072778
vn -0.94860744 0.0038208961 -0.31643215
vn -0.94860744 0.0038208961 -0.31643215
vn -0.67208457 0.67208457 -0.31081283
vn -0.67208457 0.67208457 -0.31081283
vn -0.0038208961 0.94860744 -0.31643215
vn -0.0038208961 0.94860744 -0.31643215
vn -0.0038208961 0.94860744 -0.31643215
vn -0.0038208961 0.94860744 -0.31643215
vn 0.6721239 0.67208457 -0.31072786
vn 0.6721239 0.67208457 -0.31072786
vn 0.9486468 0.0038208961 -0.31631422
vn 0.9486468 0.0038208961 -0.31631422
vn -0.0038208961 -0.6106744 -0.7918726
vn -0.0038208961 -0.6106744 -0.7918726
vn 0.434007 -0.4263258 -0.7936525
vn 0.4263258 -0.434007 -0.7936525
vn -0.4339676 -0.434007 -0.7894999
vn -0.4339676 -0.434007 -0.7894999
vn -0.61063504 0.0038208961 -0.7919029
vn -0.61063504 0.0038208961 -0.7919029
vn -0.4339676 0.4339676 -0.7895216
vn -0.4339676 0.4339676 -0.7895216
vn -0.0038208961 0.61063504 -0.7919029
vn -0.0038208961 0.61063504 -0.7919029
vn 0.4263258 0.4339676 -0.79367405
vn 0.434007 0.42628646 -0.79367363
vn -0.0038208961 0.61063504 -0.7919029
vn -0.0038208961 0.61063504 -0.7919029
vn 0.6106744 0.0038208961 -0.7918726
vn 0.6106744 0.0038208961 -0.7918726
g Thorn_06_0
f 3/3/3 2/2/2 1/1/1
f 4/4/4 3/3/3 1/1/1
f 5/5/5 3/3/3 4/4/4
f 6/6/6 5/5/5 4/4/4
f 7/7/7 5/5/5 6/6/6
f 8/8/8 7/7/7 6/6/6
f 9/9/9 7/7/7 8/8/8
f 10/10/10 9/9/9 8/8/8
f 11/11/11 9/9/9 10/10/10
f 12/12/12 11/11/11 10/10/10
f 15/15/15 14/14/14 13/13/13
f 16/16/16 15/15/15 13/13/13
f 17/17/17 15/15/15 16/16/16
f 18/18/18 17/17/17 16/16/16
f 2/2/2 17/17/17 18/18/18
f 1/1/1 2/2/2 18/18/18
f 21/21/21 20/20/20 19/19/19
f 22/22/22 20/20/20 21/21/21
f 23/23/23 20/20/20 22/22/22
f 24/24/24 20/20/20 23/23/23
f 25/25/25 20/20/20 24/24/24
f 26/26/26 20/20/20 25/25/25
f 27/27/27 20/20/20 26/26/26
f 19/19/19 20/20/20 27/27/27
f 30/30/30 29/29/29 28/28/28
f 31/31/31 30/30/30 28/28/28
f 32/32/32 30/30/30 31/31/31
f 33/33/33 32/32/32 31/31/31
f 34/34/34 32/32/32 33/33/33
f 35/35/35 34/34/34 33/33/33
f 36/36/36 34/34/34 35/35/35
f 37/37/37 36/36/36 35/35/35
f 38/38/38 36/36/36 37/37/37
f 39/39/39 38/38/38 37/37/37
f 42/42/42 41/41/41 40/40/40
f 43/43/43 42/42/42 40/40/40
f 44/44/44 42/42/42 43/43/43
f 45/45/45 44/44/44 43/43/43
f 29/29/29 44/44/44 45/45/45
f 28/28/28 29/29/29 45/45/45
f 48/48/48 47/47/47 46/46/46
f 49/49/49 48/48/48 46/46/46
f 47/47/47 51/51/51 50/50/50
f 46/46/46 47/47/47 50/50/50
f 51/51/51 53/53/53 52/52/52
f 50/50/50 51/51/51 52/52/52
f 53/53/53 55/55/55 54/54/54
f 52/52/52 53/53/53 54/54/54
f 55/55/55 57/57/57 56/56/56
f 54/54/54 55/55/55 56/56/56
f 60/60/60 59/59/59 58/58/58
f 61/61/61 60/60/60 58/58/58
f 59/59/59 63/63/63 62/62/62
f 58/58/58 59/59/59 62/62/62
f 63/63/63 48/48/48 49/49/49
f 62/62/62 63/63/63 49/49/49
