g TowerDefenceTracks25_CorpsePart
v -0.042565703 -0.079167575 -0.19380227
v -0.08522987 -0.08224538 -0.19616501
v -0.09749958 0.08043185 -0.18676585
v -0.05483541 0.083509624 -0.18441346
v -0.05483541 0.083509624 -0.18441346
v -0.09749958 0.08043185 -0.18676585
v -0.09020409 0.089261055 -0.33017838
v -0.047571003 0.0923492 -0.32781562
v -0.047571003 0.0923492 -0.32781562
v -0.09020409 0.089261055 -0.33017838
v -0.077934384 -0.073426515 -0.33956718
v -0.035270214 -0.07034874 -0.3372148
v -0.035270214 -0.07034874 -0.3372148
v -0.077934384 -0.073426515 -0.33956718
v -0.08522987 -0.08224538 -0.19616501
v -0.042565703 -0.079167575 -0.19380227
v -0.035270214 -0.07034874 -0.3372148
v -0.042565703 -0.079167575 -0.19380227
v -0.05483541 0.083509624 -0.18441346
v -0.047571003 0.0923492 -0.32781562
v 0.11640158 -0.03631687 0.24333704
v 0.09711617 -0.03563294 0.28679913
v 0.0976654 0.033404887 0.2882396
v 0.11695081 0.032586217 0.2447775
v 0.052773207 -0.034855723 0.30387723
v 0.053322434 0.034606993 0.30532807
v 0.12930343 0.046949238 -0.23857011
v 0.112277135 0.050275713 -0.2828716
v 0.11154136 -0.039601922 -0.2847473
v 0.1286091 -0.04041025 -0.24040434
v 0.06885648 0.05280429 -0.30211556
v 0.06812072 -0.03853455 -0.3040327
v -0.041684866 -0.03344634 0.20450717
v -0.041104525 0.03909412 0.20602012
v -0.12627742 0.04517716 0.20397866
v -0.12688884 -0.030596554 0.20239311
v -0.030513614 0.05172652 -0.20767823
v -0.03121829 -0.035218418 -0.2095021
v -0.116422266 -0.032917857 -0.2116265
v -0.115686506 0.059312195 -0.20968863
v 0.029270083 -0.037021577 -0.14586337
v 0.029912591 0.04442066 -0.14416386
v 0.02252382 0.035943806 0.14544883
v 0.02194351 -0.035280585 0.14395657
v -0.12932411 -0.031435937 0.29930717
v -0.12872308 0.043985426 0.3008927
v -0.113220125 0.06302214 -0.3065509
v -0.11397663 -0.032347888 -0.30854058
v 0.052773207 -0.034855723 0.30387723
v -0.041684866 -0.03344634 0.20450717
v -0.12688884 -0.030596554 0.20239311
v -0.12932411 -0.031435937 0.29930717
v -0.12872308 0.043985426 0.3008927
v -0.12627742 0.04517716 0.20397866
v -0.041104525 0.03909412 0.20602012
v 0.053322434 0.034606993 0.30532807
v 0.06885648 0.05280429 -0.30211556
v -0.030513614 0.05172652 -0.20767823
v -0.115686506 0.059312195 -0.20968863
v -0.113220125 0.06302214 -0.3065509
v -0.11397663 -0.032347888 -0.30854058
v -0.116422266 -0.032917857 -0.2116265
v -0.03121829 -0.035218418 -0.2095021
v 0.06812072 -0.03853455 -0.3040327
v 0.1286091 -0.04041025 -0.24040434
v 0.029270083 -0.037021577 -0.14586337
v 0.02194351 -0.035280585 0.14395657
v 0.11640158 -0.03631687 0.24333704
v 0.11695081 0.032586217 0.2447775
v 0.02252382 0.035943806 0.14544883
v 0.029912591 0.04442066 -0.14416386
v 0.12930343 0.046949238 -0.23857011
v 0.09711617 -0.03563294 0.28679913
v 0.002658099 -0.034638077 0.1874187
v 0.112277135 0.050275713 -0.2828716
v 0.012886316 0.047684997 -0.188455
v 0.002658099 -0.034638077 0.1874187
v 0.0032384396 0.037011176 0.18891096
v 0.0976654 0.033404887 0.2882396
v 0.0032384396 0.037011176 0.18891096
v 0.012886316 0.047684997 -0.188455
v 0.0122127235 -0.036534518 -0.19021669
v 0.11154136 -0.039601922 -0.2847473
v 0.0122127235 -0.036534518 -0.19021669
v -0.042565703 -0.08925071 0.33017838
v -0.08522987 -0.092328504 0.3278156
v -0.09749958 0.07035908 0.33721477
v -0.05483541 0.073436856 0.33956718
v -0.05483541 0.073436856 0.33956718
v -0.09749958 0.07035908 0.33721477
v -0.09020409 0.079177916 0.19380224
v -0.047571003 0.08225572 0.19616497
v -0.047571003 0.08225572 0.19616497
v -0.09020409 0.079177916 0.19380224
v -0.077934384 -0.08349928 0.18441343
v -0.035270214 -0.080411136 0.18676579
v -0.035270214 -0.080411136 0.18676579
v -0.077934384 -0.08349928 0.18441343
v -0.08522987 -0.092328504 0.3278156
v -0.042565703 -0.08925071 0.33017838
v -0.035270214 -0.080411136 0.18676579
v -0.042565703 -0.08925071 0.33017838
v -0.05483541 0.073436856 0.33956718
v -0.047571003 0.08225572 0.19616497
vt 0.9280091 0.49810368
vt 0.9280091 0.4986229
vt 0.925413 0.4986229
vt 0.925413 0.49810368
vt 0.925413 0.49810368
vt 0.92489386 0.49810368
vt 0.92489386 0.49550763
vt 0.925413 0.49550763
vt 0.925413 0.49550763
vt 0.925413 0.49498844
vt 0.9280091 0.49498844
vt 0.9280091 0.49550763
vt 0.9280091 0.49550763
vt 0.9290475 0.49550763
vt 0.9290475 0.49810368
vt 0.9280091 0.49810368
vt 0.9280091 0.49550763
vt 0.9280091 0.49810368
vt 0.925413 0.49810368
vt 0.925413 0.49550763
vt 0.9555272 0.42852962
vt 0.9555272 0.42852962
vt 0.9555272 0.43112567
vt 0.9555272 0.43112567
vt 0.9560464 0.42852962
vt 0.9560464 0.43112567
vt 0.95241195 0.43112567
vt 0.95189273 0.43112567
vt 0.95189273 0.42852962
vt 0.95241195 0.42852962
vt 0.9513735 0.43112567
vt 0.9513735 0.42852962
vt 0.9259322 0.48979634
vt 0.9259322 0.4882387
vt 0.92489386 0.4882387
vt 0.92489386 0.48979634
vt 0.932682 0.4882387
vt 0.932682 0.48979634
vt 0.9337204 0.48979634
vt 0.9337204 0.4882387
vt 0.9311243 0.48979634
vt 0.9311243 0.4882387
vt 0.9274899 0.4882387
vt 0.9274899 0.48979634
vt 0.9586424 0.42852962
vt 0.9586424 0.43112567
vt 0.94877744 0.43112567
vt 0.94877744 0.42852962
vt 0.95241195 0.49446923
vt 0.9534503 0.49706525
vt 0.9534503 0.4991421
vt 0.95241195 0.4991421
vt 0.95968086 0.4991421
vt 0.9586424 0.4991421
vt 0.9586424 0.49706525
vt 0.95968086 0.49446923
vt 0.95241195 0.49446923
vt 0.9534503 0.49706525
vt 0.9534503 0.4991421
vt 0.95241195 0.4991421
vt 0.95968086 0.4991421
vt 0.9586424 0.4991421
vt 0.9586424 0.49706525
vt 0.95968086 0.49446923
vt 0.95916164 0.4934308
vt 0.957604 0.49550763
vt 0.95448875 0.49550763
vt 0.9529311 0.4934308
vt 0.95916164 0.4934308
vt 0.957604 0.49550763
vt 0.95448875 0.49550763
vt 0.9529311 0.4934308
vt 0.95241195 0.4934308
vt 0.95396954 0.49602684
vt 0.95241195 0.4934308
vt 0.95396954 0.49602684
vt 0.92697066 0.48979634
vt 0.92697066 0.4882387
vt 0.95968086 0.4934308
vt 0.9581232 0.49602684
vt 0.93216276 0.4882387
vt 0.93216276 0.48979634
vt 0.95968086 0.4934308
vt 0.9581232 0.49602684
vt 0.9280091 0.49810368
vt 0.9280091 0.4986229
vt 0.925413 0.4986229
vt 0.925413 0.49810368
vt 0.925413 0.49810368
vt 0.92489386 0.49810368
vt 0.92489386 0.49550763
vt 0.925413 0.49550763
vt 0.925413 0.49550763
vt 0.925413 0.49498844
vt 0.9280091 0.49498844
vt 0.9280091 0.49550763
vt 0.9280091 0.49550763
vt 0.9290475 0.49550763
vt 0.9290475 0.49810368
vt 0.9280091 0.49810368
vt 0.9280091 0.49550763
vt 0.9280091 0.49810368
vt 0.925413 0.49810368
vt 0.925413 0.49550763
vn -0.050882816 -0.058897495 0.9969664
vn -0.050882816 -0.058897495 0.9969664
vn -0.050882816 -0.058897495 0.9969664
vn -0.050882816 -0.058897495 0.9969664
vn -0.0744071 0.9918562 0.10336725
vn -0.0744071 0.9918562 0.10336725
vn -0.0744071 0.9918562 0.10336725
vn -0.0744071 0.9918562 0.10336725
vn 0.051056027 0.058724165 -0.9969678
vn 0.051056027 0.058724165 -0.9969678
vn 0.051056027 0.058724165 -0.9969678
vn 0.051056027 0.058724165 -0.9969678
vn 0.07458037 -0.9920294 -0.10156456
vn 0.07458037 -0.9920294 -0.10156456
vn 0.07458037 -0.9920294 -0.10156456
vn 0.07458037 -0.9920294 -0.10156456
vn 0.9920294 0.0744071 0.10169163
vn 0.9920294 0.0744071 0.10169163
vn 0.9920294 0.0744071 0.10169163
vn 0.9920294 0.0744071 0.10169163
vn 0.9998709 -0.011848807 0.010854174
vn 0.69405454 -0.019690216 0.71965307
vn 0.6862131 -0.019690216 0.72713405
vn 0.9998709 -0.011848807 0.010854174
vn 0.051056027 -0.019690216 0.99850166
vn 0.051056027 -0.019690216 0.99850166
vn 0.9998709 -0.0040073395 -0.015561123
vn 0.7175789 0.011675596 -0.69637936
vn 0.72542036 0.011675596 -0.6882071
vn 0.9998709 -0.0040073395 -0.015561123
vn 0.098104715 0.019516945 -0.9949847
vn 0.10594612 0.019516945 -0.9941803
vn -0.11361432 0.019516945 -0.9933332
vn -0.10577285 0.019516945 -0.99419874
vn 0.027531683 0.019516945 -0.99943036
vn 0.027531683 0.019516945 -0.99943036
vn -0.15282154 -0.019690216 0.9880576
vn -0.16066301 -0.019690216 0.9868129
vn -0.027358413 -0.019690216 0.9994317
vn -0.027358413 -0.019690216 0.9994317
vn -0.9996977 0.0038341284 0.024286
vn -0.9996977 0.0038341284 0.024286
vn -0.9996977 0.011675596 -0.021637715
vn -0.9996977 0.011675596 -0.021637715
vn -0.027358413 -0.019690216 0.9994317
vn -0.027358413 -0.019690216 0.9994317
vn 0.027531683 0.019516945 -0.99943036
vn 0.027531683 0.019516945 -0.99943036
vn -0.019515749 -0.9998096 -0
vn -0.019515749 -0.9998096 -0
vn -0.02735171 -0.9996259 -0
vn -0.02735171 -0.9996259 -0
vn 0.058813326 0.998269 -0
vn 0.058813326 0.998269 -0
vn 0.05100499 0.99869835 -0
vn 0.05100499 0.99869835 -0
vn 0.05100499 0.99869835 -0
vn 0.058813326 0.998269 -0
vn 0.06661081 0.997779 -0
vn 0.06661081 0.997779 -0
vn -0.03518263 -0.9993809 -0
vn -0.03518263 -0.9993809 -0
vn -0.02735171 -0.9996259 -0
vn -0.02735171 -0.9996259 -0
vn -0.02735171 -0.9996259 -0
vn -0.02735171 -0.9996259 -0
vn -0.019515749 -0.9998096 -0
vn -0.019515749 -0.9998096 -0
vn 0.011848807 0.9996977 0.02154394
vn 0.0040073395 0.9996977 0.024258537
vn 0.0040073395 0.9996977 0.024258537
vn 0.011848807 0.9996977 0.02154394
vn -0.019515749 -0.9998096 -0
vn -0.019515749 -0.9998096 -0
vn 0.03536172 0.9993746 -0
vn 0.03536172 0.9993746 -0
vn -0.6938813 0.019516945 -0.7198249
vn -0.67819834 0.019516945 -0.73461974
vn 0.043187294 0.99906695 -0
vn 0.043187294 0.99906695 -0
vn -0.7095642 -0.011848807 0.70454115
vn -0.71740556 -0.011848807 0.696555
vn -0.03518263 -0.9993809 -0
vn -0.03518263 -0.9993809 -0
vn -0.050882816 -0.058897495 0.9969664
vn -0.050882816 -0.058897495 0.9969664
vn -0.050882816 -0.058897495 0.9969664
vn -0.050882816 -0.058897495 0.9969664
vn -0.0744071 0.9918562 0.10336725
vn -0.0744071 0.9918562 0.10336725
vn -0.0744071 0.9918562 0.10336725
vn -0.0744071 0.9918562 0.10336725
vn 0.051056027 0.058724165 -0.9969678
vn 0.051056027 0.058724165 -0.9969678
vn 0.051056027 0.058724165 -0.9969678
vn 0.051056027 0.058724165 -0.9969678
vn 0.07458037 -0.9920294 -0.10156456
vn 0.07458037 -0.9920294 -0.10156456
vn 0.07458037 -0.9920294 -0.10156456
vn 0.07458037 -0.9920294 -0.10156456
vn 0.9920294 0.0744071 0.10169163
vn 0.9920294 0.0744071 0.10169163
vn 0.9920294 0.0744071 0.10169163
vn 0.9920294 0.0744071 0.10169163
g TowerDefenceTracks25_CorpsePart_0
f 3/3/3 2/2/2 1/1/1
f 4/4/4 3/3/3 1/1/1
f 7/7/7 6/6/6 5/5/5
f 8/8/8 7/7/7 5/5/5
f 11/11/11 10/10/10 9/9/9
f 12/12/12 11/11/11 9/9/9
f 15/15/15 14/14/14 13/13/13
f 16/16/16 15/15/15 13/13/13
f 19/19/19 18/18/18 17/17/17
f 20/20/20 19/19/19 17/17/17
f 23/23/23 22/22/22 21/21/21
f 24/24/24 23/23/23 21/21/21
f 26/26/26 25/25/25 22/22/22
f 23/23/23 26/26/26 22/22/22
f 29/29/29 28/28/28 27/27/27
f 30/30/30 29/29/29 27/27/27
f 32/32/32 31/31/31 28/28/28
f 29/29/29 32/32/32 28/28/28
f 35/35/35 34/34/34 33/33/33
f 36/36/36 35/35/35 33/33/33
f 39/39/39 38/38/38 37/37/37
f 40/40/40 39/39/39 37/37/37
f 43/43/43 42/42/42 41/41/41
f 44/44/44 43/43/43 41/41/41
f 46/46/46 45/45/45 25/25/25
f 26/26/26 46/46/46 25/25/25
f 48/48/48 47/47/47 31/31/31
f 32/32/32 48/48/48 31/31/31
f 24/24/24 21/21/21 30/30/30
f 27/27/27 24/24/24 30/30/30
f 51/51/51 50/50/50 49/49/49
f 52/52/52 51/51/51 49/49/49
f 55/55/55 54/54/54 53/53/53
f 56/56/56 55/55/55 53/53/53
f 59/59/59 58/58/58 57/57/57
f 60/60/60 59/59/59 57/57/57
f 63/63/63 62/62/62 61/61/61
f 64/64/64 63/63/63 61/61/61
f 67/67/67 66/66/66 65/65/65
f 68/68/68 67/67/67 65/65/65
f 71/71/71 70/70/70 69/69/69
f 72/72/72 71/71/71 69/69/69
f 74/74/74 73/73/73 49/49/49
f 50/50/50 74/74/74 49/49/49
f 67/67/67 68/68/68 73/73/73
f 74/74/74 67/67/67 73/73/73
f 76/76/76 75/75/75 57/57/57
f 58/58/58 76/76/76 57/57/57
f 71/71/71 72/72/72 75/75/75
f 76/76/76 71/71/71 75/75/75
f 78/78/78 77/77/77 33/33/33
f 34/34/34 78/78/78 33/33/33
f 43/43/43 44/44/44 77/77/77
f 78/78/78 43/43/43 77/77/77
f 80/80/80 79/79/79 69/69/69
f 70/70/70 80/80/80 69/69/69
f 55/55/55 56/56/56 79/79/79
f 80/80/80 55/55/55 79/79/79
f 82/82/82 81/81/81 37/37/37
f 38/38/38 82/82/82 37/37/37
f 41/41/41 42/42/42 81/81/81
f 82/82/82 41/41/41 81/81/81
f 84/84/84 83/83/83 65/65/65
f 66/66/66 84/84/84 65/65/65
f 63/63/63 64/64/64 83/83/83
f 84/84/84 63/63/63 83/83/83
f 87/87/87 86/86/86 85/85/85
f 88/88/88 87/87/87 85/85/85
f 91/91/91 90/90/90 89/89/89
f 92/92/92 91/91/91 89/89/89
f 95/95/95 94/94/94 93/93/93
f 96/96/96 95/95/95 93/93/93
f 99/99/99 98/98/98 97/97/97
f 100/100/100 99/99/99 97/97/97
f 103/103/103 102/102/102 101/101/101
f 104/104/104 103/103/103 101/101/101
