g TowerDefenceTracks48_CorpsePart
v 0.22004591 -0.14304069 -0.20645748
v 0.2632321 -0.09608331 -0.024686217
v 0.2837668 0.31896627 0.0403485
v 0.24095777 0.39861137 -0.13631338
v 0.24095777 0.39861137 -0.13631338
v 0.2837668 0.31896627 0.0403485
v -0.20350713 0.24190027 0.15973699
v -0.2605129 0.31251878 -0.0136038065
v -0.2605129 0.31251878 -0.0136038065
v -0.20350713 0.24190027 0.15973699
v -0.24607289 -0.12293175 0.10010359
v -0.29202056 -0.15638584 -0.08093774
v -0.28411323 -0.3986299 -0.0068643093
v -0.23966187 -0.353254 0.17454195
v 0.29201478 -0.35319316 0.044277847
v 0.24757558 -0.3986299 -0.1371406
v 0.2632321 -0.09608331 -0.024686217
v -0.24607289 -0.12293175 0.10010359
v -0.20350713 0.24190027 0.15973699
v 0.2837668 0.31896627 0.0403485
v -0.29202056 -0.15638584 -0.08093774
v 0.22004591 -0.14304069 -0.20645748
v 0.24095777 0.39861137 -0.13631338
v -0.2605129 0.31251878 -0.0136038065
v 0.24757558 -0.3986299 -0.1371406
v 0.29201478 -0.35319316 0.044277847
v 0.29201478 -0.35319316 0.044277847
v -0.23966187 -0.353254 0.17454195
v -0.23966187 -0.353254 0.17454195
v -0.28411323 -0.3986299 -0.0068643093
v -0.28411323 -0.3986299 -0.0068643093
v 0.24757558 -0.3986299 -0.1371406
v -0.18522292 -0.03711897 0.06353524
v -0.14893436 0.04458198 0.20646328
v 0.25090885 0.094167024 0.10850972
v 0.21587329 0.0039869547 -0.034734607
v -0.17893356 0.17751026 0.106283486
v 0.22603115 0.24685144 0.00706473
v -0.17893356 0.17751026 0.106283486
v -0.14893436 0.04458198 0.20646328
v -0.18522292 -0.03711897 0.06353524
v 0.25090885 0.094167024 0.10850972
v 0.22603115 0.24685144 0.00706473
v 0.21587329 0.0039869547 -0.034734607
v -0.18848318 -0.20520447 0.04474011
v -0.1531192 -0.10004917 0.18901849
v 0.2466267 -0.07199639 0.09107706
v 0.21128702 -0.19462082 -0.053213447
v -0.19145149 0.008196086 0.04547003
v 0.21148168 0.057695985 -0.053249925
v -0.19145149 0.008196086 0.04547003
v -0.1531192 -0.10004917 0.18901849
v -0.18848318 -0.20520447 0.04474011
v 0.2466267 -0.07199639 0.09107706
v 0.21148168 0.057695985 -0.053249925
v 0.21128702 -0.19462082 -0.053213447
v -0.17063695 -0.36417827 0.117548406
v -0.15137959 -0.21216291 0.1961472
v 0.24836633 -0.20267412 0.098205835
v 0.2291211 -0.36417827 0.019594818
v -0.19096488 -0.15458539 0.034606576
v 0.208854 -0.13589978 -0.06334698
v -0.19096488 -0.15458539 0.034606576
v -0.15137959 -0.21216291 0.1961472
v -0.17063695 -0.36417827 0.117548406
v 0.24836633 -0.20267412 0.098205835
v 0.208854 -0.13589978 -0.06334698
v 0.2291211 -0.36417827 0.019594818
vt 0.88641995 0.4793879
vt 0.8843684 0.4789776
vt 0.8839581 0.47487444
vt 0.88477874 0.4732332
vt 0.88477874 0.4732332
vt 0.8839581 0.47487444
vt 0.8790343 0.47487444
vt 0.87821364 0.4732332
vt 0.87821364 0.4732332
vt 0.8790343 0.47487444
vt 0.87821364 0.4789776
vt 0.87616205 0.4793879
vt 0.8778033 0.48267043
vt 0.87862396 0.48143947
vt 0.8839581 0.48143947
vt 0.88477874 0.48308074
vt 0.8843684 0.4789776
vt 0.87821364 0.4789776
vt 0.8790343 0.47487444
vt 0.8839581 0.47487444
vt 0.88272715 0.48964578
vt 0.88272715 0.4843117
vt 0.8778033 0.4843117
vt 0.8778033 0.48964578
vt 0.88477874 0.48308074
vt 0.8839581 0.48143947
vt 0.8839581 0.48143947
vt 0.87862396 0.48143947
vt 0.87862396 0.48143947
vt 0.8778033 0.48267043
vt 0.88518906 0.48964578
vt 0.88518906 0.4843117
vt 0.88518906 0.47118163
vt 0.8835478 0.46871972
vt 0.87821364 0.46871972
vt 0.8765724 0.47118163
vt 0.88518906 0.46666816
vt 0.8765724 0.46666816
vt 0.88518906 0.46666816
vt 0.8835478 0.46871972
vt 0.88518906 0.47118163
vt 0.87821364 0.46871972
vt 0.8765724 0.46666816
vt 0.8765724 0.47118163
vt 0.88518906 0.47118163
vt 0.8835478 0.46871972
vt 0.87821364 0.46871972
vt 0.8765724 0.47118163
vt 0.88518906 0.46666816
vt 0.8765724 0.46666816
vt 0.88518906 0.46666816
vt 0.8835478 0.46871972
vt 0.88518906 0.47118163
vt 0.87821364 0.46871972
vt 0.8765724 0.46666816
vt 0.8765724 0.47118163
vt 0.88518906 0.47118163
vt 0.8835478 0.46913004
vt 0.87821364 0.46913004
vt 0.8765724 0.47118163
vt 0.88518906 0.46666816
vt 0.8765724 0.46666816
vt 0.88518906 0.46666816
vt 0.8835478 0.46913004
vt 0.88518906 0.47118163
vt 0.87821364 0.46913004
vt 0.8765724 0.46666816
vt 0.8765724 0.47118163
vn 0.97217757 0.011117876 -0.23398115
vn 0.97217757 0.0034953952 -0.23421906
vn 0.97217757 -0.011749446 -0.23395029
vn 0.97217757 -0.011749446 -0.23395029
vn -0.04923004 0.9105664 0.41042086
vn -0.04923004 0.9105664 0.41042086
vn -0.04923004 0.9105664 0.41042086
vn -0.04923004 0.9105664 0.41042086
vn -0.95630103 0.041607678 0.2894082
vn -0.95630103 0.041607678 0.2894082
vn -0.9639235 0.041607678 0.2629073
vn -0.9639235 0.041607678 0.2629073
vn 0.05748415 -0.97217757 0.22708228
vn 0.05748415 -0.97217757 0.22708228
vn 0.05748415 -0.97217757 0.22708228
vn 0.05748415 -0.97217757 0.22708228
vn 0.24804527 0.011117876 0.9686846
vn 0.24804527 0.033985198 0.9681521
vn 0.24804527 -0.17182082 0.9533893
vn 0.24804527 -0.17182082 0.9533893
vn -0.2474137 -0.011749446 -0.9688387
vn -0.2474137 -0.0041270256 -0.96890116
vn -0.2474137 0.14069945 -0.95863974
vn -0.2474137 0.14069945 -0.95863974
vn 0.97217757 0.041607678 -0.23052025
vn 0.97217757 0.041607678 -0.23052025
vn 0.21755546 0.29314834 0.93098533
vn 0.21755546 0.29314834 0.93098533
vn -0.971546 0.041607678 0.23316775
vn -0.971546 0.041607678 0.23316775
vn -0.22454637 -0.2861575 -0.9315003
vn -0.22454637 -0.2861575 -0.9315003
vn 0.20993304 -0.8578409 0.46908113
vn 0.24042284 -0.22517794 0.9441884
vn 0.23280036 -0.12608618 0.9643165
vn 0.20993304 -0.8578409 0.46908113
vn 0.110841274 0.59042364 0.79944617
vn 0.110841274 0.59042364 0.79944617
vn -0.9639235 -0.026994348 0.26480702
vn -0.9639235 -0.026994348 0.26480702
vn -0.9639235 -0.026994348 0.26480702
vn 0.97217757 0.0034953952 -0.23421906
vn 0.97217757 0.0034953952 -0.23421906
vn 0.97217757 0.0034953952 -0.23421906
vn 0.17944324 -0.78923887 0.58728373
vn 0.20993304 -0.019371927 0.9775238
vn 0.20231062 0.041607678 0.9784371
vn 0.17944324 -0.78923887 0.58728373
vn 0.08035147 0.7809848 0.6193596
vn 0.08035147 0.7809848 0.6193596
vn -0.971546 -0.011749446 0.2365594
vn -0.971546 -0.011749446 0.2365594
vn -0.971546 -0.011749446 0.2365594
vn 0.97217757 -0.0041270256 -0.23420878
vn 0.97217757 -0.0041270256 -0.23420878
vn 0.97217757 -0.0041270256 -0.23420878
vn 0.21755546 -0.46147376 0.86006486
vn 0.20231062 0.35412794 0.9130519
vn 0.20231062 0.37699527 0.9038501
vn 0.21755546 -0.46147376 0.86006486
vn 0.04986167 0.9334337 0.35526797
vn 0.04986167 0.9334337 0.35526797
vn -0.971546 0.0034953952 0.23682521
vn -0.971546 0.0034953952 0.23682521
vn -0.971546 0.0034953952 0.23682521
vn 0.97217757 0.0034953952 -0.23421906
vn 0.97217757 0.0034953952 -0.23421906
vn 0.97217757 0.0034953952 -0.23421906
g TowerDefenceTracks48_CorpsePart_0
f 3/3/3 2/2/2 1/1/1
f 4/4/4 3/3/3 1/1/1
f 7/7/7 6/6/6 5/5/5
f 8/8/8 7/7/7 5/5/5
f 11/11/11 10/10/10 9/9/9
f 12/12/12 11/11/11 9/9/9
f 15/15/15 14/14/14 13/13/13
f 16/16/16 15/15/15 13/13/13
f 19/19/19 18/18/18 17/17/17
f 20/20/20 19/19/19 17/17/17
f 23/23/23 22/22/22 21/21/21
f 24/24/24 23/23/23 21/21/21
f 2/2/2 26/26/26 25/25/25
f 1/1/1 2/2/2 25/25/25
f 18/18/18 28/28/28 27/27/27
f 17/17/17 18/18/18 27/27/27
f 29/29/29 11/11/11 12/12/12
f 30/30/30 29/29/29 12/12/12
f 22/22/22 32/32/32 31/31/31
f 21/21/21 22/22/22 31/31/31
f 35/35/35 34/34/34 33/33/33
f 36/36/36 35/35/35 33/33/33
f 38/38/38 37/37/37 34/34/34
f 35/35/35 38/38/38 34/34/34
f 41/41/41 40/40/40 39/39/39
f 44/44/44 43/43/43 42/42/42
f 47/47/47 46/46/46 45/45/45
f 48/48/48 47/47/47 45/45/45
f 50/50/50 49/49/49 46/46/46
f 47/47/47 50/50/50 46/46/46
f 53/53/53 52/52/52 51/51/51
f 56/56/56 55/55/55 54/54/54
f 59/59/59 58/58/58 57/57/57
f 60/60/60 59/59/59 57/57/57
f 62/62/62 61/61/61 58/58/58
f 59/59/59 62/62/62 58/58/58
f 65/65/65 64/64/64 63/63/63
f 68/68/68 67/67/67 66/66/66
