g TowerRushTracks03_CorpsePart
v -1.1690525 0.20460954 -0.28766456
v -1.1690525 0.20460954 0.28766012
v -1.1964111 -2.2351742E-06 0.28904277
v -1.1964111 -2.2351742E-06 -0.28904724
v -0.9719207 0.46230662 0.28766012
v -0.6635864 0.5420025 0.28904277
v -0.7867116 -2.2351742E-06 0.28904277
v -1.1964111 -2.2351742E-06 0.28904277
v -1.1690525 0.20460954 0.28766012
v -0.7867116 -2.2351742E-06 0.28904277
v -0.7867116 -2.2351742E-06 -0.28904724
v -1.1964111 -2.2351742E-06 -0.28904724
v -1.1964111 -2.2351742E-06 0.28904277
v -0.7867116 -2.2351742E-06 -0.28904724
v -0.6635864 0.5420025 -0.28904724
v -0.9719207 0.46230662 -0.28766456
v -1.1964111 -2.2351742E-06 -0.28904724
v -1.1690525 0.20460954 -0.28766456
v -0.6635864 0.5420025 -0.28904724
v -0.6635864 0.5420025 0.28904277
v -0.9719207 0.46230662 0.28766012
v -0.9719207 0.46230662 -0.28766456
vt 0.7089479 0.8441796
vt 0.703545 0.8441796
vt 0.703545 0.84227264
vt 0.7089479 0.84227264
vt 0.71530426 0.83909446
vt 0.71562207 0.8371875
vt 0.71053696 0.8371875
vt 0.71053696 0.84227264
vt 0.71355623 0.8414781
vt 0.7215017 0.8610239
vt 0.72690463 0.8610239
vt 0.72690463 0.866109
vt 0.7215017 0.866109
vt 0.71053696 0.8371875
vt 0.71053696 0.84227264
vt 0.71355623 0.8414781
vt 0.71562207 0.8371875
vt 0.71530426 0.83909446
vt 0.7089479 0.850377
vt 0.703545 0.850377
vt 0.703545 0.84719884
vt 0.7089479 0.84719884
vn -0.8974713 0.4367684 -0.061470494
vn -0.8974713 0.4367684 -0.061470494
vn -0.9911736 0.132236 -0.009406744
vn -0.9911736 0.132236 -0.009406744
vn 0.00050890446 -0.00050890446 0.99999976
vn 0.00050890446 -0.00050890446 0.99999976
vn 0.00050890446 -0.00050890446 0.99999976
vn 0.00050890446 -0.00050890446 0.99999976
vn 0.00050890446 -0.00050890446 0.99999976
vn 0.00050890446 -0.9999999 -0
vn 0.00050890446 -0.9999999 -0
vn 0.00050890446 -0.9999999 -0
vn 0.00050890446 -0.9999999 -0
vn 0.00050890446 -0.00050890446 -0.99999976
vn 0.00050890446 -0.00050890446 -0.99999976
vn 0.00050890446 -0.00050890446 -0.99999976
vn 0.00050890446 -0.00050890446 -0.99999976
vn 0.00050890446 -0.00050890446 -0.99999976
vn -0.2493639 0.96774805 -0.035796378
vn -0.2493639 0.96774805 -0.035796378
vn -0.55278325 0.8333252 -0
vn -0.55278325 0.8333252 -0
g TowerRushTracks03_CorpsePart_0
f 3/3/3 2/2/2 1/1/1
f 4/4/4 3/3/3 1/1/1
f 7/7/7 6/6/6 5/5/5
f 5/5/5 8/8/8 7/7/7
f 5/5/5 9/9/9 8/8/8
f 12/12/12 11/11/11 10/10/10
f 13/13/13 12/12/12 10/10/10
f 16/16/16 15/15/15 14/14/14
f 14/14/14 17/17/17 16/16/16
f 17/17/17 18/18/18 16/16/16
f 21/21/21 20/20/20 19/19/19
f 22/22/22 21/21/21 19/19/19
f 1/1/1 2/2/2 21/21/21
f 22/22/22 1/1/1 21/21/21
