g TowerRush_02_CorpsePart
v 0.21456468 -0.09546268 1.3842366
v 0.35503364 -0.09546268 0.8507445
v -0.35505188 -0.09546268 0.8507445
v -0.21453762 -0.09546268 1.3842366
v -1.3610139 -0.09546268 0.24930406
v -0.8299663 -0.09546268 0.37198234
v -0.8299663 -0.09546268 -0.3302716
v -1.3610139 -0.09546268 -0.20754802
v 1.3610408 -0.09546268 -0.20754802
v 0.82999325 -0.09546268 -0.3302716
v 0.82999325 -0.09546268 0.37198234
v 1.3610408 -0.09546268 0.24930406
v -0.21453762 -0.09546268 -1.342526
v -0.35505188 -0.09546268 -0.8089886
v 0.35503364 -0.09546268 -0.8089886
v 0.21456468 -0.09546268 -1.342526
v 0.20062196 0.41295052 0.21929085
v 0.8047786 0.3622496 0.19864833
v 0.8090338 0.28416097 0.308923
v 0.31343162 0.3321458 0.33083308
v 0.31343162 0.3321458 0.33083308
v 0.29134047 0.28352726 0.8225875
v 0.17993414 0.3622496 0.81683826
v 0.20062196 0.41295052 0.21929085
v 0.24797308 0.15659368 1.1431353
v 0.1327641 0.21449244 1.1989517
v -0.31344986 0.3321458 0.33083308
v -0.8090973 0.2830745 0.30910408
v -0.8047967 0.3622496 0.19864833
v -0.2006402 0.41295052 0.21929085
v -0.2006402 0.41295052 0.21929085
v -0.17995238 0.3622496 0.81683826
v -0.29122293 0.28443265 0.8225422
v -0.31344986 0.3321458 0.33083308
v -0.13278234 0.21449244 1.1989517
v -0.24844396 0.15541673 1.1419582
v -0.2006402 0.41295052 -0.17758012
v -0.8047967 0.3622496 -0.1569376
v -0.809052 0.28416097 -0.26716697
v -0.31344986 0.3321458 -0.28912234
v -0.31344986 0.3321458 -0.28912234
v -0.2913587 0.28352726 -0.78087664
v -0.17995238 0.3622496 -0.7750823
v -0.2006402 0.41295052 -0.17758012
v -0.2479912 0.15659368 -1.1014246
v -0.13278234 0.21449244 -1.157241
v 0.31343162 0.3321458 -0.28912234
v 0.80912435 0.2830745 -0.26734805
v 0.8047786 0.3622496 -0.1569376
v 0.20062196 0.41295052 -0.17758012
v 0.20062196 0.41295052 -0.17758012
v 0.17993414 0.3622496 -0.7750823
v 0.2912047 0.28443265 -0.78078616
v 0.31343162 0.3321458 -0.28912234
v 0.1327641 0.21449244 -1.157241
v 0.24842572 0.15541673 -1.1002476
v 1.1319357 0.1564126 -0.23747075
v 1.1911473 0.21449244 -0.12502313
v 1.1911473 0.21449244 0.16673386
v 1.1309398 0.15541673 0.27949834
v -1.1319087 0.1564126 0.27918148
v -1.1911654 0.21449244 0.16673386
v -1.1911654 0.21449244 -0.12502313
v -1.1309581 0.15541673 -0.2377876
v 0.21456468 -0.09546268 1.3842366
v 0.092746496 -0.09546268 1.4945114
v -0.092764735 -0.09546268 1.4945114
v -0.21453762 -0.09546268 1.3842366
v -0.21453762 -0.09546268 -1.342526
v -0.092764735 -0.09546268 -1.4528006
v 0.092746496 -0.09546268 -1.4528006
v 0.21456468 -0.09546268 -1.342526
v 1.3610408 -0.09546268 -0.20754802
v 1.4721756 -0.09546268 -0.08912504
v 1.4721756 -0.09546268 0.13083577
v 1.3610408 -0.09546268 0.24930406
v -1.3610139 -0.09546268 0.24930406
v -1.4721937 -0.09546268 0.13083577
v -1.4721937 -0.09546268 -0.08912504
v -1.3610139 -0.09546268 -0.20754802
v 0.39722407 -0.09546268 0.41372013
v 0.35503364 -0.09546268 0.8507445
v 0.29134047 0.28352726 0.8225875
v 0.31343162 0.3321458 0.33083308
v -0.31344986 0.3321458 0.33083308
v -0.29122293 0.28443265 0.8225422
v -0.35505188 -0.09546268 0.8507445
v -0.3972423 -0.09546268 0.41372013
v 0.31343162 0.3321458 -0.28912234
v 0.2912047 0.28443265 -0.78078616
v 0.35503364 -0.09546268 -0.8089886
v 0.39722407 -0.09546268 -0.3720094
v -0.3972423 -0.09546268 -0.3720094
v -0.35505188 -0.09546268 -0.8089886
v -0.2913587 0.28352726 -0.78087664
v -0.31344986 0.3321458 -0.28912234
v 0.39722407 -0.09546268 -0.3720094
v 0.82999325 -0.09546268 -0.3302716
v 0.80912435 0.2830745 -0.26734805
v 0.31343162 0.3321458 -0.28912234
v 0.31343162 0.3321458 0.33083308
v 0.8090338 0.28416097 0.308923
v 0.82999325 -0.09546268 0.37198234
v 0.39722407 -0.09546268 0.41372013
v -0.3972423 -0.09546268 0.41372013
v -0.8299663 -0.09546268 0.37198234
v -0.8090973 0.2830745 0.30910408
v -0.31344986 0.3321458 0.33083308
v -0.31344986 0.3321458 -0.28912234
v -0.809052 0.28416097 -0.26716697
v -0.8299663 -0.09546268 -0.3302716
v -0.3972423 -0.09546268 -0.3720094
v 0.21456468 -0.09546268 1.3842366
v 0.24797308 0.15659368 1.1431353
v -0.24844396 0.15541673 1.1419582
v -0.21453762 -0.09546268 1.3842366
v 0.24842572 0.15541673 -1.1002476
v 0.21456468 -0.09546268 -1.342526
v -0.21453762 -0.09546268 -1.342526
v -0.2479912 0.15659368 -1.1014246
v 1.3610408 -0.09546268 -0.20754802
v 1.1319357 0.1564126 -0.23747075
v 1.1309398 0.15541673 0.27949834
v 1.3610408 -0.09546268 0.24930406
v -1.3610139 -0.09546268 0.24930406
v -1.1319087 0.1564126 0.27918148
v -1.1309581 0.15541673 -0.2377876
v -1.3610139 -0.09546268 -0.20754802
v 0.092746496 -0.09546268 -1.4528006
v -0.092764735 -0.09546268 -1.4528006
v -1.4721937 -0.09546268 -0.08912504
v -1.4721937 -0.09546268 0.13083577
v -0.092764735 -0.09546268 1.4945114
v 0.092746496 -0.09546268 1.4945114
v 1.4721756 -0.09546268 0.13083577
v 1.4721756 -0.09546268 -0.08912504
vt 0.63817924 0.75411963
vt 0.63727486 0.75755626
vt 0.6417967 0.75755626
vt 0.6408923 0.75411963
vt 0.63817924 0.75411963
vt 0.63727486 0.75755626
vt 0.6417967 0.75755626
vt 0.6408923 0.75411963
vt 0.63817924 0.75411963
vt 0.63727486 0.75755626
vt 0.6417967 0.75755626
vt 0.6408923 0.75411963
vt 0.63817924 0.75411963
vt 0.63727486 0.75755626
vt 0.6417967 0.75755626
vt 0.6408923 0.75411963
vt 0.64830816 0.8121803
vt 0.64830816 0.80693495
vt 0.649936 0.80693495
vt 0.649936 0.8121803
vt 0.63311476 0.8119994
vt 0.63311476 0.80675405
vt 0.6314869 0.80675405
vt 0.6314869 0.8119994
vt 0.63311476 0.8031366
vt 0.6314869 0.8031366
vt 0.649936 0.8121803
vt 0.649936 0.80693495
vt 0.64830816 0.80693495
vt 0.64830816 0.8121803
vt 0.62877375 0.8119994
vt 0.62877375 0.80675405
vt 0.6271459 0.80675405
vt 0.6271459 0.8119994
vt 0.62877375 0.8031366
vt 0.6271459 0.8031366
vt 0.6454142 0.8121803
vt 0.6454142 0.80693495
vt 0.6437863 0.80693495
vt 0.6437863 0.8121803
vt 0.64143497 0.8121803
vt 0.64143497 0.80693495
vt 0.6398071 0.80693495
vt 0.6398071 0.8121803
vt 0.64143497 0.8031366
vt 0.6398071 0.8031366
vt 0.6437863 0.8121803
vt 0.6437863 0.80693495
vt 0.6454142 0.80693495
vt 0.6454142 0.8121803
vt 0.6369131 0.8121803
vt 0.6369131 0.80693495
vt 0.6354661 0.80693495
vt 0.6354661 0.8121803
vt 0.6369131 0.8031366
vt 0.6354661 0.8031366
vt 0.6437863 0.8031366
vt 0.6454142 0.8031366
vt 0.64830816 0.8031366
vt 0.649936 0.8031366
vt 0.649936 0.8031366
vt 0.64830816 0.8031366
vt 0.6454142 0.8031366
vt 0.6437863 0.8031366
vt 0.63311476 0.7987956
vt 0.6314869 0.7987956
vt 0.62877375 0.7987956
vt 0.6271459 0.7987956
vt 0.64143497 0.7989764
vt 0.6398071 0.7989764
vt 0.6369131 0.7989764
vt 0.6354661 0.7989764
vt 0.6437863 0.7989764
vt 0.6454142 0.7989764
vt 0.64830816 0.7989764
vt 0.649936 0.7989764
vt 0.649936 0.7989764
vt 0.64830816 0.7989764
vt 0.6454142 0.7989764
vt 0.6437863 0.7989764
vt 0.67326885 0.75827974
vt 0.66892785 0.75827974
vt 0.66910875 0.7629825
vt 0.67381144 0.76370597
vt 0.67598194 0.77148354
vt 0.6806847 0.77076006
vt 0.6806847 0.7660573
vt 0.6765246 0.7662382
vt 0.6539153 0.77148354
vt 0.65861803 0.7709409
vt 0.6587989 0.7662382
vt 0.65463877 0.7662382
vt 0.6620546 0.75809884
vt 0.6578945 0.75809884
vt 0.6580754 0.7626207
vt 0.66277814 0.7633442
vt 0.6654912 0.7662382
vt 0.6696513 0.7662382
vt 0.6696513 0.77076006
vt 0.6649486 0.77148354
vt 0.6846639 0.7638868
vt 0.6799612 0.7631633
vt 0.6799612 0.75846064
vt 0.6841213 0.7586415
vt 0.6841213 0.7586415
vt 0.6799612 0.75846064
vt 0.6799612 0.7631633
vt 0.6846639 0.7638868
vt 0.6649486 0.77148354
vt 0.6696513 0.77076006
vt 0.6696513 0.7662382
vt 0.6654912 0.7662382
vt 0.66368246 0.75827974
vt 0.66603386 0.76135457
vt 0.6837595 0.7691322
vt 0.68593 0.7662382
vt 0.66169286 0.7693131
vt 0.66404426 0.76641905
vt 0.65264916 0.75809884
vt 0.6550005 0.7611737
vt 0.6748967 0.76641905
vt 0.6725453 0.7693131
vt 0.67706716 0.76153547
vt 0.6748967 0.75846064
vt 0.6748967 0.75846064
vt 0.67706716 0.76153547
vt 0.6725453 0.7693131
vt 0.6748967 0.76641905
vt 0.64016885 0.75339615
vt 0.6389027 0.75339615
vt 0.64016885 0.75339615
vt 0.6389027 0.75339615
vt 0.64016885 0.75339615
vt 0.6389027 0.75339615
vt 0.64016885 0.75339615
vt 0.6389027 0.75339615
vn -9.059906E-05 -1 -0
vn -9.059906E-05 -1 -0
vn -9.059906E-05 -1 -0
vn -9.059906E-05 -1 -0
vn -9.059906E-05 -1 -0
vn -9.059906E-05 -1 -0
vn -9.059906E-05 -1 -0
vn -9.059906E-05 -1 -0
vn -9.059906E-05 -1 -0
vn -9.059906E-05 -1 -0
vn -9.059906E-05 -1 -0
vn -9.059906E-05 -1 -0
vn -9.059906E-05 -1 -0
vn -9.059906E-05 -1 -0
vn -9.059906E-05 -1 -0
vn -9.059906E-05 -1 -0
vn 0.08585471 0.99236786 0.08851571
vn 0.18742645 0.9689282 0.16139838
vn 0.14836037 0.38293767 0.91178286
vn 0.093667924 0.48450935 0.8697569
vn 0.86717546 0.49232256 0.075001255
vn 0.90624154 0.38293767 0.17912287
vn 0.14836037 0.9689282 0.19790727
vn 0.08585471 0.99236786 0.08851571
vn 0.8828019 0.3360585 0.32821563
vn 0.17961323 0.82047737 0.54273015
vn -0.09384906 0.48450935 0.8697373
vn -0.14854145 0.38293767 0.91175336
vn -0.18760753 0.9689282 0.16118774
vn -0.08603585 0.99236786 0.08833944
vn -0.08603585 0.99236786 0.08833944
vn -0.14854145 0.9689282 0.19777139
vn -0.9064226 0.38293767 0.17820443
vn -0.86735654 0.49232256 0.07287751
vn -0.17979431 0.82047737 0.5426702
vn -0.88298297 0.3360585 0.3277282
vn -0.08603585 0.99236786 -0.08833944
vn -0.18760753 0.9689282 -0.16118774
vn -0.14854145 0.38293767 -0.91175336
vn -0.09384906 0.48450935 -0.8697373
vn -0.86735654 0.49232256 -0.07287751
vn -0.9064226 0.38293767 -0.17820443
vn -0.14854145 0.9689282 -0.19777139
vn -0.08603585 0.99236786 -0.08833944
vn -0.88298297 0.3360585 -0.3277282
vn -0.17979431 0.82047737 -0.5426702
vn 0.093667924 0.48450935 -0.8697569
vn 0.14836037 0.38293767 -0.91178286
vn 0.18742645 0.9689282 -0.16139838
vn 0.08585471 0.99236786 -0.08851571
vn 0.08585471 0.99236786 -0.08851571
vn 0.14836037 0.9689282 -0.19790727
vn 0.90624154 0.38293767 -0.17912287
vn 0.86717546 0.49232256 -0.075001255
vn 0.17961323 0.82047737 -0.54273015
vn 0.8828019 0.3360585 -0.32821563
vn 0.30462456 0.32043207 -0.89695436
vn 0.546834 0.82047737 -0.16670175
vn 0.546834 0.82047737 0.16670175
vn 0.30462456 0.32043207 0.89695436
vn -0.30480564 0.32043207 0.8968929
vn -0.5470151 0.82047737 0.16610679
vn -0.5470151 0.82047737 -0.16610679
vn -0.30480564 0.32043207 -0.8968929
vn 0.8046698 0.36731124 0.46646434
vn 0.14836037 0.6720264 0.7255134
vn -0.14854145 0.6720264 0.7254763
vn -0.80485094 0.36731124 0.46615174
vn -0.80485094 0.36731124 -0.46615174
vn -0.14854145 0.6720264 -0.7254763
vn 0.15617359 0.6720264 -0.7238718
vn 0.8046698 0.36731124 -0.46646434
vn 0.44526225 0.3360585 -0.82994354
vn 0.74216413 0.65639997 -0.13539386
vn 0.74216413 0.65639997 0.13539386
vn 0.44526225 0.3438717 0.8267368
vn -0.4454434 0.3360585 0.8298463
vn -0.7423452 0.65639997 0.13439748
vn -0.7423452 0.65639997 -0.13439748
vn -0.4454434 0.3438717 -0.82663924
vn 0.97656035 0.18760753 0.105514325
vn 0.97656035 0.1719811 0.1294309
vn 0.90624154 0.38293767 0.17912287
vn 0.86717546 0.49232256 0.075001255
vn -0.86735654 0.49232256 0.07287751
vn -0.9064226 0.38293767 0.17820443
vn -0.97674143 0.1719811 0.12805727
vn -0.97674143 0.18760753 0.10382475
vn 0.86717546 0.49232256 -0.075001255
vn 0.90624154 0.38293767 -0.17912287
vn 0.97656035 0.1719811 -0.1294309
vn 0.97656035 0.18760753 -0.105514325
vn -0.97674143 0.18760753 -0.10382475
vn -0.97674143 0.1719811 -0.12805727
vn -0.9064226 0.38293767 -0.17820443
vn -0.86735654 0.49232256 -0.07287751
vn 0.07804155 0.18760753 -0.97913885
vn 0.124920785 0.16416788 -0.97849053
vn 0.14836037 0.38293767 -0.91178286
vn 0.093667924 0.48450935 -0.8697569
vn 0.093667924 0.48450935 0.8697569
vn 0.14836037 0.38293767 0.91178286
vn 0.124920785 0.16416788 0.97849053
vn 0.07804155 0.18760753 0.97913885
vn -0.07822263 0.18760753 0.9791244
vn -0.12510192 0.16416788 0.9784674
vn -0.14854145 0.38293767 0.91175336
vn -0.09384906 0.48450935 0.8697373
vn -0.09384906 0.48450935 -0.8697373
vn -0.14854145 0.38293767 -0.91175336
vn -0.12510192 0.16416788 -0.9784674
vn -0.07822263 0.18760753 -0.9791244
vn 0.8046698 0.36731124 0.46646434
vn 0.8828019 0.3360585 0.32821563
vn -0.88298297 0.3360585 0.3277282
vn -0.80485094 0.36731124 0.46615174
vn 0.8828019 0.3360585 -0.32821563
vn 0.8046698 0.36731124 -0.46646434
vn -0.80485094 0.36731124 -0.46615174
vn -0.88298297 0.3360585 -0.3277282
vn 0.44526225 0.3360585 -0.82994354
vn 0.30462456 0.32043207 -0.89695436
vn 0.30462456 0.32043207 0.89695436
vn 0.44526225 0.3438717 0.8267368
vn -0.4454434 0.3360585 0.8298463
vn -0.30480564 0.32043207 0.8968929
vn -0.30480564 0.32043207 -0.8968929
vn -0.4454434 0.3438717 -0.82663924
vn -9.059906E-05 -1 -0
vn -9.059906E-05 -1 -0
vn -9.059906E-05 -1 -0
vn -9.059906E-05 -1 -0
vn -9.059906E-05 -1 -0
vn -9.059906E-05 -1 -0
vn -9.059906E-05 -1 -0
vn -9.059906E-05 -1 -0
g TowerRush_02_CorpsePart_0
f 3/3/3 2/2/2 1/1/1
f 4/4/4 3/3/3 1/1/1
f 7/7/7 6/6/6 5/5/5
f 8/8/8 7/7/7 5/5/5
f 11/11/11 10/10/10 9/9/9
f 12/12/12 11/11/11 9/9/9
f 15/15/15 14/14/14 13/13/13
f 16/16/16 15/15/15 13/13/13
f 19/19/19 18/18/18 17/17/17
f 20/20/20 19/19/19 17/17/17
f 23/23/23 22/22/22 21/21/21
f 24/24/24 23/23/23 21/21/21
f 26/26/26 25/25/25 22/22/22
f 23/23/23 26/26/26 22/22/22
f 29/29/29 28/28/28 27/27/27
f 30/30/30 29/29/29 27/27/27
f 33/33/33 32/32/32 31/31/31
f 34/34/34 33/33/33 31/31/31
f 36/36/36 35/35/35 32/32/32
f 33/33/33 36/36/36 32/32/32
f 39/39/39 38/38/38 37/37/37
f 40/40/40 39/39/39 37/37/37
f 43/43/43 42/42/42 41/41/41
f 44/44/44 43/43/43 41/41/41
f 46/46/46 45/45/45 42/42/42
f 43/43/43 46/46/46 42/42/42
f 49/49/49 48/48/48 47/47/47
f 50/50/50 49/49/49 47/47/47
f 53/53/53 52/52/52 51/51/51
f 54/54/54 53/53/53 51/51/51
f 56/56/56 55/55/55 52/52/52
f 53/53/53 56/56/56 52/52/52
f 58/58/58 57/57/57 48/48/48
f 49/49/49 58/58/58 48/48/48
f 60/60/60 59/59/59 18/18/18
f 19/19/19 60/60/60 18/18/18
f 62/62/62 61/61/61 28/28/28
f 29/29/29 62/62/62 28/28/28
f 64/64/64 63/63/63 38/38/38
f 39/39/39 64/64/64 38/38/38
f 66/66/66 65/65/65 25/25/25
f 26/26/26 66/66/66 25/25/25
f 68/68/68 67/67/67 35/35/35
f 36/36/36 68/68/68 35/35/35
f 70/70/70 69/69/69 45/45/45
f 46/46/46 70/70/70 45/45/45
f 72/72/72 71/71/71 55/55/55
f 56/56/56 72/72/72 55/55/55
f 74/74/74 73/73/73 57/57/57
f 58/58/58 74/74/74 57/57/57
f 76/76/76 75/75/75 59/59/59
f 60/60/60 76/76/76 59/59/59
f 78/78/78 77/77/77 61/61/61
f 62/62/62 78/78/78 61/61/61
f 80/80/80 79/79/79 63/63/63
f 64/64/64 80/80/80 63/63/63
f 83/83/83 82/82/82 81/81/81
f 84/84/84 83/83/83 81/81/81
f 31/31/31 32/32/32 23/23/23
f 24/24/24 31/31/31 23/23/23
f 87/87/87 86/86/86 85/85/85
f 88/88/88 87/87/87 85/85/85
f 43/43/43 44/44/44 51/51/51
f 52/52/52 43/43/43 51/51/51
f 91/91/91 90/90/90 89/89/89
f 92/92/92 91/91/91 89/89/89
f 95/95/95 94/94/94 93/93/93
f 96/96/96 95/95/95 93/93/93
f 99/99/99 98/98/98 97/97/97
f 100/100/100 99/99/99 97/97/97
f 18/18/18 49/49/49 50/50/50
f 17/17/17 18/18/18 50/50/50
f 103/103/103 102/102/102 101/101/101
f 104/104/104 103/103/103 101/101/101
f 107/107/107 106/106/106 105/105/105
f 108/108/108 107/107/107 105/105/105
f 38/38/38 29/29/29 30/30/30
f 37/37/37 38/38/38 30/30/30
f 111/111/111 110/110/110 109/109/109
f 112/112/112 111/111/111 109/109/109
f 113/113/113 82/82/82 83/83/83
f 114/114/114 113/113/113 83/83/83
f 115/115/115 86/86/86 87/87/87
f 116/116/116 115/115/115 87/87/87
f 117/117/117 90/90/90 91/91/91
f 118/118/118 117/117/117 91/91/91
f 119/119/119 94/94/94 95/95/95
f 120/120/120 119/119/119 95/95/95
f 121/121/121 98/98/98 99/99/99
f 122/122/122 121/121/121 99/99/99
f 123/123/123 102/102/102 103/103/103
f 124/124/124 123/123/123 103/103/103
f 125/125/125 106/106/106 107/107/107
f 126/126/126 125/125/125 107/107/107
f 127/127/127 110/110/110 111/111/111
f 128/128/128 127/127/127 111/111/111
f 55/55/55 71/71/71 70/70/70
f 46/46/46 55/55/55 70/70/70
f 52/52/52 55/55/55 46/46/46
f 43/43/43 52/52/52 46/46/46
f 32/32/32 35/35/35 26/26/26
f 23/23/23 32/32/32 26/26/26
f 35/35/35 67/67/67 66/66/66
f 26/26/26 35/35/35 66/66/66
f 18/18/18 59/59/59 58/58/58
f 49/49/49 18/18/18 58/58/58
f 59/59/59 75/75/75 74/74/74
f 58/58/58 59/59/59 74/74/74
f 63/63/63 79/79/79 78/78/78
f 62/62/62 63/63/63 78/78/78
f 38/38/38 63/63/63 62/62/62
f 29/29/29 38/38/38 62/62/62
f 13/13/13 130/130/130 129/129/129
f 16/16/16 13/13/13 129/129/129
f 5/5/5 132/132/132 131/131/131
f 8/8/8 5/5/5 131/131/131
f 1/1/1 134/134/134 133/133/133
f 4/4/4 1/1/1 133/133/133
f 9/9/9 136/136/136 135/135/135
f 12/12/12 9/9/9 135/135/135
