g TowerDefenceTracks52_CorpsePart
v 3.063324 3.706509 -0.11099005
v 3.0258963 3.799356 -0.17484999
v 3.010792 3.7892494 -0.22360587
v 3.0061276 3.6705256 -0.30112624
v 2.9936888 4.147088 -0.21361041
v 2.959593 4.210837 -0.28102422
v 3.0061276 4.1496425 -0.162189
v 3.0059054 4.2150574 -0.087222815
v 2.9752526 3.7012892 -0.090554714
v 2.9109483 3.651423 -0.27980256
v 2.9247198 3.7748117 -0.2045033
v 2.9410458 3.7876945 -0.15596962
v 2.8732986 4.1920676 -0.2612555
v 2.9075055 4.128874 -0.19384146
v 2.8732986 4.1920676 -0.2612555
v 2.919389 4.2030625 -0.067009926
v 2.9198332 4.13365 -0.14264226
v 2.9075055 4.128874 -0.19384146
v 2.919389 4.2030625 -0.067009926
v 2.9752526 3.7012892 -0.090554714
v 2.9410458 3.7876945 -0.15596962
v 2.9198332 4.13365 -0.14264226
v 2.9752526 3.7012892 -0.090554714
v 3.063324 3.706509 -0.11099005
v 3.0061276 3.6705256 -0.30112624
v 2.9109483 3.651423 -0.27980256
v 2.9247198 3.7748117 -0.2045033
v 3.010792 3.7892494 -0.22360587
v 3.0258963 3.799356 -0.17484999
v 2.9410458 3.7876945 -0.15596962
v 2.9109483 3.651423 -0.27980256
v 3.0061276 3.6705256 -0.30112624
v 2.959593 4.210837 -0.28102422
v 2.8732986 4.1920676 -0.2612555
v 2.9075055 4.128874 -0.19384146
v 2.9936888 4.147088 -0.21361041
v 3.010792 3.7892494 -0.22360587
v 2.9247198 3.7748117 -0.2045033
v 2.8732986 4.1920676 -0.2612555
v 2.959593 4.210837 -0.28102422
v 3.0059054 4.2150574 -0.087222815
v 2.919389 4.2030625 -0.067009926
v 2.9198332 4.13365 -0.14264226
v 3.0061276 4.1496425 -0.162189
v 2.9936888 4.147088 -0.21361041
v 2.9075055 4.128874 -0.19384146
v 2.919389 4.2030625 -0.067009926
v 3.0059054 4.2150574 -0.087222815
v 3.063324 3.706509 -0.11099005
v 2.9752526 3.7012892 -0.090554714
v 2.9410458 3.7876945 -0.15596962
v 3.0258963 3.799356 -0.17484999
v 3.0061276 4.1496425 -0.162189
v 2.9198332 4.13365 -0.14264226
vt 0.9540484 0.49104688
vt 0.95509 0.49000525
vt 0.95509 0.48948446
vt 0.9540484 0.48844284
vt 0.95925653 0.48948446
vt 0.9602981 0.48844284
vt 0.95925653 0.49000525
vt 0.9602981 0.49104688
vt 0.94884026 0.48219308
vt 0.94884026 0.48063067
vt 0.9477986 0.48115146
vt 0.9477986 0.4816723
vt 0.94415295 0.48010984
vt 0.9446738 0.48115146
vt 0.94415295 0.48010984
vt 0.94415295 0.48219308
vt 0.9446738 0.4816723
vt 0.9446738 0.48115146
vt 0.94415295 0.48219308
vt 0.94884026 0.48219308
vt 0.9477986 0.4816723
vt 0.9446738 0.4816723
vt 0.9524859 0.49104688
vt 0.9540484 0.49104688
vt 0.9540484 0.48844284
vt 0.9524859 0.48844284
vt 0.99675494 0.46656874
vt 0.99831736 0.46656874
vt 0.99831736 0.46552712
vt 0.99675494 0.46552712
vt 0.9540484 0.48740122
vt 0.9540484 0.48844284
vt 0.9602981 0.48844284
vt 0.9602981 0.48740122
vt 0.99675494 0.47177684
vt 0.99831736 0.47177684
vt 0.99831736 0.46656874
vt 0.99675494 0.46656874
vt 0.9613397 0.48844284
vt 0.9602981 0.48844284
vt 0.9602981 0.49104688
vt 0.9613397 0.49104688
vt 0.99675494 0.47229767
vt 0.99831736 0.47229767
vt 0.99831736 0.47177684
vt 0.99675494 0.47177684
vt 0.9602981 0.4920885
vt 0.9602981 0.49104688
vt 0.9540484 0.49104688
vt 0.9540484 0.4920885
vt 0.99675494 0.4780266
vt 0.99831736 0.4780266
vt 0.99831736 0.47229767
vt 0.99675494 0.47229767
vn 0.956369 0.121849716 -0.26553914
vn 0.956369 0.11414808 -0.26893976
vn 0.9486674 0.09874493 -0.30046558
vn 0.9486674 0.106446564 -0.2978242
vn 0.956369 0.11414808 -0.26893976
vn 0.956369 0.11414808 -0.26893976
vn 0.9640705 0.13725275 -0.22744179
vn 0.9640705 0.12955123 -0.231915
vn -0.9305137 -0.1091972 0.34960017
vn -0.9305137 -0.1091972 0.34960017
vn -0.9305137 -0.1091972 0.34960017
vn -0.9305137 -0.1091972 0.34960017
vn -0.9382152 -0.07068938 0.33875543
vn -0.9382152 -0.07068938 0.33875543
vn -0.9382152 -0.25552684 0.23336294
vn -0.9382152 -0.25552684 0.23336294
vn -0.9382152 -0.25552684 0.23336294
vn -0.9382152 -0.25552684 0.23336294
vn -0.9690215 -0.10149562 0.2251576
vn -0.9690215 -0.10149562 0.2251576
vn -0.9690215 -0.10149562 0.2251576
vn -0.9690215 -0.10149562 0.2251576
vn 0.16310811 -0.9717721 0.17045474
vn 0.16310811 -0.9717721 0.17045474
vn 0.16310811 -0.9717721 0.17045474
vn 0.16310811 -0.9717721 0.17045474
vn -0.1834622 0.9690215 -0.16534486
vn -0.1834622 0.9690215 -0.16534486
vn -0.1834622 0.9690215 -0.16534486
vn -0.1834622 0.9690215 -0.16534486
vn -0.22197002 0.014027834 -0.9749526
vn -0.22197002 0.014027834 -0.9749526
vn -0.22197002 0.014027834 -0.9749526
vn -0.22197002 0.014027834 -0.9749526
vn 0.2247206 -0.01677847 0.9742788
vn 0.2247206 -0.01677847 0.9742788
vn 0.2247206 -0.01677847 0.9742788
vn 0.2247206 -0.01677847 0.9742788
vn -0.17576057 0.98442453 -0.0040706377
vn -0.17576057 0.98442453 -0.0040706377
vn -0.17576057 0.98442453 -0.0040706377
vn -0.17576057 0.98442453 -0.0040706377
vn 0.20161416 -0.979465 -0
vn 0.20161416 -0.979465 -0
vn 0.20161416 -0.979465 -0
vn 0.20161416 -0.979465 -0
vn 0.23242217 -0.01677847 0.9724703
vn 0.23242217 -0.01677847 0.9724703
vn 0.23242217 -0.01677847 0.9724703
vn 0.23242217 -0.01677847 0.9724703
vn -0.22197002 0.02172941 -0.9748113
vn -0.22197002 0.02172941 -0.9748113
vn -0.22197002 0.02172941 -0.9748113
vn -0.22197002 0.02172941 -0.9748113
g TowerDefenceTracks52_CorpsePart_0
f 3/3/3 2/2/2 1/1/1
f 4/4/4 3/3/3 1/1/1
f 5/5/5 3/3/3 4/4/4
f 6/6/6 5/5/5 4/4/4
f 7/7/7 5/5/5 6/6/6
f 8/8/8 7/7/7 6/6/6
f 2/2/2 7/7/7 8/8/8
f 1/1/1 2/2/2 8/8/8
f 11/11/11 10/10/10 9/9/9
f 12/12/12 11/11/11 9/9/9
f 14/14/14 13/13/13 10/10/10
f 11/11/11 14/14/14 10/10/10
f 17/17/17 16/16/16 15/15/15
f 18/18/18 17/17/17 15/15/15
f 21/21/21 20/20/20 19/19/19
f 22/22/22 21/21/21 19/19/19
f 25/25/25 24/24/24 23/23/23
f 26/26/26 25/25/25 23/23/23
f 29/29/29 28/28/28 27/27/27
f 30/30/30 29/29/29 27/27/27
f 33/33/33 32/32/32 31/31/31
f 34/34/34 33/33/33 31/31/31
f 37/37/37 36/36/36 35/35/35
f 38/38/38 37/37/37 35/35/35
f 41/41/41 40/40/40 39/39/39
f 42/42/42 41/41/41 39/39/39
f 45/45/45 44/44/44 43/43/43
f 46/46/46 45/45/45 43/43/43
f 49/49/49 48/48/48 47/47/47
f 50/50/50 49/49/49 47/47/47
f 53/53/53 52/52/52 51/51/51
f 54/54/54 53/53/53 51/51/51
