g TowerDefenceTracks49_CorpsePart
v -0.17576778 0.02888912 0.027652442
v 0.16776332 0.026323766 -0.062737554
v 0.12971243 0.11171597 -0.20733705
v -0.20796233 0.11271757 -0.1168755
v 0.14368384 0.21736515 -0.108658224
v -0.18056118 0.22130007 -0.020148784
v -0.18056118 0.22130007 -0.020148784
v -0.17576778 0.02888912 0.027652442
v -0.20796233 0.11271757 -0.1168755
v 0.12971243 0.11171597 -0.20733705
v 0.16776332 0.026323766 -0.062737554
v 0.14368384 0.21736515 -0.108658224
v -0.19938731 -0.29956675 -0.023214936
v 0.19306925 -0.2991988 -0.119420394
v 0.1614164 -0.14529867 -0.19697347
v -0.21475893 -0.14704639 -0.1026077
v 0.19267064 -0.089729875 -0.03467211
v -0.17346817 -0.08820702 0.058497876
v -0.17346817 -0.08820702 0.058497876
v -0.19938731 -0.29956675 -0.023214936
v -0.21475893 -0.14704639 -0.1026077
v 0.1614164 -0.14529867 -0.19697347
v 0.19306925 -0.2991988 -0.119420394
v 0.19267064 -0.089729875 -0.03467211
v 0.27094936 -0.08893268 0.08708459
v 0.21721005 0.3348906 0.010757983
v 0.17731947 0.29226094 -0.16439055
v 0.21537036 -0.055368602 -0.093521684
v 0.21721005 0.3348906 0.010757983
v -0.18153214 0.33397073 0.11703062
v -0.22229147 0.29341584 -0.056257784
v 0.17731947 0.29226094 -0.16439055
v -0.18153214 0.33397073 0.11703062
v -0.20833027 -0.08905533 0.20733887
v -0.24757695 -0.053753763 0.024831593
v -0.22229147 0.29341584 -0.056257784
v -0.24089271 -0.333509 0.1391682
v 0.28538072 -0.3349092 0.010022104
v 0.23686405 -0.2885184 -0.17031844
v -0.28539276 -0.288825 -0.042225033
v 0.21537036 -0.055368602 -0.093521684
v 0.17731947 0.29226094 -0.16439055
v -0.22229147 0.29341584 -0.056257784
v -0.24757695 -0.053753763 0.024831593
v -0.20833027 -0.08905533 0.20733887
v -0.18153214 0.33397073 0.11703062
v 0.21721005 0.3348906 0.010757983
v 0.27094936 -0.08893268 0.08708459
v 0.28538072 -0.3349092 0.010022104
v 0.23686405 -0.2885184 -0.17031844
v 0.23686405 -0.2885184 -0.17031844
v -0.28539276 -0.288825 -0.042225033
v -0.24089271 -0.333509 0.1391682
v -0.28539276 -0.288825 -0.042225033
v -0.24089271 -0.333509 0.1391682
v 0.28538072 -0.3349092 0.010022104
vt 0.88518906 0.46666816
vt 0.8765724 0.46666816
vt 0.87821364 0.46871972
vt 0.8835478 0.46871972
vt 0.8765724 0.47118163
vt 0.88518906 0.47118163
vt 0.88518906 0.47118163
vt 0.88518906 0.46666816
vt 0.8835478 0.46871972
vt 0.87821364 0.46871972
vt 0.8765724 0.46666816
vt 0.8765724 0.47118163
vt 0.88518906 0.46666816
vt 0.8765724 0.46666816
vt 0.87821364 0.46913004
vt 0.8835478 0.46913004
vt 0.8765724 0.47118163
vt 0.88518906 0.47118163
vt 0.88518906 0.47118163
vt 0.88518906 0.46666816
vt 0.8835478 0.46913004
vt 0.87821364 0.46913004
vt 0.8765724 0.46666816
vt 0.8765724 0.47118163
vt 0.88641995 0.4793879
vt 0.88477874 0.4732332
vt 0.8839581 0.47487444
vt 0.8843684 0.4789776
vt 0.88477874 0.4732332
vt 0.87821364 0.4732332
vt 0.8790343 0.47487444
vt 0.8839581 0.47487444
vt 0.87821364 0.4732332
vt 0.87616205 0.4793879
vt 0.87821364 0.4789776
vt 0.8790343 0.47487444
vt 0.8778033 0.48267043
vt 0.88477874 0.48308074
vt 0.8839581 0.48143947
vt 0.87862396 0.48143947
vt 0.8843684 0.4789776
vt 0.8839581 0.47487444
vt 0.8790343 0.47487444
vt 0.87821364 0.4789776
vt 0.88272715 0.4843117
vt 0.8778033 0.4843117
vt 0.8778033 0.48964578
vt 0.88272715 0.48964578
vt 0.88477874 0.48308074
vt 0.8839581 0.48143947
vt 0.8839581 0.48143947
vt 0.87862396 0.48143947
vt 0.8778033 0.48267043
vt 0.87862396 0.48143947
vt 0.88518906 0.4843117
vt 0.88518906 0.48964578
vn -0.13359588 -0.8672104 -0.47968563
vn -0.13359588 -0.8672104 -0.47968563
vn -0.24819213 -0.2942297 -0.92294616
vn -0.24819213 -0.2789502 -0.9276785
vn -0.18707412 0.68365747 -0.7054188
vn -0.18707412 0.68365747 -0.7054188
vn -0.9739676 0.034279287 0.22408035
vn -0.9739676 0.034279287 0.22408035
vn -0.9739676 0.034279287 0.22408035
vn 0.9741668 0.072478 -0.2138831
vn 0.9741668 0.072478 -0.2138831
vn 0.9741668 0.072478 -0.2138831
vn -0.2099933 -0.46994376 -0.85735387
vn -0.2099933 -0.46994376 -0.85735387
vn -0.22527283 0.30931002 -0.92389363
vn -0.22527283 0.33986896 -0.9130943
vn -0.08011776 0.94340867 -0.3218093
vn -0.08011776 0.94340867 -0.3218093
vn -0.9739676 0.026639521 0.22511643
vn -0.9739676 0.026639521 0.22511643
vn -0.9739676 0.026639521 0.22511643
vn 0.9741668 0.08775753 -0.2080809
vn 0.9741668 0.08775753 -0.2080809
vn 0.9741668 0.08775753 -0.2080809
vn 0.95888734 0.10303694 -0.26442096
vn 0.96652704 0.06483823 -0.24823672
vn 0.96652704 0.06483823 -0.24823672
vn 0.95888734 0.095397174 -0.2672722
vn -0.057198465 0.9739676 -0.2193523
vn -0.057198465 0.9739676 -0.2193523
vn -0.057198465 0.9739676 -0.2193523
vn -0.057198465 0.9739676 -0.2193523
vn -0.96632797 0.110676706 0.23229493
vn -0.96632797 0.095397174 0.23897626
vn -0.96632797 0.10303694 0.23578307
vn -0.96632797 0.110676706 0.23229493
vn -0.057198465 -0.9741668 -0.21846603
vn -0.057198465 -0.9741668 -0.21846603
vn -0.057198465 -0.9741668 -0.21846603
vn -0.057198465 -0.9741668 -0.21846603
vn -0.24819213 0.026639521 -0.9683445
vn -0.24819213 -0.2101925 -0.945632
vn -0.24819213 -0.2101925 -0.945632
vn -0.24819213 0.026639521 -0.9683445
vn 0.24839121 -0.011559188 0.9685908
vn 0.24839121 0.19471389 0.94888794
vn 0.24839121 0.19471389 0.94888794
vn 0.24839121 -0.011559188 0.9685908
vn 0.95888734 0.14887542 -0.24160124
vn 0.95888734 0.14887542 -0.24160124
vn -0.2329126 0.2940305 -0.9269832
vn -0.2329126 0.2940305 -0.9269832
vn -0.96632797 0.072478 0.24689513
vn -0.96632797 0.072478 0.24689513
vn 0.23311174 -0.28658992 0.92926055
vn 0.23311174 -0.28658992 0.92926055
g TowerDefenceTracks49_CorpsePart_0
f 3/3/3 2/2/2 1/1/1
f 4/4/4 3/3/3 1/1/1
f 5/5/5 3/3/3 4/4/4
f 6/6/6 5/5/5 4/4/4
f 9/9/9 8/8/8 7/7/7
f 12/12/12 11/11/11 10/10/10
f 15/15/15 14/14/14 13/13/13
f 16/16/16 15/15/15 13/13/13
f 17/17/17 15/15/15 16/16/16
f 18/18/18 17/17/17 16/16/16
f 21/21/21 20/20/20 19/19/19
f 24/24/24 23/23/23 22/22/22
f 27/27/27 26/26/26 25/25/25
f 28/28/28 27/27/27 25/25/25
f 31/31/31 30/30/30 29/29/29
f 32/32/32 31/31/31 29/29/29
f 35/35/35 34/34/34 33/33/33
f 36/36/36 35/35/35 33/33/33
f 39/39/39 38/38/38 37/37/37
f 40/40/40 39/39/39 37/37/37
f 43/43/43 42/42/42 41/41/41
f 44/44/44 43/43/43 41/41/41
f 47/47/47 46/46/46 45/45/45
f 48/48/48 47/47/47 45/45/45
f 28/28/28 25/25/25 49/49/49
f 50/50/50 28/28/28 49/49/49
f 44/44/44 41/41/41 51/51/51
f 52/52/52 44/44/44 51/51/51
f 54/54/54 53/53/53 34/34/34
f 35/35/35 54/54/54 34/34/34
f 48/48/48 45/45/45 55/55/55
f 56/56/56 48/48/48 55/55/55
