g TowerDefenceTracks7
v 1.5333159 -0.58995414 -1.1434305
v 1.5333159 -0.58995414 1.1434262
v 1.1607909 0.58994985 0.69649935
v 1.1607909 0.58994985 -0.69650346
v -1.5333116 -0.58995414 1.1434262
v -1.5333116 -0.58995414 -1.1434305
v -1.1607869 0.58994985 -0.69650346
v -1.1607869 0.58994985 0.69649935
v -1.1434262 -0.58995414 -1.5333159
v 1.1434305 -0.58995414 -1.5333159
v 0.69650346 0.58994985 -1.1607909
v -0.6965461 0.58994985 -1.1607909
v 1.1434305 -0.58995414 1.5333116
v -1.1434262 -0.58995414 1.5333116
v -0.6965461 0.58994985 1.1608336
v 0.69650346 0.58994985 1.1608336
v 0.9286472 0.58994985 1.098551
v 1.3383732 -0.58995414 1.4810431
v 1.0985553 0.58994985 0.928643
v 1.4810473 -0.58995414 1.3383689
v 1.0985553 0.58994985 -0.9286472
v 1.4810473 -0.58995414 -1.3383732
v 0.9286472 0.58994985 -1.098602
v 1.3383732 -0.58995414 -1.4810473
v -1.4810898 -0.58995414 -1.3383732
v -1.098598 0.58994985 -0.9286472
v -1.3383689 -0.58995414 -1.4810473
v -0.928643 0.58994985 -1.098602
v -0.928643 0.58994985 -1.098602
v -1.3383689 -0.58995414 -1.4810473
v -1.3383689 -0.58995414 1.4810431
v -0.928643 0.58994985 1.098551
v -1.4810898 -0.58995414 1.3383689
v -1.098598 0.58994985 0.928643
vt 0.9517157 0.37705204
vt 0.93001926 0.37705204
vt 0.934124 0.39053905
vt 0.94819736 0.39053905
vt 0.9030453 0.37705204
vt 0.88076234 0.37705204
vt 0.88545346 0.39053905
vt 0.89952695 0.39053905
vt 0.9763442 0.37705204
vt 0.95464766 0.37705204
vt 0.958166 0.39053905
vt 0.9728259 0.39053905
vt 0.9276737 0.37705204
vt 0.90539086 0.37705204
vt 0.9094956 0.39053905
vt 0.92356896 0.39053905
vt 0.9270873 0.39053905
vt 0.9282601 0.37705204
vt 0.93060565 0.39053905
vt 0.92943287 0.37705204
vt 0.9517157 0.39053905
vt 0.9528885 0.37705204
vt 0.95523405 0.39053905
vt 0.9534749 0.37705204
vt 0.87958956 0.37705204
vt 0.8819351 0.39053905
vt 0.87900317 0.37705204
vt 0.87900317 0.39053905
vt 0.9769306 0.39053905
vt 0.9769306 0.37705204
vt 0.90480447 0.37705204
vt 0.90597725 0.39053905
vt 0.9036317 0.37705204
vt 0.9030453 0.39053905
vn 0.94868314 0.31622803 -0
vn 0.94868314 0.31622803 -0
vn 0.95089614 0.3095076 -0.0012508485
vn 0.95089614 0.3095076 -0.0012508485
vn -0.94868326 0.31622797 -0
vn -0.94868326 0.31622797 -0
vn -0.9508965 0.3095076 -0.00095339963
vn -0.9508965 0.3095076 -0.00095339963
vn -0.04101926 0.3169657 -0.9475496
vn 0.041018844 0.3169657 -0.9475496
vn 0.01864481 0.3095076 -0.9507142
vn -0.018645227 0.3095076 -0.9507141
vn 0.041018844 0.3169657 0.9475496
vn -0.04101926 0.3169657 0.9475496
vn -0.018645227 0.3095076 0.9507141
vn 0.01864481 0.3095076 0.9507142
vn 0.44375145 0.4139198 0.79483014
vn 0.47358346 0.4139198 0.77742463
vn 0.7942779 0.4139198 0.44473928
vn 0.7793619 0.4139198 0.47038862
vn 0.7942779 0.4139198 -0.44473928
vn 0.7793619 0.4139198 -0.47038862
vn 0.43629342 0.4139198 -0.79894835
vn 0.47358346 0.4139198 -0.77742463
vn -0.7793623 0.4139198 -0.4703879
vn -0.7942784 0.4139198 -0.4447384
vn -0.47358382 0.4139198 -0.7774244
vn -0.43629384 0.4139198 -0.7989481
vn -0.43629384 0.4139198 -0.7989481
vn -0.47358382 0.4139198 -0.7774244
vn -0.47358382 0.4139198 0.7774244
vn -0.4437518 0.4139198 0.79482996
vn -0.7793623 0.4139198 0.4703879
vn -0.7942784 0.4139198 0.4447384
g TowerDefenceTracks7_0
f 3/3/3 2/2/2 1/1/1
f 4/4/4 3/3/3 1/1/1
f 7/7/7 6/6/6 5/5/5
f 8/8/8 7/7/7 5/5/5
f 11/11/11 10/10/10 9/9/9
f 12/12/12 11/11/11 9/9/9
f 15/15/15 14/14/14 13/13/13
f 16/16/16 15/15/15 13/13/13
f 17/17/17 16/16/16 13/13/13
f 18/18/18 17/17/17 13/13/13
f 19/19/19 17/17/17 18/18/18
f 20/20/20 19/19/19 18/18/18
f 3/3/3 19/19/19 20/20/20
f 2/2/2 3/3/3 20/20/20
f 21/21/21 4/4/4 1/1/1
f 22/22/22 21/21/21 1/1/1
f 23/23/23 21/21/21 22/22/22
f 24/24/24 23/23/23 22/22/22
f 11/11/11 23/23/23 24/24/24
f 10/10/10 11/11/11 24/24/24
f 25/25/25 6/6/6 7/7/7
f 26/26/26 25/25/25 7/7/7
f 27/27/27 25/25/25 26/26/26
f 28/28/28 27/27/27 26/26/26
f 9/9/9 30/30/30 29/29/29
f 12/12/12 9/9/9 29/29/29
f 31/31/31 14/14/14 15/15/15
f 32/32/32 31/31/31 15/15/15
f 33/33/33 31/31/31 32/32/32
f 34/34/34 33/33/33 32/32/32
f 5/5/5 33/33/33 34/34/34
f 8/8/8 5/5/5 34/34/34
