g TowerRushTracks01_CorpsePart
v 1.1690357 0.20461583 -0.28766418
v 1.1964111 -1.013279E-05 -0.28904355
v 1.1964111 -1.013279E-05 0.28904986
v 1.1690357 0.20461583 0.2876705
v 1.1690357 0.20461583 0.2876705
v 1.1964111 -1.013279E-05 0.28904986
v 0.78670835 -1.013279E-05 0.28904986
v 0.97191685 0.46232128 0.2876705
v 0.6635986 0.5420071 0.28904986
v 0.78670835 -1.013279E-05 0.28904986
v 1.1964111 -1.013279E-05 0.28904986
v 1.1964111 -1.013279E-05 -0.28904355
v 0.78670835 -1.013279E-05 -0.28904355
v 0.78670835 -1.013279E-05 -0.28904355
v 1.1964111 -1.013279E-05 -0.28904355
v 1.1690357 0.20461583 -0.28766418
v 0.97191685 0.46232128 -0.28766418
v 0.6635986 0.5420071 -0.28904355
v 0.6635986 0.5420071 -0.28904355
v 0.97191685 0.46232128 -0.28766418
v 0.97191685 0.46232128 0.2876705
v 0.6635986 0.5420071 0.28904986
vt 0.7089479 0.8441796
vt 0.7089479 0.84227264
vt 0.703545 0.84227264
vt 0.703545 0.8441796
vt 0.71355623 0.8414781
vt 0.71053696 0.84227264
vt 0.71053696 0.8371875
vt 0.71530426 0.83909446
vt 0.71562207 0.8371875
vt 0.7215017 0.8610239
vt 0.7215017 0.866109
vt 0.72690463 0.866109
vt 0.72690463 0.8610239
vt 0.71053696 0.8371875
vt 0.71562207 0.8371875
vt 0.71530426 0.83909446
vt 0.71355623 0.8414781
vt 0.71053696 0.84227264
vt 0.7089479 0.850377
vt 0.7089479 0.84719884
vt 0.703545 0.84719884
vt 0.703545 0.850377
vn 0.8996692 0.43542695 -0.031603247
vn 0.9909447 0.13427098 -0
vn 0.9909447 0.13427098 -0
vn 0.8996692 0.43542695 -0.031603247
vn 0.0044602156 0.0032571554 0.99998474
vn 0.0044602156 0.0032571554 0.99998474
vn 0.0044602156 0.0032571554 0.99998474
vn 0.0044602156 0.0032571554 0.99998474
vn 0.0044602156 0.0032571554 0.99998474
vn -0.0032571554 -0.9999943 -0.0009134906
vn -0.0032571554 -0.9999943 -0.0009134906
vn -0.0032571554 -0.9999943 -0.0009134906
vn -0.0032571554 -0.9999943 -0.0009134906
vn 0.0044602156 0.0032571554 -0.99998474
vn 0.0044602156 0.0032571554 -0.99998474
vn 0.0044602156 0.0032571554 -0.99998474
vn 0.0044602156 0.0032571554 -0.99998474
vn 0.0044602156 0.0032571554 -0.99998474
vn 0.25140414 0.9678823 -0
vn 0.5523898 0.8290101 -0.08722212
vn 0.5523898 0.8290101 -0.08722212
vn 0.25140414 0.9678823 -0
g TowerRushTracks01_CorpsePart_0
f 3/3/3 2/2/2 1/1/1
f 4/4/4 3/3/3 1/1/1
f 7/7/7 6/6/6 5/5/5
f 5/5/5 8/8/8 7/7/7
f 8/8/8 9/9/9 7/7/7
f 12/12/12 11/11/11 10/10/10
f 13/13/13 12/12/12 10/10/10
f 16/16/16 15/15/15 14/14/14
f 14/14/14 17/17/17 16/16/16
f 14/14/14 18/18/18 17/17/17
f 21/21/21 20/20/20 19/19/19
f 22/22/22 21/21/21 19/19/19
f 1/1/1 20/20/20 21/21/21
f 4/4/4 1/1/1 21/21/21
