g TowerDefenceTracks39
v 2.8293762 2.2380028 -0.7907362
v 2.4528384 2.2380028 -0.7907362
v 2.4528384 2.3744202 -0.7907362
v 2.8293762 2.3744202 -0.7907362
v 2.8293762 2.3744202 -0.7907362
v 2.4528384 2.3744202 -0.7907362
v 2.4528384 2.3744202 -0.9409703
v 2.8293762 2.3744202 -0.9409703
v 2.8293762 2.3744202 -0.9409703
v 2.4528384 2.3744202 -0.9409703
v 2.4528384 2.2380028 -0.9409703
v 2.8293762 2.2380028 -0.9409703
v 2.8293762 2.2380028 -0.9409703
v 2.4528384 2.2380028 -0.9409703
v 2.4528384 2.2380028 -0.7907362
v 2.8293762 2.2380028 -0.7907362
v 2.4528384 2.2380028 -0.7907362
v 2.4528384 2.2380028 -0.9409703
v 2.4528384 2.3744202 -0.9409703
v 2.4528384 2.3744202 -0.7907362
v 2.8293762 2.2380028 -0.9409703
v 2.8293762 2.2380028 -0.7907362
v 2.8293762 2.3744202 -0.7907362
v 2.8293762 2.3744202 -0.9409703
vt 0.9475021 0.47190914
vt 0.95179105 0.47190914
vt 0.95179105 0.4704795
vt 0.9475021 0.4704795
vt 0.9475021 0.4704795
vt 0.95179105 0.4704795
vt 0.95179105 0.4685733
vt 0.9475021 0.4685733
vt 0.9475021 0.4685733
vt 0.95179105 0.4685733
vt 0.95179105 0.46714368
vt 0.9475021 0.46714368
vt 0.9475021 0.46714368
vt 0.95179105 0.46714368
vt 0.95179105 0.46571404
vt 0.9475021 0.46571404
vt 0.95179105 0.47190914
vt 0.9532206 0.47190914
vt 0.9532206 0.4704795
vt 0.95179105 0.4704795
vt 0.94607246 0.47190914
vt 0.9475021 0.47190914
vt 0.9475021 0.4704795
vt 0.94607246 0.4704795
vn -0.003921509 0.003921509 0.9999846
vn -0.003921509 0.003921509 0.9999846
vn -0.003921509 0.003921509 0.9999846
vn -0.003921509 0.003921509 0.9999846
vn -0.003921509 0.99999225 -0.00034526698
vn -0.003921509 0.99999225 -0.00034526698
vn -0.003921509 0.99999225 -0.00034526698
vn -0.003921509 0.99999225 -0.00034526698
vn -0.003921509 0.003921509 -0.9999846
vn -0.003921509 0.003921509 -0.9999846
vn -0.003921509 0.003921509 -0.9999846
vn -0.003921509 0.003921509 -0.9999846
vn -0.003921509 -0.9999924 -0
vn -0.003921509 -0.9999924 -0
vn -0.003921509 -0.9999924 -0
vn -0.003921509 -0.9999924 -0
vn -0.99999225 0.003921509 -0.00034492963
vn -0.99999225 0.003921509 -0.00034492963
vn -0.99999225 0.003921509 -0.00034492963
vn -0.99999225 0.003921509 -0.00034492963
vn 0.9999924 0.003921509 -0
vn 0.9999924 0.003921509 -0
vn 0.9999924 0.003921509 -0
vn 0.9999924 0.003921509 -0
g TowerDefenceTracks39_0
f 3/3/3 2/2/2 1/1/1
f 4/4/4 3/3/3 1/1/1
f 7/7/7 6/6/6 5/5/5
f 8/8/8 7/7/7 5/5/5
f 11/11/11 10/10/10 9/9/9
f 12/12/12 11/11/11 9/9/9
f 15/15/15 14/14/14 13/13/13
f 16/16/16 15/15/15 13/13/13
f 19/19/19 18/18/18 17/17/17
f 20/20/20 19/19/19 17/17/17
f 23/23/23 22/22/22 21/21/21
f 24/24/24 23/23/23 21/21/21
