g TowerRushTurret01_CorpsePart
v 81.31058 -90.29249 -35.331078
v 41.27561 -90.29249 -60.003178
v -41.27562 -90.29249 -60.003178
v -81.31058 -90.29249 -35.331078
v 100.108536 -86.95595 -0.3255539
v -100.108536 -86.95595 -0.3255539
v -100.93564 -75.999565 80.65242
v -78.994705 -69.68548 92.54501
v 78.994705 -69.68548 92.54501
v 100.93563 -75.999565 80.65242
v -106.63028 -83.21818 34.676437
v 106.63028 -83.21818 34.676437
v -81.409134 -43.595 6.2489777
v -87.08266 -43.595 81.06773
v -110.688324 -59.66882 67.77084
v -115.3271 -59.97854 26.204865
v -111.46263 -61.33005 -13.819542
v -93.64664 -62.231056 -53.995293
v -70.431625 -46.153717 -49.84925
v -48.17746 -62.51966 -81.47952
v -38.75209 -43.595 -69.25609
v 48.17746 -62.51966 -81.47952
v 38.688736 -43.595 -69.062515
v 93.64663 -62.231056 -53.995293
v 111.46263 -61.33005 -13.819542
v 81.2965 -43.595 6.175064
v 70.431625 -46.153717 -49.84925
v 115.3271 -59.97854 26.204865
v 110.688324 -59.66882 67.77084
v 88.025894 -47.191986 80.40605
v -48.17746 -62.51966 -81.47952
v -41.27562 -90.29249 -60.003178
v 41.27561 -90.29249 -60.003178
v 48.17746 -62.51966 -81.47952
v 100.93563 -75.999565 80.65242
v 110.688324 -59.66882 67.77084
v 115.3271 -59.97854 26.204865
v 106.63028 -83.21818 34.676437
v -81.31058 -90.29249 -35.331078
v -93.64664 -62.231056 -53.995293
v -111.46263 -61.33005 -13.819542
v -100.108536 -86.95595 -0.3255539
v 111.46263 -61.33005 -13.819542
v 93.64663 -62.231056 -53.995293
v 81.31058 -90.29249 -35.331078
v 100.108536 -86.95595 -0.3255539
v -106.63028 -83.21818 34.676437
v -115.3271 -59.97854 26.204865
v -110.688324 -59.66882 67.77084
v -100.93564 -75.999565 80.65242
v -110.688324 -59.66882 67.77084
v -87.08266 -43.595 81.06773
v -78.994705 -69.68548 92.54501
v -100.93564 -75.999565 80.65242
v 88.025894 -47.191986 80.40605
v 110.688324 -59.66882 67.77084
v 100.93563 -75.999565 80.65242
v 78.994705 -69.68548 92.54501
v 19.046082 80.937515 43.031876
v 18.486473 85.58684 34.859467
v 20.774185 90.292496 -51.76741
v 23.181564 77.984604 -71.86409
v -28.453857 19.144638 -92.545006
v -23.181564 77.984604 -71.86409
v -19.046082 80.937515 43.031876
v -20.738998 47.836075 74.9261
v 18.486473 85.58684 34.859467
v 19.046082 80.937515 43.031876
v -19.046082 80.937515 43.031876
v -18.48648 85.58684 34.859467
v 20.73899 47.836075 74.9261
v -20.738998 47.836075 74.9261
v -28.453857 19.144638 -92.545006
v -30.576157 -4.4258423 -80.98678
v 30.576157 -4.4258423 -80.98678
v 28.453865 19.144638 -92.545006
v -20.774185 90.292496 -51.76741
v -23.181564 77.984604 -71.86409
v 23.181564 77.984604 -71.86409
v 20.774185 90.292496 -51.76741
v -20.774185 90.292496 -51.76741
v 20.774185 90.292496 -51.76741
v 18.486473 85.58684 34.859467
v -18.48648 85.58684 34.859467
v 22.312233 33.891586 74.17291
v -22.31224 33.891586 74.17291
v 22.312233 33.891586 74.17291
v 20.73899 47.836075 74.9261
v 28.453865 19.144638 -92.545006
v 30.576157 -4.4258423 -80.98678
v -20.774185 90.292496 -51.76741
v -18.48648 85.58684 34.859467
v -22.31224 33.891586 74.17291
v -30.576157 -4.4258423 -80.98678
vt 0.7360194 0.87195706
vt 0.73876005 0.8737842
vt 0.74460685 0.8737842
vt 0.74734753 0.87195706
vt 0.7345577 0.8695818
vt 0.7488092 0.8695818
vt 0.7488092 0.8637351
vt 0.74716485 0.86282146
vt 0.7360194 0.86282146
vt 0.7345577 0.8637351
vt 0.74917465 0.8670239
vt 0.73419225 0.8670239
vt 0.7237777 0.87140894
vt 0.7316343 0.87140894
vt 0.7316343 0.8683028
vt 0.72761464 0.8683028
vt 0.7237777 0.8683028
vt 0.71975803 0.8683028
vt 0.7179309 0.87140894
vt 0.7146421 0.8683028
vt 0.714094 0.87140894
vt 0.7055065 0.8683028
vt 0.7060546 0.87140894
vt 0.70057327 0.8683028
vt 0.6963709 0.8683028
vt 0.6963709 0.87140894
vt 0.7022177 0.87140894
vt 0.69253397 0.8683028
vt 0.6885143 0.8683028
vt 0.6885143 0.87140894
vt 0.7161038 0.8754286
vt 0.7161038 0.87250525
vt 0.70769906 0.87250525
vt 0.70769906 0.8754286
vt 0.6910723 0.87250525
vt 0.6910723 0.8754286
vt 0.69527465 0.8754286
vt 0.69527465 0.87250525
vt 0.7208543 0.87250525
vt 0.7208543 0.8754286
vt 0.72487396 0.8754286
vt 0.72487396 0.87250525
vt 0.6989289 0.8754286
vt 0.7029485 0.8754286
vt 0.7029485 0.87250525
vt 0.6989289 0.87250525
vt 0.7283455 0.87250525
vt 0.7283455 0.8754286
vt 0.7325479 0.8754286
vt 0.7325479 0.87250525
vt 0.7325479 0.8754286
vt 0.73528856 0.8754286
vt 0.73528856 0.87250525
vt 0.7325479 0.87250525
vt 0.6885143 0.8754286
vt 0.6910723 0.8754286
vt 0.6910723 0.87250525
vt 0.6885143 0.87250525
vt 0.73985636 0.84710824
vt 0.7391255 0.84765637
vt 0.73090345 0.8480218
vt 0.7290763 0.84692556
vt 0.7270665 0.8412615
vt 0.7290763 0.84692556
vt 0.73985636 0.84710824
vt 0.7429625 0.8440021
vt 0.733096 0.8366937
vt 0.733096 0.83578014
vt 0.7292591 0.83578014
vt 0.7292591 0.8366937
vt 0.733096 0.83139503
vt 0.7292591 0.83139503
vt 0.7436933 0.8324913
vt 0.7436933 0.82993335
vt 0.73876005 0.82993335
vt 0.73876005 0.8324913
vt 0.7436933 0.8407134
vt 0.7436933 0.8383381
vt 0.73876005 0.8383381
vt 0.73876005 0.8407134
vt 0.73419225 0.8381554
vt 0.7378465 0.8381554
vt 0.7378465 0.82993335
vt 0.73419225 0.82993335
vt 0.733096 0.83011603
vt 0.7292591 0.83011603
vt 0.7429625 0.8427232
vt 0.7429625 0.8440021
vt 0.7270665 0.8412615
vt 0.72816277 0.83906895
vt 0.73090345 0.8480218
vt 0.7391255 0.84765637
vt 0.7429625 0.8427232
vt 0.72816277 0.83906895
vn -0.003008902 -0.9979221 0.064361505
vn -0.003008902 -0.9979221 0.064361505
vn -0.003008902 -0.9979221 0.064361505
vn -0.003008902 -0.9979221 0.064361505
vn -0.003008902 -0.9979221 0.064361505
vn -0.003008902 -0.9979221 0.064361505
vn -0.003008902 -0.9822826 0.1873817
vn -0.003008902 -0.8806255 0.47380343
vn -0.003008902 -0.8806255 0.47380343
vn -0.003008902 -0.9822826 0.1873817
vn -0.003008902 -0.99010235 0.14031482
vn -0.003008902 -0.99010235 0.14031482
vn -0.4800151 0.8710038 -0.10458427
vn -0.58167225 0.761527 0.2858916
vn -0.55039316 0.8162654 0.17543708
vn -0.48783487 0.8710038 -0.05804748
vn -0.47219533 0.8710038 -0.13558732
vn -0.46437556 0.8397247 -0.28145644
vn -0.448736 0.80062586 -0.39703172
vn -0.175044 0.61295134 -0.770487
vn -0.112485826 0.589492 -0.7999038
vn 0.17684585 0.61295134 -0.77007544
vn 0.114287674 0.5973118 -0.79382426
vn 0.46617752 0.8397247 -0.27846164
vn 0.4739973 0.8710038 -0.12914693
vn 0.46617752 0.8788236 -0.10172318
vn 0.45053798 0.80062586 -0.3949858
vn 0.45835775 0.88664335 0.06141435
vn 0.5052764 0.8475445 0.1623704
vn 0.552195 0.77716655 0.30181587
vn -0.15158468 -0.6303928 -0.7613324
vn -0.15158468 -0.6303928 -0.7613324
vn 0.14556676 -0.6303928 -0.7625059
vn 0.15338653 -0.6303928 -0.7609714
vn 0.9275442 -0.35670066 0.111473925
vn 0.9275442 -0.35670066 0.111473925
vn 0.9185538 -0.39529577 -0
vn 0.9197244 -0.38797975 0.059822675
vn -0.589492 -0.6069334 -0.5330394
vn -0.55821294 -0.6069334 -0.5657121
vn -0.8240852 -0.5052764 -0.25608477
vn -0.8475445 -0.48181707 -0.22253244
vn 0.8180673 -0.5052764 -0.2747028
vn 0.5600148 -0.6069334 -0.5639285
vn 0.5912939 -0.6069334 -0.5310399
vn 0.8415266 -0.48181707 -0.24430564
vn -0.92227775 -0.3865278 -0
vn -0.91792244 -0.39579952 -0.02758816
vn -0.9257422 -0.35670066 0.12556283
vn -0.9257422 -0.35670066 0.12556283
vn -0.55039316 0.8162654 0.17543708
vn -0.58167225 0.761527 0.2858916
vn -0.55039316 0.2297824 0.80266273
vn -0.55039316 0.2297824 0.80266273
vn 0.552195 0.77716655 0.30181587
vn 0.5052764 0.8475445 0.1623704
vn 0.54437524 0.25324172 0.7997026
vn 0.54437524 0.25324172 0.7997026
vn 0.99670535 0.0811076 -0
vn 0.98848224 0.15133664 -0
vn 0.98848224 0.15133664 -0
vn 0.99670535 0.0811076 -0
vn -0.99603003 0.08901832 -0
vn -0.9961203 0.08120662 0.03390954
vn -0.9961203 0.08120662 0.03390954
vn -0.99603003 0.08901832 -0
vn -0.003008902 0.9961203 0.087950625
vn -0.003008902 0.72242814 0.69143945
vn -0.003008902 0.72242814 0.69143945
vn -0.003008902 0.9961203 0.087950625
vn -0.003008902 0.5269337 0.849901
vn -0.003008902 0.5269337 0.849901
vn -0.003008902 0.065567076 -0.9978436
vn -0.003008902 -0.44271815 -0.89665574
vn -0.003008902 -0.44271815 -0.89665574
vn -0.003008902 0.065567076 -0.9978436
vn -0.003008902 0.9961203 -0.087950625
vn -0.003008902 0.46437556 -0.8856333
vn -0.003008902 0.46437556 -0.8856333
vn -0.003008902 0.9961203 -0.087950625
vn -0.003008902 0.9961203 -0.087950625
vn -0.003008902 0.9961203 -0.087950625
vn -0.003008902 0.9961203 0.087950625
vn -0.003008902 0.9961203 0.087950625
vn -0.003008902 -0.0517295 0.9986566
vn -0.003008902 -0.0517295 0.9986566
vn 0.9945446 0.10431169 -0
vn 0.9960442 0.08885886 -0
vn 0.9960442 0.08885886 -0
vn 0.9945446 0.10431169 -0
vn -0.9883004 0.15158468 0.016866092
vn -0.9883004 0.15158468 0.016866092
vn -0.9945251 0.10449833 -0
vn -0.9945251 0.10449833 -0
g TowerRushTurret01_CorpsePart_0
f 3/3/3 2/2/2 1/1/1
f 1/1/1 4/4/4 3/3/3
f 1/1/1 5/5/5 4/4/4
f 5/5/5 6/6/6 4/4/4
f 9/9/9 8/8/8 7/7/7
f 10/10/10 9/9/9 7/7/7
f 12/12/12 11/11/11 6/6/6
f 5/5/5 12/12/12 6/6/6
f 15/15/15 14/14/14 13/13/13
f 16/16/16 15/15/15 13/13/13
f 13/13/13 17/17/17 16/16/16
f 19/19/19 18/18/18 17/17/17
f 13/13/13 19/19/19 17/17/17
f 21/21/21 20/20/20 18/18/18
f 19/19/19 21/21/21 18/18/18
f 23/23/23 22/22/22 20/20/20
f 21/21/21 23/23/23 20/20/20
f 26/26/26 25/25/25 24/24/24
f 27/27/27 26/26/26 24/24/24
f 22/22/22 23/23/23 27/27/27
f 24/24/24 22/22/22 27/27/27
f 26/26/26 28/28/28 25/25/25
f 30/30/30 29/29/29 28/28/28
f 26/26/26 30/30/30 28/28/28
f 33/33/33 32/32/32 31/31/31
f 34/34/34 33/33/33 31/31/31
f 37/37/37 36/36/36 35/35/35
f 38/38/38 37/37/37 35/35/35
f 41/41/41 40/40/40 39/39/39
f 42/42/42 41/41/41 39/39/39
f 45/45/45 44/44/44 43/43/43
f 46/46/46 45/45/45 43/43/43
f 49/49/49 48/48/48 47/47/47
f 50/50/50 49/49/49 47/47/47
f 39/39/39 40/40/40 31/31/31
f 32/32/32 39/39/39 31/31/31
f 44/44/44 45/45/45 33/33/33
f 34/34/34 44/44/44 33/33/33
f 46/46/46 43/43/43 37/37/37
f 38/38/38 46/46/46 37/37/37
f 47/47/47 48/48/48 41/41/41
f 42/42/42 47/47/47 41/41/41
f 53/53/53 52/52/52 51/51/51
f 54/54/54 53/53/53 51/51/51
f 57/57/57 56/56/56 55/55/55
f 58/58/58 57/57/57 55/55/55
f 11/11/11 12/12/12 10/10/10
f 7/7/7 11/11/11 10/10/10
f 61/61/61 60/60/60 59/59/59
f 62/62/62 61/61/61 59/59/59
f 65/65/65 64/64/64 63/63/63
f 66/66/66 65/65/65 63/63/63
f 69/69/69 68/68/68 67/67/67
f 70/70/70 69/69/69 67/67/67
f 71/71/71 68/68/68 69/69/69
f 72/72/72 71/71/71 69/69/69
f 75/75/75 74/74/74 73/73/73
f 76/76/76 75/75/75 73/73/73
f 79/79/79 78/78/78 77/77/77
f 80/80/80 79/79/79 77/77/77
f 83/83/83 82/82/82 81/81/81
f 84/84/84 83/83/83 81/81/81
f 76/76/76 73/73/73 78/78/78
f 79/79/79 76/76/76 78/78/78
f 86/86/86 85/85/85 71/71/71
f 72/72/72 86/86/86 71/71/71
f 89/89/89 88/88/88 87/87/87
f 90/90/90 89/89/89 87/87/87
f 62/62/62 59/59/59 88/88/88
f 89/89/89 62/62/62 88/88/88
f 92/92/92 91/91/91 64/64/64
f 65/65/65 92/92/92 64/64/64
f 93/93/93 66/66/66 63/63/63
f 94/94/94 93/93/93 63/63/63
