g TowerDefenceTracks55_CorpsePart
v -1.5460774 3.6735282 -0.22063127
v -1.4366165 3.643701 -0.3817272
v -1.4836087 3.7479563 -0.32566017
v -1.5120292 3.756257 -0.2842958
v -1.5132954 4.1473193 -0.42956352
v -1.5416455 4.0791526 -0.36139673
v -1.6167064 4.1538615 -0.25974452
v -1.5696439 4.0827403 -0.31686673
v -1.4720718 3.695547 -0.17715648
v -1.4368277 3.776095 -0.24011753
v -1.4079148 3.765895 -0.2807784
v -1.3605006 3.6590366 -0.3364937
v -1.3605006 3.6590366 -0.3364937
v -1.4079148 3.765895 -0.2807784
v -1.4680619 4.10293 -0.3177109
v -1.4398526 4.171378 -0.38594803
v -1.4398526 4.171378 -0.38594803
v -1.4680619 4.10293 -0.3177109
v -1.4962009 4.107432 -0.2737437
v -1.5440373 4.180664 -0.21704353
v -1.5440373 4.180664 -0.21704353
v -1.4962009 4.107432 -0.2737437
v -1.4368277 3.776095 -0.24011753
v -1.4720718 3.695547 -0.17715648
v -1.4720718 3.695547 -0.17715648
v -1.3605006 3.6590366 -0.3364937
v -1.4366165 3.643701 -0.3817272
v -1.5460774 3.6735282 -0.22063127
v -1.4079148 3.765895 -0.2807784
v -1.4368277 3.776095 -0.24011753
v -1.5120292 3.756257 -0.2842958
v -1.4836087 3.7479563 -0.32566017
v -1.3605006 3.6590366 -0.3364937
v -1.4398526 4.171378 -0.38594803
v -1.5132954 4.1473193 -0.42956352
v -1.4366165 3.643701 -0.3817272
v -1.4680619 4.10293 -0.3177109
v -1.4079148 3.765895 -0.2807784
v -1.4836087 3.7479563 -0.32566017
v -1.5416455 4.0791526 -0.36139673
v -1.4398526 4.171378 -0.38594803
v -1.5440373 4.180664 -0.21704353
v -1.6167064 4.1538615 -0.25974452
v -1.5132954 4.1473193 -0.42956352
v -1.4962009 4.107432 -0.2737437
v -1.4680619 4.10293 -0.3177109
v -1.5416455 4.0791526 -0.36139673
v -1.5696439 4.0827403 -0.31686673
v -1.5440373 4.180664 -0.21704353
v -1.4720718 3.695547 -0.17715648
v -1.5460774 3.6735282 -0.22063127
v -1.6167064 4.1538615 -0.25974452
v -1.4368277 3.776095 -0.24011753
v -1.4962009 4.107432 -0.2737437
v -1.5696439 4.0827403 -0.31686673
v -1.5120292 3.756257 -0.2842958
vt 0.9540484 0.49104688
vt 0.9540484 0.48844284
vt 0.95509 0.48948446
vt 0.95509 0.49000525
vt 0.9602981 0.48844284
vt 0.95925653 0.48948446
vt 0.9602981 0.49104688
vt 0.95925653 0.49000525
vt 0.94884026 0.48219308
vt 0.9477986 0.4816723
vt 0.9477986 0.48115146
vt 0.94884026 0.48063067
vt 0.94884026 0.48063067
vt 0.9477986 0.48115146
vt 0.9446738 0.48115146
vt 0.94415295 0.48010984
vt 0.94415295 0.48010984
vt 0.9446738 0.48115146
vt 0.9446738 0.4816723
vt 0.94415295 0.48219308
vt 0.94415295 0.48219308
vt 0.9446738 0.4816723
vt 0.9477986 0.4816723
vt 0.94884026 0.48219308
vt 0.9524859 0.49104688
vt 0.9524859 0.48844284
vt 0.9540484 0.48844284
vt 0.9540484 0.49104688
vt 0.99675494 0.46656874
vt 0.99675494 0.46552712
vt 0.99831736 0.46552712
vt 0.99831736 0.46656874
vt 0.9540484 0.48740122
vt 0.9602981 0.48740122
vt 0.9602981 0.48844284
vt 0.9540484 0.48844284
vt 0.99675494 0.47177684
vt 0.99675494 0.46656874
vt 0.99831736 0.46656874
vt 0.99831736 0.47177684
vt 0.9613397 0.48844284
vt 0.9613397 0.49104688
vt 0.9602981 0.49104688
vt 0.9602981 0.48844284
vt 0.99675494 0.47229767
vt 0.99675494 0.47177684
vt 0.99831736 0.47177684
vt 0.99831736 0.47229767
vt 0.9602981 0.4920885
vt 0.9540484 0.4920885
vt 0.9540484 0.49104688
vt 0.9602981 0.49104688
vt 0.99675494 0.4780266
vt 0.99675494 0.47229767
vt 0.99831736 0.47229767
vt 0.99831736 0.4780266
vn -0.81589425 -0.14088225 -0.5607751
vn -0.8535627 -0.14841592 -0.49940303
vn -0.8535627 -0.1559496 -0.497102
vn -0.81589425 -0.1559496 -0.55677307
vn -0.8610964 -0.17855066 -0.47605956
vn -0.8610964 -0.17855066 -0.47605956
vn -0.81589425 -0.17101699 -0.5523312
vn -0.81589425 -0.17101699 -0.5523312
vn 0.8264466 0.07759428 0.5576425
vn 0.8264466 0.07759428 0.5576425
vn 0.8264466 0.07759428 0.5576425
vn 0.8264466 0.07759428 0.5576425
vn 0.86411494 0.19059932 0.46580818
vn 0.86411494 0.19059932 0.46580818
vn 0.86411494 0.19059932 0.46580818
vn 0.86411494 0.19059932 0.46580818
vn 0.84151393 0.16046464 0.51585406
vn 0.84151393 0.16046464 0.51585406
vn 0.84151393 0.16046464 0.51585406
vn 0.84151393 0.16046464 0.51585406
vn 0.8038455 0.18306565 0.5659676
vn 0.8038455 0.18306565 0.5659676
vn 0.8038455 0.18306565 0.5659676
vn 0.8038455 0.18306565 0.5659676
vn 0.08814657 -0.9620527 0.25823396
vn 0.08814657 -0.9620527 0.25823396
vn 0.08814657 -0.9620527 0.25823396
vn 0.08814657 -0.9620527 0.25823396
vn -0.07759428 0.9590341 -0.27245688
vn -0.07759428 0.9590341 -0.27245688
vn -0.07759428 0.9590341 -0.27245688
vn -0.07759428 0.9590341 -0.27245688
vn 0.5100323 -0.0052761436 -0.8601391
vn 0.5100323 -0.0052761436 -0.8601391
vn 0.5100323 -0.0052761436 -0.8601391
vn 0.5100323 -0.0052761436 -0.8601391
vn -0.51454735 0.002257526 0.857459
vn -0.51454735 0.002257526 0.857459
vn -0.51454735 0.002257526 0.857459
vn -0.51454735 0.002257526 0.857459
vn -0.22826779 0.9590341 -0.16777186
vn -0.22826779 0.9590341 -0.16777186
vn -0.22826779 0.9590341 -0.16777186
vn -0.22826779 0.9590341 -0.16777186
vn 0.193618 -0.9620527 0.19226721
vn 0.193618 -0.9620527 0.19226721
vn 0.193618 -0.9620527 0.19226721
vn 0.193618 -0.9620527 0.19226721
vn -0.5070137 -0.0052761436 0.86192185
vn -0.5070137 -0.0052761436 0.86192185
vn -0.5070137 -0.0052761436 0.86192185
vn -0.5070137 -0.0052761436 0.86192185
vn 0.5024986 0.002257526 -0.8645751
vn 0.5024986 0.002257526 -0.8645751
vn 0.5024986 0.002257526 -0.8645751
vn 0.5024986 0.002257526 -0.8645751
g TowerDefenceTracks55_CorpsePart_0
f 3/3/3 2/2/2 1/1/1
f 4/4/4 3/3/3 1/1/1
f 6/6/6 5/5/5 2/2/2
f 3/3/3 6/6/6 2/2/2
f 8/8/8 7/7/7 5/5/5
f 6/6/6 8/8/8 5/5/5
f 4/4/4 1/1/1 7/7/7
f 8/8/8 4/4/4 7/7/7
f 11/11/11 10/10/10 9/9/9
f 12/12/12 11/11/11 9/9/9
f 15/15/15 14/14/14 13/13/13
f 16/16/16 15/15/15 13/13/13
f 19/19/19 18/18/18 17/17/17
f 20/20/20 19/19/19 17/17/17
f 23/23/23 22/22/22 21/21/21
f 24/24/24 23/23/23 21/21/21
f 27/27/27 26/26/26 25/25/25
f 28/28/28 27/27/27 25/25/25
f 31/31/31 30/30/30 29/29/29
f 32/32/32 31/31/31 29/29/29
f 35/35/35 34/34/34 33/33/33
f 36/36/36 35/35/35 33/33/33
f 39/39/39 38/38/38 37/37/37
f 40/40/40 39/39/39 37/37/37
f 43/43/43 42/42/42 41/41/41
f 44/44/44 43/43/43 41/41/41
f 47/47/47 46/46/46 45/45/45
f 48/48/48 47/47/47 45/45/45
f 51/51/51 50/50/50 49/49/49
f 52/52/52 51/51/51 49/49/49
f 55/55/55 54/54/54 53/53/53
f 56/56/56 55/55/55 53/53/53
