g TowerDefenceTracks26_CorpsePart
v -0.04534504 -0.13939977 0.34238917
v -0.09627524 -0.13939977 0.34238917
v -0.09627524 0.054864407 0.3423996
v -0.04534504 0.054864407 0.3423996
v -0.04534504 0.054864407 0.3423996
v -0.09627524 0.054864407 0.3423996
v -0.09627524 0.054874837 0.17137486
v -0.04534504 0.054874837 0.17137486
v -0.04534504 0.054874837 0.17137486
v -0.09627524 0.054874837 0.17137486
v -0.09627524 -0.13937886 0.17136437
v -0.04534504 -0.13937886 0.17136437
v -0.04534504 -0.13937886 0.17136437
v -0.09627524 -0.13937886 0.17136437
v -0.09627524 -0.13939977 0.34238917
v -0.04534504 -0.13939977 0.34238917
v -0.04534504 -0.13937886 0.17136437
v -0.04534504 -0.13939977 0.34238917
v -0.04534504 0.054864407 0.3423996
v -0.04534504 0.054874837 0.17137486
v 0.12213741 -0.08792618 0.24991226
v 0.10394506 -0.092398524 0.2935906
v 0.10394506 0.007999003 0.30549246
v 0.12213741 0.013850629 0.2619813
v 0.060036838 -0.094289854 0.3116889
v 0.060036838 0.005606085 0.32352805
v 0.12213741 0.07585716 -0.21777001
v 0.10394506 0.08101916 -0.26136476
v 0.10394506 -0.030851752 -0.27463546
v 0.12213741 -0.036024183 -0.23103026
v 0.060036838 0.083161294 -0.2794317
v 0.060036838 -0.02870962 -0.29269198
v -0.03689149 -0.084070385 0.2152726
v -0.03689149 0.018208027 0.22740436
v -0.12215832 0.016724199 0.22722667
v -0.12215832 -0.08258656 0.21545023
v -0.03689149 0.07175058 -0.1831617
v -0.03689149 -0.040120333 -0.19642195
v -0.12215832 -0.040120333 -0.19642195
v -0.12215832 0.071520686 -0.18319306
v 0.025177747 -0.04736176 -0.1347498
v 0.025177747 0.06436288 -0.121510446
v 0.025177747 0.027152687 0.16593069
v 0.025177747 -0.07839638 0.15342283
v -0.12215832 -0.09325537 0.31180388
v -0.12215832 0.004571587 0.32340264
v -0.12215832 0.08283734 -0.27946305
v -0.12215832 -0.02870962 -0.29269198
v 0.060036838 -0.094289854 0.3116889
v -0.03689149 -0.084070385 0.2152726
v -0.12215832 -0.08258656 0.21545023
v -0.12215832 -0.09325537 0.31180388
v -0.12215832 0.004571587 0.32340264
v -0.12215832 0.016724199 0.22722667
v -0.03689149 0.018208027 0.22740436
v 0.060036838 0.005606085 0.32352805
v 0.060036838 0.083161294 -0.2794317
v -0.03689149 0.07175058 -0.1831617
v -0.12215832 0.071520686 -0.18319306
v -0.12215832 0.08283734 -0.27946305
v -0.12215832 -0.02870962 -0.29269198
v -0.12215832 -0.040120333 -0.19642195
v -0.03689149 -0.040120333 -0.19642195
v 0.060036838 -0.02870962 -0.29269198
v 0.12213741 -0.036024183 -0.23103026
v 0.025177747 -0.04736176 -0.1347498
v 0.025177747 -0.07839638 0.15342283
v 0.12213741 -0.08792618 0.24991226
v 0.12213741 0.013850629 0.2619813
v 0.025177747 0.027152687 0.16593069
v 0.025177747 0.06436288 -0.121510446
v 0.12213741 0.07585716 -0.21777001
v 0.10394506 -0.092398524 0.2935906
v 0.0069958568 -0.08275375 0.1971221
v 0.10394506 0.08101916 -0.26136476
v 0.0069958568 0.06960845 -0.16510521
v 0.0069958568 -0.08275375 0.1971221
v 0.0069958568 0.021175653 0.2094419
v 0.10394506 0.007999003 0.30549246
v 0.0069958568 0.021175653 0.2094419
v 0.0069958568 0.06960845 -0.16510521
v 0.0069958568 -0.042272896 -0.17836545
v 0.10394506 -0.030851752 -0.27463546
v 0.0069958568 -0.042272896 -0.17836545
v -0.043056607 -0.08688125 -0.15655762
v -0.09856364 -0.08688125 -0.15655762
v -0.09856364 0.124216855 -0.13931617
v -0.043056607 0.124216855 -0.13931617
v -0.043056607 0.124216855 -0.13931617
v -0.09856364 0.124216855 -0.13931617
v -0.09856364 0.13939977 -0.32515815
v -0.043056607 0.13939977 -0.32515815
v -0.043056607 0.13939977 -0.32515815
v -0.09856364 0.13939977 -0.32515815
v -0.09856364 -0.07169831 -0.3423996
v -0.043056607 -0.07169831 -0.3423996
v -0.043056607 -0.07169831 -0.3423996
v -0.09856364 -0.07169831 -0.3423996
v -0.09856364 -0.08688125 -0.15655762
v -0.043056607 -0.08688125 -0.15655762
v -0.043056607 -0.07169831 -0.3423996
v -0.043056607 -0.08688125 -0.15655762
v -0.043056607 0.124216855 -0.13931617
v -0.043056607 0.13939977 -0.32515815
vt 0.9280091 0.49810368
vt 0.9280091 0.4986229
vt 0.925413 0.4986229
vt 0.925413 0.49810368
vt 0.925413 0.49810368
vt 0.92489386 0.49810368
vt 0.92489386 0.49550763
vt 0.925413 0.49550763
vt 0.925413 0.49550763
vt 0.925413 0.49498844
vt 0.9280091 0.49498844
vt 0.9280091 0.49550763
vt 0.9280091 0.49550763
vt 0.9290475 0.49550763
vt 0.9290475 0.49810368
vt 0.9280091 0.49810368
vt 0.9280091 0.49550763
vt 0.9280091 0.49810368
vt 0.925413 0.49810368
vt 0.925413 0.49550763
vt 0.9555272 0.42852962
vt 0.9555272 0.42852962
vt 0.9555272 0.43112567
vt 0.9555272 0.43112567
vt 0.9560464 0.42852962
vt 0.9560464 0.43112567
vt 0.95241195 0.43112567
vt 0.95189273 0.43112567
vt 0.95189273 0.42852962
vt 0.95241195 0.42852962
vt 0.9513735 0.43112567
vt 0.9513735 0.42852962
vt 0.9259322 0.48979634
vt 0.9259322 0.4882387
vt 0.92489386 0.4882387
vt 0.92489386 0.48979634
vt 0.932682 0.4882387
vt 0.932682 0.48979634
vt 0.9337204 0.48979634
vt 0.9337204 0.4882387
vt 0.9311243 0.48979634
vt 0.9311243 0.4882387
vt 0.9274899 0.4882387
vt 0.9274899 0.48979634
vt 0.9586424 0.42852962
vt 0.9586424 0.43112567
vt 0.94877744 0.43112567
vt 0.94877744 0.42852962
vt 0.95968086 0.49446923
vt 0.9586424 0.49706525
vt 0.9586424 0.4991421
vt 0.95968086 0.4991421
vt 0.95968086 0.4991421
vt 0.9586424 0.4991421
vt 0.9586424 0.49706525
vt 0.95968086 0.49446923
vt 0.95241195 0.49446923
vt 0.9534503 0.49706525
vt 0.9534503 0.4991421
vt 0.95241195 0.4991421
vt 0.95241195 0.4991421
vt 0.9534503 0.4991421
vt 0.9534503 0.49706525
vt 0.95241195 0.49446923
vt 0.9529311 0.4934308
vt 0.95448875 0.49550763
vt 0.957604 0.49550763
vt 0.95916164 0.4934308
vt 0.95916164 0.4934308
vt 0.957604 0.49550763
vt 0.95448875 0.49550763
vt 0.9529311 0.4934308
vt 0.95968086 0.4934308
vt 0.9581232 0.49602684
vt 0.95241195 0.4934308
vt 0.95396954 0.49602684
vt 0.92697066 0.48979634
vt 0.92697066 0.4882387
vt 0.95968086 0.4934308
vt 0.9581232 0.49602684
vt 0.93216276 0.4882387
vt 0.93216276 0.48979634
vt 0.95241195 0.4934308
vt 0.95396954 0.49602684
vt 0.9280091 0.49810368
vt 0.9280091 0.4986229
vt 0.925413 0.4986229
vt 0.925413 0.49810368
vt 0.925413 0.49810368
vt 0.92489386 0.49810368
vt 0.92489386 0.49550763
vt 0.925413 0.49550763
vt 0.925413 0.49550763
vt 0.925413 0.49498844
vt 0.9280091 0.49498844
vt 0.9280091 0.49550763
vt 0.9280091 0.49550763
vt 0.9290475 0.49550763
vt 0.9290475 0.49810368
vt 0.9280091 0.49810368
vt 0.9280091 0.49550763
vt 0.9280091 0.49810368
vt 0.925413 0.49810368
vt 0.925413 0.49550763
vn -0.003921509 -0.0039215684 0.9999846
vn -0.003921509 -0.0039215684 0.9999846
vn -0.003921509 -0.0039215684 0.9999846
vn -0.003921509 -0.0039215684 0.9999846
vn -0.003921509 0.99999225 -0.00034526698
vn -0.003921509 0.99999225 -0.00034526698
vn -0.003921509 0.99999225 -0.00034526698
vn -0.003921509 0.99999225 -0.00034526698
vn -0.003921509 0.003921509 -0.9999846
vn -0.003921509 0.003921509 -0.9999846
vn -0.003921509 0.003921509 -0.9999846
vn -0.003921509 0.003921509 -0.9999846
vn -0.003921509 -0.9999924 -0
vn -0.003921509 -0.9999924 -0
vn -0.003921509 -0.9999924 -0
vn -0.003921509 -0.9999924 -0
vn 0.9999924 0.003921509 -0
vn 0.9999924 0.003921509 -0
vn 0.9999924 0.003921509 -0
vn 0.9999924 0.003921509 -0
vn 0.9999924 -0.0039215684 -0
vn 0.7097985 -0.08235234 0.6995743
vn 0.7097985 -0.08235234 0.6995743
vn 0.9999924 -0.0039215684 -0
vn 0.08235234 -0.11372465 0.9900933
vn 0.08235234 -0.11372465 0.9900933
vn 0.9999924 0.003921509 -0
vn 0.7097985 0.08235228 -0.6995743
vn 0.7097985 0.08235228 -0.6995743
vn 0.9999924 0.003921509 -0
vn 0.08235234 0.11372459 -0.99009335
vn 0.08235234 0.11372459 -0.99009335
vn -0.1450969 0.11372459 -0.9828599
vn -0.1450969 0.11372459 -0.9828599
vn -0.003921509 0.12156761 -0.9925754
vn -0.003921509 0.12156761 -0.9925754
vn -0.13725376 -0.11372465 0.98398584
vn -0.13725376 -0.11372465 0.98398584
vn -0.003921509 -0.121567726 0.9925754
vn -0.003921509 -0.121567726 0.9925754
vn -0.99999225 -0.0039215684 -0.00034425134
vn -0.99999225 -0.0039215684 -0.00034425134
vn -0.99999225 0.003921509 -0.00034492963
vn -0.99999225 0.003921509 -0.00034492963
vn -0.003921509 -0.121567726 0.9925754
vn -0.003921509 -0.121567726 0.9925754
vn -0.003921509 0.12156761 -0.9925754
vn -0.003921509 0.12156761 -0.9925754
vn -0.003921509 -0.9921493 -0.124997616
vn -0.011764526 -0.9921493 -0.12450454
vn -0.011764526 -0.9921493 -0.12450454
vn -0.011764526 -0.9921493 -0.12450454
vn -0.011764526 0.99214923 0.12450501
vn -0.011764526 0.99214923 0.12450501
vn -0.011764526 0.99214923 0.12450501
vn -0.003921509 0.99214923 0.12499809
vn -0.003921509 0.99214923 0.12499809
vn -0.003921509 0.99214923 0.12499809
vn -0.003921509 0.99214923 0.12499809
vn -0.003921509 0.99214923 0.12499809
vn -0.003921509 -0.9921493 -0.124997616
vn -0.003921509 -0.9921493 -0.124997616
vn -0.003921509 -0.9921493 -0.124997616
vn -0.003921509 -0.9921493 -0.124997616
vn 0.0039215684 -0.9921493 -0.124997616
vn 0.011764646 -0.9921493 -0.12450454
vn 0.011764646 -0.9921493 -0.12450454
vn 0.0039215684 -0.9921493 -0.124997616
vn 0.0039215684 0.99214923 0.12499809
vn 0.011764646 0.99214923 0.12450501
vn 0.011764646 0.99214923 0.12450501
vn 0.0039215684 0.99214923 0.12499809
vn -0.003921509 -0.9921493 -0.124997616
vn -0.003921509 -0.9921493 -0.124997616
vn 0.0039215684 0.99214923 0.12499809
vn 0.0039215684 0.99214923 0.12499809
vn -0.70979846 0.08235228 -0.6995743
vn -0.70979846 0.08235228 -0.6995743
vn -0.003921509 0.99214923 0.12499809
vn -0.003921509 0.99214923 0.12499809
vn -0.70979846 -0.08235234 0.6995743
vn -0.70979846 -0.08235234 0.6995743
vn 0.0039215684 -0.9921493 -0.124997616
vn 0.0039215684 -0.9921493 -0.124997616
vn -0.003921509 -0.08235234 0.99659556
vn -0.003921509 -0.08235234 0.99659556
vn -0.003921509 -0.08235234 0.99659556
vn -0.003921509 -0.08235234 0.99659556
vn -0.003921509 0.99999225 -0.00034526698
vn -0.003921509 0.99999225 -0.00034526698
vn -0.003921509 0.99999225 -0.00034526698
vn -0.003921509 0.99999225 -0.00034526698
vn -0.003921509 0.08235228 -0.99659556
vn -0.003921509 0.08235228 -0.99659556
vn -0.003921509 0.08235228 -0.99659556
vn -0.003921509 0.08235228 -0.99659556
vn -0.003921509 -0.9999924 -0
vn -0.003921509 -0.9999924 -0
vn -0.003921509 -0.9999924 -0
vn -0.003921509 -0.9999924 -0
vn 0.9999924 0.003921509 -0
vn 0.9999924 0.003921509 -0
vn 0.9999924 0.003921509 -0
vn 0.9999924 0.003921509 -0
g TowerDefenceTracks26_CorpsePart_0
f 3/3/3 2/2/2 1/1/1
f 4/4/4 3/3/3 1/1/1
f 7/7/7 6/6/6 5/5/5
f 8/8/8 7/7/7 5/5/5
f 11/11/11 10/10/10 9/9/9
f 12/12/12 11/11/11 9/9/9
f 15/15/15 14/14/14 13/13/13
f 16/16/16 15/15/15 13/13/13
f 19/19/19 18/18/18 17/17/17
f 20/20/20 19/19/19 17/17/17
f 23/23/23 22/22/22 21/21/21
f 24/24/24 23/23/23 21/21/21
f 26/26/26 25/25/25 22/22/22
f 23/23/23 26/26/26 22/22/22
f 29/29/29 28/28/28 27/27/27
f 30/30/30 29/29/29 27/27/27
f 32/32/32 31/31/31 28/28/28
f 29/29/29 32/32/32 28/28/28
f 35/35/35 34/34/34 33/33/33
f 36/36/36 35/35/35 33/33/33
f 39/39/39 38/38/38 37/37/37
f 40/40/40 39/39/39 37/37/37
f 43/43/43 42/42/42 41/41/41
f 44/44/44 43/43/43 41/41/41
f 46/46/46 45/45/45 25/25/25
f 26/26/26 46/46/46 25/25/25
f 48/48/48 47/47/47 31/31/31
f 32/32/32 48/48/48 31/31/31
f 24/24/24 21/21/21 30/30/30
f 27/27/27 24/24/24 30/30/30
f 51/51/51 50/50/50 49/49/49
f 52/52/52 51/51/51 49/49/49
f 55/55/55 54/54/54 53/53/53
f 56/56/56 55/55/55 53/53/53
f 59/59/59 58/58/58 57/57/57
f 60/60/60 59/59/59 57/57/57
f 63/63/63 62/62/62 61/61/61
f 64/64/64 63/63/63 61/61/61
f 67/67/67 66/66/66 65/65/65
f 68/68/68 67/67/67 65/65/65
f 71/71/71 70/70/70 69/69/69
f 72/72/72 71/71/71 69/69/69
f 74/74/74 73/73/73 49/49/49
f 50/50/50 74/74/74 49/49/49
f 67/67/67 68/68/68 73/73/73
f 74/74/74 67/67/67 73/73/73
f 76/76/76 75/75/75 57/57/57
f 58/58/58 76/76/76 57/57/57
f 71/71/71 72/72/72 75/75/75
f 76/76/76 71/71/71 75/75/75
f 78/78/78 77/77/77 33/33/33
f 34/34/34 78/78/78 33/33/33
f 43/43/43 44/44/44 77/77/77
f 78/78/78 43/43/43 77/77/77
f 80/80/80 79/79/79 69/69/69
f 70/70/70 80/80/80 69/69/69
f 55/55/55 56/56/56 79/79/79
f 80/80/80 55/55/55 79/79/79
f 82/82/82 81/81/81 37/37/37
f 38/38/38 82/82/82 37/37/37
f 41/41/41 42/42/42 81/81/81
f 82/82/82 41/41/41 81/81/81
f 84/84/84 83/83/83 65/65/65
f 66/66/66 84/84/84 65/65/65
f 63/63/63 64/64/64 83/83/83
f 84/84/84 63/63/63 83/83/83
f 87/87/87 86/86/86 85/85/85
f 88/88/88 87/87/87 85/85/85
f 91/91/91 90/90/90 89/89/89
f 92/92/92 91/91/91 89/89/89
f 95/95/95 94/94/94 93/93/93
f 96/96/96 95/95/95 93/93/93
f 99/99/99 98/98/98 97/97/97
f 100/100/100 99/99/99 97/97/97
f 103/103/103 102/102/102 101/101/101
f 104/104/104 103/103/103 101/101/101
