g TowerRush_01_CorpsePart
v -1.0216148 -0.095492184 0.80672824
v -0.78141403 -0.095492184 1.0469289
v 0.7814057 -0.095492184 1.0469289
v 1.0216064 -0.095492184 0.80672824
v -0.76335955 0.39245307 0.5692736
v -0.7698301 0.38014317 -0.50430685
v -0.48670256 0.52240133 -0.46141165
v -0.48670256 0.52240133 0.51204836
v -0.52962947 0.38014317 0.7951443
v -0.78141403 -0.095492184 1.0469289
v -1.0216148 -0.095492184 0.80672824
v -0.76335955 0.39245307 0.5692736
v 0.4867258 0.52240133 0.51204836
v 0.5439826 0.39245307 0.78867376
v -0.52962947 0.38014317 0.7951443
v 0.4867258 0.52240133 -0.46141165
v 0.76982176 0.38014317 -0.50430685
v 0.7633512 0.39245307 0.5692736
v 0.7633512 0.39245307 0.5692736
v 1.0216064 -0.095492184 0.80672824
v 0.7814057 -0.095492184 1.0469289
v 0.5439826 0.39245307 0.78867376
v -0.7698301 0.38014317 -0.50430685
v -1.0216148 -0.095492184 -0.75609154
v -0.78141403 -0.095492184 -0.99629223
v -0.52962947 0.38014317 -0.7445076
v -0.52962947 0.38014317 -0.7445076
v 0.52962106 0.38014317 -0.7445076
v 0.52962106 0.38014317 -0.7445076
v 0.7814057 -0.095492184 -0.99629223
v 1.0216064 -0.095492184 -0.75609154
v 0.76982176 0.38014317 -0.50430685
v -0.52962947 0.38014317 0.7951443
v 0.5439826 0.39245307 0.78867376
v 0.7814057 -0.095492184 1.0469289
v -0.78141403 -0.095492184 1.0469289
v -0.52962947 0.38014317 -0.7445076
v -0.78141403 -0.095492184 -0.99629223
v 0.7814057 -0.095492184 -0.99629223
v 0.52962106 0.38014317 -0.7445076
v 0.7633512 0.39245307 0.5692736
v 0.76982176 0.38014317 -0.50430685
v -0.7698301 0.38014317 -0.50430685
v -0.76335955 0.39245307 0.5692736
v -1.0216148 -0.095492184 -0.75609154
v 1.0216064 -0.095492184 -0.75609154
v 0.7814057 -0.095492184 -0.99629223
v -0.78141403 -0.095492184 -0.99629223
vt 0.6270462 0.75973296
vt 0.62804013 0.76072687
vt 0.63450056 0.76072687
vt 0.6354945 0.75973296
vt 0.65255654 0.7705003
vt 0.65255654 0.7617208
vt 0.6499061 0.7623834
vt 0.6499061 0.76983774
vt 0.65586954 0.7807707
vt 0.65586954 0.7743103
vt 0.6533848 0.7743103
vt 0.6533848 0.7807707
vt 0.6424518 0.76983774
vt 0.6417892 0.7724881
vt 0.6505687 0.7726538
vt 0.6424518 0.7623834
vt 0.6398014 0.7618865
vt 0.6398014 0.7705003
vt 0.6533848 0.7807707
vt 0.6533848 0.7743103
vt 0.65586954 0.7743103
vt 0.65586954 0.7807707
vt 0.64294875 0.7807707
vt 0.64294875 0.7743103
vt 0.64029837 0.7743103
vt 0.64029837 0.7807707
vt 0.6505687 0.75973296
vt 0.6417892 0.75973296
vt 0.64029837 0.7807707
vt 0.64029837 0.7743103
vt 0.64294875 0.7743103
vt 0.64294875 0.7807707
vt 0.63814485 0.788722
vt 0.64841527 0.788722
vt 0.64841527 0.7824272
vt 0.63814485 0.7824272
vt 0.6379792 0.79004717
vt 0.6379792 0.7965076
vt 0.647587 0.7965076
vt 0.647587 0.79004717
vt 0.65156263 0.7807707
vt 0.6447709 0.7807707
vt 0.6447709 0.7807707
vt 0.65156263 0.7807707
vt 0.6270462 0.7532726
vt 0.6354945 0.7532726
vt 0.63450056 0.7522787
vt 0.62804013 0.7522787
vn 0.0011808276 -0.9999993 -0.00024414062
vn 0.0011808276 -0.9999993 -0.00024414062
vn 0.0011808276 -0.9999993 -0.00024414062
vn 0.0011808276 -0.9999993 -0.00024414062
vn -0.7791462 0.6152775 0.119853154
vn -0.7869494 0.6152775 -0.046305697
vn -0.10026169 0.9898344 -0.100873224
vn -0.10026169 0.9898344 0.100873224
vn -0.09245849 0.6152775 0.7828697
vn -0.1626879 0.5216383 0.8375119
vn -0.8337691 0.5216383 0.18089396
vn -0.7791462 0.6152775 0.119853154
vn 0.102623284 0.9898344 0.09846951
vn 0.09482002 0.6152775 0.78258723
vn -0.09245849 0.6152775 0.7828697
vn 0.102623284 0.9898344 -0.09846951
vn 0.78150773 0.6152775 -0.10334043
vn 0.78150773 0.6152775 0.10334043
vn 0.78150773 0.6152775 0.10334043
vn 0.8361306 0.5216383 0.16964392
vn 0.15724617 0.5216383 0.8385506
vn 0.09482002 0.6152775 0.78258723
vn -0.7869494 0.6152775 -0.046305697
vn -0.8337691 0.5294415 -0.15659133
vn -0.1704911 0.5294415 -0.8310382
vn -0.09245849 0.6152775 -0.7828697
vn -0.09245849 0.6152775 -0.7828697
vn 0.09482002 0.6152775 -0.78258723
vn 0.09482002 0.6152775 -0.78258723
vn 0.16504943 0.5294415 -0.83213603
vn 0.8361306 0.5294415 -0.14344783
vn 0.78150773 0.6152775 -0.10334043
vn -0.09245849 0.6152775 0.7828697
vn 0.09482002 0.6152775 0.78258723
vn 0.15724617 0.5216383 0.8385506
vn -0.1626879 0.5216383 0.8375119
vn -0.09245849 0.6152775 -0.7828697
vn -0.1704911 0.5294415 -0.8310382
vn 0.16504943 0.5294415 -0.83213603
vn 0.09482002 0.6152775 -0.78258723
vn 0.78150773 0.6152775 0.10334043
vn 0.78150773 0.6152775 -0.10334043
vn -0.7869494 0.6152775 -0.046305697
vn -0.7791462 0.6152775 0.119853154
vn 0.0011808276 -0.9999993 -0.00024414062
vn 0.0011808276 -0.9999993 -0.00024414062
vn 0.0011808276 -0.9999993 -0.00024414062
vn 0.0011808276 -0.9999993 -0.00024414062
g TowerRush_01_CorpsePart_0
f 3/3/3 2/2/2 1/1/1
f 4/4/4 3/3/3 1/1/1
f 7/7/7 6/6/6 5/5/5
f 8/8/8 7/7/7 5/5/5
f 11/11/11 10/10/10 9/9/9
f 12/12/12 11/11/11 9/9/9
f 14/14/14 13/13/13 8/8/8
f 15/15/15 14/14/14 8/8/8
f 17/17/17 16/16/16 13/13/13
f 18/18/18 17/17/17 13/13/13
f 21/21/21 20/20/20 19/19/19
f 22/22/22 21/21/21 19/19/19
f 25/25/25 24/24/24 23/23/23
f 26/26/26 25/25/25 23/23/23
f 16/16/16 28/28/28 27/27/27
f 7/7/7 16/16/16 27/27/27
f 31/31/31 30/30/30 29/29/29
f 32/32/32 31/31/31 29/29/29
f 35/35/35 34/34/34 33/33/33
f 36/36/36 35/35/35 33/33/33
f 16/16/16 7/7/7 8/8/8
f 13/13/13 16/16/16 8/8/8
f 39/39/39 38/38/38 37/37/37
f 40/40/40 39/39/39 37/37/37
f 31/31/31 42/42/42 41/41/41
f 20/20/20 31/31/31 41/41/41
f 11/11/11 44/44/44 43/43/43
f 24/24/24 11/11/11 43/43/43
f 15/15/15 8/8/8 5/5/5
f 14/14/14 18/18/18 13/13/13
f 7/7/7 27/27/27 6/6/6
f 16/16/16 17/17/17 28/28/28
f 4/4/4 1/1/1 45/45/45
f 46/46/46 4/4/4 45/45/45
f 47/47/47 46/46/46 45/45/45
f 48/48/48 47/47/47 45/45/45
