g TowerRushTracks04_CorpsePart
v -0.31759977 0.5405475 0.66738355
v 0.31759766 0.5405475 0.66738355
v 0.37469086 1.0728836E-06 0.7873862
v -0.37469304 1.0728836E-06 0.7873862
v -0.37469304 1.0728836E-06 -0.78738403
v 0.37469086 1.0728836E-06 -0.78738403
v 0.31759766 0.5405475 -0.6673814
v -0.31759977 0.5405475 -0.6673814
v 0.6673814 0.5405475 0.31626964
v 0.6673814 0.5405475 -0.3162675
v 0.78738403 1.0728836E-06 -0.37315202
v 0.78738403 1.0728836E-06 0.37315416
v -0.66738355 0.5405475 -0.3162675
v -0.66738355 0.5405475 0.31626964
v -0.7873862 1.0728836E-06 0.37315416
v -0.7873862 1.0728836E-06 -0.37315202
v -0.36532962 0.92189026 -0.17792934
v -0.17863572 0.92189026 -0.36535355
v 0.17863357 0.92189026 -0.36535355
v 0.36535355 0.92189026 -0.17792934
v -0.7873862 1.0728836E-06 0.37315416
v -0.37469304 1.0728836E-06 0.7873862
v 0.37469086 1.0728836E-06 0.7873862
v 0.78738403 1.0728836E-06 0.37315416
v 0.31759766 0.5405475 -0.6673814
v 0.37469086 1.0728836E-06 -0.78738403
v -0.36532962 0.92189026 0.17793149
v 0.36535355 0.92189026 0.17793149
v 0.17863357 0.92189026 0.36532962
v -0.17863572 0.92189026 0.36532962
v 0.6673814 0.5405475 -0.3162675
v 0.5857191 0.651917 -0.27756202
v 0.2787357 0.651917 -0.5857191
v 0.31759766 0.5405475 -0.6673814
v -0.2787379 0.651917 -0.5857191
v -0.31759977 0.5405475 -0.6673814
v -0.58572125 0.651917 -0.27756202
v -0.66738355 0.5405475 -0.3162675
v -0.66738355 0.5405475 0.31626964
v -0.58572125 0.651917 0.27756417
v -0.2787379 0.651917 0.58572125
v -0.31759977 0.5405475 0.66738355
v 0.2787357 0.651917 0.58572125
v 0.31759766 0.5405475 0.66738355
v 0.5857191 0.651917 0.27756417
v 0.6673814 0.5405475 0.31626964
v 0.42961922 0.6922656 -0.20925367
v 0.2100622 0.6922656 -0.42961922
v -0.21006435 0.6922656 -0.42961922
v -0.42962134 0.6922656 -0.20925367
v -0.42962134 0.6922656 0.20922971
v -0.21006435 0.6922656 0.42962134
v 0.2100622 0.6922656 0.42962134
v 0.42961922 0.6922656 0.20922971
v 0.42961922 0.6922656 -0.20925367
v 0.36535355 0.92189026 -0.17792934
v 0.17863357 0.92189026 -0.36535355
v 0.2100622 0.6922656 -0.42961922
v 0.2100622 0.6922656 -0.42961922
v 0.17863357 0.92189026 -0.36535355
v -0.17863572 0.92189026 -0.36535355
v -0.21006435 0.6922656 -0.42961922
v -0.36532962 0.92189026 -0.17792934
v -0.42962134 0.6922656 -0.20925367
v -0.42962134 0.6922656 0.20922971
v -0.36532962 0.92189026 0.17793149
v -0.17863572 0.92189026 0.36532962
v -0.21006435 0.6922656 0.42962134
v 0.17863357 0.92189026 0.36532962
v 0.2100622 0.6922656 0.42962134
v 0.36535355 0.92189026 0.17793149
v 0.42961922 0.6922656 0.20922971
v 0.78738403 1.0728836E-06 -0.37315202
v -0.7873862 1.0728836E-06 -0.37315202
v 0.37469086 1.0728836E-06 -0.78738403
v -0.37469304 1.0728836E-06 -0.78738403
vt 0.72589284 0.8202142
vt 0.7325089 0.8202142
vt 0.7325089 0.8149553
vt 0.72589284 0.8149553
vt 0.7090982 0.8149553
vt 0.7026518 0.8149553
vt 0.7026518 0.8202142
vt 0.7090982 0.8202142
vt 0.7375982 0.8202142
vt 0.7442143 0.8202142
vt 0.7442143 0.8149553
vt 0.7375982 0.8149553
vt 0.71435714 0.8202142
vt 0.72080356 0.8202142
vt 0.72080356 0.8149553
vt 0.71435714 0.8149553
vt 0.69213396 0.8229285
vt 0.69366074 0.8242856
vt 0.6962054 0.8242856
vt 0.6975625 0.8229285
vt 0.7280982 0.8587231
vt 0.73115176 0.86177665
vt 0.73675 0.86177665
vt 0.7399732 0.8587231
vt 0.7493036 0.8202142
vt 0.7493036 0.8149553
vt 0.69213396 0.82038385
vt 0.6975625 0.82038385
vt 0.6962054 0.8188571
vt 0.69366074 0.8188571
vt 0.70163393 0.82479453
vt 0.7002768 0.8242856
vt 0.6975625 0.82716954
vt 0.6980715 0.82835704
vt 0.6923036 0.82716954
vt 0.6917947 0.82835704
vt 0.6894197 0.8242856
vt 0.6882322 0.82479453
vt 0.6882322 0.8185178
vt 0.6894197 0.8190267
vt 0.6923036 0.8161428
vt 0.6917947 0.8149553
vt 0.6975625 0.8161428
vt 0.6980715 0.8149553
vt 0.7002768 0.8190267
vt 0.70163393 0.8185178
vt 0.69891965 0.823607
vt 0.696884 0.82564276
vt 0.6929822 0.82564276
vt 0.69094646 0.823607
vt 0.69094646 0.81970525
vt 0.6929822 0.8176696
vt 0.696884 0.8176696
vt 0.69891965 0.81970525
vt 0.7257232 0.82157135
vt 0.7257232 0.82394636
vt 0.7284375 0.82394636
vt 0.7284375 0.82157135
vt 0.70282143 0.82157135
vt 0.70282143 0.82394636
vt 0.7065536 0.82394636
vt 0.7065536 0.82157135
vt 0.70926785 0.82394636
vt 0.70926785 0.82157135
vt 0.71283036 0.82157135
vt 0.71283036 0.82394636
vt 0.71554464 0.82394636
vt 0.71554464 0.82157135
vt 0.7192768 0.82394636
vt 0.7192768 0.82157135
vt 0.72199106 0.82394636
vt 0.72199106 0.82157135
vt 0.7399732 0.85312486
vt 0.7280982 0.85312486
vt 0.73675 0.8500713
vt 0.73115176 0.8500713
vn -0.3254876 0.23921382 0.91478664
vn 0.32548773 0.23921382 0.9147866
vn 0.32548773 0.23921382 0.9147866
vn -0.3254876 0.23921382 0.91478664
vn -0.3254876 0.23921382 -0.91478664
vn 0.32548773 0.23921382 -0.9147866
vn 0.32548773 0.23921382 -0.9147866
vn -0.3254876 0.23921382 -0.91478664
vn 0.9137185 0.23921382 0.32847404
vn 0.9137185 0.23921382 -0.32847404
vn 0.9137185 0.23921382 -0.32847404
vn 0.9137185 0.23921382 0.32847404
vn -0.91371846 0.23921382 -0.32847422
vn -0.91371846 0.23921382 0.32847422
vn -0.91371846 0.23921382 0.32847422
vn -0.91371846 0.23921382 -0.32847422
vn -0.003921509 0.99999225 -0.00034526698
vn -0.003921509 0.99999225 -0.00034526698
vn -0.003921509 0.99999225 -0.00034526698
vn -0.003921509 0.99999225 -0.00034526698
vn -0.003921509 -0.9999924 -0
vn -0.003921509 -0.9999924 -0
vn -0.003921509 -0.9999924 -0
vn -0.003921509 -0.9999924 -0
vn 0.32548773 0.23921382 -0.9147866
vn 0.32548773 0.23921382 -0.9147866
vn -0.003921509 0.99999225 -0.00034526698
vn -0.003921509 0.99999225 -0.00034526698
vn -0.003921509 0.99999225 -0.00034526698
vn -0.003921509 0.99999225 -0.00034526698
vn 0.73332775 0.6313677 -0.25220087
vn 0.56078005 0.8039154 -0.19810563
vn 0.1999985 0.8039154 -0.5601077
vn 0.2705862 0.6313677 -0.7267448
vn -0.19999838 0.8039154 -0.56010777
vn -0.27058613 0.6313677 -0.7267448
vn -0.5607799 0.8039154 -0.19810595
vn -0.7333276 0.6313677 -0.2522011
vn -0.7333276 0.6313677 0.2522011
vn -0.5607799 0.8039154 0.19810595
vn -0.19999838 0.8039154 0.56010777
vn -0.27058613 0.6313677 0.7267448
vn 0.1999985 0.8039154 0.5601077
vn 0.2705862 0.6313677 0.7267448
vn 0.56078005 0.8039154 0.19810563
vn 0.73332775 0.6313677 0.25220087
vn 0.21568465 0.9764631 -0
vn 0.07450926 0.9764631 -0.20240612
vn -0.074509144 0.9764631 -0.20240612
vn -0.21568453 0.9764631 -0.00024414062
vn -0.21568453 0.9764631 -0.00024414062
vn -0.074509144 0.9764631 0.20240612
vn 0.07450926 0.9764631 0.20240612
vn 0.21568465 0.9764631 -0
vn 0.90587544 0.2941153 -0.30477178
vn 0.90587544 0.2941153 -0.30477178
vn 0.30980158 0.2941153 -0.90416765
vn 0.31764466 0.2941153 -0.9014422
vn 0.31764466 0.2941153 -0.9014422
vn 0.30980158 0.2941153 -0.90416765
vn -0.30980146 0.2941153 -0.9041677
vn -0.3176446 0.2941153 -0.9014422
vn -0.9058753 0.2941153 -0.30477217
vn -0.9058753 0.2941153 -0.30477217
vn -0.9058753 0.2941153 0.30477217
vn -0.9058753 0.2941153 0.30477217
vn -0.30980146 0.2941153 0.9041677
vn -0.3176446 0.2941153 0.9014422
vn 0.30980158 0.2941153 0.90416765
vn 0.31764466 0.2941153 0.9014422
vn 0.90587544 0.2941153 0.30477178
vn 0.90587544 0.2941153 0.30477178
vn -0.003921509 -0.9999924 -0
vn -0.003921509 -0.9999924 -0
vn -0.003921509 -0.9999924 -0
vn -0.003921509 -0.9999924 -0
g TowerRushTracks04_CorpsePart_0
f 3/3/3 2/2/2 1/1/1
f 4/4/4 3/3/3 1/1/1
f 7/7/7 6/6/6 5/5/5
f 8/8/8 7/7/7 5/5/5
f 11/11/11 10/10/10 9/9/9
f 12/12/12 11/11/11 9/9/9
f 15/15/15 14/14/14 13/13/13
f 16/16/16 15/15/15 13/13/13
f 19/19/19 18/18/18 17/17/17
f 20/20/20 19/19/19 17/17/17
f 23/23/23 22/22/22 21/21/21
f 24/24/24 23/23/23 21/21/21
f 1/1/1 14/14/14 15/15/15
f 4/4/4 1/1/1 15/15/15
f 9/9/9 2/2/2 3/3/3
f 12/12/12 9/9/9 3/3/3
f 5/5/5 16/16/16 13/13/13
f 8/8/8 5/5/5 13/13/13
f 11/11/11 26/26/26 25/25/25
f 10/10/10 11/11/11 25/25/25
f 29/29/29 28/28/28 27/27/27
f 30/30/30 29/29/29 27/27/27
f 20/20/20 17/17/17 27/27/27
f 28/28/28 20/20/20 27/27/27
f 33/33/33 32/32/32 31/31/31
f 34/34/34 33/33/33 31/31/31
f 35/35/35 33/33/33 34/34/34
f 36/36/36 35/35/35 34/34/34
f 37/37/37 35/35/35 36/36/36
f 38/38/38 37/37/37 36/36/36
f 41/41/41 40/40/40 39/39/39
f 42/42/42 41/41/41 39/39/39
f 43/43/43 41/41/41 42/42/42
f 44/44/44 43/43/43 42/42/42
f 45/45/45 43/43/43 44/44/44
f 46/46/46 45/45/45 44/44/44
f 32/32/32 45/45/45 46/46/46
f 31/31/31 32/32/32 46/46/46
f 40/40/40 37/37/37 38/38/38
f 39/39/39 40/40/40 38/38/38
f 48/48/48 47/47/47 32/32/32
f 33/33/33 48/48/48 32/32/32
f 49/49/49 48/48/48 33/33/33
f 35/35/35 49/49/49 33/33/33
f 50/50/50 49/49/49 35/35/35
f 37/37/37 50/50/50 35/35/35
f 52/52/52 51/51/51 40/40/40
f 41/41/41 52/52/52 40/40/40
f 53/53/53 52/52/52 41/41/41
f 43/43/43 53/53/53 41/41/41
f 54/54/54 53/53/53 43/43/43
f 45/45/45 54/54/54 43/43/43
f 47/47/47 54/54/54 45/45/45
f 32/32/32 47/47/47 45/45/45
f 51/51/51 50/50/50 37/37/37
f 40/40/40 51/51/51 37/37/37
f 57/57/57 56/56/56 55/55/55
f 58/58/58 57/57/57 55/55/55
f 61/61/61 60/60/60 59/59/59
f 62/62/62 61/61/61 59/59/59
f 63/63/63 61/61/61 62/62/62
f 64/64/64 63/63/63 62/62/62
f 67/67/67 66/66/66 65/65/65
f 68/68/68 67/67/67 65/65/65
f 69/69/69 67/67/67 68/68/68
f 70/70/70 69/69/69 68/68/68
f 71/71/71 69/69/69 70/70/70
f 72/72/72 71/71/71 70/70/70
f 56/56/56 71/71/71 72/72/72
f 55/55/55 56/56/56 72/72/72
f 66/66/66 63/63/63 64/64/64
f 65/65/65 66/66/66 64/64/64
f 21/21/21 74/74/74 73/73/73
f 24/24/24 21/21/21 73/73/73
f 76/76/76 75/75/75 73/73/73
f 74/74/74 76/76/76 73/73/73
