g TowerDefenceTracks4
v -0.27920073 -0.0047174394 -0.42569703
v -0.35216993 -0.018419206 -0.06174013
v -0.34988147 -0.1532796 -0.070777446
v -0.26622778 -0.1532796 -0.47763258
v -0.3180467 -0.020387024 0.39852273
v -0.05769849 -0.019352078 0.4776286
v -0.05769849 -0.1532796 0.4776286
v -0.3177989 -0.1532796 0.39760447
v 0.20043412 -0.020124644 0.45851904
v 0.20097342 -0.1532796 0.45633256
v 0.3483112 -0.016611725 0.031825483
v 0.35213017 -0.1532796 0.016564041
v 0.27790743 -0.0024872422 -0.35055596
v 0.04002136 0.0026144683 -0.41256374
v 0.05347532 -0.1532796 -0.46646708
v 0.29112816 -0.1532796 -0.4033515
v -0.25888133 0.05867511 0.0025853217
v -0.16167164 0.12421042 -0.23946957
v -0.21206206 0.04707235 0.2940395
v -0.048180163 0.049156785 0.38094366
v 0.12858728 0.048223853 0.3397509
v 0.22881426 0.06691074 0.07418436
v 0.17205396 0.13410771 -0.18533301
v 0.012909353 0.15327561 -0.27865082
v -0.020922363 0.09814787 0.06288767
vt 0.9034766 0.45815837
vt 0.8971982 0.4590553
vt 0.8971982 0.46084914
vt 0.90392506 0.45860684
vt 0.8909198 0.45770994
vt 0.8900229 0.45412228
vt 0.88867754 0.45412228
vt 0.89047134 0.45815837
vt 0.89136827 0.45008615
vt 0.89047134 0.44918925
vt 0.8971982 0.44829232
vt 0.8971982 0.44694695
vt 0.9034766 0.44918925
vt 0.904822 0.4536738
vt 0.9057189 0.4536738
vt 0.90392506 0.44874078
vt 0.8971982 0.45726147
vt 0.90213126 0.45726147
vt 0.89271367 0.45636454
vt 0.8922652 0.4536738
vt 0.89271367 0.4514315
vt 0.8971982 0.4505346
vt 0.90213126 0.4505346
vt 0.9025797 0.4536738
vt 0.8971982 0.45322534
vn -0.63042843 0.48185945 -0.60858154
vn -0.919747 0.38802648 -0.05916873
vn -0.99794114 -0.010763884 -0.06322685
vn -0.5522343 0.23163807 -0.80086267
vn -0.8180945 0.35674882 0.45105615
vn -0.10652745 0.42712355 0.8978961
vn -0.11434686 -0.0029444695 0.9934365
vn -0.8806499 -0.010763884 0.4736453
vn 0.69105333 0.35674882 0.6286299
vn 0.7457893 -0.010763884 0.66609496
vn 0.91781646 0.38802648 0.083954565
vn 0.99601066 0.05179143 0.07266644
vn 0.7379699 0.48967898 -0.46434358
vn 0.11241633 0.57569253 -0.80990165
vn 0.12805516 0.33329058 -0.9340874
vn 0.7614281 0.2472769 -0.599234
vn -0.48928323 0.87212497 -0
vn -0.35674882 0.89628875 -0.2634326
vn -0.35674882 0.9119276 0.20277654
vn -0.05179143 0.9275664 0.37005165
vn 0.3079018 0.9119276 0.27126473
vn 0.47992903 0.8728304 0.08851672
vn 0.4330125 0.88846934 -0.15206061
vn 0.04204154 0.90410817 -0.42523038
vn -0.0361526 0.9901217 0.13546945
g TowerDefenceTracks4_0
f 3/3/3 2/2/2 1/1/1
f 4/4/4 3/3/3 1/1/1
f 7/7/7 6/6/6 5/5/5
f 8/8/8 7/7/7 5/5/5
f 10/10/10 9/9/9 6/6/6
f 7/7/7 10/10/10 6/6/6
f 12/12/12 11/11/11 9/9/9
f 10/10/10 12/12/12 9/9/9
f 15/15/15 14/14/14 13/13/13
f 16/16/16 15/15/15 13/13/13
f 4/4/4 1/1/1 14/14/14
f 15/15/15 4/4/4 14/14/14
f 1/1/1 2/2/2 17/17/17
f 18/18/18 1/1/1 17/17/17
f 6/6/6 20/20/20 19/19/19
f 5/5/5 6/6/6 19/19/19
f 9/9/9 21/21/21 20/20/20
f 6/6/6 9/9/9 20/20/20
f 9/9/9 11/11/11 22/22/22
f 21/21/21 9/9/9 22/22/22
f 14/14/14 24/24/24 23/23/23
f 13/13/13 14/14/14 23/23/23
f 1/1/1 18/18/18 24/24/24
f 14/14/14 1/1/1 24/24/24
f 18/18/18 17/17/17 25/25/25
f 19/19/19 20/20/20 25/25/25
f 20/20/20 21/21/21 25/25/25
f 21/21/21 22/22/22 25/25/25
f 22/22/22 23/23/23 25/25/25
f 23/23/23 24/24/24 25/25/25
f 24/24/24 18/18/18 25/25/25
f 8/8/8 5/5/5 2/2/2
f 3/3/3 8/8/8 2/2/2
f 2/2/2 5/5/5 19/19/19
f 17/17/17 2/2/2 19/19/19
f 16/16/16 13/13/13 11/11/11
f 12/12/12 16/16/16 11/11/11
f 11/11/11 13/13/13 23/23/23
f 22/22/22 11/11/11 23/23/23
f 17/17/17 19/19/19 25/25/25
