g TowerRushTurret022_CorpsePart
v -29.889946 -88.04616 110.681435
v 29.890884 -88.04616 110.681435
v 34.61472 -97.27848 62.59556
v -34.613777 -97.27848 62.59556
v -64.98527 -33.715107 110.681435
v -52.015556 -67.455795 110.681435
v -68.55593 -75.3578 62.59556
v -82.63712 -38.359055 62.59556
v -29.889946 -88.04616 110.681435
v -34.613777 -97.27848 62.59556
v 34.61472 -97.27848 62.59556
v 29.890884 -88.04616 110.681435
v 52.016495 -67.455795 110.681435
v 68.55339 -75.3578 62.59556
v 64.986206 -33.715107 110.681435
v 82.63459 -38.359055 62.59556
v -61.991188 -70.31789 5.2530594
v -75.38119 -33.669952 -7.414459
v -23.662125 -97.5633 26.180351
v 23.659592 -97.5633 26.180351
v -23.662125 -97.5633 26.180351
v 61.992126 -70.31789 5.2530594
v 23.659592 -97.5633 26.180351
v 75.38211 -33.669952 -7.414459
v 33.267036 -63.989334 -12.482162
v 61.992126 -70.31789 5.2530594
v 75.38211 -33.669952 -7.414459
v 40.37363 -38.414627 -31.36708
v -40.37269 -38.414627 -31.36708
v -33.266106 -63.989334 -12.482162
v -61.991188 -70.31789 5.2530594
v -23.662125 -97.5633 26.180351
v 23.659592 -97.5633 26.180351
v -75.38119 -33.669952 -7.414459
v -25.83648 -69.748245 129.80948
v -41.168114 -56.382572 129.17386
v -35.176476 -49.98455 129.69833
v -24.415855 -58.824375 130.06653
v 24.413322 -58.824375 130.06653
v 25.837418 -69.748245 129.80948
v -44.578987 -28.755081 129.66013
v -37.270943 -23.027428 128.4896
v 35.17741 -49.98455 129.69833
v 41.16557 -56.382572 129.17386
v 44.576454 -28.751602 129.66708
v 37.278824 -23.0309 128.49655
v -25.83648 -69.748245 129.80948
v 25.837418 -69.748245 129.80948
v 41.16557 -56.382572 129.17386
v 44.576454 -28.751602 129.66708
v -44.578987 -28.755081 129.66013
v -41.168114 -56.382572 129.17386
v -25.83648 -69.748245 129.80948
v 25.837418 -69.748245 129.80948
v -35.176476 -49.98455 129.69833
v -33.3321 -47.57748 124.255516
v -22.93966 -55.30234 124.255516
v -24.415855 -58.824375 130.06653
v 22.94059 -55.30234 124.255516
v 24.413322 -58.824375 130.06653
v 33.33303 -47.57748 124.255516
v 35.17741 -49.98455 129.69833
v 44.576454 -28.751602 129.66708
v 37.278824 -23.0309 128.49655
v 62.596497 -28.2827 109.11492
v 64.986206 -33.715107 110.681435
v -37.270943 -23.027428 128.4896
v -44.578987 -28.755081 129.66013
v -64.98527 -33.715107 110.681435
v -62.599037 -28.2827 109.11492
v -82.63712 -38.359055 62.59556
v -79.3756 -32.39521 62.255165
v -75.38119 -33.669952 -7.414459
v 75.38211 -33.669952 -7.414459
v 82.63459 -38.359055 62.59556
v 79.37306 -32.39521 62.255165
v -37.270943 -23.027428 128.4896
v 37.278824 -23.0309 128.49655
vt 0.68918264 0.838514
vt 0.6948714 0.838514
vt 0.6953455 0.8339313
vt 0.68870854 0.8339313
vt 0.6913949 0.8497336
vt 0.6913949 0.8464151
vt 0.6961356 0.8464151
vt 0.6961356 0.8497336
vt 0.6913949 0.8429386
vt 0.6961356 0.8429386
vt 0.6961356 0.8429386
vt 0.6913949 0.8429386
vt 0.6913949 0.8464151
vt 0.6961356 0.8464151
vt 0.6913949 0.8497336
vt 0.6961356 0.8497336
vt 0.7015084 0.8464151
vt 0.7015084 0.8497336
vt 0.7015084 0.8429386
vt 0.6942393 0.8304548
vt 0.6898147 0.8304548
vt 0.7015084 0.8464151
vt 0.7015084 0.8429386
vt 0.7015084 0.8497336
vt 0.71652055 0.84467685
vt 0.7138341 0.8430966
vt 0.71209586 0.8464151
vt 0.71588844 0.84767926
vt 0.72363156 0.84767926
vt 0.72284144 0.84467685
vt 0.72568583 0.8430966
vt 0.7218933 0.83993614
vt 0.7174687 0.83993614
vt 0.7274241 0.8464151
vt 0.69866395 0.8288746
vt 0.6970837 0.83013874
vt 0.6977158 0.83077085
vt 0.69882196 0.8298227
vt 0.70340466 0.8298227
vt 0.7035627 0.8288746
vt 0.6967677 0.8328251
vt 0.6973998 0.83345723
vt 0.7045108 0.83077085
vt 0.7051429 0.83013874
vt 0.70545894 0.8328251
vt 0.7046688 0.83345723
vt 0.68949866 0.8410423
vt 0.69439733 0.8410423
vt 0.68870854 0.8464151
vt 0.68870854 0.8497336
vt 0.68870854 0.8497336
vt 0.68870854 0.8464151
vt 0.68870854 0.8429386
vt 0.68870854 0.8429386
vt 0.6977158 0.83077085
vt 0.6980319 0.8310869
vt 0.69898003 0.8304548
vt 0.69882196 0.8298227
vt 0.7032466 0.8304548
vt 0.70340466 0.8298227
vt 0.7041948 0.8310869
vt 0.7045108 0.83077085
vt 0.68870854 0.8497336
vt 0.68870854 0.85036564
vt 0.6913949 0.85036564
vt 0.6913949 0.8497336
vt 0.68870854 0.85036564
vt 0.68870854 0.8497336
vt 0.6913949 0.8497336
vt 0.6913949 0.85036564
vt 0.6961356 0.8497336
vt 0.6961356 0.85036564
vt 0.7015084 0.8497336
vt 0.7015084 0.8497336
vt 0.6961356 0.8497336
vt 0.6961356 0.85036564
vt 0.6973998 0.83345723
vt 0.7046688 0.83345723
vn -0.20371771 -0.90931386 0.3628325
vn 0.20439386 -0.90931386 0.36245206
vn 0.27836958 -0.9604741 -0
vn -0.27774608 -0.96065456 -0
vn -0.84185576 -0.3008566 0.4480672
vn -0.73797274 -0.53088313 0.41660455
vn -0.79733443 -0.597665 0.08399023
vn -0.9308982 -0.3602183 0.060591772
vn -0.20371771 -0.90931386 0.3628325
vn -0.27774608 -0.96065456 -0
vn 0.27836958 -0.9604741 -0
vn 0.20439386 -0.90931386 0.36245206
vn 0.738649 -0.53088313 0.4154043
vn 0.7980107 -0.597665 0.07730107
vn 0.8425319 -0.3008566 0.44679445
vn 0.93157446 -0.3602183 0.049110055
vn -0.8195951 -0.55314374 -0.14931808
vn -0.923478 -0.36763853 -0.109682605
vn -0.2704996 -0.9612553 -0.053086974
vn 0.26375556 -0.9612553 -0.08013281
vn -0.2704996 -0.9612553 -0.053086974
vn 0.8202713 -0.55314374 -0.14555757
vn 0.26375556 -0.9612553 -0.08013281
vn 0.9241543 -0.36763853 -0.10383054
vn 0.12277156 -0.66444695 -0.737182
vn 0.38247895 -0.60508525 -0.69827044
vn 0.456681 -0.5160427 -0.7246671
vn 0.18955344 -0.5828246 -0.7901804
vn -0.18887722 -0.5828246 -0.7903423
vn -0.12209535 -0.66444695 -0.7372943
vn -0.38180268 -0.60508525 -0.69864047
vn -0.018212438 -0.7609097 -0.6486021
vn 0.018888652 -0.7609097 -0.6485828
vn -0.45600486 -0.5160427 -0.7250927
vn -0.010792196 -0.026308835 0.99959564
vn -0.018212438 -0.0040482283 0.99982595
vn 0.0040482283 0.0033720136 0.9999861
vn -0.018212438 -0.026308835 0.99948794
vn 0.0114684105 -0.026308835 0.9995881
vn 0.0114684105 -0.026308835 0.9995881
vn 0.033729076 0.018212438 0.999265
vn 0.033729076 0.018212438 0.999265
vn -0.0033720136 0.0033720136 0.9999886
vn 0.018888652 -0.0040482283 0.9998134
vn -0.03305286 0.018212438 0.99928766
vn -0.03305286 0.018212438 0.99928766
vn -0.16661656 -0.69412774 0.7003039
vn 0.16729283 -0.69412774 0.7001427
vn 0.64960647 -0.34537786 0.6772928
vn 0.70896816 -0.19697368 0.6771747
vn -0.7082919 -0.19697368 0.67788196
vn -0.6489303 -0.34537786 0.6779407
vn -0.16661656 -0.69412774 0.7003039
vn 0.16729283 -0.69412774 0.7001427
vn 0.7312288 0.4856856 0.4789717
vn 0.7831703 0.4189037 0.45952582
vn 0.10793114 0.84185576 0.5288003
vn 0.11535138 0.84185576 0.5272314
vn -0.114675164 0.84185576 0.5273789
vn -0.114675164 0.84185576 0.5273789
vn -0.78249407 0.4189037 0.4606764
vn -0.73055255 0.4856856 0.48000258
vn 0.5754044 0.62666965 0.5255425
vn 0.5754044 0.62666965 0.5255425
vn 0.75348943 0.5450473 0.3676644
vn 0.76832986 0.5302069 0.35853848
vn -0.57472813 0.62666965 0.52628195
vn -0.57472813 0.62666965 0.52628195
vn -0.7676536 0.5302069 0.35998413
vn -0.7528132 0.5450473 0.36904702
vn -0.8715366 0.4782654 0.108102344
vn -0.8715366 0.4782654 0.108102344
vn -0.87838477 0.47795415 -0
vn 0.878539 0.47767058 -0
vn 0.87221277 0.4782654 0.10250404
vn 0.87221277 0.4782654 0.10250404
vn 0.93157446 0.084994316 0.35347557
vn -0.9308982 0.084994316 0.35525277
g TowerRushTurret022_CorpsePart_0
f 3/3/3 2/2/2 1/1/1
f 4/4/4 3/3/3 1/1/1
f 7/7/7 6/6/6 5/5/5
f 8/8/8 7/7/7 5/5/5
f 10/10/10 9/9/9 6/6/6
f 7/7/7 10/10/10 6/6/6
f 13/13/13 12/12/12 11/11/11
f 14/14/14 13/13/13 11/11/11
f 15/15/15 13/13/13 14/14/14
f 16/16/16 15/15/15 14/14/14
f 18/18/18 17/17/17 7/7/7
f 8/8/8 18/18/18 7/7/7
f 17/17/17 19/19/19 10/10/10
f 7/7/7 17/17/17 10/10/10
f 21/21/21 20/20/20 3/3/3
f 4/4/4 21/21/21 3/3/3
f 23/23/23 22/22/22 14/14/14
f 11/11/11 23/23/23 14/14/14
f 14/14/14 22/22/22 24/24/24
f 16/16/16 14/14/14 24/24/24
f 27/27/27 26/26/26 25/25/25
f 28/28/28 27/27/27 25/25/25
f 25/25/25 30/30/30 29/29/29
f 28/28/28 25/25/25 29/29/29
f 30/30/30 32/32/32 31/31/31
f 33/33/33 32/32/32 30/30/30
f 25/25/25 33/33/33 30/30/30
f 33/33/33 25/25/25 26/26/26
f 34/34/34 29/29/29 30/30/30
f 31/31/31 34/34/34 30/30/30
f 37/37/37 36/36/36 35/35/35
f 38/38/38 37/37/37 35/35/35
f 40/40/40 39/39/39 38/38/38
f 35/35/35 40/40/40 38/38/38
f 42/42/42 41/41/41 36/36/36
f 37/37/37 42/42/42 36/36/36
f 44/44/44 43/43/43 39/39/39
f 40/40/40 44/44/44 39/39/39
f 43/43/43 44/44/44 45/45/45
f 46/46/46 43/43/43 45/45/45
f 2/2/2 48/48/48 47/47/47
f 1/1/1 2/2/2 47/47/47
f 15/15/15 50/50/50 49/49/49
f 13/13/13 15/15/15 49/49/49
f 6/6/6 52/52/52 51/51/51
f 5/5/5 6/6/6 51/51/51
f 9/9/9 53/53/53 52/52/52
f 6/6/6 9/9/9 52/52/52
f 49/49/49 54/54/54 12/12/12
f 13/13/13 49/49/49 12/12/12
f 57/57/57 56/56/56 55/55/55
f 58/58/58 57/57/57 55/55/55
f 59/59/59 57/57/57 58/58/58
f 60/60/60 59/59/59 58/58/58
f 61/61/61 59/59/59 60/60/60
f 62/62/62 61/61/61 60/60/60
f 65/65/65 64/64/64 63/63/63
f 66/66/66 65/65/65 63/63/63
f 69/69/69 68/68/68 67/67/67
f 70/70/70 69/69/69 67/67/67
f 71/71/71 69/69/69 70/70/70
f 72/72/72 71/71/71 70/70/70
f 71/71/71 72/72/72 73/73/73
f 76/76/76 75/75/75 74/74/74
f 76/76/76 65/65/65 66/66/66
f 75/75/75 76/76/76 66/66/66
f 77/77/77 55/55/55 56/56/56
f 78/78/78 61/61/61 62/62/62
