g TowerDefenceTracks37_CorpsePart
v 3.1738281 -0.23649502 0.30792785
v 3.0766125 -0.23649502 0.38358283
v 3.0741396 0.26658416 0.38358283
v 3.1709688 0.26658416 0.30754137
v 3.0627797 0.84153175 0.38358283
v 3.1592999 0.84153175 0.30723238
v 3.17236 1.8905792 -0.5233505
v 3.0765352 1.8905792 -0.60116935
v 3.0705075 1.5830903 -0.59189606
v 3.1657913 1.5755172 -0.51284075
v 3.1612318 1.3710399 -0.51075435
v 3.065871 1.3789225 -0.5895777
v 3.0509562 0.84153175 -0.5983875
v 3.1482491 0.83936787 -0.52180505
v 3.066721 0.26418853 -0.6125293
v 3.1642456 0.264884 -0.5370288
v 3.0627024 1.8905792 0.38358283
v 3.1606908 1.8905792 0.30870056
v 3.1497946 1.458055 0.30885506
v 3.051729 1.458364 0.38358283
v 3.0766125 -0.23649502 -0.6163931
v 3.1738281 -0.23649502 -0.5407381
v 3.1597636 1.4585958 -0.29244423
v 3.1497946 1.458055 0.30885506
v 3.1606908 1.8905792 0.30870056
v 3.1657913 1.5755172 -0.51284075
v 3.17236 1.8905792 -0.5233505
v 3.0705075 1.5830903 -0.59189606
v 3.0765352 1.8905792 -0.60116935
v 1.8858373 1.8905792 -0.6163931
v 2.7760015 1.4599094 -0.59514165
v 1.8858373 1.4581323 -0.6163931
v 3.051729 1.458364 0.38358283
v 1.8858373 1.4581323 0.38358283
v 1.8858373 1.8905792 0.38358283
v 3.0627024 1.8905792 0.38358283
v 3.0509562 0.84153175 -0.5983875
v 3.065871 1.3789225 -0.5895777
v 1.8858373 0.84153175 -0.6163931
v 3.1612318 1.3710399 -0.51075435
v 3.1482491 0.83936787 -0.52180505
v 3.1592999 0.84153175 0.30723238
v 3.0627797 0.84153175 0.38358283
v 1.8858373 0.84153175 0.38358283
v 1.8858373 0.26658416 -0.6163931
v 3.066721 0.26418853 -0.6125293
v 3.1642456 0.264884 -0.5370288
v 3.1709688 0.26658416 0.30754137
v 3.0741396 0.26658416 0.38358283
v 1.8858373 0.26658416 0.38358283
v 3.0766125 -0.23649502 -0.6163931
v 1.8858373 -0.23649502 -0.6163931
v 3.1738281 -0.23649502 0.30792785
v 3.1738281 -0.23649502 -0.5407381
v 1.8858373 -0.23649502 0.38358283
v 3.0766125 -0.23649502 0.38358283
v 3.1164107 1.4323215 -0.4696424
v 3.0212042 1.4340215 -0.54892945
v 3.065871 1.3789225 -0.5895777
v 3.1612318 1.3710399 -0.51075435
v 2.7760015 1.4599094 -0.59514165
v 3.0705075 1.5830903 -0.59189606
v 2.7760015 1.4599094 -0.59514165
v 3.0212042 1.4340215 -0.54892945
v 3.1657913 1.5755172 -0.51284075
v 3.1164107 1.4323215 -0.4696424
v 3.1597636 1.4585958 -0.29244423
v 3.1597636 1.4585958 -0.29244423
vt 0.9534627 0.39270052
vt 0.9523194 0.39270052
vt 0.9523194 0.39841676
vt 0.9534627 0.39841676
vt 0.9523194 0.4047046
vt 0.9540343 0.4047046
vt 0.9631803 0.41670868
vt 0.9643235 0.41670868
vt 0.9643235 0.41327894
vt 0.9631803 0.41327894
vt 0.9631803 0.41042084
vt 0.9643235 0.41042084
vt 0.9643235 0.4047046
vt 0.9631803 0.4047046
vt 0.9643235 0.39841676
vt 0.9631803 0.39841676
vt 0.9523194 0.41670868
vt 0.9534627 0.41670868
vt 0.9540343 0.41156408
vt 0.9523194 0.41156408
vt 0.9643235 0.39270052
vt 0.9631803 0.39270052
vt 0.96032214 0.41156408
vt 0.9540343 0.41156408
vt 0.9534627 0.41670868
vt 0.9631803 0.41327894
vt 0.9631803 0.41670868
vt 0.9643235 0.41327894
vt 0.9643235 0.41670868
vt 0.9774709 0.41670868
vt 0.9671817 0.41156408
vt 0.9774709 0.41156408
vt 0.9523194 0.41156408
vt 0.93917215 0.41156408
vt 0.93917215 0.41670868
vt 0.9523194 0.41670868
vt 0.9643235 0.4047046
vt 0.9643235 0.41042084
vt 0.9774709 0.4047046
vt 0.9631803 0.41042084
vt 0.9631803 0.4047046
vt 0.9540343 0.4047046
vt 0.9523194 0.4047046
vt 0.93917215 0.4047046
vt 0.9774709 0.39841676
vt 0.9643235 0.39841676
vt 0.9631803 0.39841676
vt 0.9534627 0.39841676
vt 0.9523194 0.39841676
vt 0.93917215 0.39841676
vt 0.9643235 0.39270052
vt 0.9774709 0.39270052
vt 0.9534627 0.39270052
vt 0.9631803 0.39270052
vt 0.93917215 0.39270052
vt 0.9523194 0.39270052
vt 0.9626087 0.41156408
vt 0.9643235 0.41156408
vt 0.9643235 0.41042084
vt 0.9631803 0.41042084
vt 0.9671817 0.41156408
vt 0.9643235 0.41327894
vt 0.9671817 0.41156408
vt 0.9643235 0.41156408
vt 0.9631803 0.41327894
vt 0.9626087 0.41156408
vt 0.96032214 0.41156408
vt 0.96032214 0.41156408
vn 0.6162183 0.003203392 0.78756887
vn 0.6162183 0.003203392 0.78756887
vn 0.6162183 0.009936333 0.7875127
vn 0.6162183 0.009936333 0.7875127
vn 0.6162183 0.009936333 0.7875127
vn 0.6162183 0.009936333 0.7875127
vn 0.6364169 -0.037193596 -0.770448
vn 0.6364169 -0.037193596 -0.770448
vn 0.6364169 -0.037193596 -0.770448
vn 0.6364169 -0.037193596 -0.770448
vn 0.6296841 -0.0035293698 -0.7768433
vn 0.6296841 -0.0035293698 -0.7768433
vn 0.6229512 0.016669154 -0.7820831
vn 0.6229512 0.016669154 -0.7820831
vn 0.6162183 0.030134797 -0.7869986
vn 0.6162183 0.030134797 -0.7869986
vn 0.6094855 -0.016995072 0.792615
vn 0.6094855 -0.016995072 0.792615
vn 0.6094855 -0.0035293698 0.79278934
vn 0.6094855 -0.0035293698 0.79278934
vn 0.6162183 0.016669154 -0.78739893
vn 0.6162183 0.016669154 -0.78739893
vn 0.9999474 -0.010261808 -0
vn 0.9999474 -0.010261808 -0
vn 0.9997186 -0.0237215 -0
vn 0.9997186 -0.0237215 -0
vn 0.9997186 -0.0237215 -0
vn 0.016995072 -0.016995072 -0.9997111
vn 0.016995072 -0.016995072 -0.9997111
vn 0.016995072 -0.016995072 -0.9997111
vn 0.016995072 -0.0035293698 -0.9998493
vn 0.016995072 -0.0035293698 -0.9998493
vn -0.003203392 0.003203392 0.99998975
vn -0.003203392 0.003203392 0.99998975
vn -0.003203392 0.003203392 0.99998975
vn -0.003203392 0.003203392 0.99998975
vn 0.016995072 0.009936333 -0.9998062
vn 0.016995072 0.009936333 -0.9998062
vn 0.016995072 0.009936333 -0.9998062
vn 0.9999906 -0.0035293698 0.0025255922
vn 0.99995065 0.009935936 -0
vn 0.99995065 0.009935936 -0
vn -0.003203392 0.003203392 0.99998975
vn -0.003203392 0.003203392 0.99998975
vn 0.0035293698 0.009936333 -0.9999444
vn 0.0035293698 0.009936333 -0.9999444
vn 0.9998611 0.016666995 -0
vn 0.9998611 0.016666995 -0
vn -0.003203392 0.003203392 0.99998975
vn -0.003203392 0.003203392 0.99998975
vn 0.0035293698 0.003203392 -0.9999886
vn 0.0035293698 0.003203392 -0.9999886
vn 0.99995065 0.009935936 -0
vn 0.99995065 0.009935936 -0
vn -0.003203392 0.003203392 0.99998975
vn -0.003203392 0.003203392 0.99998975
vn 0.56908846 0.71015227 -0.41451418
vn 0.326706 0.71015227 -0.6236561
vn 0.39403445 0.7168851 -0.5751631
vn 0.5286914 0.7168851 -0.45448998
vn 0.20551479 0.68322086 -0.7006946
vn 0.42769867 -0.38056874 -0.8199032
vn 0.14491916 -0.31997317 -0.9362775
vn 0.3536374 -0.3671031 -0.86033475
vn 0.69701254 -0.41423297 -0.58530724
vn 0.7576081 -0.40750015 -0.509876
vn 0.9124636 -0.3671031 -0.18068068
vn 0.68354684 0.67648804 -0.27409425
g TowerDefenceTracks37_CorpsePart_0
f 3/3/3 2/2/2 1/1/1
f 4/4/4 3/3/3 1/1/1
f 5/5/5 3/3/3 4/4/4
f 6/6/6 5/5/5 4/4/4
f 9/9/9 8/8/8 7/7/7
f 10/10/10 9/9/9 7/7/7
f 13/13/13 12/12/12 11/11/11
f 14/14/14 13/13/13 11/11/11
f 15/15/15 13/13/13 14/14/14
f 16/16/16 15/15/15 14/14/14
f 19/19/19 18/18/18 17/17/17
f 20/20/20 19/19/19 17/17/17
f 6/6/6 19/19/19 20/20/20
f 5/5/5 6/6/6 20/20/20
f 21/21/21 15/15/15 16/16/16
f 22/22/22 21/21/21 16/16/16
f 25/25/25 24/24/24 23/23/23
f 23/23/23 26/26/26 25/25/25
f 26/26/26 27/27/27 25/25/25
f 30/30/30 29/29/29 28/28/28
f 28/28/28 31/31/31 30/30/30
f 31/31/31 32/32/32 30/30/30
f 35/35/35 34/34/34 33/33/33
f 36/36/36 35/35/35 33/33/33
f 31/31/31 38/38/38 37/37/37
f 37/37/37 39/39/39 31/31/31
f 39/39/39 32/32/32 31/31/31
f 42/42/42 41/41/41 40/40/40
f 40/40/40 24/24/24 42/42/42
f 40/40/40 23/23/23 24/24/24
f 34/34/34 44/44/44 43/43/43
f 33/33/33 34/34/34 43/43/43
f 37/37/37 46/46/46 45/45/45
f 39/39/39 37/37/37 45/45/45
f 42/42/42 48/48/48 47/47/47
f 41/41/41 42/42/42 47/47/47
f 44/44/44 50/50/50 49/49/49
f 43/43/43 44/44/44 49/49/49
f 45/45/45 46/46/46 51/51/51
f 52/52/52 45/45/45 51/51/51
f 47/47/47 48/48/48 53/53/53
f 54/54/54 47/47/47 53/53/53
f 49/49/49 50/50/50 55/55/55
f 56/56/56 49/49/49 55/55/55
f 59/59/59 58/58/58 57/57/57
f 60/60/60 59/59/59 57/57/57
f 58/58/58 59/59/59 61/61/61
f 64/64/64 63/63/63 62/62/62
f 64/64/64 62/62/62 65/65/65
f 66/66/66 64/64/64 65/65/65
f 65/65/65 67/67/67 66/66/66
f 57/57/57 68/68/68 60/60/60
