g TowerRushTracks03_CorpsePart
v -0.3101049 0.435825 0.5168152
v 0.31010488 0.435825 0.5168152
v 0.31010488 7.867813E-06 0.5168152
v -0.3101049 7.867813E-06 0.5168152
v -0.3101049 7.867813E-06 -0.5168152
v 0.31010488 7.867813E-06 -0.5168152
v 0.31010488 0.435825 -0.5168152
v -0.3101049 0.435825 -0.5168152
v 0.5168152 0.435825 0.3101049
v 0.5168152 0.435825 -0.31010488
v 0.5168152 7.867813E-06 -0.31010488
v 0.5168152 7.867813E-06 0.3101049
v -0.5168152 0.435825 -0.31010488
v -0.5168152 0.435825 0.3101049
v -0.5168152 7.867813E-06 0.3101049
v -0.5168152 7.867813E-06 -0.31010488
v -0.4678583 0.50722575 -0.28073707
v -0.28073704 0.50722575 -0.4678583
v 0.28073707 0.50722575 -0.4678583
v 0.4678583 0.50722575 -0.28073707
v -0.5168152 7.867813E-06 0.3101049
v -0.3101049 7.867813E-06 0.5168152
v 0.31010488 7.867813E-06 0.5168152
v 0.5168152 7.867813E-06 0.3101049
v 0.31010488 0.435825 -0.5168152
v 0.31010488 7.867813E-06 -0.5168152
v -0.5168152 7.867813E-06 -0.31010488
v 0.5168152 7.867813E-06 -0.31010488
v 0.31010488 7.867813E-06 -0.5168152
v -0.3101049 7.867813E-06 -0.5168152
v 0.5168152 0.435825 -0.31010488
v 0.4678583 0.50722575 -0.28073707
v 0.28073707 0.50722575 -0.4678583
v 0.31010488 0.435825 -0.5168152
v 0.31010488 0.435825 -0.5168152
v 0.28073707 0.50722575 -0.4678583
v -0.28073704 0.50722575 -0.4678583
v -0.3101049 0.435825 -0.5168152
v -0.4678583 0.50722575 -0.28073707
v -0.5168152 0.435825 -0.31010488
v -0.5168152 0.435825 0.3101049
v -0.4678583 0.50722575 0.28073704
v -0.28073704 0.50722575 0.4678583
v -0.3101049 0.435825 0.5168152
v 0.28073707 0.50722575 0.4678583
v 0.31010488 0.435825 0.5168152
v 0.4678583 0.50722575 0.28073704
v 0.5168152 0.435825 0.3101049
v 0.4678583 0.50722575 0.28073704
v 0.28073707 0.50722575 0.4678583
v -0.28073704 0.50722575 0.4678583
v -0.4678583 0.50722575 0.28073704
vt 0.7078213 0.7567623
vt 0.7142662 0.7567623
vt 0.7142662 0.7520293
vt 0.7078213 0.7520293
vt 0.6953343 0.7520293
vt 0.6888894 0.7520293
vt 0.6888894 0.7567623
vt 0.6953343 0.7567623
vt 0.71728724 0.7567623
vt 0.7237322 0.7567623
vt 0.7237322 0.7520293
vt 0.71728724 0.7520293
vt 0.6983553 0.7567623
vt 0.70480025 0.7567623
vt 0.70480025 0.7520293
vt 0.6983553 0.7520293
vt 0.6890908 0.76411355
vt 0.6903999 0.76532197
vt 0.6943273 0.76532197
vt 0.6955357 0.76411355
vt 0.7349101 0.79100084
vt 0.73581636 0.7919072
vt 0.7384346 0.7919072
vt 0.7393409 0.79100084
vt 0.7268539 0.7567623
vt 0.7268539 0.7520293
vt 0.7349101 0.7882819
vt 0.7393409 0.7882819
vt 0.7384346 0.7873756
vt 0.73581636 0.7873756
vt 0.7237322 0.7567623
vt 0.7237322 0.7576686
vt 0.7268539 0.7576686
vt 0.7268539 0.7567623
vt 0.6888894 0.7567623
vt 0.6888894 0.7576686
vt 0.6953343 0.7576686
vt 0.6953343 0.7567623
vt 0.6983553 0.7576686
vt 0.6983553 0.7567623
vt 0.70480025 0.7567623
vt 0.70480025 0.7576686
vt 0.7078213 0.7576686
vt 0.7078213 0.7567623
vt 0.7142662 0.7576686
vt 0.7142662 0.7567623
vt 0.71728724 0.7576686
vt 0.71728724 0.7567623
vt 0.6955357 0.7601862
vt 0.6943273 0.75887704
vt 0.6903999 0.75887704
vt 0.6890908 0.7601862
vn -0.23921382 0.003921509 0.970959
vn 0.23921388 0.003921509 0.970959
vn 0.23921388 0.003921509 0.970959
vn -0.23921382 0.003921509 0.970959
vn -0.23921382 0.003921509 -0.970959
vn 0.23921388 0.003921509 -0.970959
vn 0.23921388 0.003921509 -0.970959
vn -0.23921382 0.003921509 -0.970959
vn 0.96862006 0.003921509 0.24851513
vn 0.96862006 0.003921509 -0.24851513
vn 0.96862006 0.003921509 -0.24851513
vn 0.96862006 0.003921509 0.24851513
vn -0.96861994 0.003921509 -0.2485156
vn -0.96861994 0.003921509 0.2485156
vn -0.96861994 0.003921509 0.2485156
vn -0.96861994 0.003921509 -0.2485156
vn -0.003921509 0.99999225 -0.00034526698
vn -0.003921509 0.99999225 -0.00034526698
vn -0.003921509 0.99999225 -0.00034526698
vn -0.003921509 0.99999225 -0.00034526698
vn -0.003921509 -0.9999924 -0
vn -0.003921509 -0.9999924 -0
vn -0.003921509 -0.9999924 -0
vn -0.003921509 -0.9999924 -0
vn 0.23921388 0.003921509 -0.970959
vn 0.23921388 0.003921509 -0.970959
vn -0.003921509 -0.9999924 -0
vn -0.003921509 -0.9999924 -0
vn -0.003921509 -0.9999924 -0
vn -0.003921509 -0.9999924 -0
vn 0.76470006 0.6078384 -0.21393073
vn 0.77254313 0.6078384 -0.1836017
vn 0.17646927 0.6078384 -0.77420354
vn 0.20784158 0.6078384 -0.76637745
vn 0.20784158 0.6078384 -0.76637745
vn 0.17646927 0.6078384 -0.77420354
vn -0.1764692 0.6078384 -0.77420354
vn -0.20784152 0.6078384 -0.76637745
vn -0.7725431 0.6078384 -0.18360204
vn -0.76469994 0.6078384 -0.21393114
vn -0.76469994 0.6078384 0.21393114
vn -0.7725431 0.6078384 0.18360204
vn -0.1764692 0.6078384 0.77420354
vn -0.20784152 0.6078384 0.76637745
vn 0.17646927 0.6078384 0.77420354
vn 0.20784158 0.6078384 0.76637745
vn 0.77254313 0.6078384 0.1836017
vn 0.76470006 0.6078384 0.21393073
vn -0.003921509 0.99999225 -0.00034526698
vn -0.003921509 0.99999225 -0.00034526698
vn -0.003921509 0.99999225 -0.00034526698
vn -0.003921509 0.99999225 -0.00034526698
g TowerRushTracks03_CorpsePart_0
f 3/3/3 2/2/2 1/1/1
f 4/4/4 3/3/3 1/1/1
f 7/7/7 6/6/6 5/5/5
f 8/8/8 7/7/7 5/5/5
f 11/11/11 10/10/10 9/9/9
f 12/12/12 11/11/11 9/9/9
f 15/15/15 14/14/14 13/13/13
f 16/16/16 15/15/15 13/13/13
f 19/19/19 18/18/18 17/17/17
f 20/20/20 19/19/19 17/17/17
f 23/23/23 22/22/22 21/21/21
f 24/24/24 23/23/23 21/21/21
f 1/1/1 14/14/14 15/15/15
f 4/4/4 1/1/1 15/15/15
f 9/9/9 2/2/2 3/3/3
f 12/12/12 9/9/9 3/3/3
f 5/5/5 16/16/16 13/13/13
f 8/8/8 5/5/5 13/13/13
f 11/11/11 26/26/26 25/25/25
f 10/10/10 11/11/11 25/25/25
f 24/24/24 21/21/21 27/27/27
f 28/28/28 24/24/24 27/27/27
f 29/29/29 28/28/28 27/27/27
f 30/30/30 29/29/29 27/27/27
f 33/33/33 32/32/32 31/31/31
f 34/34/34 33/33/33 31/31/31
f 37/37/37 36/36/36 35/35/35
f 38/38/38 37/37/37 35/35/35
f 39/39/39 37/37/37 38/38/38
f 40/40/40 39/39/39 38/38/38
f 43/43/43 42/42/42 41/41/41
f 44/44/44 43/43/43 41/41/41
f 45/45/45 43/43/43 44/44/44
f 46/46/46 45/45/45 44/44/44
f 47/47/47 45/45/45 46/46/46
f 48/48/48 47/47/47 46/46/46
f 32/32/32 47/47/47 48/48/48
f 31/31/31 32/32/32 48/48/48
f 42/42/42 39/39/39 40/40/40
f 41/41/41 42/42/42 40/40/40
f 51/51/51 50/50/50 49/49/49
f 52/52/52 51/51/51 49/49/49
f 17/17/17 52/52/52 49/49/49
f 20/20/20 17/17/17 49/49/49
