g Turel_turret_03_CorpsePart
v 0.14190257 0.48671132 0.34679496
v 0.13556437 0.33362597 0.9341942
v 0.13556437 0.48321384 0.9341942
v 0.14190257 0.33012846 0.34679496
v -6.7055225E-07 0.5650028 0.34679496
v -6.7055225E-07 0.5580078 0.9341942
v -0.1419039 0.48671132 0.34679496
v -0.1355657 0.48321384 0.9341942
v -0.1419039 0.33012846 0.34679496
v -0.1355657 0.33362597 0.9341942
v -6.7055225E-07 0.25183704 0.34679496
v -6.7055225E-07 0.25883204 0.9341942
v -6.7055225E-07 0.25883204 0.9341942
v -6.7055225E-07 0.25183704 0.34679496
v 0.13556437 0.48321384 0.9341942
v 0.08003131 0.36426604 0.9341942
v 0.08003131 0.45257378 0.9341942
v 0.13556437 0.33362597 0.9341942
v -6.7055225E-07 0.5580078 0.9341942
v -6.7055225E-07 0.49672765 0.9341942
v -0.08003265 0.45257378 0.9341942
v -0.1355657 0.48321384 0.9341942
v -0.08003265 0.36426604 0.9341942
v -0.1355657 0.33362597 0.9341942
v -6.7055225E-07 0.25883204 0.9341942
v -6.7055225E-07 0.32011217 0.9341942
vt 0.5188069 0.7983434
vt 0.5251663 0.80000234
vt 0.5251663 0.7983434
vt 0.5188069 0.80000234
vt 0.5188069 0.79640794
vt 0.5251663 0.79640794
vt 0.5188069 0.7947489
vt 0.5251663 0.7947489
vt 0.5188069 0.79309
vt 0.5251663 0.79309
vt 0.5188069 0.791431
vt 0.5251663 0.791431
vt 0.5251663 0.8016613
vt 0.5188069 0.8016613
vt 0.5237838 0.79004854
vt 0.5229543 0.788666
vt 0.5229543 0.7894955
vt 0.5237838 0.78838956
vt 0.5221248 0.7906015
vt 0.5221248 0.79004854
vt 0.5212953 0.7894955
vt 0.52074236 0.79004854
vt 0.5212953 0.788666
vt 0.52074236 0.78838956
vt 0.5221248 0.7875601
vt 0.5221248 0.78811306
vn 0.85091853 0.52153075 0.06279613
vn 0.8581837 -0.51334274 -0
vn 0.85091853 0.52153075 0.06279613
vn 0.8581837 -0.51334274 -0
vn -0.0039212704 0.9999273 0.011404268
vn -0.0039212704 0.9999273 0.011404268
vn -0.8581837 0.51334286 -0
vn -0.8581837 0.51334286 -0
vn -0.85091853 -0.5215307 0.06279661
vn -0.85091853 -0.5215307 0.06279661
vn 0.0039212704 -0.9999273 0.011404268
vn 0.0039212704 -0.9999273 0.011404268
vn 0.0039212704 -0.9999273 0.011404268
vn 0.0039212704 -0.9999273 0.011404268
vn -0.0039212704 0.0039212704 0.9999846
vn -0.0039212704 0.0039212704 0.9999846
vn -0.0039212704 0.0039212704 0.9999846
vn -0.0039212704 0.0039212704 0.9999846
vn -0.0039212704 0.0039212704 0.9999846
vn -0.0039212704 0.0039212704 0.9999846
vn -0.0039212704 0.0039212704 0.9999846
vn -0.0039212704 0.0039212704 0.9999846
vn -0.0039212704 0.0039212704 0.9999846
vn -0.0039212704 0.0039212704 0.9999846
vn -0.0039212704 0.0039212704 0.9999846
vn -0.0039212704 0.0039212704 0.9999846
g Turel_turret_03_CorpsePart_0
f 3/3/3 2/2/2 1/1/1
f 4/4/4 1/1/1 2/2/2
f 6/6/6 3/3/3 5/5/5
f 1/1/1 5/5/5 3/3/3
f 8/8/8 6/6/6 7/7/7
f 5/5/5 7/7/7 6/6/6
f 10/10/10 8/8/8 9/9/9
f 7/7/7 9/9/9 8/8/8
f 12/12/12 10/10/10 11/11/11
f 9/9/9 11/11/11 10/10/10
f 2/2/2 13/13/13 4/4/4
f 14/14/14 4/4/4 13/13/13
f 17/17/17 16/16/16 15/15/15
f 18/18/18 15/15/15 16/16/16
f 20/20/20 17/17/17 19/19/19
f 15/15/15 19/19/19 17/17/17
f 22/22/22 21/21/21 19/19/19
f 20/20/20 19/19/19 21/21/21
f 24/24/24 23/23/23 22/22/22
f 21/21/21 22/22/22 23/23/23
f 26/26/26 23/23/23 25/25/25
f 24/24/24 25/25/25 23/23/23
f 18/18/18 16/16/16 25/25/25
f 26/26/26 25/25/25 16/16/16
f 17/17/17 20/20/20 16/16/16
f 23/23/23 26/26/26 21/21/21
f 21/21/21 26/26/26 20/20/20
f 20/20/20 26/26/26 16/16/16
