g Turel_turret_01_CustomizePart_CorpsePart
v 0.32548252 0.21724296 0.19957542
v 0.27266023 0.5625809 -0.3355983
v 0.27266023 0.24773043 -0.3355983
v 0.32548252 0.5930684 0.19957542
v 0.32548252 0.5930684 0.19957542
v -4.529953E-06 0.71998614 -0.3355983
v 0.27266023 0.5625809 -0.3355983
v -4.529953E-06 0.7809811 0.19957542
v -4.529953E-06 0.7809811 0.19957542
v -0.27266932 0.5625809 -0.3355983
v -4.529953E-06 0.71998614 -0.3355983
v -0.32549155 0.5930684 0.19957542
v -0.32549155 0.5930684 0.19957542
v -0.27266932 0.24773043 -0.3355983
v -0.27266932 0.5625809 -0.3355983
v -0.32549155 0.21724296 0.19957542
v -0.32549155 0.21724296 0.19957542
v -4.529953E-06 0.09030521 -0.3355983
v -0.27266932 0.24773043 -0.3355983
v -4.529953E-06 0.029310167 0.19957542
v -4.529953E-06 0.029310167 0.19957542
v 0.27266023 0.24773043 -0.3355983
v -4.529953E-06 0.09030521 -0.3355983
v 0.32548252 0.21724296 0.19957542
v -4.529953E-06 0.71998614 -0.3355983
v 0.27266023 0.24773043 -0.3355983
v 0.27266023 0.5625809 -0.3355983
v -4.529953E-06 0.09030521 -0.3355983
v -0.27266932 0.24773043 -0.3355983
v -0.27266932 0.5625809 -0.3355983
v -0.21780384 0.53089154 0.4071588
v -4.529953E-06 0.15364385 0.4071588
v -0.21780384 0.27939975 0.4071588
v -4.529953E-06 0.6566475 0.4071588
v 0.21781479 0.27939975 0.4071588
v 0.21781479 0.53089154 0.4071588
v 0.21781479 0.53089154 0.4071588
v 0.32548252 0.21724296 0.19957542
v 0.21781479 0.27939975 0.4071588
v 0.32548252 0.5930684 0.19957542
v 0.32548252 0.5930684 0.19957542
v -4.529953E-06 0.6566475 0.4071588
v -4.529953E-06 0.7809811 0.19957542
v 0.21781479 0.53089154 0.4071588
v -4.529953E-06 0.7809811 0.19957542
v -0.21780384 0.53089154 0.4071588
v -0.32549155 0.5930684 0.19957542
v -4.529953E-06 0.6566475 0.4071588
v -0.32549155 0.5930684 0.19957542
v -0.21780384 0.27939975 0.4071588
v -0.32549155 0.21724296 0.19957542
v -0.21780384 0.53089154 0.4071588
v -0.32549155 0.21724296 0.19957542
v -4.529953E-06 0.15364385 0.4071588
v -4.529953E-06 0.029310167 0.19957542
v -0.21780384 0.27939975 0.4071588
v -4.529953E-06 0.029310167 0.19957542
v 0.21781479 0.27939975 0.4071588
v 0.32548252 0.21724296 0.19957542
v -4.529953E-06 0.15364385 0.4071588
v 0.44843405 0.4135688 -0.23552237
v 0.38803998 0.6389399 0.17780149
v 0.38803998 0.6389399 -0.280232
v 0.44843405 0.4135688 0.13309187
v 0.22538659 0.7904559 0.17780149
v -0.0023081303 0.8643109 0.17780149
v -0.0023081303 0.8643109 -0.280232
v 0.22538659 0.7904559 -0.280232
v -0.23002285 0.7904559 0.17780149
v -0.39267623 0.6389399 0.17780149
v -0.39267623 0.6389399 -0.280232
v -0.23002285 0.7904559 -0.280232
v -0.39267623 0.6389399 -0.280232
v -0.45307034 0.4135688 0.13309187
v -0.45307034 0.4135688 -0.23552237
v -0.39267623 0.6389399 0.17780149
v 0.44843405 0.4135688 -0.23552237
v 0.27187902 0.56933147 -0.280232
v 0.27836913 0.3788547 -0.23552237
v 0.27187902 0.56933147 -0.280232
v 0.44843405 0.4135688 -0.23552237
v 0.38803998 0.6389399 -0.280232
v 0.38803998 0.6389399 0.17780149
v 0.27836913 0.3788547 0.13309187
v 0.27187902 0.56933147 0.17780149
v 0.27836913 0.3788547 0.13309187
v 0.38803998 0.6389399 0.17780149
v 0.44843405 0.4135688 0.13309187
v 0.27836913 0.3788547 0.13309187
v 0.44843405 0.4135688 -0.23552237
v 0.27836913 0.3788547 -0.23552237
v 0.44843405 0.4135688 0.13309187
v -0.0023081303 0.72763807 -0.280232
v 0.13478544 0.64847475 -0.280232
v 0.22538659 0.7904559 -0.280232
v -0.0023081303 0.8643109 -0.280232
v 0.13478544 0.64847475 0.17780149
v -0.0023081303 0.72763807 0.17780149
v -0.0023081303 0.8643109 0.17780149
v 0.22538659 0.7904559 0.17780149
v -0.2765153 0.56933147 -0.280232
v -0.1394217 0.64847475 -0.280232
v -0.23002285 0.7904559 -0.280232
v -0.39267623 0.6389399 -0.280232
v -0.1394217 0.64847475 0.17780149
v -0.2765153 0.56933147 0.17780149
v -0.39267623 0.6389399 0.17780149
v -0.23002285 0.7904559 0.17780149
v -0.45307034 0.4135688 -0.23552237
v -0.2765153 0.56933147 -0.280232
v -0.39267623 0.6389399 -0.280232
v -0.2765153 0.56933147 -0.280232
v -0.45307034 0.4135688 -0.23552237
v -0.2829854 0.3788547 -0.23552237
v -0.2829854 0.3788547 -0.23552237
v -0.45307034 0.4135688 0.13309187
v -0.2829854 0.3788547 0.13309187
v -0.45307034 0.4135688 -0.23552237
v -0.45307034 0.4135688 0.13309187
v -0.2765153 0.56933147 0.17780149
v -0.2829854 0.3788547 0.13309187
v -0.2765153 0.56933147 0.17780149
v -0.45307034 0.4135688 0.13309187
v -0.39267623 0.6389399 0.17780149
v 0.18692666 0.16466105 0.00022485852
v 0.09346107 4.529953E-06 -0.16166732
v 0.18692666 4.529953E-06 0.00022485852
v 0.09346107 0.16466105 -0.16166732
v 0.09346107 0.16466105 -0.16166732
v -0.093470156 4.529953E-06 -0.16166732
v 0.09346107 4.529953E-06 -0.16166732
v -0.093470156 0.16466105 -0.16166732
v -0.093470156 0.16466105 -0.16166732
v -0.18693572 4.529953E-06 0.00022485852
v -0.093470156 4.529953E-06 -0.16166732
v -0.18693572 0.16466105 0.00022485852
v -0.18693572 0.16466105 0.00022485852
v -0.093470156 4.529953E-06 0.16209704
v -0.18693572 4.529953E-06 0.00022485852
v -0.093470156 0.16466105 0.16209704
v -0.093470156 0.16466105 0.16209704
v 0.09346107 4.529953E-06 0.16209704
v -0.093470156 4.529953E-06 0.16209704
v 0.09346107 0.16466105 0.16209704
v 0.09346107 0.16466105 0.16209704
v 0.18692666 4.529953E-06 0.00022485852
v 0.09346107 4.529953E-06 0.16209704
v 0.18692666 0.16466105 0.00022485852
v 0.18692666 4.529953E-06 0.00022485852
v -0.093470156 4.529953E-06 0.16209704
v 0.09346107 4.529953E-06 0.16209704
v -0.18693572 4.529953E-06 0.00022485852
v -0.093470156 4.529953E-06 -0.16166732
v 0.09346107 4.529953E-06 -0.16166732
v 0.27187902 0.56933147 0.17780149
v 0.38803998 0.6389399 0.17780149
v 0.38803998 0.6389399 0.17780149
v 0.38803998 0.6389399 -0.280232
v 0.27187902 0.56933147 -0.280232
v 0.38803998 0.6389399 -0.280232
v -0.0023081303 0.8643109 0.17780149
v -0.0023081303 0.8643109 -0.280232
vt 0.49124953 0.6489705
vt 0.4073748 0.7948395
vt 0.498543 0.78663445
vt 0.40463975 0.6544405
vt 0.40463975 0.6544405
vt 0.31529495 0.7966629
vt 0.4073748 0.7948395
vt 0.31803 0.65535223
vt 0.31803 0.65535223
vt 0.22230342 0.7930162
vt 0.31529495 0.7966629
vt 0.23142023 0.6517055
vt 0.23142023 0.6517055
vt 0.13022356 0.784811
vt 0.22230342 0.7930162
vt 0.1429871 0.64258873
vt 0.1429871 0.64258873
vt 0.041790437 0.77478254
vt 0.13022356 0.784811
vt 0.04817221 0.6243551
vt 0.5824177 0.63620687
vt 0.498543 0.78663445
vt 0.5824177 0.7802526
vt 0.49124953 0.6489705
vt 0.119283386 0.43563694
vt 0.047260527 0.31073654
vt 0.047260527 0.3936996
vt 0.119283386 0.2687992
vt 0.19130623 0.31073654
vt 0.19130623 0.3936996
vt 0.21136324 0.37911266
vt 0.2687992 0.2788277
vt 0.21136324 0.3125599
vt 0.2687992 0.4119332
vt 0.32623515 0.31164822
vt 0.32623515 0.378201
vt 0.40372807 0.5924462
vt 0.49124953 0.6489705
vt 0.48395607 0.5906228
vt 0.40463975 0.6544405
vt 0.40463975 0.6544405
vt 0.32076505 0.5915345
vt 0.31803 0.65535223
vt 0.40372807 0.5924462
vt 0.31803 0.65535223
vt 0.2387137 0.5887995
vt 0.23142023 0.6517055
vt 0.32076505 0.5915345
vt 0.23142023 0.6517055
vt 0.1584857 0.5796827
vt 0.1429871 0.64258873
vt 0.2387137 0.5887995
vt 0.1429871 0.64258873
vt 0.084639475 0.56144905
vt 0.04817221 0.6243551
vt 0.1584857 0.5796827
vt 0.5824177 0.63620687
vt 0.48395607 0.5906228
vt 0.49124953 0.6489705
vt 0.55142057 0.5778593
vt 0.4976313 0.5441271
vt 0.43563694 0.43472525
vt 0.43563694 0.5559789
vt 0.4976313 0.44657713
vt 0.37637764 0.43563694
vt 0.31620663 0.43563694
vt 0.31711832 0.5559789
vt 0.37637764 0.5559789
vt 0.25694734 0.43563694
vt 0.19768801 0.43563694
vt 0.19768801 0.5568906
vt 0.25694734 0.5559789
vt 0.19768801 0.5568906
vt 0.13569365 0.4474888
vt 0.13569365 0.5450387
vt 0.19768801 0.43563694
vt 0.35176224 0.31073654
vt 0.39916968 0.35267392
vt 0.39643463 0.30161974
vt 0.39916968 0.35267392
vt 0.35176224 0.31073654
vt 0.3681725 0.37181923
vt 0.576036 0.37090755
vt 0.54777384 0.30161974
vt 0.5450387 0.35267392
vt 0.54777384 0.30161974
vt 0.576036 0.37090755
vt 0.5924462 0.31073654
vt 0.5432154 0.44657713
vt 0.4976313 0.5441271
vt 0.5432154 0.5441271
vt 0.4976313 0.44657713
vt 0.47210422 0.39461127
vt 0.43563694 0.3736426
vt 0.42013836 0.40099305
vt 0.47210422 0.43107852
vt 0.5085715 0.3736426
vt 0.4730159 0.39461127
vt 0.4730159 0.43107852
vt 0.52407 0.40099305
vt 0.5441271 0.35267392
vt 0.5076598 0.3736426
vt 0.52315843 0.40099305
vt 0.57512426 0.37090755
vt 0.43654862 0.3736426
vt 0.40008137 0.35267392
vt 0.36999586 0.37181923
vt 0.42105004 0.40099305
vt 0.5915345 0.31073654
vt 0.5441271 0.35267392
vt 0.57512426 0.37090755
vt 0.5441271 0.35267392
vt 0.5915345 0.31073654
vt 0.5468621 0.30161974
vt 0.09010957 0.5450387
vt 0.13569365 0.4474888
vt 0.09010957 0.4474888
vt 0.13569365 0.5450387
vt 0.35267392 0.31073654
vt 0.40008137 0.35267392
vt 0.398258 0.30161974
vt 0.40008137 0.35267392
vt 0.35267392 0.31073654
vt 0.36999586 0.37181923
vt 0.78572273 0.5669191
vt 0.83495355 0.52315843
vt 0.78572273 0.52315843
vt 0.83495355 0.5669191
vt 0.83495355 0.5669191
vt 0.88418436 0.52315843
vt 0.83495355 0.52315843
vt 0.88418436 0.5669191
vt 0.58788776 0.5669191
vt 0.6371186 0.52315843
vt 0.58788776 0.52315843
vt 0.6371186 0.5669191
vt 0.6371186 0.5669191
vt 0.6863494 0.52315843
vt 0.6371186 0.52315843
vt 0.6863494 0.5669191
vt 0.6863494 0.5669191
vt 0.7364919 0.52315843
vt 0.6863494 0.52315843
vt 0.7364919 0.5669191
vt 0.7364919 0.5669191
vt 0.78572273 0.52315843
vt 0.7364919 0.52315843
vt 0.78572273 0.5669191
vt 0.5186 0.3125599
vt 0.44475377 0.35540894
vt 0.49398458 0.35540894
vt 0.42013836 0.3125599
vt 0.44475377 0.26971087
vt 0.49398458 0.26971087
vt 0.5450387 0.35267392
vt 0.576036 0.37090755
vt 0.43563694 0.43472525
vt 0.43563694 0.5559789
vt 0.39916968 0.35267392
vt 0.3681725 0.37181923
vt 0.31620663 0.43563694
vt 0.31711832 0.5559789
vn 0.99217474 0.0014951229 -0.12484816
vn 0.99217474 0.0014951229 -0.12484816
vn 0.99217474 0.0014951229 -0.12484816
vn 0.99217474 0.0014951229 -0.12484816
vn 0.4992519 0.8621541 -0.086242825
vn 0.4992519 0.8621541 -0.086242825
vn 0.4992519 0.8621541 -0.086242825
vn 0.4992519 0.8621541 -0.086242825
vn -0.49441803 0.8621541 -0.11063935
vn -0.49441803 0.8621541 -0.11063935
vn -0.49441803 0.8621541 -0.11063935
vn -0.49441803 0.8621541 -0.11063935
vn -0.995165 0.0014951229 -0.098206006
vn -0.995165 0.0014951229 -0.098206006
vn -0.995165 0.0014951229 -0.098206006
vn -0.995165 0.0014951229 -0.098206006
vn -0.49441803 -0.8591638 -0.13186488
vn -0.49441803 -0.8591638 -0.13186488
vn -0.49441803 -0.8591638 -0.13186488
vn -0.49441803 -0.8591638 -0.13186488
vn 0.4992519 -0.8591638 -0.11218335
vn 0.4992519 -0.8591638 -0.11218335
vn 0.4992519 -0.8591638 -0.11218335
vn 0.4992519 -0.8591638 -0.11218335
vn -0.0014951229 0.0014951229 -0.99999774
vn -0.0014951229 0.0014951229 -0.99999774
vn -0.0014951229 0.0014951229 -0.99999774
vn -0.0014951229 0.0014951229 -0.99999774
vn -0.0014951229 0.0014951229 -0.99999774
vn -0.0014951229 0.0014951229 -0.99999774
vn -0.0014951229 0.0014951229 0.99999774
vn -0.0014951229 0.0014951229 0.99999774
vn -0.0014951229 0.0014951229 0.99999774
vn -0.0014951229 0.0014951229 0.99999774
vn -0.0014951229 0.0014951229 0.99999774
vn -0.0014951229 0.0014951229 0.99999774
vn 0.8904605 0.0014951229 0.45505813
vn 0.8904605 0.0014951229 0.45505813
vn 0.8904605 0.0014951229 0.45505813
vn 0.8904605 0.0014951229 0.45505813
vn 0.44448268 0.76826406 0.46065772
vn 0.44448268 0.76826406 0.46065772
vn 0.44448268 0.76826406 0.46065772
vn 0.44448268 0.76826406 0.46065772
vn -0.44747293 0.76826406 0.45775357
vn -0.44747293 0.76826406 0.45775357
vn -0.44747293 0.76826406 0.45775357
vn -0.44747293 0.76826406 0.45775357
vn -0.8856267 0.0014951229 0.4643955
vn -0.8856267 0.0014951229 0.4643955
vn -0.8856267 0.0014951229 0.4643955
vn -0.8856267 0.0014951229 0.4643955
vn -0.44747293 -0.76527375 0.46273544
vn -0.44747293 -0.76527375 0.46273544
vn -0.44747293 -0.76527375 0.46273544
vn -0.44747293 -0.76527375 0.46273544
vn 0.44448268 -0.76527375 0.4656085
vn 0.44448268 -0.76527375 0.4656085
vn 0.44448268 -0.76527375 0.4656085
vn 0.44448268 -0.76527375 0.4656085
vn 0.96589345 0.25893977 -0
vn 0.96589345 0.25893977 -0
vn 0.96589345 0.25893977 -0
vn 0.96589345 0.25893977 -0
vn 0.4992519 0.8621541 -0.086242825
vn 0.31147176 0.94822 -0.062161963
vn 0.31147176 0.94822 -0.062161963
vn 0.4992519 0.8621541 -0.086242825
vn -0.5022422 0.8621541 -0.0666562
vn -0.68219817 0.72914314 -0.054368313
vn -0.68219817 0.72914314 -0.054368313
vn -0.5022422 0.8621541 -0.0666562
vn -0.9638684 0.2596928 -0.059307456
vn -0.9638684 0.2596928 -0.059307456
vn -0.9638684 0.2596928 -0.059307456
vn -0.9638684 0.2596928 -0.059307456
vn 0.045449913 -0.22540587 -0.9732042
vn 0.045449913 -0.22540587 -0.9732042
vn 0.045449913 -0.22540587 -0.9732042
vn 0.10021907 -0.17063665 -0.9802241
vn 0.10021907 -0.17063665 -0.9802241
vn 0.10021907 -0.17063665 -0.9802241
vn 0.1315158 -0.22540587 0.96534747
vn 0.1315158 -0.22540587 0.96534747
vn 0.1315158 -0.22540587 0.96534747
vn 0.03762573 -0.18628502 0.98177505
vn 0.03762573 -0.18628502 0.98177505
vn 0.03762573 -0.18628502 0.98177505
vn 0.20193332 -0.9765264 -0.07496111
vn 0.20193332 -0.9765264 -0.07496111
vn 0.20193332 -0.9765264 -0.07496111
vn 0.20193332 -0.9765264 -0.07496111
vn -0.0014951229 0.0014951229 -0.99999774
vn -0.0014951229 0.0014951229 -0.99999774
vn -0.0014951229 0.0014951229 -0.99999774
vn -0.0014951229 0.0014951229 -0.99999774
vn -0.0014951229 0.0014951229 0.99999774
vn -0.0014951229 0.0014951229 0.99999774
vn -0.0014951229 0.0014951229 0.99999774
vn -0.0014951229 0.0014951229 0.99999774
vn -0.0014951229 0.0014951229 -0.99999774
vn -0.0014951229 0.0014951229 -0.99999774
vn -0.0014951229 0.0014951229 -0.99999774
vn -0.0014951229 0.0014951229 -0.99999774
vn -0.0014951229 0.0014951229 0.99999774
vn -0.0014951229 0.0014951229 0.99999774
vn -0.0014951229 0.0014951229 0.99999774
vn -0.0014951229 0.0014951229 0.99999774
vn -0.10320938 -0.17063665 -0.9799138
vn -0.10320938 -0.17063665 -0.9799138
vn -0.10320938 -0.17063665 -0.9799138
vn -0.048440218 -0.22540587 -0.97305995
vn -0.048440218 -0.22540587 -0.97305995
vn -0.048440218 -0.22540587 -0.97305995
vn -0.19709945 -0.9765264 -0.08687977
vn -0.19709945 -0.9765264 -0.08687977
vn -0.19709945 -0.9765264 -0.08687977
vn -0.19709945 -0.9765264 -0.08687977
vn -0.048440218 -0.22540587 0.97305995
vn -0.048440218 -0.22540587 0.97305995
vn -0.048440218 -0.22540587 0.97305995
vn -0.10320938 -0.17063665 0.9799138
vn -0.10320938 -0.17063665 0.9799138
vn -0.10320938 -0.17063665 0.9799138
vn 0.866988 0.0014951229 -0.49832675
vn 0.866988 0.0014951229 -0.49832675
vn 0.866988 0.0014951229 -0.49832675
vn 0.866988 0.0014951229 -0.49832675
vn -0.0014951229 0.0014951229 -0.99999774
vn -0.0014951229 0.0014951229 -0.99999774
vn -0.0014951229 0.0014951229 -0.99999774
vn -0.0014951229 0.0014951229 -0.99999774
vn -0.8621541 0.0014951229 -0.5066439
vn -0.8621541 0.0014951229 -0.5066439
vn -0.8621541 0.0014951229 -0.5066439
vn -0.8621541 0.0014951229 -0.5066439
vn -0.8621541 0.0014951229 0.5066439
vn -0.8621541 0.0014951229 0.5066439
vn -0.8621541 0.0014951229 0.5066439
vn -0.8621541 0.0014951229 0.5066439
vn -0.0014951229 0.0014951229 0.99999774
vn -0.0014951229 0.0014951229 0.99999774
vn -0.0014951229 0.0014951229 0.99999774
vn -0.0014951229 0.0014951229 0.99999774
vn 0.866988 0.0014951229 0.49832675
vn 0.866988 0.0014951229 0.49832675
vn 0.866988 0.0014951229 0.49832675
vn 0.866988 0.0014951229 0.49832675
vn -0.0014951229 -0.9999989 -0
vn -0.0014951229 -0.9999989 -0
vn -0.0014951229 -0.9999989 -0
vn -0.0014951229 -0.9999989 -0
vn -0.0014951229 -0.9999989 -0
vn -0.0014951229 -0.9999989 -0
vn -0.0014951229 0.0014951229 0.99999774
vn -0.0014951229 0.0014951229 0.99999774
vn 0.67920786 0.72914314 -0.083827026
vn 0.67920786 0.72914314 -0.083827026
vn -0.0014951229 0.0014951229 -0.99999774
vn -0.0014951229 0.0014951229 -0.99999774
vn -0.30663788 0.94822 -0.082776636
vn -0.30663788 0.94822 -0.082776636
g Turel_turret_01_CustomizePart_CorpsePart_0
f 3/3/3 2/2/2 1/1/1
f 4/4/4 1/1/1 2/2/2
f 7/7/7 6/6/6 5/5/5
f 8/8/8 5/5/5 6/6/6
f 11/11/11 10/10/10 9/9/9
f 12/12/12 9/9/9 10/10/10
f 15/15/15 14/14/14 13/13/13
f 16/16/16 13/13/13 14/14/14
f 19/19/19 18/18/18 17/17/17
f 20/20/20 17/17/17 18/18/18
f 23/23/23 22/22/22 21/21/21
f 24/24/24 21/21/21 22/22/22
f 27/27/27 26/26/26 25/25/25
f 26/26/26 28/28/28 25/25/25
f 28/28/28 29/29/29 25/25/25
f 25/25/25 29/29/29 30/30/30
f 33/33/33 32/32/32 31/31/31
f 31/31/31 32/32/32 34/34/34
f 32/32/32 35/35/35 34/34/34
f 35/35/35 36/36/36 34/34/34
f 39/39/39 38/38/38 37/37/37
f 40/40/40 37/37/37 38/38/38
f 43/43/43 42/42/42 41/41/41
f 44/44/44 41/41/41 42/42/42
f 47/47/47 46/46/46 45/45/45
f 48/48/48 45/45/45 46/46/46
f 51/51/51 50/50/50 49/49/49
f 52/52/52 49/49/49 50/50/50
f 55/55/55 54/54/54 53/53/53
f 56/56/56 53/53/53 54/54/54
f 59/59/59 58/58/58 57/57/57
f 60/60/60 57/57/57 58/58/58
f 63/63/63 62/62/62 61/61/61
f 64/64/64 61/61/61 62/62/62
f 67/67/67 66/66/66 65/65/65
f 68/68/68 67/67/67 65/65/65
f 71/71/71 70/70/70 69/69/69
f 72/72/72 71/71/71 69/69/69
f 75/75/75 74/74/74 73/73/73
f 76/76/76 73/73/73 74/74/74
f 79/79/79 78/78/78 77/77/77
f 82/82/82 81/81/81 80/80/80
f 85/85/85 84/84/84 83/83/83
f 88/88/88 87/87/87 86/86/86
f 91/91/91 90/90/90 89/89/89
f 92/92/92 89/89/89 90/90/90
f 95/95/95 94/94/94 93/93/93
f 96/96/96 95/95/95 93/93/93
f 99/99/99 98/98/98 97/97/97
f 100/100/100 99/99/99 97/97/97
f 103/103/103 102/102/102 101/101/101
f 104/104/104 103/103/103 101/101/101
f 107/107/107 106/106/106 105/105/105
f 108/108/108 107/107/107 105/105/105
f 111/111/111 110/110/110 109/109/109
f 114/114/114 113/113/113 112/112/112
f 117/117/117 116/116/116 115/115/115
f 118/118/118 115/115/115 116/116/116
f 121/121/121 120/120/120 119/119/119
f 124/124/124 123/123/123 122/122/122
f 127/127/127 126/126/126 125/125/125
f 128/128/128 125/125/125 126/126/126
f 131/131/131 130/130/130 129/129/129
f 132/132/132 129/129/129 130/130/130
f 135/135/135 134/134/134 133/133/133
f 136/136/136 133/133/133 134/134/134
f 139/139/139 138/138/138 137/137/137
f 140/140/140 137/137/137 138/138/138
f 143/143/143 142/142/142 141/141/141
f 144/144/144 141/141/141 142/142/142
f 147/147/147 146/146/146 145/145/145
f 148/148/148 145/145/145 146/146/146
f 151/151/151 150/150/150 149/149/149
f 152/152/152 149/149/149 150/150/150
f 154/154/154 149/149/149 153/153/153
f 152/152/152 153/153/153 149/149/149
f 100/100/100 97/97/97 155/155/155
f 156/156/156 100/100/100 155/155/155
f 68/68/68 65/65/65 157/157/157
f 158/158/158 68/68/68 157/157/157
f 160/160/160 159/159/159 94/94/94
f 95/95/95 160/160/160 94/94/94
f 108/108/108 105/105/105 98/98/98
f 99/99/99 108/108/108 98/98/98
f 72/72/72 69/69/69 161/161/161
f 162/162/162 72/72/72 161/161/161
f 96/96/96 93/93/93 102/102/102
f 103/103/103 96/96/96 102/102/102
