g Turel_turret_02_CustomizePart_CorpsePart
v 0.20790154 0.5284432 -0.6487231
v 0.20790154 0.28840065 -0.7371665
v 0.20790154 0.28840065 -0.6487231
v 0.20790154 0.5284432 -0.7371665
v -2.8014183E-06 0.64847505 -0.6487231
v -2.8014183E-06 0.64847505 -0.7371665
v -0.20788604 0.5284432 -0.6487231
v -0.20788604 0.5284432 -0.7371665
v -0.20788604 0.28840065 -0.6487231
v -0.20788604 0.28840065 -0.7371665
v -2.8014183E-06 0.16836882 -0.6487231
v -2.8014183E-06 0.16836882 -0.7371665
v -2.8014183E-06 0.16836882 -0.7371665
v -2.8014183E-06 0.16836882 -0.6487231
v -0.10929376 0.47152483 -0.5243357
v 0.1092881 0.47152483 -0.5243357
v -2.8014183E-06 0.53461707 -0.5243357
v 0.1092881 0.34531903 -0.5243357
v -0.10929376 0.34531903 -0.5243357
v -2.8014183E-06 0.28220558 -0.5243357
v 0.1092881 0.47152483 -0.7371665
v 0.20790154 0.28840065 -0.7371665
v 0.20790154 0.5284432 -0.7371665
v 0.1092881 0.34531903 -0.7371665
v -2.8014183E-06 0.53461707 -0.7371665
v -2.8014183E-06 0.64847505 -0.7371665
v -0.10929376 0.47152483 -0.7371665
v -0.20788604 0.5284432 -0.7371665
v -0.10929376 0.34531903 -0.7371665
v -0.20788604 0.28840065 -0.7371665
v -2.8014183E-06 0.28220558 -0.7371665
v -2.8014183E-06 0.16836882 -0.7371665
v 0.1626544 0.31451285 -0.6487231
v 0.20790154 0.5284432 -0.6487231
v 0.20790154 0.28840065 -0.6487231
v 0.1626544 0.5023309 -0.6487231
v -2.8014183E-06 0.22059333 -0.6487231
v -2.8014183E-06 0.16836882 -0.6487231
v -0.16266006 0.31451285 -0.6487231
v -0.20788604 0.28840065 -0.6487231
v -0.16266006 0.5023309 -0.6487231
v -0.20788604 0.5284432 -0.6487231
v -2.8014183E-06 0.5962293 -0.6487231
v -2.8014183E-06 0.64847505 -0.6487231
v 0.1092881 0.34531903 -0.7371665
v 0.1092881 0.47152483 -0.5243357
v 0.1092881 0.34531903 -0.5243357
v 0.1092881 0.47152483 -0.7371665
v -2.8014183E-06 0.28220558 -0.5243357
v -2.8014183E-06 0.28220558 -0.7371665
v -0.10929376 0.34531903 -0.5243357
v -0.10929376 0.34531903 -0.7371665
v -0.10929376 0.47152483 -0.5243357
v -0.10929376 0.47152483 -0.7371665
v -2.8014183E-06 0.53461707 -0.5243357
v -2.8014183E-06 0.53461707 -0.7371665
v -2.8014183E-06 0.53461707 -0.7371665
v -2.8014183E-06 0.53461707 -0.5243357
v -2.8014183E-06 0.5962293 -0.32556534
v 0.1626544 0.5023309 -0.6487231
v 0.1626544 0.5023309 -0.32556534
v -2.8014183E-06 0.5962293 -0.6487231
v -0.16266006 0.5023309 -0.32556534
v -2.8014183E-06 0.5962293 -0.6487231
v -2.8014183E-06 0.5962293 -0.32556534
v -0.16266006 0.5023309 -0.6487231
v -0.16266006 0.31451285 -0.32556534
v -0.16266006 0.5023309 -0.6487231
v -0.16266006 0.5023309 -0.32556534
v -0.16266006 0.31451285 -0.6487231
v -2.8014183E-06 0.22059333 -0.32556534
v -0.16266006 0.31451285 -0.6487231
v -0.16266006 0.31451285 -0.32556534
v -2.8014183E-06 0.22059333 -0.6487231
v 0.1626544 0.31451285 -0.32556534
v -2.8014183E-06 0.22059333 -0.6487231
v -2.8014183E-06 0.22059333 -0.32556534
v 0.1626544 0.31451285 -0.6487231
v 0.1626544 0.5023309 -0.32556534
v 0.1626544 0.31451285 -0.6487231
v 0.1626544 0.31451285 -0.32556534
v 0.1626544 0.5023309 -0.6487231
vt 0.85132974 0.41059563
vt 0.9152457 0.43444487
vt 0.9152457 0.41059563
vt 0.85132974 0.43444487
vt 0.7883677 0.41059563
vt 0.7883677 0.43444487
vt 0.7244517 0.41059563
vt 0.7244517 0.43444487
vt 0.6614897 0.41059563
vt 0.6614897 0.43444487
vt 0.59757376 0.41059563
vt 0.59757376 0.43444487
vt 0.9782077 0.43444487
vt 0.9782077 0.41059563
vt 0.50217676 0.33046216
vt 0.44398457 0.33046216
vt 0.47260368 0.34667963
vt 0.44398457 0.29707322
vt 0.50217676 0.29707322
vt 0.47260368 0.27990174
vt 0.44207662 0.3285542
vt 0.41631946 0.28085572
vt 0.41631946 0.34381774
vt 0.44207662 0.29516527
vt 0.4716497 0.3457257
vt 0.4716497 0.37529874
vt 0.5002688 0.3285542
vt 0.526026 0.34381774
vt 0.5002688 0.29516527
vt 0.526026 0.28085572
vt 0.4716497 0.27894777
vt 0.4716497 0.24842075
vt 0.51362437 0.2846716
vt 0.52507204 0.34095582
vt 0.52507204 0.2779938
vt 0.51362437 0.33427805
vt 0.47069573 0.25986838
vt 0.47069573 0.2465128
vt 0.4277671 0.2846716
vt 0.4153655 0.2779938
vt 0.4277671 0.33427805
vt 0.4153655 0.34095582
vt 0.47069573 0.35908124
vt 0.47069573 0.3733908
vt 0.7330375 0.50790054
vt 0.7664264 0.45161635
vt 0.7330375 0.45161635
vt 0.7664264 0.50790054
vt 0.6996485 0.45161635
vt 0.6996485 0.50790054
vt 0.6662596 0.45161635
vt 0.6662596 0.50790054
vt 0.6328706 0.45161635
vt 0.6328706 0.50790054
vt 0.59948164 0.45161635
vt 0.59948164 0.50790054
vt 0.79981536 0.50790054
vt 0.79981536 0.45161635
vt 0.8007693 0.3857924
vt 0.7511629 0.30088907
vt 0.7511629 0.3857924
vt 0.8007693 0.30088907
vt 0.8503758 0.3857924
vt 0.8007693 0.30088907
vt 0.8007693 0.3857924
vt 0.8503758 0.30088907
vt 0.8999822 0.3857924
vt 0.8503758 0.30088907
vt 0.8503758 0.3857924
vt 0.8999822 0.30088907
vt 0.9495886 0.3857924
vt 0.8999822 0.30088907
vt 0.8999822 0.3857924
vt 0.9495886 0.30088907
vt 0.70155644 0.3857924
vt 0.65195 0.30088907
vt 0.65195 0.3857924
vt 0.70155644 0.30088907
vt 0.7511629 0.3857924
vt 0.70155644 0.30088907
vt 0.70155644 0.3857924
vt 0.7511629 0.30088907
vn 0.86666006 0.4980353 -0.029345917
vn 0.86666006 -0.49803543 -0.029343884
vn 0.86666006 -0.49803543 -0.029343884
vn 0.86666006 0.4980353 -0.029345917
vn -0.003921509 0.99999225 -0.00034526698
vn -0.003921509 0.99999225 -0.00034526698
vn -0.86666 0.4980353 -0.029347947
vn -0.86666 0.4980353 -0.029347947
vn -0.86666 -0.49803543 -0.029345917
vn -0.86666 -0.49803543 -0.029345917
vn -0.003921509 -0.9999924 -0
vn -0.003921509 -0.9999924 -0
vn -0.003921509 -0.9999924 -0
vn -0.003921509 -0.9999924 -0
vn -0.003921509 0.003921509 -0.9999846
vn -0.003921509 0.003921509 -0.9999846
vn -0.003921509 0.003921509 -0.9999846
vn -0.003921509 0.003921509 -0.9999846
vn -0.003921509 0.003921509 -0.9999846
vn -0.003921509 0.003921509 -0.9999846
vn -0.003921509 0.003921509 -0.9999846
vn -0.003921509 0.003921509 -0.9999846
vn -0.003921509 0.003921509 -0.9999846
vn -0.003921509 0.003921509 -0.9999846
vn -0.003921509 0.003921509 -0.9999846
vn -0.003921509 0.003921509 -0.9999846
vn -0.003921509 0.003921509 -0.9999846
vn -0.003921509 0.003921509 -0.9999846
vn -0.003921509 0.003921509 -0.9999846
vn -0.003921509 0.003921509 -0.9999846
vn -0.003921509 0.003921509 -0.9999846
vn -0.003921509 0.003921509 -0.9999846
vn -0.003921509 0.003921509 0.9999846
vn -0.003921509 0.003921509 0.9999846
vn -0.003921509 0.003921509 0.9999846
vn -0.003921509 0.003921509 0.9999846
vn -0.003921509 0.003921509 0.9999846
vn -0.003921509 0.003921509 0.9999846
vn -0.003921509 0.003921509 0.9999846
vn -0.003921509 0.003921509 0.9999846
vn -0.003921509 0.003921509 0.9999846
vn -0.003921509 0.003921509 0.9999846
vn -0.003921509 0.003921509 0.9999846
vn -0.003921509 0.003921509 0.9999846
vn -0.86666 0.4980353 -0.029347947
vn -0.86666 -0.49803543 -0.029345917
vn -0.86666 0.4980353 -0.029347947
vn -0.86666 -0.49803543 -0.029345917
vn -0.003921509 0.99999225 -0.00034526698
vn -0.003921509 0.99999225 -0.00034526698
vn 0.86666006 0.4980353 -0.029345917
vn 0.86666006 0.4980353 -0.029345917
vn 0.86666006 -0.49803543 -0.029343884
vn 0.86666006 -0.49803543 -0.029343884
vn -0.003921509 -0.9999924 -0
vn -0.003921509 -0.9999924 -0
vn -0.003921509 -0.9999924 -0
vn -0.003921509 -0.9999924 -0
vn 0.49803543 0.86666 -0.029345663
vn 0.49803543 0.86666 -0.029345663
vn 0.49803543 0.86666 -0.029345663
vn 0.49803543 0.86666 -0.029345663
vn -0.4980353 0.86666 -0.029347694
vn -0.4980353 0.86666 -0.029347694
vn -0.4980353 0.86666 -0.029347694
vn -0.4980353 0.86666 -0.029347694
vn -0.99999225 0.003921509 -0.00034492963
vn -0.99999225 0.003921509 -0.00034492963
vn -0.99999225 0.003921509 -0.00034492963
vn -0.99999225 0.003921509 -0.00034492963
vn -0.4980353 -0.86666006 -0.029345663
vn -0.4980353 -0.86666006 -0.029345663
vn -0.4980353 -0.86666006 -0.029345663
vn -0.4980353 -0.86666006 -0.029345663
vn 0.49803543 -0.86666006 -0.029343631
vn 0.49803543 -0.86666006 -0.029343631
vn 0.49803543 -0.86666006 -0.029343631
vn 0.49803543 -0.86666006 -0.029343631
vn 0.9999924 0.003921509 -0
vn 0.9999924 0.003921509 -0
vn 0.9999924 0.003921509 -0
vn 0.9999924 0.003921509 -0
g Turel_turret_02_CustomizePart_CorpsePart_0
f 3/3/3 2/2/2 1/1/1
f 4/4/4 1/1/1 2/2/2
f 6/6/6 5/5/5 4/4/4
f 1/1/1 4/4/4 5/5/5
f 8/8/8 7/7/7 6/6/6
f 5/5/5 6/6/6 7/7/7
f 10/10/10 9/9/9 8/8/8
f 7/7/7 8/8/8 9/9/9
f 12/12/12 11/11/11 10/10/10
f 9/9/9 10/10/10 11/11/11
f 2/2/2 3/3/3 13/13/13
f 14/14/14 13/13/13 3/3/3
f 17/17/17 16/16/16 15/15/15
f 16/16/16 18/18/18 15/15/15
f 20/20/20 19/19/19 18/18/18
f 18/18/18 19/19/19 15/15/15
f 23/23/23 22/22/22 21/21/21
f 24/24/24 21/21/21 22/22/22
f 26/26/26 23/23/23 25/25/25
f 21/21/21 25/25/25 23/23/23
f 28/28/28 26/26/26 27/27/27
f 25/25/25 27/27/27 26/26/26
f 30/30/30 28/28/28 29/29/29
f 27/27/27 29/29/29 28/28/28
f 32/32/32 30/30/30 31/31/31
f 29/29/29 31/31/31 30/30/30
f 22/22/22 32/32/32 24/24/24
f 31/31/31 24/24/24 32/32/32
f 35/35/35 34/34/34 33/33/33
f 36/36/36 33/33/33 34/34/34
f 38/38/38 35/35/35 37/37/37
f 33/33/33 37/37/37 35/35/35
f 40/40/40 38/38/38 39/39/39
f 37/37/37 39/39/39 38/38/38
f 42/42/42 40/40/40 41/41/41
f 39/39/39 41/41/41 40/40/40
f 44/44/44 42/42/42 43/43/43
f 41/41/41 43/43/43 42/42/42
f 34/34/34 44/44/44 36/36/36
f 43/43/43 36/36/36 44/44/44
f 47/47/47 46/46/46 45/45/45
f 48/48/48 45/45/45 46/46/46
f 47/47/47 45/45/45 49/49/49
f 50/50/50 49/49/49 45/45/45
f 49/49/49 50/50/50 51/51/51
f 52/52/52 51/51/51 50/50/50
f 51/51/51 52/52/52 53/53/53
f 54/54/54 53/53/53 52/52/52
f 53/53/53 54/54/54 55/55/55
f 56/56/56 55/55/55 54/54/54
f 58/58/58 57/57/57 46/46/46
f 48/48/48 46/46/46 57/57/57
f 61/61/61 60/60/60 59/59/59
f 62/62/62 59/59/59 60/60/60
f 65/65/65 64/64/64 63/63/63
f 66/66/66 63/63/63 64/64/64
f 69/69/69 68/68/68 67/67/67
f 70/70/70 67/67/67 68/68/68
f 73/73/73 72/72/72 71/71/71
f 74/74/74 71/71/71 72/72/72
f 77/77/77 76/76/76 75/75/75
f 78/78/78 75/75/75 76/76/76
f 81/81/81 80/80/80 79/79/79
f 82/82/82 79/79/79 80/80/80
