g Turel_turret_01_DefaultPart_CorpsePart
v 0.32548252 0.21724296 0.19957542
v 0.27266023 0.5625809 -0.3355983
v 0.27266023 0.24773043 -0.3355983
v 0.32548252 0.5930684 0.19957542
v -4.529953E-06 0.71998614 -0.3355983
v -4.529953E-06 0.7809811 0.19957542
v -0.27266932 0.5625809 -0.3355983
v -0.32549155 0.5930684 0.19957542
v -0.27266932 0.24773043 -0.3355983
v -0.32549155 0.21724296 0.19957542
v -4.529953E-06 0.09030521 -0.3355983
v -4.529953E-06 0.029310167 0.19957542
v -4.529953E-06 0.029310167 0.19957542
v -4.529953E-06 0.09030521 -0.3355983
v -4.529953E-06 0.71998614 -0.3355983
v 0.27266023 0.24773043 -0.3355983
v 0.27266023 0.5625809 -0.3355983
v -4.529953E-06 0.09030521 -0.3355983
v -0.27266932 0.24773043 -0.3355983
v -0.27266932 0.5625809 -0.3355983
v -0.21780384 0.53089154 0.4071588
v -4.529953E-06 0.15364385 0.4071588
v -0.21780384 0.27939975 0.4071588
v -4.529953E-06 0.6566475 0.4071588
v 0.21781479 0.27939975 0.4071588
v 0.21781479 0.53089154 0.4071588
v 0.21781479 0.53089154 0.4071588
v 0.32548252 0.21724296 0.19957542
v 0.21781479 0.27939975 0.4071588
v 0.32548252 0.5930684 0.19957542
v -4.529953E-06 0.6566475 0.4071588
v -4.529953E-06 0.7809811 0.19957542
v -0.21780384 0.53089154 0.4071588
v -0.32549155 0.5930684 0.19957542
v -0.21780384 0.27939975 0.4071588
v -0.32549155 0.21724296 0.19957542
v -4.529953E-06 0.15364385 0.4071588
v -4.529953E-06 0.029310167 0.19957542
v 0.44843405 0.4135688 -0.23552237
v 0.38803998 0.6389399 0.17780149
v 0.38803998 0.6389399 -0.280232
v 0.44843405 0.4135688 0.13309187
v 0.38803998 0.6389399 0.17780149
v -0.0023081303 0.8643109 -0.280232
v 0.38803998 0.6389399 -0.280232
v -0.0023081303 0.8643109 0.17780149
v -0.0023081303 0.8643109 0.17780149
v -0.39267623 0.6389399 -0.280232
v -0.0023081303 0.8643109 -0.280232
v -0.39267623 0.6389399 0.17780149
v -0.39267623 0.6389399 -0.280232
v -0.45307034 0.4135688 0.13309187
v -0.45307034 0.4135688 -0.23552237
v -0.39267623 0.6389399 0.17780149
v 0.44843405 0.4135688 -0.23552237
v 0.27187902 0.56933147 -0.280232
v 0.27836913 0.3788547 -0.23552237
v 0.27187902 0.56933147 -0.280232
v 0.44843405 0.4135688 -0.23552237
v 0.38803998 0.6389399 -0.280232
v 0.38803998 0.6389399 0.17780149
v 0.27836913 0.3788547 0.13309187
v 0.27187902 0.56933147 0.17780149
v 0.27836913 0.3788547 0.13309187
v 0.38803998 0.6389399 0.17780149
v 0.44843405 0.4135688 0.13309187
v 0.27836913 0.3788547 0.13309187
v 0.44843405 0.4135688 -0.23552237
v 0.27836913 0.3788547 -0.23552237
v 0.44843405 0.4135688 0.13309187
v -0.0023081303 0.72763807 -0.280232
v 0.38803998 0.6389399 -0.280232
v -0.0023081303 0.8643109 -0.280232
v 0.27187902 0.56933147 -0.280232
v 0.27187902 0.56933147 0.17780149
v -0.0023081303 0.8643109 0.17780149
v 0.38803998 0.6389399 0.17780149
v -0.0023081303 0.72763807 0.17780149
v -0.2765153 0.56933147 -0.280232
v -0.39267623 0.6389399 -0.280232
v -0.39267623 0.6389399 0.17780149
v -0.2765153 0.56933147 0.17780149
v -0.45307034 0.4135688 -0.23552237
v -0.2765153 0.56933147 -0.280232
v -0.39267623 0.6389399 -0.280232
v -0.2765153 0.56933147 -0.280232
v -0.45307034 0.4135688 -0.23552237
v -0.2829854 0.3788547 -0.23552237
v -0.2829854 0.3788547 -0.23552237
v -0.45307034 0.4135688 0.13309187
v -0.2829854 0.3788547 0.13309187
v -0.45307034 0.4135688 -0.23552237
v -0.45307034 0.4135688 0.13309187
v -0.2765153 0.56933147 0.17780149
v -0.2829854 0.3788547 0.13309187
v -0.2765153 0.56933147 0.17780149
v -0.45307034 0.4135688 0.13309187
v -0.39267623 0.6389399 0.17780149
v 0.18692666 0.16466105 0.00022485852
v 0.09346107 4.529953E-06 -0.16166732
v 0.18692666 4.529953E-06 0.00022485852
v 0.09346107 0.16466105 -0.16166732
v -0.093470156 4.529953E-06 -0.16166732
v -0.093470156 0.16466105 -0.16166732
v -0.18693572 4.529953E-06 0.00022485852
v -0.18693572 0.16466105 0.00022485852
v -0.093470156 4.529953E-06 0.16209704
v -0.093470156 0.16466105 0.16209704
v 0.09346107 4.529953E-06 0.16209704
v 0.09346107 0.16466105 0.16209704
v 0.18692666 4.529953E-06 0.00022485852
v 0.18692666 0.16466105 0.00022485852
v 0.18692666 4.529953E-06 0.00022485852
v -0.093470156 4.529953E-06 0.16209704
v 0.09346107 4.529953E-06 0.16209704
v -0.18693572 4.529953E-06 0.00022485852
v -0.093470156 4.529953E-06 -0.16166732
v 0.09346107 4.529953E-06 -0.16166732
vt 0.5040794 0.78687346
vt 0.5077362 0.78108346
vt 0.5040794 0.78108346
vt 0.5077362 0.78687346
vt 0.511393 0.78108346
vt 0.51169777 0.78687346
vt 0.5153546 0.78108346
vt 0.51565933 0.78687346
vt 0.51931614 0.78108346
vt 0.51931614 0.78687346
vt 0.52297294 0.78108346
vt 0.5232777 0.78687346
vt 0.50011784 0.78687346
vt 0.50011784 0.78108346
vt 0.52754396 0.7883971
vt 0.5248014 0.7838261
vt 0.5248014 0.78687346
vt 0.52754396 0.7819977
vt 0.5302866 0.7838261
vt 0.5302866 0.78687346
vt 0.5025557 0.79388237
vt 0.5052983 0.7890066
vt 0.5025557 0.7905302
vt 0.5052983 0.795406
vt 0.50804096 0.7905302
vt 0.50804096 0.79388237
vt 0.50804096 0.79388237
vt 0.5092599 0.7899208
vt 0.50804096 0.7905302
vt 0.5092599 0.79449177
vt 0.5052983 0.795406
vt 0.5052983 0.7969297
vt 0.5025557 0.79388237
vt 0.50103205 0.79449177
vt 0.5025557 0.7905302
vt 0.50103205 0.7899208
vt 0.5052983 0.7890066
vt 0.5052983 0.78748286
vt 0.5302866 0.79205394
vt 0.5260203 0.79449177
vt 0.53089607 0.79449177
vt 0.52632505 0.79205394
vt 0.5260203 0.79449177
vt 0.53089607 0.79936755
vt 0.53089607 0.79449177
vt 0.5260203 0.79936755
vt 0.5260203 0.79936755
vt 0.53089607 0.804548
vt 0.53089607 0.79936755
vt 0.5260203 0.804548
vt 0.53089607 0.804548
vt 0.52632505 0.8069859
vt 0.5302866 0.8069859
vt 0.5260203 0.804548
vt 0.50956464 0.7877876
vt 0.51169777 0.78961605
vt 0.5110883 0.78717816
vt 0.51169777 0.78961605
vt 0.50956464 0.7877876
vt 0.51047885 0.7902255
vt 0.5190114 0.7902255
vt 0.5184019 0.78717816
vt 0.51779246 0.78961605
vt 0.5184019 0.78717816
vt 0.5190114 0.7902255
vt 0.5199256 0.7877876
vt 0.52632505 0.7899208
vt 0.5302866 0.7911397
vt 0.5302866 0.7899208
vt 0.52632505 0.7911397
vt 0.5147451 0.7911397
vt 0.51047885 0.7902255
vt 0.5147451 0.7926634
vt 0.51169777 0.78961605
vt 0.51779246 0.78961605
vt 0.5147451 0.7926634
vt 0.5190114 0.7902255
vt 0.5147451 0.7911397
vt 0.51779246 0.78961605
vt 0.5190114 0.7902255
vt 0.51047885 0.7902255
vt 0.51169777 0.78961605
vt 0.5199256 0.7877876
vt 0.51779246 0.78961605
vt 0.5190114 0.7902255
vt 0.51779246 0.78961605
vt 0.5199256 0.7877876
vt 0.5184019 0.78717816
vt 0.52632505 0.7899208
vt 0.5302866 0.7911397
vt 0.5302866 0.7899208
vt 0.52632505 0.7911397
vt 0.50956464 0.7877876
vt 0.51169777 0.78961605
vt 0.5110883 0.78717816
vt 0.51169777 0.78961605
vt 0.50956464 0.7877876
vt 0.51047885 0.7902255
vt 0.5025557 0.8118617
vt 0.5043841 0.8106427
vt 0.5025557 0.8106427
vt 0.5043841 0.8118617
vt 0.5065173 0.8106427
vt 0.5065173 0.8118617
vt 0.50834566 0.8106427
vt 0.50834566 0.8118617
vt 0.51047885 0.8106427
vt 0.51047885 0.8118617
vt 0.512612 0.8106427
vt 0.512612 0.8118617
vt 0.5147451 0.8106427
vt 0.5147451 0.8118617
vt 0.50804096 0.79205394
vt 0.5040794 0.79449177
vt 0.506822 0.79449177
vt 0.5028604 0.79205394
vt 0.5040794 0.7899208
vt 0.506822 0.7899208
vn 0.8509739 -0.5137216 -0.10924086
vn 0.87450314 0.48234916 -0.050828766
vn 0.8509739 -0.5137216 -0.10924086
vn 0.86666006 0.48234916 -0.12743486
vn 0.019607723 0.99214923 -0.12351296
vn 0.019607723 0.99214923 -0.12351296
vn -0.85097384 0.51372147 -0.10924168
vn -0.85097384 0.51372147 -0.10924168
vn -0.874503 -0.48234928 -0.05082935
vn -0.86666 -0.48234928 -0.12743486
vn -0.019607663 -0.9921493 -0.12351248
vn -0.019607663 -0.9921493 -0.12351248
vn -0.019607663 -0.9921493 -0.12351248
vn -0.019607663 -0.9921493 -0.12351248
vn -0.003921509 0.003921509 -0.9999846
vn -0.003921509 0.003921509 -0.9999846
vn -0.003921509 0.003921509 -0.9999846
vn -0.003921509 0.003921509 -0.9999846
vn -0.003921509 0.003921509 -0.9999846
vn -0.003921509 0.003921509 -0.9999846
vn -0.003921509 0.003921509 0.9999846
vn -0.003921509 0.003921509 0.9999846
vn -0.003921509 0.003921509 0.9999846
vn -0.003921509 0.003921509 0.9999846
vn -0.003921509 0.003921509 0.9999846
vn -0.003921509 0.003921509 0.9999846
vn 0.77254313 0.37254608 0.5141853
vn 0.7176416 -0.46666312 0.5169295
vn 0.7097985 -0.49019235 0.50586313
vn 0.76470006 0.38823223 0.51430494
vn 0.066666186 0.85881686 0.5079264
vn 0.043136954 0.85881686 0.5104633
vn -0.70979846 0.4901923 0.50586325
vn -0.7176415 0.466663 0.51692975
vn -0.7725431 -0.3725462 0.5141853
vn -0.76469994 -0.38823235 0.51430506
vn -0.066666126 -0.858817 0.5079262
vn -0.043136835 -0.858817 0.5104631
vn 0.9670746 0.25449327 -0
vn 0.9670746 0.25449327 -0
vn 0.9670746 0.25449327 -0
vn 0.9670746 0.25449327 -0
vn 0.49803543 0.86666 -0.029345663
vn 0.49803543 0.86666 -0.029345663
vn 0.49803543 0.86666 -0.029345663
vn 0.49803543 0.86666 -0.029345663
vn -0.4980353 0.86666 -0.029347694
vn -0.4980353 0.86666 -0.029347694
vn -0.4980353 0.86666 -0.029347694
vn -0.4980353 0.86666 -0.029347694
vn -0.9670746 0.2544933 -0
vn -0.9670746 0.2544933 -0
vn -0.9670746 0.2544933 -0
vn -0.9670746 0.2544933 -0
vn 0.043136954 -0.22352773 -0.97374254
vn 0.043136954 -0.22352773 -0.97374254
vn 0.043136954 -0.22352773 -0.97374254
vn 0.098038495 -0.16862619 -0.98079234
vn 0.098038495 -0.16862619 -0.98079234
vn 0.098038495 -0.16862619 -0.98079234
vn 0.1294108 -0.22352773 0.9660684
vn 0.1294108 -0.22352773 0.9660684
vn 0.1294108 -0.22352773 0.9660684
vn 0.035293877 -0.18431234 0.9822338
vn 0.035293877 -0.18431234 0.9822338
vn 0.035293877 -0.18431234 0.9822338
vn 0.1999985 -0.97646314 -0.080748565
vn 0.1999985 -0.97646314 -0.080748565
vn 0.1999985 -0.97646314 -0.080748565
vn 0.1999985 -0.97646314 -0.080748565
vn -0.003921509 0.003921509 -0.9999846
vn -0.003921509 0.003921509 -0.9999846
vn -0.003921509 0.003921509 -0.9999846
vn -0.003921509 0.003921509 -0.9999846
vn -0.003921509 0.003921509 0.9999846
vn -0.003921509 0.003921509 0.9999846
vn -0.003921509 0.003921509 0.9999846
vn -0.003921509 0.003921509 0.9999846
vn -0.003921509 0.003921509 -0.9999846
vn -0.003921509 0.003921509 -0.9999846
vn -0.003921509 0.003921509 0.9999846
vn -0.003921509 0.003921509 0.9999846
vn -0.098038435 -0.16862619 -0.98079234
vn -0.098038435 -0.16862619 -0.98079234
vn -0.098038435 -0.16862619 -0.98079234
vn -0.043136835 -0.22352773 -0.97374254
vn -0.043136835 -0.22352773 -0.97374254
vn -0.043136835 -0.22352773 -0.97374254
vn -0.19999838 -0.97646314 -0.08074894
vn -0.19999838 -0.97646314 -0.08074894
vn -0.19999838 -0.97646314 -0.08074894
vn -0.19999838 -0.97646314 -0.08074894
vn -0.043136835 -0.22352773 0.97374254
vn -0.043136835 -0.22352773 0.97374254
vn -0.043136835 -0.22352773 0.97374254
vn -0.098038435 -0.16862619 0.98079234
vn -0.098038435 -0.16862619 0.98079234
vn -0.098038435 -0.16862619 0.98079234
vn 0.9999924 0.003921509 -0
vn 0.49803543 0.003921509 -0.8671478
vn 0.9999924 0.003921509 -0
vn 0.49803543 0.003921509 -0.8671478
vn -0.4980353 0.003921509 -0.86714786
vn -0.4980353 0.003921509 -0.86714786
vn -0.99999225 0.003921509 -0.00034492963
vn -0.99999225 0.003921509 -0.00034492963
vn -0.4980353 0.003921509 0.86714786
vn -0.4980353 0.003921509 0.86714786
vn 0.49803543 0.003921509 0.8671478
vn 0.49803543 0.003921509 0.8671478
vn 0.9999924 0.003921509 -0
vn 0.9999924 0.003921509 -0
vn -0.003921509 -0.9999924 -0
vn -0.003921509 -0.9999924 -0
vn -0.003921509 -0.9999924 -0
vn -0.003921509 -0.9999924 -0
vn -0.003921509 -0.9999924 -0
vn -0.003921509 -0.9999924 -0
g Turel_turret_01_DefaultPart_CorpsePart_0
f 3/3/3 2/2/2 1/1/1
f 4/4/4 1/1/1 2/2/2
f 2/2/2 5/5/5 4/4/4
f 6/6/6 4/4/4 5/5/5
f 5/5/5 7/7/7 6/6/6
f 8/8/8 6/6/6 7/7/7
f 7/7/7 9/9/9 8/8/8
f 10/10/10 8/8/8 9/9/9
f 9/9/9 11/11/11 10/10/10
f 12/12/12 10/10/10 11/11/11
f 14/14/14 3/3/3 13/13/13
f 1/1/1 13/13/13 3/3/3
f 17/17/17 16/16/16 15/15/15
f 16/16/16 18/18/18 15/15/15
f 18/18/18 19/19/19 15/15/15
f 15/15/15 19/19/19 20/20/20
f 23/23/23 22/22/22 21/21/21
f 21/21/21 22/22/22 24/24/24
f 22/22/22 25/25/25 24/24/24
f 25/25/25 26/26/26 24/24/24
f 29/29/29 28/28/28 27/27/27
f 30/30/30 27/27/27 28/28/28
f 32/32/32 31/31/31 30/30/30
f 27/27/27 30/30/30 31/31/31
f 34/34/34 33/33/33 32/32/32
f 31/31/31 32/32/32 33/33/33
f 36/36/36 35/35/35 34/34/34
f 33/33/33 34/34/34 35/35/35
f 38/38/38 37/37/37 36/36/36
f 35/35/35 36/36/36 37/37/37
f 28/28/28 29/29/29 38/38/38
f 37/37/37 38/38/38 29/29/29
f 41/41/41 40/40/40 39/39/39
f 42/42/42 39/39/39 40/40/40
f 45/45/45 44/44/44 43/43/43
f 46/46/46 43/43/43 44/44/44
f 49/49/49 48/48/48 47/47/47
f 50/50/50 47/47/47 48/48/48
f 53/53/53 52/52/52 51/51/51
f 54/54/54 51/51/51 52/52/52
f 57/57/57 56/56/56 55/55/55
f 60/60/60 59/59/59 58/58/58
f 63/63/63 62/62/62 61/61/61
f 66/66/66 65/65/65 64/64/64
f 69/69/69 68/68/68 67/67/67
f 70/70/70 67/67/67 68/68/68
f 73/73/73 72/72/72 71/71/71
f 74/74/74 71/71/71 72/72/72
f 77/77/77 76/76/76 75/75/75
f 78/78/78 75/75/75 76/76/76
f 80/80/80 73/73/73 79/79/79
f 71/71/71 79/79/79 73/73/73
f 76/76/76 81/81/81 78/78/78
f 82/82/82 78/78/78 81/81/81
f 85/85/85 84/84/84 83/83/83
f 88/88/88 87/87/87 86/86/86
f 91/91/91 90/90/90 89/89/89
f 92/92/92 89/89/89 90/90/90
f 95/95/95 94/94/94 93/93/93
f 98/98/98 97/97/97 96/96/96
f 101/101/101 100/100/100 99/99/99
f 102/102/102 99/99/99 100/100/100
f 100/100/100 103/103/103 102/102/102
f 104/104/104 102/102/102 103/103/103
f 103/103/103 105/105/105 104/104/104
f 106/106/106 104/104/104 105/105/105
f 105/105/105 107/107/107 106/106/106
f 108/108/108 106/106/106 107/107/107
f 107/107/107 109/109/109 108/108/108
f 110/110/110 108/108/108 109/109/109
f 109/109/109 111/111/111 110/110/110
f 112/112/112 110/110/110 111/111/111
f 115/115/115 114/114/114 113/113/113
f 116/116/116 113/113/113 114/114/114
f 118/118/118 113/113/113 117/117/117
f 116/116/116 117/117/117 113/113/113
