g TwoLegs_02
v -0.14413106 -0.13807511 0.2954008
v -0.07368666 -0.14239258 0.29328966
v -0.07689297 -0.09409103 0.23297226
v -0.14698821 -0.09474182 0.24127382
v -0.08436918 -0.01986885 0.21259135
v -0.15367073 -0.028138697 0.22297227
v -0.09325808 0.051924765 0.23990875
v -0.16163898 0.03628987 0.24749607
v -0.10014695 0.09387714 0.30449605
v -0.16782945 0.07395649 0.3054484
v -0.10243267 0.08995646 0.3817023
v -0.16990882 0.07043266 0.3747341
v -0.099226296 0.041654944 0.44201976
v -0.16703582 0.027083516 0.42886102
v -0.091781855 -0.032551408 0.4624166
v -0.16032153 -0.039519638 0.44716263
v -0.08290887 -0.10437673 0.43509912
v -0.15236914 -0.10393229 0.42263883
v -0.07600409 -0.14631322 0.37049598
v -0.14616281 -0.14158306 0.36467057
v -0.07368666 -0.14239258 0.29328966
v -0.14413106 -0.13807511 0.2954008
v 0.21845603 -0.05444026 0.25417858
v 0.22132903 -0.09777355 0.30830556
v 0.20840842 0.006480336 0.3479722
v 0.21174175 0.012178779 0.23587704
v 0.2037735 0.07660729 0.26040083
v 0.19758302 0.114242196 0.31836903
v 0.19550365 0.110734224 0.3876388
v 0.19837669 0.06738508 0.4417658
v 0.20509097 0.00079780817 0.46006733
v 0.21305922 -0.06363073 0.4355436
v 0.21924967 -0.101281494 0.37757534
v -0.15700406 -0.033821225 0.33505154
v -0.14413106 -0.13807511 0.2954008
v -0.14698821 -0.09474182 0.24127382
v -0.15367073 -0.028138697 0.22297227
v -0.16163898 0.03628987 0.24749607
v -0.16782945 0.07395649 0.3054484
v -0.16990882 0.07043266 0.3747341
v -0.16703582 0.027083516 0.42886102
v -0.16032153 -0.039519638 0.44716263
v -0.15236914 -0.10393229 0.42263883
v -0.14616281 -0.14158306 0.36467057
v 0.15067828 -0.0689958 0.2410199
v 0.15385288 -0.11729735 0.30132145
v 0.22132903 -0.09777355 0.30830556
v 0.21845603 -0.05444026 0.25417858
v 0.1432021 0.0052263737 0.22062308
v 0.21174175 0.012178779 0.23587704
v 0.13431323 0.077035844 0.24794048
v 0.2037735 0.07660729 0.26040083
v 0.12739259 0.11895645 0.31254363
v 0.19758302 0.114242196 0.31836903
v 0.12510687 0.11505169 0.38974994
v 0.19550365 0.110734224 0.3876388
v 0.12831321 0.06676602 0.45006734
v 0.19837669 0.06738508 0.4417658
v 0.13578942 -0.0074720383 0.47044832
v 0.20509097 0.00079780817 0.46006733
v 0.14466241 -0.079265624 0.44313085
v 0.21305922 -0.06363073 0.4355436
v 0.15156719 -0.121217996 0.3785277
v 0.21924967 -0.101281494 0.37757534
v 0.15385288 -0.11729735 0.30132145
v 0.22132903 -0.09777355 0.30830556
v -0.07368666 -0.11351958 0.20306754
v -0.06957555 -0.17563066 0.28063887
v 0.15796399 -0.15055132 0.28867066
v 0.15385288 -0.088424355 0.21111512
v -0.08330572 -0.018059313 0.17684531
v 0.14426559 0.0070199966 0.18487704
v -0.0947184 0.0742898 0.21198815
v 0.13282117 0.09936917 0.22001988
v -0.10359138 0.1282422 0.2950675
v 0.12394816 0.15333742 0.30309922
v -0.106559634 0.12321043 0.3943531
v 0.120979905 0.14830565 0.40240073
v -0.10243267 0.061083496 0.47192448
v 0.12510687 0.086194575 0.47997206
v -0.092861235 -0.03437677 0.49816257
v 0.13471004 -0.009281576 0.5061943
v -0.081416786 -0.12671006 0.46301973
v 0.14612275 -0.10163072 0.4710515
v -0.072527945 -0.18067828 0.37994045
v 0.15501162 -0.15558305 0.38797218
v -0.06957555 -0.17563066 0.28063887
v 0.15796399 -0.15055132 0.28867066
v -0.07689297 -0.09409103 0.23297226
v -0.07368666 -0.14239258 0.29328966
v -0.06957555 -0.17563066 0.28063887
v -0.07368666 -0.11351958 0.20306754
v 0.15385288 -0.11729735 0.30132145
v 0.15067828 -0.0689958 0.2410199
v 0.15385288 -0.088424355 0.21111512
v 0.15796399 -0.15055132 0.28867066
v -0.08436918 -0.01986885 0.21259135
v -0.08330572 -0.018059313 0.17684531
v 0.1432021 0.0052263737 0.22062308
v 0.14426559 0.0070199966 0.18487704
v -0.09325808 0.051924765 0.23990875
v -0.0947184 0.0742898 0.21198815
v 0.13431323 0.077035844 0.24794048
v 0.13282117 0.09936917 0.22001988
v -0.10014695 0.09387714 0.30449605
v -0.10359138 0.1282422 0.2950675
v 0.12739259 0.11895645 0.31254363
v 0.12394816 0.15333742 0.30309922
v -0.10243267 0.08995646 0.3817023
v -0.106559634 0.12321043 0.3943531
v 0.12510687 0.11505169 0.38974994
v 0.120979905 0.14830565 0.40240073
v -0.099226296 0.041654944 0.44201976
v -0.10243267 0.061083496 0.47192448
v 0.12831321 0.06676602 0.45006734
v 0.12510687 0.086194575 0.47997206
v -0.091781855 -0.032551408 0.4624166
v -0.092861235 -0.03437677 0.49816257
v 0.13578942 -0.0074720383 0.47044832
v 0.13471004 -0.009281576 0.5061943
v -0.08290887 -0.10437673 0.43509912
v -0.081416786 -0.12671006 0.46301973
v 0.14466241 -0.079265624 0.44313085
v 0.14612275 -0.10163072 0.4710515
v -0.07600409 -0.14631322 0.37049598
v -0.072527945 -0.18067828 0.37994045
v 0.15156719 -0.121217996 0.3785277
v 0.15501162 -0.15558305 0.38797218
v -0.07368666 -0.14239258 0.29328966
v -0.06957555 -0.17563066 0.28063887
v 0.15385288 -0.11729735 0.30132145
v 0.15796399 -0.15055132 0.28867066
v 0.1550751 -0.07604343 -0.52751935
v -0.029781938 -0.09642437 -0.53404313
v -0.055718422 -0.114075154 0.26443255
v 0.1291545 -0.093678325 0.27097225
v 0.10993227 0.056004107 0.3481468
v -0.07494062 0.03560728 0.341623
v -0.06001997 0.17217863 -0.51393205
v 0.124852926 0.19257545 -0.50739235
v -0.06001997 0.17217863 -0.51393205
v -0.07494062 0.03560728 0.341623
v -0.055718422 -0.114075154 0.26443255
v -0.029781938 -0.09642437 -0.53404313
v 0.10993227 0.056004107 0.3481468
v 0.124852926 0.19257545 -0.50739235
v 0.1550751 -0.07604343 -0.52751935
v 0.1291545 -0.093678325 0.27097225
vt 0.4316908 0.73264647
vt 0.4316908 0.7340882
vt 0.4302491 0.7340882
vt 0.4302491 0.73264647
vt 0.4288074 0.7340882
vt 0.4288074 0.73264647
vt 0.4273657 0.7340882
vt 0.4273657 0.73264647
vt 0.425924 0.7340882
vt 0.425924 0.73264647
vt 0.4244823 0.7340882
vt 0.4244823 0.73264647
vt 0.42304057 0.7340882
vt 0.42304057 0.73264647
vt 0.42123845 0.7340882
vt 0.42123845 0.73264647
vt 0.41979674 0.7340882
vt 0.41979674 0.73264647
vt 0.41835505 0.7340882
vt 0.41835505 0.73264647
vt 0.41691333 0.7340882
vt 0.41691333 0.73264647
vt 0.3873584 0.7459823
vt 0.38519585 0.7477844
vt 0.38375416 0.7434592
vt 0.3884397 0.7434592
vt 0.3873584 0.74057585
vt 0.38519585 0.7387737
vt 0.38231245 0.7387737
vt 0.37978947 0.74057585
vt 0.3790686 0.7434592
vt 0.37978947 0.7459823
vt 0.38231245 0.7477844
vt 0.38375416 0.7434592
vt 0.38231245 0.7477844
vt 0.37978947 0.7459823
vt 0.3790686 0.7434592
vt 0.37978947 0.74057585
vt 0.38231245 0.7387737
vt 0.38519585 0.7387737
vt 0.3873584 0.74057585
vt 0.3884397 0.7434592
vt 0.3873584 0.7459823
vt 0.38519585 0.7477844
vt 0.4302491 0.74057585
vt 0.4316908 0.74057585
vt 0.4316908 0.74201757
vt 0.4302491 0.74201757
vt 0.4288074 0.74057585
vt 0.4288074 0.74201757
vt 0.4273657 0.74057585
vt 0.4273657 0.74201757
vt 0.425924 0.74057585
vt 0.425924 0.74201757
vt 0.4244823 0.74057585
vt 0.4244823 0.74201757
vt 0.42304057 0.74057585
vt 0.42304057 0.74201757
vt 0.42123845 0.74057585
vt 0.42123845 0.74201757
vt 0.41979674 0.74057585
vt 0.41979674 0.74201757
vt 0.41835505 0.74057585
vt 0.41835505 0.74201757
vt 0.41691333 0.74057585
vt 0.41691333 0.74201757
vt 0.4302491 0.73480904
vt 0.4316908 0.73480904
vt 0.4316908 0.73985505
vt 0.4302491 0.73985505
vt 0.4288074 0.73480904
vt 0.4288074 0.73985505
vt 0.4273657 0.73480904
vt 0.4273657 0.73985505
vt 0.425924 0.73480904
vt 0.425924 0.73985505
vt 0.4244823 0.73480904
vt 0.4244823 0.73985505
vt 0.42304057 0.73480904
vt 0.42304057 0.73985505
vt 0.42123845 0.73480904
vt 0.42123845 0.73985505
vt 0.41979674 0.73480904
vt 0.41979674 0.73985505
vt 0.41835505 0.73480904
vt 0.41835505 0.73985505
vt 0.41691333 0.73480904
vt 0.41691333 0.73985505
vt 0.4302491 0.7340882
vt 0.4316908 0.7340882
vt 0.4316908 0.73480904
vt 0.4302491 0.73480904
vt 0.4316908 0.74057585
vt 0.4302491 0.74057585
vt 0.4302491 0.73985505
vt 0.4316908 0.73985505
vt 0.4288074 0.7340882
vt 0.4288074 0.73480904
vt 0.4288074 0.74057585
vt 0.4288074 0.73985505
vt 0.4273657 0.7340882
vt 0.4273657 0.73480904
vt 0.4273657 0.74057585
vt 0.4273657 0.73985505
vt 0.425924 0.7340882
vt 0.425924 0.73480904
vt 0.425924 0.74057585
vt 0.425924 0.73985505
vt 0.4244823 0.7340882
vt 0.4244823 0.73480904
vt 0.4244823 0.74057585
vt 0.4244823 0.73985505
vt 0.42304057 0.7340882
vt 0.42304057 0.73480904
vt 0.42304057 0.74057585
vt 0.42304057 0.73985505
vt 0.42123845 0.7340882
vt 0.42123845 0.73480904
vt 0.42123845 0.74057585
vt 0.42123845 0.73985505
vt 0.41979674 0.7340882
vt 0.41979674 0.73480904
vt 0.41979674 0.74057585
vt 0.41979674 0.73985505
vt 0.41835505 0.7340882
vt 0.41835505 0.73480904
vt 0.41835505 0.74057585
vt 0.41835505 0.73985505
vt 0.41691333 0.7340882
vt 0.41691333 0.73480904
vt 0.41691333 0.74057585
vt 0.41691333 0.73985505
vt 0.3790686 0.72219414
vt 0.38231245 0.72219414
vt 0.38339373 0.7366112
vt 0.3790686 0.7366112
vt 0.39168352 0.7366112
vt 0.3873584 0.7366112
vt 0.3873584 0.72219414
vt 0.39060223 0.72219414
vt 0.3873584 0.72219414
vt 0.3873584 0.7366112
vt 0.38339373 0.7366112
vt 0.38231245 0.72219414
vt 0.39168352 0.7366112
vt 0.39060223 0.72219414
vt 0.3956482 0.72219414
vt 0.3956482 0.7366112
vn -0.06612027 -0.9312791 -0.35825595
vn -0.06612027 -0.9312791 -0.35825595
vn -0.08949685 -0.54946214 -0.83071154
vn -0.08949685 -0.54946214 -0.83071154
vn -0.15183437 0.027159452 -0.98803276
vn -0.15183437 0.027159452 -0.98803276
vn -0.221964 0.59598875 -0.7717055
vn -0.221964 0.59598875 -0.7717055
vn -0.27650928 0.92326045 -0.2667073
vn -0.27650928 0.92326045 -0.2667073
vn -0.29209363 0.89209175 0.34475154
vn -0.29209363 0.89209175 0.34475154
vn -0.26871705 0.51027477 0.8169521
vn -0.26871705 0.51027477 0.8169521
vn -0.20637965 -0.066346765 0.97622
vn -0.20637965 -0.066346765 0.97622
vn -0.14404213 -0.6351762 0.7588169
vn -0.14404213 -0.6351762 0.7588169
vn -0.08949685 -0.9624478 0.25628987
vn -0.08949685 -0.9624478 0.25628987
vn -0.06612027 -0.9312791 -0.35825595
vn -0.06612027 -0.9312791 -0.35825595
vn 0.9936095 0.11287263 -0
vn 0.9936095 0.11287263 -0
vn 0.9936095 0.11287263 -0
vn 0.9936095 0.11287263 -0
vn 0.9936095 0.11287263 -0
vn 0.9936095 0.11287263 -0
vn 0.9936095 0.11287263 -0
vn 0.9936095 0.11287263 -0
vn 0.9936095 0.11287263 -0
vn 0.9936095 0.11287263 -0
vn 0.9936095 0.11287263 -0
vn -0.9933901 -0.11309987 -0.019610245
vn -0.9933901 -0.11309987 -0.019610245
vn -0.9933901 -0.11309987 -0.019610245
vn -0.9933901 -0.11309987 -0.019610245
vn -0.9933901 -0.11309987 -0.019610245
vn -0.9933901 -0.11309987 -0.019610245
vn -0.9933901 -0.11309987 -0.019610245
vn -0.9933901 -0.11309987 -0.019610245
vn -0.9933901 -0.11309987 -0.019610245
vn -0.9933901 -0.11309987 -0.019610245
vn -0.9933901 -0.11309987 -0.019610245
vn 0.26894355 -0.51050127 -0.8167361
vn 0.29232013 -0.8923182 -0.34397265
vn 0.29232013 -0.8923182 -0.34397265
vn 0.26894355 -0.51050127 -0.8167361
vn 0.20660609 0.06612027 -0.97618747
vn 0.20660609 0.06612027 -0.97618747
vn 0.13647646 0.6349497 -0.7604032
vn 0.13647646 0.6349497 -0.7604032
vn 0.081931174 0.9622214 -0.25964835
vn 0.081931174 0.9622214 -0.25964835
vn 0.066346765 0.9310527 0.35880217
vn 0.066346765 0.9310527 0.35880217
vn 0.08972335 0.5570278 0.8256329
vn 0.08972335 0.5570278 0.8256329
vn 0.1520608 -0.02738589 0.98799163
vn 0.1520608 -0.02738589 0.98799163
vn 0.22219044 -0.59621525 0.7714653
vn 0.22219044 -0.59621525 0.7714653
vn 0.27673572 -0.92348695 0.26568624
vn 0.27673572 -0.92348695 0.26568624
vn 0.29232013 -0.8923182 -0.34397265
vn 0.29232013 -0.8923182 -0.34397265
vn 0.08972335 -0.54166996 -0.8357891
vn 0.11309987 -0.9312791 -0.3463057
vn 0.11309987 -0.9312791 -0.3463057
vn 0.08972335 -0.54166996 -0.8357891
vn 0.02738589 0.050535917 -0.9983467
vn 0.02738589 0.050535917 -0.9983467
vn -0.042743802 0.62715745 -0.7777188
vn -0.042743802 0.62715745 -0.7777188
vn -0.097289085 0.9622214 -0.25429282
vn -0.097289085 0.9622214 -0.25429282
vn -0.112873435 0.9310527 0.34698772
vn -0.112873435 0.9310527 0.34698772
vn -0.08949685 0.54144347 0.8359601
vn -0.08949685 0.54144347 0.8359601
vn -0.027159452 -0.050762415 0.9983414
vn -0.027159452 -0.050762415 0.9983414
vn 0.04297024 -0.62738395 0.77752364
vn 0.04297024 -0.62738395 0.77752364
vn 0.09751552 -0.9624478 0.2533474
vn 0.09751552 -0.9624478 0.2533474
vn 0.11309987 -0.9312791 -0.3463057
vn 0.11309987 -0.9312791 -0.3463057
vn -0.9933901 -0.11309987 -0.019610245
vn -0.9933901 -0.11309987 -0.019610245
vn -0.9933901 -0.11309987 -0.019610245
vn -0.9933901 -0.11309987 -0.019610245
vn 0.9936095 0.11287263 -0
vn 0.9936095 0.11287263 -0
vn 0.9936095 0.11287263 -0
vn 0.9936095 0.11287263 -0
vn -0.9933901 -0.11309987 -0.019610245
vn -0.9933901 -0.11309987 -0.019610245
vn 0.9936095 0.11287263 -0
vn 0.9936095 0.11287263 -0
vn -0.9933901 -0.11309987 -0.019610245
vn -0.9933901 -0.11309987 -0.019610245
vn 0.9936095 0.11287263 -0
vn 0.9936095 0.11287263 -0
vn -0.9933901 -0.11309987 -0.019610245
vn -0.9933901 -0.11309987 -0.019610245
vn 0.9936095 0.11287263 -0
vn 0.9936095 0.11287263 -0
vn -0.9933901 -0.11309987 -0.019610245
vn -0.9933901 -0.11309987 -0.019610245
vn 0.9936095 0.11287263 -0
vn 0.9936095 0.11287263 -0
vn -0.9933901 -0.11309987 -0.019610245
vn -0.9933901 -0.11309987 -0.019610245
vn 0.9936095 0.11287263 -0
vn 0.9936095 0.11287263 -0
vn -0.9933901 -0.11309987 -0.019610245
vn -0.9933901 -0.11309987 -0.019610245
vn 0.9936095 0.11287263 -0
vn 0.9936095 0.11287263 -0
vn -0.9933901 -0.11309987 -0.019610245
vn -0.9933901 -0.11309987 -0.019610245
vn 0.9936095 0.11287263 -0
vn 0.9936095 0.11287263 -0
vn -0.9933901 -0.11309987 -0.019610245
vn -0.9933901 -0.11309987 -0.019610245
vn 0.9936095 0.11287263 -0
vn 0.9936095 0.11287263 -0
vn -0.9933901 -0.11309987 -0.019610245
vn -0.9933901 -0.11309987 -0.019610245
vn 0.9936095 0.11287263 -0
vn 0.9936095 0.11287263 -0
vn 0.11309616 -0.99358404 -0
vn 0.11309616 -0.99358404 -0
vn 0.11309616 -0.99358404 -0
vn 0.11309616 -0.99358404 -0
vn -0.112873435 0.97780573 0.17650928
vn -0.112873435 0.97780573 0.17650928
vn -0.112873435 0.97780573 0.17650928
vn -0.112873435 0.97780573 0.17650928
vn -0.9933901 -0.11309987 -0.019610245
vn -0.9933901 -0.11309987 -0.019610245
vn -0.9933901 -0.11309987 -0.019610245
vn -0.9933901 -0.11309987 -0.019610245
vn 0.9936095 0.11287263 -0
vn 0.9936095 0.11287263 -0
vn 0.9936095 0.11287263 -0
vn 0.9936095 0.11287263 -0
g TwoLegs_02_0
f 3/3/3 2/2/2 1/1/1
f 4/4/4 3/3/3 1/1/1
f 5/5/5 3/3/3 4/4/4
f 6/6/6 5/5/5 4/4/4
f 7/7/7 5/5/5 6/6/6
f 8/8/8 7/7/7 6/6/6
f 9/9/9 7/7/7 8/8/8
f 10/10/10 9/9/9 8/8/8
f 11/11/11 9/9/9 10/10/10
f 12/12/12 11/11/11 10/10/10
f 13/13/13 11/11/11 12/12/12
f 14/14/14 13/13/13 12/12/12
f 15/15/15 13/13/13 14/14/14
f 16/16/16 15/15/15 14/14/14
f 17/17/17 15/15/15 16/16/16
f 18/18/18 17/17/17 16/16/16
f 19/19/19 17/17/17 18/18/18
f 20/20/20 19/19/19 18/18/18
f 21/21/21 19/19/19 20/20/20
f 22/22/22 21/21/21 20/20/20
f 25/25/25 24/24/24 23/23/23
f 25/25/25 23/23/23 26/26/26
f 25/25/25 26/26/26 27/27/27
f 25/25/25 27/27/27 28/28/28
f 25/25/25 28/28/28 29/29/29
f 25/25/25 29/29/29 30/30/30
f 25/25/25 30/30/30 31/31/31
f 25/25/25 31/31/31 32/32/32
f 25/25/25 32/32/32 33/33/33
f 25/25/25 33/33/33 24/24/24
f 36/36/36 35/35/35 34/34/34
f 37/37/37 36/36/36 34/34/34
f 38/38/38 37/37/37 34/34/34
f 39/39/39 38/38/38 34/34/34
f 40/40/40 39/39/39 34/34/34
f 41/41/41 40/40/40 34/34/34
f 42/42/42 41/41/41 34/34/34
f 43/43/43 42/42/42 34/34/34
f 44/44/44 43/43/43 34/34/34
f 35/35/35 44/44/44 34/34/34
f 47/47/47 46/46/46 45/45/45
f 48/48/48 47/47/47 45/45/45
f 48/48/48 45/45/45 49/49/49
f 50/50/50 48/48/48 49/49/49
f 50/50/50 49/49/49 51/51/51
f 52/52/52 50/50/50 51/51/51
f 52/52/52 51/51/51 53/53/53
f 54/54/54 52/52/52 53/53/53
f 54/54/54 53/53/53 55/55/55
f 56/56/56 54/54/54 55/55/55
f 56/56/56 55/55/55 57/57/57
f 58/58/58 56/56/56 57/57/57
f 58/58/58 57/57/57 59/59/59
f 60/60/60 58/58/58 59/59/59
f 60/60/60 59/59/59 61/61/61
f 62/62/62 60/60/60 61/61/61
f 62/62/62 61/61/61 63/63/63
f 64/64/64 62/62/62 63/63/63
f 64/64/64 63/63/63 65/65/65
f 66/66/66 64/64/64 65/65/65
f 69/69/69 68/68/68 67/67/67
f 70/70/70 69/69/69 67/67/67
f 70/70/70 67/67/67 71/71/71
f 72/72/72 70/70/70 71/71/71
f 72/72/72 71/71/71 73/73/73
f 74/74/74 72/72/72 73/73/73
f 74/74/74 73/73/73 75/75/75
f 76/76/76 74/74/74 75/75/75
f 76/76/76 75/75/75 77/77/77
f 78/78/78 76/76/76 77/77/77
f 78/78/78 77/77/77 79/79/79
f 80/80/80 78/78/78 79/79/79
f 80/80/80 79/79/79 81/81/81
f 82/82/82 80/80/80 81/81/81
f 82/82/82 81/81/81 83/83/83
f 84/84/84 82/82/82 83/83/83
f 84/84/84 83/83/83 85/85/85
f 86/86/86 84/84/84 85/85/85
f 86/86/86 85/85/85 87/87/87
f 88/88/88 86/86/86 87/87/87
f 91/91/91 90/90/90 89/89/89
f 92/92/92 91/91/91 89/89/89
f 95/95/95 94/94/94 93/93/93
f 96/96/96 95/95/95 93/93/93
f 92/92/92 89/89/89 97/97/97
f 98/98/98 92/92/92 97/97/97
f 100/100/100 99/99/99 94/94/94
f 95/95/95 100/100/100 94/94/94
f 98/98/98 97/97/97 101/101/101
f 102/102/102 98/98/98 101/101/101
f 104/104/104 103/103/103 99/99/99
f 100/100/100 104/104/104 99/99/99
f 102/102/102 101/101/101 105/105/105
f 106/106/106 102/102/102 105/105/105
f 108/108/108 107/107/107 103/103/103
f 104/104/104 108/108/108 103/103/103
f 106/106/106 105/105/105 109/109/109
f 110/110/110 106/106/106 109/109/109
f 112/112/112 111/111/111 107/107/107
f 108/108/108 112/112/112 107/107/107
f 110/110/110 109/109/109 113/113/113
f 114/114/114 110/110/110 113/113/113
f 116/116/116 115/115/115 111/111/111
f 112/112/112 116/116/116 111/111/111
f 114/114/114 113/113/113 117/117/117
f 118/118/118 114/114/114 117/117/117
f 120/120/120 119/119/119 115/115/115
f 116/116/116 120/120/120 115/115/115
f 118/118/118 117/117/117 121/121/121
f 122/122/122 118/118/118 121/121/121
f 124/124/124 123/123/123 119/119/119
f 120/120/120 124/124/124 119/119/119
f 122/122/122 121/121/121 125/125/125
f 126/126/126 122/122/122 125/125/125
f 128/128/128 127/127/127 123/123/123
f 124/124/124 128/128/128 123/123/123
f 126/126/126 125/125/125 129/129/129
f 130/130/130 126/126/126 129/129/129
f 132/132/132 131/131/131 127/127/127
f 128/128/128 132/132/132 127/127/127
f 135/135/135 134/134/134 133/133/133
f 136/136/136 135/135/135 133/133/133
f 139/139/139 138/138/138 137/137/137
f 140/140/140 139/139/139 137/137/137
f 143/143/143 142/142/142 141/141/141
f 144/144/144 143/143/143 141/141/141
f 147/147/147 146/146/146 145/145/145
f 148/148/148 147/147/147 145/145/145
