g TwoLegs_08
v 0.053512424 -0.15226944 -0.22493267
v 0.044235677 0.03495565 -0.03555788
v -0.0011173338 0.04800254 -0.049886227
v 0.008164063 -0.13921326 -0.23926103
v 0.008164063 -0.13921326 -0.23926103
v -0.0011173338 0.04800254 -0.049886227
v -0.04573208 0.03303343 -0.03509821
v -0.036455333 -0.15418236 -0.22447766
v -0.06501919 -0.0012227595 0.00014229119
v -0.055742443 -0.18843855 -0.1892325
v -0.043902755 -0.034606054 0.035178512
v -0.034686357 -0.22184043 -0.15419629
v 0.0014502555 -0.047652945 0.049506873
v 0.0106666535 -0.23487802 -0.13986793
v 0.046004668 -0.03268385 0.03472349
v 0.055281416 -0.21990429 -0.15465131
v 0.06529176 0.0015723407 -0.00052165985
v 0.074568525 -0.1856481 -0.18989646
v 0.037582234 -0.1638352 -0.21318585
v 0.053512424 -0.15226944 -0.22493267
v 0.008164063 -0.13921326 -0.23926103
v 0.008526221 -0.15509239 -0.22275974
v 0.008526221 -0.15509239 -0.22275974
v 0.008164063 -0.13921326 -0.23926103
v -0.036455333 -0.15418236 -0.22447766
v -0.019977272 -0.16507024 -0.21288869
v -0.055742443 -0.18843855 -0.1892325
v -0.03285235 -0.18795568 -0.18934858
v -0.034686357 -0.22184043 -0.15419629
v -0.018756151 -0.21025145 -0.16594312
v 0.0106666535 -0.23487802 -0.13986793
v 0.010234848 -0.21899426 -0.15636921
v 0.055281416 -0.21990429 -0.15465131
v 0.03880334 -0.20902105 -0.16624027
v 0.074568525 -0.1856481 -0.18989646
v 0.051678434 -0.18614025 -0.18978038
vt 0.46907425 0.70813835
vt 0.46907425 0.7108027
vt 0.4698009 0.7108027
vt 0.4698009 0.70813835
vt 0.46301892 0.70813835
vt 0.46301892 0.7108027
vt 0.46374556 0.7108027
vt 0.46374556 0.70813835
vt 0.4647144 0.7108027
vt 0.4647144 0.70813835
vt 0.46568325 0.7108027
vt 0.46568325 0.70813835
vt 0.4664099 0.7108027
vt 0.4664099 0.70813835
vt 0.46713653 0.7108027
vt 0.46713653 0.70813835
vt 0.4681054 0.7108027
vt 0.4681054 0.70813835
vt 0.46907425 0.7078961
vt 0.46907425 0.70813835
vt 0.4698009 0.70813835
vt 0.4698009 0.7078961
vt 0.46301892 0.7078961
vt 0.46301892 0.70813835
vt 0.46374556 0.70813835
vt 0.46374556 0.7078961
vt 0.4647144 0.70813835
vt 0.4647144 0.7078961
vt 0.46568325 0.70813835
vt 0.46568325 0.7078961
vt 0.4664099 0.70813835
vt 0.4664099 0.7078961
vt 0.46713653 0.70813835
vt 0.46713653 0.7078961
vt 0.4681054 0.70813835
vt 0.4681054 0.7078961
vn 0.7093127 0.5133679 -0.48304135
vn 0.71715033 0.5133679 -0.47132668
vn -0.027430773 0.7093103 -0.70436245
vn -0.011755347 0.7093103 -0.7047984
vn -0.011755347 0.7093103 -0.7047984
vn -0.027430773 0.7093103 -0.70436245
vn -0.7484988 0.45850408 -0.47908616
vn -0.7328234 0.46634173 -0.49547482
vn -0.9990709 -0.043098357 -0
vn -0.9993051 -0.03527081 -0.012051348
vn -0.7093103 -0.5133703 0.48304233
vn -0.71714807 -0.5133703 0.47132748
vn 0.011757672 -0.7093127 0.70479596
vn 0.027433097 -0.7093127 0.70435995
vn 0.73282576 -0.46634406 0.49546906
vn 0.7485011 -0.45850635 0.47908038
vn 0.9993074 0.035268426 0.011869004
vn 0.999071 0.043096002 -0
vn 0.011757672 -0.71715033 -0.69681937
vn 0.011757672 -0.71715033 -0.69681937
vn 0.011757672 -0.71715033 -0.69681937
vn 0.011757672 -0.71715033 -0.69681937
vn 0.011757672 -0.71715033 -0.69681937
vn 0.011757672 -0.71715033 -0.69681937
vn 0.011757672 -0.71715033 -0.69681937
vn 0.011757672 -0.71715033 -0.69681937
vn 0.011757672 -0.71715033 -0.69681937
vn 0.011757672 -0.71715033 -0.69681937
vn 0.011757672 -0.71715033 -0.69681937
vn 0.011757672 -0.71715033 -0.69681937
vn 0.011757672 -0.71715033 -0.69681937
vn 0.011757672 -0.71715033 -0.69681937
vn 0.011757672 -0.71715033 -0.69681937
vn 0.011757672 -0.71715033 -0.69681937
vn 0.011757672 -0.71715033 -0.69681937
vn 0.011757672 -0.71715033 -0.69681937
g TwoLegs_08_0
f 3/3/3 2/2/2 1/1/1
f 4/4/4 3/3/3 1/1/1
f 7/7/7 6/6/6 5/5/5
f 8/8/8 7/7/7 5/5/5
f 9/9/9 7/7/7 8/8/8
f 10/10/10 9/9/9 8/8/8
f 11/11/11 9/9/9 10/10/10
f 12/12/12 11/11/11 10/10/10
f 13/13/13 11/11/11 12/12/12
f 14/14/14 13/13/13 12/12/12
f 15/15/15 13/13/13 14/14/14
f 16/16/16 15/15/15 14/14/14
f 17/17/17 15/15/15 16/16/16
f 18/18/18 17/17/17 16/16/16
f 2/2/2 17/17/17 18/18/18
f 1/1/1 2/2/2 18/18/18
f 21/21/21 20/20/20 19/19/19
f 22/22/22 21/21/21 19/19/19
f 25/25/25 24/24/24 23/23/23
f 26/26/26 25/25/25 23/23/23
f 27/27/27 25/25/25 26/26/26
f 28/28/28 27/27/27 26/26/26
f 29/29/29 27/27/27 28/28/28
f 30/30/30 29/29/29 28/28/28
f 31/31/31 29/29/29 30/30/30
f 32/32/32 31/31/31 30/30/30
f 33/33/33 31/31/31 32/32/32
f 34/34/34 33/33/33 32/32/32
f 35/35/35 33/33/33 34/34/34
f 36/36/36 35/35/35 34/34/34
f 20/20/20 35/35/35 36/36/36
f 19/19/19 20/20/20 36/36/36
