g TwoLegs_01_CorpsePart
v -0.41961157 0.061367393 -0.22672886
v -0.39105433 -0.1216149 -0.39121532
v -0.40304172 0.009980917 -0.46848595
v -0.4213881 0.16125137 -0.4534104
v -0.43905377 0.27435142 -0.35174987
v -0.44928122 0.3060965 -0.20233896
v -0.44818544 0.24438292 -0.06222576
v -0.43618143 0.11275387 0.015044868
v -0.41785163 -0.03849998 -3.0696392E-05
v -0.40020257 -0.1515834 -0.101691216
v -0.3899585 -0.18336165 -0.25111875
v 0.18618417 -0.1308628 -0.22825631
v 0.18508837 -0.069149226 -0.36836952
v -0.39105433 -0.1216149 -0.39121532
v -0.3899585 -0.18336165 -0.25111875
v -0.40304172 0.009980917 -0.46848595
v -0.39105433 -0.1216149 -0.39121532
v 0.18508837 -0.069149226 -0.36836952
v 0.17313418 0.062479794 -0.44564015
v -0.4213881 0.16125137 -0.4534104
v 0.15475458 0.21373367 -0.43056458
v -0.43905377 0.27435142 -0.35174987
v 0.13712215 0.32683367 -0.32890406
v -0.44928122 0.3060965 -0.20233896
v 0.12686145 0.3585953 -0.17947656
v -0.44818544 0.24438292 -0.06222576
v 0.12795725 0.29686517 -0.039379954
v -0.43618143 0.11275387 0.015044868
v 0.13999447 0.16523612 0.037890673
v -0.41785163 -0.03849998 -3.0696392E-05
v 0.15829104 0.013998866 0.022831678
v -0.40020257 -0.1515834 -0.101691216
v 0.1759899 -0.099101156 -0.07884541
v 0.40768558 0.14320385 -0.1929084
v 0.37783328 0.02791226 -0.29365575
v 0.3784476 -0.0091125965 -0.20959449
v 0.37064415 0.106893 -0.3400281
v 0.3595865 0.1976453 -0.33097944
v 0.34902698 0.26550198 -0.2699798
v 0.34286723 0.2845623 -0.1803233
v 0.34353137 0.2475375 -0.09624541
v 0.3507371 0.16855675 -0.049889684
v 0.3617283 0.07778782 -0.058938354
v 0.37235427 0.009931147 -0.119937986
v 0.29513344 -0.036690265 -0.34613803
v 0.28439128 0.08110845 -0.41527316
v 0.29513344 -0.036690265 -0.34613803
v 0.28439128 0.08110845 -0.41527316
v 0.26797083 0.21643996 -0.40179148
v 0.26797083 0.21643996 -0.40179148
v 0.25216472 0.31765217 -0.31082332
v 0.25216472 0.31765217 -0.31082332
v 0.24301645 0.34606004 -0.1771189
v 0.24301645 0.34606004 -0.1771189
v 0.24399602 0.29082167 -0.05173263
v 0.24399602 0.29082167 -0.05173263
v 0.2547382 0.17305619 0.01740253
v 0.2547382 0.17305619 0.01740253
v 0.27115864 0.037708044 0.003920853
v 0.27115864 0.037708044 0.003920853
v 0.28696474 -0.06350419 -0.08704734
v 0.28696474 -0.06350419 -0.08704734
v 0.296113 -0.09191203 -0.22075173
v 0.296113 -0.09191203 -0.22075173
v 0.29513344 -0.036690265 -0.34613803
v 0.11929047 0.44157743 -0.23835099
v -0.34634227 0.3904068 -0.254788
v -0.3318478 0.31411576 -0.44474357
v 0.1357773 0.36540258 -0.42832315
v 0.1748941 -0.11429295 -0.39521667
v -0.2819224 -0.16363722 -0.41288233
v -0.2810591 -0.47383216 0.5469571
v 0.15096909 -0.4247203 0.5608538
v 0.15096909 -0.4247203 0.5608538
v -0.2810591 -0.47383216 0.5469571
v -0.29968768 -0.316485 0.5427398
v 0.13363549 -0.26725692 0.55661994
v -0.34117872 0.2679094 -0.019323468
v 0.117347896 0.31795102 -0.00217247
v 0.13363549 -0.26725692 0.55661994
v -0.29968768 -0.316485 0.5427398
v 0.16873437 0.037475586 -0.49979934
v -0.29390985 -0.013047516 -0.5165684
v 0.15561795 0.18361568 -0.51070756
v -0.30968273 0.1326111 -0.5272276
v 0.11575401 0.37290716 -0.06068167
v -0.34506387 0.32233423 -0.07736775
v 0.1357773 0.36540258 -0.42832315
v 0.15561795 0.18361568 -0.51070756
v 0.16873437 0.037475586 -0.49979934
v 0.11929047 0.44157743 -0.23835099
v -0.34117872 0.2679094 -0.019323468
v -0.29968768 -0.316485 0.5427398
v -0.2810591 -0.47383216 0.5469571
v -0.2819224 -0.16363722 -0.41288233
v -0.34506387 0.32233423 -0.07736775
v -0.29390985 -0.013047516 -0.5165684
v -0.34634227 0.3904068 -0.254788
v -0.30968273 0.1326111 -0.5272276
v -0.3318478 0.31411576 -0.44474357
v 0.13363549 -0.26725692 0.55661994
v 0.117347896 0.31795102 -0.00217247
v 0.1748941 -0.11429295 -0.39521667
v 0.15096909 -0.4247203 0.5608538
v 0.11575401 0.37290716 -0.06068167
vt 0.38375425 0.7434592
vt 0.38231254 0.7477844
vt 0.37978956 0.7459822
vt 0.3790687 0.7434592
vt 0.37978956 0.74057585
vt 0.38231254 0.7387737
vt 0.38519594 0.7387737
vt 0.3873585 0.74057585
vt 0.38843977 0.7434592
vt 0.3873585 0.7459822
vt 0.38519594 0.7477844
vt 0.4068215 0.69263923
vt 0.40393808 0.69263923
vt 0.40393808 0.681466
vt 0.4068215 0.681466
vt 0.42988876 0.681466
vt 0.43277216 0.681466
vt 0.43277216 0.69263923
vt 0.42988876 0.69263923
vt 0.42700535 0.681466
vt 0.42700535 0.69263923
vt 0.42412195 0.681466
vt 0.42412195 0.69263923
vt 0.42123854 0.681466
vt 0.42123854 0.69263923
vt 0.4183551 0.681466
vt 0.4183551 0.69263923
vt 0.4154717 0.681466
vt 0.4154717 0.69263923
vt 0.4125883 0.681466
vt 0.4125883 0.69263923
vt 0.4097049 0.681466
vt 0.4097049 0.69263923
vt 0.44394535 0.71931076
vt 0.4446662 0.7218337
vt 0.4428641 0.7218337
vt 0.44610792 0.7207524
vt 0.44646835 0.71931076
vt 0.44610792 0.71786904
vt 0.4446662 0.71678776
vt 0.4428641 0.71678776
vt 0.4417828 0.71786904
vt 0.44106194 0.71931076
vt 0.4417828 0.7207524
vt 0.43277216 0.6948018
vt 0.42988876 0.6948018
vt 0.44538707 0.7236358
vt 0.4475496 0.72219414
vt 0.42700535 0.6948018
vt 0.4486309 0.71931076
vt 0.42412195 0.6948018
vt 0.4475496 0.7164273
vt 0.42123854 0.6948018
vt 0.44538707 0.7149856
vt 0.4183551 0.6948018
vt 0.44250366 0.7149856
vt 0.4154717 0.6948018
vt 0.4399807 0.7164273
vt 0.4125883 0.6948018
vt 0.43925983 0.71931076
vt 0.4097049 0.6948018
vt 0.4399807 0.72219414
vt 0.4068215 0.6948018
vt 0.44250366 0.7236358
vt 0.40393808 0.6948018
vt 0.45115387 0.68903494
vt 0.4428641 0.68903494
vt 0.4428641 0.6850703
vt 0.45115387 0.6850703
vt 0.45115387 0.6746179
vt 0.4428641 0.6746179
vt 0.4428641 0.65515494
vt 0.45115387 0.65515494
vt 0.45115387 0.71282303
vt 0.4428641 0.71282303
vt 0.4428641 0.70993966
vt 0.45115387 0.70993966
vt 0.4428641 0.69408095
vt 0.45115387 0.69408095
vt 0.45115387 0.70993966
vt 0.4428641 0.70993966
vt 0.45115387 0.6782222
vt 0.4428641 0.6782222
vt 0.45115387 0.6811056
vt 0.4428641 0.6811056
vt 0.45115387 0.69263923
vt 0.4428641 0.69263923
vt 0.48251092 0.7113813
vt 0.48647562 0.71102095
vt 0.4889986 0.7121022
vt 0.47998795 0.7146252
vt 0.43169087 0.7200316
vt 0.44538707 0.7272401
vt 0.44646835 0.7301235
vt 0.42736578 0.7301235
vt 0.4306096 0.71931076
vt 0.42448238 0.72796094
vt 0.42700535 0.71931076
vt 0.4234011 0.725438
vt 0.42376152 0.7218337
vt 0.48827773 0.7330069
vt 0.4810692 0.71931076
vt 0.49116114 0.7149856
vt 0.49116114 0.7340882
vt 0.48034838 0.7182294
vn -0.99352384 -0.11362377 -0
vn -0.99352384 -0.11362377 -0
vn -0.99352384 -0.11362377 -0
vn -0.99352384 -0.11362377 -0
vn -0.99352384 -0.11362377 -0
vn -0.99352384 -0.11362377 -0
vn -0.99352384 -0.11362377 -0
vn -0.99352384 -0.11362377 -0
vn -0.99352384 -0.11362377 -0
vn -0.99352384 -0.11362377 -0
vn -0.99352384 -0.11362377 -0
vn 0.12925261 -0.98713595 -0.09410853
vn 0.12925261 -0.73756987 -0.66278535
vn 0.09025788 -0.73756987 -0.6692116
vn 0.09805685 -0.98713595 -0.1262835
vn 0.059062123 -0.20724201 -0.97650516
vn 0.09025788 -0.73756987 -0.6692116
vn 0.12925261 -0.73756987 -0.66278535
vn 0.09025788 -0.20724201 -0.97411716
vn -0.0033293962 0.4088742 -0.91258466
vn 0.035665333 0.4010753 -0.9153505
vn -0.057921946 0.8612127 -0.5049335
vn -0.026726186 0.8612127 -0.5075416
vn -0.096916616 0.9937946 0.05458386
vn -0.065720856 0.9937946 0.08973853
vn -0.096916616 0.74422866 0.6608562
vn -0.065720856 0.74422866 0.66468376
vn -0.057921946 0.21390074 0.97513664
vn -0.026726186 0.20610183 0.9781655
vn -0.0033293962 -0.40221548 0.915539
vn 0.035665333 -0.40221548 0.91485006
vn 0.059062123 -0.8623529 0.502851
vn 0.09805685 -0.8623529 0.4967216
vn 0.9936663 0.1123711 -0
vn 0.81555927 -0.4100144 -0.4083519
vn 0.8141824 -0.5806092 -0
vn 0.77656454 -0.051263213 -0.6279487
vn 0.7297709 0.3542816 -0.5847384
vn 0.6829773 0.6662392 -0.29944497
vn 0.65178156 0.7520276 0.098159716
vn 0.65958047 0.58045083 0.47752526
vn 0.6907762 0.22169966 0.6882423
vn 0.73756987 -0.18384516 0.64976275
vn 0.7843635 -0.49580273 0.37276477
vn 0.49580273 -0.6361836 -0.591143
vn 0.44900912 -0.14485049 -0.8817081
vn 0.49580273 -0.6361836 -0.591143
vn 0.44900912 -0.14485049 -0.8817081
vn 0.37881863 0.41667312 -0.8263655
vn 0.37881863 0.41667312 -0.8263655
vn 0.3164271 0.8378158 -0.4449028
vn 0.3164271 0.8378158 -0.4449028
vn 0.27743244 0.95479995 0.10671571
vn 0.27743244 0.95479995 0.10671571
vn 0.28523135 0.7286307 0.622688
vn 0.28523135 0.7286307 0.622688
vn 0.32422608 0.2372976 0.91573316
vn 0.32422608 0.2372976 0.91573316
vn 0.3944165 -0.32422608 0.8598332
vn 0.3944165 -0.32422608 0.8598332
vn 0.464607 -0.7453688 0.47808552
vn 0.464607 -0.7453688 0.47808552
vn 0.49580273 -0.8623529 -0.10260182
vn 0.49580273 -0.8623529 -0.10260182
vn 0.49580273 -0.6361836 -0.591143
vn -0.104715526 0.9937946 -0.037508775
vn -0.104715526 0.9937946 -0.037508775
vn -0.057921946 0.7208318 -0.6906856
vn -0.057921946 0.7208318 -0.6906856
vn 0.11365473 -0.90914655 -0.40066838
vn 0.11365473 -0.90914655 -0.40066838
vn 0.11365473 -0.9481412 -0.29683465
vn 0.11365473 -0.9481412 -0.29683465
vn -0.034525096 0.018927276 0.9992246
vn -0.034525096 0.018927276 0.9992246
vn -0.034525096 0.018927276 0.9992246
vn -0.034525096 0.018927276 0.9992246
vn -0.104715526 0.68963605 0.71654505
vn -0.104715526 0.68963605 0.71654505
vn -0.104715526 0.68183714 0.7239701
vn -0.104715526 0.68183714 0.7239701
vn 0.07466 -0.34762287 -0.9346573
vn 0.07466 -0.35542184 -0.9317195
vn 0.012268484 0.22169966 -0.9750378
vn 0.012268484 0.21390074 -0.9767783
vn -0.112514555 0.8846095 0.45255548
vn -0.112514555 0.8846095 0.45255548
vn 0.99493486 0.089117706 0.046504732
vn 0.99493486 0.089117706 0.046504732
vn 0.99493486 0.081318796 0.059092384
vn 0.99493486 0.081318796 0.059092384
vn -0.9937946 -0.10585576 -0.034158647
vn -0.9937946 -0.10585576 -0.034158647
vn -0.9937946 -0.10585576 -0.034158647
vn -0.9937946 -0.10585576 -0.034158647
vn -0.9937946 -0.10585576 -0.034158647
vn -0.9937946 -0.10585576 -0.034158647
vn -0.9937946 -0.10585576 -0.034158647
vn -0.9937946 -0.10585576 -0.034158647
vn -0.9937946 -0.10585576 -0.034158647
vn 0.99493486 0.089117706 0.046504732
vn 0.99493486 0.089117706 0.046504732
vn 0.99493486 0.089117706 0.046504732
vn 0.99493486 0.089117706 0.046504732
vn 0.99493486 0.081318796 0.059092384
g TwoLegs_01_CorpsePart_0
f 3/3/3 2/2/2 1/1/1
f 4/4/4 3/3/3 1/1/1
f 5/5/5 4/4/4 1/1/1
f 6/6/6 5/5/5 1/1/1
f 7/7/7 6/6/6 1/1/1
f 8/8/8 7/7/7 1/1/1
f 9/9/9 8/8/8 1/1/1
f 10/10/10 9/9/9 1/1/1
f 11/11/11 10/10/10 1/1/1
f 2/2/2 11/11/11 1/1/1
f 14/14/14 13/13/13 12/12/12
f 15/15/15 14/14/14 12/12/12
f 18/18/18 17/17/17 16/16/16
f 19/19/19 18/18/18 16/16/16
f 19/19/19 16/16/16 20/20/20
f 21/21/21 19/19/19 20/20/20
f 21/21/21 20/20/20 22/22/22
f 23/23/23 21/21/21 22/22/22
f 23/23/23 22/22/22 24/24/24
f 25/25/25 23/23/23 24/24/24
f 25/25/25 24/24/24 26/26/26
f 27/27/27 25/25/25 26/26/26
f 27/27/27 26/26/26 28/28/28
f 29/29/29 27/27/27 28/28/28
f 29/29/29 28/28/28 30/30/30
f 31/31/31 29/29/29 30/30/30
f 31/31/31 30/30/30 32/32/32
f 33/33/33 31/31/31 32/32/32
f 33/33/33 32/32/32 15/15/15
f 12/12/12 33/33/33 15/15/15
f 36/36/36 35/35/35 34/34/34
f 34/34/34 35/35/35 37/37/37
f 34/34/34 37/37/37 38/38/38
f 34/34/34 38/38/38 39/39/39
f 34/34/34 39/39/39 40/40/40
f 34/34/34 40/40/40 41/41/41
f 34/34/34 41/41/41 42/42/42
f 34/34/34 42/42/42 43/43/43
f 34/34/34 43/43/43 44/44/44
f 34/34/34 44/44/44 36/36/36
f 46/46/46 45/45/45 18/18/18
f 19/19/19 46/46/46 18/18/18
f 37/37/37 35/35/35 47/47/47
f 48/48/48 37/37/37 47/47/47
f 49/49/49 46/46/46 19/19/19
f 21/21/21 49/49/49 19/19/19
f 38/38/38 37/37/37 48/48/48
f 50/50/50 38/38/38 48/48/48
f 51/51/51 49/49/49 21/21/21
f 23/23/23 51/51/51 21/21/21
f 39/39/39 38/38/38 50/50/50
f 52/52/52 39/39/39 50/50/50
f 53/53/53 51/51/51 23/23/23
f 25/25/25 53/53/53 23/23/23
f 40/40/40 39/39/39 52/52/52
f 54/54/54 40/40/40 52/52/52
f 55/55/55 53/53/53 25/25/25
f 27/27/27 55/55/55 25/25/25
f 41/41/41 40/40/40 54/54/54
f 56/56/56 41/41/41 54/54/54
f 57/57/57 55/55/55 27/27/27
f 29/29/29 57/57/57 27/27/27
f 42/42/42 41/41/41 56/56/56
f 58/58/58 42/42/42 56/56/56
f 59/59/59 57/57/57 29/29/29
f 31/31/31 59/59/59 29/29/29
f 43/43/43 42/42/42 58/58/58
f 60/60/60 43/43/43 58/58/58
f 61/61/61 59/59/59 31/31/31
f 33/33/33 61/61/61 31/31/31
f 44/44/44 43/43/43 60/60/60
f 62/62/62 44/44/44 60/60/60
f 63/63/63 61/61/61 33/33/33
f 12/12/12 63/63/63 33/33/33
f 36/36/36 44/44/44 62/62/62
f 64/64/64 36/36/36 62/62/62
f 36/36/36 64/64/64 47/47/47
f 35/35/35 36/36/36 47/47/47
f 65/65/65 63/63/63 12/12/12
f 13/13/13 65/65/65 12/12/12
f 68/68/68 67/67/67 66/66/66
f 69/69/69 68/68/68 66/66/66
f 72/72/72 71/71/71 70/70/70
f 73/73/73 72/72/72 70/70/70
f 76/76/76 75/75/75 74/74/74
f 77/77/77 76/76/76 74/74/74
f 80/80/80 79/79/79 78/78/78
f 81/81/81 80/80/80 78/78/78
f 82/82/82 70/70/70 71/71/71
f 83/83/83 82/82/82 71/71/71
f 85/85/85 84/84/84 82/82/82
f 83/83/83 85/85/85 82/82/82
f 68/68/68 69/69/69 84/84/84
f 85/85/85 68/68/68 84/84/84
f 87/87/87 86/86/86 66/66/66
f 67/67/67 87/87/87 66/66/66
f 78/78/78 79/79/79 86/86/86
f 87/87/87 78/78/78 86/86/86
f 90/90/90 89/89/89 88/88/88
f 91/91/91 90/90/90 88/88/88
f 94/94/94 93/93/93 92/92/92
f 95/95/95 94/94/94 92/92/92
f 96/96/96 95/95/95 92/92/92
f 97/97/97 95/95/95 96/96/96
f 98/98/98 97/97/97 96/96/96
f 99/99/99 97/97/97 98/98/98
f 100/100/100 99/99/99 98/98/98
f 103/103/103 102/102/102 101/101/101
f 104/104/104 103/103/103 101/101/101
f 102/102/102 103/103/103 105/105/105
f 103/103/103 90/90/90 91/91/91
f 105/105/105 103/103/103 91/91/91
