g UnitaserTurret_10
v 0.18866317 0.92141736 0.37494233
v -0.18867156 0.92141736 0.37494233
v -0.19522443 0.93533206 0.2874699
v 0.1951958 0.93533206 0.2874699
v 0.3332303 0.8749002 0.2874699
v 0.3219853 0.8630283 0.37494233
v 0.39010254 0.72883654 0.28904745
v 0.37721932 0.722041 0.37494233
v 0.37721932 0.32318696 0.37494233
v 0.3857542 0.31869707 0.323733
v 0.3294078 0.17435238 0.32288358
v 0.3219853 0.18219963 0.37494233
v 0.1930115 0.11460826 0.32290378
v 0.18866317 0.12381056 0.37494233
v -0.1930199 0.11460826 0.32290378
v -0.18867156 0.12381056 0.37494233
v 0.16154167 0.8641406 0.42427066
v -0.16157028 0.8641406 0.42427066
v -0.16157028 0.18106702 0.42427066
v 0.16154167 0.18106702 0.42427066
v 0.32307744 0.35182533 0.42427066
v 0.32307744 0.6933824 0.42427066
v 0.27575132 0.8141246 0.42427066
v 0.27575132 0.23108307 0.42427066
v 0.12916172 0.767385 0.42427066
v -0.12917009 0.767385 0.42427066
v -0.12917009 0.27782264 0.42427066
v 0.12916172 0.27782264 0.42427066
v 0.25825685 0.40020314 0.42427066
v 0.25825685 0.6450248 0.42427066
v 0.22047684 0.7315669 0.42427066
v 0.22047684 0.31368127 0.42427066
v 0.11822006 0.7466748 0.36954227
v -0.118228465 0.7466748 0.36954227
v -0.12917009 0.767385 0.42427066
v 0.12916172 0.767385 0.42427066
v 0.12916172 0.27782264 0.42427066
v -0.12917009 0.27782264 0.42427066
v -0.118228465 0.29857334 0.36954227
v 0.11822006 0.29857334 0.36954227
v 0.25825685 0.40020314 0.42427066
v 0.23643424 0.41057846 0.36954227
v 0.23643424 0.6346494 0.36954227
v 0.25825685 0.6450248 0.42427066
v 0.22047684 0.7315669 0.42427066
v 0.2017891 0.71387017 0.36954227
v 0.22047684 0.31368127 0.42427066
v 0.2017891 0.331378 0.36954227
v 0.11231443 0.7355107 0.5280645
v -0.11234304 0.7355107 0.5280645
v -0.118228465 0.7466748 0.36954227
v 0.11822006 0.7466748 0.36954227
v 0.11822006 0.29857334 0.36954227
v -0.118228465 0.29857334 0.36954227
v -0.11234304 0.309697 0.5280645
v 0.11231443 0.309697 0.5280645
v 0.23643424 0.41057846 0.36954227
v 0.22464316 0.4161403 0.5280645
v 0.22464316 0.6290674 0.5280645
v 0.23643424 0.6346494 0.36954227
v 0.2017891 0.71387017 0.36954227
v 0.19173735 0.704324 0.5280645
v 0.2017891 0.331378 0.36954227
v 0.19173735 0.3408837 0.5280645
v 0.08228055 0.67863846 0.56732094
v -0.08232939 0.67863846 0.56732094
v -0.08232939 0.36656925 0.56732094
v 0.08228055 0.36656925 0.56732094
v 0.16461584 0.44459662 0.56732094
v 0.16461584 0.6006515 0.56732094
v 0.14052807 0.65580463 0.56732094
v 0.14052807 0.38942328 0.56732094
v 0.16461584 0.6006515 0.56732094
v -0.16468492 0.6006515 0.56732094
v -0.14055672 0.65580463 0.56732094
v 0.14052807 0.65580463 0.56732094
v 0.14052807 0.38942328 0.56732094
v -0.14055672 0.38942328 0.56732094
v -0.16468492 0.44459662 0.56732094
v 0.16461584 0.44459662 0.56732094
v 0.08228055 0.36656925 0.56732094
v -0.08232939 0.36656925 0.56732094
v -0.08232939 0.67863846 0.56732094
v 0.08228055 0.67863846 0.56732094
v -0.32201394 0.8630283 0.37494233
v -0.33325896 0.8749002 0.2874699
v -0.37724796 0.722041 0.37494233
v -0.39011094 0.72883654 0.28904745
v -0.37724796 0.32318696 0.37494233
v -0.38572213 0.31869707 0.323733
v -0.32201394 0.18219963 0.37494233
v -0.32943645 0.17435238 0.32288358
v -0.18867156 0.12381056 0.37494233
v -0.1930199 0.11460826 0.32290378
v -0.32310608 0.6933824 0.42427066
v -0.32310608 0.35182533 0.42427066
v -0.27577993 0.8141246 0.42427066
v -0.27577993 0.23108307 0.42427066
v -0.16157028 0.18106702 0.42427066
v -0.25828543 0.6450248 0.42427066
v -0.25828543 0.40020314 0.42427066
v -0.22050545 0.7315669 0.42427066
v -0.22050545 0.31368127 0.42427066
v -0.12917009 0.27782264 0.42427066
v -0.25828543 0.40020314 0.42427066
v -0.25828543 0.6450248 0.42427066
v -0.23644266 0.6346494 0.36954227
v -0.23644266 0.41057846 0.36954227
v -0.22050545 0.7315669 0.42427066
v -0.20181772 0.71387017 0.36954227
v -0.22050545 0.31368127 0.42427066
v -0.20181772 0.331378 0.36954227
v -0.12917009 0.27782264 0.42427066
v -0.118228465 0.29857334 0.36954227
v -0.23644266 0.41057846 0.36954227
v -0.23644266 0.6346494 0.36954227
v -0.22467181 0.6290674 0.5280645
v -0.22467181 0.4161403 0.5280645
v -0.20181772 0.71387017 0.36954227
v -0.19174573 0.704324 0.5280645
v -0.20181772 0.331378 0.36954227
v -0.19174573 0.3408837 0.5280645
v -0.16468492 0.6006515 0.56732094
v -0.16468492 0.44459662 0.56732094
v -0.14055672 0.65580463 0.56732094
v -0.14055672 0.38942328 0.56732094
vt 0.4584241 0.688316
vt 0.4584241 0.6976739
vt 0.46029568 0.69736195
vt 0.46029568 0.688316
vt 0.46029568 0.6848848
vt 0.4584241 0.6848848
vt 0.46029568 0.6811416
vt 0.45811218 0.6811416
vt 0.45873603 0.67147183
vt 0.46029568 0.67147183
vt 0.46029568 0.66772866
vt 0.45904794 0.66804063
vt 0.46029568 0.66429746
vt 0.45904794 0.66460943
vt 0.46029568 0.6552515
vt 0.45904794 0.6552515
vt 0.4565525 0.688316
vt 0.4565525 0.6976739
vt 0.4571764 0.6552515
vt 0.4571764 0.66460943
vt 0.45686445 0.6717838
vt 0.4565525 0.6811416
vt 0.4565525 0.6848848
vt 0.45686445 0.66804063
vt 0.454369 0.688316
vt 0.454369 0.6979858
vt 0.45468095 0.6552515
vt 0.45468095 0.6649213
vt 0.45468095 0.67209566
vt 0.45468095 0.6811416
vt 0.454369 0.6845729
vt 0.45468095 0.66835254
vt 0.4531213 0.688316
vt 0.4531213 0.6979858
vt 0.454369 0.6979858
vt 0.454369 0.688316
vt 0.45468095 0.6649213
vt 0.45468095 0.6552515
vt 0.4531213 0.6552515
vt 0.4531213 0.6649213
vt 0.45468095 0.67209566
vt 0.4531213 0.67209566
vt 0.4531213 0.6811416
vt 0.45468095 0.6811416
vt 0.454369 0.6845729
vt 0.4531213 0.6845729
vt 0.45468095 0.66835254
vt 0.4531213 0.66866446
vt 0.41475397 0.71108687
vt 0.40913925 0.71108687
vt 0.40789154 0.71514195
vt 0.4160017 0.71514195
vt 0.4160017 0.69705003
vt 0.40789154 0.69705003
vt 0.40913925 0.7011051
vt 0.41475397 0.7011051
vt 0.42161644 0.7023529
vt 0.4178733 0.7032886
vt 0.4178733 0.7089033
vt 0.42161644 0.7098391
vt 0.41943294 0.71327037
vt 0.41662556 0.710463
vt 0.41943294 0.6989216
vt 0.41662556 0.70172894
vt 0.41413012 0.70952725
vt 0.40976313 0.70952725
vt 0.40976313 0.70266473
vt 0.41413012 0.70266473
vt 0.41631365 0.7042244
vt 0.41631365 0.7079676
vt 0.41568977 0.7092153
vt 0.41568977 0.7032886
vt 0.41631365 0.7079676
vt 0.4075796 0.7079676
vt 0.40820348 0.7092153
vt 0.41568977 0.7092153
vt 0.41568977 0.7032886
vt 0.40820348 0.7032886
vt 0.4075796 0.7042244
vt 0.41631365 0.7042244
vt 0.41413012 0.70266473
vt 0.40976313 0.70266473
vt 0.40976313 0.70952725
vt 0.41413012 0.70952725
vt 0.4584241 0.7011051
vt 0.46029568 0.7011051
vt 0.45811218 0.7048483
vt 0.46029568 0.7045363
vt 0.45873603 0.71420616
vt 0.46029568 0.71420616
vt 0.45904794 0.7179493
vt 0.46029568 0.7179493
vt 0.45904794 0.72138053
vt 0.46029568 0.72138053
vt 0.4565525 0.7048483
vt 0.45686445 0.71420616
vt 0.4565525 0.7014171
vt 0.45686445 0.7179493
vt 0.4571764 0.72138053
vt 0.45468095 0.7051602
vt 0.45468095 0.71420616
vt 0.454369 0.7014171
vt 0.45468095 0.7176374
vt 0.45468095 0.72138053
vt 0.45468095 0.71420616
vt 0.45468095 0.7051602
vt 0.4531213 0.7051602
vt 0.4531213 0.71420616
vt 0.454369 0.7014171
vt 0.4531213 0.70172894
vt 0.45468095 0.7176374
vt 0.4531213 0.7176374
vt 0.45468095 0.72138053
vt 0.4531213 0.72138053
vt 0.4022768 0.7023529
vt 0.4022768 0.7098391
vt 0.40601996 0.7089033
vt 0.40601996 0.7032886
vt 0.4044603 0.71327037
vt 0.40695575 0.710463
vt 0.4044603 0.6989216
vt 0.40695575 0.70172894
vt 0.4075796 0.7079676
vt 0.4075796 0.7042244
vt 0.40820348 0.7092153
vt 0.40820348 0.7032886
vn 0.105024874 0.8985 0.4262247
vn -0.10501522 0.8985 0.4262271
vn -0.11279446 0.97629255 0.18474364
vn 0.112804174 0.97629255 0.18473785
vn 0.71180737 0.6806806 0.1732172
vn 0.64179397 0.6106673 0.46388143
vn 0.97630227 0.12835294 0.17423947
vn 0.8907304 0.10501522 0.44223434
vn 0.88295114 -0.08168709 0.4623035
vn 0.98408157 -0.08168709 0.15783127
vn 0.71180737 -0.67291105 0.2012982
vn 0.60289764 -0.5717806 0.55640036
vn 0.112804174 -0.97630227 0.18468653
vn 0.105024874 -0.8440548 0.52587193
vn -0.11279446 -0.97630227 0.18469234
vn -0.10501522 -0.8440548 0.52587384
vn 0.03501153 0.37728935 0.92543334
vn -0.035001814 0.37728935 0.92543375
vn -0.035001814 -0.37729907 0.92542976
vn 0.03501153 -0.37729907 0.9254294
vn 0.46287096 -0.03501153 0.88573396
vn 0.46287096 0.035001814 0.8857344
vn 0.28394794 0.2606005 0.9227464
vn 0.28394794 -0.26061016 0.9227437
vn -0.0038847923 0.0038847923 0.9999849
vn -0.0038847923 0.0038847923 0.9999849
vn -0.0038847923 0.0038847923 0.9999849
vn -0.0038847923 0.0038847923 0.9999849
vn -0.0038847923 0.0038847923 0.9999849
vn -0.0038847923 0.0038847923 0.9999849
vn -0.0038847923 0.0038847923 0.9999849
vn -0.0038847923 0.0038847923 0.9999849
vn -0.08167738 -0.9296267 0.35933694
vn 0.08168709 -0.9296267 0.3593347
vn 0.105024874 -0.92184746 0.37305102
vn -0.10501522 -0.92184746 0.37305376
vn -0.10501522 0.92183775 0.37307772
vn 0.105024874 0.92183775 0.373075
vn 0.08168709 0.929617 0.35935983
vn -0.08167738 0.929617 0.35936207
vn -0.9140585 0.11279446 0.38958237
vn -0.92183775 0.09723598 0.3751804
vn -0.92183775 -0.09724563 0.3751779
vn -0.9140585 -0.112804174 0.38957956
vn -0.62622577 -0.6573525 0.41920036
vn -0.6184465 -0.6573525 0.43059447
vn -0.62622577 0.65734285 0.4192155
vn -0.6184465 0.65734285 0.43060923
vn 0.09724563 0.9529548 0.28708956
vn -0.09723598 0.9529548 0.28709278
vn -0.10501522 0.99185115 0.07213271
vn 0.105024874 0.99185115 0.07211866
vn 0.105024874 -0.9918608 0.071985886
vn -0.10501522 -0.9918608 0.07199997
vn -0.09723598 -0.9529645 0.28706068
vn 0.09724563 -0.9529645 0.28705746
vn 0.9918608 -0.112804174 0.059054077
vn 0.9529645 -0.112804174 0.2813075
vn 0.9529645 0.11279446 0.2813114
vn 0.9918608 0.11279446 0.05907263
vn 0.6884695 0.7195769 0.090657406
vn 0.6573525 0.68845993 0.3064483
vn 0.6884695 -0.7195866 0.09058045
vn 0.6573525 -0.6884695 0.3064268
vn 0.04279077 0.5484331 0.83509886
vn -0.042781055 0.5484331 0.83509934
vn -0.042781055 -0.54844284 0.83509296
vn 0.04279077 -0.54844284 0.8350925
vn 0.53288436 -0.05057007 0.84467566
vn 0.53288436 0.050560415 0.8446762
vn 0.3306235 0.35395163 0.87487507
vn 0.3306235 -0.3539613 0.87487113
vn -0.0038847923 0.0038847923 0.9999849
vn -0.0038847923 0.0038847923 0.9999849
vn -0.0038847923 0.0038847923 0.9999849
vn -0.0038847923 0.0038847923 0.9999849
vn -0.0038847923 0.0038847923 0.9999849
vn -0.0038847923 0.0038847923 0.9999849
vn -0.0038847923 0.0038847923 0.9999849
vn -0.0038847923 0.0038847923 0.9999849
vn -0.0038847923 0.0038847923 0.9999849
vn -0.0038847923 0.0038847923 0.9999849
vn -0.0038847923 0.0038847923 0.9999849
vn -0.0038847923 0.0038847923 0.9999849
vn -0.64178437 0.6106673 0.46389472
vn -0.71179765 0.6806806 0.17325729
vn -0.89072067 0.10501522 0.4422539
vn -0.97629255 0.12835294 0.17429386
vn -0.8829414 -0.08168709 0.46232206
vn -0.9840719 -0.08168709 0.15789148
vn -0.60288805 -0.5717806 0.55641073
vn -0.71179765 -0.67291105 0.20133269
vn -0.10501522 -0.8440548 0.52587384
vn -0.11279446 -0.97630227 0.18469234
vn -0.46286124 0.035001814 0.88573945
vn -0.46286124 -0.03501153 0.885739
vn -0.28393823 0.2606005 0.9227494
vn -0.28393823 -0.26061016 0.9227467
vn -0.035001814 -0.37729907 0.92542976
vn -0.0038847923 0.0038847923 0.9999849
vn -0.0038847923 0.0038847923 0.9999849
vn -0.0038847923 0.0038847923 0.9999849
vn -0.0038847923 0.0038847923 0.9999849
vn -0.0038847923 0.0038847923 0.9999849
vn 0.91406816 0.11279446 0.38955972
vn 0.91406816 -0.112804174 0.3895569
vn 0.92184746 -0.09724563 0.37515405
vn 0.92184746 0.09723598 0.37515655
vn 0.6262355 -0.6573525 0.41918588
vn 0.61845624 -0.6573525 0.4305805
vn 0.6262355 0.65734285 0.41920102
vn 0.61845624 0.65734285 0.43059525
vn 0.105024874 0.92183775 0.373075
vn 0.08168709 0.929617 0.35935983
vn -0.99185115 -0.112804174 0.05921585
vn -0.99185115 0.11279446 0.05923435
vn -0.9529548 0.11279446 0.28134412
vn -0.9529548 -0.112804174 0.28134024
vn -0.68845993 0.7195769 0.090730354
vn -0.65734285 0.68845993 0.30646914
vn -0.68845993 -0.7195866 0.090653464
vn -0.65734285 -0.6884695 0.3064476
vn -0.53287464 0.050560415 0.84468234
vn -0.53287464 -0.05057007 0.84468174
vn -0.3306138 0.35395163 0.8748787
vn -0.3306138 -0.3539613 0.8748748
g UnitaserTurret_10_0
f 3/3/3 2/2/2 1/1/1
f 4/4/4 3/3/3 1/1/1
f 5/5/5 4/4/4 1/1/1
f 6/6/6 5/5/5 1/1/1
f 7/7/7 5/5/5 6/6/6
f 8/8/8 7/7/7 6/6/6
f 7/7/7 8/8/8 9/9/9
f 10/10/10 7/7/7 9/9/9
f 11/11/11 10/10/10 9/9/9
f 12/12/12 11/11/11 9/9/9
f 13/13/13 11/11/11 12/12/12
f 14/14/14 13/13/13 12/12/12
f 16/16/16 15/15/15 13/13/13
f 14/14/14 16/16/16 13/13/13
f 2/2/2 18/18/18 17/17/17
f 1/1/1 2/2/2 17/17/17
f 19/19/19 16/16/16 14/14/14
f 20/20/20 19/19/19 14/14/14
f 22/22/22 21/21/21 9/9/9
f 8/8/8 22/22/22 9/9/9
f 17/17/17 23/23/23 6/6/6
f 1/1/1 17/17/17 6/6/6
f 23/23/23 22/22/22 8/8/8
f 6/6/6 23/23/23 8/8/8
f 21/21/21 24/24/24 12/12/12
f 9/9/9 21/21/21 12/12/12
f 24/24/24 20/20/20 14/14/14
f 12/12/12 24/24/24 14/14/14
f 18/18/18 26/26/26 25/25/25
f 17/17/17 18/18/18 25/25/25
f 27/27/27 19/19/19 20/20/20
f 28/28/28 27/27/27 20/20/20
f 30/30/30 29/29/29 21/21/21
f 22/22/22 30/30/30 21/21/21
f 25/25/25 31/31/31 23/23/23
f 17/17/17 25/25/25 23/23/23
f 31/31/31 30/30/30 22/22/22
f 23/23/23 31/31/31 22/22/22
f 29/29/29 32/32/32 24/24/24
f 21/21/21 29/29/29 24/24/24
f 32/32/32 28/28/28 20/20/20
f 24/24/24 32/32/32 20/20/20
f 35/35/35 34/34/34 33/33/33
f 36/36/36 35/35/35 33/33/33
f 39/39/39 38/38/38 37/37/37
f 40/40/40 39/39/39 37/37/37
f 43/43/43 42/42/42 41/41/41
f 44/44/44 43/43/43 41/41/41
f 33/33/33 46/46/46 45/45/45
f 36/36/36 33/33/33 45/45/45
f 46/46/46 43/43/43 44/44/44
f 45/45/45 46/46/46 44/44/44
f 42/42/42 48/48/48 47/47/47
f 41/41/41 42/42/42 47/47/47
f 48/48/48 40/40/40 37/37/37
f 47/47/47 48/48/48 37/37/37
f 51/51/51 50/50/50 49/49/49
f 52/52/52 51/51/51 49/49/49
f 55/55/55 54/54/54 53/53/53
f 56/56/56 55/55/55 53/53/53
f 59/59/59 58/58/58 57/57/57
f 60/60/60 59/59/59 57/57/57
f 49/49/49 62/62/62 61/61/61
f 52/52/52 49/49/49 61/61/61
f 62/62/62 59/59/59 60/60/60
f 61/61/61 62/62/62 60/60/60
f 58/58/58 64/64/64 63/63/63
f 57/57/57 58/58/58 63/63/63
f 64/64/64 56/56/56 53/53/53
f 63/63/63 64/64/64 53/53/53
f 50/50/50 66/66/66 65/65/65
f 49/49/49 50/50/50 65/65/65
f 67/67/67 55/55/55 56/56/56
f 68/68/68 67/67/67 56/56/56
f 70/70/70 69/69/69 58/58/58
f 59/59/59 70/70/70 58/58/58
f 65/65/65 71/71/71 62/62/62
f 49/49/49 65/65/65 62/62/62
f 71/71/71 70/70/70 59/59/59
f 62/62/62 71/71/71 59/59/59
f 69/69/69 72/72/72 64/64/64
f 58/58/58 69/69/69 64/64/64
f 72/72/72 68/68/68 56/56/56
f 64/64/64 72/72/72 56/56/56
f 75/75/75 74/74/74 73/73/73
f 76/76/76 75/75/75 73/73/73
f 79/79/79 78/78/78 77/77/77
f 80/80/80 79/79/79 77/77/77
f 74/74/74 79/79/79 80/80/80
f 73/73/73 74/74/74 80/80/80
f 78/78/78 82/82/82 81/81/81
f 77/77/77 78/78/78 81/81/81
f 83/83/83 75/75/75 76/76/76
f 84/84/84 83/83/83 76/76/76
f 86/86/86 85/85/85 2/2/2
f 3/3/3 86/86/86 2/2/2
f 88/88/88 87/87/87 85/85/85
f 86/86/86 88/88/88 85/85/85
f 88/88/88 90/90/90 89/89/89
f 87/87/87 88/88/88 89/89/89
f 92/92/92 91/91/91 89/89/89
f 90/90/90 92/92/92 89/89/89
f 94/94/94 93/93/93 91/91/91
f 92/92/92 94/94/94 91/91/91
f 95/95/95 87/87/87 89/89/89
f 96/96/96 95/95/95 89/89/89
f 18/18/18 2/2/2 85/85/85
f 97/97/97 18/18/18 85/85/85
f 97/97/97 85/85/85 87/87/87
f 95/95/95 97/97/97 87/87/87
f 96/96/96 89/89/89 91/91/91
f 98/98/98 96/96/96 91/91/91
f 98/98/98 91/91/91 93/93/93
f 99/99/99 98/98/98 93/93/93
f 100/100/100 95/95/95 96/96/96
f 101/101/101 100/100/100 96/96/96
f 26/26/26 18/18/18 97/97/97
f 102/102/102 26/26/26 97/97/97
f 102/102/102 97/97/97 95/95/95
f 100/100/100 102/102/102 95/95/95
f 101/101/101 96/96/96 98/98/98
f 103/103/103 101/101/101 98/98/98
f 103/103/103 98/98/98 99/99/99
f 104/104/104 103/103/103 99/99/99
f 107/107/107 106/106/106 105/105/105
f 108/108/108 107/107/107 105/105/105
f 34/34/34 35/35/35 109/109/109
f 110/110/110 34/34/34 109/109/109
f 110/110/110 109/109/109 106/106/106
f 107/107/107 110/110/110 106/106/106
f 108/108/108 105/105/105 111/111/111
f 112/112/112 108/108/108 111/111/111
f 112/112/112 111/111/111 113/113/113
f 114/114/114 112/112/112 113/113/113
f 117/117/117 116/116/116 115/115/115
f 118/118/118 117/117/117 115/115/115
f 50/50/50 51/51/51 119/119/119
f 120/120/120 50/50/50 119/119/119
f 120/120/120 119/119/119 116/116/116
f 117/117/117 120/120/120 116/116/116
f 118/118/118 115/115/115 121/121/121
f 122/122/122 118/118/118 121/121/121
f 122/122/122 121/121/121 54/54/54
f 55/55/55 122/122/122 54/54/54
f 123/123/123 117/117/117 118/118/118
f 124/124/124 123/123/123 118/118/118
f 66/66/66 50/50/50 120/120/120
f 125/125/125 66/66/66 120/120/120
f 125/125/125 120/120/120 117/117/117
f 123/123/123 125/125/125 117/117/117
f 124/124/124 118/118/118 122/122/122
f 126/126/126 124/124/124 122/122/122
f 126/126/126 122/122/122 55/55/55
f 67/67/67 126/126/126 55/55/55
