g UnitaserTurret_03
v 0.17038809 -0.015641212 0.00043092668
v 0.12244728 0.04255332 -0.09177453
v 0.029155105 -0.017689869 -0.08130243
v 0.07709591 -0.07591559 0.010903031
v 0.14759281 0.10105462 0.08129074
v 0.17038809 -0.015641212 0.00043092668
v 0.07709591 -0.07591559 0.010903031
v 0.029030308 0.012644902 0.09178884
v 0.09964681 0.15925433 -0.010930315
v -0.018910483 0.07084462 -0.00039581954
v 0.029794663 -0.013478145 -0.051264033
v -0.13826855 -0.122026116 -0.032384083
v -0.10759579 -0.15926082 0.026595578
v 0.060462214 -0.050707668 0.007731229
v 0.060462214 -0.050707668 0.007731229
v -0.10759579 -0.15926082 0.026595578
v -0.13970365 -0.10011477 0.080619976
v 0.028359562 0.00840719 0.06179723
v -0.17037119 -0.062885255 0.021645501
v -0.0023131967 0.0456679 0.002765566
v 0.029155105 -0.017689869 -0.08130243
v 0.029794663 -0.013478145 -0.051264033
v 0.060462214 -0.050707668 0.007731229
v 0.07709591 -0.07591559 0.010903031
v 0.07709591 -0.07591559 0.010903031
v 0.060462214 -0.050707668 0.007731229
v 0.028359562 0.00840719 0.06179723
v 0.029030308 0.012644902 0.09178884
v -0.0023131967 0.0456679 0.002765566
v -0.018910483 0.07084462 -0.00039581954
vt 0.4338458 0.7448315
vt 0.4338458 0.7420956
vt 0.43627775 0.7420956
vt 0.43627775 0.7448315
vt 0.4338458 0.7360157
vt 0.4338458 0.73267174
vt 0.43627775 0.73267174
vt 0.4368857 0.7360157
vt 0.4338458 0.73875165
vt 0.4368857 0.73875165
vt 0.43718973 0.7420956
vt 0.44174963 0.7420956
vt 0.44174963 0.7448315
vt 0.43718973 0.7448315
vt 0.43718973 0.73267174
vt 0.44174963 0.73267174
vt 0.44174963 0.7360157
vt 0.4374937 0.7360157
vt 0.44174963 0.73875165
vt 0.4374937 0.73875165
vt 0.43627775 0.7420956
vt 0.43718973 0.7420956
vt 0.43718973 0.7448315
vt 0.43627775 0.7448315
vt 0.43627775 0.73267174
vt 0.43718973 0.73267174
vt 0.4374937 0.7360157
vt 0.4368857 0.7360157
vt 0.4374937 0.73875165
vt 0.4368857 0.73875165
vn 0.5470369 -0.7744083 0.31787175
vn -0.13507724 0.018143356 -0.99066895
vn -0.09609926 -0.040323555 -0.99455464
vn 0.5535332 -0.7938973 0.25165084
vn -0.08960295 0.22602576 0.9699916
vn 0.5470369 -0.7744083 0.31787175
vn 0.5535332 -0.7938973 0.25165084
vn 0.0013455749 0.10909194 0.9940308
vn -0.58981997 0.8041987 0.073326774
vn -0.5963163 0.7977024 -0.08987691
vn -0.057121336 -0.08579785 -0.9946738
vn -0.057121336 -0.08579785 -0.9946738
vn 0.5470369 -0.8198826 0.16894743
vn 0.5470369 -0.8198826 0.16894743
vn 0.5470369 -0.8198826 0.16894743
vn 0.5470369 -0.8198826 0.16894743
vn 0.053316176 0.08960295 0.9945495
vn 0.053316176 0.08960295 0.9945495
vn -0.550842 0.8171914 -0.16962117
vn -0.550842 0.8171914 -0.16962117
vn -0.83668035 -0.5405406 0.08821487
vn -0.83668035 -0.5405406 0.08821487
vn -0.83668035 -0.5405406 0.08821487
vn -0.83668035 -0.5405406 0.08821487
vn -0.83668035 -0.5405406 0.08821487
vn -0.83668035 -0.5405406 0.08821487
vn -0.83668035 -0.5405406 0.08821487
vn -0.83668035 -0.5405406 0.08821487
vn -0.83668035 -0.5405406 0.08821487
vn -0.83668035 -0.5405406 0.08821487
g UnitaserTurret_03_0
f 3/3/3 2/2/2 1/1/1
f 4/4/4 3/3/3 1/1/1
f 7/7/7 6/6/6 5/5/5
f 8/8/8 7/7/7 5/5/5
f 8/8/8 5/5/5 9/9/9
f 10/10/10 8/8/8 9/9/9
f 10/10/10 9/9/9 2/2/2
f 3/3/3 10/10/10 2/2/2
f 13/13/13 12/12/12 11/11/11
f 14/14/14 13/13/13 11/11/11
f 17/17/17 16/16/16 15/15/15
f 18/18/18 17/17/17 15/15/15
f 19/19/19 17/17/17 18/18/18
f 20/20/20 19/19/19 18/18/18
f 12/12/12 19/19/19 20/20/20
f 11/11/11 12/12/12 20/20/20
f 23/23/23 22/22/22 21/21/21
f 24/24/24 23/23/23 21/21/21
f 27/27/27 26/26/26 25/25/25
f 28/28/28 27/27/27 25/25/25
f 29/29/29 27/27/27 28/28/28
f 30/30/30 29/29/29 28/28/28
f 22/22/22 29/29/29 30/30/30
f 21/21/21 22/22/22 30/30/30
