g UnitaserTurret_05
v -0.17041755 -0.015643775 0.0004260391
v -0.07709305 -0.07591335 0.010905206
v -0.029180065 -0.017687604 -0.08130115
v -0.122442156 0.042555973 -0.09177513
v -0.14759219 0.10105735 0.08128992
v -0.028998047 0.012647405 0.0917899
v -0.07709305 -0.07591335 0.010905206
v -0.17041755 -0.015643775 0.0004260391
v -0.099616796 0.1592519 -0.010932043
v 0.018914938 0.07084195 -0.00039565563
v -0.02979374 -0.013475135 -0.051262572
v -0.060492784 -0.05070611 0.007727653
v 0.10759531 -0.15925792 0.026595369
v 0.13829955 -0.12202693 -0.032384455
v -0.060492784 -0.05070611 0.007727653
v -0.028327167 0.008403733 0.061792925
v 0.13970372 -0.100116864 0.08061904
v 0.10759531 -0.15925792 0.026595369
v 0.0023094714 0.04566592 0.0027662963
v 0.17040277 -0.06288588 0.021644413
v -0.029180065 -0.017687604 -0.08130115
v -0.07709305 -0.07591335 0.010905206
v -0.060492784 -0.05070611 0.007727653
v -0.02979374 -0.013475135 -0.051262572
v -0.07709305 -0.07591335 0.010905206
v -0.028998047 0.012647405 0.0917899
v -0.028327167 0.008403733 0.061792925
v -0.060492784 -0.05070611 0.007727653
v 0.018914938 0.07084195 -0.00039565563
v 0.0023094714 0.04566592 0.0027662963
vt 0.4338458 0.7448315
vt 0.43627775 0.7448315
vt 0.43627775 0.7420956
vt 0.4338458 0.7420956
vt 0.4338458 0.7360157
vt 0.4368857 0.7360157
vt 0.43627775 0.73267174
vt 0.4338458 0.73267174
vt 0.4338458 0.73875165
vt 0.4368857 0.73875165
vt 0.43718973 0.7420956
vt 0.43718973 0.7448315
vt 0.44174963 0.7448315
vt 0.44174963 0.7420956
vt 0.43718973 0.73267174
vt 0.4374937 0.7360157
vt 0.44174963 0.7360157
vt 0.44174963 0.73267174
vt 0.4374937 0.73875165
vt 0.44174963 0.73875165
vt 0.43627775 0.7420956
vt 0.43627775 0.7448315
vt 0.43718973 0.7448315
vt 0.43718973 0.7420956
vt 0.43627775 0.73267174
vt 0.4368857 0.7360157
vt 0.4374937 0.7360157
vt 0.43718973 0.73267174
vt 0.4368857 0.73875165
vt 0.4374937 0.73875165
vn -0.54692036 -0.77836496 0.3082631
vn -0.5534168 -0.7978544 0.23907775
vn 0.09623283 -0.04426086 -0.9943743
vn 0.13521183 0.014207602 -0.99071485
vn 0.08973634 0.22209555 0.9708867
vn -0.0012146235 0.10515857 0.99445474
vn -0.5534168 -0.7978544 0.23907775
vn -0.54692036 -0.77836496 0.3082631
vn 0.58996654 0.80678016 0.032330893
vn 0.5964631 0.7937872 -0.118885204
vn 0.057253838 -0.08973634 -0.99431854
vn -0.54692036 -0.81734395 0.18118228
vn -0.54692036 -0.81734395 0.18118228
vn 0.057253838 -0.08973634 -0.99431854
vn -0.54692036 -0.81734395 0.18118228
vn -0.053186595 0.0856691 0.994903
vn -0.053186595 0.0856691 0.994903
vn -0.54692036 -0.81734395 0.18118228
vn 0.5509876 0.81977314 -0.15615594
vn 0.5509876 0.81977314 -0.15615594
vn 0.8368334 -0.5379946 0.10134909
vn 0.8368334 -0.5379946 0.10134909
vn 0.8368334 -0.5379946 0.10134909
vn 0.8368334 -0.5379946 0.10134909
vn 0.8368334 -0.5379946 0.10134909
vn 0.8368334 -0.5379946 0.10134909
vn 0.8368334 -0.5379946 0.10134909
vn 0.8368334 -0.5379946 0.10134909
vn 0.8368334 -0.5379946 0.10134909
vn 0.8368334 -0.5379946 0.10134909
g UnitaserTurret_05_0
f 3/3/3 2/2/2 1/1/1
f 4/4/4 3/3/3 1/1/1
f 7/7/7 6/6/6 5/5/5
f 8/8/8 7/7/7 5/5/5
f 6/6/6 10/10/10 9/9/9
f 5/5/5 6/6/6 9/9/9
f 10/10/10 3/3/3 4/4/4
f 9/9/9 10/10/10 4/4/4
f 13/13/13 12/12/12 11/11/11
f 14/14/14 13/13/13 11/11/11
f 17/17/17 16/16/16 15/15/15
f 18/18/18 17/17/17 15/15/15
f 20/20/20 19/19/19 16/16/16
f 17/17/17 20/20/20 16/16/16
f 14/14/14 11/11/11 19/19/19
f 20/20/20 14/14/14 19/19/19
f 23/23/23 22/22/22 21/21/21
f 24/24/24 23/23/23 21/21/21
f 27/27/27 26/26/26 25/25/25
f 28/28/28 27/27/27 25/25/25
f 30/30/30 29/29/29 26/26/26
f 27/27/27 30/30/30 26/26/26
f 24/24/24 21/21/21 29/29/29
f 30/30/30 24/24/24 29/29/29
