g UnitaserTurret_07_CorpsePart
v -0.0313918 0.09547222 0.6340545
v 0.034822404 0.09547222 0.6340545
v 0.034822404 0.118210435 -0.26436058
v -0.0313918 0.118210435 -0.26436058
v -0.084825456 0.059575617 -0.26440504
v -0.084825456 0.29420382 -0.26440504
v -0.084825456 0.30436152 0.70393616
v -0.084825456 0.2629304 0.7283192
v -0.084825456 0.059575617 -0.26440504
v -0.084825456 0.06528795 0.6160062
v 0.08487761 0.06688827 0.6167397
v 0.08487761 0.06308746 -0.26440504
v 0.08487761 0.06308746 -0.26440504
v 0.08487761 0.06688827 0.6167397
v 0.08487761 0.2629304 0.72829694
v -0.084825456 0.30436152 0.70393616
v 0.08487761 0.30436152 0.7038917
v 0.08487761 0.2629304 0.72829694
v -0.084825456 0.2629304 0.7283192
v 0.034822404 0.09547222 0.6340545
v -0.0313918 0.09547222 0.6340545
v -0.084825456 0.2629304 0.7283192
v 0.08487761 0.2629304 0.72829694
v -0.084825456 0.29420382 -0.26440504
v 0.08487761 0.29420382 -0.26440504
v 0.08487761 0.30436152 0.7038917
v -0.084825456 0.30436152 0.70393616
v -0.084825456 0.06528795 0.6160062
v 0.08487761 0.06688827 0.6167397
v 0.08487761 0.30436152 0.7038917
v 0.08487761 0.29420382 -0.26440504
v -0.084825456 0.06528795 0.6160062
v -0.0313918 -0.07467544 0.6340545
v -0.0313918 -0.09741366 -0.26436058
v 0.034822404 -0.09741366 -0.26436058
v 0.034822404 -0.07467544 0.6340545
v -0.084825456 -0.038801074 -0.26440504
v -0.084825456 -0.24213359 0.7283192
v -0.084825456 -0.28354248 0.70393616
v -0.084825456 -0.27338475 -0.26440504
v -0.084825456 -0.038801074 -0.26440504
v -0.084825456 -0.04449117 0.6160062
v 0.08487761 -0.046091497 0.6167397
v 0.08487761 -0.042290688 -0.26440504
v 0.08487761 -0.042290688 -0.26440504
v 0.08487761 -0.24213359 0.72829694
v 0.08487761 -0.046091497 0.6167397
v -0.084825456 -0.28354248 0.70393616
v -0.084825456 -0.24213359 0.7283192
v 0.08487761 -0.24213359 0.72829694
v 0.08487761 -0.28354248 0.7038917
v 0.034822404 -0.07467544 0.6340545
v 0.08487761 -0.24213359 0.72829694
v -0.084825456 -0.24213359 0.7283192
v -0.0313918 -0.07467544 0.6340545
v -0.084825456 -0.27338475 -0.26440504
v -0.084825456 -0.28354248 0.70393616
v 0.08487761 -0.28354248 0.7038917
v 0.08487761 -0.27338475 -0.26440504
v -0.084825456 -0.04449117 0.6160062
v 0.08487761 -0.046091497 0.6167397
v 0.08487761 -0.28354248 0.7038917
v 0.08487761 -0.27338475 -0.26440504
v -0.084825456 -0.04449117 0.6160062
v -0.15466267 -0.31590497 -0.1672064
v -0.15466267 0.3158973 -0.1672064
v 0.15467036 0.3158973 -0.1672064
v 0.15467036 -0.31590497 -0.1672064
v -0.15466267 0.37551016 -0.21881747
v -0.15466267 0.37551016 -0.63546246
v 0.15467036 0.37551016 -0.63546246
v 0.15467036 0.37551016 -0.21881747
v -0.15466267 0.26822042 -0.72832686
v -0.15466267 0.01781112 -0.72832686
v 0.15467036 0.01781112 -0.72832686
v 0.15467036 0.26822042 -0.72832686
v -0.15466267 -0.37549555 -0.52197146
v -0.15466267 -0.37549555 -0.21881747
v 0.15467036 -0.37549555 -0.21881747
v 0.15467036 -0.37549555 -0.52197146
v -0.15466267 0.26822042 -0.72832686
v -0.15466267 0.37551016 -0.63546246
v -0.15466267 0.37551016 -0.21881747
v -0.15466267 -0.37549555 -0.52197146
v 0.15467036 -0.37549555 -0.52197146
v 0.15467036 0.01781112 -0.72832686
v -0.15466267 0.01781112 -0.72832686
v -0.15466267 0.26822042 -0.72832686
v 0.15467036 0.26822042 -0.72832686
v 0.15467036 0.37551016 -0.63546246
v -0.15466267 0.37551016 -0.63546246
v 0.15467036 -0.31590497 -0.1672064
v 0.15467036 -0.37549555 -0.52197146
v 0.15467036 -0.37549555 -0.21881747
v -0.15466267 -0.31590497 -0.1672064
v 0.15467036 -0.31590497 -0.1672064
v 0.15467036 -0.37549555 -0.21881747
v -0.15466267 -0.37549555 -0.21881747
v -0.15466267 0.37551016 -0.21881747
v 0.15467036 0.37551016 -0.21881747
v 0.15467036 0.3158973 -0.1672064
v -0.15466267 0.3158973 -0.1672064
v 0.15467036 0.3158973 -0.1672064
v 0.15467036 0.26822042 -0.72832686
v 0.15467036 0.01781112 -0.72832686
v 0.15467036 0.37551016 -0.21881747
v 0.15467036 0.37551016 -0.63546246
v -0.15466267 0.01781112 -0.72832686
v -0.15466267 0.3158973 -0.1672064
v -0.15466267 -0.31590497 -0.1672064
v -0.15466267 -0.37549555 -0.52197146
v -0.15466267 -0.37549555 -0.21881747
vt 0.48199207 0.650516
vt 0.48407263 0.650516
vt 0.48372585 0.6293638
vt 0.48233885 0.6293638
vt 0.4899675 0.67652273
vt 0.4962091 0.67617595
vt 0.4962091 0.6512095
vt 0.49516883 0.6501692
vt 0.4802583 0.6293638
vt 0.4802583 0.650516
vt 0.48545966 0.650516
vt 0.48545966 0.6293638
vt 0.4864999 0.7087711
vt 0.48719344 0.6855384
vt 0.48199207 0.68241763
vt 0.4802583 0.6571044
vt 0.48545966 0.6571044
vt 0.48545966 0.6557173
vt 0.4802583 0.65606403
vt 0.48407263 0.650516
vt 0.48199207 0.650516
vt 0.4802583 0.65606403
vt 0.48545966 0.6557173
vt 0.4802583 0.6799903
vt 0.48545966 0.6799903
vt 0.48545966 0.6571044
vt 0.4802583 0.6571044
vt 0.4802583 0.650516
vt 0.48545966 0.650516
vt 0.48095182 0.6831111
vt 0.4802583 0.7084243
vt 0.4899675 0.65329003
vt 0.48199207 0.650516
vt 0.48233885 0.6293638
vt 0.48372585 0.6293638
vt 0.48407263 0.650516
vt 0.4899675 0.67652273
vt 0.49516883 0.6501692
vt 0.4962091 0.6512095
vt 0.4962091 0.67617595
vt 0.4802583 0.6293638
vt 0.4802583 0.650516
vt 0.48545966 0.650516
vt 0.48545966 0.6293638
vt 0.4864999 0.7087711
vt 0.48199207 0.68241763
vt 0.48719344 0.6855384
vt 0.4802583 0.6571044
vt 0.4802583 0.65606403
vt 0.48545966 0.6557173
vt 0.48545966 0.6571044
vt 0.48407263 0.650516
vt 0.48545966 0.6557173
vt 0.4802583 0.65606403
vt 0.48199207 0.650516
vt 0.4802583 0.6799903
vt 0.4802583 0.6571044
vt 0.48545966 0.6571044
vt 0.48545966 0.6799903
vt 0.4802583 0.650516
vt 0.48545966 0.650516
vt 0.48095182 0.6831111
vt 0.4802583 0.7084243
vt 0.4899675 0.65329003
vt 0.42339015 0.6792968
vt 0.44003448 0.6792968
vt 0.44003448 0.6709746
vt 0.42339015 0.6709746
vt 0.38073903 0.6792968
vt 0.39148852 0.6792968
vt 0.39148852 0.6709746
vt 0.38073903 0.6709746
vt 0.39530283 0.6792968
vt 0.40189123 0.6792968
vt 0.40189123 0.6709746
vt 0.39530283 0.6709746
vt 0.41368097 0.6792968
vt 0.42130962 0.6792968
vt 0.42130962 0.6709746
vt 0.41368097 0.6709746
vt 0.47748423 0.7163998
vt 0.47505695 0.7136257
vt 0.4639607 0.7136257
vt 0.41368097 0.6792968
vt 0.41368097 0.6709746
vt 0.40189123 0.6709746
vt 0.40189123 0.6792968
vt 0.39530283 0.6792968
vt 0.39530283 0.6709746
vt 0.39148852 0.6709746
vt 0.39148852 0.6792968
vt 0.4188823 0.71744
vt 0.4206161 0.72680247
vt 0.4206161 0.71882707
vt 0.42339015 0.6792968
vt 0.42339015 0.6709746
vt 0.42130962 0.6709746
vt 0.42130962 0.6792968
vt 0.38073903 0.6792968
vt 0.38073903 0.6709746
vt 0.3786585 0.6709746
vt 0.3786585 0.6792968
vt 0.40258473 0.71744
vt 0.403625 0.7323506
vt 0.41021338 0.7323506
vt 0.40085095 0.71882707
vt 0.40085095 0.7299233
vt 0.47748423 0.7229881
vt 0.46257368 0.7153595
vt 0.46257368 0.7316571
vt 0.4719361 0.73339087
vt 0.4639607 0.73339087
vn 0.31764466 -0.94509083 -0.07684498
vn -0.30195844 -0.9529339 -0.027167708
vn -0.33261538 -0.9430625 -0
vn 0.3411739 -0.93724775 -0.0718819
vn -0.99999225 0.003921509 -0.00034492963
vn -0.99999225 0.003921509 -0.00034492963
vn -0.99999225 0.003921509 -0.00034492963
vn -0.99999225 0.003921509 -0.00034492963
vn 0.6392108 -0.76470006 -0.08150715
vn 0.6392108 -0.76470006 -0.08150715
vn -0.6392107 -0.76470006 -0.08150788
vn -0.6392107 -0.76470006 -0.08150788
vn 0.9999924 0.003921509 -0
vn 0.9999924 0.003921509 -0
vn 0.9999924 0.003921509 -0
vn 0.0039215684 0.50587845 0.86259586
vn 0.0039215684 0.50587845 0.86259586
vn 0.0039215684 0.50587845 0.86259586
vn 0.0039215684 0.50587845 0.86259586
vn 0.0039215684 -0.49019235 0.87160546
vn -0.003921509 -0.49019235 0.87160546
vn -0.003921509 -0.49019235 0.87160546
vn 0.0039215684 -0.49019235 0.87160546
vn -0.003921509 0.99999225 -0.00034526698
vn -0.003921509 0.99999225 -0.00034526698
vn -0.003921509 0.99999225 -0.00034526698
vn -0.003921509 0.99999225 -0.00034526698
vn -0.011764526 -0.49019235 0.8715349
vn 0.019607723 -0.49803543 0.86693496
vn 0.9999924 0.003921509 -0
vn 0.9999924 0.003921509 -0
vn -0.99999225 0.003921509 -0.00034492963
vn 0.31764466 0.9450908 -0.07684576
vn 0.3411739 0.93724763 -0.07188356
vn -0.3326154 0.94306254 -0
vn -0.30195844 0.9529338 -0.027172094
vn -0.99999225 0.003921509 -0.00034492963
vn -0.99999225 0.003921509 -0.00034492963
vn -0.99999225 0.003921509 -0.00034492963
vn -0.99999225 0.003921509 -0.00034492963
vn 0.6392108 0.76469994 -0.08150824
vn 0.6392108 0.76469994 -0.08150824
vn -0.6392107 0.76469994 -0.08150897
vn -0.6392107 0.76469994 -0.08150897
vn 0.9999924 0.003921509 -0
vn 0.9999924 0.003921509 -0
vn 0.9999924 0.003921509 -0
vn 0.0039215684 -0.5058785 0.8625958
vn 0.0039215684 -0.5058785 0.8625958
vn 0.0039215684 -0.5058785 0.8625958
vn 0.0039215684 -0.5058785 0.8625958
vn 0.0039215684 0.4901923 0.8716055
vn 0.0039215684 0.4901923 0.8716055
vn -0.003921509 0.4901923 0.8716055
vn -0.003921509 0.4901923 0.8716055
vn -0.003921509 -0.9999924 -0
vn -0.003921509 -0.9999924 -0
vn -0.003921509 -0.9999924 -0
vn -0.003921509 -0.9999924 -0
vn -0.011764526 0.4901923 0.8715349
vn 0.019607723 0.4980353 0.866935
vn 0.9999924 0.003921509 -0
vn 0.9999924 0.003921509 -0
vn -0.99999225 0.003921509 -0.00034492963
vn -0.003921509 0.003921509 0.9999846
vn -0.003921509 0.003921509 0.9999846
vn -0.003921509 0.003921509 0.9999846
vn -0.003921509 0.003921509 0.9999846
vn -0.003921509 0.99999225 -0.00034526698
vn -0.003921509 0.99999225 -0.00034526698
vn -0.003921509 0.99999225 -0.00034526698
vn -0.003921509 0.99999225 -0.00034526698
vn -0.003921509 0.003921509 -0.9999846
vn -0.003921509 0.003921509 -0.9999846
vn -0.003921509 0.003921509 -0.9999846
vn -0.003921509 0.003921509 -0.9999846
vn -0.003921509 -0.9999924 -0
vn -0.003921509 -0.9999924 -0
vn -0.003921509 -0.9999924 -0
vn -0.003921509 -0.9999924 -0
vn -0.99999225 0.003921509 -0.00034492963
vn -0.99999225 0.003921509 -0.00034492963
vn -0.99999225 0.003921509 -0.00034492963
vn -0.003921509 -0.46666312 -0.8844265
vn -0.003921509 -0.46666312 -0.8844265
vn -0.003921509 -0.46666312 -0.8844265
vn -0.003921509 -0.46666312 -0.8844265
vn -0.003921509 0.65489686 -0.7557081
vn -0.003921509 0.65489686 -0.7557081
vn -0.003921509 0.65489686 -0.7557081
vn -0.003921509 0.65489686 -0.7557081
vn 0.9999924 0.003921509 -0
vn 0.9999924 0.003921509 -0
vn 0.9999924 0.003921509 -0
vn -0.003921509 -0.654897 0.755708
vn -0.003921509 -0.654897 0.755708
vn -0.003921509 -0.654897 0.755708
vn -0.003921509 -0.654897 0.755708
vn -0.003921509 0.65489686 0.7557081
vn -0.003921509 0.65489686 0.7557081
vn -0.003921509 0.65489686 0.7557081
vn -0.003921509 0.65489686 0.7557081
vn 0.9999924 0.003921509 -0
vn 0.9999924 0.003921509 -0
vn 0.9999924 0.003921509 -0
vn 0.9999924 0.003921509 -0
vn 0.9999924 0.003921509 -0
vn -0.99999225 0.003921509 -0.00034492963
vn -0.99999225 0.003921509 -0.00034492963
vn -0.99999225 0.003921509 -0.00034492963
vn -0.99999225 0.003921509 -0.00034492963
vn -0.99999225 0.003921509 -0.00034492963
g UnitaserTurret_07_CorpsePart_0
f 3/3/3 2/2/2 1/1/1
f 4/4/4 3/3/3 1/1/1
f 7/7/7 6/6/6 5/5/5
f 8/8/8 7/7/7 5/5/5
f 1/1/1 10/10/10 9/9/9
f 4/4/4 1/1/1 9/9/9
f 3/3/3 12/12/12 11/11/11
f 2/2/2 3/3/3 11/11/11
f 15/15/15 14/14/14 13/13/13
f 18/18/18 17/17/17 16/16/16
f 19/19/19 18/18/18 16/16/16
f 22/22/22 21/21/21 20/20/20
f 23/23/23 22/22/22 20/20/20
f 26/26/26 25/25/25 24/24/24
f 27/27/27 26/26/26 24/24/24
f 28/28/28 21/21/21 22/22/22
f 20/20/20 29/29/29 23/23/23
f 13/13/13 31/31/31 30/30/30
f 15/15/15 13/13/13 30/30/30
f 32/32/32 8/8/8 5/5/5
f 35/35/35 34/34/34 33/33/33
f 36/36/36 35/35/35 33/33/33
f 39/39/39 38/38/38 37/37/37
f 40/40/40 39/39/39 37/37/37
f 33/33/33 34/34/34 41/41/41
f 42/42/42 33/33/33 41/41/41
f 35/35/35 36/36/36 43/43/43
f 44/44/44 35/35/35 43/43/43
f 47/47/47 46/46/46 45/45/45
f 50/50/50 49/49/49 48/48/48
f 51/51/51 50/50/50 48/48/48
f 54/54/54 53/53/53 52/52/52
f 55/55/55 54/54/54 52/52/52
f 58/58/58 57/57/57 56/56/56
f 59/59/59 58/58/58 56/56/56
f 55/55/55 60/60/60 54/54/54
f 61/61/61 52/52/52 53/53/53
f 45/45/45 46/46/46 62/62/62
f 63/63/63 45/45/45 62/62/62
f 38/38/38 64/64/64 37/37/37
f 67/67/67 66/66/66 65/65/65
f 68/68/68 67/67/67 65/65/65
f 71/71/71 70/70/70 69/69/69
f 72/72/72 71/71/71 69/69/69
f 75/75/75 74/74/74 73/73/73
f 76/76/76 75/75/75 73/73/73
f 79/79/79 78/78/78 77/77/77
f 80/80/80 79/79/79 77/77/77
f 83/83/83 82/82/82 81/81/81
f 86/86/86 85/85/85 84/84/84
f 87/87/87 86/86/86 84/84/84
f 90/90/90 89/89/89 88/88/88
f 91/91/91 90/90/90 88/88/88
f 94/94/94 93/93/93 92/92/92
f 97/97/97 96/96/96 95/95/95
f 98/98/98 97/97/97 95/95/95
f 101/101/101 100/100/100 99/99/99
f 102/102/102 101/101/101 99/99/99
f 105/105/105 104/104/104 103/103/103
f 107/107/107 106/106/106 103/103/103
f 104/104/104 107/107/107 103/103/103
f 105/105/105 103/103/103 92/92/92
f 93/93/93 105/105/105 92/92/92
f 83/83/83 81/81/81 108/108/108
f 109/109/109 83/83/83 108/108/108
f 110/110/110 109/109/109 108/108/108
f 111/111/111 110/110/110 108/108/108
f 111/111/111 112/112/112 110/110/110
