g vase_02
v -0.18427047 1.1766039 0.18427047
v -0.1606392 1.0212293 0.1606392
v -0.24542615 1.1766039 0.1015484
v -0.17901906 0.95573986 0.17901906
v -0.33128378 0.75741076 0.33128378
v -0.44077262 0.75741076 0.18263897
v -0.17430303 -1.2397766E-05 0.17430303
v -0.24621645 -1.2397766E-05 -1.2397766E-05
v -0.46481177 0.6101681 0.19242796
v 1.2397766E-05 1.1766039 0.26092538
v 1.2397766E-05 1.0212293 0.22732672
v -0.1015484 1.1766039 0.24542615
v 1.2397766E-05 0.95573986 0.25304833
v 1.2397766E-05 0.75741076 0.4683042
v -0.18263897 0.75741076 0.44077262
v 1.2397766E-05 -1.2397766E-05 0.24621645
v -0.17430303 -1.2397766E-05 0.17430303
v -0.19242796 0.6101681 0.46481177
v 0.18426979 1.1766039 0.18427047
v 0.16063854 1.0212293 0.1606392
v 0.10154769 1.1766039 0.24542615
v 0.17901838 0.95573986 0.17901906
v 0.3312831 0.75741076 0.33128378
v 0.18263829 0.75741076 0.44077262
v 0.17430234 -1.2397766E-05 0.17430303
v 0.19242728 0.6101681 0.46481177
v 0.2609247 1.1766039 -1.2397766E-05
v 0.22732604 1.0212293 -1.2397766E-05
v 0.24542548 1.1766039 0.1015484
v 0.25304765 0.95573986 -1.2397766E-05
v 0.4683035 0.75741076 -1.2397766E-05
v 0.44077194 0.75741076 0.18263897
v 0.24621575 -1.2397766E-05 -1.2397766E-05
v 0.46481106 0.6101681 0.19242796
v 0.18426979 1.1766039 -0.18426979
v 0.16063854 1.0212293 -0.16063854
v 0.24542548 1.1766039 -0.10154769
v 0.17901838 0.95573986 -0.17901838
v 0.3312831 0.75741076 -0.3312831
v 0.44077194 0.75741076 -0.18263829
v 0.17430234 -1.2397766E-05 -0.17430234
v 0.46481106 0.6101681 -0.19242728
v 1.2397766E-05 1.1766039 -0.2609247
v 1.2397766E-05 1.0212293 -0.22732604
v 0.10154769 1.1766039 -0.24542548
v 1.2397766E-05 0.95573986 -0.25304765
v 1.2397766E-05 0.75741076 -0.4683035
v 0.18263829 0.75741076 -0.44077194
v 1.2397766E-05 -1.2397766E-05 -0.24621575
v 0.17430234 -1.2397766E-05 -0.17430234
v 0.19242728 0.6101681 -0.46481106
v -0.18427047 1.1766039 -0.18426979
v -0.1606392 1.0212293 -0.16063854
v -0.1015484 1.1766039 -0.24542548
v -0.17901906 0.95573986 -0.17901838
v -0.33128378 0.75741076 -0.3312831
v -0.18263897 0.75741076 -0.44077194
v -0.17430303 -1.2397766E-05 -0.17430234
v -0.19242796 0.6101681 -0.46481106
v -0.26092538 1.1766039 -1.2397766E-05
v -0.22732672 1.0212293 -1.2397766E-05
v -0.24542615 1.1766039 -0.10154769
v -0.25304833 0.95573986 -1.2397766E-05
v -0.4683042 0.75741076 -1.2397766E-05
v -0.44077262 0.75741076 -0.18263829
v -0.34912828 0.6101681 -0.3491276
v -0.46481177 0.6101681 -0.19242728
v -0.1606392 1.0212293 0.1606392
v -0.17901906 0.95573986 0.17901906
v 0.16063854 1.0212293 -0.16063854
v 0.17901838 0.95573986 -0.17901838
v -0.49402574 0.6101681 -1.2397766E-05
v -0.33128378 0.75741076 0.33128378
v -0.34912828 0.6101681 0.34912828
v 1.2397766E-05 0.6101681 0.49402574
v 0.3491276 0.6101681 0.34912828
v 0.44077194 0.75741076 -0.18263829
v 0.49402508 0.6101681 -1.2397766E-05
v 0.3491276 0.6101681 -0.3491276
v 1.2397766E-05 0.6101681 -0.49402508
v -0.24621645 -1.2397766E-05 -1.2397766E-05
v 1.2397766E-05 -1.2397766E-05 0.24621645
v 1.2397766E-05 -1.2397766E-05 -0.24621575
v -0.17430303 -1.2397766E-05 0.17430303
v 0.24621575 -1.2397766E-05 -1.2397766E-05
v -0.17430303 -1.2397766E-05 -0.17430234
v 0.17430234 -1.2397766E-05 -0.17430234
v 0.17430234 -1.2397766E-05 0.17430303
v -0.18427047 1.1766039 0.18427047
v -0.24542615 1.1766039 0.1015484
v -0.11393759 1.1766039 0.11393759
v 1.2397766E-05 1.1766039 0.26092538
v -0.1015484 1.1766039 0.24542615
v 1.2397766E-05 1.1766039 0.1606392
v 0.18426979 1.1766039 0.18427047
v 0.10154769 1.1766039 0.24542615
v 0.1139369 1.1766039 0.11393759
v 0.2609247 1.1766039 -1.2397766E-05
v 0.24542548 1.1766039 0.1015484
v 0.16063854 1.1766039 -1.2397766E-05
v 0.18426979 1.1766039 -0.18426979
v 0.24542548 1.1766039 -0.10154769
v 0.1139369 1.1766039 -0.1139369
v 1.2397766E-05 1.1766039 -0.2609247
v 0.10154769 1.1766039 -0.24542548
v 1.2397766E-05 1.1766039 -0.16063854
v -0.18427047 1.1766039 -0.18426979
v -0.1015484 1.1766039 -0.24542548
v -0.11393759 1.1766039 -0.1139369
v -0.26092538 1.1766039 -1.2397766E-05
v -0.24542615 1.1766039 -0.10154769
v -0.1606392 1.1766039 -1.2397766E-05
v -0.11393759 1.1766039 0.11393759
v -0.1606392 1.1766039 -1.2397766E-05
v 1.2397766E-05 0.6580423 -1.2397766E-05
v 1.2397766E-05 1.1766039 0.1606392
v 0.1139369 1.1766039 0.11393759
v 0.16063854 1.1766039 -1.2397766E-05
v 0.1139369 1.1766039 -0.1139369
v 1.2397766E-05 1.1766039 -0.16063854
v -0.11393759 1.1766039 -0.1139369
v -0.34912828 0.6101681 0.34912828
v 0.46481106 0.6101681 -0.19242728
v -0.18427047 1.1766039 0.18427047
v 0.24542548 1.1766039 -0.10154769
vt 0.4684408 0.8585129
vt 0.4684408 0.856802
vt 0.46587455 0.8585129
vt 0.4684408 0.8559466
vt 0.4684408 0.85380805
vt 0.46587455 0.85380805
vt 0.4684408 0.8452538
vt 0.46330827 0.8452538
vt 0.46587455 0.8520972
vt 0.4432059 0.8751936
vt 0.4432059 0.8734827
vt 0.44021192 0.8751936
vt 0.4432059 0.8726273
vt 0.4432059 0.87048876
vt 0.44021192 0.87048876
vt 0.4432059 0.86236227
vt 0.43764564 0.86236227
vt 0.44021192 0.86877793
vt 0.44833842 0.8751936
vt 0.44833842 0.8734827
vt 0.44577214 0.8751936
vt 0.44833842 0.8726273
vt 0.44833842 0.87048876
vt 0.44577214 0.87048876
vt 0.44833842 0.86236227
vt 0.44577214 0.86877793
vt 0.45347095 0.8751936
vt 0.45347095 0.8734827
vt 0.45090467 0.8751936
vt 0.45347095 0.8726273
vt 0.45347095 0.87048876
vt 0.45090467 0.87048876
vt 0.45347095 0.86236227
vt 0.45090467 0.86877793
vt 0.44705528 0.8585129
vt 0.44705528 0.856802
vt 0.444489 0.8585129
vt 0.44705528 0.8559466
vt 0.44705528 0.85380805
vt 0.444489 0.85380805
vt 0.45860347 0.86236227
vt 0.4560372 0.86877793
vt 0.4521878 0.8585129
vt 0.4521878 0.856802
vt 0.44962153 0.8585129
vt 0.4521878 0.8559466
vt 0.4521878 0.85380805
vt 0.44962153 0.85380805
vt 0.4521878 0.8452538
vt 0.44705528 0.8452538
vt 0.44962153 0.8520972
vt 0.45774806 0.8585129
vt 0.45774806 0.856802
vt 0.45518178 0.8585129
vt 0.45774806 0.8559466
vt 0.45774806 0.85380805
vt 0.45518178 0.85380805
vt 0.45774806 0.8452538
vt 0.45518178 0.8520972
vt 0.46330827 0.8585129
vt 0.46330827 0.856802
vt 0.4603143 0.8585129
vt 0.46330827 0.8559466
vt 0.46330827 0.85380805
vt 0.4603143 0.85380805
vt 0.45774806 0.8520972
vt 0.4603143 0.8520972
vt 0.43764564 0.8734827
vt 0.43764564 0.8726273
vt 0.45860347 0.8734827
vt 0.45860347 0.8726273
vt 0.46330827 0.8520972
vt 0.43764564 0.87048876
vt 0.43764564 0.86877793
vt 0.4432059 0.86877793
vt 0.44833842 0.86877793
vt 0.4560372 0.87048876
vt 0.45347095 0.86877793
vt 0.44705528 0.8520972
vt 0.4521878 0.8520972
vt 0.43764564 0.8482478
vt 0.44106734 0.8448261
vt 0.44106734 0.8520972
vt 0.43850106 0.84568155
vt 0.44491673 0.8482478
vt 0.43850106 0.8508141
vt 0.4436336 0.8508141
vt 0.4436336 0.84568155
vt 0.45903116 0.8649285
vt 0.45774806 0.8666394
vt 0.4603143 0.86621165
vt 0.46288058 0.8632177
vt 0.46074203 0.86364543
vt 0.46288058 0.8653562
vt 0.46672997 0.8649285
vt 0.4650191 0.86364543
vt 0.4650191 0.86621165
vt 0.4680131 0.86877793
vt 0.4680131 0.8666394
vt 0.46630225 0.86877793
vt 0.46672997 0.8726273
vt 0.4680131 0.8709165
vt 0.4650191 0.8709165
vt 0.46288058 0.8739104
vt 0.4650191 0.8734827
vt 0.46288058 0.87177193
vt 0.45903116 0.8726273
vt 0.46074203 0.8734827
vt 0.4603143 0.8709165
vt 0.45732033 0.86877793
vt 0.45774806 0.8709165
vt 0.4594589 0.86877793
vt 0.4603143 0.86621165
vt 0.4594589 0.86877793
vt 0.46288058 0.86877793
vt 0.46288058 0.8653562
vt 0.4650191 0.86621165
vt 0.46630225 0.86877793
vt 0.4650191 0.8709165
vt 0.46288058 0.87177193
vt 0.4603143 0.8709165
vt 0.4684408 0.8520972
vt 0.444489 0.8520972
vt 0.43764564 0.8751936
vt 0.4560372 0.8751936
vn -0.6941123 -0.20784158 0.6892097
vn -0.7019553 -0.08235234 0.7074439
vn -0.8901892 -0.2705862 0.36653286
vn -0.48234916 0.7333276 0.47913447
vn -0.5843092 0.5529369 0.59400636
vn -0.76469994 0.56862307 0.30315316
vn -0.6392107 -0.42744774 0.639295
vn -0.9043746 -0.4267396 -0
vn -0.88234615 -0.28627235 0.37351498
vn -0.003921509 -0.20784158 0.97815466
vn -0.003921509 -0.098038495 0.9951749
vn -0.37254608 -0.2705862 0.8876894
vn -0.003921509 0.7333276 0.6798641
vn -0.003921509 0.5607799 0.8279556
vn -0.30980146 0.56862307 0.7620307
vn -0.003921509 -0.42744774 0.9040315
vn -0.6392107 -0.42744774 0.639295
vn -0.36470306 -0.28627235 0.8860247
vn 0.69411236 -0.20784158 0.68920964
vn 0.70195544 -0.08235234 0.7074437
vn 0.3725462 -0.2705862 0.8876894
vn 0.48234928 0.7333276 0.47913435
vn 0.5843093 0.5529369 0.5940063
vn 0.30980158 0.56862307 0.7620307
vn 0.6392108 -0.42744774 0.6392949
vn 0.36470312 -0.28627235 0.8860247
vn 0.97646314 -0.20784158 0.05763364
vn 0.9921493 -0.098038495 -0.07764172
vn 0.8901893 -0.2705862 0.36653262
vn 0.6784262 0.7333276 0.044367142
vn 0.8274447 0.5607799 0.02934617
vn 0.76470006 0.56862307 0.30315286
vn 0.9043746 -0.42673954 -0
vn 0.8823462 -0.28627235 0.3735148
vn 0.69411236 -0.20784158 -0.68920964
vn 0.70195544 -0.08235234 -0.7074437
vn 0.8901893 -0.2705862 -0.36653262
vn 0.48234928 0.7333276 -0.47913435
vn 0.5843093 0.5529369 -0.5940063
vn 0.76470006 0.56862307 -0.30315286
vn 0.6392108 -0.42744774 -0.6392949
vn 0.8823462 -0.28627235 -0.3735148
vn -0.003921509 -0.20784158 -0.97815466
vn -0.003921509 -0.098038495 -0.9951749
vn 0.3725462 -0.2705862 -0.8876894
vn -0.003921509 0.7333276 -0.6798641
vn -0.003921509 0.5607799 -0.8279556
vn 0.30980158 0.56862307 -0.7620307
vn -0.003921509 -0.42744774 -0.9040315
vn 0.6392108 -0.42744774 -0.6392949
vn 0.36470312 -0.28627235 -0.8860247
vn -0.6941123 -0.20784158 -0.6892097
vn -0.7019553 -0.08235234 -0.7074439
vn -0.37254608 -0.2705862 -0.8876894
vn -0.48234916 0.7333276 -0.47913447
vn -0.5843092 0.5529369 -0.59400636
vn -0.30980146 0.56862307 -0.7620307
vn -0.6392107 -0.42744774 -0.639295
vn -0.36470306 -0.28627235 -0.8860247
vn -0.9764631 -0.20784158 0.057634674
vn -0.99214923 -0.098038495 -0.077642485
vn -0.8901892 -0.2705862 -0.36653286
vn -0.67842615 0.7333276 0.044367816
vn -0.82744455 0.5607799 0.029349217
vn -0.76469994 0.56862307 -0.30315316
vn -0.67842615 -0.27842927 -0.679864
vn -0.88234615 -0.28627235 -0.37351498
vn -0.7019553 -0.08235234 0.7074439
vn -0.48234916 0.7333276 0.47913447
vn 0.70195544 -0.08235234 -0.7074437
vn 0.48234928 0.7333276 -0.47913435
vn -0.9604815 -0.27834368 -0
vn -0.5843092 0.5529369 0.59400636
vn -0.67842615 -0.27842927 0.679864
vn -0.003921509 -0.27842927 0.96044874
vn 0.6784262 -0.27842927 0.679864
vn 0.76470006 0.56862307 -0.30315286
vn 0.9604816 -0.27834368 -0
vn 0.6784262 -0.27842927 -0.679864
vn -0.003921509 -0.27842927 -0.96044874
vn -0.003921509 -0.9999924 -0
vn -0.003921509 -0.9999924 -0
vn -0.003921509 -0.9999924 -0
vn -0.003921509 -0.9999924 -0
vn -0.003921509 -0.9999924 -0
vn -0.003921509 -0.9999924 -0
vn -0.003921509 -0.9999924 -0
vn -0.003921509 -0.9999924 -0
vn -0.003921509 0.99999225 -0.00034526698
vn -0.003921509 0.99999225 -0.00034526698
vn -0.003921509 0.99999225 -0.00034526698
vn -0.003921509 0.99999225 -0.00034526698
vn -0.003921509 0.99999225 -0.00034526698
vn -0.003921509 0.99999225 -0.00034526698
vn 0.0039215684 0.99999225 -0.00034526698
vn 0.0039215684 0.99999225 -0.00034526698
vn 0.0039215684 0.99999225 -0.00034526698
vn -0.003921509 0.99999225 -0.00034526698
vn 0.0039215684 0.99999225 -0.00034526698
vn -0.003921509 0.99999225 -0.00034526698
vn -0.003921509 0.99999225 -0.00034526698
vn -0.003921509 0.99999225 -0.00034526698
vn -0.003921509 0.99999225 -0.00034526698
vn -0.003921509 0.99999225 -0.00034526698
vn -0.003921509 0.99999225 -0.00034526698
vn -0.003921509 0.99999225 -0.00034526698
vn 0.0039215684 0.99999225 -0.00034526698
vn 0.0039215684 0.99999225 -0.00034526698
vn 0.0039215684 0.99999225 -0.00034526698
vn -0.003921509 0.99999225 -0.00034526698
vn 0.0039215684 0.99999225 -0.00034526698
vn -0.003921509 0.99999225 -0.00034526698
vn 0.6784262 0.2941153 -0.6732266
vn 0.9529339 0.2941153 -0.07357423
vn -0.003921509 0.99999225 -0.00034526698
vn -0.003921509 0.2941153 -0.9557619
vn -0.67842615 0.2941153 -0.67322665
vn -0.9529338 0.2941153 -0.07357585
vn -0.67842615 0.2941153 0.67322665
vn -0.003921509 0.2941153 0.9557619
vn 0.6784262 0.2941153 0.6732266
vn -0.67842615 -0.27842927 0.679864
vn 0.8823462 -0.28627235 -0.3735148
vn -0.6941123 -0.20784158 0.6892097
vn 0.8901893 -0.2705862 -0.36653262
g vase_02_0
f 3/3/3 2/2/2 1/1/1
f 6/6/6 5/5/5 4/4/4
f 9/9/9 8/8/8 7/7/7
f 12/12/12 11/11/11 10/10/10
f 15/15/15 14/14/14 13/13/13
f 18/18/18 17/17/17 16/16/16
f 21/21/21 20/20/20 19/19/19
f 24/24/24 23/23/23 22/22/22
f 26/26/26 16/16/16 25/25/25
f 29/29/29 28/28/28 27/27/27
f 32/32/32 31/31/31 30/30/30
f 34/34/34 25/25/25 33/33/33
f 37/37/37 36/36/36 35/35/35
f 40/40/40 39/39/39 38/38/38
f 42/42/42 33/33/33 41/41/41
f 45/45/45 44/44/44 43/43/43
f 48/48/48 47/47/47 46/46/46
f 51/51/51 50/50/50 49/49/49
f 54/54/54 53/53/53 52/52/52
f 57/57/57 56/56/56 55/55/55
f 59/59/59 49/49/49 58/58/58
f 62/62/62 61/61/61 60/60/60
f 65/65/65 64/64/64 63/63/63
f 67/67/67 66/66/66 58/58/58
f 61/61/61 63/63/63 2/2/2
f 4/4/4 2/2/2 63/63/63
f 13/13/13 11/11/11 68/68/68
f 68/68/68 69/69/69 13/13/13
f 11/11/11 13/13/13 20/20/20
f 22/22/22 20/20/20 13/13/13
f 30/30/30 28/28/28 20/20/20
f 20/20/20 22/22/22 30/30/30
f 28/28/28 30/30/30 70/70/70
f 71/71/71 70/70/70 30/30/30
f 46/46/46 44/44/44 36/36/36
f 36/36/36 38/38/38 46/46/46
f 44/44/44 46/46/46 53/53/53
f 55/55/55 53/53/53 46/46/46
f 63/63/63 61/61/61 53/53/53
f 53/53/53 55/55/55 63/63/63
f 64/64/64 72/72/72 6/6/6
f 72/72/72 9/9/9 6/6/6
f 18/18/18 15/15/15 73/73/73
f 73/73/73 74/74/74 18/18/18
f 14/14/14 75/75/75 24/24/24
f 75/75/75 26/26/26 24/24/24
f 34/34/34 32/32/32 23/23/23
f 23/23/23 76/76/76 34/34/34
f 31/31/31 78/78/78 77/77/77
f 78/78/78 42/42/42 77/77/77
f 51/51/51 48/48/48 39/39/39
f 39/39/39 79/79/79 51/51/51
f 47/47/47 80/80/80 57/57/57
f 80/80/80 59/59/59 57/57/57
f 67/67/67 65/65/65 56/56/56
f 56/56/56 66/66/66 67/67/67
f 83/83/83 82/82/82 81/81/81
f 82/82/82 84/84/84 81/81/81
f 85/85/85 82/82/82 83/83/83
f 81/81/81 86/86/86 83/83/83
f 83/83/83 87/87/87 85/85/85
f 85/85/85 88/88/88 82/82/82
f 91/91/91 90/90/90 89/89/89
f 94/94/94 93/93/93 92/92/92
f 97/97/97 96/96/96 95/95/95
f 100/100/100 99/99/99 98/98/98
f 103/103/103 102/102/102 101/101/101
f 106/106/106 105/105/105 104/104/104
f 109/109/109 108/108/108 107/107/107
f 112/112/112 111/111/111 110/110/110
f 115/115/115 114/114/114 113/113/113
f 115/115/115 113/113/113 116/116/116
f 115/115/115 116/116/116 117/117/117
f 115/115/115 117/117/117 118/118/118
f 115/115/115 118/118/118 119/119/119
f 115/115/115 119/119/119 120/120/120
f 115/115/115 120/120/120 121/121/121
f 115/115/115 121/121/121 114/114/114
f 6/6/6 9/9/9 5/5/5
f 9/9/9 122/122/122 5/5/5
f 75/75/75 14/14/14 15/15/15
f 15/15/15 18/18/18 75/75/75
f 24/24/24 26/26/26 23/23/23
f 26/26/26 76/76/76 23/23/23
f 78/78/78 31/31/31 32/32/32
f 32/32/32 34/34/34 78/78/78
f 40/40/40 123/123/123 39/39/39
f 123/123/123 79/79/79 39/39/39
f 80/80/80 47/47/47 48/48/48
f 48/48/48 51/51/51 80/80/80
f 57/57/57 59/59/59 56/56/56
f 59/59/59 66/66/66 56/56/56
f 72/72/72 64/64/64 65/65/65
f 65/65/65 67/67/67 72/72/72
f 110/110/110 90/90/90 112/112/112
f 89/89/89 93/93/93 91/91/91
f 92/92/92 96/96/96 94/94/94
f 95/95/95 99/99/99 97/97/97
f 98/98/98 102/102/102 100/100/100
f 101/101/101 105/105/105 103/103/103
f 104/104/104 108/108/108 106/106/106
f 107/107/107 111/111/111 109/109/109
f 122/122/122 9/9/9 7/7/7
f 72/72/72 8/8/8 9/9/9
f 75/75/75 18/18/18 16/16/16
f 74/74/74 17/17/17 18/18/18
f 76/76/76 26/26/26 25/25/25
f 75/75/75 16/16/16 26/26/26
f 78/78/78 34/34/34 33/33/33
f 76/76/76 25/25/25 34/34/34
f 79/79/79 123/123/123 50/50/50
f 78/78/78 33/33/33 42/42/42
f 80/80/80 51/51/51 49/49/49
f 79/79/79 50/50/50 51/51/51
f 66/66/66 59/59/59 58/58/58
f 80/80/80 49/49/49 59/59/59
f 8/8/8 67/67/67 58/58/58
f 72/72/72 67/67/67 8/8/8
f 63/63/63 6/6/6 4/4/4
f 69/69/69 15/15/15 13/13/13
f 13/13/13 24/24/24 22/22/22
f 22/22/22 32/32/32 30/30/30
f 30/30/30 77/77/77 71/71/71
f 38/38/38 48/48/48 46/46/46
f 46/46/46 57/57/57 55/55/55
f 55/55/55 65/65/65 63/63/63
f 64/64/64 6/6/6 63/63/63
f 73/73/73 15/15/15 69/69/69
f 14/14/14 24/24/24 13/13/13
f 23/23/23 32/32/32 22/22/22
f 31/31/31 77/77/77 30/30/30
f 39/39/39 48/48/48 38/38/38
f 47/47/47 57/57/57 46/46/46
f 56/56/56 65/65/65 55/55/55
f 112/112/112 90/90/90 91/91/91
f 94/94/94 96/96/96 97/97/97
f 97/97/97 99/99/99 100/100/100
f 100/100/100 102/102/102 103/103/103
f 103/103/103 105/105/105 106/106/106
f 106/106/106 108/108/108 109/109/109
f 109/109/109 111/111/111 112/112/112
f 60/60/60 61/61/61 3/3/3
f 61/61/61 2/2/2 3/3/3
f 124/124/124 68/68/68 12/12/12
f 68/68/68 11/11/11 12/12/12
f 19/19/19 20/20/20 29/29/29
f 20/20/20 28/28/28 29/29/29
f 27/27/27 28/28/28 125/125/125
f 28/28/28 70/70/70 125/125/125
f 35/35/35 36/36/36 45/45/45
f 36/36/36 44/44/44 45/45/45
f 43/43/43 44/44/44 54/54/54
f 44/44/44 53/53/53 54/54/54
f 52/52/52 53/53/53 62/62/62
f 53/53/53 61/61/61 62/62/62
f 91/91/91 93/93/93 94/94/94
f 10/10/10 11/11/11 21/21/21
f 11/11/11 20/20/20 21/21/21
