g VoidShassi_DefaultPart_3_CorpsePart
v -0.71609956 -0.5766795 0.80416673
v -0.72950155 -0.46585417 0.8281663
v -0.6463538 -0.49031344 0.8373385
v -0.8106263 -0.5766795 0.70963985
v -0.71609956 -0.5766795 0.80416673
v -0.6855714 -0.5905873 0.7551562
v -0.7620526 -0.5905873 0.678675
v -0.7620526 -0.5905873 0.678675
v -0.6855714 -0.5905873 0.7551562
v -0.63341147 -0.5133245 0.77460414
v -0.78173035 -0.51334745 0.62630814
v -0.7163294 0.029492378 0.46196657
v -0.4722423 0.029492378 0.7060537
v -0.43169135 0.1924547 0.6776405
v -0.68860584 0.1924547 0.420726
v -0.83435005 -0.46585417 0.7234327
v -0.7756615 0.04438865 0.48173636
v -0.7480069 0.20735097 0.44042677
v -0.76497215 0.23537338 0.5566544
v -0.80697125 0.07174444 0.6099637
v -0.56660825 -0.3085929 0.75476545
v -0.7631101 -0.3085929 0.5582636
v -0.8443039 -0.49035943 0.6394344
v -0.8237526 -0.29369664 0.5767459
v -0.8373845 -0.27135223 0.6932494
v -0.51775855 -0.1413778 0.73283476
v -0.742145 -0.1413778 0.5084484
v -0.80209786 -0.12645856 0.5276205
v -0.83053404 -0.09625226 0.6552271
v -0.8106263 -0.5766795 0.70963985
v -0.7631101 -0.3085929 0.5582636
v -0.78173035 -0.51334745 0.62630814
v -0.742145 -0.1413778 0.5084484
v -0.7163294 0.029492378 0.46196657
v -0.68860584 0.1924547 0.420726
v -0.7620526 -0.5905873 0.678675
v -0.5848147 -0.29369664 0.8156838
v -0.56660825 -0.3085929 0.75476545
v -0.63341147 -0.5133245 0.77460414
v -0.51775855 -0.1413778 0.73283476
v -0.53660876 -0.12645856 0.7931095
v -0.4722423 0.029492378 0.7060537
v -0.4916672 0.04438865 0.7657307
v -0.45104724 0.20735097 0.7373864
v -0.43169135 0.1924547 0.6776405
v -0.6855714 -0.5905873 0.7551562
v -0.5662864 0.23535037 0.7552481
v -0.61869913 0.07169843 0.7980979
v -0.6629742 -0.096505135 0.822856
v -0.69998485 -0.27135223 0.830695
v -0.624607 0.17824805 0.83212024
v -0.5619417 0.06553763 0.79777604
v -0.805615 0.065790534 0.5539418
v -0.8400511 0.17847794 0.6165152
v -0.38417506 0.0637216 0.7814086
v -0.78927046 0.06415838 0.37603724
v -0.75805265 -0.035310924 0.4782192
v -0.48619598 -0.03560978 0.7502827
v -0.33268178 0.47996622 0.55044764
v -0.5588612 0.48021907 0.32410723
v -0.8022817 0.018113315 0.39939314
v -0.8541427 0.116318285 0.44957608
v -0.6394574 0.5135978 0.3941748
v -0.7030423 0.5470454 0.50346
v -0.9023027 0.17806417 0.5545625
v -0.78927046 0.06415838 0.37603724
v -0.5588612 0.48021907 0.32410723
v -0.7030423 0.5470454 0.50346
v -0.65161806 0.58920544 0.52631015
v -0.5346548 0.5905847 0.6423308
v -0.5119886 0.54683846 0.6946747
v -0.65161806 0.58920544 0.52631015
v -0.5722173 0.5615968 0.42911667
v -0.43695563 0.56316 0.563137
v -0.5346548 0.5905847 0.6423308
v -0.5722173 0.5615968 0.42911667
v -0.50274736 0.51817244 0.35452044
v -0.36222142 0.51978153 0.4937591
v -0.36222142 0.51978153 0.4937591
v -0.50274736 0.51817244 0.35452044
v -0.50274736 0.51817244 0.35452044
v -0.86657935 0.066066384 0.47238022
v -0.8022817 0.018113315 0.39939314
v -0.75805265 -0.035310924 0.4782192
v -0.83276385 0.016665041 0.53916043
v -0.9159346 0.14047867 0.5664243
v -0.9023027 0.17806417 0.5545625
v -0.8400511 0.17847794 0.6165152
v -0.8900041 0.113076925 0.6109292
v -0.9159346 0.14047867 0.5664243
v -0.8900041 0.113076925 0.6109292
v -0.8900041 0.113076925 0.6109292
v -0.8400511 0.17847794 0.6165152
v -0.805615 0.065790534 0.5539418
v -0.83276385 0.016665041 0.53916043
v -0.4027264 0.51334494 0.63106674
v -0.33268178 0.47996622 0.55044764
v -0.38417506 0.0637216 0.7814086
v -0.45771378 0.1158815 0.8463039
v -0.40746194 0.01769954 0.7944887
v -0.5626772 0.17769635 0.8944178
v -0.5119886 0.54683846 0.6946747
v -0.43695563 0.56316 0.563137
v -0.36222142 0.51978153 0.4937591
v -0.40746194 0.01769954 0.7944887
v -0.48044902 0.06565261 0.8587864
v -0.48619598 -0.03560978 0.7502827
v -0.5471373 0.016366184 0.8249939
v -0.624607 0.17824805 0.83212024
v -0.5626772 0.17769635 0.8944178
v -0.5745161 0.14011091 0.9080958
v -0.618952 0.112801075 0.88218814
v -0.5745161 0.14011091 0.9080958
v -0.618952 0.112801075 0.88218814
v -0.5619417 0.06553763 0.79777604
v -0.5471373 0.016366184 0.8249939
v -0.48619598 -0.03560978 0.7502827
v -0.624607 0.17824805 0.83212024
v -0.618952 0.112801075 0.88218814
v -0.75805265 -0.035310924 0.4782192
v -0.48619598 -0.03560978 0.7502827
v -0.75805265 -0.035310924 0.4782192
vt 0.92483073 0.13071015
vt 0.931504 0.13321264
vt 0.92483073 0.13321264
vt 0.9406797 0.12904184
vt 0.931504 0.12904184
vt 0.931504 0.12737352
vt 0.9406797 0.12737352
vt 0.97821695 0.16991569
vt 0.973212 0.16991569
vt 0.9707095 0.1674132
vt 0.98071945 0.1674132
vt 0.98071945 0.13654928
vt 0.9707095 0.13654928
vt 0.9707095 0.12737352
vt 0.98071945 0.12737352
vt 0.9406797 0.13321264
vt 0.9465189 0.15573497
vt 0.9465189 0.1632424
vt 0.9406797 0.1632424
vt 0.9406797 0.15573497
vt 0.9707095 0.1549008
vt 0.98071945 0.1549008
vt 0.9465189 0.13321264
vt 0.9465189 0.1423884
vt 0.9406797 0.1423884
vt 0.9707095 0.14572504
vt 0.98071945 0.14572504
vt 0.9465189 0.14906168
vt 0.9406797 0.14906168
vt 0.9465189 0.13071015
vt 0.94902134 0.1423884
vt 0.94902134 0.13321264
vt 0.94902134 0.14906168
vt 0.94902134 0.15573497
vt 0.94902134 0.1632424
vt 0.94902134 0.13071015
vt 0.92483073 0.1423884
vt 0.9231624 0.1423884
vt 0.9231624 0.13321264
vt 0.9231624 0.14906168
vt 0.92483073 0.14906168
vt 0.9231624 0.15573497
vt 0.92483073 0.15573497
vt 0.92483073 0.1632424
vt 0.9231624 0.1632424
vt 0.9231624 0.13071015
vt 0.931504 0.1632424
vt 0.931504 0.15573497
vt 0.931504 0.14906168
vt 0.931504 0.1423884
vt 0.93066984 0.2349802
vt 0.93066984 0.23247771
vt 0.9440164 0.23247771
vt 0.94318223 0.2349802
vt 0.8797861 0.20661874
vt 0.9031426 0.20661874
vt 0.89897174 0.2116237
vt 0.8831227 0.2116237
vt 0.884791 0.18743305
vt 0.89813757 0.18743305
vt 0.9031426 0.20912123
vt 0.9331723 0.1949405
vt 0.9148208 0.1949405
vt 0.9148208 0.18993554
vt 0.9331723 0.1907697
vt 0.9331723 0.1991113
vt 0.9148208 0.1991113
vt 0.9148208 0.18993554
vt 0.9123183 0.18993554
vt 0.9123183 0.17575482
vt 0.9148208 0.17575482
vt 0.9123183 0.18993554
vt 0.90731335 0.18993554
vt 0.90731335 0.17575482
vt 0.9123183 0.17575482
vt 0.9123183 0.1949405
vt 0.9023084 0.18993554
vt 0.9023084 0.17575482
vt 0.8856252 0.18576473
vt 0.8973034 0.18576473
vt 0.9123183 0.1991113
vt 0.9348406 0.1949405
vt 0.9356748 0.1991113
vt 0.9398456 0.1991113
vt 0.93901145 0.1949405
vt 0.9348406 0.1907697
vt 0.9331723 0.1907697
vt 0.9331723 0.18743305
vt 0.93650895 0.18993554
vt 0.9348406 0.1907697
vt 0.93650895 0.18993554
vt 0.94568473 0.23247771
vt 0.94318223 0.2349802
vt 0.9440164 0.23247771
vt 0.9465189 0.22747275
vt 0.9148208 0.17074984
vt 0.9148208 0.16574489
vt 0.9331723 0.16574489
vt 0.9331723 0.17074984
vt 0.8797861 0.20912123
vt 0.9331723 0.17492065
vt 0.9148208 0.17575482
vt 0.9123183 0.17074984
vt 0.9123183 0.16574489
vt 0.9356748 0.16574489
vt 0.9348406 0.16991569
vt 0.9398456 0.16574489
vt 0.93901145 0.17074984
vt 0.9331723 0.17825729
vt 0.9331723 0.17492065
vt 0.9348406 0.17408648
vt 0.93650895 0.17575482
vt 0.9348406 0.17408648
vt 0.93650895 0.17575482
vt 0.93066984 0.23247771
vt 0.92816734 0.22747275
vt 0.9290015 0.22330195
vt 0.93066984 0.2349802
vt 0.92816734 0.23247771
vt 0.94568473 0.22330195
vt 0.9290015 0.22330195
vt 0.94568473 0.22330195
vn -0.34927803 -0.59074175 0.7273438
vn -0.5047143 0.001396656 0.8632853
vn 0.4797158 -0.19104832 0.8563722
vn -0.7267663 -0.59074175 0.35047817
vn -0.34927803 -0.59074175 0.7273438
vn 0.6203487 -0.71657115 -0.31889382
vn 0.3316812 -0.71657115 -0.61360687
vn 0.3316812 -0.71657115 -0.61360687
vn 0.6203487 -0.71657115 -0.31889382
vn 0.7979902 -0.35388637 -0.48782793
vn 0.48711753 -0.35388637 -0.79842407
vn 0.6795625 -0.28727078 -0.6750335
vn 0.6795625 -0.28727078 -0.6750335
vn 0.6795625 -0.28727078 -0.6750335
vn 0.6795625 -0.28727078 -0.6750335
vn -0.86739916 0.001396656 0.49761102
vn -0.85999733 0.016200125 -0.5100413
vn -0.8525956 0.0384053 -0.52115804
vn -0.8525956 0.3344745 0.40150654
vn -0.85999733 0.29006416 0.41984206
vn 0.6795625 -0.28727078 -0.6750335
vn 0.6795625 -0.28727078 -0.6750335
vn -0.85999733 -0.19104832 -0.47318614
vn -0.87480086 -0.080022335 -0.4778283
vn -0.8896043 0.112422645 0.44267976
vn 0.6795625 -0.28727078 -0.6750335
vn 0.6795625 -0.28727078 -0.6750335
vn -0.86739916 -0.035611987 -0.49633706
vn -0.8896043 0.19384164 0.4135573
vn -0.7267663 -0.59074175 0.35047817
vn -0.3270728 -0.25026214 -0.9112586
vn 0.48711753 -0.35388637 -0.79842407
vn -0.3418762 -0.2132535 -0.9152287
vn -0.34927803 -0.18364656 -0.9188464
vn -0.34927803 -0.17624485 -0.9202948
vn 0.3316812 -0.71657115 -0.61360687
vn 0.48711753 -0.080022335 0.8696626
vn 0.9164179 -0.24286044 0.31811485
vn 0.7979902 -0.35388637 -0.48782793
vn 0.9164179 -0.2058518 0.34322482
vn 0.51672447 -0.028210223 0.8556869
vn 0.9238196 -0.18364656 0.33590367
vn 0.5241262 0.016200125 0.8514865
vn 0.5241262 0.0384053 0.8507742
vn 0.9238196 -0.16884309 0.34358308
vn 0.6203487 -0.71657115 -0.31889382
vn -0.4084918 0.3418762 0.8463186
vn -0.4158936 0.29006416 0.86191374
vn -0.4084918 0.19384164 0.8919416
vn -0.43809873 0.11982435 0.89090496
vn -0.60093683 -0.51672447 0.609812
vn -0.5639282 -0.59814346 0.56939393
vn -0.5639282 -0.59814346 0.56939393
vn -0.60093683 -0.51672447 0.609812
vn 0.6351521 -0.43530542 -0.63803685
vn 0.6351521 -0.43530542 -0.63803685
vn 0.6277504 -0.45010886 -0.6350838
vn 0.6277504 -0.45010886 -0.6350838
vn 0.6351521 -0.43530542 -0.63803685
vn 0.6351521 -0.43530542 -0.63803685
vn 0.5685365 -0.49451926 -0.6574321
vn -0.71196276 0.26045722 -0.6521281
vn -0.6527489 0.36408144 -0.66435206
vn -0.71936446 0.4158936 -0.5563697
vn -0.77857834 0.3122694 -0.54433775
vn -0.63054377 0.20124334 -0.7496103
vn -0.5565265 0.3344745 -0.76052946
vn -0.6379455 0.43069702 0.63837737
vn -0.6379455 0.43069702 0.63837737
vn -0.6379455 0.43069702 0.63837737
vn -0.6379455 0.43069702 0.63837737
vn -0.016200125 0.96362156 -0.266779
vn 0.05781716 0.94141644 -0.33225334
vn 0.3316812 0.94141644 -0.06101367
vn 0.2650656 0.96362156 0.034258943
vn 0.05781716 0.94141644 -0.33225334
vn 0.13183445 0.9044078 -0.40579087
vn 0.39829677 0.9044078 -0.15299088
vn 0.6351521 -0.43530542 -0.63803685
vn 0.6351521 -0.43530542 -0.63803685
vn 0.13183445 0.9044078 -0.40579087
vn -0.8525956 -0.4575106 -0.25251687
vn -0.77117664 -0.5315279 -0.35037798
vn -0.6675524 -0.7239729 -0.17388777
vn -0.7479017 -0.6638096 -0
vn -0.6379455 0.43069702 0.63837737
vn -0.6379455 0.43069702 0.63837737
vn -0.6379455 0.43069702 0.63837737
vn -0.6379455 0.43069702 0.63837737
vn -0.9266129 -0.3316812 -0.17713307
vn -0.8229887 -0.5611348 0.08841549
vn 0.35388637 -0.390895 0.84968555
vn 0.35388637 -0.390895 0.84968555
vn 0.35388637 -0.39829677 0.8462412
vn 0.35388637 -0.41310024 0.8391142
vn 0.66475904 0.36408144 0.6523344
vn 0.76098156 0.3344745 0.55590814
vn 0.7461781 0.20124334 0.6346017
vn 0.6499556 0.26045722 0.71394664
vn 0.65735734 -0.49451926 -0.56862295
vn 0.54633135 0.3122694 0.77718073
vn 0.5537331 0.4158936 0.72139597
vn 0.3316812 0.94141644 -0.06101367
vn 0.39829677 0.9044078 -0.15299088
vn 0.36128813 -0.5315279 0.766126
vn 0.2650656 -0.4575106 0.84877807
vn 0.15403968 -0.7239729 0.67240983
vn 0.065218925 -0.66475904 0.7442056
vn -0.6379455 0.43069702 0.63837737
vn -0.6379455 0.43069702 0.63837737
vn -0.6379455 0.43069702 0.63837737
vn -0.6379455 0.43069702 0.63837737
vn 0.17624485 -0.3316812 0.92678225
vn -0.05320877 -0.5611348 0.82601243
vn -0.8451939 -0.39829677 -0.35638025
vn -0.8377922 -0.41310024 -0.3570048
vn -0.8229887 -0.44270715 -0.3559494
vn -0.8525956 -0.390895 -0.34681666
vn -0.8525956 -0.390895 -0.34681666
vn -0.53432125 -0.6499556 0.5404244
vn -0.53432125 -0.6499556 0.5404244
vn 0.36128813 -0.44270715 0.82065904
g VoidShassi_DefaultPart_3_CorpsePart_0
f 3/3/3 2/2/2 1/1/1
f 6/6/6 5/5/5 4/4/4
f 7/7/7 6/6/6 4/4/4
f 10/10/10 9/9/9 8/8/8
f 11/11/11 10/10/10 8/8/8
f 14/14/14 13/13/13 12/12/12
f 15/15/15 14/14/14 12/12/12
f 16/16/16 4/4/4 5/5/5
f 2/2/2 16/16/16 5/5/5
f 19/19/19 18/18/18 17/17/17
f 20/20/20 19/19/19 17/17/17
f 11/11/11 22/22/22 21/21/21
f 10/10/10 11/11/11 21/21/21
f 25/25/25 24/24/24 23/23/23
f 16/16/16 25/25/25 23/23/23
f 26/26/26 21/21/21 22/22/22
f 27/27/27 26/26/26 22/22/22
f 29/29/29 28/28/28 24/24/24
f 25/25/25 29/29/29 24/24/24
f 13/13/13 26/26/26 27/27/27
f 12/12/12 13/13/13 27/27/27
f 20/20/20 17/17/17 28/28/28
f 29/29/29 20/20/20 28/28/28
f 16/16/16 23/23/23 30/30/30
f 23/23/23 24/24/24 31/31/31
f 32/32/32 23/23/23 31/31/31
f 33/33/33 31/31/31 24/24/24
f 28/28/28 33/33/33 24/24/24
f 34/34/34 33/33/33 28/28/28
f 17/17/17 34/34/34 28/28/28
f 18/18/18 35/35/35 34/34/34
f 17/17/17 18/18/18 34/34/34
f 30/30/30 23/23/23 32/32/32
f 36/36/36 30/30/30 32/32/32
f 38/38/38 37/37/37 3/3/3
f 39/39/39 38/38/38 3/3/3
f 37/37/37 38/38/38 40/40/40
f 41/41/41 37/37/37 40/40/40
f 41/41/41 40/40/40 42/42/42
f 43/43/43 41/41/41 42/42/42
f 44/44/44 43/43/43 42/42/42
f 45/45/45 44/44/44 42/42/42
f 39/39/39 3/3/3 1/1/1
f 46/46/46 39/39/39 1/1/1
f 47/47/47 19/19/19 20/20/20
f 48/48/48 47/47/47 20/20/20
f 49/49/49 29/29/29 25/25/25
f 50/50/50 49/49/49 25/25/25
f 48/48/48 20/20/20 29/29/29
f 49/49/49 48/48/48 29/29/29
f 16/16/16 2/2/2 50/50/50
f 25/25/25 16/16/16 50/50/50
f 47/47/47 48/48/48 43/43/43
f 44/44/44 47/47/47 43/43/43
f 50/50/50 2/2/2 3/3/3
f 37/37/37 50/50/50 3/3/3
f 49/49/49 50/50/50 37/37/37
f 41/41/41 49/49/49 37/37/37
f 48/48/48 49/49/49 41/41/41
f 43/43/43 48/48/48 41/41/41
f 53/53/53 52/52/52 51/51/51
f 54/54/54 53/53/53 51/51/51
f 57/57/57 56/56/56 55/55/55
f 58/58/58 57/57/57 55/55/55
f 56/56/56 60/60/60 59/59/59
f 55/55/55 56/56/56 59/59/59
f 61/61/61 56/56/56 57/57/57
f 64/64/64 63/63/63 62/62/62
f 65/65/65 64/64/64 62/62/62
f 67/67/67 66/66/66 62/62/62
f 63/63/63 67/67/67 62/62/62
f 70/70/70 69/69/69 68/68/68
f 71/71/71 70/70/70 68/68/68
f 74/74/74 73/73/73 72/72/72
f 75/75/75 74/74/74 72/72/72
f 72/72/72 76/76/76 63/63/63
f 64/64/64 72/72/72 63/63/63
f 78/78/78 77/77/77 73/73/73
f 74/74/74 78/78/78 73/73/73
f 60/60/60 80/80/80 79/79/79
f 59/59/59 60/60/60 79/79/79
f 81/81/81 67/67/67 63/63/63
f 76/76/76 81/81/81 63/63/63
f 83/83/83 82/82/82 62/62/62
f 66/66/66 83/83/83 62/62/62
f 82/82/82 83/83/83 84/84/84
f 85/85/85 82/82/82 84/84/84
f 88/88/88 87/87/87 86/86/86
f 89/89/89 88/88/88 86/86/86
f 90/90/90 65/65/65 62/62/62
f 82/82/82 90/90/90 62/62/62
f 90/90/90 82/82/82 85/85/85
f 91/91/91 90/90/90 85/85/85
f 94/94/94 93/93/93 92/92/92
f 95/95/95 94/94/94 92/92/92
f 98/98/98 97/97/97 96/96/96
f 99/99/99 98/98/98 96/96/96
f 58/58/58 55/55/55 100/100/100
f 101/101/101 99/99/99 96/96/96
f 102/102/102 101/101/101 96/96/96
f 87/87/87 88/88/88 68/68/68
f 96/96/96 103/103/103 75/75/75
f 102/102/102 96/96/96 75/75/75
f 96/96/96 97/97/97 104/104/104
f 103/103/103 96/96/96 104/104/104
f 99/99/99 106/106/106 105/105/105
f 98/98/98 99/99/99 105/105/105
f 106/106/106 108/108/108 107/107/107
f 105/105/105 106/106/106 107/107/107
f 111/111/111 110/110/110 109/109/109
f 112/112/112 111/111/111 109/109/109
f 99/99/99 101/101/101 113/113/113
f 106/106/106 99/99/99 113/113/113
f 108/108/108 106/106/106 113/113/113
f 114/114/114 108/108/108 113/113/113
f 117/117/117 116/116/116 115/115/115
f 119/119/119 118/118/118 115/115/115
f 116/116/116 119/119/119 115/115/115
f 52/52/52 53/53/53 120/120/120
f 121/121/121 52/52/52 120/120/120
f 95/95/95 122/122/122 94/94/94
f 71/71/71 109/109/109 110/110/110
f 88/88/88 109/109/109 71/71/71
f 68/68/68 88/88/88 71/71/71
