g VoidShassi_CustomizePart_3_CorpsePart
v -0.71609956 -0.5766795 0.80416673
v -0.72950155 -0.46585417 0.8281663
v -0.6463538 -0.49031344 0.8373385
v -0.8106263 -0.5766795 0.70963985
v -0.71609956 -0.5766795 0.80416673
v -0.6855714 -0.5905873 0.7551562
v -0.7620526 -0.5905873 0.678675
v -0.7620526 -0.5905873 0.678675
v -0.6855714 -0.5905873 0.7551562
v -0.63341147 -0.5133245 0.77460414
v -0.78173035 -0.51334745 0.62630814
v -0.7163294 0.029492378 0.46196657
v -0.4722423 0.029492378 0.7060537
v -0.43169135 0.1924547 0.6776405
v -0.68860584 0.1924547 0.420726
v -0.83435005 -0.46585417 0.7234327
v -0.7756615 0.04438865 0.48173636
v -0.7480069 0.20735097 0.44042677
v -0.76497215 0.23537338 0.5566544
v -0.80697125 0.07174444 0.6099637
v -0.56660825 -0.3085929 0.75476545
v -0.7631101 -0.3085929 0.5582636
v -0.8443039 -0.49035943 0.6394344
v -0.8237526 -0.29369664 0.5767459
v -0.8373845 -0.27135223 0.6932494
v -0.7631101 -0.3085929 0.5582636
v -0.56660825 -0.3085929 0.75476545
v -0.51775855 -0.1413778 0.73283476
v -0.742145 -0.1413778 0.5084484
v -0.8237526 -0.29369664 0.5767459
v -0.80209786 -0.12645856 0.5276205
v -0.83053404 -0.09625226 0.6552271
v -0.8373845 -0.27135223 0.6932494
v -0.742145 -0.1413778 0.5084484
v -0.51775855 -0.1413778 0.73283476
v -0.80209786 -0.12645856 0.5276205
v -0.83053404 -0.09625226 0.6552271
v -0.8106263 -0.5766795 0.70963985
v -0.7631101 -0.3085929 0.5582636
v -0.78173035 -0.51334745 0.62630814
v -0.7631101 -0.3085929 0.5582636
v -0.742145 -0.1413778 0.5084484
v -0.742145 -0.1413778 0.5084484
v -0.7163294 0.029492378 0.46196657
v -0.68860584 0.1924547 0.420726
v -0.7620526 -0.5905873 0.678675
v -0.5848147 -0.29369664 0.8156838
v -0.56660825 -0.3085929 0.75476545
v -0.63341147 -0.5133245 0.77460414
v -0.51775855 -0.1413778 0.73283476
v -0.56660825 -0.3085929 0.75476545
v -0.5848147 -0.29369664 0.8156838
v -0.53660876 -0.12645856 0.7931095
v -0.4722423 0.029492378 0.7060537
v -0.51775855 -0.1413778 0.73283476
v -0.53660876 -0.12645856 0.7931095
v -0.4916672 0.04438865 0.7657307
v -0.45104724 0.20735097 0.7373864
v -0.43169135 0.1924547 0.6776405
v -0.6855714 -0.5905873 0.7551562
v -0.5662864 0.23535037 0.7552481
v -0.61869913 0.07169843 0.7980979
v -0.6629742 -0.096505135 0.822856
v -0.69998485 -0.27135223 0.830695
v -0.6629742 -0.096505135 0.822856
v -0.69998485 -0.27135223 0.830695
v -0.624607 0.17824805 0.83212024
v -0.5619417 0.06553763 0.79777604
v -0.805615 0.065790534 0.5539418
v -0.8400511 0.17847794 0.6165152
v -0.38417506 0.0637216 0.7814086
v -0.78927046 0.06415838 0.37603724
v -0.75805265 -0.035310924 0.4782192
v -0.48619598 -0.03560978 0.7502827
v -0.33268178 0.47996622 0.55044764
v -0.5588612 0.48021907 0.32410723
v -0.78927046 0.06415838 0.37603724
v -0.38417506 0.0637216 0.7814086
v -0.8022817 0.018113315 0.39939314
v -0.8541427 0.116318285 0.44957608
v -0.6394574 0.5135978 0.3941748
v -0.7030423 0.5470454 0.50346
v -0.9023027 0.17806417 0.5545625
v -0.78927046 0.06415838 0.37603724
v -0.5588612 0.48021907 0.32410723
v -0.7030423 0.5470454 0.50346
v -0.65161806 0.58920544 0.52631015
v -0.5346548 0.5905847 0.6423308
v -0.5119886 0.54683846 0.6946747
v -0.65161806 0.58920544 0.52631015
v -0.5722173 0.5615968 0.42911667
v -0.43695563 0.56316 0.563137
v -0.5346548 0.5905847 0.6423308
v -0.5722173 0.5615968 0.42911667
v -0.50274736 0.51817244 0.35452044
v -0.36222142 0.51978153 0.4937591
v -0.36222142 0.51978153 0.4937591
v -0.50274736 0.51817244 0.35452044
v -0.5588612 0.48021907 0.32410723
v -0.33268178 0.47996622 0.55044764
v -0.50274736 0.51817244 0.35452044
v -0.86657935 0.066066384 0.47238022
v -0.8022817 0.018113315 0.39939314
v -0.75805265 -0.035310924 0.4782192
v -0.83276385 0.016665041 0.53916043
v -0.9159346 0.14047867 0.5664243
v -0.9023027 0.17806417 0.5545625
v -0.8400511 0.17847794 0.6165152
v -0.8900041 0.113076925 0.6109292
v -0.9159346 0.14047867 0.5664243
v -0.8900041 0.113076925 0.6109292
v -0.8900041 0.113076925 0.6109292
v -0.8400511 0.17847794 0.6165152
v -0.805615 0.065790534 0.5539418
v -0.83276385 0.016665041 0.53916043
v -0.4027264 0.51334494 0.63106674
v -0.33268178 0.47996622 0.55044764
v -0.38417506 0.0637216 0.7814086
v -0.45771378 0.1158815 0.8463039
v -0.40746194 0.01769954 0.7944887
v -0.5626772 0.17769635 0.8944178
v -0.5119886 0.54683846 0.6946747
v -0.43695563 0.56316 0.563137
v -0.36222142 0.51978153 0.4937591
v -0.40746194 0.01769954 0.7944887
v -0.48044902 0.06565261 0.8587864
v -0.48619598 -0.03560978 0.7502827
v -0.5471373 0.016366184 0.8249939
v -0.624607 0.17824805 0.83212024
v -0.5626772 0.17769635 0.8944178
v -0.5745161 0.14011091 0.9080958
v -0.618952 0.11277807 0.88218814
v -0.5745161 0.14011091 0.9080958
v -0.618952 0.11277807 0.88218814
v -0.5619417 0.06553763 0.79777604
v -0.5471373 0.016366184 0.8249939
v -0.48619598 -0.03560978 0.7502827
v -0.624607 0.17824805 0.83212024
v -0.618952 0.11277807 0.88218814
v -0.75805265 -0.035310924 0.4782192
v -0.48619598 -0.03560978 0.7502827
v -0.75805265 -0.035310924 0.4782192
vt 0.48218563 -0.05637107
vt 0.47896078 -0.029765721
vt 0.45719275 -0.03863417
vt 0.5208844 -0.054758623
vt 0.48218563 -0.05637107
vt 0.48137942 -0.07007685
vt 0.5224968 -0.067658186
vt 0.25724953 0.56361413
vt 0.2886922 0.56361413
vt 0.30320424 0.58296347
vt 0.24273753 0.58296347
vt 0.4692861 0.3548025
vt 0.37898916 0.3548025
vt 0.37898916 0.309654
vt 0.4692861 0.309654
vt 0.5208844 -0.028153274
vt 0.43139365 0.11132324
vt 0.43139365 0.066174775
vt 0.465255 0.066174775
vt 0.465255 0.11132324
vt 0.31207266 0.63294923
vt 0.23145041 0.63294923
vt 0.5442648 -0.036215503
vt 0.566839 0.01135163
vt 0.52975273 0.01135163
vt 0.5918319 0.01135163
vt 0.6829351 0.01135163
vt 0.6829351 0.06536855
vt 0.5918319 0.06536855
vt 0.5716764 0.01135163
vt 0.5716764 0.06536855
vt 0.5329777 0.06536855
vt 0.5329777 0.01135163
vt 0.4692861 0.40156338
vt 0.37898916 0.40156338
vt 0.43139365 0.15808415
vt 0.465255 0.15808415
vt 0.5208844 -0.054758623
vt 0.5861883 0.01135163
vt 0.5555519 -0.05072751
vt 0.5918319 0.01135163
vt 0.5918319 0.06536855
vt 0.41446295 0.15808415
vt 0.41446295 0.11132324
vt 0.41446295 0.066174775
vt 0.5224968 -0.067658186
vt 0.43139365 0.01135163
vt 0.4128505 0.01135163
vt 0.44671187 -0.0539524
vt 0.4088194 0.06536855
vt 0.4088194 0.01135163
vt 0.42897496 0.01135163
vt 0.42897496 0.06536855
vt 0.5853821 0.11132324
vt 0.5853821 0.15808415
vt 0.5684515 0.15808415
vt 0.5684515 0.11132324
vt 0.5684515 0.066174775
vt 0.5853821 0.066174775
vt 0.48137942 -0.07007685
vt 0.5345901 0.066174775
vt 0.5345901 0.11132324
vt 0.46686742 0.06536855
vt 0.46686742 0.01135163
vt 0.5345901 0.15808415
vt 0.46847984 0.01135163
vt 0.45799896 0.6426239
vt 0.4523554 0.606344
vt 0.54748964 0.6071502
vt 0.54103994 0.64343023
vt 0.22741929 0.4233314
vt 0.22741929 0.27176154
vt 0.25724953 0.29675445
vt 0.25724953 0.3983385
vt 0.2983669 0.75468886
vt 0.23548153 0.75468886
vt 0.21129486 0.664392
vt 0.3233598 0.664392
vt 0.24193132 0.273374
vt 0.3548025 0.5047599
vt 0.46041766 0.5047599
vt 0.46041766 0.5345901
vt 0.3548025 0.5345901
vt 0.3548025 0.479767
vt 0.46041766 0.479767
vt 0.537815 0.29756066
vt 0.5224968 0.31126645
vt 0.47573587 0.31046024
vt 0.46041766 0.29594824
vt 0.47896078 0.5345901
vt 0.47896078 0.5047599
vt 0.5224968 0.5047599
vt 0.5224968 0.5345901
vt 0.47896078 0.5047599
vt 0.47896078 0.479767
vt 0.5224968 0.479767
vt 0.2233882 0.29030466
vt 0.2233882 0.34270912
vt 0.21210107 0.35883358
vt 0.21210107 0.2741802
vt 0.47896078 0.479767
vt 0.34270912 0.5047599
vt 0.34270912 0.479767
vt 0.3233598 0.479767
vt 0.3233598 0.5047599
vt 0.57087016 0.16937128
vt 0.57006395 0.1806584
vt 0.545071 0.1806584
vt 0.5571643 0.1596966
vt 0.34270912 0.5345901
vt 0.3233598 0.5345901
vt 0.5620017 0.6345618
vt 0.54103994 0.64343023
vt 0.54748964 0.6071502
vt 0.5611955 0.59828174
vt 0.54103994 0.5047599
vt 0.54103994 0.479767
vt 0.6466551 0.479767
vt 0.6466551 0.5047599
vt 0.24193132 0.42171896
vt 0.6466551 0.5345901
vt 0.54103994 0.5345901
vt 0.5224968 0.5047599
vt 0.5224968 0.479767
vt 0.6587484 0.479767
vt 0.6587484 0.5047599
vt 0.67890394 0.479767
vt 0.67890394 0.5047599
vt 0.45799896 0.17904595
vt 0.43300608 0.17823972
vt 0.43219987 0.16614638
vt 0.44671187 0.15808415
vt 0.6587484 0.5345901
vt 0.67890394 0.5345901
vt 0.4523554 0.606344
vt 0.43864962 0.59828174
vt 0.44751808 0.57006395
vt 0.45799896 0.6426239
vt 0.4378434 0.6345618
vt 0.55232704 0.57006395
vt 0.44751808 0.57006395
vt 0.55232704 0.57006395
vn -0.34927803 -0.59074175 0.7273438
vn -0.5047143 0.001396656 0.8632853
vn 0.4797158 -0.19104832 0.8563722
vn -0.7267663 -0.59074175 0.35047817
vn -0.34927803 -0.59074175 0.7273438
vn 0.6203487 -0.71657115 -0.31889382
vn 0.3316812 -0.71657115 -0.61360687
vn 0.3316812 -0.71657115 -0.61360687
vn 0.6203487 -0.71657115 -0.31889382
vn 0.7979902 -0.35388637 -0.48782793
vn 0.48711753 -0.35388637 -0.79842407
vn 0.6795625 -0.28727078 -0.6750335
vn 0.6795625 -0.28727078 -0.6750335
vn 0.6795625 -0.28727078 -0.6750335
vn 0.6795625 -0.28727078 -0.6750335
vn -0.86739916 0.001396656 0.49761102
vn -0.85999733 0.016200125 -0.5100413
vn -0.8525956 0.0384053 -0.52115804
vn -0.8525956 0.3344745 0.40150654
vn -0.85999733 0.29006416 0.41984206
vn 0.6795625 -0.28727078 -0.6750335
vn 0.6795625 -0.28727078 -0.6750335
vn -0.85999733 -0.19104832 -0.47318614
vn -0.87480086 -0.080022335 -0.4778283
vn -0.8896043 0.112422645 0.44267976
vn 0.6795625 -0.28727078 -0.6750335
vn 0.6795625 -0.28727078 -0.6750335
vn 0.6795625 -0.28727078 -0.6750335
vn 0.6795625 -0.28727078 -0.6750335
vn -0.87480086 -0.080022335 -0.4778283
vn -0.86739916 -0.035611987 -0.49633706
vn -0.8896043 0.19384164 0.4135573
vn -0.8896043 0.112422645 0.44267976
vn 0.6795625 -0.28727078 -0.6750335
vn 0.6795625 -0.28727078 -0.6750335
vn -0.86739916 -0.035611987 -0.49633706
vn -0.8896043 0.19384164 0.4135573
vn -0.7267663 -0.59074175 0.35047817
vn -0.3270728 -0.25026214 -0.9112586
vn 0.48711753 -0.35388637 -0.79842407
vn -0.3270728 -0.25026214 -0.9112586
vn -0.3418762 -0.2132535 -0.9152287
vn -0.3418762 -0.2132535 -0.9152287
vn -0.34927803 -0.18364656 -0.9188464
vn -0.34927803 -0.17624485 -0.9202948
vn 0.3316812 -0.71657115 -0.61360687
vn 0.48711753 -0.080022335 0.8696626
vn 0.9164179 -0.24286044 0.31811485
vn 0.7979902 -0.35388637 -0.48782793
vn 0.9164179 -0.2058518 0.34322482
vn 0.9164179 -0.24286044 0.31811485
vn 0.48711753 -0.080022335 0.8696626
vn 0.51672447 -0.028210223 0.8556869
vn 0.9238196 -0.18364656 0.33590367
vn 0.9164179 -0.2058518 0.34322482
vn 0.51672447 -0.028210223 0.8556869
vn 0.5241262 0.016200125 0.8514865
vn 0.5241262 0.0384053 0.8507742
vn 0.9238196 -0.16884309 0.34358308
vn 0.6203487 -0.71657115 -0.31889382
vn -0.4084918 0.3418762 0.8463186
vn -0.4158936 0.29006416 0.86191374
vn -0.4084918 0.19384164 0.8919416
vn -0.43809873 0.11982435 0.89090496
vn -0.4084918 0.19384164 0.8919416
vn -0.43809873 0.11982435 0.89090496
vn -0.60093683 -0.51672447 0.609812
vn -0.5639282 -0.59814346 0.56939393
vn -0.5639282 -0.59814346 0.56939393
vn -0.60093683 -0.51672447 0.609812
vn 0.6351521 -0.43530542 -0.63803685
vn 0.6351521 -0.43530542 -0.63803685
vn 0.6277504 -0.45010886 -0.6350838
vn 0.6277504 -0.45010886 -0.6350838
vn 0.6351521 -0.43530542 -0.63803685
vn 0.6351521 -0.43530542 -0.63803685
vn 0.6351521 -0.43530542 -0.63803685
vn 0.6351521 -0.43530542 -0.63803685
vn 0.5685365 -0.49451926 -0.6574321
vn -0.71196276 0.26045722 -0.6521281
vn -0.6527489 0.36408144 -0.66435206
vn -0.71936446 0.4158936 -0.5563697
vn -0.77857834 0.3122694 -0.54433775
vn -0.63054377 0.20124334 -0.7496103
vn -0.5565265 0.3344745 -0.76052946
vn -0.6379455 0.43069702 0.63837737
vn -0.6379455 0.43069702 0.63837737
vn -0.6379455 0.43069702 0.63837737
vn -0.6379455 0.43069702 0.63837737
vn -0.016200125 0.96362156 -0.266779
vn 0.05781716 0.94141644 -0.33225334
vn 0.3316812 0.94141644 -0.06101367
vn 0.2650656 0.96362156 0.034258943
vn 0.05781716 0.94141644 -0.33225334
vn 0.13183445 0.9044078 -0.40579087
vn 0.39829677 0.9044078 -0.15299088
vn 0.6351521 -0.43530542 -0.63803685
vn 0.6351521 -0.43530542 -0.63803685
vn 0.6351521 -0.43530542 -0.63803685
vn 0.6351521 -0.43530542 -0.63803685
vn 0.13183445 0.9044078 -0.40579087
vn -0.8525956 -0.4575106 -0.25251687
vn -0.77117664 -0.5315279 -0.35037798
vn -0.6675524 -0.7239729 -0.17388777
vn -0.7479017 -0.6638096 -0
vn -0.6379455 0.43069702 0.63837737
vn -0.6379455 0.43069702 0.63837737
vn -0.6379455 0.43069702 0.63837737
vn -0.6379455 0.43069702 0.63837737
vn -0.9266129 -0.3316812 -0.17713307
vn -0.8229887 -0.5611348 0.08841549
vn 0.35388637 -0.390895 0.84968555
vn 0.35388637 -0.390895 0.84968555
vn 0.35388637 -0.39829677 0.8462412
vn 0.35388637 -0.41310024 0.8391142
vn 0.66475904 0.36408144 0.6523344
vn 0.76098156 0.3344745 0.55590814
vn 0.7461781 0.20124334 0.6346017
vn 0.6499556 0.26045722 0.71394664
vn 0.65735734 -0.49451926 -0.56862295
vn 0.54633135 0.3122694 0.77718073
vn 0.5537331 0.4158936 0.72139597
vn 0.3316812 0.94141644 -0.06101367
vn 0.39829677 0.9044078 -0.15299088
vn 0.36128813 -0.5315279 0.766126
vn 0.2650656 -0.4575106 0.84877807
vn 0.15403968 -0.7239729 0.67240983
vn 0.065218925 -0.66475904 0.7442056
vn -0.6379455 0.43069702 0.63837737
vn -0.6379455 0.43069702 0.63837737
vn -0.6379455 0.43069702 0.63837737
vn -0.6379455 0.43069702 0.63837737
vn 0.17624485 -0.3316812 0.92678225
vn -0.05320877 -0.5611348 0.82601243
vn -0.8451939 -0.39829677 -0.35638025
vn -0.8377922 -0.41310024 -0.3570048
vn -0.8229887 -0.44270715 -0.3559494
vn -0.8525956 -0.390895 -0.34681666
vn -0.8525956 -0.390895 -0.34681666
vn -0.53432125 -0.6499556 0.5404244
vn -0.53432125 -0.6499556 0.5404244
vn 0.36128813 -0.44270715 0.82065904
g VoidShassi_CustomizePart_3_CorpsePart_0
f 3/3/3 2/2/2 1/1/1
f 6/6/6 5/5/5 4/4/4
f 7/7/7 6/6/6 4/4/4
f 10/10/10 9/9/9 8/8/8
f 11/11/11 10/10/10 8/8/8
f 14/14/14 13/13/13 12/12/12
f 15/15/15 14/14/14 12/12/12
f 16/16/16 4/4/4 5/5/5
f 2/2/2 16/16/16 5/5/5
f 19/19/19 18/18/18 17/17/17
f 20/20/20 19/19/19 17/17/17
f 11/11/11 22/22/22 21/21/21
f 10/10/10 11/11/11 21/21/21
f 25/25/25 24/24/24 23/23/23
f 16/16/16 25/25/25 23/23/23
f 28/28/28 27/27/27 26/26/26
f 29/29/29 28/28/28 26/26/26
f 32/32/32 31/31/31 30/30/30
f 33/33/33 32/32/32 30/30/30
f 13/13/13 35/35/35 34/34/34
f 12/12/12 13/13/13 34/34/34
f 20/20/20 17/17/17 36/36/36
f 37/37/37 20/20/20 36/36/36
f 16/16/16 23/23/23 38/38/38
f 23/23/23 24/24/24 39/39/39
f 40/40/40 23/23/23 39/39/39
f 42/42/42 41/41/41 30/30/30
f 31/31/31 42/42/42 30/30/30
f 44/44/44 43/43/43 36/36/36
f 17/17/17 44/44/44 36/36/36
f 18/18/18 45/45/45 44/44/44
f 17/17/17 18/18/18 44/44/44
f 38/38/38 23/23/23 40/40/40
f 46/46/46 38/38/38 40/40/40
f 48/48/48 47/47/47 3/3/3
f 49/49/49 48/48/48 3/3/3
f 52/52/52 51/51/51 50/50/50
f 53/53/53 52/52/52 50/50/50
f 56/56/56 55/55/55 54/54/54
f 57/57/57 56/56/56 54/54/54
f 58/58/58 57/57/57 54/54/54
f 59/59/59 58/58/58 54/54/54
f 49/49/49 3/3/3 1/1/1
f 60/60/60 49/49/49 1/1/1
f 61/61/61 19/19/19 20/20/20
f 62/62/62 61/61/61 20/20/20
f 63/63/63 32/32/32 33/33/33
f 64/64/64 63/63/63 33/33/33
f 62/62/62 20/20/20 37/37/37
f 65/65/65 62/62/62 37/37/37
f 16/16/16 2/2/2 66/66/66
f 25/25/25 16/16/16 66/66/66
f 61/61/61 62/62/62 57/57/57
f 58/58/58 61/61/61 57/57/57
f 66/66/66 2/2/2 3/3/3
f 47/47/47 66/66/66 3/3/3
f 63/63/63 64/64/64 52/52/52
f 53/53/53 63/63/63 52/52/52
f 62/62/62 65/65/65 56/56/56
f 57/57/57 62/62/62 56/56/56
f 69/69/69 68/68/68 67/67/67
f 70/70/70 69/69/69 67/67/67
f 73/73/73 72/72/72 71/71/71
f 74/74/74 73/73/73 71/71/71
f 77/77/77 76/76/76 75/75/75
f 78/78/78 77/77/77 75/75/75
f 79/79/79 72/72/72 73/73/73
f 82/82/82 81/81/81 80/80/80
f 83/83/83 82/82/82 80/80/80
f 85/85/85 84/84/84 80/80/80
f 81/81/81 85/85/85 80/80/80
f 88/88/88 87/87/87 86/86/86
f 89/89/89 88/88/88 86/86/86
f 92/92/92 91/91/91 90/90/90
f 93/93/93 92/92/92 90/90/90
f 90/90/90 94/94/94 81/81/81
f 82/82/82 90/90/90 81/81/81
f 96/96/96 95/95/95 91/91/91
f 92/92/92 96/96/96 91/91/91
f 99/99/99 98/98/98 97/97/97
f 100/100/100 99/99/99 97/97/97
f 101/101/101 85/85/85 81/81/81
f 94/94/94 101/101/101 81/81/81
f 103/103/103 102/102/102 80/80/80
f 84/84/84 103/103/103 80/80/80
f 102/102/102 103/103/103 104/104/104
f 105/105/105 102/102/102 104/104/104
f 108/108/108 107/107/107 106/106/106
f 109/109/109 108/108/108 106/106/106
f 110/110/110 83/83/83 80/80/80
f 102/102/102 110/110/110 80/80/80
f 110/110/110 102/102/102 105/105/105
f 111/111/111 110/110/110 105/105/105
f 114/114/114 113/113/113 112/112/112
f 115/115/115 114/114/114 112/112/112
f 118/118/118 117/117/117 116/116/116
f 119/119/119 118/118/118 116/116/116
f 74/74/74 71/71/71 120/120/120
f 121/121/121 119/119/119 116/116/116
f 122/122/122 121/121/121 116/116/116
f 107/107/107 108/108/108 86/86/86
f 116/116/116 123/123/123 93/93/93
f 122/122/122 116/116/116 93/93/93
f 116/116/116 117/117/117 124/124/124
f 123/123/123 116/116/116 124/124/124
f 119/119/119 126/126/126 125/125/125
f 118/118/118 119/119/119 125/125/125
f 126/126/126 128/128/128 127/127/127
f 125/125/125 126/126/126 127/127/127
f 131/131/131 130/130/130 129/129/129
f 132/132/132 131/131/131 129/129/129
f 119/119/119 121/121/121 133/133/133
f 126/126/126 119/119/119 133/133/133
f 128/128/128 126/126/126 133/133/133
f 134/134/134 128/128/128 133/133/133
f 137/137/137 136/136/136 135/135/135
f 139/139/139 138/138/138 135/135/135
f 136/136/136 139/139/139 135/135/135
f 68/68/68 69/69/69 140/140/140
f 141/141/141 68/68/68 140/140/140
f 115/115/115 142/142/142 114/114/114
f 89/89/89 129/129/129 130/130/130
f 108/108/108 129/129/129 89/89/89
f 86/86/86 108/108/108 89/89/89
