g VoidShassi_12
v -0.40803397 0.5715815 -0.72751313
v -0.44673562 0.67488503 -0.76619005
v -0.17649233 0.75251126 -0.5452709
v -0.15398443 0.6924654 -0.5227878
v -0.11602551 0.75251126 -0.6057377
v -0.34271395 0.67488503 -0.8702117
v -0.3040123 0.5715815 -0.83151
v -0.0935176 0.6924654 -0.5832546
v -0.34271395 0.67488503 -0.8702117
v -0.11602551 0.75251126 -0.6057377
v -0.17649233 0.75251126 -0.5452709
v -0.44673562 0.67488503 -0.76619005
v -0.3040123 0.5715815 -0.83151
v -0.40803397 0.5715815 -0.72751313
v -0.15398443 0.6924654 -0.5227878
v -0.0935176 0.6924654 -0.5832546
vt 0.89417356 0.166229
vt 0.8898747 0.166229
vt 0.8898747 0.17984213
vt 0.89417356 0.17984213
vt 0.8841428 0.17984213
vt 0.8841428 0.166229
vt 0.87984395 0.166229
vt 0.87984395 0.17984213
vt 0.8841428 0.166229
vt 0.8841428 0.17984213
vt 0.8898747 0.17984213
vt 0.8898747 0.166229
vt 0.89918894 0.166229
vt 0.89417356 0.166229
vt 0.89417356 0.17984213
vt 0.89918894 0.17984213
vn -0.638337 0.045690358 0.7683998
vn -0.638337 0.045690358 0.7683998
vn -0.638337 0.045690358 0.7683998
vn -0.638337 0.045690358 0.7683998
vn 0.7570084 0.038188457 -0.65228826
vn 0.7570084 0.038188457 -0.65228826
vn 0.7570084 0.038188457 -0.65228826
vn 0.7570084 0.038188457 -0.65228826
vn -0.1507163 0.9759207 -0.15768139
vn -0.1507163 0.9759207 -0.15768139
vn -0.1507163 0.9759207 -0.15768139
vn -0.1507163 0.9759207 -0.15768139
vn 0.24688208 -0.93705297 0.24694327
vn 0.24688208 -0.93705297 0.24694327
vn 0.24688208 -0.93705297 0.24694327
vn 0.24688208 -0.93705297 0.24694327
g VoidShassi_12_0
f 3/3/3 2/2/2 1/1/1
f 4/4/4 3/3/3 1/1/1
f 7/7/7 6/6/6 5/5/5
f 8/8/8 7/7/7 5/5/5
f 11/11/11 10/10/10 9/9/9
f 12/12/12 11/11/11 9/9/9
f 15/15/15 14/14/14 13/13/13
f 16/16/16 15/15/15 13/13/13
