g VoidShassi_CustomizePart_4_CorpsePart
v -0.71609414 -0.57666206 -0.8041685
v -0.6463727 -0.49032435 -0.83734536
v -0.7295096 -0.4658592 -0.82816046
v -0.8106426 -0.57668996 -0.70962
v -0.76204634 -0.59057856 -0.6786698
v -0.6855614 -0.59057856 -0.7551547
v -0.71609414 -0.57666206 -0.8041685
v -0.76204634 -0.59057856 -0.6786698
v -0.7817242 -0.51334214 -0.62628824
v -0.63343036 -0.51334214 -0.7746099
v -0.6855614 -0.59057856 -0.7551547
v -0.7163168 0.029483497 -0.46196258
v -0.6885952 0.1924454 -0.42071417
v -0.43166935 0.1924454 -0.67763996
v -0.47222197 0.029483497 -0.7060574
v -0.8343563 -0.4658592 -0.723453
v -0.7756566 0.044401944 -0.4817518
v -0.8069687 0.07173389 -0.6099503
v -0.76496875 0.23536372 -0.5566502
v -0.7480185 0.20736384 -0.44044772
v -0.5666034 -0.3086031 -0.75476503
v -0.76313186 -0.3086031 -0.5582645
v -0.84429264 -0.49035218 -0.6394254
v -0.83739007 -0.27136266 -0.69325423
v -0.8237519 -0.29368466 -0.5767456
v -0.76313186 -0.3086031 -0.5582645
v -0.7421458 -0.14138287 -0.5084436
v -0.5177567 -0.14138287 -0.7328327
v -0.5666034 -0.3086031 -0.75476503
v -0.8237519 -0.29368466 -0.5767456
v -0.83739007 -0.27136266 -0.69325423
v -0.83054316 -0.09623784 -0.6552067
v -0.8020979 -0.12646443 -0.52762043
v -0.7421458 -0.14138287 -0.5084436
v -0.5177567 -0.14138287 -0.7328327
v -0.8020979 -0.12646443 -0.52762043
v -0.83054316 -0.09623784 -0.6552067
v -0.8106426 -0.57668996 -0.70962
v -0.76313186 -0.3086031 -0.5582645
v -0.7817242 -0.51334214 -0.62628824
v -0.7421458 -0.14138287 -0.5084436
v -0.76313186 -0.3086031 -0.5582645
v -0.7163168 0.029483497 -0.46196258
v -0.7421458 -0.14138287 -0.5084436
v -0.6885952 0.1924454 -0.42071417
v -0.76204634 -0.59057856 -0.6786698
v -0.63343036 -0.51334214 -0.7746099
v -0.5666034 -0.3086031 -0.75476503
v -0.5848062 -0.29368466 -0.81569135
v -0.5177567 -0.14138287 -0.7328327
v -0.5365995 -0.12646443 -0.79311883
v -0.5848062 -0.29368466 -0.81569135
v -0.5666034 -0.3086031 -0.75476503
v -0.47222197 0.029483497 -0.7060574
v -0.49167717 0.044401944 -0.7657312
v -0.5365995 -0.12646443 -0.79311883
v -0.5177567 -0.14138287 -0.7328327
v -0.43166935 0.1924454 -0.67763996
v -0.451069 0.20736384 -0.7373973
v -0.6855614 -0.59057856 -0.7551547
v -0.6186789 0.07170606 -0.79810095
v -0.5662973 0.23536372 -0.7552382
v -0.6999788 -0.27136266 -0.8306933
v -0.6629611 -0.09651619 -0.8228722
v -0.6629611 -0.09651619 -0.8228722
v -0.6999788 -0.27136266 -0.8306933
v -0.6246073 0.17825055 -0.83214056
v -0.840062 0.17847323 -0.61651886
v -0.8056048 0.065805495 -0.5539226
v -0.56195533 0.06552714 -0.7977669
v -0.3841586 0.06371802 -0.781429
v -0.48619413 -0.03561771 -0.75028396
v -0.7580662 -0.03531158 -0.478217
v -0.78926694 0.06413549 -0.3760423
v -0.33269548 0.4799595 -0.5504435
v -0.3841586 0.06371802 -0.781429
v -0.78926694 0.06413549 -0.3760423
v -0.5588381 0.48021007 -0.32410604
v -0.8022649 0.01812768 -0.39939415
v -0.8541455 0.11632228 -0.4495769
v -0.9022964 0.17805576 -0.55456275
v -0.7030405 0.5470648 -0.5034615
v -0.6394422 0.51358175 -0.39416158
v -0.5588381 0.48021007 -0.32410604
v -0.78926694 0.06413549 -0.3760423
v -0.7030405 0.5470648 -0.5034615
v -0.5119952 0.5468421 -0.6946737
v -0.5346513 0.5905955 -0.64232
v -0.65160525 0.58920383 -0.52631235
v -0.65160525 0.58920383 -0.52631235
v -0.5346513 0.5905955 -0.64232
v -0.43695772 0.5631522 -0.56313527
v -0.5721979 0.5616214 -0.42911974
v -0.5721979 0.5616214 -0.42911974
v -0.36222625 0.5197885 -0.4937478
v -0.5027269 0.5181742 -0.35452747
v -0.36222625 0.5197885 -0.4937478
v -0.33269548 0.4799595 -0.5504435
v -0.5588381 0.48021007 -0.32410604
v -0.5027269 0.5181742 -0.35452747
v -0.5027269 0.5181742 -0.35452747
v -0.8022649 0.01812768 -0.39939415
v -0.8665868 0.06608385 -0.4723721
v -0.7580662 -0.03531158 -0.478217
v -0.83276975 0.01668036 -0.5391711
v -0.91593456 0.14048123 -0.5664196
v -0.88999426 0.113093615 -0.6109245
v -0.840062 0.17847323 -0.61651886
v -0.9022964 0.17805576 -0.55456275
v -0.91593456 0.14048123 -0.5664196
v -0.88999426 0.113093615 -0.6109245
v -0.88999426 0.113093615 -0.6109245
v -0.83276975 0.01668036 -0.5391711
v -0.8056048 0.065805495 -0.5539226
v -0.840062 0.17847323 -0.61651886
v -0.4027232 0.5133312 -0.63104767
v -0.457721 0.11587691 -0.8463076
v -0.3841586 0.06371802 -0.781429
v -0.33269548 0.4799595 -0.5504435
v -0.40748262 0.017710209 -0.79448265
v -0.5119952 0.5468421 -0.6946737
v -0.56267905 0.17769384 -0.8944307
v -0.43695772 0.5631522 -0.56313527
v -0.36222625 0.5197885 -0.4937478
v -0.40748262 0.017710209 -0.79448265
v -0.48043275 0.06566632 -0.8587767
v -0.48619413 -0.03561771 -0.75028396
v -0.5471482 0.01637423 -0.82501537
v -0.6246073 0.17825055 -0.83214056
v -0.61895716 0.112787485 -0.8821842
v -0.5745081 0.14011943 -0.9080967
v -0.56267905 0.17769384 -0.8944307
v -0.5745081 0.14011943 -0.9080967
v -0.61895716 0.112787485 -0.8821842
v -0.56195533 0.06552714 -0.7977669
v -0.48619413 -0.03561771 -0.75028396
v -0.5471482 0.01637423 -0.82501537
v -0.61895716 0.112787485 -0.8821842
v -0.6246073 0.17825055 -0.83214056
v -0.7580662 -0.03531158 -0.478217
v -0.48619413 -0.03561771 -0.75028396
v -0.7580662 -0.03531158 -0.478217
vt 0.48218563 -0.05637107
vt 0.45719275 -0.03863417
vt 0.47896078 -0.029765721
vt 0.5208844 -0.054758623
vt 0.5224968 -0.067658186
vt 0.48137942 -0.07007685
vt 0.48218563 -0.05637107
vt 0.25724953 0.56361413
vt 0.24273753 0.58296347
vt 0.30320424 0.58296347
vt 0.2886922 0.56361413
vt 0.4692861 0.3548025
vt 0.4692861 0.309654
vt 0.37898916 0.309654
vt 0.37898916 0.3548025
vt 0.5208844 -0.028153274
vt 0.43139365 0.11132324
vt 0.465255 0.11132324
vt 0.465255 0.066174775
vt 0.43139365 0.066174775
vt 0.31207266 0.63294923
vt 0.23145041 0.63294923
vt 0.5442648 -0.036215503
vt 0.52975273 0.01135163
vt 0.566839 0.01135163
vt 0.5918319 0.01135163
vt 0.5918319 0.06536855
vt 0.6829351 0.06536855
vt 0.6829351 0.01135163
vt 0.5716764 0.01135163
vt 0.5329777 0.01135163
vt 0.5329777 0.06536855
vt 0.5716764 0.06536855
vt 0.4692861 0.40156338
vt 0.37898916 0.40156338
vt 0.43139365 0.15808415
vt 0.465255 0.15808415
vt 0.5208844 -0.054758623
vt 0.5861883 0.01135163
vt 0.5555519 -0.05072751
vt 0.5918319 0.06536855
vt 0.5918319 0.01135163
vt 0.41446295 0.11132324
vt 0.41446295 0.15808415
vt 0.41446295 0.066174775
vt 0.5224968 -0.067658186
vt 0.44671187 -0.0539524
vt 0.4128505 0.01135163
vt 0.43139365 0.01135163
vt 0.4088194 0.06536855
vt 0.42897496 0.06536855
vt 0.42897496 0.01135163
vt 0.4088194 0.01135163
vt 0.5853821 0.11132324
vt 0.5684515 0.11132324
vt 0.5684515 0.15808415
vt 0.5853821 0.15808415
vt 0.5853821 0.066174775
vt 0.5684515 0.066174775
vt 0.48137942 -0.07007685
vt 0.5345901 0.11132324
vt 0.5345901 0.066174775
vt 0.46686742 0.01135163
vt 0.46686742 0.06536855
vt 0.5345901 0.15808415
vt 0.46847984 0.01135163
vt 0.45799896 0.6426239
vt 0.54103994 0.64343023
vt 0.54748964 0.6071502
vt 0.4523554 0.606344
vt 0.22741929 0.4233314
vt 0.25724953 0.3983385
vt 0.25724953 0.29675445
vt 0.22741929 0.27176154
vt 0.2983669 0.75468886
vt 0.3233598 0.664392
vt 0.21129486 0.664392
vt 0.23548153 0.75468886
vt 0.24193132 0.273374
vt 0.3548025 0.5047599
vt 0.3548025 0.5345901
vt 0.46041766 0.5345901
vt 0.46041766 0.5047599
vt 0.46041766 0.479767
vt 0.3548025 0.479767
vt 0.537815 0.29756066
vt 0.46041766 0.29594824
vt 0.47573587 0.31046024
vt 0.5224968 0.31126645
vt 0.47896078 0.5345901
vt 0.5224968 0.5345901
vt 0.5224968 0.5047599
vt 0.47896078 0.5047599
vt 0.47896078 0.5047599
vt 0.5224968 0.479767
vt 0.47896078 0.479767
vt 0.2233882 0.29030466
vt 0.21210107 0.2741802
vt 0.21210107 0.35883358
vt 0.2233882 0.34270912
vt 0.47896078 0.479767
vt 0.34270912 0.479767
vt 0.34270912 0.5047599
vt 0.3233598 0.479767
vt 0.3233598 0.5047599
vt 0.57087016 0.16937128
vt 0.5571643 0.1596966
vt 0.545071 0.1806584
vt 0.57006395 0.1806584
vt 0.34270912 0.5345901
vt 0.3233598 0.5345901
vt 0.5620017 0.6345618
vt 0.5611955 0.59828174
vt 0.54748964 0.6071502
vt 0.54103994 0.64343023
vt 0.54103994 0.5047599
vt 0.6466551 0.5047599
vt 0.6466551 0.479767
vt 0.54103994 0.479767
vt 0.24193132 0.42171896
vt 0.54103994 0.5345901
vt 0.6466551 0.5345901
vt 0.5224968 0.5047599
vt 0.5224968 0.479767
vt 0.6587484 0.479767
vt 0.6587484 0.5047599
vt 0.67890394 0.479767
vt 0.67890394 0.5047599
vt 0.45799896 0.17904595
vt 0.44671187 0.15808415
vt 0.43219987 0.16614638
vt 0.43300608 0.17823972
vt 0.6587484 0.5345901
vt 0.67890394 0.5345901
vt 0.4523554 0.606344
vt 0.44751808 0.57006395
vt 0.43864962 0.59828174
vt 0.4378434 0.6345618
vt 0.45799896 0.6426239
vt 0.55232704 0.57006395
vt 0.44751808 0.57006395
vt 0.55232704 0.57006395
vn -0.3492779 -0.5907419 -0.72734374
vn 0.4797159 -0.19104844 -0.8563721
vn -0.5047142 0.0013965368 -0.86328536
vn -0.72676617 -0.5907419 -0.3504782
vn 0.3316813 -0.7165713 0.61360663
vn 0.6203488 -0.7165713 0.31889337
vn -0.3492779 -0.5907419 -0.72734374
vn 0.3316813 -0.7165713 0.61360663
vn 0.48711765 -0.3538865 0.7984239
vn 0.7979903 -0.3538865 0.48782763
vn 0.6203488 -0.7165713 0.31889337
vn 0.6795626 -0.2872709 0.6750334
vn 0.6795626 -0.2872709 0.6750334
vn 0.6795626 -0.2872709 0.6750334
vn 0.6795626 -0.2872709 0.6750334
vn -0.86739904 0.0013965368 -0.49761125
vn -0.8599972 0.016200006 0.5100415
vn -0.8599972 0.29006404 -0.4198424
vn -0.8525955 0.33447438 -0.40150687
vn -0.8525955 0.03840518 0.5211583
vn 0.6795626 -0.2872709 0.6750334
vn 0.6795626 -0.2872709 0.6750334
vn -0.8599972 -0.19104844 0.47318628
vn -0.88960415 0.112422526 -0.44268006
vn -0.87480074 -0.080022454 0.4778285
vn 0.6795626 -0.2872709 0.6750334
vn 0.6795626 -0.2872709 0.6750334
vn 0.6795626 -0.2872709 0.6750334
vn 0.6795626 -0.2872709 0.6750334
vn -0.87480074 -0.080022454 0.4778285
vn -0.88960415 0.112422526 -0.44268006
vn -0.88960415 0.19384152 -0.41355765
vn -0.86739904 -0.035612106 0.49633726
vn 0.6795626 -0.2872709 0.6750334
vn 0.6795626 -0.2872709 0.6750334
vn -0.86739904 -0.035612106 0.49633726
vn -0.88960415 0.19384152 -0.41355765
vn -0.72676617 -0.5907419 -0.3504782
vn -0.32707268 -0.25026226 0.91125864
vn 0.48711765 -0.3538865 0.7984239
vn -0.3418761 -0.21325362 0.9152287
vn -0.32707268 -0.25026226 0.91125864
vn -0.3492779 -0.18364668 0.9188464
vn -0.3418761 -0.21325362 0.9152287
vn -0.3492779 -0.17624497 0.9202948
vn 0.3316813 -0.7165713 0.61360663
vn 0.7979903 -0.3538865 0.48782763
vn 0.916418 -0.24286056 -0.31811437
vn 0.48711765 -0.080022454 -0.86966246
vn 0.916418 -0.20585191 -0.3432244
vn 0.5167246 -0.028210342 -0.8556868
vn 0.48711765 -0.080022454 -0.86966246
vn 0.916418 -0.24286056 -0.31811437
vn 0.9238197 -0.18364668 -0.33590335
vn 0.5241263 0.016200006 -0.85148644
vn 0.5167246 -0.028210342 -0.8556868
vn 0.916418 -0.20585191 -0.3432244
vn 0.9238197 -0.16884321 -0.34358278
vn 0.5241263 0.03840518 -0.8507741
vn 0.6203488 -0.7165713 0.31889337
vn -0.4158935 0.29006404 -0.8619138
vn -0.40849167 0.3418761 -0.84631866
vn -0.4380986 0.11982423 -0.890905
vn -0.40849167 0.19384152 -0.8919417
vn -0.40849167 0.19384152 -0.8919417
vn -0.4380986 0.11982423 -0.890905
vn -0.6009367 -0.5167246 -0.6098121
vn -0.6009367 -0.5167246 -0.6098121
vn -0.56392807 -0.5981436 -0.5693939
vn -0.56392807 -0.5981436 -0.5693939
vn 0.6351522 -0.43530554 0.63803667
vn 0.6277505 -0.45010898 0.63508356
vn 0.6277505 -0.45010898 0.63508356
vn 0.6351522 -0.43530554 0.63803667
vn 0.6351522 -0.43530554 0.63803667
vn 0.6351522 -0.43530554 0.63803667
vn 0.6351522 -0.43530554 0.63803667
vn 0.6351522 -0.43530554 0.63803667
vn 0.56853664 -0.49451938 0.6574319
vn -0.71196264 0.2604571 0.65212834
vn -0.7785782 0.31226927 0.544338
vn -0.71936435 0.4158935 0.55636996
vn -0.65274876 0.36408132 0.6643522
vn -0.55652636 0.33447438 0.76052964
vn -0.63054365 0.20124322 0.7496105
vn -0.63794535 0.4306969 -0.63837755
vn -0.63794535 0.4306969 -0.63837755
vn -0.63794535 0.4306969 -0.63837755
vn -0.63794535 0.4306969 -0.63837755
vn -0.016200006 0.96362144 0.26677945
vn 0.26506573 0.96362144 -0.034262422
vn 0.3316813 0.9414163 0.061015133
vn 0.05781728 0.9414163 0.3322536
vn 0.05781728 0.9414163 0.3322536
vn 0.3982969 0.9044077 0.15299146
vn 0.13183457 0.9044077 0.4057911
vn 0.6351522 -0.43530554 0.63803667
vn 0.6351522 -0.43530554 0.63803667
vn 0.6351522 -0.43530554 0.63803667
vn 0.6351522 -0.43530554 0.63803667
vn 0.13183457 0.9044077 0.4057911
vn -0.7711765 -0.531528 0.35037804
vn -0.8525955 -0.4575107 0.252517
vn -0.6675523 -0.72397304 0.17388795
vn -0.74790156 -0.6638097 -0
vn -0.63794535 0.4306969 -0.63837755
vn -0.63794535 0.4306969 -0.63837755
vn -0.63794535 0.4306969 -0.63837755
vn -0.63794535 0.4306969 -0.63837755
vn -0.9266128 -0.3316813 0.17713334
vn -0.82298857 -0.56113493 -0.08841616
vn 0.3538865 -0.39089513 -0.84968543
vn 0.3538865 -0.41310036 -0.83911407
vn 0.3538865 -0.3982969 -0.84624106
vn 0.3538865 -0.39089513 -0.84968543
vn 0.66475916 0.36408132 -0.6523343
vn 0.6499557 0.2604571 -0.7139465
vn 0.7461782 0.20124322 -0.63460165
vn 0.7609817 0.33447438 -0.5559081
vn 0.65735745 -0.49451938 0.56862265
vn 0.5537332 0.4158935 -0.7213959
vn 0.54633147 0.31226927 -0.77718073
vn 0.3316813 0.9414163 0.061015133
vn 0.3982969 0.9044077 0.15299146
vn 0.36128825 -0.531528 -0.76612586
vn 0.26506573 -0.4575107 -0.84877807
vn 0.1540398 -0.72397304 -0.6724097
vn 0.065219045 -0.66475916 -0.7442054
vn -0.63794535 0.4306969 -0.63837755
vn -0.63794535 0.4306969 -0.63837755
vn -0.63794535 0.4306969 -0.63837755
vn -0.63794535 0.4306969 -0.63837755
vn 0.17624497 -0.3316813 -0.9267822
vn -0.05320865 -0.56113493 -0.8260124
vn -0.8451938 -0.3982969 0.35638046
vn -0.82298857 -0.44270727 0.35594958
vn -0.8377921 -0.41310036 0.35700488
vn -0.8525955 -0.39089513 0.3468168
vn -0.8525955 -0.39089513 0.3468168
vn -0.5343211 -0.6499557 -0.54042435
vn -0.5343211 -0.6499557 -0.54042435
vn 0.36128825 -0.44270727 -0.8206589
g VoidShassi_CustomizePart_4_CorpsePart_0
f 3/3/3 2/2/2 1/1/1
f 6/6/6 5/5/5 4/4/4
f 7/7/7 6/6/6 4/4/4
f 10/10/10 9/9/9 8/8/8
f 11/11/11 10/10/10 8/8/8
f 14/14/14 13/13/13 12/12/12
f 15/15/15 14/14/14 12/12/12
f 16/16/16 3/3/3 7/7/7
f 4/4/4 16/16/16 7/7/7
f 19/19/19 18/18/18 17/17/17
f 20/20/20 19/19/19 17/17/17
f 9/9/9 10/10/10 21/21/21
f 22/22/22 9/9/9 21/21/21
f 24/24/24 16/16/16 23/23/23
f 25/25/25 24/24/24 23/23/23
f 28/28/28 27/27/27 26/26/26
f 29/29/29 28/28/28 26/26/26
f 32/32/32 31/31/31 30/30/30
f 33/33/33 32/32/32 30/30/30
f 15/15/15 12/12/12 34/34/34
f 35/35/35 15/15/15 34/34/34
f 18/18/18 37/37/37 36/36/36
f 17/17/17 18/18/18 36/36/36
f 23/23/23 16/16/16 38/38/38
f 23/23/23 40/40/40 39/39/39
f 25/25/25 23/23/23 39/39/39
f 41/41/41 33/33/33 30/30/30
f 42/42/42 41/41/41 30/30/30
f 43/43/43 17/17/17 36/36/36
f 44/44/44 43/43/43 36/36/36
f 20/20/20 17/17/17 43/43/43
f 45/45/45 20/20/20 43/43/43
f 38/38/38 46/46/46 40/40/40
f 23/23/23 38/38/38 40/40/40
f 48/48/48 47/47/47 2/2/2
f 49/49/49 48/48/48 2/2/2
f 52/52/52 51/51/51 50/50/50
f 53/53/53 52/52/52 50/50/50
f 56/56/56 55/55/55 54/54/54
f 57/57/57 56/56/56 54/54/54
f 59/59/59 58/58/58 54/54/54
f 55/55/55 59/59/59 54/54/54
f 47/47/47 60/60/60 1/1/1
f 2/2/2 47/47/47 1/1/1
f 62/62/62 61/61/61 18/18/18
f 19/19/19 62/62/62 18/18/18
f 64/64/64 63/63/63 31/31/31
f 32/32/32 64/64/64 31/31/31
f 61/61/61 65/65/65 37/37/37
f 18/18/18 61/61/61 37/37/37
f 16/16/16 24/24/24 66/66/66
f 3/3/3 16/16/16 66/66/66
f 62/62/62 59/59/59 55/55/55
f 61/61/61 62/62/62 55/55/55
f 66/66/66 49/49/49 2/2/2
f 3/3/3 66/66/66 2/2/2
f 64/64/64 51/51/51 52/52/52
f 63/63/63 64/64/64 52/52/52
f 61/61/61 55/55/55 56/56/56
f 65/65/65 61/61/61 56/56/56
f 69/69/69 68/68/68 67/67/67
f 70/70/70 69/69/69 67/67/67
f 73/73/73 72/72/72 71/71/71
f 74/74/74 73/73/73 71/71/71
f 77/77/77 76/76/76 75/75/75
f 78/78/78 77/77/77 75/75/75
f 74/74/74 79/79/79 73/73/73
f 82/82/82 81/81/81 80/80/80
f 83/83/83 82/82/82 80/80/80
f 84/84/84 83/83/83 80/80/80
f 85/85/85 84/84/84 80/80/80
f 88/88/88 87/87/87 86/86/86
f 89/89/89 88/88/88 86/86/86
f 92/92/92 91/91/91 90/90/90
f 93/93/93 92/92/92 90/90/90
f 90/90/90 82/82/82 83/83/83
f 94/94/94 90/90/90 83/83/83
f 95/95/95 92/92/92 93/93/93
f 96/96/96 95/95/95 93/93/93
f 99/99/99 98/98/98 97/97/97
f 100/100/100 99/99/99 97/97/97
f 101/101/101 94/94/94 83/83/83
f 84/84/84 101/101/101 83/83/83
f 102/102/102 85/85/85 80/80/80
f 103/103/103 102/102/102 80/80/80
f 103/103/103 105/105/105 104/104/104
f 102/102/102 103/103/103 104/104/104
f 108/108/108 107/107/107 106/106/106
f 109/109/109 108/108/108 106/106/106
f 110/110/110 103/103/103 80/80/80
f 81/81/81 110/110/110 80/80/80
f 110/110/110 111/111/111 105/105/105
f 103/103/103 110/110/110 105/105/105
f 114/114/114 113/113/113 112/112/112
f 115/115/115 114/114/114 112/112/112
f 118/118/118 117/117/117 116/116/116
f 119/119/119 118/118/118 116/116/116
f 71/71/71 72/72/72 120/120/120
f 122/122/122 121/121/121 116/116/116
f 117/117/117 122/122/122 116/116/116
f 108/108/108 109/109/109 86/86/86
f 116/116/116 121/121/121 91/91/91
f 123/123/123 116/116/116 91/91/91
f 116/116/116 123/123/123 124/124/124
f 119/119/119 116/116/116 124/124/124
f 117/117/117 118/118/118 125/125/125
f 126/126/126 117/117/117 125/125/125
f 126/126/126 125/125/125 127/127/127
f 128/128/128 126/126/126 127/127/127
f 131/131/131 130/130/130 129/129/129
f 132/132/132 131/131/131 129/129/129
f 117/117/117 126/126/126 133/133/133
f 122/122/122 117/117/117 133/133/133
f 128/128/128 134/134/134 133/133/133
f 126/126/126 128/128/128 133/133/133
f 137/137/137 136/136/136 135/135/135
f 138/138/138 137/137/137 135/135/135
f 139/139/139 138/138/138 135/135/135
f 70/70/70 141/141/141 140/140/140
f 69/69/69 70/70/70 140/140/140
f 142/142/142 113/113/113 114/114/114
f 129/129/129 87/87/87 132/132/132
f 108/108/108 86/86/86 87/87/87
f 129/129/129 108/108/108 87/87/87
