g VoidShassi_DefaultPart_4_CorpsePart
v -0.71609414 -0.57666206 -0.8041685
v -0.6463727 -0.49032435 -0.83734536
v -0.7295096 -0.4658592 -0.82816046
v -0.8106426 -0.57668996 -0.70962
v -0.76204634 -0.59057856 -0.6786698
v -0.6855614 -0.59057856 -0.7551547
v -0.71609414 -0.57666206 -0.8041685
v -0.76204634 -0.59057856 -0.6786698
v -0.7817242 -0.51334214 -0.62628824
v -0.63343036 -0.51334214 -0.7746099
v -0.6855614 -0.59057856 -0.7551547
v -0.7163168 0.029483497 -0.46196258
v -0.6885952 0.1924454 -0.42071417
v -0.43166935 0.1924454 -0.67763996
v -0.47222197 0.029483497 -0.7060574
v -0.8343563 -0.4658592 -0.723453
v -0.7756566 0.044401944 -0.4817518
v -0.8069687 0.07173389 -0.6099503
v -0.76496875 0.23536372 -0.5566502
v -0.7480185 0.20736384 -0.44044772
v -0.5666034 -0.3086031 -0.75476503
v -0.76313186 -0.3086031 -0.5582645
v -0.84429264 -0.49035218 -0.6394254
v -0.83739007 -0.27136266 -0.69325423
v -0.8237519 -0.29368466 -0.5767456
v -0.7421458 -0.14138287 -0.5084436
v -0.5177567 -0.14138287 -0.7328327
v -0.83054316 -0.09623784 -0.6552067
v -0.8020979 -0.12646443 -0.52762043
v -0.8106426 -0.57668996 -0.70962
v -0.76313186 -0.3086031 -0.5582645
v -0.7817242 -0.51334214 -0.62628824
v -0.7421458 -0.14138287 -0.5084436
v -0.7163168 0.029483497 -0.46196258
v -0.6885952 0.1924454 -0.42071417
v -0.76204634 -0.59057856 -0.6786698
v -0.63343036 -0.51334214 -0.7746099
v -0.5666034 -0.3086031 -0.75476503
v -0.5848062 -0.29368466 -0.81569135
v -0.5177567 -0.14138287 -0.7328327
v -0.5365995 -0.12646443 -0.79311883
v -0.47222197 0.029483497 -0.7060574
v -0.49167717 0.044401944 -0.7657312
v -0.43166935 0.1924454 -0.67763996
v -0.451069 0.20736384 -0.7373973
v -0.6855614 -0.59057856 -0.7551547
v -0.6186789 0.07170606 -0.79810095
v -0.5662973 0.23536372 -0.7552382
v -0.6999788 -0.27136266 -0.8306933
v -0.6629611 -0.09651619 -0.8228722
v -0.6246073 0.17825055 -0.83214056
v -0.840062 0.17847323 -0.61651886
v -0.8056048 0.065805495 -0.5539226
v -0.56195533 0.06552714 -0.7977669
v -0.3841586 0.06371802 -0.781429
v -0.48619413 -0.03561771 -0.75028396
v -0.7580662 -0.03531158 -0.478217
v -0.78926694 0.06413549 -0.3760423
v -0.33269548 0.4799595 -0.5504435
v -0.5588381 0.48021007 -0.32410604
v -0.8022649 0.01812768 -0.39939415
v -0.8541455 0.11632228 -0.4495769
v -0.9022964 0.17805576 -0.55456275
v -0.7030405 0.5470648 -0.5034615
v -0.6394422 0.51358175 -0.39416158
v -0.5588381 0.48021007 -0.32410604
v -0.78926694 0.06413549 -0.3760423
v -0.7030405 0.5470648 -0.5034615
v -0.5119952 0.5468421 -0.6946737
v -0.5346513 0.5905955 -0.64232
v -0.65160525 0.58920383 -0.52631235
v -0.65160525 0.58920383 -0.52631235
v -0.5346513 0.5905955 -0.64232
v -0.43695772 0.5631522 -0.56313527
v -0.5721979 0.5616214 -0.42911974
v -0.5721979 0.5616214 -0.42911974
v -0.36222625 0.5197885 -0.4937478
v -0.5027269 0.5181742 -0.35452747
v -0.36222625 0.5197885 -0.4937478
v -0.5027269 0.5181742 -0.35452747
v -0.5027269 0.5181742 -0.35452747
v -0.8022649 0.01812768 -0.39939415
v -0.8665868 0.06608385 -0.4723721
v -0.7580662 -0.03531158 -0.478217
v -0.83276975 0.01668036 -0.5391711
v -0.91593456 0.14048123 -0.5664196
v -0.88999426 0.113093615 -0.6109245
v -0.840062 0.17847323 -0.61651886
v -0.9022964 0.17805576 -0.55456275
v -0.91593456 0.14048123 -0.5664196
v -0.88999426 0.113093615 -0.6109245
v -0.88999426 0.113093615 -0.6109245
v -0.83276975 0.01668036 -0.5391711
v -0.8056048 0.065805495 -0.5539226
v -0.840062 0.17847323 -0.61651886
v -0.4027232 0.5133312 -0.63104767
v -0.457721 0.11587691 -0.8463076
v -0.3841586 0.06371802 -0.781429
v -0.33269548 0.4799595 -0.5504435
v -0.40748262 0.017710209 -0.79448265
v -0.5119952 0.5468421 -0.6946737
v -0.56267905 0.17769384 -0.8944307
v -0.43695772 0.5631522 -0.56313527
v -0.36222625 0.5197885 -0.4937478
v -0.40748262 0.017710209 -0.79448265
v -0.48043275 0.06566632 -0.8587767
v -0.48619413 -0.03561771 -0.75028396
v -0.5471482 0.01637423 -0.82501537
v -0.6246073 0.17825055 -0.83214056
v -0.61895716 0.112787485 -0.8821842
v -0.5745081 0.14011943 -0.9080967
v -0.56267905 0.17769384 -0.8944307
v -0.5745081 0.14011943 -0.9080967
v -0.61895716 0.112787485 -0.8821842
v -0.56195533 0.06552714 -0.7977669
v -0.48619413 -0.03561771 -0.75028396
v -0.5471482 0.01637423 -0.82501537
v -0.61895716 0.112787485 -0.8821842
v -0.6246073 0.17825055 -0.83214056
v -0.7580662 -0.03531158 -0.478217
v -0.48619413 -0.03561771 -0.75028396
v -0.7580662 -0.03531158 -0.478217
vt 0.92483073 0.13071015
vt 0.92483073 0.13321264
vt 0.931504 0.13321264
vt 0.9406797 0.12904184
vt 0.9406797 0.12737352
vt 0.931504 0.12737352
vt 0.931504 0.12904184
vt 0.97821695 0.16991569
vt 0.98071945 0.1674132
vt 0.9707095 0.1674132
vt 0.973212 0.16991569
vt 0.98071945 0.13654928
vt 0.98071945 0.12737352
vt 0.9707095 0.12737352
vt 0.9707095 0.13654928
vt 0.9406797 0.13321264
vt 0.9465189 0.15573497
vt 0.9406797 0.15573497
vt 0.9406797 0.1632424
vt 0.9465189 0.1632424
vt 0.9707095 0.1549008
vt 0.98071945 0.1549008
vt 0.9465189 0.13321264
vt 0.9406797 0.1423884
vt 0.9465189 0.1423884
vt 0.98071945 0.14572504
vt 0.9707095 0.14572504
vt 0.9406797 0.14906168
vt 0.9465189 0.14906168
vt 0.9465189 0.13071015
vt 0.94902134 0.1423884
vt 0.94902134 0.13321264
vt 0.94902134 0.14906168
vt 0.94902134 0.15573497
vt 0.94902134 0.1632424
vt 0.94902134 0.13071015
vt 0.9231624 0.13321264
vt 0.9231624 0.1423884
vt 0.92483073 0.1423884
vt 0.9231624 0.14906168
vt 0.92483073 0.14906168
vt 0.9231624 0.15573497
vt 0.92483073 0.15573497
vt 0.9231624 0.1632424
vt 0.92483073 0.1632424
vt 0.9231624 0.13071015
vt 0.931504 0.15573497
vt 0.931504 0.1632424
vt 0.931504 0.1423884
vt 0.931504 0.14906168
vt 0.93066984 0.2349802
vt 0.94318223 0.2349802
vt 0.9440164 0.23247771
vt 0.93066984 0.23247771
vt 0.8797861 0.20661874
vt 0.8831227 0.2116237
vt 0.89897174 0.2116237
vt 0.9031426 0.20661874
vt 0.884791 0.18743305
vt 0.89813757 0.18743305
vt 0.9031426 0.20912123
vt 0.9331723 0.1949405
vt 0.9331723 0.1907697
vt 0.9148208 0.18993554
vt 0.9148208 0.1949405
vt 0.9148208 0.1991113
vt 0.9331723 0.1991113
vt 0.9148208 0.18993554
vt 0.9148208 0.17575482
vt 0.9123183 0.17575482
vt 0.9123183 0.18993554
vt 0.9123183 0.18993554
vt 0.9123183 0.17575482
vt 0.90731335 0.17575482
vt 0.90731335 0.18993554
vt 0.9123183 0.1949405
vt 0.9023084 0.17575482
vt 0.9023084 0.18993554
vt 0.8856252 0.18576473
vt 0.8973034 0.18576473
vt 0.9123183 0.1991113
vt 0.9356748 0.1991113
vt 0.9348406 0.1949405
vt 0.9398456 0.1991113
vt 0.93901145 0.1949405
vt 0.9348406 0.1907697
vt 0.93650895 0.18993554
vt 0.9331723 0.18743305
vt 0.9331723 0.1907697
vt 0.9348406 0.1907697
vt 0.93650895 0.18993554
vt 0.94568473 0.23247771
vt 0.9465189 0.22747275
vt 0.9440164 0.23247771
vt 0.94318223 0.2349802
vt 0.9148208 0.17074984
vt 0.9331723 0.17074984
vt 0.9331723 0.16574489
vt 0.9148208 0.16574489
vt 0.8797861 0.20912123
vt 0.9148208 0.17575482
vt 0.9331723 0.17492065
vt 0.9123183 0.17074984
vt 0.9123183 0.16574489
vt 0.9356748 0.16574489
vt 0.9348406 0.16991569
vt 0.9398456 0.16574489
vt 0.93901145 0.17074984
vt 0.9331723 0.17825729
vt 0.93650895 0.17575482
vt 0.9348406 0.17408648
vt 0.9331723 0.17492065
vt 0.9348406 0.17408648
vt 0.93650895 0.17575482
vt 0.93066984 0.23247771
vt 0.9290015 0.22330195
vt 0.92816734 0.22747275
vt 0.92816734 0.23247771
vt 0.93066984 0.2349802
vt 0.94568473 0.22330195
vt 0.9290015 0.22330195
vt 0.94568473 0.22330195
vn -0.34927803 -0.59074175 -0.7273438
vn 0.4797158 -0.19104832 -0.8563722
vn -0.5047143 0.001396656 -0.8632853
vn -0.7267663 -0.59074175 -0.35047817
vn 0.3316812 -0.71657115 0.61360687
vn 0.6203487 -0.71657115 0.31889382
vn -0.34927803 -0.59074175 -0.7273438
vn 0.3316812 -0.71657115 0.61360687
vn 0.48711753 -0.35388637 0.79842407
vn 0.7979902 -0.35388637 0.48782793
vn 0.6203487 -0.71657115 0.31889382
vn 0.6795625 -0.28727078 0.6750335
vn 0.6795625 -0.28727078 0.6750335
vn 0.6795625 -0.28727078 0.6750335
vn 0.6795625 -0.28727078 0.6750335
vn -0.86739916 0.001396656 -0.49761102
vn -0.85999733 0.016200125 0.5100413
vn -0.85999733 0.29006416 -0.41984206
vn -0.8525956 0.3344745 -0.40150654
vn -0.8525956 0.0384053 0.52115804
vn 0.6795625 -0.28727078 0.6750335
vn 0.6795625 -0.28727078 0.6750335
vn -0.85999733 -0.19104832 0.47318614
vn -0.8896043 0.112422645 -0.44267976
vn -0.87480086 -0.080022335 0.4778283
vn 0.6795625 -0.28727078 0.6750335
vn 0.6795625 -0.28727078 0.6750335
vn -0.8896043 0.19384164 -0.4135573
vn -0.86739916 -0.035611987 0.49633706
vn -0.7267663 -0.59074175 -0.35047817
vn -0.3270728 -0.25026214 0.9112586
vn 0.48711753 -0.35388637 0.79842407
vn -0.3418762 -0.2132535 0.9152287
vn -0.34927803 -0.18364656 0.9188464
vn -0.34927803 -0.17624485 0.9202948
vn 0.3316812 -0.71657115 0.61360687
vn 0.7979902 -0.35388637 0.48782793
vn 0.9164179 -0.24286044 -0.31811485
vn 0.48711753 -0.080022335 -0.8696626
vn 0.9164179 -0.2058518 -0.34322482
vn 0.51672447 -0.028210223 -0.8556869
vn 0.9238196 -0.18364656 -0.33590367
vn 0.5241262 0.016200125 -0.8514865
vn 0.9238196 -0.16884309 -0.34358308
vn 0.5241262 0.0384053 -0.8507742
vn 0.6203487 -0.71657115 0.31889382
vn -0.4158936 0.29006416 -0.86191374
vn -0.4084918 0.3418762 -0.8463186
vn -0.43809873 0.11982435 -0.89090496
vn -0.4084918 0.19384164 -0.8919416
vn -0.60093683 -0.51672447 -0.609812
vn -0.60093683 -0.51672447 -0.609812
vn -0.5639282 -0.59814346 -0.56939393
vn -0.5639282 -0.59814346 -0.56939393
vn 0.6351521 -0.43530542 0.63803685
vn 0.6277504 -0.45010886 0.6350838
vn 0.6277504 -0.45010886 0.6350838
vn 0.6351521 -0.43530542 0.63803685
vn 0.6351521 -0.43530542 0.63803685
vn 0.6351521 -0.43530542 0.63803685
vn 0.5685365 -0.49451926 0.6574321
vn -0.71196276 0.26045722 0.6521281
vn -0.77857834 0.3122694 0.54433775
vn -0.71936446 0.4158936 0.5563697
vn -0.6527489 0.36408144 0.66435206
vn -0.5565265 0.3344745 0.76052946
vn -0.63054377 0.20124334 0.7496103
vn -0.6379455 0.43069702 -0.63837737
vn -0.6379455 0.43069702 -0.63837737
vn -0.6379455 0.43069702 -0.63837737
vn -0.6379455 0.43069702 -0.63837737
vn -0.016200125 0.96362156 0.266779
vn 0.2650656 0.96362156 -0.034258943
vn 0.3316812 0.94141644 0.06101367
vn 0.05781716 0.94141644 0.33225334
vn 0.05781716 0.94141644 0.33225334
vn 0.39829677 0.9044078 0.15299088
vn 0.13183445 0.9044078 0.40579087
vn 0.6351521 -0.43530542 0.63803685
vn 0.6351521 -0.43530542 0.63803685
vn 0.13183445 0.9044078 0.40579087
vn -0.77117664 -0.5315279 0.35037798
vn -0.8525956 -0.4575106 0.25251687
vn -0.6675524 -0.7239729 0.17388777
vn -0.7479017 -0.6638096 -0
vn -0.6379455 0.43069702 -0.63837737
vn -0.6379455 0.43069702 -0.63837737
vn -0.6379455 0.43069702 -0.63837737
vn -0.6379455 0.43069702 -0.63837737
vn -0.9266129 -0.3316812 0.17713307
vn -0.8229887 -0.5611348 -0.08841549
vn 0.35388637 -0.390895 -0.84968555
vn 0.35388637 -0.41310024 -0.8391142
vn 0.35388637 -0.39829677 -0.8462412
vn 0.35388637 -0.390895 -0.84968555
vn 0.66475904 0.36408144 -0.6523344
vn 0.6499556 0.26045722 -0.71394664
vn 0.7461781 0.20124334 -0.6346017
vn 0.76098156 0.3344745 -0.55590814
vn 0.65735734 -0.49451926 0.56862295
vn 0.5537331 0.4158936 -0.72139597
vn 0.54633135 0.3122694 -0.77718073
vn 0.3316812 0.94141644 0.06101367
vn 0.39829677 0.9044078 0.15299088
vn 0.36128813 -0.5315279 -0.766126
vn 0.2650656 -0.4575106 -0.84877807
vn 0.15403968 -0.7239729 -0.67240983
vn 0.065218925 -0.66475904 -0.7442056
vn -0.6379455 0.43069702 -0.63837737
vn -0.6379455 0.43069702 -0.63837737
vn -0.6379455 0.43069702 -0.63837737
vn -0.6379455 0.43069702 -0.63837737
vn 0.17624485 -0.3316812 -0.92678225
vn -0.05320877 -0.5611348 -0.82601243
vn -0.8451939 -0.39829677 0.35638025
vn -0.8229887 -0.44270715 0.3559494
vn -0.8377922 -0.41310024 0.3570048
vn -0.8525956 -0.390895 0.34681666
vn -0.8525956 -0.390895 0.34681666
vn -0.53432125 -0.6499556 -0.5404244
vn -0.53432125 -0.6499556 -0.5404244
vn 0.36128813 -0.44270715 -0.82065904
g VoidShassi_DefaultPart_4_CorpsePart_0
f 3/3/3 2/2/2 1/1/1
f 6/6/6 5/5/5 4/4/4
f 7/7/7 6/6/6 4/4/4
f 10/10/10 9/9/9 8/8/8
f 11/11/11 10/10/10 8/8/8
f 14/14/14 13/13/13 12/12/12
f 15/15/15 14/14/14 12/12/12
f 16/16/16 3/3/3 7/7/7
f 4/4/4 16/16/16 7/7/7
f 19/19/19 18/18/18 17/17/17
f 20/20/20 19/19/19 17/17/17
f 9/9/9 10/10/10 21/21/21
f 22/22/22 9/9/9 21/21/21
f 24/24/24 16/16/16 23/23/23
f 25/25/25 24/24/24 23/23/23
f 27/27/27 26/26/26 22/22/22
f 21/21/21 27/27/27 22/22/22
f 28/28/28 24/24/24 25/25/25
f 29/29/29 28/28/28 25/25/25
f 15/15/15 12/12/12 26/26/26
f 27/27/27 15/15/15 26/26/26
f 18/18/18 28/28/28 29/29/29
f 17/17/17 18/18/18 29/29/29
f 23/23/23 16/16/16 30/30/30
f 23/23/23 32/32/32 31/31/31
f 25/25/25 23/23/23 31/31/31
f 33/33/33 29/29/29 25/25/25
f 31/31/31 33/33/33 25/25/25
f 34/34/34 17/17/17 29/29/29
f 33/33/33 34/34/34 29/29/29
f 20/20/20 17/17/17 34/34/34
f 35/35/35 20/20/20 34/34/34
f 30/30/30 36/36/36 32/32/32
f 23/23/23 30/30/30 32/32/32
f 38/38/38 37/37/37 2/2/2
f 39/39/39 38/38/38 2/2/2
f 39/39/39 41/41/41 40/40/40
f 38/38/38 39/39/39 40/40/40
f 41/41/41 43/43/43 42/42/42
f 40/40/40 41/41/41 42/42/42
f 45/45/45 44/44/44 42/42/42
f 43/43/43 45/45/45 42/42/42
f 37/37/37 46/46/46 1/1/1
f 2/2/2 37/37/37 1/1/1
f 48/48/48 47/47/47 18/18/18
f 19/19/19 48/48/48 18/18/18
f 50/50/50 49/49/49 24/24/24
f 28/28/28 50/50/50 24/24/24
f 47/47/47 50/50/50 28/28/28
f 18/18/18 47/47/47 28/28/28
f 16/16/16 24/24/24 49/49/49
f 3/3/3 16/16/16 49/49/49
f 48/48/48 45/45/45 43/43/43
f 47/47/47 48/48/48 43/43/43
f 49/49/49 39/39/39 2/2/2
f 3/3/3 49/49/49 2/2/2
f 50/50/50 41/41/41 39/39/39
f 49/49/49 50/50/50 39/39/39
f 47/47/47 43/43/43 41/41/41
f 50/50/50 47/47/47 41/41/41
f 53/53/53 52/52/52 51/51/51
f 54/54/54 53/53/53 51/51/51
f 57/57/57 56/56/56 55/55/55
f 58/58/58 57/57/57 55/55/55
f 58/58/58 55/55/55 59/59/59
f 60/60/60 58/58/58 59/59/59
f 58/58/58 61/61/61 57/57/57
f 64/64/64 63/63/63 62/62/62
f 65/65/65 64/64/64 62/62/62
f 66/66/66 65/65/65 62/62/62
f 67/67/67 66/66/66 62/62/62
f 70/70/70 69/69/69 68/68/68
f 71/71/71 70/70/70 68/68/68
f 74/74/74 73/73/73 72/72/72
f 75/75/75 74/74/74 72/72/72
f 72/72/72 64/64/64 65/65/65
f 76/76/76 72/72/72 65/65/65
f 77/77/77 74/74/74 75/75/75
f 78/78/78 77/77/77 75/75/75
f 60/60/60 59/59/59 79/79/79
f 80/80/80 60/60/60 79/79/79
f 81/81/81 76/76/76 65/65/65
f 66/66/66 81/81/81 65/65/65
f 82/82/82 67/67/67 62/62/62
f 83/83/83 82/82/82 62/62/62
f 83/83/83 85/85/85 84/84/84
f 82/82/82 83/83/83 84/84/84
f 88/88/88 87/87/87 86/86/86
f 89/89/89 88/88/88 86/86/86
f 90/90/90 83/83/83 62/62/62
f 63/63/63 90/90/90 62/62/62
f 90/90/90 91/91/91 85/85/85
f 83/83/83 90/90/90 85/85/85
f 94/94/94 93/93/93 92/92/92
f 95/95/95 94/94/94 92/92/92
f 98/98/98 97/97/97 96/96/96
f 99/99/99 98/98/98 96/96/96
f 55/55/55 56/56/56 100/100/100
f 102/102/102 101/101/101 96/96/96
f 97/97/97 102/102/102 96/96/96
f 88/88/88 89/89/89 68/68/68
f 96/96/96 101/101/101 73/73/73
f 103/103/103 96/96/96 73/73/73
f 96/96/96 103/103/103 104/104/104
f 99/99/99 96/96/96 104/104/104
f 97/97/97 98/98/98 105/105/105
f 106/106/106 97/97/97 105/105/105
f 106/106/106 105/105/105 107/107/107
f 108/108/108 106/106/106 107/107/107
f 111/111/111 110/110/110 109/109/109
f 112/112/112 111/111/111 109/109/109
f 97/97/97 106/106/106 113/113/113
f 102/102/102 97/97/97 113/113/113
f 108/108/108 114/114/114 113/113/113
f 106/106/106 108/108/108 113/113/113
f 117/117/117 116/116/116 115/115/115
f 118/118/118 117/117/117 115/115/115
f 119/119/119 118/118/118 115/115/115
f 54/54/54 121/121/121 120/120/120
f 53/53/53 54/54/54 120/120/120
f 122/122/122 93/93/93 94/94/94
f 109/109/109 69/69/69 112/112/112
f 88/88/88 68/68/68 69/69/69
f 109/109/109 88/88/88 69/69/69
