g VoidTurretPlazmaGun_3_CorpsePart
v -0.61959267 0.80936456 0.1890313
v -0.61959267 0.40758443 0.1890313
v -0.77075315 0.40758443 0.1890313
v -0.77075315 0.80936456 0.1890313
v -0.43053055 0.5193448 -0.050680578
v -0.5906012 0.5193448 -0.050680578
v -0.5906012 0.73185253 -0.050680578
v -0.43053055 0.73185253 -0.050680578
v -0.43053055 0.73185253 -0.050680578
v -0.5906012 0.73185253 -0.050680578
v -0.5906012 0.73185253 -0.3900621
v -0.43053055 0.73185253 -0.3900621
v -0.43053055 0.73185253 -0.3900621
v -0.5906012 0.73185253 -0.3900621
v -0.5906012 0.5193448 -0.3900621
v -0.43053055 0.5193448 -0.3900621
v -0.43053055 0.5193448 -0.3900621
v -0.5906012 0.5193448 -0.3900621
v -0.5906012 0.5193448 -0.050680578
v -0.43053055 0.5193448 -0.050680578
v -0.7233101 0.67189825 0.86582303
v -0.66403925 0.67189825 0.86582303
v -0.66403925 0.6899818 0.17368132
v -0.7233101 0.6899818 0.17368132
v -0.77112114 0.6433536 0.17365503
v -0.77112114 0.830024 0.17365503
v -0.77112114 0.8380933 0.9357127
v -0.77112114 0.80513287 0.96010447
v -0.77112114 0.6433536 0.17365503
v -0.77112114 0.6478745 0.84779215
v -0.619251 0.6491362 0.848528
v -0.619251 0.6461135 0.17365503
v -0.619251 0.6461135 0.17365503
v -0.619251 0.6491362 0.848528
v -0.619251 0.80513287 0.96007824
v -0.77112114 0.8380933 0.9357127
v -0.619251 0.8380933 0.93568647
v -0.619251 0.80513287 0.96007824
v -0.77112114 0.80513287 0.96010447
v -0.66403925 0.67189825 0.86582303
v -0.7233101 0.67189825 0.86582303
v -0.77112114 0.80513287 0.96010447
v -0.619251 0.80513287 0.96007824
v -0.77112114 0.830024 0.17365503
v -0.619251 0.830024 0.17365503
v -0.619251 0.8380933 0.93568647
v -0.77112114 0.8380933 0.9357127
v -0.77112114 0.6478745 0.84779215
v -0.619251 0.6491362 0.848528
v -0.619251 0.8380933 0.93568647
v -0.619251 0.830024 0.17365503
v -0.77112114 0.6478745 0.84779215
v -0.6670619 0.5458919 0.86582303
v -0.7263328 0.5458919 0.86582303
v -0.7263328 0.5278083 0.17368132
v -0.6670619 0.5278083 0.17368132
v -0.619251 0.5744628 0.17365503
v -0.619251 0.38779235 0.17365503
v -0.619251 0.37969685 0.9357127
v -0.619251 0.41265726 0.96010447
v -0.619251 0.5744628 0.17365503
v -0.619251 0.56991553 0.84779215
v -0.77112114 0.56865394 0.848528
v -0.77112114 0.5716766 0.17365503
v -0.77112114 0.5716766 0.17365503
v -0.77112114 0.56865394 0.848528
v -0.77112114 0.41265726 0.96007824
v -0.619251 0.37969685 0.9357127
v -0.77112114 0.37969685 0.93568647
v -0.77112114 0.41265726 0.96007824
v -0.619251 0.41265726 0.96010447
v -0.7263328 0.5458919 0.86582303
v -0.6670619 0.5458919 0.86582303
v -0.619251 0.41265726 0.96010447
v -0.77112114 0.41265726 0.96007824
v -0.619251 0.38779235 0.17365503
v -0.77112114 0.38779235 0.17365503
v -0.77112114 0.37969685 0.93568647
v -0.619251 0.37969685 0.9357127
v -0.619251 0.56991553 0.84779215
v -0.77112114 0.56865394 0.848528
v -0.77112114 0.37969685 0.93568647
v -0.77112114 0.38779235 0.17365503
v -0.619251 0.56991553 0.84779215
v -0.5829263 0.7605549 -0.6012819
v -0.8071567 0.7605549 -0.6012819
v -0.8071567 0.7605549 -0.727446
v -0.5829263 0.7605549 -0.727446
v -0.5829263 0.72554433 -0.7624303
v -0.8071567 0.72554433 -0.7624303
v -0.8071567 0.503916 -0.7624303
v -0.5829263 0.503916 -0.7624303
v -0.5829263 0.46893167 -0.727446
v -0.8071567 0.46893167 -0.727446
v -0.8071567 0.46893167 -0.36501327
v -0.5829263 0.46893167 -0.36501327
v -0.8071567 0.7605549 -0.727446
v -0.8071567 0.46893167 -0.727446
v -0.8071567 0.503916 -0.7624303
v -0.8071567 0.72554433 -0.7624303
v -0.5829263 0.7605549 -0.727446
v -0.5829263 0.46893167 -0.727446
v -0.5829263 0.46893167 -0.36501327
v -0.5829263 0.7605549 -0.6012819
v -0.5829263 0.7605549 -0.727446
v -0.8071567 0.7605549 -0.727446
v -0.5829263 0.46893167 -0.727446
v -0.8071567 0.46893167 -0.727446
v -0.5829263 0.503916 -0.7624303
v -0.5829263 0.46893167 -0.727446
v -0.5829263 0.7605549 -0.727446
v -0.5829263 0.72554433 -0.7624303
v -0.8071567 0.46893167 -0.36501327
v -0.8071567 0.46893167 -0.727446
v -0.8071567 0.7605549 -0.727446
v -0.8071567 0.7605549 -0.6012819
v -0.86626995 0.6488733 -0.13486886
v -0.86626995 0.72696364 -0.102513015
v -0.896891 0.67174053 -0.07964575
v -0.86626995 0.61654377 -0.05677849
v -0.86626995 0.69460785 -0.024448931
v -0.8396177 0.67174053 -0.16746128
v -0.8396177 0.7338501 -0.14175528
v -0.8396177 0.6096573 -0.14175528
v -0.8396177 0.58395135 -0.07964575
v -0.8396177 0.6096573 -0.017562509
v -0.8396177 0.67174053 0.008143485
v -0.8396177 0.7338501 -0.017562509
v -0.8396177 0.75955606 -0.07964575
vt 0.87032145 0.30897123
vt 0.87032145 0.32108235
vt 0.86608255 0.32108235
vt 0.86608255 0.30897123
vt 0.81037146 0.36407682
vt 0.81037146 0.3586268
vt 0.8176381 0.3586268
vt 0.8176381 0.36407682
vt 0.8176381 0.36407682
vt 0.8176381 0.3586268
vt 0.82914364 0.3586268
vt 0.82914364 0.36407682
vt 0.82914364 0.36407682
vt 0.82914364 0.3586268
vt 0.83701587 0.3586268
vt 0.83701587 0.36407682
vt 0.79826033 0.36407682
vt 0.79826033 0.3586268
vt 0.81037146 0.3586268
vt 0.81037146 0.36407682
vt 0.7873603 0.32956013
vt 0.7873603 0.32713792
vt 0.76374364 0.32713792
vt 0.76374364 0.32956013
vt 0.76374364 0.3313768
vt 0.76374364 0.3380379
vt 0.7903881 0.3380379
vt 0.7915992 0.3368268
vt 0.76374364 0.3313768
vt 0.7873603 0.3313768
vt 0.7873603 0.32532126
vt 0.76374364 0.32532126
vt 0.76374364 0.34954348
vt 0.7873603 0.34954348
vt 0.7915992 0.34409347
vt 0.8261159 0.25265455
vt 0.8315659 0.25265455
vt 0.8315659 0.25386566
vt 0.8261159 0.25386566
vt 0.8297492 0.25992122
vt 0.82793254 0.25992122
vt 0.8261159 0.25386566
vt 0.8315659 0.25386566
vt 0.76374364 0.3380379
vt 0.76374364 0.34348792
vt 0.7903881 0.34348792
vt 0.7903881 0.3380379
vt 0.8261159 0.26052678
vt 0.8315659 0.26052678
vt 0.7903881 0.34348792
vt 0.76374364 0.34348792
vt 0.7873603 0.3313768
vt 0.7873603 0.32713792
vt 0.7873603 0.32956013
vt 0.76374364 0.32956013
vt 0.76374364 0.32713792
vt 0.76374364 0.34954348
vt 0.76374364 0.34348792
vt 0.7903881 0.34348792
vt 0.7915992 0.34409347
vt 0.76374364 0.32532126
vt 0.7873603 0.32532126
vt 0.7873603 0.3313768
vt 0.76374364 0.3313768
vt 0.76374364 0.3313768
vt 0.7873603 0.3313768
vt 0.7915992 0.3368268
vt 0.8261159 0.25265455
vt 0.8315659 0.25265455
vt 0.8315659 0.25386566
vt 0.8261159 0.25386566
vt 0.8297492 0.25992122
vt 0.82793254 0.25992122
vt 0.8261159 0.25386566
vt 0.8315659 0.25386566
vt 0.76374364 0.34348792
vt 0.76374364 0.3380379
vt 0.7903881 0.3380379
vt 0.7903881 0.34348792
vt 0.8261159 0.26052678
vt 0.8315659 0.26052678
vt 0.7903881 0.3380379
vt 0.76374364 0.3380379
vt 0.7873603 0.34954348
vt 0.76798254 0.29080456
vt 0.76798254 0.29807124
vt 0.76374364 0.29807124
vt 0.76374364 0.29080456
vt 0.86366034 0.37194905
vt 0.86366034 0.36528793
vt 0.87092704 0.36528793
vt 0.87092704 0.37194905
vt 0.76374364 0.28051013
vt 0.76374364 0.2726379
vt 0.7764603 0.2726379
vt 0.7764603 0.28051013
vt 0.8624492 0.36468238
vt 0.87213814 0.36468238
vt 0.87092704 0.36528793
vt 0.86366034 0.36528793
vt 0.76374364 0.29080456
vt 0.76374364 0.28051013
vt 0.7764603 0.28051013
vt 0.76798254 0.29080456
vt 0.8624492 0.37316015
vt 0.8624492 0.36468238
vt 0.87213814 0.37316015
vt 0.87213814 0.36468238
vt 0.87092704 0.37194905
vt 0.87213814 0.37316015
vt 0.8624492 0.37316015
vt 0.86366034 0.37194905
vt 0.7764603 0.2726379
vt 0.76374364 0.2726379
vt 0.76374364 0.26234344
vt 0.76798254 0.26234344
vt 0.80734366 0.32834902
vt 0.80431587 0.32713792
vt 0.80613256 0.32653236
vt 0.80794924 0.3259268
vt 0.805527 0.32471567
vt 0.80613256 0.32956013
vt 0.80431587 0.32895458
vt 0.80855477 0.32895458
vt 0.8097659 0.32653236
vt 0.80855477 0.32411015
vt 0.80613256 0.32350457
vt 0.80431587 0.32411015
vt 0.80310476 0.32653236
vn -0.003921509 0.003921509 0.9999846
vn -0.003921509 0.003921509 0.9999846
vn -0.003921509 0.003921509 0.9999846
vn -0.003921509 0.003921509 0.9999846
vn -0.003921509 0.003921509 0.9999846
vn -0.003921509 0.003921509 0.9999846
vn -0.003921509 0.003921509 0.9999846
vn -0.003921509 0.003921509 0.9999846
vn -0.003921509 0.99999225 -0.00034526698
vn -0.003921509 0.99999225 -0.00034526698
vn -0.003921509 0.99999225 -0.00034526698
vn -0.003921509 0.99999225 -0.00034526698
vn -0.003921509 0.003921509 -0.9999846
vn -0.003921509 0.003921509 -0.9999846
vn -0.003921509 0.003921509 -0.9999846
vn -0.003921509 0.003921509 -0.9999846
vn -0.003921509 -0.9999924 -0
vn -0.003921509 -0.9999924 -0
vn -0.003921509 -0.9999924 -0
vn -0.003921509 -0.9999924 -0
vn 0.27834368 -0.9604816 -0
vn -0.27058613 -0.960777 -0.060751293
vn -0.30195844 -0.9529339 -0.027167708
vn 0.30917457 -0.9510053 -0
vn -0.99999225 0.003921509 -0.00034492963
vn -0.99999225 0.003921509 -0.00034492963
vn -0.99999225 0.003921509 -0.00034492963
vn -0.99999225 0.003921509 -0.00034492963
vn 0.59215236 -0.80391544 -0.05545755
vn 0.59215236 -0.80391544 -0.05545755
vn -0.5981218 -0.80140513 -0
vn -0.5981218 -0.80140513 -0
vn 0.9999924 0.003921509 -0
vn 0.9999924 0.003921509 -0
vn 0.9999924 0.003921509 -0
vn 0.0039215684 0.59215224 0.8058166
vn 0.0039215684 0.59215224 0.8058166
vn 0.0039215684 0.59215224 0.8058166
vn 0.0039215684 0.59215224 0.8058166
vn 0.0039215684 -0.5764662 0.81711155
vn -0.003921509 -0.5764662 0.81711155
vn -0.003921509 -0.5764662 0.81711155
vn 0.0039215684 -0.5764662 0.81711155
vn -0.003921509 0.99999225 -0.00034526698
vn -0.003921509 0.99999225 -0.00034526698
vn -0.003921509 0.99999225 -0.00034526698
vn -0.003921509 0.99999225 -0.00034526698
vn -0.011764526 -0.5843093 0.8114458
vn 0.019607723 -0.5843093 0.8112942
vn 0.9999924 0.003921509 -0
vn 0.9999924 0.003921509 -0
vn -0.99999225 0.003921509 -0.00034492963
vn -0.27834356 0.9604815 -0
vn 0.2705862 0.9607769 -0.060751785
vn 0.3019585 0.9529338 -0.027170997
vn -0.30917454 0.9510054 -0
vn 0.9999924 0.003921509 -0
vn 0.9999924 0.003921509 -0
vn 0.9999924 0.003921509 -0
vn 0.9999924 0.003921509 -0
vn -0.59215224 0.8039154 -0.055460237
vn -0.59215224 0.8039154 -0.055460237
vn 0.5981219 0.8014051 -0
vn 0.5981219 0.8014051 -0
vn -0.99999225 -0.0039215684 -0.00034425134
vn -0.99999225 0.003921509 -0.00034492963
vn -0.99999225 -0.0039215684 -0.00034425134
vn -0.003921509 -0.59215236 0.8058165
vn -0.003921509 -0.59215236 0.8058165
vn -0.003921509 -0.59215236 0.8058165
vn -0.003921509 -0.59215236 0.8058165
vn -0.003921509 0.5764661 0.8171117
vn 0.0039215684 0.5764661 0.8171117
vn 0.0039215684 0.5764661 0.8171117
vn -0.003921509 0.5764661 0.8171117
vn 0.0039215684 -0.9999924 -0
vn 0.0039215684 -0.9999924 -0
vn 0.0039215684 -0.9999924 -0
vn 0.0039215684 -0.9999924 -0
vn 0.011764646 0.5843092 0.81144583
vn -0.019607663 0.5843092 0.8112942
vn -0.99999225 -0.0039215684 -0.00034425134
vn -0.99999225 -0.0039215684 -0.00034425134
vn 0.9999924 0.003921509 -0
vn -0.003921509 0.99999225 -0.00034526698
vn -0.003921509 0.99999225 -0.00034526698
vn -0.003921509 0.9764631 -0.21564901
vn -0.003921509 0.9764631 -0.21564901
vn -0.003921509 0.13725376 -0.99052817
vn -0.003921509 0.13725376 -0.99052817
vn -0.003921509 -0.13725388 -0.9905281
vn -0.003921509 -0.13725388 -0.9905281
vn -0.003921509 -0.9999924 -0
vn -0.003921509 -0.9999924 -0
vn -0.003921509 -0.9999924 -0
vn -0.003921509 -0.9999924 -0
vn -0.99999225 0.003921509 -0.00034492963
vn -0.99999225 0.003921509 -0.00034492963
vn -0.99999225 0.003921509 -0.00034492963
vn -0.99999225 0.003921509 -0.00034492963
vn 0.9999924 0.003921509 -0
vn 0.9999924 0.003921509 -0
vn 0.9999924 0.003921509 -0
vn 0.9999924 0.003921509 -0
vn -0.003921509 0.9764631 -0.21564901
vn -0.003921509 0.9764631 -0.21564901
vn -0.003921509 -0.9999924 -0
vn -0.003921509 -0.9999924 -0
vn 0.9999924 0.003921509 -0
vn 0.9999924 0.003921509 -0
vn 0.9999924 0.003921509 -0
vn 0.9999924 0.003921509 -0
vn -0.99999225 0.003921509 -0.00034492963
vn -0.99999225 0.003921509 -0.00034492963
vn -0.99999225 0.003921509 -0.00034492963
vn -0.99999225 0.003921509 -0.00034492963
vn -0.874503 -0.18431234 -0.44863504
vn -0.874503 0.45097685 -0.17850582
vn -0.99999225 -0.0039215684 -0.00034425134
vn -0.874503 -0.45097697 0.17850554
vn -0.874503 0.18431222 0.4486351
vn -0.8117584 0.15293992 -0.56361127
vn -0.8117584 0.2862723 -0.5090152
vn -0.8117584 -0.5058785 -0.2917794
vn -0.8117584 -0.56078005 -0.16301547
vn -0.8117584 -0.28627235 0.50901514
vn -0.8117584 -0.15294003 0.56361127
vn -0.8117584 0.50587845 0.29177952
vn -0.8117584 0.5607799 0.16301584
g VoidTurretPlazmaGun_3_CorpsePart_0
f 3/3/3 2/2/2 1/1/1
f 4/4/4 3/3/3 1/1/1
f 7/7/7 6/6/6 5/5/5
f 8/8/8 7/7/7 5/5/5
f 11/11/11 10/10/10 9/9/9
f 12/12/12 11/11/11 9/9/9
f 15/15/15 14/14/14 13/13/13
f 16/16/16 15/15/15 13/13/13
f 19/19/19 18/18/18 17/17/17
f 20/20/20 19/19/19 17/17/17
f 23/23/23 22/22/22 21/21/21
f 24/24/24 23/23/23 21/21/21
f 27/27/27 26/26/26 25/25/25
f 28/28/28 27/27/27 25/25/25
f 21/21/21 30/30/30 29/29/29
f 24/24/24 21/21/21 29/29/29
f 23/23/23 32/32/32 31/31/31
f 22/22/22 23/23/23 31/31/31
f 35/35/35 34/34/34 33/33/33
f 38/38/38 37/37/37 36/36/36
f 39/39/39 38/38/38 36/36/36
f 42/42/42 41/41/41 40/40/40
f 43/43/43 42/42/42 40/40/40
f 46/46/46 45/45/45 44/44/44
f 47/47/47 46/46/46 44/44/44
f 48/48/48 41/41/41 42/42/42
f 40/40/40 49/49/49 43/43/43
f 33/33/33 51/51/51 50/50/50
f 35/35/35 33/33/33 50/50/50
f 52/52/52 28/28/28 25/25/25
f 55/55/55 54/54/54 53/53/53
f 56/56/56 55/55/55 53/53/53
f 59/59/59 58/58/58 57/57/57
f 60/60/60 59/59/59 57/57/57
f 53/53/53 62/62/62 61/61/61
f 56/56/56 53/53/53 61/61/61
f 55/55/55 64/64/64 63/63/63
f 54/54/54 55/55/55 63/63/63
f 67/67/67 66/66/66 65/65/65
f 70/70/70 69/69/69 68/68/68
f 71/71/71 70/70/70 68/68/68
f 74/74/74 73/73/73 72/72/72
f 75/75/75 74/74/74 72/72/72
f 78/78/78 77/77/77 76/76/76
f 79/79/79 78/78/78 76/76/76
f 80/80/80 73/73/73 74/74/74
f 72/72/72 81/81/81 75/75/75
f 65/65/65 83/83/83 82/82/82
f 67/67/67 65/65/65 82/82/82
f 84/84/84 60/60/60 57/57/57
f 87/87/87 86/86/86 85/85/85
f 88/88/88 87/87/87 85/85/85
f 91/91/91 90/90/90 89/89/89
f 92/92/92 91/91/91 89/89/89
f 95/95/95 94/94/94 93/93/93
f 96/96/96 95/95/95 93/93/93
f 99/99/99 98/98/98 97/97/97
f 100/100/100 99/99/99 97/97/97
f 103/103/103 102/102/102 101/101/101
f 104/104/104 103/103/103 101/101/101
f 106/106/106 105/105/105 89/89/89
f 90/90/90 106/106/106 89/89/89
f 91/91/91 92/92/92 107/107/107
f 108/108/108 91/91/91 107/107/107
f 111/111/111 110/110/110 109/109/109
f 112/112/112 111/111/111 109/109/109
f 115/115/115 114/114/114 113/113/113
f 116/116/116 115/115/115 113/113/113
f 119/119/119 118/118/118 117/117/117
f 119/119/119 117/117/117 120/120/120
f 119/119/119 120/120/120 121/121/121
f 119/119/119 121/121/121 118/118/118
f 122/122/122 117/117/117 118/118/118
f 123/123/123 122/122/122 118/118/118
f 122/122/122 124/124/124 117/117/117
f 125/125/125 120/120/120 117/117/117
f 124/124/124 125/125/125 117/117/117
f 125/125/125 126/126/126 120/120/120
f 127/127/127 121/121/121 120/120/120
f 126/126/126 127/127/127 120/120/120
f 127/127/127 128/128/128 121/121/121
f 129/129/129 118/118/118 121/121/121
f 128/128/128 129/129/129 121/121/121
f 129/129/129 123/123/123 118/118/118
