g VoidShassi_3
v -0.38839543 0.8562982 0.14477152
v -0.28096458 1.0726258 0.10528174
v -0.55224025 1.0726258 -0.16599393
v -0.59175223 0.8562982 -0.058563076
v -0.5071757 0.9369657 0.26357397
v -0.38839543 0.8562982 0.14477152
v -0.59175223 0.8562982 -0.058563076
v -0.7105325 0.9369657 0.060217187
v -0.29526797 1.1880745 0.01259847
v -0.41407043 1.2687421 0.13137874
v -0.57833725 1.2687421 -0.032888055
v -0.459557 1.1880745 -0.15169054
v -0.59175223 0.8562982 -0.058563076
v -0.55224025 1.0726258 -0.16599393
v -0.67104274 1.1532933 -0.04719144
v -0.7105325 0.9369657 0.060217187
v -0.5071757 0.9369657 0.26357397
v -0.3997671 1.1532933 0.2240842
v -0.28096458 1.0726258 0.10528174
v -0.38839543 0.8562982 0.14477152
v -0.29526797 1.1880745 0.01259847
v -0.459557 1.1880745 -0.15169054
v -0.55224025 1.0726258 -0.16599393
v -0.459557 1.1880745 -0.15169054
v -0.57833725 1.2687421 -0.032888055
v -0.67104274 1.1532933 -0.04719144
v -0.3997671 1.1532933 0.2240842
v -0.41407043 1.2687421 0.13137874
v -0.29526797 1.1880745 0.01259847
v -0.28096458 1.0726258 0.10528174
v -0.78142756 1.1766807 0.17622119
v -0.7342086 1.2477534 0.1751773
v -0.73014414 1.2343606 0.19489998
v -0.7672796 1.1784575 0.19572175
v -0.6684663 1.2771819 0.22095257
v -0.6784387 1.2575259 0.23088053
v -0.62271327 1.2477534 0.28669482
v -0.6424582 1.2343606 0.28258595
v -0.6237572 1.1766807 0.33391374
v -0.64325774 1.1784575 0.31972143
v -0.68041545 1.1225543 0.3205432
v -0.6709761 1.105608 0.33495766
v -0.7321209 1.0994112 0.28456265
v -0.73671836 1.0761572 0.2892046
v -0.73671836 1.0761572 0.2892046
v -0.7824714 1.105608 0.22344011
v -0.7681014 1.1225543 0.23285726
v -0.7321209 1.0994112 0.28456265
v -0.7562634 1.1471854 0.113233
v -0.6975395 1.2355378 0.111944795
v -0.7342086 1.2477534 0.1751773
v -0.78142756 1.1766807 0.17622119
v -0.6157837 1.2721401 0.16882518
v -0.6684663 1.2771819 0.22095257
v -0.55890334 1.2355378 0.250581
v -0.62271327 1.2477534 0.28669482
v -0.56021374 1.1471854 0.30928263
v -0.6237572 1.1766807 0.33391374
v -0.6709761 1.105608 0.33495766
v -0.6189153 1.058811 0.31059304
v -0.70064896 1.0222086 0.25369045
v -0.73671836 1.0761572 0.2892046
v -0.73671836 1.0761572 0.2892046
v -0.70064896 1.0222086 0.25369045
v -0.75755155 1.058811 0.1719568
v -0.7824714 1.105608 0.22344011
v -0.36756223 0.9192864 0.10965714
v -0.5564824 0.91844237 -0.0790187
v -0.59503937 0.94460607 -0.04050617
v -0.40598595 0.94536114 0.14803642
v -0.3370232 1.1480294 0.07936239
v -0.5255436 1.1488068 -0.10969101
v -0.48698664 1.1226209 -0.14822575
v -0.2985773 1.1219547 0.040960923
v -0.4627775 1.0725148 -0.1724571
v -0.27456805 1.0722038 0.016929463
v -0.459557 1.0119919 -0.175722
v -0.27136979 1.0121473 0.013686776
v -0.47816914 0.95726585 -0.15717646
v -0.2898487 0.9578433 0.032076836
v -0.5136611 0.92301774 -0.12177338
v -0.3250519 0.92386174 0.067213416
v -0.2898487 0.9578433 0.032076836
v -0.3250519 0.92386174 0.067213416
v -0.36756223 0.9192864 0.10965714
v -0.40598595 0.94536114 0.14803642
v -0.27456805 1.0722038 0.016929463
v -0.27136979 1.0121473 0.013686776
v -0.47816914 0.95726585 -0.15717646
v -0.4627775 1.0725148 -0.1724571
v -0.5255436 1.1488068 -0.10969101
v -0.59503937 0.94460607 -0.04050617
v -0.459557 1.0119919 -0.175722
v -0.3370232 1.1480294 0.07936239
v -0.2985773 1.1219547 0.040960923
v -0.5564824 0.91844237 -0.0790187
v -0.5136611 0.92301774 -0.12177338
v -0.48698664 1.1226209 -0.14822575
v -0.7672796 1.1784575 0.19572175
v -0.73014414 1.2343606 0.19489998
v -0.7874243 1.1921167 0.21584421
v -0.7502888 1.2480421 0.21502244
v -0.6784387 1.2575259 0.23088053
v -0.6985612 1.2711852 0.251003
v -0.6784387 1.2575259 0.23088053
v -0.6424582 1.2343606 0.28258595
v -0.6985612 1.2711852 0.251003
v -0.6625806 1.2480421 0.3027084
v -0.64325774 1.1784575 0.31972143
v -0.66340244 1.192139 0.3398661
v -0.68041545 1.1225543 0.3205432
v -0.7005379 1.1362358 0.34068787
v -0.7321209 1.0994112 0.28456265
v -0.7522433 1.1130706 0.30468512
v -0.7321209 1.0994112 0.28456265
v -0.7681014 1.1225543 0.23285726
v -0.7522433 1.1130706 0.30468512
v -0.7882461 1.1362358 0.25297973
v -0.8074357 1.211373 0.25246888
v -0.7752531 1.2597691 0.25175816
v -0.7304773 1.279825 0.28291908
v -0.7304773 1.279825 0.28291908
v -0.6993163 1.2597691 0.3276949
v -0.70002705 1.2113508 0.35987753
v -0.73218745 1.1629547 0.36058825
v -0.77698547 1.1428989 0.3294273
v -0.77698547 1.1428989 0.3294273
v -0.80812424 1.1629547 0.2846293
v -0.8066583 1.2262539 0.29708922
v -0.7880906 1.2542166 0.29668942
v -0.7622379 1.2657881 0.3146797
v -0.7622379 1.2657881 0.3146797
v -0.7442476 1.2542166 0.34053242
v -0.7446696 1.2262539 0.3591224
v -0.76323736 1.1983134 0.35952216
v -0.78909004 1.1867197 0.34153187
v -0.78909004 1.1867197 0.34153187
v -0.8070803 1.1983134 0.31567916
v -0.784648 1.2323617 0.33708984
v -0.784648 1.2323617 0.33708984
vt 0.96185476 0.17380482
vt 0.96185476 0.18436632
vt 0.9496684 0.18436632
vt 0.9496684 0.17380482
vt 0.96185476 0.16649301
vt 0.96185476 0.17380482
vt 0.9496684 0.17380482
vt 0.9496684 0.16649301
vt 0.96185476 0.19005327
vt 0.96185476 0.19736508
vt 0.9496684 0.19736508
vt 0.9496684 0.19005327
vt 0.9496684 0.17380482
vt 0.9496684 0.18436632
vt 0.9415442 0.18436632
vt 0.9415442 0.17380482
vt 0.9699789 0.17380482
vt 0.9699789 0.18436632
vt 0.96185476 0.18436632
vt 0.96185476 0.17380482
vt 0.96185476 0.19005327
vt 0.9496684 0.19005327
vt 0.9496684 0.18436632
vt 0.9496684 0.19005327
vt 0.9415442 0.19005327
vt 0.9415442 0.18436632
vt 0.9699789 0.18436632
vt 0.9699789 0.19005327
vt 0.96185476 0.19005327
vt 0.96185476 0.18436632
vt 0.9967889 0.19492781
vt 0.9967889 0.1916781
vt 0.99760133 0.1916781
vt 0.99760133 0.19492781
vt 0.9967889 0.187616
vt 0.99760133 0.187616
vt 0.9967889 0.18355389
vt 0.99760133 0.18355389
vt 0.9967889 0.17949177
vt 0.99760133 0.17949177
vt 0.99760133 0.17624208
vt 0.9967889 0.17624208
vt 0.99760133 0.17217997
vt 0.9967889 0.17217997
vt 0.9967889 0.20305203
vt 0.9967889 0.19898991
vt 0.99760133 0.19898991
vt 0.99760133 0.20305203
vt 0.9935392 0.19492781
vt 0.9935392 0.1916781
vt 0.9967889 0.1916781
vt 0.9967889 0.19492781
vt 0.9935392 0.187616
vt 0.9967889 0.187616
vt 0.9935392 0.18355389
vt 0.9967889 0.18355389
vt 0.9935392 0.17949177
vt 0.9967889 0.17949177
vt 0.9967889 0.17624208
vt 0.9935392 0.17624208
vt 0.9935392 0.17217997
vt 0.9967889 0.17217997
vt 0.9967889 0.20305203
vt 0.9935392 0.20305203
vt 0.9935392 0.19898991
vt 0.9967889 0.19898991
vt 0.8822373 0.22823714
vt 0.8822373 0.2379862
vt 0.8798 0.2379862
vt 0.8798 0.22823714
vt 0.8984858 0.22823714
vt 0.8984858 0.2379862
vt 0.8952361 0.2379862
vt 0.8952361 0.22823714
vt 0.8927988 0.2379862
vt 0.8927988 0.22823714
vt 0.89036155 0.2379862
vt 0.89036155 0.22823714
vt 0.88711184 0.2379862
vt 0.88711184 0.22823714
vt 0.8846746 0.2379862
vt 0.8846746 0.22823714
vt 0.93017024 0.2379862
vt 0.93260753 0.23961104
vt 0.93423235 0.24204832
vt 0.93423235 0.24448559
vt 0.9252957 0.23961104
vt 0.927733 0.2379862
vt 0.94073176 0.24448559
vt 0.9415442 0.23961104
vt 0.9464187 0.2379862
vt 0.9464187 0.24773528
vt 0.94073176 0.24204832
vt 0.9244833 0.24448559
vt 0.9244833 0.24204832
vt 0.9439814 0.24773528
vt 0.9415442 0.24692285
vt 0.9439814 0.2379862
vt 0.8846746 0.24773528
vt 0.8822373 0.24773528
vt 0.8846746 0.24692285
vt 0.8822373 0.24611044
vt 0.8798 0.24773528
vt 0.8798 0.24611044
vt 0.9041727 0.24773528
vt 0.9017355 0.24773528
vt 0.9041727 0.24611044
vt 0.9017355 0.24611044
vt 0.8984858 0.24773528
vt 0.8984858 0.24692285
vt 0.8960485 0.24773528
vt 0.8960485 0.24611044
vt 0.89361125 0.24773528
vt 0.89361125 0.24611044
vt 0.89036155 0.24773528
vt 0.88792425 0.24773528
vt 0.89036155 0.24611044
vt 0.88792425 0.24611044
vt 0.8846746 0.24448559
vt 0.8830497 0.24448559
vt 0.8806125 0.24367316
vt 0.9033603 0.24367316
vt 0.900923 0.24448559
vt 0.8984858 0.24448559
vt 0.8968609 0.24448559
vt 0.89442366 0.24367316
vt 0.88954914 0.24367316
vt 0.88711184 0.24448559
vt 0.8846746 0.24286073
vt 0.88386214 0.24286073
vt 0.8822373 0.24204832
vt 0.9017355 0.24204832
vt 0.9001106 0.24286073
vt 0.8984858 0.24286073
vt 0.89767337 0.24286073
vt 0.8960485 0.24204832
vt 0.88711184 0.24204832
vt 0.88629943 0.24286073
vt 0.8846746 0.2412359
vt 0.8984858 0.2412359
vn 0.640743 -0.43083453 -0.6354762
vn 0.640743 -0.43083453 -0.6354762
vn 0.640743 -0.43083453 -0.6354762
vn 0.640743 -0.43083453 -0.6354762
vn -0.30773216 -0.90507215 0.29350528
vn -0.30773216 -0.90507215 0.29350528
vn -0.30773216 -0.90507215 0.29350528
vn -0.30773216 -0.90507215 0.29350528
vn 0.30644435 0.8985856 -0.31406325
vn 0.30644435 0.8985856 -0.31406325
vn 0.30644435 0.8985856 -0.31406325
vn 0.30644435 0.8985856 -0.31406325
vn -0.7508723 -0.17427975 -0.63703793
vn -0.7508723 -0.17427975 -0.63703793
vn -0.7508723 -0.17427975 -0.63703793
vn -0.7508723 -0.17427975 -0.63703793
vn 0.63296866 -0.17427975 0.7543058
vn 0.63296866 -0.17427975 0.7543058
vn 0.63296866 -0.17427975 0.7543058
vn 0.63296866 -0.17427975 0.7543058
vn 0.640743 -0.43083453 -0.6354762
vn 0.640743 -0.43083453 -0.6354762
vn -0.4554456 0.4554456 -0.7649435
vn -0.4554456 0.4554456 -0.7649435
vn -0.4554456 0.4554456 -0.7649435
vn -0.4554456 0.4554456 -0.7649435
vn 0.7651332 0.4554456 0.45512688
vn 0.7651332 0.4554456 0.45512688
vn 0.7651332 0.4554456 0.45512688
vn 0.7651332 0.4554456 0.45512688
vn -0.7508723 0.42434806 0.5060825
vn -0.6731284 0.5331895 0.51245207
vn -0.6731284 0.5331895 0.51245207
vn -0.7508723 0.42434806 0.5060825
vn -0.57206136 0.57983583 0.5801174
vn -0.57206136 0.57983583 0.5801174
vn -0.50209194 0.5331895 0.6808911
vn -0.50209194 0.5331895 0.6808911
vn -0.5098663 0.42434806 0.7483081
vn -0.5098663 0.42434806 0.7483081
vn -0.57983583 0.31550664 0.75116307
vn -0.57983583 0.31550664 0.75116307
vn -0.6809028 0.26886028 0.68123823
vn -0.6809028 0.26886028 0.68123823
vn -0.6809028 0.26886028 0.68123823
vn -0.7508723 0.31550664 0.58021235
vn -0.7508723 0.31550664 0.58021235
vn -0.6809028 0.26886028 0.68123823
vn -0.89081126 0.16001886 -0.42526373
vn -0.49431747 0.7508723 -0.4379966
vn -0.50209194 0.7508723 -0.42906234
vn -0.89081126 0.15224451 -0.4281085
vn 0.04984486 0.99875695 -0
vn 0.04984486 0.99875695 -0
vn 0.43083453 0.7508723 0.5005721
vn 0.43083453 0.7508723 0.5005721
vn 0.42306018 0.16001886 0.8918599
vn 0.42306018 0.16001886 0.8918599
vn 0.026566446 -0.43860894 0.89828527
vn 0.0343408 -0.43083453 0.9017773
vn -0.51764065 -0.6873894 0.5094546
vn -0.51764065 -0.6873894 0.5094546
vn -0.51764065 -0.6873894 0.5094546
vn -0.51764065 -0.6873894 0.5094546
vn -0.8985856 -0.43860894 -0.0128863705
vn -0.8985856 -0.43860894 -0.0128863705
vn -0.12892133 -0.98281604 0.1321058
vn -0.12892133 -0.98281604 0.1321058
vn -0.30773216 -0.90507215 0.29350528
vn -0.30773216 -0.90507215 0.29350528
vn 0.30644435 0.8985856 -0.31406325
vn 0.30644435 0.8985856 -0.31406325
vn 0.46193212 0.75864667 -0.45942783
vn 0.46193212 0.75864667 -0.45942783
vn 0.67184055 0.33105534 -0.6625954
vn 0.67184055 0.33105534 -0.6625954
vn 0.6951637 -0.18205416 -0.69541615
vn 0.6951637 -0.18205416 -0.69541615
vn 0.53967595 -0.6485174 -0.53681946
vn 0.53967595 -0.6485174 -0.53681946
vn 0.23647487 -0.9439441 -0.23032413
vn 0.23647487 -0.9439441 -0.23032413
vn 0.7029381 -0.0032432675 0.7112437
vn 0.7029381 -0.0032432675 0.7112437
vn 0.7029381 -0.0032432675 0.7112437
vn 0.7029381 -0.0032432675 0.7112437
vn 0.7029381 -0.0032432675 0.7112437
vn 0.7029381 -0.0032432675 0.7112437
vn -0.70422596 -0.0032432675 -0.7099685
vn -0.70422596 -0.0032432675 -0.7099685
vn -0.70422596 -0.0032432675 -0.7099685
vn -0.70422596 -0.0032432675 -0.7099685
vn -0.70422596 -0.0032432675 -0.7099685
vn 0.7029381 -0.0032432675 0.7112437
vn 0.7029381 -0.0032432675 0.7112437
vn -0.70422596 0.004531145 -0.7099615
vn -0.70422596 0.004531145 -0.7099615
vn -0.70422596 -0.0032432675 -0.7099685
vn -0.70422596 -0.0032432675 -0.7099685
vn -0.2844091 0.63425654 -0.71890897
vn -0.7897442 0.07450062 -0.6088955
vn -0.36992735 0.6964516 -0.6149056
vn 0.30644435 0.8985856 -0.31406325
vn 0.2131517 0.9530063 -0.21527956
vn 0.30644435 0.8985856 -0.31406325
vn 0.7184869 0.63425654 0.28547364
vn 0.2131517 0.9530063 -0.21527956
vn 0.61741984 0.68867725 0.38015315
vn 0.7107125 -0.0032432675 0.7034751
vn 0.6018711 0.058951795 0.79641443
vn 0.28312123 -0.640743 0.7136461
vn 0.18205416 -0.5707735 0.8006709
vn -0.30773216 -0.90507215 0.29350528
vn -0.40102488 -0.8273283 0.39332798
vn -0.30773216 -0.90507215 0.29350528
vn -0.7197748 -0.640743 -0.26715657
vn -0.40102488 -0.8273283 0.39332798
vn -0.805293 -0.5629991 -0.18583624
vn -0.9063601 0.21443957 -0.36404264
vn -0.51764065 0.7741955 -0.36423826
vn 0.011017621 0.9996527 0.02393948
vn 0.011017621 0.9996527 0.02393948
vn 0.36863947 0.7508723 0.5479924
vn 0.3453163 0.16779321 0.9233646
vn -0.04340309 -0.39196265 0.91895676
vn -0.57206136 -0.61741984 0.5399431
vn -0.57206136 -0.61741984 0.5399431
vn -0.92968315 -0.36086506 0.07393018
vn -0.9219088 0.3777017 0.086172044
vn -0.6575796 0.7508723 0.06148031
vn -0.2999578 0.89081126 0.34129253
vn -0.2999578 0.89081126 0.34129253
vn -0.06672627 0.70422596 0.70683336
vn -0.0978238 0.31550664 0.9438676
vn -0.36215287 -0.057663977 0.9303334
vn -0.7197748 -0.19760293 0.66549027
vn -0.7197748 -0.19760293 0.66549027
vn -0.9530063 -0.018792033 0.30236697
vn -0.63425654 0.4321224 0.6410841
vn -0.63425654 0.4321224 0.6410841
g VoidShassi_3_0
f 3/3/3 2/2/2 1/1/1
f 4/4/4 3/3/3 1/1/1
f 7/7/7 6/6/6 5/5/5
f 8/8/8 7/7/7 5/5/5
f 11/11/11 10/10/10 9/9/9
f 12/12/12 11/11/11 9/9/9
f 15/15/15 14/14/14 13/13/13
f 16/16/16 15/15/15 13/13/13
f 19/19/19 18/18/18 17/17/17
f 20/20/20 19/19/19 17/17/17
f 22/22/22 21/21/21 2/2/2
f 3/3/3 22/22/22 2/2/2
f 25/25/25 24/24/24 23/23/23
f 26/26/26 25/25/25 23/23/23
f 29/29/29 28/28/28 27/27/27
f 30/30/30 29/29/29 27/27/27
f 33/33/33 32/32/32 31/31/31
f 34/34/34 33/33/33 31/31/31
f 36/36/36 35/35/35 32/32/32
f 33/33/33 36/36/36 32/32/32
f 38/38/38 37/37/37 35/35/35
f 36/36/36 38/38/38 35/35/35
f 40/40/40 39/39/39 37/37/37
f 38/38/38 40/40/40 37/37/37
f 39/39/39 40/40/40 41/41/41
f 42/42/42 39/39/39 41/41/41
f 42/42/42 41/41/41 43/43/43
f 44/44/44 42/42/42 43/43/43
f 47/47/47 46/46/46 45/45/45
f 48/48/48 47/47/47 45/45/45
f 34/34/34 31/31/31 46/46/46
f 47/47/47 34/34/34 46/46/46
f 51/51/51 50/50/50 49/49/49
f 52/52/52 51/51/51 49/49/49
f 54/54/54 53/53/53 50/50/50
f 51/51/51 54/54/54 50/50/50
f 55/55/55 53/53/53 54/54/54
f 56/56/56 55/55/55 54/54/54
f 57/57/57 55/55/55 56/56/56
f 58/58/58 57/57/57 56/56/56
f 57/57/57 58/58/58 59/59/59
f 60/60/60 57/57/57 59/59/59
f 61/61/61 60/60/60 59/59/59
f 62/62/62 61/61/61 59/59/59
f 65/65/65 64/64/64 63/63/63
f 66/66/66 65/65/65 63/63/63
f 52/52/52 49/49/49 65/65/65
f 66/66/66 52/52/52 65/65/65
f 69/69/69 68/68/68 67/67/67
f 70/70/70 69/69/69 67/67/67
f 73/73/73 72/72/72 71/71/71
f 74/74/74 73/73/73 71/71/71
f 75/75/75 73/73/73 74/74/74
f 76/76/76 75/75/75 74/74/74
f 77/77/77 75/75/75 76/76/76
f 78/78/78 77/77/77 76/76/76
f 79/79/79 77/77/77 78/78/78
f 80/80/80 79/79/79 78/78/78
f 82/82/82 81/81/81 79/79/79
f 80/80/80 82/82/82 79/79/79
f 68/68/68 81/81/81 82/82/82
f 67/67/67 68/68/68 82/82/82
f 85/85/85 84/84/84 83/83/83
f 86/86/86 85/85/85 83/83/83
f 88/88/88 87/87/87 83/83/83
f 91/91/91 90/90/90 89/89/89
f 92/92/92 91/91/91 89/89/89
f 93/93/93 89/89/89 90/90/90
f 95/95/95 94/94/94 87/87/87
f 94/94/94 86/86/86 83/83/83
f 87/87/87 94/94/94 83/83/83
f 89/89/89 97/97/97 96/96/96
f 92/92/92 89/89/89 96/96/96
f 91/91/91 98/98/98 90/90/90
f 101/101/101 100/100/100 99/99/99
f 102/102/102 100/100/100 101/101/101
f 102/102/102 103/103/103 100/100/100
f 104/104/104 103/103/103 102/102/102
f 107/107/107 106/106/106 105/105/105
f 108/108/108 106/106/106 107/107/107
f 108/108/108 109/109/109 106/106/106
f 110/110/110 109/109/109 108/108/108
f 110/110/110 111/111/111 109/109/109
f 112/112/112 111/111/111 110/110/110
f 112/112/112 113/113/113 111/111/111
f 114/114/114 113/113/113 112/112/112
f 117/117/117 116/116/116 115/115/115
f 118/118/118 116/116/116 117/117/117
f 118/118/118 99/99/99 116/116/116
f 101/101/101 99/99/99 118/118/118
f 119/119/119 102/102/102 101/101/101
f 120/120/120 102/102/102 119/119/119
f 120/120/120 104/104/104 102/102/102
f 121/121/121 104/104/104 120/120/120
f 122/122/122 108/108/108 107/107/107
f 123/123/123 108/108/108 122/122/122
f 123/123/123 110/110/110 108/108/108
f 124/124/124 110/110/110 123/123/123
f 124/124/124 112/112/112 110/110/110
f 125/125/125 112/112/112 124/124/124
f 125/125/125 114/114/114 112/112/112
f 126/126/126 114/114/114 125/125/125
f 127/127/127 118/118/118 117/117/117
f 128/128/128 118/118/118 127/127/127
f 128/128/128 101/101/101 118/118/118
f 119/119/119 101/101/101 128/128/128
f 129/129/129 120/120/120 119/119/119
f 130/130/130 120/120/120 129/129/129
f 130/130/130 121/121/121 120/120/120
f 131/131/131 121/121/121 130/130/130
f 132/132/132 123/123/123 122/122/122
f 133/133/133 123/123/123 132/132/132
f 133/133/133 124/124/124 123/123/123
f 134/134/134 124/124/124 133/133/133
f 134/134/134 125/125/125 124/124/124
f 135/135/135 125/125/125 134/134/134
f 135/135/135 126/126/126 125/125/125
f 136/136/136 126/126/126 135/135/135
f 137/137/137 128/128/128 127/127/127
f 138/138/138 128/128/128 137/137/137
f 138/138/138 119/119/119 128/128/128
f 129/129/129 119/119/119 138/138/138
f 139/139/139 130/130/130 129/129/129
f 139/139/139 131/131/131 130/130/130
f 140/140/140 133/133/133 132/132/132
f 140/140/140 134/134/134 133/133/133
f 140/140/140 135/135/135 134/134/134
f 140/140/140 136/136/136 135/135/135
f 139/139/139 138/138/138 137/137/137
f 139/139/139 129/129/129 138/138/138
