g Water
v 75.37583 11.112808 -24.490772
v -0.0011978149 11.112808 0.0011978149
v 64.1191 11.112808 -46.585793
v 46.585793 11.112808 -64.1191
v 24.490772 11.112808 -75.37583
v -0.0011978149 11.112808 -79.25546
v -24.490753 11.112808 -75.37583
v -46.58577 11.112808 -64.1191
v -64.11908 11.112808 -46.585793
v -75.37581 11.112808 -24.490772
v -79.25545 11.112808 0.0011978149
v -75.37581 11.112808 24.490753
v -64.11908 11.112808 46.58577
v -46.58577 11.112808 64.11908
v -24.490753 11.112808 75.37581
v -0.0011978149 11.112808 79.25545
v 24.490772 11.112808 75.37581
v 46.585793 11.112808 64.11908
v 64.1191 11.112808 46.58577
v 75.37583 11.112808 24.490753
v 79.25546 11.112808 0.0011978149
vt 0.9755621 0.65493643
vt 0.50048876 0.49951124
vt 0.9042033 0.7937439
vt 0.7937439 0.9042033
vt 0.65493643 0.9755621
vt 0.50048876 1
vt 0.34506354 0.9755621
vt 0.2062561 0.9042033
vt 0.095796674 0.7937439
vt 0.024437929 0.65493643
vt 0 0.49951124
vt 0.024437929 0.34506354
vt 0.095796674 0.2062561
vt 0.2062561 0.095796674
vt 0.34506354 0.024437929
vt 0.50048876 0
vt 0.65493643 0.024437929
vt 0.7937439 0.095796674
vt 0.9042033 0.2062561
vt 0.9755621 0.34506354
vt 1 0.49951124
vn -0 1 -0
vn -0 1 -0
vn -0 1 -0
vn -0 1 -0
vn -0 1 -0
vn -0 1 -0
vn -0 1 -0
vn -0 1 -0
vn -0 1 -0
vn -0 1 -0
vn -0 1 -0
vn -0 1 -0
vn -0 1 -0
vn -0 1 -0
vn -0 1 -0
vn -0 1 -0
vn -0 1 -0
vn -0 1 -0
vn -0 1 -0
vn -0 1 -0
vn -0 1 -0
g Water_0
f 3/3/3 2/2/2 1/1/1
f 4/4/4 2/2/2 3/3/3
f 5/5/5 2/2/2 4/4/4
f 6/6/6 2/2/2 5/5/5
f 7/7/7 2/2/2 6/6/6
f 8/8/8 2/2/2 7/7/7
f 9/9/9 2/2/2 8/8/8
f 10/10/10 2/2/2 9/9/9
f 11/11/11 2/2/2 10/10/10
f 12/12/12 2/2/2 11/11/11
f 13/13/13 2/2/2 12/12/12
f 14/14/14 2/2/2 13/13/13
f 15/15/15 2/2/2 14/14/14
f 16/16/16 2/2/2 15/15/15
f 17/17/17 2/2/2 16/16/16
f 18/18/18 2/2/2 17/17/17
f 19/19/19 2/2/2 18/18/18
f 20/20/20 2/2/2 19/19/19
f 21/21/21 2/2/2 20/20/20
f 1/1/1 2/2/2 21/21/21
