g WoodPiece
v 0.037603617 0.39556038 0.42465198
v -0.09819603 0.97263587 0.5077249
v 0.11857569 0.97263587 0.5077249
v 0.25437534 0.39556038 0.42465198
v 0.027566016 0.36678982 -0.4319886
v -0.0672369 0.68247867 -0.43864143
v -0.04287237 0.66202414 -0.16599178
v 0.0557822 0.3330295 -0.13094765
v 0.26274973 0.36678982 -0.4319886
v 0.14953476 0.68247867 -0.43864143
v -0.0672369 0.68247867 -0.43864143
v 0.027566016 0.36678982 -0.4319886
v 0.1738993 0.66202414 -0.16599178
v 0.14953476 0.68247867 -0.43864143
v 0.26274973 0.36678982 -0.4319886
v 0.27255392 0.37078738 -0.14810497
v -0.04287237 0.66202414 -0.16599178
v -0.0672369 0.68247867 -0.43864143
v 0.14953476 0.68247867 -0.43864143
v 0.1738993 0.66202414 -0.16599178
v 0.084786296 -0.7348095 -0.378941
v -0.13236475 -0.7348387 -0.3788826
v -0.13236475 -0.9115766 -0.018287063
v 0.084786296 -0.9115766 -0.018462121
v 0.084786296 -0.7348095 -0.378941
v 0.084786296 -0.9115766 -0.018462121
v 0.2361092 -0.36475992 -0.11355686
v 0.2361092 -0.38165462 -0.4174866
v -0.13236475 -0.7348387 -0.3788826
v 0.084786296 -0.7348095 -0.378941
v 0.2361092 -0.38165462 -0.4174866
v 0.019337475 -0.38016647 -0.41538566
v -0.13236475 -0.9115766 -0.018287063
v -0.13236475 -0.7348387 -0.3788826
v 0.019337475 -0.38016647 -0.41538566
v 0.019337475 -0.40429765 -0.1102013
v 0.084786296 -0.85140926 0.45368516
v -0.257514 -0.9301929 0.4589666
v -0.054339767 -0.39557308 0.41306782
v 0.2361092 -0.39557308 0.41306782
v 0.27555937 8.225441E-06 -0.15732557
v 0.27555937 8.225441E-06 -0.43029624
v 0.27555937 8.225441E-06 -0.43029624
v 0.058787644 8.225441E-06 -0.43029624
v 0.058787644 8.225441E-06 -0.43029624
v 0.058787644 -0.12966377 -0.08440691
v 0.058787644 8.225441E-06 0.3974862
v 0.27555937 8.225441E-06 0.3974862
v -0.257514 -0.9301929 0.4589666
v -0.32573473 -0.93961775 -0.0027929544
v -0.08063018 -0.41057116 -0.08688718
v -0.054339767 -0.39557308 0.41306782
v -0.04978782 -0.21206558 -0.069321334
v -0.014889598 -0.048224807 0.3974862
v 0.037603617 0.39556038 0.42465198
v 0.058787644 8.225441E-06 0.3974862
v 0.27555937 8.225441E-06 0.3974862
v 0.25437534 0.39556038 0.42465198
v 0.2361092 -0.39557308 0.41306782
v 0.084786296 -0.85140926 0.45368516
v -0.257514 -0.9301929 0.4589666
v 0.084786296 -0.85140926 0.45368516
v -0.056499004 0.8292496 0.06475675
v -0.09819603 0.97263587 0.5077249
v 0.11857569 0.97263587 0.5077249
v -0.09819603 0.97263587 0.5077249
v -0.056499004 0.8292496 0.06475675
v 0.15925139 0.83269274 0.07517362
v 0.11857569 0.97263587 0.5077249
v 0.15925139 0.83269274 0.07517362
v 0.0557822 0.3330295 -0.13094765
v 0.27255392 0.37078738 -0.14810497
v 0.15925139 0.83269274 0.07517362
v -0.056499004 0.8292496 0.06475675
v -0.04287237 0.66202414 -0.16599178
v 0.1738993 0.66202414 -0.16599178
v 0.27255392 0.37078738 -0.14810497
v 0.0557822 0.3330295 -0.13094765
v 0.019337475 -0.40429765 -0.1102013
v -0.08063018 -0.41057116 -0.08688718
v -0.32573473 -0.93961775 -0.0027929544
v -0.13236475 -0.9115766 -0.018287063
v -0.32573473 -0.93961775 -0.0027929544
v 0.058787644 -0.12966377 -0.08440691
v -0.04978782 -0.21206558 -0.069321334
v -0.014889598 -0.048224807 0.3974862
v 0.058787644 8.225441E-06 0.3974862
v -0.014889598 -0.048224807 0.3974862
v -0.04978782 -0.21206558 -0.069321334
v 0.058787644 -0.12966377 -0.08440691
vt 0.599772 0.4354758
vt 0.44649005 0.43455794
vt 0.4519972 0.491465
vt 0.60619694 0.491465
vt 0.6383219 0.3501152
vt 0.6989004 0.34919736
vt 0.6924754 0.29963312
vt 0.62914336 0.29504386
vt 0.60803264 0.15094048
vt 0.69798255 0.15094048
vt 0.7117504 0.087608434
vt 0.6135398 0.08577272
vt 0.8329073 0.08485486
vt 0.78701454 0.0821013
vt 0.79068595 0.13717264
vt 0.83749664 0.13533694
vt 0.09954056 0.43455794
vt 0.03161923 0.4391472
vt 0.040797785 0.491465
vt 0.11422625 0.491465
vt 0.29137242 0.15094048
vt 0.28035817 0.088526286
vt 0.1692976 0.087608434
vt 0.17021546 0.15094048
vt 0.8044538 0.32441524
vt 0.86595017 0.3501152
vt 0.84667516 0.25741175
vt 0.797111 0.2610832
vt 0.28035817 0.088526286
vt 0.29137242 0.15094048
vt 0.40059727 0.15094048
vt 0.38591158 0.09311557
vt 0.38866514 0.29687956
vt 0.42813295 0.35929376
vt 0.4997257 0.35745806
vt 0.48871142 0.30146885
vt 0.9246929 0.491465
vt 0.96875 0.41069368
vt 0.8191395 0.41987225
vt 0.8026181 0.491465
vt 0.8384145 0.19683328
vt 0.79252166 0.19775113
vt 0.5070685 0.15094048
vt 0.5015614 0.088526286
vt 0.5704006 0.35286877
vt 0.54102916 0.2895367
vt 0.70716107 0.43455794
vt 0.7044075 0.491465
vt 0.38407588 0.1775583
vt 0.37397945 0.26383674
vt 0.48136857 0.28311172
vt 0.48871142 0.19040829
vt 0.5180828 0.27944028
vt 0.55204344 0.19591542
vt 0.64015764 0.19316186
vt 0.56856483 0.19866899
vt 0.9292822 0.19407971
vt 0.93203574 0.12799409
vt 0.93387145 0.25924745
vt 0.94305 0.33818308
vt 0.03161923 0.04997634
vt 0.03161923 0.15094048
vt 0.7227646 0.25924745
vt 0.7503003 0.1775583
vt 0.4519972 0.491465
vt 0.44649005 0.43455794
vt 0.33084023 0.43455794
vt 0.32808667 0.491465
vt 0.94305 0.029783515
vt 0.87237513 0.05548348
vt 0.18949044 0.4354758
vt 0.19316186 0.491465
vt 0.32808667 0.491465
vt 0.33084023 0.43455794
vt 0.09954056 0.43455794
vt 0.11422625 0.491465
vt 0.19316186 0.491465
vt 0.18949044 0.4354758
vt 0.48871142 0.30146885
vt 0.48136857 0.28311172
vt 0.37397945 0.26383674
vt 0.38866514 0.29687956
vt 0.16562618 0.03161923
vt 0.54102916 0.2895367
vt 0.5180828 0.27944028
vt 0.72368246 0.41711867
vt 0.56856483 0.19866899
vt 0.55204344 0.19591542
vt 0.5180828 0.27944028
vt 0.54102916 0.2895367
vn 0.0036833286 -0.11344576 0.99353737
vn 0.0036833286 -0.1448065 0.98945314
vn 0.0036833286 -0.1448065 0.98945314
vn 0.0036833286 -0.1056056 0.9944013
vn -0.9841789 -0.15264666 0.08994951
vn -0.9584468 -0.2852714 -0
vn -0.9584468 -0.2852714 -0
vn -0.99201906 -0.121285975 0.034465645
vn 0.0036833286 -0.011523485 -0.9999268
vn 0.0036833286 -0.019363642 -0.9998057
vn 0.0036833286 -0.019363642 -0.9998057
vn 0.0036833286 -0.011523485 -0.9999268
vn 0.9445045 0.32560408 -0.04351109
vn 0.9445045 0.32560408 -0.04351109
vn 0.98370534 0.16880059 -0.061888114
vn 0.99154556 0.12959969 0.006429439
vn 0.0036833286 0.99985933 0.016362887
vn 0.0036833286 0.99985933 0.016362887
vn 0.0036833286 0.99985933 0.016362887
vn 0.0036833286 0.99985933 0.016362887
vn 0.0036833286 -0.89746344 -0.44107348
vn 0.0036833286 -0.89746344 -0.44107348
vn 0.097765446 -0.99154556 -0.08531903
vn 0.08992523 -0.98370534 -0.15568306
vn 0.9445045 -0.32513052 -0.04691877
vn 0.95234466 -0.30161 -0.04550874
vn 0.9758652 -0.21536809 -0.03610677
vn 0.968025 -0.23888862 -0.076549135
vn -0.004156828 -0.1056056 -0.99439937
vn -0.004156828 -0.1056056 -0.99439937
vn -0.004156828 -0.0664047 -0.9977841
vn -0.004156828 -0.07424492 -0.99723136
vn -0.93713784 0.3412845 0.07278411
vn -0.93713784 0.3412845 0.07278411
vn -0.9684986 0.23936212 0.068674915
vn -0.96065843 0.25504255 0.10994853
vn -0.004156828 0.09039879 0.995897
vn -0.004156828 0.09039879 0.995897
vn -0.004156828 0.074718475 0.997196
vn -0.004156828 0.06687832 0.9977525
vn 0.9993857 -0.035044014 -0.00036108887
vn 0.9990806 -0.04287108 -0
vn -0.004156828 -0.019363642 -0.99980384
vn -0.004156828 -0.019363642 -0.99980384
vn -0.99985933 0.011997104 0.011721921
vn -0.99985933 0.011997104 0.011721921
vn -0.004156828 -0.0036833286 0.99998456
vn 0.0036833286 -0.011523485 0.9999268
vn -0.9136174 0.39616573 0.09141119
vn -0.9136174 0.39616573 0.09141119
vn -0.944978 0.30992377 0.10470826
vn -0.944978 0.30992377 0.10470826
vn -0.991574 0.12954155 -0
vn -0.991574 0.12954155 -0
vn -0.98951334 -0.14444074 -0
vn -0.9996301 -0.02719762 -0
vn 0.9993857 -0.035044014 -0.00036108887
vn 0.9894359 0.1449709 -0
vn 0.9758652 -0.21536809 0.03610677
vn 0.95840836 -0.28540066 -0
vn 0.13683483 -0.99059385 -0
vn 0.13683483 -0.99059385 -0
vn -0.9748487 -0.2228676 -0
vn -0.9748487 -0.2228676 -0
vn 0.0036833286 0.9528183 -0.30351895
vn 0.0036833286 0.9528183 -0.30351895
vn 0.0036833286 0.9528183 -0.30351895
vn 0.0036833286 0.9528183 -0.30351895
vn 0.97472227 0.22341985 -0
vn 0.97472227 0.22341985 -0
vn -0.051197886 0.38832557 -0.9200989
vn -0.051197886 0.38832557 -0.9200989
vn -0.051197886 0.38832557 -0.9200989
vn -0.051197886 0.38832557 -0.9200989
vn 0.027203858 0.098238945 0.994791
vn 0.027203858 0.098238945 0.994791
vn 0.027203858 0.098238945 0.994791
vn 0.027203858 0.098238945 0.994791
vn -0.15312028 -0.04288417 -0.9872766
vn -0.13743985 -0.08208507 -0.987103
vn -0.11391938 -0.121285975 -0.9860589
vn -0.11391938 -0.121285975 -0.9860589
vn 0.14450829 -0.98950356 -0
vn -0.23152196 0.121759534 -0.96517986
vn -0.23152196 0.121759534 -0.96517986
vn -0.035517573 0.051197886 0.99805677
vn -0.5764898 0.78033435 -0.24235885
vn -0.5764898 0.78033435 -0.24235885
vn -0.5764898 0.78033435 -0.24235885
vn -0.5764898 0.78033435 -0.24235885
g WoodPiece_0
f 3/3/3 2/2/2 1/1/1
f 4/4/4 3/3/3 1/1/1
f 7/7/7 6/6/6 5/5/5
f 8/8/8 7/7/7 5/5/5
f 11/11/11 10/10/10 9/9/9
f 12/12/12 11/11/11 9/9/9
f 15/15/15 14/14/14 13/13/13
f 16/16/16 15/15/15 13/13/13
f 19/19/19 18/18/18 17/17/17
f 20/20/20 19/19/19 17/17/17
f 23/23/23 22/22/22 21/21/21
f 24/24/24 23/23/23 21/21/21
f 27/27/27 26/26/26 25/25/25
f 28/28/28 27/27/27 25/25/25
f 31/31/31 30/30/30 29/29/29
f 32/32/32 31/31/31 29/29/29
f 35/35/35 34/34/34 33/33/33
f 36/36/36 35/35/35 33/33/33
f 39/39/39 38/38/38 37/37/37
f 40/40/40 39/39/39 37/37/37
f 28/28/28 42/42/42 41/41/41
f 27/27/27 28/28/28 41/41/41
f 44/44/44 43/43/43 31/31/31
f 32/32/32 44/44/44 31/31/31
f 46/46/46 45/45/45 35/35/35
f 36/36/36 46/46/46 35/35/35
f 48/48/48 47/47/47 39/39/39
f 40/40/40 48/48/48 39/39/39
f 42/42/42 15/15/15 16/16/16
f 41/41/41 42/42/42 16/16/16
f 12/12/12 9/9/9 43/43/43
f 44/44/44 12/12/12 43/43/43
f 8/8/8 5/5/5 45/45/45
f 46/46/46 8/8/8 45/45/45
f 4/4/4 1/1/1 47/47/47
f 48/48/48 4/4/4 47/47/47
f 51/51/51 50/50/50 49/49/49
f 52/52/52 51/51/51 49/49/49
f 52/52/52 54/54/54 53/53/53
f 51/51/51 52/52/52 53/53/53
f 56/56/56 55/55/55 8/8/8
f 46/46/46 56/56/56 8/8/8
f 16/16/16 58/58/58 57/57/57
f 41/41/41 16/16/16 57/57/57
f 41/41/41 57/57/57 59/59/59
f 27/27/27 41/41/41 59/59/59
f 59/59/59 60/60/60 26/26/26
f 27/27/27 59/59/59 26/26/26
f 62/62/62 61/61/61 23/23/23
f 24/24/24 62/62/62 23/23/23
f 55/55/55 64/64/64 63/63/63
f 8/8/8 55/55/55 63/63/63
f 67/67/67 66/66/66 65/65/65
f 68/68/68 67/67/67 65/65/65
f 70/70/70 69/69/69 58/58/58
f 16/16/16 70/70/70 58/58/58
f 73/73/73 72/72/72 71/71/71
f 74/74/74 73/73/73 71/71/71
f 77/77/77 76/76/76 75/75/75
f 78/78/78 77/77/77 75/75/75
f 81/81/81 80/80/80 79/79/79
f 82/82/82 81/81/81 79/79/79
f 61/61/61 83/83/83 23/23/23
f 80/80/80 85/85/85 84/84/84
f 79/79/79 80/80/80 84/84/84
f 47/47/47 86/86/86 39/39/39
f 89/89/89 88/88/88 87/87/87
f 90/90/90 89/89/89 87/87/87
