g WormAssistantLeg01
v -0.03725566 0.12320304 -0.016428187
v -0.015651807 -0.024958685 -0.03855057
v 0.0022948235 -0.011385143 -0.11197065
v -0.01918973 0.13678575 -0.08984826
v 0.07529273 0.0021975785 -0.1317757
v 0.05368428 0.15036386 -0.109648734
v 0.05368428 0.15036386 -0.109648734
v 0.07529273 0.0021975785 -0.1317757
v 0.1302247 0.0021975785 -0.07815611
v 0.108740166 0.15036386 -0.056033723
v 0.11227809 -0.011385143 -0.0047314465
v 0.09067424 0.13678575 0.017390937
v 0.03940408 -0.024958685 0.015064448
v 0.017795637 0.12320304 0.03719142
v 0.0022948235 -0.011385143 -0.11197065
v -0.015651807 -0.024958685 -0.03855057
v 0.057346106 -0.011385143 -0.058351047
v 0.07529273 0.0021975785 -0.1317757
v 0.1302247 0.0021975785 -0.07815611
v 0.11227809 -0.011385143 -0.0047314465
v 0.03940408 -0.024958685 0.015064448
v 0.035742253 0.13678575 -0.036228657
v -0.03725566 0.12320304 -0.016428187
v -0.01918973 0.13678575 -0.08984826
v 0.05368428 0.15036386 -0.109648734
v 0.108740166 0.15036386 -0.056033723
v 0.09067424 0.13678575 0.017390937
v 0.017795637 0.12320304 0.03719142
v 0.068331584 0.033391923 -0.027716517
v 0.020971045 -0.15036017 0.067165166
v -0.042018786 -0.07443463 0.13177025
v 0.048558645 0.08905353 -0.0074204504
v 0.048558645 0.08905353 -0.0074204504
v -0.042018786 -0.07443463 0.13177025
v -0.1302743 -0.07443463 0.04574485
v 0.0065669417 0.08905353 -0.048402622
v 0.0065669417 0.08905353 -0.048402622
v -0.1302743 -0.07443463 0.04574485
v -0.067284465 -0.15036017 -0.01886022
v 0.026339896 0.033391923 -0.06870328
v 0.026339896 0.033391923 -0.06870328
v -0.067284465 -0.15036017 -0.01886022
v 0.020971045 -0.15036017 0.067165166
v 0.068331584 0.033391923 -0.027716517
vt 0.7154137 0.64210564
vt 0.7204846 0.64210564
vt 0.7204846 0.6446411
vt 0.7154137 0.6446411
vt 0.7204846 0.64717656
vt 0.7154137 0.64717656
vt 0.7154137 0.6318535
vt 0.7204846 0.6318535
vt 0.7204846 0.634389
vt 0.7154137 0.634389
vt 0.7204846 0.63692445
vt 0.7154137 0.63692445
vt 0.7204846 0.6395702
vt 0.7154137 0.6395702
vt 0.64982224 0.6648146
vt 0.6484994 0.6670193
vt 0.64717656 0.6648146
vt 0.6484994 0.6624996
vt 0.64596397 0.6624996
vt 0.6446411 0.6648146
vt 0.64596397 0.6670193
vt 0.64717656 0.6648146
vt 0.64596397 0.6670193
vt 0.6446411 0.6648146
vt 0.64596397 0.6624996
vt 0.6484994 0.6624996
vt 0.64982224 0.6648146
vt 0.6484994 0.6670193
vt 0.7384533 0.6918228
vt 0.74462664 0.6918228
vt 0.74462664 0.69524014
vt 0.7384533 0.6954607
vt 0.7384533 0.6954607
vt 0.74462664 0.69524014
vt 0.74462664 0.6987678
vt 0.7384533 0.6987678
vt 0.7384533 0.6987678
vt 0.74462664 0.6987678
vt 0.74462664 0.70229536
vt 0.7384533 0.70240563
vt 0.7384533 0.70240563
vt 0.74462664 0.70229536
vt 0.74462664 0.705823
vt 0.7384533 0.705823
vn -0.948239 -0.18043274 0.26131743
vn -0.948239 -0.18043274 0.26131743
vn -0.71789783 0.003840208 -0.6961379
vn -0.71789783 0.003840208 -0.6961379
vn 0.23417902 0.18043512 -0.9553028
vn 0.23417902 0.18043512 -0.9553028
vn 0.23417902 0.18043512 -0.9553028
vn 0.23417902 0.18043512 -0.9553028
vn 0.9482367 0.18043512 -0.2613241
vn 0.9482367 0.18043512 -0.2613241
vn 0.7178955 -0.0038378239 0.6961403
vn 0.7178955 -0.0038378239 0.6961403
vn -0.23418134 -0.18043274 0.9553026
vn -0.23418134 -0.18043274 0.9553026
vn 0.14204258 -0.9789489 -0.14657061
vn 0.14204258 -0.9789489 -0.14657061
vn 0.14204258 -0.9789489 -0.14657061
vn 0.14204258 -0.9789489 -0.14657061
vn 0.14204258 -0.9789489 -0.14657061
vn 0.14204258 -0.9789489 -0.14657061
vn 0.14204258 -0.9789489 -0.14657061
vn -0.14204496 0.9789513 0.14655252
vn -0.14204496 0.9789513 0.14655252
vn -0.14204496 0.9789513 0.14655252
vn -0.14204496 0.9789513 0.14655252
vn -0.14204496 0.9789513 0.14655252
vn -0.14204496 0.9789513 0.14655252
vn -0.14204496 0.9789513 0.14655252
vn 0.7869979 0.09597665 0.6094447
vn 0.7869979 0.09597665 0.6094447
vn 0.7869979 0.09597665 0.6094447
vn 0.7869979 0.09597665 0.6094447
vn -0.4952348 0.70254177 0.51105535
vn -0.4952348 0.70254177 0.51105535
vn -0.4952348 0.70254177 0.51105535
vn -0.4952348 0.70254177 0.51105535
vn -0.6334395 0.09597665 -0.76781696
vn -0.6334395 0.09597665 -0.76781696
vn -0.6334395 0.09597665 -0.76781696
vn -0.6334395 0.09597665 -0.76781696
vn 0.61040294 -0.4798763 -0.6301801
vn 0.61040294 -0.4798763 -0.6301801
vn 0.61040294 -0.4798763 -0.6301801
vn 0.61040294 -0.4798763 -0.6301801
g WormAssistantLeg01_0
f 3/3/3 2/2/2 1/1/1
f 4/4/4 3/3/3 1/1/1
f 5/5/5 3/3/3 4/4/4
f 6/6/6 5/5/5 4/4/4
f 9/9/9 8/8/8 7/7/7
f 10/10/10 9/9/9 7/7/7
f 11/11/11 9/9/9 10/10/10
f 12/12/12 11/11/11 10/10/10
f 13/13/13 11/11/11 12/12/12
f 14/14/14 13/13/13 12/12/12
f 2/2/2 13/13/13 14/14/14
f 1/1/1 2/2/2 14/14/14
f 17/17/17 16/16/16 15/15/15
f 17/17/17 15/15/15 18/18/18
f 17/17/17 18/18/18 19/19/19
f 17/17/17 19/19/19 20/20/20
f 17/17/17 20/20/20 21/21/21
f 17/17/17 21/21/21 16/16/16
f 24/24/24 23/23/23 22/22/22
f 25/25/25 24/24/24 22/22/22
f 26/26/26 25/25/25 22/22/22
f 27/27/27 26/26/26 22/22/22
f 28/28/28 27/27/27 22/22/22
f 23/23/23 28/28/28 22/22/22
f 31/31/31 30/30/30 29/29/29
f 32/32/32 31/31/31 29/29/29
f 35/35/35 34/34/34 33/33/33
f 36/36/36 35/35/35 33/33/33
f 39/39/39 38/38/38 37/37/37
f 40/40/40 39/39/39 37/37/37
f 43/43/43 42/42/42 41/41/41
f 44/44/44 43/43/43 41/41/41
