g WormHeadThorn01
v 1.0198264 6.491585 0.51037216
v 1.0362548 6.4622736 0.6214702
v 1.0018617 6.505295 0.7237041
v 0.9622682 6.5760903 0.45541406
v 0.6937418 6.54997 0.43165803
v 0.693269 6.348812 0.62891614
v 0.8021215 6.3996334 0.37599075
v 0.63630176 6.6217113 0.601969
v 0.6637217 6.572781 0.78729
v 0.7596915 6.4320173 0.8788868
v 0.8681894 6.2816806 0.82321966
v 0.92551124 6.2099395 0.6529087
v 0.8982095 6.2588696 0.4675876
v 0.8982095 6.2588696 0.4675876
v 1.0198264 6.491585 0.51037216
v 0.9622682 6.5760903 0.45541406
v 0.8021215 6.3996334 0.37599075
v 0.8971458 6.666269 0.48874354
v 0.6937418 6.54997 0.43165803
v 0.8627527 6.7092896 0.59097743
v 0.63630176 6.6217113 0.601969
v 0.879181 6.679979 0.7021936
v 0.6637217 6.572781 0.78729
v 0.93673927 6.5954733 0.7571517
v 0.7596915 6.4320173 0.8788868
v 1.0018617 6.505295 0.7237041
v 0.8681894 6.2816806 0.82321966
v 1.0362548 6.4622736 0.6214702
v 0.92551124 6.2099395 0.6529087
v 0.93673927 6.5954733 0.7571517
v 0.879181 6.679979 0.7021936
v 0.8627527 6.7092896 0.59097743
v 0.8971458 6.666269 0.48874354
vt 0.921756 0.74118567
vt 0.92281073 0.74224037
vt 0.9244983 0.74245137
vt 0.9213341 0.739709
vt 0.8768244 0.71587205
vt 0.88167614 0.7179815
vt 0.87956667 0.71312976
vt 0.8768244 0.71988004
vt 0.87956667 0.72262233
vt 0.8833637 0.72262233
vt 0.88631696 0.71988004
vt 0.88631696 0.71587205
vt 0.8833637 0.71312976
vt 0.91838086 0.7435061
vt 0.921756 0.74118567
vt 0.9213341 0.739709
vt 0.917748 0.7390762
vt 0.9221779 0.73886526
vt 0.92070127 0.735701
vt 0.9236545 0.7390762
vt 0.92513114 0.735701
vt 0.9249202 0.73991996
vt 0.92850626 0.7386543
vt 0.9253421 0.74160755
vt 0.9289282 0.7430842
vt 0.9244983 0.74245137
vt 0.9259749 0.74624836
vt 0.92281073 0.74224037
vt 0.921545 0.7464593
vt 0.9253421 0.74160755
vt 0.9249202 0.73991996
vt 0.9236545 0.7390762
vt 0.9221779 0.73886526
vn 0.812374 0.57457787 0.09954278
vn 0.812374 0.57457787 0.09954278
vn 0.812374 0.57457787 0.09954278
vn 0.812374 0.57457787 0.09954278
vn -0.8860858 -0.32286155 -0.33258432
vn -0.81191725 -0.5824515 -0.039250493
vn -0.71549815 -0.5527841 -0.427191
vn -0.97508806 -0.21160877 -0.066520736
vn -0.93800384 -0.27836043 0.20655327
vn -0.78224987 -0.5008661 0.37042984
vn -0.60424536 -0.74562234 0.28095356
vn -0.5152431 -0.8568752 0.017014692
vn -0.567161 -0.7752898 -0.27794635
vn 0.7975403 -0.32286155 -0.5095978
vn 0.760456 -0.28577733 -0.58312774
vn 0.30802786 0.1444003 -0.94035494
vn 0.36736274 0.085065424 -0.9261795
vn -0.16665083 0.64874643 -0.7425332
vn -0.15181714 0.63391274 -0.7583575
vn -0.366906 0.92317015 -0.114616156
vn -0.35948914 0.930587 -0.06910474
vn -0.17406768 0.8045004 0.5678728
vn -0.122149765 0.75999933 0.6383419
vn 0.28577733 0.3520723 0.89127797
vn 0.3376953 0.30015427 0.89211506
vn 0.72337174 -0.13002336 0.67810565
vn 0.7382055 -0.14485705 0.6588392
vn 0.91621 -0.38961327 0.0935988
vn 0.91621 -0.38219643 0.12035421
vn 0.812374 0.57457787 0.09954278
vn 0.812374 0.57457787 0.09954278
vn 0.812374 0.57457787 0.09954278
vn 0.812374 0.57457787 0.09954278
g WormHeadThorn01_0
f 3/3/3 2/2/2 1/1/1
f 4/4/4 3/3/3 1/1/1
f 7/7/7 6/6/6 5/5/5
f 5/5/5 6/6/6 8/8/8
f 8/8/8 6/6/6 9/9/9
f 9/9/9 6/6/6 10/10/10
f 10/10/10 6/6/6 11/11/11
f 11/11/11 6/6/6 12/12/12
f 12/12/12 6/6/6 13/13/13
f 13/13/13 6/6/6 7/7/7
f 16/16/16 15/15/15 14/14/14
f 17/17/17 16/16/16 14/14/14
f 18/18/18 16/16/16 17/17/17
f 19/19/19 18/18/18 17/17/17
f 20/20/20 18/18/18 19/19/19
f 21/21/21 20/20/20 19/19/19
f 22/22/22 20/20/20 21/21/21
f 23/23/23 22/22/22 21/21/21
f 24/24/24 22/22/22 23/23/23
f 25/25/25 24/24/24 23/23/23
f 26/26/26 24/24/24 25/25/25
f 27/27/27 26/26/26 25/25/25
f 28/28/28 26/26/26 27/27/27
f 29/29/29 28/28/28 27/27/27
f 15/15/15 28/28/28 29/29/29
f 14/14/14 15/15/15 29/29/29
f 32/32/32 31/31/31 30/30/30
f 33/33/33 32/32/32 30/30/30
f 33/33/33 30/30/30 3/3/3
f 4/4/4 33/33/33 3/3/3
