g WormAssistantLeg03_CorpsePart
v 0.1705521 0.23380378 -0.0058109164
v 0.005146235 0.23380378 -0.16713099
v 0.05861333 0.27799478 -0.22191766
v 0.2240192 0.27799478 -0.060607344
v 0.112080425 0.23380378 -0.2767043
v 0.2774863 0.23380378 -0.11540379
v 0.112080425 0.14543155 -0.2767043
v 0.2774863 0.14543155 -0.11540379
v 0.2774863 0.14543155 -0.11540379
v 0.112080425 0.14543155 -0.2767043
v 0.05861333 0.101240575 -0.22191766
v 0.2240192 0.101240575 -0.060607344
v 0.005146235 0.14543155 -0.16713099
v 0.1705521 0.14543155 -0.0058109164
v 0.05861333 0.27799478 -0.22191766
v 0.005146235 0.23380378 -0.16713099
v 0.05861333 0.18962255 -0.22191766
v 0.112080425 0.23380378 -0.2767043
v 0.112080425 0.14543155 -0.2767043
v 0.05861333 0.101240575 -0.22191766
v 0.005146235 0.14543155 -0.16713099
v 0.2240192 0.18962255 -0.060607344
v 0.1705521 0.23380378 -0.0058109164
v 0.2240192 0.27799478 -0.060607344
v 0.2774863 0.23380378 -0.11540379
v 0.2774863 0.14543155 -0.11540379
v 0.2240192 0.101240575 -0.060607344
v 0.1705521 0.14543155 -0.0058109164
v 0.1151301 -0.04215288 0.101279676
v -0.013894707 0.21717718 0.23353985
v 0.15236157 0.32028946 0.06317824
v 0.22059809 0.098229975 -0.006847024
v -0.10679254 -0.04215288 -0.11515942
v 0.1151301 -0.04215288 0.101279676
v 0.22059809 0.098229975 -0.006847024
v -0.0013245642 0.098229975 -0.22327632
v -0.23581734 0.21717718 0.017100751
v -0.10679254 -0.04215288 -0.11515942
v -0.0013245642 0.098229975 -0.22327632
v -0.069561064 0.32028946 -0.15326083
v -0.013894707 0.21717718 0.23353985
v -0.23581734 0.21717718 0.017100751
v -0.069561064 0.32028946 -0.15326083
v 0.15236157 0.32028946 0.06317824
v 0.15236157 0.32028946 0.06317824
v -0.069561064 0.32028946 -0.15326083
v 0.025897712 0.2015867 -0.25121215
v 0.24782036 0.2015867 -0.03477305
v -0.27744737 -0.32028928 0.07568976
v -0.07138893 -0.32028928 0.27670452
v -0.028908491 -0.32028928 0.23315862
v -0.23496696 -0.32028928 0.032134116
v -0.27744737 -0.32028928 0.07568976
v -0.23581734 0.21717718 0.017100751
v -0.013894707 0.21717718 0.23353985
v -0.07138893 -0.32028928 0.27670452
v -0.23496696 -0.32028928 0.032134116
v -0.27744737 -0.32028928 0.07568976
v -0.028908491 -0.32028928 0.23315862
v 0.1151301 -0.04215288 0.101279676
v -0.10679254 -0.04215288 -0.11515942
v -0.23496696 -0.32028928 0.032134116
v -0.07138893 -0.32028928 0.27670452
v -0.028908491 -0.32028928 0.23315862
v 0.24782036 0.2015867 -0.03477305
v 0.24782036 0.2015867 -0.03477305
v 0.025897712 0.2015867 -0.25121215
v 0.025897712 0.2015867 -0.25121215
vt 0.73109144 0.7323848
vt 0.73109144 0.7247322
vt 0.7340016 0.7247322
vt 0.7340016 0.7323848
vt 0.7370195 0.7247322
vt 0.7370195 0.7323848
vt 0.7399296 0.7247322
vt 0.7399296 0.7323848
vt 0.7222532 0.7323848
vt 0.7222532 0.7247322
vt 0.72516334 0.7247322
vt 0.72516334 0.7323848
vt 0.7281813 0.7247322
vt 0.7281813 0.7323848
vt 0.6498231 0.664805
vt 0.64852977 0.6669606
vt 0.64723635 0.664805
vt 0.64852977 0.6625415
vt 0.645943 0.6625415
vt 0.64464957 0.664805
vt 0.645943 0.6669606
vt 0.64723635 0.664805
vt 0.645943 0.6669606
vt 0.64464957 0.664805
vt 0.645943 0.6625415
vt 0.64852977 0.6625415
vt 0.6498231 0.664805
vt 0.64852977 0.6669606
vt 0.6368892 0.674721
vt 0.62966776 0.6669606
vt 0.63710475 0.6625415
vt 0.6413083 0.6694396
vt 0.67622995 0.6502543
vt 0.67622995 0.66006255
vt 0.66911626 0.66006255
vt 0.66911626 0.6502543
vt 0.72160655 0.65758353
vt 0.7143851 0.6653439
vt 0.709966 0.66006255
vt 0.7141695 0.65316445
vt 0.6502543 0.66006255
vt 0.6502543 0.6502543
vt 0.65920025 0.6502543
vt 0.65920025 0.66006255
vt 0.65920025 0.66006255
vt 0.65920025 0.6502543
vt 0.6653439 0.6502543
vt 0.6653439 0.66006255
vt 0.63171566 0.6502543
vt 0.63171566 0.66006255
vt 0.62966776 0.66006255
vt 0.62966776 0.6502543
vt 0.63171566 0.6502543
vt 0.6502543 0.6502543
vt 0.6502543 0.66006255
vt 0.63171566 0.66006255
vt 0.71955866 0.6753677
vt 0.72160655 0.675691
vt 0.6878705 0.66006255
vt 0.67622995 0.66006255
vt 0.67622995 0.6502543
vt 0.6878705 0.6502543
vt 0.62966776 0.68506813
vt 0.63171566 0.6847448
vt 0.6420628 0.6658828
vt 0.6653439 0.66006255
vt 0.6653439 0.6502543
vt 0.7091037 0.6565057
vn -0.6078384 0.4980353 0.6184604
vn -0.6078384 0.4980353 0.6184604
vn -0.003921509 0.99999225 -0.00034526698
vn 0.0039215684 0.99999225 -0.00034526698
vn 0.6078385 0.4980353 -0.61846036
vn 0.6078385 0.4980353 -0.61846036
vn 0.6078385 -0.49803543 -0.61846024
vn 0.6078385 -0.49803543 -0.61846024
vn 0.6078385 -0.49803543 -0.61846024
vn 0.6078385 -0.49803543 -0.61846024
vn -0.003921509 -0.9999924 -0
vn 0.0039215684 -0.9999924 -0
vn -0.6078384 -0.49803543 0.61846036
vn -0.6078384 -0.49803543 0.61846036
vn -0.7176415 0.003921509 -0.6964017
vn -0.7176415 0.003921509 -0.6964017
vn -0.7176415 0.003921509 -0.6964017
vn -0.7176415 0.003921509 -0.6964017
vn -0.7176415 -0.0039215684 -0.6964017
vn -0.7176415 -0.0039215684 -0.6964017
vn -0.7176415 -0.0039215684 -0.6964017
vn 0.7176416 0.003921509 0.6964016
vn 0.7176416 0.003921509 0.6964016
vn 0.7176416 0.003921509 0.6964016
vn 0.7176416 0.003921509 0.6964016
vn 0.7176416 0.003921509 0.6964016
vn 0.7176416 0.003921509 0.6964016
vn 0.7176416 0.003921509 0.6964016
vn 0.7097985 -0.011764646 0.70430654
vn 0.7097985 -0.0039215684 0.70439386
vn 0.7176416 -0.0039215684 0.6964016
vn 0.7176416 -0.0039215684 0.6964016
vn 0.4745062 -0.73332775 -0.48690277
vn 0.4745062 -0.73332775 -0.48690277
vn 0.552937 -0.6156816 -0.561424
vn 0.552937 -0.6156816 -0.561424
vn -0.7176415 -0.0039215684 -0.6964017
vn -0.7254846 -0.011764646 -0.6881378
vn -0.7176415 0.003921509 -0.6964017
vn -0.7176415 0.003921509 -0.6964017
vn -0.27842915 0.91371846 0.29596582
vn -0.27842915 0.91371846 0.29596582
vn -0.27842915 0.91371846 0.29596582
vn -0.27842915 0.91371846 0.29596582
vn 0.45882004 0.7568569 -0.46545863
vn 0.45882004 0.7568569 -0.46545863
vn 0.45882004 0.7568569 -0.46545863
vn 0.45882004 0.7568569 -0.46545863
vn -0.003921509 -0.9999924 -0
vn -0.003921509 -0.9999924 -0
vn -0.003921509 -0.9999924 -0
vn -0.003921509 -0.9999924 -0
vn -0.6941123 0.12941074 0.7081391
vn -0.6941123 0.12941074 0.7081391
vn -0.6941123 0.12941074 0.7081391
vn -0.6941123 0.12941074 0.7081391
vn -0.7333276 -0.019607723 -0.6795926
vn -0.7333276 -0.019607723 -0.6795926
vn 0.5686231 -0.5764662 -0.58681726
vn 0.5686231 -0.5764662 -0.58681726
vn 0.5686231 -0.5764662 -0.58681726
vn 0.5686231 -0.5764662 -0.58681726
vn 0.70195544 -0.019607723 0.7119509
vn 0.70195544 -0.019607723 0.7119509
vn 0.7176416 -0.0039215684 0.6964016
vn 0.654897 -0.35686004 -0.6661538
vn 0.654897 -0.35686004 -0.6661538
vn -0.7176415 0.003921509 -0.6964017
g WormAssistantLeg03_CorpsePart_0
f 3/3/3 2/2/2 1/1/1
f 4/4/4 3/3/3 1/1/1
f 5/5/5 3/3/3 4/4/4
f 6/6/6 5/5/5 4/4/4
f 7/7/7 5/5/5 6/6/6
f 8/8/8 7/7/7 6/6/6
f 11/11/11 10/10/10 9/9/9
f 12/12/12 11/11/11 9/9/9
f 13/13/13 11/11/11 12/12/12
f 14/14/14 13/13/13 12/12/12
f 2/2/2 13/13/13 14/14/14
f 1/1/1 2/2/2 14/14/14
f 17/17/17 16/16/16 15/15/15
f 17/17/17 15/15/15 18/18/18
f 17/17/17 18/18/18 19/19/19
f 17/17/17 19/19/19 20/20/20
f 17/17/17 20/20/20 21/21/21
f 17/17/17 21/21/21 16/16/16
f 24/24/24 23/23/23 22/22/22
f 25/25/25 24/24/24 22/22/22
f 26/26/26 25/25/25 22/22/22
f 27/27/27 26/26/26 22/22/22
f 28/28/28 27/27/27 22/22/22
f 23/23/23 28/28/28 22/22/22
f 31/31/31 30/30/30 29/29/29
f 32/32/32 31/31/31 29/29/29
f 35/35/35 34/34/34 33/33/33
f 36/36/36 35/35/35 33/33/33
f 39/39/39 38/38/38 37/37/37
f 40/40/40 39/39/39 37/37/37
f 43/43/43 42/42/42 41/41/41
f 44/44/44 43/43/43 41/41/41
f 47/47/47 46/46/46 45/45/45
f 48/48/48 47/47/47 45/45/45
f 51/51/51 50/50/50 49/49/49
f 52/52/52 51/51/51 49/49/49
f 55/55/55 54/54/54 53/53/53
f 56/56/56 55/55/55 53/53/53
f 37/37/37 38/38/38 57/57/57
f 58/58/58 37/37/37 57/57/57
f 61/61/61 60/60/60 59/59/59
f 62/62/62 61/61/61 59/59/59
f 29/29/29 30/30/30 63/63/63
f 64/64/64 29/29/29 63/63/63
f 65/65/65 31/31/31 32/32/32
f 66/66/66 35/35/35 36/36/36
f 67/67/67 66/66/66 36/36/36
f 68/68/68 39/39/39 40/40/40
