g WormAssistantLeg01
v -0.0019130707 0.12320304 -0.036820605
v -0.0774761 0.13678575 -0.038472563
v -0.104453385 -0.011385143 -0.023357198
v -0.028894946 -0.024958685 -0.021709844
v -0.11556277 0.15036386 0.02686672
v -0.14241615 0.0021975785 0.04197748
v -0.11556277 0.15036386 0.02686672
v -0.07796709 0.15036386 0.093848765
v -0.10494438 0.0021975785 0.108964115
v -0.14241615 0.0021975785 0.04197748
v -0.002404064 0.13678575 0.09549613
v -0.02938135 -0.011385143 0.1106115
v 0.035682596 0.12320304 0.03016144
v 0.008705303 -0.024958685 0.045276806
v -0.104453385 -0.011385143 -0.023357198
v -0.06685771 -0.011385143 0.043629438
v -0.028894946 -0.024958685 -0.021709844
v -0.14241615 0.0021975785 0.04197748
v -0.10494438 0.0021975785 0.108964115
v -0.02938135 -0.011385143 0.1106115
v 0.008705303 -0.024958685 0.045276806
v -0.03999974 0.13678575 0.028514087
v -0.0774761 0.13678575 -0.038472563
v -0.0019130707 0.12320304 -0.036820605
v -0.11556277 0.15036386 0.02686672
v -0.07796709 0.15036386 0.093848765
v -0.002404064 0.13678575 0.09549613
v 0.035682596 0.12320304 0.03016144
v -0.040123627 0.033391923 0.06220472
v -0.015463665 0.08905353 0.048332915
v 0.14249504 -0.07443463 -0.0031391531
v 0.0637566 -0.15036017 0.040995494
v -0.015463665 0.08905353 0.048332915
v -0.044152558 0.08905353 -0.0028730035
v 0.08218963 -0.07443463 -0.11061238
v 0.14249504 -0.07443463 -0.0031391531
v -0.044152558 0.08905353 -0.0028730035
v -0.06880793 0.033391923 0.0109988
v 0.003455773 -0.15036017 -0.06647773
v 0.08218963 -0.07443463 -0.11061238
v -0.06880793 0.033391923 0.0109988
v -0.040123627 0.033391923 0.06220472
v 0.0637566 -0.15036017 0.040995494
v 0.003455773 -0.15036017 -0.06647773
vt 0.7154137 0.64210564
vt 0.7154137 0.6446411
vt 0.7204846 0.6446411
vt 0.7204846 0.64210564
vt 0.7154137 0.64717656
vt 0.7204846 0.64717656
vt 0.7154137 0.6318535
vt 0.7154137 0.634389
vt 0.7204846 0.634389
vt 0.7204846 0.6318535
vt 0.7154137 0.63692445
vt 0.7204846 0.63692445
vt 0.7154137 0.6395702
vt 0.7204846 0.6395702
vt 0.64982224 0.6648146
vt 0.64717656 0.6648146
vt 0.6484994 0.6670193
vt 0.6484994 0.6624996
vt 0.64596397 0.6624996
vt 0.6446411 0.6648146
vt 0.64596397 0.6670193
vt 0.64717656 0.6648146
vt 0.6446411 0.6648146
vt 0.64596397 0.6670193
vt 0.64596397 0.6624996
vt 0.6484994 0.6624996
vt 0.64982224 0.6648146
vt 0.6484994 0.6670193
vt 0.7384533 0.6918228
vt 0.7384533 0.6954607
vt 0.74462664 0.69524014
vt 0.74462664 0.6918228
vt 0.7384533 0.6954607
vt 0.7384533 0.6987678
vt 0.74462664 0.6987678
vt 0.74462664 0.69524014
vt 0.7384533 0.6987678
vt 0.7384533 0.70240563
vt 0.74462664 0.70229536
vt 0.74462664 0.6987678
vt 0.7384533 0.70240563
vt 0.7384533 0.705823
vt 0.74462664 0.705823
vt 0.74462664 0.70229536
vn 0.49776086 -0.17361438 -0.84976006
vn -0.49011415 -0.00382334 -0.87164986
vn -0.49011415 -0.00382334 -0.87164986
vn 0.49776086 -0.17361438 -0.84976006
vn -0.98405164 0.17368549 -0.038415194
vn -0.98405164 0.17368549 -0.038415194
vn -0.98405164 0.17368549 -0.038415194
vn -0.497832 0.17368549 0.84970385
vn -0.497832 0.17368549 0.84970385
vn -0.98405164 0.17368549 -0.038415194
vn 0.49004307 -0.00382334 0.87168986
vn 0.49004307 -0.00382334 0.87168986
vn 0.9839806 -0.17361438 0.04050008
vn 0.9839806 -0.17361438 0.04050008
vn -0.18140322 -0.9762628 0.118337706
vn -0.18140322 -0.9762628 0.118337706
vn -0.18140322 -0.9762628 0.118337706
vn -0.18140322 -0.9762628 0.118337706
vn -0.18140322 -0.9762628 0.118337706
vn -0.18140322 -0.9762628 0.118337706
vn -0.18140322 -0.9762628 0.118337706
vn 0.18133211 0.9763339 -0.117859
vn 0.18133211 0.9763339 -0.117859
vn 0.18133211 0.9763339 -0.117859
vn 0.18133211 0.9763339 -0.117859
vn 0.18133211 0.9763339 -0.117859
vn 0.18133211 0.9763339 -0.117859
vn 0.18133211 0.9763339 -0.117859
vn 0.38971204 0.09650773 0.91586614
vn 0.38971204 0.09650773 0.91586614
vn 0.38971204 0.09650773 0.91586614
vn 0.38971204 0.09650773 0.91586614
vn 0.62124527 0.70621186 -0.3395867
vn 0.62124527 0.70621186 -0.3395867
vn 0.62124527 0.70621186 -0.3395867
vn 0.62124527 0.70621186 -0.3395867
vn -0.5827275 0.09650773 -0.8069169
vn -0.5827275 0.09650773 -0.8069169
vn -0.5827275 0.09650773 -0.8069169
vn -0.5827275 0.09650773 -0.8069169
vn -0.76795405 -0.48232532 0.42143664
vn -0.76795405 -0.48232532 0.42143664
vn -0.76795405 -0.48232532 0.42143664
vn -0.76795405 -0.48232532 0.42143664
g WormAssistantLeg01_0
f 3/3/3 2/2/2 1/1/1
f 4/4/4 3/3/3 1/1/1
f 6/6/6 5/5/5 2/2/2
f 3/3/3 6/6/6 2/2/2
f 9/9/9 8/8/8 7/7/7
f 10/10/10 9/9/9 7/7/7
f 12/12/12 11/11/11 8/8/8
f 9/9/9 12/12/12 8/8/8
f 14/14/14 13/13/13 11/11/11
f 12/12/12 14/14/14 11/11/11
f 4/4/4 1/1/1 13/13/13
f 14/14/14 4/4/4 13/13/13
f 17/17/17 16/16/16 15/15/15
f 15/15/15 16/16/16 18/18/18
f 18/18/18 16/16/16 19/19/19
f 19/19/19 16/16/16 20/20/20
f 20/20/20 16/16/16 21/21/21
f 21/21/21 16/16/16 17/17/17
f 24/24/24 23/23/23 22/22/22
f 23/23/23 25/25/25 22/22/22
f 25/25/25 26/26/26 22/22/22
f 26/26/26 27/27/27 22/22/22
f 27/27/27 28/28/28 22/22/22
f 28/28/28 24/24/24 22/22/22
f 31/31/31 30/30/30 29/29/29
f 32/32/32 31/31/31 29/29/29
f 35/35/35 34/34/34 33/33/33
f 36/36/36 35/35/35 33/33/33
f 39/39/39 38/38/38 37/37/37
f 40/40/40 39/39/39 37/37/37
f 43/43/43 42/42/42 41/41/41
f 44/44/44 43/43/43 41/41/41
