g WormAssistantBase_CorpsePart
v 6.881447 0.28764057 0.089892864
v 6.92632 0.28764057 0.15702581
v 6.9927464 0.35854244 0.12946606
v 6.932327 0.35854244 0.039131165
v 6.8144317 0.28764057 0.045137882
v 6.841874 0.35854244 -0.021288395
v 6.7354035 0.28764057 0.029355526
v 6.7354035 0.35854244 -0.042488575
v 6.656257 0.28764057 0.045137882
v 6.7354035 0.28764057 0.029355526
v 6.7354035 0.35854244 -0.042488575
v 6.6286974 0.35854244 -0.021288395
v 6.5891247 0.28764057 0.089892864
v 6.5383625 0.35854244 0.039131165
v 6.544369 0.28764057 0.15702581
v 6.477943 0.35854244 0.12946606
v 6.528587 0.28764057 0.23605442
v 6.4567432 0.35854244 0.23605442
v 6.544369 0.28764057 0.31520033
v 6.477943 0.35854244 0.3426423
v 6.5891247 0.28764057 0.3822155
v 6.5383625 0.35854244 0.43309546
v 6.656257 0.28764057 0.42708874
v 6.6286974 0.35854244 0.493515
v 6.7354035 0.28764057 0.44275284
v 6.7354035 0.35854244 0.5147147
v 6.8144317 0.28764057 0.42708874
v 6.841874 0.35854244 0.493515
v 6.881447 0.28764057 0.3822155
v 6.932327 0.35854244 0.43309546
v 6.92632 0.28764057 0.31520033
v 6.9927464 0.35854244 0.3426423
v 6.942102 0.28764057 0.23605442
v 7.013946 0.35854244 0.23605442
v 6.881447 0.28764057 0.089892864
v 6.7354035 0.24029446 0.23605442
v 6.92632 0.28764057 0.15702581
v 6.8144317 0.28764057 0.045137882
v 6.7354035 0.28764057 0.029355526
v 6.656257 0.28764057 0.045137882
v 6.5891247 0.28764057 0.089892864
v 6.544369 0.28764057 0.15702581
v 6.528587 0.28764057 0.23605442
v 6.544369 0.28764057 0.31520033
v 6.5891247 0.28764057 0.3822155
v 6.656257 0.28764057 0.42708874
v 6.7354035 0.28764057 0.44275284
v 6.8144317 0.28764057 0.42708874
v 6.881447 0.28764057 0.3822155
v 6.92632 0.28764057 0.31520033
v 6.942102 0.28764057 0.23605442
v 7.0292573 0.54251003 0.11439085
v 7.0534015 0.54251003 0.23605442
v 6.967189 0.66511583 0.23605442
v 6.949522 0.66511583 0.14736843
v 6.8992314 0.66511583 0.072108746
v 6.96024 0.54251003 0.011218071
v 6.8240895 0.66511583 0.021935463
v 6.857067 0.54251003 -0.05779934
v 6.7354035 0.66511583 0.004269123
v 6.7354035 0.54251003 -0.08194351
v 6.7354035 0.66511583 0.004269123
v 6.6466 0.66511583 0.021935463
v 6.613622 0.54251003 -0.05779934
v 6.7354035 0.54251003 -0.08194351
v 6.571458 0.66511583 0.072108746
v 6.5104494 0.54251003 0.011218071
v 6.5211673 0.66511583 0.14736843
v 6.441432 0.54251003 0.11439085
v 6.5035005 0.66511583 0.23605442
v 6.417288 0.54251003 0.23605442
v 6.5211673 0.66511583 0.3248582
v 6.441432 0.54251003 0.35783577
v 6.571458 0.66511583 0.4000001
v 6.5104494 0.54251003 0.46100855
v 6.6466 0.66511583 0.45029068
v 6.613622 0.54251003 0.5299082
v 6.7354035 0.66511583 0.4679575
v 6.7354035 0.54251003 0.55417013
v 6.8240895 0.66511583 0.45029068
v 6.857067 0.54251003 0.5299082
v 6.8992314 0.66511583 0.4000001
v 6.96024 0.54251003 0.46100855
v 6.949522 0.66511583 0.3248582
v 7.0291395 0.54251003 0.35783577
v 7.013946 0.35854244 0.23605442
v 7.0534015 0.54251003 0.23605442
v 7.0292573 0.54251003 0.11439085
v 6.9927464 0.35854244 0.12946606
v 6.96024 0.54251003 0.011218071
v 6.932327 0.35854244 0.039131165
v 6.857067 0.54251003 -0.05779934
v 6.841874 0.35854244 -0.021288395
v 6.7354035 0.54251003 -0.08194351
v 6.7354035 0.35854244 -0.042488575
v 6.613622 0.54251003 -0.05779934
v 6.6286974 0.35854244 -0.021288395
v 6.7354035 0.35854244 -0.042488575
v 6.7354035 0.54251003 -0.08194351
v 6.5104494 0.54251003 0.011218071
v 6.5383625 0.35854244 0.039131165
v 6.441432 0.54251003 0.11439085
v 6.477943 0.35854244 0.12946606
v 6.417288 0.54251003 0.23605442
v 6.4567432 0.35854244 0.23605442
v 6.441432 0.54251003 0.35783577
v 6.477943 0.35854244 0.3426423
v 6.5104494 0.54251003 0.46100855
v 6.5383625 0.35854244 0.43309546
v 6.613622 0.54251003 0.5299082
v 6.6286974 0.35854244 0.493515
v 6.7354035 0.54251003 0.55417013
v 6.7354035 0.35854244 0.5147147
v 6.857067 0.54251003 0.5299082
v 6.841874 0.35854244 0.493515
v 6.96024 0.54251003 0.46100855
v 6.932327 0.35854244 0.43309546
v 7.0291395 0.54251003 0.35783577
v 6.9927464 0.35854244 0.3426423
v 6.949522 0.66511583 0.14736843
v 6.7354035 0.66511583 0.23605442
v 6.8992314 0.66511583 0.072108746
v 6.8240895 0.66511583 0.021935463
v 6.7354035 0.66511583 0.004269123
v 6.6466 0.66511583 0.021935463
v 6.571458 0.66511583 0.072108746
v 6.5211673 0.66511583 0.14736843
v 6.5035005 0.66511583 0.23605442
v 6.5211673 0.66511583 0.3248582
v 6.571458 0.66511583 0.4000001
v 6.6466 0.66511583 0.45029068
v 6.7354035 0.66511583 0.4679575
v 6.8240895 0.66511583 0.45029068
v 6.8992314 0.66511583 0.4000001
v 6.949522 0.66511583 0.3248582
v 6.967189 0.66511583 0.23605442
vt 0.67576134 0.6318838
vt 0.6724373 0.6318838
vt 0.6724373 0.63554025
vt 0.67576134 0.63554025
vt 0.6789746 0.6318838
vt 0.6789746 0.63554025
vt 0.68229866 0.6318838
vt 0.68229866 0.63554025
vt 0.6329918 0.6318838
vt 0.62966776 0.6318838
vt 0.62966776 0.63554025
vt 0.6329918 0.63554025
vt 0.6362051 0.6318838
vt 0.6362051 0.63554025
vt 0.6395291 0.6318838
vt 0.6395291 0.63554025
vt 0.6428532 0.6318838
vt 0.6428532 0.63554025
vt 0.6460664 0.6318838
vt 0.6460664 0.63554025
vt 0.6493905 0.6318838
vt 0.6493905 0.63554025
vt 0.65271455 0.6318838
vt 0.65271455 0.63554025
vt 0.65603864 0.6318838
vt 0.65603864 0.63554025
vt 0.65925187 0.6318838
vt 0.65925187 0.63554025
vt 0.66257596 0.6318838
vt 0.66257596 0.63554025
vt 0.6659 0.6318838
vt 0.6659 0.63554025
vt 0.6691133 0.6318838
vt 0.6691133 0.63554025
vt 0.7386969 0.70878035
vt 0.7360376 0.71531767
vt 0.7410237 0.71033156
vt 0.7360376 0.7083371
vt 0.7333784 0.70878035
vt 0.73105156 0.71033156
vt 0.7296111 0.7125476
vt 0.7290571 0.71531767
vt 0.7296111 0.7179769
vt 0.73105156 0.72019297
vt 0.7333784 0.7217442
vt 0.7360376 0.7221874
vt 0.7386969 0.7217442
vt 0.7410237 0.72019297
vt 0.7424641 0.7179769
vt 0.74301815 0.71531767
vt 0.7424641 0.7125476
vt 0.6724373 0.64241
vt 0.6691133 0.64241
vt 0.6691133 0.6478393
vt 0.6724373 0.6478393
vt 0.67576134 0.6478393
vt 0.67576134 0.64241
vt 0.6789746 0.6478393
vt 0.6789746 0.64241
vt 0.68229866 0.6478393
vt 0.68229866 0.64241
vt 0.62966776 0.6478393
vt 0.6329918 0.6478393
vt 0.6329918 0.64241
vt 0.62966776 0.64241
vt 0.6362051 0.6478393
vt 0.6362051 0.64241
vt 0.6395291 0.6478393
vt 0.6395291 0.64241
vt 0.6428532 0.6478393
vt 0.6428532 0.64241
vt 0.6460664 0.6478393
vt 0.6460664 0.64241
vt 0.6493905 0.6478393
vt 0.6493905 0.64241
vt 0.65271455 0.6478393
vt 0.65271455 0.64241
vt 0.65603864 0.6478393
vt 0.65603864 0.64241
vt 0.65925187 0.6478393
vt 0.65925187 0.64241
vt 0.66257596 0.6478393
vt 0.66257596 0.64241
vt 0.6659 0.6478393
vt 0.6659 0.64241
vt 0.6691133 0.63554025
vt 0.6691133 0.64241
vt 0.6724373 0.64241
vt 0.6724373 0.63554025
vt 0.67576134 0.64241
vt 0.67576134 0.63554025
vt 0.6789746 0.64241
vt 0.6789746 0.63554025
vt 0.68229866 0.64241
vt 0.68229866 0.63554025
vt 0.6329918 0.64241
vt 0.6329918 0.63554025
vt 0.62966776 0.63554025
vt 0.62966776 0.64241
vt 0.6362051 0.64241
vt 0.6362051 0.63554025
vt 0.6395291 0.64241
vt 0.6395291 0.63554025
vt 0.6428532 0.64241
vt 0.6428532 0.63554025
vt 0.6460664 0.64241
vt 0.6460664 0.63554025
vt 0.6493905 0.64241
vt 0.6493905 0.63554025
vt 0.65271455 0.64241
vt 0.65271455 0.63554025
vt 0.65603864 0.64241
vt 0.65603864 0.63554025
vt 0.65925187 0.64241
vt 0.65925187 0.63554025
vt 0.66257596 0.64241
vt 0.66257596 0.63554025
vt 0.6659 0.64241
vt 0.6659 0.63554025
vt 0.7410237 0.71033156
vt 0.7360376 0.71531767
vt 0.7424641 0.7125476
vt 0.74301815 0.71531767
vt 0.7424641 0.7179769
vt 0.7410237 0.72019297
vt 0.7386969 0.7217442
vt 0.7360376 0.7221874
vt 0.7333784 0.7217442
vt 0.73105156 0.72019297
vt 0.7296111 0.7179769
vt 0.7290571 0.71531767
vt 0.7296111 0.7125476
vt 0.73105156 0.71033156
vt 0.7333784 0.70878035
vt 0.7360376 0.7083371
vt 0.7386969 0.70878035
vn 0.36470312 -0.8509739 -0.3779353
vn 0.48234928 -0.8509739 -0.20780426
vn 0.6470539 -0.7097985 -0.27840135
vn 0.49803543 -0.7097985 -0.49814332
vn 0.1999985 -0.8509739 -0.48563775
vn 0.2705862 -0.7097985 -0.6503608
vn -0.003921509 -0.8509739 -0.52519333
vn -0.003921509 -0.7097985 -0.70439386
vn -0.19999838 -0.8509739 -0.4856378
vn -0.003921509 -0.8509739 -0.52519333
vn -0.003921509 -0.7097985 -0.70439386
vn -0.27058613 -0.7097985 -0.6503608
vn -0.36470306 -0.8509739 -0.37793538
vn -0.4980353 -0.7097985 -0.49814343
vn -0.48234916 -0.8509739 -0.20780455
vn -0.64705384 -0.7097985 -0.27840158
vn -0.5215646 -0.8509739 -0.061755996
vn -0.7019553 -0.7097985 -0.05869285
vn -0.48234916 -0.8509739 0.20780455
vn -0.64705384 -0.7097985 0.27840158
vn -0.36470306 -0.8509739 0.37793538
vn -0.4980353 -0.7097985 0.49814343
vn -0.19999838 -0.8509739 0.4856378
vn -0.27058613 -0.7097985 0.6503608
vn -0.003921509 -0.8509739 0.52519333
vn -0.003921509 -0.7097985 0.70439386
vn 0.1999985 -0.8509739 0.48563775
vn 0.2705862 -0.7097985 0.6503608
vn 0.36470312 -0.8509739 0.3779353
vn 0.49803543 -0.7097985 0.49814332
vn 0.48234928 -0.8509739 0.20780426
vn 0.6470539 -0.7097985 0.27840135
vn 0.52156466 -0.8509739 -0.061755516
vn 0.70195544 -0.7097985 -0.058690816
vn 0.36470312 -0.8509739 -0.3779353
vn -0.003921509 -0.9999924 -0
vn 0.48234928 -0.8509739 -0.20780426
vn 0.1999985 -0.8509739 -0.48563775
vn -0.003921509 -0.8509739 -0.52519333
vn -0.19999838 -0.8509739 -0.4856378
vn -0.36470306 -0.8509739 -0.37793538
vn -0.48234916 -0.8509739 -0.20780455
vn -0.5215646 -0.8509739 -0.061755996
vn -0.48234916 -0.8509739 0.20780455
vn -0.36470306 -0.8509739 0.37793538
vn -0.19999838 -0.8509739 0.4856378
vn -0.003921509 -0.8509739 0.52519333
vn 0.1999985 -0.8509739 0.48563775
vn 0.36470312 -0.8509739 0.3779353
vn 0.48234928 -0.8509739 0.20780426
vn 0.52156466 -0.8509739 -0.061755516
vn 0.756857 0.5764661 -0.30798438
vn 0.8179429 0.57529944 -0
vn 0.8179429 0.57529944 -0
vn 0.756857 0.5764661 -0.30798438
vn 0.5764662 0.5764661 -0.57911444
vn 0.5764662 0.5764661 -0.57911444
vn 0.30980158 0.5764661 -0.75611496
vn 0.30980158 0.5764661 -0.75611496
vn -0.003921509 0.5764661 -0.8171117
vn -0.003921509 0.5764661 -0.8171117
vn -0.003921509 0.5764661 -0.8171117
vn -0.30980146 0.5764661 -0.75611496
vn -0.30980146 0.5764661 -0.75611496
vn -0.003921509 0.5764661 -0.8171117
vn -0.5764661 0.5764661 -0.57911456
vn -0.5764661 0.5764661 -0.57911456
vn -0.7568569 0.5764661 -0.3079845
vn -0.7568569 0.5764661 -0.3079845
vn -0.81794286 0.57529944 -0
vn -0.81794286 0.57529944 -0
vn -0.7568569 0.5764661 0.3079845
vn -0.7568569 0.5764661 0.3079845
vn -0.5764661 0.5764661 0.57911456
vn -0.5764661 0.5764661 0.57911456
vn -0.30980146 0.5764661 0.75611496
vn -0.30980146 0.5764661 0.75611496
vn -0.003921509 0.5764661 0.8171117
vn -0.003921509 0.5764661 0.8171117
vn 0.30980158 0.5764661 0.75611496
vn 0.30980158 0.5764661 0.75611496
vn 0.5764662 0.5764661 0.57911444
vn 0.5764662 0.5764661 0.57911444
vn 0.756857 0.5764661 0.30798438
vn 0.756857 0.5764661 0.30798438
vn 0.97646314 -0.20784158 0.05763364
vn 0.97646314 -0.20784158 0.05763364
vn 0.90587544 -0.20784158 -0.36904138
vn 0.90587544 -0.20784158 -0.36904138
vn 0.69411236 -0.20784158 -0.68920964
vn 0.69411236 -0.20784158 -0.68920964
vn 0.3725462 -0.20784158 -0.90443975
vn 0.3725462 -0.20784158 -0.90443975
vn -0.003921509 -0.20784158 -0.97815466
vn -0.003921509 -0.20784158 -0.97815466
vn -0.37254608 -0.20784158 -0.90443975
vn -0.37254608 -0.20784158 -0.90443975
vn -0.003921509 -0.20784158 -0.97815466
vn -0.003921509 -0.20784158 -0.97815466
vn -0.6941123 -0.20784158 -0.6892097
vn -0.6941123 -0.20784158 -0.6892097
vn -0.9058753 -0.20784158 -0.36904168
vn -0.9058753 -0.20784158 -0.36904168
vn -0.9764631 -0.20784158 -0.057634674
vn -0.9764631 -0.20784158 -0.057634674
vn -0.9058753 -0.20784158 0.36904168
vn -0.9058753 -0.20784158 0.36904168
vn -0.6941123 -0.20784158 0.6892097
vn -0.6941123 -0.20784158 0.6892097
vn -0.37254608 -0.20784158 0.90443975
vn -0.37254608 -0.20784158 0.90443975
vn -0.003921509 -0.20784158 0.97815466
vn -0.003921509 -0.20784158 0.97815466
vn 0.3725462 -0.20784158 0.90443975
vn 0.3725462 -0.20784158 0.90443975
vn 0.69411236 -0.20784158 0.68920964
vn 0.69411236 -0.20784158 0.68920964
vn 0.90587544 -0.20784158 0.36904138
vn 0.90587544 -0.20784158 0.36904138
vn -0.003921509 0.99999225 -0.00034526698
vn -0.003921509 0.99999225 -0.00034526698
vn -0.003921509 0.99999225 -0.00034526698
vn -0.003921509 0.99999225 -0.00034526698
vn -0.003921509 0.99999225 -0.00034526698
vn -0.003921509 0.99999225 -0.00034526698
vn -0.003921509 0.99999225 -0.00034526698
vn -0.003921509 0.99999225 -0.00034526698
vn -0.003921509 0.99999225 -0.00034526698
vn -0.003921509 0.99999225 -0.00034526698
vn -0.003921509 0.99999225 -0.00034526698
vn -0.003921509 0.99999225 -0.00034526698
vn -0.003921509 0.99999225 -0.00034526698
vn -0.003921509 0.99999225 -0.00034526698
vn -0.003921509 0.99999225 -0.00034526698
vn -0.003921509 0.99999225 -0.00034526698
vn -0.003921509 0.99999225 -0.00034526698
g WormAssistantBase_CorpsePart_0
f 3/3/3 2/2/2 1/1/1
f 4/4/4 3/3/3 1/1/1
f 4/4/4 1/1/1 5/5/5
f 6/6/6 4/4/4 5/5/5
f 6/6/6 5/5/5 7/7/7
f 8/8/8 6/6/6 7/7/7
f 11/11/11 10/10/10 9/9/9
f 12/12/12 11/11/11 9/9/9
f 12/12/12 9/9/9 13/13/13
f 14/14/14 12/12/12 13/13/13
f 14/14/14 13/13/13 15/15/15
f 16/16/16 14/14/14 15/15/15
f 16/16/16 15/15/15 17/17/17
f 18/18/18 16/16/16 17/17/17
f 18/18/18 17/17/17 19/19/19
f 20/20/20 18/18/18 19/19/19
f 20/20/20 19/19/19 21/21/21
f 22/22/22 20/20/20 21/21/21
f 22/22/22 21/21/21 23/23/23
f 24/24/24 22/22/22 23/23/23
f 24/24/24 23/23/23 25/25/25
f 26/26/26 24/24/24 25/25/25
f 26/26/26 25/25/25 27/27/27
f 28/28/28 26/26/26 27/27/27
f 28/28/28 27/27/27 29/29/29
f 30/30/30 28/28/28 29/29/29
f 30/30/30 29/29/29 31/31/31
f 32/32/32 30/30/30 31/31/31
f 32/32/32 31/31/31 33/33/33
f 34/34/34 32/32/32 33/33/33
f 34/34/34 33/33/33 2/2/2
f 3/3/3 34/34/34 2/2/2
f 37/37/37 36/36/36 35/35/35
f 35/35/35 36/36/36 38/38/38
f 38/38/38 36/36/36 39/39/39
f 39/39/39 36/36/36 40/40/40
f 40/40/40 36/36/36 41/41/41
f 41/41/41 36/36/36 42/42/42
f 42/42/42 36/36/36 43/43/43
f 43/43/43 36/36/36 44/44/44
f 44/44/44 36/36/36 45/45/45
f 45/45/45 36/36/36 46/46/46
f 46/46/46 36/36/36 47/47/47
f 47/47/47 36/36/36 48/48/48
f 48/48/48 36/36/36 49/49/49
f 49/49/49 36/36/36 50/50/50
f 50/50/50 36/36/36 51/51/51
f 51/51/51 36/36/36 37/37/37
f 54/54/54 53/53/53 52/52/52
f 55/55/55 54/54/54 52/52/52
f 57/57/57 56/56/56 55/55/55
f 52/52/52 57/57/57 55/55/55
f 59/59/59 58/58/58 56/56/56
f 57/57/57 59/59/59 56/56/56
f 61/61/61 60/60/60 58/58/58
f 59/59/59 61/61/61 58/58/58
f 64/64/64 63/63/63 62/62/62
f 65/65/65 64/64/64 62/62/62
f 67/67/67 66/66/66 63/63/63
f 64/64/64 67/67/67 63/63/63
f 69/69/69 68/68/68 66/66/66
f 67/67/67 69/69/69 66/66/66
f 71/71/71 70/70/70 68/68/68
f 69/69/69 71/71/71 68/68/68
f 73/73/73 72/72/72 70/70/70
f 71/71/71 73/73/73 70/70/70
f 75/75/75 74/74/74 72/72/72
f 73/73/73 75/75/75 72/72/72
f 77/77/77 76/76/76 74/74/74
f 75/75/75 77/77/77 74/74/74
f 79/79/79 78/78/78 76/76/76
f 77/77/77 79/79/79 76/76/76
f 81/81/81 80/80/80 78/78/78
f 79/79/79 81/81/81 78/78/78
f 83/83/83 82/82/82 80/80/80
f 81/81/81 83/83/83 80/80/80
f 85/85/85 84/84/84 82/82/82
f 83/83/83 85/85/85 82/82/82
f 53/53/53 54/54/54 84/84/84
f 85/85/85 53/53/53 84/84/84
f 88/88/88 87/87/87 86/86/86
f 89/89/89 88/88/88 86/86/86
f 89/89/89 91/91/91 90/90/90
f 88/88/88 89/89/89 90/90/90
f 91/91/91 93/93/93 92/92/92
f 90/90/90 91/91/91 92/92/92
f 93/93/93 95/95/95 94/94/94
f 92/92/92 93/93/93 94/94/94
f 98/98/98 97/97/97 96/96/96
f 99/99/99 98/98/98 96/96/96
f 97/97/97 101/101/101 100/100/100
f 96/96/96 97/97/97 100/100/100
f 101/101/101 103/103/103 102/102/102
f 100/100/100 101/101/101 102/102/102
f 103/103/103 105/105/105 104/104/104
f 102/102/102 103/103/103 104/104/104
f 105/105/105 107/107/107 106/106/106
f 104/104/104 105/105/105 106/106/106
f 107/107/107 109/109/109 108/108/108
f 106/106/106 107/107/107 108/108/108
f 109/109/109 111/111/111 110/110/110
f 108/108/108 109/109/109 110/110/110
f 111/111/111 113/113/113 112/112/112
f 110/110/110 111/111/111 112/112/112
f 113/113/113 115/115/115 114/114/114
f 112/112/112 113/113/113 114/114/114
f 115/115/115 117/117/117 116/116/116
f 114/114/114 115/115/115 116/116/116
f 117/117/117 119/119/119 118/118/118
f 116/116/116 117/117/117 118/118/118
f 118/118/118 119/119/119 86/86/86
f 87/87/87 118/118/118 86/86/86
f 122/122/122 121/121/121 120/120/120
f 123/123/123 121/121/121 122/122/122
f 124/124/124 121/121/121 123/123/123
f 125/125/125 121/121/121 124/124/124
f 126/126/126 121/121/121 125/125/125
f 127/127/127 121/121/121 126/126/126
f 128/128/128 121/121/121 127/127/127
f 129/129/129 121/121/121 128/128/128
f 130/130/130 121/121/121 129/129/129
f 131/131/131 121/121/121 130/130/130
f 132/132/132 121/121/121 131/131/131
f 133/133/133 121/121/121 132/132/132
f 134/134/134 121/121/121 133/133/133
f 135/135/135 121/121/121 134/134/134
f 136/136/136 121/121/121 135/135/135
f 120/120/120 121/121/121 136/136/136
