g WormAssistantLeg02
v 0.03073661 -0.05007562 0.067462206
v -0.06850886 -0.05007562 -0.029298976
v -0.009300843 -0.0010634214 -0.090076976
v 0.089938626 -0.0010634214 0.006684214
v 0.050021484 -0.05007562 -0.15084897
v 0.14926696 -0.05007562 -0.054081768
v 0.050021484 -0.14809398 -0.15084897
v 0.14926696 -0.14809398 -0.054081768
v -0.009300843 -0.19710618 -0.090076976
v 0.089938626 -0.19710618 0.006684214
v -0.06850886 -0.14809398 -0.029298976
v 0.03073661 -0.14809398 0.067462206
v 0.03073661 -0.14809398 0.067462206
v -0.06850886 -0.14809398 -0.029298976
v -0.009300843 -0.0010634214 -0.090076976
v -0.06850886 -0.05007562 -0.029298976
v -0.009300843 -0.09908781 -0.090076976
v 0.050021484 -0.05007562 -0.15084897
v 0.050021484 -0.14809398 -0.15084897
v -0.009300843 -0.19710618 -0.090076976
v -0.06850886 -0.14809398 -0.029298976
v 0.089938626 -0.09908781 0.006684214
v 0.03073661 -0.05007562 0.067462206
v 0.089938626 -0.0010634214 0.006684214
v 0.14926696 -0.05007562 -0.054081768
v 0.14926696 -0.14809398 -0.054081768
v 0.089938626 -0.19710618 0.006684214
v 0.03073661 -0.14809398 0.067462206
v -0.010401636 0.19710273 0.090584815
v 0.10971674 -0.036414996 -0.023746908
v 0.03525406 -0.14301713 0.05256246
v -0.06911641 0.11293745 0.1508455
v -0.06911641 0.11293745 0.1508455
v 0.03525406 -0.14301713 0.05256246
v -0.053615123 -0.14301713 -0.03409311
v -0.14919734 0.11293745 0.072743595
v -0.14919734 0.11293745 0.072743595
v -0.053615123 -0.14301713 -0.03409311
v 0.020847559 -0.036414996 -0.11040849
v -0.09048256 0.19710273 0.012482896
v -0.09048256 0.19710273 0.012482896
v 0.020847559 -0.036414996 -0.11040849
v 0.10971674 -0.036414996 -0.023746908
v -0.010401636 0.19710273 0.090584815
vt 0.7470393 0.73953426
vt 0.74243623 0.73953426
vt 0.74243623 0.7363321
vt 0.7470393 0.7363321
vt 0.74243623 0.7330299
vt 0.7470393 0.7330299
vt 0.74243623 0.7297277
vt 0.7470393 0.7297277
vt 0.74243623 0.7265255
vt 0.7470393 0.7265255
vt 0.74243623 0.72322327
vt 0.7470393 0.72322327
vt 0.7470393 0.7428365
vt 0.74243623 0.7428365
vt 0.64977384 0.66478395
vt 0.64847296 0.66698545
vt 0.64727217 0.66478395
vt 0.64847296 0.66258246
vt 0.6459713 0.66258246
vt 0.6446704 0.66478395
vt 0.6459713 0.66698545
vt 0.64727217 0.66478395
vt 0.6459713 0.66698545
vt 0.6446704 0.66478395
vt 0.6459713 0.66258246
vt 0.64847296 0.66258246
vt 0.64977384 0.66478395
vt 0.64847296 0.66698545
vt 0.73282975 0.6848975
vt 0.7420359 0.6845973
vt 0.7420359 0.6893005
vt 0.73282975 0.6893005
vt 0.73282975 0.6719888
vt 0.7420359 0.6719888
vt 0.7420359 0.67589146
vt 0.73282975 0.6761916
vt 0.73282975 0.6761916
vt 0.7420359 0.67589146
vt 0.7420359 0.6806947
vt 0.73282975 0.6806947
vt 0.73282975 0.6806947
vt 0.7420359 0.6806947
vt 0.7420359 0.6845973
vt 0.73282975 0.6848975
vn -0.6078384 0.4980353 0.6184604
vn -0.6078384 0.4980353 0.6184604
vn -0.003921509 0.99999225 -0.00034526698
vn 0.0039215684 0.99999225 -0.00034526698
vn 0.6078385 0.4980353 -0.61846036
vn 0.6078385 0.4980353 -0.61846036
vn 0.6078385 -0.49803543 -0.61846024
vn 0.6078385 -0.49803543 -0.61846024
vn -0.003921509 -0.9999924 -0
vn 0.0039215684 -0.9999924 -0
vn -0.6078384 -0.49803543 0.61846036
vn -0.6078384 -0.49803543 0.61846036
vn -0.6078384 -0.49803543 0.61846036
vn -0.6078384 -0.49803543 0.61846036
vn -0.7176415 0.003921509 -0.6964017
vn -0.7176415 0.003921509 -0.6964017
vn -0.7176415 0.003921509 -0.6964017
vn -0.7176415 0.003921509 -0.6964017
vn -0.7176415 0.003921509 -0.6964017
vn -0.7176415 0.003921509 -0.6964017
vn -0.7176415 0.003921509 -0.6964017
vn 0.7176416 0.003921509 0.6964016
vn 0.7176416 0.003921509 0.6964016
vn 0.7176416 0.003921509 0.6964016
vn 0.7176416 0.003921509 0.6964016
vn 0.7176416 0.003921509 0.6964016
vn 0.7176416 0.003921509 0.6964016
vn 0.7176416 0.003921509 0.6964016
vn 0.70195544 0.011764526 0.7121237
vn 0.70195544 0.011764526 0.7121237
vn 0.70195544 0.011764526 0.7121237
vn 0.70195544 0.011764526 0.7121237
vn -0.6078384 -0.49019235 0.62469506
vn -0.6078384 -0.49019235 0.62469506
vn -0.6078384 -0.49019235 0.62469506
vn -0.6078384 -0.49019235 0.62469506
vn -0.7254846 0.011764526 -0.6881378
vn -0.7254846 0.011764526 -0.6881378
vn -0.7254846 0.011764526 -0.6881378
vn -0.7254846 0.011764526 -0.6881378
vn 0.5686231 0.5764661 -0.5868173
vn 0.5686231 0.5764661 -0.5868173
vn 0.5686231 0.5764661 -0.5868173
vn 0.5686231 0.5764661 -0.5868173
g WormAssistantLeg02_0
f 3/3/3 2/2/2 1/1/1
f 4/4/4 3/3/3 1/1/1
f 5/5/5 3/3/3 4/4/4
f 6/6/6 5/5/5 4/4/4
f 7/7/7 5/5/5 6/6/6
f 8/8/8 7/7/7 6/6/6
f 9/9/9 7/7/7 8/8/8
f 10/10/10 9/9/9 8/8/8
f 11/11/11 9/9/9 10/10/10
f 12/12/12 11/11/11 10/10/10
f 2/2/2 14/14/14 13/13/13
f 1/1/1 2/2/2 13/13/13
f 17/17/17 16/16/16 15/15/15
f 17/17/17 15/15/15 18/18/18
f 17/17/17 18/18/18 19/19/19
f 17/17/17 19/19/19 20/20/20
f 17/17/17 20/20/20 21/21/21
f 17/17/17 21/21/21 16/16/16
f 24/24/24 23/23/23 22/22/22
f 25/25/25 24/24/24 22/22/22
f 26/26/26 25/25/25 22/22/22
f 27/27/27 26/26/26 22/22/22
f 28/28/28 27/27/27 22/22/22
f 23/23/23 28/28/28 22/22/22
f 31/31/31 30/30/30 29/29/29
f 32/32/32 31/31/31 29/29/29
f 35/35/35 34/34/34 33/33/33
f 36/36/36 35/35/35 33/33/33
f 39/39/39 38/38/38 37/37/37
f 40/40/40 39/39/39 37/37/37
f 43/43/43 42/42/42 41/41/41
f 44/44/44 43/43/43 41/41/41
